<svg version="1.1" xmlns="http://www.w3.org/2000/svg" xmlns:xlink="http://www.w3.org/1999/xlink" width="1017" height="608"><defs/><g transform="translate(12.388479747501322,-53.45397159389796) scale(1.1530773277222515,1.1530773277222515)"><path fill="none" stroke="rgb(120,144,156)" paint-order="fill stroke markers" d=" M 161.55196629213484 405.48314606741576 L 385.7842683722283 514.7963933314613" stroke-opacity="1" stroke-linejoin="round" stroke-miterlimit="10"/><path fill="rgb(120,144,156)" stroke="none" paint-order="stroke fill markers" d=" M 377.8556166868351 515.770550634832 L 387.5820211812171 515.6727978258433 L 381.6679762373969 507.95032591573096 Z" fill-opacity="1"/><path fill="none" stroke="rgb(55,71,79)" paint-order="fill stroke markers" d=" M 278.14681332623115 111.23902773936021 L 299.8204273259076 145.77584354372266" stroke-opacity="1" stroke-linejoin="round" stroke-miterlimit="10" stroke-width="2"/><path fill="none" stroke="rgb(120,144,156)" paint-order="fill stroke markers" d=" M 262.53474025974026 265.125 L 302.03304064673773 375.31953368836247" stroke-opacity="1" stroke-linejoin="round" stroke-miterlimit="10"/><path fill="rgb(120,144,156)" stroke="none" paint-order="stroke fill markers" d=" M 295.6774337079608 370.4802403060833 L 302.7078814781388 377.20224180495245 L 303.86721401512733 367.5446826894886 Z" fill-opacity="1"/><path fill="none" stroke="rgb(55,71,79)" paint-order="fill stroke markers" d=" M 351.34183673469386 106.875 L 326.9295726740924 145.77584354372266" stroke-opacity="1" stroke-linejoin="round" stroke-miterlimit="10" stroke-width="2"/><path fill="none" stroke="rgb(120,144,156)" paint-order="fill stroke markers" d=" M 692.875 263.125 L 692.875 289.5" stroke-opacity="1" stroke-linejoin="round" stroke-miterlimit="10"/><path fill="rgb(120,144,156)" stroke="none" paint-order="stroke fill markers" d=" M 688.525 282.8 L 692.875 291.5 L 697.225 282.8 Z" fill-opacity="1"/><path fill="none" stroke="rgb(120,144,156)" paint-order="fill stroke markers" d=" M 470.04123376623374 265.125 L 513.9405498467678 375.59059928761826" stroke-opacity="1" stroke-linejoin="round" stroke-miterlimit="10"/><path fill="rgb(120,144,156)" stroke="none" paint-order="stroke fill markers" d=" M 507.4236961078559 370.9707381051117 L 514.6791676381662 377.4492126842744 L 515.5086643833101 367.7577507125286 Z" fill-opacity="1"/><path fill="none" stroke="rgb(120,144,156)" paint-order="fill stroke markers" d=" M 574.4587662337663 265.125 L 530.5594501532322 375.59059928761826" stroke-opacity="1" stroke-linejoin="round" stroke-miterlimit="10"/><path fill="rgb(120,144,156)" stroke="none" paint-order="stroke fill markers" d=" M 528.9913356166899 367.7577507125286 L 529.8208323618338 377.4492126842744 L 537.0763038921441 370.9707381051117 Z" fill-opacity="1"/><path fill="none" stroke="rgb(120,144,156)" paint-order="fill stroke markers" d=" M 325.94186592519145 189.5633726491661 L 347.82249753165627 228.19636282933067" stroke-opacity="1" stroke-linejoin="round" stroke-miterlimit="10"/><path fill="rgb(120,144,156)" stroke="none" paint-order="stroke fill markers" d=" M 340.73553977782666 224.51023616365106 L 348.80813407480855 229.9366273508339 L 348.3056904463657 220.2227172009387 Z" fill-opacity="1"/><path fill="none" stroke="rgb(120,144,156)" paint-order="fill stroke markers" d=" M 352.77077939963607 276.12952848652253 L 317.21695935326227 375.31953368836247" stroke-opacity="1" stroke-linejoin="round" stroke-miterlimit="10"/><path fill="rgb(120,144,156)" stroke="none" paint-order="stroke fill markers" d=" M 315.3827859848727 367.5446826894886 L 316.5421185218612 377.20224180495245 L 323.5725662920392 370.4802403060833 Z" fill-opacity="1"/><path fill="none" stroke="rgb(120,144,156)" paint-order="fill stroke markers" d=" M 322.2964237523819 412.6147454242248 L 397.34175498934445 508.0528297147098" stroke-opacity="1" stroke-linejoin="round" stroke-miterlimit="10"/><path fill="rgb(120,144,156)" stroke="none" paint-order="stroke fill markers" d=" M 389.78089246562075 505.47487356741976 L 398.57799145299145 509.625 L 396.6198332066332 500.0972449505553 Z" fill-opacity="1"/><path fill="none" stroke="rgb(120,144,156)" paint-order="fill stroke markers" d=" M 402.0121681415929 180.375 L 374.92750246834373 228.19636282933067" stroke-opacity="1" stroke-linejoin="round" stroke-miterlimit="10"/><path fill="rgb(120,144,156)" stroke="none" paint-order="stroke fill markers" d=" M 374.4443095536343 220.2227172009387 L 373.94186592519145 229.9366273508339 L 382.01446022217334 224.51023616365106 Z" fill-opacity="1"/><path fill="none" stroke="rgb(120,144,156)" paint-order="fill stroke markers" d=" M 413.125 501.5 L 413.125 507.625" stroke-opacity="1" stroke-linejoin="round" stroke-miterlimit="10"/><path fill="rgb(120,144,156)" stroke="none" paint-order="stroke fill markers" d=" M 408.775 500.925 L 413.125 509.625 L 417.475 500.925 Z" fill-opacity="1"/><path fill="none" stroke="rgb(120,144,156)" paint-order="fill stroke markers" d=" M 509.1660641293144 412.28165460690946 L 429.7390883859664 508.0853263798137" stroke-opacity="1" stroke-linejoin="round" stroke-miterlimit="10"/><path fill="rgb(120,144,156)" stroke="none" paint-order="stroke fill markers" d=" M 430.6665114490658 500.1510723845076 L 428.4626068376068 509.625 L 437.36409169687613 505.7037671198717 Z" fill-opacity="1"/><path fill="none" stroke="rgb(55,71,79)" paint-order="fill stroke markers" d=" M 143.125 265.125 L 143.125 376" stroke-opacity="1" stroke-linejoin="round" stroke-miterlimit="10" stroke-width="2"/><path fill="none" stroke="rgb(120,144,156)" paint-order="fill stroke markers" d=" M 617.875 431.7882037533512 L 440.7808331274919 515.1126710083786" stroke-opacity="1" stroke-linejoin="round" stroke-miterlimit="10"/><path fill="rgb(120,144,156)" stroke="none" paint-order="stroke fill markers" d=" M 444.9913395853777 508.32414131719344 L 438.9711407498389 515.9641482530919 L 448.695265599881 516.1963031599839 Z" fill-opacity="1"/><path fill="rgb(69,90,100)" stroke="rgb(255,193,7)" paint-order="fill stroke markers" d=" M 361.875 157.375 L 361.875 177.375 L 456.875 177.375 L 456.875 157.375 Z" fill-opacity="1" stroke-opacity="1" stroke-miterlimit="10" stroke-width="6"/><text fill="rgb(255,255,255)" stroke="none" font-family="times new roman" font-size="10px" font-style="normal" font-weight="normal" text-decoration="normal" x="409.375" y="172.375" text-anchor="middle" dominant-baseline="text-after-edge" fill-opacity="1">42130692G&gt;A</text><path fill="rgb(69,90,100)" stroke="rgb(255,193,7)" paint-order="fill stroke markers" d=" M 312 83.875 L 312 103.875 L 407 103.875 L 407 83.875 Z" fill-opacity="1" stroke-opacity="1" stroke-miterlimit="10" stroke-width="6"/><text fill="rgb(255,255,255)" stroke="none" font-family="times new roman" font-size="10px" font-style="normal" font-weight="normal" text-decoration="normal" x="359.5" y="98.875" text-anchor="middle" dominant-baseline="text-after-edge" fill-opacity="1">42126611C&gt;G</text><path fill="rgb(69,90,100)" stroke="rgb(76,175,80)" paint-order="fill stroke markers" d=" M 417.375 242.125 L 417.375 262.125 L 512.375 262.125 L 512.375 242.125 Z" fill-opacity="1" stroke-opacity="1" stroke-miterlimit="10" stroke-width="6"/><text fill="rgb(255,255,255)" stroke="none" font-family="times new roman" font-size="10px" font-style="normal" font-weight="normal" text-decoration="normal" x="464.875" y="257.125" text-anchor="middle" dominant-baseline="text-after-edge" fill-opacity="1">42130482C&gt;A</text><path fill="rgb(69,90,100)" stroke="rgb(255,193,7)" paint-order="fill stroke markers" d=" M 383.875 252.125 L 383.8056400089954 253.8903296538765 L 383.5979876633906 255.64477546340518 L 383.25332320894773 257.37752068675786 L 382.77377161664094 259.0778823734363 L 382.16228948150393 260.73537722821453 L 381.4226467942383 262.3397862441398 L 380.55940369796707 263.8812177061088 L 379.5778823734363 265.35016817658067 L 378.4841342260007 266.73758108742913 L 377.28490257669733 268.03490257669733 L 375.98758108742913 269.2341342260007 L 374.60016817658067 270.3278823734363 L 373.1312177061088 271.30940369796707 L 371.5897862441398 272.1726467942383 L 369.98537722821453 272.91228948150393 L 368.3278823734363 273.52377161664094 L 366.62752068675786 274.00332320894773 L 364.8947754634052 274.3479876633906 L 363.1403296538765 274.5556400089954 L 361.375 274.625 L 359.6096703461235 274.5556400089954 L 357.8552245365948 274.3479876633906 L 356.12247931324214 274.00332320894773 L 354.4221176265637 273.52377161664094 L 352.76462277178547 272.91228948150393 L 351.1602137558602 272.1726467942383 L 349.6187822938912 271.30940369796707 L 348.14983182341933 270.3278823734363 L 346.76241891257087 269.2341342260007 L 345.46509742330267 268.03490257669733 L 344.2658657739993 266.73758108742913 L 343.1721176265637 265.35016817658067 L 342.19059630203293 263.8812177061088 L 341.3273532057617 262.3397862441398 L 340.58771051849607 260.73537722821453 L 339.97622838335906 259.0778823734363 L 339.49667679105227 257.37752068675786 L 339.1520123366094 255.6447754634052 L 338.9443599910046 253.8903296538765 L 338.875 252.125 L 338.9443599910046 250.3596703461235 L 339.1520123366094 248.60522453659482 L 339.49667679105227 246.87247931324214 L 339.97622838335906 245.17211762656368 L 340.58771051849607 243.51462277178547 L 341.3273532057617 241.9102137558602 L 342.19059630203293 240.36878229389114 L 343.1721176265637 238.89983182341936 L 344.2658657739993 237.51241891257087 L 345.46509742330267 236.2150974233027 L 346.76241891257087 235.0158657739993 L 348.14983182341933 233.92211762656368 L 349.6187822938912 232.94059630203293 L 351.16021375586024 232.0773532057617 L 352.7646227717855 231.33771051849604 L 354.4221176265637 230.72622838335903 L 356.1224793132422 230.24667679105227 L 357.85522453659485 229.9020123366094 L 359.60967034612355 229.6943599910046 L 361.37500000000006 229.625 L 363.1403296538766 229.69435999100463 L 364.89477546340527 229.9020123366094 L 366.627520686758 230.2466767910523 L 368.3278823734364 230.72622838335909 L 369.98537722821465 231.3377105184961 L 371.58978624413993 232.0773532057618 L 373.131217706109 232.940596302033 L 374.6001681765808 233.92211762656376 L 375.98758108742925 235.01586577399942 L 377.28490257669745 236.2150974233028 L 378.48413422600083 237.512418912571 L 379.5778823734364 238.8998318234195 L 380.5594036979672 240.36878229389131 L 381.4226467942384 241.91021375586038 L 382.16228948150405 243.5146227717857 L 382.77377161664106 245.1721176265639 L 383.2533232089478 246.87247931324237 L 383.59798766339065 248.60522453659505 L 383.8056400089954 250.35967034612375 Z" fill-opacity="1" stroke-opacity="1" stroke-miterlimit="10" stroke-width="6"/><text fill="rgb(255,255,255)" stroke="none" font-family="times new roman" font-size="15px" font-style="normal" font-weight="normal" text-decoration="normal" x="361.375" y="259.625" text-anchor="middle" dominant-baseline="text-after-edge" fill-opacity="1">*10</text><path fill="rgb(3,169,244)" stroke="none" paint-order="stroke fill markers" d=" M 361.375 219.625 L 385.875 219.625 L 385.875 219.625 A 8 8 0 0 1 393.875 227.625 L 393.875 276.625 L 393.875 276.625 A 8 8 0 0 1 385.875 284.625 L 336.875 284.625 L 336.875 284.625 A 8 8 0 0 1 328.875 276.625 L 328.875 227.625 L 328.875 227.625 A 8 8 0 0 1 336.875 219.625 L 361.375 219.625 Z" fill-opacity="0.15"/><path fill="rgb(69,90,100)" stroke="rgb(76,175,80)" paint-order="fill stroke markers" d=" M 692.875 242.125 L 735.375 242.125 L 735.375 242.125 A 5 5 0 0 1 740.375 247.125 L 740.375 257.125 L 740.375 257.125 A 5 5 0 0 1 735.375 262.125 L 650.375 262.125 L 650.375 262.125 A 5 5 0 0 1 645.375 257.125 L 645.375 247.125 L 645.375 247.125 A 5 5 0 0 1 650.375 242.125 L 692.875 242.125 Z" fill-opacity="1" stroke-opacity="1" stroke-miterlimit="10" stroke-width="2"/><text fill="rgb(255,255,255)" stroke="none" font-family="times new roman" font-size="10px" font-style="normal" font-weight="normal" text-decoration="normal" x="692.875" y="257.125" text-anchor="middle" dominant-baseline="text-after-edge" fill-opacity="1">42132049dup</text><path fill="rgb(69,90,100)" stroke="rgb(76,175,80)" paint-order="fill stroke markers" d=" M 210.375 242.125 L 210.375 262.125 L 305.375 262.125 L 305.375 242.125 Z" fill-opacity="1" stroke-opacity="1" stroke-miterlimit="10" stroke-width="6"/><text fill="rgb(255,255,255)" stroke="none" font-family="times new roman" font-size="10px" font-style="normal" font-weight="normal" text-decoration="normal" x="257.875" y="257.125" text-anchor="middle" dominant-baseline="text-after-edge" fill-opacity="1">42129130C&gt;G</text><path fill="rgb(69,90,100)" stroke="rgb(76,175,80)" paint-order="fill stroke markers" d=" M 335.875 167.375 L 335.8056400089954 169.1403296538765 L 335.5979876633906 170.89477546340518 L 335.25332320894773 172.62752068675786 L 334.77377161664094 174.32788237343632 L 334.16228948150393 175.98537722821453 L 333.4226467942383 177.58978624413982 L 332.55940369796707 179.13121770610886 L 331.5778823734363 180.60016817658064 L 330.4841342260007 181.98758108742913 L 329.28490257669733 183.2849025766973 L 327.98758108742913 184.4841342260007 L 326.60016817658067 185.57788237343632 L 325.1312177061088 186.55940369796707 L 323.5897862441398 187.4226467942383 L 321.98537722821453 188.16228948150396 L 320.3278823734363 188.77377161664094 L 318.62752068675786 189.25332320894773 L 316.8947754634052 189.5979876633906 L 315.1403296538765 189.80564000899537 L 313.375 189.875 L 311.6096703461235 189.80564000899537 L 309.8552245365948 189.5979876633906 L 308.12247931324214 189.25332320894773 L 306.4221176265637 188.77377161664094 L 304.76462277178547 188.16228948150396 L 303.1602137558602 187.4226467942383 L 301.6187822938912 186.55940369796707 L 300.14983182341933 185.57788237343632 L 298.76241891257087 184.4841342260007 L 297.46509742330267 183.28490257669733 L 296.2658657739993 181.98758108742913 L 295.1721176265637 180.60016817658064 L 294.19059630203293 179.13121770610886 L 293.3273532057617 177.58978624413982 L 292.58771051849607 175.98537722821453 L 291.97622838335906 174.32788237343632 L 291.49667679105227 172.62752068675786 L 291.1520123366094 170.8947754634052 L 290.9443599910046 169.1403296538765 L 290.875 167.375 L 290.9443599910046 165.6096703461235 L 291.1520123366094 163.85522453659482 L 291.49667679105227 162.12247931324214 L 291.97622838335906 160.42211762656368 L 292.58771051849607 158.76462277178547 L 293.3273532057617 157.1602137558602 L 294.19059630203293 155.61878229389114 L 295.1721176265637 154.14983182341936 L 296.2658657739993 152.76241891257087 L 297.46509742330267 151.4650974233027 L 298.76241891257087 150.2658657739993 L 300.14983182341933 149.17211762656368 L 301.6187822938912 148.19059630203293 L 303.16021375586024 147.3273532057617 L 304.7646227717855 146.58771051849604 L 306.4221176265637 145.97622838335903 L 308.1224793132422 145.49667679105227 L 309.85522453659485 145.1520123366094 L 311.60967034612355 144.9443599910046 L 313.37500000000006 144.875 L 315.1403296538766 144.94435999100463 L 316.89477546340527 145.1520123366094 L 318.627520686758 145.4966767910523 L 320.3278823734364 145.97622838335909 L 321.98537722821465 146.5877105184961 L 323.58978624413993 147.3273532057618 L 325.131217706109 148.190596302033 L 326.6001681765808 149.17211762656376 L 327.98758108742925 150.26586577399942 L 329.28490257669745 151.4650974233028 L 330.48413422600083 152.762418912571 L 331.5778823734364 154.1498318234195 L 332.5594036979672 155.61878229389131 L 333.4226467942384 157.16021375586038 L 334.16228948150405 158.7646227717857 L 334.77377161664106 160.4221176265639 L 335.2533232089478 162.12247931324237 L 335.59798766339065 163.85522453659505 L 335.8056400089954 165.60967034612375 Z" fill-opacity="1" stroke-opacity="1" stroke-miterlimit="10" stroke-width="6"/><text fill="rgb(255,255,255)" stroke="none" font-family="times new roman" font-size="15px" font-style="normal" font-weight="normal" text-decoration="normal" x="313.375" y="174.875" text-anchor="middle" dominant-baseline="text-after-edge" fill-opacity="1">*39</text><path fill="rgb(69,90,100)" stroke="rgb(76,175,80)" paint-order="fill stroke markers" d=" M 284.75 93.875 L 284.69605334032974 95.24803417523728 L 284.5345459604149 96.61260313820404 L 284.2664736069593 97.96029386747834 L 283.8934890351652 99.28279740156158 L 283.4178918189475 100.57196006638907 L 282.84261417329645 101.81983374544207 L 282.1712028761966 103.0187248825291 L 281.4077974015616 104.16124191511828 L 280.55710439800055 105.2403408457782 L 279.62436867076457 106.24936867076458 L 278.61534084577823 107.18210439800055 L 277.5362419151183 108.03279740156158 L 276.3937248825291 108.79620287619662 L 275.19483374544205 109.46761417329644 L 273.94696006638907 110.04289181894751 L 272.6577974015616 110.51848903516519 L 271.33529386747836 110.89147360695934 L 269.98760313820407 111.1595459604149 L 268.6230341752373 111.32105334032974 L 267.25 111.375 L 265.8769658247627 111.32105334032974 L 264.51239686179593 111.1595459604149 L 263.16470613252164 110.89147360695934 L 261.8422025984384 110.51848903516519 L 260.55303993361093 110.04289181894751 L 259.30516625455795 109.46761417329644 L 258.1062751174709 108.79620287619662 L 256.9637580848817 108.03279740156158 L 255.8846591542218 107.18210439800055 L 254.87563132923543 106.24936867076458 L 253.94289560199945 105.24034084577822 L 253.09220259843843 104.16124191511828 L 252.32879712380338 103.01872488252911 L 251.65738582670357 101.81983374544207 L 251.0821081810525 100.57196006638907 L 250.60651096483483 99.28279740156158 L 250.23352639304065 97.96029386747834 L 249.9654540395851 96.61260313820404 L 249.80394665967026 95.2480341752373 L 249.75 93.875 L 249.80394665967026 92.50196582476272 L 249.9654540395851 91.13739686179596 L 250.23352639304065 89.78970613252166 L 250.6065109648348 88.46720259843842 L 251.0821081810525 87.17803993361093 L 251.65738582670357 85.93016625455793 L 252.32879712380338 84.7312751174709 L 253.0922025984384 83.58875808488172 L 253.94289560199945 82.5096591542218 L 254.8756313292354 81.50063132923542 L 255.88465915422177 80.56789560199947 L 256.9637580848817 79.71720259843842 L 258.1062751174709 78.95379712380338 L 259.30516625455795 78.28238582670356 L 260.55303993361093 77.70710818105248 L 261.84220259843846 77.2315109648348 L 263.1647061325217 76.85852639304065 L 264.512396861796 76.59045403958508 L 265.87696582476275 76.42894665967026 L 267.25000000000006 76.375 L 268.62303417523736 76.42894665967026 L 269.9876031382041 76.5904540395851 L 271.3352938674784 76.85852639304068 L 272.65779740156165 77.23151096483484 L 273.9469600663892 77.70710818105252 L 275.19483374544217 78.2823858267036 L 276.3937248825292 78.95379712380344 L 277.53624191511835 79.71720259843849 L 278.6153408457783 80.56789560199954 L 279.6243686707647 81.50063132923552 L 280.55710439800066 82.5096591542219 L 281.40779740156165 83.58875808488185 L 282.1712028761967 84.73127511747103 L 282.8426141732965 85.93016625455807 L 283.41789181894757 87.17803993361109 L 283.89348903516526 88.46720259843859 L 284.2664736069594 89.78970613252184 L 284.53454596041496 91.13739686179616 L 284.69605334032974 92.50196582476292 Z" fill-opacity="1" stroke-opacity="1" stroke-miterlimit="10" stroke-width="6"/><text fill="rgb(255,255,255)" stroke="none" font-family="times new roman" font-size="10px" font-style="normal" font-weight="normal" text-decoration="normal" x="267.25" y="98.875" text-anchor="middle" dominant-baseline="text-after-edge" fill-opacity="1">*39.2</text><path fill="rgb(69,90,100)" stroke="rgb(255,193,7)" paint-order="fill stroke markers" d=" M 327.125 396.5 L 327.07105334032974 397.8730341752373 L 326.9095459604149 399.23760313820407 L 326.6414736069593 400.58529386747836 L 326.2684890351652 401.9077974015616 L 325.7928918189475 403.19696006638907 L 325.21761417329645 404.44483374544205 L 324.5462028761966 405.6437248825291 L 323.7827974015616 406.7862419151183 L 322.93210439800055 407.86534084577823 L 321.99936867076457 408.87436867076457 L 320.99034084577823 409.80710439800055 L 319.9112419151183 410.6577974015616 L 318.7687248825291 411.4212028761966 L 317.56983374544205 412.09261417329645 L 316.32196006638907 412.6678918189475 L 315.0327974015616 413.1434890351652 L 313.71029386747836 413.5164736069593 L 312.36260313820407 413.7845459604149 L 310.9980341752373 413.94605334032974 L 309.625 414 L 308.2519658247627 413.94605334032974 L 306.88739686179593 413.7845459604149 L 305.53970613252164 413.5164736069593 L 304.2172025984384 413.1434890351652 L 302.92803993361093 412.6678918189475 L 301.68016625455795 412.09261417329645 L 300.4812751174709 411.4212028761966 L 299.3387580848817 410.6577974015616 L 298.25965915422177 409.80710439800055 L 297.25063132923543 408.87436867076457 L 296.31789560199945 407.86534084577823 L 295.4672025984384 406.7862419151183 L 294.7037971238034 405.6437248825291 L 294.03238582670355 404.44483374544205 L 293.4571081810525 403.19696006638907 L 292.9815109648348 401.9077974015616 L 292.6085263930407 400.58529386747836 L 292.3404540395851 399.23760313820407 L 292.17894665967026 397.8730341752373 L 292.125 396.5 L 292.17894665967026 395.1269658247627 L 292.3404540395851 393.76239686179593 L 292.6085263930407 392.41470613252164 L 292.9815109648348 391.0922025984384 L 293.4571081810525 389.80303993361093 L 294.03238582670355 388.55516625455795 L 294.7037971238034 387.3562751174709 L 295.4672025984384 386.2137580848817 L 296.31789560199945 385.13465915422177 L 297.25063132923543 384.12563132923543 L 298.25965915422177 383.19289560199945 L 299.3387580848817 382.3422025984384 L 300.4812751174709 381.5787971238034 L 301.68016625455795 380.90738582670355 L 302.92803993361093 380.3321081810525 L 304.21720259843846 379.8565109648348 L 305.5397061325217 379.4835263930407 L 306.887396861796 379.2154540395851 L 308.25196582476275 379.05394665967026 L 309.62500000000006 379 L 310.99803417523736 379.05394665967026 L 312.3626031382041 379.2154540395851 L 313.7102938674784 379.4835263930407 L 315.03279740156165 379.85651096483485 L 316.3219600663892 380.3321081810525 L 317.56983374544217 380.9073858267036 L 318.7687248825292 381.57879712380344 L 319.91124191511835 382.3422025984385 L 320.9903408457783 383.19289560199957 L 321.9993686707647 384.1256313292355 L 322.93210439800066 385.1346591542219 L 323.78279740156165 386.2137580848818 L 324.5462028761967 387.35627511747106 L 325.2176141732965 388.55516625455806 L 325.79289181894757 389.8030399336111 L 326.26848903516526 391.0922025984386 L 326.6414736069594 392.4147061325218 L 326.90954596041496 393.76239686179616 L 327.07105334032974 395.1269658247629 Z" fill-opacity="1" stroke-opacity="1" stroke-miterlimit="10" stroke-width="6"/><text fill="rgb(255,255,255)" stroke="none" font-family="times new roman" font-size="10px" font-style="normal" font-weight="normal" text-decoration="normal" x="309.625" y="401.5" text-anchor="middle" dominant-baseline="text-after-edge" fill-opacity="1">*10.1</text><path fill="rgb(69,90,100)" stroke="rgb(76,175,80)" paint-order="fill stroke markers" d=" M 532.125 242.125 L 532.125 262.125 L 627.125 262.125 L 627.125 242.125 Z" fill-opacity="1" stroke-opacity="1" stroke-miterlimit="10" stroke-width="6"/><text fill="rgb(255,255,255)" stroke="none" font-family="times new roman" font-size="10px" font-style="normal" font-weight="normal" text-decoration="normal" x="579.625" y="257.125" text-anchor="middle" dominant-baseline="text-after-edge" fill-opacity="1">42129950A&gt;C</text><path fill="rgb(69,90,100)" stroke="rgb(76,175,80)" paint-order="fill stroke markers" d=" M 539.75 396.5 L 539.6960533403297 397.8730341752373 L 539.5345459604149 399.23760313820407 L 539.2664736069594 400.58529386747836 L 538.8934890351652 401.9077974015616 L 538.4178918189475 403.19696006638907 L 537.8426141732964 404.44483374544205 L 537.1712028761966 405.6437248825291 L 536.4077974015615 406.7862419151183 L 535.5571043980005 407.86534084577823 L 534.6243686707646 408.87436867076457 L 533.6153408457782 409.80710439800055 L 532.5362419151182 410.6577974015616 L 531.3937248825291 411.4212028761966 L 530.1948337454421 412.09261417329645 L 528.9469600663891 412.6678918189475 L 527.6577974015615 413.1434890351652 L 526.3352938674783 413.5164736069593 L 524.987603138204 413.7845459604149 L 523.6230341752373 413.94605334032974 L 522.25 414 L 520.8769658247627 413.94605334032974 L 519.512396861796 413.7845459604149 L 518.1647061325217 413.5164736069593 L 516.8422025984385 413.1434890351652 L 515.5530399336109 412.6678918189475 L 514.3051662545579 412.09261417329645 L 513.1062751174709 411.4212028761966 L 511.9637580848817 410.6577974015616 L 510.88465915422177 409.80710439800055 L 509.87563132923543 408.87436867076457 L 508.94289560199945 407.86534084577823 L 508.0922025984384 406.7862419151183 L 507.3287971238034 405.6437248825291 L 506.65738582670355 404.44483374544205 L 506.0821081810525 403.19696006638907 L 505.6065109648348 401.9077974015616 L 505.2335263930407 400.58529386747836 L 504.9654540395851 399.23760313820407 L 504.80394665967026 397.8730341752373 L 504.75 396.5 L 504.80394665967026 395.1269658247627 L 504.9654540395851 393.76239686179593 L 505.2335263930407 392.41470613252164 L 505.6065109648348 391.0922025984384 L 506.0821081810525 389.80303993361093 L 506.65738582670355 388.55516625455795 L 507.3287971238034 387.3562751174709 L 508.0922025984384 386.2137580848817 L 508.94289560199945 385.13465915422177 L 509.87563132923543 384.12563132923543 L 510.88465915422177 383.19289560199945 L 511.9637580848817 382.3422025984384 L 513.1062751174709 381.5787971238034 L 514.3051662545579 380.90738582670355 L 515.553039933611 380.3321081810525 L 516.8422025984385 379.8565109648348 L 518.1647061325217 379.4835263930407 L 519.512396861796 379.2154540395851 L 520.8769658247628 379.05394665967026 L 522.2500000000001 379 L 523.6230341752373 379.05394665967026 L 524.9876031382041 379.2154540395851 L 526.3352938674784 379.4835263930407 L 527.6577974015617 379.85651096483485 L 528.9469600663891 380.3321081810525 L 530.1948337454421 380.9073858267036 L 531.3937248825292 381.57879712380344 L 532.5362419151184 382.3422025984385 L 533.6153408457783 383.19289560199957 L 534.6243686707646 384.1256313292355 L 535.5571043980007 385.1346591542219 L 536.4077974015617 386.2137580848818 L 537.1712028761967 387.35627511747106 L 537.8426141732965 388.55516625455806 L 538.4178918189476 389.8030399336111 L 538.8934890351652 391.0922025984386 L 539.2664736069594 392.4147061325218 L 539.5345459604149 393.76239686179616 L 539.6960533403297 395.1269658247629 Z" fill-opacity="1" stroke-opacity="1" stroke-miterlimit="10" stroke-width="6"/><text fill="rgb(255,255,255)" stroke="none" font-family="times new roman" font-size="10px" font-style="normal" font-weight="normal" text-decoration="normal" x="522.25" y="401.5" text-anchor="middle" dominant-baseline="text-after-edge" fill-opacity="1">*1.58</text><path fill="rgb(69,90,100)" stroke="rgb(76,175,80)" paint-order="fill stroke markers" d=" M 160.625 396.5 L 160.57105334032974 397.8730341752373 L 160.4095459604149 399.23760313820407 L 160.14147360695935 400.58529386747836 L 159.76848903516517 401.9077974015616 L 159.2928918189475 403.19696006638907 L 158.71761417329643 404.44483374544205 L 158.04620287619662 405.6437248825291 L 157.2827974015616 406.7862419151183 L 156.43210439800055 407.86534084577823 L 155.49936867076457 408.87436867076457 L 154.4903408457782 409.80710439800055 L 153.41124191511827 410.6577974015616 L 152.2687248825291 411.4212028761966 L 151.06983374544208 412.09261417329645 L 149.82196006638907 412.6678918189475 L 148.5327974015616 413.1434890351652 L 147.21029386747836 413.5164736069593 L 145.86260313820404 413.7845459604149 L 144.49803417523728 413.94605334032974 L 143.125 414 L 141.75196582476272 413.94605334032974 L 140.38739686179596 413.7845459604149 L 139.03970613252164 413.5164736069593 L 137.71720259843843 413.1434890351652 L 136.42803993361093 412.6678918189475 L 135.18016625455795 412.09261417329645 L 133.9812751174709 411.4212028761966 L 132.83875808488173 410.6577974015616 L 131.7596591542218 409.80710439800055 L 130.75063132923543 408.87436867076457 L 129.81789560199945 407.86534084577823 L 128.96720259843843 406.7862419151183 L 128.20379712380338 405.6437248825291 L 127.53238582670356 404.44483374544205 L 126.95710818105249 403.19696006638907 L 126.48151096483481 401.9077974015616 L 126.10852639304066 400.58529386747836 L 125.8404540395851 399.23760313820407 L 125.67894665967026 397.8730341752373 L 125.625 396.5 L 125.67894665967026 395.1269658247627 L 125.8404540395851 393.76239686179593 L 126.10852639304066 392.41470613252164 L 126.48151096483481 391.0922025984384 L 126.95710818105248 389.80303993361093 L 127.53238582670356 388.55516625455795 L 128.20379712380338 387.3562751174709 L 128.9672025984384 386.2137580848817 L 129.81789560199945 385.13465915422177 L 130.7506313292354 384.12563132923543 L 131.75965915422177 383.19289560199945 L 132.8387580848817 382.3422025984384 L 133.9812751174709 381.5787971238034 L 135.18016625455795 380.90738582670355 L 136.42803993361096 380.3321081810525 L 137.71720259843843 379.8565109648348 L 139.0397061325217 379.4835263930407 L 140.387396861796 379.2154540395851 L 141.75196582476278 379.05394665967026 L 143.12500000000006 379 L 144.49803417523736 379.05394665967026 L 145.86260313820412 379.2154540395851 L 147.2102938674784 379.4835263930407 L 148.53279740156165 379.85651096483485 L 149.82196006638915 380.3321081810525 L 151.06983374544217 380.9073858267036 L 152.2687248825292 381.57879712380344 L 153.41124191511838 382.3422025984385 L 154.49034084577832 383.19289560199957 L 155.49936867076468 384.1256313292355 L 156.43210439800063 385.1346591542219 L 157.28279740156168 386.2137580848818 L 158.0462028761967 387.35627511747106 L 158.7176141732965 388.55516625455806 L 159.2928918189476 389.8030399336111 L 159.76848903516523 391.0922025984386 L 160.14147360695938 392.4147061325218 L 160.40954596041493 393.76239686179616 L 160.57105334032974 395.1269658247629 Z" fill-opacity="1" stroke-opacity="1" stroke-miterlimit="10" stroke-width="6"/><text fill="rgb(255,255,255)" stroke="none" font-family="times new roman" font-size="10px" font-style="normal" font-weight="normal" text-decoration="normal" x="143.125" y="401.5" text-anchor="middle" dominant-baseline="text-after-edge" fill-opacity="1">*1.41</text><path fill="rgb(69,90,100)" stroke="rgb(69,90,100)" paint-order="fill stroke markers" d=" M 394.375 510.625 L 375.625 528.125 L 394.375 545.625 L 431.875 545.625 L 450.625 528.125 L 431.87500000000006 510.625 Z" fill-opacity="1" stroke-opacity="1" stroke-miterlimit="10" stroke-width="2"/><text fill="rgb(255,255,255)" stroke="none" font-family="times new roman" font-size="10px" font-style="normal" font-weight="normal" text-decoration="normal" x="413.125" y="533.125" text-anchor="middle" dominant-baseline="text-after-edge" fill-opacity="1">HG00463-all</text><path fill="rgb(69,90,100)" stroke="rgb(76,175,80)" paint-order="fill stroke markers" d=" M 95.62500000000001 242.125 L 95.625 262.125 L 190.62499999999997 262.125 L 190.625 242.125 Z" fill-opacity="1" stroke-opacity="1" stroke-miterlimit="10" stroke-width="6"/><text fill="rgb(255,255,255)" stroke="none" font-family="times new roman" font-size="10px" font-style="normal" font-weight="normal" text-decoration="normal" x="143.125" y="257.125" text-anchor="middle" dominant-baseline="text-after-edge" fill-opacity="1">42127407T&gt;G</text><path fill="rgb(176,190,197)" stroke="none" paint-order="stroke fill markers" d=" M 375.625 291.5 L 375.625 501.5 L 450.625 501.5 L 450.625 291.50000000000006 Z" fill-opacity="0.8"/><text fill="rgb(0,0,0)" stroke="none" font-family="times new roman" font-size="10px" font-style="normal" font-weight="normal" text-decoration="normal" x="380.625" y="306.5" text-anchor="start" dominant-baseline="text-after-edge" fill-opacity="0.8">42126390G&gt;A </text><text fill="rgb(0,0,0)" stroke="none" font-family="times new roman" font-size="10px" font-style="normal" font-weight="normal" text-decoration="normal" x="380.625" y="316.5" text-anchor="start" dominant-baseline="text-after-edge" fill-opacity="0.8">42127209T&gt;C </text><text fill="rgb(0,0,0)" stroke="none" font-family="times new roman" font-size="10px" font-style="normal" font-weight="normal" text-decoration="normal" x="380.625" y="326.5" text-anchor="start" dominant-baseline="text-after-edge" fill-opacity="0.8">42128694T&gt;C </text><text fill="rgb(0,0,0)" stroke="none" font-family="times new roman" font-size="10px" font-style="normal" font-weight="normal" text-decoration="normal" x="380.625" y="336.5" text-anchor="start" dominant-baseline="text-after-edge" fill-opacity="0.8">42129754G&gt;A </text><text fill="rgb(0,0,0)" stroke="none" font-family="times new roman" font-size="10px" font-style="normal" font-weight="normal" text-decoration="normal" x="380.625" y="346.5" text-anchor="start" dominant-baseline="text-after-edge" fill-opacity="0.8">42131791C&gt;T </text><text fill="rgb(0,0,0)" stroke="none" font-family="times new roman" font-size="10px" font-style="normal" font-weight="normal" text-decoration="normal" x="380.625" y="356.5" text-anchor="start" dominant-baseline="text-after-edge" fill-opacity="0.8">42132217G&gt;A </text><path fill="rgb(176,190,197)" stroke="none" paint-order="stroke fill markers" d=" M 692.875 291.5 L 759.875 291.5 L 759.875 291.5 A 8 8 0 0 1 767.875 299.5 L 767.875 493.5 L 767.875 493.5 A 8 8 0 0 1 759.875 501.5 L 625.875 501.5 L 625.875 501.5 A 8 8 0 0 1 617.875 493.5 L 617.875 299.5 L 617.875 299.5 A 8 8 0 0 1 625.875 291.5 L 692.875 291.5 Z" fill-opacity="0.8"/><text fill="rgb(0,0,0)" stroke="none" font-family="times new roman" font-size="10px" font-style="normal" font-weight="normal" text-decoration="normal" x="622.875" y="306.5" text-anchor="start" dominant-baseline="text-after-edge" fill-opacity="0.8">42125572G&gt;A </text><text fill="rgb(0,0,0)" stroke="none" font-family="times new roman" font-size="10px" font-style="normal" font-weight="normal" text-decoration="normal" x="622.875" y="316.5" text-anchor="start" dominant-baseline="text-after-edge" fill-opacity="0.8">42125924A&gt;G </text><text fill="rgb(0,0,0)" stroke="none" font-family="times new roman" font-size="10px" font-style="normal" font-weight="normal" text-decoration="normal" x="622.875" y="326.5" text-anchor="start" dominant-baseline="text-after-edge" fill-opacity="0.8">42125980T&gt;C </text><text fill="rgb(0,0,0)" stroke="none" font-family="times new roman" font-size="10px" font-style="normal" font-weight="normal" text-decoration="normal" x="622.875" y="336.5" text-anchor="start" dominant-baseline="text-after-edge" fill-opacity="0.8">42126069A&gt;C </text><text fill="rgb(0,0,0)" stroke="none" font-family="times new roman" font-size="10px" font-style="normal" font-weight="normal" text-decoration="normal" x="622.875" y="346.5" text-anchor="start" dominant-baseline="text-after-edge" fill-opacity="0.8">42132027C&gt;T </text><text fill="rgb(0,0,0)" stroke="none" font-family="times new roman" font-size="10px" font-style="normal" font-weight="normal" text-decoration="normal" x="622.875" y="356.5" text-anchor="start" dominant-baseline="text-after-edge" fill-opacity="0.8">42132844C&gt;A </text><text fill="rgb(0,0,0)" stroke="none" font-family="times new roman" font-size="10px" font-style="normal" font-weight="normal" text-decoration="normal" x="622.875" y="366.5" text-anchor="start" dominant-baseline="text-after-edge" fill-opacity="0.8">42132851T&gt;C </text><text fill="rgb(0,0,0)" stroke="none" font-family="times new roman" font-size="10px" font-style="normal" font-weight="normal" text-decoration="normal" x="622.875" y="376.5" text-anchor="start" dominant-baseline="text-after-edge" fill-opacity="0.8">42132969C&gt;T </text><text fill="rgb(0,0,0)" stroke="none" font-family="times new roman" font-size="10px" font-style="normal" font-weight="normal" text-decoration="normal" x="622.875" y="386.5" text-anchor="start" dominant-baseline="text-after-edge" fill-opacity="0.8">42133212A&gt;G </text><text fill="rgb(0,0,0)" stroke="none" font-family="times new roman" font-size="10px" font-style="normal" font-weight="normal" text-decoration="normal" x="622.875" y="396.5" text-anchor="start" dominant-baseline="text-after-edge" fill-opacity="0.8">42133314C&gt;T </text><text fill="rgb(0,0,0)" stroke="none" font-family="times new roman" font-size="10px" font-style="normal" font-weight="normal" text-decoration="normal" x="622.875" y="406.5" text-anchor="start" dominant-baseline="text-after-edge" fill-opacity="0.8">42133400T&gt;G </text><text fill="rgb(0,0,0)" stroke="none" font-family="times new roman" font-size="10px" font-style="normal" font-weight="normal" text-decoration="normal" x="622.875" y="416.5" text-anchor="start" dominant-baseline="text-after-edge" fill-opacity="0.8">42134096del </text><text fill="rgb(0,0,0)" stroke="none" font-family="times new roman" font-size="10px" font-style="normal" font-weight="normal" text-decoration="normal" x="622.875" y="426.5" text-anchor="start" dominant-baseline="text-after-edge" fill-opacity="0.8">42134820T&gt;G </text><text fill="rgb(0,0,0)" stroke="none" font-family="times new roman" font-size="10px" font-style="normal" font-weight="normal" text-decoration="normal" x="622.875" y="436.5" text-anchor="start" dominant-baseline="text-after-edge" fill-opacity="0.8">42135064_42135066dup </text><text fill="rgb(0,0,0)" stroke="none" font-family="times new roman" font-size="10px" font-style="normal" font-weight="normal" text-decoration="normal" x="622.875" y="446.5" text-anchor="start" dominant-baseline="text-after-edge" fill-opacity="0.8">42135201T&gt;C </text><g transform="scale(0.8672445255474452,0.8672445255474452) translate(-12.388479747501322,53.45397159389796)"/></g></svg>