<svg version="1.1" xmlns="http://www.w3.org/2000/svg" xmlns:xlink="http://www.w3.org/1999/xlink" width="1017" height="608"><defs/><g transform="translate(-112.39162011173187,-49.57318435754189) scale(1.1405586592178771,1.1405586592178771)"><path fill="none" stroke="rgb(120,144,156)" paint-order="fill stroke markers" d=" M 802.03125 263.125 L 802.03125 289.5" stroke-opacity="1" stroke-linejoin="round" stroke-miterlimit="10"/><path fill="rgb(120,144,156)" stroke="none" paint-order="stroke fill markers" d=" M 797.68125 282.8 L 802.03125 291.5 L 806.38125 282.8 Z" fill-opacity="1"/><path fill="none" stroke="rgb(120,144,156)" paint-order="fill stroke markers" d=" M 247.69055301440181 402.5179158863124 L 625.6299455630518 518.578044306764" stroke-opacity="1" stroke-linejoin="round" stroke-miterlimit="10"/><path fill="rgb(120,144,156)" stroke="none" paint-order="stroke fill markers" d=" M 617.9481643775908 520.7695592664886 L 627.5418287839691 519.16515805177 L 620.5021091683673 512.4528672554985 Z" fill-opacity="1"/><path fill="none" stroke="rgb(120,144,156)" paint-order="fill stroke markers" d=" M 388.50998376623374 265.125 L 432.40929984676774 375.59059928761826" stroke-opacity="1" stroke-linejoin="round" stroke-miterlimit="10"/><path fill="rgb(120,144,156)" stroke="none" paint-order="stroke fill markers" d=" M 425.8924461078559 370.9707381051117 L 433.1479176381662 377.4492126842744 L 433.9774143833102 367.7577507125286 Z" fill-opacity="1"/><path fill="none" stroke="rgb(120,144,156)" paint-order="fill stroke markers" d=" M 458.22453632180014 407.167588539847 L 631.4502016548188 512.7269783521551" stroke-opacity="1" stroke-linejoin="round" stroke-miterlimit="10"/><path fill="rgb(120,144,156)" stroke="none" paint-order="stroke fill markers" d=" M 623.4651880692386 512.955140658636 L 633.1580832471896 513.7677186975061 L 627.992408571515 505.5258557318232 Z" fill-opacity="1"/><path fill="none" stroke="rgb(120,144,156)" paint-order="fill stroke markers" d=" M 656.71875 415 L 656.71875 507.625" stroke-opacity="1" stroke-linejoin="round" stroke-miterlimit="10"/><path fill="rgb(120,144,156)" stroke="none" paint-order="stroke fill markers" d=" M 652.36875 500.925 L 656.71875 509.625 L 661.06875 500.925 Z" fill-opacity="1"/><path fill="none" stroke="rgb(120,144,156)" paint-order="fill stroke markers" d=" M 614.8008928571428 263.125 L 650.572304766822 376.94312880352425" stroke-opacity="1" stroke-linejoin="round" stroke-miterlimit="10"/><path fill="rgb(120,144,156)" stroke="none" paint-order="stroke fill markers" d=" M 644.4135939001409 371.8556165961066 L 651.1719579603027 378.8511162373268 L 652.7133392371818 369.24712520446514 Z" fill-opacity="1"/><path fill="none" stroke="rgb(55,71,79)" paint-order="fill stroke markers" d=" M 292.61556332623115 111.23902773936021 L 314.2891773259076 145.77584354372266" stroke-opacity="1" stroke-linejoin="round" stroke-miterlimit="10" stroke-width="2"/><path fill="none" stroke="rgb(120,144,156)" paint-order="fill stroke markers" d=" M 181.00349025974026 265.125 L 220.5017906467377 375.31953368836247" stroke-opacity="1" stroke-linejoin="round" stroke-miterlimit="10"/><path fill="rgb(120,144,156)" stroke="none" paint-order="stroke fill markers" d=" M 214.1461837079608 370.4802403060833 L 221.1766314781388 377.20224180495245 L 222.3359640151273 367.5446826894886 Z" fill-opacity="1"/><path fill="none" stroke="rgb(120,144,156)" paint-order="fill stroke markers" d=" M 271.23952939963607 276.12952848652253 L 235.6857093532623 375.31953368836247" stroke-opacity="1" stroke-linejoin="round" stroke-miterlimit="10"/><path fill="rgb(120,144,156)" stroke="none" paint-order="stroke fill markers" d=" M 233.8515359848727 367.5446826894886 L 235.0108685218612 377.20224180495245 L 242.0413162920392 370.4802403060833 Z" fill-opacity="1"/><path fill="none" stroke="rgb(55,71,79)" paint-order="fill stroke markers" d=" M 365.81058673469386 106.875 L 341.3983226740924 145.77584354372266" stroke-opacity="1" stroke-linejoin="round" stroke-miterlimit="10" stroke-width="2"/><path fill="none" stroke="rgb(120,144,156)" paint-order="fill stroke markers" d=" M 727.03125 464.43548387096774 L 678.0205817256516 508.82966339173237" stroke-opacity="1" stroke-linejoin="round" stroke-miterlimit="10"/><path fill="rgb(120,144,156)" stroke="none" paint-order="stroke fill markers" d=" M 680.0659658529032 501.10768801156007 L 676.5382807170299 510.1723412085742 L 685.9066143561652 507.5556973990644 Z" fill-opacity="1"/><path fill="none" stroke="rgb(55,71,79)" paint-order="fill stroke markers" d=" M 702.09375 180.375 L 702.09375 231.625" stroke-opacity="1" stroke-linejoin="round" stroke-miterlimit="10" stroke-width="2"/><path fill="none" stroke="rgb(120,144,156)" paint-order="fill stroke markers" d=" M 695.947304766822 271.68187119647575 L 662.865195233178 376.94312880352425" stroke-opacity="1" stroke-linejoin="round" stroke-miterlimit="10"/><path fill="rgb(120,144,156)" stroke="none" paint-order="stroke fill markers" d=" M 660.7241607628182 369.24712520446514 L 662.2655420396973 378.8511162373268 L 669.0239060998591 371.8556165961066 Z" fill-opacity="1"/><path fill="none" stroke="rgb(120,144,156)" paint-order="fill stroke markers" d=" M 887.90625 414.8705512909979 L 684.0158704022627 514.7526493214317" stroke-opacity="1" stroke-linejoin="round" stroke-miterlimit="10"/><path fill="rgb(120,144,156)" stroke="none" paint-order="stroke fill markers" d=" M 688.1189948186798 507.89868185554724 L 682.2198056166301 515.6325079952029 L 691.9463800495844 515.7115636730492 Z" fill-opacity="1"/><path fill="none" stroke="rgb(120,144,156)" paint-order="fill stroke markers" d=" M 492.92751623376626 265.125 L 449.02820015323226 375.59059928761826" stroke-opacity="1" stroke-linejoin="round" stroke-miterlimit="10"/><path fill="rgb(120,144,156)" stroke="none" paint-order="stroke fill markers" d=" M 447.4600856166898 367.7577507125286 L 448.2895823618338 377.4492126842744 L 455.5450538921441 370.9707381051117 Z" fill-opacity="1"/><path fill="none" stroke="rgb(120,144,156)" paint-order="fill stroke markers" d=" M 239.20658185840708 180.375 L 266.29124753165627 228.19636282933067" stroke-opacity="1" stroke-linejoin="round" stroke-miterlimit="10"/><path fill="rgb(120,144,156)" stroke="none" paint-order="stroke fill markers" d=" M 259.20428977782666 224.51023616365106 L 267.27688407480855 229.9366273508339 L 266.7744404463657 220.2227172009387 Z" fill-opacity="1"/><path fill="none" stroke="rgb(120,144,156)" paint-order="fill stroke markers" d=" M 315.27688407480855 189.5633726491661 L 293.39625246834373 228.19636282933067" stroke-opacity="1" stroke-linejoin="round" stroke-miterlimit="10"/><path fill="rgb(120,144,156)" stroke="none" paint-order="stroke fill markers" d=" M 292.9130595536343 220.2227172009387 L 292.41061592519145 229.9366273508339 L 300.48321022217334 224.51023616365106 Z" fill-opacity="1"/><path fill="rgb(69,90,100)" stroke="rgb(76,175,80)" paint-order="fill stroke markers" d=" M 450.59375 242.125 L 450.59375 262.125 L 545.59375 262.125 L 545.59375 242.125 Z" fill-opacity="1" stroke-opacity="1" stroke-miterlimit="10" stroke-width="6"/><text fill="rgb(255,255,255)" stroke="none" font-family="times new roman" font-size="10px" font-style="normal" font-weight="normal" text-decoration="normal" x="498.09375" y="257.125" text-anchor="middle" dominant-baseline="text-after-edge" fill-opacity="1">42129950A&gt;C</text><path fill="rgb(69,90,100)" stroke="rgb(76,175,80)" paint-order="fill stroke markers" d=" M 654.59375 157.375 L 654.59375 177.375 L 749.59375 177.375 L 749.59375 157.375 Z" fill-opacity="1" stroke-opacity="1" stroke-miterlimit="10" stroke-width="6"/><text fill="rgb(255,255,255)" stroke="none" font-family="times new roman" font-size="10px" font-style="normal" font-weight="normal" text-decoration="normal" x="702.09375" y="172.375" text-anchor="middle" dominant-baseline="text-after-edge" fill-opacity="1">42127407T&gt;G</text><path fill="rgb(69,90,100)" stroke="rgb(76,175,80)" paint-order="fill stroke markers" d=" M 719.59375 252.125 L 719.5398033403297 253.49803417523728 L 719.3782959604149 254.86260313820404 L 719.1102236069594 256.21029386747836 L 718.7372390351652 257.5327974015616 L 718.2616418189475 258.82196006638907 L 717.6863641732964 260.06983374544205 L 717.0149528761966 261.2687248825291 L 716.2515474015615 262.4112419151183 L 715.4008543980005 263.49034084577823 L 714.4681186707646 264.49936867076457 L 713.4590908457782 265.43210439800055 L 712.3799919151182 266.2827974015616 L 711.2374748825291 267.0462028761966 L 710.0385837454421 267.71761417329645 L 708.7907100663891 268.2928918189475 L 707.5015474015615 268.7684890351652 L 706.1790438674783 269.1414736069593 L 704.831353138204 269.4095459604149 L 703.4667841752373 269.57105334032974 L 702.09375 269.625 L 700.7207158247627 269.57105334032974 L 699.356146861796 269.4095459604149 L 698.0084561325217 269.1414736069593 L 696.6859525984385 268.7684890351652 L 695.3967899336109 268.2928918189475 L 694.1489162545579 267.71761417329645 L 692.9500251174709 267.0462028761966 L 691.8075080848818 266.2827974015616 L 690.7284091542218 265.43210439800055 L 689.7193813292354 264.49936867076457 L 688.7866456019995 263.49034084577823 L 687.9359525984385 262.4112419151183 L 687.1725471238034 261.2687248825291 L 686.5011358267036 260.06983374544205 L 685.9258581810525 258.82196006638907 L 685.4502609648348 257.5327974015616 L 685.0772763930406 256.21029386747836 L 684.8092040395851 254.86260313820404 L 684.6476966596703 253.49803417523728 L 684.59375 252.125 L 684.6476966596703 250.75196582476272 L 684.8092040395851 249.38739686179596 L 685.0772763930406 248.03970613252164 L 685.4502609648348 246.71720259843843 L 685.9258581810525 245.42803993361093 L 686.5011358267036 244.18016625455795 L 687.1725471238034 242.9812751174709 L 687.9359525984385 241.83875808488173 L 688.7866456019995 240.7596591542218 L 689.7193813292354 239.75063132923543 L 690.7284091542218 238.81789560199945 L 691.8075080848818 237.96720259843843 L 692.9500251174709 237.20379712380338 L 694.1489162545579 236.53238582670355 L 695.396789933611 235.9571081810525 L 696.6859525984385 235.4815109648348 L 698.0084561325217 235.10852639304065 L 699.356146861796 234.8404540395851 L 700.7207158247628 234.67894665967026 L 702.0937500000001 234.625 L 703.4667841752373 234.67894665967026 L 704.8313531382041 234.8404540395851 L 706.1790438674784 235.10852639304068 L 707.5015474015617 235.48151096483485 L 708.7907100663891 235.95710818105252 L 710.0385837454421 236.5323858267036 L 711.2374748825292 237.20379712380344 L 712.3799919151184 237.9672025984385 L 713.4590908457783 238.81789560199954 L 714.4681186707646 239.75063132923552 L 715.4008543980007 240.7596591542219 L 716.2515474015617 241.83875808488185 L 717.0149528761967 242.98127511747103 L 717.6863641732965 244.1801662545581 L 718.2616418189476 245.4280399336111 L 718.7372390351652 246.7172025984386 L 719.1102236069594 248.03970613252184 L 719.3782959604149 249.38739686179616 L 719.5398033403297 250.75196582476292 Z" fill-opacity="1" stroke-opacity="1" stroke-miterlimit="10" stroke-width="6"/><text fill="rgb(255,255,255)" stroke="none" font-family="times new roman" font-size="10px" font-style="normal" font-weight="normal" text-decoration="normal" x="702.09375" y="257.125" text-anchor="middle" dominant-baseline="text-after-edge" fill-opacity="1">*1.41</text><path fill="rgb(69,90,100)" stroke="rgb(76,175,80)" paint-order="fill stroke markers" d=" M 674.21875 396.5 L 674.1648033403297 397.8730341752373 L 674.0032959604149 399.23760313820407 L 673.7352236069594 400.58529386747836 L 673.3622390351652 401.9077974015616 L 672.8866418189475 403.19696006638907 L 672.3113641732964 404.44483374544205 L 671.6399528761966 405.6437248825291 L 670.8765474015615 406.7862419151183 L 670.0258543980005 407.86534084577823 L 669.0931186707646 408.87436867076457 L 668.0840908457782 409.80710439800055 L 667.0049919151182 410.6577974015616 L 665.8624748825291 411.4212028761966 L 664.6635837454421 412.09261417329645 L 663.4157100663891 412.6678918189475 L 662.1265474015615 413.1434890351652 L 660.8040438674783 413.5164736069593 L 659.456353138204 413.7845459604149 L 658.0917841752373 413.94605334032974 L 656.71875 414 L 655.3457158247627 413.94605334032974 L 653.981146861796 413.7845459604149 L 652.6334561325217 413.5164736069593 L 651.3109525984385 413.1434890351652 L 650.0217899336109 412.6678918189475 L 648.7739162545579 412.09261417329645 L 647.5750251174709 411.4212028761966 L 646.4325080848818 410.6577974015616 L 645.3534091542218 409.80710439800055 L 644.3443813292354 408.87436867076457 L 643.4116456019995 407.86534084577823 L 642.5609525984385 406.7862419151183 L 641.7975471238034 405.6437248825291 L 641.1261358267036 404.44483374544205 L 640.5508581810525 403.19696006638907 L 640.0752609648348 401.9077974015616 L 639.7022763930406 400.58529386747836 L 639.4342040395851 399.23760313820407 L 639.2726966596703 397.8730341752373 L 639.21875 396.5 L 639.2726966596703 395.1269658247627 L 639.4342040395851 393.76239686179593 L 639.7022763930406 392.41470613252164 L 640.0752609648348 391.0922025984384 L 640.5508581810525 389.80303993361093 L 641.1261358267036 388.55516625455795 L 641.7975471238034 387.3562751174709 L 642.5609525984385 386.2137580848817 L 643.4116456019995 385.13465915422177 L 644.3443813292354 384.12563132923543 L 645.3534091542218 383.19289560199945 L 646.4325080848818 382.3422025984384 L 647.5750251174709 381.5787971238034 L 648.7739162545579 380.90738582670355 L 650.021789933611 380.3321081810525 L 651.3109525984385 379.8565109648348 L 652.6334561325217 379.4835263930407 L 653.981146861796 379.2154540395851 L 655.3457158247628 379.05394665967026 L 656.7187500000001 379 L 658.0917841752373 379.05394665967026 L 659.4563531382041 379.2154540395851 L 660.8040438674784 379.4835263930407 L 662.1265474015617 379.85651096483485 L 663.4157100663891 380.3321081810525 L 664.6635837454421 380.9073858267036 L 665.8624748825292 381.57879712380344 L 667.0049919151184 382.3422025984385 L 668.0840908457783 383.19289560199957 L 669.0931186707646 384.1256313292355 L 670.0258543980007 385.1346591542219 L 670.8765474015617 386.2137580848818 L 671.6399528761967 387.35627511747106 L 672.3113641732965 388.55516625455806 L 672.8866418189476 389.8030399336111 L 673.3622390351652 391.0922025984386 L 673.7352236069594 392.4147061325218 L 674.0032959604149 393.76239686179616 L 674.1648033403297 395.1269658247629 Z" fill-opacity="1" stroke-opacity="1" stroke-miterlimit="10" stroke-width="2"/><text fill="rgb(255,255,255)" stroke="none" font-family="times new roman" font-size="10px" font-style="normal" font-weight="normal" text-decoration="normal" x="656.71875" y="401.5" text-anchor="middle" dominant-baseline="text-after-edge" fill-opacity="1">*1.54</text><path fill="rgb(69,90,100)" stroke="rgb(255,193,7)" paint-order="fill stroke markers" d=" M 245.59375 396.5 L 245.53980334032974 397.8730341752373 L 245.3782959604149 399.23760313820407 L 245.11022360695935 400.58529386747836 L 244.73723903516517 401.9077974015616 L 244.2616418189475 403.19696006638907 L 243.68636417329643 404.44483374544205 L 243.01495287619662 405.6437248825291 L 242.2515474015616 406.7862419151183 L 241.40085439800055 407.86534084577823 L 240.46811867076457 408.87436867076457 L 239.4590908457782 409.80710439800055 L 238.37999191511827 410.6577974015616 L 237.2374748825291 411.4212028761966 L 236.03858374544208 412.09261417329645 L 234.79071006638907 412.6678918189475 L 233.5015474015616 413.1434890351652 L 232.17904386747836 413.5164736069593 L 230.83135313820404 413.7845459604149 L 229.46678417523728 413.94605334032974 L 228.09375 414 L 226.72071582476272 413.94605334032974 L 225.35614686179596 413.7845459604149 L 224.00845613252164 413.5164736069593 L 222.68595259843843 413.1434890351652 L 221.39678993361093 412.6678918189475 L 220.14891625455795 412.09261417329645 L 218.9500251174709 411.4212028761966 L 217.80750808488173 410.6577974015616 L 216.7284091542218 409.80710439800055 L 215.71938132923543 408.87436867076457 L 214.78664560199945 407.86534084577823 L 213.93595259843843 406.7862419151183 L 213.17254712380338 405.6437248825291 L 212.50113582670357 404.44483374544205 L 211.9258581810525 403.19696006638907 L 211.45026096483483 401.9077974015616 L 211.07727639304065 400.58529386747836 L 210.8092040395851 399.23760313820407 L 210.64769665967026 397.8730341752373 L 210.59375 396.5 L 210.64769665967026 395.1269658247627 L 210.8092040395851 393.76239686179593 L 211.07727639304065 392.41470613252164 L 211.4502609648348 391.0922025984384 L 211.9258581810525 389.80303993361093 L 212.50113582670357 388.55516625455795 L 213.17254712380338 387.3562751174709 L 213.9359525984384 386.2137580848817 L 214.78664560199945 385.13465915422177 L 215.7193813292354 384.12563132923543 L 216.72840915422177 383.19289560199945 L 217.8075080848817 382.3422025984384 L 218.9500251174709 381.5787971238034 L 220.14891625455795 380.90738582670355 L 221.39678993361096 380.3321081810525 L 222.68595259843843 379.8565109648348 L 224.0084561325217 379.4835263930407 L 225.356146861796 379.2154540395851 L 226.72071582476278 379.05394665967026 L 228.09375000000006 379 L 229.46678417523736 379.05394665967026 L 230.83135313820412 379.2154540395851 L 232.1790438674784 379.4835263930407 L 233.50154740156165 379.85651096483485 L 234.79071006638915 380.3321081810525 L 236.03858374544217 380.9073858267036 L 237.2374748825292 381.57879712380344 L 238.37999191511838 382.3422025984385 L 239.45909084577832 383.19289560199957 L 240.46811867076468 384.1256313292355 L 241.40085439800063 385.1346591542219 L 242.25154740156168 386.2137580848818 L 243.0149528761967 387.35627511747106 L 243.6863641732965 388.55516625455806 L 244.2616418189476 389.8030399336111 L 244.73723903516523 391.0922025984386 L 245.11022360695938 392.4147061325218 L 245.37829596041493 393.76239686179616 L 245.53980334032974 395.1269658247629 Z" fill-opacity="1" stroke-opacity="1" stroke-miterlimit="10" stroke-width="6"/><text fill="rgb(255,255,255)" stroke="none" font-family="times new roman" font-size="10px" font-style="normal" font-weight="normal" text-decoration="normal" x="228.09375" y="401.5" text-anchor="middle" dominant-baseline="text-after-edge" fill-opacity="1">*10.1</text><path fill="rgb(69,90,100)" stroke="rgb(76,175,80)" paint-order="fill stroke markers" d=" M 458.21875 396.5 L 458.16480334032974 397.8730341752373 L 458.0032959604149 399.23760313820407 L 457.7352236069593 400.58529386747836 L 457.3622390351652 401.9077974015616 L 456.8866418189475 403.19696006638907 L 456.31136417329645 404.44483374544205 L 455.6399528761966 405.6437248825291 L 454.8765474015616 406.7862419151183 L 454.02585439800055 407.86534084577823 L 453.09311867076457 408.87436867076457 L 452.08409084577823 409.80710439800055 L 451.0049919151183 410.6577974015616 L 449.8624748825291 411.4212028761966 L 448.66358374544205 412.09261417329645 L 447.41571006638907 412.6678918189475 L 446.1265474015616 413.1434890351652 L 444.80404386747836 413.5164736069593 L 443.45635313820407 413.7845459604149 L 442.0917841752373 413.94605334032974 L 440.71875 414 L 439.3457158247627 413.94605334032974 L 437.98114686179593 413.7845459604149 L 436.63345613252164 413.5164736069593 L 435.3109525984384 413.1434890351652 L 434.02178993361093 412.6678918189475 L 432.77391625455795 412.09261417329645 L 431.5750251174709 411.4212028761966 L 430.4325080848817 410.6577974015616 L 429.35340915422177 409.80710439800055 L 428.34438132923543 408.87436867076457 L 427.41164560199945 407.86534084577823 L 426.5609525984384 406.7862419151183 L 425.7975471238034 405.6437248825291 L 425.12613582670355 404.44483374544205 L 424.5508581810525 403.19696006638907 L 424.0752609648348 401.9077974015616 L 423.7022763930407 400.58529386747836 L 423.4342040395851 399.23760313820407 L 423.27269665967026 397.8730341752373 L 423.21875 396.5 L 423.27269665967026 395.1269658247627 L 423.4342040395851 393.76239686179593 L 423.7022763930407 392.41470613252164 L 424.0752609648348 391.0922025984384 L 424.5508581810525 389.80303993361093 L 425.12613582670355 388.55516625455795 L 425.7975471238034 387.3562751174709 L 426.5609525984384 386.2137580848817 L 427.41164560199945 385.13465915422177 L 428.34438132923543 384.12563132923543 L 429.35340915422177 383.19289560199945 L 430.4325080848817 382.3422025984384 L 431.5750251174709 381.5787971238034 L 432.77391625455795 380.90738582670355 L 434.02178993361093 380.3321081810525 L 435.31095259843846 379.8565109648348 L 436.6334561325217 379.4835263930407 L 437.981146861796 379.2154540395851 L 439.34571582476275 379.05394665967026 L 440.71875000000006 379 L 442.09178417523736 379.05394665967026 L 443.4563531382041 379.2154540395851 L 444.8040438674784 379.4835263930407 L 446.12654740156165 379.85651096483485 L 447.4157100663892 380.3321081810525 L 448.66358374544217 380.9073858267036 L 449.8624748825292 381.57879712380344 L 451.00499191511835 382.3422025984385 L 452.0840908457783 383.19289560199957 L 453.0931186707647 384.1256313292355 L 454.02585439800066 385.1346591542219 L 454.87654740156165 386.2137580848818 L 455.6399528761967 387.35627511747106 L 456.3113641732965 388.55516625455806 L 456.88664181894757 389.8030399336111 L 457.36223903516526 391.0922025984386 L 457.7352236069594 392.4147061325218 L 458.00329596041496 393.76239686179616 L 458.16480334032974 395.1269658247629 Z" fill-opacity="1" stroke-opacity="1" stroke-miterlimit="10" stroke-width="6"/><text fill="rgb(255,255,255)" stroke="none" font-family="times new roman" font-size="10px" font-style="normal" font-weight="normal" text-decoration="normal" x="440.71875" y="401.5" text-anchor="middle" dominant-baseline="text-after-edge" fill-opacity="1">*1.58</text><path fill="rgb(69,90,100)" stroke="rgb(158,158,158)" paint-order="fill stroke markers" d=" M 326.46875 83.875 L 326.46875 103.875 L 421.46875 103.875 L 421.46875 83.875 Z" fill-opacity="1" stroke-opacity="1" stroke-miterlimit="10" stroke-width="6"/><text fill="rgb(255,255,255)" stroke="none" font-family="times new roman" font-size="10px" font-style="normal" font-weight="normal" text-decoration="normal" x="373.96875" y="98.875" text-anchor="middle" dominant-baseline="text-after-edge" fill-opacity="1">42126611C&gt;G</text><path fill="rgb(69,90,100)" stroke="rgb(69,90,100)" paint-order="fill stroke markers" d=" M 637.96875 510.625 L 619.21875 528.125 L 637.96875 545.625 L 675.46875 545.625 L 694.21875 528.125 L 675.46875 510.625 Z" fill-opacity="1" stroke-opacity="1" stroke-miterlimit="10" stroke-width="2"/><text fill="rgb(255,255,255)" stroke="none" font-family="times new roman" font-size="10px" font-style="normal" font-weight="normal" text-decoration="normal" x="656.71875" y="533.125" text-anchor="middle" dominant-baseline="text-after-edge" fill-opacity="1">HG00423-all</text><path fill="rgb(69,90,100)" stroke="rgb(76,175,80)" paint-order="fill stroke markers" d=" M 802.03125 242.125 L 844.53125 242.125 L 844.53125 242.125 A 5 5 0 0 1 849.53125 247.125 L 849.53125 257.125 L 849.53125 257.125 A 5 5 0 0 1 844.53125 262.125 L 759.53125 262.125 L 759.53125 262.125 A 5 5 0 0 1 754.53125 257.125 L 754.53125 247.125 L 754.53125 247.125 A 5 5 0 0 1 759.53125 242.125 L 802.03125 242.125 Z" fill-opacity="1" stroke-opacity="1" stroke-miterlimit="10" stroke-width="2"/><text fill="rgb(255,255,255)" stroke="none" font-family="times new roman" font-size="10px" font-style="normal" font-weight="normal" text-decoration="normal" x="802.03125" y="257.125" text-anchor="middle" dominant-baseline="text-after-edge" fill-opacity="1">42132049dup</text><path fill="rgb(69,90,100)" stroke="rgb(76,175,80)" paint-order="fill stroke markers" d=" M 350.34375 167.375 L 350.2743900089954 169.1403296538765 L 350.0667376633906 170.89477546340518 L 349.72207320894773 172.62752068675786 L 349.24252161664094 174.32788237343632 L 348.63103948150393 175.98537722821453 L 347.8913967942383 177.58978624413982 L 347.02815369796707 179.13121770610886 L 346.0466323734363 180.60016817658064 L 344.9528842260007 181.98758108742913 L 343.75365257669733 183.2849025766973 L 342.45633108742913 184.4841342260007 L 341.06891817658067 185.57788237343632 L 339.5999677061088 186.55940369796707 L 338.0585362441398 187.4226467942383 L 336.45412722821453 188.16228948150396 L 334.7966323734363 188.77377161664094 L 333.09627068675786 189.25332320894773 L 331.3635254634052 189.5979876633906 L 329.6090796538765 189.80564000899537 L 327.84375 189.875 L 326.0784203461235 189.80564000899537 L 324.3239745365948 189.5979876633906 L 322.59122931324214 189.25332320894773 L 320.8908676265637 188.77377161664094 L 319.23337277178547 188.16228948150396 L 317.6289637558602 187.4226467942383 L 316.0875322938912 186.55940369796707 L 314.61858182341933 185.57788237343632 L 313.23116891257087 184.4841342260007 L 311.93384742330267 183.28490257669733 L 310.7346157739993 181.98758108742913 L 309.6408676265637 180.60016817658064 L 308.65934630203293 179.13121770610886 L 307.7961032057617 177.58978624413982 L 307.05646051849607 175.98537722821453 L 306.44497838335906 174.32788237343632 L 305.96542679105227 172.62752068675786 L 305.6207623366094 170.8947754634052 L 305.4131099910046 169.1403296538765 L 305.34375 167.375 L 305.4131099910046 165.6096703461235 L 305.6207623366094 163.85522453659482 L 305.96542679105227 162.12247931324214 L 306.44497838335906 160.42211762656368 L 307.05646051849607 158.76462277178547 L 307.7961032057617 157.1602137558602 L 308.65934630203293 155.61878229389114 L 309.6408676265637 154.14983182341936 L 310.7346157739993 152.76241891257087 L 311.93384742330267 151.4650974233027 L 313.23116891257087 150.2658657739993 L 314.61858182341933 149.17211762656368 L 316.0875322938912 148.19059630203293 L 317.62896375586024 147.3273532057617 L 319.2333727717855 146.58771051849604 L 320.8908676265637 145.97622838335903 L 322.5912293132422 145.49667679105227 L 324.32397453659485 145.1520123366094 L 326.07842034612355 144.9443599910046 L 327.84375000000006 144.875 L 329.6090796538766 144.94435999100463 L 331.36352546340527 145.1520123366094 L 333.096270686758 145.4966767910523 L 334.7966323734364 145.97622838335909 L 336.45412722821465 146.5877105184961 L 338.05853624413993 147.3273532057618 L 339.599967706109 148.190596302033 L 341.0689181765808 149.17211762656376 L 342.45633108742925 150.26586577399942 L 343.75365257669745 151.4650974233028 L 344.95288422600083 152.762418912571 L 346.0466323734364 154.1498318234195 L 347.0281536979672 155.61878229389131 L 347.8913967942384 157.16021375586038 L 348.63103948150405 158.7646227717857 L 349.24252161664106 160.4221176265639 L 349.7220732089478 162.12247931324237 L 350.06673766339065 163.85522453659505 L 350.2743900089954 165.60967034612375 Z" fill-opacity="1" stroke-opacity="1" stroke-miterlimit="10" stroke-width="6"/><text fill="rgb(255,255,255)" stroke="none" font-family="times new roman" font-size="15px" font-style="normal" font-weight="normal" text-decoration="normal" x="327.84375" y="174.875" text-anchor="middle" dominant-baseline="text-after-edge" fill-opacity="1">*39</text><path fill="rgb(69,90,100)" stroke="rgb(255,193,7)" paint-order="fill stroke markers" d=" M 302.34375 252.125 L 302.2743900089954 253.8903296538765 L 302.0667376633906 255.64477546340518 L 301.72207320894773 257.37752068675786 L 301.24252161664094 259.0778823734363 L 300.63103948150393 260.73537722821453 L 299.8913967942383 262.3397862441398 L 299.02815369796707 263.8812177061088 L 298.0466323734363 265.35016817658067 L 296.9528842260007 266.73758108742913 L 295.75365257669733 268.03490257669733 L 294.45633108742913 269.2341342260007 L 293.06891817658067 270.3278823734363 L 291.5999677061088 271.30940369796707 L 290.0585362441398 272.1726467942383 L 288.45412722821453 272.91228948150393 L 286.7966323734363 273.52377161664094 L 285.09627068675786 274.00332320894773 L 283.3635254634052 274.3479876633906 L 281.6090796538765 274.5556400089954 L 279.84375 274.625 L 278.0784203461235 274.5556400089954 L 276.3239745365948 274.3479876633906 L 274.59122931324214 274.00332320894773 L 272.8908676265637 273.52377161664094 L 271.23337277178547 272.91228948150393 L 269.6289637558602 272.1726467942383 L 268.0875322938912 271.30940369796707 L 266.61858182341933 270.3278823734363 L 265.23116891257087 269.2341342260007 L 263.93384742330267 268.03490257669733 L 262.7346157739993 266.73758108742913 L 261.6408676265637 265.35016817658067 L 260.65934630203293 263.8812177061088 L 259.7961032057617 262.3397862441398 L 259.05646051849607 260.73537722821453 L 258.44497838335906 259.0778823734363 L 257.96542679105227 257.37752068675786 L 257.6207623366094 255.6447754634052 L 257.4131099910046 253.8903296538765 L 257.34375 252.125 L 257.4131099910046 250.3596703461235 L 257.6207623366094 248.60522453659482 L 257.96542679105227 246.87247931324214 L 258.44497838335906 245.17211762656368 L 259.05646051849607 243.51462277178547 L 259.7961032057617 241.9102137558602 L 260.65934630203293 240.36878229389114 L 261.6408676265637 238.89983182341936 L 262.7346157739993 237.51241891257087 L 263.93384742330267 236.2150974233027 L 265.23116891257087 235.0158657739993 L 266.61858182341933 233.92211762656368 L 268.0875322938912 232.94059630203293 L 269.62896375586024 232.0773532057617 L 271.2333727717855 231.33771051849604 L 272.8908676265637 230.72622838335903 L 274.5912293132422 230.24667679105227 L 276.32397453659485 229.9020123366094 L 278.07842034612355 229.6943599910046 L 279.84375000000006 229.625 L 281.6090796538766 229.69435999100463 L 283.36352546340527 229.9020123366094 L 285.096270686758 230.2466767910523 L 286.7966323734364 230.72622838335909 L 288.45412722821465 231.3377105184961 L 290.05853624413993 232.0773532057618 L 291.599967706109 232.940596302033 L 293.0689181765808 233.92211762656376 L 294.45633108742925 235.01586577399942 L 295.75365257669745 236.2150974233028 L 296.95288422600083 237.512418912571 L 298.0466323734364 238.8998318234195 L 299.0281536979672 240.36878229389131 L 299.8913967942384 241.91021375586038 L 300.63103948150405 243.5146227717857 L 301.24252161664106 245.1721176265639 L 301.7220732089478 246.87247931324237 L 302.06673766339065 248.60522453659505 L 302.2743900089954 250.35967034612375 Z" fill-opacity="1" stroke-opacity="1" stroke-miterlimit="10" stroke-width="6"/><text fill="rgb(255,255,255)" stroke="none" font-family="times new roman" font-size="15px" font-style="normal" font-weight="normal" text-decoration="normal" x="279.84375" y="259.625" text-anchor="middle" dominant-baseline="text-after-edge" fill-opacity="1">*10</text><path fill="rgb(3,169,244)" stroke="none" paint-order="stroke fill markers" d=" M 279.84375 219.625 L 304.34375 219.625 L 304.34375 219.625 A 8 8 0 0 1 312.34375 227.625 L 312.34375 276.625 L 312.34375 276.625 A 8 8 0 0 1 304.34375 284.625 L 255.34375 284.625 L 255.34375 284.625 A 8 8 0 0 1 247.34375 276.625 L 247.34375 227.625 L 247.34375 227.625 A 8 8 0 0 1 255.34375 219.625 L 279.84375 219.625 Z" fill-opacity="0.15"/><path fill="rgb(69,90,100)" stroke="rgb(76,175,80)" paint-order="fill stroke markers" d=" M 128.84375 242.125 L 128.84375 262.125 L 223.84374999999997 262.125 L 223.84375 242.125 Z" fill-opacity="1" stroke-opacity="1" stroke-miterlimit="10" stroke-width="6"/><text fill="rgb(255,255,255)" stroke="none" font-family="times new roman" font-size="10px" font-style="normal" font-weight="normal" text-decoration="normal" x="176.34375" y="257.125" text-anchor="middle" dominant-baseline="text-after-edge" fill-opacity="1">42129130C&gt;G</text><path fill="rgb(69,90,100)" stroke="rgb(76,175,80)" paint-order="fill stroke markers" d=" M 299.21875 93.875 L 299.16480334032974 95.24803417523728 L 299.0032959604149 96.61260313820404 L 298.7352236069593 97.96029386747834 L 298.3622390351652 99.28279740156158 L 297.8866418189475 100.57196006638907 L 297.31136417329645 101.81983374544207 L 296.6399528761966 103.0187248825291 L 295.8765474015616 104.16124191511828 L 295.02585439800055 105.2403408457782 L 294.09311867076457 106.24936867076458 L 293.08409084577823 107.18210439800055 L 292.0049919151183 108.03279740156158 L 290.8624748825291 108.79620287619662 L 289.66358374544205 109.46761417329644 L 288.41571006638907 110.04289181894751 L 287.1265474015616 110.51848903516519 L 285.80404386747836 110.89147360695934 L 284.45635313820407 111.1595459604149 L 283.0917841752373 111.32105334032974 L 281.71875 111.375 L 280.3457158247627 111.32105334032974 L 278.98114686179593 111.1595459604149 L 277.63345613252164 110.89147360695934 L 276.3109525984384 110.51848903516519 L 275.02178993361093 110.04289181894751 L 273.77391625455795 109.46761417329644 L 272.5750251174709 108.79620287619662 L 271.4325080848817 108.03279740156158 L 270.35340915422177 107.18210439800055 L 269.34438132923543 106.24936867076458 L 268.41164560199945 105.24034084577822 L 267.5609525984384 104.16124191511828 L 266.7975471238034 103.01872488252911 L 266.12613582670355 101.81983374544207 L 265.5508581810525 100.57196006638907 L 265.0752609648348 99.28279740156158 L 264.7022763930407 97.96029386747834 L 264.4342040395851 96.61260313820404 L 264.27269665967026 95.2480341752373 L 264.21875 93.875 L 264.27269665967026 92.50196582476272 L 264.4342040395851 91.13739686179596 L 264.7022763930407 89.78970613252166 L 265.0752609648348 88.46720259843842 L 265.5508581810525 87.17803993361093 L 266.12613582670355 85.93016625455793 L 266.7975471238034 84.7312751174709 L 267.5609525984384 83.58875808488172 L 268.41164560199945 82.5096591542218 L 269.34438132923543 81.50063132923542 L 270.35340915422177 80.56789560199947 L 271.4325080848817 79.71720259843842 L 272.5750251174709 78.95379712380338 L 273.77391625455795 78.28238582670356 L 275.02178993361093 77.70710818105248 L 276.31095259843846 77.2315109648348 L 277.6334561325217 76.85852639304065 L 278.981146861796 76.59045403958508 L 280.34571582476275 76.42894665967026 L 281.71875000000006 76.375 L 283.09178417523736 76.42894665967026 L 284.4563531382041 76.5904540395851 L 285.8040438674784 76.85852639304068 L 287.12654740156165 77.23151096483484 L 288.4157100663892 77.70710818105252 L 289.66358374544217 78.2823858267036 L 290.8624748825292 78.95379712380344 L 292.00499191511835 79.71720259843849 L 293.0840908457783 80.56789560199954 L 294.0931186707647 81.50063132923552 L 295.02585439800066 82.5096591542219 L 295.87654740156165 83.58875808488185 L 296.6399528761967 84.73127511747103 L 297.3113641732965 85.93016625455807 L 297.88664181894757 87.17803993361109 L 298.36223903516526 88.46720259843859 L 298.7352236069594 89.78970613252184 L 299.00329596041496 91.13739686179616 L 299.16480334032974 92.50196582476292 Z" fill-opacity="1" stroke-opacity="1" stroke-miterlimit="10" stroke-width="6"/><text fill="rgb(255,255,255)" stroke="none" font-family="times new roman" font-size="10px" font-style="normal" font-weight="normal" text-decoration="normal" x="281.71875" y="98.875" text-anchor="middle" dominant-baseline="text-after-edge" fill-opacity="1">*39.2</text><path fill="rgb(69,90,100)" stroke="rgb(76,175,80)" paint-order="fill stroke markers" d=" M 335.84375 242.125 L 335.84375 262.125 L 430.84375 262.125 L 430.84375 242.125 Z" fill-opacity="1" stroke-opacity="1" stroke-miterlimit="10" stroke-width="6"/><text fill="rgb(255,255,255)" stroke="none" font-family="times new roman" font-size="10px" font-style="normal" font-weight="normal" text-decoration="normal" x="383.34375" y="257.125" text-anchor="middle" dominant-baseline="text-after-edge" fill-opacity="1">42130482C&gt;A</text><path fill="rgb(69,90,100)" stroke="rgb(158,158,158)" paint-order="fill stroke markers" d=" M 184.34375 157.375 L 184.34375 177.375 L 279.34375 177.375 L 279.34375 157.375 Z" fill-opacity="1" stroke-opacity="1" stroke-miterlimit="10" stroke-width="6"/><text fill="rgb(255,255,255)" stroke="none" font-family="times new roman" font-size="10px" font-style="normal" font-weight="normal" text-decoration="normal" x="231.84375" y="172.375" text-anchor="middle" dominant-baseline="text-after-edge" fill-opacity="1">42130692G&gt;A</text><path fill="rgb(69,90,100)" stroke="rgb(76,175,80)" paint-order="fill stroke markers" d=" M 563.84375 242.125 L 563.84375 262.125 L 658.84375 262.125 L 658.84375 242.125 Z" fill-opacity="1" stroke-opacity="1" stroke-miterlimit="10" stroke-width="2"/><text fill="rgb(255,255,255)" stroke="none" font-family="times new roman" font-size="10px" font-style="normal" font-weight="normal" text-decoration="normal" x="611.34375" y="257.125" text-anchor="middle" dominant-baseline="text-after-edge" fill-opacity="1">42130047G&gt;C</text><path fill="rgb(176,190,197)" stroke="none" paint-order="stroke fill markers" d=" M 887.90625 291.5 L 887.90625 501.5 L 962.90625 501.5 L 962.90625 291.50000000000006 Z" fill-opacity="0.8"/><text fill="rgb(0,0,0)" stroke="none" font-family="times new roman" font-size="10px" font-style="normal" font-weight="normal" text-decoration="normal" x="892.90625" y="306.5" text-anchor="start" dominant-baseline="text-after-edge" fill-opacity="0.8">42126390G&gt;A </text><text fill="rgb(0,0,0)" stroke="none" font-family="times new roman" font-size="10px" font-style="normal" font-weight="normal" text-decoration="normal" x="892.90625" y="316.5" text-anchor="start" dominant-baseline="text-after-edge" fill-opacity="0.8">42127209T&gt;C </text><text fill="rgb(0,0,0)" stroke="none" font-family="times new roman" font-size="10px" font-style="normal" font-weight="normal" text-decoration="normal" x="892.90625" y="326.5" text-anchor="start" dominant-baseline="text-after-edge" fill-opacity="0.8">42128694T&gt;C </text><text fill="rgb(0,0,0)" stroke="none" font-family="times new roman" font-size="10px" font-style="normal" font-weight="normal" text-decoration="normal" x="892.90625" y="336.5" text-anchor="start" dominant-baseline="text-after-edge" fill-opacity="0.8">42129754G&gt;A </text><text fill="rgb(0,0,0)" stroke="none" font-family="times new roman" font-size="10px" font-style="normal" font-weight="normal" text-decoration="normal" x="892.90625" y="346.5" text-anchor="start" dominant-baseline="text-after-edge" fill-opacity="0.8">42129796G&gt;C </text><text fill="rgb(0,0,0)" stroke="none" font-family="times new roman" font-size="10px" font-style="normal" font-weight="normal" text-decoration="normal" x="892.90625" y="356.5" text-anchor="start" dominant-baseline="text-after-edge" fill-opacity="0.8">42131791C&gt;T </text><text fill="rgb(0,0,0)" stroke="none" font-family="times new roman" font-size="10px" font-style="normal" font-weight="normal" text-decoration="normal" x="892.90625" y="366.5" text-anchor="start" dominant-baseline="text-after-edge" fill-opacity="0.8">42132217G&gt;A </text><path fill="rgb(176,190,197)" stroke="none" paint-order="stroke fill markers" d=" M 802.03125 291.5 L 869.03125 291.5 L 869.03125 291.5 A 8 8 0 0 1 877.03125 299.5 L 877.03125 493.5 L 877.03125 493.5 A 8 8 0 0 1 869.03125 501.5 L 735.03125 501.5 L 735.03125 501.5 A 8 8 0 0 1 727.03125 493.5 L 727.03125 299.5 L 727.03125 299.5 A 8 8 0 0 1 735.03125 291.5 L 802.03125 291.5 Z" fill-opacity="0.8"/><text fill="rgb(0,0,0)" stroke="none" font-family="times new roman" font-size="10px" font-style="normal" font-weight="normal" text-decoration="normal" x="732.03125" y="306.5" text-anchor="start" dominant-baseline="text-after-edge" fill-opacity="0.8">42125572G&gt;A </text><text fill="rgb(0,0,0)" stroke="none" font-family="times new roman" font-size="10px" font-style="normal" font-weight="normal" text-decoration="normal" x="732.03125" y="316.5" text-anchor="start" dominant-baseline="text-after-edge" fill-opacity="0.8">42125924A&gt;G </text><text fill="rgb(0,0,0)" stroke="none" font-family="times new roman" font-size="10px" font-style="normal" font-weight="normal" text-decoration="normal" x="732.03125" y="326.5" text-anchor="start" dominant-baseline="text-after-edge" fill-opacity="0.8">42125980T&gt;C </text><text fill="rgb(0,0,0)" stroke="none" font-family="times new roman" font-size="10px" font-style="normal" font-weight="normal" text-decoration="normal" x="732.03125" y="336.5" text-anchor="start" dominant-baseline="text-after-edge" fill-opacity="0.8">42126069A&gt;C </text><text fill="rgb(0,0,0)" stroke="none" font-family="times new roman" font-size="10px" font-style="normal" font-weight="normal" text-decoration="normal" x="732.03125" y="346.5" text-anchor="start" dominant-baseline="text-after-edge" fill-opacity="0.8">42132027C&gt;T </text><text fill="rgb(0,0,0)" stroke="none" font-family="times new roman" font-size="10px" font-style="normal" font-weight="normal" text-decoration="normal" x="732.03125" y="356.5" text-anchor="start" dominant-baseline="text-after-edge" fill-opacity="0.8">42132844C&gt;A </text><text fill="rgb(0,0,0)" stroke="none" font-family="times new roman" font-size="10px" font-style="normal" font-weight="normal" text-decoration="normal" x="732.03125" y="366.5" text-anchor="start" dominant-baseline="text-after-edge" fill-opacity="0.8">42132851T&gt;C </text><text fill="rgb(0,0,0)" stroke="none" font-family="times new roman" font-size="10px" font-style="normal" font-weight="normal" text-decoration="normal" x="732.03125" y="376.5" text-anchor="start" dominant-baseline="text-after-edge" fill-opacity="0.8">42132969C&gt;T </text><text fill="rgb(0,0,0)" stroke="none" font-family="times new roman" font-size="10px" font-style="normal" font-weight="normal" text-decoration="normal" x="732.03125" y="386.5" text-anchor="start" dominant-baseline="text-after-edge" fill-opacity="0.8">42133212A&gt;G </text><text fill="rgb(0,0,0)" stroke="none" font-family="times new roman" font-size="10px" font-style="normal" font-weight="normal" text-decoration="normal" x="732.03125" y="396.5" text-anchor="start" dominant-baseline="text-after-edge" fill-opacity="0.8">42133314C&gt;T </text><text fill="rgb(0,0,0)" stroke="none" font-family="times new roman" font-size="10px" font-style="normal" font-weight="normal" text-decoration="normal" x="732.03125" y="406.5" text-anchor="start" dominant-baseline="text-after-edge" fill-opacity="0.8">42133400T&gt;G </text><text fill="rgb(0,0,0)" stroke="none" font-family="times new roman" font-size="10px" font-style="normal" font-weight="normal" text-decoration="normal" x="732.03125" y="416.5" text-anchor="start" dominant-baseline="text-after-edge" fill-opacity="0.8">42133923G&gt;T </text><text fill="rgb(0,0,0)" stroke="none" font-family="times new roman" font-size="10px" font-style="normal" font-weight="normal" text-decoration="normal" x="732.03125" y="426.5" text-anchor="start" dominant-baseline="text-after-edge" fill-opacity="0.8">42134096del </text><text fill="rgb(0,0,0)" stroke="none" font-family="times new roman" font-size="10px" font-style="normal" font-weight="normal" text-decoration="normal" x="732.03125" y="436.5" text-anchor="start" dominant-baseline="text-after-edge" fill-opacity="0.8">42134820T&gt;G </text><text fill="rgb(0,0,0)" stroke="none" font-family="times new roman" font-size="10px" font-style="normal" font-weight="normal" text-decoration="normal" x="732.03125" y="446.5" text-anchor="start" dominant-baseline="text-after-edge" fill-opacity="0.8">42135064_42135066dup </text><text fill="rgb(0,0,0)" stroke="none" font-family="times new roman" font-size="10px" font-style="normal" font-weight="normal" text-decoration="normal" x="732.03125" y="456.5" text-anchor="start" dominant-baseline="text-after-edge" fill-opacity="0.8">42135201T&gt;C </text><g transform="scale(0.8767633228840125,0.8767633228840125) translate(112.39162011173187,49.57318435754189)"/></g></svg>