<svg version="1.1" xmlns="http://www.w3.org/2000/svg" xmlns:xlink="http://www.w3.org/1999/xlink" width="1017" height="608"><defs/><g transform="translate(-98.61530735235033,-55.315387705906005) scale(0.8806749698674167,0.8806749698674167)"><path fill="none" stroke="rgb(120,144,156)" paint-order="fill stroke markers" d=" M 798.78125 447.875 L 798.78125 545.5" stroke-opacity="1" stroke-linejoin="round" stroke-miterlimit="10"/><path fill="rgb(120,144,156)" stroke="none" paint-order="stroke fill markers" d=" M 794.43125 538.8 L 798.78125 547.5 L 803.13125 538.8 Z" fill-opacity="1"/><path fill="none" stroke="rgb(120,144,156)" paint-order="fill stroke markers" d=" M 205.02857456737524 446.9589650073043 L 527.7819391062258 682.4771824382382" stroke-opacity="1" stroke-linejoin="round" stroke-miterlimit="10"/><path fill="rgb(120,144,156)" stroke="none" paint-order="stroke fill markers" d=" M 519.8055453314362 682.0417029903915 L 529.3975317469453 683.6561058535849 L 524.9338621881946 675.0138750032615 Z" fill-opacity="1"/><path fill="none" stroke="rgb(55,71,79)" paint-order="fill stroke markers" d=" M 454.90625 131.375 L 454.90625 166.375" stroke-opacity="1" stroke-linejoin="round" stroke-miterlimit="10" stroke-width="2"/><path fill="none" stroke="rgb(120,144,156)" paint-order="fill stroke markers" d=" M 690.34375 361.2802953156823 L 210.73067236122074 431.61052258654195" stroke-opacity="1" stroke-linejoin="round" stroke-miterlimit="10"/><path fill="rgb(120,144,156)" stroke="none" paint-order="stroke fill markers" d=" M 216.7286458310713 426.334462100254 L 208.75183481800116 431.9006983566271 L 217.99091043094174 434.94240541325934 Z" fill-opacity="1"/><path fill="none" stroke="rgb(120,144,156)" paint-order="fill stroke markers" d=" M 879.3550421354435 451.7248121622666 L 811.596600095245 549.5063037243415" stroke-opacity="1" stroke-linejoin="round" stroke-miterlimit="10"/><path fill="rgb(120,144,156)" stroke="none" paint-order="stroke fill markers" d=" M 811.8372786214239 541.5216575927313 L 810.4574578645565 551.1501878377334 L 818.9881745146786 546.4769262962261 Z" fill-opacity="1"/><path fill="none" stroke="rgb(120,144,156)" paint-order="fill stroke markers" d=" M 662.5744687112807 357.5710564541449 L 1168.0188511371052 431.61377371693095" stroke-opacity="1" stroke-linejoin="round" stroke-miterlimit="10"/><path fill="rgb(120,144,156)" stroke="none" paint-order="stroke fill markers" d=" M 1160.7590997276498 434.9467167816879 L 1169.997731036029 431.9036604976482 L 1162.0201072237699 426.3385892213685 Z" fill-opacity="1"/><path fill="none" stroke="rgb(120,144,156)" paint-order="fill stroke markers" d=" M 363.1023196716746 371.4392388390901 L 389.67885645791813 415.5971768839255" stroke-opacity="1" stroke-linejoin="round" stroke-miterlimit="10"/><path fill="rgb(120,144,156)" stroke="none" paint-order="stroke fill markers" d=" M 382.4968756896127 412.0997989741636 L 390.7101803283254 417.3107611609099 L 389.95096729449483 407.61354013789196 Z" fill-opacity="1"/><path fill="none" stroke="rgb(120,144,156)" paint-order="fill stroke markers" d=" M 483.34375 365.71864820846906 L 210.3743736613597 429.7375247439156" stroke-opacity="1" stroke-linejoin="round" stroke-miterlimit="10"/><path fill="rgb(120,144,156)" stroke="none" paint-order="stroke fill markers" d=" M 215.90413637989937 423.9726115375743 L 208.42720711368327 430.19418921112316 L 217.89062681225198 432.4427860199667 Z" fill-opacity="1"/><path fill="none" stroke="rgb(120,144,156)" paint-order="fill stroke markers" d=" M 336.53489077669906 204.875 L 249.74574701115395 255.30818368322224" stroke-opacity="1" stroke-linejoin="round" stroke-miterlimit="10"/><path fill="rgb(120,144,156)" stroke="none" paint-order="stroke fill markers" d=" M 253.35311897467207 248.18081618064295 L 248.0165108648882 256.31304305171517 L 257.7242572276163 255.70299341689892 Z" fill-opacity="1"/><path fill="none" stroke="rgb(120,144,156)" paint-order="fill stroke markers" d=" M 416.6899663694274 581.5211486141725 L 529.6532850899548 680.6464607914354" stroke-opacity="1" stroke-linejoin="round" stroke-miterlimit="10"/><path fill="rgb(120,144,156)" stroke="none" paint-order="stroke fill markers" d=" M 521.7481438145005 679.4970081325112 L 531.1565744918502 681.9655972415985 L 527.4863873727103 672.9576992342663 Z" fill-opacity="1"/><path fill="none" stroke="rgb(120,144,156)" paint-order="fill stroke markers" d=" M 584.34375 360.10636246786635 L 1167.9506099339208 432.11954826948124" stroke-opacity="1" stroke-linejoin="round" stroke-miterlimit="10"/><path fill="rgb(120,144,156)" stroke="none" paint-order="stroke fill markers" d=" M 1160.768320890788 435.6162930558354 L 1169.9355557175722 432.364477312194 L 1161.8337622265885 426.9817788969515 Z" fill-opacity="1"/><path fill="none" stroke="rgb(55,71,79)" paint-order="fill stroke markers" d=" M 582.4200774336283 282.125 L 621.8437973886247 333.6265069932323" stroke-opacity="1" stroke-linejoin="round" stroke-miterlimit="10" stroke-width="2"/><path fill="none" stroke="rgb(120,144,156)" paint-order="fill stroke markers" d=" M 247.15701258716933 283.31328842874154 L 333.8357241877918 341.35592197463984" stroke-opacity="1" stroke-linejoin="round" stroke-miterlimit="10"/><path fill="rgb(120,144,156)" stroke="none" paint-order="stroke fill markers" d=" M 325.8482569721424 341.24248706411504 L 335.4975487044325 342.4687289102274 L 330.6889671419483 334.01355041672787 Z" fill-opacity="1"/><path fill="none" stroke="rgb(120,144,156)" paint-order="fill stroke markers" d=" M 983.28125 447.875 L 983.28125 545.5" stroke-opacity="1" stroke-linejoin="round" stroke-miterlimit="10"/><path fill="rgb(120,144,156)" stroke="none" paint-order="stroke fill markers" d=" M 978.93125 538.8 L 983.28125 547.5 L 987.63125 538.8 Z" fill-opacity="1"/><path fill="none" stroke="rgb(120,144,156)" paint-order="fill stroke markers" d=" M 553.4810363247864 673 L 552.9744210732512 679.1317914927192" stroke-opacity="1" stroke-linejoin="round" stroke-miterlimit="10"/><path fill="rgb(120,144,156)" stroke="none" paint-order="stroke fill markers" d=" M 549.1908740698653 672.0963617209733 L 552.8097400284901 681.125 L 557.8613310765367 672.8127242656842 Z" fill-opacity="1"/><path fill="none" stroke="rgb(120,144,156)" paint-order="fill stroke markers" d=" M 839.8547794117648 282.125 L 1169.6555907940606 425.8843280384366" stroke-opacity="1" stroke-linejoin="round" stroke-miterlimit="10"/><path fill="rgb(120,144,156)" stroke="none" paint-order="stroke fill markers" d=" M 1161.7755312512786 427.19473316747496 L 1171.4889827234774 426.6834988794645 L 1165.2519244097498 419.2194782745117 Z" fill-opacity="1"/><path fill="none" stroke="rgb(120,144,156)" paint-order="fill stroke markers" d=" M 899.9778197812196 360.2255465151708 L 1168.4901590165707 429.2715766042611" stroke-opacity="1" stroke-linejoin="round" stroke-miterlimit="10"/><path fill="rgb(120,144,156)" stroke="none" paint-order="stroke fill markers" d=" M 1160.9179278449956 431.8159458943262 L 1170.4271448817644 429.7696586838823 L 1163.084584891348 423.39005738073365 Z" fill-opacity="1"/><path fill="none" stroke="rgb(120,144,156)" paint-order="fill stroke markers" d=" M 613.2241442265197 362.1511474933626 L 422.5632550942474 427.5725169176212" stroke-opacity="1" stroke-linejoin="round" stroke-miterlimit="10"/><path fill="rgb(120,144,156)" stroke="none" paint-order="stroke fill markers" d=" M 427.48874988194115 421.2834787482028 L 420.67152130809205 428.22162652494376 L 430.3123766737943 429.5125207179785 Z" fill-opacity="1"/><path fill="none" stroke="rgb(120,144,156)" paint-order="fill stroke markers" d=" M 791.34375 362.97637672090116 L 1168.1379954822526 430.88422571895416" stroke-opacity="1" stroke-linejoin="round" stroke-miterlimit="10"/><path fill="rgb(120,144,156)" stroke="none" paint-order="stroke fill markers" d=" M 1160.7726766648543 433.9768910286961 L 1170.106284772719 431.23896121060267 L 1162.3157760535255 425.4148326151671 Z" fill-opacity="1"/><path fill="none" stroke="rgb(120,144,156)" paint-order="fill stroke markers" d=" M 610.53125 641.5335195530727 L 571.5783024452812 679.724817295269" stroke-opacity="1" stroke-linejoin="round" stroke-miterlimit="10"/><path fill="rgb(120,144,156)" stroke="none" paint-order="stroke fill markers" d=" M 573.3170620932146 671.9280734308909 L 570.1501958689458 681.125 L 579.4078568587944 678.1403370379495 Z" fill-opacity="1"/><path fill="none" stroke="rgb(55,71,79)" paint-order="fill stroke markers" d=" M 531.1230365727943 131.14943021029399 L 474.85000328749976 175.9848551042685" stroke-opacity="1" stroke-linejoin="round" stroke-miterlimit="10" stroke-width="2"/><path fill="none" stroke="rgb(120,144,156)" paint-order="fill stroke markers" d=" M 401.28125 455.375 L 401.28125 545.5" stroke-opacity="1" stroke-linejoin="round" stroke-miterlimit="10"/><path fill="rgb(120,144,156)" stroke="none" paint-order="stroke fill markers" d=" M 396.93125 538.8 L 401.28125 547.5 L 405.63125 538.8 Z" fill-opacity="1"/><path fill="none" stroke="rgb(120,144,156)" paint-order="fill stroke markers" d=" M 780.6816403234341 577.6257015098101 L 577.8317545734169 685.5049589314101" stroke-opacity="1" stroke-linejoin="round" stroke-miterlimit="10"/><path fill="rgb(120,144,156)" stroke="none" paint-order="stroke fill markers" d=" M 581.7047098546519 678.5183490675668 L 576.0659389952153 686.4440517616355 L 585.7897636661323 686.1996468327435 Z" fill-opacity="1"/><path fill="none" stroke="rgb(120,144,156)" paint-order="fill stroke markers" d=" M 430.7446723182794 200.0278009867886 L 252.0253533822477 260.33276364169853" stroke-opacity="1" stroke-linejoin="round" stroke-miterlimit="10"/><path fill="rgb(120,144,156)" stroke="none" paint-order="stroke fill markers" d=" M 256.98291754597307 254.0689742484841 L 250.1303276817206 260.97219901321137 L 259.7644614120539 262.312336045777 Z" fill-opacity="1"/><path fill="none" stroke="rgb(120,144,156)" paint-order="fill stroke markers" d=" M 963.6712917959358 573.9749091403008 L 582.4266411029529 690.135388648319" stroke-opacity="1" stroke-linejoin="round" stroke-miterlimit="10"/><path fill="rgb(120,144,156)" stroke="none" paint-order="stroke fill markers" d=" M 587.5679028203637 684.0214759933095 L 580.5134744488978 690.7183066132264 L 590.1035959677109 692.343750938449 Z" fill-opacity="1"/><path fill="none" stroke="rgb(120,144,156)" paint-order="fill stroke markers" d=" M 849.9567600706964 356.8616720309744 L 210.81388817291497 432.2397011491403" stroke-opacity="1" stroke-linejoin="round" stroke-miterlimit="10"/><path fill="rgb(120,144,156)" stroke="none" paint-order="stroke fill markers" d=" M 216.95828265101665 427.1349076667874 L 208.82765366865578 432.47394993588335 L 217.97726487334907 435.77502776031446 Z" fill-opacity="1"/><path fill="none" stroke="rgb(120,144,156)" paint-order="fill stroke markers" d=" M 612.2490514477477 358.40336665604553 L 210.61113107551677 430.87938236231275" stroke-opacity="1" stroke-linejoin="round" stroke-miterlimit="10"/><path fill="rgb(120,144,156)" stroke="none" paint-order="stroke fill markers" d=" M 216.43215403027332 425.40871588004603 L 208.64291942435972 431.23454837455165 L 217.97712618351238 433.97043656257915 Z" fill-opacity="1"/><path fill="none" stroke="rgb(120,144,156)" paint-order="fill stroke markers" d=" M 759.53125 278.4799180327869 L 374.65485456869794 349.7766929241592" stroke-opacity="1" stroke-linejoin="round" stroke-miterlimit="10"/><path fill="rgb(120,144,156)" stroke="none" paint-order="stroke fill markers" d=" M 380.45043300560326 344.27907793384946 L 372.68831194036926 350.1409868864562 L 382.035111741595 352.83353836707937 Z" fill-opacity="1"/><path fill="none" stroke="rgb(120,144,156)" paint-order="fill stroke markers" d=" M 720.2281633099825 366.875 L 420.31323609126986 555.9986040219602" stroke-opacity="1" stroke-linejoin="round" stroke-miterlimit="10"/><path fill="rgb(120,144,156)" stroke="none" paint-order="stroke fill markers" d=" M 423.6602687271381 548.7453376864095 L 418.6215039942681 557.0653947755637 L 428.30080850531346 556.1043723083671 Z" fill-opacity="1"/><path fill="none" stroke="rgb(120,144,156)" paint-order="fill stroke markers" d=" M 1086.825616197183 447.875 L 997.97144180955 550.957457214411" stroke-opacity="1" stroke-linejoin="round" stroke-miterlimit="10"/><path fill="rgb(120,144,156)" stroke="none" paint-order="stroke fill markers" d=" M 999.0509628765133 543.0424629461893 L 996.6656469820344 552.4723499064634 L 1005.640746086941 548.7226704458819 Z" fill-opacity="1"/><path fill="none" stroke="rgb(120,144,156)" paint-order="fill stroke markers" d=" M 403.38310185185185 204.875 L 1168.6848539007394 428.5626568911499" stroke-opacity="1" stroke-linejoin="round" stroke-miterlimit="10"/><path fill="rgb(120,144,156)" stroke="none" paint-order="stroke fill markers" d=" M 1161.0335407279154 430.85828463348264 L 1170.604533554007 429.123754056381 L 1163.4743133966706 422.5076781417686 Z" fill-opacity="1"/><path fill="none" stroke="rgb(120,144,156)" paint-order="fill stroke markers" d=" M 685.53125 445.875 L 685.53125 461" stroke-opacity="1" stroke-linejoin="round" stroke-miterlimit="10"/><path fill="rgb(120,144,156)" stroke="none" paint-order="stroke fill markers" d=" M 681.18125 454.3 L 685.53125 463 L 689.88125 454.3 Z" fill-opacity="1"/><path fill="none" stroke="rgb(120,144,156)" paint-order="fill stroke markers" d=" M 220.34173564534302 293.9964034475838 L 193.43376266587381 412.92964401683787" stroke-opacity="1" stroke-linejoin="round" stroke-miterlimit="10"/><path fill="rgb(120,144,156)" stroke="none" paint-order="stroke fill markers" d=" M 190.66946428074488 405.43490223089395 L 192.99242820668502 414.88034232645225 L 199.15500192756758 407.35470712836513 Z" fill-opacity="1"/><path fill="none" stroke="rgb(55,71,79)" paint-order="fill stroke markers" d=" M 991.9543694690266 282.125 L 897.0025948349804 340.51711174773993" stroke-opacity="1" stroke-linejoin="round" stroke-miterlimit="10" stroke-width="2"/><path fill="none" stroke="rgb(120,144,156)" paint-order="fill stroke markers" d=" M 1171.3424273249082 442.7217187843984 L 580.0310224961078 687.7134158554859" stroke-opacity="1" stroke-linejoin="round" stroke-miterlimit="10"/><path fill="rgb(120,144,156)" stroke="none" paint-order="stroke fill markers" d=" M 584.5557486039605 681.1301527095289 L 578.1833324790256 688.4789493954272 L 587.8858195027052 689.1676042838361 Z" fill-opacity="1"/><path fill="none" stroke="rgb(55,71,79)" paint-order="fill stroke markers" d=" M 977.2905092592592 366.875 L 907.1303665770822 422.1837256180666" stroke-opacity="1" stroke-linejoin="round" stroke-miterlimit="10" stroke-width="2"/><path fill="rgb(69,90,100)" stroke="rgb(76,175,80)" paint-order="fill stroke markers" d=" M 816.28125 568 L 816.2273033403297 569.3730341752373 L 816.0657959604149 570.737603138204 L 815.7977236069594 572.0852938674783 L 815.4247390351652 573.4077974015615 L 814.9491418189475 574.6969600663891 L 814.3738641732964 575.9448337454421 L 813.7024528761966 577.1437248825291 L 812.9390474015615 578.2862419151182 L 812.0883543980005 579.3653408457782 L 811.1556186707646 580.3743686707646 L 810.1465908457782 581.3071043980005 L 809.0674919151182 582.1577974015615 L 807.9249748825291 582.9212028761966 L 806.7260837454421 583.5926141732964 L 805.4782100663891 584.1678918189475 L 804.1890474015615 584.6434890351652 L 802.8665438674783 585.0164736069594 L 801.518853138204 585.2845459604149 L 800.1542841752373 585.4460533403297 L 798.78125 585.5 L 797.4082158247627 585.4460533403297 L 796.043646861796 585.2845459604149 L 794.6959561325217 585.0164736069594 L 793.3734525984385 584.6434890351652 L 792.0842899336109 584.1678918189475 L 790.8364162545579 583.5926141732964 L 789.6375251174709 582.9212028761966 L 788.4950080848818 582.1577974015615 L 787.4159091542218 581.3071043980005 L 786.4068813292354 580.3743686707646 L 785.4741456019995 579.3653408457782 L 784.6234525984385 578.2862419151182 L 783.8600471238034 577.1437248825291 L 783.1886358267036 575.9448337454421 L 782.6133581810525 574.6969600663891 L 782.1377609648348 573.4077974015615 L 781.7647763930406 572.0852938674783 L 781.4967040395851 570.737603138204 L 781.3351966596703 569.3730341752373 L 781.28125 568 L 781.3351966596703 566.6269658247627 L 781.4967040395851 565.262396861796 L 781.7647763930406 563.9147061325217 L 782.1377609648348 562.5922025984385 L 782.6133581810525 561.3030399336109 L 783.1886358267036 560.0551662545579 L 783.8600471238034 558.8562751174709 L 784.6234525984385 557.7137580848818 L 785.4741456019995 556.6346591542218 L 786.4068813292354 555.6256313292354 L 787.4159091542218 554.6928956019995 L 788.4950080848818 553.8422025984385 L 789.6375251174709 553.0787971238034 L 790.8364162545579 552.4073858267036 L 792.084289933611 551.8321081810525 L 793.3734525984385 551.3565109648348 L 794.6959561325217 550.9835263930406 L 796.043646861796 550.7154540395851 L 797.4082158247628 550.5539466596703 L 798.7812500000001 550.5 L 800.1542841752373 550.5539466596703 L 801.5188531382041 550.7154540395851 L 802.8665438674784 550.9835263930406 L 804.1890474015617 551.3565109648348 L 805.4782100663891 551.8321081810525 L 806.7260837454421 552.4073858267036 L 807.9249748825292 553.0787971238035 L 809.0674919151184 553.8422025984385 L 810.1465908457783 554.6928956019996 L 811.1556186707646 555.6256313292355 L 812.0883543980007 556.6346591542219 L 812.9390474015617 557.7137580848819 L 813.7024528761967 558.856275117471 L 814.3738641732965 560.0551662545581 L 814.9491418189476 561.3030399336111 L 815.4247390351652 562.5922025984386 L 815.7977236069594 563.9147061325218 L 816.0657959604149 565.2623968617961 L 816.2273033403297 566.6269658247629 Z" fill-opacity="1" stroke-opacity="1" stroke-miterlimit="10" stroke-width="6"/><text fill="rgb(255,255,255)" stroke="none" font-family="times new roman" font-size="10px" font-style="normal" font-weight="normal" text-decoration="normal" x="798.78125" y="573" text-anchor="middle" dominant-baseline="text-after-edge" fill-opacity="1">*1.54</text><path fill="rgb(69,90,100)" stroke="rgb(244,67,54)" paint-order="fill stroke markers" d=" M 659.84375 353.875 L 659.7743900089954 355.6403296538765 L 659.5667376633907 357.3947754634052 L 659.2220732089477 359.12752068675786 L 658.7425216166409 360.8278823734363 L 658.131039481504 362.48537722821453 L 657.3913967942383 364.0897862441398 L 656.5281536979671 365.6312177061088 L 655.5466323734363 367.10016817658067 L 654.4528842260007 368.48758108742913 L 653.2536525766973 369.78490257669733 L 651.9563310874291 370.9841342260007 L 650.5689181765806 372.0778823734363 L 649.0999677061088 373.05940369796707 L 647.5585362441398 373.9226467942383 L 645.9541272282145 374.66228948150393 L 644.2966323734363 375.27377161664094 L 642.5962706867579 375.75332320894773 L 640.8635254634052 376.0979876633906 L 639.1090796538765 376.3056400089954 L 637.34375 376.375 L 635.5784203461235 376.3056400089954 L 633.8239745365948 376.0979876633906 L 632.0912293132421 375.75332320894773 L 630.3908676265637 375.27377161664094 L 628.7333727717855 374.66228948150393 L 627.1289637558602 373.9226467942383 L 625.5875322938912 373.05940369796707 L 624.1185818234194 372.0778823734363 L 622.7311689125709 370.9841342260007 L 621.4338474233027 369.78490257669733 L 620.2346157739993 368.48758108742913 L 619.1408676265637 367.10016817658067 L 618.1593463020329 365.6312177061088 L 617.2961032057617 364.0897862441398 L 616.556460518496 362.48537722821453 L 615.9449783833591 360.8278823734363 L 615.4654267910523 359.12752068675786 L 615.1207623366095 357.3947754634052 L 614.9131099910046 355.6403296538765 L 614.84375 353.875 L 614.9131099910046 352.1096703461235 L 615.1207623366093 350.3552245365948 L 615.4654267910523 348.62247931324214 L 615.9449783833591 346.9221176265637 L 616.556460518496 345.26462277178547 L 617.2961032057617 343.6602137558602 L 618.1593463020329 342.1187822938912 L 619.1408676265637 340.64983182341933 L 620.2346157739993 339.26241891257087 L 621.4338474233027 337.96509742330267 L 622.7311689125709 336.76586577399934 L 624.1185818234194 335.6721176265637 L 625.5875322938912 334.69059630203293 L 627.1289637558602 333.8273532057617 L 628.7333727717855 333.087710518496 L 630.3908676265637 332.47622838335906 L 632.0912293132421 331.99667679105227 L 633.8239745365948 331.6520123366094 L 635.5784203461236 331.4443599910046 L 637.3437500000001 331.375 L 639.1090796538766 331.4443599910046 L 640.8635254634053 331.6520123366094 L 642.596270686758 331.9966767910523 L 644.2966323734364 332.47622838335906 L 645.9541272282146 333.0877105184961 L 647.5585362441399 333.82735320576177 L 649.0999677061089 334.690596302033 L 650.5689181765807 335.67211762656376 L 651.9563310874292 336.7658657739994 L 653.2536525766974 337.9650974233028 L 654.4528842260008 339.262418912571 L 655.5466323734364 340.6498318234195 L 656.5281536979671 342.11878229389134 L 657.3913967942384 343.6602137558604 L 658.131039481504 345.2646227717857 L 658.742521616641 346.92211762656393 L 659.2220732089478 348.62247931324237 L 659.5667376633907 350.3552245365951 L 659.7743900089954 352.1096703461238 Z" fill-opacity="1" stroke-opacity="1" stroke-miterlimit="10" stroke-width="6"/><text fill="rgb(255,255,255)" stroke="none" font-family="times new roman" font-size="15px" font-style="normal" font-weight="normal" text-decoration="normal" x="637.34375" y="361.375" text-anchor="middle" dominant-baseline="text-after-edge" fill-opacity="1">*4</text><path fill="rgb(3,169,244)" stroke="none" paint-order="stroke fill markers" d=" M 637.34375 321.375 L 661.84375 321.375 L 661.84375 321.375 A 8 8 0 0 1 669.84375 329.375 L 669.84375 378.375 L 669.84375 378.375 A 8 8 0 0 1 661.84375 386.375 L 612.84375 386.375 L 612.84375 386.375 A 8 8 0 0 1 604.84375 378.375 L 604.84375 329.375 L 604.84375 329.375 A 8 8 0 0 1 612.84375 321.375 L 637.34375 321.375 Z" fill-opacity="0.15"/><path fill="rgb(69,90,100)" stroke="rgb(158,158,158)" paint-order="fill stroke markers" d=" M 897.78125 353.875 L 897.7118900089954 355.6403296538765 L 897.5042376633907 357.3947754634052 L 897.1595732089477 359.12752068675786 L 896.6800216166409 360.8278823734363 L 896.068539481504 362.48537722821453 L 895.3288967942383 364.0897862441398 L 894.4656536979671 365.6312177061088 L 893.4841323734363 367.10016817658067 L 892.3903842260007 368.48758108742913 L 891.1911525766973 369.78490257669733 L 889.8938310874291 370.9841342260007 L 888.5064181765806 372.0778823734363 L 887.0374677061088 373.05940369796707 L 885.4960362441398 373.9226467942383 L 883.8916272282145 374.66228948150393 L 882.2341323734363 375.27377161664094 L 880.5337706867579 375.75332320894773 L 878.8010254634052 376.0979876633906 L 877.0465796538765 376.3056400089954 L 875.28125 376.375 L 873.5159203461235 376.3056400089954 L 871.7614745365948 376.0979876633906 L 870.0287293132421 375.75332320894773 L 868.3283676265637 375.27377161664094 L 866.6708727717855 374.66228948150393 L 865.0664637558602 373.9226467942383 L 863.5250322938912 373.05940369796707 L 862.0560818234194 372.0778823734363 L 860.6686689125709 370.9841342260007 L 859.3713474233027 369.78490257669733 L 858.1721157739993 368.48758108742913 L 857.0783676265637 367.10016817658067 L 856.0968463020329 365.6312177061088 L 855.2336032057617 364.0897862441398 L 854.493960518496 362.48537722821453 L 853.8824783833591 360.8278823734363 L 853.4029267910523 359.12752068675786 L 853.0582623366095 357.3947754634052 L 852.8506099910046 355.6403296538765 L 852.78125 353.875 L 852.8506099910046 352.1096703461235 L 853.0582623366093 350.3552245365948 L 853.4029267910523 348.62247931324214 L 853.8824783833591 346.9221176265637 L 854.493960518496 345.26462277178547 L 855.2336032057617 343.6602137558602 L 856.0968463020329 342.1187822938912 L 857.0783676265637 340.64983182341933 L 858.1721157739993 339.26241891257087 L 859.3713474233027 337.96509742330267 L 860.6686689125709 336.76586577399934 L 862.0560818234194 335.6721176265637 L 863.5250322938912 334.69059630203293 L 865.0664637558602 333.8273532057617 L 866.6708727717855 333.087710518496 L 868.3283676265637 332.47622838335906 L 870.0287293132421 331.99667679105227 L 871.7614745365948 331.6520123366094 L 873.5159203461236 331.4443599910046 L 875.2812500000001 331.375 L 877.0465796538766 331.4443599910046 L 878.8010254634053 331.6520123366094 L 880.533770686758 331.9966767910523 L 882.2341323734364 332.47622838335906 L 883.8916272282146 333.0877105184961 L 885.4960362441399 333.82735320576177 L 887.0374677061089 334.690596302033 L 888.5064181765807 335.67211762656376 L 889.8938310874292 336.7658657739994 L 891.1911525766974 337.9650974233028 L 892.3903842260008 339.262418912571 L 893.4841323734364 340.6498318234195 L 894.4656536979671 342.11878229389134 L 895.3288967942384 343.6602137558604 L 896.068539481504 345.2646227717857 L 896.680021616641 346.92211762656393 L 897.1595732089478 348.62247931324237 L 897.5042376633907 350.3552245365951 L 897.7118900089954 352.1096703461238 Z" fill-opacity="1" stroke-opacity="1" stroke-miterlimit="10" stroke-width="6"/><text fill="rgb(255,255,255)" stroke="none" font-family="times new roman" font-size="15px" font-style="normal" font-weight="normal" text-decoration="normal" x="875.28125" y="361.375" text-anchor="middle" dominant-baseline="text-after-edge" fill-opacity="1">*74</text><path fill="rgb(69,90,100)" stroke="rgb(158,158,158)" paint-order="fill stroke markers" d=" M 407.40625 108.375 L 407.40625 128.375 L 502.40625 128.375 L 502.40625 108.375 Z" fill-opacity="1" stroke-opacity="1" stroke-miterlimit="10" stroke-width="6"/><text fill="rgb(255,255,255)" stroke="none" font-family="times new roman" font-size="10px" font-style="normal" font-weight="normal" text-decoration="normal" x="454.90625" y="123.375" text-anchor="middle" dominant-baseline="text-after-edge" fill-opacity="1">42126611C&gt;G</text><path fill="rgb(69,90,100)" stroke="rgb(158,158,158)" paint-order="fill stroke markers" d=" M 486.34375 343.875 L 486.34375 363.875 L 581.34375 363.875 L 581.34375 343.875 Z" fill-opacity="1" stroke-opacity="1" stroke-miterlimit="10" stroke-width="6"/><text fill="rgb(255,255,255)" stroke="none" font-family="times new roman" font-size="10px" font-style="normal" font-weight="normal" text-decoration="normal" x="533.84375" y="358.875" text-anchor="middle" dominant-baseline="text-after-edge" fill-opacity="1">42129809T&gt;C</text><path fill="rgb(69,90,100)" stroke="rgb(244,67,54)" paint-order="fill stroke markers" d=" M 1207.78125 434.875 L 1207.7273033403299 436.2480341752373 L 1207.565795960415 437.61260313820407 L 1207.2977236069594 438.96029386747836 L 1206.9247390351652 440.2827974015616 L 1206.4491418189475 441.57196006638907 L 1205.8738641732964 442.81983374544205 L 1205.2024528761965 444.0187248825291 L 1204.4390474015615 445.1612419151183 L 1203.5883543980005 446.24034084577823 L 1202.6556186707646 447.24936867076457 L 1201.6465908457783 448.18210439800055 L 1200.5674919151184 449.0327974015616 L 1199.424974882529 449.7962028761966 L 1198.226083745442 450.46761417329645 L 1196.978210066389 451.0428918189475 L 1195.6890474015615 451.5184890351652 L 1194.3665438674784 451.8914736069593 L 1193.0188531382041 452.1595459604149 L 1191.6542841752373 452.32105334032974 L 1190.28125 452.375 L 1188.9082158247627 452.32105334032974 L 1187.5436468617959 452.1595459604149 L 1186.1959561325216 451.8914736069593 L 1184.8734525984385 451.5184890351652 L 1183.584289933611 451.0428918189475 L 1182.336416254558 450.46761417329645 L 1181.137525117471 449.7962028761966 L 1179.9950080848816 449.0327974015616 L 1178.9159091542217 448.18210439800055 L 1177.9068813292354 447.24936867076457 L 1176.9741456019995 446.24034084577823 L 1176.1234525984385 445.1612419151183 L 1175.3600471238035 444.0187248825291 L 1174.6886358267036 442.81983374544205 L 1174.1133581810525 441.57196006638907 L 1173.6377609648348 440.2827974015616 L 1173.2647763930406 438.96029386747836 L 1172.996704039585 437.61260313820407 L 1172.8351966596701 436.2480341752373 L 1172.78125 434.875 L 1172.8351966596701 433.5019658247627 L 1172.996704039585 432.13739686179593 L 1173.2647763930406 430.78970613252164 L 1173.6377609648348 429.4672025984384 L 1174.1133581810525 428.17803993361093 L 1174.6886358267036 426.93016625455795 L 1175.3600471238035 425.7312751174709 L 1176.1234525984385 424.5887580848817 L 1176.9741456019995 423.50965915422177 L 1177.9068813292354 422.50063132923543 L 1178.9159091542217 421.56789560199945 L 1179.9950080848816 420.7172025984384 L 1181.137525117471 419.9537971238034 L 1182.336416254558 419.28238582670355 L 1183.584289933611 418.7071081810525 L 1184.8734525984385 418.2315109648348 L 1186.1959561325216 417.8585263930407 L 1187.543646861796 417.5904540395851 L 1188.9082158247627 417.42894665967026 L 1190.28125 417.375 L 1191.6542841752373 417.42894665967026 L 1193.0188531382041 417.5904540395851 L 1194.3665438674784 417.8585263930407 L 1195.6890474015618 418.23151096483485 L 1196.9782100663892 418.7071081810525 L 1198.226083745442 419.2823858267036 L 1199.424974882529 419.95379712380344 L 1200.5674919151184 420.7172025984385 L 1201.6465908457783 421.56789560199957 L 1202.6556186707646 422.5006313292355 L 1203.5883543980005 423.5096591542219 L 1204.4390474015618 424.5887580848818 L 1205.2024528761967 425.73127511747106 L 1205.8738641732966 426.93016625455806 L 1206.4491418189475 428.1780399336111 L 1206.9247390351652 429.4672025984386 L 1207.2977236069594 430.7897061325218 L 1207.565795960415 432.13739686179616 L 1207.7273033403299 433.5019658247629 Z" fill-opacity="1" stroke-opacity="1" stroke-miterlimit="10" stroke-width="6"/><text fill="rgb(255,255,255)" stroke="none" font-family="times new roman" font-size="10px" font-style="normal" font-weight="normal" text-decoration="normal" x="1190.28125" y="439.875" text-anchor="middle" dominant-baseline="text-after-edge" fill-opacity="1">*4.9</text><path fill="rgb(69,90,100)" stroke="rgb(244,67,54)" paint-order="fill stroke markers" d=" M 205.96875 434.875 L 205.91480334032974 436.2480341752373 L 205.7532959604149 437.61260313820407 L 205.48522360695935 438.96029386747836 L 205.11223903516517 440.2827974015616 L 204.6366418189475 441.57196006638907 L 204.06136417329643 442.81983374544205 L 203.38995287619662 444.0187248825291 L 202.6265474015616 445.1612419151183 L 201.77585439800055 446.24034084577823 L 200.84311867076457 447.24936867076457 L 199.8340908457782 448.18210439800055 L 198.75499191511827 449.0327974015616 L 197.6124748825291 449.7962028761966 L 196.41358374544208 450.46761417329645 L 195.16571006638907 451.0428918189475 L 193.8765474015616 451.5184890351652 L 192.55404386747836 451.8914736069593 L 191.20635313820404 452.1595459604149 L 189.84178417523728 452.32105334032974 L 188.46875 452.375 L 187.09571582476272 452.32105334032974 L 185.73114686179596 452.1595459604149 L 184.38345613252164 451.8914736069593 L 183.06095259843843 451.5184890351652 L 181.77178993361093 451.0428918189475 L 180.52391625455795 450.46761417329645 L 179.3250251174709 449.7962028761966 L 178.18250808488173 449.0327974015616 L 177.1034091542218 448.18210439800055 L 176.09438132923543 447.24936867076457 L 175.16164560199945 446.24034084577823 L 174.31095259843843 445.1612419151183 L 173.54754712380338 444.0187248825291 L 172.87613582670357 442.81983374544205 L 172.3008581810525 441.57196006638907 L 171.82526096483483 440.2827974015616 L 171.45227639304065 438.96029386747836 L 171.1842040395851 437.61260313820407 L 171.02269665967026 436.2480341752373 L 170.96875 434.875 L 171.02269665967026 433.5019658247627 L 171.1842040395851 432.13739686179593 L 171.45227639304065 430.78970613252164 L 171.8252609648348 429.4672025984384 L 172.3008581810525 428.17803993361093 L 172.87613582670357 426.93016625455795 L 173.54754712380338 425.7312751174709 L 174.3109525984384 424.5887580848817 L 175.16164560199945 423.50965915422177 L 176.0943813292354 422.50063132923543 L 177.10340915422177 421.56789560199945 L 178.1825080848817 420.7172025984384 L 179.3250251174709 419.9537971238034 L 180.52391625455795 419.28238582670355 L 181.77178993361096 418.7071081810525 L 183.06095259843843 418.2315109648348 L 184.3834561325217 417.8585263930407 L 185.731146861796 417.5904540395851 L 187.09571582476278 417.42894665967026 L 188.46875000000006 417.375 L 189.84178417523736 417.42894665967026 L 191.20635313820412 417.5904540395851 L 192.5540438674784 417.8585263930407 L 193.87654740156165 418.23151096483485 L 195.16571006638915 418.7071081810525 L 196.41358374544217 419.2823858267036 L 197.6124748825292 419.95379712380344 L 198.75499191511838 420.7172025984385 L 199.83409084577832 421.56789560199957 L 200.84311867076468 422.5006313292355 L 201.77585439800063 423.5096591542219 L 202.62654740156168 424.5887580848818 L 203.3899528761967 425.73127511747106 L 204.0613641732965 426.93016625455806 L 204.6366418189476 428.1780399336111 L 205.11223903516523 429.4672025984386 L 205.48522360695938 430.7897061325218 L 205.75329596041493 432.13739686179616 L 205.91480334032974 433.5019658247629 Z" fill-opacity="1" stroke-opacity="1" stroke-miterlimit="10" stroke-width="6"/><text fill="rgb(255,255,255)" stroke="none" font-family="times new roman" font-size="10px" font-style="normal" font-weight="normal" text-decoration="normal" x="188.46875" y="439.875" text-anchor="middle" dominant-baseline="text-after-edge" fill-opacity="1">*4.2</text><path fill="rgb(69,90,100)" stroke="rgb(76,175,80)" paint-order="fill stroke markers" d=" M 935.78125 424.875 L 935.78125 444.875 L 1030.78125 444.875 L 1030.78125 424.875 Z" fill-opacity="1" stroke-opacity="1" stroke-miterlimit="10" stroke-width="6"/><text fill="rgb(255,255,255)" stroke="none" font-family="times new roman" font-size="10px" font-style="normal" font-weight="normal" text-decoration="normal" x="983.28125" y="439.875" text-anchor="middle" dominant-baseline="text-after-edge" fill-opacity="1">42129950A&gt;C</text><path fill="rgb(69,90,100)" stroke="rgb(76,175,80)" paint-order="fill stroke markers" d=" M 946.28125 343.875 L 946.28125 363.875 L 1041.28125 363.875 L 1041.28125 343.875 Z" fill-opacity="1" stroke-opacity="1" stroke-miterlimit="10" stroke-width="6"/><text fill="rgb(255,255,255)" stroke="none" font-family="times new roman" font-size="10px" font-style="normal" font-weight="normal" text-decoration="normal" x="993.78125" y="358.875" text-anchor="middle" dominant-baseline="text-after-edge" fill-opacity="1">42127407T&gt;G</text><path fill="rgb(69,90,100)" stroke="rgb(255,193,7)" paint-order="fill stroke markers" d=" M 370.03125 353.875 L 369.97730334032974 355.2480341752373 L 369.8157959604149 356.61260313820407 L 369.5477236069593 357.96029386747836 L 369.1747390351652 359.2827974015616 L 368.6991418189475 360.57196006638907 L 368.12386417329645 361.81983374544205 L 367.4524528761966 363.0187248825291 L 366.6890474015616 364.1612419151183 L 365.83835439800055 365.24034084577823 L 364.90561867076457 366.24936867076457 L 363.89659084577823 367.18210439800055 L 362.8174919151183 368.0327974015616 L 361.6749748825291 368.7962028761966 L 360.47608374544205 369.46761417329645 L 359.22821006638907 370.0428918189475 L 357.9390474015616 370.5184890351652 L 356.61654386747836 370.8914736069593 L 355.26885313820407 371.1595459604149 L 353.9042841752373 371.32105334032974 L 352.53125 371.375 L 351.1582158247627 371.32105334032974 L 349.79364686179593 371.1595459604149 L 348.44595613252164 370.8914736069593 L 347.1234525984384 370.5184890351652 L 345.83428993361093 370.0428918189475 L 344.58641625455795 369.46761417329645 L 343.3875251174709 368.7962028761966 L 342.2450080848817 368.0327974015616 L 341.16590915422177 367.18210439800055 L 340.15688132923543 366.24936867076457 L 339.22414560199945 365.24034084577823 L 338.3734525984384 364.1612419151183 L 337.6100471238034 363.0187248825291 L 336.93863582670355 361.81983374544205 L 336.3633581810525 360.57196006638907 L 335.8877609648348 359.2827974015616 L 335.5147763930407 357.96029386747836 L 335.2467040395851 356.61260313820407 L 335.08519665967026 355.2480341752373 L 335.03125 353.875 L 335.08519665967026 352.5019658247627 L 335.2467040395851 351.13739686179593 L 335.5147763930407 349.78970613252164 L 335.8877609648348 348.4672025984384 L 336.3633581810525 347.17803993361093 L 336.93863582670355 345.93016625455795 L 337.6100471238034 344.7312751174709 L 338.3734525984384 343.5887580848817 L 339.22414560199945 342.50965915422177 L 340.15688132923543 341.50063132923543 L 341.16590915422177 340.56789560199945 L 342.2450080848817 339.7172025984384 L 343.3875251174709 338.9537971238034 L 344.58641625455795 338.28238582670355 L 345.83428993361093 337.7071081810525 L 347.12345259843846 337.2315109648348 L 348.4459561325217 336.8585263930407 L 349.793646861796 336.5904540395851 L 351.15821582476275 336.42894665967026 L 352.53125000000006 336.375 L 353.90428417523736 336.42894665967026 L 355.2688531382041 336.5904540395851 L 356.6165438674784 336.8585263930407 L 357.93904740156165 337.23151096483485 L 359.2282100663892 337.7071081810525 L 360.47608374544217 338.2823858267036 L 361.6749748825292 338.95379712380344 L 362.81749191511835 339.7172025984385 L 363.8965908457783 340.56789560199957 L 364.9056186707647 341.5006313292355 L 365.83835439800066 342.5096591542219 L 366.68904740156165 343.5887580848818 L 367.4524528761967 344.73127511747106 L 368.1238641732965 345.93016625455806 L 368.69914181894757 347.1780399336111 L 369.17473903516526 348.4672025984386 L 369.5477236069594 349.7897061325218 L 369.81579596041496 351.13739686179616 L 369.97730334032974 352.5019658247629 Z" fill-opacity="1" stroke-opacity="1" stroke-miterlimit="10" stroke-width="6"/><text fill="rgb(255,255,255)" stroke="none" font-family="times new roman" font-size="10px" font-style="normal" font-weight="normal" text-decoration="normal" x="352.53125" y="358.875" text-anchor="middle" dominant-baseline="text-after-edge" fill-opacity="1">*10.1</text><path fill="rgb(69,90,100)" stroke="rgb(76,175,80)" paint-order="fill stroke markers" d=" M 908.53125 434.875 L 908.4773033403297 436.2480341752373 L 908.3157959604149 437.61260313820407 L 908.0477236069594 438.96029386747836 L 907.6747390351652 440.2827974015616 L 907.1991418189475 441.57196006638907 L 906.6238641732964 442.81983374544205 L 905.9524528761966 444.0187248825291 L 905.1890474015615 445.1612419151183 L 904.3383543980005 446.24034084577823 L 903.4056186707646 447.24936867076457 L 902.3965908457782 448.18210439800055 L 901.3174919151182 449.0327974015616 L 900.1749748825291 449.7962028761966 L 898.9760837454421 450.46761417329645 L 897.7282100663891 451.0428918189475 L 896.4390474015615 451.5184890351652 L 895.1165438674783 451.8914736069593 L 893.768853138204 452.1595459604149 L 892.4042841752373 452.32105334032974 L 891.03125 452.375 L 889.6582158247627 452.32105334032974 L 888.293646861796 452.1595459604149 L 886.9459561325217 451.8914736069593 L 885.6234525984385 451.5184890351652 L 884.3342899336109 451.0428918189475 L 883.0864162545579 450.46761417329645 L 881.8875251174709 449.7962028761966 L 880.7450080848818 449.0327974015616 L 879.6659091542218 448.18210439800055 L 878.6568813292354 447.24936867076457 L 877.7241456019995 446.24034084577823 L 876.8734525984385 445.1612419151183 L 876.1100471238034 444.0187248825291 L 875.4386358267036 442.81983374544205 L 874.8633581810525 441.57196006638907 L 874.3877609648348 440.2827974015616 L 874.0147763930406 438.96029386747836 L 873.7467040395851 437.61260313820407 L 873.5851966596703 436.2480341752373 L 873.53125 434.875 L 873.5851966596703 433.5019658247627 L 873.7467040395851 432.13739686179593 L 874.0147763930406 430.78970613252164 L 874.3877609648348 429.4672025984384 L 874.8633581810525 428.17803993361093 L 875.4386358267036 426.93016625455795 L 876.1100471238034 425.7312751174709 L 876.8734525984385 424.5887580848817 L 877.7241456019995 423.50965915422177 L 878.6568813292354 422.50063132923543 L 879.6659091542218 421.56789560199945 L 880.7450080848818 420.7172025984384 L 881.8875251174709 419.9537971238034 L 883.0864162545579 419.28238582670355 L 884.334289933611 418.7071081810525 L 885.6234525984385 418.2315109648348 L 886.9459561325217 417.8585263930407 L 888.293646861796 417.5904540395851 L 889.6582158247628 417.42894665967026 L 891.0312500000001 417.375 L 892.4042841752373 417.42894665967026 L 893.7688531382041 417.5904540395851 L 895.1165438674784 417.8585263930407 L 896.4390474015617 418.23151096483485 L 897.7282100663891 418.7071081810525 L 898.9760837454421 419.2823858267036 L 900.1749748825292 419.95379712380344 L 901.3174919151184 420.7172025984385 L 902.3965908457783 421.56789560199957 L 903.4056186707646 422.5006313292355 L 904.3383543980007 423.5096591542219 L 905.1890474015617 424.5887580848818 L 905.9524528761967 425.73127511747106 L 906.6238641732965 426.93016625455806 L 907.1991418189476 428.1780399336111 L 907.6747390351652 429.4672025984386 L 908.0477236069594 430.7897061325218 L 908.3157959604149 432.13739686179616 L 908.4773033403297 433.5019658247629 Z" fill-opacity="1" stroke-opacity="1" stroke-miterlimit="10" stroke-width="6"/><text fill="rgb(255,255,255)" stroke="none" font-family="times new roman" font-size="10px" font-style="normal" font-weight="normal" text-decoration="normal" x="891.03125" y="439.875" text-anchor="middle" dominant-baseline="text-after-edge" fill-opacity="1">*1.41</text><path fill="rgb(69,90,100)" stroke="rgb(76,175,80)" paint-order="fill stroke markers" d=" M 751.28125 424.875 L 751.28125 444.875 L 846.28125 444.875 L 846.28125 424.875 Z" fill-opacity="1" stroke-opacity="1" stroke-miterlimit="10" stroke-width="6"/><text fill="rgb(255,255,255)" stroke="none" font-family="times new roman" font-size="10px" font-style="normal" font-weight="normal" text-decoration="normal" x="798.78125" y="439.875" text-anchor="middle" dominant-baseline="text-after-edge" fill-opacity="1">42130047G&gt;C</text><path fill="rgb(69,90,100)" stroke="rgb(244,67,54)" paint-order="fill stroke markers" d=" M 418.78125 568 L 418.72730334032974 569.3730341752373 L 418.5657959604149 570.737603138204 L 418.2977236069593 572.0852938674783 L 417.9247390351652 573.4077974015615 L 417.4491418189475 574.6969600663891 L 416.87386417329645 575.9448337454421 L 416.2024528761966 577.1437248825291 L 415.4390474015616 578.2862419151182 L 414.58835439800055 579.3653408457782 L 413.65561867076457 580.3743686707646 L 412.64659084577823 581.3071043980005 L 411.5674919151183 582.1577974015615 L 410.4249748825291 582.9212028761966 L 409.22608374544205 583.5926141732964 L 407.97821006638907 584.1678918189475 L 406.6890474015616 584.6434890351652 L 405.36654386747836 585.0164736069594 L 404.01885313820407 585.2845459604149 L 402.6542841752373 585.4460533403297 L 401.28125 585.5 L 399.9082158247627 585.4460533403297 L 398.54364686179593 585.2845459604149 L 397.19595613252164 585.0164736069594 L 395.8734525984384 584.6434890351652 L 394.58428993361093 584.1678918189475 L 393.33641625455795 583.5926141732964 L 392.1375251174709 582.9212028761966 L 390.9950080848817 582.1577974015615 L 389.91590915422177 581.3071043980005 L 388.90688132923543 580.3743686707646 L 387.97414560199945 579.3653408457782 L 387.1234525984384 578.2862419151182 L 386.3600471238034 577.1437248825291 L 385.68863582670355 575.9448337454421 L 385.1133581810525 574.6969600663891 L 384.6377609648348 573.4077974015615 L 384.2647763930407 572.0852938674783 L 383.9967040395851 570.737603138204 L 383.83519665967026 569.3730341752373 L 383.78125 568 L 383.83519665967026 566.6269658247627 L 383.9967040395851 565.262396861796 L 384.2647763930407 563.9147061325217 L 384.6377609648348 562.5922025984385 L 385.1133581810525 561.3030399336109 L 385.68863582670355 560.0551662545579 L 386.3600471238034 558.8562751174709 L 387.1234525984384 557.7137580848818 L 387.97414560199945 556.6346591542218 L 388.90688132923543 555.6256313292354 L 389.91590915422177 554.6928956019995 L 390.9950080848817 553.8422025984385 L 392.1375251174709 553.0787971238034 L 393.33641625455795 552.4073858267036 L 394.58428993361093 551.8321081810525 L 395.87345259843846 551.3565109648348 L 397.1959561325217 550.9835263930406 L 398.543646861796 550.7154540395851 L 399.90821582476275 550.5539466596703 L 401.28125000000006 550.5 L 402.65428417523736 550.5539466596703 L 404.0188531382041 550.7154540395851 L 405.3665438674784 550.9835263930406 L 406.68904740156165 551.3565109648348 L 407.9782100663892 551.8321081810525 L 409.22608374544217 552.4073858267036 L 410.4249748825292 553.0787971238035 L 411.56749191511835 553.8422025984385 L 412.6465908457783 554.6928956019996 L 413.6556186707647 555.6256313292355 L 414.58835439800066 556.6346591542219 L 415.43904740156165 557.7137580848819 L 416.2024528761967 558.856275117471 L 416.8738641732965 560.0551662545581 L 417.44914181894757 561.3030399336111 L 417.92473903516526 562.5922025984386 L 418.2977236069594 563.9147061325218 L 418.56579596041496 565.2623968617961 L 418.72730334032974 566.6269658247629 Z" fill-opacity="1" stroke-opacity="1" stroke-miterlimit="10" stroke-width="6"/><text fill="rgb(255,255,255)" stroke="none" font-family="times new roman" font-size="10px" font-style="normal" font-weight="normal" text-decoration="normal" x="401.28125" y="573" text-anchor="middle" dominant-baseline="text-after-edge" fill-opacity="1">*4.11</text><path fill="rgb(69,90,100)" stroke="rgb(255,193,7)" paint-order="fill stroke markers" d=" M 248.46875 269.125 L 248.39939000899537 270.8903296538765 L 248.1917376633906 272.6447754634052 L 247.84707320894773 274.37752068675786 L 247.36752161664094 276.0778823734363 L 246.75603948150396 277.73537722821453 L 246.0163967942383 279.3397862441398 L 245.15315369796707 280.8812177061088 L 244.17163237343632 282.35016817658067 L 243.0778842260007 283.73758108742913 L 241.87865257669733 285.03490257669733 L 240.58133108742913 286.2341342260007 L 239.19391817658064 287.3278823734363 L 237.72496770610886 288.30940369796707 L 236.18353624413982 289.1726467942383 L 234.57912722821453 289.91228948150393 L 232.92163237343632 290.52377161664094 L 231.22127068675786 291.00332320894773 L 229.48852546340518 291.3479876633906 L 227.7340796538765 291.5556400089954 L 225.96875 291.625 L 224.2034203461235 291.5556400089954 L 222.44897453659482 291.3479876633906 L 220.71622931324214 291.00332320894773 L 219.01586762656368 290.52377161664094 L 217.35837277178547 289.91228948150393 L 215.7539637558602 289.1726467942383 L 214.21253229389114 288.30940369796707 L 212.74358182341936 287.3278823734363 L 211.35616891257087 286.2341342260007 L 210.0588474233027 285.03490257669733 L 208.8596157739993 283.73758108742913 L 207.76586762656368 282.35016817658067 L 206.78434630203293 280.8812177061088 L 205.9211032057617 279.3397862441398 L 205.18146051849604 277.73537722821453 L 204.56997838335906 276.0778823734363 L 204.09042679105227 274.37752068675786 L 203.7457623366094 272.6447754634052 L 203.53810999100463 270.8903296538765 L 203.46875 269.125 L 203.53810999100463 267.3596703461235 L 203.7457623366094 265.6052245365948 L 204.09042679105227 263.87247931324214 L 204.56997838335906 262.1721176265637 L 205.18146051849604 260.51462277178547 L 205.9211032057617 258.9102137558602 L 206.78434630203293 257.3687822938912 L 207.76586762656368 255.89983182341936 L 208.8596157739993 254.51241891257087 L 210.05884742330267 253.2150974233027 L 211.35616891257087 252.0158657739993 L 212.74358182341936 250.92211762656368 L 214.21253229389114 249.94059630203293 L 215.7539637558602 249.0773532057617 L 217.3583727717855 248.33771051849604 L 219.0158676265637 247.72622838335903 L 220.71622931324217 247.24667679105227 L 222.44897453659485 246.9020123366094 L 224.20342034612355 246.6943599910046 L 225.96875000000009 246.625 L 227.7340796538766 246.69435999100463 L 229.4885254634053 246.9020123366094 L 231.22127068675798 247.2466767910523 L 232.92163237343644 247.72622838335909 L 234.57912722821465 248.3377105184961 L 236.18353624413993 249.0773532057618 L 237.72496770610897 249.940596302033 L 239.19391817658078 250.92211762656376 L 240.58133108742925 252.01586577399942 L 241.87865257669745 253.2150974233028 L 243.0778842260008 254.512418912571 L 244.17163237343644 255.8998318234195 L 245.15315369796718 257.36878229389134 L 246.01639679423837 258.9102137558604 L 246.75603948150405 260.5146227717857 L 247.36752161664103 262.17211762656393 L 247.8470732089478 263.87247931324237 L 248.19173766339065 265.6052245365951 L 248.3993900089954 267.3596703461238 Z" fill-opacity="1" stroke-opacity="1" stroke-miterlimit="10" stroke-width="6"/><text fill="rgb(255,255,255)" stroke="none" font-family="times new roman" font-size="15px" font-style="normal" font-weight="normal" text-decoration="normal" x="225.96875" y="276.625" text-anchor="middle" dominant-baseline="text-after-edge" fill-opacity="1">*10</text><path fill="rgb(69,90,100)" stroke="rgb(244,67,54)" paint-order="fill stroke markers" d=" M 524.96875 259.125 L 524.96875 279.125 L 619.96875 279.125 L 619.96875 259.125 Z" fill-opacity="1" stroke-opacity="1" stroke-miterlimit="10" stroke-width="6"/><text fill="rgb(255,255,255)" stroke="none" font-family="times new roman" font-size="10px" font-style="normal" font-weight="normal" text-decoration="normal" x="572.46875" y="274.125" text-anchor="middle" dominant-baseline="text-after-edge" fill-opacity="1">42128945C&gt;T</text><path fill="rgb(69,90,100)" stroke="rgb(76,175,80)" paint-order="fill stroke markers" d=" M 1050.53125 424.875 L 1050.53125 444.875 L 1145.53125 444.875 L 1145.53125 424.875 Z" fill-opacity="1" stroke-opacity="1" stroke-miterlimit="10" stroke-width="6"/><text fill="rgb(255,255,255)" stroke="none" font-family="times new roman" font-size="10px" font-style="normal" font-weight="normal" text-decoration="normal" x="1098.03125" y="439.875" text-anchor="middle" dominant-baseline="text-after-edge" fill-opacity="1">42130482C&gt;A</text><path fill="rgb(69,90,100)" stroke="rgb(158,158,158)" paint-order="fill stroke markers" d=" M 311.40625 181.875 L 311.40625 201.875 L 406.40625 201.875 L 406.40625 181.875 Z" fill-opacity="1" stroke-opacity="1" stroke-miterlimit="10" stroke-width="6"/><text fill="rgb(255,255,255)" stroke="none" font-family="times new roman" font-size="10px" font-style="normal" font-weight="normal" text-decoration="normal" x="358.90625" y="196.875" text-anchor="middle" dominant-baseline="text-after-edge" fill-opacity="1">42130692G&gt;A</text><path fill="rgb(69,90,100)" stroke="rgb(76,175,80)" paint-order="fill stroke markers" d=" M 1000.78125 568 L 1000.7273033403297 569.3730341752373 L 1000.5657959604149 570.737603138204 L 1000.2977236069594 572.0852938674783 L 999.9247390351652 573.4077974015615 L 999.4491418189475 574.6969600663891 L 998.8738641732964 575.9448337454421 L 998.2024528761966 577.1437248825291 L 997.4390474015615 578.2862419151182 L 996.5883543980005 579.3653408457782 L 995.6556186707646 580.3743686707646 L 994.6465908457782 581.3071043980005 L 993.5674919151182 582.1577974015615 L 992.4249748825291 582.9212028761966 L 991.2260837454421 583.5926141732964 L 989.9782100663891 584.1678918189475 L 988.6890474015615 584.6434890351652 L 987.3665438674783 585.0164736069594 L 986.018853138204 585.2845459604149 L 984.6542841752373 585.4460533403297 L 983.28125 585.5 L 981.9082158247627 585.4460533403297 L 980.543646861796 585.2845459604149 L 979.1959561325217 585.0164736069594 L 977.8734525984385 584.6434890351652 L 976.5842899336109 584.1678918189475 L 975.3364162545579 583.5926141732964 L 974.1375251174709 582.9212028761966 L 972.9950080848818 582.1577974015615 L 971.9159091542218 581.3071043980005 L 970.9068813292354 580.3743686707646 L 969.9741456019995 579.3653408457782 L 969.1234525984385 578.2862419151182 L 968.3600471238034 577.1437248825291 L 967.6886358267036 575.9448337454421 L 967.1133581810525 574.6969600663891 L 966.6377609648348 573.4077974015615 L 966.2647763930406 572.0852938674783 L 965.9967040395851 570.737603138204 L 965.8351966596703 569.3730341752373 L 965.78125 568 L 965.8351966596703 566.6269658247627 L 965.9967040395851 565.262396861796 L 966.2647763930406 563.9147061325217 L 966.6377609648348 562.5922025984385 L 967.1133581810525 561.3030399336109 L 967.6886358267036 560.0551662545579 L 968.3600471238034 558.8562751174709 L 969.1234525984385 557.7137580848818 L 969.9741456019995 556.6346591542218 L 970.9068813292354 555.6256313292354 L 971.9159091542218 554.6928956019995 L 972.9950080848818 553.8422025984385 L 974.1375251174709 553.0787971238034 L 975.3364162545579 552.4073858267036 L 976.584289933611 551.8321081810525 L 977.8734525984385 551.3565109648348 L 979.1959561325217 550.9835263930406 L 980.543646861796 550.7154540395851 L 981.9082158247628 550.5539466596703 L 983.2812500000001 550.5 L 984.6542841752373 550.5539466596703 L 986.0188531382041 550.7154540395851 L 987.3665438674784 550.9835263930406 L 988.6890474015617 551.3565109648348 L 989.9782100663891 551.8321081810525 L 991.2260837454421 552.4073858267036 L 992.4249748825292 553.0787971238035 L 993.5674919151184 553.8422025984385 L 994.6465908457783 554.6928956019996 L 995.6556186707646 555.6256313292355 L 996.5883543980007 556.6346591542219 L 997.4390474015617 557.7137580848819 L 998.2024528761967 558.856275117471 L 998.8738641732965 560.0551662545581 L 999.4491418189476 561.3030399336111 L 999.9247390351652 562.5922025984386 L 1000.2977236069594 563.9147061325218 L 1000.5657959604149 565.2623968617961 L 1000.7273033403297 566.6269658247629 Z" fill-opacity="1" stroke-opacity="1" stroke-miterlimit="10" stroke-width="6"/><text fill="rgb(255,255,255)" stroke="none" font-family="times new roman" font-size="10px" font-style="normal" font-weight="normal" text-decoration="normal" x="983.28125" y="573" text-anchor="middle" dominant-baseline="text-after-edge" fill-opacity="1">*1.58</text><path fill="rgb(69,90,100)" stroke="rgb(76,175,80)" paint-order="fill stroke markers" d=" M 564.65625 118.375 L 564.6023033403297 119.74803417523728 L 564.4407959604149 121.11260313820404 L 564.1727236069594 122.46029386747834 L 563.7997390351652 123.78279740156158 L 563.3241418189475 125.07196006638907 L 562.7488641732964 126.31983374544207 L 562.0774528761966 127.5187248825291 L 561.3140474015615 128.66124191511827 L 560.4633543980005 129.7403408457782 L 559.5306186707646 130.74936867076457 L 558.5215908457782 131.68210439800055 L 557.4424919151182 132.5327974015616 L 556.2999748825291 133.29620287619662 L 555.1010837454421 133.96761417329643 L 553.8532100663891 134.5428918189475 L 552.5640474015615 135.01848903516517 L 551.2415438674783 135.39147360695935 L 549.893853138204 135.6595459604149 L 548.5292841752373 135.82105334032974 L 547.15625 135.875 L 545.7832158247627 135.82105334032974 L 544.418646861796 135.6595459604149 L 543.0709561325217 135.39147360695935 L 541.7484525984385 135.0184890351652 L 540.4592899336109 134.5428918189475 L 539.2114162545579 133.96761417329643 L 538.0125251174709 133.29620287619662 L 536.8700080848818 132.5327974015616 L 535.7909091542218 131.68210439800055 L 534.7818813292354 130.74936867076457 L 533.8491456019995 129.7403408457782 L 532.9984525984385 128.6612419151183 L 532.2350471238034 127.51872488252911 L 531.5636358267036 126.31983374544207 L 530.9883581810525 125.07196006638907 L 530.5127609648348 123.78279740156158 L 530.1397763930406 122.46029386747834 L 529.8717040395851 121.11260313820404 L 529.7101966596703 119.7480341752373 L 529.65625 118.375 L 529.7101966596703 117.00196582476272 L 529.8717040395851 115.63739686179596 L 530.1397763930406 114.28970613252166 L 530.5127609648348 112.96720259843842 L 530.9883581810525 111.67803993361093 L 531.5636358267036 110.43016625455793 L 532.2350471238034 109.2312751174709 L 532.9984525984385 108.08875808488172 L 533.8491456019995 107.0096591542218 L 534.7818813292354 106.00063132923542 L 535.7909091542218 105.06789560199947 L 536.8700080848818 104.21720259843842 L 538.0125251174709 103.45379712380338 L 539.2114162545579 102.78238582670356 L 540.459289933611 102.20710818105248 L 541.7484525984385 101.7315109648348 L 543.0709561325217 101.35852639304065 L 544.418646861796 101.09045403958508 L 545.7832158247628 100.92894665967026 L 547.1562500000001 100.875 L 548.5292841752373 100.92894665967026 L 549.8938531382041 101.0904540395851 L 551.2415438674784 101.35852639304068 L 552.5640474015617 101.73151096483484 L 553.8532100663891 102.20710818105252 L 555.1010837454421 102.7823858267036 L 556.2999748825292 103.45379712380344 L 557.4424919151184 104.21720259843849 L 558.5215908457783 105.06789560199954 L 559.5306186707646 106.00063132923552 L 560.4633543980007 107.0096591542219 L 561.3140474015617 108.08875808488185 L 562.0774528761967 109.23127511747103 L 562.7488641732965 110.43016625455807 L 563.3241418189476 111.67803993361109 L 563.7997390351652 112.96720259843859 L 564.1727236069594 114.28970613252184 L 564.4407959604149 115.63739686179616 L 564.6023033403297 117.00196582476292 Z" fill-opacity="1" stroke-opacity="1" stroke-miterlimit="10" stroke-width="6"/><text fill="rgb(255,255,255)" stroke="none" font-family="times new roman" font-size="10px" font-style="normal" font-weight="normal" text-decoration="normal" x="547.15625" y="123.375" text-anchor="middle" dominant-baseline="text-after-edge" fill-opacity="1">*39.2</text><path fill="rgb(69,90,100)" stroke="rgb(158,158,158)" paint-order="fill stroke markers" d=" M 965.59375 259.125 L 965.59375 279.125 L 1060.59375 279.125 L 1060.59375 259.125 Z" fill-opacity="1" stroke-opacity="1" stroke-miterlimit="10" stroke-width="6"/><text fill="rgb(255,255,255)" stroke="none" font-family="times new roman" font-size="10px" font-style="normal" font-weight="normal" text-decoration="normal" x="1013.09375" y="274.125" text-anchor="middle" dominant-baseline="text-after-edge" fill-opacity="1">42129819G&gt;T</text><path fill="rgb(69,90,100)" stroke="rgb(76,175,80)" paint-order="fill stroke markers" d=" M 693.34375 343.875 L 693.34375 363.875 L 788.34375 363.875 L 788.34375 343.875 Z" fill-opacity="1" stroke-opacity="1" stroke-miterlimit="10" stroke-width="6"/><text fill="rgb(255,255,255)" stroke="none" font-family="times new roman" font-size="10px" font-style="normal" font-weight="normal" text-decoration="normal" x="740.84375" y="358.875" text-anchor="middle" dominant-baseline="text-after-edge" fill-opacity="1">42129796G&gt;C</text><path fill="rgb(69,90,100)" stroke="rgb(76,175,80)" paint-order="fill stroke markers" d=" M 685.53125 424.875 L 728.03125 424.875 L 728.03125 424.875 A 5 5 0 0 1 733.03125 429.875 L 733.03125 439.875 L 733.03125 439.875 A 5 5 0 0 1 728.03125 444.875 L 643.03125 444.875 L 643.03125 444.875 A 5 5 0 0 1 638.03125 439.875 L 638.03125 429.875 L 638.03125 429.875 A 5 5 0 0 1 643.03125 424.875 L 685.53125 424.875 Z" fill-opacity="1" stroke-opacity="1" stroke-miterlimit="10" stroke-width="2"/><text fill="rgb(255,255,255)" stroke="none" font-family="times new roman" font-size="10px" font-style="normal" font-weight="normal" text-decoration="normal" x="685.53125" y="439.875" text-anchor="middle" dominant-baseline="text-after-edge" fill-opacity="1">42132049dup</text><path fill="rgb(69,90,100)" stroke="rgb(69,90,100)" paint-order="fill stroke markers" d=" M 532.53125 682.125 L 513.78125 699.625 L 532.53125 717.125 L 570.03125 717.125 L 588.78125 699.625 L 570.03125 682.125 Z" fill-opacity="1" stroke-opacity="1" stroke-miterlimit="10" stroke-width="2"/><text fill="rgb(255,255,255)" stroke="none" font-family="times new roman" font-size="10px" font-style="normal" font-weight="normal" text-decoration="normal" x="551.28125" y="704.625" text-anchor="middle" dominant-baseline="text-after-edge" fill-opacity="1">HG00276-A</text><path fill="rgb(69,90,100)" stroke="rgb(244,67,54)" paint-order="fill stroke markers" d=" M 418.78125 434.875 L 418.72730334032974 436.2480341752373 L 418.5657959604149 437.61260313820407 L 418.2977236069593 438.96029386747836 L 417.9247390351652 440.2827974015616 L 417.4491418189475 441.57196006638907 L 416.87386417329645 442.81983374544205 L 416.2024528761966 444.0187248825291 L 415.4390474015616 445.1612419151183 L 414.58835439800055 446.24034084577823 L 413.65561867076457 447.24936867076457 L 412.64659084577823 448.18210439800055 L 411.5674919151183 449.0327974015616 L 410.4249748825291 449.7962028761966 L 409.22608374544205 450.46761417329645 L 407.97821006638907 451.0428918189475 L 406.6890474015616 451.5184890351652 L 405.36654386747836 451.8914736069593 L 404.01885313820407 452.1595459604149 L 402.6542841752373 452.32105334032974 L 401.28125 452.375 L 399.9082158247627 452.32105334032974 L 398.54364686179593 452.1595459604149 L 397.19595613252164 451.8914736069593 L 395.8734525984384 451.5184890351652 L 394.58428993361093 451.0428918189475 L 393.33641625455795 450.46761417329645 L 392.1375251174709 449.7962028761966 L 390.9950080848817 449.0327974015616 L 389.91590915422177 448.18210439800055 L 388.90688132923543 447.24936867076457 L 387.97414560199945 446.24034084577823 L 387.1234525984384 445.1612419151183 L 386.3600471238034 444.0187248825291 L 385.68863582670355 442.81983374544205 L 385.1133581810525 441.57196006638907 L 384.6377609648348 440.2827974015616 L 384.2647763930407 438.96029386747836 L 383.9967040395851 437.61260313820407 L 383.83519665967026 436.2480341752373 L 383.78125 434.875 L 383.83519665967026 433.5019658247627 L 383.9967040395851 432.13739686179593 L 384.2647763930407 430.78970613252164 L 384.6377609648348 429.4672025984384 L 385.1133581810525 428.17803993361093 L 385.68863582670355 426.93016625455795 L 386.3600471238034 425.7312751174709 L 387.1234525984384 424.5887580848817 L 387.97414560199945 423.50965915422177 L 388.90688132923543 422.50063132923543 L 389.91590915422177 421.56789560199945 L 390.9950080848817 420.7172025984384 L 392.1375251174709 419.9537971238034 L 393.33641625455795 419.28238582670355 L 394.58428993361093 418.7071081810525 L 395.87345259843846 418.2315109648348 L 397.1959561325217 417.8585263930407 L 398.543646861796 417.5904540395851 L 399.90821582476275 417.42894665967026 L 401.28125000000006 417.375 L 402.65428417523736 417.42894665967026 L 404.0188531382041 417.5904540395851 L 405.3665438674784 417.8585263930407 L 406.68904740156165 418.23151096483485 L 407.9782100663892 418.7071081810525 L 409.22608374544217 419.2823858267036 L 410.4249748825292 419.95379712380344 L 411.56749191511835 420.7172025984385 L 412.6465908457783 421.56789560199957 L 413.6556186707647 422.5006313292355 L 414.58835439800066 423.5096591542219 L 415.43904740156165 424.5887580848818 L 416.2024528761967 425.73127511747106 L 416.8738641732965 426.93016625455806 L 417.44914181894757 428.1780399336111 L 417.92473903516526 429.4672025984386 L 418.2977236069594 430.7897061325218 L 418.56579596041496 432.13739686179616 L 418.72730334032974 433.5019658247629 Z" fill-opacity="1" stroke-opacity="1" stroke-miterlimit="10" stroke-width="6"/><text fill="rgb(255,255,255)" stroke="none" font-family="times new roman" font-size="10px" font-style="normal" font-weight="normal" text-decoration="normal" x="401.28125" y="439.875" text-anchor="middle" dominant-baseline="text-after-edge" fill-opacity="1">*4.5</text><path fill="rgb(69,90,100)" stroke="rgb(76,175,80)" paint-order="fill stroke markers" d=" M 762.53125 259.125 L 762.53125 279.125 L 857.53125 279.125 L 857.53125 259.125 Z" fill-opacity="1" stroke-opacity="1" stroke-miterlimit="10" stroke-width="6"/><text fill="rgb(255,255,255)" stroke="none" font-family="times new roman" font-size="10px" font-style="normal" font-weight="normal" text-decoration="normal" x="810.03125" y="274.125" text-anchor="middle" dominant-baseline="text-after-edge" fill-opacity="1">42129130C&gt;G</text><path fill="rgb(69,90,100)" stroke="rgb(76,175,80)" paint-order="fill stroke markers" d=" M 477.40625 191.875 L 477.3368900089954 193.6403296538765 L 477.1292376633906 195.39477546340518 L 476.78457320894773 197.12752068675786 L 476.30502161664094 198.82788237343632 L 475.69353948150393 200.48537722821453 L 474.9538967942383 202.08978624413982 L 474.09065369796707 203.63121770610886 L 473.1091323734363 205.10016817658064 L 472.0153842260007 206.48758108742913 L 470.81615257669733 207.7849025766973 L 469.51883108742913 208.9841342260007 L 468.13141817658067 210.07788237343632 L 466.6624677061088 211.05940369796707 L 465.1210362441398 211.9226467942383 L 463.51662722821453 212.66228948150396 L 461.8591323734363 213.27377161664094 L 460.15877068675786 213.75332320894773 L 458.4260254634052 214.0979876633906 L 456.6715796538765 214.30564000899537 L 454.90625 214.375 L 453.1409203461235 214.30564000899537 L 451.3864745365948 214.0979876633906 L 449.65372931324214 213.75332320894773 L 447.9533676265637 213.27377161664094 L 446.29587277178547 212.66228948150396 L 444.6914637558602 211.9226467942383 L 443.1500322938912 211.05940369796707 L 441.68108182341933 210.07788237343632 L 440.29366891257087 208.9841342260007 L 438.99634742330267 207.78490257669733 L 437.7971157739993 206.48758108742913 L 436.7033676265637 205.10016817658064 L 435.72184630203293 203.63121770610886 L 434.8586032057617 202.08978624413982 L 434.11896051849607 200.48537722821453 L 433.50747838335906 198.82788237343632 L 433.02792679105227 197.12752068675786 L 432.6832623366094 195.3947754634052 L 432.4756099910046 193.6403296538765 L 432.40625 191.875 L 432.4756099910046 190.1096703461235 L 432.6832623366094 188.35522453659482 L 433.02792679105227 186.62247931324214 L 433.50747838335906 184.92211762656368 L 434.11896051849607 183.26462277178547 L 434.8586032057617 181.6602137558602 L 435.72184630203293 180.11878229389114 L 436.7033676265637 178.64983182341936 L 437.7971157739993 177.26241891257087 L 438.99634742330267 175.9650974233027 L 440.29366891257087 174.7658657739993 L 441.68108182341933 173.67211762656368 L 443.1500322938912 172.69059630203293 L 444.69146375586024 171.8273532057617 L 446.2958727717855 171.08771051849604 L 447.9533676265637 170.47622838335903 L 449.6537293132422 169.99667679105227 L 451.38647453659485 169.6520123366094 L 453.14092034612355 169.4443599910046 L 454.90625000000006 169.375 L 456.6715796538766 169.44435999100463 L 458.42602546340527 169.6520123366094 L 460.158770686758 169.9966767910523 L 461.8591323734364 170.47622838335909 L 463.51662722821465 171.0877105184961 L 465.12103624413993 171.8273532057618 L 466.662467706109 172.690596302033 L 468.1314181765808 173.67211762656376 L 469.51883108742925 174.76586577399942 L 470.81615257669745 175.9650974233028 L 472.01538422600083 177.262418912571 L 473.1091323734364 178.6498318234195 L 474.0906536979672 180.11878229389131 L 474.9538967942384 181.66021375586038 L 475.69353948150405 183.2646227717857 L 476.30502161664106 184.9221176265639 L 476.7845732089478 186.62247931324237 L 477.12923766339065 188.35522453659505 L 477.3368900089954 190.10967034612375 Z" fill-opacity="1" stroke-opacity="1" stroke-miterlimit="10" stroke-width="6"/><text fill="rgb(255,255,255)" stroke="none" font-family="times new roman" font-size="15px" font-style="normal" font-weight="normal" text-decoration="normal" x="454.90625" y="199.375" text-anchor="middle" dominant-baseline="text-after-edge" fill-opacity="1">*39</text><path fill="rgb(176,190,197)" stroke="none" paint-order="stroke fill markers" d=" M 524.65625 463 L 524.65625 673 L 599.65625 673 L 599.65625 463.00000000000006 Z" fill-opacity="0.8"/><text fill="rgb(0,0,0)" stroke="none" font-family="times new roman" font-size="10px" font-style="normal" font-weight="normal" text-decoration="normal" x="529.65625" y="478" text-anchor="start" dominant-baseline="text-after-edge" fill-opacity="0.8">42126390G&gt;A </text><text fill="rgb(0,0,0)" stroke="none" font-family="times new roman" font-size="10px" font-style="normal" font-weight="normal" text-decoration="normal" x="529.65625" y="488" text-anchor="start" dominant-baseline="text-after-edge" fill-opacity="0.8">42127209T&gt;C </text><text fill="rgb(0,0,0)" stroke="none" font-family="times new roman" font-size="10px" font-style="normal" font-weight="normal" text-decoration="normal" x="529.65625" y="498" text-anchor="start" dominant-baseline="text-after-edge" fill-opacity="0.8">42128694T&gt;C </text><text fill="rgb(0,0,0)" stroke="none" font-family="times new roman" font-size="10px" font-style="normal" font-weight="normal" text-decoration="normal" x="529.65625" y="508" text-anchor="start" dominant-baseline="text-after-edge" fill-opacity="0.8">42131791C&gt;T </text><text fill="rgb(0,0,0)" stroke="none" font-family="times new roman" font-size="10px" font-style="normal" font-weight="normal" text-decoration="normal" x="529.65625" y="518" text-anchor="start" dominant-baseline="text-after-edge" fill-opacity="0.8">42132217G&gt;A </text><path fill="rgb(176,190,197)" stroke="none" paint-order="stroke fill markers" d=" M 685.53125 463 L 752.53125 463 L 752.53125 463 A 8 8 0 0 1 760.53125 471 L 760.53125 665 L 760.53125 665 A 8 8 0 0 1 752.53125 673 L 618.53125 673 L 618.53125 673 A 8 8 0 0 1 610.53125 665 L 610.53125 471 L 610.53125 471 A 8 8 0 0 1 618.53125 463 L 685.53125 463 Z" fill-opacity="0.8"/><text fill="rgb(0,0,0)" stroke="none" font-family="times new roman" font-size="10px" font-style="normal" font-weight="normal" text-decoration="normal" x="615.53125" y="478" text-anchor="start" dominant-baseline="text-after-edge" fill-opacity="0.8">42125924A&gt;G </text><text fill="rgb(0,0,0)" stroke="none" font-family="times new roman" font-size="10px" font-style="normal" font-weight="normal" text-decoration="normal" x="615.53125" y="488" text-anchor="start" dominant-baseline="text-after-edge" fill-opacity="0.8">42125980T&gt;C </text><text fill="rgb(0,0,0)" stroke="none" font-family="times new roman" font-size="10px" font-style="normal" font-weight="normal" text-decoration="normal" x="615.53125" y="498" text-anchor="start" dominant-baseline="text-after-edge" fill-opacity="0.8">42126069A&gt;C </text><text fill="rgb(0,0,0)" stroke="none" font-family="times new roman" font-size="10px" font-style="normal" font-weight="normal" text-decoration="normal" x="615.53125" y="508" text-anchor="start" dominant-baseline="text-after-edge" fill-opacity="0.8">42132027C&gt;T </text><text fill="rgb(0,0,0)" stroke="none" font-family="times new roman" font-size="10px" font-style="normal" font-weight="normal" text-decoration="normal" x="615.53125" y="518" text-anchor="start" dominant-baseline="text-after-edge" fill-opacity="0.8">42132844C&gt;A </text><text fill="rgb(0,0,0)" stroke="none" font-family="times new roman" font-size="10px" font-style="normal" font-weight="normal" text-decoration="normal" x="615.53125" y="528" text-anchor="start" dominant-baseline="text-after-edge" fill-opacity="0.8">42132851T&gt;C </text><text fill="rgb(0,0,0)" stroke="none" font-family="times new roman" font-size="10px" font-style="normal" font-weight="normal" text-decoration="normal" x="615.53125" y="538" text-anchor="start" dominant-baseline="text-after-edge" fill-opacity="0.8">42132969C&gt;T </text><text fill="rgb(0,0,0)" stroke="none" font-family="times new roman" font-size="10px" font-style="normal" font-weight="normal" text-decoration="normal" x="615.53125" y="548" text-anchor="start" dominant-baseline="text-after-edge" fill-opacity="0.8">42133212A&gt;G </text><text fill="rgb(0,0,0)" stroke="none" font-family="times new roman" font-size="10px" font-style="normal" font-weight="normal" text-decoration="normal" x="615.53125" y="558" text-anchor="start" dominant-baseline="text-after-edge" fill-opacity="0.8">42133314C&gt;T </text><text fill="rgb(0,0,0)" stroke="none" font-family="times new roman" font-size="10px" font-style="normal" font-weight="normal" text-decoration="normal" x="615.53125" y="568" text-anchor="start" dominant-baseline="text-after-edge" fill-opacity="0.8">42133400T&gt;G </text><text fill="rgb(0,0,0)" stroke="none" font-family="times new roman" font-size="10px" font-style="normal" font-weight="normal" text-decoration="normal" x="615.53125" y="578" text-anchor="start" dominant-baseline="text-after-edge" fill-opacity="0.8">42134096del </text><text fill="rgb(0,0,0)" stroke="none" font-family="times new roman" font-size="10px" font-style="normal" font-weight="normal" text-decoration="normal" x="615.53125" y="588" text-anchor="start" dominant-baseline="text-after-edge" fill-opacity="0.8">42134820T&gt;G </text><text fill="rgb(0,0,0)" stroke="none" font-family="times new roman" font-size="10px" font-style="normal" font-weight="normal" text-decoration="normal" x="615.53125" y="598" text-anchor="start" dominant-baseline="text-after-edge" fill-opacity="0.8">42135064_42135066dup </text><text fill="rgb(0,0,0)" stroke="none" font-family="times new roman" font-size="10px" font-style="normal" font-weight="normal" text-decoration="normal" x="615.53125" y="608" text-anchor="start" dominant-baseline="text-after-edge" fill-opacity="0.8">42135201T&gt;C </text><g transform="scale(1.135492700729927,1.135492700729927) translate(98.61530735235033,55.315387705906005)"/></g></svg>