<svg version="1.1" xmlns="http://www.w3.org/2000/svg" xmlns:xlink="http://www.w3.org/1999/xlink" width="1017" height="608"><defs/><g transform="translate(-56.0754865860074,-53.45397159389796) scale(1.1530773277222515,1.1530773277222515)"><path fill="none" stroke="rgb(120,144,156)" paint-order="fill stroke markers" d=" M 225.45287352061837 402.72390825011405 L 546.5186876361531 517.4252830639082" stroke-opacity="1" stroke-linejoin="round" stroke-miterlimit="10"/><path fill="rgb(120,144,156)" stroke="none" paint-order="stroke fill markers" d=" M 538.7457752860917 519.267654795742 L 548.402106395139 518.0981380098665 L 541.6726943010101 511.07478319415395 Z" fill-opacity="1"/><path fill="none" stroke="rgb(120,144,156)" paint-order="fill stroke markers" d=" M 434.15938042722667 409.61826519562646 L 554.3050170128637 509.66836825982244" stroke-opacity="1" stroke-linejoin="round" stroke-miterlimit="10"/><path fill="rgb(120,144,156)" stroke="none" paint-order="stroke fill markers" d=" M 546.3728010390396 508.7236726767853 L 555.8419077862517 510.94819901061527 L 551.9400648049884 502.03819781254765 Z" fill-opacity="1"/><path fill="none" stroke="rgb(120,144,156)" paint-order="fill stroke markers" d=" M 576.46875 501.5 L 576.46875 507.625" stroke-opacity="1" stroke-linejoin="round" stroke-miterlimit="10"/><path fill="rgb(120,144,156)" stroke="none" paint-order="stroke fill markers" d=" M 572.11875 500.925 L 576.46875 509.625 L 580.81875 500.925 Z" fill-opacity="1"/><path fill="none" stroke="rgb(55,71,79)" paint-order="fill stroke markers" d=" M 162.65625 180.375 L 162.65625 231.625" stroke-opacity="1" stroke-linejoin="round" stroke-miterlimit="10" stroke-width="2"/><path fill="none" stroke="rgb(120,144,156)" paint-order="fill stroke markers" d=" M 730.8622137609489 409.02147081298233 L 599.4091361003324 510.42813072260077" stroke-opacity="1" stroke-linejoin="round" stroke-miterlimit="10"/><path fill="rgb(120,144,156)" stroke="none" paint-order="stroke fill markers" d=" M 602.0570821864383 502.8914947671444 L 597.8255715892054 511.6497376311844 L 607.3710722387771 509.78000039054666 Z" fill-opacity="1"/><path fill="none" stroke="rgb(120,144,156)" paint-order="fill stroke markers" d=" M 371.31599025974026 265.125 L 410.81429064673773 375.31953368836247" stroke-opacity="1" stroke-linejoin="round" stroke-miterlimit="10"/><path fill="rgb(120,144,156)" stroke="none" paint-order="stroke fill markers" d=" M 404.4586837079608 370.4802403060833 L 411.4891314781388 377.20224180495245 L 412.64846401512733 367.5446826894886 Z" fill-opacity="1"/><path fill="none" stroke="rgb(120,144,156)" paint-order="fill stroke markers" d=" M 792.09375 416 L 603.2256458964011 514.2114141338715" stroke-opacity="1" stroke-linejoin="round" stroke-miterlimit="10"/><path fill="rgb(120,144,156)" stroke="none" paint-order="stroke fill markers" d=" M 607.1631140602803 507.26095771299964 L 601.451212293932 515.1341196071554 L 611.1768828690657 514.9797438837406 Z" fill-opacity="1"/><path fill="none" stroke="rgb(120,144,156)" paint-order="fill stroke markers" d=" M 388.564435840708 180.375 L 449.50525339889145 233.96497964260493" stroke-opacity="1" stroke-linejoin="round" stroke-miterlimit="10"/><path fill="rgb(120,144,156)" stroke="none" paint-order="stroke fill markers" d=" M 441.6013346431789 232.80715050879675 L 451.00714406079027 235.28570839587002 L 447.3465047198821 226.27392612953696 Z" fill-opacity="1"/><path fill="none" stroke="rgb(55,71,79)" paint-order="fill stroke markers" d=" M 480.18941326530614 106.875 L 504.6016773259076 145.77584354372266" stroke-opacity="1" stroke-linejoin="round" stroke-miterlimit="10" stroke-width="2"/><path fill="none" stroke="rgb(120,144,156)" paint-order="fill stroke markers" d=" M 168.8026952331781 271.68187119647575 L 201.8848047668219 376.94312880352425" stroke-opacity="1" stroke-linejoin="round" stroke-miterlimit="10"/><path fill="rgb(120,144,156)" stroke="none" paint-order="stroke fill markers" d=" M 195.72609390014082 371.8556165961066 L 202.4844579603027 378.8511162373268 L 204.02583923718174 369.24712520446514 Z" fill-opacity="1"/><path fill="none" stroke="rgb(120,144,156)" paint-order="fill stroke markers" d=" M 505.58938407480855 189.5633726491661 L 483.70875246834373 228.19636282933067" stroke-opacity="1" stroke-linejoin="round" stroke-miterlimit="10"/><path fill="rgb(120,144,156)" stroke="none" paint-order="stroke fill markers" d=" M 483.2255595536343 220.2227172009387 L 482.72311592519145 229.9366273508339 L 490.79571022217334 224.51023616365106 Z" fill-opacity="1"/><path fill="none" stroke="rgb(120,144,156)" paint-order="fill stroke markers" d=" M 694.8849837662337 265.125 L 738.7842998467678 375.59059928761826" stroke-opacity="1" stroke-linejoin="round" stroke-miterlimit="10"/><path fill="rgb(120,144,156)" stroke="none" paint-order="stroke fill markers" d=" M 732.2674461078559 370.9707381051117 L 739.5229176381662 377.4492126842744 L 740.3524143833101 367.7577507125286 Z" fill-opacity="1"/><path fill="none" stroke="rgb(120,144,156)" paint-order="fill stroke markers" d=" M 799.3025162337663 265.125 L 755.4032001532322 375.59059928761826" stroke-opacity="1" stroke-linejoin="round" stroke-miterlimit="10"/><path fill="rgb(120,144,156)" stroke="none" paint-order="stroke fill markers" d=" M 753.8350856166899 367.7577507125286 L 754.6645823618338 377.4492126842744 L 761.9200538921441 370.9707381051117 Z" fill-opacity="1"/><path fill="none" stroke="rgb(55,71,79)" paint-order="fill stroke markers" d=" M 553.3844366737688 111.23902773936021 L 531.7108226740925 145.77584354372266" stroke-opacity="1" stroke-linejoin="round" stroke-miterlimit="10" stroke-width="2"/><path fill="none" stroke="rgb(120,144,156)" paint-order="fill stroke markers" d=" M 576.46875 263.125 L 576.46875 289.5" stroke-opacity="1" stroke-linejoin="round" stroke-miterlimit="10"/><path fill="rgb(120,144,156)" stroke="none" paint-order="stroke fill markers" d=" M 572.11875 282.8 L 576.46875 291.5 L 580.81875 282.8 Z" fill-opacity="1"/><path fill="none" stroke="rgb(120,144,156)" paint-order="fill stroke markers" d=" M 249.94910714285714 263.125 L 214.1776952331781 376.94312880352425" stroke-opacity="1" stroke-linejoin="round" stroke-miterlimit="10"/><path fill="rgb(120,144,156)" stroke="none" paint-order="stroke fill markers" d=" M 212.03666076281826 369.24712520446514 L 213.5780420396973 378.8511162373268 L 220.33640609985918 371.8556165961066 Z" fill-opacity="1"/><path fill="none" stroke="rgb(120,144,156)" paint-order="fill stroke markers" d=" M 461.55202939963607 276.12952848652253 L 425.99820935326227 375.31953368836247" stroke-opacity="1" stroke-linejoin="round" stroke-miterlimit="10"/><path fill="rgb(120,144,156)" stroke="none" paint-order="stroke fill markers" d=" M 424.1640359848727 367.5446826894886 L 425.3233685218612 377.20224180495245 L 432.3538162920392 370.4802403060833 Z" fill-opacity="1"/><path fill="rgb(69,90,100)" stroke="rgb(76,175,80)" paint-order="fill stroke markers" d=" M 225.53125 396.5 L 225.47730334032974 397.8730341752373 L 225.3157959604149 399.23760313820407 L 225.04772360695935 400.58529386747836 L 224.67473903516517 401.9077974015616 L 224.1991418189475 403.19696006638907 L 223.62386417329643 404.44483374544205 L 222.95245287619662 405.6437248825291 L 222.1890474015616 406.7862419151183 L 221.33835439800055 407.86534084577823 L 220.40561867076457 408.87436867076457 L 219.3965908457782 409.80710439800055 L 218.31749191511827 410.6577974015616 L 217.1749748825291 411.4212028761966 L 215.97608374544208 412.09261417329645 L 214.72821006638907 412.6678918189475 L 213.4390474015616 413.1434890351652 L 212.11654386747836 413.5164736069593 L 210.76885313820404 413.7845459604149 L 209.40428417523728 413.94605334032974 L 208.03125 414 L 206.65821582476272 413.94605334032974 L 205.29364686179596 413.7845459604149 L 203.94595613252164 413.5164736069593 L 202.62345259843843 413.1434890351652 L 201.33428993361093 412.6678918189475 L 200.08641625455795 412.09261417329645 L 198.8875251174709 411.4212028761966 L 197.74500808488173 410.6577974015616 L 196.6659091542218 409.80710439800055 L 195.65688132923543 408.87436867076457 L 194.72414560199945 407.86534084577823 L 193.87345259843843 406.7862419151183 L 193.11004712380338 405.6437248825291 L 192.43863582670357 404.44483374544205 L 191.8633581810525 403.19696006638907 L 191.38776096483483 401.9077974015616 L 191.01477639304065 400.58529386747836 L 190.7467040395851 399.23760313820407 L 190.58519665967026 397.8730341752373 L 190.53125 396.5 L 190.58519665967026 395.1269658247627 L 190.7467040395851 393.76239686179593 L 191.01477639304065 392.41470613252164 L 191.3877609648348 391.0922025984384 L 191.8633581810525 389.80303993361093 L 192.43863582670357 388.55516625455795 L 193.11004712380338 387.3562751174709 L 193.8734525984384 386.2137580848817 L 194.72414560199945 385.13465915422177 L 195.6568813292354 384.12563132923543 L 196.66590915422177 383.19289560199945 L 197.7450080848817 382.3422025984384 L 198.8875251174709 381.5787971238034 L 200.08641625455795 380.90738582670355 L 201.33428993361096 380.3321081810525 L 202.62345259843843 379.8565109648348 L 203.9459561325217 379.4835263930407 L 205.293646861796 379.2154540395851 L 206.65821582476278 379.05394665967026 L 208.03125000000006 379 L 209.40428417523736 379.05394665967026 L 210.76885313820412 379.2154540395851 L 212.1165438674784 379.4835263930407 L 213.43904740156165 379.85651096483485 L 214.72821006638915 380.3321081810525 L 215.97608374544217 380.9073858267036 L 217.1749748825292 381.57879712380344 L 218.31749191511838 382.3422025984385 L 219.39659084577832 383.19289560199957 L 220.40561867076468 384.1256313292355 L 221.33835439800063 385.1346591542219 L 222.18904740156168 386.2137580848818 L 222.9524528761967 387.35627511747106 L 223.6238641732965 388.55516625455806 L 224.1991418189476 389.8030399336111 L 224.67473903516523 391.0922025984386 L 225.04772360695938 392.4147061325218 L 225.31579596041493 393.76239686179616 L 225.47730334032974 395.1269658247629 Z" fill-opacity="1" stroke-opacity="1" stroke-miterlimit="10" stroke-width="2"/><text fill="rgb(255,255,255)" stroke="none" font-family="times new roman" font-size="10px" font-style="normal" font-weight="normal" text-decoration="normal" x="208.03125" y="401.5" text-anchor="middle" dominant-baseline="text-after-edge" fill-opacity="1">*1.54</text><path fill="rgb(69,90,100)" stroke="rgb(255,193,7)" paint-order="fill stroke markers" d=" M 435.90625 396.5 L 435.85230334032974 397.8730341752373 L 435.6907959604149 399.23760313820407 L 435.4227236069593 400.58529386747836 L 435.0497390351652 401.9077974015616 L 434.5741418189475 403.19696006638907 L 433.99886417329645 404.44483374544205 L 433.3274528761966 405.6437248825291 L 432.5640474015616 406.7862419151183 L 431.71335439800055 407.86534084577823 L 430.78061867076457 408.87436867076457 L 429.77159084577823 409.80710439800055 L 428.6924919151183 410.6577974015616 L 427.5499748825291 411.4212028761966 L 426.35108374544205 412.09261417329645 L 425.10321006638907 412.6678918189475 L 423.8140474015616 413.1434890351652 L 422.49154386747836 413.5164736069593 L 421.14385313820407 413.7845459604149 L 419.7792841752373 413.94605334032974 L 418.40625 414 L 417.0332158247627 413.94605334032974 L 415.66864686179593 413.7845459604149 L 414.32095613252164 413.5164736069593 L 412.9984525984384 413.1434890351652 L 411.70928993361093 412.6678918189475 L 410.46141625455795 412.09261417329645 L 409.2625251174709 411.4212028761966 L 408.1200080848817 410.6577974015616 L 407.04090915422177 409.80710439800055 L 406.03188132923543 408.87436867076457 L 405.09914560199945 407.86534084577823 L 404.2484525984384 406.7862419151183 L 403.4850471238034 405.6437248825291 L 402.81363582670355 404.44483374544205 L 402.2383581810525 403.19696006638907 L 401.7627609648348 401.9077974015616 L 401.3897763930407 400.58529386747836 L 401.1217040395851 399.23760313820407 L 400.96019665967026 397.8730341752373 L 400.90625 396.5 L 400.96019665967026 395.1269658247627 L 401.1217040395851 393.76239686179593 L 401.3897763930407 392.41470613252164 L 401.7627609648348 391.0922025984384 L 402.2383581810525 389.80303993361093 L 402.81363582670355 388.55516625455795 L 403.4850471238034 387.3562751174709 L 404.2484525984384 386.2137580848817 L 405.09914560199945 385.13465915422177 L 406.03188132923543 384.12563132923543 L 407.04090915422177 383.19289560199945 L 408.1200080848817 382.3422025984384 L 409.2625251174709 381.5787971238034 L 410.46141625455795 380.90738582670355 L 411.70928993361093 380.3321081810525 L 412.99845259843846 379.8565109648348 L 414.3209561325217 379.4835263930407 L 415.668646861796 379.2154540395851 L 417.03321582476275 379.05394665967026 L 418.40625000000006 379 L 419.77928417523736 379.05394665967026 L 421.1438531382041 379.2154540395851 L 422.4915438674784 379.4835263930407 L 423.81404740156165 379.85651096483485 L 425.1032100663892 380.3321081810525 L 426.35108374544217 380.9073858267036 L 427.5499748825292 381.57879712380344 L 428.69249191511835 382.3422025984385 L 429.7715908457783 383.19289560199957 L 430.7806186707647 384.1256313292355 L 431.71335439800066 385.1346591542219 L 432.56404740156165 386.2137580848818 L 433.3274528761967 387.35627511747106 L 433.9988641732965 388.55516625455806 L 434.57414181894757 389.8030399336111 L 435.04973903516526 391.0922025984386 L 435.4227236069594 392.4147061325218 L 435.69079596041496 393.76239686179616 L 435.85230334032974 395.1269658247629 Z" fill-opacity="1" stroke-opacity="1" stroke-miterlimit="10" stroke-width="6"/><text fill="rgb(255,255,255)" stroke="none" font-family="times new roman" font-size="10px" font-style="normal" font-weight="normal" text-decoration="normal" x="418.40625" y="401.5" text-anchor="middle" dominant-baseline="text-after-edge" fill-opacity="1">*10.1</text><path fill="rgb(69,90,100)" stroke="rgb(255,193,7)" paint-order="fill stroke markers" d=" M 492.65625 252.125 L 492.5868900089954 253.8903296538765 L 492.3792376633906 255.64477546340518 L 492.03457320894773 257.37752068675786 L 491.55502161664094 259.0778823734363 L 490.94353948150393 260.73537722821453 L 490.2038967942383 262.3397862441398 L 489.34065369796707 263.8812177061088 L 488.3591323734363 265.35016817658067 L 487.2653842260007 266.73758108742913 L 486.06615257669733 268.03490257669733 L 484.76883108742913 269.2341342260007 L 483.38141817658067 270.3278823734363 L 481.9124677061088 271.30940369796707 L 480.3710362441398 272.1726467942383 L 478.76662722821453 272.91228948150393 L 477.1091323734363 273.52377161664094 L 475.40877068675786 274.00332320894773 L 473.6760254634052 274.3479876633906 L 471.9215796538765 274.5556400089954 L 470.15625 274.625 L 468.3909203461235 274.5556400089954 L 466.6364745365948 274.3479876633906 L 464.90372931324214 274.00332320894773 L 463.2033676265637 273.52377161664094 L 461.54587277178547 272.91228948150393 L 459.9414637558602 272.1726467942383 L 458.4000322938912 271.30940369796707 L 456.93108182341933 270.3278823734363 L 455.54366891257087 269.2341342260007 L 454.24634742330267 268.03490257669733 L 453.0471157739993 266.73758108742913 L 451.9533676265637 265.35016817658067 L 450.97184630203293 263.8812177061088 L 450.1086032057617 262.3397862441398 L 449.36896051849607 260.73537722821453 L 448.75747838335906 259.0778823734363 L 448.27792679105227 257.37752068675786 L 447.9332623366094 255.6447754634052 L 447.7256099910046 253.8903296538765 L 447.65625 252.125 L 447.7256099910046 250.3596703461235 L 447.9332623366094 248.60522453659482 L 448.27792679105227 246.87247931324214 L 448.75747838335906 245.17211762656368 L 449.36896051849607 243.51462277178547 L 450.1086032057617 241.9102137558602 L 450.97184630203293 240.36878229389114 L 451.9533676265637 238.89983182341936 L 453.0471157739993 237.51241891257087 L 454.24634742330267 236.2150974233027 L 455.54366891257087 235.0158657739993 L 456.93108182341933 233.92211762656368 L 458.4000322938912 232.94059630203293 L 459.94146375586024 232.0773532057617 L 461.5458727717855 231.33771051849604 L 463.2033676265637 230.72622838335903 L 464.9037293132422 230.24667679105227 L 466.63647453659485 229.9020123366094 L 468.39092034612355 229.6943599910046 L 470.15625000000006 229.625 L 471.9215796538766 229.69435999100463 L 473.67602546340527 229.9020123366094 L 475.408770686758 230.2466767910523 L 477.1091323734364 230.72622838335909 L 478.76662722821465 231.3377105184961 L 480.37103624413993 232.0773532057618 L 481.912467706109 232.940596302033 L 483.3814181765808 233.92211762656376 L 484.76883108742925 235.01586577399942 L 486.06615257669745 236.2150974233028 L 487.26538422600083 237.512418912571 L 488.3591323734364 238.8998318234195 L 489.3406536979672 240.36878229389131 L 490.2038967942384 241.91021375586038 L 490.94353948150405 243.5146227717857 L 491.55502161664106 245.1721176265639 L 492.0345732089478 246.87247931324237 L 492.37923766339065 248.60522453659505 L 492.5868900089954 250.35967034612375 Z" fill-opacity="1" stroke-opacity="1" stroke-miterlimit="10" stroke-width="6"/><text fill="rgb(255,255,255)" stroke="none" font-family="times new roman" font-size="15px" font-style="normal" font-weight="normal" text-decoration="normal" x="470.15625" y="259.625" text-anchor="middle" dominant-baseline="text-after-edge" fill-opacity="1">*10</text><path fill="rgb(3,169,244)" stroke="none" paint-order="stroke fill markers" d=" M 470.15625 219.625 L 494.65625 219.625 L 494.65625 219.625 A 8 8 0 0 1 502.65625 227.625 L 502.65625 276.625 L 502.65625 276.625 A 8 8 0 0 1 494.65625 284.625 L 445.65625 284.625 L 445.65625 284.625 A 8 8 0 0 1 437.65625 276.625 L 437.65625 227.625 L 437.65625 227.625 A 8 8 0 0 1 445.65625 219.625 L 470.15625 219.625 Z" fill-opacity="0.15"/><path fill="rgb(69,90,100)" stroke="rgb(76,175,80)" paint-order="fill stroke markers" d=" M 115.15625000000001 157.375 L 115.15625 177.375 L 210.15624999999997 177.375 L 210.15625 157.375 Z" fill-opacity="1" stroke-opacity="1" stroke-miterlimit="10" stroke-width="6"/><text fill="rgb(255,255,255)" stroke="none" font-family="times new roman" font-size="10px" font-style="normal" font-weight="normal" text-decoration="normal" x="162.65625" y="172.375" text-anchor="middle" dominant-baseline="text-after-edge" fill-opacity="1">42127407T&gt;G</text><path fill="rgb(69,90,100)" stroke="rgb(76,175,80)" paint-order="fill stroke markers" d=" M 756.96875 242.125 L 756.96875 262.125 L 851.96875 262.125 L 851.96875 242.125 Z" fill-opacity="1" stroke-opacity="1" stroke-miterlimit="10" stroke-width="6"/><text fill="rgb(255,255,255)" stroke="none" font-family="times new roman" font-size="10px" font-style="normal" font-weight="normal" text-decoration="normal" x="804.46875" y="257.125" text-anchor="middle" dominant-baseline="text-after-edge" fill-opacity="1">42129950A&gt;C</text><path fill="rgb(69,90,100)" stroke="rgb(76,175,80)" paint-order="fill stroke markers" d=" M 319.15625 242.125 L 319.15625 262.125 L 414.15625 262.125 L 414.15625 242.125 Z" fill-opacity="1" stroke-opacity="1" stroke-miterlimit="10" stroke-width="6"/><text fill="rgb(255,255,255)" stroke="none" font-family="times new roman" font-size="10px" font-style="normal" font-weight="normal" text-decoration="normal" x="366.65625" y="257.125" text-anchor="middle" dominant-baseline="text-after-edge" fill-opacity="1">42129130C&gt;G</text><path fill="rgb(69,90,100)" stroke="rgb(76,175,80)" paint-order="fill stroke markers" d=" M 205.90625 242.125 L 205.90625 262.125 L 300.90625 262.125 L 300.90625 242.125 Z" fill-opacity="1" stroke-opacity="1" stroke-miterlimit="10" stroke-width="2"/><text fill="rgb(255,255,255)" stroke="none" font-family="times new roman" font-size="10px" font-style="normal" font-weight="normal" text-decoration="normal" x="253.40625" y="257.125" text-anchor="middle" dominant-baseline="text-after-edge" fill-opacity="1">42130047G&gt;C</text><path fill="rgb(69,90,100)" stroke="rgb(76,175,80)" paint-order="fill stroke markers" d=" M 576.46875 242.125 L 618.96875 242.125 L 618.96875 242.125 A 5 5 0 0 1 623.96875 247.125 L 623.96875 257.125 L 623.96875 257.125 A 5 5 0 0 1 618.96875 262.125 L 533.96875 262.125 L 533.96875 262.125 A 5 5 0 0 1 528.96875 257.125 L 528.96875 247.125 L 528.96875 247.125 A 5 5 0 0 1 533.96875 242.125 L 576.46875 242.125 Z" fill-opacity="1" stroke-opacity="1" stroke-miterlimit="10" stroke-width="2"/><text fill="rgb(255,255,255)" stroke="none" font-family="times new roman" font-size="10px" font-style="normal" font-weight="normal" text-decoration="normal" x="576.46875" y="257.125" text-anchor="middle" dominant-baseline="text-after-edge" fill-opacity="1">42132049dup</text><path fill="rgb(69,90,100)" stroke="rgb(76,175,80)" paint-order="fill stroke markers" d=" M 581.78125 93.875 L 581.7273033403297 95.24803417523728 L 581.5657959604149 96.61260313820404 L 581.2977236069594 97.96029386747834 L 580.9247390351652 99.28279740156158 L 580.4491418189475 100.57196006638907 L 579.8738641732964 101.81983374544207 L 579.2024528761966 103.0187248825291 L 578.4390474015615 104.16124191511828 L 577.5883543980005 105.2403408457782 L 576.6556186707646 106.24936867076458 L 575.6465908457782 107.18210439800055 L 574.5674919151182 108.03279740156158 L 573.4249748825291 108.79620287619662 L 572.2260837454421 109.46761417329644 L 570.9782100663891 110.04289181894751 L 569.6890474015615 110.51848903516519 L 568.3665438674783 110.89147360695934 L 567.018853138204 111.1595459604149 L 565.6542841752373 111.32105334032974 L 564.28125 111.375 L 562.9082158247627 111.32105334032974 L 561.543646861796 111.1595459604149 L 560.1959561325217 110.89147360695934 L 558.8734525984385 110.51848903516519 L 557.5842899336109 110.04289181894751 L 556.3364162545579 109.46761417329644 L 555.1375251174709 108.79620287619662 L 553.9950080848818 108.03279740156158 L 552.9159091542218 107.18210439800055 L 551.9068813292354 106.24936867076458 L 550.9741456019995 105.24034084577822 L 550.1234525984385 104.16124191511828 L 549.3600471238034 103.01872488252911 L 548.6886358267036 101.81983374544207 L 548.1133581810525 100.57196006638907 L 547.6377609648348 99.28279740156158 L 547.2647763930406 97.96029386747834 L 546.9967040395851 96.61260313820404 L 546.8351966596703 95.2480341752373 L 546.78125 93.875 L 546.8351966596703 92.50196582476272 L 546.9967040395851 91.13739686179596 L 547.2647763930406 89.78970613252166 L 547.6377609648348 88.46720259843842 L 548.1133581810525 87.17803993361093 L 548.6886358267036 85.93016625455793 L 549.3600471238034 84.7312751174709 L 550.1234525984385 83.58875808488172 L 550.9741456019995 82.5096591542218 L 551.9068813292354 81.50063132923542 L 552.9159091542218 80.56789560199947 L 553.9950080848818 79.71720259843842 L 555.1375251174709 78.95379712380338 L 556.3364162545579 78.28238582670356 L 557.584289933611 77.70710818105248 L 558.8734525984385 77.2315109648348 L 560.1959561325217 76.85852639304065 L 561.543646861796 76.59045403958508 L 562.9082158247628 76.42894665967026 L 564.2812500000001 76.375 L 565.6542841752373 76.42894665967026 L 567.0188531382041 76.5904540395851 L 568.3665438674784 76.85852639304068 L 569.6890474015617 77.23151096483484 L 570.9782100663891 77.70710818105252 L 572.2260837454421 78.2823858267036 L 573.4249748825292 78.95379712380344 L 574.5674919151184 79.71720259843849 L 575.6465908457783 80.56789560199954 L 576.6556186707646 81.50063132923552 L 577.5883543980007 82.5096591542219 L 578.4390474015617 83.58875808488185 L 579.2024528761967 84.73127511747103 L 579.8738641732965 85.93016625455807 L 580.4491418189476 87.17803993361109 L 580.9247390351652 88.46720259843859 L 581.2977236069594 89.78970613252184 L 581.5657959604149 91.13739686179616 L 581.7273033403297 92.50196582476292 Z" fill-opacity="1" stroke-opacity="1" stroke-miterlimit="10" stroke-width="6"/><text fill="rgb(255,255,255)" stroke="none" font-family="times new roman" font-size="10px" font-style="normal" font-weight="normal" text-decoration="normal" x="564.28125" y="98.875" text-anchor="middle" dominant-baseline="text-after-edge" fill-opacity="1">*39.2</text><path fill="rgb(69,90,100)" stroke="rgb(255,193,7)" paint-order="fill stroke markers" d=" M 424.53125 83.875 L 424.53125 103.875 L 519.53125 103.875 L 519.53125 83.875 Z" fill-opacity="1" stroke-opacity="1" stroke-miterlimit="10" stroke-width="6"/><text fill="rgb(255,255,255)" stroke="none" font-family="times new roman" font-size="10px" font-style="normal" font-weight="normal" text-decoration="normal" x="472.03125" y="98.875" text-anchor="middle" dominant-baseline="text-after-edge" fill-opacity="1">42126611C&gt;G</text><path fill="rgb(69,90,100)" stroke="rgb(76,175,80)" paint-order="fill stroke markers" d=" M 540.65625 167.375 L 540.5868900089954 169.1403296538765 L 540.3792376633907 170.89477546340518 L 540.0345732089477 172.62752068675786 L 539.5550216166409 174.32788237343632 L 538.943539481504 175.98537722821453 L 538.2038967942383 177.58978624413982 L 537.3406536979671 179.13121770610886 L 536.3591323734363 180.60016817658064 L 535.2653842260007 181.98758108742913 L 534.0661525766973 183.2849025766973 L 532.7688310874291 184.4841342260007 L 531.3814181765806 185.57788237343632 L 529.9124677061088 186.55940369796707 L 528.3710362441398 187.4226467942383 L 526.7666272282145 188.16228948150396 L 525.1091323734363 188.77377161664094 L 523.4087706867579 189.25332320894773 L 521.6760254634052 189.5979876633906 L 519.9215796538765 189.80564000899537 L 518.15625 189.875 L 516.3909203461235 189.80564000899537 L 514.6364745365948 189.5979876633906 L 512.9037293132421 189.25332320894773 L 511.2033676265637 188.77377161664094 L 509.54587277178547 188.16228948150396 L 507.9414637558602 187.4226467942383 L 506.4000322938912 186.55940369796707 L 504.93108182341933 185.57788237343632 L 503.54366891257087 184.4841342260007 L 502.24634742330267 183.28490257669733 L 501.0471157739993 181.98758108742913 L 499.9533676265637 180.60016817658064 L 498.97184630203293 179.13121770610886 L 498.1086032057617 177.58978624413982 L 497.36896051849607 175.98537722821453 L 496.75747838335906 174.32788237343632 L 496.27792679105227 172.62752068675786 L 495.9332623366094 170.8947754634052 L 495.7256099910046 169.1403296538765 L 495.65625 167.375 L 495.7256099910046 165.6096703461235 L 495.9332623366094 163.85522453659482 L 496.27792679105227 162.12247931324214 L 496.75747838335906 160.42211762656368 L 497.36896051849607 158.76462277178547 L 498.1086032057617 157.1602137558602 L 498.97184630203293 155.61878229389114 L 499.9533676265637 154.14983182341936 L 501.0471157739993 152.76241891257087 L 502.24634742330267 151.4650974233027 L 503.54366891257087 150.2658657739993 L 504.93108182341933 149.17211762656368 L 506.4000322938912 148.19059630203293 L 507.94146375586024 147.3273532057617 L 509.5458727717855 146.58771051849604 L 511.2033676265637 145.97622838335903 L 512.9037293132421 145.49667679105227 L 514.6364745365948 145.1520123366094 L 516.3909203461236 144.9443599910046 L 518.1562500000001 144.875 L 519.9215796538766 144.94435999100463 L 521.6760254634053 145.1520123366094 L 523.408770686758 145.4966767910523 L 525.1091323734364 145.97622838335909 L 526.7666272282146 146.5877105184961 L 528.3710362441399 147.3273532057618 L 529.9124677061089 148.190596302033 L 531.3814181765807 149.17211762656376 L 532.7688310874292 150.26586577399942 L 534.0661525766974 151.4650974233028 L 535.2653842260008 152.762418912571 L 536.3591323734364 154.1498318234195 L 537.3406536979671 155.61878229389131 L 538.2038967942384 157.16021375586038 L 538.943539481504 158.7646227717857 L 539.555021616641 160.4221176265639 L 540.0345732089478 162.12247931324237 L 540.3792376633907 163.85522453659505 L 540.5868900089954 165.60967034612375 Z" fill-opacity="1" stroke-opacity="1" stroke-miterlimit="10" stroke-width="6"/><text fill="rgb(255,255,255)" stroke="none" font-family="times new roman" font-size="15px" font-style="normal" font-weight="normal" text-decoration="normal" x="518.15625" y="174.875" text-anchor="middle" dominant-baseline="text-after-edge" fill-opacity="1">*39</text><path fill="rgb(69,90,100)" stroke="rgb(69,90,100)" paint-order="fill stroke markers" d=" M 557.71875 510.625 L 538.96875 528.125 L 557.71875 545.625 L 595.21875 545.625 L 613.96875 528.125 L 595.21875 510.625 Z" fill-opacity="1" stroke-opacity="1" stroke-miterlimit="10" stroke-width="2"/><text fill="rgb(255,255,255)" stroke="none" font-family="times new roman" font-size="10px" font-style="normal" font-weight="normal" text-decoration="normal" x="576.46875" y="533.125" text-anchor="middle" dominant-baseline="text-after-edge" fill-opacity="1">HG00423-B</text><path fill="rgb(69,90,100)" stroke="rgb(76,175,80)" paint-order="fill stroke markers" d=" M 642.21875 242.125 L 642.21875 262.125 L 737.21875 262.125 L 737.21875 242.125 Z" fill-opacity="1" stroke-opacity="1" stroke-miterlimit="10" stroke-width="6"/><text fill="rgb(255,255,255)" stroke="none" font-family="times new roman" font-size="10px" font-style="normal" font-weight="normal" text-decoration="normal" x="689.71875" y="257.125" text-anchor="middle" dominant-baseline="text-after-edge" fill-opacity="1">42130482C&gt;A</text><path fill="rgb(69,90,100)" stroke="rgb(255,193,7)" paint-order="fill stroke markers" d=" M 326.28125 157.375 L 326.28125 177.375 L 421.28125 177.375 L 421.28125 157.375 Z" fill-opacity="1" stroke-opacity="1" stroke-miterlimit="10" stroke-width="6"/><text fill="rgb(255,255,255)" stroke="none" font-family="times new roman" font-size="10px" font-style="normal" font-weight="normal" text-decoration="normal" x="373.78125" y="172.375" text-anchor="middle" dominant-baseline="text-after-edge" fill-opacity="1">42130692G&gt;A</text><path fill="rgb(69,90,100)" stroke="rgb(76,175,80)" paint-order="fill stroke markers" d=" M 180.15625 252.125 L 180.10230334032974 253.49803417523728 L 179.9407959604149 254.86260313820404 L 179.67272360695935 256.21029386747836 L 179.29973903516517 257.5327974015616 L 178.8241418189475 258.82196006638907 L 178.24886417329643 260.06983374544205 L 177.57745287619662 261.2687248825291 L 176.8140474015616 262.4112419151183 L 175.96335439800055 263.49034084577823 L 175.03061867076457 264.49936867076457 L 174.0215908457782 265.43210439800055 L 172.94249191511827 266.2827974015616 L 171.7999748825291 267.0462028761966 L 170.60108374544208 267.71761417329645 L 169.35321006638907 268.2928918189475 L 168.0640474015616 268.7684890351652 L 166.74154386747836 269.1414736069593 L 165.39385313820404 269.4095459604149 L 164.02928417523728 269.57105334032974 L 162.65625 269.625 L 161.28321582476272 269.57105334032974 L 159.91864686179596 269.4095459604149 L 158.57095613252164 269.1414736069593 L 157.24845259843843 268.7684890351652 L 155.95928993361093 268.2928918189475 L 154.71141625455795 267.71761417329645 L 153.5125251174709 267.0462028761966 L 152.37000808488173 266.2827974015616 L 151.2909091542218 265.43210439800055 L 150.28188132923543 264.49936867076457 L 149.34914560199945 263.49034084577823 L 148.49845259843843 262.4112419151183 L 147.73504712380338 261.2687248825291 L 147.06363582670357 260.06983374544205 L 146.4883581810525 258.82196006638907 L 146.01276096483483 257.5327974015616 L 145.63977639304065 256.21029386747836 L 145.3717040395851 254.86260313820404 L 145.21019665967026 253.49803417523728 L 145.15625 252.125 L 145.21019665967026 250.75196582476272 L 145.3717040395851 249.38739686179596 L 145.63977639304065 248.03970613252164 L 146.0127609648348 246.71720259843843 L 146.4883581810525 245.42803993361093 L 147.06363582670357 244.18016625455795 L 147.73504712380338 242.9812751174709 L 148.4984525984384 241.83875808488173 L 149.34914560199945 240.7596591542218 L 150.2818813292354 239.75063132923543 L 151.29090915422177 238.81789560199945 L 152.3700080848817 237.96720259843843 L 153.5125251174709 237.20379712380338 L 154.71141625455795 236.53238582670355 L 155.95928993361096 235.9571081810525 L 157.24845259843843 235.4815109648348 L 158.5709561325217 235.10852639304065 L 159.918646861796 234.8404540395851 L 161.28321582476278 234.67894665967026 L 162.65625000000006 234.625 L 164.02928417523736 234.67894665967026 L 165.39385313820412 234.8404540395851 L 166.7415438674784 235.10852639304068 L 168.06404740156165 235.48151096483485 L 169.35321006638915 235.95710818105252 L 170.60108374544217 236.5323858267036 L 171.7999748825292 237.20379712380344 L 172.94249191511838 237.9672025984385 L 174.02159084577832 238.81789560199954 L 175.03061867076468 239.75063132923552 L 175.96335439800063 240.7596591542219 L 176.81404740156168 241.83875808488185 L 177.5774528761967 242.98127511747103 L 178.2488641732965 244.1801662545581 L 178.8241418189476 245.4280399336111 L 179.29973903516523 246.7172025984386 L 179.67272360695938 248.03970613252184 L 179.94079596041493 249.38739686179616 L 180.10230334032974 250.75196582476292 Z" fill-opacity="1" stroke-opacity="1" stroke-miterlimit="10" stroke-width="6"/><text fill="rgb(255,255,255)" stroke="none" font-family="times new roman" font-size="10px" font-style="normal" font-weight="normal" text-decoration="normal" x="162.65625" y="257.125" text-anchor="middle" dominant-baseline="text-after-edge" fill-opacity="1">*1.41</text><path fill="rgb(69,90,100)" stroke="rgb(76,175,80)" paint-order="fill stroke markers" d=" M 764.59375 396.5 L 764.5398033403297 397.8730341752373 L 764.3782959604149 399.23760313820407 L 764.1102236069594 400.58529386747836 L 763.7372390351652 401.9077974015616 L 763.2616418189475 403.19696006638907 L 762.6863641732964 404.44483374544205 L 762.0149528761966 405.6437248825291 L 761.2515474015615 406.7862419151183 L 760.4008543980005 407.86534084577823 L 759.4681186707646 408.87436867076457 L 758.4590908457782 409.80710439800055 L 757.3799919151182 410.6577974015616 L 756.2374748825291 411.4212028761966 L 755.0385837454421 412.09261417329645 L 753.7907100663891 412.6678918189475 L 752.5015474015615 413.1434890351652 L 751.1790438674783 413.5164736069593 L 749.831353138204 413.7845459604149 L 748.4667841752373 413.94605334032974 L 747.09375 414 L 745.7207158247627 413.94605334032974 L 744.356146861796 413.7845459604149 L 743.0084561325217 413.5164736069593 L 741.6859525984385 413.1434890351652 L 740.3967899336109 412.6678918189475 L 739.1489162545579 412.09261417329645 L 737.9500251174709 411.4212028761966 L 736.8075080848818 410.6577974015616 L 735.7284091542218 409.80710439800055 L 734.7193813292354 408.87436867076457 L 733.7866456019995 407.86534084577823 L 732.9359525984385 406.7862419151183 L 732.1725471238034 405.6437248825291 L 731.5011358267036 404.44483374544205 L 730.9258581810525 403.19696006638907 L 730.4502609648348 401.9077974015616 L 730.0772763930406 400.58529386747836 L 729.8092040395851 399.23760313820407 L 729.6476966596703 397.8730341752373 L 729.59375 396.5 L 729.6476966596703 395.1269658247627 L 729.8092040395851 393.76239686179593 L 730.0772763930406 392.41470613252164 L 730.4502609648348 391.0922025984384 L 730.9258581810525 389.80303993361093 L 731.5011358267036 388.55516625455795 L 732.1725471238034 387.3562751174709 L 732.9359525984385 386.2137580848817 L 733.7866456019995 385.13465915422177 L 734.7193813292354 384.12563132923543 L 735.7284091542218 383.19289560199945 L 736.8075080848818 382.3422025984384 L 737.9500251174709 381.5787971238034 L 739.1489162545579 380.90738582670355 L 740.396789933611 380.3321081810525 L 741.6859525984385 379.8565109648348 L 743.0084561325217 379.4835263930407 L 744.356146861796 379.2154540395851 L 745.7207158247628 379.05394665967026 L 747.0937500000001 379 L 748.4667841752373 379.05394665967026 L 749.8313531382041 379.2154540395851 L 751.1790438674784 379.4835263930407 L 752.5015474015617 379.85651096483485 L 753.7907100663891 380.3321081810525 L 755.0385837454421 380.9073858267036 L 756.2374748825292 381.57879712380344 L 757.3799919151184 382.3422025984385 L 758.4590908457783 383.19289560199957 L 759.4681186707646 384.1256313292355 L 760.4008543980007 385.1346591542219 L 761.2515474015617 386.2137580848818 L 762.0149528761967 387.35627511747106 L 762.6863641732965 388.55516625455806 L 763.2616418189476 389.8030399336111 L 763.7372390351652 391.0922025984386 L 764.1102236069594 392.4147061325218 L 764.3782959604149 393.76239686179616 L 764.5398033403297 395.1269658247629 Z" fill-opacity="1" stroke-opacity="1" stroke-miterlimit="10" stroke-width="6"/><text fill="rgb(255,255,255)" stroke="none" font-family="times new roman" font-size="10px" font-style="normal" font-weight="normal" text-decoration="normal" x="747.09375" y="401.5" text-anchor="middle" dominant-baseline="text-after-edge" fill-opacity="1">*1.58</text><path fill="rgb(176,190,197)" stroke="none" paint-order="stroke fill markers" d=" M 792.09375 291.5 L 792.09375 501.5 L 867.09375 501.5 L 867.09375 291.50000000000006 Z" fill-opacity="0.8"/><text fill="rgb(0,0,0)" stroke="none" font-family="times new roman" font-size="10px" font-style="normal" font-weight="normal" text-decoration="normal" x="797.09375" y="306.5" text-anchor="start" dominant-baseline="text-after-edge" fill-opacity="0.8">42126390G&gt;A </text><text fill="rgb(0,0,0)" stroke="none" font-family="times new roman" font-size="10px" font-style="normal" font-weight="normal" text-decoration="normal" x="797.09375" y="316.5" text-anchor="start" dominant-baseline="text-after-edge" fill-opacity="0.8">42127209T&gt;C </text><text fill="rgb(0,0,0)" stroke="none" font-family="times new roman" font-size="10px" font-style="normal" font-weight="normal" text-decoration="normal" x="797.09375" y="326.5" text-anchor="start" dominant-baseline="text-after-edge" fill-opacity="0.8">42128694T&gt;C </text><text fill="rgb(0,0,0)" stroke="none" font-family="times new roman" font-size="10px" font-style="normal" font-weight="normal" text-decoration="normal" x="797.09375" y="336.5" text-anchor="start" dominant-baseline="text-after-edge" fill-opacity="0.8">42129754G&gt;A </text><text fill="rgb(0,0,0)" stroke="none" font-family="times new roman" font-size="10px" font-style="normal" font-weight="normal" text-decoration="normal" x="797.09375" y="346.5" text-anchor="start" dominant-baseline="text-after-edge" fill-opacity="0.8">42129796G&gt;C </text><text fill="rgb(0,0,0)" stroke="none" font-family="times new roman" font-size="10px" font-style="normal" font-weight="normal" text-decoration="normal" x="797.09375" y="356.5" text-anchor="start" dominant-baseline="text-after-edge" fill-opacity="0.8">42131791C&gt;T </text><text fill="rgb(0,0,0)" stroke="none" font-family="times new roman" font-size="10px" font-style="normal" font-weight="normal" text-decoration="normal" x="797.09375" y="366.5" text-anchor="start" dominant-baseline="text-after-edge" fill-opacity="0.8">42132217G&gt;A </text><path fill="rgb(176,190,197)" stroke="none" paint-order="stroke fill markers" d=" M 576.46875 291.5 L 643.46875 291.5 L 643.46875 291.5 A 8 8 0 0 1 651.46875 299.5 L 651.46875 493.5 L 651.46875 493.5 A 8 8 0 0 1 643.46875 501.5 L 509.46875 501.5 L 509.46875 501.5 A 8 8 0 0 1 501.46875 493.5 L 501.46875 299.5 L 501.46875 299.5 A 8 8 0 0 1 509.46875 291.5 L 576.46875 291.5 Z" fill-opacity="0.8"/><text fill="rgb(0,0,0)" stroke="none" font-family="times new roman" font-size="10px" font-style="normal" font-weight="normal" text-decoration="normal" x="506.46875" y="306.5" text-anchor="start" dominant-baseline="text-after-edge" fill-opacity="0.8">42125924A&gt;G </text><text fill="rgb(0,0,0)" stroke="none" font-family="times new roman" font-size="10px" font-style="normal" font-weight="normal" text-decoration="normal" x="506.46875" y="316.5" text-anchor="start" dominant-baseline="text-after-edge" fill-opacity="0.8">42125980T&gt;C </text><text fill="rgb(0,0,0)" stroke="none" font-family="times new roman" font-size="10px" font-style="normal" font-weight="normal" text-decoration="normal" x="506.46875" y="326.5" text-anchor="start" dominant-baseline="text-after-edge" fill-opacity="0.8">42126069A&gt;C </text><text fill="rgb(0,0,0)" stroke="none" font-family="times new roman" font-size="10px" font-style="normal" font-weight="normal" text-decoration="normal" x="506.46875" y="336.5" text-anchor="start" dominant-baseline="text-after-edge" fill-opacity="0.8">42132027C&gt;T </text><text fill="rgb(0,0,0)" stroke="none" font-family="times new roman" font-size="10px" font-style="normal" font-weight="normal" text-decoration="normal" x="506.46875" y="346.5" text-anchor="start" dominant-baseline="text-after-edge" fill-opacity="0.8">42132844C&gt;A </text><text fill="rgb(0,0,0)" stroke="none" font-family="times new roman" font-size="10px" font-style="normal" font-weight="normal" text-decoration="normal" x="506.46875" y="356.5" text-anchor="start" dominant-baseline="text-after-edge" fill-opacity="0.8">42132851T&gt;C </text><text fill="rgb(0,0,0)" stroke="none" font-family="times new roman" font-size="10px" font-style="normal" font-weight="normal" text-decoration="normal" x="506.46875" y="366.5" text-anchor="start" dominant-baseline="text-after-edge" fill-opacity="0.8">42132969C&gt;T </text><text fill="rgb(0,0,0)" stroke="none" font-family="times new roman" font-size="10px" font-style="normal" font-weight="normal" text-decoration="normal" x="506.46875" y="376.5" text-anchor="start" dominant-baseline="text-after-edge" fill-opacity="0.8">42133212A&gt;G </text><text fill="rgb(0,0,0)" stroke="none" font-family="times new roman" font-size="10px" font-style="normal" font-weight="normal" text-decoration="normal" x="506.46875" y="386.5" text-anchor="start" dominant-baseline="text-after-edge" fill-opacity="0.8">42133314C&gt;T </text><text fill="rgb(0,0,0)" stroke="none" font-family="times new roman" font-size="10px" font-style="normal" font-weight="normal" text-decoration="normal" x="506.46875" y="396.5" text-anchor="start" dominant-baseline="text-after-edge" fill-opacity="0.8">42133400T&gt;G </text><text fill="rgb(0,0,0)" stroke="none" font-family="times new roman" font-size="10px" font-style="normal" font-weight="normal" text-decoration="normal" x="506.46875" y="406.5" text-anchor="start" dominant-baseline="text-after-edge" fill-opacity="0.8">42133923G&gt;T </text><text fill="rgb(0,0,0)" stroke="none" font-family="times new roman" font-size="10px" font-style="normal" font-weight="normal" text-decoration="normal" x="506.46875" y="416.5" text-anchor="start" dominant-baseline="text-after-edge" fill-opacity="0.8">42134096del </text><text fill="rgb(0,0,0)" stroke="none" font-family="times new roman" font-size="10px" font-style="normal" font-weight="normal" text-decoration="normal" x="506.46875" y="426.5" text-anchor="start" dominant-baseline="text-after-edge" fill-opacity="0.8">42134820T&gt;G </text><text fill="rgb(0,0,0)" stroke="none" font-family="times new roman" font-size="10px" font-style="normal" font-weight="normal" text-decoration="normal" x="506.46875" y="436.5" text-anchor="start" dominant-baseline="text-after-edge" fill-opacity="0.8">42135064_42135066dup </text><text fill="rgb(0,0,0)" stroke="none" font-family="times new roman" font-size="10px" font-style="normal" font-weight="normal" text-decoration="normal" x="506.46875" y="446.5" text-anchor="start" dominant-baseline="text-after-edge" fill-opacity="0.8">42135201T&gt;C </text><g transform="scale(0.8672445255474452,0.8672445255474452) translate(56.0754865860074,53.45397159389796)"/></g></svg>