<svg version="1.1" xmlns="http://www.w3.org/2000/svg" xmlns:xlink="http://www.w3.org/1999/xlink" width="1017" height="608"><defs/><g transform="translate(-113.34190330007675,64.5663852647736) scale(0.9792785878741366,0.9792785878741366)"><path fill="none" stroke="rgb(120,144,156)" paint-order="fill stroke markers" d=" M 201.6667768064626 163.82001199271423 L 234.0820851604063 262.1555272513167" stroke-opacity="1" stroke-linejoin="round" stroke-miterlimit="10"/><path fill="rgb(120,144,156)" stroke="none" paint-order="stroke fill markers" d=" M 227.85319560518437 257.1541839408803 L 234.7082231935374 264.0549880072858 L 236.11584989364997 254.43048349676005 Z" fill-opacity="1"/><path fill="none" stroke="rgb(55,71,79)" paint-order="fill stroke markers" d=" M 195.875 86.75 L 195.875 127.75" stroke-opacity="1" stroke-linejoin="round" stroke-miterlimit="10" stroke-width="2"/><path fill="none" stroke="rgb(120,144,156)" paint-order="fill stroke markers" d=" M 743.9636426592798 157.25 L 792.8929690046548 263.0193820998826" stroke-opacity="1" stroke-linejoin="round" stroke-miterlimit="10"/><path fill="rgb(120,144,156)" stroke="none" paint-order="stroke fill markers" d=" M 786.1319180029806 258.7648916071492 L 793.7326793456641 264.8345643340404 L 794.027960721567 255.11215162375882 Z" fill-opacity="1"/><path fill="none" stroke="rgb(120,144,156)" paint-order="fill stroke markers" d=" M 967.4636426592798 157.25 L 975.5868824567746 174.8098177658422" stroke-opacity="1" stroke-linejoin="round" stroke-miterlimit="10"/><path fill="rgb(120,144,156)" stroke="none" paint-order="stroke fill markers" d=" M 968.8258314551003 170.5553272731088 L 976.4265927977839 176.625 L 976.7218741736867 166.9025872897184 Z" fill-opacity="1"/><path fill="none" stroke="rgb(120,144,156)" paint-order="fill stroke markers" d=" M 846.6333102493074 157.25 L 808.492873105581 262.35456342660495" stroke-opacity="1" stroke-linejoin="round" stroke-miterlimit="10"/><path fill="rgb(120,144,156)" stroke="none" paint-order="stroke fill markers" d=" M 806.6892560671968 254.57256718021355 L 807.8106415830853 264.2346060191313 L 814.8674413446864 257.5402743030699 Z" fill-opacity="1"/><path fill="none" stroke="rgb(55,71,79)" paint-order="fill stroke markers" d=" M 341.81100279780276 91.19329456441062 L 365.18602347306137 126.63284203980272" stroke-opacity="1" stroke-linejoin="round" stroke-miterlimit="10" stroke-width="2"/><path fill="none" stroke="rgb(55,71,79)" paint-order="fill stroke markers" d=" M 541.4627659574468 86.75 L 566.5563019975086 126.39356954228255" stroke-opacity="1" stroke-linejoin="round" stroke-miterlimit="10" stroke-width="2"/><path fill="none" stroke="rgb(120,144,156)" paint-order="fill stroke markers" d=" M 281.49896121883654 157.25 L 246.9179148395937 262.1555272513167" stroke-opacity="1" stroke-linejoin="round" stroke-miterlimit="10"/><path fill="rgb(120,144,156)" stroke="none" paint-order="stroke fill markers" d=" M 244.88415010635003 254.43048349676005 L 246.2917768064626 264.0549880072858 L 253.14680439481563 257.1541839408803 Z" fill-opacity="1"/><path fill="none" stroke="rgb(120,144,156)" paint-order="fill stroke markers" d=" M 397.61642393166335 159.37761947636284 L 557.9747314784079 267.3801363128829" stroke-opacity="1" stroke-linejoin="round" stroke-miterlimit="10"/><path fill="rgb(120,144,156)" stroke="none" paint-order="stroke fill markers" d=" M 549.9875959437558 267.24535518995117 L 559.6335760683367 268.49738052363716 L 554.847608260537 260.0293812237609 Z" fill-opacity="1"/><path fill="none" stroke="rgb(120,144,156)" paint-order="fill stroke markers" d=" M 1070.1333102493074 157.25 L 1063.7847245972878 174.74495740747366" stroke-opacity="1" stroke-linejoin="round" stroke-miterlimit="10"/><path fill="rgb(120,144,156)" stroke="none" paint-order="stroke fill markers" d=" M 1061.9811075589037 166.96296116108223 L 1063.1024930747922 176.625 L 1070.1592928363932 169.93066828393845 Z" fill-opacity="1"/><path fill="none" stroke="rgb(55,71,79)" paint-order="fill stroke markers" d=" M 613.8554930618685 91.38165801990523 L 591.6936980024914 126.39356954228255" stroke-opacity="1" stroke-linejoin="round" stroke-miterlimit="10" stroke-width="2"/><path fill="none" stroke="rgb(120,144,156)" paint-order="fill stroke markers" d=" M 258.19286263533405 287.0298692645799 L 640.248395010829 403.74135043411746" stroke-opacity="1" stroke-linejoin="round" stroke-miterlimit="10"/><path fill="rgb(120,144,156)" stroke="none" paint-order="stroke fill markers" d=" M 632.5698349590635 405.9441249417401 L 642.1611369173515 404.32566062488286 L 635.1115842888929 397.6236976483668 Z" fill-opacity="1"/><path fill="none" stroke="rgb(120,144,156)" paint-order="fill stroke markers" d=" M 592.6124018375677 300.8692196950662 L 657.261324048012 393.112194068505" stroke-opacity="1" stroke-linejoin="round" stroke-miterlimit="10"/><path fill="rgb(120,144,156)" stroke="none" paint-order="stroke fill markers" d=" M 649.8537517933208 390.1221483679295 L 658.409188034188 394.75 L 656.9782075953241 385.128940028064 Z" fill-opacity="1"/><path fill="none" stroke="rgb(120,144,156)" paint-order="fill stroke markers" d=" M 579.125 169.75 L 579.125 256.125" stroke-opacity="1" stroke-linejoin="round" stroke-miterlimit="10"/><path fill="rgb(120,144,156)" stroke="none" paint-order="stroke fill markers" d=" M 574.775 249.425 L 579.125 258.125 L 583.475 249.425 Z" fill-opacity="1"/><path fill="none" stroke="rgb(120,144,156)" paint-order="fill stroke markers" d=" M 671.375 386.625 L 671.375 392.75" stroke-opacity="1" stroke-linejoin="round" stroke-miterlimit="10"/><path fill="rgb(120,144,156)" stroke="none" paint-order="stroke fill markers" d=" M 667.025 386.05 L 671.375 394.75 L 675.725 386.05 Z" fill-opacity="1"/><path fill="none" stroke="rgb(55,71,79)" paint-order="fill stroke markers" d=" M 641.079958126426 162.65829849127772 L 589.9795126502156 260.7820262408094" stroke-opacity="1" stroke-linejoin="round" stroke-miterlimit="10" stroke-width="2"/><path fill="none" stroke="rgb(120,144,156)" paint-order="fill stroke markers" d=" M 788.4937035879971 294.78122490090215 L 691.0702598877687 393.3277054161187" stroke-opacity="1" stroke-linejoin="round" stroke-miterlimit="10"/><path fill="rgb(120,144,156)" stroke="none" paint-order="stroke fill markers" d=" M 692.6871575981198 385.50478129567233 L 689.6641737891738 394.75 L 698.8741390380036 391.62125582456025 Z" fill-opacity="1"/><path fill="none" stroke="rgb(55,71,79)" paint-order="fill stroke markers" d=" M 415.7872340425532 86.75 L 390.6936980024914 126.39356954228255" stroke-opacity="1" stroke-linejoin="round" stroke-miterlimit="10" stroke-width="2"/><path fill="none" stroke="rgb(120,144,156)" paint-order="fill stroke markers" d=" M 950 309.54122481442204 L 701.0009924828548 402.2227217799767" stroke-opacity="1" stroke-linejoin="round" stroke-miterlimit="10"/><path fill="rgb(120,144,156)" stroke="none" paint-order="stroke fill markers" d=" M 705.7626925892355 395.8087750935056 L 699.1266243324485 402.9203922155998 L 708.7975589841961 403.9622765477729 Z" fill-opacity="1"/><path fill="rgb(69,90,100)" stroke="rgb(69,90,100)" paint-order="fill stroke markers" d=" M 652.625 395.75 L 633.875 413.25 L 652.625 430.75 L 690.125 430.75 L 708.875 413.25 L 690.125 395.75 Z" fill-opacity="1" stroke-opacity="1" stroke-miterlimit="10" stroke-width="2"/><text fill="rgb(255,255,255)" stroke="none" font-family="times new roman" font-size="10px" font-style="normal" font-weight="normal" text-decoration="normal" x="671.375" y="418.25" text-anchor="middle" dominant-baseline="text-after-edge" fill-opacity="1">HG00436-B</text><path fill="rgb(69,90,100)" stroke="rgb(76,175,80)" paint-order="fill stroke markers" d=" M 667.125 146.25 L 667.0710533403297 147.62303417523728 L 666.9095459604149 148.98760313820404 L 666.6414736069594 150.33529386747836 L 666.2684890351652 151.65779740156157 L 665.7928918189475 152.94696006638907 L 665.2176141732964 154.19483374544205 L 664.5462028761966 155.3937248825291 L 663.7827974015615 156.53624191511827 L 662.9321043980005 157.6153408457782 L 661.9993686707646 158.62436867076457 L 660.9903408457782 159.55710439800055 L 659.9112419151182 160.4077974015616 L 658.7687248825291 161.17120287619662 L 657.5698337454421 161.84261417329643 L 656.3219600663891 162.4178918189475 L 655.0327974015615 162.89348903516517 L 653.7102938674783 163.26647360695935 L 652.362603138204 163.5345459604149 L 650.9980341752373 163.69605334032974 L 649.625 163.75 L 648.2519658247627 163.69605334032974 L 646.887396861796 163.5345459604149 L 645.5397061325217 163.26647360695935 L 644.2172025984385 162.8934890351652 L 642.9280399336109 162.4178918189475 L 641.6801662545579 161.84261417329643 L 640.4812751174709 161.17120287619662 L 639.3387580848818 160.4077974015616 L 638.2596591542218 159.55710439800055 L 637.2506313292354 158.62436867076457 L 636.3178956019995 157.6153408457782 L 635.4672025984385 156.5362419151183 L 634.7037971238034 155.3937248825291 L 634.0323858267036 154.19483374544208 L 633.4571081810525 152.94696006638907 L 632.9815109648348 151.6577974015616 L 632.6085263930406 150.33529386747836 L 632.3404540395851 148.98760313820404 L 632.1789466596703 147.62303417523728 L 632.125 146.25 L 632.1789466596703 144.87696582476272 L 632.3404540395851 143.51239686179596 L 632.6085263930406 142.16470613252164 L 632.9815109648348 140.84220259843843 L 633.4571081810525 139.55303993361093 L 634.0323858267036 138.30516625455795 L 634.7037971238034 137.1062751174709 L 635.4672025984385 135.96375808488173 L 636.3178956019995 134.8846591542218 L 637.2506313292354 133.87563132923543 L 638.2596591542218 132.94289560199945 L 639.3387580848818 132.09220259843843 L 640.4812751174709 131.32879712380338 L 641.6801662545579 130.65738582670355 L 642.928039933611 130.0821081810525 L 644.2172025984385 129.6065109648348 L 645.5397061325217 129.23352639304065 L 646.887396861796 128.9654540395851 L 648.2519658247628 128.80394665967026 L 649.6250000000001 128.75 L 650.9980341752373 128.80394665967026 L 652.3626031382041 128.9654540395851 L 653.7102938674784 129.23352639304068 L 655.0327974015617 129.60651096483485 L 656.3219600663891 130.08210818105252 L 657.5698337454421 130.6573858267036 L 658.7687248825292 131.32879712380344 L 659.9112419151184 132.0922025984385 L 660.9903408457783 132.94289560199954 L 661.9993686707646 133.87563132923552 L 662.9321043980007 134.8846591542219 L 663.7827974015617 135.96375808488185 L 664.5462028761967 137.10627511747103 L 665.2176141732965 138.3051662545581 L 665.7928918189476 139.5530399336111 L 666.2684890351652 140.8422025984386 L 666.6414736069594 142.16470613252184 L 666.9095459604149 143.51239686179616 L 667.0710533403297 144.87696582476292 Z" fill-opacity="1" stroke-opacity="1" stroke-miterlimit="10" stroke-width="2"/><text fill="rgb(255,255,255)" stroke="none" font-family="times new roman" font-size="10px" font-style="normal" font-weight="normal" text-decoration="normal" x="649.625" y="151.25" text-anchor="middle" dominant-baseline="text-after-edge" fill-opacity="1">*2.4</text><path fill="rgb(69,90,100)" stroke="rgb(76,175,80)" paint-order="fill stroke markers" d=" M 258 281.625 L 257.94605334032974 282.9980341752373 L 257.7845459604149 284.36260313820407 L 257.5164736069593 285.71029386747836 L 257.1434890351652 287.0327974015616 L 256.6678918189475 288.32196006638907 L 256.09261417329645 289.56983374544205 L 255.42120287619662 290.7687248825291 L 254.6577974015616 291.9112419151183 L 253.80710439800055 292.99034084577823 L 252.87436867076457 293.99936867076457 L 251.8653408457782 294.93210439800055 L 250.78624191511827 295.7827974015616 L 249.6437248825291 296.5462028761966 L 248.44483374544208 297.21761417329645 L 247.19696006638907 297.7928918189475 L 245.9077974015616 298.2684890351652 L 244.58529386747836 298.6414736069593 L 243.23760313820404 298.9095459604149 L 241.87303417523728 299.07105334032974 L 240.5 299.125 L 239.12696582476272 299.07105334032974 L 237.76239686179596 298.9095459604149 L 236.41470613252164 298.6414736069593 L 235.09220259843843 298.2684890351652 L 233.80303993361093 297.7928918189475 L 232.55516625455795 297.21761417329645 L 231.3562751174709 296.5462028761966 L 230.21375808488173 295.7827974015616 L 229.1346591542218 294.93210439800055 L 228.12563132923543 293.99936867076457 L 227.19289560199945 292.99034084577823 L 226.34220259843843 291.9112419151183 L 225.57879712380338 290.7687248825291 L 224.90738582670357 289.56983374544205 L 224.3321081810525 288.32196006638907 L 223.85651096483483 287.0327974015616 L 223.48352639304065 285.71029386747836 L 223.2154540395851 284.36260313820407 L 223.05394665967026 282.9980341752373 L 223 281.625 L 223.05394665967026 280.2519658247627 L 223.2154540395851 278.88739686179593 L 223.48352639304065 277.53970613252164 L 223.8565109648348 276.2172025984384 L 224.3321081810525 274.92803993361093 L 224.90738582670357 273.68016625455795 L 225.57879712380338 272.4812751174709 L 226.3422025984384 271.3387580848817 L 227.19289560199945 270.25965915422177 L 228.1256313292354 269.25063132923543 L 229.13465915422177 268.31789560199945 L 230.2137580848817 267.4672025984384 L 231.3562751174709 266.7037971238034 L 232.55516625455795 266.03238582670355 L 233.80303993361096 265.4571081810525 L 235.09220259843843 264.9815109648348 L 236.4147061325217 264.6085263930407 L 237.762396861796 264.3404540395851 L 239.12696582476278 264.17894665967026 L 240.50000000000006 264.125 L 241.87303417523736 264.17894665967026 L 243.23760313820412 264.3404540395851 L 244.5852938674784 264.6085263930407 L 245.90779740156165 264.98151096483485 L 247.19696006638915 265.4571081810525 L 248.44483374544217 266.0323858267036 L 249.6437248825292 266.70379712380344 L 250.78624191511838 267.4672025984385 L 251.86534084577832 268.31789560199957 L 252.87436867076468 269.2506313292355 L 253.80710439800063 270.2596591542219 L 254.65779740156168 271.3387580848818 L 255.4212028761967 272.48127511747106 L 256.0926141732965 273.68016625455806 L 256.66789181894757 274.9280399336111 L 257.14348903516526 276.2172025984386 L 257.5164736069594 277.5397061325218 L 257.78454596041496 278.88739686179616 L 257.94605334032974 280.2519658247629 Z" fill-opacity="1" stroke-opacity="1" stroke-miterlimit="10" stroke-width="2"/><text fill="rgb(255,255,255)" stroke="none" font-family="times new roman" font-size="10px" font-style="normal" font-weight="normal" text-decoration="normal" x="240.5" y="286.625" text-anchor="middle" dominant-baseline="text-after-edge" fill-opacity="1">*1.54</text><path fill="rgb(69,90,100)" stroke="rgb(76,175,80)" paint-order="fill stroke markers" d=" M 641.25 75.75 L 641.1960533403297 77.12303417523728 L 641.0345459604149 78.48760313820404 L 640.7664736069594 79.83529386747834 L 640.3934890351652 81.15779740156158 L 639.9178918189475 82.44696006638907 L 639.3426141732964 83.69483374544207 L 638.6712028761966 84.8937248825291 L 637.9077974015615 86.03624191511828 L 637.0571043980005 87.1153408457782 L 636.1243686707646 88.12436867076458 L 635.1153408457782 89.05710439800055 L 634.0362419151182 89.90779740156158 L 632.8937248825291 90.67120287619662 L 631.6948337454421 91.34261417329644 L 630.4469600663891 91.91789181894751 L 629.1577974015615 92.39348903516519 L 627.8352938674783 92.76647360695934 L 626.487603138204 93.0345459604149 L 625.1230341752373 93.19605334032974 L 623.75 93.25 L 622.3769658247627 93.19605334032974 L 621.012396861796 93.0345459604149 L 619.6647061325217 92.76647360695934 L 618.3422025984385 92.39348903516519 L 617.0530399336109 91.91789181894751 L 615.8051662545579 91.34261417329644 L 614.6062751174709 90.67120287619662 L 613.4637580848818 89.90779740156158 L 612.3846591542218 89.05710439800055 L 611.3756313292354 88.12436867076458 L 610.4428956019995 87.11534084577822 L 609.5922025984385 86.03624191511828 L 608.8287971238034 84.89372488252911 L 608.1573858267036 83.69483374544207 L 607.5821081810525 82.44696006638907 L 607.1065109648348 81.15779740156158 L 606.7335263930406 79.83529386747834 L 606.4654540395851 78.48760313820404 L 606.3039466596703 77.1230341752373 L 606.25 75.75 L 606.3039466596703 74.37696582476272 L 606.4654540395851 73.01239686179596 L 606.7335263930406 71.66470613252166 L 607.1065109648348 70.34220259843842 L 607.5821081810525 69.05303993361093 L 608.1573858267036 67.80516625455793 L 608.8287971238034 66.6062751174709 L 609.5922025984385 65.46375808488172 L 610.4428956019995 64.3846591542218 L 611.3756313292354 63.37563132923542 L 612.3846591542218 62.44289560199947 L 613.4637580848818 61.59220259843842 L 614.6062751174709 60.82879712380338 L 615.8051662545579 60.15738582670356 L 617.053039933611 59.582108181052476 L 618.3422025984385 59.106510964834804 L 619.6647061325217 58.73352639304065 L 621.012396861796 58.46545403958508 L 622.3769658247628 58.30394665967026 L 623.7500000000001 58.25 L 625.1230341752373 58.30394665967027 L 626.4876031382041 58.4654540395851 L 627.8352938674784 58.73352639304068 L 629.1577974015617 59.10651096483484 L 630.4469600663891 59.58210818105252 L 631.6948337454421 60.15738582670361 L 632.8937248825292 60.82879712380345 L 634.0362419151184 61.59220259843849 L 635.1153408457783 62.44289560199954 L 636.1243686707646 63.37563132923552 L 637.0571043980007 64.3846591542219 L 637.9077974015617 65.46375808488185 L 638.6712028761967 66.60627511747103 L 639.3426141732965 67.80516625455807 L 639.9178918189476 69.05303993361109 L 640.3934890351652 70.34220259843859 L 640.7664736069594 71.66470613252184 L 641.0345459604149 73.01239686179616 L 641.1960533403297 74.37696582476292 Z" fill-opacity="1" stroke-opacity="1" stroke-miterlimit="10" stroke-width="2"/><text fill="rgb(255,255,255)" stroke="none" font-family="times new roman" font-size="10px" font-style="normal" font-weight="normal" text-decoration="normal" x="623.75" y="80.75" text-anchor="middle" dominant-baseline="text-after-edge" fill-opacity="1">*34.1</text><path fill="rgb(69,90,100)" stroke="rgb(76,175,80)" paint-order="fill stroke markers" d=" M 1074.125 136.25 L 1116.625 136.25 L 1116.625 136.25 A 5 5 0 0 1 1121.625 141.25 L 1121.625 151.25 L 1121.625 151.25 A 5 5 0 0 1 1116.625 156.25 L 1031.625 156.25 L 1031.625 156.25 A 5 5 0 0 1 1026.625 151.25 L 1026.625 141.25 L 1026.625 141.25 A 5 5 0 0 1 1031.625 136.25 L 1074.125 136.25 Z" fill-opacity="1" stroke-opacity="1" stroke-miterlimit="10" stroke-width="2"/><text fill="rgb(255,255,255)" stroke="none" font-family="times new roman" font-size="10px" font-style="normal" font-weight="normal" text-decoration="normal" x="1074.125" y="151.25" text-anchor="middle" dominant-baseline="text-after-edge" fill-opacity="1">42132025_4213202…</text><path fill="rgb(69,90,100)" stroke="rgb(76,175,80)" paint-order="fill stroke markers" d=" M 213.375 146.25 L 213.32105334032974 147.62303417523728 L 213.1595459604149 148.98760313820404 L 212.89147360695935 150.33529386747836 L 212.51848903516517 151.65779740156157 L 212.0428918189475 152.94696006638907 L 211.46761417329643 154.19483374544205 L 210.79620287619662 155.3937248825291 L 210.0327974015616 156.53624191511827 L 209.18210439800055 157.6153408457782 L 208.24936867076457 158.62436867076457 L 207.2403408457782 159.55710439800055 L 206.16124191511827 160.4077974015616 L 205.0187248825291 161.17120287619662 L 203.81983374544208 161.84261417329643 L 202.57196006638907 162.4178918189475 L 201.2827974015616 162.89348903516517 L 199.96029386747836 163.26647360695935 L 198.61260313820404 163.5345459604149 L 197.24803417523728 163.69605334032974 L 195.875 163.75 L 194.50196582476272 163.69605334032974 L 193.13739686179596 163.5345459604149 L 191.78970613252164 163.26647360695935 L 190.46720259843843 162.8934890351652 L 189.17803993361093 162.4178918189475 L 187.93016625455795 161.84261417329643 L 186.7312751174709 161.17120287619662 L 185.58875808488173 160.4077974015616 L 184.5096591542218 159.55710439800055 L 183.50063132923543 158.62436867076457 L 182.56789560199945 157.6153408457782 L 181.71720259843843 156.5362419151183 L 180.95379712380338 155.3937248825291 L 180.28238582670357 154.19483374544208 L 179.7071081810525 152.94696006638907 L 179.23151096483483 151.6577974015616 L 178.85852639304065 150.33529386747836 L 178.5904540395851 148.98760313820404 L 178.42894665967026 147.62303417523728 L 178.375 146.25 L 178.42894665967026 144.87696582476272 L 178.5904540395851 143.51239686179596 L 178.85852639304065 142.16470613252164 L 179.2315109648348 140.84220259843843 L 179.7071081810525 139.55303993361093 L 180.28238582670357 138.30516625455795 L 180.95379712380338 137.1062751174709 L 181.7172025984384 135.96375808488173 L 182.56789560199945 134.8846591542218 L 183.5006313292354 133.87563132923543 L 184.50965915422177 132.94289560199945 L 185.5887580848817 132.09220259843843 L 186.7312751174709 131.32879712380338 L 187.93016625455795 130.65738582670355 L 189.17803993361096 130.0821081810525 L 190.46720259843843 129.6065109648348 L 191.7897061325217 129.23352639304065 L 193.137396861796 128.9654540395851 L 194.50196582476278 128.80394665967026 L 195.87500000000006 128.75 L 197.24803417523736 128.80394665967026 L 198.61260313820412 128.9654540395851 L 199.9602938674784 129.23352639304068 L 201.28279740156165 129.60651096483485 L 202.57196006638915 130.08210818105252 L 203.81983374544217 130.6573858267036 L 205.0187248825292 131.32879712380344 L 206.16124191511838 132.0922025984385 L 207.24034084577832 132.94289560199954 L 208.24936867076468 133.87563132923552 L 209.18210439800063 134.8846591542219 L 210.03279740156168 135.96375808488185 L 210.7962028761967 137.10627511747103 L 211.4676141732965 138.3051662545581 L 212.0428918189476 139.5530399336111 L 212.51848903516523 140.8422025984386 L 212.89147360695938 142.16470613252184 L 213.15954596041493 143.51239686179616 L 213.32105334032974 144.87696582476292 Z" fill-opacity="1" stroke-opacity="1" stroke-miterlimit="10" stroke-width="2"/><text fill="rgb(255,255,255)" stroke="none" font-family="times new roman" font-size="10px" font-style="normal" font-weight="normal" text-decoration="normal" x="195.875" y="151.25" text-anchor="middle" dominant-baseline="text-after-edge" fill-opacity="1">*1.41</text><path fill="rgb(69,90,100)" stroke="rgb(158,158,158)" paint-order="fill stroke markers" d=" M 487 65.75 L 487 85.75 L 582 85.75 L 582 65.75 Z" fill-opacity="1" stroke-opacity="1" stroke-miterlimit="10" stroke-width="2"/><text fill="rgb(255,255,255)" stroke="none" font-family="times new roman" font-size="10px" font-style="normal" font-weight="normal" text-decoration="normal" x="534.5" y="80.75" text-anchor="middle" dominant-baseline="text-after-edge" fill-opacity="1">42127941G&gt;A</text><path fill="rgb(69,90,100)" stroke="rgb(76,175,80)" paint-order="fill stroke markers" d=" M 237.625 136.25 L 237.625 156.25 L 332.625 156.25 L 332.625 136.25 Z" fill-opacity="1" stroke-opacity="1" stroke-miterlimit="10" stroke-width="2"/><text fill="rgb(255,255,255)" stroke="none" font-family="times new roman" font-size="10px" font-style="normal" font-weight="normal" text-decoration="normal" x="285.125" y="151.25" text-anchor="middle" dominant-baseline="text-after-edge" fill-opacity="1">42130047G&gt;C</text><path fill="rgb(69,90,100)" stroke="rgb(76,175,80)" paint-order="fill stroke markers" d=" M 601.625 281.625 L 601.5556400089954 283.3903296538765 L 601.3479876633907 285.1447754634052 L 601.0033232089477 286.87752068675786 L 600.5237716166409 288.5778823734363 L 599.912289481504 290.23537722821453 L 599.1726467942383 291.8397862441398 L 598.3094036979671 293.3812177061088 L 597.3278823734363 294.85016817658067 L 596.2341342260007 296.23758108742913 L 595.0349025766973 297.53490257669733 L 593.7375810874291 298.7341342260007 L 592.3501681765806 299.8278823734363 L 590.8812177061088 300.80940369796707 L 589.3397862441398 301.6726467942383 L 587.7353772282145 302.41228948150393 L 586.0778823734363 303.02377161664094 L 584.3775206867579 303.50332320894773 L 582.6447754634052 303.8479876633906 L 580.8903296538765 304.0556400089954 L 579.125 304.125 L 577.3596703461235 304.0556400089954 L 575.6052245365948 303.8479876633906 L 573.8724793132421 303.50332320894773 L 572.1721176265637 303.02377161664094 L 570.5146227717855 302.41228948150393 L 568.9102137558602 301.6726467942383 L 567.3687822938912 300.80940369796707 L 565.8998318234194 299.8278823734363 L 564.5124189125709 298.7341342260007 L 563.2150974233027 297.53490257669733 L 562.0158657739993 296.23758108742913 L 560.9221176265637 294.85016817658067 L 559.9405963020329 293.3812177061088 L 559.0773532057617 291.8397862441398 L 558.337710518496 290.23537722821453 L 557.7262283833591 288.5778823734363 L 557.2466767910523 286.87752068675786 L 556.9020123366095 285.1447754634052 L 556.6943599910046 283.3903296538765 L 556.625 281.625 L 556.6943599910046 279.8596703461235 L 556.9020123366093 278.1052245365948 L 557.2466767910523 276.37247931324214 L 557.7262283833591 274.6721176265637 L 558.337710518496 273.01462277178547 L 559.0773532057617 271.4102137558602 L 559.9405963020329 269.8687822938912 L 560.9221176265637 268.39983182341933 L 562.0158657739993 267.01241891257087 L 563.2150974233027 265.71509742330267 L 564.5124189125709 264.51586577399934 L 565.8998318234194 263.4221176265637 L 567.3687822938912 262.44059630203293 L 568.9102137558602 261.5773532057617 L 570.5146227717855 260.837710518496 L 572.1721176265637 260.22622838335906 L 573.8724793132421 259.74667679105227 L 575.6052245365948 259.4020123366094 L 577.3596703461236 259.1943599910046 L 579.1250000000001 259.125 L 580.8903296538766 259.1943599910046 L 582.6447754634053 259.4020123366094 L 584.377520686758 259.7466767910523 L 586.0778823734364 260.22622838335906 L 587.7353772282146 260.8377105184961 L 589.3397862441399 261.57735320576177 L 590.8812177061089 262.440596302033 L 592.3501681765807 263.42211762656376 L 593.7375810874292 264.5158657739994 L 595.0349025766974 265.7150974233028 L 596.2341342260008 267.012418912571 L 597.3278823734364 268.3998318234195 L 598.3094036979671 269.86878229389134 L 599.1726467942384 271.4102137558604 L 599.912289481504 273.0146227717857 L 600.523771616641 274.67211762656393 L 601.0033232089478 276.37247931324237 L 601.3479876633907 278.1052245365951 L 601.5556400089954 279.8596703461238 Z" fill-opacity="1" stroke-opacity="1" stroke-miterlimit="10" stroke-width="2"/><text fill="rgb(255,255,255)" stroke="none" font-family="times new roman" font-size="15px" font-style="normal" font-weight="normal" text-decoration="normal" x="579.125" y="289.125" text-anchor="middle" dominant-baseline="text-after-edge" fill-opacity="1">*2</text><path fill="rgb(3,169,244)" stroke="none" paint-order="stroke fill markers" d=" M 579.125 249.125 L 603.625 249.125 L 603.625 249.125 A 8 8 0 0 1 611.625 257.125 L 611.625 306.125 L 611.625 306.125 A 8 8 0 0 1 603.625 314.125 L 554.625 314.125 L 554.625 314.125 A 8 8 0 0 1 546.625 306.125 L 546.625 257.125 L 546.625 257.125 A 8 8 0 0 1 554.625 249.125 L 579.125 249.125 Z" fill-opacity="0.15"/><path fill="rgb(69,90,100)" stroke="rgb(158,158,158)" paint-order="fill stroke markers" d=" M 375.25 65.75 L 375.25 85.75 L 470.25 85.75 L 470.25 65.75 Z" fill-opacity="1" stroke-opacity="1" stroke-miterlimit="10" stroke-width="2"/><text fill="rgb(255,255,255)" stroke="none" font-family="times new roman" font-size="10px" font-style="normal" font-weight="normal" text-decoration="normal" x="422.75" y="80.75" text-anchor="middle" dominant-baseline="text-after-edge" fill-opacity="1">42126611C&gt;G</text><path fill="rgb(69,90,100)" stroke="rgb(76,175,80)" paint-order="fill stroke markers" d=" M 691.375 136.25 L 691.375 156.25 L 786.375 156.25 L 786.375 136.25 Z" fill-opacity="1" stroke-opacity="1" stroke-miterlimit="10" stroke-width="2"/><text fill="rgb(255,255,255)" stroke="none" font-family="times new roman" font-size="10px" font-style="normal" font-weight="normal" text-decoration="normal" x="738.875" y="151.25" text-anchor="middle" dominant-baseline="text-after-edge" fill-opacity="1">42130482C&gt;A</text><path fill="rgb(69,90,100)" stroke="rgb(76,175,80)" paint-order="fill stroke markers" d=" M 400.625 146.25 L 400.5556400089954 148.0153296538765 L 400.3479876633906 149.76977546340518 L 400.00332320894773 151.50252068675786 L 399.52377161664094 153.20288237343632 L 398.91228948150393 154.86037722821453 L 398.1726467942383 156.46478624413982 L 397.30940369796707 158.00621770610886 L 396.3278823734363 159.47516817658064 L 395.2341342260007 160.86258108742913 L 394.03490257669733 162.1599025766973 L 392.73758108742913 163.3591342260007 L 391.35016817658067 164.45288237343632 L 389.8812177061088 165.43440369796707 L 388.3397862441398 166.2976467942383 L 386.73537722821453 167.03728948150396 L 385.0778823734363 167.64877161664094 L 383.37752068675786 168.12832320894773 L 381.6447754634052 168.4729876633906 L 379.8903296538765 168.68064000899537 L 378.125 168.75 L 376.3596703461235 168.68064000899537 L 374.6052245365948 168.4729876633906 L 372.87247931324214 168.12832320894773 L 371.1721176265637 167.64877161664094 L 369.51462277178547 167.03728948150396 L 367.9102137558602 166.2976467942383 L 366.3687822938912 165.43440369796707 L 364.89983182341933 164.45288237343632 L 363.51241891257087 163.3591342260007 L 362.21509742330267 162.15990257669733 L 361.0158657739993 160.86258108742913 L 359.9221176265637 159.47516817658064 L 358.94059630203293 158.00621770610886 L 358.0773532057617 156.46478624413982 L 357.33771051849607 154.86037722821453 L 356.72622838335906 153.20288237343632 L 356.24667679105227 151.50252068675786 L 355.9020123366094 149.7697754634052 L 355.6943599910046 148.0153296538765 L 355.625 146.25 L 355.6943599910046 144.4846703461235 L 355.9020123366094 142.73022453659482 L 356.24667679105227 140.99747931324214 L 356.72622838335906 139.29711762656368 L 357.33771051849607 137.63962277178547 L 358.0773532057617 136.0352137558602 L 358.94059630203293 134.49378229389114 L 359.9221176265637 133.02483182341936 L 361.0158657739993 131.63741891257087 L 362.21509742330267 130.3400974233027 L 363.51241891257087 129.1408657739993 L 364.89983182341933 128.04711762656368 L 366.3687822938912 127.06559630203293 L 367.91021375586024 126.20235320576171 L 369.5146227717855 125.46271051849604 L 371.1721176265637 124.85122838335903 L 372.8724793132422 124.37167679105227 L 374.60522453659485 124.02701233660939 L 376.35967034612355 123.81935999100462 L 378.12500000000006 123.75 L 379.8903296538766 123.81935999100463 L 381.64477546340527 124.02701233660942 L 383.377520686758 124.3716767910523 L 385.0778823734364 124.85122838335909 L 386.73537722821465 125.4627105184961 L 388.33978624413993 126.20235320576178 L 389.881217706109 127.065596302033 L 391.3501681765808 128.04711762656376 L 392.73758108742925 129.14086577399942 L 394.03490257669745 130.3400974233028 L 395.23413422600083 131.637418912571 L 396.3278823734364 133.0248318234195 L 397.3094036979672 134.49378229389131 L 398.1726467942384 136.03521375586038 L 398.91228948150405 137.6396227717857 L 399.52377161664106 139.2971176265639 L 400.0033232089478 140.99747931324237 L 400.34798766339065 142.73022453659505 L 400.5556400089954 144.48467034612375 Z" fill-opacity="1" stroke-opacity="1" stroke-miterlimit="10" stroke-width="2"/><text fill="rgb(255,255,255)" stroke="none" font-family="times new roman" font-size="15px" font-style="normal" font-weight="normal" text-decoration="normal" x="378.125" y="153.75" text-anchor="middle" dominant-baseline="text-after-edge" fill-opacity="1">*39</text><path fill="rgb(69,90,100)" stroke="rgb(76,175,80)" paint-order="fill stroke markers" d=" M 601.625 146.25 L 601.5556400089954 148.0153296538765 L 601.3479876633907 149.76977546340518 L 601.0033232089477 151.50252068675786 L 600.5237716166409 153.20288237343632 L 599.912289481504 154.86037722821453 L 599.1726467942383 156.46478624413982 L 598.3094036979671 158.00621770610886 L 597.3278823734363 159.47516817658064 L 596.2341342260007 160.86258108742913 L 595.0349025766973 162.1599025766973 L 593.7375810874291 163.3591342260007 L 592.3501681765806 164.45288237343632 L 590.8812177061088 165.43440369796707 L 589.3397862441398 166.2976467942383 L 587.7353772282145 167.03728948150396 L 586.0778823734363 167.64877161664094 L 584.3775206867579 168.12832320894773 L 582.6447754634052 168.4729876633906 L 580.8903296538765 168.68064000899537 L 579.125 168.75 L 577.3596703461235 168.68064000899537 L 575.6052245365948 168.4729876633906 L 573.8724793132421 168.12832320894773 L 572.1721176265637 167.64877161664094 L 570.5146227717855 167.03728948150396 L 568.9102137558602 166.2976467942383 L 567.3687822938912 165.43440369796707 L 565.8998318234194 164.45288237343632 L 564.5124189125709 163.3591342260007 L 563.2150974233027 162.15990257669733 L 562.0158657739993 160.86258108742913 L 560.9221176265637 159.47516817658064 L 559.9405963020329 158.00621770610886 L 559.0773532057617 156.46478624413982 L 558.337710518496 154.86037722821453 L 557.7262283833591 153.20288237343632 L 557.2466767910523 151.50252068675786 L 556.9020123366095 149.7697754634052 L 556.6943599910046 148.0153296538765 L 556.625 146.25 L 556.6943599910046 144.4846703461235 L 556.9020123366093 142.73022453659482 L 557.2466767910523 140.99747931324214 L 557.7262283833591 139.29711762656368 L 558.337710518496 137.63962277178547 L 559.0773532057617 136.0352137558602 L 559.9405963020329 134.49378229389114 L 560.9221176265637 133.02483182341936 L 562.0158657739993 131.63741891257087 L 563.2150974233027 130.3400974233027 L 564.5124189125709 129.1408657739993 L 565.8998318234194 128.04711762656368 L 567.3687822938912 127.06559630203293 L 568.9102137558602 126.20235320576171 L 570.5146227717855 125.46271051849604 L 572.1721176265637 124.85122838335903 L 573.8724793132421 124.37167679105227 L 575.6052245365948 124.02701233660939 L 577.3596703461236 123.81935999100462 L 579.1250000000001 123.75 L 580.8903296538766 123.81935999100463 L 582.6447754634053 124.02701233660942 L 584.377520686758 124.3716767910523 L 586.0778823734364 124.85122838335909 L 587.7353772282146 125.4627105184961 L 589.3397862441399 126.20235320576178 L 590.8812177061089 127.065596302033 L 592.3501681765807 128.04711762656376 L 593.7375810874292 129.14086577399942 L 595.0349025766974 130.3400974233028 L 596.2341342260008 131.637418912571 L 597.3278823734364 133.0248318234195 L 598.3094036979671 134.49378229389131 L 599.1726467942384 136.03521375586038 L 599.912289481504 137.6396227717857 L 600.523771616641 139.2971176265639 L 601.0033232089478 140.99747931324237 L 601.3479876633907 142.73022453659505 L 601.5556400089954 144.48467034612375 Z" fill-opacity="1" stroke-opacity="1" stroke-miterlimit="10" stroke-width="2"/><text fill="rgb(255,255,255)" stroke="none" font-family="times new roman" font-size="15px" font-style="normal" font-weight="normal" text-decoration="normal" x="579.125" y="153.75" text-anchor="middle" dominant-baseline="text-after-edge" fill-opacity="1">*34</text><path fill="rgb(69,90,100)" stroke="rgb(76,175,80)" paint-order="fill stroke markers" d=" M 962.375 136.25 L 1004.875 136.25 L 1004.875 136.25 A 5 5 0 0 1 1009.875 141.25 L 1009.875 151.25 L 1009.875 151.25 A 5 5 0 0 1 1004.875 156.25 L 919.875 156.25 L 919.875 156.25 A 5 5 0 0 1 914.875 151.25 L 914.875 141.25 L 914.875 141.25 A 5 5 0 0 1 919.875 136.25 L 962.375 136.25 Z" fill-opacity="1" stroke-opacity="1" stroke-miterlimit="10" stroke-width="2"/><text fill="rgb(255,255,255)" stroke="none" font-family="times new roman" font-size="10px" font-style="normal" font-weight="normal" text-decoration="normal" x="962.375" y="151.25" text-anchor="middle" dominant-baseline="text-after-edge" fill-opacity="1">42132049dup</text><path fill="rgb(69,90,100)" stroke="rgb(76,175,80)" paint-order="fill stroke markers" d=" M 803.125 136.25 L 803.125 156.25 L 898.125 156.25 L 898.125 136.25 Z" fill-opacity="1" stroke-opacity="1" stroke-miterlimit="10" stroke-width="2"/><text fill="rgb(255,255,255)" stroke="none" font-family="times new roman" font-size="10px" font-style="normal" font-weight="normal" text-decoration="normal" x="850.625" y="151.25" text-anchor="middle" dominant-baseline="text-after-edge" fill-opacity="1">42129950A&gt;C</text><path fill="rgb(69,90,100)" stroke="rgb(76,175,80)" paint-order="fill stroke markers" d=" M 819 281.625 L 818.9460533403297 282.9980341752373 L 818.7845459604149 284.36260313820407 L 818.5164736069594 285.71029386747836 L 818.1434890351652 287.0327974015616 L 817.6678918189475 288.32196006638907 L 817.0926141732964 289.56983374544205 L 816.4212028761966 290.7687248825291 L 815.6577974015615 291.9112419151183 L 814.8071043980005 292.99034084577823 L 813.8743686707646 293.99936867076457 L 812.8653408457782 294.93210439800055 L 811.7862419151182 295.7827974015616 L 810.6437248825291 296.5462028761966 L 809.4448337454421 297.21761417329645 L 808.1969600663891 297.7928918189475 L 806.9077974015615 298.2684890351652 L 805.5852938674783 298.6414736069593 L 804.237603138204 298.9095459604149 L 802.8730341752373 299.07105334032974 L 801.5 299.125 L 800.1269658247627 299.07105334032974 L 798.762396861796 298.9095459604149 L 797.4147061325217 298.6414736069593 L 796.0922025984385 298.2684890351652 L 794.8030399336109 297.7928918189475 L 793.5551662545579 297.21761417329645 L 792.3562751174709 296.5462028761966 L 791.2137580848818 295.7827974015616 L 790.1346591542218 294.93210439800055 L 789.1256313292354 293.99936867076457 L 788.1928956019995 292.99034084577823 L 787.3422025984385 291.9112419151183 L 786.5787971238034 290.7687248825291 L 785.9073858267036 289.56983374544205 L 785.3321081810525 288.32196006638907 L 784.8565109648348 287.0327974015616 L 784.4835263930406 285.71029386747836 L 784.2154540395851 284.36260313820407 L 784.0539466596703 282.9980341752373 L 784 281.625 L 784.0539466596703 280.2519658247627 L 784.2154540395851 278.88739686179593 L 784.4835263930406 277.53970613252164 L 784.8565109648348 276.2172025984384 L 785.3321081810525 274.92803993361093 L 785.9073858267036 273.68016625455795 L 786.5787971238034 272.4812751174709 L 787.3422025984385 271.3387580848817 L 788.1928956019995 270.25965915422177 L 789.1256313292354 269.25063132923543 L 790.1346591542218 268.31789560199945 L 791.2137580848818 267.4672025984384 L 792.3562751174709 266.7037971238034 L 793.5551662545579 266.03238582670355 L 794.803039933611 265.4571081810525 L 796.0922025984385 264.9815109648348 L 797.4147061325217 264.6085263930407 L 798.762396861796 264.3404540395851 L 800.1269658247628 264.17894665967026 L 801.5000000000001 264.125 L 802.8730341752373 264.17894665967026 L 804.2376031382041 264.3404540395851 L 805.5852938674784 264.6085263930407 L 806.9077974015617 264.98151096483485 L 808.1969600663891 265.4571081810525 L 809.4448337454421 266.0323858267036 L 810.6437248825292 266.70379712380344 L 811.7862419151184 267.4672025984385 L 812.8653408457783 268.31789560199957 L 813.8743686707646 269.2506313292355 L 814.8071043980007 270.2596591542219 L 815.6577974015617 271.3387580848818 L 816.4212028761967 272.48127511747106 L 817.0926141732965 273.68016625455806 L 817.6678918189476 274.9280399336111 L 818.1434890351652 276.2172025984386 L 818.5164736069594 277.5397061325218 L 818.7845459604149 278.88739686179616 L 818.9460533403297 280.2519658247629 Z" fill-opacity="1" stroke-opacity="1" stroke-miterlimit="10" stroke-width="2"/><text fill="rgb(255,255,255)" stroke="none" font-family="times new roman" font-size="10px" font-style="normal" font-weight="normal" text-decoration="normal" x="801.5" y="286.625" text-anchor="middle" dominant-baseline="text-after-edge" fill-opacity="1">*1.58</text><path fill="rgb(69,90,100)" stroke="rgb(76,175,80)" paint-order="fill stroke markers" d=" M 148.375 65.75 L 148.375 85.75 L 243.37499999999997 85.75 L 243.375 65.75 Z" fill-opacity="1" stroke-opacity="1" stroke-miterlimit="10" stroke-width="2"/><text fill="rgb(255,255,255)" stroke="none" font-family="times new roman" font-size="10px" font-style="normal" font-weight="normal" text-decoration="normal" x="195.875" y="80.75" text-anchor="middle" dominant-baseline="text-after-edge" fill-opacity="1">42127407T&gt;G</text><path fill="rgb(69,90,100)" stroke="rgb(76,175,80)" paint-order="fill stroke markers" d=" M 349.125 75.75 L 349.07105334032974 77.12303417523728 L 348.9095459604149 78.48760313820404 L 348.6414736069593 79.83529386747834 L 348.2684890351652 81.15779740156158 L 347.7928918189475 82.44696006638907 L 347.21761417329645 83.69483374544207 L 346.5462028761966 84.8937248825291 L 345.7827974015616 86.03624191511828 L 344.93210439800055 87.1153408457782 L 343.99936867076457 88.12436867076458 L 342.99034084577823 89.05710439800055 L 341.9112419151183 89.90779740156158 L 340.7687248825291 90.67120287619662 L 339.56983374544205 91.34261417329644 L 338.32196006638907 91.91789181894751 L 337.0327974015616 92.39348903516519 L 335.71029386747836 92.76647360695934 L 334.36260313820407 93.0345459604149 L 332.9980341752373 93.19605334032974 L 331.625 93.25 L 330.2519658247627 93.19605334032974 L 328.88739686179593 93.0345459604149 L 327.53970613252164 92.76647360695934 L 326.2172025984384 92.39348903516519 L 324.92803993361093 91.91789181894751 L 323.68016625455795 91.34261417329644 L 322.4812751174709 90.67120287619662 L 321.3387580848817 89.90779740156158 L 320.25965915422177 89.05710439800055 L 319.25063132923543 88.12436867076458 L 318.31789560199945 87.11534084577822 L 317.4672025984384 86.03624191511828 L 316.7037971238034 84.89372488252911 L 316.03238582670355 83.69483374544207 L 315.4571081810525 82.44696006638907 L 314.9815109648348 81.15779740156158 L 314.6085263930407 79.83529386747834 L 314.3404540395851 78.48760313820404 L 314.17894665967026 77.1230341752373 L 314.125 75.75 L 314.17894665967026 74.37696582476272 L 314.3404540395851 73.01239686179596 L 314.6085263930407 71.66470613252166 L 314.9815109648348 70.34220259843842 L 315.4571081810525 69.05303993361093 L 316.03238582670355 67.80516625455793 L 316.7037971238034 66.6062751174709 L 317.4672025984384 65.46375808488172 L 318.31789560199945 64.3846591542218 L 319.25063132923543 63.37563132923542 L 320.25965915422177 62.44289560199947 L 321.3387580848817 61.59220259843842 L 322.4812751174709 60.82879712380338 L 323.68016625455795 60.15738582670356 L 324.92803993361093 59.582108181052476 L 326.21720259843846 59.106510964834804 L 327.5397061325217 58.73352639304065 L 328.887396861796 58.46545403958508 L 330.25196582476275 58.30394665967026 L 331.62500000000006 58.25 L 332.99803417523736 58.30394665967027 L 334.3626031382041 58.4654540395851 L 335.7102938674784 58.73352639304068 L 337.03279740156165 59.10651096483484 L 338.3219600663892 59.58210818105252 L 339.56983374544217 60.15738582670361 L 340.7687248825292 60.82879712380345 L 341.91124191511835 61.59220259843849 L 342.9903408457783 62.44289560199954 L 343.9993686707647 63.37563132923552 L 344.93210439800066 64.3846591542219 L 345.78279740156165 65.46375808488185 L 346.5462028761967 66.60627511747103 L 347.2176141732965 67.80516625455807 L 347.79289181894757 69.05303993361109 L 348.26848903516526 70.34220259843859 L 348.6414736069594 71.66470613252184 L 348.90954596041496 73.01239686179616 L 349.07105334032974 74.37696582476292 Z" fill-opacity="1" stroke-opacity="1" stroke-miterlimit="10" stroke-width="2"/><text fill="rgb(255,255,255)" stroke="none" font-family="times new roman" font-size="10px" font-style="normal" font-weight="normal" text-decoration="normal" x="331.625" y="80.75" text-anchor="middle" dominant-baseline="text-after-edge" fill-opacity="1">*39.2</text><path fill="rgb(176,190,197)" stroke="none" paint-order="stroke fill markers" d=" M 633.875 176.62500000000003 L 633.875 386.625 L 708.875 386.625 L 708.875 176.62500000000006 Z" fill-opacity="0.8"/><text fill="rgb(0,0,0)" stroke="none" font-family="times new roman" font-size="10px" font-style="normal" font-weight="normal" text-decoration="normal" x="638.875" y="191.625" text-anchor="start" dominant-baseline="text-after-edge" fill-opacity="0.8">42126310C&gt;T </text><text fill="rgb(0,0,0)" stroke="none" font-family="times new roman" font-size="10px" font-style="normal" font-weight="normal" text-decoration="normal" x="638.875" y="201.625" text-anchor="start" dominant-baseline="text-after-edge" fill-opacity="0.8">42127001G&gt;A </text><text fill="rgb(0,0,0)" stroke="none" font-family="times new roman" font-size="10px" font-style="normal" font-weight="normal" text-decoration="normal" x="638.875" y="211.625" text-anchor="start" dominant-baseline="text-after-edge" fill-opacity="0.8">42127207C&gt;T </text><text fill="rgb(0,0,0)" stroke="none" font-family="times new roman" font-size="10px" font-style="normal" font-weight="normal" text-decoration="normal" x="638.875" y="221.625" text-anchor="start" dominant-baseline="text-after-edge" fill-opacity="0.8">42127239G&gt;A </text><text fill="rgb(0,0,0)" stroke="none" font-family="times new roman" font-size="10px" font-style="normal" font-weight="normal" text-decoration="normal" x="638.875" y="231.625" text-anchor="start" dominant-baseline="text-after-edge" fill-opacity="0.8">42129130C&gt;G </text><text fill="rgb(0,0,0)" stroke="none" font-family="times new roman" font-size="10px" font-style="normal" font-weight="normal" text-decoration="normal" x="638.875" y="241.625" text-anchor="start" dominant-baseline="text-after-edge" fill-opacity="0.8">42131469C&gt;T </text><text fill="rgb(0,0,0)" stroke="none" font-family="times new roman" font-size="10px" font-style="normal" font-weight="normal" text-decoration="normal" x="638.875" y="251.625" text-anchor="start" dominant-baseline="text-after-edge" fill-opacity="0.8">42131531G&gt;A </text><text fill="rgb(0,0,0)" stroke="none" font-family="times new roman" font-size="10px" font-style="normal" font-weight="normal" text-decoration="normal" x="638.875" y="261.625" text-anchor="start" dominant-baseline="text-after-edge" fill-opacity="0.8">42132026T&gt;C </text><text fill="rgb(0,0,0)" stroke="none" font-family="times new roman" font-size="10px" font-style="normal" font-weight="normal" text-decoration="normal" x="638.875" y="271.625" text-anchor="start" dominant-baseline="text-after-edge" fill-opacity="0.8">42132375G&gt;C </text><path fill="rgb(176,190,197)" stroke="none" paint-order="stroke fill markers" d=" M 1025 176.625 L 1092 176.625 L 1092 176.625 A 8 8 0 0 1 1100 184.625 L 1100 378.625 L 1100 378.625 A 8 8 0 0 1 1092 386.625 L 958 386.625 L 958 386.625 A 8 8 0 0 1 950 378.625 L 950 184.625 L 950 184.625 A 8 8 0 0 1 958 176.625 L 1025 176.625 Z" fill-opacity="0.8"/><text fill="rgb(0,0,0)" stroke="none" font-family="times new roman" font-size="10px" font-style="normal" font-weight="normal" text-decoration="normal" x="955" y="191.625" text-anchor="start" dominant-baseline="text-after-edge" fill-opacity="0.8">42125744G&gt;A </text><text fill="rgb(0,0,0)" stroke="none" font-family="times new roman" font-size="10px" font-style="normal" font-weight="normal" text-decoration="normal" x="955" y="201.625" text-anchor="start" dominant-baseline="text-after-edge" fill-opacity="0.8">42125890G&gt;A </text><text fill="rgb(0,0,0)" stroke="none" font-family="times new roman" font-size="10px" font-style="normal" font-weight="normal" text-decoration="normal" x="955" y="211.625" text-anchor="start" dominant-baseline="text-after-edge" fill-opacity="0.8">42125913T&gt;C </text><text fill="rgb(0,0,0)" stroke="none" font-family="times new roman" font-size="10px" font-style="normal" font-weight="normal" text-decoration="normal" x="955" y="221.625" text-anchor="start" dominant-baseline="text-after-edge" fill-opacity="0.8">42125915T&gt;G </text><text fill="rgb(0,0,0)" stroke="none" font-family="times new roman" font-size="10px" font-style="normal" font-weight="normal" text-decoration="normal" x="955" y="231.625" text-anchor="start" dominant-baseline="text-after-edge" fill-opacity="0.8">42125924A&gt;G </text><text fill="rgb(0,0,0)" stroke="none" font-family="times new roman" font-size="10px" font-style="normal" font-weight="normal" text-decoration="normal" x="955" y="241.625" text-anchor="start" dominant-baseline="text-after-edge" fill-opacity="0.8">42125946A&gt;G </text><text fill="rgb(0,0,0)" stroke="none" font-family="times new roman" font-size="10px" font-style="normal" font-weight="normal" text-decoration="normal" x="955" y="251.625" text-anchor="start" dominant-baseline="text-after-edge" fill-opacity="0.8">42126069A&gt;C </text><text fill="rgb(0,0,0)" stroke="none" font-family="times new roman" font-size="10px" font-style="normal" font-weight="normal" text-decoration="normal" x="955" y="261.625" text-anchor="start" dominant-baseline="text-after-edge" fill-opacity="0.8">42126136_42126138del </text><text fill="rgb(0,0,0)" stroke="none" font-family="times new roman" font-size="10px" font-style="normal" font-weight="normal" text-decoration="normal" x="955" y="271.625" text-anchor="start" dominant-baseline="text-after-edge" fill-opacity="0.8">42132025_42132026insCCTTTT </text><text fill="rgb(0,0,0)" stroke="none" font-family="times new roman" font-size="10px" font-style="normal" font-weight="normal" text-decoration="normal" x="955" y="281.625" text-anchor="start" dominant-baseline="text-after-edge" fill-opacity="0.8">42132027C&gt;T </text><text fill="rgb(0,0,0)" stroke="none" font-family="times new roman" font-size="10px" font-style="normal" font-weight="normal" text-decoration="normal" x="955" y="291.625" text-anchor="start" dominant-baseline="text-after-edge" fill-opacity="0.8">42132561C&gt;T </text><text fill="rgb(0,0,0)" stroke="none" font-family="times new roman" font-size="10px" font-style="normal" font-weight="normal" text-decoration="normal" x="955" y="301.625" text-anchor="start" dominant-baseline="text-after-edge" fill-opacity="0.8">42132844C&gt;A </text><text fill="rgb(0,0,0)" stroke="none" font-family="times new roman" font-size="10px" font-style="normal" font-weight="normal" text-decoration="normal" x="955" y="311.625" text-anchor="start" dominant-baseline="text-after-edge" fill-opacity="0.8">42132851T&gt;C </text><text fill="rgb(0,0,0)" stroke="none" font-family="times new roman" font-size="10px" font-style="normal" font-weight="normal" text-decoration="normal" x="955" y="321.625" text-anchor="start" dominant-baseline="text-after-edge" fill-opacity="0.8">42133400T&gt;G </text><text fill="rgb(0,0,0)" stroke="none" font-family="times new roman" font-size="10px" font-style="normal" font-weight="normal" text-decoration="normal" x="955" y="331.625" text-anchor="start" dominant-baseline="text-after-edge" fill-opacity="0.8">42133533A&gt;C </text><text fill="rgb(0,0,0)" stroke="none" font-family="times new roman" font-size="10px" font-style="normal" font-weight="normal" text-decoration="normal" x="955" y="341.625" text-anchor="start" dominant-baseline="text-after-edge" fill-opacity="0.8">42134096del </text><text fill="rgb(0,0,0)" stroke="none" font-family="times new roman" font-size="10px" font-style="normal" font-weight="normal" text-decoration="normal" x="955" y="351.625" text-anchor="start" dominant-baseline="text-after-edge" fill-opacity="0.8">42134820T&gt;G </text><text fill="rgb(0,0,0)" stroke="none" font-family="times new roman" font-size="10px" font-style="normal" font-weight="normal" text-decoration="normal" x="955" y="361.625" text-anchor="start" dominant-baseline="text-after-edge" fill-opacity="0.8">42135064_42135066dup </text><text fill="rgb(0,0,0)" stroke="none" font-family="times new roman" font-size="10px" font-style="normal" font-weight="normal" text-decoration="normal" x="955" y="371.625" text-anchor="start" dominant-baseline="text-after-edge" fill-opacity="0.8">42135201T&gt;C </text><text fill="rgb(0,0,0)" stroke="none" font-family="times new roman" font-size="10px" font-style="normal" font-weight="normal" text-decoration="normal" x="955" y="381.625" text-anchor="start" dominant-baseline="text-after-edge" fill-opacity="0.8">42135691T&gt;C </text><g transform="scale(1.0211598746081505,1.0211598746081505) translate(113.34190330007675,-64.5663852647736)"/></g></svg>