<svg version="1.1" xmlns="http://www.w3.org/2000/svg" xmlns:xlink="http://www.w3.org/1999/xlink" width="1017" height="608"><defs/><g transform="translate(-113.94118054593321,44.62740751004577) scale(1.0608285991409172,1.0608285991409172)"><path fill="none" stroke="rgb(120,144,156)" paint-order="fill stroke markers" d=" M 380.37244726297143 165.86981496610372 L 442.65170616145656 260.33541354741936" stroke-opacity="1" stroke-linejoin="round" stroke-miterlimit="10"/><path fill="rgb(120,144,156)" stroke="none" paint-order="stroke fill markers" d=" M 435.3321171502029 257.1360203695909 L 443.75255273702857 262.0051850338963 L 442.5956231163775 252.34733776585253 Z" fill-opacity="1"/><path fill="none" stroke="rgb(120,144,156)" paint-order="fill stroke markers" d=" M 247.61309891508478 286.66371791870546 L 663.1478194820654 404.2868525308104" stroke-opacity="1" stroke-linejoin="round" stroke-miterlimit="10"/><path fill="rgb(120,144,156)" stroke="none" paint-order="stroke fill markers" d=" M 655.5163364724742 406.6475657862316 L 665.0722085539664 404.8315787922921 L 657.8858957099195 398.276473323462 Z" fill-opacity="1"/><path fill="none" stroke="rgb(55,71,79)" paint-order="fill stroke markers" d=" M 331.12350279780276 91.19329456441062 L 354.49852347306137 126.63284203980272" stroke-opacity="1" stroke-linejoin="round" stroke-miterlimit="10" stroke-width="2"/><path fill="none" stroke="rgb(120,144,156)" paint-order="fill stroke markers" d=" M 477.2545934883358 292.9935823848911 L 668.6202240924513 398.77206481330774" stroke-opacity="1" stroke-linejoin="round" stroke-miterlimit="10"/><path fill="rgb(120,144,156)" stroke="none" paint-order="stroke fill markers" d=" M 660.6520172947438 399.3379096939669 L 670.3706150276288 399.73960373968146 L 664.8608116244694 391.7237091259447 Z" fill-opacity="1"/><path fill="none" stroke="rgb(55,71,79)" paint-order="fill stroke markers" d=" M 405.0997340425532 86.75 L 380.0061980024914 126.39356954228255" stroke-opacity="1" stroke-linejoin="round" stroke-miterlimit="10" stroke-width="2"/><path fill="none" stroke="rgb(55,71,79)" paint-order="fill stroke markers" d=" M 456.6875 164.75 L 456.6875 258.125" stroke-opacity="1" stroke-linejoin="round" stroke-miterlimit="10" stroke-width="2"/><path fill="none" stroke="rgb(120,144,156)" paint-order="fill stroke markers" d=" M 533.0025527370285 165.86981496610372 L 470.72329383854344 260.33541354741936" stroke-opacity="1" stroke-linejoin="round" stroke-miterlimit="10"/><path fill="rgb(120,144,156)" stroke="none" paint-order="stroke fill markers" d=" M 470.7793768836225 252.34733776585253 L 469.62244726297143 262.0051850338963 L 478.0428828497971 257.1360203695909 Z" fill-opacity="1"/><path fill="none" stroke="rgb(120,144,156)" paint-order="fill stroke markers" d=" M 190.9792768064626 163.82001199271423 L 223.3945851604063 262.1555272513167" stroke-opacity="1" stroke-linejoin="round" stroke-miterlimit="10"/><path fill="rgb(120,144,156)" stroke="none" paint-order="stroke fill markers" d=" M 217.16569560518437 257.1541839408803 L 224.0207231935374 264.0549880072858 L 225.42834989364997 254.43048349676005 Z" fill-opacity="1"/><path fill="none" stroke="rgb(55,71,79)" paint-order="fill stroke markers" d=" M 511.2070069381315 91.38165801990523 L 533.3688019975086 126.39356954228255" stroke-opacity="1" stroke-linejoin="round" stroke-miterlimit="10" stroke-width="2"/><path fill="none" stroke="rgb(55,71,79)" paint-order="fill stroke markers" d=" M 185.1875 86.75 L 185.1875 127.75" stroke-opacity="1" stroke-linejoin="round" stroke-miterlimit="10" stroke-width="2"/><path fill="none" stroke="rgb(55,71,79)" paint-order="fill stroke markers" d=" M 583.5997340425532 86.75 L 558.5061980024914 126.39356954228255" stroke-opacity="1" stroke-linejoin="round" stroke-miterlimit="10" stroke-width="2"/><path fill="none" stroke="rgb(120,144,156)" paint-order="fill stroke markers" d=" M 694.8125 386.625 L 694.8125 392.75" stroke-opacity="1" stroke-linejoin="round" stroke-miterlimit="10"/><path fill="rgb(120,144,156)" stroke="none" paint-order="stroke fill markers" d=" M 690.4625 386.05 L 694.8125 394.75 L 699.1625 386.05 Z" fill-opacity="1"/><path fill="none" stroke="rgb(120,144,156)" paint-order="fill stroke markers" d=" M 866.9776662049861 157.25 L 910.4912911373248 262.67562819177346" stroke-opacity="1" stroke-linejoin="round" stroke-miterlimit="10"/><path fill="rgb(120,144,156)" stroke="none" paint-order="stroke fill markers" d=" M 903.9141269058267 258.1420412375061 L 911.254335904415 264.52434739257603 L 911.956055429318 254.82279650066346 Z" fill-opacity="1"/><path fill="none" stroke="rgb(120,144,156)" paint-order="fill stroke markers" d=" M 902.3715321299142 291.0130532255036 L 720.4073525663796 398.1765213912764" stroke-opacity="1" stroke-linejoin="round" stroke-miterlimit="10"/><path fill="rgb(120,144,156)" stroke="none" paint-order="stroke fill markers" d=" M 723.9731067933328 391.0282421023171 L 718.6840046885325 399.1914460643039 L 728.3880291210021 398.5248053709521 Z" fill-opacity="1"/><path fill="none" stroke="rgb(120,144,156)" paint-order="fill stroke markers" d=" M 969.6473337950139 157.25 L 926.1337088626752 262.67562819177346" stroke-opacity="1" stroke-linejoin="round" stroke-miterlimit="10"/><path fill="rgb(120,144,156)" stroke="none" paint-order="stroke fill markers" d=" M 924.668944570682 254.82279650066346 L 925.370664095585 264.52434739257603 L 932.7108730941733 258.1420412375061 Z" fill-opacity="1"/><path fill="none" stroke="rgb(120,144,156)" paint-order="fill stroke markers" d=" M 643.4776662049861 157.25 L 650.7115050944055 174.77628079919742" stroke-opacity="1" stroke-linejoin="round" stroke-miterlimit="10"/><path fill="rgb(120,144,156)" stroke="none" paint-order="stroke fill markers" d=" M 644.1343408629075 170.24269384493007 L 651.4745498614958 176.625 L 652.1762693863988 166.92344910808742 Z" fill-opacity="1"/><path fill="none" stroke="rgb(120,144,156)" paint-order="fill stroke markers" d=" M 270.81146121883654 157.25 L 236.2304148395937 262.1555272513167" stroke-opacity="1" stroke-linejoin="round" stroke-miterlimit="10"/><path fill="rgb(120,144,156)" stroke="none" paint-order="stroke fill markers" d=" M 234.19665010635003 254.43048349676005 L 235.6042768064626 264.0549880072858 L 242.45930439481563 257.1541839408803 Z" fill-opacity="1"/><path fill="none" stroke="rgb(120,144,156)" paint-order="fill stroke markers" d=" M 961.8125 297.8349753694581 L 723.2038898419075 400.97736719887985" stroke-opacity="1" stroke-linejoin="round" stroke-miterlimit="10"/><path fill="rgb(120,144,156)" stroke="none" paint-order="stroke fill markers" d=" M 727.6279011291624 394.32600462191556 L 721.3680644837284 401.7709321012455 L 731.0799084544527 402.31184492999466 Z" fill-opacity="1"/><path fill="none" stroke="rgb(120,144,156)" paint-order="fill stroke markers" d=" M 746.1473337950139 157.25 L 738.9134949055945 174.77628079919742" stroke-opacity="1" stroke-linejoin="round" stroke-miterlimit="10"/><path fill="rgb(120,144,156)" stroke="none" paint-order="stroke fill markers" d=" M 737.4487306136012 166.92344910808742 L 738.1504501385042 176.625 L 745.4906591370925 170.24269384493007 Z" fill-opacity="1"/><path fill="rgb(69,90,100)" stroke="rgb(76,175,80)" paint-order="fill stroke markers" d=" M 389.9375 146.25 L 389.8681400089954 148.0153296538765 L 389.6604876633906 149.76977546340518 L 389.31582320894773 151.50252068675786 L 388.83627161664094 153.20288237343632 L 388.22478948150393 154.86037722821453 L 387.4851467942383 156.46478624413982 L 386.62190369796707 158.00621770610886 L 385.6403823734363 159.47516817658064 L 384.5466342260007 160.86258108742913 L 383.34740257669733 162.1599025766973 L 382.05008108742913 163.3591342260007 L 380.66266817658067 164.45288237343632 L 379.1937177061088 165.43440369796707 L 377.6522862441398 166.2976467942383 L 376.04787722821453 167.03728948150396 L 374.3903823734363 167.64877161664094 L 372.69002068675786 168.12832320894773 L 370.9572754634052 168.4729876633906 L 369.2028296538765 168.68064000899537 L 367.4375 168.75 L 365.6721703461235 168.68064000899537 L 363.9177245365948 168.4729876633906 L 362.18497931324214 168.12832320894773 L 360.4846176265637 167.64877161664094 L 358.82712277178547 167.03728948150396 L 357.2227137558602 166.2976467942383 L 355.6812822938912 165.43440369796707 L 354.21233182341933 164.45288237343632 L 352.82491891257087 163.3591342260007 L 351.52759742330267 162.15990257669733 L 350.3283657739993 160.86258108742913 L 349.2346176265637 159.47516817658064 L 348.25309630203293 158.00621770610886 L 347.3898532057617 156.46478624413982 L 346.65021051849607 154.86037722821453 L 346.03872838335906 153.20288237343632 L 345.55917679105227 151.50252068675786 L 345.2145123366094 149.7697754634052 L 345.0068599910046 148.0153296538765 L 344.9375 146.25 L 345.0068599910046 144.4846703461235 L 345.2145123366094 142.73022453659482 L 345.55917679105227 140.99747931324214 L 346.03872838335906 139.29711762656368 L 346.65021051849607 137.63962277178547 L 347.3898532057617 136.0352137558602 L 348.25309630203293 134.49378229389114 L 349.2346176265637 133.02483182341936 L 350.3283657739993 131.63741891257087 L 351.52759742330267 130.3400974233027 L 352.82491891257087 129.1408657739993 L 354.21233182341933 128.04711762656368 L 355.6812822938912 127.06559630203293 L 357.22271375586024 126.20235320576171 L 358.8271227717855 125.46271051849604 L 360.4846176265637 124.85122838335903 L 362.1849793132422 124.37167679105227 L 363.91772453659485 124.02701233660939 L 365.67217034612355 123.81935999100462 L 367.43750000000006 123.75 L 369.2028296538766 123.81935999100463 L 370.95727546340527 124.02701233660942 L 372.690020686758 124.3716767910523 L 374.3903823734364 124.85122838335909 L 376.04787722821465 125.4627105184961 L 377.65228624413993 126.20235320576178 L 379.193717706109 127.065596302033 L 380.6626681765808 128.04711762656376 L 382.05008108742925 129.14086577399942 L 383.34740257669745 130.3400974233028 L 384.54663422600083 131.637418912571 L 385.6403823734364 133.0248318234195 L 386.6219036979672 134.49378229389131 L 387.4851467942384 136.03521375586038 L 388.22478948150405 137.6396227717857 L 388.83627161664106 139.2971176265639 L 389.3158232089478 140.99747931324237 L 389.66048766339065 142.73022453659505 L 389.8681400089954 144.48467034612375 Z" fill-opacity="1" stroke-opacity="1" stroke-miterlimit="10" stroke-width="2"/><text fill="rgb(255,255,255)" stroke="none" font-family="times new roman" font-size="15px" font-style="normal" font-weight="normal" text-decoration="normal" x="367.4375" y="153.75" text-anchor="middle" dominant-baseline="text-after-edge" fill-opacity="1">*39</text><path fill="rgb(69,90,100)" stroke="rgb(76,175,80)" paint-order="fill stroke markers" d=" M 479.1875 281.625 L 479.1181400089954 283.3903296538765 L 478.9104876633906 285.1447754634052 L 478.56582320894773 286.87752068675786 L 478.08627161664094 288.5778823734363 L 477.47478948150393 290.23537722821453 L 476.7351467942383 291.8397862441398 L 475.87190369796707 293.3812177061088 L 474.8903823734363 294.85016817658067 L 473.7966342260007 296.23758108742913 L 472.59740257669733 297.53490257669733 L 471.30008108742913 298.7341342260007 L 469.91266817658067 299.8278823734363 L 468.4437177061088 300.80940369796707 L 466.9022862441398 301.6726467942383 L 465.29787722821453 302.41228948150393 L 463.6403823734363 303.02377161664094 L 461.94002068675786 303.50332320894773 L 460.2072754634052 303.8479876633906 L 458.4528296538765 304.0556400089954 L 456.6875 304.125 L 454.9221703461235 304.0556400089954 L 453.1677245365948 303.8479876633906 L 451.43497931324214 303.50332320894773 L 449.7346176265637 303.02377161664094 L 448.07712277178547 302.41228948150393 L 446.4727137558602 301.6726467942383 L 444.9312822938912 300.80940369796707 L 443.46233182341933 299.8278823734363 L 442.07491891257087 298.7341342260007 L 440.77759742330267 297.53490257669733 L 439.5783657739993 296.23758108742913 L 438.4846176265637 294.85016817658067 L 437.50309630203293 293.3812177061088 L 436.6398532057617 291.8397862441398 L 435.90021051849607 290.23537722821453 L 435.28872838335906 288.5778823734363 L 434.80917679105227 286.87752068675786 L 434.4645123366094 285.1447754634052 L 434.2568599910046 283.3903296538765 L 434.1875 281.625 L 434.2568599910046 279.8596703461235 L 434.4645123366094 278.1052245365948 L 434.80917679105227 276.37247931324214 L 435.28872838335906 274.6721176265637 L 435.90021051849607 273.01462277178547 L 436.6398532057617 271.4102137558602 L 437.50309630203293 269.8687822938912 L 438.4846176265637 268.39983182341933 L 439.5783657739993 267.01241891257087 L 440.77759742330267 265.71509742330267 L 442.07491891257087 264.51586577399934 L 443.46233182341933 263.4221176265637 L 444.9312822938912 262.44059630203293 L 446.47271375586024 261.5773532057617 L 448.0771227717855 260.837710518496 L 449.7346176265637 260.22622838335906 L 451.4349793132422 259.74667679105227 L 453.16772453659485 259.4020123366094 L 454.92217034612355 259.1943599910046 L 456.68750000000006 259.125 L 458.4528296538766 259.1943599910046 L 460.20727546340527 259.4020123366094 L 461.940020686758 259.7466767910523 L 463.6403823734364 260.22622838335906 L 465.29787722821465 260.8377105184961 L 466.90228624413993 261.57735320576177 L 468.443717706109 262.440596302033 L 469.9126681765808 263.42211762656376 L 471.30008108742925 264.5158657739994 L 472.59740257669745 265.7150974233028 L 473.79663422600083 267.012418912571 L 474.8903823734364 268.3998318234195 L 475.8719036979672 269.86878229389134 L 476.7351467942384 271.4102137558604 L 477.47478948150405 273.0146227717857 L 478.08627161664106 274.67211762656393 L 478.5658232089478 276.37247931324237 L 478.91048766339065 278.1052245365951 L 479.1181400089954 279.8596703461238 Z" fill-opacity="1" stroke-opacity="1" stroke-miterlimit="10" stroke-width="2"/><text fill="rgb(255,255,255)" stroke="none" font-family="times new roman" font-size="15px" font-style="normal" font-weight="normal" text-decoration="normal" x="456.6875" y="289.125" text-anchor="middle" dominant-baseline="text-after-edge" fill-opacity="1">*2</text><path fill="rgb(3,169,244)" stroke="none" paint-order="stroke fill markers" d=" M 456.6875 249.125 L 481.1875 249.125 L 481.1875 249.125 A 8 8 0 0 1 489.1875 257.125 L 489.1875 306.125 L 489.1875 306.125 A 8 8 0 0 1 481.1875 314.125 L 432.1875 314.125 L 432.1875 314.125 A 8 8 0 0 1 424.1875 306.125 L 424.1875 257.125 L 424.1875 257.125 A 8 8 0 0 1 432.1875 249.125 L 456.6875 249.125 Z" fill-opacity="0.15"/><path fill="rgb(69,90,100)" stroke="rgb(76,175,80)" paint-order="fill stroke markers" d=" M 750.6875 136.25 L 793.1875 136.25 L 793.1875 136.25 A 5 5 0 0 1 798.1875 141.25 L 798.1875 151.25 L 798.1875 151.25 A 5 5 0 0 1 793.1875 156.25 L 708.1875 156.25 L 708.1875 156.25 A 5 5 0 0 1 703.1875 151.25 L 703.1875 141.25 L 703.1875 141.25 A 5 5 0 0 1 708.1875 136.25 L 750.6875 136.25 Z" fill-opacity="1" stroke-opacity="1" stroke-miterlimit="10" stroke-width="2"/><text fill="rgb(255,255,255)" stroke="none" font-family="times new roman" font-size="10px" font-style="normal" font-weight="normal" text-decoration="normal" x="750.6875" y="151.25" text-anchor="middle" dominant-baseline="text-after-edge" fill-opacity="1">42132025_4213202…</text><path fill="rgb(69,90,100)" stroke="rgb(76,175,80)" paint-order="fill stroke markers" d=" M 474.1875 146.25 L 474.13355334032974 147.62303417523728 L 473.9720459604149 148.98760313820404 L 473.7039736069593 150.33529386747836 L 473.3309890351652 151.65779740156157 L 472.8553918189475 152.94696006638907 L 472.28011417329645 154.19483374544205 L 471.6087028761966 155.3937248825291 L 470.8452974015616 156.53624191511827 L 469.99460439800055 157.6153408457782 L 469.06186867076457 158.62436867076457 L 468.05284084577823 159.55710439800055 L 466.9737419151183 160.4077974015616 L 465.8312248825291 161.17120287619662 L 464.63233374544205 161.84261417329643 L 463.38446006638907 162.4178918189475 L 462.0952974015616 162.89348903516517 L 460.77279386747836 163.26647360695935 L 459.42510313820407 163.5345459604149 L 458.0605341752373 163.69605334032974 L 456.6875 163.75 L 455.3144658247627 163.69605334032974 L 453.94989686179593 163.5345459604149 L 452.60220613252164 163.26647360695935 L 451.2797025984384 162.8934890351652 L 449.99053993361093 162.4178918189475 L 448.74266625455795 161.84261417329643 L 447.5437751174709 161.17120287619662 L 446.4012580848817 160.4077974015616 L 445.32215915422177 159.55710439800055 L 444.31313132923543 158.62436867076457 L 443.38039560199945 157.6153408457782 L 442.5297025984384 156.5362419151183 L 441.7662971238034 155.3937248825291 L 441.09488582670355 154.19483374544208 L 440.5196081810525 152.94696006638907 L 440.0440109648348 151.6577974015616 L 439.6710263930407 150.33529386747836 L 439.4029540395851 148.98760313820404 L 439.24144665967026 147.62303417523728 L 439.1875 146.25 L 439.24144665967026 144.87696582476272 L 439.4029540395851 143.51239686179596 L 439.6710263930407 142.16470613252164 L 440.0440109648348 140.84220259843843 L 440.5196081810525 139.55303993361093 L 441.09488582670355 138.30516625455795 L 441.7662971238034 137.1062751174709 L 442.5297025984384 135.96375808488173 L 443.38039560199945 134.8846591542218 L 444.31313132923543 133.87563132923543 L 445.32215915422177 132.94289560199945 L 446.4012580848817 132.09220259843843 L 447.5437751174709 131.32879712380338 L 448.74266625455795 130.65738582670355 L 449.99053993361093 130.0821081810525 L 451.27970259843846 129.6065109648348 L 452.6022061325217 129.23352639304065 L 453.949896861796 128.9654540395851 L 455.31446582476275 128.80394665967026 L 456.68750000000006 128.75 L 458.06053417523736 128.80394665967026 L 459.4251031382041 128.9654540395851 L 460.7727938674784 129.23352639304068 L 462.09529740156165 129.60651096483485 L 463.3844600663892 130.08210818105252 L 464.63233374544217 130.6573858267036 L 465.8312248825292 131.32879712380344 L 466.97374191511835 132.0922025984385 L 468.0528408457783 132.94289560199954 L 469.0618686707647 133.87563132923552 L 469.99460439800066 134.8846591542219 L 470.84529740156165 135.96375808488185 L 471.6087028761967 137.10627511747103 L 472.2801141732965 138.3051662545581 L 472.85539181894757 139.5530399336111 L 473.33098903516526 140.8422025984386 L 473.7039736069594 142.16470613252184 L 473.97204596041496 143.51239686179616 L 474.13355334032974 144.87696582476292 Z" fill-opacity="1" stroke-opacity="1" stroke-miterlimit="10" stroke-width="2"/><text fill="rgb(255,255,255)" stroke="none" font-family="times new roman" font-size="10px" font-style="normal" font-weight="normal" text-decoration="normal" x="456.6875" y="151.25" text-anchor="middle" dominant-baseline="text-after-edge" fill-opacity="1">*2.4</text><path fill="rgb(69,90,100)" stroke="rgb(76,175,80)" paint-order="fill stroke markers" d=" M 814.9375 136.25 L 814.9375 156.25 L 909.9375 156.25 L 909.9375 136.25 Z" fill-opacity="1" stroke-opacity="1" stroke-miterlimit="10" stroke-width="2"/><text fill="rgb(255,255,255)" stroke="none" font-family="times new roman" font-size="10px" font-style="normal" font-weight="normal" text-decoration="normal" x="862.4375" y="151.25" text-anchor="middle" dominant-baseline="text-after-edge" fill-opacity="1">42129950A&gt;C</text><path fill="rgb(69,90,100)" stroke="rgb(76,175,80)" paint-order="fill stroke markers" d=" M 338.4375 75.75 L 338.38355334032974 77.12303417523728 L 338.2220459604149 78.48760313820404 L 337.9539736069593 79.83529386747834 L 337.5809890351652 81.15779740156158 L 337.1053918189475 82.44696006638907 L 336.53011417329645 83.69483374544207 L 335.8587028761966 84.8937248825291 L 335.0952974015616 86.03624191511828 L 334.24460439800055 87.1153408457782 L 333.31186867076457 88.12436867076458 L 332.30284084577823 89.05710439800055 L 331.2237419151183 89.90779740156158 L 330.0812248825291 90.67120287619662 L 328.88233374544205 91.34261417329644 L 327.63446006638907 91.91789181894751 L 326.3452974015616 92.39348903516519 L 325.02279386747836 92.76647360695934 L 323.67510313820407 93.0345459604149 L 322.3105341752373 93.19605334032974 L 320.9375 93.25 L 319.5644658247627 93.19605334032974 L 318.19989686179593 93.0345459604149 L 316.85220613252164 92.76647360695934 L 315.5297025984384 92.39348903516519 L 314.24053993361093 91.91789181894751 L 312.99266625455795 91.34261417329644 L 311.7937751174709 90.67120287619662 L 310.6512580848817 89.90779740156158 L 309.57215915422177 89.05710439800055 L 308.56313132923543 88.12436867076458 L 307.63039560199945 87.11534084577822 L 306.7797025984384 86.03624191511828 L 306.0162971238034 84.89372488252911 L 305.34488582670355 83.69483374544207 L 304.7696081810525 82.44696006638907 L 304.2940109648348 81.15779740156158 L 303.9210263930407 79.83529386747834 L 303.6529540395851 78.48760313820404 L 303.49144665967026 77.1230341752373 L 303.4375 75.75 L 303.49144665967026 74.37696582476272 L 303.6529540395851 73.01239686179596 L 303.9210263930407 71.66470613252166 L 304.2940109648348 70.34220259843842 L 304.7696081810525 69.05303993361093 L 305.34488582670355 67.80516625455793 L 306.0162971238034 66.6062751174709 L 306.7797025984384 65.46375808488172 L 307.63039560199945 64.3846591542218 L 308.56313132923543 63.37563132923542 L 309.57215915422177 62.44289560199947 L 310.6512580848817 61.59220259843842 L 311.7937751174709 60.82879712380338 L 312.99266625455795 60.15738582670356 L 314.24053993361093 59.582108181052476 L 315.52970259843846 59.106510964834804 L 316.8522061325217 58.73352639304065 L 318.199896861796 58.46545403958508 L 319.56446582476275 58.30394665967026 L 320.93750000000006 58.25 L 322.31053417523736 58.30394665967027 L 323.6751031382041 58.4654540395851 L 325.0227938674784 58.73352639304068 L 326.34529740156165 59.10651096483484 L 327.6344600663892 59.58210818105252 L 328.88233374544217 60.15738582670361 L 330.0812248825292 60.82879712380345 L 331.22374191511835 61.59220259843849 L 332.3028408457783 62.44289560199954 L 333.3118686707647 63.37563132923552 L 334.24460439800066 64.3846591542219 L 335.09529740156165 65.46375808488185 L 335.8587028761967 66.60627511747103 L 336.5301141732965 67.80516625455807 L 337.10539181894757 69.05303993361109 L 337.58098903516526 70.34220259843859 L 337.9539736069594 71.66470613252184 L 338.22204596041496 73.01239686179616 L 338.38355334032974 74.37696582476292 Z" fill-opacity="1" stroke-opacity="1" stroke-miterlimit="10" stroke-width="2"/><text fill="rgb(255,255,255)" stroke="none" font-family="times new roman" font-size="10px" font-style="normal" font-weight="normal" text-decoration="normal" x="320.9375" y="80.75" text-anchor="middle" dominant-baseline="text-after-edge" fill-opacity="1">*39.2</text><path fill="rgb(69,90,100)" stroke="rgb(76,175,80)" paint-order="fill stroke markers" d=" M 518.8125 75.75 L 518.7585533403297 77.12303417523728 L 518.5970459604149 78.48760313820404 L 518.3289736069594 79.83529386747834 L 517.9559890351652 81.15779740156158 L 517.4803918189475 82.44696006638907 L 516.9051141732964 83.69483374544207 L 516.2337028761966 84.8937248825291 L 515.4702974015615 86.03624191511828 L 514.6196043980005 87.1153408457782 L 513.6868686707646 88.12436867076458 L 512.6778408457782 89.05710439800055 L 511.5987419151183 89.90779740156158 L 510.4562248825291 90.67120287619662 L 509.25733374544205 91.34261417329644 L 508.00946006638907 91.91789181894751 L 506.7202974015616 92.39348903516519 L 505.39779386747836 92.76647360695934 L 504.05010313820407 93.0345459604149 L 502.6855341752373 93.19605334032974 L 501.3125 93.25 L 499.9394658247627 93.19605334032974 L 498.57489686179593 93.0345459604149 L 497.22720613252164 92.76647360695934 L 495.9047025984384 92.39348903516519 L 494.61553993361093 91.91789181894751 L 493.36766625455795 91.34261417329644 L 492.1687751174709 90.67120287619662 L 491.0262580848817 89.90779740156158 L 489.94715915422177 89.05710439800055 L 488.93813132923543 88.12436867076458 L 488.00539560199945 87.11534084577822 L 487.1547025984384 86.03624191511828 L 486.3912971238034 84.89372488252911 L 485.71988582670355 83.69483374544207 L 485.1446081810525 82.44696006638907 L 484.6690109648348 81.15779740156158 L 484.2960263930407 79.83529386747834 L 484.0279540395851 78.48760313820404 L 483.86644665967026 77.1230341752373 L 483.8125 75.75 L 483.86644665967026 74.37696582476272 L 484.0279540395851 73.01239686179596 L 484.2960263930407 71.66470613252166 L 484.6690109648348 70.34220259843842 L 485.1446081810525 69.05303993361093 L 485.71988582670355 67.80516625455793 L 486.3912971238034 66.6062751174709 L 487.1547025984384 65.46375808488172 L 488.00539560199945 64.3846591542218 L 488.93813132923543 63.37563132923542 L 489.94715915422177 62.44289560199947 L 491.0262580848817 61.59220259843842 L 492.1687751174709 60.82879712380338 L 493.36766625455795 60.15738582670356 L 494.61553993361093 59.582108181052476 L 495.90470259843846 59.106510964834804 L 497.2272061325217 58.73352639304065 L 498.574896861796 58.46545403958508 L 499.93946582476275 58.30394665967026 L 501.31250000000006 58.25 L 502.68553417523736 58.30394665967027 L 504.0501031382041 58.4654540395851 L 505.3977938674784 58.73352639304068 L 506.72029740156165 59.10651096483484 L 508.0094600663892 59.58210818105252 L 509.25733374544217 60.15738582670361 L 510.4562248825292 60.82879712380345 L 511.59874191511835 61.59220259843849 L 512.6778408457783 62.44289560199954 L 513.6868686707646 63.37563132923552 L 514.6196043980007 64.3846591542219 L 515.4702974015617 65.46375808488185 L 516.2337028761967 66.60627511747103 L 516.9051141732965 67.80516625455807 L 517.4803918189476 69.05303993361109 L 517.9559890351652 70.34220259843859 L 518.3289736069594 71.66470613252184 L 518.5970459604149 73.01239686179616 L 518.7585533403297 74.37696582476292 Z" fill-opacity="1" stroke-opacity="1" stroke-miterlimit="10" stroke-width="2"/><text fill="rgb(255,255,255)" stroke="none" font-family="times new roman" font-size="10px" font-style="normal" font-weight="normal" text-decoration="normal" x="501.3125" y="80.75" text-anchor="middle" dominant-baseline="text-after-edge" fill-opacity="1">*34.1</text><path fill="rgb(69,90,100)" stroke="rgb(76,175,80)" paint-order="fill stroke markers" d=" M 638.9375 136.25 L 681.4375 136.25 L 681.4375 136.25 A 5 5 0 0 1 686.4375 141.25 L 686.4375 151.25 L 686.4375 151.25 A 5 5 0 0 1 681.4375 156.25 L 596.4375 156.25 L 596.4375 156.25 A 5 5 0 0 1 591.4375 151.25 L 591.4375 141.25 L 591.4375 141.25 A 5 5 0 0 1 596.4375 136.25 L 638.9375 136.25 Z" fill-opacity="1" stroke-opacity="1" stroke-miterlimit="10" stroke-width="2"/><text fill="rgb(255,255,255)" stroke="none" font-family="times new roman" font-size="10px" font-style="normal" font-weight="normal" text-decoration="normal" x="638.9375" y="151.25" text-anchor="middle" dominant-baseline="text-after-edge" fill-opacity="1">42132049dup</text><path fill="rgb(69,90,100)" stroke="rgb(76,175,80)" paint-order="fill stroke markers" d=" M 247.3125 281.625 L 247.25855334032974 282.9980341752373 L 247.0970459604149 284.36260313820407 L 246.82897360695935 285.71029386747836 L 246.45598903516517 287.0327974015616 L 245.9803918189475 288.32196006638907 L 245.40511417329643 289.56983374544205 L 244.73370287619662 290.7687248825291 L 243.9702974015616 291.9112419151183 L 243.11960439800055 292.99034084577823 L 242.18686867076457 293.99936867076457 L 241.1778408457782 294.93210439800055 L 240.09874191511827 295.7827974015616 L 238.9562248825291 296.5462028761966 L 237.75733374544208 297.21761417329645 L 236.50946006638907 297.7928918189475 L 235.2202974015616 298.2684890351652 L 233.89779386747836 298.6414736069593 L 232.55010313820404 298.9095459604149 L 231.18553417523728 299.07105334032974 L 229.8125 299.125 L 228.43946582476272 299.07105334032974 L 227.07489686179596 298.9095459604149 L 225.72720613252164 298.6414736069593 L 224.40470259843843 298.2684890351652 L 223.11553993361093 297.7928918189475 L 221.86766625455795 297.21761417329645 L 220.6687751174709 296.5462028761966 L 219.52625808488173 295.7827974015616 L 218.4471591542218 294.93210439800055 L 217.43813132923543 293.99936867076457 L 216.50539560199945 292.99034084577823 L 215.65470259843843 291.9112419151183 L 214.89129712380338 290.7687248825291 L 214.21988582670357 289.56983374544205 L 213.6446081810525 288.32196006638907 L 213.16901096483483 287.0327974015616 L 212.79602639304065 285.71029386747836 L 212.5279540395851 284.36260313820407 L 212.36644665967026 282.9980341752373 L 212.3125 281.625 L 212.36644665967026 280.2519658247627 L 212.5279540395851 278.88739686179593 L 212.79602639304065 277.53970613252164 L 213.1690109648348 276.2172025984384 L 213.6446081810525 274.92803993361093 L 214.21988582670357 273.68016625455795 L 214.89129712380338 272.4812751174709 L 215.6547025984384 271.3387580848817 L 216.50539560199945 270.25965915422177 L 217.4381313292354 269.25063132923543 L 218.44715915422177 268.31789560199945 L 219.5262580848817 267.4672025984384 L 220.6687751174709 266.7037971238034 L 221.86766625455795 266.03238582670355 L 223.11553993361096 265.4571081810525 L 224.40470259843843 264.9815109648348 L 225.7272061325217 264.6085263930407 L 227.074896861796 264.3404540395851 L 228.43946582476278 264.17894665967026 L 229.81250000000006 264.125 L 231.18553417523736 264.17894665967026 L 232.55010313820412 264.3404540395851 L 233.8977938674784 264.6085263930407 L 235.22029740156165 264.98151096483485 L 236.50946006638915 265.4571081810525 L 237.75733374544217 266.0323858267036 L 238.9562248825292 266.70379712380344 L 240.09874191511838 267.4672025984385 L 241.17784084577832 268.31789560199957 L 242.18686867076468 269.2506313292355 L 243.11960439800063 270.2596591542219 L 243.97029740156168 271.3387580848818 L 244.7337028761967 272.48127511747106 L 245.4051141732965 273.68016625455806 L 245.9803918189476 274.9280399336111 L 246.45598903516523 276.2172025984386 L 246.82897360695938 277.5397061325218 L 247.09704596041493 278.88739686179616 L 247.25855334032974 280.2519658247629 Z" fill-opacity="1" stroke-opacity="1" stroke-miterlimit="10" stroke-width="2"/><text fill="rgb(255,255,255)" stroke="none" font-family="times new roman" font-size="10px" font-style="normal" font-weight="normal" text-decoration="normal" x="229.8125" y="286.625" text-anchor="middle" dominant-baseline="text-after-edge" fill-opacity="1">*1.54</text><path fill="rgb(69,90,100)" stroke="rgb(76,175,80)" paint-order="fill stroke markers" d=" M 935.8125 281.625 L 935.7585533403297 282.9980341752373 L 935.5970459604149 284.36260313820407 L 935.3289736069594 285.71029386747836 L 934.9559890351652 287.0327974015616 L 934.4803918189475 288.32196006638907 L 933.9051141732964 289.56983374544205 L 933.2337028761966 290.7687248825291 L 932.4702974015615 291.9112419151183 L 931.6196043980005 292.99034084577823 L 930.6868686707646 293.99936867076457 L 929.6778408457782 294.93210439800055 L 928.5987419151182 295.7827974015616 L 927.4562248825291 296.5462028761966 L 926.2573337454421 297.21761417329645 L 925.0094600663891 297.7928918189475 L 923.7202974015615 298.2684890351652 L 922.3977938674783 298.6414736069593 L 921.050103138204 298.9095459604149 L 919.6855341752373 299.07105334032974 L 918.3125 299.125 L 916.9394658247627 299.07105334032974 L 915.574896861796 298.9095459604149 L 914.2272061325217 298.6414736069593 L 912.9047025984385 298.2684890351652 L 911.6155399336109 297.7928918189475 L 910.3676662545579 297.21761417329645 L 909.1687751174709 296.5462028761966 L 908.0262580848818 295.7827974015616 L 906.9471591542218 294.93210439800055 L 905.9381313292354 293.99936867076457 L 905.0053956019995 292.99034084577823 L 904.1547025984385 291.9112419151183 L 903.3912971238034 290.7687248825291 L 902.7198858267036 289.56983374544205 L 902.1446081810525 288.32196006638907 L 901.6690109648348 287.0327974015616 L 901.2960263930406 285.71029386747836 L 901.0279540395851 284.36260313820407 L 900.8664466596703 282.9980341752373 L 900.8125 281.625 L 900.8664466596703 280.2519658247627 L 901.0279540395851 278.88739686179593 L 901.2960263930406 277.53970613252164 L 901.6690109648348 276.2172025984384 L 902.1446081810525 274.92803993361093 L 902.7198858267036 273.68016625455795 L 903.3912971238034 272.4812751174709 L 904.1547025984385 271.3387580848817 L 905.0053956019995 270.25965915422177 L 905.9381313292354 269.25063132923543 L 906.9471591542218 268.31789560199945 L 908.0262580848818 267.4672025984384 L 909.1687751174709 266.7037971238034 L 910.3676662545579 266.03238582670355 L 911.615539933611 265.4571081810525 L 912.9047025984385 264.9815109648348 L 914.2272061325217 264.6085263930407 L 915.574896861796 264.3404540395851 L 916.9394658247628 264.17894665967026 L 918.3125000000001 264.125 L 919.6855341752373 264.17894665967026 L 921.0501031382041 264.3404540395851 L 922.3977938674784 264.6085263930407 L 923.7202974015617 264.98151096483485 L 925.0094600663891 265.4571081810525 L 926.2573337454421 266.0323858267036 L 927.4562248825292 266.70379712380344 L 928.5987419151184 267.4672025984385 L 929.6778408457783 268.31789560199957 L 930.6868686707646 269.2506313292355 L 931.6196043980007 270.2596591542219 L 932.4702974015617 271.3387580848818 L 933.2337028761967 272.48127511747106 L 933.9051141732965 273.68016625455806 L 934.4803918189476 274.9280399336111 L 934.9559890351652 276.2172025984386 L 935.3289736069594 277.5397061325218 L 935.5970459604149 278.88739686179616 L 935.7585533403297 280.2519658247629 Z" fill-opacity="1" stroke-opacity="1" stroke-miterlimit="10" stroke-width="2"/><text fill="rgb(255,255,255)" stroke="none" font-family="times new roman" font-size="10px" font-style="normal" font-weight="normal" text-decoration="normal" x="918.3125" y="286.625" text-anchor="middle" dominant-baseline="text-after-edge" fill-opacity="1">*1.58</text><path fill="rgb(69,90,100)" stroke="rgb(255,193,7)" paint-order="fill stroke markers" d=" M 543.0625 65.75 L 543.0625 85.75 L 638.0625 85.75 L 638.0625 65.75 Z" fill-opacity="1" stroke-opacity="1" stroke-miterlimit="10" stroke-width="2"/><text fill="rgb(255,255,255)" stroke="none" font-family="times new roman" font-size="10px" font-style="normal" font-weight="normal" text-decoration="normal" x="590.5625" y="80.75" text-anchor="middle" dominant-baseline="text-after-edge" fill-opacity="1">42127941G&gt;A</text><path fill="rgb(69,90,100)" stroke="rgb(76,175,80)" paint-order="fill stroke markers" d=" M 202.6875 146.25 L 202.63355334032974 147.62303417523728 L 202.4720459604149 148.98760313820404 L 202.20397360695935 150.33529386747836 L 201.83098903516517 151.65779740156157 L 201.3553918189475 152.94696006638907 L 200.78011417329643 154.19483374544205 L 200.10870287619662 155.3937248825291 L 199.3452974015616 156.53624191511827 L 198.49460439800055 157.6153408457782 L 197.56186867076457 158.62436867076457 L 196.5528408457782 159.55710439800055 L 195.47374191511827 160.4077974015616 L 194.3312248825291 161.17120287619662 L 193.13233374544208 161.84261417329643 L 191.88446006638907 162.4178918189475 L 190.5952974015616 162.89348903516517 L 189.27279386747836 163.26647360695935 L 187.92510313820404 163.5345459604149 L 186.56053417523728 163.69605334032974 L 185.1875 163.75 L 183.81446582476272 163.69605334032974 L 182.44989686179596 163.5345459604149 L 181.10220613252164 163.26647360695935 L 179.77970259843843 162.8934890351652 L 178.49053993361093 162.4178918189475 L 177.24266625455795 161.84261417329643 L 176.0437751174709 161.17120287619662 L 174.90125808488173 160.4077974015616 L 173.8221591542218 159.55710439800055 L 172.81313132923543 158.62436867076457 L 171.88039560199945 157.6153408457782 L 171.02970259843843 156.5362419151183 L 170.26629712380338 155.3937248825291 L 169.59488582670357 154.19483374544208 L 169.0196081810525 152.94696006638907 L 168.54401096483483 151.6577974015616 L 168.17102639304065 150.33529386747836 L 167.9029540395851 148.98760313820404 L 167.74144665967026 147.62303417523728 L 167.6875 146.25 L 167.74144665967026 144.87696582476272 L 167.9029540395851 143.51239686179596 L 168.17102639304065 142.16470613252164 L 168.5440109648348 140.84220259843843 L 169.0196081810525 139.55303993361093 L 169.59488582670357 138.30516625455795 L 170.26629712380338 137.1062751174709 L 171.0297025984384 135.96375808488173 L 171.88039560199945 134.8846591542218 L 172.8131313292354 133.87563132923543 L 173.82215915422177 132.94289560199945 L 174.9012580848817 132.09220259843843 L 176.0437751174709 131.32879712380338 L 177.24266625455795 130.65738582670355 L 178.49053993361096 130.0821081810525 L 179.77970259843843 129.6065109648348 L 181.1022061325217 129.23352639304065 L 182.449896861796 128.9654540395851 L 183.81446582476278 128.80394665967026 L 185.18750000000006 128.75 L 186.56053417523736 128.80394665967026 L 187.92510313820412 128.9654540395851 L 189.2727938674784 129.23352639304068 L 190.59529740156165 129.60651096483485 L 191.88446006638915 130.08210818105252 L 193.13233374544217 130.6573858267036 L 194.3312248825292 131.32879712380344 L 195.47374191511838 132.0922025984385 L 196.55284084577832 132.94289560199954 L 197.56186867076468 133.87563132923552 L 198.49460439800063 134.8846591542219 L 199.34529740156168 135.96375808488185 L 200.1087028761967 137.10627511747103 L 200.7801141732965 138.3051662545581 L 201.3553918189476 139.5530399336111 L 201.83098903516523 140.8422025984386 L 202.20397360695938 142.16470613252184 L 202.47204596041493 143.51239686179616 L 202.63355334032974 144.87696582476292 Z" fill-opacity="1" stroke-opacity="1" stroke-miterlimit="10" stroke-width="2"/><text fill="rgb(255,255,255)" stroke="none" font-family="times new roman" font-size="10px" font-style="normal" font-weight="normal" text-decoration="normal" x="185.1875" y="151.25" text-anchor="middle" dominant-baseline="text-after-edge" fill-opacity="1">*1.41</text><path fill="rgb(69,90,100)" stroke="rgb(76,175,80)" paint-order="fill stroke markers" d=" M 226.9375 136.25 L 226.9375 156.25 L 321.9375 156.25 L 321.9375 136.25 Z" fill-opacity="1" stroke-opacity="1" stroke-miterlimit="10" stroke-width="2"/><text fill="rgb(255,255,255)" stroke="none" font-family="times new roman" font-size="10px" font-style="normal" font-weight="normal" text-decoration="normal" x="274.4375" y="151.25" text-anchor="middle" dominant-baseline="text-after-edge" fill-opacity="1">42130047G&gt;C</text><path fill="rgb(69,90,100)" stroke="rgb(255,193,7)" paint-order="fill stroke markers" d=" M 364.5625 65.75 L 364.5625 85.75 L 459.5625 85.75 L 459.5625 65.75 Z" fill-opacity="1" stroke-opacity="1" stroke-miterlimit="10" stroke-width="2"/><text fill="rgb(255,255,255)" stroke="none" font-family="times new roman" font-size="10px" font-style="normal" font-weight="normal" text-decoration="normal" x="412.0625" y="80.75" text-anchor="middle" dominant-baseline="text-after-edge" fill-opacity="1">42126611C&gt;G</text><path fill="rgb(69,90,100)" stroke="rgb(76,175,80)" paint-order="fill stroke markers" d=" M 926.6875 136.25 L 926.6875 156.25 L 1021.6875 156.25 L 1021.6875 136.25 Z" fill-opacity="1" stroke-opacity="1" stroke-miterlimit="10" stroke-width="2"/><text fill="rgb(255,255,255)" stroke="none" font-family="times new roman" font-size="10px" font-style="normal" font-weight="normal" text-decoration="normal" x="974.1875" y="151.25" text-anchor="middle" dominant-baseline="text-after-edge" fill-opacity="1">42130482C&gt;A</text><path fill="rgb(69,90,100)" stroke="rgb(69,90,100)" paint-order="fill stroke markers" d=" M 676.0625 395.75 L 657.3125 413.25 L 676.0625 430.75 L 713.5625 430.75 L 732.3125 413.25 L 713.5625 395.75 Z" fill-opacity="1" stroke-opacity="1" stroke-miterlimit="10" stroke-width="2"/><text fill="rgb(255,255,255)" stroke="none" font-family="times new roman" font-size="10px" font-style="normal" font-weight="normal" text-decoration="normal" x="694.8125" y="418.25" text-anchor="middle" dominant-baseline="text-after-edge" fill-opacity="1">HG00436-B</text><path fill="rgb(69,90,100)" stroke="rgb(76,175,80)" paint-order="fill stroke markers" d=" M 137.6875 65.75 L 137.6875 85.75 L 232.68749999999997 85.75 L 232.6875 65.75 Z" fill-opacity="1" stroke-opacity="1" stroke-miterlimit="10" stroke-width="2"/><text fill="rgb(255,255,255)" stroke="none" font-family="times new roman" font-size="10px" font-style="normal" font-weight="normal" text-decoration="normal" x="185.1875" y="80.75" text-anchor="middle" dominant-baseline="text-after-edge" fill-opacity="1">42127407T&gt;G</text><path fill="rgb(69,90,100)" stroke="rgb(76,175,80)" paint-order="fill stroke markers" d=" M 568.4375 146.25 L 568.3681400089954 148.0153296538765 L 568.1604876633907 149.76977546340518 L 567.8158232089477 151.50252068675786 L 567.3362716166409 153.20288237343632 L 566.724789481504 154.86037722821453 L 565.9851467942383 156.46478624413982 L 565.1219036979671 158.00621770610886 L 564.1403823734363 159.47516817658064 L 563.0466342260007 160.86258108742913 L 561.8474025766973 162.1599025766973 L 560.5500810874291 163.3591342260007 L 559.1626681765806 164.45288237343632 L 557.6937177061088 165.43440369796707 L 556.1522862441398 166.2976467942383 L 554.5478772282145 167.03728948150396 L 552.8903823734363 167.64877161664094 L 551.1900206867579 168.12832320894773 L 549.4572754634052 168.4729876633906 L 547.7028296538765 168.68064000899537 L 545.9375 168.75 L 544.1721703461235 168.68064000899537 L 542.4177245365948 168.4729876633906 L 540.6849793132421 168.12832320894773 L 538.9846176265637 167.64877161664094 L 537.3271227717855 167.03728948150396 L 535.7227137558602 166.2976467942383 L 534.1812822938912 165.43440369796707 L 532.7123318234194 164.45288237343632 L 531.3249189125709 163.3591342260007 L 530.0275974233027 162.15990257669733 L 528.8283657739993 160.86258108742913 L 527.7346176265637 159.47516817658064 L 526.7530963020329 158.00621770610886 L 525.8898532057617 156.46478624413982 L 525.150210518496 154.86037722821453 L 524.5387283833591 153.20288237343632 L 524.0591767910523 151.50252068675786 L 523.7145123366095 149.7697754634052 L 523.5068599910046 148.0153296538765 L 523.4375 146.25 L 523.5068599910046 144.4846703461235 L 523.7145123366093 142.73022453659482 L 524.0591767910523 140.99747931324214 L 524.5387283833591 139.29711762656368 L 525.150210518496 137.63962277178547 L 525.8898532057617 136.0352137558602 L 526.7530963020329 134.49378229389114 L 527.7346176265637 133.02483182341936 L 528.8283657739993 131.63741891257087 L 530.0275974233027 130.3400974233027 L 531.3249189125709 129.1408657739993 L 532.7123318234194 128.04711762656368 L 534.1812822938912 127.06559630203293 L 535.7227137558602 126.20235320576171 L 537.3271227717855 125.46271051849604 L 538.9846176265637 124.85122838335903 L 540.6849793132421 124.37167679105227 L 542.4177245365948 124.02701233660939 L 544.1721703461236 123.81935999100462 L 545.9375000000001 123.75 L 547.7028296538766 123.81935999100463 L 549.4572754634053 124.02701233660942 L 551.190020686758 124.3716767910523 L 552.8903823734364 124.85122838335909 L 554.5478772282146 125.4627105184961 L 556.1522862441399 126.20235320576178 L 557.6937177061089 127.065596302033 L 559.1626681765807 128.04711762656376 L 560.5500810874292 129.14086577399942 L 561.8474025766974 130.3400974233028 L 563.0466342260008 131.637418912571 L 564.1403823734364 133.0248318234195 L 565.1219036979671 134.49378229389131 L 565.9851467942384 136.03521375586038 L 566.724789481504 137.6396227717857 L 567.336271616641 139.2971176265639 L 567.8158232089478 140.99747931324237 L 568.1604876633907 142.73022453659505 L 568.3681400089954 144.48467034612375 Z" fill-opacity="1" stroke-opacity="1" stroke-miterlimit="10" stroke-width="2"/><text fill="rgb(255,255,255)" stroke="none" font-family="times new roman" font-size="15px" font-style="normal" font-weight="normal" text-decoration="normal" x="545.9375" y="153.75" text-anchor="middle" dominant-baseline="text-after-edge" fill-opacity="1">*34</text><path fill="rgb(176,190,197)" stroke="none" paint-order="stroke fill markers" d=" M 961.8125 176.62500000000003 L 961.8125 386.625 L 1036.8125 386.625 L 1036.8125 176.62500000000006 Z" fill-opacity="0.8"/><text fill="rgb(0,0,0)" stroke="none" font-family="times new roman" font-size="10px" font-style="normal" font-weight="normal" text-decoration="normal" x="966.8125" y="191.625" text-anchor="start" dominant-baseline="text-after-edge" fill-opacity="0.8">42126310C&gt;T </text><text fill="rgb(0,0,0)" stroke="none" font-family="times new roman" font-size="10px" font-style="normal" font-weight="normal" text-decoration="normal" x="966.8125" y="201.625" text-anchor="start" dominant-baseline="text-after-edge" fill-opacity="0.8">42127001G&gt;A </text><text fill="rgb(0,0,0)" stroke="none" font-family="times new roman" font-size="10px" font-style="normal" font-weight="normal" text-decoration="normal" x="966.8125" y="211.625" text-anchor="start" dominant-baseline="text-after-edge" fill-opacity="0.8">42127207C&gt;T </text><text fill="rgb(0,0,0)" stroke="none" font-family="times new roman" font-size="10px" font-style="normal" font-weight="normal" text-decoration="normal" x="966.8125" y="221.625" text-anchor="start" dominant-baseline="text-after-edge" fill-opacity="0.8">42127239G&gt;A </text><text fill="rgb(0,0,0)" stroke="none" font-family="times new roman" font-size="10px" font-style="normal" font-weight="normal" text-decoration="normal" x="966.8125" y="231.625" text-anchor="start" dominant-baseline="text-after-edge" fill-opacity="0.8">42129130C&gt;G </text><text fill="rgb(0,0,0)" stroke="none" font-family="times new roman" font-size="10px" font-style="normal" font-weight="normal" text-decoration="normal" x="966.8125" y="241.625" text-anchor="start" dominant-baseline="text-after-edge" fill-opacity="0.8">42131469C&gt;T </text><text fill="rgb(0,0,0)" stroke="none" font-family="times new roman" font-size="10px" font-style="normal" font-weight="normal" text-decoration="normal" x="966.8125" y="251.625" text-anchor="start" dominant-baseline="text-after-edge" fill-opacity="0.8">42131531G&gt;A </text><text fill="rgb(0,0,0)" stroke="none" font-family="times new roman" font-size="10px" font-style="normal" font-weight="normal" text-decoration="normal" x="966.8125" y="261.625" text-anchor="start" dominant-baseline="text-after-edge" fill-opacity="0.8">42132026T&gt;C </text><text fill="rgb(0,0,0)" stroke="none" font-family="times new roman" font-size="10px" font-style="normal" font-weight="normal" text-decoration="normal" x="966.8125" y="271.625" text-anchor="start" dominant-baseline="text-after-edge" fill-opacity="0.8">42132375G&gt;C </text><path fill="rgb(176,190,197)" stroke="none" paint-order="stroke fill markers" d=" M 694.8125 176.625 L 761.8125 176.625 L 761.8125 176.625 A 8 8 0 0 1 769.8125 184.625 L 769.8125 378.625 L 769.8125 378.625 A 8 8 0 0 1 761.8125 386.625 L 627.8125 386.625 L 627.8125 386.625 A 8 8 0 0 1 619.8125 378.625 L 619.8125 184.625 L 619.8125 184.625 A 8 8 0 0 1 627.8125 176.625 L 694.8125 176.625 Z" fill-opacity="0.8"/><text fill="rgb(0,0,0)" stroke="none" font-family="times new roman" font-size="10px" font-style="normal" font-weight="normal" text-decoration="normal" x="624.8125" y="191.625" text-anchor="start" dominant-baseline="text-after-edge" fill-opacity="0.8">42125744G&gt;A </text><text fill="rgb(0,0,0)" stroke="none" font-family="times new roman" font-size="10px" font-style="normal" font-weight="normal" text-decoration="normal" x="624.8125" y="201.625" text-anchor="start" dominant-baseline="text-after-edge" fill-opacity="0.8">42125890G&gt;A </text><text fill="rgb(0,0,0)" stroke="none" font-family="times new roman" font-size="10px" font-style="normal" font-weight="normal" text-decoration="normal" x="624.8125" y="211.625" text-anchor="start" dominant-baseline="text-after-edge" fill-opacity="0.8">42125913T&gt;C </text><text fill="rgb(0,0,0)" stroke="none" font-family="times new roman" font-size="10px" font-style="normal" font-weight="normal" text-decoration="normal" x="624.8125" y="221.625" text-anchor="start" dominant-baseline="text-after-edge" fill-opacity="0.8">42125915T&gt;G </text><text fill="rgb(0,0,0)" stroke="none" font-family="times new roman" font-size="10px" font-style="normal" font-weight="normal" text-decoration="normal" x="624.8125" y="231.625" text-anchor="start" dominant-baseline="text-after-edge" fill-opacity="0.8">42125924A&gt;G </text><text fill="rgb(0,0,0)" stroke="none" font-family="times new roman" font-size="10px" font-style="normal" font-weight="normal" text-decoration="normal" x="624.8125" y="241.625" text-anchor="start" dominant-baseline="text-after-edge" fill-opacity="0.8">42125946A&gt;G </text><text fill="rgb(0,0,0)" stroke="none" font-family="times new roman" font-size="10px" font-style="normal" font-weight="normal" text-decoration="normal" x="624.8125" y="251.625" text-anchor="start" dominant-baseline="text-after-edge" fill-opacity="0.8">42126069A&gt;C </text><text fill="rgb(0,0,0)" stroke="none" font-family="times new roman" font-size="10px" font-style="normal" font-weight="normal" text-decoration="normal" x="624.8125" y="261.625" text-anchor="start" dominant-baseline="text-after-edge" fill-opacity="0.8">42126136_42126138del </text><text fill="rgb(0,0,0)" stroke="none" font-family="times new roman" font-size="10px" font-style="normal" font-weight="normal" text-decoration="normal" x="624.8125" y="271.625" text-anchor="start" dominant-baseline="text-after-edge" fill-opacity="0.8">42132025_42132026insCCTTTT </text><text fill="rgb(0,0,0)" stroke="none" font-family="times new roman" font-size="10px" font-style="normal" font-weight="normal" text-decoration="normal" x="624.8125" y="281.625" text-anchor="start" dominant-baseline="text-after-edge" fill-opacity="0.8">42132027C&gt;T </text><text fill="rgb(0,0,0)" stroke="none" font-family="times new roman" font-size="10px" font-style="normal" font-weight="normal" text-decoration="normal" x="624.8125" y="291.625" text-anchor="start" dominant-baseline="text-after-edge" fill-opacity="0.8">42132561C&gt;T </text><text fill="rgb(0,0,0)" stroke="none" font-family="times new roman" font-size="10px" font-style="normal" font-weight="normal" text-decoration="normal" x="624.8125" y="301.625" text-anchor="start" dominant-baseline="text-after-edge" fill-opacity="0.8">42132844C&gt;A </text><text fill="rgb(0,0,0)" stroke="none" font-family="times new roman" font-size="10px" font-style="normal" font-weight="normal" text-decoration="normal" x="624.8125" y="311.625" text-anchor="start" dominant-baseline="text-after-edge" fill-opacity="0.8">42132851T&gt;C </text><text fill="rgb(0,0,0)" stroke="none" font-family="times new roman" font-size="10px" font-style="normal" font-weight="normal" text-decoration="normal" x="624.8125" y="321.625" text-anchor="start" dominant-baseline="text-after-edge" fill-opacity="0.8">42133400T&gt;G </text><text fill="rgb(0,0,0)" stroke="none" font-family="times new roman" font-size="10px" font-style="normal" font-weight="normal" text-decoration="normal" x="624.8125" y="331.625" text-anchor="start" dominant-baseline="text-after-edge" fill-opacity="0.8">42133533A&gt;C </text><text fill="rgb(0,0,0)" stroke="none" font-family="times new roman" font-size="10px" font-style="normal" font-weight="normal" text-decoration="normal" x="624.8125" y="341.625" text-anchor="start" dominant-baseline="text-after-edge" fill-opacity="0.8">42134096del </text><text fill="rgb(0,0,0)" stroke="none" font-family="times new roman" font-size="10px" font-style="normal" font-weight="normal" text-decoration="normal" x="624.8125" y="351.625" text-anchor="start" dominant-baseline="text-after-edge" fill-opacity="0.8">42134820T&gt;G </text><text fill="rgb(0,0,0)" stroke="none" font-family="times new roman" font-size="10px" font-style="normal" font-weight="normal" text-decoration="normal" x="624.8125" y="361.625" text-anchor="start" dominant-baseline="text-after-edge" fill-opacity="0.8">42135064_42135066dup </text><text fill="rgb(0,0,0)" stroke="none" font-family="times new roman" font-size="10px" font-style="normal" font-weight="normal" text-decoration="normal" x="624.8125" y="371.625" text-anchor="start" dominant-baseline="text-after-edge" fill-opacity="0.8">42135201T&gt;C </text><text fill="rgb(0,0,0)" stroke="none" font-family="times new roman" font-size="10px" font-style="normal" font-weight="normal" text-decoration="normal" x="624.8125" y="381.625" text-anchor="start" dominant-baseline="text-after-edge" fill-opacity="0.8">42135691T&gt;C </text><g transform="scale(0.9426593521421108,0.9426593521421108) translate(113.94118054593321,-44.62740751004577)"/></g></svg>