<svg version="1.1" xmlns="http://www.w3.org/2000/svg" xmlns:xlink="http://www.w3.org/1999/xlink" width="1017" height="608"><defs/><g transform="translate(-119.52447314751862,91.91162474507138) scale(0.86743711760707,0.86743711760707)"><path fill="none" stroke="rgb(55,71,79)" paint-order="fill stroke markers" d=" M 200.420041873574 162.65829849127772 L 251.5204873497844 260.7820262408094" stroke-opacity="1" stroke-linejoin="round" stroke-miterlimit="10" stroke-width="2"/><path fill="none" stroke="rgb(55,71,79)" paint-order="fill stroke markers" d=" M 761.0010387811634 157.25 L 794.6428781107097 259.306336117363" stroke-opacity="1" stroke-linejoin="round" stroke-miterlimit="10" stroke-width="2"/><path fill="none" stroke="rgb(120,144,156)" paint-order="fill stroke markers" d=" M 262.375 169.75 L 262.375 256.125" stroke-opacity="1" stroke-linejoin="round" stroke-miterlimit="10"/><path fill="rgb(120,144,156)" stroke="none" paint-order="stroke fill markers" d=" M 258.025 249.425 L 262.375 258.125 L 266.725 249.425 Z" fill-opacity="1"/><path fill="none" stroke="rgb(120,144,156)" paint-order="fill stroke markers" d=" M 422.1507959057862 160.4504993235529 L 282.6927533788278 266.2159475425277" stroke-opacity="1" stroke-linejoin="round" stroke-miterlimit="10"/><path fill="rgb(120,144,156)" stroke="none" paint-order="stroke fill markers" d=" M 285.40254041600974 258.70132484986243 L 281.0992040942138 267.4245006764471 L 290.65974654855916 265.6332642379331 Z" fill-opacity="1"/><path fill="none" stroke="rgb(120,144,156)" paint-order="fill stroke markers" d=" M 285.0812346821602 287.6811461804242 L 723.8062803714645 404.69671687719153" stroke-opacity="1" stroke-linejoin="round" stroke-miterlimit="10"/><path fill="rgb(120,144,156)" stroke="none" paint-order="stroke fill markers" d=" M 716.2115566159191 407.17313991798113 L 725.7387258763292 405.21213357339786 L 718.4536192444166 398.7670019718197 Z" fill-opacity="1"/><path fill="none" stroke="rgb(55,71,79)" paint-order="fill stroke markers" d=" M 227.64450693813149 91.38165801990523 L 249.80630199750863 126.39356954228255" stroke-opacity="1" stroke-linejoin="round" stroke-miterlimit="10" stroke-width="2"/><path fill="none" stroke="rgb(120,144,156)" paint-order="fill stroke markers" d=" M 604.2502005318574 293.1138722046997 L 733.2051184561668 395.28808482644365" stroke-opacity="1" stroke-linejoin="round" stroke-miterlimit="10"/><path fill="rgb(120,144,156)" stroke="none" paint-order="stroke fill markers" d=" M 725.252256961362 394.5367566395297 L 734.7727077028541 396.53012506478956 L 730.6551319981667 387.71774341644 Z" fill-opacity="1"/><path fill="none" stroke="rgb(120,144,156)" paint-order="fill stroke markers" d=" M 538.4151662049861 157.25 L 581.9287911373248 262.67562819177346" stroke-opacity="1" stroke-linejoin="round" stroke-miterlimit="10"/><path fill="rgb(120,144,156)" stroke="none" paint-order="stroke fill markers" d=" M 575.3516269058267 258.1420412375061 L 582.691835904415 264.52434739257603 L 583.393555429318 254.82279650066346 Z" fill-opacity="1"/><path fill="none" stroke="rgb(120,144,156)" paint-order="fill stroke markers" d=" M 641.0848337950139 157.25 L 597.5712088626752 262.67562819177346" stroke-opacity="1" stroke-linejoin="round" stroke-miterlimit="10"/><path fill="rgb(120,144,156)" stroke="none" paint-order="stroke fill markers" d=" M 596.106444570682 254.82279650066346 L 596.808164095585 264.52434739257603 L 604.1483730941733 258.1420412375061 Z" fill-opacity="1"/><path fill="none" stroke="rgb(120,144,156)" paint-order="fill stroke markers" d=" M 1118.9151662049862 157.25 L 1126.1490050944055 174.77628079919742" stroke-opacity="1" stroke-linejoin="round" stroke-miterlimit="10"/><path fill="rgb(120,144,156)" stroke="none" paint-order="stroke fill markers" d=" M 1119.5718408629077 170.24269384493007 L 1126.912049861496 176.625 L 1127.6137693863989 166.92344910808742 Z" fill-opacity="1"/><path fill="none" stroke="rgb(120,144,156)" paint-order="fill stroke markers" d=" M 733.375 363.890625 L 746.6123929986578 392.9301558908054" stroke-opacity="1" stroke-linejoin="round" stroke-miterlimit="10"/><path fill="rgb(120,144,156)" stroke="none" paint-order="stroke fill markers" d=" M 739.8752108573751 388.6379680110426 L 747.4419515669516 394.75 L 747.7915327323717 385.02938823896443 Z" fill-opacity="1"/><path fill="none" stroke="rgb(120,144,156)" paint-order="fill stroke markers" d=" M 794.2283222354171 303.80271459649276 L 763.0193253671258 392.86253492795805" stroke-opacity="1" stroke-linejoin="round" stroke-miterlimit="10"/><path fill="rgb(120,144,156)" stroke="none" paint-order="stroke fill markers" d=" M 761.129843772571 385.1009397759395 L 762.357905982906 394.75 L 769.3403168359534 387.9781140972957 Z" fill-opacity="1"/><path fill="none" stroke="rgb(55,71,79)" paint-order="fill stroke markers" d=" M 406.1445069381315 91.38165801990523 L 428.3063019975086 126.39356954228255" stroke-opacity="1" stroke-linejoin="round" stroke-miterlimit="10" stroke-width="2"/><path fill="none" stroke="rgb(55,71,79)" paint-order="fill stroke markers" d=" M 300.0372340425532 86.75 L 274.9436980024914 126.39356954228255" stroke-opacity="1" stroke-linejoin="round" stroke-miterlimit="10" stroke-width="2"/><path fill="none" stroke="rgb(120,144,156)" paint-order="fill stroke markers" d=" M 964.538484255072 290.9780751693985 L 781.5175874749832 398.2240430655775" stroke-opacity="1" stroke-linejoin="round" stroke-miterlimit="10"/><path fill="rgb(120,144,156)" stroke="none" paint-order="stroke fill markers" d=" M 785.099007934666 391.0835999777177 L 779.7920182052612 399.2351863271341 L 789.4974811224372 398.58982630100815 Z" fill-opacity="1"/><path fill="none" stroke="rgb(120,144,156)" paint-order="fill stroke markers" d=" M 939.5010387811634 157.25 L 974.0820851604063 262.1555272513167" stroke-opacity="1" stroke-linejoin="round" stroke-miterlimit="10"/><path fill="rgb(120,144,156)" stroke="none" paint-order="stroke fill markers" d=" M 967.8531956051843 257.1541839408803 L 974.7082231935374 264.0549880072858 L 976.11584989365 254.43048349676005 Z" fill-opacity="1"/><path fill="none" stroke="rgb(120,144,156)" paint-order="fill stroke markers" d=" M 1221.5848337950138 157.25 L 1214.3509949055945 174.77628079919742" stroke-opacity="1" stroke-linejoin="round" stroke-miterlimit="10"/><path fill="rgb(120,144,156)" stroke="none" paint-order="stroke fill markers" d=" M 1212.8862306136011 166.92344910808742 L 1213.587950138504 176.625 L 1220.9281591370923 170.24269384493007 Z" fill-opacity="1"/><path fill="none" stroke="rgb(55,71,79)" paint-order="fill stroke markers" d=" M 1025.125 86.75 L 1025.125 127.75" stroke-opacity="1" stroke-linejoin="round" stroke-miterlimit="10" stroke-width="2"/><path fill="none" stroke="rgb(55,71,79)" paint-order="fill stroke markers" d=" M 840.8332231935374 163.82001199271423 L 809.3571218892903 259.306336117363" stroke-opacity="1" stroke-linejoin="round" stroke-miterlimit="10" stroke-width="2"/><path fill="none" stroke="rgb(55,71,79)" paint-order="fill stroke markers" d=" M 640.2632978723404 86.75 L 463.3937316185108 139.53012453288883" stroke-opacity="1" stroke-linejoin="round" stroke-miterlimit="10" stroke-width="2"/><path fill="none" stroke="rgb(120,144,156)" paint-order="fill stroke markers" d=" M 1019.3332231935374 163.82001199271423 L 986.9179148395937 262.1555272513167" stroke-opacity="1" stroke-linejoin="round" stroke-miterlimit="10"/><path fill="rgb(120,144,156)" stroke="none" paint-order="stroke fill markers" d=" M 984.88415010635 254.43048349676005 L 986.2917768064626 264.0549880072858 L 993.1468043948157 257.1541839408803 Z" fill-opacity="1"/><path fill="none" stroke="rgb(120,144,156)" paint-order="fill stroke markers" d=" M 1095.25 305.4485294117647 L 786.7170999670511 403.453097657525" stroke-opacity="1" stroke-linejoin="round" stroke-miterlimit="10"/><path fill="rgb(120,144,156)" stroke="none" paint-order="stroke fill markers" d=" M 791.7857660364333 397.27886699475465 L 784.8109541163819 404.0585792806787 L 794.419611097152 405.5706014451654 Z" fill-opacity="1"/><path fill="rgb(69,90,100)" stroke="rgb(76,175,80)" paint-order="fill stroke markers" d=" M 1226.125 136.25 L 1268.625 136.25 L 1268.625 136.25 A 5 5 0 0 1 1273.625 141.25 L 1273.625 151.25 L 1273.625 151.25 A 5 5 0 0 1 1268.625 156.25 L 1183.625 156.25 L 1183.625 156.25 A 5 5 0 0 1 1178.625 151.25 L 1178.625 141.25 L 1178.625 141.25 A 5 5 0 0 1 1183.625 136.25 L 1226.125 136.25 Z" fill-opacity="1" stroke-opacity="1" stroke-miterlimit="10" stroke-width="2"/><text fill="rgb(255,255,255)" stroke="none" font-family="times new roman" font-size="10px" font-style="normal" font-weight="normal" text-decoration="normal" x="1226.125" y="151.25" text-anchor="middle" dominant-baseline="text-after-edge" fill-opacity="1">42132049dup</text><path fill="rgb(69,90,100)" stroke="rgb(76,175,80)" paint-order="fill stroke markers" d=" M 209.375 146.25 L 209.32105334032974 147.62303417523728 L 209.1595459604149 148.98760313820404 L 208.89147360695935 150.33529386747836 L 208.51848903516517 151.65779740156157 L 208.0428918189475 152.94696006638907 L 207.46761417329643 154.19483374544205 L 206.79620287619662 155.3937248825291 L 206.0327974015616 156.53624191511827 L 205.18210439800055 157.6153408457782 L 204.24936867076457 158.62436867076457 L 203.2403408457782 159.55710439800055 L 202.16124191511827 160.4077974015616 L 201.0187248825291 161.17120287619662 L 199.81983374544208 161.84261417329643 L 198.57196006638907 162.4178918189475 L 197.2827974015616 162.89348903516517 L 195.96029386747836 163.26647360695935 L 194.61260313820404 163.5345459604149 L 193.24803417523728 163.69605334032974 L 191.875 163.75 L 190.50196582476272 163.69605334032974 L 189.13739686179596 163.5345459604149 L 187.78970613252164 163.26647360695935 L 186.46720259843843 162.8934890351652 L 185.17803993361093 162.4178918189475 L 183.93016625455795 161.84261417329643 L 182.7312751174709 161.17120287619662 L 181.58875808488173 160.4077974015616 L 180.5096591542218 159.55710439800055 L 179.50063132923543 158.62436867076457 L 178.56789560199945 157.6153408457782 L 177.71720259843843 156.5362419151183 L 176.95379712380338 155.3937248825291 L 176.28238582670357 154.19483374544208 L 175.7071081810525 152.94696006638907 L 175.23151096483483 151.6577974015616 L 174.85852639304065 150.33529386747836 L 174.5904540395851 148.98760313820404 L 174.42894665967026 147.62303417523728 L 174.375 146.25 L 174.42894665967026 144.87696582476272 L 174.5904540395851 143.51239686179596 L 174.85852639304065 142.16470613252164 L 175.2315109648348 140.84220259843843 L 175.7071081810525 139.55303993361093 L 176.28238582670357 138.30516625455795 L 176.95379712380338 137.1062751174709 L 177.7172025984384 135.96375808488173 L 178.56789560199945 134.8846591542218 L 179.5006313292354 133.87563132923543 L 180.50965915422177 132.94289560199945 L 181.5887580848817 132.09220259843843 L 182.7312751174709 131.32879712380338 L 183.93016625455795 130.65738582670355 L 185.17803993361096 130.0821081810525 L 186.46720259843843 129.6065109648348 L 187.7897061325217 129.23352639304065 L 189.137396861796 128.9654540395851 L 190.50196582476278 128.80394665967026 L 191.87500000000006 128.75 L 193.24803417523736 128.80394665967026 L 194.61260313820412 128.9654540395851 L 195.9602938674784 129.23352639304068 L 197.28279740156165 129.60651096483485 L 198.57196006638915 130.08210818105252 L 199.81983374544217 130.6573858267036 L 201.0187248825292 131.32879712380344 L 202.16124191511838 132.0922025984385 L 203.24034084577832 132.94289560199954 L 204.24936867076468 133.87563132923552 L 205.18210439800063 134.8846591542219 L 206.03279740156168 135.96375808488185 L 206.7962028761967 137.10627511747103 L 207.4676141732965 138.3051662545581 L 208.0428918189476 139.5530399336111 L 208.51848903516523 140.8422025984386 L 208.89147360695938 142.16470613252184 L 209.15954596041493 143.51239686179616 L 209.32105334032974 144.87696582476292 Z" fill-opacity="1" stroke-opacity="1" stroke-miterlimit="10" stroke-width="2"/><text fill="rgb(255,255,255)" stroke="none" font-family="times new roman" font-size="10px" font-style="normal" font-weight="normal" text-decoration="normal" x="191.875" y="151.25" text-anchor="middle" dominant-baseline="text-after-edge" fill-opacity="1">*2.4</text><path fill="rgb(69,90,100)" stroke="rgb(76,175,80)" paint-order="fill stroke markers" d=" M 598.125 136.25 L 598.125 156.25 L 693.125 156.25 L 693.125 136.25 Z" fill-opacity="1" stroke-opacity="1" stroke-miterlimit="10" stroke-width="2"/><text fill="rgb(255,255,255)" stroke="none" font-family="times new roman" font-size="10px" font-style="normal" font-weight="normal" text-decoration="normal" x="645.625" y="151.25" text-anchor="middle" dominant-baseline="text-after-edge" fill-opacity="1">42130482C&gt;A</text><path fill="rgb(69,90,100)" stroke="rgb(255,193,7)" paint-order="fill stroke markers" d=" M 259.5 65.75 L 259.5 85.75 L 354.5 85.75 L 354.5 65.75 Z" fill-opacity="1" stroke-opacity="1" stroke-miterlimit="10" stroke-width="2"/><text fill="rgb(255,255,255)" stroke="none" font-family="times new roman" font-size="10px" font-style="normal" font-weight="normal" text-decoration="normal" x="307" y="80.75" text-anchor="middle" dominant-baseline="text-after-edge" fill-opacity="1">42127941G&gt;A</text><path fill="rgb(69,90,100)" stroke="rgb(255,193,7)" paint-order="fill stroke markers" d=" M 709.875 136.25 L 709.875 156.25 L 804.875 156.25 L 804.875 136.25 Z" fill-opacity="1" stroke-opacity="1" stroke-miterlimit="10" stroke-width="2"/><text fill="rgb(255,255,255)" stroke="none" font-family="times new roman" font-size="10px" font-style="normal" font-weight="normal" text-decoration="normal" x="757.375" y="151.25" text-anchor="middle" dominant-baseline="text-after-edge" fill-opacity="1">42130667C&gt;T</text><path fill="rgb(69,90,100)" stroke="rgb(158,158,158)" paint-order="fill stroke markers" d=" M 824.5 281.625 L 824.4306400089954 283.3903296538765 L 824.2229876633907 285.1447754634052 L 823.8783232089477 286.87752068675786 L 823.3987716166409 288.5778823734363 L 822.787289481504 290.23537722821453 L 822.0476467942383 291.8397862441398 L 821.1844036979671 293.3812177061088 L 820.2028823734363 294.85016817658067 L 819.1091342260007 296.23758108742913 L 817.9099025766973 297.53490257669733 L 816.6125810874291 298.7341342260007 L 815.2251681765806 299.8278823734363 L 813.7562177061088 300.80940369796707 L 812.2147862441398 301.6726467942383 L 810.6103772282145 302.41228948150393 L 808.9528823734363 303.02377161664094 L 807.2525206867579 303.50332320894773 L 805.5197754634052 303.8479876633906 L 803.7653296538765 304.0556400089954 L 802 304.125 L 800.2346703461235 304.0556400089954 L 798.4802245365948 303.8479876633906 L 796.7474793132421 303.50332320894773 L 795.0471176265637 303.02377161664094 L 793.3896227717855 302.41228948150393 L 791.7852137558602 301.6726467942383 L 790.2437822938912 300.80940369796707 L 788.7748318234194 299.8278823734363 L 787.3874189125709 298.7341342260007 L 786.0900974233027 297.53490257669733 L 784.8908657739993 296.23758108742913 L 783.7971176265637 294.85016817658067 L 782.8155963020329 293.3812177061088 L 781.9523532057617 291.8397862441398 L 781.212710518496 290.23537722821453 L 780.6012283833591 288.5778823734363 L 780.1216767910523 286.87752068675786 L 779.7770123366095 285.1447754634052 L 779.5693599910046 283.3903296538765 L 779.5 281.625 L 779.5693599910046 279.8596703461235 L 779.7770123366093 278.1052245365948 L 780.1216767910523 276.37247931324214 L 780.6012283833591 274.6721176265637 L 781.212710518496 273.01462277178547 L 781.9523532057617 271.4102137558602 L 782.8155963020329 269.8687822938912 L 783.7971176265637 268.39983182341933 L 784.8908657739993 267.01241891257087 L 786.0900974233027 265.71509742330267 L 787.3874189125709 264.51586577399934 L 788.7748318234194 263.4221176265637 L 790.2437822938912 262.44059630203293 L 791.7852137558602 261.5773532057617 L 793.3896227717855 260.837710518496 L 795.0471176265637 260.22622838335906 L 796.7474793132421 259.74667679105227 L 798.4802245365948 259.4020123366094 L 800.2346703461236 259.1943599910046 L 802.0000000000001 259.125 L 803.7653296538766 259.1943599910046 L 805.5197754634053 259.4020123366094 L 807.252520686758 259.7466767910523 L 808.9528823734364 260.22622838335906 L 810.6103772282146 260.8377105184961 L 812.2147862441399 261.57735320576177 L 813.7562177061089 262.440596302033 L 815.2251681765807 263.42211762656376 L 816.6125810874292 264.5158657739994 L 817.9099025766974 265.7150974233028 L 819.1091342260008 267.012418912571 L 820.2028823734364 268.3998318234195 L 821.1844036979671 269.86878229389134 L 822.0476467942384 271.4102137558604 L 822.787289481504 273.0146227717857 L 823.398771616641 274.67211762656393 L 823.8783232089478 276.37247931324237 L 824.2229876633907 278.1052245365951 L 824.4306400089954 279.8596703461238 Z" fill-opacity="1" stroke-opacity="1" stroke-miterlimit="10" stroke-width="2"/><text fill="rgb(255,255,255)" stroke="none" font-family="times new roman" font-size="15px" font-style="normal" font-weight="normal" text-decoration="normal" x="802" y="289.125" text-anchor="middle" dominant-baseline="text-after-edge" fill-opacity="1">*71</text><path fill="rgb(3,169,244)" stroke="none" paint-order="stroke fill markers" d=" M 802 249.125 L 826.5 249.125 L 826.5 249.125 A 8 8 0 0 1 834.5 257.125 L 834.5 306.125 L 834.5 306.125 A 8 8 0 0 1 826.5 314.125 L 777.5 314.125 L 777.5 314.125 A 8 8 0 0 1 769.5 306.125 L 769.5 257.125 L 769.5 257.125 A 8 8 0 0 1 777.5 249.125 L 802 249.125 Z" fill-opacity="0.15"/><path fill="rgb(69,90,100)" stroke="rgb(76,175,80)" paint-order="fill stroke markers" d=" M 284.875 281.625 L 284.8056400089954 283.3903296538765 L 284.5979876633906 285.1447754634052 L 284.25332320894773 286.87752068675786 L 283.77377161664094 288.5778823734363 L 283.16228948150393 290.23537722821453 L 282.4226467942383 291.8397862441398 L 281.55940369796707 293.3812177061088 L 280.5778823734363 294.85016817658067 L 279.4841342260007 296.23758108742913 L 278.28490257669733 297.53490257669733 L 276.98758108742913 298.7341342260007 L 275.60016817658067 299.8278823734363 L 274.1312177061088 300.80940369796707 L 272.5897862441398 301.6726467942383 L 270.98537722821453 302.41228948150393 L 269.3278823734363 303.02377161664094 L 267.62752068675786 303.50332320894773 L 265.8947754634052 303.8479876633906 L 264.1403296538765 304.0556400089954 L 262.375 304.125 L 260.6096703461235 304.0556400089954 L 258.8552245365948 303.8479876633906 L 257.12247931324214 303.50332320894773 L 255.42211762656368 303.02377161664094 L 253.76462277178547 302.41228948150393 L 252.1602137558602 301.6726467942383 L 250.61878229389114 300.80940369796707 L 249.14983182341936 299.8278823734363 L 247.76241891257087 298.7341342260007 L 246.4650974233027 297.53490257669733 L 245.2658657739993 296.23758108742913 L 244.17211762656368 294.85016817658067 L 243.19059630203293 293.3812177061088 L 242.3273532057617 291.8397862441398 L 241.58771051849604 290.23537722821453 L 240.97622838335906 288.5778823734363 L 240.49667679105227 286.87752068675786 L 240.1520123366094 285.1447754634052 L 239.94435999100463 283.3903296538765 L 239.875 281.625 L 239.94435999100463 279.8596703461235 L 240.1520123366094 278.1052245365948 L 240.49667679105227 276.37247931324214 L 240.97622838335906 274.6721176265637 L 241.58771051849604 273.01462277178547 L 242.3273532057617 271.4102137558602 L 243.19059630203293 269.8687822938912 L 244.17211762656368 268.39983182341933 L 245.2658657739993 267.01241891257087 L 246.46509742330267 265.71509742330267 L 247.76241891257087 264.51586577399934 L 249.14983182341936 263.4221176265637 L 250.61878229389114 262.44059630203293 L 252.1602137558602 261.5773532057617 L 253.7646227717855 260.837710518496 L 255.4221176265637 260.22622838335906 L 257.1224793132422 259.74667679105227 L 258.85522453659485 259.4020123366094 L 260.60967034612355 259.1943599910046 L 262.37500000000006 259.125 L 264.1403296538766 259.1943599910046 L 265.89477546340527 259.4020123366094 L 267.627520686758 259.7466767910523 L 269.3278823734364 260.22622838335906 L 270.98537722821465 260.8377105184961 L 272.58978624413993 261.57735320576177 L 274.131217706109 262.440596302033 L 275.6001681765808 263.42211762656376 L 276.98758108742925 264.5158657739994 L 278.28490257669745 265.7150974233028 L 279.48413422600083 267.012418912571 L 280.5778823734364 268.3998318234195 L 281.5594036979672 269.86878229389134 L 282.4226467942384 271.4102137558604 L 283.16228948150405 273.0146227717857 L 283.77377161664106 274.67211762656393 L 284.2533232089478 276.37247931324237 L 284.59798766339065 278.1052245365951 L 284.8056400089954 279.8596703461238 Z" fill-opacity="1" stroke-opacity="1" stroke-miterlimit="10" stroke-width="2"/><text fill="rgb(255,255,255)" stroke="none" font-family="times new roman" font-size="15px" font-style="normal" font-weight="normal" text-decoration="normal" x="262.375" y="289.125" text-anchor="middle" dominant-baseline="text-after-edge" fill-opacity="1">*2</text><path fill="rgb(3,169,244)" stroke="none" paint-order="stroke fill markers" d=" M 262.375 249.125 L 286.875 249.125 L 286.875 249.125 A 8 8 0 0 1 294.875 257.125 L 294.875 306.125 L 294.875 306.125 A 8 8 0 0 1 286.875 314.125 L 237.875 314.125 L 237.875 314.125 A 8 8 0 0 1 229.875 306.125 L 229.875 257.125 L 229.875 257.125 A 8 8 0 0 1 237.875 249.125 L 262.375 249.125 Z" fill-opacity="0.15"/><path fill="rgb(69,90,100)" stroke="rgb(76,175,80)" paint-order="fill stroke markers" d=" M 1114.375 136.25 L 1156.875 136.25 L 1156.875 136.25 A 5 5 0 0 1 1161.875 141.25 L 1161.875 151.25 L 1161.875 151.25 A 5 5 0 0 1 1156.875 156.25 L 1071.875 156.25 L 1071.875 156.25 A 5 5 0 0 1 1066.875 151.25 L 1066.875 141.25 L 1066.875 141.25 A 5 5 0 0 1 1071.875 136.25 L 1114.375 136.25 Z" fill-opacity="1" stroke-opacity="1" stroke-miterlimit="10" stroke-width="2"/><text fill="rgb(255,255,255)" stroke="none" font-family="times new roman" font-size="10px" font-style="normal" font-weight="normal" text-decoration="normal" x="1114.375" y="151.25" text-anchor="middle" dominant-baseline="text-after-edge" fill-opacity="1">42132025_4213202…</text><path fill="rgb(69,90,100)" stroke="rgb(76,175,80)" paint-order="fill stroke markers" d=" M 977.625 65.75 L 977.625 85.75 L 1072.625 85.75 L 1072.625 65.75 Z" fill-opacity="1" stroke-opacity="1" stroke-miterlimit="10" stroke-width="2"/><text fill="rgb(255,255,255)" stroke="none" font-family="times new roman" font-size="10px" font-style="normal" font-weight="normal" text-decoration="normal" x="1025.125" y="80.75" text-anchor="middle" dominant-baseline="text-after-edge" fill-opacity="1">42127407T&gt;G</text><path fill="rgb(69,90,100)" stroke="rgb(76,175,80)" paint-order="fill stroke markers" d=" M 486.375 136.25 L 486.375 156.25 L 581.375 156.25 L 581.375 136.25 Z" fill-opacity="1" stroke-opacity="1" stroke-miterlimit="10" stroke-width="2"/><text fill="rgb(255,255,255)" stroke="none" font-family="times new roman" font-size="10px" font-style="normal" font-weight="normal" text-decoration="normal" x="533.875" y="151.25" text-anchor="middle" dominant-baseline="text-after-edge" fill-opacity="1">42129950A&gt;C</text><path fill="rgb(69,90,100)" stroke="rgb(76,175,80)" paint-order="fill stroke markers" d=" M 998 281.625 L 997.9460533403297 282.9980341752373 L 997.7845459604149 284.36260313820407 L 997.5164736069594 285.71029386747836 L 997.1434890351652 287.0327974015616 L 996.6678918189475 288.32196006638907 L 996.0926141732964 289.56983374544205 L 995.4212028761966 290.7687248825291 L 994.6577974015615 291.9112419151183 L 993.8071043980005 292.99034084577823 L 992.8743686707646 293.99936867076457 L 991.8653408457782 294.93210439800055 L 990.7862419151182 295.7827974015616 L 989.6437248825291 296.5462028761966 L 988.4448337454421 297.21761417329645 L 987.1969600663891 297.7928918189475 L 985.9077974015615 298.2684890351652 L 984.5852938674783 298.6414736069593 L 983.237603138204 298.9095459604149 L 981.8730341752373 299.07105334032974 L 980.5 299.125 L 979.1269658247627 299.07105334032974 L 977.762396861796 298.9095459604149 L 976.4147061325217 298.6414736069593 L 975.0922025984385 298.2684890351652 L 973.8030399336109 297.7928918189475 L 972.5551662545579 297.21761417329645 L 971.3562751174709 296.5462028761966 L 970.2137580848818 295.7827974015616 L 969.1346591542218 294.93210439800055 L 968.1256313292354 293.99936867076457 L 967.1928956019995 292.99034084577823 L 966.3422025984385 291.9112419151183 L 965.5787971238034 290.7687248825291 L 964.9073858267036 289.56983374544205 L 964.3321081810525 288.32196006638907 L 963.8565109648348 287.0327974015616 L 963.4835263930406 285.71029386747836 L 963.2154540395851 284.36260313820407 L 963.0539466596703 282.9980341752373 L 963 281.625 L 963.0539466596703 280.2519658247627 L 963.2154540395851 278.88739686179593 L 963.4835263930406 277.53970613252164 L 963.8565109648348 276.2172025984384 L 964.3321081810525 274.92803993361093 L 964.9073858267036 273.68016625455795 L 965.5787971238034 272.4812751174709 L 966.3422025984385 271.3387580848817 L 967.1928956019995 270.25965915422177 L 968.1256313292354 269.25063132923543 L 969.1346591542218 268.31789560199945 L 970.2137580848818 267.4672025984384 L 971.3562751174709 266.7037971238034 L 972.5551662545579 266.03238582670355 L 973.803039933611 265.4571081810525 L 975.0922025984385 264.9815109648348 L 976.4147061325217 264.6085263930407 L 977.762396861796 264.3404540395851 L 979.1269658247628 264.17894665967026 L 980.5000000000001 264.125 L 981.8730341752373 264.17894665967026 L 983.2376031382041 264.3404540395851 L 984.5852938674784 264.6085263930407 L 985.9077974015617 264.98151096483485 L 987.1969600663891 265.4571081810525 L 988.4448337454421 266.0323858267036 L 989.6437248825292 266.70379712380344 L 990.7862419151184 267.4672025984385 L 991.8653408457783 268.31789560199957 L 992.8743686707646 269.2506313292355 L 993.8071043980007 270.2596591542219 L 994.6577974015617 271.3387580848818 L 995.4212028761967 272.48127511747106 L 996.0926141732965 273.68016625455806 L 996.6678918189476 274.9280399336111 L 997.1434890351652 276.2172025984386 L 997.5164736069594 277.5397061325218 L 997.7845459604149 278.88739686179616 L 997.9460533403297 280.2519658247629 Z" fill-opacity="1" stroke-opacity="1" stroke-miterlimit="10" stroke-width="2"/><text fill="rgb(255,255,255)" stroke="none" font-family="times new roman" font-size="10px" font-style="normal" font-weight="normal" text-decoration="normal" x="980.5" y="286.625" text-anchor="middle" dominant-baseline="text-after-edge" fill-opacity="1">*1.54</text><path fill="rgb(69,90,100)" stroke="rgb(76,175,80)" paint-order="fill stroke markers" d=" M 463.375 146.25 L 463.3056400089954 148.0153296538765 L 463.0979876633906 149.76977546340518 L 462.75332320894773 151.50252068675786 L 462.27377161664094 153.20288237343632 L 461.66228948150393 154.86037722821453 L 460.9226467942383 156.46478624413982 L 460.05940369796707 158.00621770610886 L 459.0778823734363 159.47516817658064 L 457.9841342260007 160.86258108742913 L 456.78490257669733 162.1599025766973 L 455.48758108742913 163.3591342260007 L 454.10016817658067 164.45288237343632 L 452.6312177061088 165.43440369796707 L 451.0897862441398 166.2976467942383 L 449.48537722821453 167.03728948150396 L 447.8278823734363 167.64877161664094 L 446.12752068675786 168.12832320894773 L 444.3947754634052 168.4729876633906 L 442.6403296538765 168.68064000899537 L 440.875 168.75 L 439.1096703461235 168.68064000899537 L 437.3552245365948 168.4729876633906 L 435.62247931324214 168.12832320894773 L 433.9221176265637 167.64877161664094 L 432.26462277178547 167.03728948150396 L 430.6602137558602 166.2976467942383 L 429.1187822938912 165.43440369796707 L 427.64983182341933 164.45288237343632 L 426.26241891257087 163.3591342260007 L 424.96509742330267 162.15990257669733 L 423.7658657739993 160.86258108742913 L 422.6721176265637 159.47516817658064 L 421.69059630203293 158.00621770610886 L 420.8273532057617 156.46478624413982 L 420.08771051849607 154.86037722821453 L 419.47622838335906 153.20288237343632 L 418.99667679105227 151.50252068675786 L 418.6520123366094 149.7697754634052 L 418.4443599910046 148.0153296538765 L 418.375 146.25 L 418.4443599910046 144.4846703461235 L 418.6520123366094 142.73022453659482 L 418.99667679105227 140.99747931324214 L 419.47622838335906 139.29711762656368 L 420.08771051849607 137.63962277178547 L 420.8273532057617 136.0352137558602 L 421.69059630203293 134.49378229389114 L 422.6721176265637 133.02483182341936 L 423.7658657739993 131.63741891257087 L 424.96509742330267 130.3400974233027 L 426.26241891257087 129.1408657739993 L 427.64983182341933 128.04711762656368 L 429.1187822938912 127.06559630203293 L 430.66021375586024 126.20235320576171 L 432.2646227717855 125.46271051849604 L 433.9221176265637 124.85122838335903 L 435.6224793132422 124.37167679105227 L 437.35522453659485 124.02701233660939 L 439.10967034612355 123.81935999100462 L 440.87500000000006 123.75 L 442.6403296538766 123.81935999100463 L 444.39477546340527 124.02701233660942 L 446.127520686758 124.3716767910523 L 447.8278823734364 124.85122838335909 L 449.48537722821465 125.4627105184961 L 451.08978624413993 126.20235320576178 L 452.631217706109 127.065596302033 L 454.1001681765808 128.04711762656376 L 455.48758108742925 129.14086577399942 L 456.78490257669745 130.3400974233028 L 457.98413422600083 131.637418912571 L 459.0778823734364 133.0248318234195 L 460.0594036979672 134.49378229389131 L 460.9226467942384 136.03521375586038 L 461.66228948150405 137.6396227717857 L 462.27377161664106 139.2971176265639 L 462.7533232089478 140.99747931324237 L 463.09798766339065 142.73022453659505 L 463.3056400089954 144.48467034612375 Z" fill-opacity="1" stroke-opacity="1" stroke-miterlimit="10" stroke-width="2"/><text fill="rgb(255,255,255)" stroke="none" font-family="times new roman" font-size="15px" font-style="normal" font-weight="normal" text-decoration="normal" x="440.875" y="153.75" text-anchor="middle" dominant-baseline="text-after-edge" fill-opacity="1">*39</text><path fill="rgb(69,90,100)" stroke="rgb(76,175,80)" paint-order="fill stroke markers" d=" M 235.25 75.75 L 235.19605334032974 77.12303417523728 L 235.0345459604149 78.48760313820404 L 234.76647360695935 79.83529386747834 L 234.39348903516517 81.15779740156158 L 233.9178918189475 82.44696006638907 L 233.34261417329643 83.69483374544207 L 232.67120287619662 84.8937248825291 L 231.9077974015616 86.03624191511828 L 231.05710439800055 87.1153408457782 L 230.12436867076457 88.12436867076458 L 229.1153408457782 89.05710439800055 L 228.03624191511827 89.90779740156158 L 226.8937248825291 90.67120287619662 L 225.69483374544208 91.34261417329644 L 224.44696006638907 91.91789181894751 L 223.1577974015616 92.39348903516519 L 221.83529386747836 92.76647360695934 L 220.48760313820404 93.0345459604149 L 219.12303417523728 93.19605334032974 L 217.75 93.25 L 216.37696582476272 93.19605334032974 L 215.01239686179596 93.0345459604149 L 213.66470613252164 92.76647360695934 L 212.34220259843843 92.39348903516519 L 211.05303993361093 91.91789181894751 L 209.80516625455795 91.34261417329644 L 208.6062751174709 90.67120287619662 L 207.46375808488173 89.90779740156158 L 206.3846591542218 89.05710439800055 L 205.37563132923543 88.12436867076458 L 204.44289560199945 87.11534084577822 L 203.59220259843843 86.03624191511828 L 202.82879712380338 84.89372488252911 L 202.15738582670357 83.69483374544207 L 201.5821081810525 82.44696006638907 L 201.10651096483483 81.15779740156158 L 200.73352639304065 79.83529386747834 L 200.4654540395851 78.48760313820404 L 200.30394665967026 77.1230341752373 L 200.25 75.75 L 200.30394665967026 74.37696582476272 L 200.4654540395851 73.01239686179596 L 200.73352639304065 71.66470613252166 L 201.1065109648348 70.34220259843842 L 201.5821081810525 69.05303993361093 L 202.15738582670357 67.80516625455793 L 202.82879712380338 66.6062751174709 L 203.5922025984384 65.46375808488172 L 204.44289560199945 64.3846591542218 L 205.3756313292354 63.37563132923542 L 206.38465915422177 62.44289560199947 L 207.4637580848817 61.59220259843842 L 208.6062751174709 60.82879712380338 L 209.80516625455795 60.15738582670356 L 211.05303993361096 59.582108181052476 L 212.34220259843843 59.106510964834804 L 213.6647061325217 58.73352639304065 L 215.012396861796 58.46545403958508 L 216.37696582476278 58.30394665967026 L 217.75000000000006 58.25 L 219.12303417523736 58.30394665967027 L 220.48760313820412 58.4654540395851 L 221.8352938674784 58.73352639304068 L 223.15779740156165 59.10651096483484 L 224.44696006638915 59.58210818105252 L 225.69483374544217 60.15738582670361 L 226.8937248825292 60.82879712380345 L 228.03624191511838 61.59220259843849 L 229.11534084577832 62.44289560199954 L 230.12436867076468 63.37563132923552 L 231.05710439800063 64.3846591542219 L 231.90779740156168 65.46375808488185 L 232.6712028761967 66.60627511747103 L 233.3426141732965 67.80516625455807 L 233.9178918189476 69.05303993361109 L 234.39348903516523 70.34220259843859 L 234.76647360695938 71.66470613252184 L 235.03454596041493 73.01239686179616 L 235.19605334032974 74.37696582476292 Z" fill-opacity="1" stroke-opacity="1" stroke-miterlimit="10" stroke-width="2"/><text fill="rgb(255,255,255)" stroke="none" font-family="times new roman" font-size="10px" font-style="normal" font-weight="normal" text-decoration="normal" x="217.75" y="80.75" text-anchor="middle" dominant-baseline="text-after-edge" fill-opacity="1">*34.1</text><path fill="rgb(69,90,100)" stroke="rgb(76,175,80)" paint-order="fill stroke markers" d=" M 607.25 281.625 L 607.1960533403297 282.9980341752373 L 607.0345459604149 284.36260313820407 L 606.7664736069594 285.71029386747836 L 606.3934890351652 287.0327974015616 L 605.9178918189475 288.32196006638907 L 605.3426141732964 289.56983374544205 L 604.6712028761966 290.7687248825291 L 603.9077974015615 291.9112419151183 L 603.0571043980005 292.99034084577823 L 602.1243686707646 293.99936867076457 L 601.1153408457782 294.93210439800055 L 600.0362419151182 295.7827974015616 L 598.8937248825291 296.5462028761966 L 597.6948337454421 297.21761417329645 L 596.4469600663891 297.7928918189475 L 595.1577974015615 298.2684890351652 L 593.8352938674783 298.6414736069593 L 592.487603138204 298.9095459604149 L 591.1230341752373 299.07105334032974 L 589.75 299.125 L 588.3769658247627 299.07105334032974 L 587.012396861796 298.9095459604149 L 585.6647061325217 298.6414736069593 L 584.3422025984385 298.2684890351652 L 583.0530399336109 297.7928918189475 L 581.8051662545579 297.21761417329645 L 580.6062751174709 296.5462028761966 L 579.4637580848818 295.7827974015616 L 578.3846591542218 294.93210439800055 L 577.3756313292354 293.99936867076457 L 576.4428956019995 292.99034084577823 L 575.5922025984385 291.9112419151183 L 574.8287971238034 290.7687248825291 L 574.1573858267036 289.56983374544205 L 573.5821081810525 288.32196006638907 L 573.1065109648348 287.0327974015616 L 572.7335263930406 285.71029386747836 L 572.4654540395851 284.36260313820407 L 572.3039466596703 282.9980341752373 L 572.25 281.625 L 572.3039466596703 280.2519658247627 L 572.4654540395851 278.88739686179593 L 572.7335263930406 277.53970613252164 L 573.1065109648348 276.2172025984384 L 573.5821081810525 274.92803993361093 L 574.1573858267036 273.68016625455795 L 574.8287971238034 272.4812751174709 L 575.5922025984385 271.3387580848817 L 576.4428956019995 270.25965915422177 L 577.3756313292354 269.25063132923543 L 578.3846591542218 268.31789560199945 L 579.4637580848818 267.4672025984384 L 580.6062751174709 266.7037971238034 L 581.8051662545579 266.03238582670355 L 583.053039933611 265.4571081810525 L 584.3422025984385 264.9815109648348 L 585.6647061325217 264.6085263930407 L 587.012396861796 264.3404540395851 L 588.3769658247628 264.17894665967026 L 589.7500000000001 264.125 L 591.1230341752373 264.17894665967026 L 592.4876031382041 264.3404540395851 L 593.8352938674784 264.6085263930407 L 595.1577974015617 264.98151096483485 L 596.4469600663891 265.4571081810525 L 597.6948337454421 266.0323858267036 L 598.8937248825292 266.70379712380344 L 600.0362419151184 267.4672025984385 L 601.1153408457783 268.31789560199957 L 602.1243686707646 269.2506313292355 L 603.0571043980007 270.2596591542219 L 603.9077974015617 271.3387580848818 L 604.6712028761967 272.48127511747106 L 605.3426141732965 273.68016625455806 L 605.9178918189476 274.9280399336111 L 606.3934890351652 276.2172025984386 L 606.7664736069594 277.5397061325218 L 607.0345459604149 278.88739686179616 L 607.1960533403297 280.2519658247629 Z" fill-opacity="1" stroke-opacity="1" stroke-miterlimit="10" stroke-width="2"/><text fill="rgb(255,255,255)" stroke="none" font-family="times new roman" font-size="10px" font-style="normal" font-weight="normal" text-decoration="normal" x="589.75" y="286.625" text-anchor="middle" dominant-baseline="text-after-edge" fill-opacity="1">*1.58</text><path fill="rgb(69,90,100)" stroke="rgb(158,158,158)" paint-order="fill stroke markers" d=" M 864.125 146.25 L 864.0710533403297 147.62303417523728 L 863.9095459604149 148.98760313820404 L 863.6414736069594 150.33529386747836 L 863.2684890351652 151.65779740156157 L 862.7928918189475 152.94696006638907 L 862.2176141732964 154.19483374544205 L 861.5462028761966 155.3937248825291 L 860.7827974015615 156.53624191511827 L 859.9321043980005 157.6153408457782 L 858.9993686707646 158.62436867076457 L 857.9903408457782 159.55710439800055 L 856.9112419151182 160.4077974015616 L 855.7687248825291 161.17120287619662 L 854.5698337454421 161.84261417329643 L 853.3219600663891 162.4178918189475 L 852.0327974015615 162.89348903516517 L 850.7102938674783 163.26647360695935 L 849.362603138204 163.5345459604149 L 847.9980341752373 163.69605334032974 L 846.625 163.75 L 845.2519658247627 163.69605334032974 L 843.887396861796 163.5345459604149 L 842.5397061325217 163.26647360695935 L 841.2172025984385 162.8934890351652 L 839.9280399336109 162.4178918189475 L 838.6801662545579 161.84261417329643 L 837.4812751174709 161.17120287619662 L 836.3387580848818 160.4077974015616 L 835.2596591542218 159.55710439800055 L 834.2506313292354 158.62436867076457 L 833.3178956019995 157.6153408457782 L 832.4672025984385 156.5362419151183 L 831.7037971238034 155.3937248825291 L 831.0323858267036 154.19483374544208 L 830.4571081810525 152.94696006638907 L 829.9815109648348 151.6577974015616 L 829.6085263930406 150.33529386747836 L 829.3404540395851 148.98760313820404 L 829.1789466596703 147.62303417523728 L 829.125 146.25 L 829.1789466596703 144.87696582476272 L 829.3404540395851 143.51239686179596 L 829.6085263930406 142.16470613252164 L 829.9815109648348 140.84220259843843 L 830.4571081810525 139.55303993361093 L 831.0323858267036 138.30516625455795 L 831.7037971238034 137.1062751174709 L 832.4672025984385 135.96375808488173 L 833.3178956019995 134.8846591542218 L 834.2506313292354 133.87563132923543 L 835.2596591542218 132.94289560199945 L 836.3387580848818 132.09220259843843 L 837.4812751174709 131.32879712380338 L 838.6801662545579 130.65738582670355 L 839.928039933611 130.0821081810525 L 841.2172025984385 129.6065109648348 L 842.5397061325217 129.23352639304065 L 843.887396861796 128.9654540395851 L 845.2519658247628 128.80394665967026 L 846.6250000000001 128.75 L 847.9980341752373 128.80394665967026 L 849.3626031382041 128.9654540395851 L 850.7102938674784 129.23352639304068 L 852.0327974015617 129.60651096483485 L 853.3219600663891 130.08210818105252 L 854.5698337454421 130.6573858267036 L 855.7687248825292 131.32879712380344 L 856.9112419151184 132.0922025984385 L 857.9903408457783 132.94289560199954 L 858.9993686707646 133.87563132923552 L 859.9321043980007 134.8846591542219 L 860.7827974015617 135.96375808488185 L 861.5462028761967 137.10627511747103 L 862.2176141732965 138.3051662545581 L 862.7928918189476 139.5530399336111 L 863.2684890351652 140.8422025984386 L 863.6414736069594 142.16470613252184 L 863.9095459604149 143.51239686179616 L 864.0710533403297 144.87696582476292 Z" fill-opacity="1" stroke-opacity="1" stroke-miterlimit="10" stroke-width="2"/><text fill="rgb(255,255,255)" stroke="none" font-family="times new roman" font-size="10px" font-style="normal" font-weight="normal" text-decoration="normal" x="846.625" y="151.25" text-anchor="middle" dominant-baseline="text-after-edge" fill-opacity="1">*71.2</text><path fill="rgb(69,90,100)" stroke="rgb(76,175,80)" paint-order="fill stroke markers" d=" M 413.75 75.75 L 413.69605334032974 77.12303417523728 L 413.5345459604149 78.48760313820404 L 413.2664736069593 79.83529386747834 L 412.8934890351652 81.15779740156158 L 412.4178918189475 82.44696006638907 L 411.84261417329645 83.69483374544207 L 411.1712028761966 84.8937248825291 L 410.4077974015616 86.03624191511828 L 409.55710439800055 87.1153408457782 L 408.62436867076457 88.12436867076458 L 407.61534084577823 89.05710439800055 L 406.5362419151183 89.90779740156158 L 405.3937248825291 90.67120287619662 L 404.19483374544205 91.34261417329644 L 402.94696006638907 91.91789181894751 L 401.6577974015616 92.39348903516519 L 400.33529386747836 92.76647360695934 L 398.98760313820407 93.0345459604149 L 397.6230341752373 93.19605334032974 L 396.25 93.25 L 394.8769658247627 93.19605334032974 L 393.51239686179593 93.0345459604149 L 392.16470613252164 92.76647360695934 L 390.8422025984384 92.39348903516519 L 389.55303993361093 91.91789181894751 L 388.30516625455795 91.34261417329644 L 387.1062751174709 90.67120287619662 L 385.9637580848817 89.90779740156158 L 384.88465915422177 89.05710439800055 L 383.87563132923543 88.12436867076458 L 382.94289560199945 87.11534084577822 L 382.0922025984384 86.03624191511828 L 381.3287971238034 84.89372488252911 L 380.65738582670355 83.69483374544207 L 380.0821081810525 82.44696006638907 L 379.6065109648348 81.15779740156158 L 379.2335263930407 79.83529386747834 L 378.9654540395851 78.48760313820404 L 378.80394665967026 77.1230341752373 L 378.75 75.75 L 378.80394665967026 74.37696582476272 L 378.9654540395851 73.01239686179596 L 379.2335263930407 71.66470613252166 L 379.6065109648348 70.34220259843842 L 380.0821081810525 69.05303993361093 L 380.65738582670355 67.80516625455793 L 381.3287971238034 66.6062751174709 L 382.0922025984384 65.46375808488172 L 382.94289560199945 64.3846591542218 L 383.87563132923543 63.37563132923542 L 384.88465915422177 62.44289560199947 L 385.9637580848817 61.59220259843842 L 387.1062751174709 60.82879712380338 L 388.30516625455795 60.15738582670356 L 389.55303993361093 59.582108181052476 L 390.84220259843846 59.106510964834804 L 392.1647061325217 58.73352639304065 L 393.512396861796 58.46545403958508 L 394.87696582476275 58.30394665967026 L 396.25000000000006 58.25 L 397.62303417523736 58.30394665967027 L 398.9876031382041 58.4654540395851 L 400.3352938674784 58.73352639304068 L 401.65779740156165 59.10651096483484 L 402.9469600663892 59.58210818105252 L 404.19483374544217 60.15738582670361 L 405.3937248825292 60.82879712380345 L 406.53624191511835 61.59220259843849 L 407.6153408457783 62.44289560199954 L 408.6243686707647 63.37563132923552 L 409.55710439800066 64.3846591542219 L 410.40779740156165 65.46375808488185 L 411.1712028761967 66.60627511747103 L 411.8426141732965 67.80516625455807 L 412.41789181894757 69.05303993361109 L 412.89348903516526 70.34220259843859 L 413.2664736069594 71.66470613252184 L 413.53454596041496 73.01239686179616 L 413.69605334032974 74.37696582476292 Z" fill-opacity="1" stroke-opacity="1" stroke-miterlimit="10" stroke-width="2"/><text fill="rgb(255,255,255)" stroke="none" font-family="times new roman" font-size="10px" font-style="normal" font-weight="normal" text-decoration="normal" x="396.25" y="80.75" text-anchor="middle" dominant-baseline="text-after-edge" fill-opacity="1">*39.2</text><path fill="rgb(69,90,100)" stroke="rgb(255,193,7)" paint-order="fill stroke markers" d=" M 629.625 65.75 L 629.625 85.75 L 724.625 85.75 L 724.625 65.75 Z" fill-opacity="1" stroke-opacity="1" stroke-miterlimit="10" stroke-width="2"/><text fill="rgb(255,255,255)" stroke="none" font-family="times new roman" font-size="10px" font-style="normal" font-weight="normal" text-decoration="normal" x="677.125" y="80.75" text-anchor="middle" dominant-baseline="text-after-edge" fill-opacity="1">42126611C&gt;G</text><path fill="rgb(69,90,100)" stroke="rgb(69,90,100)" paint-order="fill stroke markers" d=" M 737.125 395.75 L 718.375 413.25 L 737.125 430.75 L 774.625 430.75 L 793.375 413.25 L 774.625 395.75 Z" fill-opacity="1" stroke-opacity="1" stroke-miterlimit="10" stroke-width="2"/><text fill="rgb(255,255,255)" stroke="none" font-family="times new roman" font-size="10px" font-style="normal" font-weight="normal" text-decoration="normal" x="755.875" y="418.25" text-anchor="middle" dominant-baseline="text-after-edge" fill-opacity="1">HG00436-all</text><path fill="rgb(69,90,100)" stroke="rgb(76,175,80)" paint-order="fill stroke markers" d=" M 888.375 136.25 L 888.375 156.25 L 983.375 156.25 L 983.375 136.25 Z" fill-opacity="1" stroke-opacity="1" stroke-miterlimit="10" stroke-width="2"/><text fill="rgb(255,255,255)" stroke="none" font-family="times new roman" font-size="10px" font-style="normal" font-weight="normal" text-decoration="normal" x="935.875" y="151.25" text-anchor="middle" dominant-baseline="text-after-edge" fill-opacity="1">42130047G&gt;C</text><path fill="rgb(69,90,100)" stroke="rgb(76,175,80)" paint-order="fill stroke markers" d=" M 1042.625 146.25 L 1042.5710533403299 147.62303417523728 L 1042.409545960415 148.98760313820404 L 1042.1414736069594 150.33529386747836 L 1041.7684890351652 151.65779740156157 L 1041.2928918189475 152.94696006638907 L 1040.7176141732964 154.19483374544205 L 1040.0462028761965 155.3937248825291 L 1039.2827974015615 156.53624191511827 L 1038.4321043980005 157.6153408457782 L 1037.4993686707646 158.62436867076457 L 1036.4903408457783 159.55710439800055 L 1035.4112419151184 160.4077974015616 L 1034.268724882529 161.17120287619662 L 1033.069833745442 161.84261417329643 L 1031.821960066389 162.4178918189475 L 1030.5327974015615 162.89348903516517 L 1029.2102938674784 163.26647360695935 L 1027.8626031382041 163.5345459604149 L 1026.4980341752373 163.69605334032974 L 1025.125 163.75 L 1023.7519658247627 163.69605334032974 L 1022.387396861796 163.5345459604149 L 1021.0397061325217 163.26647360695935 L 1019.7172025984385 162.8934890351652 L 1018.4280399336109 162.4178918189475 L 1017.1801662545579 161.84261417329643 L 1015.9812751174709 161.17120287619662 L 1014.8387580848818 160.4077974015616 L 1013.7596591542218 159.55710439800055 L 1012.7506313292354 158.62436867076457 L 1011.8178956019995 157.6153408457782 L 1010.9672025984385 156.5362419151183 L 1010.2037971238034 155.3937248825291 L 1009.5323858267036 154.19483374544208 L 1008.9571081810525 152.94696006638907 L 1008.4815109648348 151.6577974015616 L 1008.1085263930406 150.33529386747836 L 1007.8404540395851 148.98760313820404 L 1007.6789466596703 147.62303417523728 L 1007.625 146.25 L 1007.6789466596703 144.87696582476272 L 1007.8404540395851 143.51239686179596 L 1008.1085263930406 142.16470613252164 L 1008.4815109648348 140.84220259843843 L 1008.9571081810525 139.55303993361093 L 1009.5323858267036 138.30516625455795 L 1010.2037971238034 137.1062751174709 L 1010.9672025984385 135.96375808488173 L 1011.8178956019995 134.8846591542218 L 1012.7506313292354 133.87563132923543 L 1013.7596591542218 132.94289560199945 L 1014.8387580848818 132.09220259843843 L 1015.9812751174709 131.32879712380338 L 1017.1801662545579 130.65738582670355 L 1018.428039933611 130.0821081810525 L 1019.7172025984385 129.6065109648348 L 1021.0397061325217 129.23352639304065 L 1022.387396861796 128.9654540395851 L 1023.7519658247628 128.80394665967026 L 1025.125 128.75 L 1026.4980341752373 128.80394665967026 L 1027.8626031382041 128.9654540395851 L 1029.2102938674784 129.23352639304068 L 1030.5327974015618 129.60651096483485 L 1031.8219600663892 130.08210818105252 L 1033.069833745442 130.6573858267036 L 1034.268724882529 131.32879712380344 L 1035.4112419151184 132.0922025984385 L 1036.4903408457783 132.94289560199954 L 1037.4993686707646 133.87563132923552 L 1038.4321043980005 134.8846591542219 L 1039.2827974015618 135.96375808488185 L 1040.0462028761967 137.10627511747103 L 1040.7176141732966 138.3051662545581 L 1041.2928918189475 139.5530399336111 L 1041.7684890351652 140.8422025984386 L 1042.1414736069594 142.16470613252184 L 1042.409545960415 143.51239686179616 L 1042.5710533403299 144.87696582476292 Z" fill-opacity="1" stroke-opacity="1" stroke-miterlimit="10" stroke-width="2"/><text fill="rgb(255,255,255)" stroke="none" font-family="times new roman" font-size="10px" font-style="normal" font-weight="normal" text-decoration="normal" x="1025.125" y="151.25" text-anchor="middle" dominant-baseline="text-after-edge" fill-opacity="1">*1.41</text><path fill="rgb(69,90,100)" stroke="rgb(76,175,80)" paint-order="fill stroke markers" d=" M 284.875 146.25 L 284.8056400089954 148.0153296538765 L 284.5979876633906 149.76977546340518 L 284.25332320894773 151.50252068675786 L 283.77377161664094 153.20288237343632 L 283.16228948150393 154.86037722821453 L 282.4226467942383 156.46478624413982 L 281.55940369796707 158.00621770610886 L 280.5778823734363 159.47516817658064 L 279.4841342260007 160.86258108742913 L 278.28490257669733 162.1599025766973 L 276.98758108742913 163.3591342260007 L 275.60016817658067 164.45288237343632 L 274.1312177061088 165.43440369796707 L 272.5897862441398 166.2976467942383 L 270.98537722821453 167.03728948150396 L 269.3278823734363 167.64877161664094 L 267.62752068675786 168.12832320894773 L 265.8947754634052 168.4729876633906 L 264.1403296538765 168.68064000899537 L 262.375 168.75 L 260.6096703461235 168.68064000899537 L 258.8552245365948 168.4729876633906 L 257.12247931324214 168.12832320894773 L 255.42211762656368 167.64877161664094 L 253.76462277178547 167.03728948150396 L 252.1602137558602 166.2976467942383 L 250.61878229389114 165.43440369796707 L 249.14983182341936 164.45288237343632 L 247.76241891257087 163.3591342260007 L 246.4650974233027 162.15990257669733 L 245.2658657739993 160.86258108742913 L 244.17211762656368 159.47516817658064 L 243.19059630203293 158.00621770610886 L 242.3273532057617 156.46478624413982 L 241.58771051849604 154.86037722821453 L 240.97622838335906 153.20288237343632 L 240.49667679105227 151.50252068675786 L 240.1520123366094 149.7697754634052 L 239.94435999100463 148.0153296538765 L 239.875 146.25 L 239.94435999100463 144.4846703461235 L 240.1520123366094 142.73022453659482 L 240.49667679105227 140.99747931324214 L 240.97622838335906 139.29711762656368 L 241.58771051849604 137.63962277178547 L 242.3273532057617 136.0352137558602 L 243.19059630203293 134.49378229389114 L 244.17211762656368 133.02483182341936 L 245.2658657739993 131.63741891257087 L 246.46509742330267 130.3400974233027 L 247.76241891257087 129.1408657739993 L 249.14983182341936 128.04711762656368 L 250.61878229389114 127.06559630203293 L 252.1602137558602 126.20235320576171 L 253.7646227717855 125.46271051849604 L 255.4221176265637 124.85122838335903 L 257.1224793132422 124.37167679105227 L 258.85522453659485 124.02701233660939 L 260.60967034612355 123.81935999100462 L 262.37500000000006 123.75 L 264.1403296538766 123.81935999100463 L 265.89477546340527 124.02701233660942 L 267.627520686758 124.3716767910523 L 269.3278823734364 124.85122838335909 L 270.98537722821465 125.4627105184961 L 272.58978624413993 126.20235320576178 L 274.131217706109 127.065596302033 L 275.6001681765808 128.04711762656376 L 276.98758108742925 129.14086577399942 L 278.28490257669745 130.3400974233028 L 279.48413422600083 131.637418912571 L 280.5778823734364 133.0248318234195 L 281.5594036979672 134.49378229389131 L 282.4226467942384 136.03521375586038 L 283.16228948150405 137.6396227717857 L 283.77377161664106 139.2971176265639 L 284.2533232089478 140.99747931324237 L 284.59798766339065 142.73022453659505 L 284.8056400089954 144.48467034612375 Z" fill-opacity="1" stroke-opacity="1" stroke-miterlimit="10" stroke-width="2"/><text fill="rgb(255,255,255)" stroke="none" font-family="times new roman" font-size="15px" font-style="normal" font-weight="normal" text-decoration="normal" x="262.375" y="153.75" text-anchor="middle" dominant-baseline="text-after-edge" fill-opacity="1">*34</text><path fill="rgb(176,190,197)" stroke="none" paint-order="stroke fill markers" d=" M 658.375 176.62500000000003 L 658.375 386.625 L 733.375 386.625 L 733.375 176.62500000000006 Z" fill-opacity="0.8"/><text fill="rgb(0,0,0)" stroke="none" font-family="times new roman" font-size="10px" font-style="normal" font-weight="normal" text-decoration="normal" x="663.375" y="191.625" text-anchor="start" dominant-baseline="text-after-edge" fill-opacity="0.8">42126310C&gt;T </text><text fill="rgb(0,0,0)" stroke="none" font-family="times new roman" font-size="10px" font-style="normal" font-weight="normal" text-decoration="normal" x="663.375" y="201.625" text-anchor="start" dominant-baseline="text-after-edge" fill-opacity="0.8">42127001G&gt;A </text><text fill="rgb(0,0,0)" stroke="none" font-family="times new roman" font-size="10px" font-style="normal" font-weight="normal" text-decoration="normal" x="663.375" y="211.625" text-anchor="start" dominant-baseline="text-after-edge" fill-opacity="0.8">42127207C&gt;T </text><text fill="rgb(0,0,0)" stroke="none" font-family="times new roman" font-size="10px" font-style="normal" font-weight="normal" text-decoration="normal" x="663.375" y="221.625" text-anchor="start" dominant-baseline="text-after-edge" fill-opacity="0.8">42127239G&gt;A </text><text fill="rgb(0,0,0)" stroke="none" font-family="times new roman" font-size="10px" font-style="normal" font-weight="normal" text-decoration="normal" x="663.375" y="231.625" text-anchor="start" dominant-baseline="text-after-edge" fill-opacity="0.8">42129130C&gt;G </text><text fill="rgb(0,0,0)" stroke="none" font-family="times new roman" font-size="10px" font-style="normal" font-weight="normal" text-decoration="normal" x="663.375" y="241.625" text-anchor="start" dominant-baseline="text-after-edge" fill-opacity="0.8">42131469C&gt;T </text><text fill="rgb(0,0,0)" stroke="none" font-family="times new roman" font-size="10px" font-style="normal" font-weight="normal" text-decoration="normal" x="663.375" y="251.625" text-anchor="start" dominant-baseline="text-after-edge" fill-opacity="0.8">42131531G&gt;A </text><text fill="rgb(0,0,0)" stroke="none" font-family="times new roman" font-size="10px" font-style="normal" font-weight="normal" text-decoration="normal" x="663.375" y="261.625" text-anchor="start" dominant-baseline="text-after-edge" fill-opacity="0.8">42132026T&gt;C </text><text fill="rgb(0,0,0)" stroke="none" font-family="times new roman" font-size="10px" font-style="normal" font-weight="normal" text-decoration="normal" x="663.375" y="271.625" text-anchor="start" dominant-baseline="text-after-edge" fill-opacity="0.8">42132375G&gt;C </text><path fill="rgb(176,190,197)" stroke="none" paint-order="stroke fill markers" d=" M 1170.25 176.625 L 1237.25 176.625 L 1237.25 176.625 A 8 8 0 0 1 1245.25 184.625 L 1245.25 378.625 L 1245.25 378.625 A 8 8 0 0 1 1237.25 386.625 L 1103.25 386.625 L 1103.25 386.625 A 8 8 0 0 1 1095.25 378.625 L 1095.25 184.625 L 1095.25 184.625 A 8 8 0 0 1 1103.25 176.625 L 1170.25 176.625 Z" fill-opacity="0.8"/><text fill="rgb(0,0,0)" stroke="none" font-family="times new roman" font-size="10px" font-style="normal" font-weight="normal" text-decoration="normal" x="1100.25" y="191.625" text-anchor="start" dominant-baseline="text-after-edge" fill-opacity="0.8">42125744G&gt;A </text><text fill="rgb(0,0,0)" stroke="none" font-family="times new roman" font-size="10px" font-style="normal" font-weight="normal" text-decoration="normal" x="1100.25" y="201.625" text-anchor="start" dominant-baseline="text-after-edge" fill-opacity="0.8">42125890G&gt;A </text><text fill="rgb(0,0,0)" stroke="none" font-family="times new roman" font-size="10px" font-style="normal" font-weight="normal" text-decoration="normal" x="1100.25" y="211.625" text-anchor="start" dominant-baseline="text-after-edge" fill-opacity="0.8">42125913T&gt;C </text><text fill="rgb(0,0,0)" stroke="none" font-family="times new roman" font-size="10px" font-style="normal" font-weight="normal" text-decoration="normal" x="1100.25" y="221.625" text-anchor="start" dominant-baseline="text-after-edge" fill-opacity="0.8">42125915T&gt;G </text><text fill="rgb(0,0,0)" stroke="none" font-family="times new roman" font-size="10px" font-style="normal" font-weight="normal" text-decoration="normal" x="1100.25" y="231.625" text-anchor="start" dominant-baseline="text-after-edge" fill-opacity="0.8">42125924A&gt;G </text><text fill="rgb(0,0,0)" stroke="none" font-family="times new roman" font-size="10px" font-style="normal" font-weight="normal" text-decoration="normal" x="1100.25" y="241.625" text-anchor="start" dominant-baseline="text-after-edge" fill-opacity="0.8">42125946A&gt;G </text><text fill="rgb(0,0,0)" stroke="none" font-family="times new roman" font-size="10px" font-style="normal" font-weight="normal" text-decoration="normal" x="1100.25" y="251.625" text-anchor="start" dominant-baseline="text-after-edge" fill-opacity="0.8">42126069A&gt;C </text><text fill="rgb(0,0,0)" stroke="none" font-family="times new roman" font-size="10px" font-style="normal" font-weight="normal" text-decoration="normal" x="1100.25" y="261.625" text-anchor="start" dominant-baseline="text-after-edge" fill-opacity="0.8">42126136_42126138del </text><text fill="rgb(0,0,0)" stroke="none" font-family="times new roman" font-size="10px" font-style="normal" font-weight="normal" text-decoration="normal" x="1100.25" y="271.625" text-anchor="start" dominant-baseline="text-after-edge" fill-opacity="0.8">42132025_42132026insCCTTTT </text><text fill="rgb(0,0,0)" stroke="none" font-family="times new roman" font-size="10px" font-style="normal" font-weight="normal" text-decoration="normal" x="1100.25" y="281.625" text-anchor="start" dominant-baseline="text-after-edge" fill-opacity="0.8">42132027C&gt;T </text><text fill="rgb(0,0,0)" stroke="none" font-family="times new roman" font-size="10px" font-style="normal" font-weight="normal" text-decoration="normal" x="1100.25" y="291.625" text-anchor="start" dominant-baseline="text-after-edge" fill-opacity="0.8">42132561C&gt;T </text><text fill="rgb(0,0,0)" stroke="none" font-family="times new roman" font-size="10px" font-style="normal" font-weight="normal" text-decoration="normal" x="1100.25" y="301.625" text-anchor="start" dominant-baseline="text-after-edge" fill-opacity="0.8">42132844C&gt;A </text><text fill="rgb(0,0,0)" stroke="none" font-family="times new roman" font-size="10px" font-style="normal" font-weight="normal" text-decoration="normal" x="1100.25" y="311.625" text-anchor="start" dominant-baseline="text-after-edge" fill-opacity="0.8">42132851T&gt;C </text><text fill="rgb(0,0,0)" stroke="none" font-family="times new roman" font-size="10px" font-style="normal" font-weight="normal" text-decoration="normal" x="1100.25" y="321.625" text-anchor="start" dominant-baseline="text-after-edge" fill-opacity="0.8">42133400T&gt;G </text><text fill="rgb(0,0,0)" stroke="none" font-family="times new roman" font-size="10px" font-style="normal" font-weight="normal" text-decoration="normal" x="1100.25" y="331.625" text-anchor="start" dominant-baseline="text-after-edge" fill-opacity="0.8">42133533A&gt;C </text><text fill="rgb(0,0,0)" stroke="none" font-family="times new roman" font-size="10px" font-style="normal" font-weight="normal" text-decoration="normal" x="1100.25" y="341.625" text-anchor="start" dominant-baseline="text-after-edge" fill-opacity="0.8">42134096del </text><text fill="rgb(0,0,0)" stroke="none" font-family="times new roman" font-size="10px" font-style="normal" font-weight="normal" text-decoration="normal" x="1100.25" y="351.625" text-anchor="start" dominant-baseline="text-after-edge" fill-opacity="0.8">42134820T&gt;G </text><text fill="rgb(0,0,0)" stroke="none" font-family="times new roman" font-size="10px" font-style="normal" font-weight="normal" text-decoration="normal" x="1100.25" y="361.625" text-anchor="start" dominant-baseline="text-after-edge" fill-opacity="0.8">42135064_42135066dup </text><text fill="rgb(0,0,0)" stroke="none" font-family="times new roman" font-size="10px" font-style="normal" font-weight="normal" text-decoration="normal" x="1100.25" y="371.625" text-anchor="start" dominant-baseline="text-after-edge" fill-opacity="0.8">42135201T&gt;C </text><text fill="rgb(0,0,0)" stroke="none" font-family="times new roman" font-size="10px" font-style="normal" font-weight="normal" text-decoration="normal" x="1100.25" y="381.625" text-anchor="start" dominant-baseline="text-after-edge" fill-opacity="0.8">42135691T&gt;C </text><g transform="scale(1.15282131661442,1.15282131661442) translate(119.52447314751862,-91.91162474507138)"/></g></svg>