<svg version="1.1" xmlns="http://www.w3.org/2000/svg" xmlns:xlink="http://www.w3.org/1999/xlink" width="1017" height="608"><defs/><g transform="translate(-120.5787401574803,95.08661417322836) scale(0.5196850393700787,0.5196850393700787)"><path fill="none" stroke="rgb(120,144,156)" paint-order="fill stroke markers" d=" M 351.8050458715596 286.625 L 394.7033487046882 339.46019783967245" stroke-opacity="1" stroke-linejoin="round" stroke-miterlimit="10"/><path fill="rgb(120,144,156)" stroke="none" paint-order="stroke fill markers" d=" M 387.103131481468 337.0006860670096 L 395.9639976115479 341.0128614650703 L 393.85721825194844 331.51686332216997 Z" fill-opacity="1"/><path fill="none" stroke="rgb(120,144,156)" paint-order="fill stroke markers" d=" M 1110.309052084605 372.3156277806752 L 1125.5747666089514 407.10295299979236" stroke-opacity="1" stroke-linejoin="round" stroke-miterlimit="10"/><path fill="rgb(120,144,156)" stroke="none" paint-order="stroke fill markers" d=" M 1118.8990974298817 402.7157054558738 L 1126.378447915395 408.9343722193248 L 1126.865771034848 399.2196917728435 Z" fill-opacity="1"/><path fill="none" stroke="rgb(120,144,156)" paint-order="fill stroke markers" d=" M 1479.212765957447 366.375 L 1720.013595728723 421.31499514199015" stroke-opacity="1" stroke-linejoin="round" stroke-miterlimit="10"/><path fill="rgb(120,144,156)" stroke="none" paint-order="stroke fill markers" d=" M 1712.5138430579962 424.06566958254575 L 1721.9634888283597 421.7598736647228 L 1714.4490646318832 415.5836345991257 Z" fill-opacity="1"/><path fill="none" stroke="rgb(120,144,156)" paint-order="fill stroke markers" d=" M 657.125 361.885531952874 L 1113.494743415757 423.14758961953754" stroke-opacity="1" stroke-linejoin="round" stroke-miterlimit="10"/><path fill="rgb(120,144,156)" stroke="none" paint-order="stroke fill markers" d=" M 1106.2755627196868 426.56752091672575 L 1115.4769635703174 423.41367843714363 L 1107.4330490762734 417.9448632443885 Z" fill-opacity="1"/><path fill="none" stroke="rgb(120,144,156)" paint-order="fill stroke markers" d=" M 425.1857502771337 361.19479808104603 L 1384.1612047569797 679.008298169321" stroke-opacity="1" stroke-linejoin="round" stroke-miterlimit="10"/><path fill="rgb(120,144,156)" stroke="none" paint-order="stroke fill markers" d=" M 1376.4329264591772 681.0297369024305 L 1386.0596642463995 679.6374655294342 L 1379.169804475669 672.771438123454 Z" fill-opacity="1"/><path fill="none" stroke="rgb(55,71,79)" paint-order="fill stroke markers" d=" M 1145.2056320052552 204.49282077216304 L 1188.5631161014326 255.69155199211724" stroke-opacity="1" stroke-linejoin="round" stroke-miterlimit="10" stroke-width="2"/><path fill="none" stroke="rgb(120,144,156)" paint-order="fill stroke markers" d=" M 1570.741972477064 286.625 L 1618.3307468531573 338.7574262009461" stroke-opacity="1" stroke-linejoin="round" stroke-miterlimit="10"/><path fill="rgb(120,144,156)" stroke="none" paint-order="stroke fill markers" d=" M 1610.600949426058 336.7418042780619 L 1619.6791249106543 340.23454387197313 L 1617.0264112950256 330.87635972794936 Z" fill-opacity="1"/><path fill="none" stroke="rgb(55,71,79)" paint-order="fill stroke markers" d=" M 1165.8035714285713 127.875 L 1191.5540138453187 170.28749339228938" stroke-opacity="1" stroke-linejoin="round" stroke-miterlimit="10" stroke-width="2"/><path fill="none" stroke="rgb(120,144,156)" paint-order="fill stroke markers" d=" M 768.875 363.6452947845805 L 1113.6041991242114 422.4290493744687" stroke-opacity="1" stroke-linejoin="round" stroke-miterlimit="10"/><path fill="rgb(120,144,156)" stroke="none" paint-order="stroke fill markers" d=" M 1106.2683210223165 425.5909147217185 L 1115.5757406730688 422.7652396793986 L 1107.7307488487616 417.0147089841887 Z" fill-opacity="1"/><path fill="none" stroke="rgb(120,144,156)" paint-order="fill stroke markers" d=" M 507.41673127665 429.9671794365778 L 1049.6953112880365 552.9654227864949" stroke-opacity="1" stroke-linejoin="round" stroke-miterlimit="10"/><path fill="rgb(120,144,156)" stroke="none" paint-order="stroke fill markers" d=" M 1042.1990637149195 555.7256351555952 L 1051.64576872335 553.4078205634222 L 1044.1234940445534 547.2411453119814 Z" fill-opacity="1"/><path fill="none" stroke="rgb(120,144,156)" paint-order="fill stroke markers" d=" M 879.1968085106383 366.375 L 1113.8503120387174 421.210125746773" stroke-opacity="1" stroke-linejoin="round" stroke-miterlimit="10"/><path fill="rgb(120,144,156)" stroke="none" paint-order="stroke fill markers" d=" M 1106.3362211927597 423.92138721677094 L 1115.7978425715255 421.6652354300146 L 1108.315948314861 415.4496293990558 Z" fill-opacity="1"/><path fill="none" stroke="rgb(120,144,156)" paint-order="fill stroke markers" d=" M 1573.526595744681 366.375 L 1720.6959519926543 418.9754543243708" stroke-opacity="1" stroke-linejoin="round" stroke-miterlimit="10"/><path fill="rgb(120,144,156)" stroke="none" paint-order="stroke fill markers" d=" M 1712.9227741712784 420.8167056807238 L 1722.5792737494685 419.64858073174923 L 1715.850874043375 412.624256038582 Z" fill-opacity="1"/><path fill="none" stroke="rgb(55,71,79)" paint-order="fill stroke markers" d=" M 762.625 286.4261627906977 L 1014.7534961585209 350.3378048401832" stroke-opacity="1" stroke-linejoin="round" stroke-miterlimit="10" stroke-width="2"/><path fill="none" stroke="rgb(120,144,156)" paint-order="fill stroke markers" d=" M 1474.5 436.875 L 1474.5 450.5" stroke-opacity="1" stroke-linejoin="round" stroke-miterlimit="10"/><path fill="rgb(120,144,156)" stroke="none" paint-order="stroke fill markers" d=" M 1470.15 443.8 L 1474.5 452.5 L 1478.85 443.8 Z" fill-opacity="1"/><path fill="none" stroke="rgb(120,144,156)" paint-order="fill stroke markers" d=" M 1121.262771100549 357.40966802054334 L 1719.6243617534458 423.6203678691277" stroke-opacity="1" stroke-linejoin="round" stroke-miterlimit="10"/><path fill="rgb(120,144,156)" stroke="none" paint-order="stroke fill markers" d=" M 1712.4865848743625 427.2070991420869 L 1721.612228899451 423.84033197945666 L 1713.4434287542938 418.55987705696396 Z" fill-opacity="1"/><path fill="none" stroke="rgb(120,144,156)" paint-order="fill stroke markers" d=" M 1086.9722470519316 564.0945067556826 L 1385.2596033545794 677.8976176928885" stroke-opacity="1" stroke-linejoin="round" stroke-miterlimit="10"/><path fill="rgb(120,144,156)" stroke="none" paint-order="stroke fill markers" d=" M 1377.449121752679 679.5735882016901 L 1387.128224657491 678.6105373421515 L 1380.5503222269729 671.445085534025 Z" fill-opacity="1"/><path fill="none" stroke="rgb(120,144,156)" paint-order="fill stroke markers" d=" M 1203.75 213.875 L 1203.75 248.125" stroke-opacity="1" stroke-linejoin="round" stroke-miterlimit="10"/><path fill="rgb(120,144,156)" stroke="none" paint-order="stroke fill markers" d=" M 1199.4 241.425 L 1203.75 250.125 L 1208.1 241.425 Z" fill-opacity="1"/><path fill="none" stroke="rgb(120,144,156)" paint-order="fill stroke markers" d=" M 1708.5042929280273 281.5335014070655 L 1891.1123629929916 346.793434643397" stroke-opacity="1" stroke-linejoin="round" stroke-miterlimit="10"/><path fill="rgb(120,144,156)" stroke="none" paint-order="stroke fill markers" d=" M 1883.339246238161 348.6349437842302 L 1892.9957070719727 347.4664985929345 L 1886.2670744186491 340.4423970406626 Z" fill-opacity="1"/><path fill="none" stroke="rgb(120,144,156)" paint-order="fill stroke markers" d=" M 1051.3342357980705 367.2515078640349 L 1117.1032642019295 413.99849213596514" stroke-opacity="1" stroke-linejoin="round" stroke-miterlimit="10"/><path fill="rgb(120,144,156)" stroke="none" paint-order="stroke fill markers" d=" M 1109.122059857753 413.6625200887735 L 1118.7334335480828 415.1571758300173 L 1114.16233392688 406.57128343300707 Z" fill-opacity="1"/><path fill="none" stroke="rgb(120,144,156)" paint-order="fill stroke markers" d=" M 1180.3729229267158 276.0254723513782 L 428.01776936180113 353.28097092752114" stroke-opacity="1" stroke-linejoin="round" stroke-miterlimit="10"/><path fill="rgb(120,144,156)" stroke="none" paint-order="stroke fill markers" d=" M 434.23838049637595 348.26933475632876 L 426.028230887479 353.48526644678736 L 435.127066005184 356.9238271196297 Z" fill-opacity="1"/><path fill="none" stroke="rgb(120,144,156)" paint-order="fill stroke markers" d=" M 1726.7074468085107 366.375 L 1735.53039259888 405.86818591879626" stroke-opacity="1" stroke-linejoin="round" stroke-miterlimit="10"/><path fill="rgb(120,144,156)" stroke="none" paint-order="stroke fill markers" d=" M 1729.8242457286 400.2778023993234 L 1735.966451857526 407.8200702194015 L 1738.314942436233 398.38094462421395 Z" fill-opacity="1"/><path fill="none" stroke="rgb(120,144,156)" paint-order="fill stroke markers" d=" M 824.3125 282.14817613865375 L 427.8155975648954 351.82679341463347" stroke-opacity="1" stroke-linejoin="round" stroke-miterlimit="10"/><path fill="rgb(120,144,156)" stroke="none" paint-order="stroke fill markers" d=" M 433.6615636643323 346.38278934003586 L 425.8457831683203 352.1729599107668 L 435.1673879225122 354.9514819651378 Z" fill-opacity="1"/><path fill="none" stroke="rgb(120,144,156)" paint-order="fill stroke markers" d=" M 391.75 279.04548252092565 L 1082.492080352668 353.18717307576645" stroke-opacity="1" stroke-linejoin="round" stroke-miterlimit="10"/><path fill="rgb(120,144,156)" stroke="none" paint-order="stroke fill markers" d=" M 1075.3660994376658 356.79728332325567 L 1084.4806578792368 353.40061960495996 L 1076.2945918396576 348.1469710826806 Z" fill-opacity="1"/><path fill="none" stroke="rgb(120,144,156)" paint-order="fill stroke markers" d=" M 1014.2942413980347 358.0037363254261 L 509.7057586019653 423.2462636745739" stroke-opacity="1" stroke-linejoin="round" stroke-miterlimit="10"/><path fill="rgb(120,144,156)" stroke="none" paint-order="stroke fill markers" d=" M 515.7926405345295 418.0730279038957 L 507.72226995787116 423.5027257551033 L 516.9082505848322 426.7012035057054 Z" fill-opacity="1"/><path fill="none" stroke="rgb(120,144,156)" paint-order="fill stroke markers" d=" M 495.70478723404256 366.375 L 491.5436141191672 405.4900272798282" stroke-opacity="1" stroke-linejoin="round" stroke-miterlimit="10"/><path fill="rgb(120,144,156)" stroke="none" paint-order="stroke fill markers" d=" M 487.9267889126147 398.3674522240463 L 491.33204200998017 407.4788051061864 L 496.57797245727295 399.28779089900996 Z" fill-opacity="1"/><path fill="none" stroke="rgb(120,144,156)" paint-order="fill stroke markers" d=" M 1426.7863247863247 662.5 L 1423.9216056200148 668.804178228055" stroke-opacity="1" stroke-linejoin="round" stroke-miterlimit="10"/><path fill="rgb(120,144,156)" stroke="none" paint-order="stroke fill markers" d=" M 1422.7331433181557 660.9048075343187 L 1423.0941951566952 670.625 L 1430.6537180261166 664.5040430497597 Z" fill-opacity="1"/><path fill="none" stroke="rgb(120,144,156)" paint-order="fill stroke markers" d=" M 1576.9109686609686 436.875 L 1550.7944140192076 467.63644523240976" stroke-opacity="1" stroke-linejoin="round" stroke-miterlimit="10"/><path fill="rgb(120,144,156)" stroke="none" paint-order="stroke fill markers" d=" M 1551.8146337935748 459.71358895376943 L 1549.5 469.16107382550337 L 1558.446768173532 465.3442899373228 Z" fill-opacity="1"/><path fill="none" stroke="rgb(120,144,156)" paint-order="fill stroke markers" d=" M 1650.593980590073 366.6907336300483 L 1722.906019409927 414.5592663699517" stroke-opacity="1" stroke-linejoin="round" stroke-miterlimit="10"/><path fill="rgb(120,144,156)" stroke="none" paint-order="stroke fill markers" d=" M 1714.9180627638684 414.48821272339035 L 1724.5737248333487 415.6632403826393 L 1719.7203497190596 407.23369413150573 Z" fill-opacity="1"/><path fill="none" stroke="rgb(120,144,156)" paint-order="fill stroke markers" d=" M 1387.445978063351 196.72784719590257 L 1661.679021936649 267.27215280409746" stroke-opacity="1" stroke-linejoin="round" stroke-miterlimit="10"/><path fill="rgb(120,144,156)" stroke="none" paint-order="stroke fill markers" d=" M 1654.1065537669774 269.81581666147116 L 1663.6159613925981 267.77041532926626 L 1656.2739957514618 261.3901300280926 Z" fill-opacity="1"/><path fill="none" stroke="rgb(120,144,156)" paint-order="fill stroke markers" d=" M 1055.0233697416243 357.4137525313266 L 1719.6016302583757 423.8362474686734" stroke-opacity="1" stroke-linejoin="round" stroke-miterlimit="10"/><path fill="rgb(120,144,156)" stroke="none" paint-order="stroke fill markers" d=" M 1712.502232659344 427.4983580255601 L 1721.5917151112171 424.0351501546565 L 1713.3674593433702 418.84148891570004 Z" fill-opacity="1"/><path fill="none" stroke="rgb(55,71,79)" paint-order="fill stroke markers" d=" M 1327.5218133262313 134.2390277393602 L 1349.1954273259075 168.77584354372266" stroke-opacity="1" stroke-linejoin="round" stroke-miterlimit="10" stroke-width="2"/><path fill="none" stroke="rgb(120,144,156)" paint-order="fill stroke markers" d=" M 973.5106382978723 366.375 L 1114.5936900461231 418.74146343271696" stroke-opacity="1" stroke-linejoin="round" stroke-miterlimit="10"/><path fill="rgb(120,144,156)" stroke="none" paint-order="stroke fill markers" d=" M 1106.7987187896033 420.488152618013 L 1116.4686958952818 419.437418219769 L 1109.8261221132796 412.3318771741726 Z" fill-opacity="1"/><path fill="none" stroke="rgb(120,144,156)" paint-order="fill stroke markers" d=" M 1183.343085106383 366.375 L 1146.928035247443 410.1195966356594" stroke-opacity="1" stroke-linejoin="round" stroke-miterlimit="10"/><path fill="rgb(120,144,156)" stroke="none" paint-order="stroke fill markers" d=" M 1147.8713562973448 402.18721708114913 L 1145.6484708330584 411.65670915900967 L 1154.5577957739188 407.7533222837225 Z" fill-opacity="1"/><path fill="none" stroke="rgb(120,144,156)" paint-order="fill stroke markers" d=" M 1582.875 581.4972652689153 L 1439.4831447792708 673.2575955924812" stroke-opacity="1" stroke-linejoin="round" stroke-miterlimit="10"/><path fill="rgb(120,144,156)" stroke="none" paint-order="stroke fill markers" d=" M 1442.7818559950033 665.9822258894901 L 1437.7985462020824 674.3356158305726 L 1447.471244030701 673.3102297002598 Z" fill-opacity="1"/><path fill="none" stroke="rgb(120,144,156)" paint-order="fill stroke markers" d=" M 1692.884009009009 201.375 L 1688.6630309748534 248.22785617912692" stroke-opacity="1" stroke-linejoin="round" stroke-miterlimit="10"/><path fill="rgb(120,144,156)" stroke="none" paint-order="stroke fill markers" d=" M 1684.9317459517445 241.16456996969708 L 1688.483577565061 250.21978902782286 L 1693.5966538435716 241.94519230229406 Z" fill-opacity="1"/><path fill="none" stroke="rgb(120,144,156)" paint-order="fill stroke markers" d=" M 1227.0963472022097 276.30792234585226 L 1889.7917296316448 352.46374383747946" stroke-opacity="1" stroke-linejoin="round" stroke-miterlimit="10"/><path fill="rgb(120,144,156)" stroke="none" paint-order="stroke fill markers" d=" M 1882.6389109738038 356.02038343800723 L 1891.7786527977903 352.69207765414774 L 1883.632163076311 347.37726766527425 Z" fill-opacity="1"/><path fill="none" stroke="rgb(120,144,156)" paint-order="fill stroke markers" d=" M 891.6696428571429 284.625 L 1116.105032531582 415.54564397675625" stroke-opacity="1" stroke-linejoin="round" stroke-miterlimit="10"/><path fill="rgb(120,144,156)" stroke="none" paint-order="stroke fill markers" d=" M 1108.1258749345327 415.92714632465305 L 1117.832590333379 416.55338602780444 L 1112.5095528565923 408.4122698868367 Z" fill-opacity="1"/><path fill="none" stroke="rgb(120,144,156)" paint-order="fill stroke markers" d=" M 2029.25 282.8762605042017 L 1655.6316971327842 351.3206218697925" stroke-opacity="1" stroke-linejoin="round" stroke-miterlimit="10"/><path fill="rgb(120,144,156)" stroke="none" paint-order="stroke fill markers" d=" M 1661.4381782849289 345.8345233809035 L 1653.6644351654256 351.68101103692203 L 1663.0058711619424 354.39211293891344 Z" fill-opacity="1"/><path fill="none" stroke="rgb(120,144,156)" paint-order="fill stroke markers" d=" M 1613.2010387549647 358.2389435002376 L 1154.1114612450353 423.0110564997624" stroke-opacity="1" stroke-linejoin="round" stroke-miterlimit="10"/><path fill="rgb(120,144,156)" stroke="none" paint-order="stroke fill markers" d=" M 1160.1380410555576 417.76769538427476 L 1152.131074782105 423.29046562173676 L 1161.3534707361462 426.3823764980215 Z" fill-opacity="1"/><path fill="none" stroke="rgb(120,144,156)" paint-order="fill stroke markers" d=" M 1893.3251673059576 364.1509497783297 L 1759.0168753288453 418.2193842359252" stroke-opacity="1" stroke-linejoin="round" stroke-miterlimit="10"/><path fill="rgb(120,144,156)" stroke="none" paint-order="stroke fill markers" d=" M 1763.6076624571156 411.6820167578872 L 1757.161570418714 418.96627357876173 L 1766.8566310984545 419.75259311695817 Z" fill-opacity="1"/><path fill="none" stroke="rgb(120,144,156)" paint-order="fill stroke markers" d=" M 1663.1022976623149 276.8855714072078 L 1123.1767190605337 352.53067175115916" stroke-opacity="1" stroke-linejoin="round" stroke-miterlimit="10"/><path fill="rgb(120,144,156)" stroke="none" paint-order="stroke fill markers" d=" M 1129.2083624665397 347.29313627893686 L 1121.196063542433 352.80816719007044 L 1130.4154676258038 355.90898778267564 Z" fill-opacity="1"/><path fill="none" stroke="rgb(55,71,79)" paint-order="fill stroke markers" d=" M 1400.716836734694 129.875 L 1376.3045726740925 168.77584354372266" stroke-opacity="1" stroke-linejoin="round" stroke-miterlimit="10" stroke-width="2"/><path fill="none" stroke="rgb(120,144,156)" paint-order="fill stroke markers" d=" M 1290.3164893617022 366.375 L 1152.9744051275172 418.5899885460602" stroke-opacity="1" stroke-linejoin="round" stroke-miterlimit="10"/><path fill="rgb(120,144,156)" stroke="none" paint-order="stroke fill markers" d=" M 1157.6912326655527 412.1429707877141 L 1151.104950968735 419.3007213708348 L 1160.7829204533223 420.27509637841644 Z" fill-opacity="1"/><path fill="none" stroke="rgb(55,71,79)" paint-order="fill stroke markers" d=" M 1238.7739045165274 132.688569031602 L 1215.9459861546813 170.28749339228938" stroke-opacity="1" stroke-linejoin="round" stroke-miterlimit="10" stroke-width="2"/><path fill="none" stroke="rgb(120,144,156)" paint-order="fill stroke markers" d=" M 1340.1592105009317 202.20319638866314 L 1226.3407894990685 261.7968036113369" stroke-opacity="1" stroke-linejoin="round" stroke-miterlimit="10"/><path fill="rgb(120,144,156)" stroke="none" paint-order="stroke fill markers" d=" M 1230.25865755213 254.83528007702353 L 1224.5689628716905 262.7245052888791 L 1234.2941598494388 262.5427259061174 Z" fill-opacity="1"/><path fill="none" stroke="rgb(120,144,156)" paint-order="fill stroke markers" d=" M 1125.7100656693256 442.5063125734895 L 1078.6658731772338 539.070707688836" stroke-opacity="1" stroke-linejoin="round" stroke-miterlimit="10"/><path fill="rgb(120,144,156)" stroke="none" paint-order="stroke fill markers" d=" M 1077.6896623837656 531.1423085763596 L 1077.7899343306744 540.8686874265105 L 1085.5108742426498 534.952642558893 Z" fill-opacity="1"/><path fill="none" stroke="rgb(120,144,156)" paint-order="fill stroke markers" d=" M 1725.6188468232185 437.5125441269172 L 1437.143093688354 670.9534417645826" stroke-opacity="1" stroke-linejoin="round" stroke-miterlimit="10"/><path fill="rgb(120,144,156)" stroke="none" paint-order="stroke fill markers" d=" M 1439.6150077063187 663.3572492256991 L 1435.5883744259993 672.2115546431683 L 1445.0877987281663 670.1202780169423 Z" fill-opacity="1"/><path fill="rgb(69,90,100)" stroke="rgb(255,193,7)" paint-order="fill stroke markers" d=" M 1087.1875 557.5 L 1087.1335533403299 558.8730341752373 L 1086.972045960415 560.237603138204 L 1086.7039736069594 561.5852938674783 L 1086.3309890351652 562.9077974015615 L 1085.8553918189475 564.1969600663891 L 1085.2801141732964 565.4448337454421 L 1084.6087028761965 566.6437248825291 L 1083.8452974015615 567.7862419151182 L 1082.9946043980005 568.8653408457782 L 1082.0618686707646 569.8743686707646 L 1081.0528408457783 570.8071043980005 L 1079.9737419151184 571.6577974015615 L 1078.831224882529 572.4212028761966 L 1077.632333745442 573.0926141732964 L 1076.384460066389 573.6678918189475 L 1075.0952974015615 574.1434890351652 L 1073.7727938674784 574.5164736069594 L 1072.4251031382041 574.7845459604149 L 1071.0605341752373 574.9460533403297 L 1069.6875 575 L 1068.3144658247627 574.9460533403297 L 1066.9498968617959 574.7845459604149 L 1065.6022061325216 574.5164736069594 L 1064.2797025984385 574.1434890351652 L 1062.990539933611 573.6678918189475 L 1061.742666254558 573.0926141732964 L 1060.543775117471 572.4212028761966 L 1059.4012580848816 571.6577974015615 L 1058.3221591542217 570.8071043980005 L 1057.3131313292354 569.8743686707646 L 1056.3803956019995 568.8653408457782 L 1055.5297025984385 567.7862419151182 L 1054.7662971238035 566.6437248825291 L 1054.0948858267036 565.4448337454421 L 1053.5196081810525 564.1969600663891 L 1053.0440109648348 562.9077974015615 L 1052.6710263930406 561.5852938674783 L 1052.402954039585 560.237603138204 L 1052.2414466596701 558.8730341752373 L 1052.1875 557.5 L 1052.2414466596701 556.1269658247627 L 1052.402954039585 554.762396861796 L 1052.6710263930406 553.4147061325217 L 1053.0440109648348 552.0922025984385 L 1053.5196081810525 550.8030399336109 L 1054.0948858267036 549.5551662545579 L 1054.7662971238035 548.3562751174709 L 1055.5297025984385 547.2137580848818 L 1056.3803956019995 546.1346591542218 L 1057.3131313292354 545.1256313292354 L 1058.3221591542217 544.1928956019995 L 1059.4012580848816 543.3422025984385 L 1060.543775117471 542.5787971238034 L 1061.742666254558 541.9073858267036 L 1062.990539933611 541.3321081810525 L 1064.2797025984385 540.8565109648348 L 1065.6022061325216 540.4835263930406 L 1066.949896861796 540.2154540395851 L 1068.3144658247627 540.0539466596703 L 1069.6875 540 L 1071.0605341752373 540.0539466596703 L 1072.4251031382041 540.2154540395851 L 1073.7727938674784 540.4835263930406 L 1075.0952974015618 540.8565109648348 L 1076.3844600663892 541.3321081810525 L 1077.632333745442 541.9073858267036 L 1078.831224882529 542.5787971238035 L 1079.9737419151184 543.3422025984385 L 1081.0528408457783 544.1928956019996 L 1082.0618686707646 545.1256313292355 L 1082.9946043980005 546.1346591542219 L 1083.8452974015618 547.2137580848819 L 1084.6087028761967 548.356275117471 L 1085.2801141732966 549.5551662545581 L 1085.8553918189475 550.8030399336111 L 1086.3309890351652 552.0922025984386 L 1086.7039736069594 553.4147061325218 L 1086.972045960415 554.7623968617961 L 1087.1335533403299 556.1269658247629 Z" fill-opacity="1" stroke-opacity="1" stroke-miterlimit="10" stroke-width="2"/><text fill="rgb(255,255,255)" stroke="none" font-family="times new roman" font-size="10px" font-style="normal" font-weight="normal" text-decoration="normal" x="1069.6875" y="562.5" text-anchor="middle" dominant-baseline="text-after-edge" fill-opacity="1">*10.4</text><path fill="rgb(69,90,100)" stroke="rgb(76,175,80)" paint-order="fill stroke markers" d=" M 1383.5 345.375 L 1383.5 365.375 L 1478.5 365.375 L 1478.5 345.375 Z" fill-opacity="1" stroke-opacity="1" stroke-miterlimit="10" stroke-width="2"/><text fill="rgb(255,255,255)" stroke="none" font-family="times new roman" font-size="10px" font-style="normal" font-weight="normal" text-decoration="normal" x="1431" y="360.375" text-anchor="middle" dominant-baseline="text-after-edge" fill-opacity="1">42127207C&gt;T</text><path fill="rgb(69,90,100)" stroke="rgb(76,175,80)" paint-order="fill stroke markers" d=" M 1511.375 263.625 L 1511.375 283.625 L 1606.375 283.625 L 1606.375 263.625 Z" fill-opacity="1" stroke-opacity="1" stroke-miterlimit="10" stroke-width="6"/><text fill="rgb(255,255,255)" stroke="none" font-family="times new roman" font-size="10px" font-style="normal" font-weight="normal" text-decoration="normal" x="1558.875" y="278.625" text-anchor="middle" dominant-baseline="text-after-edge" fill-opacity="1">42130482C&gt;A</text><path fill="rgb(69,90,100)" stroke="rgb(255,193,7)" paint-order="fill stroke markers" d=" M 1120.375 355.375 L 1120.3210533403299 356.7480341752373 L 1120.159545960415 358.11260313820407 L 1119.8914736069594 359.46029386747836 L 1119.5184890351652 360.7827974015616 L 1119.0428918189475 362.07196006638907 L 1118.4676141732964 363.31983374544205 L 1117.7962028761965 364.5187248825291 L 1117.0327974015615 365.6612419151183 L 1116.1821043980005 366.74034084577823 L 1115.2493686707646 367.74936867076457 L 1114.2403408457783 368.68210439800055 L 1113.1612419151184 369.5327974015616 L 1112.018724882529 370.2962028761966 L 1110.819833745442 370.96761417329645 L 1109.571960066389 371.5428918189475 L 1108.2827974015615 372.0184890351652 L 1106.9602938674784 372.3914736069593 L 1105.6126031382041 372.6595459604149 L 1104.2480341752373 372.82105334032974 L 1102.875 372.875 L 1101.5019658247627 372.82105334032974 L 1100.1373968617959 372.6595459604149 L 1098.7897061325216 372.3914736069593 L 1097.4672025984385 372.0184890351652 L 1096.178039933611 371.5428918189475 L 1094.930166254558 370.96761417329645 L 1093.731275117471 370.2962028761966 L 1092.5887580848816 369.5327974015616 L 1091.5096591542217 368.68210439800055 L 1090.5006313292354 367.74936867076457 L 1089.5678956019995 366.74034084577823 L 1088.7172025984385 365.6612419151183 L 1087.9537971238035 364.5187248825291 L 1087.2823858267036 363.31983374544205 L 1086.7071081810525 362.07196006638907 L 1086.2315109648348 360.7827974015616 L 1085.8585263930406 359.46029386747836 L 1085.590454039585 358.11260313820407 L 1085.4289466596701 356.7480341752373 L 1085.375 355.375 L 1085.4289466596701 354.0019658247627 L 1085.590454039585 352.63739686179593 L 1085.8585263930406 351.28970613252164 L 1086.2315109648348 349.9672025984384 L 1086.7071081810525 348.67803993361093 L 1087.2823858267036 347.43016625455795 L 1087.9537971238035 346.2312751174709 L 1088.7172025984385 345.0887580848817 L 1089.5678956019995 344.00965915422177 L 1090.5006313292354 343.00063132923543 L 1091.5096591542217 342.06789560199945 L 1092.5887580848816 341.2172025984384 L 1093.731275117471 340.4537971238034 L 1094.930166254558 339.78238582670355 L 1096.178039933611 339.2071081810525 L 1097.4672025984385 338.7315109648348 L 1098.7897061325216 338.3585263930407 L 1100.137396861796 338.0904540395851 L 1101.5019658247627 337.92894665967026 L 1102.875 337.875 L 1104.2480341752373 337.92894665967026 L 1105.6126031382041 338.0904540395851 L 1106.9602938674784 338.3585263930407 L 1108.2827974015618 338.73151096483485 L 1109.5719600663892 339.2071081810525 L 1110.819833745442 339.7823858267036 L 1112.018724882529 340.45379712380344 L 1113.1612419151184 341.2172025984385 L 1114.2403408457783 342.06789560199957 L 1115.2493686707646 343.0006313292355 L 1116.1821043980005 344.0096591542219 L 1117.0327974015618 345.0887580848818 L 1117.7962028761967 346.23127511747106 L 1118.4676141732966 347.43016625455806 L 1119.0428918189475 348.6780399336111 L 1119.5184890351652 349.9672025984386 L 1119.8914736069594 351.2897061325218 L 1120.159545960415 352.63739686179616 L 1120.3210533403299 354.0019658247629 Z" fill-opacity="1" stroke-opacity="1" stroke-miterlimit="10" stroke-width="2"/><text fill="rgb(255,255,255)" stroke="none" font-family="times new roman" font-size="10px" font-style="normal" font-weight="normal" text-decoration="normal" x="1102.875" y="360.375" text-anchor="middle" dominant-baseline="text-after-edge" fill-opacity="1">*10.1</text><path fill="rgb(69,90,100)" stroke="rgb(76,175,80)" paint-order="fill stroke markers" d=" M 664.625 263.625 L 664.625 283.625 L 759.625 283.625 L 759.625 263.625 Z" fill-opacity="1" stroke-opacity="1" stroke-miterlimit="10" stroke-width="6"/><text fill="rgb(255,255,255)" stroke="none" font-family="times new roman" font-size="10px" font-style="normal" font-weight="normal" text-decoration="normal" x="712.125" y="278.625" text-anchor="middle" dominant-baseline="text-after-edge" fill-opacity="1">42127407T&gt;G</text><path fill="rgb(69,90,100)" stroke="rgb(158,158,158)" paint-order="fill stroke markers" d=" M 1111.625 106.875 L 1111.625 126.875 L 1206.625 126.875 L 1206.625 106.875 Z" fill-opacity="1" stroke-opacity="1" stroke-miterlimit="10" stroke-width="2"/><text fill="rgb(255,255,255)" stroke="none" font-family="times new roman" font-size="10px" font-style="normal" font-weight="normal" text-decoration="normal" x="1159.125" y="121.875" text-anchor="middle" dominant-baseline="text-after-edge" fill-opacity="1">42127941G&gt;A</text><path fill="rgb(69,90,100)" stroke="rgb(76,175,80)" paint-order="fill stroke markers" d=" M 1226.25 273.625 L 1226.1806400089954 275.3903296538765 L 1225.9729876633905 277.1447754634052 L 1225.6283232089477 278.87752068675786 L 1225.148771616641 280.5778823734363 L 1224.5372894815039 282.23537722821453 L 1223.7976467942383 283.8397862441398 L 1222.9344036979671 285.3812177061088 L 1221.9528823734363 286.85016817658067 L 1220.8591342260006 288.23758108742913 L 1219.6599025766973 289.53490257669733 L 1218.3625810874291 290.7341342260007 L 1216.9751681765806 291.8278823734363 L 1215.5062177061088 292.80940369796707 L 1213.9647862441398 293.6726467942383 L 1212.3603772282145 294.41228948150393 L 1210.7028823734363 295.02377161664094 L 1209.0025206867579 295.50332320894773 L 1207.2697754634053 295.8479876633906 L 1205.5153296538765 296.0556400089954 L 1203.75 296.125 L 1201.9846703461235 296.0556400089954 L 1200.2302245365947 295.8479876633906 L 1198.4974793132421 295.50332320894773 L 1196.7971176265637 295.02377161664094 L 1195.1396227717855 294.41228948150393 L 1193.5352137558602 293.6726467942383 L 1191.9937822938912 292.80940369796707 L 1190.5248318234194 291.8278823734363 L 1189.1374189125709 290.7341342260007 L 1187.8400974233027 289.53490257669733 L 1186.6408657739994 288.23758108742913 L 1185.5471176265637 286.85016817658067 L 1184.5655963020329 285.3812177061088 L 1183.7023532057617 283.8397862441398 L 1182.9627105184961 282.23537722821453 L 1182.351228383359 280.5778823734363 L 1181.8716767910523 278.87752068675786 L 1181.5270123366095 277.1447754634052 L 1181.3193599910046 275.3903296538765 L 1181.25 273.625 L 1181.3193599910046 271.8596703461235 L 1181.5270123366095 270.1052245365948 L 1181.8716767910523 268.37247931324214 L 1182.351228383359 266.6721176265637 L 1182.9627105184961 265.01462277178547 L 1183.7023532057617 263.4102137558602 L 1184.5655963020329 261.8687822938912 L 1185.5471176265637 260.39983182341933 L 1186.6408657739994 259.01241891257087 L 1187.8400974233027 257.71509742330267 L 1189.1374189125709 256.51586577399934 L 1190.5248318234194 255.42211762656368 L 1191.9937822938912 254.44059630203293 L 1193.5352137558602 253.5773532057617 L 1195.1396227717855 252.83771051849604 L 1196.7971176265637 252.22622838335903 L 1198.4974793132421 251.74667679105227 L 1200.230224536595 251.4020123366094 L 1201.9846703461235 251.1943599910046 L 1203.75 251.125 L 1205.5153296538765 251.19435999100463 L 1207.2697754634053 251.4020123366094 L 1209.0025206867579 251.7466767910523 L 1210.7028823734365 252.22622838335909 L 1212.3603772282147 252.8377105184961 L 1213.96478624414 253.5773532057618 L 1215.506217706109 254.440596302033 L 1216.9751681765808 255.42211762656376 L 1218.3625810874294 256.5158657739994 L 1219.6599025766975 257.7150974233028 L 1220.8591342260008 259.012418912571 L 1221.9528823734365 260.3998318234195 L 1222.9344036979671 261.86878229389134 L 1223.7976467942383 263.4102137558604 L 1224.537289481504 265.0146227717857 L 1225.148771616641 266.67211762656393 L 1225.6283232089477 268.37247931324237 L 1225.9729876633905 270.1052245365951 L 1226.1806400089954 271.8596703461238 Z" fill-opacity="1" stroke-opacity="1" stroke-miterlimit="10" stroke-width="2"/><text fill="rgb(255,255,255)" stroke="none" font-family="times new roman" font-size="15px" font-style="normal" font-weight="normal" text-decoration="normal" x="1203.75" y="281.125" text-anchor="middle" dominant-baseline="text-after-edge" fill-opacity="1">*2</text><path fill="rgb(3,169,244)" stroke="none" paint-order="stroke fill markers" d=" M 1203.75 241.125 L 1228.25 241.125 L 1228.25 241.125 A 8 8 0 0 1 1236.25 249.125 L 1236.25 298.125 L 1236.25 298.125 A 8 8 0 0 1 1228.25 306.125 L 1179.25 306.125 L 1179.25 306.125 A 8 8 0 0 1 1171.25 298.125 L 1171.25 249.125 L 1171.25 249.125 A 8 8 0 0 1 1179.25 241.125 L 1203.75 241.125 Z" fill-opacity="0.15"/><path fill="rgb(69,90,100)" stroke="rgb(76,175,80)" paint-order="fill stroke markers" d=" M 1145 345.375 L 1145 365.375 L 1240 365.375 L 1240 345.375 Z" fill-opacity="1" stroke-opacity="1" stroke-miterlimit="10" stroke-width="2"/><text fill="rgb(255,255,255)" stroke="none" font-family="times new roman" font-size="10px" font-style="normal" font-weight="normal" text-decoration="normal" x="1192.5" y="360.375" text-anchor="middle" dominant-baseline="text-after-edge" fill-opacity="1">42127209T&gt;C</text><path fill="rgb(69,90,100)" stroke="rgb(76,175,80)" paint-order="fill stroke markers" d=" M 561.125 345.375 L 561.125 365.375 L 656.125 365.375 L 656.125 345.375 Z" fill-opacity="1" stroke-opacity="1" stroke-miterlimit="10" stroke-width="2"/><text fill="rgb(255,255,255)" stroke="none" font-family="times new roman" font-size="10px" font-style="normal" font-weight="normal" text-decoration="normal" x="608.625" y="360.375" text-anchor="middle" dominant-baseline="text-after-edge" fill-opacity="1">42132217G&gt;A</text><path fill="rgb(69,90,100)" stroke="rgb(76,175,80)" paint-order="fill stroke markers" d=" M 1586.25 415.875 L 1628.75 415.875 L 1628.75 415.875 A 5 5 0 0 1 1633.75 420.875 L 1633.75 430.875 L 1633.75 430.875 A 5 5 0 0 1 1628.75 435.875 L 1543.75 435.875 L 1543.75 435.875 A 5 5 0 0 1 1538.75 430.875 L 1538.75 420.875 L 1538.75 420.875 A 5 5 0 0 1 1543.75 415.875 L 1586.25 415.875 Z" fill-opacity="1" stroke-opacity="1" stroke-miterlimit="10" stroke-width="2"/><text fill="rgb(255,255,255)" stroke="none" font-family="times new roman" font-size="10px" font-style="normal" font-weight="normal" text-decoration="normal" x="1586.25" y="430.875" text-anchor="middle" dominant-baseline="text-after-edge" fill-opacity="1">42132025_4213202…</text><path fill="rgb(69,90,100)" stroke="rgb(255,193,7)" paint-order="fill stroke markers" d=" M 1708.875 273.625 L 1708.8056400089954 275.3903296538765 L 1708.5979876633905 277.1447754634052 L 1708.2533232089477 278.87752068675786 L 1707.773771616641 280.5778823734363 L 1707.1622894815039 282.23537722821453 L 1706.4226467942383 283.8397862441398 L 1705.5594036979671 285.3812177061088 L 1704.5778823734363 286.85016817658067 L 1703.4841342260006 288.23758108742913 L 1702.2849025766973 289.53490257669733 L 1700.9875810874291 290.7341342260007 L 1699.6001681765806 291.8278823734363 L 1698.1312177061088 292.80940369796707 L 1696.5897862441398 293.6726467942383 L 1694.9853772282145 294.41228948150393 L 1693.3278823734363 295.02377161664094 L 1691.6275206867579 295.50332320894773 L 1689.8947754634053 295.8479876633906 L 1688.1403296538765 296.0556400089954 L 1686.375 296.125 L 1684.6096703461235 296.0556400089954 L 1682.8552245365947 295.8479876633906 L 1681.1224793132421 295.50332320894773 L 1679.4221176265637 295.02377161664094 L 1677.7646227717855 294.41228948150393 L 1676.1602137558602 293.6726467942383 L 1674.6187822938912 292.80940369796707 L 1673.1498318234194 291.8278823734363 L 1671.7624189125709 290.7341342260007 L 1670.4650974233027 289.53490257669733 L 1669.2658657739994 288.23758108742913 L 1668.1721176265637 286.85016817658067 L 1667.1905963020329 285.3812177061088 L 1666.3273532057617 283.8397862441398 L 1665.5877105184961 282.23537722821453 L 1664.976228383359 280.5778823734363 L 1664.4966767910523 278.87752068675786 L 1664.1520123366095 277.1447754634052 L 1663.9443599910046 275.3903296538765 L 1663.875 273.625 L 1663.9443599910046 271.8596703461235 L 1664.1520123366095 270.1052245365948 L 1664.4966767910523 268.37247931324214 L 1664.976228383359 266.6721176265637 L 1665.5877105184961 265.01462277178547 L 1666.3273532057617 263.4102137558602 L 1667.1905963020329 261.8687822938912 L 1668.1721176265637 260.39983182341933 L 1669.2658657739994 259.01241891257087 L 1670.4650974233027 257.71509742330267 L 1671.7624189125709 256.51586577399934 L 1673.1498318234194 255.42211762656368 L 1674.6187822938912 254.44059630203293 L 1676.1602137558602 253.5773532057617 L 1677.7646227717855 252.83771051849604 L 1679.4221176265637 252.22622838335903 L 1681.1224793132421 251.74667679105227 L 1682.855224536595 251.4020123366094 L 1684.6096703461235 251.1943599910046 L 1686.375 251.125 L 1688.1403296538765 251.19435999100463 L 1689.8947754634053 251.4020123366094 L 1691.6275206867579 251.7466767910523 L 1693.3278823734365 252.22622838335909 L 1694.9853772282147 252.8377105184961 L 1696.58978624414 253.5773532057618 L 1698.131217706109 254.440596302033 L 1699.6001681765808 255.42211762656376 L 1700.9875810874294 256.5158657739994 L 1702.2849025766975 257.7150974233028 L 1703.4841342260008 259.012418912571 L 1704.5778823734365 260.3998318234195 L 1705.5594036979671 261.86878229389134 L 1706.4226467942383 263.4102137558604 L 1707.162289481504 265.0146227717857 L 1707.773771616641 266.67211762656393 L 1708.2533232089477 268.37247931324237 L 1708.5979876633905 270.1052245365951 L 1708.8056400089954 271.8596703461238 Z" fill-opacity="1" stroke-opacity="1" stroke-miterlimit="10" stroke-width="2"/><text fill="rgb(255,255,255)" stroke="none" font-family="times new roman" font-size="15px" font-style="normal" font-weight="normal" text-decoration="normal" x="1686.375" y="281.125" text-anchor="middle" dominant-baseline="text-after-edge" fill-opacity="1">*10</text><path fill="rgb(3,169,244)" stroke="none" paint-order="stroke fill markers" d=" M 1686.375 241.125 L 1710.875 241.125 L 1710.875 241.125 A 8 8 0 0 1 1718.875 249.125 L 1718.875 298.125 L 1718.875 298.125 A 8 8 0 0 1 1710.875 306.125 L 1661.875 306.125 L 1661.875 306.125 A 8 8 0 0 1 1653.875 298.125 L 1653.875 249.125 L 1653.875 249.125 A 8 8 0 0 1 1661.875 241.125 L 1686.375 241.125 Z" fill-opacity="0.15"/><path fill="rgb(69,90,100)" stroke="rgb(76,175,80)" paint-order="fill stroke markers" d=" M 784.625 345.375 L 784.625 365.375 L 879.625 365.375 L 879.625 345.375 Z" fill-opacity="1" stroke-opacity="1" stroke-miterlimit="10" stroke-width="2"/><text fill="rgb(255,255,255)" stroke="none" font-family="times new roman" font-size="10px" font-style="normal" font-weight="normal" text-decoration="normal" x="832.125" y="360.375" text-anchor="middle" dominant-baseline="text-after-edge" fill-opacity="1">42131791C&gt;T</text><path fill="rgb(69,90,100)" stroke="rgb(76,175,80)" paint-order="fill stroke markers" d=" M 425.125 355.375 L 425.07105334032974 356.7480341752373 L 424.9095459604149 358.11260313820407 L 424.6414736069593 359.46029386747836 L 424.2684890351652 360.7827974015616 L 423.7928918189475 362.07196006638907 L 423.21761417329645 363.31983374544205 L 422.5462028761966 364.5187248825291 L 421.7827974015616 365.6612419151183 L 420.93210439800055 366.74034084577823 L 419.99936867076457 367.74936867076457 L 418.99034084577823 368.68210439800055 L 417.9112419151183 369.5327974015616 L 416.7687248825291 370.2962028761966 L 415.56983374544205 370.96761417329645 L 414.32196006638907 371.5428918189475 L 413.0327974015616 372.0184890351652 L 411.71029386747836 372.3914736069593 L 410.36260313820407 372.6595459604149 L 408.9980341752373 372.82105334032974 L 407.625 372.875 L 406.2519658247627 372.82105334032974 L 404.88739686179593 372.6595459604149 L 403.53970613252164 372.3914736069593 L 402.2172025984384 372.0184890351652 L 400.92803993361093 371.5428918189475 L 399.68016625455795 370.96761417329645 L 398.4812751174709 370.2962028761966 L 397.3387580848817 369.5327974015616 L 396.25965915422177 368.68210439800055 L 395.25063132923543 367.74936867076457 L 394.31789560199945 366.74034084577823 L 393.4672025984384 365.6612419151183 L 392.7037971238034 364.5187248825291 L 392.03238582670355 363.31983374544205 L 391.4571081810525 362.07196006638907 L 390.9815109648348 360.7827974015616 L 390.6085263930407 359.46029386747836 L 390.3404540395851 358.11260313820407 L 390.17894665967026 356.7480341752373 L 390.125 355.375 L 390.17894665967026 354.0019658247627 L 390.3404540395851 352.63739686179593 L 390.6085263930407 351.28970613252164 L 390.9815109648348 349.9672025984384 L 391.4571081810525 348.67803993361093 L 392.03238582670355 347.43016625455795 L 392.7037971238034 346.2312751174709 L 393.4672025984384 345.0887580848817 L 394.31789560199945 344.00965915422177 L 395.25063132923543 343.00063132923543 L 396.25965915422177 342.06789560199945 L 397.3387580848817 341.2172025984384 L 398.4812751174709 340.4537971238034 L 399.68016625455795 339.78238582670355 L 400.92803993361093 339.2071081810525 L 402.21720259843846 338.7315109648348 L 403.5397061325217 338.3585263930407 L 404.887396861796 338.0904540395851 L 406.25196582476275 337.92894665967026 L 407.62500000000006 337.875 L 408.99803417523736 337.92894665967026 L 410.3626031382041 338.0904540395851 L 411.7102938674784 338.3585263930407 L 413.03279740156165 338.73151096483485 L 414.3219600663892 339.2071081810525 L 415.56983374544217 339.7823858267036 L 416.7687248825292 340.45379712380344 L 417.91124191511835 341.2172025984385 L 418.9903408457783 342.06789560199957 L 419.9993686707647 343.0006313292355 L 420.93210439800066 344.0096591542219 L 421.78279740156165 345.0887580848818 L 422.5462028761967 346.23127511747106 L 423.2176141732965 347.43016625455806 L 423.79289181894757 348.6780399336111 L 424.26848903516526 349.9672025984386 L 424.6414736069594 351.2897061325218 L 424.90954596041496 352.63739686179616 L 425.07105334032974 354.0019658247629 Z" fill-opacity="1" stroke-opacity="1" stroke-miterlimit="10" stroke-width="2"/><text fill="rgb(255,255,255)" stroke="none" font-family="times new roman" font-size="10px" font-style="normal" font-weight="normal" text-decoration="normal" x="407.625" y="360.375" text-anchor="middle" dominant-baseline="text-after-edge" fill-opacity="1">*2.2</text><path fill="rgb(69,90,100)" stroke="rgb(76,175,80)" paint-order="fill stroke markers" d=" M 672.875 345.375 L 672.875 365.375 L 767.875 365.375 L 767.875 345.375 Z" fill-opacity="1" stroke-opacity="1" stroke-miterlimit="10" stroke-width="2"/><text fill="rgb(255,255,255)" stroke="none" font-family="times new roman" font-size="10px" font-style="normal" font-weight="normal" text-decoration="normal" x="720.375" y="360.375" text-anchor="middle" dominant-baseline="text-after-edge" fill-opacity="1">42126390G&gt;A</text><path fill="rgb(69,90,100)" stroke="rgb(76,175,80)" paint-order="fill stroke markers" d=" M 1474.5 415.875 L 1517 415.875 L 1517 415.875 A 5 5 0 0 1 1522 420.875 L 1522 430.875 L 1522 430.875 A 5 5 0 0 1 1517 435.875 L 1432 435.875 L 1432 435.875 A 5 5 0 0 1 1427 430.875 L 1427 420.875 L 1427 420.875 A 5 5 0 0 1 1432 415.875 L 1474.5 415.875 Z" fill-opacity="1" stroke-opacity="1" stroke-miterlimit="10" stroke-width="2"/><text fill="rgb(255,255,255)" stroke="none" font-family="times new roman" font-size="10px" font-style="normal" font-weight="normal" text-decoration="normal" x="1474.5" y="430.875" text-anchor="middle" dominant-baseline="text-after-edge" fill-opacity="1">42132049dup</text><path fill="rgb(69,90,100)" stroke="rgb(158,158,158)" paint-order="fill stroke markers" d=" M 1361.375 106.875 L 1361.375 126.875 L 1456.375 126.875 L 1456.375 106.875 Z" fill-opacity="1" stroke-opacity="1" stroke-miterlimit="10" stroke-width="6"/><text fill="rgb(255,255,255)" stroke="none" font-family="times new roman" font-size="10px" font-style="normal" font-weight="normal" text-decoration="normal" x="1408.875" y="121.875" text-anchor="middle" dominant-baseline="text-after-edge" fill-opacity="1">42126611C&gt;G</text><path fill="rgb(69,90,100)" stroke="rgb(117,117,117)" paint-order="fill stroke markers" d=" M 1937.625 355.375 L 1937.5556400089954 357.1403296538765 L 1937.3479876633905 358.8947754634052 L 1937.0033232089477 360.62752068675786 L 1936.523771616641 362.3278823734363 L 1935.9122894815039 363.98537722821453 L 1935.1726467942383 365.5897862441398 L 1934.3094036979671 367.1312177061088 L 1933.3278823734363 368.60016817658067 L 1932.2341342260006 369.98758108742913 L 1931.0349025766973 371.28490257669733 L 1929.7375810874291 372.4841342260007 L 1928.3501681765806 373.5778823734363 L 1926.8812177061088 374.55940369796707 L 1925.3397862441398 375.4226467942383 L 1923.7353772282145 376.16228948150393 L 1922.0778823734363 376.77377161664094 L 1920.3775206867579 377.25332320894773 L 1918.6447754634053 377.5979876633906 L 1916.8903296538765 377.8056400089954 L 1915.125 377.875 L 1913.3596703461235 377.8056400089954 L 1911.6052245365947 377.5979876633906 L 1909.8724793132421 377.25332320894773 L 1908.1721176265637 376.77377161664094 L 1906.5146227717855 376.16228948150393 L 1904.9102137558602 375.4226467942383 L 1903.3687822938912 374.55940369796707 L 1901.8998318234194 373.5778823734363 L 1900.5124189125709 372.4841342260007 L 1899.2150974233027 371.28490257669733 L 1898.0158657739994 369.98758108742913 L 1896.9221176265637 368.60016817658067 L 1895.9405963020329 367.1312177061088 L 1895.0773532057617 365.5897862441398 L 1894.3377105184961 363.98537722821453 L 1893.726228383359 362.3278823734363 L 1893.2466767910523 360.62752068675786 L 1892.9020123366095 358.8947754634052 L 1892.6943599910046 357.1403296538765 L 1892.625 355.375 L 1892.6943599910046 353.6096703461235 L 1892.9020123366095 351.8552245365948 L 1893.2466767910523 350.12247931324214 L 1893.726228383359 348.4221176265637 L 1894.3377105184961 346.76462277178547 L 1895.0773532057617 345.1602137558602 L 1895.9405963020329 343.6187822938912 L 1896.9221176265637 342.14983182341933 L 1898.0158657739994 340.76241891257087 L 1899.2150974233027 339.46509742330267 L 1900.5124189125709 338.26586577399934 L 1901.8998318234194 337.1721176265637 L 1903.3687822938912 336.19059630203293 L 1904.9102137558602 335.3273532057617 L 1906.5146227717855 334.587710518496 L 1908.1721176265637 333.97622838335906 L 1909.8724793132421 333.49667679105227 L 1911.605224536595 333.1520123366094 L 1913.3596703461235 332.9443599910046 L 1915.125 332.875 L 1916.8903296538765 332.9443599910046 L 1918.6447754634053 333.1520123366094 L 1920.3775206867579 333.4966767910523 L 1922.0778823734365 333.97622838335906 L 1923.7353772282147 334.5877105184961 L 1925.33978624414 335.32735320576177 L 1926.881217706109 336.190596302033 L 1928.3501681765808 337.17211762656376 L 1929.7375810874294 338.2658657739994 L 1931.0349025766975 339.4650974233028 L 1932.2341342260008 340.762418912571 L 1933.3278823734365 342.1498318234195 L 1934.3094036979671 343.61878229389134 L 1935.1726467942383 345.1602137558604 L 1935.912289481504 346.7646227717857 L 1936.523771616641 348.42211762656393 L 1937.0033232089477 350.12247931324237 L 1937.3479876633905 351.8552245365951 L 1937.5556400089954 353.6096703461238 Z" fill-opacity="1" stroke-opacity="1" stroke-miterlimit="10" stroke-width="2"/><text fill="rgb(255,255,255)" stroke="none" font-family="times new roman" font-size="15px" font-style="normal" font-weight="normal" text-decoration="normal" x="1915.125" y="362.875" text-anchor="middle" dominant-baseline="text-after-edge" fill-opacity="1">*65</text><path fill="rgb(69,90,100)" stroke="rgb(76,175,80)" paint-order="fill stroke markers" d=" M 1334.125 116.875 L 1334.0710533403299 118.24803417523728 L 1333.909545960415 119.61260313820404 L 1333.6414736069594 120.96029386747834 L 1333.2684890351652 122.28279740156158 L 1332.7928918189475 123.57196006638907 L 1332.2176141732964 124.81983374544207 L 1331.5462028761965 126.0187248825291 L 1330.7827974015615 127.16124191511828 L 1329.9321043980005 128.2403408457782 L 1328.9993686707646 129.24936867076457 L 1327.9903408457783 130.18210439800055 L 1326.9112419151184 131.0327974015616 L 1325.768724882529 131.79620287619662 L 1324.569833745442 132.46761417329643 L 1323.321960066389 133.0428918189475 L 1322.0327974015615 133.51848903516517 L 1320.7102938674784 133.89147360695935 L 1319.3626031382041 134.1595459604149 L 1317.9980341752373 134.32105334032974 L 1316.625 134.375 L 1315.2519658247627 134.32105334032974 L 1313.8873968617959 134.1595459604149 L 1312.5397061325216 133.89147360695935 L 1311.2172025984385 133.5184890351652 L 1309.928039933611 133.0428918189475 L 1308.680166254558 132.46761417329643 L 1307.481275117471 131.79620287619662 L 1306.3387580848816 131.0327974015616 L 1305.2596591542217 130.18210439800055 L 1304.2506313292354 129.24936867076457 L 1303.3178956019995 128.2403408457782 L 1302.4672025984385 127.16124191511828 L 1301.7037971238035 126.01872488252911 L 1301.0323858267036 124.81983374544207 L 1300.4571081810525 123.57196006638907 L 1299.9815109648348 122.28279740156158 L 1299.6085263930406 120.96029386747834 L 1299.340454039585 119.61260313820404 L 1299.1789466596701 118.2480341752373 L 1299.125 116.875 L 1299.1789466596701 115.50196582476272 L 1299.340454039585 114.13739686179596 L 1299.6085263930406 112.78970613252166 L 1299.9815109648348 111.46720259843842 L 1300.4571081810525 110.17803993361093 L 1301.0323858267036 108.93016625455793 L 1301.7037971238035 107.7312751174709 L 1302.4672025984385 106.58875808488172 L 1303.3178956019995 105.5096591542218 L 1304.2506313292354 104.50063132923542 L 1305.2596591542217 103.56789560199947 L 1306.3387580848816 102.71720259843842 L 1307.481275117471 101.95379712380338 L 1308.680166254558 101.28238582670356 L 1309.928039933611 100.70710818105248 L 1311.2172025984385 100.2315109648348 L 1312.5397061325216 99.85852639304065 L 1313.887396861796 99.59045403958508 L 1315.2519658247627 99.42894665967026 L 1316.625 99.375 L 1317.9980341752373 99.42894665967026 L 1319.3626031382041 99.5904540395851 L 1320.7102938674784 99.85852639304068 L 1322.0327974015618 100.23151096483484 L 1323.3219600663892 100.70710818105252 L 1324.569833745442 101.2823858267036 L 1325.768724882529 101.95379712380344 L 1326.9112419151184 102.71720259843849 L 1327.9903408457783 103.56789560199954 L 1328.9993686707646 104.50063132923552 L 1329.9321043980005 105.5096591542219 L 1330.7827974015618 106.58875808488185 L 1331.5462028761967 107.73127511747103 L 1332.2176141732966 108.93016625455807 L 1332.7928918189475 110.17803993361109 L 1333.2684890351652 111.46720259843859 L 1333.6414736069594 112.78970613252184 L 1333.909545960415 114.13739686179616 L 1334.0710533403299 115.50196582476292 Z" fill-opacity="1" stroke-opacity="1" stroke-miterlimit="10" stroke-width="6"/><text fill="rgb(255,255,255)" stroke="none" font-family="times new roman" font-size="10px" font-style="normal" font-weight="normal" text-decoration="normal" x="1316.625" y="121.875" text-anchor="middle" dominant-baseline="text-after-edge" fill-opacity="1">*39.2</text><path fill="rgb(69,90,100)" stroke="rgb(76,175,80)" paint-order="fill stroke markers" d=" M 1052.125 355.375 L 1052.0710533403299 356.7480341752373 L 1051.909545960415 358.11260313820407 L 1051.6414736069594 359.46029386747836 L 1051.2684890351652 360.7827974015616 L 1050.7928918189475 362.07196006638907 L 1050.2176141732964 363.31983374544205 L 1049.5462028761965 364.5187248825291 L 1048.7827974015615 365.6612419151183 L 1047.9321043980005 366.74034084577823 L 1046.9993686707646 367.74936867076457 L 1045.9903408457783 368.68210439800055 L 1044.9112419151184 369.5327974015616 L 1043.768724882529 370.2962028761966 L 1042.569833745442 370.96761417329645 L 1041.321960066389 371.5428918189475 L 1040.0327974015615 372.0184890351652 L 1038.7102938674784 372.3914736069593 L 1037.3626031382041 372.6595459604149 L 1035.9980341752373 372.82105334032974 L 1034.625 372.875 L 1033.2519658247627 372.82105334032974 L 1031.8873968617959 372.6595459604149 L 1030.5397061325216 372.3914736069593 L 1029.2172025984385 372.0184890351652 L 1027.928039933611 371.5428918189475 L 1026.680166254558 370.96761417329645 L 1025.481275117471 370.2962028761966 L 1024.3387580848816 369.5327974015616 L 1023.2596591542218 368.68210439800055 L 1022.2506313292354 367.74936867076457 L 1021.3178956019995 366.74034084577823 L 1020.4672025984385 365.6612419151183 L 1019.7037971238034 364.5187248825291 L 1019.0323858267036 363.31983374544205 L 1018.4571081810525 362.07196006638907 L 1017.9815109648348 360.7827974015616 L 1017.6085263930406 359.46029386747836 L 1017.3404540395851 358.11260313820407 L 1017.1789466596703 356.7480341752373 L 1017.125 355.375 L 1017.1789466596703 354.0019658247627 L 1017.3404540395851 352.63739686179593 L 1017.6085263930406 351.28970613252164 L 1017.9815109648348 349.9672025984384 L 1018.4571081810525 348.67803993361093 L 1019.0323858267036 347.43016625455795 L 1019.7037971238034 346.2312751174709 L 1020.4672025984385 345.0887580848817 L 1021.3178956019995 344.00965915422177 L 1022.2506313292354 343.00063132923543 L 1023.2596591542218 342.06789560199945 L 1024.3387580848816 341.2172025984384 L 1025.481275117471 340.4537971238034 L 1026.680166254558 339.78238582670355 L 1027.928039933611 339.2071081810525 L 1029.2172025984385 338.7315109648348 L 1030.5397061325216 338.3585263930407 L 1031.887396861796 338.0904540395851 L 1033.2519658247627 337.92894665967026 L 1034.625 337.875 L 1035.9980341752373 337.92894665967026 L 1037.3626031382041 338.0904540395851 L 1038.7102938674784 338.3585263930407 L 1040.0327974015618 338.73151096483485 L 1041.3219600663892 339.2071081810525 L 1042.569833745442 339.7823858267036 L 1043.768724882529 340.45379712380344 L 1044.9112419151184 341.2172025984385 L 1045.9903408457783 342.06789560199957 L 1046.9993686707646 343.0006313292355 L 1047.9321043980005 344.0096591542219 L 1048.7827974015618 345.0887580848818 L 1049.5462028761967 346.23127511747106 L 1050.2176141732966 347.43016625455806 L 1050.7928918189475 348.6780399336111 L 1051.2684890351652 349.9672025984386 L 1051.6414736069594 351.2897061325218 L 1051.909545960415 352.63739686179616 L 1052.0710533403299 354.0019658247629 Z" fill-opacity="1" stroke-opacity="1" stroke-miterlimit="10" stroke-width="6"/><text fill="rgb(255,255,255)" stroke="none" font-family="times new roman" font-size="10px" font-style="normal" font-weight="normal" text-decoration="normal" x="1034.625" y="360.375" text-anchor="middle" dominant-baseline="text-after-edge" fill-opacity="1">*1.41</text><path fill="rgb(69,90,100)" stroke="rgb(76,175,80)" paint-order="fill stroke markers" d=" M 825.3125 263.625 L 825.3125 283.625 L 920.3125 283.625 L 920.3125 263.625 Z" fill-opacity="1" stroke-opacity="1" stroke-miterlimit="10" stroke-width="2"/><text fill="rgb(255,255,255)" stroke="none" font-family="times new roman" font-size="10px" font-style="normal" font-weight="normal" text-decoration="normal" x="872.8125" y="278.625" text-anchor="middle" dominant-baseline="text-after-edge" fill-opacity="1">42129754G&gt;A</text><path fill="rgb(69,90,100)" stroke="rgb(76,175,80)" paint-order="fill stroke markers" d=" M 2032.25 263.625 L 2032.25 283.625 L 2127.25 283.625 L 2127.25 263.625 Z" fill-opacity="1" stroke-opacity="1" stroke-miterlimit="10" stroke-width="6"/><text fill="rgb(255,255,255)" stroke="none" font-family="times new roman" font-size="10px" font-style="normal" font-weight="normal" text-decoration="normal" x="2079.75" y="278.625" text-anchor="middle" dominant-baseline="text-after-edge" fill-opacity="1">42129950A&gt;C</text><path fill="rgb(69,90,100)" stroke="rgb(76,175,80)" paint-order="fill stroke markers" d=" M 1385.25 190.375 L 1385.1806400089954 192.1403296538765 L 1384.9729876633905 193.89477546340518 L 1384.6283232089477 195.62752068675786 L 1384.148771616641 197.32788237343632 L 1383.5372894815039 198.98537722821453 L 1382.7976467942383 200.58978624413982 L 1381.9344036979671 202.13121770610886 L 1380.9528823734363 203.60016817658064 L 1379.8591342260006 204.98758108742913 L 1378.6599025766973 206.2849025766973 L 1377.3625810874291 207.4841342260007 L 1375.9751681765806 208.57788237343632 L 1374.5062177061088 209.55940369796707 L 1372.9647862441398 210.4226467942383 L 1371.3603772282145 211.16228948150396 L 1369.7028823734363 211.77377161664094 L 1368.0025206867579 212.25332320894773 L 1366.2697754634053 212.5979876633906 L 1364.5153296538765 212.80564000899537 L 1362.75 212.875 L 1360.9846703461235 212.80564000899537 L 1359.2302245365947 212.5979876633906 L 1357.4974793132421 212.25332320894773 L 1355.7971176265637 211.77377161664094 L 1354.1396227717855 211.16228948150396 L 1352.5352137558602 210.4226467942383 L 1350.9937822938912 209.55940369796707 L 1349.5248318234194 208.57788237343632 L 1348.1374189125709 207.4841342260007 L 1346.8400974233027 206.28490257669733 L 1345.6408657739994 204.98758108742913 L 1344.5471176265637 203.60016817658064 L 1343.5655963020329 202.13121770610886 L 1342.7023532057617 200.58978624413982 L 1341.9627105184961 198.98537722821453 L 1341.351228383359 197.32788237343632 L 1340.8716767910523 195.62752068675786 L 1340.5270123366095 193.8947754634052 L 1340.3193599910046 192.1403296538765 L 1340.25 190.375 L 1340.3193599910046 188.6096703461235 L 1340.5270123366095 186.85522453659482 L 1340.8716767910523 185.12247931324214 L 1341.351228383359 183.42211762656368 L 1341.9627105184961 181.76462277178547 L 1342.7023532057617 180.1602137558602 L 1343.5655963020329 178.61878229389114 L 1344.5471176265637 177.14983182341936 L 1345.6408657739994 175.76241891257087 L 1346.8400974233027 174.4650974233027 L 1348.1374189125709 173.2658657739993 L 1349.5248318234194 172.17211762656368 L 1350.9937822938912 171.19059630203293 L 1352.5352137558602 170.3273532057617 L 1354.1396227717855 169.58771051849604 L 1355.7971176265637 168.97622838335903 L 1357.4974793132421 168.49667679105227 L 1359.230224536595 168.1520123366094 L 1360.9846703461235 167.9443599910046 L 1362.75 167.875 L 1364.5153296538765 167.94435999100463 L 1366.2697754634053 168.1520123366094 L 1368.0025206867579 168.4966767910523 L 1369.7028823734365 168.97622838335909 L 1371.3603772282147 169.5877105184961 L 1372.96478624414 170.3273532057618 L 1374.506217706109 171.190596302033 L 1375.9751681765808 172.17211762656376 L 1377.3625810874294 173.26586577399942 L 1378.6599025766975 174.4650974233028 L 1379.8591342260008 175.762418912571 L 1380.9528823734365 177.1498318234195 L 1381.9344036979671 178.61878229389131 L 1382.7976467942383 180.16021375586038 L 1383.537289481504 181.7646227717857 L 1384.148771616641 183.4221176265639 L 1384.6283232089477 185.12247931324237 L 1384.9729876633905 186.85522453659505 L 1385.1806400089954 188.60967034612375 Z" fill-opacity="1" stroke-opacity="1" stroke-miterlimit="10" stroke-width="6"/><text fill="rgb(255,255,255)" stroke="none" font-family="times new roman" font-size="15px" font-style="normal" font-weight="normal" text-decoration="normal" x="1362.75" y="197.875" text-anchor="middle" dominant-baseline="text-after-edge" fill-opacity="1">*39</text><path fill="rgb(69,90,100)" stroke="rgb(76,175,80)" paint-order="fill stroke markers" d=" M 1226.25 190.375 L 1226.1806400089954 192.1403296538765 L 1225.9729876633905 193.89477546340518 L 1225.6283232089477 195.62752068675786 L 1225.148771616641 197.32788237343632 L 1224.5372894815039 198.98537722821453 L 1223.7976467942383 200.58978624413982 L 1222.9344036979671 202.13121770610886 L 1221.9528823734363 203.60016817658064 L 1220.8591342260006 204.98758108742913 L 1219.6599025766973 206.2849025766973 L 1218.3625810874291 207.4841342260007 L 1216.9751681765806 208.57788237343632 L 1215.5062177061088 209.55940369796707 L 1213.9647862441398 210.4226467942383 L 1212.3603772282145 211.16228948150396 L 1210.7028823734363 211.77377161664094 L 1209.0025206867579 212.25332320894773 L 1207.2697754634053 212.5979876633906 L 1205.5153296538765 212.80564000899537 L 1203.75 212.875 L 1201.9846703461235 212.80564000899537 L 1200.2302245365947 212.5979876633906 L 1198.4974793132421 212.25332320894773 L 1196.7971176265637 211.77377161664094 L 1195.1396227717855 211.16228948150396 L 1193.5352137558602 210.4226467942383 L 1191.9937822938912 209.55940369796707 L 1190.5248318234194 208.57788237343632 L 1189.1374189125709 207.4841342260007 L 1187.8400974233027 206.28490257669733 L 1186.6408657739994 204.98758108742913 L 1185.5471176265637 203.60016817658064 L 1184.5655963020329 202.13121770610886 L 1183.7023532057617 200.58978624413982 L 1182.9627105184961 198.98537722821453 L 1182.351228383359 197.32788237343632 L 1181.8716767910523 195.62752068675786 L 1181.5270123366095 193.8947754634052 L 1181.3193599910046 192.1403296538765 L 1181.25 190.375 L 1181.3193599910046 188.6096703461235 L 1181.5270123366095 186.85522453659482 L 1181.8716767910523 185.12247931324214 L 1182.351228383359 183.42211762656368 L 1182.9627105184961 181.76462277178547 L 1183.7023532057617 180.1602137558602 L 1184.5655963020329 178.61878229389114 L 1185.5471176265637 177.14983182341936 L 1186.6408657739994 175.76241891257087 L 1187.8400974233027 174.4650974233027 L 1189.1374189125709 173.2658657739993 L 1190.5248318234194 172.17211762656368 L 1191.9937822938912 171.19059630203293 L 1193.5352137558602 170.3273532057617 L 1195.1396227717855 169.58771051849604 L 1196.7971176265637 168.97622838335903 L 1198.4974793132421 168.49667679105227 L 1200.230224536595 168.1520123366094 L 1201.9846703461235 167.9443599910046 L 1203.75 167.875 L 1205.5153296538765 167.94435999100463 L 1207.2697754634053 168.1520123366094 L 1209.0025206867579 168.4966767910523 L 1210.7028823734365 168.97622838335909 L 1212.3603772282147 169.5877105184961 L 1213.96478624414 170.3273532057618 L 1215.506217706109 171.190596302033 L 1216.9751681765808 172.17211762656376 L 1218.3625810874294 173.26586577399942 L 1219.6599025766975 174.4650974233028 L 1220.8591342260008 175.762418912571 L 1221.9528823734365 177.1498318234195 L 1222.9344036979671 178.61878229389131 L 1223.7976467942383 180.16021375586038 L 1224.537289481504 181.7646227717857 L 1225.148771616641 183.4221176265639 L 1225.6283232089477 185.12247931324237 L 1225.9729876633905 186.85522453659505 L 1226.1806400089954 188.60967034612375 Z" fill-opacity="1" stroke-opacity="1" stroke-miterlimit="10" stroke-width="2"/><text fill="rgb(255,255,255)" stroke="none" font-family="times new roman" font-size="15px" font-style="normal" font-weight="normal" text-decoration="normal" x="1203.75" y="197.875" text-anchor="middle" dominant-baseline="text-after-edge" fill-opacity="1">*34</text><path fill="rgb(69,90,100)" stroke="rgb(76,175,80)" paint-order="fill stroke markers" d=" M 1150.75 190.375 L 1150.6960533403299 191.74803417523728 L 1150.534545960415 193.11260313820404 L 1150.2664736069594 194.46029386747836 L 1149.8934890351652 195.78279740156157 L 1149.4178918189475 197.07196006638907 L 1148.8426141732964 198.31983374544205 L 1148.1712028761965 199.5187248825291 L 1147.4077974015615 200.66124191511827 L 1146.5571043980005 201.7403408457782 L 1145.6243686707646 202.74936867076457 L 1144.6153408457783 203.68210439800055 L 1143.5362419151184 204.5327974015616 L 1142.393724882529 205.29620287619662 L 1141.194833745442 205.96761417329643 L 1139.946960066389 206.5428918189475 L 1138.6577974015615 207.01848903516517 L 1137.3352938674784 207.39147360695935 L 1135.9876031382041 207.6595459604149 L 1134.6230341752373 207.82105334032974 L 1133.25 207.875 L 1131.8769658247627 207.82105334032974 L 1130.5123968617959 207.6595459604149 L 1129.1647061325216 207.39147360695935 L 1127.8422025984385 207.0184890351652 L 1126.553039933611 206.5428918189475 L 1125.305166254558 205.96761417329643 L 1124.106275117471 205.29620287619662 L 1122.9637580848816 204.5327974015616 L 1121.8846591542217 203.68210439800055 L 1120.8756313292354 202.74936867076457 L 1119.9428956019995 201.7403408457782 L 1119.0922025984385 200.6612419151183 L 1118.3287971238035 199.5187248825291 L 1117.6573858267036 198.31983374544208 L 1117.0821081810525 197.07196006638907 L 1116.6065109648348 195.7827974015616 L 1116.2335263930406 194.46029386747836 L 1115.965454039585 193.11260313820404 L 1115.8039466596701 191.74803417523728 L 1115.75 190.375 L 1115.8039466596701 189.00196582476272 L 1115.965454039585 187.63739686179596 L 1116.2335263930406 186.28970613252164 L 1116.6065109648348 184.96720259843843 L 1117.0821081810525 183.67803993361093 L 1117.6573858267036 182.43016625455795 L 1118.3287971238035 181.2312751174709 L 1119.0922025984385 180.08875808488173 L 1119.9428956019995 179.0096591542218 L 1120.8756313292354 178.00063132923543 L 1121.8846591542217 177.06789560199945 L 1122.9637580848816 176.21720259843843 L 1124.106275117471 175.45379712380338 L 1125.305166254558 174.78238582670355 L 1126.553039933611 174.2071081810525 L 1127.8422025984385 173.7315109648348 L 1129.1647061325216 173.35852639304065 L 1130.512396861796 173.0904540395851 L 1131.8769658247627 172.92894665967026 L 1133.25 172.875 L 1134.6230341752373 172.92894665967026 L 1135.9876031382041 173.0904540395851 L 1137.3352938674784 173.35852639304068 L 1138.6577974015618 173.73151096483485 L 1139.9469600663892 174.20710818105252 L 1141.194833745442 174.7823858267036 L 1142.393724882529 175.45379712380344 L 1143.5362419151184 176.2172025984385 L 1144.6153408457783 177.06789560199954 L 1145.6243686707646 178.00063132923552 L 1146.5571043980005 179.0096591542219 L 1147.4077974015618 180.08875808488185 L 1148.1712028761967 181.23127511747103 L 1148.8426141732966 182.4301662545581 L 1149.4178918189475 183.6780399336111 L 1149.8934890351652 184.9672025984386 L 1150.2664736069594 186.28970613252184 L 1150.534545960415 187.63739686179616 L 1150.6960533403299 189.00196582476292 Z" fill-opacity="1" stroke-opacity="1" stroke-miterlimit="10" stroke-width="2"/><text fill="rgb(255,255,255)" stroke="none" font-family="times new roman" font-size="10px" font-style="normal" font-weight="normal" text-decoration="normal" x="1133.25" y="195.375" text-anchor="middle" dominant-baseline="text-after-edge" fill-opacity="1">*2.4</text><path fill="rgb(69,90,100)" stroke="rgb(76,175,80)" paint-order="fill stroke markers" d=" M 293.75 263.625 L 293.75 283.625 L 388.75 283.625 L 388.75 263.625 Z" fill-opacity="1" stroke-opacity="1" stroke-miterlimit="10" stroke-width="6"/><text fill="rgb(255,255,255)" stroke="none" font-family="times new roman" font-size="10px" font-style="normal" font-weight="normal" text-decoration="normal" x="341.25" y="278.625" text-anchor="middle" dominant-baseline="text-after-edge" fill-opacity="1">42129130C&gt;G</text><path fill="rgb(69,90,100)" stroke="rgb(255,193,7)" paint-order="fill stroke markers" d=" M 1151.3125 425.875 L 1151.2585533403299 427.2480341752373 L 1151.097045960415 428.61260313820407 L 1150.8289736069594 429.96029386747836 L 1150.4559890351652 431.2827974015616 L 1149.9803918189475 432.57196006638907 L 1149.4051141732964 433.81983374544205 L 1148.7337028761965 435.0187248825291 L 1147.9702974015615 436.1612419151183 L 1147.1196043980005 437.24034084577823 L 1146.1868686707646 438.24936867076457 L 1145.1778408457783 439.18210439800055 L 1144.0987419151184 440.0327974015616 L 1142.956224882529 440.7962028761966 L 1141.757333745442 441.46761417329645 L 1140.509460066389 442.0428918189475 L 1139.2202974015615 442.5184890351652 L 1137.8977938674784 442.8914736069593 L 1136.5501031382041 443.1595459604149 L 1135.1855341752373 443.32105334032974 L 1133.8125 443.375 L 1132.4394658247627 443.32105334032974 L 1131.0748968617959 443.1595459604149 L 1129.7272061325216 442.8914736069593 L 1128.4047025984385 442.5184890351652 L 1127.115539933611 442.0428918189475 L 1125.867666254558 441.46761417329645 L 1124.668775117471 440.7962028761966 L 1123.5262580848816 440.0327974015616 L 1122.4471591542217 439.18210439800055 L 1121.4381313292354 438.24936867076457 L 1120.5053956019995 437.24034084577823 L 1119.6547025984385 436.1612419151183 L 1118.8912971238035 435.0187248825291 L 1118.2198858267036 433.81983374544205 L 1117.6446081810525 432.57196006638907 L 1117.1690109648348 431.2827974015616 L 1116.7960263930406 429.96029386747836 L 1116.527954039585 428.61260313820407 L 1116.3664466596701 427.2480341752373 L 1116.3125 425.875 L 1116.3664466596701 424.5019658247627 L 1116.527954039585 423.13739686179593 L 1116.7960263930406 421.78970613252164 L 1117.1690109648348 420.4672025984384 L 1117.6446081810525 419.17803993361093 L 1118.2198858267036 417.93016625455795 L 1118.8912971238035 416.7312751174709 L 1119.6547025984385 415.5887580848817 L 1120.5053956019995 414.50965915422177 L 1121.4381313292354 413.50063132923543 L 1122.4471591542217 412.56789560199945 L 1123.5262580848816 411.7172025984384 L 1124.668775117471 410.9537971238034 L 1125.867666254558 410.28238582670355 L 1127.115539933611 409.7071081810525 L 1128.4047025984385 409.2315109648348 L 1129.7272061325216 408.8585263930407 L 1131.074896861796 408.5904540395851 L 1132.4394658247627 408.42894665967026 L 1133.8125 408.375 L 1135.1855341752373 408.42894665967026 L 1136.5501031382041 408.5904540395851 L 1137.8977938674784 408.8585263930407 L 1139.2202974015618 409.23151096483485 L 1140.5094600663892 409.7071081810525 L 1141.757333745442 410.2823858267036 L 1142.956224882529 410.95379712380344 L 1144.0987419151184 411.7172025984385 L 1145.1778408457783 412.56789560199957 L 1146.1868686707646 413.5006313292355 L 1147.1196043980005 414.5096591542219 L 1147.9702974015618 415.5887580848818 L 1148.7337028761967 416.73127511747106 L 1149.4051141732966 417.93016625455806 L 1149.9803918189475 419.1780399336111 L 1150.4559890351652 420.4672025984386 L 1150.8289736069594 421.7897061325218 L 1151.097045960415 423.13739686179616 L 1151.2585533403299 424.5019658247629 Z" fill-opacity="1" stroke-opacity="1" stroke-miterlimit="10" stroke-width="2"/><text fill="rgb(255,255,255)" stroke="none" font-family="times new roman" font-size="10px" font-style="normal" font-weight="normal" text-decoration="normal" x="1133.8125" y="430.875" text-anchor="middle" dominant-baseline="text-after-edge" fill-opacity="1">*10.2</text><path fill="rgb(69,90,100)" stroke="rgb(69,90,100)" paint-order="fill stroke markers" d=" M 1395.9375 671.625 L 1377.1875 689.125 L 1395.9375 706.625 L 1433.4375 706.625 L 1452.1875 689.125 L 1433.4375 671.625 Z" fill-opacity="1" stroke-opacity="1" stroke-miterlimit="10" stroke-width="2"/><text fill="rgb(255,255,255)" stroke="none" font-family="times new roman" font-size="10px" font-style="normal" font-weight="normal" text-decoration="normal" x="1414.6875" y="694.125" text-anchor="middle" dominant-baseline="text-after-edge" fill-opacity="1">HG00421-all</text><path fill="rgb(69,90,100)" stroke="rgb(117,117,117)" paint-order="fill stroke markers" d=" M 1757.5 425.875 L 1757.4460533403299 427.2480341752373 L 1757.284545960415 428.61260313820407 L 1757.0164736069594 429.96029386747836 L 1756.6434890351652 431.2827974015616 L 1756.1678918189475 432.57196006638907 L 1755.5926141732964 433.81983374544205 L 1754.9212028761965 435.0187248825291 L 1754.1577974015615 436.1612419151183 L 1753.3071043980005 437.24034084577823 L 1752.3743686707646 438.24936867076457 L 1751.3653408457783 439.18210439800055 L 1750.2862419151184 440.0327974015616 L 1749.143724882529 440.7962028761966 L 1747.944833745442 441.46761417329645 L 1746.696960066389 442.0428918189475 L 1745.4077974015615 442.5184890351652 L 1744.0852938674784 442.8914736069593 L 1742.7376031382041 443.1595459604149 L 1741.3730341752373 443.32105334032974 L 1740 443.375 L 1738.6269658247627 443.32105334032974 L 1737.2623968617959 443.1595459604149 L 1735.9147061325216 442.8914736069593 L 1734.5922025984385 442.5184890351652 L 1733.303039933611 442.0428918189475 L 1732.055166254558 441.46761417329645 L 1730.856275117471 440.7962028761966 L 1729.7137580848816 440.0327974015616 L 1728.6346591542217 439.18210439800055 L 1727.6256313292354 438.24936867076457 L 1726.6928956019995 437.24034084577823 L 1725.8422025984385 436.1612419151183 L 1725.0787971238035 435.0187248825291 L 1724.4073858267036 433.81983374544205 L 1723.8321081810525 432.57196006638907 L 1723.3565109648348 431.2827974015616 L 1722.9835263930406 429.96029386747836 L 1722.715454039585 428.61260313820407 L 1722.5539466596701 427.2480341752373 L 1722.5 425.875 L 1722.5539466596701 424.5019658247627 L 1722.715454039585 423.13739686179593 L 1722.9835263930406 421.78970613252164 L 1723.3565109648348 420.4672025984384 L 1723.8321081810525 419.17803993361093 L 1724.4073858267036 417.93016625455795 L 1725.0787971238035 416.7312751174709 L 1725.8422025984385 415.5887580848817 L 1726.6928956019995 414.50965915422177 L 1727.6256313292354 413.50063132923543 L 1728.6346591542217 412.56789560199945 L 1729.7137580848816 411.7172025984384 L 1730.856275117471 410.9537971238034 L 1732.055166254558 410.28238582670355 L 1733.303039933611 409.7071081810525 L 1734.5922025984385 409.2315109648348 L 1735.9147061325216 408.8585263930407 L 1737.262396861796 408.5904540395851 L 1738.6269658247627 408.42894665967026 L 1740 408.375 L 1741.3730341752373 408.42894665967026 L 1742.7376031382041 408.5904540395851 L 1744.0852938674784 408.8585263930407 L 1745.4077974015618 409.23151096483485 L 1746.6969600663892 409.7071081810525 L 1747.944833745442 410.2823858267036 L 1749.143724882529 410.95379712380344 L 1750.2862419151184 411.7172025984385 L 1751.3653408457783 412.56789560199957 L 1752.3743686707646 413.5006313292355 L 1753.3071043980005 414.5096591542219 L 1754.1577974015618 415.5887580848818 L 1754.9212028761967 416.73127511747106 L 1755.5926141732966 417.93016625455806 L 1756.1678918189475 419.1780399336111 L 1756.6434890351652 420.4672025984386 L 1757.0164736069594 421.7897061325218 L 1757.284545960415 423.13739686179616 L 1757.4460533403299 424.5019658247629 Z" fill-opacity="1" stroke-opacity="1" stroke-miterlimit="10" stroke-width="2"/><text fill="rgb(255,255,255)" stroke="none" font-family="times new roman" font-size="10px" font-style="normal" font-weight="normal" text-decoration="normal" x="1740" y="430.875" text-anchor="middle" dominant-baseline="text-after-edge" fill-opacity="1">*65.1</text><path fill="rgb(69,90,100)" stroke="rgb(158,158,158)" paint-order="fill stroke markers" d=" M 1646.375 180.375 L 1646.375 200.375 L 1741.375 200.375 L 1741.375 180.375 Z" fill-opacity="1" stroke-opacity="1" stroke-miterlimit="10" stroke-width="2"/><text fill="rgb(255,255,255)" stroke="none" font-family="times new roman" font-size="10px" font-style="normal" font-weight="normal" text-decoration="normal" x="1693.875" y="195.375" text-anchor="middle" dominant-baseline="text-after-edge" fill-opacity="1">42130692G&gt;A</text><path fill="rgb(69,90,100)" stroke="rgb(76,175,80)" paint-order="fill stroke markers" d=" M 1495.25 345.375 L 1495.25 365.375 L 1590.25 365.375 L 1590.25 345.375 Z" fill-opacity="1" stroke-opacity="1" stroke-miterlimit="10" stroke-width="2"/><text fill="rgb(255,255,255)" stroke="none" font-family="times new roman" font-size="10px" font-style="normal" font-weight="normal" text-decoration="normal" x="1542.75" y="360.375" text-anchor="middle" dominant-baseline="text-after-edge" fill-opacity="1">42127001G&gt;A</text><path fill="rgb(69,90,100)" stroke="rgb(76,175,80)" paint-order="fill stroke markers" d=" M 1676.75 345.375 L 1676.75 365.375 L 1771.75 365.375 L 1771.75 345.375 Z" fill-opacity="1" stroke-opacity="1" stroke-miterlimit="10" stroke-width="2"/><text fill="rgb(255,255,255)" stroke="none" font-family="times new roman" font-size="10px" font-style="normal" font-weight="normal" text-decoration="normal" x="1724.25" y="360.375" text-anchor="middle" dominant-baseline="text-after-edge" fill-opacity="1">42126310C&gt;T</text><path fill="rgb(69,90,100)" stroke="rgb(76,175,80)" paint-order="fill stroke markers" d=" M 1271.75 345.375 L 1271.75 365.375 L 1366.75 365.375 L 1366.75 345.375 Z" fill-opacity="1" stroke-opacity="1" stroke-miterlimit="10" stroke-width="2"/><text fill="rgb(255,255,255)" stroke="none" font-family="times new roman" font-size="10px" font-style="normal" font-weight="normal" text-decoration="normal" x="1319.25" y="360.375" text-anchor="middle" dominant-baseline="text-after-edge" fill-opacity="1">42132026T&gt;C</text><path fill="rgb(69,90,100)" stroke="rgb(76,175,80)" paint-order="fill stroke markers" d=" M 449.375 345.375 L 449.375 365.375 L 544.375 365.375 L 544.375 345.375 Z" fill-opacity="1" stroke-opacity="1" stroke-miterlimit="10" stroke-width="2"/><text fill="rgb(255,255,255)" stroke="none" font-family="times new roman" font-size="10px" font-style="normal" font-weight="normal" text-decoration="normal" x="496.875" y="360.375" text-anchor="middle" dominant-baseline="text-after-edge" fill-opacity="1">42130047G&gt;C</text><path fill="rgb(69,90,100)" stroke="rgb(76,175,80)" paint-order="fill stroke markers" d=" M 1651 355.375 L 1650.9460533403299 356.7480341752373 L 1650.784545960415 358.11260313820407 L 1650.5164736069594 359.46029386747836 L 1650.1434890351652 360.7827974015616 L 1649.6678918189475 362.07196006638907 L 1649.0926141732964 363.31983374544205 L 1648.4212028761965 364.5187248825291 L 1647.6577974015615 365.6612419151183 L 1646.8071043980005 366.74034084577823 L 1645.8743686707646 367.74936867076457 L 1644.8653408457783 368.68210439800055 L 1643.7862419151184 369.5327974015616 L 1642.643724882529 370.2962028761966 L 1641.444833745442 370.96761417329645 L 1640.196960066389 371.5428918189475 L 1638.9077974015615 372.0184890351652 L 1637.5852938674784 372.3914736069593 L 1636.2376031382041 372.6595459604149 L 1634.8730341752373 372.82105334032974 L 1633.5 372.875 L 1632.1269658247627 372.82105334032974 L 1630.7623968617959 372.6595459604149 L 1629.4147061325216 372.3914736069593 L 1628.0922025984385 372.0184890351652 L 1626.803039933611 371.5428918189475 L 1625.555166254558 370.96761417329645 L 1624.356275117471 370.2962028761966 L 1623.2137580848816 369.5327974015616 L 1622.1346591542217 368.68210439800055 L 1621.1256313292354 367.74936867076457 L 1620.1928956019995 366.74034084577823 L 1619.3422025984385 365.6612419151183 L 1618.5787971238035 364.5187248825291 L 1617.9073858267036 363.31983374544205 L 1617.3321081810525 362.07196006638907 L 1616.8565109648348 360.7827974015616 L 1616.4835263930406 359.46029386747836 L 1616.215454039585 358.11260313820407 L 1616.0539466596701 356.7480341752373 L 1616 355.375 L 1616.0539466596701 354.0019658247627 L 1616.215454039585 352.63739686179593 L 1616.4835263930406 351.28970613252164 L 1616.8565109648348 349.9672025984384 L 1617.3321081810525 348.67803993361093 L 1617.9073858267036 347.43016625455795 L 1618.5787971238035 346.2312751174709 L 1619.3422025984385 345.0887580848817 L 1620.1928956019995 344.00965915422177 L 1621.1256313292354 343.00063132923543 L 1622.1346591542217 342.06789560199945 L 1623.2137580848816 341.2172025984384 L 1624.356275117471 340.4537971238034 L 1625.555166254558 339.78238582670355 L 1626.803039933611 339.2071081810525 L 1628.0922025984385 338.7315109648348 L 1629.4147061325216 338.3585263930407 L 1630.762396861796 338.0904540395851 L 1632.1269658247627 337.92894665967026 L 1633.5 337.875 L 1634.8730341752373 337.92894665967026 L 1636.2376031382041 338.0904540395851 L 1637.5852938674784 338.3585263930407 L 1638.9077974015618 338.73151096483485 L 1640.1969600663892 339.2071081810525 L 1641.444833745442 339.7823858267036 L 1642.643724882529 340.45379712380344 L 1643.7862419151184 341.2172025984385 L 1644.8653408457783 342.06789560199957 L 1645.8743686707646 343.0006313292355 L 1646.8071043980005 344.0096591542219 L 1647.6577974015618 345.0887580848818 L 1648.4212028761967 346.23127511747106 L 1649.0926141732966 347.43016625455806 L 1649.6678918189475 348.6780399336111 L 1650.1434890351652 349.9672025984386 L 1650.5164736069594 351.2897061325218 L 1650.784545960415 352.63739686179616 L 1650.9460533403299 354.0019658247629 Z" fill-opacity="1" stroke-opacity="1" stroke-miterlimit="10" stroke-width="6"/><text fill="rgb(255,255,255)" stroke="none" font-family="times new roman" font-size="10px" font-style="normal" font-weight="normal" text-decoration="normal" x="1633.5" y="360.375" text-anchor="middle" dominant-baseline="text-after-edge" fill-opacity="1">*1.58</text><path fill="rgb(69,90,100)" stroke="rgb(76,175,80)" paint-order="fill stroke markers" d=" M 1265.875 116.875 L 1265.8210533403299 118.24803417523728 L 1265.659545960415 119.61260313820404 L 1265.3914736069594 120.96029386747834 L 1265.0184890351652 122.28279740156158 L 1264.5428918189475 123.57196006638907 L 1263.9676141732964 124.81983374544207 L 1263.2962028761965 126.0187248825291 L 1262.5327974015615 127.16124191511828 L 1261.6821043980005 128.2403408457782 L 1260.7493686707646 129.24936867076457 L 1259.7403408457783 130.18210439800055 L 1258.6612419151184 131.0327974015616 L 1257.518724882529 131.79620287619662 L 1256.319833745442 132.46761417329643 L 1255.071960066389 133.0428918189475 L 1253.7827974015615 133.51848903516517 L 1252.4602938674784 133.89147360695935 L 1251.1126031382041 134.1595459604149 L 1249.7480341752373 134.32105334032974 L 1248.375 134.375 L 1247.0019658247627 134.32105334032974 L 1245.6373968617959 134.1595459604149 L 1244.2897061325216 133.89147360695935 L 1242.9672025984385 133.5184890351652 L 1241.678039933611 133.0428918189475 L 1240.430166254558 132.46761417329643 L 1239.231275117471 131.79620287619662 L 1238.0887580848816 131.0327974015616 L 1237.0096591542217 130.18210439800055 L 1236.0006313292354 129.24936867076457 L 1235.0678956019995 128.2403408457782 L 1234.2172025984385 127.16124191511828 L 1233.4537971238035 126.01872488252911 L 1232.7823858267036 124.81983374544207 L 1232.2071081810525 123.57196006638907 L 1231.7315109648348 122.28279740156158 L 1231.3585263930406 120.96029386747834 L 1231.090454039585 119.61260313820404 L 1230.9289466596701 118.2480341752373 L 1230.875 116.875 L 1230.9289466596701 115.50196582476272 L 1231.090454039585 114.13739686179596 L 1231.3585263930406 112.78970613252166 L 1231.7315109648348 111.46720259843842 L 1232.2071081810525 110.17803993361093 L 1232.7823858267036 108.93016625455793 L 1233.4537971238035 107.7312751174709 L 1234.2172025984385 106.58875808488172 L 1235.0678956019995 105.5096591542218 L 1236.0006313292354 104.50063132923542 L 1237.0096591542217 103.56789560199947 L 1238.0887580848816 102.71720259843842 L 1239.231275117471 101.95379712380338 L 1240.430166254558 101.28238582670356 L 1241.678039933611 100.70710818105248 L 1242.9672025984385 100.2315109648348 L 1244.2897061325216 99.85852639304065 L 1245.637396861796 99.59045403958508 L 1247.0019658247627 99.42894665967026 L 1248.375 99.375 L 1249.7480341752373 99.42894665967026 L 1251.1126031382041 99.5904540395851 L 1252.4602938674784 99.85852639304068 L 1253.7827974015618 100.23151096483484 L 1255.0719600663892 100.70710818105252 L 1256.319833745442 101.2823858267036 L 1257.518724882529 101.95379712380344 L 1258.6612419151184 102.71720259843849 L 1259.7403408457783 103.56789560199954 L 1260.7493686707646 104.50063132923552 L 1261.6821043980005 105.5096591542219 L 1262.5327974015618 106.58875808488185 L 1263.2962028761967 107.73127511747103 L 1263.9676141732966 108.93016625455807 L 1264.5428918189475 110.17803993361109 L 1265.0184890351652 111.46720259843859 L 1265.3914736069594 112.78970613252184 L 1265.659545960415 114.13739686179616 L 1265.8210533403299 115.50196582476292 Z" fill-opacity="1" stroke-opacity="1" stroke-miterlimit="10" stroke-width="2"/><text fill="rgb(255,255,255)" stroke="none" font-family="times new roman" font-size="10px" font-style="normal" font-weight="normal" text-decoration="normal" x="1248.375" y="121.875" text-anchor="middle" dominant-baseline="text-after-edge" fill-opacity="1">*34.1</text><path fill="rgb(69,90,100)" stroke="rgb(76,175,80)" paint-order="fill stroke markers" d=" M 896.375 345.375 L 896.375 365.375 L 991.375 365.375 L 991.375 345.375 Z" fill-opacity="1" stroke-opacity="1" stroke-miterlimit="10" stroke-width="2"/><text fill="rgb(255,255,255)" stroke="none" font-family="times new roman" font-size="10px" font-style="normal" font-weight="normal" text-decoration="normal" x="943.875" y="360.375" text-anchor="middle" dominant-baseline="text-after-edge" fill-opacity="1">42128694T&gt;C</text><path fill="rgb(69,90,100)" stroke="rgb(76,175,80)" paint-order="fill stroke markers" d=" M 506.875 425.875 L 506.82105334032974 427.2480341752373 L 506.6595459604149 428.61260313820407 L 506.3914736069593 429.96029386747836 L 506.0184890351652 431.2827974015616 L 505.5428918189475 432.57196006638907 L 504.96761417329645 433.81983374544205 L 504.2962028761966 435.0187248825291 L 503.5327974015616 436.1612419151183 L 502.68210439800055 437.24034084577823 L 501.74936867076457 438.24936867076457 L 500.74034084577823 439.18210439800055 L 499.6612419151183 440.0327974015616 L 498.5187248825291 440.7962028761966 L 497.31983374544205 441.46761417329645 L 496.07196006638907 442.0428918189475 L 494.7827974015616 442.5184890351652 L 493.46029386747836 442.8914736069593 L 492.11260313820407 443.1595459604149 L 490.7480341752373 443.32105334032974 L 489.375 443.375 L 488.0019658247627 443.32105334032974 L 486.63739686179593 443.1595459604149 L 485.28970613252164 442.8914736069593 L 483.9672025984384 442.5184890351652 L 482.67803993361093 442.0428918189475 L 481.43016625455795 441.46761417329645 L 480.2312751174709 440.7962028761966 L 479.0887580848817 440.0327974015616 L 478.00965915422177 439.18210439800055 L 477.00063132923543 438.24936867076457 L 476.06789560199945 437.24034084577823 L 475.2172025984384 436.1612419151183 L 474.4537971238034 435.0187248825291 L 473.78238582670355 433.81983374544205 L 473.2071081810525 432.57196006638907 L 472.7315109648348 431.2827974015616 L 472.3585263930407 429.96029386747836 L 472.0904540395851 428.61260313820407 L 471.92894665967026 427.2480341752373 L 471.875 425.875 L 471.92894665967026 424.5019658247627 L 472.0904540395851 423.13739686179593 L 472.3585263930407 421.78970613252164 L 472.7315109648348 420.4672025984384 L 473.2071081810525 419.17803993361093 L 473.78238582670355 417.93016625455795 L 474.4537971238034 416.7312751174709 L 475.2172025984384 415.5887580848817 L 476.06789560199945 414.50965915422177 L 477.00063132923543 413.50063132923543 L 478.00965915422177 412.56789560199945 L 479.0887580848817 411.7172025984384 L 480.2312751174709 410.9537971238034 L 481.43016625455795 410.28238582670355 L 482.67803993361093 409.7071081810525 L 483.96720259843846 409.2315109648348 L 485.2897061325217 408.8585263930407 L 486.637396861796 408.5904540395851 L 488.00196582476275 408.42894665967026 L 489.37500000000006 408.375 L 490.74803417523736 408.42894665967026 L 492.1126031382041 408.5904540395851 L 493.4602938674784 408.8585263930407 L 494.78279740156165 409.23151096483485 L 496.0719600663892 409.7071081810525 L 497.31983374544217 410.2823858267036 L 498.5187248825292 410.95379712380344 L 499.66124191511835 411.7172025984385 L 500.7403408457783 412.56789560199957 L 501.7493686707647 413.5006313292355 L 502.68210439800066 414.5096591542219 L 503.53279740156165 415.5887580848818 L 504.2962028761967 416.73127511747106 L 504.9676141732965 417.93016625455806 L 505.54289181894757 419.1780399336111 L 506.01848903516526 420.4672025984386 L 506.3914736069594 421.7897061325218 L 506.65954596041496 423.13739686179616 L 506.82105334032974 424.5019658247629 Z" fill-opacity="1" stroke-opacity="1" stroke-miterlimit="10" stroke-width="2"/><text fill="rgb(255,255,255)" stroke="none" font-family="times new roman" font-size="10px" font-style="normal" font-weight="normal" text-decoration="normal" x="489.375" y="430.875" text-anchor="middle" dominant-baseline="text-after-edge" fill-opacity="1">*1.54</text><path fill="rgb(176,190,197)" stroke="none" paint-order="stroke fill markers" d=" M 1582.875 452.5 L 1582.875 662.5 L 1657.875 662.5 L 1657.875 452.50000000000006 Z" fill-opacity="0.8"/><text fill="rgb(0,0,0)" stroke="none" font-family="times new roman" font-size="10px" font-style="normal" font-weight="normal" text-decoration="normal" x="1587.875" y="467.5" text-anchor="start" dominant-baseline="text-after-edge" fill-opacity="0.8">42129001T&gt;C </text><text fill="rgb(0,0,0)" stroke="none" font-family="times new roman" font-size="10px" font-style="normal" font-weight="normal" text-decoration="normal" x="1587.875" y="477.5" text-anchor="start" dominant-baseline="text-after-edge" fill-opacity="0.8">42131469C&gt;T </text><text fill="rgb(0,0,0)" stroke="none" font-family="times new roman" font-size="10px" font-style="normal" font-weight="normal" text-decoration="normal" x="1587.875" y="487.5" text-anchor="start" dominant-baseline="text-after-edge" fill-opacity="0.8">42131531G&gt;A </text><text fill="rgb(0,0,0)" stroke="none" font-family="times new roman" font-size="10px" font-style="normal" font-weight="normal" text-decoration="normal" x="1587.875" y="497.5" text-anchor="start" dominant-baseline="text-after-edge" fill-opacity="0.8">42132375G&gt;C </text><path fill="rgb(176,190,197)" stroke="none" paint-order="stroke fill markers" d=" M 1474.5 452.5 L 1541.5 452.5 L 1541.5 452.5 A 8 8 0 0 1 1549.5 460.5 L 1549.5 654.5 L 1549.5 654.5 A 8 8 0 0 1 1541.5 662.5 L 1407.5 662.5 L 1407.5 662.5 A 8 8 0 0 1 1399.5 654.5 L 1399.5 460.5 L 1399.5 460.5 A 8 8 0 0 1 1407.5 452.5 L 1474.5 452.5 Z" fill-opacity="0.8"/><text fill="rgb(0,0,0)" stroke="none" font-family="times new roman" font-size="10px" font-style="normal" font-weight="normal" text-decoration="normal" x="1404.5" y="467.5" text-anchor="start" dominant-baseline="text-after-edge" fill-opacity="0.8">42125572G&gt;A </text><text fill="rgb(0,0,0)" stroke="none" font-family="times new roman" font-size="10px" font-style="normal" font-weight="normal" text-decoration="normal" x="1404.5" y="477.5" text-anchor="start" dominant-baseline="text-after-edge" fill-opacity="0.8">42125924A&gt;G </text><text fill="rgb(0,0,0)" stroke="none" font-family="times new roman" font-size="10px" font-style="normal" font-weight="normal" text-decoration="normal" x="1404.5" y="487.5" text-anchor="start" dominant-baseline="text-after-edge" fill-opacity="0.8">42125980T&gt;C </text><text fill="rgb(0,0,0)" stroke="none" font-family="times new roman" font-size="10px" font-style="normal" font-weight="normal" text-decoration="normal" x="1404.5" y="497.5" text-anchor="start" dominant-baseline="text-after-edge" fill-opacity="0.8">42126069A&gt;C </text><text fill="rgb(0,0,0)" stroke="none" font-family="times new roman" font-size="10px" font-style="normal" font-weight="normal" text-decoration="normal" x="1404.5" y="507.5" text-anchor="start" dominant-baseline="text-after-edge" fill-opacity="0.8">42126136_42126138del </text><text fill="rgb(0,0,0)" stroke="none" font-family="times new roman" font-size="10px" font-style="normal" font-weight="normal" text-decoration="normal" x="1404.5" y="517.5" text-anchor="start" dominant-baseline="text-after-edge" fill-opacity="0.8">42132025_42132026insCCTTTT </text><text fill="rgb(0,0,0)" stroke="none" font-family="times new roman" font-size="10px" font-style="normal" font-weight="normal" text-decoration="normal" x="1404.5" y="527.5" text-anchor="start" dominant-baseline="text-after-edge" fill-opacity="0.8">42132027C&gt;T </text><text fill="rgb(0,0,0)" stroke="none" font-family="times new roman" font-size="10px" font-style="normal" font-weight="normal" text-decoration="normal" x="1404.5" y="537.5" text-anchor="start" dominant-baseline="text-after-edge" fill-opacity="0.8">42132561C&gt;T </text><text fill="rgb(0,0,0)" stroke="none" font-family="times new roman" font-size="10px" font-style="normal" font-weight="normal" text-decoration="normal" x="1404.5" y="547.5" text-anchor="start" dominant-baseline="text-after-edge" fill-opacity="0.8">42132844C&gt;A </text><text fill="rgb(0,0,0)" stroke="none" font-family="times new roman" font-size="10px" font-style="normal" font-weight="normal" text-decoration="normal" x="1404.5" y="557.5" text-anchor="start" dominant-baseline="text-after-edge" fill-opacity="0.8">42132851T&gt;C </text><text fill="rgb(0,0,0)" stroke="none" font-family="times new roman" font-size="10px" font-style="normal" font-weight="normal" text-decoration="normal" x="1404.5" y="567.5" text-anchor="start" dominant-baseline="text-after-edge" fill-opacity="0.8">42132969C&gt;T </text><text fill="rgb(0,0,0)" stroke="none" font-family="times new roman" font-size="10px" font-style="normal" font-weight="normal" text-decoration="normal" x="1404.5" y="577.5" text-anchor="start" dominant-baseline="text-after-edge" fill-opacity="0.8">42133212A&gt;G </text><text fill="rgb(0,0,0)" stroke="none" font-family="times new roman" font-size="10px" font-style="normal" font-weight="normal" text-decoration="normal" x="1404.5" y="587.5" text-anchor="start" dominant-baseline="text-after-edge" fill-opacity="0.8">42133314C&gt;T </text><text fill="rgb(0,0,0)" stroke="none" font-family="times new roman" font-size="10px" font-style="normal" font-weight="normal" text-decoration="normal" x="1404.5" y="597.5" text-anchor="start" dominant-baseline="text-after-edge" fill-opacity="0.8">42133400T&gt;G </text><text fill="rgb(0,0,0)" stroke="none" font-family="times new roman" font-size="10px" font-style="normal" font-weight="normal" text-decoration="normal" x="1404.5" y="607.5" text-anchor="start" dominant-baseline="text-after-edge" fill-opacity="0.8">42133533A&gt;C </text><text fill="rgb(0,0,0)" stroke="none" font-family="times new roman" font-size="10px" font-style="normal" font-weight="normal" text-decoration="normal" x="1404.5" y="617.5" text-anchor="start" dominant-baseline="text-after-edge" fill-opacity="0.8">42134096del </text><text fill="rgb(0,0,0)" stroke="none" font-family="times new roman" font-size="10px" font-style="normal" font-weight="normal" text-decoration="normal" x="1404.5" y="627.5" text-anchor="start" dominant-baseline="text-after-edge" fill-opacity="0.8">42134820T&gt;G </text><text fill="rgb(0,0,0)" stroke="none" font-family="times new roman" font-size="10px" font-style="normal" font-weight="normal" text-decoration="normal" x="1404.5" y="637.5" text-anchor="start" dominant-baseline="text-after-edge" fill-opacity="0.8">42135064_42135066dup </text><text fill="rgb(0,0,0)" stroke="none" font-family="times new roman" font-size="10px" font-style="normal" font-weight="normal" text-decoration="normal" x="1404.5" y="647.5" text-anchor="start" dominant-baseline="text-after-edge" fill-opacity="0.8">42135201T&gt;C </text><text fill="rgb(0,0,0)" stroke="none" font-family="times new roman" font-size="10px" font-style="normal" font-weight="normal" text-decoration="normal" x="1404.5" y="657.5" text-anchor="start" dominant-baseline="text-after-edge" fill-opacity="0.8">42135691T&gt;C </text><g transform="scale(1.9242424242424243,1.9242424242424243) translate(120.5787401574803,-95.08661417322836)"/></g></svg>