<svg version="1.1" xmlns="http://www.w3.org/2000/svg" xmlns:xlink="http://www.w3.org/1999/xlink" width="1017" height="608"><defs/><g transform="translate(-109.95125348189413,-49.06220984215412) scale(1.1847725162488394,1.1847725162488394)"><path fill="none" stroke="rgb(120,144,156)" paint-order="fill stroke markers" d=" M 587.6651662049861 251.125 L 594.8990050944055 268.6512807991974" stroke-opacity="1" stroke-linejoin="round" stroke-miterlimit="10"/><path fill="rgb(120,144,156)" stroke="none" paint-order="stroke fill markers" d=" M 588.3218408629075 264.1176938449301 L 595.6620498614958 270.5 L 596.3637693863988 260.7984491080874 Z" fill-opacity="1"/><path fill="none" stroke="rgb(120,144,156)" paint-order="fill stroke markers" d=" M 233.70660932627723 388.49271242632005 L 388.0580127217179 490.9073487057145" stroke-opacity="1" stroke-linejoin="round" stroke-miterlimit="10"/><path fill="rgb(120,144,156)" stroke="none" paint-order="stroke fill markers" d=" M 380.0701369114817 490.8277243360533 L 389.72453266437975 492.0131114654013 L 384.88020491611934 483.57836258547405 Z" fill-opacity="1"/><path fill="none" stroke="rgb(55,71,79)" paint-order="fill stroke markers" d=" M 201.37035381537424 177.78417432659165 L 244.43495596425433 223.09172450405924" stroke-opacity="1" stroke-linejoin="round" stroke-miterlimit="10" stroke-width="2"/><path fill="none" stroke="rgb(55,71,79)" paint-order="fill stroke markers" d=" M 384.60109548347265 106.68856903160199 L 407.42901384531854 144.28749339228938" stroke-opacity="1" stroke-linejoin="round" stroke-miterlimit="10" stroke-width="2"/><path fill="none" stroke="rgb(120,144,156)" paint-order="fill stroke markers" d=" M 350.25 424.98308270676694 L 397.2720793183888 487.03101443892655" stroke-opacity="1" stroke-linejoin="round" stroke-miterlimit="10"/><path fill="rgb(120,144,156)" stroke="none" paint-order="stroke fill markers" d=" M 389.7584355564656 484.3185142234588 L 398.480056980057 488.625 L 396.69227274713506 479.06381139520215 Z" fill-opacity="1"/><path fill="none" stroke="rgb(120,144,156)" paint-order="fill stroke markers" d=" M 412.5 396 L 412.5 486.625" stroke-opacity="1" stroke-linejoin="round" stroke-miterlimit="10"/><path fill="rgb(120,144,156)" stroke="none" paint-order="stroke fill markers" d=" M 408.15 479.925 L 412.5 488.625 L 416.85 479.925 Z" fill-opacity="1"/><path fill="none" stroke="rgb(120,144,156)" paint-order="fill stroke markers" d=" M 171.40339335180056 251.125 L 205.84106732066812 351.3830669577515" stroke-opacity="1" stroke-linejoin="round" stroke-miterlimit="10"/><path fill="rgb(120,144,156)" stroke="none" paint-order="stroke fill markers" d=" M 199.55043956830323 346.45960247822325 L 206.4907875308118 353.27459111792786 L 207.77856966507036 343.6333195640982 Z" fill-opacity="1"/><path fill="none" stroke="rgb(120,144,156)" paint-order="fill stroke markers" d=" M 260.625 189.875 L 260.625 214.625" stroke-opacity="1" stroke-linejoin="round" stroke-miterlimit="10"/><path fill="rgb(120,144,156)" stroke="none" paint-order="stroke fill markers" d=" M 256.275 207.925 L 260.625 216.625 L 264.975 207.925 Z" fill-opacity="1"/><path fill="none" stroke="rgb(120,144,156)" paint-order="fill stroke markers" d=" M 360.6346952908587 253.125 L 403.71999758547804 354.78378515266394" stroke-opacity="1" stroke-linejoin="round" stroke-miterlimit="10"/><path fill="rgb(120,144,156)" stroke="none" paint-order="stroke fill markers" d=" M 397.10037310711317 350.3124238649314 L 404.50044224454666 356.62522647242713 L 405.11064284808316 346.9174895979829 Z" fill-opacity="1"/><path fill="none" stroke="rgb(120,144,156)" paint-order="fill stroke markers" d=" M 464.3653047091413 253.125 L 421.28000241452196 354.78378515266394" stroke-opacity="1" stroke-linejoin="round" stroke-miterlimit="10"/><path fill="rgb(120,144,156)" stroke="none" paint-order="stroke fill markers" d=" M 419.88935715191684 346.9174895979829 L 420.49955775545334 356.62522647242713 L 427.89962689288683 350.3124238649314 Z" fill-opacity="1"/><path fill="none" stroke="rgb(120,144,156)" paint-order="fill stroke markers" d=" M 690.3348337950139 251.125 L 683.1009949055945 268.6512807991974" stroke-opacity="1" stroke-linejoin="round" stroke-miterlimit="10"/><path fill="rgb(120,144,156)" stroke="none" paint-order="stroke fill markers" d=" M 681.6362306136012 260.7984491080874 L 682.3379501385042 270.5 L 689.6781591370925 264.1176938449301 Z" fill-opacity="1"/><path fill="none" stroke="rgb(55,71,79)" paint-order="fill stroke markers" d=" M 785.625 177.375 L 785.625 219.625" stroke-opacity="1" stroke-linejoin="round" stroke-miterlimit="10" stroke-width="2"/><path fill="none" stroke="rgb(120,144,156)" paint-order="fill stroke markers" d=" M 564 419.08443708609275 L 438.2214648042683 492.17759247301626" stroke-opacity="1" stroke-linejoin="round" stroke-miterlimit="10"/><path fill="rgb(120,144,156)" stroke="none" paint-order="stroke fill markers" d=" M 441.8286999052618 485.050155701907 L 436.4922479539339 493.18248504663774 L 446.1999826005152 492.57224900086163 Z" fill-opacity="1"/><path fill="none" stroke="rgb(120,144,156)" paint-order="fill stroke markers" d=" M 792.1399658752929 259.5622122395103 L 824.4850341247071 356.06278776048975" stroke-opacity="1" stroke-linejoin="round" stroke-miterlimit="10"/><path fill="rgb(120,144,156)" stroke="none" paint-order="stroke fill markers" d=" M 818.2312709731788 351.09258188501684 L 825.120640551565 357.95910114971025 L 826.480234216288 348.32769392818517 Z" fill-opacity="1"/><path fill="none" stroke="rgb(55,71,79)" paint-order="fill stroke markers" d=" M 457.57142857142856 101.875 L 431.82098615468146 144.28749339228938" stroke-opacity="1" stroke-linejoin="round" stroke-miterlimit="10" stroke-width="2"/><path fill="none" stroke="rgb(120,144,156)" paint-order="fill stroke markers" d=" M 252.9907875308118 262.35040888207214 L 222.40893267933188 351.3830669577515" stroke-opacity="1" stroke-linejoin="round" stroke-miterlimit="10"/><path fill="rgb(120,144,156)" stroke="none" paint-order="stroke fill markers" d=" M 220.47143033492964 343.6333195640982 L 221.7592124691882 353.27459111792786 L 228.69956043169677 346.45960247822325 Z" fill-opacity="1"/><path fill="none" stroke="rgb(120,144,156)" paint-order="fill stroke markers" d=" M 813.3522797186213 381.0504926691433 L 443.41484087857845 497.4017839172213" stroke-opacity="1" stroke-linejoin="round" stroke-miterlimit="10"/><path fill="rgb(120,144,156)" stroke="none" paint-order="stroke fill markers" d=" M 448.50106156909004 491.2420063979101 L 441.5069792265375 498.0018371787503 L 451.1112932567412 499.54120458428815 Z" fill-opacity="1"/><path fill="none" stroke="rgb(120,144,156)" paint-order="fill stroke markers" d=" M 872.6880193905818 251.125 L 837.5149658752929 356.06278776048975" stroke-opacity="1" stroke-linejoin="round" stroke-miterlimit="10"/><path fill="rgb(120,144,156)" stroke="none" paint-order="stroke fill markers" d=" M 835.519765783712 348.32769392818517 L 836.879359448435 357.95910114971025 L 843.7687290268212 351.09258188501684 Z" fill-opacity="1"/><path fill="none" stroke="rgb(120,144,156)" paint-order="fill stroke markers" d=" M 398.4096279323589 174.48232348505542 L 283.6459356478659 229.1574787715356" stroke-opacity="1" stroke-linejoin="round" stroke-miterlimit="10"/><path fill="rgb(120,144,156)" stroke="none" paint-order="stroke fill markers" d=" M 287.82364354970434 222.34871554412666 L 281.8403720676411 230.01767651494458 L 291.56550373353343 230.20291711810444 Z" fill-opacity="1"/><path fill="none" stroke="rgb(55,71,79)" paint-order="fill stroke markers" d=" M 222.65816326530611 103.875 L 247.0704273259076 142.77584354372266" stroke-opacity="1" stroke-linejoin="round" stroke-miterlimit="10" stroke-width="2"/><path fill="none" stroke="rgb(55,71,79)" paint-order="fill stroke markers" d=" M 295.85318667376885 108.23902773936021 L 274.1795726740924 142.77584354372266" stroke-opacity="1" stroke-linejoin="round" stroke-miterlimit="10" stroke-width="2"/><path fill="rgb(69,90,100)" stroke="rgb(76,175,80)" paint-order="fill stroke markers" d=" M 848.5 375.5 L 848.4460533403297 376.8730341752373 L 848.2845459604149 378.23760313820407 L 848.0164736069594 379.58529386747836 L 847.6434890351652 380.9077974015616 L 847.1678918189475 382.19696006638907 L 846.5926141732964 383.44483374544205 L 845.9212028761966 384.6437248825291 L 845.1577974015615 385.7862419151183 L 844.3071043980005 386.86534084577823 L 843.3743686707646 387.87436867076457 L 842.3653408457782 388.80710439800055 L 841.2862419151182 389.6577974015616 L 840.1437248825291 390.4212028761966 L 838.9448337454421 391.09261417329645 L 837.6969600663891 391.6678918189475 L 836.4077974015615 392.1434890351652 L 835.0852938674783 392.5164736069593 L 833.737603138204 392.7845459604149 L 832.3730341752373 392.94605334032974 L 831 393 L 829.6269658247627 392.94605334032974 L 828.262396861796 392.7845459604149 L 826.9147061325217 392.5164736069593 L 825.5922025984385 392.1434890351652 L 824.3030399336109 391.6678918189475 L 823.0551662545579 391.09261417329645 L 821.8562751174709 390.4212028761966 L 820.7137580848818 389.6577974015616 L 819.6346591542218 388.80710439800055 L 818.6256313292354 387.87436867076457 L 817.6928956019995 386.86534084577823 L 816.8422025984385 385.7862419151183 L 816.0787971238034 384.6437248825291 L 815.4073858267036 383.44483374544205 L 814.8321081810525 382.19696006638907 L 814.3565109648348 380.9077974015616 L 813.9835263930406 379.58529386747836 L 813.7154540395851 378.23760313820407 L 813.5539466596703 376.8730341752373 L 813.5 375.5 L 813.5539466596703 374.1269658247627 L 813.7154540395851 372.76239686179593 L 813.9835263930406 371.41470613252164 L 814.3565109648348 370.0922025984384 L 814.8321081810525 368.80303993361093 L 815.4073858267036 367.55516625455795 L 816.0787971238034 366.3562751174709 L 816.8422025984385 365.2137580848817 L 817.6928956019995 364.13465915422177 L 818.6256313292354 363.12563132923543 L 819.6346591542218 362.19289560199945 L 820.7137580848818 361.3422025984384 L 821.8562751174709 360.5787971238034 L 823.0551662545579 359.90738582670355 L 824.303039933611 359.3321081810525 L 825.5922025984385 358.8565109648348 L 826.9147061325217 358.4835263930407 L 828.262396861796 358.2154540395851 L 829.6269658247628 358.05394665967026 L 831.0000000000001 358 L 832.3730341752373 358.05394665967026 L 833.7376031382041 358.2154540395851 L 835.0852938674784 358.4835263930407 L 836.4077974015617 358.85651096483485 L 837.6969600663891 359.3321081810525 L 838.9448337454421 359.9073858267036 L 840.1437248825292 360.57879712380344 L 841.2862419151184 361.3422025984385 L 842.3653408457783 362.19289560199957 L 843.3743686707646 363.1256313292355 L 844.3071043980007 364.1346591542219 L 845.1577974015617 365.2137580848818 L 845.9212028761967 366.35627511747106 L 846.5926141732965 367.55516625455806 L 847.1678918189476 368.8030399336111 L 847.6434890351652 370.0922025984386 L 848.0164736069594 371.4147061325218 L 848.2845459604149 372.76239686179616 L 848.4460533403297 374.1269658247629 Z" fill-opacity="1" stroke-opacity="1" stroke-miterlimit="10" stroke-width="2"/><text fill="rgb(255,255,255)" stroke="none" font-family="times new roman" font-size="10px" font-style="normal" font-weight="normal" text-decoration="normal" x="831" y="380.5" text-anchor="middle" dominant-baseline="text-after-edge" fill-opacity="1">*1.54</text><path fill="rgb(69,90,100)" stroke="rgb(76,175,80)" paint-order="fill stroke markers" d=" M 206.125 164.375 L 206.07105334032974 165.74803417523728 L 205.9095459604149 167.11260313820404 L 205.64147360695935 168.46029386747836 L 205.26848903516517 169.78279740156157 L 204.7928918189475 171.07196006638907 L 204.21761417329643 172.31983374544205 L 203.54620287619662 173.5187248825291 L 202.7827974015616 174.66124191511827 L 201.93210439800055 175.7403408457782 L 200.99936867076457 176.74936867076457 L 199.9903408457782 177.68210439800055 L 198.91124191511827 178.5327974015616 L 197.7687248825291 179.29620287619662 L 196.56983374544208 179.96761417329643 L 195.32196006638907 180.5428918189475 L 194.0327974015616 181.01848903516517 L 192.71029386747836 181.39147360695935 L 191.36260313820404 181.6595459604149 L 189.99803417523728 181.82105334032974 L 188.625 181.875 L 187.25196582476272 181.82105334032974 L 185.88739686179596 181.6595459604149 L 184.53970613252164 181.39147360695935 L 183.21720259843843 181.0184890351652 L 181.92803993361093 180.5428918189475 L 180.68016625455795 179.96761417329643 L 179.4812751174709 179.29620287619662 L 178.33875808488173 178.5327974015616 L 177.2596591542218 177.68210439800055 L 176.25063132923543 176.74936867076457 L 175.31789560199945 175.7403408457782 L 174.46720259843843 174.6612419151183 L 173.70379712380338 173.5187248825291 L 173.03238582670357 172.31983374544208 L 172.4571081810525 171.07196006638907 L 171.98151096483483 169.7827974015616 L 171.60852639304065 168.46029386747836 L 171.3404540395851 167.11260313820404 L 171.17894665967026 165.74803417523728 L 171.125 164.375 L 171.17894665967026 163.00196582476272 L 171.3404540395851 161.63739686179596 L 171.60852639304065 160.28970613252164 L 171.9815109648348 158.96720259843843 L 172.4571081810525 157.67803993361093 L 173.03238582670357 156.43016625455795 L 173.70379712380338 155.2312751174709 L 174.4672025984384 154.08875808488173 L 175.31789560199945 153.0096591542218 L 176.2506313292354 152.00063132923543 L 177.25965915422177 151.06789560199945 L 178.3387580848817 150.21720259843843 L 179.4812751174709 149.45379712380338 L 180.68016625455795 148.78238582670355 L 181.92803993361096 148.2071081810525 L 183.21720259843843 147.7315109648348 L 184.5397061325217 147.35852639304065 L 185.887396861796 147.0904540395851 L 187.25196582476278 146.92894665967026 L 188.62500000000006 146.875 L 189.99803417523736 146.92894665967026 L 191.36260313820412 147.0904540395851 L 192.7102938674784 147.35852639304068 L 194.03279740156165 147.73151096483485 L 195.32196006638915 148.20710818105252 L 196.56983374544217 148.7823858267036 L 197.7687248825292 149.45379712380344 L 198.91124191511838 150.2172025984385 L 199.99034084577832 151.06789560199954 L 200.99936867076468 152.00063132923552 L 201.93210439800063 153.0096591542219 L 202.78279740156168 154.08875808488185 L 203.5462028761967 155.23127511747103 L 204.2176141732965 156.4301662545581 L 204.7928918189476 157.6780399336111 L 205.26848903516523 158.9672025984386 L 205.64147360695938 160.28970613252184 L 205.90954596041493 161.63739686179616 L 206.07105334032974 163.00196582476292 Z" fill-opacity="1" stroke-opacity="1" stroke-miterlimit="10" stroke-width="2"/><text fill="rgb(255,255,255)" stroke="none" font-family="times new roman" font-size="10px" font-style="normal" font-weight="normal" text-decoration="normal" x="188.625" y="169.375" text-anchor="middle" dominant-baseline="text-after-edge" fill-opacity="1">*2.4</text><path fill="rgb(69,90,100)" stroke="rgb(69,90,100)" paint-order="fill stroke markers" d=" M 393.75 489.625 L 375 507.125 L 393.75 524.625 L 431.25 524.625 L 450 507.125 L 431.25000000000006 489.625 Z" fill-opacity="1" stroke-opacity="1" stroke-miterlimit="10" stroke-width="2"/><text fill="rgb(255,255,255)" stroke="none" font-family="times new roman" font-size="10px" font-style="normal" font-weight="normal" text-decoration="normal" x="412.5" y="512.125" text-anchor="middle" dominant-baseline="text-after-edge" fill-opacity="1">HG02373-A</text><path fill="rgb(69,90,100)" stroke="rgb(158,158,158)" paint-order="fill stroke markers" d=" M 120.12500000000001 230.125 L 120.125 250.125 L 215.12499999999997 250.125 L 215.125 230.125 Z" fill-opacity="1" stroke-opacity="1" stroke-miterlimit="10" stroke-width="2"/><text fill="rgb(255,255,255)" stroke="none" font-family="times new roman" font-size="10px" font-style="normal" font-weight="normal" text-decoration="normal" x="167.625" y="245.125" text-anchor="middle" dominant-baseline="text-after-edge" fill-opacity="1">42129033C&gt;T</text><path fill="rgb(69,90,100)" stroke="rgb(76,175,80)" paint-order="fill stroke markers" d=" M 422.375 230.125 L 422.375 250.125 L 517.375 250.125 L 517.375 230.125 Z" fill-opacity="1" stroke-opacity="1" stroke-miterlimit="10" stroke-width="6"/><text fill="rgb(255,255,255)" stroke="none" font-family="times new roman" font-size="10px" font-style="normal" font-weight="normal" text-decoration="normal" x="469.875" y="245.125" text-anchor="middle" dominant-baseline="text-after-edge" fill-opacity="1">42129950A&gt;C</text><path fill="rgb(69,90,100)" stroke="rgb(76,175,80)" paint-order="fill stroke markers" d=" M 430 375.5 L 429.94605334032974 376.8730341752373 L 429.7845459604149 378.23760313820407 L 429.5164736069593 379.58529386747836 L 429.1434890351652 380.9077974015616 L 428.6678918189475 382.19696006638907 L 428.09261417329645 383.44483374544205 L 427.4212028761966 384.6437248825291 L 426.6577974015616 385.7862419151183 L 425.80710439800055 386.86534084577823 L 424.87436867076457 387.87436867076457 L 423.86534084577823 388.80710439800055 L 422.7862419151183 389.6577974015616 L 421.6437248825291 390.4212028761966 L 420.44483374544205 391.09261417329645 L 419.19696006638907 391.6678918189475 L 417.9077974015616 392.1434890351652 L 416.58529386747836 392.5164736069593 L 415.23760313820407 392.7845459604149 L 413.8730341752373 392.94605334032974 L 412.5 393 L 411.1269658247627 392.94605334032974 L 409.76239686179593 392.7845459604149 L 408.41470613252164 392.5164736069593 L 407.0922025984384 392.1434890351652 L 405.80303993361093 391.6678918189475 L 404.55516625455795 391.09261417329645 L 403.3562751174709 390.4212028761966 L 402.2137580848817 389.6577974015616 L 401.13465915422177 388.80710439800055 L 400.12563132923543 387.87436867076457 L 399.19289560199945 386.86534084577823 L 398.3422025984384 385.7862419151183 L 397.5787971238034 384.6437248825291 L 396.90738582670355 383.44483374544205 L 396.3321081810525 382.19696006638907 L 395.8565109648348 380.9077974015616 L 395.4835263930407 379.58529386747836 L 395.2154540395851 378.23760313820407 L 395.05394665967026 376.8730341752373 L 395 375.5 L 395.05394665967026 374.1269658247627 L 395.2154540395851 372.76239686179593 L 395.4835263930407 371.41470613252164 L 395.8565109648348 370.0922025984384 L 396.3321081810525 368.80303993361093 L 396.90738582670355 367.55516625455795 L 397.5787971238034 366.3562751174709 L 398.3422025984384 365.2137580848817 L 399.19289560199945 364.13465915422177 L 400.12563132923543 363.12563132923543 L 401.13465915422177 362.19289560199945 L 402.2137580848817 361.3422025984384 L 403.3562751174709 360.5787971238034 L 404.55516625455795 359.90738582670355 L 405.80303993361093 359.3321081810525 L 407.09220259843846 358.8565109648348 L 408.4147061325217 358.4835263930407 L 409.762396861796 358.2154540395851 L 411.12696582476275 358.05394665967026 L 412.50000000000006 358 L 413.87303417523736 358.05394665967026 L 415.2376031382041 358.2154540395851 L 416.5852938674784 358.4835263930407 L 417.90779740156165 358.85651096483485 L 419.1969600663892 359.3321081810525 L 420.44483374544217 359.9073858267036 L 421.6437248825292 360.57879712380344 L 422.78624191511835 361.3422025984385 L 423.8653408457783 362.19289560199957 L 424.8743686707647 363.1256313292355 L 425.80710439800066 364.1346591542219 L 426.65779740156165 365.2137580848818 L 427.4212028761967 366.35627511747106 L 428.0926141732965 367.55516625455806 L 428.66789181894757 368.8030399336111 L 429.14348903516526 370.0922025984386 L 429.5164736069594 371.4147061325218 L 429.78454596041496 372.76239686179616 L 429.94605334032974 374.1269658247629 Z" fill-opacity="1" stroke-opacity="1" stroke-miterlimit="10" stroke-width="6"/><text fill="rgb(255,255,255)" stroke="none" font-family="times new roman" font-size="10px" font-style="normal" font-weight="normal" text-decoration="normal" x="412.5" y="380.5" text-anchor="middle" dominant-baseline="text-after-edge" fill-opacity="1">*1.58</text><path fill="rgb(69,90,100)" stroke="rgb(76,175,80)" paint-order="fill stroke markers" d=" M 392.5 90.875 L 392.44605334032974 92.24803417523728 L 392.2845459604149 93.61260313820404 L 392.0164736069593 94.96029386747834 L 391.6434890351652 96.28279740156158 L 391.1678918189475 97.57196006638907 L 390.59261417329645 98.81983374544207 L 389.9212028761966 100.0187248825291 L 389.1577974015616 101.16124191511828 L 388.30710439800055 102.2403408457782 L 387.37436867076457 103.24936867076458 L 386.36534084577823 104.18210439800055 L 385.2862419151183 105.03279740156158 L 384.1437248825291 105.79620287619662 L 382.94483374544205 106.46761417329644 L 381.69696006638907 107.04289181894751 L 380.4077974015616 107.51848903516519 L 379.08529386747836 107.89147360695934 L 377.73760313820407 108.1595459604149 L 376.3730341752373 108.32105334032974 L 375 108.375 L 373.6269658247627 108.32105334032974 L 372.26239686179593 108.1595459604149 L 370.91470613252164 107.89147360695934 L 369.5922025984384 107.51848903516519 L 368.30303993361093 107.04289181894751 L 367.05516625455795 106.46761417329644 L 365.8562751174709 105.79620287619662 L 364.7137580848817 105.03279740156158 L 363.63465915422177 104.18210439800055 L 362.62563132923543 103.24936867076458 L 361.69289560199945 102.24034084577822 L 360.8422025984384 101.16124191511828 L 360.0787971238034 100.01872488252911 L 359.40738582670355 98.81983374544207 L 358.8321081810525 97.57196006638907 L 358.3565109648348 96.28279740156158 L 357.9835263930407 94.96029386747834 L 357.7154540395851 93.61260313820404 L 357.55394665967026 92.2480341752373 L 357.5 90.875 L 357.55394665967026 89.50196582476272 L 357.7154540395851 88.13739686179596 L 357.9835263930407 86.78970613252166 L 358.3565109648348 85.46720259843842 L 358.8321081810525 84.17803993361093 L 359.40738582670355 82.93016625455793 L 360.0787971238034 81.7312751174709 L 360.8422025984384 80.58875808488172 L 361.69289560199945 79.5096591542218 L 362.62563132923543 78.50063132923542 L 363.63465915422177 77.56789560199947 L 364.7137580848817 76.71720259843842 L 365.8562751174709 75.95379712380338 L 367.05516625455795 75.28238582670356 L 368.30303993361093 74.70710818105248 L 369.59220259843846 74.2315109648348 L 370.9147061325217 73.85852639304065 L 372.262396861796 73.59045403958508 L 373.62696582476275 73.42894665967026 L 375.00000000000006 73.375 L 376.37303417523736 73.42894665967026 L 377.7376031382041 73.5904540395851 L 379.0852938674784 73.85852639304068 L 380.40779740156165 74.23151096483484 L 381.6969600663892 74.70710818105252 L 382.94483374544217 75.2823858267036 L 384.1437248825292 75.95379712380344 L 385.28624191511835 76.71720259843849 L 386.3653408457783 77.56789560199954 L 387.3743686707647 78.50063132923552 L 388.30710439800066 79.5096591542219 L 389.15779740156165 80.58875808488185 L 389.9212028761967 81.73127511747103 L 390.5926141732965 82.93016625455807 L 391.16789181894757 84.17803993361109 L 391.64348903516526 85.46720259843859 L 392.0164736069594 86.78970613252184 L 392.28454596041496 88.13739686179616 L 392.44605334032974 89.50196582476292 Z" fill-opacity="1" stroke-opacity="1" stroke-miterlimit="10" stroke-width="2"/><text fill="rgb(255,255,255)" stroke="none" font-family="times new roman" font-size="10px" font-style="normal" font-weight="normal" text-decoration="normal" x="375" y="95.875" text-anchor="middle" dominant-baseline="text-after-edge" fill-opacity="1">*34.1</text><path fill="rgb(69,90,100)" stroke="rgb(76,175,80)" paint-order="fill stroke markers" d=" M 828.875 230.125 L 828.875 250.125 L 923.875 250.125 L 923.875 230.125 Z" fill-opacity="1" stroke-opacity="1" stroke-miterlimit="10" stroke-width="2"/><text fill="rgb(255,255,255)" stroke="none" font-family="times new roman" font-size="10px" font-style="normal" font-weight="normal" text-decoration="normal" x="876.375" y="245.125" text-anchor="middle" dominant-baseline="text-after-edge" fill-opacity="1">42130047G&gt;C</text><path fill="rgb(69,90,100)" stroke="rgb(76,175,80)" paint-order="fill stroke markers" d=" M 324.25 90.875 L 324.19605334032974 92.24803417523728 L 324.0345459604149 93.61260313820404 L 323.7664736069593 94.96029386747834 L 323.3934890351652 96.28279740156158 L 322.9178918189475 97.57196006638907 L 322.34261417329645 98.81983374544207 L 321.6712028761966 100.0187248825291 L 320.9077974015616 101.16124191511828 L 320.05710439800055 102.2403408457782 L 319.12436867076457 103.24936867076458 L 318.11534084577823 104.18210439800055 L 317.0362419151183 105.03279740156158 L 315.8937248825291 105.79620287619662 L 314.69483374544205 106.46761417329644 L 313.44696006638907 107.04289181894751 L 312.1577974015616 107.51848903516519 L 310.83529386747836 107.89147360695934 L 309.48760313820407 108.1595459604149 L 308.1230341752373 108.32105334032974 L 306.75 108.375 L 305.3769658247627 108.32105334032974 L 304.01239686179593 108.1595459604149 L 302.66470613252164 107.89147360695934 L 301.3422025984384 107.51848903516519 L 300.05303993361093 107.04289181894751 L 298.80516625455795 106.46761417329644 L 297.6062751174709 105.79620287619662 L 296.4637580848817 105.03279740156158 L 295.38465915422177 104.18210439800055 L 294.37563132923543 103.24936867076458 L 293.44289560199945 102.24034084577822 L 292.5922025984384 101.16124191511828 L 291.8287971238034 100.01872488252911 L 291.15738582670355 98.81983374544207 L 290.5821081810525 97.57196006638907 L 290.1065109648348 96.28279740156158 L 289.7335263930407 94.96029386747834 L 289.4654540395851 93.61260313820404 L 289.30394665967026 92.2480341752373 L 289.25 90.875 L 289.30394665967026 89.50196582476272 L 289.4654540395851 88.13739686179596 L 289.7335263930407 86.78970613252166 L 290.1065109648348 85.46720259843842 L 290.5821081810525 84.17803993361093 L 291.15738582670355 82.93016625455793 L 291.8287971238034 81.7312751174709 L 292.5922025984384 80.58875808488172 L 293.44289560199945 79.5096591542218 L 294.37563132923543 78.50063132923542 L 295.38465915422177 77.56789560199947 L 296.4637580848817 76.71720259843842 L 297.6062751174709 75.95379712380338 L 298.80516625455795 75.28238582670356 L 300.05303993361093 74.70710818105248 L 301.34220259843846 74.2315109648348 L 302.6647061325217 73.85852639304065 L 304.012396861796 73.59045403958508 L 305.37696582476275 73.42894665967026 L 306.75000000000006 73.375 L 308.12303417523736 73.42894665967026 L 309.4876031382041 73.5904540395851 L 310.8352938674784 73.85852639304068 L 312.15779740156165 74.23151096483484 L 313.4469600663892 74.70710818105252 L 314.69483374544217 75.2823858267036 L 315.8937248825292 75.95379712380344 L 317.03624191511835 76.71720259843849 L 318.1153408457783 77.56789560199954 L 319.1243686707647 78.50063132923552 L 320.05710439800066 79.5096591542219 L 320.90779740156165 80.58875808488185 L 321.6712028761967 81.73127511747103 L 322.3426141732965 82.93016625455807 L 322.91789181894757 84.17803993361109 L 323.39348903516526 85.46720259843859 L 323.7664736069594 86.78970613252184 L 324.03454596041496 88.13739686179616 L 324.19605334032974 89.50196582476292 Z" fill-opacity="1" stroke-opacity="1" stroke-miterlimit="10" stroke-width="6"/><text fill="rgb(255,255,255)" stroke="none" font-family="times new roman" font-size="10px" font-style="normal" font-weight="normal" text-decoration="normal" x="306.75" y="95.875" text-anchor="middle" dominant-baseline="text-after-edge" fill-opacity="1">*39.2</text><path fill="rgb(69,90,100)" stroke="rgb(76,175,80)" paint-order="fill stroke markers" d=" M 283.125 240.125 L 283.0556400089954 241.8903296538765 L 282.8479876633906 243.64477546340518 L 282.50332320894773 245.37752068675786 L 282.02377161664094 247.07788237343632 L 281.41228948150393 248.73537722821453 L 280.6726467942383 250.33978624413982 L 279.80940369796707 251.88121770610886 L 278.8278823734363 253.35016817658064 L 277.7341342260007 254.73758108742913 L 276.53490257669733 256.03490257669733 L 275.23758108742913 257.2341342260007 L 273.85016817658067 258.3278823734363 L 272.3812177061088 259.30940369796707 L 270.8397862441398 260.1726467942383 L 269.23537722821453 260.91228948150393 L 267.5778823734363 261.52377161664094 L 265.87752068675786 262.00332320894773 L 264.1447754634052 262.3479876633906 L 262.3903296538765 262.5556400089954 L 260.625 262.625 L 258.8596703461235 262.5556400089954 L 257.1052245365948 262.3479876633906 L 255.37247931324214 262.00332320894773 L 253.67211762656368 261.52377161664094 L 252.01462277178547 260.91228948150393 L 250.4102137558602 260.1726467942383 L 248.86878229389114 259.30940369796707 L 247.39983182341936 258.3278823734363 L 246.01241891257087 257.2341342260007 L 244.7150974233027 256.03490257669733 L 243.5158657739993 254.73758108742913 L 242.42211762656368 253.35016817658064 L 241.44059630203293 251.88121770610886 L 240.5773532057617 250.33978624413982 L 239.83771051849604 248.73537722821453 L 239.22622838335906 247.07788237343632 L 238.74667679105227 245.37752068675786 L 238.4020123366094 243.6447754634052 L 238.19435999100463 241.8903296538765 L 238.125 240.125 L 238.19435999100463 238.3596703461235 L 238.4020123366094 236.60522453659482 L 238.74667679105227 234.87247931324214 L 239.22622838335906 233.17211762656368 L 239.83771051849604 231.51462277178547 L 240.5773532057617 229.9102137558602 L 241.44059630203293 228.36878229389114 L 242.42211762656368 226.89983182341936 L 243.5158657739993 225.51241891257087 L 244.71509742330267 224.2150974233027 L 246.01241891257087 223.0158657739993 L 247.39983182341936 221.92211762656368 L 248.86878229389114 220.94059630203293 L 250.4102137558602 220.0773532057617 L 252.0146227717855 219.33771051849604 L 253.6721176265637 218.72622838335903 L 255.37247931324217 218.24667679105227 L 257.10522453659485 217.9020123366094 L 258.85967034612355 217.6943599910046 L 260.62500000000006 217.625 L 262.3903296538766 217.69435999100463 L 264.14477546340527 217.9020123366094 L 265.877520686758 218.2466767910523 L 267.5778823734364 218.72622838335909 L 269.23537722821465 219.3377105184961 L 270.83978624413993 220.0773532057618 L 272.381217706109 220.940596302033 L 273.8501681765808 221.92211762656376 L 275.23758108742925 223.01586577399942 L 276.53490257669745 224.2150974233028 L 277.73413422600083 225.512418912571 L 278.8278823734364 226.8998318234195 L 279.8094036979672 228.36878229389131 L 280.6726467942384 229.91021375586038 L 281.41228948150405 231.5146227717857 L 282.02377161664106 233.1721176265639 L 282.5033232089478 234.87247931324237 L 282.84798766339065 236.60522453659505 L 283.0556400089954 238.35967034612375 Z" fill-opacity="1" stroke-opacity="1" stroke-miterlimit="10" stroke-width="2"/><text fill="rgb(255,255,255)" stroke="none" font-family="times new roman" font-size="15px" font-style="normal" font-weight="normal" text-decoration="normal" x="260.625" y="247.625" text-anchor="middle" dominant-baseline="text-after-edge" fill-opacity="1">*2</text><path fill="rgb(69,90,100)" stroke="rgb(76,175,80)" paint-order="fill stroke markers" d=" M 307.625 230.125 L 307.625 250.125 L 402.625 250.125 L 402.625 230.125 Z" fill-opacity="1" stroke-opacity="1" stroke-miterlimit="10" stroke-width="6"/><text fill="rgb(255,255,255)" stroke="none" font-family="times new roman" font-size="10px" font-style="normal" font-weight="normal" text-decoration="normal" x="355.125" y="245.125" text-anchor="middle" dominant-baseline="text-after-edge" fill-opacity="1">42130482C&gt;A</text><path fill="rgb(69,90,100)" stroke="rgb(76,175,80)" paint-order="fill stroke markers" d=" M 694.875 230.125 L 737.375 230.125 L 737.375 230.125 A 5 5 0 0 1 742.375 235.125 L 742.375 245.125 L 742.375 245.125 A 5 5 0 0 1 737.375 250.125 L 652.375 250.125 L 652.375 250.125 A 5 5 0 0 1 647.375 245.125 L 647.375 235.125 L 647.375 235.125 A 5 5 0 0 1 652.375 230.125 L 694.875 230.125 Z" fill-opacity="1" stroke-opacity="1" stroke-miterlimit="10" stroke-width="2"/><text fill="rgb(255,255,255)" stroke="none" font-family="times new roman" font-size="10px" font-style="normal" font-weight="normal" text-decoration="normal" x="694.875" y="245.125" text-anchor="middle" dominant-baseline="text-after-edge" fill-opacity="1">42132049dup</text><path fill="rgb(69,90,100)" stroke="rgb(76,175,80)" paint-order="fill stroke markers" d=" M 583.125 230.125 L 625.625 230.125 L 625.625 230.125 A 5 5 0 0 1 630.625 235.125 L 630.625 245.125 L 630.625 245.125 A 5 5 0 0 1 625.625 250.125 L 540.625 250.125 L 540.625 250.125 A 5 5 0 0 1 535.625 245.125 L 535.625 235.125 L 535.625 235.125 A 5 5 0 0 1 540.625 230.125 L 583.125 230.125 Z" fill-opacity="1" stroke-opacity="1" stroke-miterlimit="10" stroke-width="2"/><text fill="rgb(255,255,255)" stroke="none" font-family="times new roman" font-size="10px" font-style="normal" font-weight="normal" text-decoration="normal" x="583.125" y="245.125" text-anchor="middle" dominant-baseline="text-after-edge" fill-opacity="1">42132025_4213202…</text><path fill="rgb(69,90,100)" stroke="rgb(76,175,80)" paint-order="fill stroke markers" d=" M 442.125 164.375 L 442.0556400089954 166.1403296538765 L 441.8479876633906 167.89477546340518 L 441.50332320894773 169.62752068675786 L 441.02377161664094 171.32788237343632 L 440.41228948150393 172.98537722821453 L 439.6726467942383 174.58978624413982 L 438.80940369796707 176.13121770610886 L 437.8278823734363 177.60016817658064 L 436.7341342260007 178.98758108742913 L 435.53490257669733 180.2849025766973 L 434.23758108742913 181.4841342260007 L 432.85016817658067 182.57788237343632 L 431.3812177061088 183.55940369796707 L 429.8397862441398 184.4226467942383 L 428.23537722821453 185.16228948150396 L 426.5778823734363 185.77377161664094 L 424.87752068675786 186.25332320894773 L 423.1447754634052 186.5979876633906 L 421.3903296538765 186.80564000899537 L 419.625 186.875 L 417.8596703461235 186.80564000899537 L 416.1052245365948 186.5979876633906 L 414.37247931324214 186.25332320894773 L 412.6721176265637 185.77377161664094 L 411.01462277178547 185.16228948150396 L 409.4102137558602 184.4226467942383 L 407.8687822938912 183.55940369796707 L 406.39983182341933 182.57788237343632 L 405.01241891257087 181.4841342260007 L 403.71509742330267 180.28490257669733 L 402.5158657739993 178.98758108742913 L 401.4221176265637 177.60016817658064 L 400.44059630203293 176.13121770610886 L 399.5773532057617 174.58978624413982 L 398.83771051849607 172.98537722821453 L 398.22622838335906 171.32788237343632 L 397.74667679105227 169.62752068675786 L 397.4020123366094 167.8947754634052 L 397.1943599910046 166.1403296538765 L 397.125 164.375 L 397.1943599910046 162.6096703461235 L 397.4020123366094 160.85522453659482 L 397.74667679105227 159.12247931324214 L 398.22622838335906 157.42211762656368 L 398.83771051849607 155.76462277178547 L 399.5773532057617 154.1602137558602 L 400.44059630203293 152.61878229389114 L 401.4221176265637 151.14983182341936 L 402.5158657739993 149.76241891257087 L 403.71509742330267 148.4650974233027 L 405.01241891257087 147.2658657739993 L 406.39983182341933 146.17211762656368 L 407.8687822938912 145.19059630203293 L 409.41021375586024 144.3273532057617 L 411.0146227717855 143.58771051849604 L 412.6721176265637 142.97622838335903 L 414.3724793132422 142.49667679105227 L 416.10522453659485 142.1520123366094 L 417.85967034612355 141.9443599910046 L 419.62500000000006 141.875 L 421.3903296538766 141.94435999100463 L 423.14477546340527 142.1520123366094 L 424.877520686758 142.4966767910523 L 426.5778823734364 142.97622838335909 L 428.23537722821465 143.5877105184961 L 429.83978624413993 144.3273532057618 L 431.381217706109 145.190596302033 L 432.8501681765808 146.17211762656376 L 434.23758108742925 147.26586577399942 L 435.53490257669745 148.4650974233028 L 436.73413422600083 149.762418912571 L 437.8278823734364 151.1498318234195 L 438.8094036979672 152.61878229389131 L 439.6726467942384 154.16021375586038 L 440.41228948150405 155.7646227717857 L 441.02377161664106 157.4221176265639 L 441.5033232089478 159.12247931324237 L 441.84798766339065 160.85522453659505 L 442.0556400089954 162.60967034612375 Z" fill-opacity="1" stroke-opacity="1" stroke-miterlimit="10" stroke-width="2"/><text fill="rgb(255,255,255)" stroke="none" font-family="times new roman" font-size="15px" font-style="normal" font-weight="normal" text-decoration="normal" x="419.625" y="171.875" text-anchor="middle" dominant-baseline="text-after-edge" fill-opacity="1">*34</text><path fill="rgb(69,90,100)" stroke="rgb(76,175,80)" paint-order="fill stroke markers" d=" M 738.125 154.375 L 738.125 174.375 L 833.125 174.375 L 833.125 154.375 Z" fill-opacity="1" stroke-opacity="1" stroke-miterlimit="10" stroke-width="6"/><text fill="rgb(255,255,255)" stroke="none" font-family="times new roman" font-size="10px" font-style="normal" font-weight="normal" text-decoration="normal" x="785.625" y="169.375" text-anchor="middle" dominant-baseline="text-after-edge" fill-opacity="1">42127407T&gt;G</text><path fill="rgb(69,90,100)" stroke="rgb(76,175,80)" paint-order="fill stroke markers" d=" M 283.125 164.375 L 283.0556400089954 166.1403296538765 L 282.8479876633906 167.89477546340518 L 282.50332320894773 169.62752068675786 L 282.02377161664094 171.32788237343632 L 281.41228948150393 172.98537722821453 L 280.6726467942383 174.58978624413982 L 279.80940369796707 176.13121770610886 L 278.8278823734363 177.60016817658064 L 277.7341342260007 178.98758108742913 L 276.53490257669733 180.2849025766973 L 275.23758108742913 181.4841342260007 L 273.85016817658067 182.57788237343632 L 272.3812177061088 183.55940369796707 L 270.8397862441398 184.4226467942383 L 269.23537722821453 185.16228948150396 L 267.5778823734363 185.77377161664094 L 265.87752068675786 186.25332320894773 L 264.1447754634052 186.5979876633906 L 262.3903296538765 186.80564000899537 L 260.625 186.875 L 258.8596703461235 186.80564000899537 L 257.1052245365948 186.5979876633906 L 255.37247931324214 186.25332320894773 L 253.67211762656368 185.77377161664094 L 252.01462277178547 185.16228948150396 L 250.4102137558602 184.4226467942383 L 248.86878229389114 183.55940369796707 L 247.39983182341936 182.57788237343632 L 246.01241891257087 181.4841342260007 L 244.7150974233027 180.28490257669733 L 243.5158657739993 178.98758108742913 L 242.42211762656368 177.60016817658064 L 241.44059630203293 176.13121770610886 L 240.5773532057617 174.58978624413982 L 239.83771051849604 172.98537722821453 L 239.22622838335906 171.32788237343632 L 238.74667679105227 169.62752068675786 L 238.4020123366094 167.8947754634052 L 238.19435999100463 166.1403296538765 L 238.125 164.375 L 238.19435999100463 162.6096703461235 L 238.4020123366094 160.85522453659482 L 238.74667679105227 159.12247931324214 L 239.22622838335906 157.42211762656368 L 239.83771051849604 155.76462277178547 L 240.5773532057617 154.1602137558602 L 241.44059630203293 152.61878229389114 L 242.42211762656368 151.14983182341936 L 243.5158657739993 149.76241891257087 L 244.71509742330267 148.4650974233027 L 246.01241891257087 147.2658657739993 L 247.39983182341936 146.17211762656368 L 248.86878229389114 145.19059630203293 L 250.4102137558602 144.3273532057617 L 252.0146227717855 143.58771051849604 L 253.6721176265637 142.97622838335903 L 255.37247931324217 142.49667679105227 L 257.10522453659485 142.1520123366094 L 258.85967034612355 141.9443599910046 L 260.62500000000006 141.875 L 262.3903296538766 141.94435999100463 L 264.14477546340527 142.1520123366094 L 265.877520686758 142.4966767910523 L 267.5778823734364 142.97622838335909 L 269.23537722821465 143.5877105184961 L 270.83978624413993 144.3273532057618 L 272.381217706109 145.190596302033 L 273.8501681765808 146.17211762656376 L 275.23758108742925 147.26586577399942 L 276.53490257669745 148.4650974233028 L 277.73413422600083 149.762418912571 L 278.8278823734364 151.1498318234195 L 279.8094036979672 152.61878229389131 L 280.6726467942384 154.16021375586038 L 281.41228948150405 155.7646227717857 L 282.02377161664106 157.4221176265639 L 282.5033232089478 159.12247931324237 L 282.84798766339065 160.85522453659505 L 283.0556400089954 162.60967034612375 Z" fill-opacity="1" stroke-opacity="1" stroke-miterlimit="10" stroke-width="6"/><text fill="rgb(255,255,255)" stroke="none" font-family="times new roman" font-size="15px" font-style="normal" font-weight="normal" text-decoration="normal" x="260.625" y="171.875" text-anchor="middle" dominant-baseline="text-after-edge" fill-opacity="1">*39</text><path fill="rgb(69,90,100)" stroke="rgb(158,158,158)" paint-order="fill stroke markers" d=" M 167 80.875 L 167 100.875 L 262 100.875 L 262 80.875 Z" fill-opacity="1" stroke-opacity="1" stroke-miterlimit="10" stroke-width="6"/><text fill="rgb(255,255,255)" stroke="none" font-family="times new roman" font-size="10px" font-style="normal" font-weight="normal" text-decoration="normal" x="214.5" y="95.875" text-anchor="middle" dominant-baseline="text-after-edge" fill-opacity="1">42126611C&gt;G</text><path fill="rgb(69,90,100)" stroke="rgb(255,193,7)" paint-order="fill stroke markers" d=" M 236.625 375.5 L 236.55564000899537 377.2653296538765 L 236.3479876633906 379.0197754634052 L 236.00332320894773 380.75252068675786 L 235.52377161664094 382.4528823734363 L 234.91228948150396 384.11037722821453 L 234.1726467942383 385.7147862441398 L 233.30940369796707 387.2562177061088 L 232.32788237343632 388.72516817658067 L 231.2341342260007 390.11258108742913 L 230.03490257669733 391.40990257669733 L 228.73758108742913 392.6091342260007 L 227.35016817658064 393.7028823734363 L 225.88121770610886 394.68440369796707 L 224.33978624413982 395.5476467942383 L 222.73537722821453 396.28728948150393 L 221.07788237343632 396.89877161664094 L 219.37752068675786 397.37832320894773 L 217.64477546340518 397.7229876633906 L 215.8903296538765 397.9306400089954 L 214.125 398 L 212.3596703461235 397.9306400089954 L 210.60522453659482 397.7229876633906 L 208.87247931324214 397.37832320894773 L 207.17211762656368 396.89877161664094 L 205.51462277178547 396.28728948150393 L 203.9102137558602 395.5476467942383 L 202.36878229389114 394.68440369796707 L 200.89983182341936 393.7028823734363 L 199.51241891257087 392.6091342260007 L 198.2150974233027 391.40990257669733 L 197.0158657739993 390.11258108742913 L 195.92211762656368 388.72516817658067 L 194.94059630203293 387.2562177061088 L 194.0773532057617 385.7147862441398 L 193.33771051849604 384.11037722821453 L 192.72622838335906 382.4528823734363 L 192.24667679105227 380.75252068675786 L 191.9020123366094 379.0197754634052 L 191.69435999100463 377.2653296538765 L 191.625 375.5 L 191.69435999100463 373.7346703461235 L 191.9020123366094 371.9802245365948 L 192.24667679105227 370.24747931324214 L 192.72622838335906 368.5471176265637 L 193.33771051849604 366.88962277178547 L 194.0773532057617 365.2852137558602 L 194.94059630203293 363.7437822938912 L 195.92211762656368 362.27483182341933 L 197.0158657739993 360.88741891257087 L 198.21509742330267 359.59009742330267 L 199.51241891257087 358.39086577399934 L 200.89983182341936 357.2971176265637 L 202.36878229389114 356.31559630203293 L 203.9102137558602 355.4523532057617 L 205.5146227717855 354.712710518496 L 207.1721176265637 354.10122838335906 L 208.87247931324217 353.62167679105227 L 210.60522453659485 353.2770123366094 L 212.35967034612355 353.0693599910046 L 214.12500000000009 353 L 215.8903296538766 353.0693599910046 L 217.6447754634053 353.2770123366094 L 219.37752068675798 353.6216767910523 L 221.07788237343644 354.10122838335906 L 222.73537722821465 354.7127105184961 L 224.33978624413993 355.45235320576177 L 225.88121770610897 356.315596302033 L 227.35016817658078 357.29711762656376 L 228.73758108742925 358.3908657739994 L 230.03490257669745 359.5900974233028 L 231.2341342260008 360.887418912571 L 232.32788237343644 362.2748318234195 L 233.30940369796718 363.74378229389134 L 234.17264679423837 365.2852137558604 L 234.91228948150405 366.8896227717857 L 235.52377161664103 368.54711762656393 L 236.0033232089478 370.24747931324237 L 236.34798766339065 371.9802245365951 L 236.5556400089954 373.7346703461238 Z" fill-opacity="1" stroke-opacity="1" stroke-miterlimit="10" stroke-width="2"/><text fill="rgb(255,255,255)" stroke="none" font-family="times new roman" font-size="15px" font-style="normal" font-weight="normal" text-decoration="normal" x="214.125" y="383" text-anchor="middle" dominant-baseline="text-after-edge" fill-opacity="1">*14</text><path fill="rgb(3,169,244)" stroke="none" paint-order="stroke fill markers" d=" M 214.125 343 L 238.625 343 L 238.625 343 A 8 8 0 0 1 246.625 351 L 246.625 400 L 246.625 400 A 8 8 0 0 1 238.625 408 L 189.625 408 L 189.625 408 A 8 8 0 0 1 181.625 400 L 181.625 351 L 181.625 351 A 8 8 0 0 1 189.625 343 L 214.125 343 Z" fill-opacity="0.15"/><path fill="rgb(69,90,100)" stroke="rgb(76,175,80)" paint-order="fill stroke markers" d=" M 803.125 240.125 L 803.0710533403297 241.49803417523728 L 802.9095459604149 242.86260313820404 L 802.6414736069594 244.21029386747836 L 802.2684890351652 245.53279740156157 L 801.7928918189475 246.82196006638907 L 801.2176141732964 248.06983374544205 L 800.5462028761966 249.2687248825291 L 799.7827974015615 250.41124191511827 L 798.9321043980005 251.4903408457782 L 797.9993686707646 252.49936867076457 L 796.9903408457782 253.43210439800055 L 795.9112419151182 254.2827974015616 L 794.7687248825291 255.04620287619662 L 793.5698337454421 255.71761417329643 L 792.3219600663891 256.2928918189475 L 791.0327974015615 256.7684890351652 L 789.7102938674783 257.1414736069593 L 788.362603138204 257.4095459604149 L 786.9980341752373 257.57105334032974 L 785.625 257.625 L 784.2519658247627 257.57105334032974 L 782.887396861796 257.4095459604149 L 781.5397061325217 257.1414736069593 L 780.2172025984385 256.7684890351652 L 778.9280399336109 256.2928918189475 L 777.6801662545579 255.71761417329643 L 776.4812751174709 255.04620287619662 L 775.3387580848818 254.2827974015616 L 774.2596591542218 253.43210439800055 L 773.2506313292354 252.49936867076457 L 772.3178956019995 251.4903408457782 L 771.4672025984385 250.4112419151183 L 770.7037971238034 249.2687248825291 L 770.0323858267036 248.06983374544208 L 769.4571081810525 246.82196006638907 L 768.9815109648348 245.5327974015616 L 768.6085263930406 244.21029386747836 L 768.3404540395851 242.86260313820404 L 768.1789466596703 241.49803417523728 L 768.125 240.125 L 768.1789466596703 238.75196582476272 L 768.3404540395851 237.38739686179596 L 768.6085263930406 236.03970613252164 L 768.9815109648348 234.71720259843843 L 769.4571081810525 233.42803993361093 L 770.0323858267036 232.18016625455795 L 770.7037971238034 230.9812751174709 L 771.4672025984385 229.83875808488173 L 772.3178956019995 228.7596591542218 L 773.2506313292354 227.75063132923543 L 774.2596591542218 226.81789560199945 L 775.3387580848818 225.96720259843843 L 776.4812751174709 225.20379712380338 L 777.6801662545579 224.53238582670355 L 778.928039933611 223.9571081810525 L 780.2172025984385 223.4815109648348 L 781.5397061325217 223.10852639304065 L 782.887396861796 222.8404540395851 L 784.2519658247628 222.67894665967026 L 785.6250000000001 222.625 L 786.9980341752373 222.67894665967026 L 788.3626031382041 222.8404540395851 L 789.7102938674784 223.10852639304068 L 791.0327974015617 223.48151096483485 L 792.3219600663891 223.95710818105252 L 793.5698337454421 224.5323858267036 L 794.7687248825292 225.20379712380344 L 795.9112419151184 225.9672025984385 L 796.9903408457783 226.81789560199954 L 797.9993686707646 227.75063132923552 L 798.9321043980007 228.7596591542219 L 799.7827974015617 229.83875808488185 L 800.5462028761967 230.98127511747103 L 801.2176141732965 232.1801662545581 L 801.7928918189476 233.4280399336111 L 802.2684890351652 234.7172025984386 L 802.6414736069594 236.03970613252184 L 802.9095459604149 237.38739686179616 L 803.0710533403297 238.75196582476292 Z" fill-opacity="1" stroke-opacity="1" stroke-miterlimit="10" stroke-width="6"/><text fill="rgb(255,255,255)" stroke="none" font-family="times new roman" font-size="10px" font-style="normal" font-weight="normal" text-decoration="normal" x="785.625" y="245.125" text-anchor="middle" dominant-baseline="text-after-edge" fill-opacity="1">*1.41</text><path fill="rgb(69,90,100)" stroke="rgb(158,158,158)" paint-order="fill stroke markers" d=" M 416.75 80.875 L 416.75 100.875 L 511.75 100.875 L 511.75 80.875 Z" fill-opacity="1" stroke-opacity="1" stroke-miterlimit="10" stroke-width="2"/><text fill="rgb(255,255,255)" stroke="none" font-family="times new roman" font-size="10px" font-style="normal" font-weight="normal" text-decoration="normal" x="464.25" y="95.875" text-anchor="middle" dominant-baseline="text-after-edge" fill-opacity="1">42127941G&gt;A</text><path fill="rgb(176,190,197)" stroke="none" paint-order="stroke fill markers" d=" M 275.25 270.5 L 275.25 480.5 L 350.25 480.5 L 350.25 270.50000000000006 Z" fill-opacity="0.8"/><text fill="rgb(0,0,0)" stroke="none" font-family="times new roman" font-size="10px" font-style="normal" font-weight="normal" text-decoration="normal" x="280.25" y="285.5" text-anchor="start" dominant-baseline="text-after-edge" fill-opacity="0.8">42126310C&gt;T </text><text fill="rgb(0,0,0)" stroke="none" font-family="times new roman" font-size="10px" font-style="normal" font-weight="normal" text-decoration="normal" x="280.25" y="295.5" text-anchor="start" dominant-baseline="text-after-edge" fill-opacity="0.8">42127001G&gt;A </text><text fill="rgb(0,0,0)" stroke="none" font-family="times new roman" font-size="10px" font-style="normal" font-weight="normal" text-decoration="normal" x="280.25" y="305.5" text-anchor="start" dominant-baseline="text-after-edge" fill-opacity="0.8">42127207C&gt;T </text><text fill="rgb(0,0,0)" stroke="none" font-family="times new roman" font-size="10px" font-style="normal" font-weight="normal" text-decoration="normal" x="280.25" y="315.5" text-anchor="start" dominant-baseline="text-after-edge" fill-opacity="0.8">42129130C&gt;G </text><text fill="rgb(0,0,0)" stroke="none" font-family="times new roman" font-size="10px" font-style="normal" font-weight="normal" text-decoration="normal" x="280.25" y="325.5" text-anchor="start" dominant-baseline="text-after-edge" fill-opacity="0.8">42131469C&gt;T </text><text fill="rgb(0,0,0)" stroke="none" font-family="times new roman" font-size="10px" font-style="normal" font-weight="normal" text-decoration="normal" x="280.25" y="335.5" text-anchor="start" dominant-baseline="text-after-edge" fill-opacity="0.8">42131531G&gt;A </text><text fill="rgb(0,0,0)" stroke="none" font-family="times new roman" font-size="10px" font-style="normal" font-weight="normal" text-decoration="normal" x="280.25" y="345.5" text-anchor="start" dominant-baseline="text-after-edge" fill-opacity="0.8">42132026T&gt;C </text><text fill="rgb(0,0,0)" stroke="none" font-family="times new roman" font-size="10px" font-style="normal" font-weight="normal" text-decoration="normal" x="280.25" y="355.5" text-anchor="start" dominant-baseline="text-after-edge" fill-opacity="0.8">42132375G&gt;C </text><path fill="rgb(176,190,197)" stroke="none" paint-order="stroke fill markers" d=" M 639 270.5 L 706 270.5 L 706 270.5 A 8 8 0 0 1 714 278.5 L 714 472.5 L 714 472.5 A 8 8 0 0 1 706 480.5 L 572 480.5 L 572 480.5 A 8 8 0 0 1 564 472.5 L 564 278.5 L 564 278.5 A 8 8 0 0 1 572 270.5 L 639 270.5 Z" fill-opacity="0.8"/><text fill="rgb(0,0,0)" stroke="none" font-family="times new roman" font-size="10px" font-style="normal" font-weight="normal" text-decoration="normal" x="569" y="285.5" text-anchor="start" dominant-baseline="text-after-edge" fill-opacity="0.8">42125924A&gt;G </text><text fill="rgb(0,0,0)" stroke="none" font-family="times new roman" font-size="10px" font-style="normal" font-weight="normal" text-decoration="normal" x="569" y="295.5" text-anchor="start" dominant-baseline="text-after-edge" fill-opacity="0.8">42126069A&gt;C </text><text fill="rgb(0,0,0)" stroke="none" font-family="times new roman" font-size="10px" font-style="normal" font-weight="normal" text-decoration="normal" x="569" y="305.5" text-anchor="start" dominant-baseline="text-after-edge" fill-opacity="0.8">42126136_42126138del </text><text fill="rgb(0,0,0)" stroke="none" font-family="times new roman" font-size="10px" font-style="normal" font-weight="normal" text-decoration="normal" x="569" y="315.5" text-anchor="start" dominant-baseline="text-after-edge" fill-opacity="0.8">42132025_42132026insCCTTTT </text><text fill="rgb(0,0,0)" stroke="none" font-family="times new roman" font-size="10px" font-style="normal" font-weight="normal" text-decoration="normal" x="569" y="325.5" text-anchor="start" dominant-baseline="text-after-edge" fill-opacity="0.8">42132027C&gt;T </text><text fill="rgb(0,0,0)" stroke="none" font-family="times new roman" font-size="10px" font-style="normal" font-weight="normal" text-decoration="normal" x="569" y="335.5" text-anchor="start" dominant-baseline="text-after-edge" fill-opacity="0.8">42132561C&gt;T </text><text fill="rgb(0,0,0)" stroke="none" font-family="times new roman" font-size="10px" font-style="normal" font-weight="normal" text-decoration="normal" x="569" y="345.5" text-anchor="start" dominant-baseline="text-after-edge" fill-opacity="0.8">42132844C&gt;A </text><text fill="rgb(0,0,0)" stroke="none" font-family="times new roman" font-size="10px" font-style="normal" font-weight="normal" text-decoration="normal" x="569" y="355.5" text-anchor="start" dominant-baseline="text-after-edge" fill-opacity="0.8">42132851T&gt;C </text><text fill="rgb(0,0,0)" stroke="none" font-family="times new roman" font-size="10px" font-style="normal" font-weight="normal" text-decoration="normal" x="569" y="365.5" text-anchor="start" dominant-baseline="text-after-edge" fill-opacity="0.8">42133400T&gt;G </text><text fill="rgb(0,0,0)" stroke="none" font-family="times new roman" font-size="10px" font-style="normal" font-weight="normal" text-decoration="normal" x="569" y="375.5" text-anchor="start" dominant-baseline="text-after-edge" fill-opacity="0.8">42133533A&gt;C </text><text fill="rgb(0,0,0)" stroke="none" font-family="times new roman" font-size="10px" font-style="normal" font-weight="normal" text-decoration="normal" x="569" y="385.5" text-anchor="start" dominant-baseline="text-after-edge" fill-opacity="0.8">42134096del </text><text fill="rgb(0,0,0)" stroke="none" font-family="times new roman" font-size="10px" font-style="normal" font-weight="normal" text-decoration="normal" x="569" y="395.5" text-anchor="start" dominant-baseline="text-after-edge" fill-opacity="0.8">42134820T&gt;G </text><text fill="rgb(0,0,0)" stroke="none" font-family="times new roman" font-size="10px" font-style="normal" font-weight="normal" text-decoration="normal" x="569" y="405.5" text-anchor="start" dominant-baseline="text-after-edge" fill-opacity="0.8">42135064_42135066dup </text><text fill="rgb(0,0,0)" stroke="none" font-family="times new roman" font-size="10px" font-style="normal" font-weight="normal" text-decoration="normal" x="569" y="415.5" text-anchor="start" dominant-baseline="text-after-edge" fill-opacity="0.8">42135201T&gt;C </text><text fill="rgb(0,0,0)" stroke="none" font-family="times new roman" font-size="10px" font-style="normal" font-weight="normal" text-decoration="normal" x="569" y="425.5" text-anchor="start" dominant-baseline="text-after-edge" fill-opacity="0.8">42135691T&gt;C </text><g transform="scale(0.8440438871473354,0.8440438871473354) translate(109.95125348189413,49.06220984215412)"/></g></svg>