<svg version="1.1" xmlns="http://www.w3.org/2000/svg" xmlns:xlink="http://www.w3.org/1999/xlink" width="1017" height="608"><defs/><g transform="translate(-113.64011299435026,68.98531073446327) scale(0.9612052730696798,0.9612052730696798)"><path fill="none" stroke="rgb(120,144,156)" paint-order="fill stroke markers" d=" M 367.3125 297.6572777101096 L 609.2023278325362 401.07180824509163" stroke-opacity="1" stroke-linejoin="round" stroke-miterlimit="10"/><path fill="rgb(120,144,156)" stroke="none" paint-order="stroke fill markers" d=" M 601.3317093831056 402.4377750175583 L 611.0413123284081 401.85802451555577 L 604.7517501596246 394.4381924605152 Z" fill-opacity="1"/><path fill="none" stroke="rgb(120,144,156)" paint-order="fill stroke markers" d=" M 813.6005886426593 157.25 L 831.4032462553762 180.8777919051132" stroke-opacity="1" stroke-linejoin="round" stroke-miterlimit="10"/><path fill="rgb(120,144,156)" stroke="none" paint-order="stroke fill markers" d=" M 823.8971805544023 178.14439151500105 L 832.6067831329326 182.47513312863487 L 830.8456148767215 172.9090060976304 Z" fill-opacity="1"/><path fill="none" stroke="rgb(55,71,79)" paint-order="fill stroke markers" d=" M 205.9002659574468 86.75 L 230.99380199750863 126.39356954228255" stroke-opacity="1" stroke-linejoin="round" stroke-miterlimit="10" stroke-width="2"/><path fill="none" stroke="rgb(55,71,79)" paint-order="fill stroke markers" d=" M 278.2929930618685 91.38165801990523 L 256.1311980024914 126.39356954228255" stroke-opacity="1" stroke-linejoin="round" stroke-miterlimit="10" stroke-width="2"/><path fill="none" stroke="rgb(120,144,156)" paint-order="fill stroke markers" d=" M 590.1005886426593 157.25 L 671.4762470050462 265.2522524589032" stroke-opacity="1" stroke-linejoin="round" stroke-miterlimit="10"/><path fill="rgb(120,144,156)" stroke="none" paint-order="stroke fill markers" d=" M 663.9701813040723 262.51885206879103 L 672.6797838826026 266.8495936824248 L 670.9186156263914 257.2834666514203 Z" fill-opacity="1"/><path fill="none" stroke="rgb(120,144,156)" paint-order="fill stroke markers" d=" M 262.2867040942138 160.4504993235529 L 401.7447466211722 266.2159475425277" stroke-opacity="1" stroke-linejoin="round" stroke-miterlimit="10"/><path fill="rgb(120,144,156)" stroke="none" paint-order="stroke fill markers" d=" M 393.77775345144084 265.6332642379331 L 403.3382959057862 267.4245006764471 L 399.03495958399026 258.70132484986243 Z" fill-opacity="1"/><path fill="none" stroke="rgb(120,144,156)" paint-order="fill stroke markers" d=" M 442.1206567229343 293.8691965386956 L 612.4356451038184 397.8353894459831" stroke-opacity="1" stroke-linejoin="round" stroke-miterlimit="10"/><path fill="rgb(120,144,156)" stroke="none" paint-order="stroke fill markers" d=" M 604.4504576575637 398.0573836985577 L 614.1427222717277 398.87744872587206 L 608.9834155250808 390.63159801815226 Z" fill-opacity="1"/><path fill="none" stroke="rgb(55,71,79)" paint-order="fill stroke markers" d=" M 384.4002659574468 86.75 L 409.4938019975086 126.39356954228255" stroke-opacity="1" stroke-linejoin="round" stroke-miterlimit="10" stroke-width="2"/><path fill="none" stroke="rgb(120,144,156)" paint-order="fill stroke markers" d=" M 677.6943706959667 299.0840519163879 L 644.8318253671258 392.86253492795805" stroke-opacity="1" stroke-linejoin="round" stroke-miterlimit="10"/><path fill="rgb(120,144,156)" stroke="none" paint-order="stroke fill markers" d=" M 642.942343772571 385.1009397759395 L 644.170405982906 394.75 L 651.1528168359534 387.9781140972957 Z" fill-opacity="1"/><path fill="none" stroke="rgb(120,144,156)" paint-order="fill stroke markers" d=" M 1016.4953308240414 161.69538624991145 L 1084.2788226003868 264.50984226361163" stroke-opacity="1" stroke-linejoin="round" stroke-miterlimit="10"/><path fill="rgb(120,144,156)" stroke="none" paint-order="stroke fill markers" d=" M 1076.9592335891332 261.31044908578315 L 1085.3796691759587 266.17961375008855 L 1084.2227395553077 256.52176648204477 Z" fill-opacity="1"/><path fill="none" stroke="rgb(120,144,156)" paint-order="fill stroke markers" d=" M 916.270256232687 157.25 L 915.0184990455556 174.63016709824723" stroke-opacity="1" stroke-linejoin="round" stroke-miterlimit="10"/><path fill="rgb(120,144,156)" stroke="none" paint-order="stroke fill markers" d=" M 911.1610392730042 167.6349898951202 L 914.874826869806 176.625 L 919.8385623956287 168.25996385963063 Z" fill-opacity="1"/><path fill="none" stroke="rgb(120,144,156)" paint-order="fill stroke markers" d=" M 832.3125 318.2383518776078 L 665.0158009269296 399.9089240259357" stroke-opacity="1" stroke-linejoin="round" stroke-miterlimit="10"/><path fill="rgb(120,144,156)" stroke="none" paint-order="stroke fill markers" d=" M 669.128342966261 393.0606032116972 L 663.2185283798437 400.78631298842123 L 672.9449849530733 400.8787387915207 Z" fill-opacity="1"/><path fill="none" stroke="rgb(120,144,156)" paint-order="fill stroke markers" d=" M 1077.7825728761577 286.73618298154685 L 669.2450211658628 404.17818187615245" stroke-opacity="1" stroke-linejoin="round" stroke-miterlimit="10"/><path fill="rgb(120,144,156)" stroke="none" paint-order="stroke fill markers" d=" M 674.4824193150528 398.1464192293915 L 667.3228668822042 404.73074219848183 L 676.8860567171856 406.5077903633065 Z" fill-opacity="1"/><path fill="none" stroke="rgb(120,144,156)" paint-order="fill stroke markers" d=" M 422.0625 169.75 L 422.0625 256.125" stroke-opacity="1" stroke-linejoin="round" stroke-miterlimit="10"/><path fill="rgb(120,144,156)" stroke="none" paint-order="stroke fill markers" d=" M 417.7125 249.425 L 422.0625 258.125 L 426.4125 249.425 Z" fill-opacity="1"/><path fill="none" stroke="rgb(55,71,79)" paint-order="fill stroke markers" d=" M 651.7702435432913 80.81809729372917 L 444.66347441798143 139.8121466809386" stroke-opacity="1" stroke-linejoin="round" stroke-miterlimit="10" stroke-width="2"/><path fill="none" stroke="rgb(55,71,79)" paint-order="fill stroke markers" d=" M 484.017458126426 162.65829849127772 L 432.9170126502156 260.7820262408094" stroke-opacity="1" stroke-linejoin="round" stroke-miterlimit="10" stroke-width="2"/><path fill="none" stroke="rgb(120,144,156)" paint-order="fill stroke markers" d=" M 692.770256232687 157.25 L 685.2851398014325 261.17796275703404" stroke-opacity="1" stroke-linejoin="round" stroke-miterlimit="10"/><path fill="rgb(120,144,156)" stroke="none" paint-order="stroke fill markers" d=" M 681.427680028881 254.18278555390705 L 685.1414676256829 263.1727956587868 L 690.1052031515055 254.8077595184174 Z" fill-opacity="1"/><path fill="none" stroke="rgb(55,71,79)" paint-order="fill stroke markers" d=" M 1006.3125 86.75 L 1006.3125 127.75" stroke-opacity="1" stroke-linejoin="round" stroke-miterlimit="10" stroke-width="2"/><path fill="none" stroke="rgb(120,144,156)" paint-order="fill stroke markers" d=" M 1095.5625 157.25 L 1095.5625 261.125" stroke-opacity="1" stroke-linejoin="round" stroke-miterlimit="10"/><path fill="rgb(120,144,156)" stroke="none" paint-order="stroke fill markers" d=" M 1091.2125 254.425 L 1095.5625 263.125 L 1099.9125 254.425 Z" fill-opacity="1"/><path fill="rgb(69,90,100)" stroke="rgb(76,175,80)" paint-order="fill stroke markers" d=" M 646.0625 136.25 L 646.0625 156.25 L 741.0625 156.25 L 741.0625 136.25 Z" fill-opacity="1" stroke-opacity="1" stroke-miterlimit="10" stroke-width="2"/><text fill="rgb(255,255,255)" stroke="none" font-family="times new roman" font-size="10px" font-style="normal" font-weight="normal" text-decoration="normal" x="693.5625" y="151.25" text-anchor="middle" dominant-baseline="text-after-edge" fill-opacity="1">42130482C&gt;A</text><path fill="rgb(69,90,100)" stroke="rgb(76,175,80)" paint-order="fill stroke markers" d=" M 510.0625 146.25 L 510.00855334032974 147.62303417523728 L 509.8470459604149 148.98760313820404 L 509.5789736069593 150.33529386747836 L 509.2059890351652 151.65779740156157 L 508.7303918189475 152.94696006638907 L 508.15511417329645 154.19483374544205 L 507.4837028761966 155.3937248825291 L 506.7202974015616 156.53624191511827 L 505.86960439800055 157.6153408457782 L 504.93686867076457 158.62436867076457 L 503.92784084577823 159.55710439800055 L 502.8487419151183 160.4077974015616 L 501.7062248825291 161.17120287619662 L 500.50733374544205 161.84261417329643 L 499.25946006638907 162.4178918189475 L 497.9702974015616 162.89348903516517 L 496.64779386747836 163.26647360695935 L 495.30010313820407 163.5345459604149 L 493.9355341752373 163.69605334032974 L 492.5625 163.75 L 491.1894658247627 163.69605334032974 L 489.82489686179593 163.5345459604149 L 488.47720613252164 163.26647360695935 L 487.1547025984384 162.8934890351652 L 485.86553993361093 162.4178918189475 L 484.61766625455795 161.84261417329643 L 483.4187751174709 161.17120287619662 L 482.2762580848817 160.4077974015616 L 481.19715915422177 159.55710439800055 L 480.18813132923543 158.62436867076457 L 479.25539560199945 157.6153408457782 L 478.4047025984384 156.5362419151183 L 477.6412971238034 155.3937248825291 L 476.96988582670355 154.19483374544208 L 476.3946081810525 152.94696006638907 L 475.9190109648348 151.6577974015616 L 475.5460263930407 150.33529386747836 L 475.2779540395851 148.98760313820404 L 475.11644665967026 147.62303417523728 L 475.0625 146.25 L 475.11644665967026 144.87696582476272 L 475.2779540395851 143.51239686179596 L 475.5460263930407 142.16470613252164 L 475.9190109648348 140.84220259843843 L 476.3946081810525 139.55303993361093 L 476.96988582670355 138.30516625455795 L 477.6412971238034 137.1062751174709 L 478.4047025984384 135.96375808488173 L 479.25539560199945 134.8846591542218 L 480.18813132923543 133.87563132923543 L 481.19715915422177 132.94289560199945 L 482.2762580848817 132.09220259843843 L 483.4187751174709 131.32879712380338 L 484.61766625455795 130.65738582670355 L 485.86553993361093 130.0821081810525 L 487.15470259843846 129.6065109648348 L 488.4772061325217 129.23352639304065 L 489.824896861796 128.9654540395851 L 491.18946582476275 128.80394665967026 L 492.56250000000006 128.75 L 493.93553417523736 128.80394665967026 L 495.3001031382041 128.9654540395851 L 496.6477938674784 129.23352639304068 L 497.97029740156165 129.60651096483485 L 499.2594600663892 130.08210818105252 L 500.50733374544217 130.6573858267036 L 501.7062248825292 131.32879712380344 L 502.84874191511835 132.0922025984385 L 503.9278408457783 132.94289560199954 L 504.9368686707647 133.87563132923552 L 505.86960439800066 134.8846591542219 L 506.72029740156165 135.96375808488185 L 507.4837028761967 137.10627511747103 L 508.1551141732965 138.3051662545581 L 508.73039181894757 139.5530399336111 L 509.20598903516526 140.8422025984386 L 509.5789736069594 142.16470613252184 L 509.84704596041496 143.51239686179616 L 510.00855334032974 144.87696582476292 Z" fill-opacity="1" stroke-opacity="1" stroke-miterlimit="10" stroke-width="2"/><text fill="rgb(255,255,255)" stroke="none" font-family="times new roman" font-size="10px" font-style="normal" font-weight="normal" text-decoration="normal" x="492.5625" y="151.25" text-anchor="middle" dominant-baseline="text-after-edge" fill-opacity="1">*2.4</text><path fill="rgb(69,90,100)" stroke="rgb(76,175,80)" paint-order="fill stroke markers" d=" M 958.8125 65.75 L 958.8125 85.75 L 1053.8125 85.75 L 1053.8125 65.75 Z" fill-opacity="1" stroke-opacity="1" stroke-miterlimit="10" stroke-width="2"/><text fill="rgb(255,255,255)" stroke="none" font-family="times new roman" font-size="10px" font-style="normal" font-weight="normal" text-decoration="normal" x="1006.3125" y="80.75" text-anchor="middle" dominant-baseline="text-after-edge" fill-opacity="1">42127407T&gt;G</text><path fill="rgb(69,90,100)" stroke="rgb(76,175,80)" paint-order="fill stroke markers" d=" M 805.3125 136.25 L 847.8125 136.25 L 847.8125 136.25 A 5 5 0 0 1 852.8125 141.25 L 852.8125 151.25 L 852.8125 151.25 A 5 5 0 0 1 847.8125 156.25 L 762.8125 156.25 L 762.8125 156.25 A 5 5 0 0 1 757.8125 151.25 L 757.8125 141.25 L 757.8125 141.25 A 5 5 0 0 1 762.8125 136.25 L 805.3125 136.25 Z" fill-opacity="1" stroke-opacity="1" stroke-miterlimit="10" stroke-width="2"/><text fill="rgb(255,255,255)" stroke="none" font-family="times new roman" font-size="10px" font-style="normal" font-weight="normal" text-decoration="normal" x="805.3125" y="151.25" text-anchor="middle" dominant-baseline="text-after-edge" fill-opacity="1">42132025_4213202…</text><path fill="rgb(69,90,100)" stroke="rgb(76,175,80)" paint-order="fill stroke markers" d=" M 305.6875 75.75 L 305.63355334032974 77.12303417523728 L 305.4720459604149 78.48760313820404 L 305.2039736069593 79.83529386747834 L 304.8309890351652 81.15779740156158 L 304.3553918189475 82.44696006638907 L 303.78011417329645 83.69483374544207 L 303.1087028761966 84.8937248825291 L 302.3452974015616 86.03624191511828 L 301.49460439800055 87.1153408457782 L 300.56186867076457 88.12436867076458 L 299.55284084577823 89.05710439800055 L 298.4737419151183 89.90779740156158 L 297.3312248825291 90.67120287619662 L 296.13233374544205 91.34261417329644 L 294.88446006638907 91.91789181894751 L 293.5952974015616 92.39348903516519 L 292.27279386747836 92.76647360695934 L 290.92510313820407 93.0345459604149 L 289.5605341752373 93.19605334032974 L 288.1875 93.25 L 286.8144658247627 93.19605334032974 L 285.44989686179593 93.0345459604149 L 284.10220613252164 92.76647360695934 L 282.7797025984384 92.39348903516519 L 281.49053993361093 91.91789181894751 L 280.24266625455795 91.34261417329644 L 279.0437751174709 90.67120287619662 L 277.9012580848817 89.90779740156158 L 276.82215915422177 89.05710439800055 L 275.81313132923543 88.12436867076458 L 274.88039560199945 87.11534084577822 L 274.0297025984384 86.03624191511828 L 273.2662971238034 84.89372488252911 L 272.59488582670355 83.69483374544207 L 272.0196081810525 82.44696006638907 L 271.5440109648348 81.15779740156158 L 271.1710263930407 79.83529386747834 L 270.9029540395851 78.48760313820404 L 270.74144665967026 77.1230341752373 L 270.6875 75.75 L 270.74144665967026 74.37696582476272 L 270.9029540395851 73.01239686179596 L 271.1710263930407 71.66470613252166 L 271.5440109648348 70.34220259843842 L 272.0196081810525 69.05303993361093 L 272.59488582670355 67.80516625455793 L 273.2662971238034 66.6062751174709 L 274.0297025984384 65.46375808488172 L 274.88039560199945 64.3846591542218 L 275.81313132923543 63.37563132923542 L 276.82215915422177 62.44289560199947 L 277.9012580848817 61.59220259843842 L 279.0437751174709 60.82879712380338 L 280.24266625455795 60.15738582670356 L 281.49053993361093 59.582108181052476 L 282.77970259843846 59.106510964834804 L 284.1022061325217 58.73352639304065 L 285.449896861796 58.46545403958508 L 286.81446582476275 58.30394665967026 L 288.18750000000006 58.25 L 289.56053417523736 58.30394665967027 L 290.9251031382041 58.4654540395851 L 292.2727938674784 58.73352639304068 L 293.59529740156165 59.10651096483484 L 294.8844600663892 59.58210818105252 L 296.13233374544217 60.15738582670361 L 297.3312248825292 60.82879712380345 L 298.47374191511835 61.59220259843849 L 299.5528408457783 62.44289560199954 L 300.5618686707647 63.37563132923552 L 301.49460439800066 64.3846591542219 L 302.34529740156165 65.46375808488185 L 303.1087028761967 66.60627511747103 L 303.7801141732965 67.80516625455807 L 304.35539181894757 69.05303993361109 L 304.83098903516526 70.34220259843859 L 305.2039736069594 71.66470613252184 L 305.47204596041496 73.01239686179616 L 305.63355334032974 74.37696582476292 Z" fill-opacity="1" stroke-opacity="1" stroke-miterlimit="10" stroke-width="2"/><text fill="rgb(255,255,255)" stroke="none" font-family="times new roman" font-size="10px" font-style="normal" font-weight="normal" text-decoration="normal" x="288.1875" y="80.75" text-anchor="middle" dominant-baseline="text-after-edge" fill-opacity="1">*39.2</text><path fill="rgb(69,90,100)" stroke="rgb(158,158,158)" paint-order="fill stroke markers" d=" M 329.9375 65.75 L 329.9375 85.75 L 424.9375 85.75 L 424.9375 65.75 Z" fill-opacity="1" stroke-opacity="1" stroke-miterlimit="10" stroke-width="2"/><text fill="rgb(255,255,255)" stroke="none" font-family="times new roman" font-size="10px" font-style="normal" font-weight="normal" text-decoration="normal" x="377.4375" y="80.75" text-anchor="middle" dominant-baseline="text-after-edge" fill-opacity="1">42127941G&gt;A</text><path fill="rgb(69,90,100)" stroke="rgb(76,175,80)" paint-order="fill stroke markers" d=" M 444.5625 146.25 L 444.4931400089954 148.0153296538765 L 444.2854876633906 149.76977546340518 L 443.94082320894773 151.50252068675786 L 443.46127161664094 153.20288237343632 L 442.84978948150393 154.86037722821453 L 442.1101467942383 156.46478624413982 L 441.24690369796707 158.00621770610886 L 440.2653823734363 159.47516817658064 L 439.1716342260007 160.86258108742913 L 437.97240257669733 162.1599025766973 L 436.67508108742913 163.3591342260007 L 435.28766817658067 164.45288237343632 L 433.8187177061088 165.43440369796707 L 432.2772862441398 166.2976467942383 L 430.67287722821453 167.03728948150396 L 429.0153823734363 167.64877161664094 L 427.31502068675786 168.12832320894773 L 425.5822754634052 168.4729876633906 L 423.8278296538765 168.68064000899537 L 422.0625 168.75 L 420.2971703461235 168.68064000899537 L 418.5427245365948 168.4729876633906 L 416.80997931324214 168.12832320894773 L 415.1096176265637 167.64877161664094 L 413.45212277178547 167.03728948150396 L 411.8477137558602 166.2976467942383 L 410.3062822938912 165.43440369796707 L 408.83733182341933 164.45288237343632 L 407.44991891257087 163.3591342260007 L 406.15259742330267 162.15990257669733 L 404.9533657739993 160.86258108742913 L 403.8596176265637 159.47516817658064 L 402.87809630203293 158.00621770610886 L 402.0148532057617 156.46478624413982 L 401.27521051849607 154.86037722821453 L 400.66372838335906 153.20288237343632 L 400.18417679105227 151.50252068675786 L 399.8395123366094 149.7697754634052 L 399.6318599910046 148.0153296538765 L 399.5625 146.25 L 399.6318599910046 144.4846703461235 L 399.8395123366094 142.73022453659482 L 400.18417679105227 140.99747931324214 L 400.66372838335906 139.29711762656368 L 401.27521051849607 137.63962277178547 L 402.0148532057617 136.0352137558602 L 402.87809630203293 134.49378229389114 L 403.8596176265637 133.02483182341936 L 404.9533657739993 131.63741891257087 L 406.15259742330267 130.3400974233027 L 407.44991891257087 129.1408657739993 L 408.83733182341933 128.04711762656368 L 410.3062822938912 127.06559630203293 L 411.84771375586024 126.20235320576171 L 413.4521227717855 125.46271051849604 L 415.1096176265637 124.85122838335903 L 416.8099793132422 124.37167679105227 L 418.54272453659485 124.02701233660939 L 420.29717034612355 123.81935999100462 L 422.06250000000006 123.75 L 423.8278296538766 123.81935999100463 L 425.58227546340527 124.02701233660942 L 427.315020686758 124.3716767910523 L 429.0153823734364 124.85122838335909 L 430.67287722821465 125.4627105184961 L 432.27728624413993 126.20235320576178 L 433.818717706109 127.065596302033 L 435.2876681765808 128.04711762656376 L 436.67508108742925 129.14086577399942 L 437.97240257669745 130.3400974233028 L 439.17163422600083 131.637418912571 L 440.2653823734364 133.0248318234195 L 441.2469036979672 134.49378229389131 L 442.1101467942384 136.03521375586038 L 442.84978948150405 137.6396227717857 L 443.46127161664106 139.2971176265639 L 443.9408232089478 140.99747931324237 L 444.28548766339065 142.73022453659505 L 444.4931400089954 144.48467034612375 Z" fill-opacity="1" stroke-opacity="1" stroke-miterlimit="10" stroke-width="2"/><text fill="rgb(255,255,255)" stroke="none" font-family="times new roman" font-size="15px" font-style="normal" font-weight="normal" text-decoration="normal" x="422.0625" y="153.75" text-anchor="middle" dominant-baseline="text-after-edge" fill-opacity="1">*34</text><path fill="rgb(69,90,100)" stroke="rgb(69,90,100)" paint-order="fill stroke markers" d=" M 618.9375 395.75 L 600.1875 413.25 L 618.9375 430.75 L 656.4375 430.75 L 675.1875 413.25 L 656.4375 395.75 Z" fill-opacity="1" stroke-opacity="1" stroke-miterlimit="10" stroke-width="2"/><text fill="rgb(255,255,255)" stroke="none" font-family="times new roman" font-size="10px" font-style="normal" font-weight="normal" text-decoration="normal" x="637.6875" y="418.25" text-anchor="middle" dominant-baseline="text-after-edge" fill-opacity="1">HG03619-B</text><path fill="rgb(69,90,100)" stroke="rgb(76,175,80)" paint-order="fill stroke markers" d=" M 266.0625 146.25 L 265.9931400089954 148.0153296538765 L 265.7854876633906 149.76977546340518 L 265.44082320894773 151.50252068675786 L 264.96127161664094 153.20288237343632 L 264.34978948150393 154.86037722821453 L 263.6101467942383 156.46478624413982 L 262.74690369796707 158.00621770610886 L 261.7653823734363 159.47516817658064 L 260.6716342260007 160.86258108742913 L 259.47240257669733 162.1599025766973 L 258.17508108742913 163.3591342260007 L 256.78766817658067 164.45288237343632 L 255.31871770610886 165.43440369796707 L 253.77728624413982 166.2976467942383 L 252.17287722821453 167.03728948150396 L 250.51538237343632 167.64877161664094 L 248.81502068675786 168.12832320894773 L 247.08227546340518 168.4729876633906 L 245.3278296538765 168.68064000899537 L 243.5625 168.75 L 241.7971703461235 168.68064000899537 L 240.04272453659482 168.4729876633906 L 238.30997931324214 168.12832320894773 L 236.60961762656368 167.64877161664094 L 234.95212277178547 167.03728948150396 L 233.3477137558602 166.2976467942383 L 231.80628229389114 165.43440369796707 L 230.33733182341936 164.45288237343632 L 228.94991891257087 163.3591342260007 L 227.6525974233027 162.15990257669733 L 226.4533657739993 160.86258108742913 L 225.35961762656368 159.47516817658064 L 224.37809630203293 158.00621770610886 L 223.5148532057617 156.46478624413982 L 222.77521051849604 154.86037722821453 L 222.16372838335906 153.20288237343632 L 221.68417679105227 151.50252068675786 L 221.3395123366094 149.7697754634052 L 221.13185999100463 148.0153296538765 L 221.0625 146.25 L 221.13185999100463 144.4846703461235 L 221.3395123366094 142.73022453659482 L 221.68417679105227 140.99747931324214 L 222.16372838335906 139.29711762656368 L 222.77521051849604 137.63962277178547 L 223.5148532057617 136.0352137558602 L 224.37809630203293 134.49378229389114 L 225.35961762656368 133.02483182341936 L 226.4533657739993 131.63741891257087 L 227.65259742330267 130.3400974233027 L 228.94991891257087 129.1408657739993 L 230.33733182341936 128.04711762656368 L 231.80628229389114 127.06559630203293 L 233.3477137558602 126.20235320576171 L 234.9521227717855 125.46271051849604 L 236.6096176265637 124.85122838335903 L 238.30997931324217 124.37167679105227 L 240.04272453659485 124.02701233660939 L 241.79717034612355 123.81935999100462 L 243.56250000000009 123.75 L 245.3278296538766 123.81935999100463 L 247.0822754634053 124.02701233660942 L 248.81502068675798 124.3716767910523 L 250.51538237343644 124.85122838335909 L 252.17287722821465 125.4627105184961 L 253.77728624413993 126.20235320576178 L 255.31871770610897 127.065596302033 L 256.7876681765808 128.04711762656376 L 258.17508108742925 129.14086577399942 L 259.47240257669745 130.3400974233028 L 260.67163422600083 131.637418912571 L 261.7653823734364 133.0248318234195 L 262.7469036979672 134.49378229389131 L 263.6101467942384 136.03521375586038 L 264.34978948150405 137.6396227717857 L 264.96127161664106 139.2971176265639 L 265.4408232089478 140.99747931324237 L 265.78548766339065 142.73022453659505 L 265.9931400089954 144.48467034612375 Z" fill-opacity="1" stroke-opacity="1" stroke-miterlimit="10" stroke-width="2"/><text fill="rgb(255,255,255)" stroke="none" font-family="times new roman" font-size="15px" font-style="normal" font-weight="normal" text-decoration="normal" x="243.5625" y="153.75" text-anchor="middle" dominant-baseline="text-after-edge" fill-opacity="1">*39</text><path fill="rgb(69,90,100)" stroke="rgb(76,175,80)" paint-order="fill stroke markers" d=" M 534.3125 136.25 L 534.3125 156.25 L 629.3125 156.25 L 629.3125 136.25 Z" fill-opacity="1" stroke-opacity="1" stroke-miterlimit="10" stroke-width="2"/><text fill="rgb(255,255,255)" stroke="none" font-family="times new roman" font-size="10px" font-style="normal" font-weight="normal" text-decoration="normal" x="581.8125" y="151.25" text-anchor="middle" dominant-baseline="text-after-edge" fill-opacity="1">42129950A&gt;C</text><path fill="rgb(69,90,100)" stroke="rgb(76,175,80)" paint-order="fill stroke markers" d=" M 1023.8125 146.25 L 1023.7585533403297 147.62303417523728 L 1023.5970459604149 148.98760313820404 L 1023.3289736069594 150.33529386747836 L 1022.9559890351652 151.65779740156157 L 1022.4803918189475 152.94696006638907 L 1021.9051141732964 154.19483374544205 L 1021.2337028761966 155.3937248825291 L 1020.4702974015615 156.53624191511827 L 1019.6196043980005 157.6153408457782 L 1018.6868686707646 158.62436867076457 L 1017.6778408457782 159.55710439800055 L 1016.5987419151182 160.4077974015616 L 1015.4562248825291 161.17120287619662 L 1014.2573337454421 161.84261417329643 L 1013.0094600663891 162.4178918189475 L 1011.7202974015615 162.89348903516517 L 1010.3977938674783 163.26647360695935 L 1009.050103138204 163.5345459604149 L 1007.6855341752373 163.69605334032974 L 1006.3125 163.75 L 1004.9394658247627 163.69605334032974 L 1003.574896861796 163.5345459604149 L 1002.2272061325217 163.26647360695935 L 1000.9047025984385 162.8934890351652 L 999.6155399336109 162.4178918189475 L 998.3676662545579 161.84261417329643 L 997.1687751174709 161.17120287619662 L 996.0262580848818 160.4077974015616 L 994.9471591542218 159.55710439800055 L 993.9381313292354 158.62436867076457 L 993.0053956019995 157.6153408457782 L 992.1547025984385 156.5362419151183 L 991.3912971238034 155.3937248825291 L 990.7198858267036 154.19483374544208 L 990.1446081810525 152.94696006638907 L 989.6690109648348 151.6577974015616 L 989.2960263930406 150.33529386747836 L 989.0279540395851 148.98760313820404 L 988.8664466596703 147.62303417523728 L 988.8125 146.25 L 988.8664466596703 144.87696582476272 L 989.0279540395851 143.51239686179596 L 989.2960263930406 142.16470613252164 L 989.6690109648348 140.84220259843843 L 990.1446081810525 139.55303993361093 L 990.7198858267036 138.30516625455795 L 991.3912971238034 137.1062751174709 L 992.1547025984385 135.96375808488173 L 993.0053956019995 134.8846591542218 L 993.9381313292354 133.87563132923543 L 994.9471591542218 132.94289560199945 L 996.0262580848818 132.09220259843843 L 997.1687751174709 131.32879712380338 L 998.3676662545579 130.65738582670355 L 999.615539933611 130.0821081810525 L 1000.9047025984385 129.6065109648348 L 1002.2272061325217 129.23352639304065 L 1003.574896861796 128.9654540395851 L 1004.9394658247628 128.80394665967026 L 1006.3125000000001 128.75 L 1007.6855341752373 128.80394665967026 L 1009.0501031382041 128.9654540395851 L 1010.3977938674784 129.23352639304068 L 1011.7202974015617 129.60651096483485 L 1013.0094600663891 130.08210818105252 L 1014.2573337454421 130.6573858267036 L 1015.4562248825292 131.32879712380344 L 1016.5987419151184 132.0922025984385 L 1017.6778408457783 132.94289560199954 L 1018.6868686707646 133.87563132923552 L 1019.6196043980007 134.8846591542219 L 1020.4702974015617 135.96375808488185 L 1021.2337028761967 137.10627511747103 L 1021.9051141732965 138.3051662545581 L 1022.4803918189476 139.5530399336111 L 1022.9559890351652 140.8422025984386 L 1023.3289736069594 142.16470613252184 L 1023.5970459604149 143.51239686179616 L 1023.7585533403297 144.87696582476292 Z" fill-opacity="1" stroke-opacity="1" stroke-miterlimit="10" stroke-width="2"/><text fill="rgb(255,255,255)" stroke="none" font-family="times new roman" font-size="10px" font-style="normal" font-weight="normal" text-decoration="normal" x="1006.3125" y="151.25" text-anchor="middle" dominant-baseline="text-after-edge" fill-opacity="1">*1.41</text><path fill="rgb(69,90,100)" stroke="rgb(76,175,80)" paint-order="fill stroke markers" d=" M 701.3125 281.625 L 701.2585533403297 282.9980341752373 L 701.0970459604149 284.36260313820407 L 700.8289736069594 285.71029386747836 L 700.4559890351652 287.0327974015616 L 699.9803918189475 288.32196006638907 L 699.4051141732964 289.56983374544205 L 698.7337028761966 290.7687248825291 L 697.9702974015615 291.9112419151183 L 697.1196043980005 292.99034084577823 L 696.1868686707646 293.99936867076457 L 695.1778408457782 294.93210439800055 L 694.0987419151182 295.7827974015616 L 692.9562248825291 296.5462028761966 L 691.7573337454421 297.21761417329645 L 690.5094600663891 297.7928918189475 L 689.2202974015615 298.2684890351652 L 687.8977938674783 298.6414736069593 L 686.550103138204 298.9095459604149 L 685.1855341752373 299.07105334032974 L 683.8125 299.125 L 682.4394658247627 299.07105334032974 L 681.074896861796 298.9095459604149 L 679.7272061325217 298.6414736069593 L 678.4047025984385 298.2684890351652 L 677.1155399336109 297.7928918189475 L 675.8676662545579 297.21761417329645 L 674.6687751174709 296.5462028761966 L 673.5262580848818 295.7827974015616 L 672.4471591542218 294.93210439800055 L 671.4381313292354 293.99936867076457 L 670.5053956019995 292.99034084577823 L 669.6547025984385 291.9112419151183 L 668.8912971238034 290.7687248825291 L 668.2198858267036 289.56983374544205 L 667.6446081810525 288.32196006638907 L 667.1690109648348 287.0327974015616 L 666.7960263930406 285.71029386747836 L 666.5279540395851 284.36260313820407 L 666.3664466596703 282.9980341752373 L 666.3125 281.625 L 666.3664466596703 280.2519658247627 L 666.5279540395851 278.88739686179593 L 666.7960263930406 277.53970613252164 L 667.1690109648348 276.2172025984384 L 667.6446081810525 274.92803993361093 L 668.2198858267036 273.68016625455795 L 668.8912971238034 272.4812751174709 L 669.6547025984385 271.3387580848817 L 670.5053956019995 270.25965915422177 L 671.4381313292354 269.25063132923543 L 672.4471591542218 268.31789560199945 L 673.5262580848818 267.4672025984384 L 674.6687751174709 266.7037971238034 L 675.8676662545579 266.03238582670355 L 677.115539933611 265.4571081810525 L 678.4047025984385 264.9815109648348 L 679.7272061325217 264.6085263930407 L 681.074896861796 264.3404540395851 L 682.4394658247628 264.17894665967026 L 683.8125000000001 264.125 L 685.1855341752373 264.17894665967026 L 686.5501031382041 264.3404540395851 L 687.8977938674784 264.6085263930407 L 689.2202974015617 264.98151096483485 L 690.5094600663891 265.4571081810525 L 691.7573337454421 266.0323858267036 L 692.9562248825292 266.70379712380344 L 694.0987419151184 267.4672025984385 L 695.1778408457783 268.31789560199957 L 696.1868686707646 269.2506313292355 L 697.1196043980007 270.2596591542219 L 697.9702974015617 271.3387580848818 L 698.7337028761967 272.48127511747106 L 699.4051141732965 273.68016625455806 L 699.9803918189476 274.9280399336111 L 700.4559890351652 276.2172025984386 L 700.8289736069594 277.5397061325218 L 701.0970459604149 278.88739686179616 L 701.2585533403297 280.2519658247629 Z" fill-opacity="1" stroke-opacity="1" stroke-miterlimit="10" stroke-width="2"/><text fill="rgb(255,255,255)" stroke="none" font-family="times new roman" font-size="10px" font-style="normal" font-weight="normal" text-decoration="normal" x="683.8125" y="286.625" text-anchor="middle" dominant-baseline="text-after-edge" fill-opacity="1">*1.58</text><path fill="rgb(69,90,100)" stroke="rgb(76,175,80)" paint-order="fill stroke markers" d=" M 917.0625 136.25 L 959.5625 136.25 L 959.5625 136.25 A 5 5 0 0 1 964.5625 141.25 L 964.5625 151.25 L 964.5625 151.25 A 5 5 0 0 1 959.5625 156.25 L 874.5625 156.25 L 874.5625 156.25 A 5 5 0 0 1 869.5625 151.25 L 869.5625 141.25 L 869.5625 141.25 A 5 5 0 0 1 874.5625 136.25 L 917.0625 136.25 Z" fill-opacity="1" stroke-opacity="1" stroke-miterlimit="10" stroke-width="2"/><text fill="rgb(255,255,255)" stroke="none" font-family="times new roman" font-size="10px" font-style="normal" font-weight="normal" text-decoration="normal" x="917.0625" y="151.25" text-anchor="middle" dominant-baseline="text-after-edge" fill-opacity="1">42132049dup</text><path fill="rgb(69,90,100)" stroke="rgb(76,175,80)" paint-order="fill stroke markers" d=" M 444.5625 281.625 L 444.4931400089954 283.3903296538765 L 444.2854876633906 285.1447754634052 L 443.94082320894773 286.87752068675786 L 443.46127161664094 288.5778823734363 L 442.84978948150393 290.23537722821453 L 442.1101467942383 291.8397862441398 L 441.24690369796707 293.3812177061088 L 440.2653823734363 294.85016817658067 L 439.1716342260007 296.23758108742913 L 437.97240257669733 297.53490257669733 L 436.67508108742913 298.7341342260007 L 435.28766817658067 299.8278823734363 L 433.8187177061088 300.80940369796707 L 432.2772862441398 301.6726467942383 L 430.67287722821453 302.41228948150393 L 429.0153823734363 303.02377161664094 L 427.31502068675786 303.50332320894773 L 425.5822754634052 303.8479876633906 L 423.8278296538765 304.0556400089954 L 422.0625 304.125 L 420.2971703461235 304.0556400089954 L 418.5427245365948 303.8479876633906 L 416.80997931324214 303.50332320894773 L 415.1096176265637 303.02377161664094 L 413.45212277178547 302.41228948150393 L 411.8477137558602 301.6726467942383 L 410.3062822938912 300.80940369796707 L 408.83733182341933 299.8278823734363 L 407.44991891257087 298.7341342260007 L 406.15259742330267 297.53490257669733 L 404.9533657739993 296.23758108742913 L 403.8596176265637 294.85016817658067 L 402.87809630203293 293.3812177061088 L 402.0148532057617 291.8397862441398 L 401.27521051849607 290.23537722821453 L 400.66372838335906 288.5778823734363 L 400.18417679105227 286.87752068675786 L 399.8395123366094 285.1447754634052 L 399.6318599910046 283.3903296538765 L 399.5625 281.625 L 399.6318599910046 279.8596703461235 L 399.8395123366094 278.1052245365948 L 400.18417679105227 276.37247931324214 L 400.66372838335906 274.6721176265637 L 401.27521051849607 273.01462277178547 L 402.0148532057617 271.4102137558602 L 402.87809630203293 269.8687822938912 L 403.8596176265637 268.39983182341933 L 404.9533657739993 267.01241891257087 L 406.15259742330267 265.71509742330267 L 407.44991891257087 264.51586577399934 L 408.83733182341933 263.4221176265637 L 410.3062822938912 262.44059630203293 L 411.84771375586024 261.5773532057617 L 413.4521227717855 260.837710518496 L 415.1096176265637 260.22622838335906 L 416.8099793132422 259.74667679105227 L 418.54272453659485 259.4020123366094 L 420.29717034612355 259.1943599910046 L 422.06250000000006 259.125 L 423.8278296538766 259.1943599910046 L 425.58227546340527 259.4020123366094 L 427.315020686758 259.7466767910523 L 429.0153823734364 260.22622838335906 L 430.67287722821465 260.8377105184961 L 432.27728624413993 261.57735320576177 L 433.818717706109 262.440596302033 L 435.2876681765808 263.42211762656376 L 436.67508108742925 264.5158657739994 L 437.97240257669745 265.7150974233028 L 439.17163422600083 267.012418912571 L 440.2653823734364 268.3998318234195 L 441.2469036979672 269.86878229389134 L 442.1101467942384 271.4102137558604 L 442.84978948150405 273.0146227717857 L 443.46127161664106 274.67211762656393 L 443.9408232089478 276.37247931324237 L 444.28548766339065 278.1052245365951 L 444.4931400089954 279.8596703461238 Z" fill-opacity="1" stroke-opacity="1" stroke-miterlimit="10" stroke-width="2"/><text fill="rgb(255,255,255)" stroke="none" font-family="times new roman" font-size="15px" font-style="normal" font-weight="normal" text-decoration="normal" x="422.0625" y="289.125" text-anchor="middle" dominant-baseline="text-after-edge" fill-opacity="1">*2</text><path fill="rgb(3,169,244)" stroke="none" paint-order="stroke fill markers" d=" M 422.0625 249.125 L 446.5625 249.125 L 446.5625 249.125 A 8 8 0 0 1 454.5625 257.125 L 454.5625 306.125 L 454.5625 306.125 A 8 8 0 0 1 446.5625 314.125 L 397.5625 314.125 L 397.5625 314.125 A 8 8 0 0 1 389.5625 306.125 L 389.5625 257.125 L 389.5625 257.125 A 8 8 0 0 1 397.5625 249.125 L 422.0625 249.125 Z" fill-opacity="0.15"/><path fill="rgb(69,90,100)" stroke="rgb(76,175,80)" paint-order="fill stroke markers" d=" M 1113.0625 281.625 L 1113.0085533403299 282.9980341752373 L 1112.847045960415 284.36260313820407 L 1112.5789736069594 285.71029386747836 L 1112.2059890351652 287.0327974015616 L 1111.7303918189475 288.32196006638907 L 1111.1551141732964 289.56983374544205 L 1110.4837028761965 290.7687248825291 L 1109.7202974015615 291.9112419151183 L 1108.8696043980005 292.99034084577823 L 1107.9368686707646 293.99936867076457 L 1106.9278408457783 294.93210439800055 L 1105.8487419151184 295.7827974015616 L 1104.706224882529 296.5462028761966 L 1103.507333745442 297.21761417329645 L 1102.259460066389 297.7928918189475 L 1100.9702974015615 298.2684890351652 L 1099.6477938674784 298.6414736069593 L 1098.3001031382041 298.9095459604149 L 1096.9355341752373 299.07105334032974 L 1095.5625 299.125 L 1094.1894658247627 299.07105334032974 L 1092.8248968617959 298.9095459604149 L 1091.4772061325216 298.6414736069593 L 1090.1547025984385 298.2684890351652 L 1088.865539933611 297.7928918189475 L 1087.617666254558 297.21761417329645 L 1086.418775117471 296.5462028761966 L 1085.2762580848816 295.7827974015616 L 1084.1971591542217 294.93210439800055 L 1083.1881313292354 293.99936867076457 L 1082.2553956019995 292.99034084577823 L 1081.4047025984385 291.9112419151183 L 1080.6412971238035 290.7687248825291 L 1079.9698858267036 289.56983374544205 L 1079.3946081810525 288.32196006638907 L 1078.9190109648348 287.0327974015616 L 1078.5460263930406 285.71029386747836 L 1078.277954039585 284.36260313820407 L 1078.1164466596701 282.9980341752373 L 1078.0625 281.625 L 1078.1164466596701 280.2519658247627 L 1078.277954039585 278.88739686179593 L 1078.5460263930406 277.53970613252164 L 1078.9190109648348 276.2172025984384 L 1079.3946081810525 274.92803993361093 L 1079.9698858267036 273.68016625455795 L 1080.6412971238035 272.4812751174709 L 1081.4047025984385 271.3387580848817 L 1082.2553956019995 270.25965915422177 L 1083.1881313292354 269.25063132923543 L 1084.1971591542217 268.31789560199945 L 1085.2762580848816 267.4672025984384 L 1086.418775117471 266.7037971238034 L 1087.617666254558 266.03238582670355 L 1088.865539933611 265.4571081810525 L 1090.1547025984385 264.9815109648348 L 1091.4772061325216 264.6085263930407 L 1092.824896861796 264.3404540395851 L 1094.1894658247627 264.17894665967026 L 1095.5625 264.125 L 1096.9355341752373 264.17894665967026 L 1098.3001031382041 264.3404540395851 L 1099.6477938674784 264.6085263930407 L 1100.9702974015618 264.98151096483485 L 1102.2594600663892 265.4571081810525 L 1103.507333745442 266.0323858267036 L 1104.706224882529 266.70379712380344 L 1105.8487419151184 267.4672025984385 L 1106.9278408457783 268.31789560199957 L 1107.9368686707646 269.2506313292355 L 1108.8696043980005 270.2596591542219 L 1109.7202974015618 271.3387580848818 L 1110.4837028761967 272.48127511747106 L 1111.1551141732966 273.68016625455806 L 1111.7303918189475 274.9280399336111 L 1112.2059890351652 276.2172025984386 L 1112.5789736069594 277.5397061325218 L 1112.847045960415 278.88739686179616 L 1113.0085533403299 280.2519658247629 Z" fill-opacity="1" stroke-opacity="1" stroke-miterlimit="10" stroke-width="2"/><text fill="rgb(255,255,255)" stroke="none" font-family="times new roman" font-size="10px" font-style="normal" font-weight="normal" text-decoration="normal" x="1095.5625" y="286.625" text-anchor="middle" dominant-baseline="text-after-edge" fill-opacity="1">*1.54</text><path fill="rgb(69,90,100)" stroke="rgb(76,175,80)" paint-order="fill stroke markers" d=" M 687.0625 75.75 L 687.0085533403297 77.12303417523728 L 686.8470459604149 78.48760313820404 L 686.5789736069594 79.83529386747834 L 686.2059890351652 81.15779740156158 L 685.7303918189475 82.44696006638907 L 685.1551141732964 83.69483374544207 L 684.4837028761966 84.8937248825291 L 683.7202974015615 86.03624191511828 L 682.8696043980005 87.1153408457782 L 681.9368686707646 88.12436867076458 L 680.9278408457782 89.05710439800055 L 679.8487419151182 89.90779740156158 L 678.7062248825291 90.67120287619662 L 677.5073337454421 91.34261417329644 L 676.2594600663891 91.91789181894751 L 674.9702974015615 92.39348903516519 L 673.6477938674783 92.76647360695934 L 672.300103138204 93.0345459604149 L 670.9355341752373 93.19605334032974 L 669.5625 93.25 L 668.1894658247627 93.19605334032974 L 666.824896861796 93.0345459604149 L 665.4772061325217 92.76647360695934 L 664.1547025984385 92.39348903516519 L 662.8655399336109 91.91789181894751 L 661.6176662545579 91.34261417329644 L 660.4187751174709 90.67120287619662 L 659.2762580848818 89.90779740156158 L 658.1971591542218 89.05710439800055 L 657.1881313292354 88.12436867076458 L 656.2553956019995 87.11534084577822 L 655.4047025984385 86.03624191511828 L 654.6412971238034 84.89372488252911 L 653.9698858267036 83.69483374544207 L 653.3946081810525 82.44696006638907 L 652.9190109648348 81.15779740156158 L 652.5460263930406 79.83529386747834 L 652.2779540395851 78.48760313820404 L 652.1164466596703 77.1230341752373 L 652.0625 75.75 L 652.1164466596703 74.37696582476272 L 652.2779540395851 73.01239686179596 L 652.5460263930406 71.66470613252166 L 652.9190109648348 70.34220259843842 L 653.3946081810525 69.05303993361093 L 653.9698858267036 67.80516625455793 L 654.6412971238034 66.6062751174709 L 655.4047025984385 65.46375808488172 L 656.2553956019995 64.3846591542218 L 657.1881313292354 63.37563132923542 L 658.1971591542218 62.44289560199947 L 659.2762580848818 61.59220259843842 L 660.4187751174709 60.82879712380338 L 661.6176662545579 60.15738582670356 L 662.865539933611 59.582108181052476 L 664.1547025984385 59.106510964834804 L 665.4772061325217 58.73352639304065 L 666.824896861796 58.46545403958508 L 668.1894658247628 58.30394665967026 L 669.5625000000001 58.25 L 670.9355341752373 58.30394665967027 L 672.3001031382041 58.4654540395851 L 673.6477938674784 58.73352639304068 L 674.9702974015617 59.10651096483484 L 676.2594600663891 59.58210818105252 L 677.5073337454421 60.15738582670361 L 678.7062248825292 60.82879712380345 L 679.8487419151184 61.59220259843849 L 680.9278408457783 62.44289560199954 L 681.9368686707646 63.37563132923552 L 682.8696043980007 64.3846591542219 L 683.7202974015617 65.46375808488185 L 684.4837028761967 66.60627511747103 L 685.1551141732965 67.80516625455807 L 685.7303918189476 69.05303993361109 L 686.2059890351652 70.34220259843859 L 686.5789736069594 71.66470613252184 L 686.8470459604149 73.01239686179616 L 687.0085533403297 74.37696582476292 Z" fill-opacity="1" stroke-opacity="1" stroke-miterlimit="10" stroke-width="2"/><text fill="rgb(255,255,255)" stroke="none" font-family="times new roman" font-size="10px" font-style="normal" font-weight="normal" text-decoration="normal" x="669.5625" y="80.75" text-anchor="middle" dominant-baseline="text-after-edge" fill-opacity="1">*34.1</text><path fill="rgb(69,90,100)" stroke="rgb(158,158,158)" paint-order="fill stroke markers" d=" M 151.4375 65.75 L 151.4375 85.75 L 246.43749999999997 85.75 L 246.4375 65.75 Z" fill-opacity="1" stroke-opacity="1" stroke-miterlimit="10" stroke-width="2"/><text fill="rgb(255,255,255)" stroke="none" font-family="times new roman" font-size="10px" font-style="normal" font-weight="normal" text-decoration="normal" x="198.9375" y="80.75" text-anchor="middle" dominant-baseline="text-after-edge" fill-opacity="1">42126611C&gt;G</text><path fill="rgb(69,90,100)" stroke="rgb(76,175,80)" paint-order="fill stroke markers" d=" M 1048.0625 136.25 L 1048.0625 156.25 L 1143.0625 156.25 L 1143.0625 136.25 Z" fill-opacity="1" stroke-opacity="1" stroke-miterlimit="10" stroke-width="2"/><text fill="rgb(255,255,255)" stroke="none" font-family="times new roman" font-size="10px" font-style="normal" font-weight="normal" text-decoration="normal" x="1095.5625" y="151.25" text-anchor="middle" dominant-baseline="text-after-edge" fill-opacity="1">42130047G&gt;C</text><path fill="rgb(176,190,197)" stroke="none" paint-order="stroke fill markers" d=" M 292.3125 176.62500000000003 L 292.3125 386.625 L 367.3125 386.625 L 367.3125 176.62500000000006 Z" fill-opacity="0.8"/><text fill="rgb(0,0,0)" stroke="none" font-family="times new roman" font-size="10px" font-style="normal" font-weight="normal" text-decoration="normal" x="297.3125" y="191.625" text-anchor="start" dominant-baseline="text-after-edge" fill-opacity="0.8">42126310C&gt;T </text><text fill="rgb(0,0,0)" stroke="none" font-family="times new roman" font-size="10px" font-style="normal" font-weight="normal" text-decoration="normal" x="297.3125" y="201.625" text-anchor="start" dominant-baseline="text-after-edge" fill-opacity="0.8">42127001G&gt;A </text><text fill="rgb(0,0,0)" stroke="none" font-family="times new roman" font-size="10px" font-style="normal" font-weight="normal" text-decoration="normal" x="297.3125" y="211.625" text-anchor="start" dominant-baseline="text-after-edge" fill-opacity="0.8">42127207C&gt;T </text><text fill="rgb(0,0,0)" stroke="none" font-family="times new roman" font-size="10px" font-style="normal" font-weight="normal" text-decoration="normal" x="297.3125" y="221.625" text-anchor="start" dominant-baseline="text-after-edge" fill-opacity="0.8">42129130C&gt;G </text><text fill="rgb(0,0,0)" stroke="none" font-family="times new roman" font-size="10px" font-style="normal" font-weight="normal" text-decoration="normal" x="297.3125" y="231.625" text-anchor="start" dominant-baseline="text-after-edge" fill-opacity="0.8">42131469C&gt;T </text><text fill="rgb(0,0,0)" stroke="none" font-family="times new roman" font-size="10px" font-style="normal" font-weight="normal" text-decoration="normal" x="297.3125" y="241.625" text-anchor="start" dominant-baseline="text-after-edge" fill-opacity="0.8">42131531G&gt;A </text><text fill="rgb(0,0,0)" stroke="none" font-family="times new roman" font-size="10px" font-style="normal" font-weight="normal" text-decoration="normal" x="297.3125" y="251.625" text-anchor="start" dominant-baseline="text-after-edge" fill-opacity="0.8">42132026T&gt;C </text><text fill="rgb(0,0,0)" stroke="none" font-family="times new roman" font-size="10px" font-style="normal" font-weight="normal" text-decoration="normal" x="297.3125" y="261.625" text-anchor="start" dominant-baseline="text-after-edge" fill-opacity="0.8">42132375G&gt;C </text><path fill="rgb(176,190,197)" stroke="none" paint-order="stroke fill markers" d=" M 907.3125 176.625 L 974.3125 176.625 L 974.3125 176.625 A 8 8 0 0 1 982.3125 184.625 L 982.3125 378.625 L 982.3125 378.625 A 8 8 0 0 1 974.3125 386.625 L 840.3125 386.625 L 840.3125 386.625 A 8 8 0 0 1 832.3125 378.625 L 832.3125 184.625 L 832.3125 184.625 A 8 8 0 0 1 840.3125 176.625 L 907.3125 176.625 Z" fill-opacity="0.8"/><text fill="rgb(0,0,0)" stroke="none" font-family="times new roman" font-size="10px" font-style="normal" font-weight="normal" text-decoration="normal" x="837.3125" y="191.625" text-anchor="start" dominant-baseline="text-after-edge" fill-opacity="0.8">42125924A&gt;G </text><text fill="rgb(0,0,0)" stroke="none" font-family="times new roman" font-size="10px" font-style="normal" font-weight="normal" text-decoration="normal" x="837.3125" y="201.625" text-anchor="start" dominant-baseline="text-after-edge" fill-opacity="0.8">42126069A&gt;C </text><text fill="rgb(0,0,0)" stroke="none" font-family="times new roman" font-size="10px" font-style="normal" font-weight="normal" text-decoration="normal" x="837.3125" y="211.625" text-anchor="start" dominant-baseline="text-after-edge" fill-opacity="0.8">42126136_42126138del </text><text fill="rgb(0,0,0)" stroke="none" font-family="times new roman" font-size="10px" font-style="normal" font-weight="normal" text-decoration="normal" x="837.3125" y="221.625" text-anchor="start" dominant-baseline="text-after-edge" fill-opacity="0.8">42132025_42132026insCCTTTT </text><text fill="rgb(0,0,0)" stroke="none" font-family="times new roman" font-size="10px" font-style="normal" font-weight="normal" text-decoration="normal" x="837.3125" y="231.625" text-anchor="start" dominant-baseline="text-after-edge" fill-opacity="0.8">42132027C&gt;T </text><text fill="rgb(0,0,0)" stroke="none" font-family="times new roman" font-size="10px" font-style="normal" font-weight="normal" text-decoration="normal" x="837.3125" y="241.625" text-anchor="start" dominant-baseline="text-after-edge" fill-opacity="0.8">42132561C&gt;T </text><text fill="rgb(0,0,0)" stroke="none" font-family="times new roman" font-size="10px" font-style="normal" font-weight="normal" text-decoration="normal" x="837.3125" y="251.625" text-anchor="start" dominant-baseline="text-after-edge" fill-opacity="0.8">42132844C&gt;A </text><text fill="rgb(0,0,0)" stroke="none" font-family="times new roman" font-size="10px" font-style="normal" font-weight="normal" text-decoration="normal" x="837.3125" y="261.625" text-anchor="start" dominant-baseline="text-after-edge" fill-opacity="0.8">42132851T&gt;C </text><text fill="rgb(0,0,0)" stroke="none" font-family="times new roman" font-size="10px" font-style="normal" font-weight="normal" text-decoration="normal" x="837.3125" y="271.625" text-anchor="start" dominant-baseline="text-after-edge" fill-opacity="0.8">42133400T&gt;G </text><text fill="rgb(0,0,0)" stroke="none" font-family="times new roman" font-size="10px" font-style="normal" font-weight="normal" text-decoration="normal" x="837.3125" y="281.625" text-anchor="start" dominant-baseline="text-after-edge" fill-opacity="0.8">42133533A&gt;C </text><text fill="rgb(0,0,0)" stroke="none" font-family="times new roman" font-size="10px" font-style="normal" font-weight="normal" text-decoration="normal" x="837.3125" y="291.625" text-anchor="start" dominant-baseline="text-after-edge" fill-opacity="0.8">42134096del </text><text fill="rgb(0,0,0)" stroke="none" font-family="times new roman" font-size="10px" font-style="normal" font-weight="normal" text-decoration="normal" x="837.3125" y="301.625" text-anchor="start" dominant-baseline="text-after-edge" fill-opacity="0.8">42134820T&gt;G </text><text fill="rgb(0,0,0)" stroke="none" font-family="times new roman" font-size="10px" font-style="normal" font-weight="normal" text-decoration="normal" x="837.3125" y="311.625" text-anchor="start" dominant-baseline="text-after-edge" fill-opacity="0.8">42135064_42135066dup </text><text fill="rgb(0,0,0)" stroke="none" font-family="times new roman" font-size="10px" font-style="normal" font-weight="normal" text-decoration="normal" x="837.3125" y="321.625" text-anchor="start" dominant-baseline="text-after-edge" fill-opacity="0.8">42135201T&gt;C </text><text fill="rgb(0,0,0)" stroke="none" font-family="times new roman" font-size="10px" font-style="normal" font-weight="normal" text-decoration="normal" x="837.3125" y="331.625" text-anchor="start" dominant-baseline="text-after-edge" fill-opacity="0.8">42135691T&gt;C </text><g transform="scale(1.0403605015673982,1.0403605015673982) translate(113.64011299435026,-68.98531073446327)"/></g></svg>