<svg version="1.1" xmlns="http://www.w3.org/2000/svg" xmlns:xlink="http://www.w3.org/1999/xlink" width="1017" height="608"><defs/><g transform="translate(-106.36795440151991,-52.37492083597215) scale(1.2121595946801773,1.2121595946801773)"><path fill="none" stroke="rgb(55,71,79)" paint-order="fill stroke markers" d=" M 490.75 243.875 L 490.75 349.75" stroke-opacity="1" stroke-linejoin="round" stroke-miterlimit="10" stroke-width="2"/><path fill="none" stroke="rgb(120,144,156)" paint-order="fill stroke markers" d=" M 188.5 386.109565807327 L 399.826505641085 486.7548893894448" stroke-opacity="1" stroke-linejoin="round" stroke-miterlimit="10"/><path fill="rgb(120,144,156)" stroke="none" paint-order="stroke fill markers" d=" M 391.9070739641338 487.8013605615761 L 401.6321813890762 487.61485165205664 L 395.6479098064952 479.9466710578144 Z" fill-opacity="1"/><path fill="none" stroke="rgb(120,144,156)" paint-order="fill stroke markers" d=" M 247.3429122071785 378.586587686602 L 403.0827848842031 483.5092274363825" stroke-opacity="1" stroke-linejoin="round" stroke-miterlimit="10"/><path fill="rgb(120,144,156)" stroke="none" paint-order="stroke fill markers" d=" M 395.09566768286174 483.3733642256253 L 404.74147809578994 484.6266963754746 L 399.95665756791243 476.15804875522247 Z" fill-opacity="1"/><path fill="none" stroke="rgb(120,144,156)" paint-order="fill stroke markers" d=" M 251.97305340301952 178.54164978869244 L 272.4654101371491 211.263316186738" stroke-opacity="1" stroke-linejoin="round" stroke-miterlimit="10"/><path fill="rgb(120,144,156)" stroke="none" paint-order="stroke fill markers" d=" M 265.2225639932749 207.89379400456332 L 273.5269465969805 212.95835021130756 L 272.59596200015255 203.27611040429653 Z" fill-opacity="1"/><path fill="none" stroke="rgb(120,144,156)" paint-order="fill stroke markers" d=" M 325.6111111111111 169.625 L 299.5345898628509 211.263316186738" stroke-opacity="1" stroke-linejoin="round" stroke-miterlimit="10"/><path fill="rgb(120,144,156)" stroke="none" paint-order="stroke fill markers" d=" M 299.40403799984745 203.27611040429653 L 298.4730534030195 212.95835021130756 L 306.7774360067251 207.89379400456332 Z" fill-opacity="1"/><path fill="none" stroke="rgb(120,144,156)" paint-order="fill stroke markers" d=" M 607.0401662049861 243.875 L 650.5537911373248 349.30062819177346" stroke-opacity="1" stroke-linejoin="round" stroke-miterlimit="10"/><path fill="rgb(120,144,156)" stroke="none" paint-order="stroke fill markers" d=" M 643.9766269058267 344.7670412375061 L 651.316835904415 351.14934739257603 L 652.018555429318 341.44779650066346 Z" fill-opacity="1"/><path fill="none" stroke="rgb(55,71,79)" paint-order="fill stroke markers" d=" M 204.76950693813149 103.75665801990523 L 226.93130199750863 138.76856954228253" stroke-opacity="1" stroke-linejoin="round" stroke-miterlimit="10" stroke-width="2"/><path fill="none" stroke="rgb(120,144,156)" paint-order="fill stroke markers" d=" M 380.6826692241192 389.8816570313144 L 418.74021988296886 479.53400791222856" stroke-opacity="1" stroke-linejoin="round" stroke-miterlimit="10"/><path fill="rgb(120,144,156)" stroke="none" paint-order="stroke fill markers" d=" M 412.1180244834873 475.066455104361 L 419.5217236467237 481.375 L 420.12634006529305 471.6669137320275 Z" fill-opacity="1"/><path fill="none" stroke="rgb(55,71,79)" paint-order="fill stroke markers" d=" M 277.1622340425532 99.125 L 252.06869800249137 138.76856954228253" stroke-opacity="1" stroke-linejoin="round" stroke-miterlimit="10" stroke-width="2"/><path fill="none" stroke="rgb(120,144,156)" paint-order="fill stroke markers" d=" M 298.5488352976176 252.74398922122782 L 357.88317871960646 346.69003297271024" stroke-opacity="1" stroke-linejoin="round" stroke-miterlimit="10"/><path fill="rgb(120,144,156)" stroke="none" paint-order="stroke fill markers" d=" M 350.62754894912223 343.34812683494044 L 358.9511647023824 348.3810107787722 L 357.9833024054917 338.702387809865 Z" fill-opacity="1"/><path fill="none" stroke="rgb(120,144,156)" paint-order="fill stroke markers" d=" M 196.16897506925207 243.875 L 226.3249883236794 348.55116139277175" stroke-opacity="1" stroke-linejoin="round" stroke-miterlimit="10"/><path fill="rgb(120,144,156)" stroke="none" paint-order="stroke fill markers" d=" M 220.29023094939694 343.3172141792872 L 226.878647999418 350.4729993056721 L 228.6502258705133 340.9087945898243 Z" fill-opacity="1"/><path fill="none" stroke="rgb(120,144,156)" paint-order="fill stroke markers" d=" M 277.2931727723863 254.7025321470038 L 239.5953173687694 349.20896131857114" stroke-opacity="1" stroke-linejoin="round" stroke-miterlimit="10"/><path fill="rgb(120,144,156)" stroke="none" paint-order="stroke fill markers" d=" M 238.03727386177133 341.37410328346283 L 238.85431079620653 351.06662362895446 L 246.1181049119387 344.59748187411134 Z" fill-opacity="1"/><path fill="none" stroke="rgb(120,144,156)" paint-order="fill stroke markers" d=" M 482.7244110527013 384.91853089054337 L 437.1500386449532 479.5729966604818" stroke-opacity="1" stroke-linejoin="round" stroke-miterlimit="10"/><path fill="rgb(120,144,156)" stroke="none" paint-order="stroke fill markers" d=" M 436.13724602727956 471.6491875314337 L 436.2824074074074 481.375 L 443.9759605541837 475.42338341475795 Z" fill-opacity="1"/><path fill="none" stroke="rgb(120,144,156)" paint-order="fill stroke markers" d=" M 642.3012735472004 377.4088928326829 L 453.28237141898944 485.11284518171215" stroke-opacity="1" stroke-linejoin="round" stroke-miterlimit="10"/><path fill="rgb(120,144,156)" stroke="none" paint-order="stroke fill markers" d=" M 456.95008944123737 478.01634290881196 L 451.54467126193003 486.1029957582184 L 461.2572444490396 485.57533859202044 Z" fill-opacity="1"/><path fill="none" stroke="rgb(120,144,156)" paint-order="fill stroke markers" d=" M 378.39058171745154 243.875 L 372.91057926422627 342.7890442807161" stroke-opacity="1" stroke-linejoin="round" stroke-miterlimit="10"/><path fill="rgb(120,144,156)" stroke="none" paint-order="stroke fill markers" d=" M 368.9378625462432 335.8586747466539 L 372.7999455964438 344.78598198418933 L 377.6245415563518 336.33993120150757 Z" fill-opacity="1"/><path fill="none" stroke="rgb(120,144,156)" paint-order="fill stroke markers" d=" M 826 243.875 L 826 261.25" stroke-opacity="1" stroke-linejoin="round" stroke-miterlimit="10"/><path fill="rgb(120,144,156)" stroke="none" paint-order="stroke fill markers" d=" M 821.65 254.55 L 826 263.25 L 830.35 254.55 Z" fill-opacity="1"/><path fill="none" stroke="rgb(120,144,156)" paint-order="fill stroke markers" d=" M 709.7098337950139 243.875 L 666.1962088626752 349.30062819177346" stroke-opacity="1" stroke-linejoin="round" stroke-miterlimit="10"/><path fill="rgb(120,144,156)" stroke="none" paint-order="stroke fill markers" d=" M 664.731444570682 341.44779650066346 L 665.433164095585 351.14934739257603 L 672.7733730941733 344.7670412375061 Z" fill-opacity="1"/><path fill="none" stroke="rgb(120,144,156)" paint-order="fill stroke markers" d=" M 751 393.0148165569144 L 457.92884951162875 489.7861936231593" stroke-opacity="1" stroke-linejoin="round" stroke-miterlimit="10"/><path fill="rgb(120,144,156)" stroke="none" paint-order="stroke fill markers" d=" M 462.9270595347958 483.55478956273174 L 456.0297038953912 490.4132868605058 L 465.6549151172532 491.816072993365 Z" fill-opacity="1"/><path fill="rgb(69,90,100)" stroke="rgb(244,67,54)" paint-order="fill stroke markers" d=" M 394 368.25 L 393.9306400089954 370.0153296538765 L 393.7229876633906 371.7697754634052 L 393.37832320894773 373.50252068675786 L 392.89877161664094 375.2028823734363 L 392.28728948150393 376.86037722821453 L 391.5476467942383 378.4647862441398 L 390.68440369796707 380.0062177061088 L 389.7028823734363 381.47516817658067 L 388.6091342260007 382.86258108742913 L 387.40990257669733 384.15990257669733 L 386.11258108742913 385.3591342260007 L 384.72516817658067 386.4528823734363 L 383.2562177061088 387.43440369796707 L 381.7147862441398 388.2976467942383 L 380.11037722821453 389.03728948150393 L 378.4528823734363 389.64877161664094 L 376.75252068675786 390.12832320894773 L 375.0197754634052 390.4729876633906 L 373.2653296538765 390.6806400089954 L 371.5 390.75 L 369.7346703461235 390.6806400089954 L 367.9802245365948 390.4729876633906 L 366.24747931324214 390.12832320894773 L 364.5471176265637 389.64877161664094 L 362.88962277178547 389.03728948150393 L 361.2852137558602 388.2976467942383 L 359.7437822938912 387.43440369796707 L 358.27483182341933 386.4528823734363 L 356.88741891257087 385.3591342260007 L 355.59009742330267 384.15990257669733 L 354.3908657739993 382.86258108742913 L 353.2971176265637 381.47516817658067 L 352.31559630203293 380.0062177061088 L 351.4523532057617 378.4647862441398 L 350.71271051849607 376.86037722821453 L 350.10122838335906 375.2028823734363 L 349.62167679105227 373.50252068675786 L 349.2770123366094 371.7697754634052 L 349.0693599910046 370.0153296538765 L 349 368.25 L 349.0693599910046 366.4846703461235 L 349.2770123366094 364.7302245365948 L 349.62167679105227 362.99747931324214 L 350.10122838335906 361.2971176265637 L 350.71271051849607 359.63962277178547 L 351.4523532057617 358.0352137558602 L 352.31559630203293 356.4937822938912 L 353.2971176265637 355.02483182341933 L 354.3908657739993 353.63741891257087 L 355.59009742330267 352.34009742330267 L 356.88741891257087 351.14086577399934 L 358.27483182341933 350.0471176265637 L 359.7437822938912 349.06559630203293 L 361.28521375586024 348.2023532057617 L 362.8896227717855 347.462710518496 L 364.5471176265637 346.85122838335906 L 366.2474793132422 346.37167679105227 L 367.98022453659485 346.0270123366094 L 369.73467034612355 345.8193599910046 L 371.50000000000006 345.75 L 373.2653296538766 345.8193599910046 L 375.01977546340527 346.0270123366094 L 376.752520686758 346.3716767910523 L 378.4528823734364 346.85122838335906 L 380.11037722821465 347.4627105184961 L 381.71478624413993 348.20235320576177 L 383.256217706109 349.065596302033 L 384.7251681765808 350.04711762656376 L 386.11258108742925 351.1408657739994 L 387.40990257669745 352.3400974233028 L 388.60913422600083 353.637418912571 L 389.7028823734364 355.0248318234195 L 390.6844036979672 356.49378229389134 L 391.5476467942384 358.0352137558604 L 392.28728948150405 359.6396227717857 L 392.89877161664106 361.29711762656393 L 393.3783232089478 362.99747931324237 L 393.72298766339065 364.7302245365951 L 393.9306400089954 366.4846703461238 Z" fill-opacity="1" stroke-opacity="1" stroke-miterlimit="10" stroke-width="2"/><text fill="rgb(255,255,255)" stroke="none" font-family="times new roman" font-size="15px" font-style="normal" font-weight="normal" text-decoration="normal" x="371.5" y="375.75" text-anchor="middle" dominant-baseline="text-after-edge" fill-opacity="1">*99</text><path fill="rgb(3,169,244)" stroke="none" paint-order="stroke fill markers" d=" M 371.5 335.75 L 396 335.75 L 396 335.75 A 8 8 0 0 1 404 343.75 L 404 392.75 L 404 392.75 A 8 8 0 0 1 396 400.75 L 347 400.75 L 347 400.75 A 8 8 0 0 1 339 392.75 L 339 343.75 L 339 343.75 A 8 8 0 0 1 347 335.75 L 371.5 335.75 Z" fill-opacity="0.15"/><path fill="rgb(69,90,100)" stroke="rgb(76,175,80)" paint-order="fill stroke markers" d=" M 826 222.875 L 868.5 222.875 L 868.5 222.875 A 5 5 0 0 1 873.5 227.875 L 873.5 237.875 L 873.5 237.875 A 5 5 0 0 1 868.5 242.875 L 783.5 242.875 L 783.5 242.875 A 5 5 0 0 1 778.5 237.875 L 778.5 227.875 L 778.5 227.875 A 5 5 0 0 1 783.5 222.875 L 826 222.875 Z" fill-opacity="1" stroke-opacity="1" stroke-miterlimit="10" stroke-width="2"/><text fill="rgb(255,255,255)" stroke="none" font-family="times new roman" font-size="10px" font-style="normal" font-weight="normal" text-decoration="normal" x="826" y="237.875" text-anchor="middle" dominant-baseline="text-after-edge" fill-opacity="1">42132049dup</text><path fill="rgb(69,90,100)" stroke="rgb(76,175,80)" paint-order="fill stroke markers" d=" M 212.375 88.125 L 212.32105334032974 89.49803417523728 L 212.1595459604149 90.86260313820404 L 211.89147360695935 92.21029386747834 L 211.51848903516517 93.53279740156158 L 211.0428918189475 94.82196006638907 L 210.46761417329643 96.06983374544207 L 209.79620287619662 97.2687248825291 L 209.0327974015616 98.41124191511828 L 208.18210439800055 99.4903408457782 L 207.24936867076457 100.49936867076458 L 206.2403408457782 101.43210439800055 L 205.16124191511827 102.28279740156158 L 204.0187248825291 103.04620287619662 L 202.81983374544208 103.71761417329644 L 201.57196006638907 104.29289181894751 L 200.2827974015616 104.76848903516519 L 198.96029386747836 105.14147360695934 L 197.61260313820404 105.4095459604149 L 196.24803417523728 105.57105334032974 L 194.875 105.625 L 193.50196582476272 105.57105334032974 L 192.13739686179596 105.4095459604149 L 190.78970613252164 105.14147360695934 L 189.46720259843843 104.76848903516519 L 188.17803993361093 104.29289181894751 L 186.93016625455795 103.71761417329644 L 185.7312751174709 103.04620287619662 L 184.58875808488173 102.28279740156158 L 183.5096591542218 101.43210439800055 L 182.50063132923543 100.49936867076458 L 181.56789560199945 99.49034084577822 L 180.71720259843843 98.41124191511828 L 179.95379712380338 97.26872488252911 L 179.28238582670357 96.06983374544207 L 178.7071081810525 94.82196006638907 L 178.23151096483483 93.53279740156158 L 177.85852639304065 92.21029386747834 L 177.5904540395851 90.86260313820404 L 177.42894665967026 89.4980341752373 L 177.375 88.125 L 177.42894665967026 86.75196582476272 L 177.5904540395851 85.38739686179596 L 177.85852639304065 84.03970613252166 L 178.2315109648348 82.71720259843842 L 178.7071081810525 81.42803993361093 L 179.28238582670357 80.18016625455793 L 179.95379712380338 78.9812751174709 L 180.7172025984384 77.83875808488172 L 181.56789560199945 76.7596591542218 L 182.5006313292354 75.75063132923542 L 183.50965915422177 74.81789560199947 L 184.5887580848817 73.96720259843842 L 185.7312751174709 73.20379712380338 L 186.93016625455795 72.53238582670356 L 188.17803993361096 71.95710818105248 L 189.46720259843843 71.4815109648348 L 190.7897061325217 71.10852639304065 L 192.137396861796 70.84045403958508 L 193.50196582476278 70.67894665967026 L 194.87500000000006 70.625 L 196.24803417523736 70.67894665967026 L 197.61260313820412 70.8404540395851 L 198.9602938674784 71.10852639304068 L 200.28279740156165 71.48151096483484 L 201.57196006638915 71.95710818105252 L 202.81983374544217 72.5323858267036 L 204.0187248825292 73.20379712380344 L 205.16124191511838 73.96720259843849 L 206.24034084577832 74.81789560199954 L 207.24936867076468 75.75063132923552 L 208.18210439800063 76.7596591542219 L 209.03279740156168 77.83875808488185 L 209.7962028761967 78.98127511747103 L 210.4676141732965 80.18016625455807 L 211.0428918189476 81.42803993361109 L 211.51848903516523 82.71720259843859 L 211.89147360695938 84.03970613252184 L 212.15954596041493 85.38739686179616 L 212.32105334032974 86.75196582476292 Z" fill-opacity="1" stroke-opacity="1" stroke-miterlimit="10" stroke-width="2"/><text fill="rgb(255,255,255)" stroke="none" font-family="times new roman" font-size="10px" font-style="normal" font-weight="normal" text-decoration="normal" x="194.875" y="93.125" text-anchor="middle" dominant-baseline="text-after-edge" fill-opacity="1">*39.2</text><path fill="rgb(69,90,100)" stroke="rgb(158,158,158)" paint-order="fill stroke markers" d=" M 331.5 222.875 L 331.5 242.875 L 426.5 242.875 L 426.5 222.875 Z" fill-opacity="1" stroke-opacity="1" stroke-miterlimit="10" stroke-width="2"/><text fill="rgb(255,255,255)" stroke="none" font-family="times new roman" font-size="10px" font-style="normal" font-weight="normal" text-decoration="normal" x="379" y="237.875" text-anchor="middle" dominant-baseline="text-after-edge" fill-opacity="1">42129827C&gt;G</text><path fill="rgb(69,90,100)" stroke="rgb(255,193,7)" paint-order="fill stroke markers" d=" M 308.5 232.875 L 308.4306400089954 234.6403296538765 L 308.2229876633906 236.39477546340518 L 307.87832320894773 238.12752068675786 L 307.39877161664094 239.82788237343632 L 306.78728948150393 241.48537722821453 L 306.0476467942383 243.08978624413982 L 305.18440369796707 244.63121770610886 L 304.2028823734363 246.10016817658064 L 303.1091342260007 247.48758108742913 L 301.90990257669733 248.7849025766973 L 300.61258108742913 249.9841342260007 L 299.22516817658067 251.07788237343632 L 297.7562177061088 252.05940369796707 L 296.2147862441398 252.9226467942383 L 294.61037722821453 253.66228948150396 L 292.9528823734363 254.27377161664094 L 291.25252068675786 254.75332320894773 L 289.5197754634052 255.0979876633906 L 287.7653296538765 255.30564000899537 L 286 255.375 L 284.2346703461235 255.30564000899537 L 282.4802245365948 255.0979876633906 L 280.74747931324214 254.75332320894773 L 279.0471176265637 254.27377161664094 L 277.38962277178547 253.66228948150396 L 275.7852137558602 252.9226467942383 L 274.2437822938912 252.05940369796707 L 272.77483182341933 251.07788237343632 L 271.38741891257087 249.9841342260007 L 270.09009742330267 248.78490257669733 L 268.8908657739993 247.48758108742913 L 267.7971176265637 246.10016817658064 L 266.81559630203293 244.63121770610886 L 265.9523532057617 243.08978624413982 L 265.21271051849607 241.48537722821453 L 264.60122838335906 239.82788237343632 L 264.12167679105227 238.12752068675786 L 263.7770123366094 236.3947754634052 L 263.5693599910046 234.6403296538765 L 263.5 232.875 L 263.5693599910046 231.1096703461235 L 263.7770123366094 229.35522453659482 L 264.12167679105227 227.62247931324214 L 264.60122838335906 225.92211762656368 L 265.21271051849607 224.26462277178547 L 265.9523532057617 222.6602137558602 L 266.81559630203293 221.11878229389114 L 267.7971176265637 219.64983182341936 L 268.8908657739993 218.26241891257087 L 270.09009742330267 216.9650974233027 L 271.38741891257087 215.7658657739993 L 272.77483182341933 214.67211762656368 L 274.2437822938912 213.69059630203293 L 275.78521375586024 212.8273532057617 L 277.3896227717855 212.08771051849604 L 279.0471176265637 211.47622838335903 L 280.7474793132422 210.99667679105227 L 282.48022453659485 210.6520123366094 L 284.23467034612355 210.4443599910046 L 286.00000000000006 210.375 L 287.7653296538766 210.44435999100463 L 289.51977546340527 210.6520123366094 L 291.252520686758 210.9966767910523 L 292.9528823734364 211.47622838335909 L 294.61037722821465 212.0877105184961 L 296.21478624413993 212.8273532057618 L 297.756217706109 213.690596302033 L 299.2251681765808 214.67211762656376 L 300.61258108742925 215.76586577399942 L 301.90990257669745 216.9650974233028 L 303.10913422600083 218.262418912571 L 304.2028823734364 219.6498318234195 L 305.1844036979672 221.11878229389131 L 306.0476467942384 222.66021375586038 L 306.78728948150405 224.2646227717857 L 307.39877161664106 225.9221176265639 L 307.8783232089478 227.62247931324237 L 308.22298766339065 229.35522453659505 L 308.4306400089954 231.10967034612375 Z" fill-opacity="1" stroke-opacity="1" stroke-miterlimit="10" stroke-width="2"/><text fill="rgb(255,255,255)" stroke="none" font-family="times new roman" font-size="15px" font-style="normal" font-weight="normal" text-decoration="normal" x="286" y="240.375" text-anchor="middle" dominant-baseline="text-after-edge" fill-opacity="1">*10</text><path fill="rgb(69,90,100)" stroke="rgb(158,158,158)" paint-order="fill stroke markers" d=" M 285 148.625 L 285 168.625 L 380 168.625 L 380 148.625 Z" fill-opacity="1" stroke-opacity="1" stroke-miterlimit="10" stroke-width="2"/><text fill="rgb(255,255,255)" stroke="none" font-family="times new roman" font-size="10px" font-style="normal" font-weight="normal" text-decoration="normal" x="332.5" y="163.625" text-anchor="middle" dominant-baseline="text-after-edge" fill-opacity="1">42130692G&gt;A</text><path fill="rgb(69,90,100)" stroke="rgb(76,175,80)" paint-order="fill stroke markers" d=" M 443.25 222.875 L 443.25 242.875 L 538.25 242.875 L 538.25 222.875 Z" fill-opacity="1" stroke-opacity="1" stroke-miterlimit="10" stroke-width="2"/><text fill="rgb(255,255,255)" stroke="none" font-family="times new roman" font-size="10px" font-style="normal" font-weight="normal" text-decoration="normal" x="490.75" y="237.875" text-anchor="middle" dominant-baseline="text-after-edge" fill-opacity="1">42127407T&gt;G</text><path fill="rgb(69,90,100)" stroke="rgb(76,175,80)" paint-order="fill stroke markers" d=" M 145.5 222.875 L 145.5 242.875 L 240.49999999999997 242.875 L 240.5 222.875 Z" fill-opacity="1" stroke-opacity="1" stroke-miterlimit="10" stroke-width="2"/><text fill="rgb(255,255,255)" stroke="none" font-family="times new roman" font-size="10px" font-style="normal" font-weight="normal" text-decoration="normal" x="193" y="237.875" text-anchor="middle" dominant-baseline="text-after-edge" fill-opacity="1">42129130C&gt;G</text><path fill="rgb(69,90,100)" stroke="rgb(69,90,100)" paint-order="fill stroke markers" d=" M 408.625 482.375 L 389.875 499.875 L 408.625 517.375 L 446.125 517.375 L 464.875 499.875 L 446.12500000000006 482.375 Z" fill-opacity="1" stroke-opacity="1" stroke-miterlimit="10" stroke-width="2"/><text fill="rgb(255,255,255)" stroke="none" font-family="times new roman" font-size="10px" font-style="normal" font-weight="normal" text-decoration="normal" x="427.375" y="504.875" text-anchor="middle" dominant-baseline="text-after-edge" fill-opacity="1">HG03703-B</text><path fill="rgb(69,90,100)" stroke="rgb(158,158,158)" paint-order="fill stroke markers" d=" M 236.625 78.125 L 236.625 98.125 L 331.625 98.125 L 331.625 78.125 Z" fill-opacity="1" stroke-opacity="1" stroke-miterlimit="10" stroke-width="2"/><text fill="rgb(255,255,255)" stroke="none" font-family="times new roman" font-size="10px" font-style="normal" font-weight="normal" text-decoration="normal" x="284.125" y="93.125" text-anchor="middle" dominant-baseline="text-after-edge" fill-opacity="1">42126611C&gt;G</text><path fill="rgb(69,90,100)" stroke="rgb(76,175,80)" paint-order="fill stroke markers" d=" M 508.25 368.25 L 508.19605334032974 369.6230341752373 L 508.0345459604149 370.98760313820407 L 507.7664736069593 372.33529386747836 L 507.3934890351652 373.6577974015616 L 506.9178918189475 374.94696006638907 L 506.34261417329645 376.19483374544205 L 505.6712028761966 377.3937248825291 L 504.9077974015616 378.5362419151183 L 504.05710439800055 379.61534084577823 L 503.12436867076457 380.62436867076457 L 502.11534084577823 381.55710439800055 L 501.0362419151183 382.4077974015616 L 499.8937248825291 383.1712028761966 L 498.69483374544205 383.84261417329645 L 497.44696006638907 384.4178918189475 L 496.1577974015616 384.8934890351652 L 494.83529386747836 385.2664736069593 L 493.48760313820407 385.5345459604149 L 492.1230341752373 385.69605334032974 L 490.75 385.75 L 489.3769658247627 385.69605334032974 L 488.01239686179593 385.5345459604149 L 486.66470613252164 385.2664736069593 L 485.3422025984384 384.8934890351652 L 484.05303993361093 384.4178918189475 L 482.80516625455795 383.84261417329645 L 481.6062751174709 383.1712028761966 L 480.4637580848817 382.4077974015616 L 479.38465915422177 381.55710439800055 L 478.37563132923543 380.62436867076457 L 477.44289560199945 379.61534084577823 L 476.5922025984384 378.5362419151183 L 475.8287971238034 377.3937248825291 L 475.15738582670355 376.19483374544205 L 474.5821081810525 374.94696006638907 L 474.1065109648348 373.6577974015616 L 473.7335263930407 372.33529386747836 L 473.4654540395851 370.98760313820407 L 473.30394665967026 369.6230341752373 L 473.25 368.25 L 473.30394665967026 366.8769658247627 L 473.4654540395851 365.51239686179593 L 473.7335263930407 364.16470613252164 L 474.1065109648348 362.8422025984384 L 474.5821081810525 361.55303993361093 L 475.15738582670355 360.30516625455795 L 475.8287971238034 359.1062751174709 L 476.5922025984384 357.9637580848817 L 477.44289560199945 356.88465915422177 L 478.37563132923543 355.87563132923543 L 479.38465915422177 354.94289560199945 L 480.4637580848817 354.0922025984384 L 481.6062751174709 353.3287971238034 L 482.80516625455795 352.65738582670355 L 484.05303993361093 352.0821081810525 L 485.34220259843846 351.6065109648348 L 486.6647061325217 351.2335263930407 L 488.012396861796 350.9654540395851 L 489.37696582476275 350.80394665967026 L 490.75000000000006 350.75 L 492.12303417523736 350.80394665967026 L 493.4876031382041 350.9654540395851 L 494.8352938674784 351.2335263930407 L 496.15779740156165 351.60651096483485 L 497.4469600663892 352.0821081810525 L 498.69483374544217 352.6573858267036 L 499.8937248825292 353.32879712380344 L 501.03624191511835 354.0922025984385 L 502.1153408457783 354.94289560199957 L 503.1243686707647 355.8756313292355 L 504.05710439800066 356.8846591542219 L 504.90779740156165 357.9637580848818 L 505.6712028761967 359.10627511747106 L 506.3426141732965 360.30516625455806 L 506.91789181894757 361.5530399336111 L 507.39348903516526 362.8422025984386 L 507.7664736069594 364.1647061325218 L 508.03454596041496 365.51239686179616 L 508.19605334032974 366.8769658247629 Z" fill-opacity="1" stroke-opacity="1" stroke-miterlimit="10" stroke-width="2"/><text fill="rgb(255,255,255)" stroke="none" font-family="times new roman" font-size="10px" font-style="normal" font-weight="normal" text-decoration="normal" x="490.75" y="373.25" text-anchor="middle" dominant-baseline="text-after-edge" fill-opacity="1">*1.41</text><path fill="rgb(69,90,100)" stroke="rgb(76,175,80)" paint-order="fill stroke markers" d=" M 555 222.875 L 555 242.875 L 650 242.875 L 650 222.875 Z" fill-opacity="1" stroke-opacity="1" stroke-miterlimit="10" stroke-width="2"/><text fill="rgb(255,255,255)" stroke="none" font-family="times new roman" font-size="10px" font-style="normal" font-weight="normal" text-decoration="normal" x="602.5" y="237.875" text-anchor="middle" dominant-baseline="text-after-edge" fill-opacity="1">42130482C&gt;A</text><path fill="rgb(69,90,100)" stroke="rgb(76,175,80)" paint-order="fill stroke markers" d=" M 666.75 222.875 L 666.75 242.875 L 761.75 242.875 L 761.75 222.875 Z" fill-opacity="1" stroke-opacity="1" stroke-miterlimit="10" stroke-width="2"/><text fill="rgb(255,255,255)" stroke="none" font-family="times new roman" font-size="10px" font-style="normal" font-weight="normal" text-decoration="normal" x="714.25" y="237.875" text-anchor="middle" dominant-baseline="text-after-edge" fill-opacity="1">42129950A&gt;C</text><path fill="rgb(69,90,100)" stroke="rgb(76,175,80)" paint-order="fill stroke markers" d=" M 675.875 368.25 L 675.8210533403297 369.6230341752373 L 675.6595459604149 370.98760313820407 L 675.3914736069594 372.33529386747836 L 675.0184890351652 373.6577974015616 L 674.5428918189475 374.94696006638907 L 673.9676141732964 376.19483374544205 L 673.2962028761966 377.3937248825291 L 672.5327974015615 378.5362419151183 L 671.6821043980005 379.61534084577823 L 670.7493686707646 380.62436867076457 L 669.7403408457782 381.55710439800055 L 668.6612419151182 382.4077974015616 L 667.5187248825291 383.1712028761966 L 666.3198337454421 383.84261417329645 L 665.0719600663891 384.4178918189475 L 663.7827974015615 384.8934890351652 L 662.4602938674783 385.2664736069593 L 661.112603138204 385.5345459604149 L 659.7480341752373 385.69605334032974 L 658.375 385.75 L 657.0019658247627 385.69605334032974 L 655.637396861796 385.5345459604149 L 654.2897061325217 385.2664736069593 L 652.9672025984385 384.8934890351652 L 651.6780399336109 384.4178918189475 L 650.4301662545579 383.84261417329645 L 649.2312751174709 383.1712028761966 L 648.0887580848818 382.4077974015616 L 647.0096591542218 381.55710439800055 L 646.0006313292354 380.62436867076457 L 645.0678956019995 379.61534084577823 L 644.2172025984385 378.5362419151183 L 643.4537971238034 377.3937248825291 L 642.7823858267036 376.19483374544205 L 642.2071081810525 374.94696006638907 L 641.7315109648348 373.6577974015616 L 641.3585263930406 372.33529386747836 L 641.0904540395851 370.98760313820407 L 640.9289466596703 369.6230341752373 L 640.875 368.25 L 640.9289466596703 366.8769658247627 L 641.0904540395851 365.51239686179593 L 641.3585263930406 364.16470613252164 L 641.7315109648348 362.8422025984384 L 642.2071081810525 361.55303993361093 L 642.7823858267036 360.30516625455795 L 643.4537971238034 359.1062751174709 L 644.2172025984385 357.9637580848817 L 645.0678956019995 356.88465915422177 L 646.0006313292354 355.87563132923543 L 647.0096591542218 354.94289560199945 L 648.0887580848818 354.0922025984384 L 649.2312751174709 353.3287971238034 L 650.4301662545579 352.65738582670355 L 651.678039933611 352.0821081810525 L 652.9672025984385 351.6065109648348 L 654.2897061325217 351.2335263930407 L 655.637396861796 350.9654540395851 L 657.0019658247628 350.80394665967026 L 658.3750000000001 350.75 L 659.7480341752373 350.80394665967026 L 661.1126031382041 350.9654540395851 L 662.4602938674784 351.2335263930407 L 663.7827974015617 351.60651096483485 L 665.0719600663891 352.0821081810525 L 666.3198337454421 352.6573858267036 L 667.5187248825292 353.32879712380344 L 668.6612419151184 354.0922025984385 L 669.7403408457783 354.94289560199957 L 670.7493686707646 355.8756313292355 L 671.6821043980007 356.8846591542219 L 672.5327974015617 357.9637580848818 L 673.2962028761967 359.10627511747106 L 673.9676141732965 360.30516625455806 L 674.5428918189476 361.5530399336111 L 675.0184890351652 362.8422025984386 L 675.3914736069594 364.1647061325218 L 675.6595459604149 365.51239686179616 L 675.8210533403297 366.8769658247629 Z" fill-opacity="1" stroke-opacity="1" stroke-miterlimit="10" stroke-width="2"/><text fill="rgb(255,255,255)" stroke="none" font-family="times new roman" font-size="10px" font-style="normal" font-weight="normal" text-decoration="normal" x="658.375" y="373.25" text-anchor="middle" dominant-baseline="text-after-edge" fill-opacity="1">*1.58</text><path fill="rgb(69,90,100)" stroke="rgb(255,193,7)" paint-order="fill stroke markers" d=" M 249.5 368.25 L 249.44605334032974 369.6230341752373 L 249.2845459604149 370.98760313820407 L 249.01647360695935 372.33529386747836 L 248.64348903516517 373.6577974015616 L 248.1678918189475 374.94696006638907 L 247.59261417329643 376.19483374544205 L 246.92120287619662 377.3937248825291 L 246.1577974015616 378.5362419151183 L 245.30710439800055 379.61534084577823 L 244.37436867076457 380.62436867076457 L 243.3653408457782 381.55710439800055 L 242.28624191511827 382.4077974015616 L 241.1437248825291 383.1712028761966 L 239.94483374544208 383.84261417329645 L 238.69696006638907 384.4178918189475 L 237.4077974015616 384.8934890351652 L 236.08529386747836 385.2664736069593 L 234.73760313820404 385.5345459604149 L 233.37303417523728 385.69605334032974 L 232 385.75 L 230.62696582476272 385.69605334032974 L 229.26239686179596 385.5345459604149 L 227.91470613252164 385.2664736069593 L 226.59220259843843 384.8934890351652 L 225.30303993361093 384.4178918189475 L 224.05516625455795 383.84261417329645 L 222.8562751174709 383.1712028761966 L 221.71375808488173 382.4077974015616 L 220.6346591542218 381.55710439800055 L 219.62563132923543 380.62436867076457 L 218.69289560199945 379.61534084577823 L 217.84220259843843 378.5362419151183 L 217.07879712380338 377.3937248825291 L 216.40738582670357 376.19483374544205 L 215.8321081810525 374.94696006638907 L 215.35651096483483 373.6577974015616 L 214.98352639304065 372.33529386747836 L 214.7154540395851 370.98760313820407 L 214.55394665967026 369.6230341752373 L 214.5 368.25 L 214.55394665967026 366.8769658247627 L 214.7154540395851 365.51239686179593 L 214.98352639304065 364.16470613252164 L 215.3565109648348 362.8422025984384 L 215.8321081810525 361.55303993361093 L 216.40738582670357 360.30516625455795 L 217.07879712380338 359.1062751174709 L 217.8422025984384 357.9637580848817 L 218.69289560199945 356.88465915422177 L 219.6256313292354 355.87563132923543 L 220.63465915422177 354.94289560199945 L 221.7137580848817 354.0922025984384 L 222.8562751174709 353.3287971238034 L 224.05516625455795 352.65738582670355 L 225.30303993361096 352.0821081810525 L 226.59220259843843 351.6065109648348 L 227.9147061325217 351.2335263930407 L 229.262396861796 350.9654540395851 L 230.62696582476278 350.80394665967026 L 232.00000000000006 350.75 L 233.37303417523736 350.80394665967026 L 234.73760313820412 350.9654540395851 L 236.0852938674784 351.2335263930407 L 237.40779740156165 351.60651096483485 L 238.69696006638915 352.0821081810525 L 239.94483374544217 352.6573858267036 L 241.1437248825292 353.32879712380344 L 242.28624191511838 354.0922025984385 L 243.36534084577832 354.94289560199957 L 244.37436867076468 355.8756313292355 L 245.30710439800063 356.8846591542219 L 246.15779740156168 357.9637580848818 L 246.9212028761967 359.10627511747106 L 247.5926141732965 360.30516625455806 L 248.1678918189476 361.5530399336111 L 248.64348903516523 362.8422025984386 L 249.01647360695938 364.1647061325218 L 249.28454596041493 365.51239686179616 L 249.44605334032974 366.8769658247629 Z" fill-opacity="1" stroke-opacity="1" stroke-miterlimit="10" stroke-width="2"/><text fill="rgb(255,255,255)" stroke="none" font-family="times new roman" font-size="10px" font-style="normal" font-weight="normal" text-decoration="normal" x="232" y="373.25" text-anchor="middle" dominant-baseline="text-after-edge" fill-opacity="1">*10.1</text><path fill="rgb(69,90,100)" stroke="rgb(76,175,80)" paint-order="fill stroke markers" d=" M 262 158.625 L 261.9306400089954 160.3903296538765 L 261.7229876633906 162.14477546340518 L 261.37832320894773 163.87752068675786 L 260.89877161664094 165.57788237343632 L 260.28728948150393 167.23537722821453 L 259.5476467942383 168.83978624413982 L 258.68440369796707 170.38121770610886 L 257.7028823734363 171.85016817658064 L 256.6091342260007 173.23758108742913 L 255.40990257669733 174.5349025766973 L 254.11258108742913 175.7341342260007 L 252.72516817658064 176.82788237343632 L 251.25621770610886 177.80940369796707 L 249.71478624413982 178.6726467942383 L 248.11037722821453 179.41228948150396 L 246.45288237343632 180.02377161664094 L 244.75252068675786 180.50332320894773 L 243.01977546340518 180.8479876633906 L 241.2653296538765 181.05564000899537 L 239.5 181.125 L 237.7346703461235 181.05564000899537 L 235.98022453659482 180.8479876633906 L 234.24747931324214 180.50332320894773 L 232.54711762656368 180.02377161664094 L 230.88962277178547 179.41228948150396 L 229.2852137558602 178.6726467942383 L 227.74378229389114 177.80940369796707 L 226.27483182341936 176.82788237343632 L 224.88741891257087 175.7341342260007 L 223.5900974233027 174.53490257669733 L 222.3908657739993 173.23758108742913 L 221.29711762656368 171.85016817658064 L 220.31559630203293 170.38121770610886 L 219.4523532057617 168.83978624413982 L 218.71271051849604 167.23537722821453 L 218.10122838335906 165.57788237343632 L 217.62167679105227 163.87752068675786 L 217.2770123366094 162.1447754634052 L 217.06935999100463 160.3903296538765 L 217 158.625 L 217.06935999100463 156.8596703461235 L 217.2770123366094 155.10522453659482 L 217.62167679105227 153.37247931324214 L 218.10122838335906 151.67211762656368 L 218.71271051849604 150.01462277178547 L 219.4523532057617 148.4102137558602 L 220.31559630203293 146.86878229389114 L 221.29711762656368 145.39983182341936 L 222.3908657739993 144.01241891257087 L 223.59009742330267 142.7150974233027 L 224.88741891257087 141.5158657739993 L 226.27483182341936 140.42211762656368 L 227.74378229389114 139.44059630203293 L 229.2852137558602 138.5773532057617 L 230.8896227717855 137.83771051849604 L 232.5471176265637 137.22622838335903 L 234.24747931324217 136.74667679105227 L 235.98022453659485 136.4020123366094 L 237.73467034612355 136.1943599910046 L 239.50000000000009 136.125 L 241.2653296538766 136.19435999100463 L 243.0197754634053 136.4020123366094 L 244.75252068675798 136.7466767910523 L 246.45288237343644 137.22622838335909 L 248.11037722821465 137.8377105184961 L 249.71478624413993 138.5773532057618 L 251.25621770610897 139.440596302033 L 252.72516817658078 140.42211762656376 L 254.11258108742925 141.51586577399942 L 255.40990257669745 142.7150974233028 L 256.60913422600083 144.012418912571 L 257.7028823734364 145.3998318234195 L 258.6844036979672 146.86878229389131 L 259.5476467942384 148.41021375586038 L 260.28728948150405 150.0146227717857 L 260.89877161664106 151.6721176265639 L 261.3783232089478 153.37247931324237 L 261.72298766339065 155.10522453659505 L 261.9306400089954 156.85967034612375 Z" fill-opacity="1" stroke-opacity="1" stroke-miterlimit="10" stroke-width="2"/><text fill="rgb(255,255,255)" stroke="none" font-family="times new roman" font-size="15px" font-style="normal" font-weight="normal" text-decoration="normal" x="239.5" y="166.125" text-anchor="middle" dominant-baseline="text-after-edge" fill-opacity="1">*39</text><path fill="rgb(176,190,197)" stroke="none" paint-order="stroke fill markers" d=" M 113.50000000000001 263.25 L 113.5 473.25 L 188.5 473.25 L 188.5 263.25000000000006 Z" fill-opacity="0.8"/><text fill="rgb(0,0,0)" stroke="none" font-family="times new roman" font-size="10px" font-style="normal" font-weight="normal" text-decoration="normal" x="118.5" y="278.25" text-anchor="start" dominant-baseline="text-after-edge" fill-opacity="0.8">42126390G&gt;A </text><text fill="rgb(0,0,0)" stroke="none" font-family="times new roman" font-size="10px" font-style="normal" font-weight="normal" text-decoration="normal" x="118.5" y="288.25" text-anchor="start" dominant-baseline="text-after-edge" fill-opacity="0.8">42127209T&gt;C </text><text fill="rgb(0,0,0)" stroke="none" font-family="times new roman" font-size="10px" font-style="normal" font-weight="normal" text-decoration="normal" x="118.5" y="298.25" text-anchor="start" dominant-baseline="text-after-edge" fill-opacity="0.8">42128694T&gt;C </text><text fill="rgb(0,0,0)" stroke="none" font-family="times new roman" font-size="10px" font-style="normal" font-weight="normal" text-decoration="normal" x="118.5" y="308.25" text-anchor="start" dominant-baseline="text-after-edge" fill-opacity="0.8">42129754G&gt;A </text><text fill="rgb(0,0,0)" stroke="none" font-family="times new roman" font-size="10px" font-style="normal" font-weight="normal" text-decoration="normal" x="118.5" y="318.25" text-anchor="start" dominant-baseline="text-after-edge" fill-opacity="0.8">42130512C&gt;T </text><text fill="rgb(0,0,0)" stroke="none" font-family="times new roman" font-size="10px" font-style="normal" font-weight="normal" text-decoration="normal" x="118.5" y="328.25" text-anchor="start" dominant-baseline="text-after-edge" fill-opacity="0.8">42131791C&gt;T </text><text fill="rgb(0,0,0)" stroke="none" font-family="times new roman" font-size="10px" font-style="normal" font-weight="normal" text-decoration="normal" x="118.5" y="338.25" text-anchor="start" dominant-baseline="text-after-edge" fill-opacity="0.8">42132217G&gt;A </text><path fill="rgb(176,190,197)" stroke="none" paint-order="stroke fill markers" d=" M 826 263.25 L 893 263.25 L 893 263.25 A 8 8 0 0 1 901 271.25 L 901 465.25 L 901 465.25 A 8 8 0 0 1 893 473.25 L 759 473.25 L 759 473.25 A 8 8 0 0 1 751 465.25 L 751 271.25 L 751 271.25 A 8 8 0 0 1 759 263.25 L 826 263.25 Z" fill-opacity="0.8"/><text fill="rgb(0,0,0)" stroke="none" font-family="times new roman" font-size="10px" font-style="normal" font-weight="normal" text-decoration="normal" x="756" y="278.25" text-anchor="start" dominant-baseline="text-after-edge" fill-opacity="0.8">42125924A&gt;G </text><text fill="rgb(0,0,0)" stroke="none" font-family="times new roman" font-size="10px" font-style="normal" font-weight="normal" text-decoration="normal" x="756" y="288.25" text-anchor="start" dominant-baseline="text-after-edge" fill-opacity="0.8">42125980T&gt;C </text><text fill="rgb(0,0,0)" stroke="none" font-family="times new roman" font-size="10px" font-style="normal" font-weight="normal" text-decoration="normal" x="756" y="298.25" text-anchor="start" dominant-baseline="text-after-edge" fill-opacity="0.8">42126069A&gt;C </text><text fill="rgb(0,0,0)" stroke="none" font-family="times new roman" font-size="10px" font-style="normal" font-weight="normal" text-decoration="normal" x="756" y="308.25" text-anchor="start" dominant-baseline="text-after-edge" fill-opacity="0.8">42132027C&gt;T </text><text fill="rgb(0,0,0)" stroke="none" font-family="times new roman" font-size="10px" font-style="normal" font-weight="normal" text-decoration="normal" x="756" y="318.25" text-anchor="start" dominant-baseline="text-after-edge" fill-opacity="0.8">42132844C&gt;A </text><text fill="rgb(0,0,0)" stroke="none" font-family="times new roman" font-size="10px" font-style="normal" font-weight="normal" text-decoration="normal" x="756" y="328.25" text-anchor="start" dominant-baseline="text-after-edge" fill-opacity="0.8">42132851T&gt;C </text><text fill="rgb(0,0,0)" stroke="none" font-family="times new roman" font-size="10px" font-style="normal" font-weight="normal" text-decoration="normal" x="756" y="338.25" text-anchor="start" dominant-baseline="text-after-edge" fill-opacity="0.8">42132969C&gt;T </text><text fill="rgb(0,0,0)" stroke="none" font-family="times new roman" font-size="10px" font-style="normal" font-weight="normal" text-decoration="normal" x="756" y="348.25" text-anchor="start" dominant-baseline="text-after-edge" fill-opacity="0.8">42133212A&gt;G </text><text fill="rgb(0,0,0)" stroke="none" font-family="times new roman" font-size="10px" font-style="normal" font-weight="normal" text-decoration="normal" x="756" y="358.25" text-anchor="start" dominant-baseline="text-after-edge" fill-opacity="0.8">42133314C&gt;T </text><text fill="rgb(0,0,0)" stroke="none" font-family="times new roman" font-size="10px" font-style="normal" font-weight="normal" text-decoration="normal" x="756" y="368.25" text-anchor="start" dominant-baseline="text-after-edge" fill-opacity="0.8">42133400T&gt;G </text><text fill="rgb(0,0,0)" stroke="none" font-family="times new roman" font-size="10px" font-style="normal" font-weight="normal" text-decoration="normal" x="756" y="378.25" text-anchor="start" dominant-baseline="text-after-edge" fill-opacity="0.8">42133923G&gt;T </text><text fill="rgb(0,0,0)" stroke="none" font-family="times new roman" font-size="10px" font-style="normal" font-weight="normal" text-decoration="normal" x="756" y="388.25" text-anchor="start" dominant-baseline="text-after-edge" fill-opacity="0.8">42134096del </text><text fill="rgb(0,0,0)" stroke="none" font-family="times new roman" font-size="10px" font-style="normal" font-weight="normal" text-decoration="normal" x="756" y="398.25" text-anchor="start" dominant-baseline="text-after-edge" fill-opacity="0.8">42134820T&gt;G </text><text fill="rgb(0,0,0)" stroke="none" font-family="times new roman" font-size="10px" font-style="normal" font-weight="normal" text-decoration="normal" x="756" y="408.25" text-anchor="start" dominant-baseline="text-after-edge" fill-opacity="0.8">42135064_42135066dup </text><text fill="rgb(0,0,0)" stroke="none" font-family="times new roman" font-size="10px" font-style="normal" font-weight="normal" text-decoration="normal" x="756" y="418.25" text-anchor="start" dominant-baseline="text-after-edge" fill-opacity="0.8">42135201T&gt;C </text><g transform="scale(0.8249738766980146,0.8249738766980146) translate(106.36795440151991,52.37492083597215)"/></g></svg>