<svg version="1.1" xmlns="http://www.w3.org/2000/svg" xmlns:xlink="http://www.w3.org/1999/xlink" width="1017" height="608"><defs/><g transform="translate(97.50000000000006,-43.06666666666666) scale(2.81025641025641,2.81025641025641)"><path fill="none" stroke="rgb(120,144,156)" paint-order="fill stroke markers" d=" M 131.03949864891973 143.25534118638285 L 155.5610819480461 181.31869436711634" stroke-opacity="1" stroke-linejoin="round" stroke-miterlimit="10"/><path fill="rgb(120,144,156)" stroke="none" paint-order="stroke fill markers" d=" M 148.27569364555558 178.04216918303277 L 156.64423076923077 183 L 155.58937314859946 173.3304718108795 Z" fill-opacity="1"/><path fill="none" stroke="rgb(55,71,79)" paint-order="fill stroke markers" d=" M 79.98076923076923 56.5 L 106.64267558334565 103.102323708705" stroke-opacity="1" stroke-linejoin="round" stroke-miterlimit="10" stroke-width="2"/><path fill="none" stroke="rgb(55,71,79)" paint-order="fill stroke markers" d=" M 153.75061694859124 61.55774516548755 L 129.98232441665436 103.102323708705" stroke-opacity="1" stroke-linejoin="round" stroke-miterlimit="10" stroke-width="2"/><path fill="none" stroke="rgb(120,144,156)" paint-order="fill stroke markers" d=" M 211.72596153846155 134.5 L 181.5639180519539 181.3186943671164" stroke-opacity="1" stroke-linejoin="round" stroke-miterlimit="10"/><path fill="rgb(120,144,156)" stroke="none" paint-order="stroke fill markers" d=" M 181.53562685140056 173.33047181087952 L 180.48076923076923 183.00000000000003 L 188.84930635444442 178.0421691830328 Z" fill-opacity="1"/><path fill="rgb(69,90,100)" stroke="rgb(117,117,117)" paint-order="fill stroke markers" d=" M 140.8125 123.5 L 140.74314000899537 125.2653296538765 L 140.5354876633906 127.0197754634052 L 140.19082320894773 128.75252068675786 L 139.71127161664094 130.45288237343632 L 139.09978948150396 132.11037722821453 L 138.3601467942383 133.71478624413982 L 137.49690369796707 135.25621770610886 L 136.51538237343632 136.72516817658064 L 135.4216342260007 138.11258108742913 L 134.22240257669733 139.4099025766973 L 132.92508108742913 140.6091342260007 L 131.53766817658064 141.70288237343632 L 130.06871770610886 142.68440369796707 L 128.52728624413982 143.5476467942383 L 126.92287722821452 144.28728948150396 L 125.26538237343632 144.89877161664094 L 123.56502068675788 145.37832320894773 L 121.8322754634052 145.7229876633906 L 120.0778296538765 145.93064000899537 L 118.3125 146 L 116.5471703461235 145.93064000899537 L 114.7927245365948 145.7229876633906 L 113.05997931324212 145.37832320894773 L 111.35961762656369 144.89877161664094 L 109.70212277178548 144.28728948150396 L 108.0977137558602 143.5476467942383 L 106.55628229389116 142.68440369796707 L 105.08733182341936 141.70288237343632 L 103.69991891257087 140.6091342260007 L 102.40259742330268 139.40990257669733 L 101.20336577399931 138.11258108742913 L 100.10961762656369 136.72516817658064 L 99.12809630203293 135.25621770610886 L 98.26485320576172 133.71478624413982 L 97.52521051849605 132.11037722821453 L 96.91372838335904 130.45288237343632 L 96.43417679105228 128.75252068675786 L 96.0895123366094 127.0197754634052 L 95.88185999100462 125.26532965387652 L 95.8125 123.5 L 95.88185999100462 121.7346703461235 L 96.0895123366094 119.9802245365948 L 96.43417679105227 118.24747931324214 L 96.91372838335904 116.54711762656369 L 97.52521051849604 114.88962277178548 L 98.26485320576172 113.2852137558602 L 99.12809630203293 111.74378229389116 L 100.10961762656368 110.27483182341936 L 101.20336577399931 108.88741891257087 L 102.40259742330268 107.59009742330268 L 103.69991891257087 106.39086577399931 L 105.08733182341935 105.29711762656369 L 106.55628229389116 104.31559630203293 L 108.09771375586021 103.45235320576171 L 109.7021227717855 102.71271051849604 L 111.35961762656372 102.10122838335903 L 113.05997931324217 101.62167679105227 L 114.79272453659486 101.27701233660939 L 116.54717034612355 101.06935999100462 L 118.31250000000007 101 L 120.07782965387659 101.06935999100463 L 121.8322754634053 101.27701233660942 L 123.56502068675798 101.6216767910523 L 125.26538237343642 102.10122838335909 L 126.92287722821463 102.7127105184961 L 128.52728624413993 103.45235320576178 L 130.06871770610897 104.315596302033 L 131.53766817658078 105.29711762656378 L 132.92508108742925 106.39086577399941 L 134.22240257669745 107.59009742330281 L 135.4216342260008 108.88741891257101 L 136.51538237343644 110.2748318234195 L 137.49690369796718 111.74378229389133 L 138.36014679423837 113.28521375586038 L 139.09978948150405 114.88962277178568 L 139.71127161664103 116.5471176265639 L 140.1908232089478 118.24747931324237 L 140.53548766339065 119.98022453659506 L 140.7431400089954 121.73467034612375 Z" fill-opacity="1" stroke-opacity="1" stroke-miterlimit="10" stroke-width="2"/><text fill="rgb(255,255,255)" stroke="none" font-family="times new roman" font-size="15px" font-style="normal" font-weight="normal" text-decoration="normal" x="118.3125" y="131" text-anchor="middle" dominant-baseline="text-after-edge" fill-opacity="1">*112</text><path fill="rgb(3,169,244)" stroke="none" paint-order="stroke fill markers" d=" M 118.3125 91 L 142.8125 91 L 142.8125 91 A 8 8 0 0 1 150.8125 99 L 150.8125 148 L 150.8125 148 A 8 8 0 0 1 142.8125 156 L 93.8125 156 L 93.8125 156 A 8 8 0 0 1 85.8125 148 L 85.8125 99 L 85.8125 99 A 8 8 0 0 1 93.8125 91 L 118.3125 91 Z" fill-opacity="0.15"/><path fill="rgb(69,90,100)" stroke="rgb(69,90,100)" paint-order="fill stroke markers" d=" M 149.8125 184 L 131.0625 201.5 L 149.81249999999997 219 L 187.31249999999997 219 L 206.0625 201.5 L 187.31250000000006 184.00000000000003 Z" fill-opacity="1" stroke-opacity="1" stroke-miterlimit="10" stroke-width="2"/><text fill="rgb(255,255,255)" stroke="none" font-family="times new roman" font-size="10px" font-style="normal" font-weight="normal" text-decoration="normal" x="168.5625" y="206.5" text-anchor="middle" dominant-baseline="text-after-edge" fill-opacity="1">HG03882-all</text><path fill="rgb(69,90,100)" stroke="rgb(117,117,117)" paint-order="fill stroke markers" d=" M 180.4375 45.5 L 180.38355334032974 46.87303417523729 L 180.2220459604149 48.23760313820404 L 179.95397360695935 49.58529386747834 L 179.58098903516517 50.90779740156158 L 179.1053918189475 52.19696006638907 L 178.53011417329643 53.44483374544207 L 177.85870287619662 54.643724882529106 L 177.0952974015616 55.78624191511828 L 176.24460439800055 56.86534084577821 L 175.31186867076457 57.87436867076458 L 174.3028408457782 58.80710439800054 L 173.22374191511827 59.65779740156158 L 172.0812248825291 60.42120287619662 L 170.88233374544208 61.09261417329644 L 169.63446006638907 61.66789181894752 L 168.3452974015616 62.14348903516519 L 167.02279386747836 62.51647360695934 L 165.67510313820404 62.78454596041491 L 164.31053417523728 62.94605334032974 L 162.9375 63 L 161.56446582476272 62.94605334032974 L 160.19989686179596 62.78454596041491 L 158.85220613252164 62.51647360695934 L 157.52970259843843 62.14348903516519 L 156.24053993361093 61.66789181894752 L 154.99266625455795 61.09261417329644 L 153.7937751174709 60.42120287619662 L 152.65125808488173 59.65779740156158 L 151.5721591542218 58.80710439800055 L 150.56313132923543 57.87436867076458 L 149.63039560199945 56.86534084577821 L 148.77970259843843 55.78624191511828 L 148.01629712380338 54.643724882529106 L 147.34488582670357 53.44483374544207 L 146.7696081810525 52.196960066389074 L 146.29401096483483 50.90779740156158 L 145.92102639304065 49.58529386747835 L 145.6529540395851 48.237603138204044 L 145.49144665967026 46.87303417523729 L 145.4375 45.5 L 145.49144665967026 44.12696582476271 L 145.6529540395851 42.76239686179596 L 145.92102639304065 41.41470613252166 L 146.2940109648348 40.09220259843842 L 146.7696081810525 38.80303993361093 L 147.34488582670357 37.55516625455793 L 148.01629712380338 36.3562751174709 L 148.7797025984384 35.21375808488172 L 149.63039560199945 34.13465915422179 L 150.5631313292354 33.12563132923542 L 151.57215915422177 32.19289560199947 L 152.6512580848817 31.34220259843842 L 153.7937751174709 30.578797123803383 L 154.99266625455795 29.907385826703557 L 156.24053993361096 29.332108181052476 L 157.52970259843843 28.856510964834804 L 158.8522061325217 28.483526393040652 L 160.199896861796 28.215454039585083 L 161.56446582476278 28.053946659670256 L 162.93750000000006 28 L 164.31053417523736 28.053946659670267 L 165.67510313820412 28.2154540395851 L 167.0227938674784 28.483526393040677 L 168.34529740156165 28.85651096483484 L 169.63446006638915 29.33210818105252 L 170.88233374544217 29.90738582670361 L 172.0812248825292 30.578797123803447 L 173.22374191511838 31.34220259843849 L 174.30284084577832 32.19289560199954 L 175.31186867076468 33.12563132923552 L 176.24460439800063 34.13465915422189 L 177.09529740156168 35.213758084881846 L 177.8587028761967 36.35627511747103 L 178.5301141732965 37.55516625455808 L 179.1053918189476 38.80303993361109 L 179.58098903516523 40.09220259843859 L 179.95397360695938 41.41470613252184 L 180.22204596041493 42.762396861796155 L 180.38355334032974 44.12696582476292 Z" fill-opacity="1" stroke-opacity="1" stroke-miterlimit="10" stroke-width="2"/><text fill="rgb(255,255,255)" stroke="none" font-family="times new roman" font-size="10px" font-style="normal" font-weight="normal" text-decoration="normal" x="162.9375" y="50.5" text-anchor="middle" dominant-baseline="text-after-edge" fill-opacity="1">*112.1</text><path fill="rgb(69,90,100)" stroke="rgb(76,175,80)" paint-order="fill stroke markers" d=" M 218.8125 113.5 L 261.3125 113.5 L 261.3125 113.5 A 5 5 0 0 1 266.3125 118.5 L 266.3125 128.5 L 266.3125 128.5 A 5 5 0 0 1 261.3125 133.5 L 176.3125 133.5 L 176.3125 133.5 A 5 5 0 0 1 171.3125 128.5 L 171.3125 118.5 L 171.3125 118.5 A 5 5 0 0 1 176.3125 113.5 L 218.8125 113.5 Z" fill-opacity="1" stroke-opacity="1" stroke-miterlimit="10" stroke-width="2"/><text fill="rgb(255,255,255)" stroke="none" font-family="times new roman" font-size="10px" font-style="normal" font-weight="normal" text-decoration="normal" x="218.8125" y="128.5" text-anchor="middle" dominant-baseline="text-after-edge" fill-opacity="1">42132049del</text><path fill="rgb(69,90,100)" stroke="rgb(158,158,158)" paint-order="fill stroke markers" d=" M 26.187500000000014 35.5 L 26.1875 55.5 L 121.18749999999997 55.5 L 121.1875 35.5 Z" fill-opacity="1" stroke-opacity="1" stroke-miterlimit="10" stroke-width="2"/><text fill="rgb(255,255,255)" stroke="none" font-family="times new roman" font-size="10px" font-style="normal" font-weight="normal" text-decoration="normal" x="73.6875" y="50.5" text-anchor="middle" dominant-baseline="text-after-edge" fill-opacity="1">42126605G&gt;A</text><g transform="scale(0.3558394160583942,0.3558394160583942) translate(-97.50000000000006,43.06666666666666)"/></g></svg>