<svg version="1.1" xmlns="http://www.w3.org/2000/svg" xmlns:xlink="http://www.w3.org/1999/xlink" width="1017" height="608"><defs/><g transform="translate(-105.19984825493168,-37.5575113808801) scale(1.1617602427921092,1.1617602427921092)"><path fill="none" stroke="rgb(120,144,156)" paint-order="fill stroke markers" d=" M 533.4151662049861 243.875 L 576.9287911373248 349.30062819177346" stroke-opacity="1" stroke-linejoin="round" stroke-miterlimit="10"/><path fill="rgb(120,144,156)" stroke="none" paint-order="stroke fill markers" d=" M 570.3516269058267 344.7670412375061 L 577.691835904415 351.14934739257603 L 578.393555429318 341.44779650066346 Z" fill-opacity="1"/><path fill="none" stroke="rgb(120,144,156)" paint-order="fill stroke markers" d=" M 212.375 256.375 L 212.375 342.75" stroke-opacity="1" stroke-linejoin="round" stroke-miterlimit="10"/><path fill="rgb(120,144,156)" stroke="none" paint-order="stroke fill markers" d=" M 208.025 336.05 L 212.375 344.75 L 216.725 336.05 Z" fill-opacity="1"/><path fill="none" stroke="rgb(120,144,156)" paint-order="fill stroke markers" d=" M 864.125 243.875 L 864.125 261.25" stroke-opacity="1" stroke-linejoin="round" stroke-miterlimit="10"/><path fill="rgb(120,144,156)" stroke="none" paint-order="stroke fill markers" d=" M 859.775 254.55 L 864.125 263.25 L 868.475 254.55 Z" fill-opacity="1"/><path fill="none" stroke="rgb(55,71,79)" paint-order="fill stroke markers" d=" M 224.14450693813149 103.75665801990523 L 246.30630199750863 138.76856954228253" stroke-opacity="1" stroke-linejoin="round" stroke-miterlimit="10" stroke-width="2"/><path fill="none" stroke="rgb(120,144,156)" paint-order="fill stroke markers" d=" M 172.76388888888889 169.625 L 198.84041013714904 211.263316186738" stroke-opacity="1" stroke-linejoin="round" stroke-miterlimit="10"/><path fill="rgb(120,144,156)" stroke="none" paint-order="stroke fill markers" d=" M 191.59756399327486 207.89379400456332 L 199.90194659698048 212.95835021130756 L 198.9709620001525 203.27611040429653 Z" fill-opacity="1"/><path fill="none" stroke="rgb(55,71,79)" paint-order="fill stroke markers" d=" M 296.5372340425532 99.125 L 271.4436980024914 138.76856954228253" stroke-opacity="1" stroke-linejoin="round" stroke-miterlimit="10" stroke-width="2"/><path fill="none" stroke="rgb(120,144,156)" paint-order="fill stroke markers" d=" M 233.99521314121858 377.45958108321327 L 492.8588912725009 487.72796824835905" stroke-opacity="1" stroke-linejoin="round" stroke-miterlimit="10"/><path fill="rgb(120,144,156)" stroke="none" paint-order="stroke fill markers" d=" M 484.99007826151615 489.10429735077486 L 494.6989094121791 488.5117623831006 L 488.3995827476419 481.10021844317475 Z" fill-opacity="1"/><path fill="none" stroke="rgb(120,144,156)" paint-order="fill stroke markers" d=" M 358.625 392.8988764044944 L 496.8408114905874 483.7485951932512" stroke-opacity="1" stroke-linejoin="round" stroke-miterlimit="10"/><path fill="rgb(120,144,156)" stroke="none" paint-order="stroke fill markers" d=" M 488.8526659713763 483.7035267574224 L 498.5120993192372 484.84713831657723 L 493.6313285578445 476.4334247027956 Z" fill-opacity="1"/><path fill="none" stroke="rgb(120,144,156)" paint-order="fill stroke markers" d=" M 421.5983296776711 382.3528144861159 L 504.3740332742396 479.8503714069064" stroke-opacity="1" stroke-linejoin="round" stroke-miterlimit="10"/><path fill="rgb(120,144,156)" stroke="none" paint-order="stroke fill markers" d=" M 496.7216791199153 477.5582161118195 L 505.6684472934473 481.375 L 503.3538134998725 471.92751512826607 Z" fill-opacity="1"/><path fill="none" stroke="rgb(120,144,156)" paint-order="fill stroke markers" d=" M 576.7244110527014 384.91853089054337 L 531.1500386449532 479.5729966604818" stroke-opacity="1" stroke-linejoin="round" stroke-miterlimit="10"/><path fill="rgb(120,144,156)" stroke="none" paint-order="stroke fill markers" d=" M 530.1372460272795 471.6491875314337 L 530.2824074074074 481.375 L 537.9759605541838 475.42338341475795 Z" fill-opacity="1"/><path fill="none" stroke="rgb(120,144,156)" paint-order="fill stroke markers" d=" M 231.75072680772737 246.17278969123495 L 392.722770231557 356.6498004821142" stroke-opacity="1" stroke-linejoin="round" stroke-miterlimit="10"/><path fill="rgb(120,144,156)" stroke="none" paint-order="stroke fill markers" d=" M 384.7371210924657 356.44508646859674 L 394.37176825774657 357.78152726434695 L 389.6601325951782 349.27194505467213 Z" fill-opacity="1"/><path fill="none" stroke="rgb(120,144,156)" paint-order="fill stroke markers" d=" M 246.40194659698048 178.54164978869244 L 225.90958986285096 211.263316186738" stroke-opacity="1" stroke-linejoin="round" stroke-miterlimit="10"/><path fill="rgb(120,144,156)" stroke="none" paint-order="stroke fill markers" d=" M 225.7790379998475 203.27611040429653 L 224.84805340301952 212.95835021130756 L 233.15243600672514 207.89379400456332 Z" fill-opacity="1"/><path fill="none" stroke="rgb(120,144,156)" paint-order="fill stroke markers" d=" M 736.3012735472004 377.4088928326829 L 547.2823714189894 485.1128451817122" stroke-opacity="1" stroke-linejoin="round" stroke-miterlimit="10"/><path fill="rgb(120,144,156)" stroke="none" paint-order="stroke fill markers" d=" M 550.9500894412374 478.016342908812 L 545.54467126193 486.10299575821847 L 555.2572444490396 485.5753385920205 Z" fill-opacity="1"/><path fill="none" stroke="rgb(120,144,156)" paint-order="fill stroke markers" d=" M 789.125 397.0519693654267 L 550.7500193164351 488.5942212471896" stroke-opacity="1" stroke-linejoin="round" stroke-miterlimit="10"/><path fill="rgb(120,144,156)" stroke="none" paint-order="stroke fill markers" d=" M 555.445193919026 482.1314172542477 L 548.882959815345 489.3112211212406 L 558.5641433711479 490.2531260839896 Z" fill-opacity="1"/><path fill="none" stroke="rgb(120,144,156)" paint-order="fill stroke markers" d=" M 636.0848337950139 243.875 L 592.5712088626752 349.30062819177346" stroke-opacity="1" stroke-linejoin="round" stroke-miterlimit="10"/><path fill="rgb(120,144,156)" stroke="none" paint-order="stroke fill markers" d=" M 591.106444570682 341.44779650066346 L 591.808164095585 351.14934739257603 L 599.1483730941733 344.7670412375061 Z" fill-opacity="1"/><path fill="none" stroke="rgb(120,144,156)" paint-order="fill stroke markers" d=" M 297.8182132963989 243.875 L 226.81407119624723 347.2318358796563" stroke-opacity="1" stroke-linejoin="round" stroke-miterlimit="10"/><path fill="rgb(120,144,156)" stroke="none" paint-order="stroke fill markers" d=" M 227.02241484688884 339.2462806125983 L 225.68159502399254 348.8803193400754 L 234.19331789971199 344.1725519619062 Z" fill-opacity="1"/><path fill="none" stroke="rgb(120,144,156)" paint-order="fill stroke markers" d=" M 416.51558171745154 243.875 L 410.7589950947701 347.78138853939925" stroke-opacity="1" stroke-linejoin="round" stroke-miterlimit="10"/><path fill="rgb(120,144,156)" stroke="none" paint-order="stroke fill markers" d=" M 406.78627837678704 340.85101900533704 L 410.64836142698766 349.7783262428725 L 415.47295738689564 341.3322754601907 Z" fill-opacity="1"/><path fill="none" stroke="rgb(55,71,79)" paint-order="fill stroke markers" d=" M 752.375 243.875 L 752.375 349.75" stroke-opacity="1" stroke-linejoin="round" stroke-miterlimit="10" stroke-width="2"/><path fill="rgb(69,90,100)" stroke="rgb(76,175,80)" paint-order="fill stroke markers" d=" M 602.25 368.25 L 602.1960533403297 369.6230341752373 L 602.0345459604149 370.98760313820407 L 601.7664736069594 372.33529386747836 L 601.3934890351652 373.6577974015616 L 600.9178918189475 374.94696006638907 L 600.3426141732964 376.19483374544205 L 599.6712028761966 377.3937248825291 L 598.9077974015615 378.5362419151183 L 598.0571043980005 379.61534084577823 L 597.1243686707646 380.62436867076457 L 596.1153408457782 381.55710439800055 L 595.0362419151182 382.4077974015616 L 593.8937248825291 383.1712028761966 L 592.6948337454421 383.84261417329645 L 591.4469600663891 384.4178918189475 L 590.1577974015615 384.8934890351652 L 588.8352938674783 385.2664736069593 L 587.487603138204 385.5345459604149 L 586.1230341752373 385.69605334032974 L 584.75 385.75 L 583.3769658247627 385.69605334032974 L 582.012396861796 385.5345459604149 L 580.6647061325217 385.2664736069593 L 579.3422025984385 384.8934890351652 L 578.0530399336109 384.4178918189475 L 576.8051662545579 383.84261417329645 L 575.6062751174709 383.1712028761966 L 574.4637580848818 382.4077974015616 L 573.3846591542218 381.55710439800055 L 572.3756313292354 380.62436867076457 L 571.4428956019995 379.61534084577823 L 570.5922025984385 378.5362419151183 L 569.8287971238034 377.3937248825291 L 569.1573858267036 376.19483374544205 L 568.5821081810525 374.94696006638907 L 568.1065109648348 373.6577974015616 L 567.7335263930406 372.33529386747836 L 567.4654540395851 370.98760313820407 L 567.3039466596703 369.6230341752373 L 567.25 368.25 L 567.3039466596703 366.8769658247627 L 567.4654540395851 365.51239686179593 L 567.7335263930406 364.16470613252164 L 568.1065109648348 362.8422025984384 L 568.5821081810525 361.55303993361093 L 569.1573858267036 360.30516625455795 L 569.8287971238034 359.1062751174709 L 570.5922025984385 357.9637580848817 L 571.4428956019995 356.88465915422177 L 572.3756313292354 355.87563132923543 L 573.3846591542218 354.94289560199945 L 574.4637580848818 354.0922025984384 L 575.6062751174709 353.3287971238034 L 576.8051662545579 352.65738582670355 L 578.053039933611 352.0821081810525 L 579.3422025984385 351.6065109648348 L 580.6647061325217 351.2335263930407 L 582.012396861796 350.9654540395851 L 583.3769658247628 350.80394665967026 L 584.7500000000001 350.75 L 586.1230341752373 350.80394665967026 L 587.4876031382041 350.9654540395851 L 588.8352938674784 351.2335263930407 L 590.1577974015617 351.60651096483485 L 591.4469600663891 352.0821081810525 L 592.6948337454421 352.6573858267036 L 593.8937248825292 353.32879712380344 L 595.0362419151184 354.0922025984385 L 596.1153408457783 354.94289560199957 L 597.1243686707646 355.8756313292355 L 598.0571043980007 356.8846591542219 L 598.9077974015617 357.9637580848818 L 599.6712028761967 359.10627511747106 L 600.3426141732965 360.30516625455806 L 600.9178918189476 361.5530399336111 L 601.3934890351652 362.8422025984386 L 601.7664736069594 364.1647061325218 L 602.0345459604149 365.51239686179616 L 602.1960533403297 366.8769658247629 Z" fill-opacity="1" stroke-opacity="1" stroke-miterlimit="10" stroke-width="2"/><text fill="rgb(255,255,255)" stroke="none" font-family="times new roman" font-size="10px" font-style="normal" font-weight="normal" text-decoration="normal" x="584.75" y="373.25" text-anchor="middle" dominant-baseline="text-after-edge" fill-opacity="1">*1.58</text><path fill="rgb(69,90,100)" stroke="rgb(158,158,158)" paint-order="fill stroke markers" d=" M 118.37500000000001 148.625 L 118.375 168.625 L 213.37499999999997 168.625 L 213.375 148.625 Z" fill-opacity="1" stroke-opacity="1" stroke-miterlimit="10" stroke-width="2"/><text fill="rgb(255,255,255)" stroke="none" font-family="times new roman" font-size="10px" font-style="normal" font-weight="normal" text-decoration="normal" x="165.875" y="163.625" text-anchor="middle" dominant-baseline="text-after-edge" fill-opacity="1">42130692G&gt;A</text><path fill="rgb(69,90,100)" stroke="rgb(244,67,54)" paint-order="fill stroke markers" d=" M 234.875 368.25 L 234.80564000899537 370.0153296538765 L 234.5979876633906 371.7697754634052 L 234.25332320894773 373.50252068675786 L 233.77377161664094 375.2028823734363 L 233.16228948150396 376.86037722821453 L 232.4226467942383 378.4647862441398 L 231.55940369796707 380.0062177061088 L 230.57788237343632 381.47516817658067 L 229.4841342260007 382.86258108742913 L 228.28490257669733 384.15990257669733 L 226.98758108742913 385.3591342260007 L 225.60016817658064 386.4528823734363 L 224.13121770610886 387.43440369796707 L 222.58978624413982 388.2976467942383 L 220.98537722821453 389.03728948150393 L 219.32788237343632 389.64877161664094 L 217.62752068675786 390.12832320894773 L 215.89477546340518 390.4729876633906 L 214.1403296538765 390.6806400089954 L 212.375 390.75 L 210.6096703461235 390.6806400089954 L 208.85522453659482 390.4729876633906 L 207.12247931324214 390.12832320894773 L 205.42211762656368 389.64877161664094 L 203.76462277178547 389.03728948150393 L 202.1602137558602 388.2976467942383 L 200.61878229389114 387.43440369796707 L 199.14983182341936 386.4528823734363 L 197.76241891257087 385.3591342260007 L 196.4650974233027 384.15990257669733 L 195.2658657739993 382.86258108742913 L 194.17211762656368 381.47516817658067 L 193.19059630203293 380.0062177061088 L 192.3273532057617 378.4647862441398 L 191.58771051849604 376.86037722821453 L 190.97622838335906 375.2028823734363 L 190.49667679105227 373.50252068675786 L 190.1520123366094 371.7697754634052 L 189.94435999100463 370.0153296538765 L 189.875 368.25 L 189.94435999100463 366.4846703461235 L 190.1520123366094 364.7302245365948 L 190.49667679105227 362.99747931324214 L 190.97622838335906 361.2971176265637 L 191.58771051849604 359.63962277178547 L 192.3273532057617 358.0352137558602 L 193.19059630203293 356.4937822938912 L 194.17211762656368 355.02483182341933 L 195.2658657739993 353.63741891257087 L 196.46509742330267 352.34009742330267 L 197.76241891257087 351.14086577399934 L 199.14983182341936 350.0471176265637 L 200.61878229389114 349.06559630203293 L 202.1602137558602 348.2023532057617 L 203.7646227717855 347.462710518496 L 205.4221176265637 346.85122838335906 L 207.12247931324217 346.37167679105227 L 208.85522453659485 346.0270123366094 L 210.60967034612355 345.8193599910046 L 212.37500000000009 345.75 L 214.1403296538766 345.8193599910046 L 215.8947754634053 346.0270123366094 L 217.62752068675798 346.3716767910523 L 219.32788237343644 346.85122838335906 L 220.98537722821465 347.4627105184961 L 222.58978624413993 348.20235320576177 L 224.13121770610897 349.065596302033 L 225.60016817658078 350.04711762656376 L 226.98758108742925 351.1408657739994 L 228.28490257669745 352.3400974233028 L 229.4841342260008 353.637418912571 L 230.57788237343644 355.0248318234195 L 231.55940369796718 356.49378229389134 L 232.42264679423837 358.0352137558604 L 233.16228948150405 359.6396227717857 L 233.77377161664103 361.29711762656393 L 234.2533232089478 362.99747931324237 L 234.59798766339065 364.7302245365951 L 234.8056400089954 366.4846703461238 Z" fill-opacity="1" stroke-opacity="1" stroke-miterlimit="10" stroke-width="2"/><text fill="rgb(255,255,255)" stroke="none" font-family="times new roman" font-size="15px" font-style="normal" font-weight="normal" text-decoration="normal" x="212.375" y="375.75" text-anchor="middle" dominant-baseline="text-after-edge" fill-opacity="1">*99</text><path fill="rgb(3,169,244)" stroke="none" paint-order="stroke fill markers" d=" M 212.375 335.75 L 236.875 335.75 L 236.875 335.75 A 8 8 0 0 1 244.875 343.75 L 244.875 392.75 L 244.875 392.75 A 8 8 0 0 1 236.875 400.75 L 187.875 400.75 L 187.875 400.75 A 8 8 0 0 1 179.875 392.75 L 179.875 343.75 L 179.875 343.75 A 8 8 0 0 1 187.875 335.75 L 212.375 335.75 Z" fill-opacity="0.15"/><path fill="rgb(69,90,100)" stroke="rgb(158,158,158)" paint-order="fill stroke markers" d=" M 256 78.125 L 256 98.125 L 351 98.125 L 351 78.125 Z" fill-opacity="1" stroke-opacity="1" stroke-miterlimit="10" stroke-width="2"/><text fill="rgb(255,255,255)" stroke="none" font-family="times new roman" font-size="10px" font-style="normal" font-weight="normal" text-decoration="normal" x="303.5" y="93.125" text-anchor="middle" dominant-baseline="text-after-edge" fill-opacity="1">42126611C&gt;G</text><path fill="rgb(69,90,100)" stroke="rgb(76,175,80)" paint-order="fill stroke markers" d=" M 481.375 222.875 L 481.375 242.875 L 576.375 242.875 L 576.375 222.875 Z" fill-opacity="1" stroke-opacity="1" stroke-miterlimit="10" stroke-width="2"/><text fill="rgb(255,255,255)" stroke="none" font-family="times new roman" font-size="10px" font-style="normal" font-weight="normal" text-decoration="normal" x="528.875" y="237.875" text-anchor="middle" dominant-baseline="text-after-edge" fill-opacity="1">42129950A&gt;C</text><path fill="rgb(69,90,100)" stroke="rgb(76,175,80)" paint-order="fill stroke markers" d=" M 769.875 368.25 L 769.8210533403297 369.6230341752373 L 769.6595459604149 370.98760313820407 L 769.3914736069594 372.33529386747836 L 769.0184890351652 373.6577974015616 L 768.5428918189475 374.94696006638907 L 767.9676141732964 376.19483374544205 L 767.2962028761966 377.3937248825291 L 766.5327974015615 378.5362419151183 L 765.6821043980005 379.61534084577823 L 764.7493686707646 380.62436867076457 L 763.7403408457782 381.55710439800055 L 762.6612419151182 382.4077974015616 L 761.5187248825291 383.1712028761966 L 760.3198337454421 383.84261417329645 L 759.0719600663891 384.4178918189475 L 757.7827974015615 384.8934890351652 L 756.4602938674783 385.2664736069593 L 755.112603138204 385.5345459604149 L 753.7480341752373 385.69605334032974 L 752.375 385.75 L 751.0019658247627 385.69605334032974 L 749.637396861796 385.5345459604149 L 748.2897061325217 385.2664736069593 L 746.9672025984385 384.8934890351652 L 745.6780399336109 384.4178918189475 L 744.4301662545579 383.84261417329645 L 743.2312751174709 383.1712028761966 L 742.0887580848818 382.4077974015616 L 741.0096591542218 381.55710439800055 L 740.0006313292354 380.62436867076457 L 739.0678956019995 379.61534084577823 L 738.2172025984385 378.5362419151183 L 737.4537971238034 377.3937248825291 L 736.7823858267036 376.19483374544205 L 736.2071081810525 374.94696006638907 L 735.7315109648348 373.6577974015616 L 735.3585263930406 372.33529386747836 L 735.0904540395851 370.98760313820407 L 734.9289466596703 369.6230341752373 L 734.875 368.25 L 734.9289466596703 366.8769658247627 L 735.0904540395851 365.51239686179593 L 735.3585263930406 364.16470613252164 L 735.7315109648348 362.8422025984384 L 736.2071081810525 361.55303993361093 L 736.7823858267036 360.30516625455795 L 737.4537971238034 359.1062751174709 L 738.2172025984385 357.9637580848817 L 739.0678956019995 356.88465915422177 L 740.0006313292354 355.87563132923543 L 741.0096591542218 354.94289560199945 L 742.0887580848818 354.0922025984384 L 743.2312751174709 353.3287971238034 L 744.4301662545579 352.65738582670355 L 745.678039933611 352.0821081810525 L 746.9672025984385 351.6065109648348 L 748.2897061325217 351.2335263930407 L 749.637396861796 350.9654540395851 L 751.0019658247628 350.80394665967026 L 752.3750000000001 350.75 L 753.7480341752373 350.80394665967026 L 755.1126031382041 350.9654540395851 L 756.4602938674784 351.2335263930407 L 757.7827974015617 351.60651096483485 L 759.0719600663891 352.0821081810525 L 760.3198337454421 352.6573858267036 L 761.5187248825292 353.32879712380344 L 762.6612419151184 354.0922025984385 L 763.7403408457783 354.94289560199957 L 764.7493686707646 355.8756313292355 L 765.6821043980007 356.8846591542219 L 766.5327974015617 357.9637580848818 L 767.2962028761967 359.10627511747106 L 767.9676141732965 360.30516625455806 L 768.5428918189476 361.5530399336111 L 769.0184890351652 362.8422025984386 L 769.3914736069594 364.1647061325218 L 769.6595459604149 365.51239686179616 L 769.8210533403297 366.8769658247629 Z" fill-opacity="1" stroke-opacity="1" stroke-miterlimit="10" stroke-width="2"/><text fill="rgb(255,255,255)" stroke="none" font-family="times new roman" font-size="10px" font-style="normal" font-weight="normal" text-decoration="normal" x="752.375" y="373.25" text-anchor="middle" dominant-baseline="text-after-edge" fill-opacity="1">*1.41</text><path fill="rgb(69,90,100)" stroke="rgb(69,90,100)" paint-order="fill stroke markers" d=" M 502.625 482.375 L 483.875 499.875 L 502.625 517.375 L 540.125 517.375 L 558.875 499.875 L 540.125 482.375 Z" fill-opacity="1" stroke-opacity="1" stroke-miterlimit="10" stroke-width="2"/><text fill="rgb(255,255,255)" stroke="none" font-family="times new roman" font-size="10px" font-style="normal" font-weight="normal" text-decoration="normal" x="521.375" y="504.875" text-anchor="middle" dominant-baseline="text-after-edge" fill-opacity="1">HG03703-all</text><path fill="rgb(69,90,100)" stroke="rgb(76,175,80)" paint-order="fill stroke markers" d=" M 704.875 222.875 L 704.875 242.875 L 799.875 242.875 L 799.875 222.875 Z" fill-opacity="1" stroke-opacity="1" stroke-miterlimit="10" stroke-width="2"/><text fill="rgb(255,255,255)" stroke="none" font-family="times new roman" font-size="10px" font-style="normal" font-weight="normal" text-decoration="normal" x="752.375" y="237.875" text-anchor="middle" dominant-baseline="text-after-edge" fill-opacity="1">42127407T&gt;G</text><path fill="rgb(69,90,100)" stroke="rgb(76,175,80)" paint-order="fill stroke markers" d=" M 281.375 158.625 L 281.3056400089954 160.3903296538765 L 281.0979876633906 162.14477546340518 L 280.75332320894773 163.87752068675786 L 280.27377161664094 165.57788237343632 L 279.66228948150393 167.23537722821453 L 278.9226467942383 168.83978624413982 L 278.05940369796707 170.38121770610886 L 277.0778823734363 171.85016817658064 L 275.9841342260007 173.23758108742913 L 274.78490257669733 174.5349025766973 L 273.48758108742913 175.7341342260007 L 272.10016817658067 176.82788237343632 L 270.6312177061088 177.80940369796707 L 269.0897862441398 178.6726467942383 L 267.48537722821453 179.41228948150396 L 265.8278823734363 180.02377161664094 L 264.12752068675786 180.50332320894773 L 262.3947754634052 180.8479876633906 L 260.6403296538765 181.05564000899537 L 258.875 181.125 L 257.1096703461235 181.05564000899537 L 255.35522453659482 180.8479876633906 L 253.62247931324214 180.50332320894773 L 251.92211762656368 180.02377161664094 L 250.26462277178547 179.41228948150396 L 248.6602137558602 178.6726467942383 L 247.11878229389114 177.80940369796707 L 245.64983182341936 176.82788237343632 L 244.26241891257087 175.7341342260007 L 242.9650974233027 174.53490257669733 L 241.7658657739993 173.23758108742913 L 240.67211762656368 171.85016817658064 L 239.69059630203293 170.38121770610886 L 238.8273532057617 168.83978624413982 L 238.08771051849604 167.23537722821453 L 237.47622838335906 165.57788237343632 L 236.99667679105227 163.87752068675786 L 236.6520123366094 162.1447754634052 L 236.44435999100463 160.3903296538765 L 236.375 158.625 L 236.44435999100463 156.8596703461235 L 236.6520123366094 155.10522453659482 L 236.99667679105227 153.37247931324214 L 237.47622838335906 151.67211762656368 L 238.08771051849604 150.01462277178547 L 238.8273532057617 148.4102137558602 L 239.69059630203293 146.86878229389114 L 240.67211762656368 145.39983182341936 L 241.7658657739993 144.01241891257087 L 242.96509742330267 142.7150974233027 L 244.26241891257087 141.5158657739993 L 245.64983182341936 140.42211762656368 L 247.11878229389114 139.44059630203293 L 248.6602137558602 138.5773532057617 L 250.2646227717855 137.83771051849604 L 251.9221176265637 137.22622838335903 L 253.62247931324217 136.74667679105227 L 255.35522453659485 136.4020123366094 L 257.10967034612355 136.1943599910046 L 258.87500000000006 136.125 L 260.6403296538766 136.19435999100463 L 262.39477546340527 136.4020123366094 L 264.127520686758 136.7466767910523 L 265.8278823734364 137.22622838335909 L 267.48537722821465 137.8377105184961 L 269.08978624413993 138.5773532057618 L 270.631217706109 139.440596302033 L 272.1001681765808 140.42211762656376 L 273.48758108742925 141.51586577399942 L 274.78490257669745 142.7150974233028 L 275.98413422600083 144.012418912571 L 277.0778823734364 145.3998318234195 L 278.0594036979672 146.86878229389131 L 278.9226467942384 148.41021375586038 L 279.66228948150405 150.0146227717857 L 280.27377161664106 151.6721176265639 L 280.7533232089478 153.37247931324237 L 281.09798766339065 155.10522453659505 L 281.3056400089954 156.85967034612375 Z" fill-opacity="1" stroke-opacity="1" stroke-miterlimit="10" stroke-width="2"/><text fill="rgb(255,255,255)" stroke="none" font-family="times new roman" font-size="15px" font-style="normal" font-weight="normal" text-decoration="normal" x="258.875" y="166.125" text-anchor="middle" dominant-baseline="text-after-edge" fill-opacity="1">*39</text><path fill="rgb(69,90,100)" stroke="rgb(255,193,7)" paint-order="fill stroke markers" d=" M 234.875 232.875 L 234.80564000899537 234.6403296538765 L 234.5979876633906 236.39477546340518 L 234.25332320894773 238.12752068675786 L 233.77377161664094 239.82788237343632 L 233.16228948150396 241.48537722821453 L 232.4226467942383 243.08978624413982 L 231.55940369796707 244.63121770610886 L 230.57788237343632 246.10016817658064 L 229.4841342260007 247.48758108742913 L 228.28490257669733 248.7849025766973 L 226.98758108742913 249.9841342260007 L 225.60016817658064 251.07788237343632 L 224.13121770610886 252.05940369796707 L 222.58978624413982 252.9226467942383 L 220.98537722821453 253.66228948150396 L 219.32788237343632 254.27377161664094 L 217.62752068675786 254.75332320894773 L 215.89477546340518 255.0979876633906 L 214.1403296538765 255.30564000899537 L 212.375 255.375 L 210.6096703461235 255.30564000899537 L 208.85522453659482 255.0979876633906 L 207.12247931324214 254.75332320894773 L 205.42211762656368 254.27377161664094 L 203.76462277178547 253.66228948150396 L 202.1602137558602 252.9226467942383 L 200.61878229389114 252.05940369796707 L 199.14983182341936 251.07788237343632 L 197.76241891257087 249.9841342260007 L 196.4650974233027 248.78490257669733 L 195.2658657739993 247.48758108742913 L 194.17211762656368 246.10016817658064 L 193.19059630203293 244.63121770610886 L 192.3273532057617 243.08978624413982 L 191.58771051849604 241.48537722821453 L 190.97622838335906 239.82788237343632 L 190.49667679105227 238.12752068675786 L 190.1520123366094 236.3947754634052 L 189.94435999100463 234.6403296538765 L 189.875 232.875 L 189.94435999100463 231.1096703461235 L 190.1520123366094 229.35522453659482 L 190.49667679105227 227.62247931324214 L 190.97622838335906 225.92211762656368 L 191.58771051849604 224.26462277178547 L 192.3273532057617 222.6602137558602 L 193.19059630203293 221.11878229389114 L 194.17211762656368 219.64983182341936 L 195.2658657739993 218.26241891257087 L 196.46509742330267 216.9650974233027 L 197.76241891257087 215.7658657739993 L 199.14983182341936 214.67211762656368 L 200.61878229389114 213.69059630203293 L 202.1602137558602 212.8273532057617 L 203.7646227717855 212.08771051849604 L 205.4221176265637 211.47622838335903 L 207.12247931324217 210.99667679105227 L 208.85522453659485 210.6520123366094 L 210.60967034612355 210.4443599910046 L 212.37500000000009 210.375 L 214.1403296538766 210.44435999100463 L 215.8947754634053 210.6520123366094 L 217.62752068675798 210.9966767910523 L 219.32788237343644 211.47622838335909 L 220.98537722821465 212.0877105184961 L 222.58978624413993 212.8273532057618 L 224.13121770610897 213.690596302033 L 225.60016817658078 214.67211762656376 L 226.98758108742925 215.76586577399942 L 228.28490257669745 216.9650974233028 L 229.4841342260008 218.262418912571 L 230.57788237343644 219.6498318234195 L 231.55940369796718 221.11878229389131 L 232.42264679423837 222.66021375586038 L 233.16228948150405 224.2646227717857 L 233.77377161664103 225.9221176265639 L 234.2533232089478 227.62247931324237 L 234.59798766339065 229.35522453659505 L 234.8056400089954 231.10967034612375 Z" fill-opacity="1" stroke-opacity="1" stroke-miterlimit="10" stroke-width="2"/><text fill="rgb(255,255,255)" stroke="none" font-family="times new roman" font-size="15px" font-style="normal" font-weight="normal" text-decoration="normal" x="212.375" y="240.375" text-anchor="middle" dominant-baseline="text-after-edge" fill-opacity="1">*10</text><path fill="rgb(69,90,100)" stroke="rgb(76,175,80)" paint-order="fill stroke markers" d=" M 231.75 88.125 L 231.69605334032974 89.49803417523728 L 231.5345459604149 90.86260313820404 L 231.26647360695935 92.21029386747834 L 230.89348903516517 93.53279740156158 L 230.4178918189475 94.82196006638907 L 229.84261417329643 96.06983374544207 L 229.17120287619662 97.2687248825291 L 228.4077974015616 98.41124191511828 L 227.55710439800055 99.4903408457782 L 226.62436867076457 100.49936867076458 L 225.6153408457782 101.43210439800055 L 224.53624191511827 102.28279740156158 L 223.3937248825291 103.04620287619662 L 222.19483374544208 103.71761417329644 L 220.94696006638907 104.29289181894751 L 219.6577974015616 104.76848903516519 L 218.33529386747836 105.14147360695934 L 216.98760313820404 105.4095459604149 L 215.62303417523728 105.57105334032974 L 214.25 105.625 L 212.87696582476272 105.57105334032974 L 211.51239686179596 105.4095459604149 L 210.16470613252164 105.14147360695934 L 208.84220259843843 104.76848903516519 L 207.55303993361093 104.29289181894751 L 206.30516625455795 103.71761417329644 L 205.1062751174709 103.04620287619662 L 203.96375808488173 102.28279740156158 L 202.8846591542218 101.43210439800055 L 201.87563132923543 100.49936867076458 L 200.94289560199945 99.49034084577822 L 200.09220259843843 98.41124191511828 L 199.32879712380338 97.26872488252911 L 198.65738582670357 96.06983374544207 L 198.0821081810525 94.82196006638907 L 197.60651096483483 93.53279740156158 L 197.23352639304065 92.21029386747834 L 196.9654540395851 90.86260313820404 L 196.80394665967026 89.4980341752373 L 196.75 88.125 L 196.80394665967026 86.75196582476272 L 196.9654540395851 85.38739686179596 L 197.23352639304065 84.03970613252166 L 197.6065109648348 82.71720259843842 L 198.0821081810525 81.42803993361093 L 198.65738582670357 80.18016625455793 L 199.32879712380338 78.9812751174709 L 200.0922025984384 77.83875808488172 L 200.94289560199945 76.7596591542218 L 201.8756313292354 75.75063132923542 L 202.88465915422177 74.81789560199947 L 203.9637580848817 73.96720259843842 L 205.1062751174709 73.20379712380338 L 206.30516625455795 72.53238582670356 L 207.55303993361096 71.95710818105248 L 208.84220259843843 71.4815109648348 L 210.1647061325217 71.10852639304065 L 211.512396861796 70.84045403958508 L 212.87696582476278 70.67894665967026 L 214.25000000000006 70.625 L 215.62303417523736 70.67894665967026 L 216.98760313820412 70.8404540395851 L 218.3352938674784 71.10852639304068 L 219.65779740156165 71.48151096483484 L 220.94696006638915 71.95710818105252 L 222.19483374544217 72.5323858267036 L 223.3937248825292 73.20379712380344 L 224.53624191511838 73.96720259843849 L 225.61534084577832 74.81789560199954 L 226.62436867076468 75.75063132923552 L 227.55710439800063 76.7596591542219 L 228.40779740156168 77.83875808488185 L 229.1712028761967 78.98127511747103 L 229.8426141732965 80.18016625455807 L 230.4178918189476 81.42803993361109 L 230.89348903516523 82.71720259843859 L 231.26647360695938 84.03970613252184 L 231.53454596041493 85.38739686179616 L 231.69605334032974 86.75196582476292 Z" fill-opacity="1" stroke-opacity="1" stroke-miterlimit="10" stroke-width="2"/><text fill="rgb(255,255,255)" stroke="none" font-family="times new roman" font-size="10px" font-style="normal" font-weight="normal" text-decoration="normal" x="214.25" y="93.125" text-anchor="middle" dominant-baseline="text-after-edge" fill-opacity="1">*39.2</text><path fill="rgb(69,90,100)" stroke="rgb(255,193,7)" paint-order="fill stroke markers" d=" M 427.125 368.25 L 427.07105334032974 369.6230341752373 L 426.9095459604149 370.98760313820407 L 426.6414736069593 372.33529386747836 L 426.2684890351652 373.6577974015616 L 425.7928918189475 374.94696006638907 L 425.21761417329645 376.19483374544205 L 424.5462028761966 377.3937248825291 L 423.7827974015616 378.5362419151183 L 422.93210439800055 379.61534084577823 L 421.99936867076457 380.62436867076457 L 420.99034084577823 381.55710439800055 L 419.9112419151183 382.4077974015616 L 418.7687248825291 383.1712028761966 L 417.56983374544205 383.84261417329645 L 416.32196006638907 384.4178918189475 L 415.0327974015616 384.8934890351652 L 413.71029386747836 385.2664736069593 L 412.36260313820407 385.5345459604149 L 410.9980341752373 385.69605334032974 L 409.625 385.75 L 408.2519658247627 385.69605334032974 L 406.88739686179593 385.5345459604149 L 405.53970613252164 385.2664736069593 L 404.2172025984384 384.8934890351652 L 402.92803993361093 384.4178918189475 L 401.68016625455795 383.84261417329645 L 400.4812751174709 383.1712028761966 L 399.3387580848817 382.4077974015616 L 398.25965915422177 381.55710439800055 L 397.25063132923543 380.62436867076457 L 396.31789560199945 379.61534084577823 L 395.4672025984384 378.5362419151183 L 394.7037971238034 377.3937248825291 L 394.03238582670355 376.19483374544205 L 393.4571081810525 374.94696006638907 L 392.9815109648348 373.6577974015616 L 392.6085263930407 372.33529386747836 L 392.3404540395851 370.98760313820407 L 392.17894665967026 369.6230341752373 L 392.125 368.25 L 392.17894665967026 366.8769658247627 L 392.3404540395851 365.51239686179593 L 392.6085263930407 364.16470613252164 L 392.9815109648348 362.8422025984384 L 393.4571081810525 361.55303993361093 L 394.03238582670355 360.30516625455795 L 394.7037971238034 359.1062751174709 L 395.4672025984384 357.9637580848817 L 396.31789560199945 356.88465915422177 L 397.25063132923543 355.87563132923543 L 398.25965915422177 354.94289560199945 L 399.3387580848817 354.0922025984384 L 400.4812751174709 353.3287971238034 L 401.68016625455795 352.65738582670355 L 402.92803993361093 352.0821081810525 L 404.21720259843846 351.6065109648348 L 405.5397061325217 351.2335263930407 L 406.887396861796 350.9654540395851 L 408.25196582476275 350.80394665967026 L 409.62500000000006 350.75 L 410.99803417523736 350.80394665967026 L 412.3626031382041 350.9654540395851 L 413.7102938674784 351.2335263930407 L 415.03279740156165 351.60651096483485 L 416.3219600663892 352.0821081810525 L 417.56983374544217 352.6573858267036 L 418.7687248825292 353.32879712380344 L 419.91124191511835 354.0922025984385 L 420.9903408457783 354.94289560199957 L 421.9993686707647 355.8756313292355 L 422.93210439800066 356.8846591542219 L 423.78279740156165 357.9637580848818 L 424.5462028761967 359.10627511747106 L 425.2176141732965 360.30516625455806 L 425.79289181894757 361.5530399336111 L 426.26848903516526 362.8422025984386 L 426.6414736069594 364.1647061325218 L 426.90954596041496 365.51239686179616 L 427.07105334032974 366.8769658247629 Z" fill-opacity="1" stroke-opacity="1" stroke-miterlimit="10" stroke-width="2"/><text fill="rgb(255,255,255)" stroke="none" font-family="times new roman" font-size="10px" font-style="normal" font-weight="normal" text-decoration="normal" x="409.625" y="373.25" text-anchor="middle" dominant-baseline="text-after-edge" fill-opacity="1">*10.1</text><path fill="rgb(69,90,100)" stroke="rgb(76,175,80)" paint-order="fill stroke markers" d=" M 593.125 222.875 L 593.125 242.875 L 688.125 242.875 L 688.125 222.875 Z" fill-opacity="1" stroke-opacity="1" stroke-miterlimit="10" stroke-width="2"/><text fill="rgb(255,255,255)" stroke="none" font-family="times new roman" font-size="10px" font-style="normal" font-weight="normal" text-decoration="normal" x="640.625" y="237.875" text-anchor="middle" dominant-baseline="text-after-edge" fill-opacity="1">42130482C&gt;A</text><path fill="rgb(69,90,100)" stroke="rgb(76,175,80)" paint-order="fill stroke markers" d=" M 369.625 222.875 L 369.625 242.875 L 464.625 242.875 L 464.625 222.875 Z" fill-opacity="1" stroke-opacity="1" stroke-miterlimit="10" stroke-width="2"/><text fill="rgb(255,255,255)" stroke="none" font-family="times new roman" font-size="10px" font-style="normal" font-weight="normal" text-decoration="normal" x="417.125" y="237.875" text-anchor="middle" dominant-baseline="text-after-edge" fill-opacity="1">42129130C&gt;G</text><path fill="rgb(69,90,100)" stroke="rgb(76,175,80)" paint-order="fill stroke markers" d=" M 864.125 222.875 L 906.625 222.875 L 906.625 222.875 A 5 5 0 0 1 911.625 227.875 L 911.625 237.875 L 911.625 237.875 A 5 5 0 0 1 906.625 242.875 L 821.625 242.875 L 821.625 242.875 A 5 5 0 0 1 816.625 237.875 L 816.625 227.875 L 816.625 227.875 A 5 5 0 0 1 821.625 222.875 L 864.125 222.875 Z" fill-opacity="1" stroke-opacity="1" stroke-miterlimit="10" stroke-width="2"/><text fill="rgb(255,255,255)" stroke="none" font-family="times new roman" font-size="10px" font-style="normal" font-weight="normal" text-decoration="normal" x="864.125" y="237.875" text-anchor="middle" dominant-baseline="text-after-edge" fill-opacity="1">42132049dup</text><path fill="rgb(69,90,100)" stroke="rgb(158,158,158)" paint-order="fill stroke markers" d=" M 257.875 222.875 L 257.875 242.875 L 352.875 242.875 L 352.875 222.875 Z" fill-opacity="1" stroke-opacity="1" stroke-miterlimit="10" stroke-width="2"/><text fill="rgb(255,255,255)" stroke="none" font-family="times new roman" font-size="10px" font-style="normal" font-weight="normal" text-decoration="normal" x="305.375" y="237.875" text-anchor="middle" dominant-baseline="text-after-edge" fill-opacity="1">42129827C&gt;G</text><path fill="rgb(176,190,197)" stroke="none" paint-order="stroke fill markers" d=" M 283.625 263.25 L 283.625 473.25 L 358.625 473.25 L 358.625 263.25000000000006 Z" fill-opacity="0.8"/><text fill="rgb(0,0,0)" stroke="none" font-family="times new roman" font-size="10px" font-style="normal" font-weight="normal" text-decoration="normal" x="288.625" y="278.25" text-anchor="start" dominant-baseline="text-after-edge" fill-opacity="0.8">42126390G&gt;A </text><text fill="rgb(0,0,0)" stroke="none" font-family="times new roman" font-size="10px" font-style="normal" font-weight="normal" text-decoration="normal" x="288.625" y="288.25" text-anchor="start" dominant-baseline="text-after-edge" fill-opacity="0.8">42127209T&gt;C </text><text fill="rgb(0,0,0)" stroke="none" font-family="times new roman" font-size="10px" font-style="normal" font-weight="normal" text-decoration="normal" x="288.625" y="298.25" text-anchor="start" dominant-baseline="text-after-edge" fill-opacity="0.8">42128694T&gt;C </text><text fill="rgb(0,0,0)" stroke="none" font-family="times new roman" font-size="10px" font-style="normal" font-weight="normal" text-decoration="normal" x="288.625" y="308.25" text-anchor="start" dominant-baseline="text-after-edge" fill-opacity="0.8">42129754G&gt;A </text><text fill="rgb(0,0,0)" stroke="none" font-family="times new roman" font-size="10px" font-style="normal" font-weight="normal" text-decoration="normal" x="288.625" y="318.25" text-anchor="start" dominant-baseline="text-after-edge" fill-opacity="0.8">42130512C&gt;T </text><text fill="rgb(0,0,0)" stroke="none" font-family="times new roman" font-size="10px" font-style="normal" font-weight="normal" text-decoration="normal" x="288.625" y="328.25" text-anchor="start" dominant-baseline="text-after-edge" fill-opacity="0.8">42131791C&gt;T </text><text fill="rgb(0,0,0)" stroke="none" font-family="times new roman" font-size="10px" font-style="normal" font-weight="normal" text-decoration="normal" x="288.625" y="338.25" text-anchor="start" dominant-baseline="text-after-edge" fill-opacity="0.8">42132217G&gt;A </text><path fill="rgb(176,190,197)" stroke="none" paint-order="stroke fill markers" d=" M 864.125 263.25 L 931.125 263.25 L 931.125 263.25 A 8 8 0 0 1 939.125 271.25 L 939.125 465.25 L 939.125 465.25 A 8 8 0 0 1 931.125 473.25 L 797.125 473.25 L 797.125 473.25 A 8 8 0 0 1 789.125 465.25 L 789.125 271.25 L 789.125 271.25 A 8 8 0 0 1 797.125 263.25 L 864.125 263.25 Z" fill-opacity="0.8"/><text fill="rgb(0,0,0)" stroke="none" font-family="times new roman" font-size="10px" font-style="normal" font-weight="normal" text-decoration="normal" x="794.125" y="278.25" text-anchor="start" dominant-baseline="text-after-edge" fill-opacity="0.8">42125924A&gt;G </text><text fill="rgb(0,0,0)" stroke="none" font-family="times new roman" font-size="10px" font-style="normal" font-weight="normal" text-decoration="normal" x="794.125" y="288.25" text-anchor="start" dominant-baseline="text-after-edge" fill-opacity="0.8">42125980T&gt;C </text><text fill="rgb(0,0,0)" stroke="none" font-family="times new roman" font-size="10px" font-style="normal" font-weight="normal" text-decoration="normal" x="794.125" y="298.25" text-anchor="start" dominant-baseline="text-after-edge" fill-opacity="0.8">42126069A&gt;C </text><text fill="rgb(0,0,0)" stroke="none" font-family="times new roman" font-size="10px" font-style="normal" font-weight="normal" text-decoration="normal" x="794.125" y="308.25" text-anchor="start" dominant-baseline="text-after-edge" fill-opacity="0.8">42132027C&gt;T </text><text fill="rgb(0,0,0)" stroke="none" font-family="times new roman" font-size="10px" font-style="normal" font-weight="normal" text-decoration="normal" x="794.125" y="318.25" text-anchor="start" dominant-baseline="text-after-edge" fill-opacity="0.8">42132844C&gt;A </text><text fill="rgb(0,0,0)" stroke="none" font-family="times new roman" font-size="10px" font-style="normal" font-weight="normal" text-decoration="normal" x="794.125" y="328.25" text-anchor="start" dominant-baseline="text-after-edge" fill-opacity="0.8">42132851T&gt;C </text><text fill="rgb(0,0,0)" stroke="none" font-family="times new roman" font-size="10px" font-style="normal" font-weight="normal" text-decoration="normal" x="794.125" y="338.25" text-anchor="start" dominant-baseline="text-after-edge" fill-opacity="0.8">42132969C&gt;T </text><text fill="rgb(0,0,0)" stroke="none" font-family="times new roman" font-size="10px" font-style="normal" font-weight="normal" text-decoration="normal" x="794.125" y="348.25" text-anchor="start" dominant-baseline="text-after-edge" fill-opacity="0.8">42133212A&gt;G </text><text fill="rgb(0,0,0)" stroke="none" font-family="times new roman" font-size="10px" font-style="normal" font-weight="normal" text-decoration="normal" x="794.125" y="358.25" text-anchor="start" dominant-baseline="text-after-edge" fill-opacity="0.8">42133314C&gt;T </text><text fill="rgb(0,0,0)" stroke="none" font-family="times new roman" font-size="10px" font-style="normal" font-weight="normal" text-decoration="normal" x="794.125" y="368.25" text-anchor="start" dominant-baseline="text-after-edge" fill-opacity="0.8">42133400T&gt;G </text><text fill="rgb(0,0,0)" stroke="none" font-family="times new roman" font-size="10px" font-style="normal" font-weight="normal" text-decoration="normal" x="794.125" y="378.25" text-anchor="start" dominant-baseline="text-after-edge" fill-opacity="0.8">42133923G&gt;T </text><text fill="rgb(0,0,0)" stroke="none" font-family="times new roman" font-size="10px" font-style="normal" font-weight="normal" text-decoration="normal" x="794.125" y="388.25" text-anchor="start" dominant-baseline="text-after-edge" fill-opacity="0.8">42134096del </text><text fill="rgb(0,0,0)" stroke="none" font-family="times new roman" font-size="10px" font-style="normal" font-weight="normal" text-decoration="normal" x="794.125" y="398.25" text-anchor="start" dominant-baseline="text-after-edge" fill-opacity="0.8">42134820T&gt;G </text><text fill="rgb(0,0,0)" stroke="none" font-family="times new roman" font-size="10px" font-style="normal" font-weight="normal" text-decoration="normal" x="794.125" y="408.25" text-anchor="start" dominant-baseline="text-after-edge" fill-opacity="0.8">42135064_42135066dup </text><text fill="rgb(0,0,0)" stroke="none" font-family="times new roman" font-size="10px" font-style="normal" font-weight="normal" text-decoration="normal" x="794.125" y="418.25" text-anchor="start" dominant-baseline="text-after-edge" fill-opacity="0.8">42135201T&gt;C </text><g transform="scale(0.8607628004179728,0.8607628004179728) translate(105.19984825493168,37.5575113808801)"/></g></svg>