<svg version="1.1" xmlns="http://www.w3.org/2000/svg" xmlns:xlink="http://www.w3.org/1999/xlink" width="1017" height="608"><defs/><g transform="translate(-111.732536551404,-48.9802738454398) scale(1.1844975632397308,1.1844975632397308)"><path fill="none" stroke="rgb(120,144,156)" paint-order="fill stroke markers" d=" M 545.5080505540166 251.125 L 575.9735629025329 351.10727234376714" stroke-opacity="1" stroke-linejoin="round" stroke-miterlimit="10"/><path fill="rgb(120,144,156)" stroke="none" paint-order="stroke fill markers" d=" M 569.8595484375273 345.96613169973665 L 576.5565187533147 353.0204274540599 L 578.1817731673009 343.4302737488361 Z" fill-opacity="1"/><path fill="none" stroke="rgb(120,144,156)" paint-order="fill stroke markers" d=" M 726.3926361386139 175.375 L 753.2855379075035 218.48901712155322" stroke-opacity="1" stroke-linejoin="round" stroke-miterlimit="10"/><path fill="rgb(120,144,156)" stroke="none" paint-order="stroke fill markers" d=" M 746.0487615725635 215.10647838887735 L 754.3440251304444 220.18595695515688 L 753.4304498487395 210.50205896908446 Z" fill-opacity="1"/><path fill="none" stroke="rgb(120,144,156)" paint-order="fill stroke markers" d=" M 195.65625 390.2396416573348 L 463.84537232692884 495.65328324384325" stroke-opacity="1" stroke-linejoin="round" stroke-miterlimit="10"/><path fill="rgb(120,144,156)" stroke="none" paint-order="stroke fill markers" d=" M 456.018472656873 497.25082559222705 L 465.70674860915705 496.3849104275634 L 459.2010509060557 489.1538387645343 Z" fill-opacity="1"/><path fill="none" stroke="rgb(120,144,156)" paint-order="fill stroke markers" d=" M 669.9085006925208 251.125 L 676.5762922012286 268.6309835246801" stroke-opacity="1" stroke-linejoin="round" stroke-miterlimit="10"/><path fill="rgb(120,144,156)" stroke="none" paint-order="stroke fill markers" d=" M 670.1263732955401 263.91812387155625 L 677.2881752077562 270.5 L 678.2565949631816 260.82143279316085 Z" fill-opacity="1"/><path fill="none" stroke="rgb(120,144,156)" paint-order="fill stroke markers" d=" M 258.8326838466984 384.97983399731226 L 466.30151667584175 493.18423269423545" stroke-opacity="1" stroke-linejoin="round" stroke-miterlimit="10"/><path fill="rgb(120,144,156)" stroke="none" paint-order="stroke fill markers" d=" M 458.3493515704179 493.9428960820962 L 468.0748272950318 494.10909454763174 L 462.3725006326919 486.22899488861935 Z" fill-opacity="1"/><path fill="none" stroke="rgb(120,144,156)" paint-order="fill stroke markers" d=" M 800.5355379075035 186.0109828784468 L 780.2769620924965 218.48901712155322" stroke-opacity="1" stroke-linejoin="round" stroke-miterlimit="10"/><path fill="rgb(120,144,156)" stroke="none" paint-order="stroke fill markers" d=" M 780.1320501512605 210.50205896908446 L 779.2184748695556 220.18595695515688 L 787.5137384274366 215.10647838887738 Z" fill-opacity="1"/><path fill="none" stroke="rgb(55,71,79)" paint-order="fill stroke markers" d=" M 778.8030633262312 108.23902773936021 L 800.4766773259075 142.77584354372266" stroke-opacity="1" stroke-linejoin="round" stroke-miterlimit="10" stroke-width="2"/><path fill="none" stroke="rgb(120,144,156)" paint-order="fill stroke markers" d=" M 203.36746883656508 253.125 L 234.09799667870553 353.9770050092063" stroke-opacity="1" stroke-linejoin="round" stroke-miterlimit="10"/><path fill="rgb(120,144,156)" stroke="none" paint-order="stroke fill markers" d=" M 227.98398221369996 348.83586436517584 L 234.68095252948726 355.8901601194991 L 236.3062069434735 346.3000064142753 Z" fill-opacity="1"/><path fill="none" stroke="rgb(120,144,156)" paint-order="fill stroke markers" d=" M 871.3222818559557 253.125 L 833.4697354763412 356.2553339097422" stroke-opacity="1" stroke-linejoin="round" stroke-miterlimit="10"/><path fill="rgb(120,144,156)" stroke="none" paint-order="stroke fill markers" d=" M 831.6946649982369 348.46677661087335 L 832.780614942064 358.13286230879174 L 839.8619135341024 351.46445093497914 Z" fill-opacity="1"/><path fill="none" stroke="rgb(55,71,79)" paint-order="fill stroke markers" d=" M 851.9980867346939 103.875 L 827.5858226740925 142.77584354372266" stroke-opacity="1" stroke-linejoin="round" stroke-miterlimit="10" stroke-width="2"/><path fill="none" stroke="rgb(120,144,156)" paint-order="fill stroke markers" d=" M 437.8846231772338 393.92929231116403 L 483.1424906406201 486.82702026232545" stroke-opacity="1" stroke-linejoin="round" stroke-miterlimit="10"/><path fill="rgb(120,144,156)" stroke="none" paint-order="stroke fill markers" d=" M 476.29748957520405 482.7089551323824 L 484.0184294871795 488.625 L 484.1187014340883 478.8986211498491 Z" fill-opacity="1"/><path fill="none" stroke="rgb(120,144,156)" paint-order="fill stroke markers" d=" M 307.0980782548477 253.125 L 251.3920256612394 355.72645401169683" stroke-opacity="1" stroke-linejoin="round" stroke-miterlimit="10"/><path fill="rgb(120,144,156)" stroke="none" paint-order="stroke fill markers" d=" M 250.7660155226254 347.7627481340069 L 250.43773449135145 357.48410254399045 L 258.4117866381026 351.9139147230195 Z" fill-opacity="1"/><path fill="none" stroke="rgb(120,144,156)" paint-order="fill stroke markers" d=" M 570.1045373154451 394.87303382688293 L 506.8655898562839 486.9762311636695" stroke-opacity="1" stroke-linejoin="round" stroke-miterlimit="10"/><path fill="rgb(120,144,156)" stroke="none" paint-order="stroke fill markers" d=" M 507.0719208281808 478.9906236395023 L 505.7335292022792 488.625 L 514.2440652662183 483.91508748442266 Z" fill-opacity="1"/><path fill="none" stroke="rgb(120,144,156)" paint-order="fill stroke markers" d=" M 776.2535926384782 261.6313880030857 L 818.1431425919659 356.73910833773374" stroke-opacity="1" stroke-linejoin="round" stroke-miterlimit="10"/><path fill="rgb(120,144,156)" stroke="none" paint-order="stroke fill markers" d=" M 811.461547549786 352.3608909273808 L 818.9492994122619 358.5694392316134 L 819.4234869381625 348.85410875909315 Z" fill-opacity="1"/><path fill="none" stroke="rgb(120,144,156)" paint-order="fill stroke markers" d=" M 642.28125 419.52173913043475 L 518.6579601012904 492.0832353753295" stroke-opacity="1" stroke-linejoin="round" stroke-miterlimit="10"/><path fill="rgb(120,144,156)" stroke="none" paint-order="stroke fill markers" d=" M 522.2341733787637 484.9401829049899 L 516.9331285336494 493.09563651285794 L 526.6381183270124 492.44320022422846 Z" fill-opacity="1"/><path fill="none" stroke="rgb(55,71,79)" paint-order="fill stroke markers" d=" M 428.90625 253.125 L 428.90625 355" stroke-opacity="1" stroke-linejoin="round" stroke-miterlimit="10" stroke-width="2"/><path fill="none" stroke="rgb(120,144,156)" paint-order="fill stroke markers" d=" M 747.8750787196464 254.0823166302815 L 603.9214571340008 360.35482663522646" stroke-opacity="1" stroke-linejoin="round" stroke-miterlimit="10"/><path fill="rgb(120,144,156)" stroke="none" paint-order="stroke fill markers" d=" M 606.7281388461984 352.8758535929956 L 602.3124212803536 361.5426833697185 L 611.8953156412388 359.8751595563606 Z" fill-opacity="1"/><path fill="none" stroke="rgb(120,144,156)" paint-order="fill stroke markers" d=" M 809.1989003334509 382.2939029617084 L 522.180364414717 495.61618204773265" stroke-opacity="1" stroke-linejoin="round" stroke-miterlimit="10"/><path fill="rgb(120,144,156)" stroke="none" paint-order="stroke fill markers" d=" M 526.8147300840385 489.1096349724389 L 520.3201103967117 496.35065804359306 L 530.0097006660311 497.20173995076203 Z" fill-opacity="1"/><path fill="rgb(69,90,100)" stroke="rgb(76,175,80)" paint-order="fill stroke markers" d=" M 828.59375 230.125 L 828.59375 250.125 L 923.59375 250.125 L 923.59375 230.125 Z" fill-opacity="1" stroke-opacity="1" stroke-miterlimit="10" stroke-width="6"/><text fill="rgb(255,255,255)" stroke="none" font-family="times new roman" font-size="10px" font-style="normal" font-weight="normal" text-decoration="normal" x="876.09375" y="245.125" text-anchor="middle" dominant-baseline="text-after-edge" fill-opacity="1">42129130C&gt;G</text><path fill="rgb(69,90,100)" stroke="rgb(244,67,54)" paint-order="fill stroke markers" d=" M 605.90625 375.5 L 605.8368900089954 377.2653296538765 L 605.6292376633907 379.0197754634052 L 605.2845732089477 380.75252068675786 L 604.8050216166409 382.4528823734363 L 604.193539481504 384.11037722821453 L 603.4538967942383 385.7147862441398 L 602.5906536979671 387.2562177061088 L 601.6091323734363 388.72516817658067 L 600.5153842260007 390.11258108742913 L 599.3161525766973 391.40990257669733 L 598.0188310874291 392.6091342260007 L 596.6314181765806 393.7028823734363 L 595.1624677061088 394.68440369796707 L 593.6210362441398 395.5476467942383 L 592.0166272282145 396.28728948150393 L 590.3591323734363 396.89877161664094 L 588.6587706867579 397.37832320894773 L 586.9260254634052 397.7229876633906 L 585.1715796538765 397.9306400089954 L 583.40625 398 L 581.6409203461235 397.9306400089954 L 579.8864745365948 397.7229876633906 L 578.1537293132421 397.37832320894773 L 576.4533676265637 396.89877161664094 L 574.7958727717855 396.28728948150393 L 573.1914637558602 395.5476467942383 L 571.6500322938912 394.68440369796707 L 570.1810818234194 393.7028823734363 L 568.7936689125709 392.6091342260007 L 567.4963474233027 391.40990257669733 L 566.2971157739993 390.11258108742913 L 565.2033676265637 388.72516817658067 L 564.2218463020329 387.2562177061088 L 563.3586032057617 385.7147862441398 L 562.618960518496 384.11037722821453 L 562.0074783833591 382.4528823734363 L 561.5279267910523 380.75252068675786 L 561.1832623366095 379.0197754634052 L 560.9756099910046 377.2653296538765 L 560.90625 375.5 L 560.9756099910046 373.7346703461235 L 561.1832623366093 371.9802245365948 L 561.5279267910523 370.24747931324214 L 562.0074783833591 368.5471176265637 L 562.618960518496 366.88962277178547 L 563.3586032057617 365.2852137558602 L 564.2218463020329 363.7437822938912 L 565.2033676265637 362.27483182341933 L 566.2971157739993 360.88741891257087 L 567.4963474233027 359.59009742330267 L 568.7936689125709 358.39086577399934 L 570.1810818234194 357.2971176265637 L 571.6500322938912 356.31559630203293 L 573.1914637558602 355.4523532057617 L 574.7958727717855 354.712710518496 L 576.4533676265637 354.10122838335906 L 578.1537293132421 353.62167679105227 L 579.8864745365948 353.2770123366094 L 581.6409203461236 353.0693599910046 L 583.4062500000001 353 L 585.1715796538766 353.0693599910046 L 586.9260254634053 353.2770123366094 L 588.658770686758 353.6216767910523 L 590.3591323734364 354.10122838335906 L 592.0166272282146 354.7127105184961 L 593.6210362441399 355.45235320576177 L 595.1624677061089 356.315596302033 L 596.6314181765807 357.29711762656376 L 598.0188310874292 358.3908657739994 L 599.3161525766974 359.5900974233028 L 600.5153842260008 360.887418912571 L 601.6091323734364 362.2748318234195 L 602.5906536979671 363.74378229389134 L 603.4538967942384 365.2852137558604 L 604.193539481504 366.8896227717857 L 604.805021616641 368.54711762656393 L 605.2845732089478 370.24747931324237 L 605.6292376633907 371.9802245365951 L 605.8368900089954 373.7346703461238 Z" fill-opacity="1" stroke-opacity="1" stroke-miterlimit="10" stroke-width="2"/><text fill="rgb(255,255,255)" stroke="none" font-family="times new roman" font-size="15px" font-style="normal" font-weight="normal" text-decoration="normal" x="583.40625" y="383" text-anchor="middle" dominant-baseline="text-after-edge" fill-opacity="1">*99</text><path fill="rgb(3,169,244)" stroke="none" paint-order="stroke fill markers" d=" M 583.40625 343 L 607.90625 343 L 607.90625 343 A 8 8 0 0 1 615.90625 351 L 615.90625 400 L 615.90625 400 A 8 8 0 0 1 607.90625 408 L 558.90625 408 L 558.90625 408 A 8 8 0 0 1 550.90625 400 L 550.90625 351 L 550.90625 351 A 8 8 0 0 1 558.90625 343 L 583.40625 343 Z" fill-opacity="0.15"/><path fill="rgb(69,90,100)" stroke="rgb(76,175,80)" paint-order="fill stroke markers" d=" M 151.90625 230.125 L 151.90625 250.125 L 246.90624999999997 250.125 L 246.90625 230.125 Z" fill-opacity="1" stroke-opacity="1" stroke-miterlimit="10" stroke-width="6"/><text fill="rgb(255,255,255)" stroke="none" font-family="times new roman" font-size="10px" font-style="normal" font-weight="normal" text-decoration="normal" x="199.40625" y="245.125" text-anchor="middle" dominant-baseline="text-after-edge" fill-opacity="1">42130482C&gt;A</text><path fill="rgb(69,90,100)" stroke="rgb(69,90,100)" paint-order="fill stroke markers" d=" M 474.28125 489.625 L 455.53125 507.125 L 474.28125 524.625 L 511.78125 524.625 L 530.53125 507.125 L 511.78125000000006 489.625 Z" fill-opacity="1" stroke-opacity="1" stroke-miterlimit="10" stroke-width="2"/><text fill="rgb(255,255,255)" stroke="none" font-family="times new roman" font-size="10px" font-style="normal" font-weight="normal" text-decoration="normal" x="493.03125" y="512.125" text-anchor="middle" dominant-baseline="text-after-edge" fill-opacity="1">HG03781-A</text><path fill="rgb(69,90,100)" stroke="rgb(76,175,80)" paint-order="fill stroke markers" d=" M 258.15625 375.5 L 258.10230334032974 376.8730341752373 L 257.9407959604149 378.23760313820407 L 257.6727236069593 379.58529386747836 L 257.2997390351652 380.9077974015616 L 256.8241418189475 382.19696006638907 L 256.24886417329645 383.44483374544205 L 255.57745287619662 384.6437248825291 L 254.8140474015616 385.7862419151183 L 253.96335439800055 386.86534084577823 L 253.03061867076457 387.87436867076457 L 252.0215908457782 388.80710439800055 L 250.94249191511827 389.6577974015616 L 249.7999748825291 390.4212028761966 L 248.60108374544208 391.09261417329645 L 247.35321006638907 391.6678918189475 L 246.0640474015616 392.1434890351652 L 244.74154386747836 392.5164736069593 L 243.39385313820404 392.7845459604149 L 242.02928417523728 392.94605334032974 L 240.65625 393 L 239.28321582476272 392.94605334032974 L 237.91864686179596 392.7845459604149 L 236.57095613252164 392.5164736069593 L 235.24845259843843 392.1434890351652 L 233.95928993361093 391.6678918189475 L 232.71141625455795 391.09261417329645 L 231.5125251174709 390.4212028761966 L 230.37000808488173 389.6577974015616 L 229.2909091542218 388.80710439800055 L 228.28188132923543 387.87436867076457 L 227.34914560199945 386.86534084577823 L 226.49845259843843 385.7862419151183 L 225.73504712380338 384.6437248825291 L 225.06363582670357 383.44483374544205 L 224.4883581810525 382.19696006638907 L 224.01276096483483 380.9077974015616 L 223.63977639304065 379.58529386747836 L 223.3717040395851 378.23760313820407 L 223.21019665967026 376.8730341752373 L 223.15625 375.5 L 223.21019665967026 374.1269658247627 L 223.3717040395851 372.76239686179593 L 223.63977639304065 371.41470613252164 L 224.0127609648348 370.0922025984384 L 224.4883581810525 368.80303993361093 L 225.06363582670357 367.55516625455795 L 225.73504712380338 366.3562751174709 L 226.4984525984384 365.2137580848817 L 227.34914560199945 364.13465915422177 L 228.2818813292354 363.12563132923543 L 229.29090915422177 362.19289560199945 L 230.3700080848817 361.3422025984384 L 231.5125251174709 360.5787971238034 L 232.71141625455795 359.90738582670355 L 233.95928993361096 359.3321081810525 L 235.24845259843843 358.8565109648348 L 236.5709561325217 358.4835263930407 L 237.918646861796 358.2154540395851 L 239.28321582476278 358.05394665967026 L 240.65625000000006 358 L 242.02928417523736 358.05394665967026 L 243.39385313820412 358.2154540395851 L 244.7415438674784 358.4835263930407 L 246.06404740156165 358.85651096483485 L 247.35321006638915 359.3321081810525 L 248.60108374544217 359.9073858267036 L 249.7999748825292 360.57879712380344 L 250.94249191511838 361.3422025984385 L 252.02159084577832 362.19289560199957 L 253.03061867076468 363.1256313292355 L 253.96335439800063 364.1346591542219 L 254.81404740156168 365.2137580848818 L 255.5774528761967 366.35627511747106 L 256.2488641732965 367.55516625455806 L 256.82414181894757 368.8030399336111 L 257.29973903516526 370.0922025984386 L 257.6727236069594 371.4147061325218 L 257.94079596041496 372.76239686179616 L 258.10230334032974 374.1269658247629 Z" fill-opacity="1" stroke-opacity="1" stroke-miterlimit="10" stroke-width="6"/><text fill="rgb(255,255,255)" stroke="none" font-family="times new roman" font-size="10px" font-style="normal" font-weight="normal" text-decoration="normal" x="240.65625" y="380.5" text-anchor="middle" dominant-baseline="text-after-edge" fill-opacity="1">*1.58</text><path fill="rgb(69,90,100)" stroke="rgb(76,175,80)" paint-order="fill stroke markers" d=" M 836.53125 164.375 L 836.4618900089954 166.1403296538765 L 836.2542376633907 167.89477546340518 L 835.9095732089477 169.62752068675786 L 835.4300216166409 171.32788237343632 L 834.818539481504 172.98537722821453 L 834.0788967942383 174.58978624413982 L 833.2156536979671 176.13121770610886 L 832.2341323734363 177.60016817658064 L 831.1403842260007 178.98758108742913 L 829.9411525766973 180.2849025766973 L 828.6438310874291 181.4841342260007 L 827.2564181765806 182.57788237343632 L 825.7874677061088 183.55940369796707 L 824.2460362441398 184.4226467942383 L 822.6416272282145 185.16228948150396 L 820.9841323734363 185.77377161664094 L 819.2837706867579 186.25332320894773 L 817.5510254634052 186.5979876633906 L 815.7965796538765 186.80564000899537 L 814.03125 186.875 L 812.2659203461235 186.80564000899537 L 810.5114745365948 186.5979876633906 L 808.7787293132421 186.25332320894773 L 807.0783676265637 185.77377161664094 L 805.4208727717855 185.16228948150396 L 803.8164637558602 184.4226467942383 L 802.2750322938912 183.55940369796707 L 800.8060818234194 182.57788237343632 L 799.4186689125709 181.4841342260007 L 798.1213474233027 180.28490257669733 L 796.9221157739993 178.98758108742913 L 795.8283676265637 177.60016817658064 L 794.8468463020329 176.13121770610886 L 793.9836032057617 174.58978624413982 L 793.243960518496 172.98537722821453 L 792.6324783833591 171.32788237343632 L 792.1529267910523 169.62752068675786 L 791.8082623366095 167.8947754634052 L 791.6006099910046 166.1403296538765 L 791.53125 164.375 L 791.6006099910046 162.6096703461235 L 791.8082623366093 160.85522453659482 L 792.1529267910523 159.12247931324214 L 792.6324783833591 157.42211762656368 L 793.243960518496 155.76462277178547 L 793.9836032057617 154.1602137558602 L 794.8468463020329 152.61878229389114 L 795.8283676265637 151.14983182341936 L 796.9221157739993 149.76241891257087 L 798.1213474233027 148.4650974233027 L 799.4186689125709 147.2658657739993 L 800.8060818234194 146.17211762656368 L 802.2750322938912 145.19059630203293 L 803.8164637558602 144.3273532057617 L 805.4208727717855 143.58771051849604 L 807.0783676265637 142.97622838335903 L 808.7787293132421 142.49667679105227 L 810.5114745365948 142.1520123366094 L 812.2659203461236 141.9443599910046 L 814.0312500000001 141.875 L 815.7965796538766 141.94435999100463 L 817.5510254634053 142.1520123366094 L 819.283770686758 142.4966767910523 L 820.9841323734364 142.97622838335909 L 822.6416272282146 143.5877105184961 L 824.2460362441399 144.3273532057618 L 825.7874677061089 145.190596302033 L 827.2564181765807 146.17211762656376 L 828.6438310874292 147.26586577399942 L 829.9411525766974 148.4650974233028 L 831.1403842260008 149.762418912571 L 832.2341323734364 151.1498318234195 L 833.2156536979671 152.61878229389131 L 834.0788967942384 154.16021375586038 L 834.818539481504 155.7646227717857 L 835.430021616641 157.4221176265639 L 835.9095732089478 159.12247931324237 L 836.2542376633907 160.85522453659505 L 836.4618900089954 162.60967034612375 Z" fill-opacity="1" stroke-opacity="1" stroke-miterlimit="10" stroke-width="6"/><text fill="rgb(255,255,255)" stroke="none" font-family="times new roman" font-size="15px" font-style="normal" font-weight="normal" text-decoration="normal" x="814.03125" y="171.875" text-anchor="middle" dominant-baseline="text-after-edge" fill-opacity="1">*39</text><path fill="rgb(69,90,100)" stroke="rgb(255,193,7)" paint-order="fill stroke markers" d=" M 789.28125 240.125 L 789.2118900089954 241.8903296538765 L 789.0042376633907 243.64477546340518 L 788.6595732089477 245.37752068675786 L 788.1800216166409 247.07788237343632 L 787.568539481504 248.73537722821453 L 786.8288967942383 250.33978624413982 L 785.9656536979671 251.88121770610886 L 784.9841323734363 253.35016817658064 L 783.8903842260007 254.73758108742913 L 782.6911525766973 256.03490257669733 L 781.3938310874291 257.2341342260007 L 780.0064181765806 258.3278823734363 L 778.5374677061088 259.30940369796707 L 776.9960362441398 260.1726467942383 L 775.3916272282145 260.91228948150393 L 773.7341323734363 261.52377161664094 L 772.0337706867579 262.00332320894773 L 770.3010254634052 262.3479876633906 L 768.5465796538765 262.5556400089954 L 766.78125 262.625 L 765.0159203461235 262.5556400089954 L 763.2614745365948 262.3479876633906 L 761.5287293132421 262.00332320894773 L 759.8283676265637 261.52377161664094 L 758.1708727717855 260.91228948150393 L 756.5664637558602 260.1726467942383 L 755.0250322938912 259.30940369796707 L 753.5560818234194 258.3278823734363 L 752.1686689125709 257.2341342260007 L 750.8713474233027 256.03490257669733 L 749.6721157739993 254.73758108742913 L 748.5783676265637 253.35016817658064 L 747.5968463020329 251.88121770610886 L 746.7336032057617 250.33978624413982 L 745.993960518496 248.73537722821453 L 745.3824783833591 247.07788237343632 L 744.9029267910523 245.37752068675786 L 744.5582623366095 243.6447754634052 L 744.3506099910046 241.8903296538765 L 744.28125 240.125 L 744.3506099910046 238.3596703461235 L 744.5582623366093 236.60522453659482 L 744.9029267910523 234.87247931324214 L 745.3824783833591 233.17211762656368 L 745.993960518496 231.51462277178547 L 746.7336032057617 229.9102137558602 L 747.5968463020329 228.36878229389114 L 748.5783676265637 226.89983182341936 L 749.6721157739993 225.51241891257087 L 750.8713474233027 224.2150974233027 L 752.1686689125709 223.0158657739993 L 753.5560818234194 221.92211762656368 L 755.0250322938912 220.94059630203293 L 756.5664637558602 220.0773532057617 L 758.1708727717855 219.33771051849604 L 759.8283676265637 218.72622838335903 L 761.5287293132421 218.24667679105227 L 763.2614745365948 217.9020123366094 L 765.0159203461236 217.6943599910046 L 766.7812500000001 217.625 L 768.5465796538766 217.69435999100463 L 770.3010254634053 217.9020123366094 L 772.033770686758 218.2466767910523 L 773.7341323734364 218.72622838335909 L 775.3916272282146 219.3377105184961 L 776.9960362441399 220.0773532057618 L 778.5374677061089 220.940596302033 L 780.0064181765807 221.92211762656376 L 781.3938310874292 223.01586577399942 L 782.6911525766974 224.2150974233028 L 783.8903842260008 225.512418912571 L 784.9841323734364 226.8998318234195 L 785.9656536979671 228.36878229389131 L 786.8288967942384 229.91021375586038 L 787.568539481504 231.5146227717857 L 788.180021616641 233.1721176265639 L 788.6595732089478 234.87247931324237 L 789.0042376633907 236.60522453659505 L 789.2118900089954 238.35967034612375 Z" fill-opacity="1" stroke-opacity="1" stroke-miterlimit="10" stroke-width="2"/><text fill="rgb(255,255,255)" stroke="none" font-family="times new roman" font-size="15px" font-style="normal" font-weight="normal" text-decoration="normal" x="766.78125" y="247.625" text-anchor="middle" dominant-baseline="text-after-edge" fill-opacity="1">*10</text><path fill="rgb(69,90,100)" stroke="rgb(76,175,80)" paint-order="fill stroke markers" d=" M 785.40625 90.875 L 785.3523033403297 92.24803417523728 L 785.1907959604149 93.61260313820404 L 784.9227236069594 94.96029386747834 L 784.5497390351652 96.28279740156158 L 784.0741418189475 97.57196006638907 L 783.4988641732964 98.81983374544207 L 782.8274528761966 100.0187248825291 L 782.0640474015615 101.16124191511828 L 781.2133543980005 102.2403408457782 L 780.2806186707646 103.24936867076458 L 779.2715908457782 104.18210439800055 L 778.1924919151182 105.03279740156158 L 777.0499748825291 105.79620287619662 L 775.8510837454421 106.46761417329644 L 774.6032100663891 107.04289181894751 L 773.3140474015615 107.51848903516519 L 771.9915438674783 107.89147360695934 L 770.643853138204 108.1595459604149 L 769.2792841752373 108.32105334032974 L 767.90625 108.375 L 766.5332158247627 108.32105334032974 L 765.168646861796 108.1595459604149 L 763.8209561325217 107.89147360695934 L 762.4984525984385 107.51848903516519 L 761.2092899336109 107.04289181894751 L 759.9614162545579 106.46761417329644 L 758.7625251174709 105.79620287619662 L 757.6200080848818 105.03279740156158 L 756.5409091542218 104.18210439800055 L 755.5318813292354 103.24936867076458 L 754.5991456019995 102.24034084577822 L 753.7484525984385 101.16124191511828 L 752.9850471238034 100.01872488252911 L 752.3136358267036 98.81983374544207 L 751.7383581810525 97.57196006638907 L 751.2627609648348 96.28279740156158 L 750.8897763930406 94.96029386747834 L 750.6217040395851 93.61260313820404 L 750.4601966596703 92.2480341752373 L 750.40625 90.875 L 750.4601966596703 89.50196582476272 L 750.6217040395851 88.13739686179596 L 750.8897763930406 86.78970613252166 L 751.2627609648348 85.46720259843842 L 751.7383581810525 84.17803993361093 L 752.3136358267036 82.93016625455793 L 752.9850471238034 81.7312751174709 L 753.7484525984385 80.58875808488172 L 754.5991456019995 79.5096591542218 L 755.5318813292354 78.50063132923542 L 756.5409091542218 77.56789560199947 L 757.6200080848818 76.71720259843842 L 758.7625251174709 75.95379712380338 L 759.9614162545579 75.28238582670356 L 761.209289933611 74.70710818105248 L 762.4984525984385 74.2315109648348 L 763.8209561325217 73.85852639304065 L 765.168646861796 73.59045403958508 L 766.5332158247628 73.42894665967026 L 767.9062500000001 73.375 L 769.2792841752373 73.42894665967026 L 770.6438531382041 73.5904540395851 L 771.9915438674784 73.85852639304068 L 773.3140474015617 74.23151096483484 L 774.6032100663891 74.70710818105252 L 775.8510837454421 75.2823858267036 L 777.0499748825292 75.95379712380344 L 778.1924919151184 76.71720259843849 L 779.2715908457783 77.56789560199954 L 780.2806186707646 78.50063132923552 L 781.2133543980007 79.5096591542219 L 782.0640474015617 80.58875808488185 L 782.8274528761967 81.73127511747103 L 783.4988641732965 82.93016625455807 L 784.0741418189476 84.17803993361109 L 784.5497390351652 85.46720259843859 L 784.9227236069594 86.78970613252184 L 785.1907959604149 88.13739686179616 L 785.3523033403297 89.50196582476292 Z" fill-opacity="1" stroke-opacity="1" stroke-miterlimit="10" stroke-width="6"/><text fill="rgb(255,255,255)" stroke="none" font-family="times new roman" font-size="10px" font-style="normal" font-weight="normal" text-decoration="normal" x="767.90625" y="95.875" text-anchor="middle" dominant-baseline="text-after-edge" fill-opacity="1">*39.2</text><path fill="rgb(69,90,100)" stroke="rgb(76,175,80)" paint-order="fill stroke markers" d=" M 446.40625 375.5 L 446.35230334032974 376.8730341752373 L 446.1907959604149 378.23760313820407 L 445.9227236069593 379.58529386747836 L 445.5497390351652 380.9077974015616 L 445.0741418189475 382.19696006638907 L 444.49886417329645 383.44483374544205 L 443.8274528761966 384.6437248825291 L 443.0640474015616 385.7862419151183 L 442.21335439800055 386.86534084577823 L 441.28061867076457 387.87436867076457 L 440.27159084577823 388.80710439800055 L 439.1924919151183 389.6577974015616 L 438.0499748825291 390.4212028761966 L 436.85108374544205 391.09261417329645 L 435.60321006638907 391.6678918189475 L 434.3140474015616 392.1434890351652 L 432.99154386747836 392.5164736069593 L 431.64385313820407 392.7845459604149 L 430.2792841752373 392.94605334032974 L 428.90625 393 L 427.5332158247627 392.94605334032974 L 426.16864686179593 392.7845459604149 L 424.82095613252164 392.5164736069593 L 423.4984525984384 392.1434890351652 L 422.20928993361093 391.6678918189475 L 420.96141625455795 391.09261417329645 L 419.7625251174709 390.4212028761966 L 418.6200080848817 389.6577974015616 L 417.54090915422177 388.80710439800055 L 416.53188132923543 387.87436867076457 L 415.59914560199945 386.86534084577823 L 414.7484525984384 385.7862419151183 L 413.9850471238034 384.6437248825291 L 413.31363582670355 383.44483374544205 L 412.7383581810525 382.19696006638907 L 412.2627609648348 380.9077974015616 L 411.8897763930407 379.58529386747836 L 411.6217040395851 378.23760313820407 L 411.46019665967026 376.8730341752373 L 411.40625 375.5 L 411.46019665967026 374.1269658247627 L 411.6217040395851 372.76239686179593 L 411.8897763930407 371.41470613252164 L 412.2627609648348 370.0922025984384 L 412.7383581810525 368.80303993361093 L 413.31363582670355 367.55516625455795 L 413.9850471238034 366.3562751174709 L 414.7484525984384 365.2137580848817 L 415.59914560199945 364.13465915422177 L 416.53188132923543 363.12563132923543 L 417.54090915422177 362.19289560199945 L 418.6200080848817 361.3422025984384 L 419.7625251174709 360.5787971238034 L 420.96141625455795 359.90738582670355 L 422.20928993361093 359.3321081810525 L 423.49845259843846 358.8565109648348 L 424.8209561325217 358.4835263930407 L 426.168646861796 358.2154540395851 L 427.53321582476275 358.05394665967026 L 428.90625000000006 358 L 430.27928417523736 358.05394665967026 L 431.6438531382041 358.2154540395851 L 432.9915438674784 358.4835263930407 L 434.31404740156165 358.85651096483485 L 435.6032100663892 359.3321081810525 L 436.85108374544217 359.9073858267036 L 438.0499748825292 360.57879712380344 L 439.19249191511835 361.3422025984385 L 440.2715908457783 362.19289560199957 L 441.2806186707647 363.1256313292355 L 442.21335439800066 364.1346591542219 L 443.06404740156165 365.2137580848818 L 443.8274528761967 366.35627511747106 L 444.4988641732965 367.55516625455806 L 445.07414181894757 368.8030399336111 L 445.54973903516526 370.0922025984386 L 445.9227236069594 371.4147061325218 L 446.19079596041496 372.76239686179616 L 446.35230334032974 374.1269658247629 Z" fill-opacity="1" stroke-opacity="1" stroke-miterlimit="10" stroke-width="6"/><text fill="rgb(255,255,255)" stroke="none" font-family="times new roman" font-size="10px" font-style="normal" font-weight="normal" text-decoration="normal" x="428.90625" y="380.5" text-anchor="middle" dominant-baseline="text-after-edge" fill-opacity="1">*1.41</text><path fill="rgb(69,90,100)" stroke="rgb(255,193,7)" paint-order="fill stroke markers" d=" M 812.65625 80.875 L 812.65625 100.875 L 907.65625 100.875 L 907.65625 80.875 Z" fill-opacity="1" stroke-opacity="1" stroke-miterlimit="10" stroke-width="6"/><text fill="rgb(255,255,255)" stroke="none" font-family="times new roman" font-size="10px" font-style="normal" font-weight="normal" text-decoration="normal" x="860.15625" y="95.875" text-anchor="middle" dominant-baseline="text-after-edge" fill-opacity="1">42126611C&gt;G</text><path fill="rgb(69,90,100)" stroke="rgb(255,193,7)" paint-order="fill stroke markers" d=" M 843.90625 375.5 L 843.8523033403297 376.8730341752373 L 843.6907959604149 378.23760313820407 L 843.4227236069594 379.58529386747836 L 843.0497390351652 380.9077974015616 L 842.5741418189475 382.19696006638907 L 841.9988641732964 383.44483374544205 L 841.3274528761966 384.6437248825291 L 840.5640474015615 385.7862419151183 L 839.7133543980005 386.86534084577823 L 838.7806186707646 387.87436867076457 L 837.7715908457782 388.80710439800055 L 836.6924919151182 389.6577974015616 L 835.5499748825291 390.4212028761966 L 834.3510837454421 391.09261417329645 L 833.1032100663891 391.6678918189475 L 831.8140474015615 392.1434890351652 L 830.4915438674783 392.5164736069593 L 829.143853138204 392.7845459604149 L 827.7792841752373 392.94605334032974 L 826.40625 393 L 825.0332158247627 392.94605334032974 L 823.668646861796 392.7845459604149 L 822.3209561325217 392.5164736069593 L 820.9984525984385 392.1434890351652 L 819.7092899336109 391.6678918189475 L 818.4614162545579 391.09261417329645 L 817.2625251174709 390.4212028761966 L 816.1200080848818 389.6577974015616 L 815.0409091542218 388.80710439800055 L 814.0318813292354 387.87436867076457 L 813.0991456019995 386.86534084577823 L 812.2484525984385 385.7862419151183 L 811.4850471238034 384.6437248825291 L 810.8136358267036 383.44483374544205 L 810.2383581810525 382.19696006638907 L 809.7627609648348 380.9077974015616 L 809.3897763930406 379.58529386747836 L 809.1217040395851 378.23760313820407 L 808.9601966596703 376.8730341752373 L 808.90625 375.5 L 808.9601966596703 374.1269658247627 L 809.1217040395851 372.76239686179593 L 809.3897763930406 371.41470613252164 L 809.7627609648348 370.0922025984384 L 810.2383581810525 368.80303993361093 L 810.8136358267036 367.55516625455795 L 811.4850471238034 366.3562751174709 L 812.2484525984385 365.2137580848817 L 813.0991456019995 364.13465915422177 L 814.0318813292354 363.12563132923543 L 815.0409091542218 362.19289560199945 L 816.1200080848818 361.3422025984384 L 817.2625251174709 360.5787971238034 L 818.4614162545579 359.90738582670355 L 819.709289933611 359.3321081810525 L 820.9984525984385 358.8565109648348 L 822.3209561325217 358.4835263930407 L 823.668646861796 358.2154540395851 L 825.0332158247628 358.05394665967026 L 826.4062500000001 358 L 827.7792841752373 358.05394665967026 L 829.1438531382041 358.2154540395851 L 830.4915438674784 358.4835263930407 L 831.8140474015617 358.85651096483485 L 833.1032100663891 359.3321081810525 L 834.3510837454421 359.9073858267036 L 835.5499748825292 360.57879712380344 L 836.6924919151184 361.3422025984385 L 837.7715908457783 362.19289560199957 L 838.7806186707646 363.1256313292355 L 839.7133543980007 364.1346591542219 L 840.5640474015617 365.2137580848818 L 841.3274528761967 366.35627511747106 L 841.9988641732965 367.55516625455806 L 842.5741418189476 368.8030399336111 L 843.0497390351652 370.0922025984386 L 843.4227236069594 371.4147061325218 L 843.6907959604149 372.76239686179616 L 843.8523033403297 374.1269658247629 Z" fill-opacity="1" stroke-opacity="1" stroke-miterlimit="10" stroke-width="2"/><text fill="rgb(255,255,255)" stroke="none" font-family="times new roman" font-size="10px" font-style="normal" font-weight="normal" text-decoration="normal" x="826.40625" y="380.5" text-anchor="middle" dominant-baseline="text-after-edge" fill-opacity="1">*10.1</text><path fill="rgb(69,90,100)" stroke="rgb(76,175,80)" paint-order="fill stroke markers" d=" M 266.65625 230.125 L 266.65625 250.125 L 361.65625 250.125 L 361.65625 230.125 Z" fill-opacity="1" stroke-opacity="1" stroke-miterlimit="10" stroke-width="6"/><text fill="rgb(255,255,255)" stroke="none" font-family="times new roman" font-size="10px" font-style="normal" font-weight="normal" text-decoration="normal" x="314.15625" y="245.125" text-anchor="middle" dominant-baseline="text-after-edge" fill-opacity="1">42129950A&gt;C</text><path fill="rgb(69,90,100)" stroke="rgb(255,193,7)" paint-order="fill stroke markers" d=" M 494.65625 230.125 L 494.65625 250.125 L 589.65625 250.125 L 589.65625 230.125 Z" fill-opacity="1" stroke-opacity="1" stroke-miterlimit="10" stroke-width="2"/><text fill="rgb(255,255,255)" stroke="none" font-family="times new roman" font-size="10px" font-style="normal" font-weight="normal" text-decoration="normal" x="542.15625" y="245.125" text-anchor="middle" dominant-baseline="text-after-edge" fill-opacity="1">42129827C&gt;G</text><path fill="rgb(69,90,100)" stroke="rgb(76,175,80)" paint-order="fill stroke markers" d=" M 665.71875 230.125 L 708.21875 230.125 L 708.21875 230.125 A 5 5 0 0 1 713.21875 235.125 L 713.21875 245.125 L 713.21875 245.125 A 5 5 0 0 1 708.21875 250.125 L 623.21875 250.125 L 623.21875 250.125 A 5 5 0 0 1 618.21875 245.125 L 618.21875 235.125 L 618.21875 235.125 A 5 5 0 0 1 623.21875 230.125 L 665.71875 230.125 Z" fill-opacity="1" stroke-opacity="1" stroke-miterlimit="10" stroke-width="2"/><text fill="rgb(255,255,255)" stroke="none" font-family="times new roman" font-size="10px" font-style="normal" font-weight="normal" text-decoration="normal" x="665.71875" y="245.125" text-anchor="middle" dominant-baseline="text-after-edge" fill-opacity="1">42132049dup</text><path fill="rgb(69,90,100)" stroke="rgb(76,175,80)" paint-order="fill stroke markers" d=" M 381.40625 230.125 L 381.40625 250.125 L 476.40625 250.125 L 476.40625 230.125 Z" fill-opacity="1" stroke-opacity="1" stroke-miterlimit="10" stroke-width="6"/><text fill="rgb(255,255,255)" stroke="none" font-family="times new roman" font-size="10px" font-style="normal" font-weight="normal" text-decoration="normal" x="428.90625" y="245.125" text-anchor="middle" dominant-baseline="text-after-edge" fill-opacity="1">42127407T&gt;G</text><path fill="rgb(69,90,100)" stroke="rgb(255,193,7)" paint-order="fill stroke markers" d=" M 672.03125 154.375 L 672.03125 174.375 L 767.03125 174.375 L 767.03125 154.375 Z" fill-opacity="1" stroke-opacity="1" stroke-miterlimit="10" stroke-width="2"/><text fill="rgb(255,255,255)" stroke="none" font-family="times new roman" font-size="10px" font-style="normal" font-weight="normal" text-decoration="normal" x="719.53125" y="169.375" text-anchor="middle" dominant-baseline="text-after-edge" fill-opacity="1">42130692G&gt;A</text><path fill="rgb(176,190,197)" stroke="none" paint-order="stroke fill markers" d=" M 120.65625000000001 270.5 L 120.65625 480.5 L 195.65625 480.5 L 195.65625 270.50000000000006 Z" fill-opacity="0.8"/><text fill="rgb(0,0,0)" stroke="none" font-family="times new roman" font-size="10px" font-style="normal" font-weight="normal" text-decoration="normal" x="125.65625" y="285.5" text-anchor="start" dominant-baseline="text-after-edge" fill-opacity="0.8">42126390G&gt;A </text><text fill="rgb(0,0,0)" stroke="none" font-family="times new roman" font-size="10px" font-style="normal" font-weight="normal" text-decoration="normal" x="125.65625" y="295.5" text-anchor="start" dominant-baseline="text-after-edge" fill-opacity="0.8">42127209T&gt;C </text><text fill="rgb(0,0,0)" stroke="none" font-family="times new roman" font-size="10px" font-style="normal" font-weight="normal" text-decoration="normal" x="125.65625" y="305.5" text-anchor="start" dominant-baseline="text-after-edge" fill-opacity="0.8">42128694T&gt;C </text><text fill="rgb(0,0,0)" stroke="none" font-family="times new roman" font-size="10px" font-style="normal" font-weight="normal" text-decoration="normal" x="125.65625" y="315.5" text-anchor="start" dominant-baseline="text-after-edge" fill-opacity="0.8">42129754G&gt;A </text><text fill="rgb(0,0,0)" stroke="none" font-family="times new roman" font-size="10px" font-style="normal" font-weight="normal" text-decoration="normal" x="125.65625" y="325.5" text-anchor="start" dominant-baseline="text-after-edge" fill-opacity="0.8">42130512C&gt;T </text><text fill="rgb(0,0,0)" stroke="none" font-family="times new roman" font-size="10px" font-style="normal" font-weight="normal" text-decoration="normal" x="125.65625" y="335.5" text-anchor="start" dominant-baseline="text-after-edge" fill-opacity="0.8">42131791C&gt;T </text><text fill="rgb(0,0,0)" stroke="none" font-family="times new roman" font-size="10px" font-style="normal" font-weight="normal" text-decoration="normal" x="125.65625" y="345.5" text-anchor="start" dominant-baseline="text-after-edge" fill-opacity="0.8">42132217G&gt;A </text><path fill="rgb(176,190,197)" stroke="none" paint-order="stroke fill markers" d=" M 717.28125 270.5 L 784.28125 270.5 L 784.28125 270.5 A 8 8 0 0 1 792.28125 278.5 L 792.28125 472.5 L 792.28125 472.5 A 8 8 0 0 1 784.28125 480.5 L 650.28125 480.5 L 650.28125 480.5 A 8 8 0 0 1 642.28125 472.5 L 642.28125 278.5 L 642.28125 278.5 A 8 8 0 0 1 650.28125 270.5 L 717.28125 270.5 Z" fill-opacity="0.8"/><text fill="rgb(0,0,0)" stroke="none" font-family="times new roman" font-size="10px" font-style="normal" font-weight="normal" text-decoration="normal" x="647.28125" y="285.5" text-anchor="start" dominant-baseline="text-after-edge" fill-opacity="0.8">42125924A&gt;G </text><text fill="rgb(0,0,0)" stroke="none" font-family="times new roman" font-size="10px" font-style="normal" font-weight="normal" text-decoration="normal" x="647.28125" y="295.5" text-anchor="start" dominant-baseline="text-after-edge" fill-opacity="0.8">42125980T&gt;C </text><text fill="rgb(0,0,0)" stroke="none" font-family="times new roman" font-size="10px" font-style="normal" font-weight="normal" text-decoration="normal" x="647.28125" y="305.5" text-anchor="start" dominant-baseline="text-after-edge" fill-opacity="0.8">42126069A&gt;C </text><text fill="rgb(0,0,0)" stroke="none" font-family="times new roman" font-size="10px" font-style="normal" font-weight="normal" text-decoration="normal" x="647.28125" y="315.5" text-anchor="start" dominant-baseline="text-after-edge" fill-opacity="0.8">42132027C&gt;T </text><text fill="rgb(0,0,0)" stroke="none" font-family="times new roman" font-size="10px" font-style="normal" font-weight="normal" text-decoration="normal" x="647.28125" y="325.5" text-anchor="start" dominant-baseline="text-after-edge" fill-opacity="0.8">42132844C&gt;A </text><text fill="rgb(0,0,0)" stroke="none" font-family="times new roman" font-size="10px" font-style="normal" font-weight="normal" text-decoration="normal" x="647.28125" y="335.5" text-anchor="start" dominant-baseline="text-after-edge" fill-opacity="0.8">42132851T&gt;C </text><text fill="rgb(0,0,0)" stroke="none" font-family="times new roman" font-size="10px" font-style="normal" font-weight="normal" text-decoration="normal" x="647.28125" y="345.5" text-anchor="start" dominant-baseline="text-after-edge" fill-opacity="0.8">42132969C&gt;T </text><text fill="rgb(0,0,0)" stroke="none" font-family="times new roman" font-size="10px" font-style="normal" font-weight="normal" text-decoration="normal" x="647.28125" y="355.5" text-anchor="start" dominant-baseline="text-after-edge" fill-opacity="0.8">42133212A&gt;G </text><text fill="rgb(0,0,0)" stroke="none" font-family="times new roman" font-size="10px" font-style="normal" font-weight="normal" text-decoration="normal" x="647.28125" y="365.5" text-anchor="start" dominant-baseline="text-after-edge" fill-opacity="0.8">42133314C&gt;T </text><text fill="rgb(0,0,0)" stroke="none" font-family="times new roman" font-size="10px" font-style="normal" font-weight="normal" text-decoration="normal" x="647.28125" y="375.5" text-anchor="start" dominant-baseline="text-after-edge" fill-opacity="0.8">42133400T&gt;G </text><text fill="rgb(0,0,0)" stroke="none" font-family="times new roman" font-size="10px" font-style="normal" font-weight="normal" text-decoration="normal" x="647.28125" y="385.5" text-anchor="start" dominant-baseline="text-after-edge" fill-opacity="0.8">42133923G&gt;T </text><text fill="rgb(0,0,0)" stroke="none" font-family="times new roman" font-size="10px" font-style="normal" font-weight="normal" text-decoration="normal" x="647.28125" y="395.5" text-anchor="start" dominant-baseline="text-after-edge" fill-opacity="0.8">42134096del </text><text fill="rgb(0,0,0)" stroke="none" font-family="times new roman" font-size="10px" font-style="normal" font-weight="normal" text-decoration="normal" x="647.28125" y="405.5" text-anchor="start" dominant-baseline="text-after-edge" fill-opacity="0.8">42134820T&gt;G </text><text fill="rgb(0,0,0)" stroke="none" font-family="times new roman" font-size="10px" font-style="normal" font-weight="normal" text-decoration="normal" x="647.28125" y="415.5" text-anchor="start" dominant-baseline="text-after-edge" fill-opacity="0.8">42135064_42135066dup </text><text fill="rgb(0,0,0)" stroke="none" font-family="times new roman" font-size="10px" font-style="normal" font-weight="normal" text-decoration="normal" x="647.28125" y="425.5" text-anchor="start" dominant-baseline="text-after-edge" fill-opacity="0.8">42135201T&gt;C </text><g transform="scale(0.8442398119122257,0.8442398119122257) translate(111.732536551404,48.9802738454398)"/></g></svg>