<svg version="1.1" xmlns="http://www.w3.org/2000/svg" xmlns:xlink="http://www.w3.org/1999/xlink" width="1017" height="608"><defs/><g transform="translate(-114.61558854718976,55.87009544008484) scale(1.0148462354188759,1.0148462354188759)"><path fill="none" stroke="rgb(55,71,79)" paint-order="fill stroke markers" d=" M 596.7127659574468 86.75 L 621.8063019975086 126.39356954228255" stroke-opacity="1" stroke-linejoin="round" stroke-miterlimit="10" stroke-width="2"/><path fill="none" stroke="rgb(120,144,156)" paint-order="fill stroke markers" d=" M 218.5 297.8349753694581 L 457.1086101580925 400.97736719887985" stroke-opacity="1" stroke-linejoin="round" stroke-miterlimit="10"/><path fill="rgb(120,144,156)" stroke="none" paint-order="stroke fill markers" d=" M 449.2325915455473 402.31184492999466 L 458.9444355162716 401.7709321012455 L 452.68459887083765 394.32600462191556 Z" fill-opacity="1"/><path fill="none" stroke="rgb(120,144,156)" paint-order="fill stroke markers" d=" M 646.1070822857631 166.61193127481 L 699.6444426260869 259.5301384039296" stroke-opacity="1" stroke-linejoin="round" stroke-miterlimit="10"/><path fill="rgb(120,144,156)" stroke="none" paint-order="stroke fill markers" d=" M 692.5304276320428 255.89650514443352 L 700.6429177142369 261.26306872519 L 700.0686745295257 251.55313851098083 Z" fill-opacity="1"/><path fill="none" stroke="rgb(120,144,156)" paint-order="fill stroke markers" d=" M 434.1651662049861 157.25 L 441.3990050944056 174.77628079919742" stroke-opacity="1" stroke-linejoin="round" stroke-miterlimit="10"/><path fill="rgb(120,144,156)" stroke="none" paint-order="stroke fill markers" d=" M 434.82184086290755 170.24269384493007 L 442.16204986149586 176.625 L 442.8637693863988 166.92344910808742 Z" fill-opacity="1"/><path fill="none" stroke="rgb(55,71,79)" paint-order="fill stroke markers" d=" M 712.375 164.75 L 712.375 258.125" stroke-opacity="1" stroke-linejoin="round" stroke-miterlimit="10" stroke-width="2"/><path fill="none" stroke="rgb(120,144,156)" paint-order="fill stroke markers" d=" M 277.9409678700859 291.0130532255036 L 459.9051474336204 398.1765213912764" stroke-opacity="1" stroke-linejoin="round" stroke-miterlimit="10"/><path fill="rgb(120,144,156)" stroke="none" paint-order="stroke fill markers" d=" M 451.9244708789979 398.5248053709521 L 461.62849531146753 399.1914460643039 L 456.3393932066672 391.0282421023171 Z" fill-opacity="1"/><path fill="none" stroke="rgb(120,144,156)" paint-order="fill stroke markers" d=" M 952.5417768064626 163.82001199271423 L 984.9570851604063 262.1555272513167" stroke-opacity="1" stroke-linejoin="round" stroke-miterlimit="10"/><path fill="rgb(120,144,156)" stroke="none" paint-order="stroke fill markers" d=" M 978.7281956051843 257.1541839408803 L 985.5832231935374 264.0549880072858 L 986.99084989365 254.43048349676005 Z" fill-opacity="1"/><path fill="none" stroke="rgb(120,144,156)" paint-order="fill stroke markers" d=" M 210.66516620498615 157.25 L 254.17879113732477 262.67562819177346" stroke-opacity="1" stroke-linejoin="round" stroke-miterlimit="10"/><path fill="rgb(120,144,156)" stroke="none" paint-order="stroke fill markers" d=" M 247.60162690582675 258.1420412375061 L 254.94183590441503 264.52434739257603 L 255.643555429318 254.82279650066346 Z" fill-opacity="1"/><path fill="none" stroke="rgb(120,144,156)" paint-order="fill stroke markers" d=" M 536.8348337950139 157.25 L 529.6009949055945 174.77628079919742" stroke-opacity="1" stroke-linejoin="round" stroke-miterlimit="10"/><path fill="rgb(120,144,156)" stroke="none" paint-order="stroke fill markers" d=" M 528.1362306136012 166.92344910808742 L 528.8379501385042 176.625 L 536.1781591370925 170.24269384493007 Z" fill-opacity="1"/><path fill="none" stroke="rgb(120,144,156)" paint-order="fill stroke markers" d=" M 313.3348337950139 157.25 L 269.82120886267523 262.67562819177346" stroke-opacity="1" stroke-linejoin="round" stroke-miterlimit="10"/><path fill="rgb(120,144,156)" stroke="none" paint-order="stroke fill markers" d=" M 268.356444570682 254.82279650066346 L 269.05816409558497 264.52434739257603 L 276.3983730941733 258.1420412375061 Z" fill-opacity="1"/><path fill="none" stroke="rgb(120,144,156)" paint-order="fill stroke markers" d=" M 485.5 386.625 L 485.5 392.75" stroke-opacity="1" stroke-linejoin="round" stroke-miterlimit="10"/><path fill="rgb(120,144,156)" stroke="none" paint-order="stroke fill markers" d=" M 481.15 386.05 L 485.5 394.75 L 489.85 386.05 Z" fill-opacity="1"/><path fill="none" stroke="rgb(120,144,156)" paint-order="fill stroke markers" d=" M 1032.3739612188365 157.25 L 997.7929148395937 262.1555272513167" stroke-opacity="1" stroke-linejoin="round" stroke-miterlimit="10"/><path fill="rgb(120,144,156)" stroke="none" paint-order="stroke fill markers" d=" M 995.75915010635 254.43048349676005 L 997.1667768064626 264.0549880072858 L 1004.0218043948157 257.1541839408803 Z" fill-opacity="1"/><path fill="none" stroke="rgb(55,71,79)" paint-order="fill stroke markers" d=" M 755.6445069381315 91.38165801990523 L 777.8063019975086 126.39356954228255" stroke-opacity="1" stroke-linejoin="round" stroke-miterlimit="10" stroke-width="2"/><path fill="none" stroke="rgb(55,71,79)" paint-order="fill stroke markers" d=" M 669.1054930618685 91.38165801990523 L 646.9436980024914 126.39356954228255" stroke-opacity="1" stroke-linejoin="round" stroke-miterlimit="10" stroke-width="2"/><path fill="none" stroke="rgb(120,144,156)" paint-order="fill stroke markers" d=" M 778.6429177142369 166.61193127481 L 725.1055573739131 259.5301384039296" stroke-opacity="1" stroke-linejoin="round" stroke-miterlimit="10"/><path fill="rgb(120,144,156)" stroke="none" paint-order="stroke fill markers" d=" M 724.6813254704745 251.55313851098083 L 724.1070822857631 261.26306872519 L 732.2195723679572 255.89650514443352 Z" fill-opacity="1"/><path fill="none" stroke="rgb(55,71,79)" paint-order="fill stroke markers" d=" M 828.0372340425532 86.75 L 802.9436980024914 126.39356954228255" stroke-opacity="1" stroke-linejoin="round" stroke-miterlimit="10" stroke-width="2"/><path fill="none" stroke="rgb(55,71,79)" paint-order="fill stroke markers" d=" M 946.75 86.75 L 946.75 127.75" stroke-opacity="1" stroke-linejoin="round" stroke-miterlimit="10" stroke-width="2"/><path fill="none" stroke="rgb(120,144,156)" paint-order="fill stroke markers" d=" M 692.0482253659409 293.4178890852145 L 511.23713912470305 398.31820523508964" stroke-opacity="1" stroke-linejoin="round" stroke-miterlimit="10"/><path fill="rgb(120,144,156)" stroke="none" paint-order="stroke fill markers" d=" M 514.8494932748099 391.19336155300056 L 509.50720085797457 399.3218553700015 L 519.2153713616766 398.71859301326924 Z" fill-opacity="1"/><path fill="none" stroke="rgb(120,144,156)" paint-order="fill stroke markers" d=" M 973.4711242913763 286.28345839416374 L 517.732835235563 404.86325043166596" stroke-opacity="1" stroke-linejoin="round" stroke-miterlimit="10"/><path fill="rgb(120,144,156)" stroke="none" paint-order="stroke fill markers" d=" M 523.1215743292477 398.96630283310327 L 515.797281104901 405.36686755535936 L 525.3123088173139 407.38596330148306 Z" fill-opacity="1"/><path fill="rgb(69,90,100)" stroke="rgb(76,175,80)" paint-order="fill stroke markers" d=" M 763.25 75.75 L 763.1960533403297 77.12303417523728 L 763.0345459604149 78.48760313820404 L 762.7664736069594 79.83529386747834 L 762.3934890351652 81.15779740156158 L 761.9178918189475 82.44696006638907 L 761.3426141732964 83.69483374544207 L 760.6712028761966 84.8937248825291 L 759.9077974015615 86.03624191511828 L 759.0571043980005 87.1153408457782 L 758.1243686707646 88.12436867076458 L 757.1153408457782 89.05710439800055 L 756.0362419151182 89.90779740156158 L 754.8937248825291 90.67120287619662 L 753.6948337454421 91.34261417329644 L 752.4469600663891 91.91789181894751 L 751.1577974015615 92.39348903516519 L 749.8352938674783 92.76647360695934 L 748.487603138204 93.0345459604149 L 747.1230341752373 93.19605334032974 L 745.75 93.25 L 744.3769658247627 93.19605334032974 L 743.012396861796 93.0345459604149 L 741.6647061325217 92.76647360695934 L 740.3422025984385 92.39348903516519 L 739.0530399336109 91.91789181894751 L 737.8051662545579 91.34261417329644 L 736.6062751174709 90.67120287619662 L 735.4637580848818 89.90779740156158 L 734.3846591542218 89.05710439800055 L 733.3756313292354 88.12436867076458 L 732.4428956019995 87.11534084577822 L 731.5922025984385 86.03624191511828 L 730.8287971238034 84.89372488252911 L 730.1573858267036 83.69483374544207 L 729.5821081810525 82.44696006638907 L 729.1065109648348 81.15779740156158 L 728.7335263930406 79.83529386747834 L 728.4654540395851 78.48760313820404 L 728.3039466596703 77.1230341752373 L 728.25 75.75 L 728.3039466596703 74.37696582476272 L 728.4654540395851 73.01239686179596 L 728.7335263930406 71.66470613252166 L 729.1065109648348 70.34220259843842 L 729.5821081810525 69.05303993361093 L 730.1573858267036 67.80516625455793 L 730.8287971238034 66.6062751174709 L 731.5922025984385 65.46375808488172 L 732.4428956019995 64.3846591542218 L 733.3756313292354 63.37563132923542 L 734.3846591542218 62.44289560199947 L 735.4637580848818 61.59220259843842 L 736.6062751174709 60.82879712380338 L 737.8051662545579 60.15738582670356 L 739.053039933611 59.582108181052476 L 740.3422025984385 59.106510964834804 L 741.6647061325217 58.73352639304065 L 743.012396861796 58.46545403958508 L 744.3769658247628 58.30394665967026 L 745.7500000000001 58.25 L 747.1230341752373 58.30394665967027 L 748.4876031382041 58.4654540395851 L 749.8352938674784 58.73352639304068 L 751.1577974015617 59.10651096483484 L 752.4469600663891 59.58210818105252 L 753.6948337454421 60.15738582670361 L 754.8937248825292 60.82879712380345 L 756.0362419151184 61.59220259843849 L 757.1153408457783 62.44289560199954 L 758.1243686707646 63.37563132923552 L 759.0571043980007 64.3846591542219 L 759.9077974015617 65.46375808488185 L 760.6712028761967 66.60627511747103 L 761.3426141732965 67.80516625455807 L 761.9178918189476 69.05303993361109 L 762.3934890351652 70.34220259843859 L 762.7664736069594 71.66470613252184 L 763.0345459604149 73.01239686179616 L 763.1960533403297 74.37696582476292 Z" fill-opacity="1" stroke-opacity="1" stroke-miterlimit="10" stroke-width="2"/><text fill="rgb(255,255,255)" stroke="none" font-family="times new roman" font-size="10px" font-style="normal" font-weight="normal" text-decoration="normal" x="745.75" y="80.75" text-anchor="middle" dominant-baseline="text-after-edge" fill-opacity="1">*39.2</text><path fill="rgb(69,90,100)" stroke="rgb(76,175,80)" paint-order="fill stroke markers" d=" M 656.875 146.25 L 656.8056400089954 148.0153296538765 L 656.5979876633907 149.76977546340518 L 656.2533232089477 151.50252068675786 L 655.7737716166409 153.20288237343632 L 655.162289481504 154.86037722821453 L 654.4226467942383 156.46478624413982 L 653.5594036979671 158.00621770610886 L 652.5778823734363 159.47516817658064 L 651.4841342260007 160.86258108742913 L 650.2849025766973 162.1599025766973 L 648.9875810874291 163.3591342260007 L 647.6001681765806 164.45288237343632 L 646.1312177061088 165.43440369796707 L 644.5897862441398 166.2976467942383 L 642.9853772282145 167.03728948150396 L 641.3278823734363 167.64877161664094 L 639.6275206867579 168.12832320894773 L 637.8947754634052 168.4729876633906 L 636.1403296538765 168.68064000899537 L 634.375 168.75 L 632.6096703461235 168.68064000899537 L 630.8552245365948 168.4729876633906 L 629.1224793132421 168.12832320894773 L 627.4221176265637 167.64877161664094 L 625.7646227717855 167.03728948150396 L 624.1602137558602 166.2976467942383 L 622.6187822938912 165.43440369796707 L 621.1498318234194 164.45288237343632 L 619.7624189125709 163.3591342260007 L 618.4650974233027 162.15990257669733 L 617.2658657739993 160.86258108742913 L 616.1721176265637 159.47516817658064 L 615.1905963020329 158.00621770610886 L 614.3273532057617 156.46478624413982 L 613.587710518496 154.86037722821453 L 612.9762283833591 153.20288237343632 L 612.4966767910523 151.50252068675786 L 612.1520123366095 149.7697754634052 L 611.9443599910046 148.0153296538765 L 611.875 146.25 L 611.9443599910046 144.4846703461235 L 612.1520123366093 142.73022453659482 L 612.4966767910523 140.99747931324214 L 612.9762283833591 139.29711762656368 L 613.587710518496 137.63962277178547 L 614.3273532057617 136.0352137558602 L 615.1905963020329 134.49378229389114 L 616.1721176265637 133.02483182341936 L 617.2658657739993 131.63741891257087 L 618.4650974233027 130.3400974233027 L 619.7624189125709 129.1408657739993 L 621.1498318234194 128.04711762656368 L 622.6187822938912 127.06559630203293 L 624.1602137558602 126.20235320576171 L 625.7646227717855 125.46271051849604 L 627.4221176265637 124.85122838335903 L 629.1224793132421 124.37167679105227 L 630.8552245365948 124.02701233660939 L 632.6096703461236 123.81935999100462 L 634.3750000000001 123.75 L 636.1403296538766 123.81935999100463 L 637.8947754634053 124.02701233660942 L 639.627520686758 124.3716767910523 L 641.3278823734364 124.85122838335909 L 642.9853772282146 125.4627105184961 L 644.5897862441399 126.20235320576178 L 646.1312177061089 127.065596302033 L 647.6001681765807 128.04711762656376 L 648.9875810874292 129.14086577399942 L 650.2849025766974 130.3400974233028 L 651.4841342260008 131.637418912571 L 652.5778823734364 133.0248318234195 L 653.5594036979671 134.49378229389131 L 654.4226467942384 136.03521375586038 L 655.162289481504 137.6396227717857 L 655.773771616641 139.2971176265639 L 656.2533232089478 140.99747931324237 L 656.5979876633907 142.73022453659505 L 656.8056400089954 144.48467034612375 Z" fill-opacity="1" stroke-opacity="1" stroke-miterlimit="10" stroke-width="2"/><text fill="rgb(255,255,255)" stroke="none" font-family="times new roman" font-size="15px" font-style="normal" font-weight="normal" text-decoration="normal" x="634.375" y="153.75" text-anchor="middle" dominant-baseline="text-after-edge" fill-opacity="1">*34</text><path fill="rgb(69,90,100)" stroke="rgb(76,175,80)" paint-order="fill stroke markers" d=" M 541.375 136.25 L 583.875 136.25 L 583.875 136.25 A 5 5 0 0 1 588.875 141.25 L 588.875 151.25 L 588.875 151.25 A 5 5 0 0 1 583.875 156.25 L 498.875 156.25 L 498.875 156.25 A 5 5 0 0 1 493.875 151.25 L 493.875 141.25 L 493.875 141.25 A 5 5 0 0 1 498.875 136.25 L 541.375 136.25 Z" fill-opacity="1" stroke-opacity="1" stroke-miterlimit="10" stroke-width="2"/><text fill="rgb(255,255,255)" stroke="none" font-family="times new roman" font-size="10px" font-style="normal" font-weight="normal" text-decoration="normal" x="541.375" y="151.25" text-anchor="middle" dominant-baseline="text-after-edge" fill-opacity="1">42132049dup</text><path fill="rgb(69,90,100)" stroke="rgb(76,175,80)" paint-order="fill stroke markers" d=" M 1008.875 281.625 L 1008.8210533403297 282.9980341752373 L 1008.6595459604149 284.36260313820407 L 1008.3914736069594 285.71029386747836 L 1008.0184890351652 287.0327974015616 L 1007.5428918189475 288.32196006638907 L 1006.9676141732964 289.56983374544205 L 1006.2962028761966 290.7687248825291 L 1005.5327974015615 291.9112419151183 L 1004.6821043980005 292.99034084577823 L 1003.7493686707646 293.99936867076457 L 1002.7403408457782 294.93210439800055 L 1001.6612419151182 295.7827974015616 L 1000.5187248825291 296.5462028761966 L 999.3198337454421 297.21761417329645 L 998.0719600663891 297.7928918189475 L 996.7827974015615 298.2684890351652 L 995.4602938674783 298.6414736069593 L 994.112603138204 298.9095459604149 L 992.7480341752373 299.07105334032974 L 991.375 299.125 L 990.0019658247627 299.07105334032974 L 988.637396861796 298.9095459604149 L 987.2897061325217 298.6414736069593 L 985.9672025984385 298.2684890351652 L 984.6780399336109 297.7928918189475 L 983.4301662545579 297.21761417329645 L 982.2312751174709 296.5462028761966 L 981.0887580848818 295.7827974015616 L 980.0096591542218 294.93210439800055 L 979.0006313292354 293.99936867076457 L 978.0678956019995 292.99034084577823 L 977.2172025984385 291.9112419151183 L 976.4537971238034 290.7687248825291 L 975.7823858267036 289.56983374544205 L 975.2071081810525 288.32196006638907 L 974.7315109648348 287.0327974015616 L 974.3585263930406 285.71029386747836 L 974.0904540395851 284.36260313820407 L 973.9289466596703 282.9980341752373 L 973.875 281.625 L 973.9289466596703 280.2519658247627 L 974.0904540395851 278.88739686179593 L 974.3585263930406 277.53970613252164 L 974.7315109648348 276.2172025984384 L 975.2071081810525 274.92803993361093 L 975.7823858267036 273.68016625455795 L 976.4537971238034 272.4812751174709 L 977.2172025984385 271.3387580848817 L 978.0678956019995 270.25965915422177 L 979.0006313292354 269.25063132923543 L 980.0096591542218 268.31789560199945 L 981.0887580848818 267.4672025984384 L 982.2312751174709 266.7037971238034 L 983.4301662545579 266.03238582670355 L 984.678039933611 265.4571081810525 L 985.9672025984385 264.9815109648348 L 987.2897061325217 264.6085263930407 L 988.637396861796 264.3404540395851 L 990.0019658247628 264.17894665967026 L 991.3750000000001 264.125 L 992.7480341752373 264.17894665967026 L 994.1126031382041 264.3404540395851 L 995.4602938674784 264.6085263930407 L 996.7827974015617 264.98151096483485 L 998.0719600663891 265.4571081810525 L 999.3198337454421 266.0323858267036 L 1000.5187248825292 266.70379712380344 L 1001.6612419151184 267.4672025984385 L 1002.7403408457783 268.31789560199957 L 1003.7493686707646 269.2506313292355 L 1004.6821043980007 270.2596591542219 L 1005.5327974015617 271.3387580848818 L 1006.2962028761967 272.48127511747106 L 1006.9676141732965 273.68016625455806 L 1007.5428918189476 274.9280399336111 L 1008.0184890351652 276.2172025984386 L 1008.3914736069594 277.5397061325218 L 1008.6595459604149 278.88739686179616 L 1008.8210533403297 280.2519658247629 Z" fill-opacity="1" stroke-opacity="1" stroke-miterlimit="10" stroke-width="2"/><text fill="rgb(255,255,255)" stroke="none" font-family="times new roman" font-size="10px" font-style="normal" font-weight="normal" text-decoration="normal" x="991.375" y="286.625" text-anchor="middle" dominant-baseline="text-after-edge" fill-opacity="1">*1.54</text><path fill="rgb(69,90,100)" stroke="rgb(255,193,7)" paint-order="fill stroke markers" d=" M 542.25 65.75 L 542.25 85.75 L 637.25 85.75 L 637.25 65.75 Z" fill-opacity="1" stroke-opacity="1" stroke-miterlimit="10" stroke-width="2"/><text fill="rgb(255,255,255)" stroke="none" font-family="times new roman" font-size="10px" font-style="normal" font-weight="normal" text-decoration="normal" x="589.75" y="80.75" text-anchor="middle" dominant-baseline="text-after-edge" fill-opacity="1">42127941G&gt;A</text><path fill="rgb(69,90,100)" stroke="rgb(76,175,80)" paint-order="fill stroke markers" d=" M 812.875 146.25 L 812.8056400089954 148.0153296538765 L 812.5979876633907 149.76977546340518 L 812.2533232089477 151.50252068675786 L 811.7737716166409 153.20288237343632 L 811.162289481504 154.86037722821453 L 810.4226467942383 156.46478624413982 L 809.5594036979671 158.00621770610886 L 808.5778823734363 159.47516817658064 L 807.4841342260007 160.86258108742913 L 806.2849025766973 162.1599025766973 L 804.9875810874291 163.3591342260007 L 803.6001681765806 164.45288237343632 L 802.1312177061088 165.43440369796707 L 800.5897862441398 166.2976467942383 L 798.9853772282145 167.03728948150396 L 797.3278823734363 167.64877161664094 L 795.6275206867579 168.12832320894773 L 793.8947754634052 168.4729876633906 L 792.1403296538765 168.68064000899537 L 790.375 168.75 L 788.6096703461235 168.68064000899537 L 786.8552245365948 168.4729876633906 L 785.1224793132421 168.12832320894773 L 783.4221176265637 167.64877161664094 L 781.7646227717855 167.03728948150396 L 780.1602137558602 166.2976467942383 L 778.6187822938912 165.43440369796707 L 777.1498318234194 164.45288237343632 L 775.7624189125709 163.3591342260007 L 774.4650974233027 162.15990257669733 L 773.2658657739993 160.86258108742913 L 772.1721176265637 159.47516817658064 L 771.1905963020329 158.00621770610886 L 770.3273532057617 156.46478624413982 L 769.587710518496 154.86037722821453 L 768.9762283833591 153.20288237343632 L 768.4966767910523 151.50252068675786 L 768.1520123366095 149.7697754634052 L 767.9443599910046 148.0153296538765 L 767.875 146.25 L 767.9443599910046 144.4846703461235 L 768.1520123366093 142.73022453659482 L 768.4966767910523 140.99747931324214 L 768.9762283833591 139.29711762656368 L 769.587710518496 137.63962277178547 L 770.3273532057617 136.0352137558602 L 771.1905963020329 134.49378229389114 L 772.1721176265637 133.02483182341936 L 773.2658657739993 131.63741891257087 L 774.4650974233027 130.3400974233027 L 775.7624189125709 129.1408657739993 L 777.1498318234194 128.04711762656368 L 778.6187822938912 127.06559630203293 L 780.1602137558602 126.20235320576171 L 781.7646227717855 125.46271051849604 L 783.4221176265637 124.85122838335903 L 785.1224793132421 124.37167679105227 L 786.8552245365948 124.02701233660939 L 788.6096703461236 123.81935999100462 L 790.3750000000001 123.75 L 792.1403296538766 123.81935999100463 L 793.8947754634053 124.02701233660942 L 795.627520686758 124.3716767910523 L 797.3278823734364 124.85122838335909 L 798.9853772282146 125.4627105184961 L 800.5897862441399 126.20235320576178 L 802.1312177061089 127.065596302033 L 803.6001681765807 128.04711762656376 L 804.9875810874292 129.14086577399942 L 806.2849025766974 130.3400974233028 L 807.4841342260008 131.637418912571 L 808.5778823734364 133.0248318234195 L 809.5594036979671 134.49378229389131 L 810.4226467942384 136.03521375586038 L 811.162289481504 137.6396227717857 L 811.773771616641 139.2971176265639 L 812.2533232089478 140.99747931324237 L 812.5979876633907 142.73022453659505 L 812.8056400089954 144.48467034612375 Z" fill-opacity="1" stroke-opacity="1" stroke-miterlimit="10" stroke-width="2"/><text fill="rgb(255,255,255)" stroke="none" font-family="times new roman" font-size="15px" font-style="normal" font-weight="normal" text-decoration="normal" x="790.375" y="153.75" text-anchor="middle" dominant-baseline="text-after-edge" fill-opacity="1">*39</text><path fill="rgb(69,90,100)" stroke="rgb(76,175,80)" paint-order="fill stroke markers" d=" M 734.875 281.625 L 734.8056400089954 283.3903296538765 L 734.5979876633907 285.1447754634052 L 734.2533232089477 286.87752068675786 L 733.7737716166409 288.5778823734363 L 733.162289481504 290.23537722821453 L 732.4226467942383 291.8397862441398 L 731.5594036979671 293.3812177061088 L 730.5778823734363 294.85016817658067 L 729.4841342260007 296.23758108742913 L 728.2849025766973 297.53490257669733 L 726.9875810874291 298.7341342260007 L 725.6001681765806 299.8278823734363 L 724.1312177061088 300.80940369796707 L 722.5897862441398 301.6726467942383 L 720.9853772282145 302.41228948150393 L 719.3278823734363 303.02377161664094 L 717.6275206867579 303.50332320894773 L 715.8947754634052 303.8479876633906 L 714.1403296538765 304.0556400089954 L 712.375 304.125 L 710.6096703461235 304.0556400089954 L 708.8552245365948 303.8479876633906 L 707.1224793132421 303.50332320894773 L 705.4221176265637 303.02377161664094 L 703.7646227717855 302.41228948150393 L 702.1602137558602 301.6726467942383 L 700.6187822938912 300.80940369796707 L 699.1498318234194 299.8278823734363 L 697.7624189125709 298.7341342260007 L 696.4650974233027 297.53490257669733 L 695.2658657739993 296.23758108742913 L 694.1721176265637 294.85016817658067 L 693.1905963020329 293.3812177061088 L 692.3273532057617 291.8397862441398 L 691.587710518496 290.23537722821453 L 690.9762283833591 288.5778823734363 L 690.4966767910523 286.87752068675786 L 690.1520123366095 285.1447754634052 L 689.9443599910046 283.3903296538765 L 689.875 281.625 L 689.9443599910046 279.8596703461235 L 690.1520123366093 278.1052245365948 L 690.4966767910523 276.37247931324214 L 690.9762283833591 274.6721176265637 L 691.587710518496 273.01462277178547 L 692.3273532057617 271.4102137558602 L 693.1905963020329 269.8687822938912 L 694.1721176265637 268.39983182341933 L 695.2658657739993 267.01241891257087 L 696.4650974233027 265.71509742330267 L 697.7624189125709 264.51586577399934 L 699.1498318234194 263.4221176265637 L 700.6187822938912 262.44059630203293 L 702.1602137558602 261.5773532057617 L 703.7646227717855 260.837710518496 L 705.4221176265637 260.22622838335906 L 707.1224793132421 259.74667679105227 L 708.8552245365948 259.4020123366094 L 710.6096703461236 259.1943599910046 L 712.3750000000001 259.125 L 714.1403296538766 259.1943599910046 L 715.8947754634053 259.4020123366094 L 717.627520686758 259.7466767910523 L 719.3278823734364 260.22622838335906 L 720.9853772282146 260.8377105184961 L 722.5897862441399 261.57735320576177 L 724.1312177061089 262.440596302033 L 725.6001681765807 263.42211762656376 L 726.9875810874292 264.5158657739994 L 728.2849025766974 265.7150974233028 L 729.4841342260008 267.012418912571 L 730.5778823734364 268.3998318234195 L 731.5594036979671 269.86878229389134 L 732.4226467942384 271.4102137558604 L 733.162289481504 273.0146227717857 L 733.773771616641 274.67211762656393 L 734.2533232089478 276.37247931324237 L 734.5979876633907 278.1052245365951 L 734.8056400089954 279.8596703461238 Z" fill-opacity="1" stroke-opacity="1" stroke-miterlimit="10" stroke-width="2"/><text fill="rgb(255,255,255)" stroke="none" font-family="times new roman" font-size="15px" font-style="normal" font-weight="normal" text-decoration="normal" x="712.375" y="289.125" text-anchor="middle" dominant-baseline="text-after-edge" fill-opacity="1">*2</text><path fill="rgb(3,169,244)" stroke="none" paint-order="stroke fill markers" d=" M 712.375 249.125 L 736.875 249.125 L 736.875 249.125 A 8 8 0 0 1 744.875 257.125 L 744.875 306.125 L 744.875 306.125 A 8 8 0 0 1 736.875 314.125 L 687.875 314.125 L 687.875 314.125 A 8 8 0 0 1 679.875 306.125 L 679.875 257.125 L 679.875 257.125 A 8 8 0 0 1 687.875 249.125 L 712.375 249.125 Z" fill-opacity="0.15"/><path fill="rgb(69,90,100)" stroke="rgb(76,175,80)" paint-order="fill stroke markers" d=" M 696.5 75.75 L 696.4460533403297 77.12303417523728 L 696.2845459604149 78.48760313820404 L 696.0164736069594 79.83529386747834 L 695.6434890351652 81.15779740156158 L 695.1678918189475 82.44696006638907 L 694.5926141732964 83.69483374544207 L 693.9212028761966 84.8937248825291 L 693.1577974015615 86.03624191511828 L 692.3071043980005 87.1153408457782 L 691.3743686707646 88.12436867076458 L 690.3653408457782 89.05710439800055 L 689.2862419151182 89.90779740156158 L 688.1437248825291 90.67120287619662 L 686.9448337454421 91.34261417329644 L 685.6969600663891 91.91789181894751 L 684.4077974015615 92.39348903516519 L 683.0852938674783 92.76647360695934 L 681.737603138204 93.0345459604149 L 680.3730341752373 93.19605334032974 L 679 93.25 L 677.6269658247627 93.19605334032974 L 676.262396861796 93.0345459604149 L 674.9147061325217 92.76647360695934 L 673.5922025984385 92.39348903516519 L 672.3030399336109 91.91789181894751 L 671.0551662545579 91.34261417329644 L 669.8562751174709 90.67120287619662 L 668.7137580848818 89.90779740156158 L 667.6346591542218 89.05710439800055 L 666.6256313292354 88.12436867076458 L 665.6928956019995 87.11534084577822 L 664.8422025984385 86.03624191511828 L 664.0787971238034 84.89372488252911 L 663.4073858267036 83.69483374544207 L 662.8321081810525 82.44696006638907 L 662.3565109648348 81.15779740156158 L 661.9835263930406 79.83529386747834 L 661.7154540395851 78.48760313820404 L 661.5539466596703 77.1230341752373 L 661.5 75.75 L 661.5539466596703 74.37696582476272 L 661.7154540395851 73.01239686179596 L 661.9835263930406 71.66470613252166 L 662.3565109648348 70.34220259843842 L 662.8321081810525 69.05303993361093 L 663.4073858267036 67.80516625455793 L 664.0787971238034 66.6062751174709 L 664.8422025984385 65.46375808488172 L 665.6928956019995 64.3846591542218 L 666.6256313292354 63.37563132923542 L 667.6346591542218 62.44289560199947 L 668.7137580848818 61.59220259843842 L 669.8562751174709 60.82879712380338 L 671.0551662545579 60.15738582670356 L 672.303039933611 59.582108181052476 L 673.5922025984385 59.106510964834804 L 674.9147061325217 58.73352639304065 L 676.262396861796 58.46545403958508 L 677.6269658247628 58.30394665967026 L 679.0000000000001 58.25 L 680.3730341752373 58.30394665967027 L 681.7376031382041 58.4654540395851 L 683.0852938674784 58.73352639304068 L 684.4077974015617 59.10651096483484 L 685.6969600663891 59.58210818105252 L 686.9448337454421 60.15738582670361 L 688.1437248825292 60.82879712380345 L 689.2862419151184 61.59220259843849 L 690.3653408457783 62.44289560199954 L 691.3743686707646 63.37563132923552 L 692.3071043980007 64.3846591542219 L 693.1577974015617 65.46375808488185 L 693.9212028761967 66.60627511747103 L 694.5926141732965 67.80516625455807 L 695.1678918189476 69.05303993361109 L 695.6434890351652 70.34220259843859 L 696.0164736069594 71.66470613252184 L 696.2845459604149 73.01239686179616 L 696.4460533403297 74.37696582476292 Z" fill-opacity="1" stroke-opacity="1" stroke-miterlimit="10" stroke-width="2"/><text fill="rgb(255,255,255)" stroke="none" font-family="times new roman" font-size="10px" font-style="normal" font-weight="normal" text-decoration="normal" x="679" y="80.75" text-anchor="middle" dominant-baseline="text-after-edge" fill-opacity="1">*34.1</text><path fill="rgb(69,90,100)" stroke="rgb(76,175,80)" paint-order="fill stroke markers" d=" M 279.5 281.625 L 279.44605334032974 282.9980341752373 L 279.2845459604149 284.36260313820407 L 279.0164736069593 285.71029386747836 L 278.6434890351652 287.0327974015616 L 278.1678918189475 288.32196006638907 L 277.59261417329645 289.56983374544205 L 276.9212028761966 290.7687248825291 L 276.1577974015616 291.9112419151183 L 275.30710439800055 292.99034084577823 L 274.37436867076457 293.99936867076457 L 273.36534084577823 294.93210439800055 L 272.2862419151183 295.7827974015616 L 271.1437248825291 296.5462028761966 L 269.94483374544205 297.21761417329645 L 268.69696006638907 297.7928918189475 L 267.4077974015616 298.2684890351652 L 266.08529386747836 298.6414736069593 L 264.73760313820407 298.9095459604149 L 263.3730341752373 299.07105334032974 L 262 299.125 L 260.6269658247627 299.07105334032974 L 259.26239686179593 298.9095459604149 L 257.91470613252164 298.6414736069593 L 256.5922025984384 298.2684890351652 L 255.30303993361093 297.7928918189475 L 254.05516625455795 297.21761417329645 L 252.8562751174709 296.5462028761966 L 251.71375808488173 295.7827974015616 L 250.6346591542218 294.93210439800055 L 249.62563132923543 293.99936867076457 L 248.69289560199945 292.99034084577823 L 247.84220259843843 291.9112419151183 L 247.07879712380338 290.7687248825291 L 246.40738582670357 289.56983374544205 L 245.8321081810525 288.32196006638907 L 245.35651096483483 287.0327974015616 L 244.98352639304065 285.71029386747836 L 244.7154540395851 284.36260313820407 L 244.55394665967026 282.9980341752373 L 244.5 281.625 L 244.55394665967026 280.2519658247627 L 244.7154540395851 278.88739686179593 L 244.98352639304065 277.53970613252164 L 245.3565109648348 276.2172025984384 L 245.8321081810525 274.92803993361093 L 246.40738582670357 273.68016625455795 L 247.07879712380338 272.4812751174709 L 247.8422025984384 271.3387580848817 L 248.69289560199945 270.25965915422177 L 249.6256313292354 269.25063132923543 L 250.63465915422177 268.31789560199945 L 251.7137580848817 267.4672025984384 L 252.8562751174709 266.7037971238034 L 254.05516625455795 266.03238582670355 L 255.30303993361096 265.4571081810525 L 256.59220259843846 264.9815109648348 L 257.9147061325217 264.6085263930407 L 259.262396861796 264.3404540395851 L 260.62696582476275 264.17894665967026 L 262.00000000000006 264.125 L 263.37303417523736 264.17894665967026 L 264.7376031382041 264.3404540395851 L 266.0852938674784 264.6085263930407 L 267.40779740156165 264.98151096483485 L 268.6969600663892 265.4571081810525 L 269.94483374544217 266.0323858267036 L 271.1437248825292 266.70379712380344 L 272.28624191511835 267.4672025984385 L 273.3653408457783 268.31789560199957 L 274.3743686707647 269.2506313292355 L 275.30710439800066 270.2596591542219 L 276.15779740156165 271.3387580848818 L 276.9212028761967 272.48127511747106 L 277.5926141732965 273.68016625455806 L 278.16789181894757 274.9280399336111 L 278.64348903516526 276.2172025984386 L 279.0164736069594 277.5397061325218 L 279.28454596041496 278.88739686179616 L 279.44605334032974 280.2519658247629 Z" fill-opacity="1" stroke-opacity="1" stroke-miterlimit="10" stroke-width="2"/><text fill="rgb(255,255,255)" stroke="none" font-family="times new roman" font-size="10px" font-style="normal" font-weight="normal" text-decoration="normal" x="262" y="286.625" text-anchor="middle" dominant-baseline="text-after-edge" fill-opacity="1">*1.58</text><path fill="rgb(69,90,100)" stroke="rgb(76,175,80)" paint-order="fill stroke markers" d=" M 270.375 136.25 L 270.375 156.25 L 365.375 156.25 L 365.375 136.25 Z" fill-opacity="1" stroke-opacity="1" stroke-miterlimit="10" stroke-width="2"/><text fill="rgb(255,255,255)" stroke="none" font-family="times new roman" font-size="10px" font-style="normal" font-weight="normal" text-decoration="normal" x="317.875" y="151.25" text-anchor="middle" dominant-baseline="text-after-edge" fill-opacity="1">42130482C&gt;A</text><path fill="rgb(69,90,100)" stroke="rgb(76,175,80)" paint-order="fill stroke markers" d=" M 429.625 136.25 L 472.125 136.25 L 472.125 136.25 A 5 5 0 0 1 477.125 141.25 L 477.125 151.25 L 477.125 151.25 A 5 5 0 0 1 472.125 156.25 L 387.125 156.25 L 387.125 156.25 A 5 5 0 0 1 382.125 151.25 L 382.125 141.25 L 382.125 141.25 A 5 5 0 0 1 387.125 136.25 L 429.625 136.25 Z" fill-opacity="1" stroke-opacity="1" stroke-miterlimit="10" stroke-width="2"/><text fill="rgb(255,255,255)" stroke="none" font-family="times new roman" font-size="10px" font-style="normal" font-weight="normal" text-decoration="normal" x="429.625" y="151.25" text-anchor="middle" dominant-baseline="text-after-edge" fill-opacity="1">42132025_4213202…</text><path fill="rgb(69,90,100)" stroke="rgb(76,175,80)" paint-order="fill stroke markers" d=" M 729.875 146.25 L 729.8210533403297 147.62303417523728 L 729.6595459604149 148.98760313820404 L 729.3914736069594 150.33529386747836 L 729.0184890351652 151.65779740156157 L 728.5428918189475 152.94696006638907 L 727.9676141732964 154.19483374544205 L 727.2962028761966 155.3937248825291 L 726.5327974015615 156.53624191511827 L 725.6821043980005 157.6153408457782 L 724.7493686707646 158.62436867076457 L 723.7403408457782 159.55710439800055 L 722.6612419151182 160.4077974015616 L 721.5187248825291 161.17120287619662 L 720.3198337454421 161.84261417329643 L 719.0719600663891 162.4178918189475 L 717.7827974015615 162.89348903516517 L 716.4602938674783 163.26647360695935 L 715.112603138204 163.5345459604149 L 713.7480341752373 163.69605334032974 L 712.375 163.75 L 711.0019658247627 163.69605334032974 L 709.637396861796 163.5345459604149 L 708.2897061325217 163.26647360695935 L 706.9672025984385 162.8934890351652 L 705.6780399336109 162.4178918189475 L 704.4301662545579 161.84261417329643 L 703.2312751174709 161.17120287619662 L 702.0887580848818 160.4077974015616 L 701.0096591542218 159.55710439800055 L 700.0006313292354 158.62436867076457 L 699.0678956019995 157.6153408457782 L 698.2172025984385 156.5362419151183 L 697.4537971238034 155.3937248825291 L 696.7823858267036 154.19483374544208 L 696.2071081810525 152.94696006638907 L 695.7315109648348 151.6577974015616 L 695.3585263930406 150.33529386747836 L 695.0904540395851 148.98760313820404 L 694.9289466596703 147.62303417523728 L 694.875 146.25 L 694.9289466596703 144.87696582476272 L 695.0904540395851 143.51239686179596 L 695.3585263930406 142.16470613252164 L 695.7315109648348 140.84220259843843 L 696.2071081810525 139.55303993361093 L 696.7823858267036 138.30516625455795 L 697.4537971238034 137.1062751174709 L 698.2172025984385 135.96375808488173 L 699.0678956019995 134.8846591542218 L 700.0006313292354 133.87563132923543 L 701.0096591542218 132.94289560199945 L 702.0887580848818 132.09220259843843 L 703.2312751174709 131.32879712380338 L 704.4301662545579 130.65738582670355 L 705.678039933611 130.0821081810525 L 706.9672025984385 129.6065109648348 L 708.2897061325217 129.23352639304065 L 709.637396861796 128.9654540395851 L 711.0019658247628 128.80394665967026 L 712.3750000000001 128.75 L 713.7480341752373 128.80394665967026 L 715.1126031382041 128.9654540395851 L 716.4602938674784 129.23352639304068 L 717.7827974015617 129.60651096483485 L 719.0719600663891 130.08210818105252 L 720.3198337454421 130.6573858267036 L 721.5187248825292 131.32879712380344 L 722.6612419151184 132.0922025984385 L 723.7403408457783 132.94289560199954 L 724.7493686707646 133.87563132923552 L 725.6821043980007 134.8846591542219 L 726.5327974015617 135.96375808488185 L 727.2962028761967 137.10627511747103 L 727.9676141732965 138.3051662545581 L 728.5428918189476 139.5530399336111 L 729.0184890351652 140.8422025984386 L 729.3914736069594 142.16470613252184 L 729.6595459604149 143.51239686179616 L 729.8210533403297 144.87696582476292 Z" fill-opacity="1" stroke-opacity="1" stroke-miterlimit="10" stroke-width="2"/><text fill="rgb(255,255,255)" stroke="none" font-family="times new roman" font-size="10px" font-style="normal" font-weight="normal" text-decoration="normal" x="712.375" y="151.25" text-anchor="middle" dominant-baseline="text-after-edge" fill-opacity="1">*2.4</text><path fill="rgb(69,90,100)" stroke="rgb(255,193,7)" paint-order="fill stroke markers" d=" M 787.5 65.75 L 787.5 85.75 L 882.5 85.75 L 882.5 65.75 Z" fill-opacity="1" stroke-opacity="1" stroke-miterlimit="10" stroke-width="2"/><text fill="rgb(255,255,255)" stroke="none" font-family="times new roman" font-size="10px" font-style="normal" font-weight="normal" text-decoration="normal" x="835" y="80.75" text-anchor="middle" dominant-baseline="text-after-edge" fill-opacity="1">42126611C&gt;G</text><path fill="rgb(69,90,100)" stroke="rgb(76,175,80)" paint-order="fill stroke markers" d=" M 158.625 136.25 L 158.625 156.25 L 253.62499999999997 156.25 L 253.625 136.25 Z" fill-opacity="1" stroke-opacity="1" stroke-miterlimit="10" stroke-width="2"/><text fill="rgb(255,255,255)" stroke="none" font-family="times new roman" font-size="10px" font-style="normal" font-weight="normal" text-decoration="normal" x="206.125" y="151.25" text-anchor="middle" dominant-baseline="text-after-edge" fill-opacity="1">42129950A&gt;C</text><path fill="rgb(69,90,100)" stroke="rgb(76,175,80)" paint-order="fill stroke markers" d=" M 964.25 146.25 L 964.1960533403297 147.62303417523728 L 964.0345459604149 148.98760313820404 L 963.7664736069594 150.33529386747836 L 963.3934890351652 151.65779740156157 L 962.9178918189475 152.94696006638907 L 962.3426141732964 154.19483374544205 L 961.6712028761966 155.3937248825291 L 960.9077974015615 156.53624191511827 L 960.0571043980005 157.6153408457782 L 959.1243686707646 158.62436867076457 L 958.1153408457782 159.55710439800055 L 957.0362419151182 160.4077974015616 L 955.8937248825291 161.17120287619662 L 954.6948337454421 161.84261417329643 L 953.4469600663891 162.4178918189475 L 952.1577974015615 162.89348903516517 L 950.8352938674783 163.26647360695935 L 949.487603138204 163.5345459604149 L 948.1230341752373 163.69605334032974 L 946.75 163.75 L 945.3769658247627 163.69605334032974 L 944.012396861796 163.5345459604149 L 942.6647061325217 163.26647360695935 L 941.3422025984385 162.8934890351652 L 940.0530399336109 162.4178918189475 L 938.8051662545579 161.84261417329643 L 937.6062751174709 161.17120287619662 L 936.4637580848818 160.4077974015616 L 935.3846591542218 159.55710439800055 L 934.3756313292354 158.62436867076457 L 933.4428956019995 157.6153408457782 L 932.5922025984385 156.5362419151183 L 931.8287971238034 155.3937248825291 L 931.1573858267036 154.19483374544208 L 930.5821081810525 152.94696006638907 L 930.1065109648348 151.6577974015616 L 929.7335263930406 150.33529386747836 L 929.4654540395851 148.98760313820404 L 929.3039466596703 147.62303417523728 L 929.25 146.25 L 929.3039466596703 144.87696582476272 L 929.4654540395851 143.51239686179596 L 929.7335263930406 142.16470613252164 L 930.1065109648348 140.84220259843843 L 930.5821081810525 139.55303993361093 L 931.1573858267036 138.30516625455795 L 931.8287971238034 137.1062751174709 L 932.5922025984385 135.96375808488173 L 933.4428956019995 134.8846591542218 L 934.3756313292354 133.87563132923543 L 935.3846591542218 132.94289560199945 L 936.4637580848818 132.09220259843843 L 937.6062751174709 131.32879712380338 L 938.8051662545579 130.65738582670355 L 940.053039933611 130.0821081810525 L 941.3422025984385 129.6065109648348 L 942.6647061325217 129.23352639304065 L 944.012396861796 128.9654540395851 L 945.3769658247628 128.80394665967026 L 946.7500000000001 128.75 L 948.1230341752373 128.80394665967026 L 949.4876031382041 128.9654540395851 L 950.8352938674784 129.23352639304068 L 952.1577974015617 129.60651096483485 L 953.4469600663891 130.08210818105252 L 954.6948337454421 130.6573858267036 L 955.8937248825292 131.32879712380344 L 957.0362419151184 132.0922025984385 L 958.1153408457783 132.94289560199954 L 959.1243686707646 133.87563132923552 L 960.0571043980007 134.8846591542219 L 960.9077974015617 135.96375808488185 L 961.6712028761967 137.10627511747103 L 962.3426141732965 138.3051662545581 L 962.9178918189476 139.5530399336111 L 963.3934890351652 140.8422025984386 L 963.7664736069594 142.16470613252184 L 964.0345459604149 143.51239686179616 L 964.1960533403297 144.87696582476292 Z" fill-opacity="1" stroke-opacity="1" stroke-miterlimit="10" stroke-width="2"/><text fill="rgb(255,255,255)" stroke="none" font-family="times new roman" font-size="10px" font-style="normal" font-weight="normal" text-decoration="normal" x="946.75" y="151.25" text-anchor="middle" dominant-baseline="text-after-edge" fill-opacity="1">*1.41</text><path fill="rgb(69,90,100)" stroke="rgb(76,175,80)" paint-order="fill stroke markers" d=" M 899.25 65.75 L 899.25 85.75 L 994.25 85.75 L 994.25 65.75 Z" fill-opacity="1" stroke-opacity="1" stroke-miterlimit="10" stroke-width="2"/><text fill="rgb(255,255,255)" stroke="none" font-family="times new roman" font-size="10px" font-style="normal" font-weight="normal" text-decoration="normal" x="946.75" y="80.75" text-anchor="middle" dominant-baseline="text-after-edge" fill-opacity="1">42127407T&gt;G</text><path fill="rgb(69,90,100)" stroke="rgb(76,175,80)" paint-order="fill stroke markers" d=" M 988.5 136.25 L 988.5 156.25 L 1083.5 156.25 L 1083.5 136.25 Z" fill-opacity="1" stroke-opacity="1" stroke-miterlimit="10" stroke-width="2"/><text fill="rgb(255,255,255)" stroke="none" font-family="times new roman" font-size="10px" font-style="normal" font-weight="normal" text-decoration="normal" x="1036" y="151.25" text-anchor="middle" dominant-baseline="text-after-edge" fill-opacity="1">42130047G&gt;C</text><path fill="rgb(69,90,100)" stroke="rgb(69,90,100)" paint-order="fill stroke markers" d=" M 466.75 395.75 L 448 413.25 L 466.75 430.75 L 504.25 430.75 L 523 413.25 L 504.25000000000006 395.75 Z" fill-opacity="1" stroke-opacity="1" stroke-miterlimit="10" stroke-width="2"/><text fill="rgb(255,255,255)" stroke="none" font-family="times new roman" font-size="10px" font-style="normal" font-weight="normal" text-decoration="normal" x="485.5" y="418.25" text-anchor="middle" dominant-baseline="text-after-edge" fill-opacity="1">HG03619-B</text><path fill="rgb(176,190,197)" stroke="none" paint-order="stroke fill markers" d=" M 143.5 176.62500000000003 L 143.5 386.625 L 218.5 386.625 L 218.5 176.62500000000006 Z" fill-opacity="0.8"/><text fill="rgb(0,0,0)" stroke="none" font-family="times new roman" font-size="10px" font-style="normal" font-weight="normal" text-decoration="normal" x="148.5" y="191.625" text-anchor="start" dominant-baseline="text-after-edge" fill-opacity="0.8">42126310C&gt;T </text><text fill="rgb(0,0,0)" stroke="none" font-family="times new roman" font-size="10px" font-style="normal" font-weight="normal" text-decoration="normal" x="148.5" y="201.625" text-anchor="start" dominant-baseline="text-after-edge" fill-opacity="0.8">42127001G&gt;A </text><text fill="rgb(0,0,0)" stroke="none" font-family="times new roman" font-size="10px" font-style="normal" font-weight="normal" text-decoration="normal" x="148.5" y="211.625" text-anchor="start" dominant-baseline="text-after-edge" fill-opacity="0.8">42127207C&gt;T </text><text fill="rgb(0,0,0)" stroke="none" font-family="times new roman" font-size="10px" font-style="normal" font-weight="normal" text-decoration="normal" x="148.5" y="221.625" text-anchor="start" dominant-baseline="text-after-edge" fill-opacity="0.8">42129130C&gt;G </text><text fill="rgb(0,0,0)" stroke="none" font-family="times new roman" font-size="10px" font-style="normal" font-weight="normal" text-decoration="normal" x="148.5" y="231.625" text-anchor="start" dominant-baseline="text-after-edge" fill-opacity="0.8">42131469C&gt;T </text><text fill="rgb(0,0,0)" stroke="none" font-family="times new roman" font-size="10px" font-style="normal" font-weight="normal" text-decoration="normal" x="148.5" y="241.625" text-anchor="start" dominant-baseline="text-after-edge" fill-opacity="0.8">42131531G&gt;A </text><text fill="rgb(0,0,0)" stroke="none" font-family="times new roman" font-size="10px" font-style="normal" font-weight="normal" text-decoration="normal" x="148.5" y="251.625" text-anchor="start" dominant-baseline="text-after-edge" fill-opacity="0.8">42132026T&gt;C </text><text fill="rgb(0,0,0)" stroke="none" font-family="times new roman" font-size="10px" font-style="normal" font-weight="normal" text-decoration="normal" x="148.5" y="261.625" text-anchor="start" dominant-baseline="text-after-edge" fill-opacity="0.8">42132375G&gt;C </text><path fill="rgb(176,190,197)" stroke="none" paint-order="stroke fill markers" d=" M 485.5 176.625 L 552.5 176.625 L 552.5 176.625 A 8 8 0 0 1 560.5 184.625 L 560.5 378.625 L 560.5 378.625 A 8 8 0 0 1 552.5 386.625 L 418.5 386.625 L 418.5 386.625 A 8 8 0 0 1 410.5 378.625 L 410.5 184.625 L 410.5 184.625 A 8 8 0 0 1 418.5 176.625 L 485.5 176.625 Z" fill-opacity="0.8"/><text fill="rgb(0,0,0)" stroke="none" font-family="times new roman" font-size="10px" font-style="normal" font-weight="normal" text-decoration="normal" x="415.5" y="191.625" text-anchor="start" dominant-baseline="text-after-edge" fill-opacity="0.8">42125924A&gt;G </text><text fill="rgb(0,0,0)" stroke="none" font-family="times new roman" font-size="10px" font-style="normal" font-weight="normal" text-decoration="normal" x="415.5" y="201.625" text-anchor="start" dominant-baseline="text-after-edge" fill-opacity="0.8">42126069A&gt;C </text><text fill="rgb(0,0,0)" stroke="none" font-family="times new roman" font-size="10px" font-style="normal" font-weight="normal" text-decoration="normal" x="415.5" y="211.625" text-anchor="start" dominant-baseline="text-after-edge" fill-opacity="0.8">42126136_42126138del </text><text fill="rgb(0,0,0)" stroke="none" font-family="times new roman" font-size="10px" font-style="normal" font-weight="normal" text-decoration="normal" x="415.5" y="221.625" text-anchor="start" dominant-baseline="text-after-edge" fill-opacity="0.8">42132025_42132026insCCTTTT </text><text fill="rgb(0,0,0)" stroke="none" font-family="times new roman" font-size="10px" font-style="normal" font-weight="normal" text-decoration="normal" x="415.5" y="231.625" text-anchor="start" dominant-baseline="text-after-edge" fill-opacity="0.8">42132027C&gt;T </text><text fill="rgb(0,0,0)" stroke="none" font-family="times new roman" font-size="10px" font-style="normal" font-weight="normal" text-decoration="normal" x="415.5" y="241.625" text-anchor="start" dominant-baseline="text-after-edge" fill-opacity="0.8">42132561C&gt;T </text><text fill="rgb(0,0,0)" stroke="none" font-family="times new roman" font-size="10px" font-style="normal" font-weight="normal" text-decoration="normal" x="415.5" y="251.625" text-anchor="start" dominant-baseline="text-after-edge" fill-opacity="0.8">42132844C&gt;A </text><text fill="rgb(0,0,0)" stroke="none" font-family="times new roman" font-size="10px" font-style="normal" font-weight="normal" text-decoration="normal" x="415.5" y="261.625" text-anchor="start" dominant-baseline="text-after-edge" fill-opacity="0.8">42132851T&gt;C </text><text fill="rgb(0,0,0)" stroke="none" font-family="times new roman" font-size="10px" font-style="normal" font-weight="normal" text-decoration="normal" x="415.5" y="271.625" text-anchor="start" dominant-baseline="text-after-edge" fill-opacity="0.8">42133400T&gt;G </text><text fill="rgb(0,0,0)" stroke="none" font-family="times new roman" font-size="10px" font-style="normal" font-weight="normal" text-decoration="normal" x="415.5" y="281.625" text-anchor="start" dominant-baseline="text-after-edge" fill-opacity="0.8">42133533A&gt;C </text><text fill="rgb(0,0,0)" stroke="none" font-family="times new roman" font-size="10px" font-style="normal" font-weight="normal" text-decoration="normal" x="415.5" y="291.625" text-anchor="start" dominant-baseline="text-after-edge" fill-opacity="0.8">42134096del </text><text fill="rgb(0,0,0)" stroke="none" font-family="times new roman" font-size="10px" font-style="normal" font-weight="normal" text-decoration="normal" x="415.5" y="301.625" text-anchor="start" dominant-baseline="text-after-edge" fill-opacity="0.8">42134820T&gt;G </text><text fill="rgb(0,0,0)" stroke="none" font-family="times new roman" font-size="10px" font-style="normal" font-weight="normal" text-decoration="normal" x="415.5" y="311.625" text-anchor="start" dominant-baseline="text-after-edge" fill-opacity="0.8">42135064_42135066dup </text><text fill="rgb(0,0,0)" stroke="none" font-family="times new roman" font-size="10px" font-style="normal" font-weight="normal" text-decoration="normal" x="415.5" y="321.625" text-anchor="start" dominant-baseline="text-after-edge" fill-opacity="0.8">42135201T&gt;C </text><text fill="rgb(0,0,0)" stroke="none" font-family="times new roman" font-size="10px" font-style="normal" font-weight="normal" text-decoration="normal" x="415.5" y="331.625" text-anchor="start" dominant-baseline="text-after-edge" fill-opacity="0.8">42135691T&gt;C </text><g transform="scale(0.9853709508881924,0.9853709508881924) translate(114.61558854718976,-55.87009544008484)"/></g></svg>