<svg version="1.1" xmlns="http://www.w3.org/2000/svg" xmlns:xlink="http://www.w3.org/1999/xlink" width="1017" height="608"><defs/><g transform="translate(-95.42481203007515,50.91729323308272) scale(1.9849624060150375,1.9849624060150375)"><path fill="none" stroke="rgb(120,144,156)" paint-order="fill stroke markers" d=" M 183.6734332470464 140.54724440180382 L 294.4686275041128 195.29918189014433" stroke-opacity="1" stroke-linejoin="round" stroke-miterlimit="10"/><path fill="rgb(120,144,156)" stroke="none" paint-order="stroke fill markers" d=" M 286.53485237065956 196.2306925620097 L 296.2616418764302 196.18524027459955 L 290.3892063430397 188.43108004242916 Z" fill-opacity="1"/><path fill="none" stroke="rgb(55,71,79)" paint-order="fill stroke markers" d=" M 122.09027777777777 61.25 L 148.19411522312478 107.09088526987767" stroke-opacity="1" stroke-linejoin="round" stroke-miterlimit="10" stroke-width="2"/><path fill="none" stroke="rgb(120,144,156)" paint-order="fill stroke markers" d=" M 273.6945754716981 142.25 L 307.1656624750018 188.62823820065609" stroke-opacity="1" stroke-linejoin="round" stroke-miterlimit="10"/><path fill="rgb(120,144,156)" stroke="none" paint-order="stroke fill markers" d=" M 299.71741541872245 185.74100495953635 L 308.33608490566036 190.25 L 306.77207924586855 180.6496673861715 Z" fill-opacity="1"/><path fill="none" stroke="rgb(120,144,156)" paint-order="fill stroke markers" d=" M 369.6804245283019 142.25 L 336.2093375249982 188.62823820065609" stroke-opacity="1" stroke-linejoin="round" stroke-miterlimit="10"/><path fill="rgb(120,144,156)" stroke="none" paint-order="stroke fill markers" d=" M 336.6029207541314 180.6496673861715 L 335.0389150943396 190.25 L 343.6575845812775 185.74100495953635 Z" fill-opacity="1"/><path fill="none" stroke="rgb(120,144,156)" paint-order="fill stroke markers" d=" M 465.66627358490564 142.25 L 349.5061897288732 195.9012805609562" stroke-opacity="1" stroke-linejoin="round" stroke-miterlimit="10"/><path fill="rgb(120,144,156)" stroke="none" paint-order="stroke fill markers" d=" M 353.76474745159464 189.14279063181897 L 347.690502585007 196.7398985881885 L 357.4127358700552 197.0410297076369 Z" fill-opacity="1"/><path fill="none" stroke="rgb(55,71,79)" paint-order="fill stroke markers" d=" M 196.79330831662975 66.0641902732356 L 173.43088477687522 107.09088526987767" stroke-opacity="1" stroke-linejoin="round" stroke-miterlimit="10" stroke-width="2"/><path fill="rgb(69,90,100)" stroke="rgb(117,117,117)" paint-order="fill stroke markers" d=" M 183.3125 129.25 L 183.24314000899537 131.0153296538765 L 183.0354876633906 132.76977546340518 L 182.69082320894773 134.50252068675786 L 182.21127161664094 136.20288237343632 L 181.59978948150396 137.86037722821453 L 180.8601467942383 139.46478624413982 L 179.99690369796707 141.00621770610886 L 179.01538237343632 142.47516817658064 L 177.9216342260007 143.86258108742913 L 176.72240257669733 145.1599025766973 L 175.42508108742913 146.3591342260007 L 174.03766817658064 147.45288237343632 L 172.56871770610886 148.43440369796707 L 171.02728624413982 149.2976467942383 L 169.42287722821453 150.03728948150396 L 167.76538237343632 150.64877161664094 L 166.06502068675786 151.12832320894773 L 164.33227546340518 151.4729876633906 L 162.5778296538765 151.68064000899537 L 160.8125 151.75 L 159.0471703461235 151.68064000899537 L 157.29272453659482 151.4729876633906 L 155.55997931324214 151.12832320894773 L 153.85961762656368 150.64877161664094 L 152.20212277178547 150.03728948150396 L 150.5977137558602 149.2976467942383 L 149.05628229389114 148.43440369796707 L 147.58733182341936 147.45288237343632 L 146.19991891257087 146.3591342260007 L 144.9025974233027 145.15990257669733 L 143.7033657739993 143.86258108742913 L 142.60961762656368 142.47516817658064 L 141.62809630203293 141.00621770610886 L 140.7648532057617 139.46478624413982 L 140.02521051849604 137.86037722821453 L 139.41372838335906 136.20288237343632 L 138.93417679105227 134.50252068675786 L 138.5895123366094 132.7697754634052 L 138.38185999100463 131.0153296538765 L 138.3125 129.25 L 138.38185999100463 127.4846703461235 L 138.5895123366094 125.7302245365948 L 138.93417679105227 123.99747931324214 L 139.41372838335906 122.29711762656369 L 140.02521051849604 120.63962277178548 L 140.7648532057617 119.0352137558602 L 141.62809630203293 117.49378229389116 L 142.60961762656368 116.02483182341936 L 143.7033657739993 114.63741891257087 L 144.90259742330267 113.34009742330268 L 146.19991891257087 112.14086577399931 L 147.58733182341936 111.04711762656369 L 149.05628229389114 110.06559630203293 L 150.5977137558602 109.20235320576171 L 152.2021227717855 108.46271051849604 L 153.8596176265637 107.85122838335903 L 155.55997931324217 107.37167679105227 L 157.29272453659485 107.02701233660939 L 159.04717034612355 106.81935999100462 L 160.81250000000009 106.75 L 162.5778296538766 106.81935999100463 L 164.3322754634053 107.02701233660942 L 166.06502068675798 107.3716767910523 L 167.76538237343644 107.85122838335909 L 169.42287722821465 108.4627105184961 L 171.02728624413993 109.20235320576178 L 172.56871770610897 110.065596302033 L 174.03766817658078 111.04711762656378 L 175.42508108742925 112.14086577399941 L 176.72240257669745 113.34009742330281 L 177.9216342260008 114.63741891257101 L 179.01538237343644 116.0248318234195 L 179.99690369796718 117.49378229389133 L 180.86014679423837 119.03521375586038 L 181.59978948150405 120.63962277178568 L 182.21127161664103 122.2971176265639 L 182.6908232089478 123.99747931324237 L 183.03548766339065 125.73022453659506 L 183.2431400089954 127.48467034612375 Z" fill-opacity="1" stroke-opacity="1" stroke-miterlimit="10" stroke-width="6"/><text fill="rgb(255,255,255)" stroke="none" font-family="times new roman" font-size="15px" font-style="normal" font-weight="normal" text-decoration="normal" x="160.8125" y="136.75" text-anchor="middle" dominant-baseline="text-after-edge" fill-opacity="1">*106</text><path fill="rgb(3,169,244)" stroke="none" paint-order="stroke fill markers" d=" M 160.8125 96.75 L 185.3125 96.75 L 185.3125 96.75 A 8 8 0 0 1 193.3125 104.75 L 193.3125 153.75 L 193.3125 153.75 A 8 8 0 0 1 185.3125 161.75 L 136.3125 161.75 L 136.3125 161.75 A 8 8 0 0 1 128.3125 153.75 L 128.3125 104.75 L 128.3125 104.75 A 8 8 0 0 1 136.3125 96.75 L 160.8125 96.75 Z" fill-opacity="0.15"/><path fill="rgb(69,90,100)" stroke="rgb(224,224,224)" paint-order="fill stroke markers" d=" M 493.8125 119.25 L 536.3125 119.25 L 536.3125 119.25 A 5 5 0 0 1 541.3125 124.25 L 541.3125 134.25 L 541.3125 134.25 A 5 5 0 0 1 536.3125 139.25 L 451.3125 139.25 L 451.3125 139.25 A 5 5 0 0 1 446.3125 134.25 L 446.3125 124.25 L 446.3125 124.25 A 5 5 0 0 1 451.3125 119.25 L 493.8125 119.25 Z" fill-opacity="1" stroke-opacity="1" stroke-miterlimit="10" stroke-width="6"/><text fill="rgb(255,255,255)" stroke="none" font-family="times new roman" font-size="10px" font-style="normal" font-weight="normal" text-decoration="normal" x="493.8125" y="134.25" text-anchor="middle" dominant-baseline="text-after-edge" fill-opacity="1">42134417G&gt;A</text><path fill="rgb(69,90,100)" stroke="rgb(158,158,158)" paint-order="fill stroke markers" d=" M 224.4375 48.25 L 224.38355334032974 49.62303417523729 L 224.2220459604149 50.98760313820404 L 223.95397360695935 52.33529386747834 L 223.58098903516517 53.65779740156158 L 223.1053918189475 54.94696006638907 L 222.53011417329643 56.19483374544207 L 221.85870287619662 57.393724882529106 L 221.0952974015616 58.53624191511828 L 220.24460439800055 59.61534084577821 L 219.31186867076457 60.62436867076458 L 218.3028408457782 61.55710439800054 L 217.22374191511827 62.40779740156158 L 216.0812248825291 63.17120287619662 L 214.88233374544208 63.84261417329644 L 213.63446006638907 64.41789181894751 L 212.3452974015616 64.89348903516519 L 211.02279386747836 65.26647360695934 L 209.67510313820404 65.5345459604149 L 208.31053417523728 65.69605334032974 L 206.9375 65.75 L 205.56446582476272 65.69605334032974 L 204.19989686179596 65.5345459604149 L 202.85220613252164 65.26647360695934 L 201.52970259843843 64.89348903516519 L 200.24053993361093 64.41789181894751 L 198.99266625455795 63.84261417329644 L 197.7937751174709 63.17120287619662 L 196.65125808488173 62.40779740156158 L 195.5721591542218 61.55710439800055 L 194.56313132923543 60.62436867076458 L 193.63039560199945 59.61534084577821 L 192.77970259843843 58.53624191511828 L 192.01629712380338 57.393724882529106 L 191.34488582670357 56.19483374544207 L 190.7696081810525 54.946960066389074 L 190.29401096483483 53.65779740156158 L 189.92102639304065 52.33529386747835 L 189.6529540395851 50.987603138204044 L 189.49144665967026 49.62303417523729 L 189.4375 48.25 L 189.49144665967026 46.87696582476271 L 189.6529540395851 45.51239686179596 L 189.92102639304065 44.16470613252166 L 190.2940109648348 42.84220259843842 L 190.7696081810525 41.55303993361093 L 191.34488582670357 40.30516625455793 L 192.01629712380338 39.1062751174709 L 192.7797025984384 37.96375808488172 L 193.63039560199945 36.88465915422179 L 194.5631313292354 35.87563132923542 L 195.57215915422177 34.94289560199947 L 196.6512580848817 34.09220259843842 L 197.7937751174709 33.32879712380338 L 198.99266625455795 32.65738582670356 L 200.24053993361096 32.082108181052476 L 201.52970259843843 31.606510964834804 L 202.8522061325217 31.233526393040652 L 204.199896861796 30.965454039585083 L 205.56446582476278 30.803946659670256 L 206.93750000000006 30.75 L 208.31053417523736 30.803946659670267 L 209.67510313820412 30.9654540395851 L 211.0227938674784 31.233526393040677 L 212.34529740156165 31.60651096483484 L 213.63446006638915 32.08210818105252 L 214.88233374544217 32.65738582670361 L 216.0812248825292 33.32879712380345 L 217.22374191511838 34.09220259843849 L 218.30284084577832 34.94289560199954 L 219.31186867076468 35.87563132923552 L 220.24460439800063 36.88465915422189 L 221.09529740156168 37.963758084881846 L 221.8587028761967 39.10627511747103 L 222.5301141732965 40.30516625455808 L 223.1053918189476 41.55303993361109 L 223.58098903516523 42.84220259843859 L 223.95397360695938 44.16470613252184 L 224.22204596041493 45.512396861796155 L 224.38355334032974 46.87696582476292 Z" fill-opacity="1" stroke-opacity="1" stroke-miterlimit="10" stroke-width="6"/><text fill="rgb(255,255,255)" stroke="none" font-family="times new roman" font-size="10px" font-style="normal" font-weight="normal" text-decoration="normal" x="206.9375" y="53.25" text-anchor="middle" dominant-baseline="text-after-edge" fill-opacity="1">*106.1</text><path fill="rgb(69,90,100)" stroke="rgb(224,224,224)" paint-order="fill stroke markers" d=" M 379.0625 119.25 L 421.5625 119.25 L 421.5625 119.25 A 5 5 0 0 1 426.5625 124.25 L 426.5625 134.25 L 426.5625 134.25 A 5 5 0 0 1 421.5625 139.25 L 336.5625 139.25 L 336.5625 139.25 A 5 5 0 0 1 331.5625 134.25 L 331.5625 124.25 L 331.5625 124.25 A 5 5 0 0 1 336.5625 119.25 L 379.0625 119.25 Z" fill-opacity="1" stroke-opacity="1" stroke-miterlimit="10" stroke-width="6"/><text fill="rgb(255,255,255)" stroke="none" font-family="times new roman" font-size="10px" font-style="normal" font-weight="normal" text-decoration="normal" x="379.0625" y="134.25" text-anchor="middle" dominant-baseline="text-after-edge" fill-opacity="1">42134321G&gt;A</text><path fill="rgb(69,90,100)" stroke="rgb(69,90,100)" paint-order="fill stroke markers" d=" M 302.9375 191.25 L 284.1875 208.75 L 302.9375 226.25 L 340.4375 226.25 L 359.1875 208.75 L 340.43750000000006 191.25000000000003 Z" fill-opacity="1" stroke-opacity="1" stroke-miterlimit="10" stroke-width="2"/><text fill="rgb(255,255,255)" stroke="none" font-family="times new roman" font-size="10px" font-style="normal" font-weight="normal" text-decoration="normal" x="321.6875" y="213.75" text-anchor="middle" dominant-baseline="text-after-edge" fill-opacity="1">HG03259-A</text><path fill="rgb(69,90,100)" stroke="rgb(158,158,158)" paint-order="fill stroke markers" d=" M 67.18750000000001 38.25 L 67.1875 58.25 L 162.18749999999997 58.25 L 162.1875 38.25 Z" fill-opacity="1" stroke-opacity="1" stroke-miterlimit="10" stroke-width="6"/><text fill="rgb(255,255,255)" stroke="none" font-family="times new roman" font-size="10px" font-style="normal" font-weight="normal" text-decoration="normal" x="114.6875" y="53.25" text-anchor="middle" dominant-baseline="text-after-edge" fill-opacity="1">42126914C&gt;T</text><path fill="rgb(69,90,100)" stroke="rgb(224,224,224)" paint-order="fill stroke markers" d=" M 264.3125 119.25 L 306.8125 119.25 L 306.8125 119.25 A 5 5 0 0 1 311.8125 124.25 L 311.8125 134.25 L 311.8125 134.25 A 5 5 0 0 1 306.8125 139.25 L 221.8125 139.25 L 221.8125 139.25 A 5 5 0 0 1 216.8125 134.25 L 216.8125 124.25 L 216.8125 124.25 A 5 5 0 0 1 221.8125 119.25 L 264.3125 119.25 Z" fill-opacity="1" stroke-opacity="1" stroke-miterlimit="10" stroke-width="6"/><text fill="rgb(255,255,255)" stroke="none" font-family="times new roman" font-size="10px" font-style="normal" font-weight="normal" text-decoration="normal" x="264.3125" y="134.25" text-anchor="middle" dominant-baseline="text-after-edge" fill-opacity="1">42125648_4212565…</text><g transform="scale(0.5037878787878788,0.5037878787878788) translate(95.42481203007515,-50.91729323308272)"/></g></svg>