<svg version="1.1" xmlns="http://www.w3.org/2000/svg" xmlns:xlink="http://www.w3.org/1999/xlink" width="1017" height="608"><defs/><g transform="translate(-98.12804284323272,-20.2804284323272) scale(1.8636806231742942,1.8636806231742942)"><path fill="none" stroke="rgb(120,144,156)" paint-order="fill stroke markers" d=" M 159.67857142857142 234.875 L 296.68505451857163 280.047427395616" stroke-opacity="1" stroke-linejoin="round" stroke-miterlimit="10"/><path fill="rgb(120,144,156)" stroke="none" paint-order="stroke fill markers" d=" M 288.95988190292985 282.0807026004367 L 298.5844755933068 280.6736857934454 L 291.68410593348756 273.8182209253386 Z" fill-opacity="1"/><path fill="none" stroke="rgb(55,71,79)" paint-order="fill stroke markers" d=" M 239.51919168337025 77.6891902732356 L 262.8816152231248 118.71588526987767" stroke-opacity="1" stroke-linejoin="round" stroke-miterlimit="10" stroke-width="2"/><path fill="none" stroke="rgb(120,144,156)" paint-order="fill stroke markers" d=" M 289.2289265661061 162.36375462520957 L 315.1362412652005 202.91433415422685" stroke-opacity="1" stroke-linejoin="round" stroke-miterlimit="10"/><path fill="rgb(120,144,156)" stroke="none" paint-order="stroke fill markers" d=" M 307.86330437843293 199.6102625688801 L 316.2130198194049 204.59972667385114 L 315.19476183879857 194.92627585809095 Z" fill-opacity="1"/><path fill="none" stroke="rgb(55,71,79)" paint-order="fill stroke markers" d=" M 314.22222222222223 72.875 L 288.1183847768752 118.71588526987767" stroke-opacity="1" stroke-linejoin="round" stroke-miterlimit="10" stroke-width="2"/><path fill="none" stroke="rgb(120,144,156)" paint-order="fill stroke markers" d=" M 252.57142857142856 234.875 L 303.88869936719743 272.8414361171948" stroke-opacity="1" stroke-linejoin="round" stroke-miterlimit="10"/><path fill="rgb(120,144,156)" stroke="none" paint-order="stroke fill markers" d=" M 295.915340259033 272.35353804151595 L 305.4965081631386 274.03095319386676 L 301.0897395425559 265.35956977917175 Z" fill-opacity="1"/><path fill="none" stroke="rgb(120,144,156)" paint-order="fill stroke markers" d=" M 327.25 242.375 L 327.25 269.625" stroke-opacity="1" stroke-linejoin="round" stroke-miterlimit="10"/><path fill="rgb(120,144,156)" stroke="none" paint-order="stroke fill markers" d=" M 322.9 262.925 L 327.25 271.625 L 331.6 262.925 Z" fill-opacity="1"/><path fill="none" stroke="rgb(120,144,156)" paint-order="fill stroke markers" d=" M 401.92857142857144 234.875 L 350.6113006328026 272.8414361171948" stroke-opacity="1" stroke-linejoin="round" stroke-miterlimit="10"/><path fill="rgb(120,144,156)" stroke="none" paint-order="stroke fill markers" d=" M 353.4102604574441 265.35956977917175 L 349.00349183686143 274.03095319386676 L 358.5846597409671 272.35353804151595 Z" fill-opacity="1"/><path fill="none" stroke="rgb(120,144,156)" paint-order="fill stroke markers" d=" M 499.6291208791209 232.875 L 357.76023426031054 279.9920389865392" stroke-opacity="1" stroke-linejoin="round" stroke-miterlimit="10"/><path fill="rgb(120,144,156)" stroke="none" paint-order="stroke fill markers" d=" M 362.74765921696036 273.7519995394054 L 355.8621760803431 280.6224159733167 L 365.4897991094425 282.0085526222637 Z" fill-opacity="1"/><path fill="none" stroke="rgb(120,144,156)" paint-order="fill stroke markers" d=" M 370.69444444444446 153.875 L 339.3637587347995 202.91433415422685" stroke-opacity="1" stroke-linejoin="round" stroke-miterlimit="10"/><path fill="rgb(120,144,156)" stroke="none" paint-order="stroke fill markers" d=" M 339.30523816120143 194.92627585809095 L 338.2869801805951 204.59972667385114 L 346.63669562156707 199.6102625688801 Z" fill-opacity="1"/><path fill="rgb(69,90,100)" stroke="rgb(224,224,224)" paint-order="fill stroke markers" d=" M 235 211.875 L 277.5 211.875 L 277.5 211.875 A 5 5 0 0 1 282.5 216.875 L 282.5 226.875 L 282.5 226.875 A 5 5 0 0 1 277.5 231.875 L 192.5 231.875 L 192.5 231.875 A 5 5 0 0 1 187.5 226.875 L 187.5 216.875 L 187.5 216.875 A 5 5 0 0 1 192.5 211.875 L 235 211.875 Z" fill-opacity="1" stroke-opacity="1" stroke-miterlimit="10" stroke-width="6"/><text fill="rgb(255,255,255)" stroke="none" font-family="times new roman" font-size="10px" font-style="normal" font-weight="normal" text-decoration="normal" x="235" y="226.875" text-anchor="middle" dominant-baseline="text-after-edge" fill-opacity="1">42132889A&gt;G</text><path fill="rgb(69,90,100)" stroke="rgb(69,90,100)" paint-order="fill stroke markers" d=" M 308.5 272.625 L 289.75 290.125 L 308.5 307.625 L 346 307.625 L 364.75 290.125 L 346.00000000000006 272.625 Z" fill-opacity="1" stroke-opacity="1" stroke-miterlimit="10" stroke-width="2"/><text fill="rgb(255,255,255)" stroke="none" font-family="times new roman" font-size="10px" font-style="normal" font-weight="normal" text-decoration="normal" x="327.25" y="295.125" text-anchor="middle" dominant-baseline="text-after-edge" fill-opacity="1">HG03246-A</text><path fill="rgb(69,90,100)" stroke="rgb(224,224,224)" paint-order="fill stroke markers" d=" M 120.25 211.875 L 162.75 211.875 L 162.75 211.875 A 5 5 0 0 1 167.75 216.875 L 167.75 226.875 L 167.75 226.875 A 5 5 0 0 1 162.75 231.875 L 77.75 231.875 L 77.75 231.875 A 5 5 0 0 1 72.75 226.875 L 72.75 216.875 L 72.75 216.875 A 5 5 0 0 1 77.75 211.875 L 120.25 211.875 Z" fill-opacity="1" stroke-opacity="1" stroke-miterlimit="10" stroke-width="6"/><text fill="rgb(255,255,255)" stroke="none" font-family="times new roman" font-size="10px" font-style="normal" font-weight="normal" text-decoration="normal" x="120.25" y="226.875" text-anchor="middle" dominant-baseline="text-after-edge" fill-opacity="1">42133625C&gt;T</text><path fill="rgb(69,90,100)" stroke="rgb(158,158,158)" paint-order="fill stroke markers" d=" M 274.125 49.875 L 274.125 69.875 L 369.125 69.875 L 369.125 49.875 Z" fill-opacity="1" stroke-opacity="1" stroke-miterlimit="10" stroke-width="6"/><text fill="rgb(255,255,255)" stroke="none" font-family="times new roman" font-size="10px" font-style="normal" font-weight="normal" text-decoration="normal" x="321.625" y="64.875" text-anchor="middle" dominant-baseline="text-after-edge" fill-opacity="1">42130715C&gt;T</text><path fill="rgb(69,90,100)" stroke="rgb(117,117,117)" paint-order="fill stroke markers" d=" M 344.75 221.875 L 344.69605334032974 223.24803417523728 L 344.5345459604149 224.61260313820404 L 344.2664736069593 225.96029386747836 L 343.8934890351652 227.28279740156157 L 343.4178918189475 228.57196006638907 L 342.84261417329645 229.81983374544205 L 342.1712028761966 231.0187248825291 L 341.4077974015616 232.16124191511827 L 340.55710439800055 233.2403408457782 L 339.62436867076457 234.24936867076457 L 338.61534084577823 235.18210439800055 L 337.5362419151183 236.0327974015616 L 336.3937248825291 236.79620287619662 L 335.19483374544205 237.46761417329643 L 333.94696006638907 238.0428918189475 L 332.6577974015616 238.51848903516517 L 331.33529386747836 238.89147360695935 L 329.98760313820407 239.1595459604149 L 328.6230341752373 239.32105334032974 L 327.25 239.375 L 325.8769658247627 239.32105334032974 L 324.51239686179593 239.1595459604149 L 323.16470613252164 238.89147360695935 L 321.8422025984384 238.5184890351652 L 320.55303993361093 238.0428918189475 L 319.30516625455795 237.46761417329643 L 318.1062751174709 236.79620287619662 L 316.9637580848817 236.0327974015616 L 315.88465915422177 235.18210439800055 L 314.87563132923543 234.24936867076457 L 313.94289560199945 233.2403408457782 L 313.0922025984384 232.1612419151183 L 312.3287971238034 231.0187248825291 L 311.65738582670355 229.81983374544208 L 311.0821081810525 228.57196006638907 L 310.6065109648348 227.2827974015616 L 310.2335263930407 225.96029386747836 L 309.9654540395851 224.61260313820404 L 309.80394665967026 223.24803417523728 L 309.75 221.875 L 309.80394665967026 220.50196582476272 L 309.9654540395851 219.13739686179596 L 310.2335263930407 217.78970613252164 L 310.6065109648348 216.46720259843843 L 311.0821081810525 215.17803993361093 L 311.65738582670355 213.93016625455795 L 312.3287971238034 212.7312751174709 L 313.0922025984384 211.58875808488173 L 313.94289560199945 210.5096591542218 L 314.87563132923543 209.50063132923543 L 315.88465915422177 208.56789560199945 L 316.9637580848817 207.71720259843843 L 318.1062751174709 206.95379712380338 L 319.30516625455795 206.28238582670355 L 320.55303993361093 205.7071081810525 L 321.84220259843846 205.2315109648348 L 323.1647061325217 204.85852639304065 L 324.512396861796 204.5904540395851 L 325.87696582476275 204.42894665967026 L 327.25000000000006 204.375 L 328.62303417523736 204.42894665967026 L 329.9876031382041 204.5904540395851 L 331.3352938674784 204.85852639304068 L 332.65779740156165 205.23151096483485 L 333.9469600663892 205.70710818105252 L 335.19483374544217 206.2823858267036 L 336.3937248825292 206.95379712380344 L 337.53624191511835 207.7172025984385 L 338.6153408457783 208.56789560199954 L 339.6243686707647 209.50063132923552 L 340.55710439800066 210.5096591542219 L 341.40779740156165 211.58875808488185 L 342.1712028761967 212.73127511747103 L 342.8426141732965 213.9301662545581 L 343.41789181894757 215.1780399336111 L 343.89348903516526 216.4672025984386 L 344.2664736069594 217.78970613252184 L 344.53454596041496 219.13739686179616 L 344.69605334032974 220.50196582476292 Z" fill-opacity="1" stroke-opacity="1" stroke-miterlimit="10" stroke-width="6"/><text fill="rgb(255,255,255)" stroke="none" font-family="times new roman" font-size="10px" font-style="normal" font-weight="normal" text-decoration="normal" x="327.25" y="226.875" text-anchor="middle" dominant-baseline="text-after-edge" fill-opacity="1">*43.2</text><path fill="rgb(69,90,100)" stroke="rgb(117,117,117)" paint-order="fill stroke markers" d=" M 246.875 59.875 L 246.82105334032974 61.24803417523729 L 246.6595459604149 62.61260313820404 L 246.39147360695935 63.96029386747834 L 246.01848903516517 65.28279740156158 L 245.5428918189475 66.57196006638907 L 244.96761417329643 67.81983374544207 L 244.29620287619662 69.0187248825291 L 243.5327974015616 70.16124191511828 L 242.68210439800055 71.2403408457782 L 241.74936867076457 72.24936867076458 L 240.7403408457782 73.18210439800055 L 239.66124191511827 74.03279740156158 L 238.5187248825291 74.79620287619662 L 237.31983374544208 75.46761417329644 L 236.07196006638907 76.04289181894751 L 234.7827974015616 76.51848903516519 L 233.46029386747836 76.89147360695934 L 232.11260313820404 77.1595459604149 L 230.74803417523728 77.32105334032974 L 229.375 77.375 L 228.00196582476272 77.32105334032974 L 226.63739686179596 77.1595459604149 L 225.28970613252164 76.89147360695934 L 223.96720259843843 76.51848903516519 L 222.67803993361093 76.04289181894751 L 221.43016625455795 75.46761417329644 L 220.2312751174709 74.79620287619662 L 219.08875808488173 74.03279740156158 L 218.0096591542218 73.18210439800055 L 217.00063132923543 72.24936867076458 L 216.06789560199945 71.24034084577822 L 215.21720259843843 70.16124191511828 L 214.45379712380338 69.01872488252911 L 213.78238582670357 67.81983374544207 L 213.2071081810525 66.57196006638907 L 212.73151096483483 65.28279740156158 L 212.35852639304065 63.96029386747835 L 212.0904540395851 62.612603138204044 L 211.92894665967026 61.24803417523729 L 211.875 59.875 L 211.92894665967026 58.50196582476271 L 212.0904540395851 57.13739686179596 L 212.35852639304065 55.78970613252166 L 212.7315109648348 54.46720259843842 L 213.2071081810525 53.17803993361093 L 213.78238582670357 51.93016625455793 L 214.45379712380338 50.7312751174709 L 215.2172025984384 49.58875808488172 L 216.06789560199945 48.50965915422179 L 217.0006313292354 47.50063132923542 L 218.00965915422177 46.56789560199947 L 219.0887580848817 45.71720259843842 L 220.2312751174709 44.95379712380338 L 221.43016625455795 44.28238582670356 L 222.67803993361096 43.707108181052476 L 223.96720259843843 43.231510964834804 L 225.2897061325217 42.85852639304065 L 226.637396861796 42.59045403958508 L 228.00196582476278 42.42894665967026 L 229.37500000000006 42.375 L 230.74803417523736 42.42894665967027 L 232.11260313820412 42.5904540395851 L 233.4602938674784 42.85852639304068 L 234.78279740156165 43.23151096483484 L 236.07196006638915 43.70710818105252 L 237.31983374544217 44.28238582670361 L 238.5187248825292 44.95379712380345 L 239.66124191511838 45.71720259843849 L 240.74034084577832 46.56789560199954 L 241.74936867076468 47.50063132923552 L 242.68210439800063 48.50965915422189 L 243.53279740156168 49.588758084881846 L 244.2962028761967 50.73127511747103 L 244.9676141732965 51.93016625455808 L 245.5428918189476 53.17803993361109 L 246.01848903516523 54.46720259843859 L 246.39147360695938 55.78970613252184 L 246.65954596041493 57.137396861796155 L 246.82105334032974 58.50196582476292 Z" fill-opacity="1" stroke-opacity="1" stroke-miterlimit="10" stroke-width="6"/><text fill="rgb(255,255,255)" stroke="none" font-family="times new roman" font-size="10px" font-style="normal" font-weight="normal" text-decoration="normal" x="229.375" y="64.875" text-anchor="middle" dominant-baseline="text-after-edge" fill-opacity="1">*43.1</text><path fill="rgb(69,90,100)" stroke="rgb(224,224,224)" paint-order="fill stroke markers" d=" M 485.25 211.875 L 485.25 231.875 L 580.25 231.875 L 580.25 211.875 Z" fill-opacity="1" stroke-opacity="1" stroke-miterlimit="10" stroke-width="2"/><text fill="rgb(255,255,255)" stroke="none" font-family="times new roman" font-size="10px" font-style="normal" font-weight="normal" text-decoration="normal" x="532.75" y="226.875" text-anchor="middle" dominant-baseline="text-after-edge" fill-opacity="1">42130809A&gt;C</text><path fill="rgb(69,90,100)" stroke="rgb(117,117,117)" paint-order="fill stroke markers" d=" M 298 140.875 L 297.9306400089954 142.6403296538765 L 297.7229876633906 144.39477546340518 L 297.37832320894773 146.12752068675786 L 296.89877161664094 147.82788237343632 L 296.28728948150393 149.48537722821453 L 295.5476467942383 151.08978624413982 L 294.68440369796707 152.63121770610886 L 293.7028823734363 154.10016817658064 L 292.6091342260007 155.48758108742913 L 291.40990257669733 156.7849025766973 L 290.11258108742913 157.9841342260007 L 288.72516817658067 159.07788237343632 L 287.2562177061088 160.05940369796707 L 285.7147862441398 160.9226467942383 L 284.11037722821453 161.66228948150396 L 282.4528823734363 162.27377161664094 L 280.75252068675786 162.75332320894773 L 279.0197754634052 163.0979876633906 L 277.2653296538765 163.30564000899537 L 275.5 163.375 L 273.7346703461235 163.30564000899537 L 271.9802245365948 163.0979876633906 L 270.24747931324214 162.75332320894773 L 268.5471176265637 162.27377161664094 L 266.88962277178547 161.66228948150396 L 265.2852137558602 160.9226467942383 L 263.7437822938912 160.05940369796707 L 262.27483182341933 159.07788237343632 L 260.88741891257087 157.9841342260007 L 259.59009742330267 156.78490257669733 L 258.3908657739993 155.48758108742913 L 257.2971176265637 154.10016817658064 L 256.31559630203293 152.63121770610886 L 255.4523532057617 151.08978624413982 L 254.71271051849604 149.48537722821453 L 254.10122838335906 147.82788237343632 L 253.62167679105227 146.12752068675786 L 253.2770123366094 144.3947754634052 L 253.06935999100463 142.6403296538765 L 253 140.875 L 253.06935999100463 139.1096703461235 L 253.2770123366094 137.35522453659482 L 253.62167679105227 135.62247931324214 L 254.10122838335906 133.92211762656368 L 254.71271051849604 132.26462277178547 L 255.4523532057617 130.6602137558602 L 256.31559630203293 129.11878229389114 L 257.2971176265637 127.64983182341936 L 258.3908657739993 126.26241891257087 L 259.59009742330267 124.96509742330268 L 260.88741891257087 123.76586577399931 L 262.27483182341933 122.67211762656369 L 263.7437822938912 121.69059630203293 L 265.28521375586024 120.82735320576171 L 266.8896227717855 120.08771051849604 L 268.5471176265637 119.47622838335903 L 270.2474793132422 118.99667679105227 L 271.98022453659485 118.65201233660939 L 273.73467034612355 118.44435999100462 L 275.50000000000006 118.375 L 277.2653296538766 118.44435999100463 L 279.01977546340527 118.65201233660942 L 280.752520686758 118.9966767910523 L 282.4528823734364 119.47622838335909 L 284.11037722821465 120.0877105184961 L 285.71478624413993 120.82735320576178 L 287.256217706109 121.690596302033 L 288.7251681765808 122.67211762656378 L 290.11258108742925 123.76586577399941 L 291.40990257669745 124.96509742330281 L 292.60913422600083 126.26241891257101 L 293.7028823734364 127.6498318234195 L 294.6844036979672 129.11878229389131 L 295.5476467942384 130.66021375586038 L 296.28728948150405 132.2646227717857 L 296.89877161664106 133.9221176265639 L 297.3783232089478 135.62247931324237 L 297.72298766339065 137.35522453659505 L 297.9306400089954 139.10967034612375 Z" fill-opacity="1" stroke-opacity="1" stroke-miterlimit="10" stroke-width="6"/><text fill="rgb(255,255,255)" stroke="none" font-family="times new roman" font-size="15px" font-style="normal" font-weight="normal" text-decoration="normal" x="275.5" y="148.375" text-anchor="middle" dominant-baseline="text-after-edge" fill-opacity="1">*43</text><path fill="rgb(3,169,244)" stroke="none" paint-order="stroke fill markers" d=" M 275.5 108.375 L 300 108.375 L 300 108.375 A 8 8 0 0 1 308 116.375 L 308 165.375 L 308 165.375 A 8 8 0 0 1 300 173.375 L 251 173.375 L 251 173.375 A 8 8 0 0 1 243 165.375 L 243 116.375 L 243 116.375 A 8 8 0 0 1 251 108.375 L 275.5 108.375 Z" fill-opacity="0.15"/><path fill="rgb(69,90,100)" stroke="rgb(224,224,224)" paint-order="fill stroke markers" d=" M 419.5 211.875 L 462 211.875 L 462 211.875 A 5 5 0 0 1 467 216.875 L 467 226.875 L 467 226.875 A 5 5 0 0 1 462 231.875 L 377 231.875 L 377 231.875 A 5 5 0 0 1 372 226.875 L 372 216.875 L 372 216.875 A 5 5 0 0 1 377 211.875 L 419.5 211.875 Z" fill-opacity="1" stroke-opacity="1" stroke-miterlimit="10" stroke-width="6"/><text fill="rgb(255,255,255)" stroke="none" font-family="times new roman" font-size="10px" font-style="normal" font-weight="normal" text-decoration="normal" x="419.5" y="226.875" text-anchor="middle" dominant-baseline="text-after-edge" fill-opacity="1">42134820T&gt;G</text><path fill="rgb(69,90,100)" stroke="rgb(76,175,80)" paint-order="fill stroke markers" d=" M 331.5 130.875 L 331.5 150.875 L 426.5 150.875 L 426.5 130.875 Z" fill-opacity="1" stroke-opacity="1" stroke-miterlimit="10" stroke-width="6"/><text fill="rgb(255,255,255)" stroke="none" font-family="times new roman" font-size="10px" font-style="normal" font-weight="normal" text-decoration="normal" x="379" y="145.875" text-anchor="middle" dominant-baseline="text-after-edge" fill-opacity="1">42130482C&gt;A</text><g transform="scale(0.5365726227795193,0.5365726227795193) translate(98.12804284323272,20.2804284323272)"/></g></svg>