<svg version="1.1" xmlns="http://www.w3.org/2000/svg" xmlns:xlink="http://www.w3.org/1999/xlink" width="1017" height="608"><defs/><g transform="translate(-116.4795918367347,86.94387755102042) scale(0.8877551020408163,0.8877551020408163)"><path fill="none" stroke="rgb(120,144,156)" paint-order="fill stroke markers" d=" M 241 292.0631443298969 L 644.5948407975575 404.4039763044747" stroke-opacity="1" stroke-linejoin="round" stroke-miterlimit="10"/><path fill="rgb(120,144,156)" stroke="none" paint-order="stroke fill markers" d=" M 636.9737461714258 406.79801404426627 L 646.5215917683915 404.940288430377 L 639.3067039191006 398.41664732113793 Z" fill-opacity="1"/><path fill="none" stroke="rgb(120,144,156)" paint-order="fill stroke markers" d=" M 401.875 309.8707081545065 L 646.8428515480693 402.1279140486827" stroke-opacity="1" stroke-linejoin="round" stroke-miterlimit="10"/><path fill="rgb(120,144,156)" stroke="none" paint-order="stroke fill markers" d=" M 639.0396404682767 403.83741597737463 L 648.7145176832128 402.83280118756187 L 642.1058995224009 395.69566828950065 Z" fill-opacity="1"/><path fill="none" stroke="rgb(120,144,156)" paint-order="fill stroke markers" d=" M 569.7687637457977 298.8194528280581 L 657.7766582227617 393.2866423125057" stroke-opacity="1" stroke-linejoin="round" stroke-miterlimit="10"/><path fill="rgb(120,144,156)" stroke="none" paint-order="stroke fill markers" d=" M 650.0268034611065 391.3495694761751 L 659.1399572649573 394.75 L 656.3924094017067 385.41921864262446 Z" fill-opacity="1"/><path fill="none" stroke="rgb(55,71,79)" paint-order="fill stroke markers" d=" M 438.0877659574468 86.75 L 463.1813019975086 126.39356954228255" stroke-opacity="1" stroke-linejoin="round" stroke-miterlimit="10" stroke-width="2"/><path fill="none" stroke="rgb(120,144,156)" paint-order="fill stroke markers" d=" M 487.4820822857631 166.61193127481 L 541.0194426260869 259.5301384039296" stroke-opacity="1" stroke-linejoin="round" stroke-miterlimit="10"/><path fill="rgb(120,144,156)" stroke="none" paint-order="stroke fill markers" d=" M 533.9054276320428 255.89650514443352 L 542.0179177142369 261.26306872519 L 541.4436745295257 251.55313851098083 Z" fill-opacity="1"/><path fill="none" stroke="rgb(55,71,79)" paint-order="fill stroke markers" d=" M 708.0417768064626 163.82001199271423 L 739.5178781107097 259.306336117363" stroke-opacity="1" stroke-linejoin="round" stroke-miterlimit="10" stroke-width="2"/><path fill="none" stroke="rgb(55,71,79)" paint-order="fill stroke markers" d=" M 510.4804930618685 91.38165801990523 L 488.3186980024914 126.39356954228255" stroke-opacity="1" stroke-linejoin="round" stroke-miterlimit="10" stroke-width="2"/><path fill="none" stroke="rgb(55,71,79)" paint-order="fill stroke markers" d=" M 553.75 164.75 L 553.75 258.125" stroke-opacity="1" stroke-linejoin="round" stroke-miterlimit="10" stroke-width="2"/><path fill="none" stroke="rgb(120,144,156)" paint-order="fill stroke markers" d=" M 1086.2901662049862 157.25 L 1129.8037911373249 262.67562819177346" stroke-opacity="1" stroke-linejoin="round" stroke-miterlimit="10"/><path fill="rgb(120,144,156)" stroke="none" paint-order="stroke fill markers" d=" M 1123.2266269058268 258.1420412375061 L 1130.566835904415 264.52434739257603 L 1131.268555429318 254.82279650066346 Z" fill-opacity="1"/><path fill="none" stroke="rgb(120,144,156)" paint-order="fill stroke markers" d=" M 275.5401662049861 157.25 L 282.7740050944056 174.77628079919742" stroke-opacity="1" stroke-linejoin="round" stroke-miterlimit="10"/><path fill="rgb(120,144,156)" stroke="none" paint-order="stroke fill markers" d=" M 276.19684086290755 170.24269384493007 L 283.53704986149586 176.625 L 284.2387693863988 166.92344910808742 Z" fill-opacity="1"/><path fill="none" stroke="rgb(55,71,79)" paint-order="fill stroke markers" d=" M 787.8739612188366 157.25 L 754.2321218892903 259.306336117363" stroke-opacity="1" stroke-linejoin="round" stroke-miterlimit="10" stroke-width="2"/><path fill="none" stroke="rgb(120,144,156)" paint-order="fill stroke markers" d=" M 735.7794346314668 302.34065661891043 L 687.2281353444517 392.98696539413527" stroke-opacity="1" stroke-linejoin="round" stroke-miterlimit="10"/><path fill="rgb(120,144,156)" stroke="none" paint-order="stroke fill markers" d=" M 686.5569515860225 385.02693949201534 L 686.2838319088319 394.75 L 694.2261521215339 389.13465943696167 Z" fill-opacity="1"/><path fill="none" stroke="rgb(120,144,156)" paint-order="fill stroke markers" d=" M 1188.9598337950138 157.25 L 1145.4462088626751 262.67562819177346" stroke-opacity="1" stroke-linejoin="round" stroke-miterlimit="10"/><path fill="rgb(120,144,156)" stroke="none" paint-order="stroke fill markers" d=" M 1143.981444570682 254.82279650066346 L 1144.683164095585 264.52434739257603 L 1152.0233730941732 258.1420412375061 Z" fill-opacity="1"/><path fill="none" stroke="rgb(120,144,156)" paint-order="fill stroke markers" d=" M 886.5417768064626 163.82001199271423 L 918.9570851604063 262.1555272513167" stroke-opacity="1" stroke-linejoin="round" stroke-miterlimit="10"/><path fill="rgb(120,144,156)" stroke="none" paint-order="stroke fill markers" d=" M 912.7281956051843 257.1541839408803 L 919.5832231935374 264.0549880072858 L 920.99084989365 254.43048349676005 Z" fill-opacity="1"/><path fill="none" stroke="rgb(55,71,79)" paint-order="fill stroke markers" d=" M 880.75 86.75 L 880.75 127.75" stroke-opacity="1" stroke-linejoin="round" stroke-miterlimit="10" stroke-width="2"/><path fill="none" stroke="rgb(120,144,156)" paint-order="fill stroke markers" d=" M 966.3739612188366 157.25 L 931.7929148395937 262.1555272513167" stroke-opacity="1" stroke-linejoin="round" stroke-miterlimit="10"/><path fill="rgb(120,144,156)" stroke="none" paint-order="stroke fill markers" d=" M 929.75915010635 254.43048349676005 L 931.1667768064626 264.0549880072858 L 938.0218043948157 257.1541839408803 Z" fill-opacity="1"/><path fill="none" stroke="rgb(120,144,156)" paint-order="fill stroke markers" d=" M 909.0195343695246 290.2707355968326 L 702.9811506474754 399.1856041005063" stroke-opacity="1" stroke-linejoin="round" stroke-miterlimit="10"/><path fill="rgb(120,144,156)" stroke="none" paint-order="stroke fill markers" d=" M 706.8715652354733 392.2087011820551 L 701.2129922009375 400.12027821908276 L 710.9373976512811 399.9001904244949 Z" fill-opacity="1"/><path fill="none" stroke="rgb(120,144,156)" paint-order="fill stroke markers" d=" M 620.0179177142369 166.61193127481 L 566.4805573739131 259.5301384039296" stroke-opacity="1" stroke-linejoin="round" stroke-miterlimit="10"/><path fill="rgb(120,144,156)" stroke="none" paint-order="stroke fill markers" d=" M 566.0563254704745 251.55313851098083 L 565.4820822857631 261.26306872519 L 573.5945723679572 255.89650514443352 Z" fill-opacity="1"/><path fill="none" stroke="rgb(120,144,156)" paint-order="fill stroke markers" d=" M 1119.835170539767 286.70160987035916 L 707.9836043587238 404.22998363421783" stroke-opacity="1" stroke-linejoin="round" stroke-miterlimit="10"/><path fill="rgb(120,144,156)" stroke="none" paint-order="stroke fill markers" d=" M 713.2327181126427 398.2084136729519 L 706.0603795522122 404.7788063229053 L 715.6200968084332 406.57444158127765 Z" fill-opacity="1"/><path fill="none" stroke="rgb(120,144,156)" paint-order="fill stroke markers" d=" M 378.2098337950139 157.25 L 370.9759949055944 174.77628079919742" stroke-opacity="1" stroke-linejoin="round" stroke-miterlimit="10"/><path fill="rgb(120,144,156)" stroke="none" paint-order="stroke fill markers" d=" M 369.5112306136012 166.92344910808742 L 370.21295013850414 176.625 L 377.55315913709245 170.24269384493007 Z" fill-opacity="1"/><path fill="none" stroke="rgb(55,71,79)" paint-order="fill stroke markers" d=" M 597.0195069381315 91.38165801990523 L 619.1813019975086 126.39356954228255" stroke-opacity="1" stroke-linejoin="round" stroke-miterlimit="10" stroke-width="2"/><path fill="none" stroke="rgb(55,71,79)" paint-order="fill stroke markers" d=" M 689.6675531914893 86.75 L 648.1415718959026 129.41057094847167" stroke-opacity="1" stroke-linejoin="round" stroke-miterlimit="10" stroke-width="2"/><path fill="rgb(69,90,100)" stroke="rgb(76,175,80)" paint-order="fill stroke markers" d=" M 898.25 146.25 L 898.1960533403297 147.62303417523728 L 898.0345459604149 148.98760313820404 L 897.7664736069594 150.33529386747836 L 897.3934890351652 151.65779740156157 L 896.9178918189475 152.94696006638907 L 896.3426141732964 154.19483374544205 L 895.6712028761966 155.3937248825291 L 894.9077974015615 156.53624191511827 L 894.0571043980005 157.6153408457782 L 893.1243686707646 158.62436867076457 L 892.1153408457782 159.55710439800055 L 891.0362419151182 160.4077974015616 L 889.8937248825291 161.17120287619662 L 888.6948337454421 161.84261417329643 L 887.4469600663891 162.4178918189475 L 886.1577974015615 162.89348903516517 L 884.8352938674783 163.26647360695935 L 883.487603138204 163.5345459604149 L 882.1230341752373 163.69605334032974 L 880.75 163.75 L 879.3769658247627 163.69605334032974 L 878.012396861796 163.5345459604149 L 876.6647061325217 163.26647360695935 L 875.3422025984385 162.8934890351652 L 874.0530399336109 162.4178918189475 L 872.8051662545579 161.84261417329643 L 871.6062751174709 161.17120287619662 L 870.4637580848818 160.4077974015616 L 869.3846591542218 159.55710439800055 L 868.3756313292354 158.62436867076457 L 867.4428956019995 157.6153408457782 L 866.5922025984385 156.5362419151183 L 865.8287971238034 155.3937248825291 L 865.1573858267036 154.19483374544208 L 864.5821081810525 152.94696006638907 L 864.1065109648348 151.6577974015616 L 863.7335263930406 150.33529386747836 L 863.4654540395851 148.98760313820404 L 863.3039466596703 147.62303417523728 L 863.25 146.25 L 863.3039466596703 144.87696582476272 L 863.4654540395851 143.51239686179596 L 863.7335263930406 142.16470613252164 L 864.1065109648348 140.84220259843843 L 864.5821081810525 139.55303993361093 L 865.1573858267036 138.30516625455795 L 865.8287971238034 137.1062751174709 L 866.5922025984385 135.96375808488173 L 867.4428956019995 134.8846591542218 L 868.3756313292354 133.87563132923543 L 869.3846591542218 132.94289560199945 L 870.4637580848818 132.09220259843843 L 871.6062751174709 131.32879712380338 L 872.8051662545579 130.65738582670355 L 874.053039933611 130.0821081810525 L 875.3422025984385 129.6065109648348 L 876.6647061325217 129.23352639304065 L 878.012396861796 128.9654540395851 L 879.3769658247628 128.80394665967026 L 880.7500000000001 128.75 L 882.1230341752373 128.80394665967026 L 883.4876031382041 128.9654540395851 L 884.8352938674784 129.23352639304068 L 886.1577974015617 129.60651096483485 L 887.4469600663891 130.08210818105252 L 888.6948337454421 130.6573858267036 L 889.8937248825292 131.32879712380344 L 891.0362419151184 132.0922025984385 L 892.1153408457783 132.94289560199954 L 893.1243686707646 133.87563132923552 L 894.0571043980007 134.8846591542219 L 894.9077974015617 135.96375808488185 L 895.6712028761967 137.10627511747103 L 896.3426141732965 138.3051662545581 L 896.9178918189476 139.5530399336111 L 897.3934890351652 140.8422025984386 L 897.7664736069594 142.16470613252184 L 898.0345459604149 143.51239686179616 L 898.1960533403297 144.87696582476292 Z" fill-opacity="1" stroke-opacity="1" stroke-miterlimit="10" stroke-width="2"/><text fill="rgb(255,255,255)" stroke="none" font-family="times new roman" font-size="10px" font-style="normal" font-weight="normal" text-decoration="normal" x="880.75" y="151.25" text-anchor="middle" dominant-baseline="text-after-edge" fill-opacity="1">*1.41</text><path fill="rgb(69,90,100)" stroke="rgb(158,158,158)" paint-order="fill stroke markers" d=" M 652.875 65.75 L 652.875 85.75 L 747.875 85.75 L 747.875 65.75 Z" fill-opacity="1" stroke-opacity="1" stroke-miterlimit="10" stroke-width="2"/><text fill="rgb(255,255,255)" stroke="none" font-family="times new roman" font-size="10px" font-style="normal" font-weight="normal" text-decoration="normal" x="700.375" y="80.75" text-anchor="middle" dominant-baseline="text-after-edge" fill-opacity="1">42126611C&gt;G</text><path fill="rgb(69,90,100)" stroke="rgb(76,175,80)" paint-order="fill stroke markers" d=" M 571.25 146.25 L 571.1960533403297 147.62303417523728 L 571.0345459604149 148.98760313820404 L 570.7664736069594 150.33529386747836 L 570.3934890351652 151.65779740156157 L 569.9178918189475 152.94696006638907 L 569.3426141732964 154.19483374544205 L 568.6712028761966 155.3937248825291 L 567.9077974015615 156.53624191511827 L 567.0571043980005 157.6153408457782 L 566.1243686707646 158.62436867076457 L 565.1153408457782 159.55710439800055 L 564.0362419151182 160.4077974015616 L 562.8937248825291 161.17120287619662 L 561.6948337454421 161.84261417329643 L 560.4469600663891 162.4178918189475 L 559.1577974015615 162.89348903516517 L 557.8352938674783 163.26647360695935 L 556.487603138204 163.5345459604149 L 555.1230341752373 163.69605334032974 L 553.75 163.75 L 552.3769658247627 163.69605334032974 L 551.012396861796 163.5345459604149 L 549.6647061325217 163.26647360695935 L 548.3422025984385 162.8934890351652 L 547.0530399336109 162.4178918189475 L 545.8051662545579 161.84261417329643 L 544.6062751174709 161.17120287619662 L 543.4637580848818 160.4077974015616 L 542.3846591542218 159.55710439800055 L 541.3756313292354 158.62436867076457 L 540.4428956019995 157.6153408457782 L 539.5922025984385 156.5362419151183 L 538.8287971238034 155.3937248825291 L 538.1573858267036 154.19483374544208 L 537.5821081810525 152.94696006638907 L 537.1065109648348 151.6577974015616 L 536.7335263930406 150.33529386747836 L 536.4654540395851 148.98760313820404 L 536.3039466596703 147.62303417523728 L 536.25 146.25 L 536.3039466596703 144.87696582476272 L 536.4654540395851 143.51239686179596 L 536.7335263930406 142.16470613252164 L 537.1065109648348 140.84220259843843 L 537.5821081810525 139.55303993361093 L 538.1573858267036 138.30516625455795 L 538.8287971238034 137.1062751174709 L 539.5922025984385 135.96375808488173 L 540.4428956019995 134.8846591542218 L 541.3756313292354 133.87563132923543 L 542.3846591542218 132.94289560199945 L 543.4637580848818 132.09220259843843 L 544.6062751174709 131.32879712380338 L 545.8051662545579 130.65738582670355 L 547.053039933611 130.0821081810525 L 548.3422025984385 129.6065109648348 L 549.6647061325217 129.23352639304065 L 551.012396861796 128.9654540395851 L 552.3769658247628 128.80394665967026 L 553.7500000000001 128.75 L 555.1230341752373 128.80394665967026 L 556.4876031382041 128.9654540395851 L 557.8352938674784 129.23352639304068 L 559.1577974015617 129.60651096483485 L 560.4469600663891 130.08210818105252 L 561.6948337454421 130.6573858267036 L 562.8937248825292 131.32879712380344 L 564.0362419151184 132.0922025984385 L 565.1153408457783 132.94289560199954 L 566.1243686707646 133.87563132923552 L 567.0571043980007 134.8846591542219 L 567.9077974015617 135.96375808488185 L 568.6712028761967 137.10627511747103 L 569.3426141732965 138.3051662545581 L 569.9178918189476 139.5530399336111 L 570.3934890351652 140.8422025984386 L 570.7664736069594 142.16470613252184 L 571.0345459604149 143.51239686179616 L 571.1960533403297 144.87696582476292 Z" fill-opacity="1" stroke-opacity="1" stroke-miterlimit="10" stroke-width="2"/><text fill="rgb(255,255,255)" stroke="none" font-family="times new roman" font-size="10px" font-style="normal" font-weight="normal" text-decoration="normal" x="553.75" y="151.25" text-anchor="middle" dominant-baseline="text-after-edge" fill-opacity="1">*2.4</text><path fill="rgb(69,90,100)" stroke="rgb(76,175,80)" paint-order="fill stroke markers" d=" M 942.875 281.625 L 942.8210533403297 282.9980341752373 L 942.6595459604149 284.36260313820407 L 942.3914736069594 285.71029386747836 L 942.0184890351652 287.0327974015616 L 941.5428918189475 288.32196006638907 L 940.9676141732964 289.56983374544205 L 940.2962028761966 290.7687248825291 L 939.5327974015615 291.9112419151183 L 938.6821043980005 292.99034084577823 L 937.7493686707646 293.99936867076457 L 936.7403408457782 294.93210439800055 L 935.6612419151182 295.7827974015616 L 934.5187248825291 296.5462028761966 L 933.3198337454421 297.21761417329645 L 932.0719600663891 297.7928918189475 L 930.7827974015615 298.2684890351652 L 929.4602938674783 298.6414736069593 L 928.112603138204 298.9095459604149 L 926.7480341752373 299.07105334032974 L 925.375 299.125 L 924.0019658247627 299.07105334032974 L 922.637396861796 298.9095459604149 L 921.2897061325217 298.6414736069593 L 919.9672025984385 298.2684890351652 L 918.6780399336109 297.7928918189475 L 917.4301662545579 297.21761417329645 L 916.2312751174709 296.5462028761966 L 915.0887580848818 295.7827974015616 L 914.0096591542218 294.93210439800055 L 913.0006313292354 293.99936867076457 L 912.0678956019995 292.99034084577823 L 911.2172025984385 291.9112419151183 L 910.4537971238034 290.7687248825291 L 909.7823858267036 289.56983374544205 L 909.2071081810525 288.32196006638907 L 908.7315109648348 287.0327974015616 L 908.3585263930406 285.71029386747836 L 908.0904540395851 284.36260313820407 L 907.9289466596703 282.9980341752373 L 907.875 281.625 L 907.9289466596703 280.2519658247627 L 908.0904540395851 278.88739686179593 L 908.3585263930406 277.53970613252164 L 908.7315109648348 276.2172025984384 L 909.2071081810525 274.92803993361093 L 909.7823858267036 273.68016625455795 L 910.4537971238034 272.4812751174709 L 911.2172025984385 271.3387580848817 L 912.0678956019995 270.25965915422177 L 913.0006313292354 269.25063132923543 L 914.0096591542218 268.31789560199945 L 915.0887580848818 267.4672025984384 L 916.2312751174709 266.7037971238034 L 917.4301662545579 266.03238582670355 L 918.678039933611 265.4571081810525 L 919.9672025984385 264.9815109648348 L 921.2897061325217 264.6085263930407 L 922.637396861796 264.3404540395851 L 924.0019658247628 264.17894665967026 L 925.3750000000001 264.125 L 926.7480341752373 264.17894665967026 L 928.1126031382041 264.3404540395851 L 929.4602938674784 264.6085263930407 L 930.7827974015617 264.98151096483485 L 932.0719600663891 265.4571081810525 L 933.3198337454421 266.0323858267036 L 934.5187248825292 266.70379712380344 L 935.6612419151184 267.4672025984385 L 936.7403408457783 268.31789560199957 L 937.7493686707646 269.2506313292355 L 938.6821043980007 270.2596591542219 L 939.5327974015617 271.3387580848818 L 940.2962028761967 272.48127511747106 L 940.9676141732965 273.68016625455806 L 941.5428918189476 274.9280399336111 L 942.0184890351652 276.2172025984386 L 942.3914736069594 277.5397061325218 L 942.6595459604149 278.88739686179616 L 942.8210533403297 280.2519658247629 Z" fill-opacity="1" stroke-opacity="1" stroke-miterlimit="10" stroke-width="2"/><text fill="rgb(255,255,255)" stroke="none" font-family="times new roman" font-size="10px" font-style="normal" font-weight="normal" text-decoration="normal" x="925.375" y="286.625" text-anchor="middle" dominant-baseline="text-after-edge" fill-opacity="1">*1.54</text><path fill="rgb(69,90,100)" stroke="rgb(76,175,80)" paint-order="fill stroke markers" d=" M 576.25 281.625 L 576.1806400089954 283.3903296538765 L 575.9729876633907 285.1447754634052 L 575.6283232089477 286.87752068675786 L 575.1487716166409 288.5778823734363 L 574.537289481504 290.23537722821453 L 573.7976467942383 291.8397862441398 L 572.9344036979671 293.3812177061088 L 571.9528823734363 294.85016817658067 L 570.8591342260007 296.23758108742913 L 569.6599025766973 297.53490257669733 L 568.3625810874291 298.7341342260007 L 566.9751681765806 299.8278823734363 L 565.5062177061088 300.80940369796707 L 563.9647862441398 301.6726467942383 L 562.3603772282145 302.41228948150393 L 560.7028823734363 303.02377161664094 L 559.0025206867579 303.50332320894773 L 557.2697754634052 303.8479876633906 L 555.5153296538765 304.0556400089954 L 553.75 304.125 L 551.9846703461235 304.0556400089954 L 550.2302245365948 303.8479876633906 L 548.4974793132421 303.50332320894773 L 546.7971176265637 303.02377161664094 L 545.1396227717855 302.41228948150393 L 543.5352137558602 301.6726467942383 L 541.9937822938912 300.80940369796707 L 540.5248318234194 299.8278823734363 L 539.1374189125709 298.7341342260007 L 537.8400974233027 297.53490257669733 L 536.6408657739993 296.23758108742913 L 535.5471176265637 294.85016817658067 L 534.5655963020329 293.3812177061088 L 533.7023532057617 291.8397862441398 L 532.962710518496 290.23537722821453 L 532.3512283833591 288.5778823734363 L 531.8716767910523 286.87752068675786 L 531.5270123366095 285.1447754634052 L 531.3193599910046 283.3903296538765 L 531.25 281.625 L 531.3193599910046 279.8596703461235 L 531.5270123366093 278.1052245365948 L 531.8716767910523 276.37247931324214 L 532.3512283833591 274.6721176265637 L 532.962710518496 273.01462277178547 L 533.7023532057617 271.4102137558602 L 534.5655963020329 269.8687822938912 L 535.5471176265637 268.39983182341933 L 536.6408657739993 267.01241891257087 L 537.8400974233027 265.71509742330267 L 539.1374189125709 264.51586577399934 L 540.5248318234194 263.4221176265637 L 541.9937822938912 262.44059630203293 L 543.5352137558602 261.5773532057617 L 545.1396227717855 260.837710518496 L 546.7971176265637 260.22622838335906 L 548.4974793132421 259.74667679105227 L 550.2302245365948 259.4020123366094 L 551.9846703461236 259.1943599910046 L 553.7500000000001 259.125 L 555.5153296538766 259.1943599910046 L 557.2697754634053 259.4020123366094 L 559.002520686758 259.7466767910523 L 560.7028823734364 260.22622838335906 L 562.3603772282146 260.8377105184961 L 563.9647862441399 261.57735320576177 L 565.5062177061089 262.440596302033 L 566.9751681765807 263.42211762656376 L 568.3625810874292 264.5158657739994 L 569.6599025766974 265.7150974233028 L 570.8591342260008 267.012418912571 L 571.9528823734364 268.3998318234195 L 572.9344036979671 269.86878229389134 L 573.7976467942384 271.4102137558604 L 574.537289481504 273.0146227717857 L 575.148771616641 274.67211762656393 L 575.6283232089478 276.37247931324237 L 575.9729876633907 278.1052245365951 L 576.1806400089954 279.8596703461238 Z" fill-opacity="1" stroke-opacity="1" stroke-miterlimit="10" stroke-width="2"/><text fill="rgb(255,255,255)" stroke="none" font-family="times new roman" font-size="15px" font-style="normal" font-weight="normal" text-decoration="normal" x="553.75" y="289.125" text-anchor="middle" dominant-baseline="text-after-edge" fill-opacity="1">*2</text><path fill="rgb(3,169,244)" stroke="none" paint-order="stroke fill markers" d=" M 553.75 249.125 L 578.25 249.125 L 578.25 249.125 A 8 8 0 0 1 586.25 257.125 L 586.25 306.125 L 586.25 306.125 A 8 8 0 0 1 578.25 314.125 L 529.25 314.125 L 529.25 314.125 A 8 8 0 0 1 521.25 306.125 L 521.25 257.125 L 521.25 257.125 A 8 8 0 0 1 529.25 249.125 L 553.75 249.125 Z" fill-opacity="0.15"/><path fill="rgb(69,90,100)" stroke="rgb(158,158,158)" paint-order="fill stroke markers" d=" M 383.625 65.75 L 383.625 85.75 L 478.625 85.75 L 478.625 65.75 Z" fill-opacity="1" stroke-opacity="1" stroke-miterlimit="10" stroke-width="2"/><text fill="rgb(255,255,255)" stroke="none" font-family="times new roman" font-size="10px" font-style="normal" font-weight="normal" text-decoration="normal" x="431.125" y="80.75" text-anchor="middle" dominant-baseline="text-after-edge" fill-opacity="1">42127941G&gt;A</text><path fill="rgb(69,90,100)" stroke="rgb(76,175,80)" paint-order="fill stroke markers" d=" M 1155.125 281.625 L 1155.0710533403299 282.9980341752373 L 1154.909545960415 284.36260313820407 L 1154.6414736069594 285.71029386747836 L 1154.2684890351652 287.0327974015616 L 1153.7928918189475 288.32196006638907 L 1153.2176141732964 289.56983374544205 L 1152.5462028761965 290.7687248825291 L 1151.7827974015615 291.9112419151183 L 1150.9321043980005 292.99034084577823 L 1149.9993686707646 293.99936867076457 L 1148.9903408457783 294.93210439800055 L 1147.9112419151184 295.7827974015616 L 1146.768724882529 296.5462028761966 L 1145.569833745442 297.21761417329645 L 1144.321960066389 297.7928918189475 L 1143.0327974015615 298.2684890351652 L 1141.7102938674784 298.6414736069593 L 1140.3626031382041 298.9095459604149 L 1138.9980341752373 299.07105334032974 L 1137.625 299.125 L 1136.2519658247627 299.07105334032974 L 1134.8873968617959 298.9095459604149 L 1133.5397061325216 298.6414736069593 L 1132.2172025984385 298.2684890351652 L 1130.928039933611 297.7928918189475 L 1129.680166254558 297.21761417329645 L 1128.481275117471 296.5462028761966 L 1127.3387580848816 295.7827974015616 L 1126.2596591542217 294.93210439800055 L 1125.2506313292354 293.99936867076457 L 1124.3178956019995 292.99034084577823 L 1123.4672025984385 291.9112419151183 L 1122.7037971238035 290.7687248825291 L 1122.0323858267036 289.56983374544205 L 1121.4571081810525 288.32196006638907 L 1120.9815109648348 287.0327974015616 L 1120.6085263930406 285.71029386747836 L 1120.340454039585 284.36260313820407 L 1120.1789466596701 282.9980341752373 L 1120.125 281.625 L 1120.1789466596701 280.2519658247627 L 1120.340454039585 278.88739686179593 L 1120.6085263930406 277.53970613252164 L 1120.9815109648348 276.2172025984384 L 1121.4571081810525 274.92803993361093 L 1122.0323858267036 273.68016625455795 L 1122.7037971238035 272.4812751174709 L 1123.4672025984385 271.3387580848817 L 1124.3178956019995 270.25965915422177 L 1125.2506313292354 269.25063132923543 L 1126.2596591542217 268.31789560199945 L 1127.3387580848816 267.4672025984384 L 1128.481275117471 266.7037971238034 L 1129.680166254558 266.03238582670355 L 1130.928039933611 265.4571081810525 L 1132.2172025984385 264.9815109648348 L 1133.5397061325216 264.6085263930407 L 1134.887396861796 264.3404540395851 L 1136.2519658247627 264.17894665967026 L 1137.625 264.125 L 1138.9980341752373 264.17894665967026 L 1140.3626031382041 264.3404540395851 L 1141.7102938674784 264.6085263930407 L 1143.0327974015618 264.98151096483485 L 1144.3219600663892 265.4571081810525 L 1145.569833745442 266.0323858267036 L 1146.768724882529 266.70379712380344 L 1147.9112419151184 267.4672025984385 L 1148.9903408457783 268.31789560199957 L 1149.9993686707646 269.2506313292355 L 1150.9321043980005 270.2596591542219 L 1151.7827974015618 271.3387580848818 L 1152.5462028761967 272.48127511747106 L 1153.2176141732966 273.68016625455806 L 1153.7928918189475 274.9280399336111 L 1154.2684890351652 276.2172025984386 L 1154.6414736069594 277.5397061325218 L 1154.909545960415 278.88739686179616 L 1155.0710533403299 280.2519658247629 Z" fill-opacity="1" stroke-opacity="1" stroke-miterlimit="10" stroke-width="2"/><text fill="rgb(255,255,255)" stroke="none" font-family="times new roman" font-size="10px" font-style="normal" font-weight="normal" text-decoration="normal" x="1137.625" y="286.625" text-anchor="middle" dominant-baseline="text-after-edge" fill-opacity="1">*1.58</text><path fill="rgb(69,90,100)" stroke="rgb(69,90,100)" paint-order="fill stroke markers" d=" M 657.625 395.75 L 638.875 413.25 L 657.625 430.75 L 695.125 430.75 L 713.875 413.25 L 695.125 395.75 Z" fill-opacity="1" stroke-opacity="1" stroke-miterlimit="10" stroke-width="2"/><text fill="rgb(255,255,255)" stroke="none" font-family="times new roman" font-size="10px" font-style="normal" font-weight="normal" text-decoration="normal" x="676.375" y="418.25" text-anchor="middle" dominant-baseline="text-after-edge" fill-opacity="1">HG04206-all</text><path fill="rgb(69,90,100)" stroke="rgb(76,175,80)" paint-order="fill stroke markers" d=" M 498.25 146.25 L 498.1806400089954 148.0153296538765 L 497.9729876633906 149.76977546340518 L 497.62832320894773 151.50252068675786 L 497.14877161664094 153.20288237343632 L 496.53728948150393 154.86037722821453 L 495.7976467942383 156.46478624413982 L 494.93440369796707 158.00621770610886 L 493.9528823734363 159.47516817658064 L 492.8591342260007 160.86258108742913 L 491.65990257669733 162.1599025766973 L 490.36258108742913 163.3591342260007 L 488.97516817658067 164.45288237343632 L 487.5062177061088 165.43440369796707 L 485.9647862441398 166.2976467942383 L 484.36037722821453 167.03728948150396 L 482.7028823734363 167.64877161664094 L 481.00252068675786 168.12832320894773 L 479.2697754634052 168.4729876633906 L 477.5153296538765 168.68064000899537 L 475.75 168.75 L 473.9846703461235 168.68064000899537 L 472.2302245365948 168.4729876633906 L 470.49747931324214 168.12832320894773 L 468.7971176265637 167.64877161664094 L 467.13962277178547 167.03728948150396 L 465.5352137558602 166.2976467942383 L 463.9937822938912 165.43440369796707 L 462.52483182341933 164.45288237343632 L 461.13741891257087 163.3591342260007 L 459.84009742330267 162.15990257669733 L 458.6408657739993 160.86258108742913 L 457.5471176265637 159.47516817658064 L 456.56559630203293 158.00621770610886 L 455.7023532057617 156.46478624413982 L 454.96271051849607 154.86037722821453 L 454.35122838335906 153.20288237343632 L 453.87167679105227 151.50252068675786 L 453.5270123366094 149.7697754634052 L 453.3193599910046 148.0153296538765 L 453.25 146.25 L 453.3193599910046 144.4846703461235 L 453.5270123366094 142.73022453659482 L 453.87167679105227 140.99747931324214 L 454.35122838335906 139.29711762656368 L 454.96271051849607 137.63962277178547 L 455.7023532057617 136.0352137558602 L 456.56559630203293 134.49378229389114 L 457.5471176265637 133.02483182341936 L 458.6408657739993 131.63741891257087 L 459.84009742330267 130.3400974233027 L 461.13741891257087 129.1408657739993 L 462.52483182341933 128.04711762656368 L 463.9937822938912 127.06559630203293 L 465.53521375586024 126.20235320576171 L 467.1396227717855 125.46271051849604 L 468.7971176265637 124.85122838335903 L 470.4974793132422 124.37167679105227 L 472.23022453659485 124.02701233660939 L 473.98467034612355 123.81935999100462 L 475.75000000000006 123.75 L 477.5153296538766 123.81935999100463 L 479.26977546340527 124.02701233660942 L 481.002520686758 124.3716767910523 L 482.7028823734364 124.85122838335909 L 484.36037722821465 125.4627105184961 L 485.96478624413993 126.20235320576178 L 487.506217706109 127.065596302033 L 488.9751681765808 128.04711762656376 L 490.36258108742925 129.14086577399942 L 491.65990257669745 130.3400974233028 L 492.85913422600083 131.637418912571 L 493.9528823734364 133.0248318234195 L 494.9344036979672 134.49378229389131 L 495.7976467942384 136.03521375586038 L 496.53728948150405 137.6396227717857 L 497.14877161664106 139.2971176265639 L 497.6283232089478 140.99747931324237 L 497.97298766339065 142.73022453659505 L 498.1806400089954 144.48467034612375 Z" fill-opacity="1" stroke-opacity="1" stroke-miterlimit="10" stroke-width="2"/><text fill="rgb(255,255,255)" stroke="none" font-family="times new roman" font-size="15px" font-style="normal" font-weight="normal" text-decoration="normal" x="475.75" y="153.75" text-anchor="middle" dominant-baseline="text-after-edge" fill-opacity="1">*34</text><path fill="rgb(69,90,100)" stroke="rgb(76,175,80)" paint-order="fill stroke markers" d=" M 654.25 146.25 L 654.1806400089954 148.0153296538765 L 653.9729876633907 149.76977546340518 L 653.6283232089477 151.50252068675786 L 653.1487716166409 153.20288237343632 L 652.537289481504 154.86037722821453 L 651.7976467942383 156.46478624413982 L 650.9344036979671 158.00621770610886 L 649.9528823734363 159.47516817658064 L 648.8591342260007 160.86258108742913 L 647.6599025766973 162.1599025766973 L 646.3625810874291 163.3591342260007 L 644.9751681765806 164.45288237343632 L 643.5062177061088 165.43440369796707 L 641.9647862441398 166.2976467942383 L 640.3603772282145 167.03728948150396 L 638.7028823734363 167.64877161664094 L 637.0025206867579 168.12832320894773 L 635.2697754634052 168.4729876633906 L 633.5153296538765 168.68064000899537 L 631.75 168.75 L 629.9846703461235 168.68064000899537 L 628.2302245365948 168.4729876633906 L 626.4974793132421 168.12832320894773 L 624.7971176265637 167.64877161664094 L 623.1396227717855 167.03728948150396 L 621.5352137558602 166.2976467942383 L 619.9937822938912 165.43440369796707 L 618.5248318234194 164.45288237343632 L 617.1374189125709 163.3591342260007 L 615.8400974233027 162.15990257669733 L 614.6408657739993 160.86258108742913 L 613.5471176265637 159.47516817658064 L 612.5655963020329 158.00621770610886 L 611.7023532057617 156.46478624413982 L 610.962710518496 154.86037722821453 L 610.3512283833591 153.20288237343632 L 609.8716767910523 151.50252068675786 L 609.5270123366095 149.7697754634052 L 609.3193599910046 148.0153296538765 L 609.25 146.25 L 609.3193599910046 144.4846703461235 L 609.5270123366093 142.73022453659482 L 609.8716767910523 140.99747931324214 L 610.3512283833591 139.29711762656368 L 610.962710518496 137.63962277178547 L 611.7023532057617 136.0352137558602 L 612.5655963020329 134.49378229389114 L 613.5471176265637 133.02483182341936 L 614.6408657739993 131.63741891257087 L 615.8400974233027 130.3400974233027 L 617.1374189125709 129.1408657739993 L 618.5248318234194 128.04711762656368 L 619.9937822938912 127.06559630203293 L 621.5352137558602 126.20235320576171 L 623.1396227717855 125.46271051849604 L 624.7971176265637 124.85122838335903 L 626.4974793132421 124.37167679105227 L 628.2302245365948 124.02701233660939 L 629.9846703461236 123.81935999100462 L 631.7500000000001 123.75 L 633.5153296538766 123.81935999100463 L 635.2697754634053 124.02701233660942 L 637.002520686758 124.3716767910523 L 638.7028823734364 124.85122838335909 L 640.3603772282146 125.4627105184961 L 641.9647862441399 126.20235320576178 L 643.5062177061089 127.065596302033 L 644.9751681765807 128.04711762656376 L 646.3625810874292 129.14086577399942 L 647.6599025766974 130.3400974233028 L 648.8591342260008 131.637418912571 L 649.9528823734364 133.0248318234195 L 650.9344036979671 134.49378229389131 L 651.7976467942384 136.03521375586038 L 652.537289481504 137.6396227717857 L 653.148771616641 139.2971176265639 L 653.6283232089478 140.99747931324237 L 653.9729876633907 142.73022453659505 L 654.1806400089954 144.48467034612375 Z" fill-opacity="1" stroke-opacity="1" stroke-miterlimit="10" stroke-width="2"/><text fill="rgb(255,255,255)" stroke="none" font-family="times new roman" font-size="15px" font-style="normal" font-weight="normal" text-decoration="normal" x="631.75" y="153.75" text-anchor="middle" dominant-baseline="text-after-edge" fill-opacity="1">*39</text><path fill="rgb(69,90,100)" stroke="rgb(76,175,80)" paint-order="fill stroke markers" d=" M 1034.25 136.25 L 1034.25 156.25 L 1129.25 156.25 L 1129.25 136.25 Z" fill-opacity="1" stroke-opacity="1" stroke-miterlimit="10" stroke-width="2"/><text fill="rgb(255,255,255)" stroke="none" font-family="times new roman" font-size="10px" font-style="normal" font-weight="normal" text-decoration="normal" x="1081.75" y="151.25" text-anchor="middle" dominant-baseline="text-after-edge" fill-opacity="1">42129950A&gt;C</text><path fill="rgb(69,90,100)" stroke="rgb(76,175,80)" paint-order="fill stroke markers" d=" M 537.875 75.75 L 537.8210533403297 77.12303417523728 L 537.6595459604149 78.48760313820404 L 537.3914736069594 79.83529386747834 L 537.0184890351652 81.15779740156158 L 536.5428918189475 82.44696006638907 L 535.9676141732964 83.69483374544207 L 535.2962028761966 84.8937248825291 L 534.5327974015615 86.03624191511828 L 533.6821043980005 87.1153408457782 L 532.7493686707646 88.12436867076458 L 531.7403408457782 89.05710439800055 L 530.6612419151182 89.90779740156158 L 529.5187248825291 90.67120287619662 L 528.3198337454421 91.34261417329644 L 527.0719600663891 91.91789181894751 L 525.7827974015615 92.39348903516519 L 524.4602938674783 92.76647360695934 L 523.112603138204 93.0345459604149 L 521.7480341752373 93.19605334032974 L 520.375 93.25 L 519.0019658247627 93.19605334032974 L 517.637396861796 93.0345459604149 L 516.2897061325217 92.76647360695934 L 514.9672025984385 92.39348903516519 L 513.6780399336109 91.91789181894751 L 512.4301662545579 91.34261417329644 L 511.2312751174709 90.67120287619662 L 510.0887580848817 89.90779740156158 L 509.00965915422177 89.05710439800055 L 508.00063132923543 88.12436867076458 L 507.06789560199945 87.11534084577822 L 506.2172025984384 86.03624191511828 L 505.4537971238034 84.89372488252911 L 504.78238582670355 83.69483374544207 L 504.2071081810525 82.44696006638907 L 503.7315109648348 81.15779740156158 L 503.3585263930407 79.83529386747834 L 503.0904540395851 78.48760313820404 L 502.92894665967026 77.1230341752373 L 502.875 75.75 L 502.92894665967026 74.37696582476272 L 503.0904540395851 73.01239686179596 L 503.3585263930407 71.66470613252166 L 503.7315109648348 70.34220259843842 L 504.2071081810525 69.05303993361093 L 504.78238582670355 67.80516625455793 L 505.4537971238034 66.6062751174709 L 506.2172025984384 65.46375808488172 L 507.06789560199945 64.3846591542218 L 508.00063132923543 63.37563132923542 L 509.00965915422177 62.44289560199947 L 510.0887580848817 61.59220259843842 L 511.2312751174709 60.82879712380338 L 512.4301662545579 60.15738582670356 L 513.678039933611 59.582108181052476 L 514.9672025984385 59.106510964834804 L 516.2897061325217 58.73352639304065 L 517.637396861796 58.46545403958508 L 519.0019658247628 58.30394665967026 L 520.3750000000001 58.25 L 521.7480341752373 58.30394665967027 L 523.1126031382041 58.4654540395851 L 524.4602938674784 58.73352639304068 L 525.7827974015617 59.10651096483484 L 527.0719600663891 59.58210818105252 L 528.3198337454421 60.15738582670361 L 529.5187248825292 60.82879712380345 L 530.6612419151184 61.59220259843849 L 531.7403408457783 62.44289560199954 L 532.7493686707646 63.37563132923552 L 533.6821043980007 64.3846591542219 L 534.5327974015617 65.46375808488185 L 535.2962028761967 66.60627511747103 L 535.9676141732965 67.80516625455807 L 536.5428918189476 69.05303993361109 L 537.0184890351652 70.34220259843859 L 537.3914736069594 71.66470613252184 L 537.6595459604149 73.01239686179616 L 537.8210533403297 74.37696582476292 Z" fill-opacity="1" stroke-opacity="1" stroke-miterlimit="10" stroke-width="2"/><text fill="rgb(255,255,255)" stroke="none" font-family="times new roman" font-size="10px" font-style="normal" font-weight="normal" text-decoration="normal" x="520.375" y="80.75" text-anchor="middle" dominant-baseline="text-after-edge" fill-opacity="1">*34.1</text><path fill="rgb(69,90,100)" stroke="rgb(117,117,117)" paint-order="fill stroke markers" d=" M 719.75 146.25 L 719.6960533403297 147.62303417523728 L 719.5345459604149 148.98760313820404 L 719.2664736069594 150.33529386747836 L 718.8934890351652 151.65779740156157 L 718.4178918189475 152.94696006638907 L 717.8426141732964 154.19483374544205 L 717.1712028761966 155.3937248825291 L 716.4077974015615 156.53624191511827 L 715.5571043980005 157.6153408457782 L 714.6243686707646 158.62436867076457 L 713.6153408457782 159.55710439800055 L 712.5362419151182 160.4077974015616 L 711.3937248825291 161.17120287619662 L 710.1948337454421 161.84261417329643 L 708.9469600663891 162.4178918189475 L 707.6577974015615 162.89348903516517 L 706.3352938674783 163.26647360695935 L 704.987603138204 163.5345459604149 L 703.6230341752373 163.69605334032974 L 702.25 163.75 L 700.8769658247627 163.69605334032974 L 699.512396861796 163.5345459604149 L 698.1647061325217 163.26647360695935 L 696.8422025984385 162.8934890351652 L 695.5530399336109 162.4178918189475 L 694.3051662545579 161.84261417329643 L 693.1062751174709 161.17120287619662 L 691.9637580848818 160.4077974015616 L 690.8846591542218 159.55710439800055 L 689.8756313292354 158.62436867076457 L 688.9428956019995 157.6153408457782 L 688.0922025984385 156.5362419151183 L 687.3287971238034 155.3937248825291 L 686.6573858267036 154.19483374544208 L 686.0821081810525 152.94696006638907 L 685.6065109648348 151.6577974015616 L 685.2335263930406 150.33529386747836 L 684.9654540395851 148.98760313820404 L 684.8039466596703 147.62303417523728 L 684.75 146.25 L 684.8039466596703 144.87696582476272 L 684.9654540395851 143.51239686179596 L 685.2335263930406 142.16470613252164 L 685.6065109648348 140.84220259843843 L 686.0821081810525 139.55303993361093 L 686.6573858267036 138.30516625455795 L 687.3287971238034 137.1062751174709 L 688.0922025984385 135.96375808488173 L 688.9428956019995 134.8846591542218 L 689.8756313292354 133.87563132923543 L 690.8846591542218 132.94289560199945 L 691.9637580848818 132.09220259843843 L 693.1062751174709 131.32879712380338 L 694.3051662545579 130.65738582670355 L 695.553039933611 130.0821081810525 L 696.8422025984385 129.6065109648348 L 698.1647061325217 129.23352639304065 L 699.512396861796 128.9654540395851 L 700.8769658247628 128.80394665967026 L 702.2500000000001 128.75 L 703.6230341752373 128.80394665967026 L 704.9876031382041 128.9654540395851 L 706.3352938674784 129.23352639304068 L 707.6577974015617 129.60651096483485 L 708.9469600663891 130.08210818105252 L 710.1948337454421 130.6573858267036 L 711.3937248825292 131.32879712380344 L 712.5362419151184 132.0922025984385 L 713.6153408457783 132.94289560199954 L 714.6243686707646 133.87563132923552 L 715.5571043980007 134.8846591542219 L 716.4077974015617 135.96375808488185 L 717.1712028761967 137.10627511747103 L 717.8426141732965 138.3051662545581 L 718.4178918189476 139.5530399336111 L 718.8934890351652 140.8422025984386 L 719.2664736069594 142.16470613252184 L 719.5345459604149 143.51239686179616 L 719.6960533403297 144.87696582476292 Z" fill-opacity="1" stroke-opacity="1" stroke-miterlimit="10" stroke-width="2"/><text fill="rgb(255,255,255)" stroke="none" font-family="times new roman" font-size="10px" font-style="normal" font-weight="normal" text-decoration="normal" x="702.25" y="151.25" text-anchor="middle" dominant-baseline="text-after-edge" fill-opacity="1">*113.1</text><path fill="rgb(69,90,100)" stroke="rgb(158,158,158)" paint-order="fill stroke markers" d=" M 744 136.25 L 744 156.25 L 839 156.25 L 839 136.25 Z" fill-opacity="1" stroke-opacity="1" stroke-miterlimit="10" stroke-width="2"/><text fill="rgb(255,255,255)" stroke="none" font-family="times new roman" font-size="10px" font-style="normal" font-weight="normal" text-decoration="normal" x="791.5" y="151.25" text-anchor="middle" dominant-baseline="text-after-edge" fill-opacity="1">42126752C&gt;T</text><path fill="rgb(69,90,100)" stroke="rgb(76,175,80)" paint-order="fill stroke markers" d=" M 382.75 136.25 L 425.25 136.25 L 425.25 136.25 A 5 5 0 0 1 430.25 141.25 L 430.25 151.25 L 430.25 151.25 A 5 5 0 0 1 425.25 156.25 L 340.25 156.25 L 340.25 156.25 A 5 5 0 0 1 335.25 151.25 L 335.25 141.25 L 335.25 141.25 A 5 5 0 0 1 340.25 136.25 L 382.75 136.25 Z" fill-opacity="1" stroke-opacity="1" stroke-miterlimit="10" stroke-width="2"/><text fill="rgb(255,255,255)" stroke="none" font-family="times new roman" font-size="10px" font-style="normal" font-weight="normal" text-decoration="normal" x="382.75" y="151.25" text-anchor="middle" dominant-baseline="text-after-edge" fill-opacity="1">42132025_4213202…</text><path fill="rgb(69,90,100)" stroke="rgb(76,175,80)" paint-order="fill stroke markers" d=" M 271 136.25 L 313.5 136.25 L 313.5 136.25 A 5 5 0 0 1 318.5 141.25 L 318.5 151.25 L 318.5 151.25 A 5 5 0 0 1 313.5 156.25 L 228.5 156.25 L 228.5 156.25 A 5 5 0 0 1 223.5 151.25 L 223.5 141.25 L 223.5 141.25 A 5 5 0 0 1 228.5 136.25 L 271 136.25 Z" fill-opacity="1" stroke-opacity="1" stroke-miterlimit="10" stroke-width="2"/><text fill="rgb(255,255,255)" stroke="none" font-family="times new roman" font-size="10px" font-style="normal" font-weight="normal" text-decoration="normal" x="271" y="151.25" text-anchor="middle" dominant-baseline="text-after-edge" fill-opacity="1">42132049dup</text><path fill="rgb(69,90,100)" stroke="rgb(76,175,80)" paint-order="fill stroke markers" d=" M 922.5 136.25 L 922.5 156.25 L 1017.5 156.25 L 1017.5 136.25 Z" fill-opacity="1" stroke-opacity="1" stroke-miterlimit="10" stroke-width="2"/><text fill="rgb(255,255,255)" stroke="none" font-family="times new roman" font-size="10px" font-style="normal" font-weight="normal" text-decoration="normal" x="970" y="151.25" text-anchor="middle" dominant-baseline="text-after-edge" fill-opacity="1">42130047G&gt;C</text><path fill="rgb(69,90,100)" stroke="rgb(76,175,80)" paint-order="fill stroke markers" d=" M 833.25 65.75 L 833.25 85.75 L 928.25 85.75 L 928.25 65.75 Z" fill-opacity="1" stroke-opacity="1" stroke-miterlimit="10" stroke-width="2"/><text fill="rgb(255,255,255)" stroke="none" font-family="times new roman" font-size="10px" font-style="normal" font-weight="normal" text-decoration="normal" x="880.75" y="80.75" text-anchor="middle" dominant-baseline="text-after-edge" fill-opacity="1">42127407T&gt;G</text><path fill="rgb(69,90,100)" stroke="rgb(76,175,80)" paint-order="fill stroke markers" d=" M 1146 136.25 L 1146 156.25 L 1241 156.25 L 1241 136.25 Z" fill-opacity="1" stroke-opacity="1" stroke-miterlimit="10" stroke-width="2"/><text fill="rgb(255,255,255)" stroke="none" font-family="times new roman" font-size="10px" font-style="normal" font-weight="normal" text-decoration="normal" x="1193.5" y="151.25" text-anchor="middle" dominant-baseline="text-after-edge" fill-opacity="1">42130482C&gt;A</text><path fill="rgb(69,90,100)" stroke="rgb(117,117,117)" paint-order="fill stroke markers" d=" M 769.375 281.625 L 769.3056400089954 283.3903296538765 L 769.0979876633907 285.1447754634052 L 768.7533232089477 286.87752068675786 L 768.2737716166409 288.5778823734363 L 767.662289481504 290.23537722821453 L 766.9226467942383 291.8397862441398 L 766.0594036979671 293.3812177061088 L 765.0778823734363 294.85016817658067 L 763.9841342260007 296.23758108742913 L 762.7849025766973 297.53490257669733 L 761.4875810874291 298.7341342260007 L 760.1001681765806 299.8278823734363 L 758.6312177061088 300.80940369796707 L 757.0897862441398 301.6726467942383 L 755.4853772282145 302.41228948150393 L 753.8278823734363 303.02377161664094 L 752.1275206867579 303.50332320894773 L 750.3947754634052 303.8479876633906 L 748.6403296538765 304.0556400089954 L 746.875 304.125 L 745.1096703461235 304.0556400089954 L 743.3552245365948 303.8479876633906 L 741.6224793132421 303.50332320894773 L 739.9221176265637 303.02377161664094 L 738.2646227717855 302.41228948150393 L 736.6602137558602 301.6726467942383 L 735.1187822938912 300.80940369796707 L 733.6498318234194 299.8278823734363 L 732.2624189125709 298.7341342260007 L 730.9650974233027 297.53490257669733 L 729.7658657739993 296.23758108742913 L 728.6721176265637 294.85016817658067 L 727.6905963020329 293.3812177061088 L 726.8273532057617 291.8397862441398 L 726.087710518496 290.23537722821453 L 725.4762283833591 288.5778823734363 L 724.9966767910523 286.87752068675786 L 724.6520123366095 285.1447754634052 L 724.4443599910046 283.3903296538765 L 724.375 281.625 L 724.4443599910046 279.8596703461235 L 724.6520123366093 278.1052245365948 L 724.9966767910523 276.37247931324214 L 725.4762283833591 274.6721176265637 L 726.087710518496 273.01462277178547 L 726.8273532057617 271.4102137558602 L 727.6905963020329 269.8687822938912 L 728.6721176265637 268.39983182341933 L 729.7658657739993 267.01241891257087 L 730.9650974233027 265.71509742330267 L 732.2624189125709 264.51586577399934 L 733.6498318234194 263.4221176265637 L 735.1187822938912 262.44059630203293 L 736.6602137558602 261.5773532057617 L 738.2646227717855 260.837710518496 L 739.9221176265637 260.22622838335906 L 741.6224793132421 259.74667679105227 L 743.3552245365948 259.4020123366094 L 745.1096703461236 259.1943599910046 L 746.8750000000001 259.125 L 748.6403296538766 259.1943599910046 L 750.3947754634053 259.4020123366094 L 752.127520686758 259.7466767910523 L 753.8278823734364 260.22622838335906 L 755.4853772282146 260.8377105184961 L 757.0897862441399 261.57735320576177 L 758.6312177061089 262.440596302033 L 760.1001681765807 263.42211762656376 L 761.4875810874292 264.5158657739994 L 762.7849025766974 265.7150974233028 L 763.9841342260008 267.012418912571 L 765.0778823734364 268.3998318234195 L 766.0594036979671 269.86878229389134 L 766.9226467942384 271.4102137558604 L 767.662289481504 273.0146227717857 L 768.273771616641 274.67211762656393 L 768.7533232089478 276.37247931324237 L 769.0979876633907 278.1052245365951 L 769.3056400089954 279.8596703461238 Z" fill-opacity="1" stroke-opacity="1" stroke-miterlimit="10" stroke-width="2"/><text fill="rgb(255,255,255)" stroke="none" font-family="times new roman" font-size="15px" font-style="normal" font-weight="normal" text-decoration="normal" x="746.875" y="289.125" text-anchor="middle" dominant-baseline="text-after-edge" fill-opacity="1">*113</text><path fill="rgb(3,169,244)" stroke="none" paint-order="stroke fill markers" d=" M 746.875 249.125 L 771.375 249.125 L 771.375 249.125 A 8 8 0 0 1 779.375 257.125 L 779.375 306.125 L 779.375 306.125 A 8 8 0 0 1 771.375 314.125 L 722.375 314.125 L 722.375 314.125 A 8 8 0 0 1 714.375 306.125 L 714.375 257.125 L 714.375 257.125 A 8 8 0 0 1 722.375 249.125 L 746.875 249.125 Z" fill-opacity="0.15"/><path fill="rgb(69,90,100)" stroke="rgb(76,175,80)" paint-order="fill stroke markers" d=" M 604.625 75.75 L 604.5710533403297 77.12303417523728 L 604.4095459604149 78.48760313820404 L 604.1414736069594 79.83529386747834 L 603.7684890351652 81.15779740156158 L 603.2928918189475 82.44696006638907 L 602.7176141732964 83.69483374544207 L 602.0462028761966 84.8937248825291 L 601.2827974015615 86.03624191511828 L 600.4321043980005 87.1153408457782 L 599.4993686707646 88.12436867076458 L 598.4903408457782 89.05710439800055 L 597.4112419151182 89.90779740156158 L 596.2687248825291 90.67120287619662 L 595.0698337454421 91.34261417329644 L 593.8219600663891 91.91789181894751 L 592.5327974015615 92.39348903516519 L 591.2102938674783 92.76647360695934 L 589.862603138204 93.0345459604149 L 588.4980341752373 93.19605334032974 L 587.125 93.25 L 585.7519658247627 93.19605334032974 L 584.387396861796 93.0345459604149 L 583.0397061325217 92.76647360695934 L 581.7172025984385 92.39348903516519 L 580.4280399336109 91.91789181894751 L 579.1801662545579 91.34261417329644 L 577.9812751174709 90.67120287619662 L 576.8387580848818 89.90779740156158 L 575.7596591542218 89.05710439800055 L 574.7506313292354 88.12436867076458 L 573.8178956019995 87.11534084577822 L 572.9672025984385 86.03624191511828 L 572.2037971238034 84.89372488252911 L 571.5323858267036 83.69483374544207 L 570.9571081810525 82.44696006638907 L 570.4815109648348 81.15779740156158 L 570.1085263930406 79.83529386747834 L 569.8404540395851 78.48760313820404 L 569.6789466596703 77.1230341752373 L 569.625 75.75 L 569.6789466596703 74.37696582476272 L 569.8404540395851 73.01239686179596 L 570.1085263930406 71.66470613252166 L 570.4815109648348 70.34220259843842 L 570.9571081810525 69.05303993361093 L 571.5323858267036 67.80516625455793 L 572.2037971238034 66.6062751174709 L 572.9672025984385 65.46375808488172 L 573.8178956019995 64.3846591542218 L 574.7506313292354 63.37563132923542 L 575.7596591542218 62.44289560199947 L 576.8387580848818 61.59220259843842 L 577.9812751174709 60.82879712380338 L 579.1801662545579 60.15738582670356 L 580.428039933611 59.582108181052476 L 581.7172025984385 59.106510964834804 L 583.0397061325217 58.73352639304065 L 584.387396861796 58.46545403958508 L 585.7519658247628 58.30394665967026 L 587.1250000000001 58.25 L 588.4980341752373 58.30394665967027 L 589.8626031382041 58.4654540395851 L 591.2102938674784 58.73352639304068 L 592.5327974015617 59.10651096483484 L 593.8219600663891 59.58210818105252 L 595.0698337454421 60.15738582670361 L 596.2687248825292 60.82879712380345 L 597.4112419151184 61.59220259843849 L 598.4903408457783 62.44289560199954 L 599.4993686707646 63.37563132923552 L 600.4321043980007 64.3846591542219 L 601.2827974015617 65.46375808488185 L 602.0462028761967 66.60627511747103 L 602.7176141732965 67.80516625455807 L 603.2928918189476 69.05303993361109 L 603.7684890351652 70.34220259843859 L 604.1414736069594 71.66470613252184 L 604.4095459604149 73.01239686179616 L 604.5710533403297 74.37696582476292 Z" fill-opacity="1" stroke-opacity="1" stroke-miterlimit="10" stroke-width="2"/><text fill="rgb(255,255,255)" stroke="none" font-family="times new roman" font-size="10px" font-style="normal" font-weight="normal" text-decoration="normal" x="587.125" y="80.75" text-anchor="middle" dominant-baseline="text-after-edge" fill-opacity="1">*39.2</text><path fill="rgb(176,190,197)" stroke="none" paint-order="stroke fill markers" d=" M 166 176.62500000000003 L 166 386.625 L 241 386.625 L 241 176.62500000000006 Z" fill-opacity="0.8"/><text fill="rgb(0,0,0)" stroke="none" font-family="times new roman" font-size="10px" font-style="normal" font-weight="normal" text-decoration="normal" x="171" y="191.625" text-anchor="start" dominant-baseline="text-after-edge" fill-opacity="0.8">42126310C&gt;T </text><text fill="rgb(0,0,0)" stroke="none" font-family="times new roman" font-size="10px" font-style="normal" font-weight="normal" text-decoration="normal" x="171" y="201.625" text-anchor="start" dominant-baseline="text-after-edge" fill-opacity="0.8">42127001G&gt;A </text><text fill="rgb(0,0,0)" stroke="none" font-family="times new roman" font-size="10px" font-style="normal" font-weight="normal" text-decoration="normal" x="171" y="211.625" text-anchor="start" dominant-baseline="text-after-edge" fill-opacity="0.8">42127207C&gt;T </text><text fill="rgb(0,0,0)" stroke="none" font-family="times new roman" font-size="10px" font-style="normal" font-weight="normal" text-decoration="normal" x="171" y="221.625" text-anchor="start" dominant-baseline="text-after-edge" fill-opacity="0.8">42129130C&gt;G </text><text fill="rgb(0,0,0)" stroke="none" font-family="times new roman" font-size="10px" font-style="normal" font-weight="normal" text-decoration="normal" x="171" y="231.625" text-anchor="start" dominant-baseline="text-after-edge" fill-opacity="0.8">42131469C&gt;T </text><text fill="rgb(0,0,0)" stroke="none" font-family="times new roman" font-size="10px" font-style="normal" font-weight="normal" text-decoration="normal" x="171" y="241.625" text-anchor="start" dominant-baseline="text-after-edge" fill-opacity="0.8">42131531G&gt;A </text><text fill="rgb(0,0,0)" stroke="none" font-family="times new roman" font-size="10px" font-style="normal" font-weight="normal" text-decoration="normal" x="171" y="251.625" text-anchor="start" dominant-baseline="text-after-edge" fill-opacity="0.8">42132026T&gt;C </text><text fill="rgb(0,0,0)" stroke="none" font-family="times new roman" font-size="10px" font-style="normal" font-weight="normal" text-decoration="normal" x="171" y="261.625" text-anchor="start" dominant-baseline="text-after-edge" fill-opacity="0.8">42132375G&gt;C </text><path fill="rgb(176,190,197)" stroke="none" paint-order="stroke fill markers" d=" M 326.875 176.625 L 393.875 176.625 L 393.875 176.625 A 8 8 0 0 1 401.875 184.625 L 401.875 378.625 L 401.875 378.625 A 8 8 0 0 1 393.875 386.625 L 259.875 386.625 L 259.875 386.625 A 8 8 0 0 1 251.875 378.625 L 251.875 184.625 L 251.875 184.625 A 8 8 0 0 1 259.875 176.625 L 326.875 176.625 Z" fill-opacity="0.8"/><text fill="rgb(0,0,0)" stroke="none" font-family="times new roman" font-size="10px" font-style="normal" font-weight="normal" text-decoration="normal" x="256.875" y="191.625" text-anchor="start" dominant-baseline="text-after-edge" fill-opacity="0.8">42125924A&gt;G </text><text fill="rgb(0,0,0)" stroke="none" font-family="times new roman" font-size="10px" font-style="normal" font-weight="normal" text-decoration="normal" x="256.875" y="201.625" text-anchor="start" dominant-baseline="text-after-edge" fill-opacity="0.8">42126069A&gt;C </text><text fill="rgb(0,0,0)" stroke="none" font-family="times new roman" font-size="10px" font-style="normal" font-weight="normal" text-decoration="normal" x="256.875" y="211.625" text-anchor="start" dominant-baseline="text-after-edge" fill-opacity="0.8">42126136_42126138del </text><text fill="rgb(0,0,0)" stroke="none" font-family="times new roman" font-size="10px" font-style="normal" font-weight="normal" text-decoration="normal" x="256.875" y="221.625" text-anchor="start" dominant-baseline="text-after-edge" fill-opacity="0.8">42132025_42132026insCCTTTT </text><text fill="rgb(0,0,0)" stroke="none" font-family="times new roman" font-size="10px" font-style="normal" font-weight="normal" text-decoration="normal" x="256.875" y="231.625" text-anchor="start" dominant-baseline="text-after-edge" fill-opacity="0.8">42132027C&gt;T </text><text fill="rgb(0,0,0)" stroke="none" font-family="times new roman" font-size="10px" font-style="normal" font-weight="normal" text-decoration="normal" x="256.875" y="241.625" text-anchor="start" dominant-baseline="text-after-edge" fill-opacity="0.8">42132561C&gt;T </text><text fill="rgb(0,0,0)" stroke="none" font-family="times new roman" font-size="10px" font-style="normal" font-weight="normal" text-decoration="normal" x="256.875" y="251.625" text-anchor="start" dominant-baseline="text-after-edge" fill-opacity="0.8">42132844C&gt;A </text><text fill="rgb(0,0,0)" stroke="none" font-family="times new roman" font-size="10px" font-style="normal" font-weight="normal" text-decoration="normal" x="256.875" y="261.625" text-anchor="start" dominant-baseline="text-after-edge" fill-opacity="0.8">42132851T&gt;C </text><text fill="rgb(0,0,0)" stroke="none" font-family="times new roman" font-size="10px" font-style="normal" font-weight="normal" text-decoration="normal" x="256.875" y="271.625" text-anchor="start" dominant-baseline="text-after-edge" fill-opacity="0.8">42133400T&gt;G </text><text fill="rgb(0,0,0)" stroke="none" font-family="times new roman" font-size="10px" font-style="normal" font-weight="normal" text-decoration="normal" x="256.875" y="281.625" text-anchor="start" dominant-baseline="text-after-edge" fill-opacity="0.8">42133533A&gt;C </text><text fill="rgb(0,0,0)" stroke="none" font-family="times new roman" font-size="10px" font-style="normal" font-weight="normal" text-decoration="normal" x="256.875" y="291.625" text-anchor="start" dominant-baseline="text-after-edge" fill-opacity="0.8">42134096del </text><text fill="rgb(0,0,0)" stroke="none" font-family="times new roman" font-size="10px" font-style="normal" font-weight="normal" text-decoration="normal" x="256.875" y="301.625" text-anchor="start" dominant-baseline="text-after-edge" fill-opacity="0.8">42134820T&gt;G </text><text fill="rgb(0,0,0)" stroke="none" font-family="times new roman" font-size="10px" font-style="normal" font-weight="normal" text-decoration="normal" x="256.875" y="311.625" text-anchor="start" dominant-baseline="text-after-edge" fill-opacity="0.8">42135064_42135066dup </text><text fill="rgb(0,0,0)" stroke="none" font-family="times new roman" font-size="10px" font-style="normal" font-weight="normal" text-decoration="normal" x="256.875" y="321.625" text-anchor="start" dominant-baseline="text-after-edge" fill-opacity="0.8">42135201T&gt;C </text><text fill="rgb(0,0,0)" stroke="none" font-family="times new roman" font-size="10px" font-style="normal" font-weight="normal" text-decoration="normal" x="256.875" y="331.625" text-anchor="start" dominant-baseline="text-after-edge" fill-opacity="0.8">42135691T&gt;C </text><g transform="scale(1.1264367816091954,1.1264367816091954) translate(116.4795918367347,-86.94387755102042)"/></g></svg>