<svg version="1.1" xmlns="http://www.w3.org/2000/svg" xmlns:xlink="http://www.w3.org/1999/xlink" width="1017" height="608"><defs/><g transform="translate(-112.73058542413378,55.50776583034647) scale(1.0163281561131023,1.0163281561131023)"><path fill="none" stroke="rgb(120,144,156)" paint-order="fill stroke markers" d=" M 925.9011426592798 157.25 L 934.0243824567746 174.8098177658422" stroke-opacity="1" stroke-linejoin="round" stroke-miterlimit="10"/><path fill="rgb(120,144,156)" stroke="none" paint-order="stroke fill markers" d=" M 927.2633314551003 170.5553272731088 L 934.8640927977839 176.625 L 935.1593741736867 166.9025872897184 Z" fill-opacity="1"/><path fill="none" stroke="rgb(120,144,156)" paint-order="fill stroke markers" d=" M 399.3113355980055 161.65223473769225 L 518.3031252021642 264.9119367739935" stroke-opacity="1" stroke-linejoin="round" stroke-miterlimit="10"/><path fill="rgb(120,144,156)" stroke="none" paint-order="stroke fill markers" d=" M 510.39176692064945 263.80608409777165 L 519.8136644019945 266.22276526230775 L 516.0938708448164 257.23523857851 Z" fill-opacity="1"/><path fill="none" stroke="rgb(120,144,156)" paint-order="fill stroke markers" d=" M 252.11480560701114 287.4702175218794 L 599.3226831832819 403.096370301074" stroke-opacity="1" stroke-linejoin="round" stroke-miterlimit="10"/><path fill="rgb(120,144,156)" stroke="none" paint-order="stroke fill markers" d=" M 591.5914862218144 405.10661743587974 L 601.2202297353913 403.72828570884474 L 594.3403182456171 396.85228993420424 Z" fill-opacity="1"/><path fill="none" stroke="rgb(55,71,79)" paint-order="fill stroke markers" d=" M 189.9375 86.75 L 189.9375 127.75" stroke-opacity="1" stroke-linejoin="round" stroke-miterlimit="10" stroke-width="2"/><path fill="none" stroke="rgb(55,71,79)" paint-order="fill stroke markers" d=" M 343.9002659574468 86.75 L 368.9938019975086 126.39356954228255" stroke-opacity="1" stroke-linejoin="round" stroke-miterlimit="10" stroke-width="2"/><path fill="none" stroke="rgb(120,144,156)" paint-order="fill stroke markers" d=" M 551.0499018375677 300.8692196950662 L 615.698824048012 393.112194068505" stroke-opacity="1" stroke-linejoin="round" stroke-miterlimit="10"/><path fill="rgb(120,144,156)" stroke="none" paint-order="stroke fill markers" d=" M 608.2912517933208 390.1221483679295 L 616.846688034188 394.75 L 615.4157075953241 385.128940028064 Z" fill-opacity="1"/><path fill="none" stroke="rgb(120,144,156)" paint-order="fill stroke markers" d=" M 702.4011426592798 157.25 L 751.3304690046548 263.0193820998826" stroke-opacity="1" stroke-linejoin="round" stroke-miterlimit="10"/><path fill="rgb(120,144,156)" stroke="none" paint-order="stroke fill markers" d=" M 744.5694180029806 258.7648916071492 L 752.1701793456641 264.8345643340404 L 752.465460721567 255.11215162375882 Z" fill-opacity="1"/><path fill="none" stroke="rgb(120,144,156)" paint-order="fill stroke markers" d=" M 537.5625 169.75 L 537.5625 256.125" stroke-opacity="1" stroke-linejoin="round" stroke-miterlimit="10"/><path fill="rgb(120,144,156)" stroke="none" paint-order="stroke fill markers" d=" M 533.2125 249.425 L 537.5625 258.125 L 541.9125 249.425 Z" fill-opacity="1"/><path fill="none" stroke="rgb(120,144,156)" paint-order="fill stroke markers" d=" M 805.0708102493074 157.25 L 766.930373105581 262.35456342660495" stroke-opacity="1" stroke-linejoin="round" stroke-miterlimit="10"/><path fill="rgb(120,144,156)" stroke="none" paint-order="stroke fill markers" d=" M 765.1267560671968 254.57256718021355 L 766.2481415830853 264.2346060191313 L 773.3049413446864 257.5402743030699 Z" fill-opacity="1"/><path fill="none" stroke="rgb(120,144,156)" paint-order="fill stroke markers" d=" M 629.8125 386.625 L 629.8125 392.75" stroke-opacity="1" stroke-linejoin="round" stroke-miterlimit="10"/><path fill="rgb(120,144,156)" stroke="none" paint-order="stroke fill markers" d=" M 625.4625 386.05 L 629.8125 394.75 L 634.1625 386.05 Z" fill-opacity="1"/><path fill="none" stroke="rgb(120,144,156)" paint-order="fill stroke markers" d=" M 195.7292768064626 163.82001199271423 L 228.1445851604063 262.1555272513167" stroke-opacity="1" stroke-linejoin="round" stroke-miterlimit="10"/><path fill="rgb(120,144,156)" stroke="none" paint-order="stroke fill markers" d=" M 221.91569560518437 257.1541839408803 L 228.7707231935374 264.0549880072858 L 230.17834989364997 254.43048349676005 Z" fill-opacity="1"/><path fill="none" stroke="rgb(120,144,156)" paint-order="fill stroke markers" d=" M 1028.5708102493074 157.25 L 1022.222224597288 174.74495740747366" stroke-opacity="1" stroke-linejoin="round" stroke-miterlimit="10"/><path fill="rgb(120,144,156)" stroke="none" paint-order="stroke fill markers" d=" M 1020.4186075589038 166.96296116108223 L 1021.5399930747923 176.625 L 1028.5967928363934 169.93066828393853 Z" fill-opacity="1"/><path fill="none" stroke="rgb(120,144,156)" paint-order="fill stroke markers" d=" M 746.9312035879971 294.78122490090215 L 649.5077598877687 393.3277054161187" stroke-opacity="1" stroke-linejoin="round" stroke-miterlimit="10"/><path fill="rgb(120,144,156)" stroke="none" paint-order="stroke fill markers" d=" M 651.1246575981198 385.50478129567233 L 648.1016737891738 394.75 L 657.3116390380036 391.62125582456025 Z" fill-opacity="1"/><path fill="none" stroke="rgb(120,144,156)" paint-order="fill stroke markers" d=" M 908.4375 309.54122481442204 L 659.4384924828548 402.2227217799767" stroke-opacity="1" stroke-linejoin="round" stroke-miterlimit="10"/><path fill="rgb(120,144,156)" stroke="none" paint-order="stroke fill markers" d=" M 664.2001925892355 395.8087750935056 L 657.5641243324485 402.9203922155998 L 667.2350589841961 403.9622765477729 Z" fill-opacity="1"/><path fill="none" stroke="rgb(55,71,79)" paint-order="fill stroke markers" d=" M 502.8320069381315 91.38165801990523 L 524.9938019975086 126.39356954228255" stroke-opacity="1" stroke-linejoin="round" stroke-miterlimit="10" stroke-width="2"/><path fill="none" stroke="rgb(55,71,79)" paint-order="fill stroke markers" d=" M 416.2929930618685 91.38165801990523 L 394.1311980024914 126.39356954228255" stroke-opacity="1" stroke-linejoin="round" stroke-miterlimit="10" stroke-width="2"/><path fill="none" stroke="rgb(55,71,79)" paint-order="fill stroke markers" d=" M 575.2247340425532 86.75 L 550.1311980024914 126.39356954228255" stroke-opacity="1" stroke-linejoin="round" stroke-miterlimit="10" stroke-width="2"/><path fill="none" stroke="rgb(55,71,79)" paint-order="fill stroke markers" d=" M 599.517458126426 162.65829849127772 L 548.4170126502156 260.7820262408094" stroke-opacity="1" stroke-linejoin="round" stroke-miterlimit="10" stroke-width="2"/><path fill="none" stroke="rgb(120,144,156)" paint-order="fill stroke markers" d=" M 275.56146121883654 157.25 L 240.9804148395937 262.1555272513167" stroke-opacity="1" stroke-linejoin="round" stroke-miterlimit="10"/><path fill="rgb(120,144,156)" stroke="none" paint-order="stroke fill markers" d=" M 238.94665010635003 254.43048349676005 L 240.3542768064626 264.0549880072858 L 247.20930439481563 257.1541839408803 Z" fill-opacity="1"/><path fill="rgb(69,90,100)" stroke="rgb(76,175,80)" paint-order="fill stroke markers" d=" M 625.5625 146.25 L 625.5085533403297 147.62303417523728 L 625.3470459604149 148.98760313820404 L 625.0789736069594 150.33529386747836 L 624.7059890351652 151.65779740156157 L 624.2303918189475 152.94696006638907 L 623.6551141732964 154.19483374544205 L 622.9837028761966 155.3937248825291 L 622.2202974015615 156.53624191511827 L 621.3696043980005 157.6153408457782 L 620.4368686707646 158.62436867076457 L 619.4278408457782 159.55710439800055 L 618.3487419151182 160.4077974015616 L 617.2062248825291 161.17120287619662 L 616.0073337454421 161.84261417329643 L 614.7594600663891 162.4178918189475 L 613.4702974015615 162.89348903516517 L 612.1477938674783 163.26647360695935 L 610.800103138204 163.5345459604149 L 609.4355341752373 163.69605334032974 L 608.0625 163.75 L 606.6894658247627 163.69605334032974 L 605.324896861796 163.5345459604149 L 603.9772061325217 163.26647360695935 L 602.6547025984385 162.8934890351652 L 601.3655399336109 162.4178918189475 L 600.1176662545579 161.84261417329643 L 598.9187751174709 161.17120287619662 L 597.7762580848818 160.4077974015616 L 596.6971591542218 159.55710439800055 L 595.6881313292354 158.62436867076457 L 594.7553956019995 157.6153408457782 L 593.9047025984385 156.5362419151183 L 593.1412971238034 155.3937248825291 L 592.4698858267036 154.19483374544208 L 591.8946081810525 152.94696006638907 L 591.4190109648348 151.6577974015616 L 591.0460263930406 150.33529386747836 L 590.7779540395851 148.98760313820404 L 590.6164466596703 147.62303417523728 L 590.5625 146.25 L 590.6164466596703 144.87696582476272 L 590.7779540395851 143.51239686179596 L 591.0460263930406 142.16470613252164 L 591.4190109648348 140.84220259843843 L 591.8946081810525 139.55303993361093 L 592.4698858267036 138.30516625455795 L 593.1412971238034 137.1062751174709 L 593.9047025984385 135.96375808488173 L 594.7553956019995 134.8846591542218 L 595.6881313292354 133.87563132923543 L 596.6971591542218 132.94289560199945 L 597.7762580848818 132.09220259843843 L 598.9187751174709 131.32879712380338 L 600.1176662545579 130.65738582670355 L 601.365539933611 130.0821081810525 L 602.6547025984385 129.6065109648348 L 603.9772061325217 129.23352639304065 L 605.324896861796 128.9654540395851 L 606.6894658247628 128.80394665967026 L 608.0625000000001 128.75 L 609.4355341752373 128.80394665967026 L 610.8001031382041 128.9654540395851 L 612.1477938674784 129.23352639304068 L 613.4702974015617 129.60651096483485 L 614.7594600663891 130.08210818105252 L 616.0073337454421 130.6573858267036 L 617.2062248825292 131.32879712380344 L 618.3487419151184 132.0922025984385 L 619.4278408457783 132.94289560199954 L 620.4368686707646 133.87563132923552 L 621.3696043980007 134.8846591542219 L 622.2202974015617 135.96375808488185 L 622.9837028761967 137.10627511747103 L 623.6551141732965 138.3051662545581 L 624.2303918189476 139.5530399336111 L 624.7059890351652 140.8422025984386 L 625.0789736069594 142.16470613252184 L 625.3470459604149 143.51239686179616 L 625.5085533403297 144.87696582476292 Z" fill-opacity="1" stroke-opacity="1" stroke-miterlimit="10" stroke-width="2"/><text fill="rgb(255,255,255)" stroke="none" font-family="times new roman" font-size="10px" font-style="normal" font-weight="normal" text-decoration="normal" x="608.0625" y="151.25" text-anchor="middle" dominant-baseline="text-after-edge" fill-opacity="1">*2.4</text><path fill="rgb(69,90,100)" stroke="rgb(76,175,80)" paint-order="fill stroke markers" d=" M 920.8125 136.25 L 963.3125 136.25 L 963.3125 136.25 A 5 5 0 0 1 968.3125 141.25 L 968.3125 151.25 L 968.3125 151.25 A 5 5 0 0 1 963.3125 156.25 L 878.3125 156.25 L 878.3125 156.25 A 5 5 0 0 1 873.3125 151.25 L 873.3125 141.25 L 873.3125 141.25 A 5 5 0 0 1 878.3125 136.25 L 920.8125 136.25 Z" fill-opacity="1" stroke-opacity="1" stroke-miterlimit="10" stroke-width="2"/><text fill="rgb(255,255,255)" stroke="none" font-family="times new roman" font-size="10px" font-style="normal" font-weight="normal" text-decoration="normal" x="920.8125" y="151.25" text-anchor="middle" dominant-baseline="text-after-edge" fill-opacity="1">42132049dup</text><path fill="rgb(69,90,100)" stroke="rgb(76,175,80)" paint-order="fill stroke markers" d=" M 252.0625 281.625 L 252.00855334032974 282.9980341752373 L 251.8470459604149 284.36260313820407 L 251.57897360695935 285.71029386747836 L 251.20598903516517 287.0327974015616 L 250.7303918189475 288.32196006638907 L 250.15511417329643 289.56983374544205 L 249.48370287619662 290.7687248825291 L 248.7202974015616 291.9112419151183 L 247.86960439800055 292.99034084577823 L 246.93686867076457 293.99936867076457 L 245.9278408457782 294.93210439800055 L 244.84874191511827 295.7827974015616 L 243.7062248825291 296.5462028761966 L 242.50733374544208 297.21761417329645 L 241.25946006638907 297.7928918189475 L 239.9702974015616 298.2684890351652 L 238.64779386747836 298.6414736069593 L 237.30010313820404 298.9095459604149 L 235.93553417523728 299.07105334032974 L 234.5625 299.125 L 233.18946582476272 299.07105334032974 L 231.82489686179596 298.9095459604149 L 230.47720613252164 298.6414736069593 L 229.15470259843843 298.2684890351652 L 227.86553993361093 297.7928918189475 L 226.61766625455795 297.21761417329645 L 225.4187751174709 296.5462028761966 L 224.27625808488173 295.7827974015616 L 223.1971591542218 294.93210439800055 L 222.18813132923543 293.99936867076457 L 221.25539560199945 292.99034084577823 L 220.40470259843843 291.9112419151183 L 219.64129712380338 290.7687248825291 L 218.96988582670357 289.56983374544205 L 218.3946081810525 288.32196006638907 L 217.91901096483483 287.0327974015616 L 217.54602639304065 285.71029386747836 L 217.2779540395851 284.36260313820407 L 217.11644665967026 282.9980341752373 L 217.0625 281.625 L 217.11644665967026 280.2519658247627 L 217.2779540395851 278.88739686179593 L 217.54602639304065 277.53970613252164 L 217.9190109648348 276.2172025984384 L 218.3946081810525 274.92803993361093 L 218.96988582670357 273.68016625455795 L 219.64129712380338 272.4812751174709 L 220.4047025984384 271.3387580848817 L 221.25539560199945 270.25965915422177 L 222.1881313292354 269.25063132923543 L 223.19715915422177 268.31789560199945 L 224.2762580848817 267.4672025984384 L 225.4187751174709 266.7037971238034 L 226.61766625455795 266.03238582670355 L 227.86553993361096 265.4571081810525 L 229.15470259843843 264.9815109648348 L 230.4772061325217 264.6085263930407 L 231.824896861796 264.3404540395851 L 233.18946582476278 264.17894665967026 L 234.56250000000006 264.125 L 235.93553417523736 264.17894665967026 L 237.30010313820412 264.3404540395851 L 238.6477938674784 264.6085263930407 L 239.97029740156165 264.98151096483485 L 241.25946006638915 265.4571081810525 L 242.50733374544217 266.0323858267036 L 243.7062248825292 266.70379712380344 L 244.84874191511838 267.4672025984385 L 245.92784084577832 268.31789560199957 L 246.93686867076468 269.2506313292355 L 247.86960439800063 270.2596591542219 L 248.72029740156168 271.3387580848818 L 249.4837028761967 272.48127511747106 L 250.1551141732965 273.68016625455806 L 250.7303918189476 274.9280399336111 L 251.20598903516523 276.2172025984386 L 251.57897360695938 277.5397061325218 L 251.84704596041493 278.88739686179616 L 252.00855334032974 280.2519658247629 Z" fill-opacity="1" stroke-opacity="1" stroke-miterlimit="10" stroke-width="2"/><text fill="rgb(255,255,255)" stroke="none" font-family="times new roman" font-size="10px" font-style="normal" font-weight="normal" text-decoration="normal" x="234.5625" y="286.625" text-anchor="middle" dominant-baseline="text-after-edge" fill-opacity="1">*1.54</text><path fill="rgb(69,90,100)" stroke="rgb(255,193,7)" paint-order="fill stroke markers" d=" M 289.4375 65.75 L 289.4375 85.75 L 384.4375 85.75 L 384.4375 65.75 Z" fill-opacity="1" stroke-opacity="1" stroke-miterlimit="10" stroke-width="2"/><text fill="rgb(255,255,255)" stroke="none" font-family="times new roman" font-size="10px" font-style="normal" font-weight="normal" text-decoration="normal" x="336.9375" y="80.75" text-anchor="middle" dominant-baseline="text-after-edge" fill-opacity="1">42127941G&gt;A</text><path fill="rgb(69,90,100)" stroke="rgb(76,175,80)" paint-order="fill stroke markers" d=" M 649.8125 136.25 L 649.8125 156.25 L 744.8125 156.25 L 744.8125 136.25 Z" fill-opacity="1" stroke-opacity="1" stroke-miterlimit="10" stroke-width="2"/><text fill="rgb(255,255,255)" stroke="none" font-family="times new roman" font-size="10px" font-style="normal" font-weight="normal" text-decoration="normal" x="697.3125" y="151.25" text-anchor="middle" dominant-baseline="text-after-edge" fill-opacity="1">42129950A&gt;C</text><path fill="rgb(69,90,100)" stroke="rgb(76,175,80)" paint-order="fill stroke markers" d=" M 777.4375 281.625 L 777.3835533403297 282.9980341752373 L 777.2220459604149 284.36260313820407 L 776.9539736069594 285.71029386747836 L 776.5809890351652 287.0327974015616 L 776.1053918189475 288.32196006638907 L 775.5301141732964 289.56983374544205 L 774.8587028761966 290.7687248825291 L 774.0952974015615 291.9112419151183 L 773.2446043980005 292.99034084577823 L 772.3118686707646 293.99936867076457 L 771.3028408457782 294.93210439800055 L 770.2237419151182 295.7827974015616 L 769.0812248825291 296.5462028761966 L 767.8823337454421 297.21761417329645 L 766.6344600663891 297.7928918189475 L 765.3452974015615 298.2684890351652 L 764.0227938674783 298.6414736069593 L 762.675103138204 298.9095459604149 L 761.3105341752373 299.07105334032974 L 759.9375 299.125 L 758.5644658247627 299.07105334032974 L 757.199896861796 298.9095459604149 L 755.8522061325217 298.6414736069593 L 754.5297025984385 298.2684890351652 L 753.2405399336109 297.7928918189475 L 751.9926662545579 297.21761417329645 L 750.7937751174709 296.5462028761966 L 749.6512580848818 295.7827974015616 L 748.5721591542218 294.93210439800055 L 747.5631313292354 293.99936867076457 L 746.6303956019995 292.99034084577823 L 745.7797025984385 291.9112419151183 L 745.0162971238034 290.7687248825291 L 744.3448858267036 289.56983374544205 L 743.7696081810525 288.32196006638907 L 743.2940109648348 287.0327974015616 L 742.9210263930406 285.71029386747836 L 742.6529540395851 284.36260313820407 L 742.4914466596703 282.9980341752373 L 742.4375 281.625 L 742.4914466596703 280.2519658247627 L 742.6529540395851 278.88739686179593 L 742.9210263930406 277.53970613252164 L 743.2940109648348 276.2172025984384 L 743.7696081810525 274.92803993361093 L 744.3448858267036 273.68016625455795 L 745.0162971238034 272.4812751174709 L 745.7797025984385 271.3387580848817 L 746.6303956019995 270.25965915422177 L 747.5631313292354 269.25063132923543 L 748.5721591542218 268.31789560199945 L 749.6512580848818 267.4672025984384 L 750.7937751174709 266.7037971238034 L 751.9926662545579 266.03238582670355 L 753.240539933611 265.4571081810525 L 754.5297025984385 264.9815109648348 L 755.8522061325217 264.6085263930407 L 757.199896861796 264.3404540395851 L 758.5644658247628 264.17894665967026 L 759.9375000000001 264.125 L 761.3105341752373 264.17894665967026 L 762.6751031382041 264.3404540395851 L 764.0227938674784 264.6085263930407 L 765.3452974015617 264.98151096483485 L 766.6344600663891 265.4571081810525 L 767.8823337454421 266.0323858267036 L 769.0812248825292 266.70379712380344 L 770.2237419151184 267.4672025984385 L 771.3028408457783 268.31789560199957 L 772.3118686707646 269.2506313292355 L 773.2446043980007 270.2596591542219 L 774.0952974015617 271.3387580848818 L 774.8587028761967 272.48127511747106 L 775.5301141732965 273.68016625455806 L 776.1053918189476 274.9280399336111 L 776.5809890351652 276.2172025984386 L 776.9539736069594 277.5397061325218 L 777.2220459604149 278.88739686179616 L 777.3835533403297 280.2519658247629 Z" fill-opacity="1" stroke-opacity="1" stroke-miterlimit="10" stroke-width="2"/><text fill="rgb(255,255,255)" stroke="none" font-family="times new roman" font-size="10px" font-style="normal" font-weight="normal" text-decoration="normal" x="759.9375" y="286.625" text-anchor="middle" dominant-baseline="text-after-edge" fill-opacity="1">*1.58</text><path fill="rgb(69,90,100)" stroke="rgb(76,175,80)" paint-order="fill stroke markers" d=" M 560.0625 146.25 L 559.9931400089954 148.0153296538765 L 559.7854876633907 149.76977546340518 L 559.4408232089477 151.50252068675786 L 558.9612716166409 153.20288237343632 L 558.349789481504 154.86037722821453 L 557.6101467942383 156.46478624413982 L 556.7469036979671 158.00621770610886 L 555.7653823734363 159.47516817658064 L 554.6716342260007 160.86258108742913 L 553.4724025766973 162.1599025766973 L 552.1750810874291 163.3591342260007 L 550.7876681765806 164.45288237343632 L 549.3187177061088 165.43440369796707 L 547.7772862441398 166.2976467942383 L 546.1728772282145 167.03728948150396 L 544.5153823734363 167.64877161664094 L 542.8150206867579 168.12832320894773 L 541.0822754634052 168.4729876633906 L 539.3278296538765 168.68064000899537 L 537.5625 168.75 L 535.7971703461235 168.68064000899537 L 534.0427245365948 168.4729876633906 L 532.3099793132421 168.12832320894773 L 530.6096176265637 167.64877161664094 L 528.9521227717855 167.03728948150396 L 527.3477137558602 166.2976467942383 L 525.8062822938912 165.43440369796707 L 524.3373318234194 164.45288237343632 L 522.9499189125709 163.3591342260007 L 521.6525974233027 162.15990257669733 L 520.4533657739993 160.86258108742913 L 519.3596176265637 159.47516817658064 L 518.3780963020329 158.00621770610886 L 517.5148532057617 156.46478624413982 L 516.775210518496 154.86037722821453 L 516.1637283833591 153.20288237343632 L 515.6841767910523 151.50252068675786 L 515.3395123366095 149.7697754634052 L 515.1318599910046 148.0153296538765 L 515.0625 146.25 L 515.1318599910046 144.4846703461235 L 515.3395123366093 142.73022453659482 L 515.6841767910523 140.99747931324214 L 516.1637283833591 139.29711762656368 L 516.775210518496 137.63962277178547 L 517.5148532057617 136.0352137558602 L 518.3780963020329 134.49378229389114 L 519.3596176265637 133.02483182341936 L 520.4533657739993 131.63741891257087 L 521.6525974233027 130.3400974233027 L 522.9499189125709 129.1408657739993 L 524.3373318234194 128.04711762656368 L 525.8062822938912 127.06559630203293 L 527.3477137558602 126.20235320576171 L 528.9521227717855 125.46271051849604 L 530.6096176265637 124.85122838335903 L 532.3099793132421 124.37167679105227 L 534.0427245365948 124.02701233660939 L 535.7971703461236 123.81935999100462 L 537.5625000000001 123.75 L 539.3278296538766 123.81935999100463 L 541.0822754634053 124.02701233660942 L 542.815020686758 124.3716767910523 L 544.5153823734364 124.85122838335909 L 546.1728772282146 125.4627105184961 L 547.7772862441399 126.20235320576178 L 549.3187177061089 127.065596302033 L 550.7876681765807 128.04711762656376 L 552.1750810874292 129.14086577399942 L 553.4724025766974 130.3400974233028 L 554.6716342260008 131.637418912571 L 555.7653823734364 133.0248318234195 L 556.7469036979671 134.49378229389131 L 557.6101467942384 136.03521375586038 L 558.349789481504 137.6396227717857 L 558.961271616641 139.2971176265639 L 559.4408232089478 140.99747931324237 L 559.7854876633907 142.73022453659505 L 559.9931400089954 144.48467034612375 Z" fill-opacity="1" stroke-opacity="1" stroke-miterlimit="10" stroke-width="2"/><text fill="rgb(255,255,255)" stroke="none" font-family="times new roman" font-size="15px" font-style="normal" font-weight="normal" text-decoration="normal" x="537.5625" y="153.75" text-anchor="middle" dominant-baseline="text-after-edge" fill-opacity="1">*39</text><path fill="rgb(69,90,100)" stroke="rgb(76,175,80)" paint-order="fill stroke markers" d=" M 142.4375 65.75 L 142.4375 85.75 L 237.43749999999997 85.75 L 237.4375 65.75 Z" fill-opacity="1" stroke-opacity="1" stroke-miterlimit="10" stroke-width="2"/><text fill="rgb(255,255,255)" stroke="none" font-family="times new roman" font-size="10px" font-style="normal" font-weight="normal" text-decoration="normal" x="189.9375" y="80.75" text-anchor="middle" dominant-baseline="text-after-edge" fill-opacity="1">42127407T&gt;G</text><path fill="rgb(69,90,100)" stroke="rgb(76,175,80)" paint-order="fill stroke markers" d=" M 443.6875 75.75 L 443.63355334032974 77.12303417523728 L 443.4720459604149 78.48760313820404 L 443.2039736069593 79.83529386747834 L 442.8309890351652 81.15779740156158 L 442.3553918189475 82.44696006638907 L 441.78011417329645 83.69483374544207 L 441.1087028761966 84.8937248825291 L 440.3452974015616 86.03624191511828 L 439.49460439800055 87.1153408457782 L 438.56186867076457 88.12436867076458 L 437.55284084577823 89.05710439800055 L 436.4737419151183 89.90779740156158 L 435.3312248825291 90.67120287619662 L 434.13233374544205 91.34261417329644 L 432.88446006638907 91.91789181894751 L 431.5952974015616 92.39348903516519 L 430.27279386747836 92.76647360695934 L 428.92510313820407 93.0345459604149 L 427.5605341752373 93.19605334032974 L 426.1875 93.25 L 424.8144658247627 93.19605334032974 L 423.44989686179593 93.0345459604149 L 422.10220613252164 92.76647360695934 L 420.7797025984384 92.39348903516519 L 419.49053993361093 91.91789181894751 L 418.24266625455795 91.34261417329644 L 417.0437751174709 90.67120287619662 L 415.9012580848817 89.90779740156158 L 414.82215915422177 89.05710439800055 L 413.81313132923543 88.12436867076458 L 412.88039560199945 87.11534084577822 L 412.0297025984384 86.03624191511828 L 411.2662971238034 84.89372488252911 L 410.59488582670355 83.69483374544207 L 410.0196081810525 82.44696006638907 L 409.5440109648348 81.15779740156158 L 409.1710263930407 79.83529386747834 L 408.9029540395851 78.48760313820404 L 408.74144665967026 77.1230341752373 L 408.6875 75.75 L 408.74144665967026 74.37696582476272 L 408.9029540395851 73.01239686179596 L 409.1710263930407 71.66470613252166 L 409.5440109648348 70.34220259843842 L 410.0196081810525 69.05303993361093 L 410.59488582670355 67.80516625455793 L 411.2662971238034 66.6062751174709 L 412.0297025984384 65.46375808488172 L 412.88039560199945 64.3846591542218 L 413.81313132923543 63.37563132923542 L 414.82215915422177 62.44289560199947 L 415.9012580848817 61.59220259843842 L 417.0437751174709 60.82879712380338 L 418.24266625455795 60.15738582670356 L 419.49053993361093 59.582108181052476 L 420.77970259843846 59.106510964834804 L 422.1022061325217 58.73352639304065 L 423.449896861796 58.46545403958508 L 424.81446582476275 58.30394665967026 L 426.18750000000006 58.25 L 427.56053417523736 58.30394665967027 L 428.9251031382041 58.4654540395851 L 430.2727938674784 58.73352639304068 L 431.59529740156165 59.10651096483484 L 432.8844600663892 59.58210818105252 L 434.13233374544217 60.15738582670361 L 435.3312248825292 60.82879712380345 L 436.47374191511835 61.59220259843849 L 437.5528408457783 62.44289560199954 L 438.5618686707647 63.37563132923552 L 439.49460439800066 64.3846591542219 L 440.34529740156165 65.46375808488185 L 441.1087028761967 66.60627511747103 L 441.7801141732965 67.80516625455807 L 442.35539181894757 69.05303993361109 L 442.83098903516526 70.34220259843859 L 443.2039736069594 71.66470613252184 L 443.47204596041496 73.01239686179616 L 443.63355334032974 74.37696582476292 Z" fill-opacity="1" stroke-opacity="1" stroke-miterlimit="10" stroke-width="2"/><text fill="rgb(255,255,255)" stroke="none" font-family="times new roman" font-size="10px" font-style="normal" font-weight="normal" text-decoration="normal" x="426.1875" y="80.75" text-anchor="middle" dominant-baseline="text-after-edge" fill-opacity="1">*34.1</text><path fill="rgb(69,90,100)" stroke="rgb(76,175,80)" paint-order="fill stroke markers" d=" M 231.6875 136.25 L 231.6875 156.25 L 326.6875 156.25 L 326.6875 136.25 Z" fill-opacity="1" stroke-opacity="1" stroke-miterlimit="10" stroke-width="2"/><text fill="rgb(255,255,255)" stroke="none" font-family="times new roman" font-size="10px" font-style="normal" font-weight="normal" text-decoration="normal" x="279.1875" y="151.25" text-anchor="middle" dominant-baseline="text-after-edge" fill-opacity="1">42130047G&gt;C</text><path fill="rgb(69,90,100)" stroke="rgb(76,175,80)" paint-order="fill stroke markers" d=" M 761.5625 136.25 L 761.5625 156.25 L 856.5625 156.25 L 856.5625 136.25 Z" fill-opacity="1" stroke-opacity="1" stroke-miterlimit="10" stroke-width="2"/><text fill="rgb(255,255,255)" stroke="none" font-family="times new roman" font-size="10px" font-style="normal" font-weight="normal" text-decoration="normal" x="809.0625" y="151.25" text-anchor="middle" dominant-baseline="text-after-edge" fill-opacity="1">42130482C&gt;A</text><path fill="rgb(69,90,100)" stroke="rgb(76,175,80)" paint-order="fill stroke markers" d=" M 510.4375 75.75 L 510.38355334032974 77.12303417523728 L 510.2220459604149 78.48760313820404 L 509.9539736069593 79.83529386747834 L 509.5809890351652 81.15779740156158 L 509.1053918189475 82.44696006638907 L 508.53011417329645 83.69483374544207 L 507.8587028761966 84.8937248825291 L 507.0952974015616 86.03624191511828 L 506.24460439800055 87.1153408457782 L 505.31186867076457 88.12436867076458 L 504.30284084577823 89.05710439800055 L 503.2237419151183 89.90779740156158 L 502.0812248825291 90.67120287619662 L 500.88233374544205 91.34261417329644 L 499.63446006638907 91.91789181894751 L 498.3452974015616 92.39348903516519 L 497.02279386747836 92.76647360695934 L 495.67510313820407 93.0345459604149 L 494.3105341752373 93.19605334032974 L 492.9375 93.25 L 491.5644658247627 93.19605334032974 L 490.19989686179593 93.0345459604149 L 488.85220613252164 92.76647360695934 L 487.5297025984384 92.39348903516519 L 486.24053993361093 91.91789181894751 L 484.99266625455795 91.34261417329644 L 483.7937751174709 90.67120287619662 L 482.6512580848817 89.90779740156158 L 481.57215915422177 89.05710439800055 L 480.56313132923543 88.12436867076458 L 479.63039560199945 87.11534084577822 L 478.7797025984384 86.03624191511828 L 478.0162971238034 84.89372488252911 L 477.34488582670355 83.69483374544207 L 476.7696081810525 82.44696006638907 L 476.2940109648348 81.15779740156158 L 475.9210263930407 79.83529386747834 L 475.6529540395851 78.48760313820404 L 475.49144665967026 77.1230341752373 L 475.4375 75.75 L 475.49144665967026 74.37696582476272 L 475.6529540395851 73.01239686179596 L 475.9210263930407 71.66470613252166 L 476.2940109648348 70.34220259843842 L 476.7696081810525 69.05303993361093 L 477.34488582670355 67.80516625455793 L 478.0162971238034 66.6062751174709 L 478.7797025984384 65.46375808488172 L 479.63039560199945 64.3846591542218 L 480.56313132923543 63.37563132923542 L 481.57215915422177 62.44289560199947 L 482.6512580848817 61.59220259843842 L 483.7937751174709 60.82879712380338 L 484.99266625455795 60.15738582670356 L 486.24053993361093 59.582108181052476 L 487.52970259843846 59.106510964834804 L 488.8522061325217 58.73352639304065 L 490.199896861796 58.46545403958508 L 491.56446582476275 58.30394665967026 L 492.93750000000006 58.25 L 494.31053417523736 58.30394665967027 L 495.6751031382041 58.4654540395851 L 497.0227938674784 58.73352639304068 L 498.34529740156165 59.10651096483484 L 499.6344600663892 59.58210818105252 L 500.88233374544217 60.15738582670361 L 502.0812248825292 60.82879712380345 L 503.22374191511835 61.59220259843849 L 504.3028408457783 62.44289560199954 L 505.3118686707647 63.37563132923552 L 506.24460439800066 64.3846591542219 L 507.09529740156165 65.46375808488185 L 507.8587028761967 66.60627511747103 L 508.5301141732965 67.80516625455807 L 509.10539181894757 69.05303993361109 L 509.58098903516526 70.34220259843859 L 509.9539736069594 71.66470613252184 L 510.22204596041496 73.01239686179616 L 510.38355334032974 74.37696582476292 Z" fill-opacity="1" stroke-opacity="1" stroke-miterlimit="10" stroke-width="2"/><text fill="rgb(255,255,255)" stroke="none" font-family="times new roman" font-size="10px" font-style="normal" font-weight="normal" text-decoration="normal" x="492.9375" y="80.75" text-anchor="middle" dominant-baseline="text-after-edge" fill-opacity="1">*39.2</text><path fill="rgb(69,90,100)" stroke="rgb(76,175,80)" paint-order="fill stroke markers" d=" M 1032.5625 136.25 L 1075.0625 136.25 L 1075.0625 136.25 A 5 5 0 0 1 1080.0625 141.25 L 1080.0625 151.25 L 1080.0625 151.25 A 5 5 0 0 1 1075.0625 156.25 L 990.0625 156.25 L 990.0625 156.25 A 5 5 0 0 1 985.0625 151.25 L 985.0625 141.25 L 985.0625 141.25 A 5 5 0 0 1 990.0625 136.25 L 1032.5625 136.25 Z" fill-opacity="1" stroke-opacity="1" stroke-miterlimit="10" stroke-width="2"/><text fill="rgb(255,255,255)" stroke="none" font-family="times new roman" font-size="10px" font-style="normal" font-weight="normal" text-decoration="normal" x="1032.5625" y="151.25" text-anchor="middle" dominant-baseline="text-after-edge" fill-opacity="1">42132025_4213202…</text><path fill="rgb(69,90,100)" stroke="rgb(255,193,7)" paint-order="fill stroke markers" d=" M 534.6875 65.75 L 534.6875 85.75 L 629.6875 85.75 L 629.6875 65.75 Z" fill-opacity="1" stroke-opacity="1" stroke-miterlimit="10" stroke-width="2"/><text fill="rgb(255,255,255)" stroke="none" font-family="times new roman" font-size="10px" font-style="normal" font-weight="normal" text-decoration="normal" x="582.1875" y="80.75" text-anchor="middle" dominant-baseline="text-after-edge" fill-opacity="1">42126611C&gt;G</text><path fill="rgb(69,90,100)" stroke="rgb(76,175,80)" paint-order="fill stroke markers" d=" M 207.4375 146.25 L 207.38355334032974 147.62303417523728 L 207.2220459604149 148.98760313820404 L 206.95397360695935 150.33529386747836 L 206.58098903516517 151.65779740156157 L 206.1053918189475 152.94696006638907 L 205.53011417329643 154.19483374544205 L 204.85870287619662 155.3937248825291 L 204.0952974015616 156.53624191511827 L 203.24460439800055 157.6153408457782 L 202.31186867076457 158.62436867076457 L 201.3028408457782 159.55710439800055 L 200.22374191511827 160.4077974015616 L 199.0812248825291 161.17120287619662 L 197.88233374544208 161.84261417329643 L 196.63446006638907 162.4178918189475 L 195.3452974015616 162.89348903516517 L 194.02279386747836 163.26647360695935 L 192.67510313820404 163.5345459604149 L 191.31053417523728 163.69605334032974 L 189.9375 163.75 L 188.56446582476272 163.69605334032974 L 187.19989686179596 163.5345459604149 L 185.85220613252164 163.26647360695935 L 184.52970259843843 162.8934890351652 L 183.24053993361093 162.4178918189475 L 181.99266625455795 161.84261417329643 L 180.7937751174709 161.17120287619662 L 179.65125808488173 160.4077974015616 L 178.5721591542218 159.55710439800055 L 177.56313132923543 158.62436867076457 L 176.63039560199945 157.6153408457782 L 175.77970259843843 156.5362419151183 L 175.01629712380338 155.3937248825291 L 174.34488582670357 154.19483374544208 L 173.7696081810525 152.94696006638907 L 173.29401096483483 151.6577974015616 L 172.92102639304065 150.33529386747836 L 172.6529540395851 148.98760313820404 L 172.49144665967026 147.62303417523728 L 172.4375 146.25 L 172.49144665967026 144.87696582476272 L 172.6529540395851 143.51239686179596 L 172.92102639304065 142.16470613252164 L 173.2940109648348 140.84220259843843 L 173.7696081810525 139.55303993361093 L 174.34488582670357 138.30516625455795 L 175.01629712380338 137.1062751174709 L 175.7797025984384 135.96375808488173 L 176.63039560199945 134.8846591542218 L 177.5631313292354 133.87563132923543 L 178.57215915422177 132.94289560199945 L 179.6512580848817 132.09220259843843 L 180.7937751174709 131.32879712380338 L 181.99266625455795 130.65738582670355 L 183.24053993361096 130.0821081810525 L 184.52970259843843 129.6065109648348 L 185.8522061325217 129.23352639304065 L 187.199896861796 128.9654540395851 L 188.56446582476278 128.80394665967026 L 189.93750000000006 128.75 L 191.31053417523736 128.80394665967026 L 192.67510313820412 128.9654540395851 L 194.0227938674784 129.23352639304068 L 195.34529740156165 129.60651096483485 L 196.63446006638915 130.08210818105252 L 197.88233374544217 130.6573858267036 L 199.0812248825292 131.32879712380344 L 200.22374191511838 132.0922025984385 L 201.30284084577832 132.94289560199954 L 202.31186867076468 133.87563132923552 L 203.24460439800063 134.8846591542219 L 204.09529740156168 135.96375808488185 L 204.8587028761967 137.10627511747103 L 205.5301141732965 138.3051662545581 L 206.1053918189476 139.5530399336111 L 206.58098903516523 140.8422025984386 L 206.95397360695938 142.16470613252184 L 207.22204596041493 143.51239686179616 L 207.38355334032974 144.87696582476292 Z" fill-opacity="1" stroke-opacity="1" stroke-miterlimit="10" stroke-width="2"/><text fill="rgb(255,255,255)" stroke="none" font-family="times new roman" font-size="10px" font-style="normal" font-weight="normal" text-decoration="normal" x="189.9375" y="151.25" text-anchor="middle" dominant-baseline="text-after-edge" fill-opacity="1">*1.41</text><path fill="rgb(69,90,100)" stroke="rgb(69,90,100)" paint-order="fill stroke markers" d=" M 611.0625 395.75 L 592.3125 413.25 L 611.0625 430.75 L 648.5625 430.75 L 667.3125 413.25 L 648.5625 395.75 Z" fill-opacity="1" stroke-opacity="1" stroke-miterlimit="10" stroke-width="2"/><text fill="rgb(255,255,255)" stroke="none" font-family="times new roman" font-size="10px" font-style="normal" font-weight="normal" text-decoration="normal" x="629.8125" y="418.25" text-anchor="middle" dominant-baseline="text-after-edge" fill-opacity="1">HG04206-B</text><path fill="rgb(69,90,100)" stroke="rgb(76,175,80)" paint-order="fill stroke markers" d=" M 560.0625 281.625 L 559.9931400089954 283.3903296538765 L 559.7854876633907 285.1447754634052 L 559.4408232089477 286.87752068675786 L 558.9612716166409 288.5778823734363 L 558.349789481504 290.23537722821453 L 557.6101467942383 291.8397862441398 L 556.7469036979671 293.3812177061088 L 555.7653823734363 294.85016817658067 L 554.6716342260007 296.23758108742913 L 553.4724025766973 297.53490257669733 L 552.1750810874291 298.7341342260007 L 550.7876681765806 299.8278823734363 L 549.3187177061088 300.80940369796707 L 547.7772862441398 301.6726467942383 L 546.1728772282145 302.41228948150393 L 544.5153823734363 303.02377161664094 L 542.8150206867579 303.50332320894773 L 541.0822754634052 303.8479876633906 L 539.3278296538765 304.0556400089954 L 537.5625 304.125 L 535.7971703461235 304.0556400089954 L 534.0427245365948 303.8479876633906 L 532.3099793132421 303.50332320894773 L 530.6096176265637 303.02377161664094 L 528.9521227717855 302.41228948150393 L 527.3477137558602 301.6726467942383 L 525.8062822938912 300.80940369796707 L 524.3373318234194 299.8278823734363 L 522.9499189125709 298.7341342260007 L 521.6525974233027 297.53490257669733 L 520.4533657739993 296.23758108742913 L 519.3596176265637 294.85016817658067 L 518.3780963020329 293.3812177061088 L 517.5148532057617 291.8397862441398 L 516.775210518496 290.23537722821453 L 516.1637283833591 288.5778823734363 L 515.6841767910523 286.87752068675786 L 515.3395123366095 285.1447754634052 L 515.1318599910046 283.3903296538765 L 515.0625 281.625 L 515.1318599910046 279.8596703461235 L 515.3395123366093 278.1052245365948 L 515.6841767910523 276.37247931324214 L 516.1637283833591 274.6721176265637 L 516.775210518496 273.01462277178547 L 517.5148532057617 271.4102137558602 L 518.3780963020329 269.8687822938912 L 519.3596176265637 268.39983182341933 L 520.4533657739993 267.01241891257087 L 521.6525974233027 265.71509742330267 L 522.9499189125709 264.51586577399934 L 524.3373318234194 263.4221176265637 L 525.8062822938912 262.44059630203293 L 527.3477137558602 261.5773532057617 L 528.9521227717855 260.837710518496 L 530.6096176265637 260.22622838335906 L 532.3099793132421 259.74667679105227 L 534.0427245365948 259.4020123366094 L 535.7971703461236 259.1943599910046 L 537.5625000000001 259.125 L 539.3278296538766 259.1943599910046 L 541.0822754634053 259.4020123366094 L 542.815020686758 259.7466767910523 L 544.5153823734364 260.22622838335906 L 546.1728772282146 260.8377105184961 L 547.7772862441399 261.57735320576177 L 549.3187177061089 262.440596302033 L 550.7876681765807 263.42211762656376 L 552.1750810874292 264.5158657739994 L 553.4724025766974 265.7150974233028 L 554.6716342260008 267.012418912571 L 555.7653823734364 268.3998318234195 L 556.7469036979671 269.86878229389134 L 557.6101467942384 271.4102137558604 L 558.349789481504 273.0146227717857 L 558.961271616641 274.67211762656393 L 559.4408232089478 276.37247931324237 L 559.7854876633907 278.1052245365951 L 559.9931400089954 279.8596703461238 Z" fill-opacity="1" stroke-opacity="1" stroke-miterlimit="10" stroke-width="2"/><text fill="rgb(255,255,255)" stroke="none" font-family="times new roman" font-size="15px" font-style="normal" font-weight="normal" text-decoration="normal" x="537.5625" y="289.125" text-anchor="middle" dominant-baseline="text-after-edge" fill-opacity="1">*2</text><path fill="rgb(3,169,244)" stroke="none" paint-order="stroke fill markers" d=" M 537.5625 249.125 L 562.0625 249.125 L 562.0625 249.125 A 8 8 0 0 1 570.0625 257.125 L 570.0625 306.125 L 570.0625 306.125 A 8 8 0 0 1 562.0625 314.125 L 513.0625 314.125 L 513.0625 314.125 A 8 8 0 0 1 505.0625 306.125 L 505.0625 257.125 L 505.0625 257.125 A 8 8 0 0 1 513.0625 249.125 L 537.5625 249.125 Z" fill-opacity="0.15"/><path fill="rgb(69,90,100)" stroke="rgb(76,175,80)" paint-order="fill stroke markers" d=" M 404.0625 146.25 L 403.9931400089954 148.0153296538765 L 403.7854876633906 149.76977546340518 L 403.44082320894773 151.50252068675786 L 402.96127161664094 153.20288237343632 L 402.34978948150393 154.86037722821453 L 401.6101467942383 156.46478624413982 L 400.74690369796707 158.00621770610886 L 399.7653823734363 159.47516817658064 L 398.6716342260007 160.86258108742913 L 397.47240257669733 162.1599025766973 L 396.17508108742913 163.3591342260007 L 394.78766817658067 164.45288237343632 L 393.3187177061088 165.43440369796707 L 391.7772862441398 166.2976467942383 L 390.17287722821453 167.03728948150396 L 388.5153823734363 167.64877161664094 L 386.81502068675786 168.12832320894773 L 385.0822754634052 168.4729876633906 L 383.3278296538765 168.68064000899537 L 381.5625 168.75 L 379.7971703461235 168.68064000899537 L 378.0427245365948 168.4729876633906 L 376.30997931324214 168.12832320894773 L 374.6096176265637 167.64877161664094 L 372.95212277178547 167.03728948150396 L 371.3477137558602 166.2976467942383 L 369.8062822938912 165.43440369796707 L 368.33733182341933 164.45288237343632 L 366.94991891257087 163.3591342260007 L 365.65259742330267 162.15990257669733 L 364.4533657739993 160.86258108742913 L 363.3596176265637 159.47516817658064 L 362.37809630203293 158.00621770610886 L 361.5148532057617 156.46478624413982 L 360.77521051849607 154.86037722821453 L 360.16372838335906 153.20288237343632 L 359.68417679105227 151.50252068675786 L 359.3395123366094 149.7697754634052 L 359.1318599910046 148.0153296538765 L 359.0625 146.25 L 359.1318599910046 144.4846703461235 L 359.3395123366094 142.73022453659482 L 359.68417679105227 140.99747931324214 L 360.16372838335906 139.29711762656368 L 360.77521051849607 137.63962277178547 L 361.5148532057617 136.0352137558602 L 362.37809630203293 134.49378229389114 L 363.3596176265637 133.02483182341936 L 364.4533657739993 131.63741891257087 L 365.65259742330267 130.3400974233027 L 366.94991891257087 129.1408657739993 L 368.33733182341933 128.04711762656368 L 369.8062822938912 127.06559630203293 L 371.34771375586024 126.20235320576171 L 372.9521227717855 125.46271051849604 L 374.6096176265637 124.85122838335903 L 376.3099793132422 124.37167679105227 L 378.04272453659485 124.02701233660939 L 379.79717034612355 123.81935999100462 L 381.56250000000006 123.75 L 383.3278296538766 123.81935999100463 L 385.08227546340527 124.02701233660942 L 386.815020686758 124.3716767910523 L 388.5153823734364 124.85122838335909 L 390.17287722821465 125.4627105184961 L 391.77728624413993 126.20235320576178 L 393.318717706109 127.065596302033 L 394.7876681765808 128.04711762656376 L 396.17508108742925 129.14086577399942 L 397.47240257669745 130.3400974233028 L 398.67163422600083 131.637418912571 L 399.7653823734364 133.0248318234195 L 400.7469036979672 134.49378229389131 L 401.6101467942384 136.03521375586038 L 402.34978948150405 137.6396227717857 L 402.96127161664106 139.2971176265639 L 403.4408232089478 140.99747931324237 L 403.78548766339065 142.73022453659505 L 403.9931400089954 144.48467034612375 Z" fill-opacity="1" stroke-opacity="1" stroke-miterlimit="10" stroke-width="2"/><text fill="rgb(255,255,255)" stroke="none" font-family="times new roman" font-size="15px" font-style="normal" font-weight="normal" text-decoration="normal" x="381.5625" y="153.75" text-anchor="middle" dominant-baseline="text-after-edge" fill-opacity="1">*34</text><path fill="rgb(176,190,197)" stroke="none" paint-order="stroke fill markers" d=" M 592.3125 176.62500000000003 L 592.3125 386.625 L 667.3125 386.625 L 667.3125 176.62500000000006 Z" fill-opacity="0.8"/><text fill="rgb(0,0,0)" stroke="none" font-family="times new roman" font-size="10px" font-style="normal" font-weight="normal" text-decoration="normal" x="597.3125" y="191.625" text-anchor="start" dominant-baseline="text-after-edge" fill-opacity="0.8">42126310C&gt;T </text><text fill="rgb(0,0,0)" stroke="none" font-family="times new roman" font-size="10px" font-style="normal" font-weight="normal" text-decoration="normal" x="597.3125" y="201.625" text-anchor="start" dominant-baseline="text-after-edge" fill-opacity="0.8">42127001G&gt;A </text><text fill="rgb(0,0,0)" stroke="none" font-family="times new roman" font-size="10px" font-style="normal" font-weight="normal" text-decoration="normal" x="597.3125" y="211.625" text-anchor="start" dominant-baseline="text-after-edge" fill-opacity="0.8">42127207C&gt;T </text><text fill="rgb(0,0,0)" stroke="none" font-family="times new roman" font-size="10px" font-style="normal" font-weight="normal" text-decoration="normal" x="597.3125" y="221.625" text-anchor="start" dominant-baseline="text-after-edge" fill-opacity="0.8">42129130C&gt;G </text><text fill="rgb(0,0,0)" stroke="none" font-family="times new roman" font-size="10px" font-style="normal" font-weight="normal" text-decoration="normal" x="597.3125" y="231.625" text-anchor="start" dominant-baseline="text-after-edge" fill-opacity="0.8">42131469C&gt;T </text><text fill="rgb(0,0,0)" stroke="none" font-family="times new roman" font-size="10px" font-style="normal" font-weight="normal" text-decoration="normal" x="597.3125" y="241.625" text-anchor="start" dominant-baseline="text-after-edge" fill-opacity="0.8">42131531G&gt;A </text><text fill="rgb(0,0,0)" stroke="none" font-family="times new roman" font-size="10px" font-style="normal" font-weight="normal" text-decoration="normal" x="597.3125" y="251.625" text-anchor="start" dominant-baseline="text-after-edge" fill-opacity="0.8">42132026T&gt;C </text><text fill="rgb(0,0,0)" stroke="none" font-family="times new roman" font-size="10px" font-style="normal" font-weight="normal" text-decoration="normal" x="597.3125" y="261.625" text-anchor="start" dominant-baseline="text-after-edge" fill-opacity="0.8">42132375G&gt;C </text><path fill="rgb(176,190,197)" stroke="none" paint-order="stroke fill markers" d=" M 983.4375 176.625 L 1050.4375 176.625 L 1050.4375 176.625 A 8 8 0 0 1 1058.4375 184.625 L 1058.4375 378.625 L 1058.4375 378.625 A 8 8 0 0 1 1050.4375 386.625 L 916.4375 386.625 L 916.4375 386.625 A 8 8 0 0 1 908.4375 378.625 L 908.4375 184.625 L 908.4375 184.625 A 8 8 0 0 1 916.4375 176.625 L 983.4375 176.625 Z" fill-opacity="0.8"/><text fill="rgb(0,0,0)" stroke="none" font-family="times new roman" font-size="10px" font-style="normal" font-weight="normal" text-decoration="normal" x="913.4375" y="191.625" text-anchor="start" dominant-baseline="text-after-edge" fill-opacity="0.8">42125924A&gt;G </text><text fill="rgb(0,0,0)" stroke="none" font-family="times new roman" font-size="10px" font-style="normal" font-weight="normal" text-decoration="normal" x="913.4375" y="201.625" text-anchor="start" dominant-baseline="text-after-edge" fill-opacity="0.8">42126069A&gt;C </text><text fill="rgb(0,0,0)" stroke="none" font-family="times new roman" font-size="10px" font-style="normal" font-weight="normal" text-decoration="normal" x="913.4375" y="211.625" text-anchor="start" dominant-baseline="text-after-edge" fill-opacity="0.8">42126136_42126138del </text><text fill="rgb(0,0,0)" stroke="none" font-family="times new roman" font-size="10px" font-style="normal" font-weight="normal" text-decoration="normal" x="913.4375" y="221.625" text-anchor="start" dominant-baseline="text-after-edge" fill-opacity="0.8">42132025_42132026insCCTTTT </text><text fill="rgb(0,0,0)" stroke="none" font-family="times new roman" font-size="10px" font-style="normal" font-weight="normal" text-decoration="normal" x="913.4375" y="231.625" text-anchor="start" dominant-baseline="text-after-edge" fill-opacity="0.8">42132027C&gt;T </text><text fill="rgb(0,0,0)" stroke="none" font-family="times new roman" font-size="10px" font-style="normal" font-weight="normal" text-decoration="normal" x="913.4375" y="241.625" text-anchor="start" dominant-baseline="text-after-edge" fill-opacity="0.8">42132561C&gt;T </text><text fill="rgb(0,0,0)" stroke="none" font-family="times new roman" font-size="10px" font-style="normal" font-weight="normal" text-decoration="normal" x="913.4375" y="251.625" text-anchor="start" dominant-baseline="text-after-edge" fill-opacity="0.8">42132844C&gt;A </text><text fill="rgb(0,0,0)" stroke="none" font-family="times new roman" font-size="10px" font-style="normal" font-weight="normal" text-decoration="normal" x="913.4375" y="261.625" text-anchor="start" dominant-baseline="text-after-edge" fill-opacity="0.8">42132851T&gt;C </text><text fill="rgb(0,0,0)" stroke="none" font-family="times new roman" font-size="10px" font-style="normal" font-weight="normal" text-decoration="normal" x="913.4375" y="271.625" text-anchor="start" dominant-baseline="text-after-edge" fill-opacity="0.8">42133400T&gt;G </text><text fill="rgb(0,0,0)" stroke="none" font-family="times new roman" font-size="10px" font-style="normal" font-weight="normal" text-decoration="normal" x="913.4375" y="281.625" text-anchor="start" dominant-baseline="text-after-edge" fill-opacity="0.8">42133533A&gt;C </text><text fill="rgb(0,0,0)" stroke="none" font-family="times new roman" font-size="10px" font-style="normal" font-weight="normal" text-decoration="normal" x="913.4375" y="291.625" text-anchor="start" dominant-baseline="text-after-edge" fill-opacity="0.8">42134096del </text><text fill="rgb(0,0,0)" stroke="none" font-family="times new roman" font-size="10px" font-style="normal" font-weight="normal" text-decoration="normal" x="913.4375" y="301.625" text-anchor="start" dominant-baseline="text-after-edge" fill-opacity="0.8">42134820T&gt;G </text><text fill="rgb(0,0,0)" stroke="none" font-family="times new roman" font-size="10px" font-style="normal" font-weight="normal" text-decoration="normal" x="913.4375" y="311.625" text-anchor="start" dominant-baseline="text-after-edge" fill-opacity="0.8">42135064_42135066dup </text><text fill="rgb(0,0,0)" stroke="none" font-family="times new roman" font-size="10px" font-style="normal" font-weight="normal" text-decoration="normal" x="913.4375" y="321.625" text-anchor="start" dominant-baseline="text-after-edge" fill-opacity="0.8">42135201T&gt;C </text><text fill="rgb(0,0,0)" stroke="none" font-family="times new roman" font-size="10px" font-style="normal" font-weight="normal" text-decoration="normal" x="913.4375" y="331.625" text-anchor="start" dominant-baseline="text-after-edge" fill-opacity="0.8">42135691T&gt;C </text><g transform="scale(0.9839341692789969,0.9839341692789969) translate(112.73058542413378,-55.50776583034647)"/></g></svg>