<svg version="1.1" xmlns="http://www.w3.org/2000/svg" xmlns:xlink="http://www.w3.org/1999/xlink" width="1017" height="608"><defs/><g transform="translate(241.9789081885856,-42.749379652605455) scale(2.7196029776674937,2.7196029776674937)"><path fill="none" stroke="rgb(55,71,79)" paint-order="fill stroke markers" d=" M 113 154.75 L 113 190.25" stroke-opacity="1" stroke-linejoin="round" stroke-miterlimit="10" stroke-width="2"/><path fill="none" stroke="rgb(55,71,79)" paint-order="fill stroke markers" d=" M 74.27777777777777 61.25 L 100.38161522312478 107.09088526987767" stroke-opacity="1" stroke-linejoin="round" stroke-miterlimit="10" stroke-width="2"/><path fill="none" stroke="rgb(55,71,79)" paint-order="fill stroke markers" d=" M 148.98080831662975 66.0641902732356 L 125.61838477687522 107.09088526987767" stroke-opacity="1" stroke-linejoin="round" stroke-miterlimit="10" stroke-width="2"/><path fill="rgb(69,90,100)" stroke="rgb(255,193,7)" paint-order="fill stroke markers" d=" M 135.5 129.25 L 135.43064000899537 131.0153296538765 L 135.2229876633906 132.76977546340518 L 134.87832320894773 134.50252068675786 L 134.39877161664094 136.20288237343632 L 133.78728948150396 137.86037722821453 L 133.0476467942383 139.46478624413982 L 132.18440369796707 141.00621770610886 L 131.20288237343632 142.47516817658064 L 130.1091342260007 143.86258108742913 L 128.90990257669733 145.1599025766973 L 127.61258108742913 146.3591342260007 L 126.22516817658064 147.45288237343632 L 124.75621770610886 148.43440369796707 L 123.2147862441398 149.2976467942383 L 121.61037722821452 150.03728948150396 L 119.95288237343632 150.64877161664094 L 118.25252068675788 151.12832320894773 L 116.5197754634052 151.4729876633906 L 114.7653296538765 151.68064000899537 L 113 151.75 L 111.2346703461235 151.68064000899537 L 109.4802245365948 151.4729876633906 L 107.74747931324212 151.12832320894773 L 106.04711762656369 150.64877161664094 L 104.38962277178548 150.03728948150396 L 102.7852137558602 149.2976467942383 L 101.24378229389116 148.43440369796707 L 99.77483182341936 147.45288237343632 L 98.38741891257087 146.3591342260007 L 97.09009742330268 145.15990257669733 L 95.89086577399931 143.86258108742913 L 94.79711762656369 142.47516817658064 L 93.81559630203293 141.00621770610886 L 92.95235320576172 139.46478624413982 L 92.21271051849605 137.86037722821453 L 91.60122838335904 136.20288237343632 L 91.12167679105228 134.50252068675786 L 90.7770123366094 132.7697754634052 L 90.56935999100462 131.0153296538765 L 90.5 129.25 L 90.56935999100462 127.4846703461235 L 90.7770123366094 125.7302245365948 L 91.12167679105227 123.99747931324214 L 91.60122838335904 122.29711762656369 L 92.21271051849604 120.63962277178548 L 92.95235320576172 119.0352137558602 L 93.81559630203293 117.49378229389116 L 94.79711762656368 116.02483182341936 L 95.89086577399931 114.63741891257087 L 97.09009742330268 113.34009742330268 L 98.38741891257087 112.14086577399931 L 99.77483182341935 111.04711762656369 L 101.24378229389116 110.06559630203293 L 102.78521375586021 109.20235320576171 L 104.3896227717855 108.46271051849604 L 106.04711762656372 107.85122838335903 L 107.74747931324217 107.37167679105227 L 109.48022453659486 107.02701233660939 L 111.23467034612355 106.81935999100462 L 113.00000000000007 106.75 L 114.76532965387659 106.81935999100463 L 116.5197754634053 107.02701233660942 L 118.25252068675798 107.3716767910523 L 119.95288237343642 107.85122838335909 L 121.61037722821463 108.4627105184961 L 123.21478624413993 109.20235320576178 L 124.75621770610897 110.065596302033 L 126.22516817658077 111.04711762656378 L 127.61258108742926 112.14086577399941 L 128.90990257669745 113.34009742330281 L 130.1091342260008 114.63741891257101 L 131.20288237343644 116.0248318234195 L 132.18440369796718 117.49378229389133 L 133.04764679423837 119.03521375586038 L 133.78728948150405 120.63962277178568 L 134.39877161664103 122.2971176265639 L 134.8783232089478 123.99747931324237 L 135.22298766339065 125.73022453659506 L 135.4306400089954 127.48467034612375 Z" fill-opacity="1" stroke-opacity="1" stroke-miterlimit="10" stroke-width="6"/><text fill="rgb(255,255,255)" stroke="none" font-family="times new roman" font-size="15px" font-style="normal" font-weight="normal" text-decoration="normal" x="113" y="136.75" text-anchor="middle" dominant-baseline="text-after-edge" fill-opacity="1">*9</text><path fill="rgb(3,169,244)" stroke="none" paint-order="stroke fill markers" d=" M 113 96.75 L 137.5 96.75 L 137.5 96.75 A 8 8 0 0 1 145.5 104.75 L 145.5 153.75 L 145.5 153.75 A 8 8 0 0 1 137.5 161.75 L 88.5 161.75 L 88.5 161.75 A 8 8 0 0 1 80.5 153.75 L 80.5 104.75 L 80.5 104.75 A 8 8 0 0 1 88.5 96.75 L 113 96.75 Z" fill-opacity="0.15"/><path fill="rgb(69,90,100)" stroke="rgb(255,193,7)" paint-order="fill stroke markers" d=" M 176.625 48.25 L 176.57105334032974 49.62303417523729 L 176.4095459604149 50.98760313820404 L 176.14147360695935 52.33529386747834 L 175.76848903516517 53.65779740156158 L 175.2928918189475 54.94696006638907 L 174.71761417329643 56.19483374544207 L 174.04620287619662 57.393724882529106 L 173.2827974015616 58.53624191511828 L 172.43210439800055 59.61534084577821 L 171.49936867076457 60.62436867076458 L 170.4903408457782 61.55710439800054 L 169.41124191511827 62.40779740156158 L 168.2687248825291 63.17120287619662 L 167.06983374544208 63.84261417329644 L 165.82196006638907 64.41789181894751 L 164.5327974015616 64.89348903516519 L 163.21029386747836 65.26647360695934 L 161.86260313820404 65.5345459604149 L 160.49803417523728 65.69605334032974 L 159.125 65.75 L 157.75196582476272 65.69605334032974 L 156.38739686179596 65.5345459604149 L 155.03970613252164 65.26647360695934 L 153.71720259843843 64.89348903516519 L 152.42803993361093 64.41789181894751 L 151.18016625455795 63.84261417329644 L 149.9812751174709 63.17120287619662 L 148.83875808488173 62.40779740156158 L 147.7596591542218 61.55710439800055 L 146.75063132923543 60.62436867076458 L 145.81789560199945 59.61534084577821 L 144.96720259843843 58.53624191511828 L 144.20379712380338 57.393724882529106 L 143.53238582670357 56.19483374544207 L 142.9571081810525 54.946960066389074 L 142.48151096483483 53.65779740156158 L 142.10852639304065 52.33529386747835 L 141.8404540395851 50.987603138204044 L 141.67894665967026 49.62303417523729 L 141.625 48.25 L 141.67894665967026 46.87696582476271 L 141.8404540395851 45.51239686179596 L 142.10852639304065 44.16470613252166 L 142.4815109648348 42.84220259843842 L 142.9571081810525 41.55303993361093 L 143.53238582670357 40.30516625455793 L 144.20379712380338 39.1062751174709 L 144.9672025984384 37.96375808488172 L 145.81789560199945 36.88465915422179 L 146.7506313292354 35.87563132923542 L 147.75965915422177 34.94289560199947 L 148.8387580848817 34.09220259843842 L 149.9812751174709 33.32879712380338 L 151.18016625455795 32.65738582670356 L 152.42803993361096 32.082108181052476 L 153.71720259843843 31.606510964834804 L 155.0397061325217 31.233526393040652 L 156.387396861796 30.965454039585083 L 157.75196582476278 30.803946659670256 L 159.12500000000006 30.75 L 160.49803417523736 30.803946659670267 L 161.86260313820412 30.9654540395851 L 163.2102938674784 31.233526393040677 L 164.53279740156165 31.60651096483484 L 165.82196006638915 32.08210818105252 L 167.06983374544217 32.65738582670361 L 168.2687248825292 33.32879712380345 L 169.41124191511838 34.09220259843849 L 170.49034084577832 34.94289560199954 L 171.49936867076468 35.87563132923552 L 172.43210439800063 36.88465915422189 L 173.28279740156168 37.963758084881846 L 174.0462028761967 39.10627511747103 L 174.7176141732965 40.30516625455808 L 175.2928918189476 41.55303993361109 L 175.76848903516523 42.84220259843859 L 176.14147360695938 44.16470613252184 L 176.40954596041493 45.512396861796155 L 176.57105334032974 46.87696582476292 Z" fill-opacity="1" stroke-opacity="1" stroke-miterlimit="10" stroke-width="6"/><text fill="rgb(255,255,255)" stroke="none" font-family="times new roman" font-size="10px" font-style="normal" font-weight="normal" text-decoration="normal" x="159.125" y="53.25" text-anchor="middle" dominant-baseline="text-after-edge" fill-opacity="1">*9.1</text><path fill="rgb(69,90,100)" stroke="rgb(255,193,7)" paint-order="fill stroke markers" d=" M 19.375000000000014 38.25 L 19.375 58.25 L 114.37499999999997 58.25 L 114.375 38.25 Z" fill-opacity="1" stroke-opacity="1" stroke-miterlimit="10" stroke-width="6"/><text fill="rgb(255,255,255)" stroke="none" font-family="times new roman" font-size="10px" font-style="normal" font-weight="normal" text-decoration="normal" x="66.875" y="53.25" text-anchor="middle" dominant-baseline="text-after-edge" fill-opacity="1">42128176_4212817…</text><path fill="rgb(69,90,100)" stroke="rgb(69,90,100)" paint-order="fill stroke markers" d=" M 94.25 191.25 L 75.5 208.75 L 94.24999999999999 226.25 L 131.74999999999997 226.25 L 150.5 208.75 L 131.75000000000006 191.25000000000003 Z" fill-opacity="1" stroke-opacity="1" stroke-miterlimit="10" stroke-width="2"/><text fill="rgb(255,255,255)" stroke="none" font-family="times new roman" font-size="10px" font-style="normal" font-weight="normal" text-decoration="normal" x="113" y="213.75" text-anchor="middle" dominant-baseline="text-after-edge" fill-opacity="1">NA06989-A</text><g transform="scale(0.3677007299270073,0.3677007299270073) translate(-241.9789081885856,42.749379652605455)"/></g></svg>