<svg version="1.1" xmlns="http://www.w3.org/2000/svg" xmlns:xlink="http://www.w3.org/1999/xlink" width="1017" height="608"><defs/><g transform="translate(-92.23041382081158,-55.315387705906005) scale(0.8806749698674167,0.8806749698674167)"><path fill="none" stroke="rgb(120,144,156)" paint-order="fill stroke markers" d=" M 561.15625 359.9739656136427 L 1159.0060665159408 432.1772423077681" stroke-opacity="1" stroke-linejoin="round" stroke-miterlimit="10"/><path fill="rgb(120,144,156)" stroke="none" paint-order="stroke fill markers" d=" M 1151.8328342801897 435.69252882411047 L 1160.9916383811906 432.41704299152207 L 1152.8759672545193 427.05529121027433 Z" fill-opacity="1"/><path fill="none" stroke="rgb(120,144,156)" paint-order="fill stroke markers" d=" M 268.71781325154564 443.30484898120847 L 808.8821211320243 686.9828051240954" stroke-opacity="1" stroke-linejoin="round" stroke-miterlimit="10"/><path fill="rgb(120,144,156)" stroke="none" paint-order="stroke fill markers" d=" M 800.9860325050187 688.1928813177601 L 810.7052004736385 687.805229414945 L 804.5635781702146 680.2624861817383 Z" fill-opacity="1"/><path fill="none" stroke="rgb(120,144,156)" paint-order="fill stroke markers" d=" M 451.77572165341866 574.3415751161723 L 806.2405746301085 689.6494188555774" stroke-opacity="1" stroke-linejoin="round" stroke-miterlimit="10"/><path fill="rgb(120,144,156)" stroke="none" paint-order="stroke fill markers" d=" M 798.5235594187302 691.7134382904075 L 808.1424743036127 690.2681091108137 L 801.2148620290083 683.440174710664 Z" fill-opacity="1"/><path fill="none" stroke="rgb(120,144,156)" paint-order="fill stroke markers" d=" M 758.8268485915493 447.875 L 820.8196436594499 548.8265699500216" stroke-opacity="1" stroke-linejoin="round" stroke-miterlimit="10"/><path fill="rgb(120,144,156)" stroke="none" paint-order="stroke fill markers" d=" M 813.6067132950458 545.393475783201 L 821.866230889721 550.530874843353 L 821.0204395810374 540.8408213315216 Z" fill-opacity="1"/><path fill="none" stroke="rgb(120,144,156)" paint-order="fill stroke markers" d=" M 328.28125 279.3792677448338 L 673.1062334282476 349.39763814445996" stroke-opacity="1" stroke-linejoin="round" stroke-miterlimit="10"/><path fill="rgb(120,144,156)" stroke="none" paint-order="stroke fill markers" d=" M 665.674605201477 352.3273824846824 L 675.0662349012923 349.7956258649524 L 667.4058517856191 343.80137607693814 Z" fill-opacity="1"/><path fill="none" stroke="rgb(120,144,156)" paint-order="fill stroke markers" d=" M 862.3712147887323 447.875 L 838.0073660371679 546.1609807591522" stroke-opacity="1" stroke-linejoin="round" stroke-miterlimit="10"/><path fill="rgb(120,144,156)" stroke="none" paint-order="stroke fill markers" d=" M 835.397210203894 538.611173706914 L 837.526155722753 548.1022269138942 L 843.8416309770217 540.704438574619 Z" fill-opacity="1"/><path fill="none" stroke="rgb(120,144,156)" paint-order="fill stroke markers" d=" M 642.9941757020604 578.8385970211591 L 811.8490528703594 684.0170564463108" stroke-opacity="1" stroke-linejoin="round" stroke-miterlimit="10"/><path fill="rgb(120,144,156)" stroke="none" paint-order="stroke fill markers" d=" M 803.8621870534888 684.1669711664179 L 813.5466553778774 685.074480545936 L 808.4619818868588 676.7824002587142 Z" fill-opacity="1"/><path fill="none" stroke="rgb(120,144,156)" paint-order="fill stroke markers" d=" M 214.89236111111111 204.875 L 246.63317852831597 412.6330776398862" stroke-opacity="1" stroke-linejoin="round" stroke-miterlimit="10"/><path fill="rgb(120,144,156)" stroke="none" paint-order="stroke fill markers" d=" M 241.32120336712583 406.6668879105113 L 246.93522932579899 414.6101374052297 L 249.9214133463698 405.3529669414601 Z" fill-opacity="1"/><path fill="none" stroke="rgb(120,144,156)" paint-order="fill stroke markers" d=" M 745.59375 606.3187772925764 L 817.4026894336857 679.6955974999235" stroke-opacity="1" stroke-linejoin="round" stroke-miterlimit="10"/><path fill="rgb(120,144,156)" stroke="none" paint-order="stroke fill markers" d=" M 809.6075589621146 677.9496189974261 L 818.8015491452991 681.125 L 815.8254598374474 671.8645792519081 Z" fill-opacity="1"/><path fill="none" stroke="rgb(120,144,156)" paint-order="fill stroke markers" d=" M 367.84860611089636 452.76781571470127 L 421.3003103660894 548.361543727767" stroke-opacity="1" stroke-linejoin="round" stroke-miterlimit="10"/><path fill="rgb(120,144,156)" stroke="none" paint-order="stroke fill markers" d=" M 414.23366235135984 544.6366295225914 L 422.27639388910364 550.1071842852988 L 421.8271987766233 540.3906661974793 Z" fill-opacity="1"/><path fill="none" stroke="rgb(120,144,156)" paint-order="fill stroke markers" d=" M 639.4001289630033 357.48007626843554 L 1159.0697391502913 431.69405035138044" stroke-opacity="1" stroke-linejoin="round" stroke-miterlimit="10"/><path fill="rgb(120,144,156)" stroke="none" paint-order="stroke fill markers" d=" M 1151.8220500985337 435.05314299806855 L 1161.049651225821 431.97680143125774 L 1153.052017296 426.44052546951445 Z" fill-opacity="1"/><path fill="none" stroke="rgb(55,71,79)" paint-order="fill stroke markers" d=" M 345.09375 366.875 L 354.0658350314712 414.7261201678464" stroke-opacity="1" stroke-linejoin="round" stroke-miterlimit="10" stroke-width="2"/><path fill="none" stroke="rgb(120,144,156)" paint-order="fill stroke markers" d=" M 517.6343585814361 366.875 L 614.9523930323984 548.1754817993456" stroke-opacity="1" stroke-linejoin="round" stroke-miterlimit="10"/><path fill="rgb(120,144,156)" stroke="none" paint-order="stroke fill markers" d=" M 607.950893216586 544.329509837776 L 615.8982914295185 549.9376611949593 L 615.6163735875057 540.2148518103033 Z" fill-opacity="1"/><path fill="none" stroke="rgb(120,144,156)" paint-order="fill stroke markers" d=" M 263.40625 199.65294392523364 L 687.2892334798722 264.93884642755415" stroke-opacity="1" stroke-linejoin="round" stroke-miterlimit="10"/><path fill="rgb(120,144,156)" stroke="none" paint-order="stroke fill markers" d=" M 680.005141526236 268.2182525339967 L 689.265925590427 265.2432939600957 L 681.3294882927916 259.6196418530835 Z" fill-opacity="1"/><path fill="none" stroke="rgb(120,144,156)" paint-order="fill stroke markers" d=" M 966.6400462962963 366.875 L 1159.8938516815524 428.0814838170313" stroke-opacity="1" stroke-linejoin="round" stroke-miterlimit="10"/><path fill="rgb(120,144,156)" stroke="none" paint-order="stroke fill markers" d=" M 1152.1931354980186 430.205506006336 L 1161.8005093098589 428.68535192218405 L 1154.819961755433 421.9115453232029 Z" fill-opacity="1"/><path fill="none" stroke="rgb(120,144,156)" paint-order="fill stroke markers" d=" M 1044.3372173461978 365.40689893610033 L 1161.2759846945314 424.6997950563821" stroke-opacity="1" stroke-linejoin="round" stroke-miterlimit="10"/><path fill="rgb(120,144,156)" stroke="none" paint-order="stroke fill markers" d=" M 1153.3330438478033 425.54961309889535 L 1163.0597860550174 425.604257718037 L 1157.2674564260024 417.79007718078077 Z" fill-opacity="1"/><path fill="none" stroke="rgb(120,144,156)" paint-order="fill stroke markers" d=" M 589.2646869091179 359.41215512629304 L 271.9943939037196 429.989274888565" stroke-opacity="1" stroke-linejoin="round" stroke-miterlimit="10"/><path fill="rgb(120,144,156)" stroke="none" paint-order="stroke fill markers" d=" M 277.5899565668386 424.288206700663 L 270.04211444561116 430.423561565137 L 279.4791036099268 432.7806223434346 Z" fill-opacity="1"/><path fill="none" stroke="rgb(120,144,156)" paint-order="fill stroke markers" d=" M 686.7221989081581 372.5596670342343 L 667.8506353447045 414.3674386209624" stroke-opacity="1" stroke-linejoin="round" stroke-miterlimit="10"/><path fill="rgb(120,144,156)" stroke="none" paint-order="stroke fill markers" d=" M 666.642334891847 406.471078065895 L 667.0278010918419 416.1903329657657 L 674.5719252917415 410.05040706584737 Z" fill-opacity="1"/><path fill="none" stroke="rgb(55,71,79)" paint-order="fill stroke markers" d=" M 700.5896236346714 137.45540561552713 L 712.6446145032137 168.14083691727114" stroke-opacity="1" stroke-linejoin="round" stroke-miterlimit="10" stroke-width="2"/><path fill="none" stroke="rgb(55,71,79)" paint-order="fill stroke markers" d=" M 774.1345663265306 131.375 L 738.6206594104834 172.5627263641731" stroke-opacity="1" stroke-linejoin="round" stroke-miterlimit="10" stroke-width="2"/><path fill="none" stroke="rgb(120,144,156)" paint-order="fill stroke markers" d=" M 626.4213317081031 376.2316046324918 L 647.7716190810855 415.14858414780133" stroke-opacity="1" stroke-linejoin="round" stroke-miterlimit="10"/><path fill="rgb(120,144,156)" stroke="none" paint-order="stroke fill markers" d=" M 640.7352552538059 411.3667745161368 L 648.7335862738779 416.90204333466346 L 648.362802716656 407.18221722748984 Z" fill-opacity="1"/><path fill="none" stroke="rgb(120,144,156)" paint-order="fill stroke markers" d=" M 985.3507922535211 445.875 L 994.4627986156468 461.27862980264103" stroke-opacity="1" stroke-linejoin="round" stroke-miterlimit="10"/><path fill="rgb(120,144,156)" stroke="none" paint-order="stroke fill markers" d=" M 987.3075960875403 457.7267884799214 L 995.481073943662 463 L 994.7955564460518 453.29729080305555 Z" fill-opacity="1"/><path fill="none" stroke="rgb(120,144,156)" paint-order="fill stroke markers" d=" M 653.661344277247 454.77277308610576 L 631.0073660371679 546.1609807591522" stroke-opacity="1" stroke-linejoin="round" stroke-miterlimit="10"/><path fill="rgb(120,144,156)" stroke="none" paint-order="stroke fill markers" d=" M 628.397210203894 538.611173706914 L 630.526155722753 548.1022269138942 L 636.8416309770217 540.704438574619 Z" fill-opacity="1"/><path fill="none" stroke="rgb(120,144,156)" paint-order="fill stroke markers" d=" M 708.8031480114211 293.987641736288 L 700.1553105781579 331.9373749385694" stroke-opacity="1" stroke-linejoin="round" stroke-miterlimit="10"/><path fill="rgb(120,144,156)" stroke="none" paint-order="stroke fill markers" d=" M 697.402645549555 324.438352652944 L 699.7109496378772 333.887386055141 L 705.8851939066415 326.371322743165 Z" fill-opacity="1"/><path fill="none" stroke="rgb(120,144,156)" paint-order="fill stroke markers" d=" M 448.35431338028167 447.875 L 435.26522057454804 545.6987462323252" stroke-opacity="1" stroke-linejoin="round" stroke-miterlimit="10"/><path fill="rgb(120,144,156)" stroke="none" paint-order="stroke fill markers" d=" M 431.8422049727741 538.4810274659827 L 434.9999787456993 547.681079900563 L 440.46535642960833 539.6348294214746 Z" fill-opacity="1"/><path fill="none" stroke="rgb(120,144,156)" paint-order="fill stroke markers" d=" M 1087.8669894366196 445.875 L 1084.1031293284996 461.05875384525797" stroke-opacity="1" stroke-linejoin="round" stroke-miterlimit="10"/><path fill="rgb(120,144,156)" stroke="none" paint-order="stroke fill markers" d=" M 1081.4929734952254 453.5089467930198 L 1083.6219190140846 463 L 1089.9373942683533 455.60221166072455 Z" fill-opacity="1"/><path fill="none" stroke="rgb(120,144,156)" paint-order="fill stroke markers" d=" M 468.8275462962963 366.875 L 271.5174752983532 428.19726666986435" stroke-opacity="1" stroke-linejoin="round" stroke-miterlimit="10"/><path fill="rgb(120,144,156)" stroke="none" paint-order="stroke fill markers" d=" M 276.62456727670326 422.0547825205423 L 269.60758860516626 428.7908429658764 L 279.20662416435573 430.36278963590553 Z" fill-opacity="1"/><path fill="none" stroke="rgb(120,144,156)" paint-order="fill stroke markers" d=" M 275.6047794117647 282.125 L 253.74650931296824 412.6838565360547" stroke-opacity="1" stroke-linejoin="round" stroke-miterlimit="10"/><path fill="rgb(120,144,156)" stroke="none" paint-order="stroke fill markers" d=" M 250.56254323868933 405.35754368183933 L 253.4162640407044 414.6564026217387 L 259.14311871141484 406.794110616187 Z" fill-opacity="1"/><path fill="none" stroke="rgb(120,144,156)" paint-order="fill stroke markers" d=" M 738.4992836067138 277.65632197121886 L 1160.1403379940762 427.3473629665716" stroke-opacity="1" stroke-linejoin="round" stroke-miterlimit="10"/><path fill="rgb(120,144,156)" stroke="none" paint-order="stroke fill markers" d=" M 1152.3710899258494 429.20512625998487 L 1162.0250857279361 428.0164862584319 L 1155.2817762454417 421.00647361769427 Z" fill-opacity="1"/><path fill="none" stroke="rgb(120,144,156)" paint-order="fill stroke markers" d=" M 833.2650422192839 588.4890059972739 L 836.234632720042 679.1260725856318" stroke-opacity="1" stroke-linejoin="round" stroke-miterlimit="10"/><path fill="rgb(120,144,156)" stroke="none" paint-order="stroke fill markers" d=" M 831.6675676489521 672.5721106818343 L 836.3001246438746 681.125 L 840.3629019014537 672.2872208131625 Z" fill-opacity="1"/><path fill="none" stroke="rgb(120,144,156)" paint-order="fill stroke markers" d=" M 875.09375 359.9299542048293 L 272.37124281190165 432.19643300173703" stroke-opacity="1" stroke-linejoin="round" stroke-miterlimit="10"/><path fill="rgb(120,144,156)" stroke="none" paint-order="stroke fill markers" d=" M 278.50573994067037 427.07974999639777 L 270.38546567306594 432.4345278460271 L 279.54145251333205 435.71788055033306 Z" fill-opacity="1"/><path fill="none" stroke="rgb(120,144,156)" paint-order="fill stroke markers" d=" M 982.59375 612.732370433305 L 862.3804022695068 684.4314104560801" stroke-opacity="1" stroke-linejoin="round" stroke-miterlimit="10"/><path fill="rgb(120,144,156)" stroke="none" paint-order="stroke fill markers" d=" M 865.9063975706878 677.2634360465241 L 860.6627182044888 685.455891521197 L 870.3628902039466 684.7353617293525 Z" fill-opacity="1"/><path fill="none" stroke="rgb(55,71,79)" paint-order="fill stroke markers" d=" M 1062.2309181415928 282.125 L 1034.1606159251915 331.6866273508339" stroke-opacity="1" stroke-linejoin="round" stroke-miterlimit="10" stroke-width="2"/><path fill="none" stroke="rgb(120,144,156)" paint-order="fill stroke markers" d=" M 1165.0903545268 447.368083510157 L 859.8831439541536 681.9639361658874" stroke-opacity="1" stroke-linejoin="round" stroke-miterlimit="10"/><path fill="rgb(120,144,156)" stroke="none" paint-order="stroke fill markers" d=" M 862.5442579249467 674.4319395889863 L 858.297446834817 683.1827735815125 L 867.8462006829158 681.3297220581005 Z" fill-opacity="1"/><path fill="none" stroke="rgb(120,144,156)" paint-order="fill stroke markers" d=" M 996.2331189989897 356.5374040321839 L 272.4082773538328 432.52581997160246" stroke-opacity="1" stroke-linejoin="round" stroke-miterlimit="10"/><path fill="rgb(120,144,156)" stroke="none" paint-order="stroke fill markers" d=" M 278.6174840270394 427.5000610747387 L 270.41920825571424 432.7346359741267 L 279.5258336380197 436.152511651554 Z" fill-opacity="1"/><path fill="none" stroke="rgb(55,71,79)" paint-order="fill stroke markers" d=" M 617.8072455752213 282.125 L 615.4521397464191 328.40794933124124" stroke-opacity="1" stroke-linejoin="round" stroke-miterlimit="10" stroke-width="2"/><path fill="none" stroke="rgb(120,144,156)" paint-order="fill stroke markers" d=" M 719.5046080564853 217.2556620182022 L 717.1261579783002 241.75369782350742" stroke-opacity="1" stroke-linejoin="round" stroke-miterlimit="10"/><path fill="rgb(120,144,156)" stroke="none" paint-order="stroke fill markers" d=" M 713.4439568505501 234.66469966757626 L 716.9328919435147 243.7443379817978 L 722.1032415391131 235.50540691889313 Z" fill-opacity="1"/><path fill="rgb(69,90,100)" stroke="rgb(76,175,80)" paint-order="fill stroke markers" d=" M 463.15625 343.875 L 463.15625 363.875 L 558.15625 363.875 L 558.15625 343.875 Z" fill-opacity="1" stroke-opacity="1" stroke-miterlimit="10" stroke-width="6"/><text fill="rgb(255,255,255)" stroke="none" font-family="times new roman" font-size="10px" font-style="normal" font-weight="normal" text-decoration="normal" x="510.65625" y="358.875" text-anchor="middle" dominant-baseline="text-after-edge" fill-opacity="1">42129796G&gt;C</text><path fill="rgb(69,90,100)" stroke="rgb(244,67,54)" paint-order="fill stroke markers" d=" M 676.09375 434.875 L 676.0398033403297 436.2480341752373 L 675.8782959604149 437.61260313820407 L 675.6102236069594 438.96029386747836 L 675.2372390351652 440.2827974015616 L 674.7616418189475 441.57196006638907 L 674.1863641732964 442.81983374544205 L 673.5149528761966 444.0187248825291 L 672.7515474015615 445.1612419151183 L 671.9008543980005 446.24034084577823 L 670.9681186707646 447.24936867076457 L 669.9590908457782 448.18210439800055 L 668.8799919151182 449.0327974015616 L 667.7374748825291 449.7962028761966 L 666.5385837454421 450.46761417329645 L 665.2907100663891 451.0428918189475 L 664.0015474015615 451.5184890351652 L 662.6790438674783 451.8914736069593 L 661.331353138204 452.1595459604149 L 659.9667841752373 452.32105334032974 L 658.59375 452.375 L 657.2207158247627 452.32105334032974 L 655.856146861796 452.1595459604149 L 654.5084561325217 451.8914736069593 L 653.1859525984385 451.5184890351652 L 651.8967899336109 451.0428918189475 L 650.6489162545579 450.46761417329645 L 649.4500251174709 449.7962028761966 L 648.3075080848818 449.0327974015616 L 647.2284091542218 448.18210439800055 L 646.2193813292354 447.24936867076457 L 645.2866456019995 446.24034084577823 L 644.4359525984385 445.1612419151183 L 643.6725471238034 444.0187248825291 L 643.0011358267036 442.81983374544205 L 642.4258581810525 441.57196006638907 L 641.9502609648348 440.2827974015616 L 641.5772763930406 438.96029386747836 L 641.3092040395851 437.61260313820407 L 641.1476966596703 436.2480341752373 L 641.09375 434.875 L 641.1476966596703 433.5019658247627 L 641.3092040395851 432.13739686179593 L 641.5772763930406 430.78970613252164 L 641.9502609648348 429.4672025984384 L 642.4258581810525 428.17803993361093 L 643.0011358267036 426.93016625455795 L 643.6725471238034 425.7312751174709 L 644.4359525984385 424.5887580848817 L 645.2866456019995 423.50965915422177 L 646.2193813292354 422.50063132923543 L 647.2284091542218 421.56789560199945 L 648.3075080848818 420.7172025984384 L 649.4500251174709 419.9537971238034 L 650.6489162545579 419.28238582670355 L 651.896789933611 418.7071081810525 L 653.1859525984385 418.2315109648348 L 654.5084561325217 417.8585263930407 L 655.856146861796 417.5904540395851 L 657.2207158247628 417.42894665967026 L 658.5937500000001 417.375 L 659.9667841752373 417.42894665967026 L 661.3313531382041 417.5904540395851 L 662.6790438674784 417.8585263930407 L 664.0015474015617 418.23151096483485 L 665.2907100663891 418.7071081810525 L 666.5385837454421 419.2823858267036 L 667.7374748825292 419.95379712380344 L 668.8799919151184 420.7172025984385 L 669.9590908457783 421.56789560199957 L 670.9681186707646 422.5006313292355 L 671.9008543980007 423.5096591542219 L 672.7515474015617 424.5887580848818 L 673.5149528761967 425.73127511747106 L 674.1863641732965 426.93016625455806 L 674.7616418189476 428.1780399336111 L 675.2372390351652 429.4672025984386 L 675.6102236069594 430.7897061325218 L 675.8782959604149 432.13739686179616 L 676.0398033403297 433.5019658247629 Z" fill-opacity="1" stroke-opacity="1" stroke-miterlimit="10" stroke-width="6"/><text fill="rgb(255,255,255)" stroke="none" font-family="times new roman" font-size="10px" font-style="normal" font-weight="normal" text-decoration="normal" x="658.59375" y="439.875" text-anchor="middle" dominant-baseline="text-after-edge" fill-opacity="1">*4.5</text><path fill="rgb(69,90,100)" stroke="rgb(76,175,80)" paint-order="fill stroke markers" d=" M 402.59375 424.875 L 402.59375 444.875 L 497.59375 444.875 L 497.59375 424.875 Z" fill-opacity="1" stroke-opacity="1" stroke-miterlimit="10" stroke-width="6"/><text fill="rgb(255,255,255)" stroke="none" font-family="times new roman" font-size="10px" font-style="normal" font-weight="normal" text-decoration="normal" x="450.09375" y="439.875" text-anchor="middle" dominant-baseline="text-after-edge" fill-opacity="1">42130047G&gt;C</text><path fill="rgb(69,90,100)" stroke="rgb(69,90,100)" paint-order="fill stroke markers" d=" M 818.15625 682.125 L 799.40625 699.625 L 818.15625 717.125 L 855.65625 717.125 L 874.40625 699.625 L 855.65625 682.125 Z" fill-opacity="1" stroke-opacity="1" stroke-miterlimit="10" stroke-width="2"/><text fill="rgb(255,255,255)" stroke="none" font-family="times new roman" font-size="10px" font-style="normal" font-weight="normal" text-decoration="normal" x="836.90625" y="704.625" text-anchor="middle" dominant-baseline="text-after-edge" fill-opacity="1">NA07055-all</text><path fill="rgb(69,90,100)" stroke="rgb(76,175,80)" paint-order="fill stroke markers" d=" M 744.46875 191.875 L 744.3993900089954 193.6403296538765 L 744.1917376633907 195.39477546340518 L 743.8470732089477 197.12752068675786 L 743.3675216166409 198.82788237343632 L 742.756039481504 200.48537722821453 L 742.0163967942383 202.08978624413982 L 741.1531536979671 203.63121770610886 L 740.1716323734363 205.10016817658064 L 739.0778842260007 206.48758108742913 L 737.8786525766973 207.7849025766973 L 736.5813310874291 208.9841342260007 L 735.1939181765806 210.07788237343632 L 733.7249677061088 211.05940369796707 L 732.1835362441398 211.9226467942383 L 730.5791272282145 212.66228948150396 L 728.9216323734363 213.27377161664094 L 727.2212706867579 213.75332320894773 L 725.4885254634052 214.0979876633906 L 723.7340796538765 214.30564000899537 L 721.96875 214.375 L 720.2034203461235 214.30564000899537 L 718.4489745365948 214.0979876633906 L 716.7162293132421 213.75332320894773 L 715.0158676265637 213.27377161664094 L 713.3583727717855 212.66228948150396 L 711.7539637558602 211.9226467942383 L 710.2125322938912 211.05940369796707 L 708.7435818234194 210.07788237343632 L 707.3561689125709 208.9841342260007 L 706.0588474233027 207.78490257669733 L 704.8596157739993 206.48758108742913 L 703.7658676265637 205.10016817658064 L 702.7843463020329 203.63121770610886 L 701.9211032057617 202.08978624413982 L 701.181460518496 200.48537722821453 L 700.5699783833591 198.82788237343632 L 700.0904267910523 197.12752068675786 L 699.7457623366095 195.3947754634052 L 699.5381099910046 193.6403296538765 L 699.46875 191.875 L 699.5381099910046 190.1096703461235 L 699.7457623366093 188.35522453659482 L 700.0904267910523 186.62247931324214 L 700.5699783833591 184.92211762656368 L 701.181460518496 183.26462277178547 L 701.9211032057617 181.6602137558602 L 702.7843463020329 180.11878229389114 L 703.7658676265637 178.64983182341936 L 704.8596157739993 177.26241891257087 L 706.0588474233027 175.9650974233027 L 707.3561689125709 174.7658657739993 L 708.7435818234194 173.67211762656368 L 710.2125322938912 172.69059630203293 L 711.7539637558602 171.8273532057617 L 713.3583727717855 171.08771051849604 L 715.0158676265637 170.47622838335903 L 716.7162293132421 169.99667679105227 L 718.4489745365948 169.6520123366094 L 720.2034203461236 169.4443599910046 L 721.9687500000001 169.375 L 723.7340796538766 169.44435999100463 L 725.4885254634053 169.6520123366094 L 727.221270686758 169.9966767910523 L 728.9216323734364 170.47622838335909 L 730.5791272282146 171.0877105184961 L 732.1835362441399 171.8273532057618 L 733.7249677061089 172.690596302033 L 735.1939181765807 173.67211762656376 L 736.5813310874292 174.76586577399942 L 737.8786525766974 175.9650974233028 L 739.0778842260008 177.262418912571 L 740.1716323734364 178.6498318234195 L 741.1531536979671 180.11878229389131 L 742.0163967942384 181.66021375586038 L 742.756039481504 183.2646227717857 L 743.367521616641 184.9221176265639 L 743.8470732089478 186.62247931324237 L 744.1917376633907 188.35522453659505 L 744.3993900089954 190.10967034612375 Z" fill-opacity="1" stroke-opacity="1" stroke-miterlimit="10" stroke-width="6"/><text fill="rgb(255,255,255)" stroke="none" font-family="times new roman" font-size="15px" font-style="normal" font-weight="normal" text-decoration="normal" x="721.96875" y="199.375" text-anchor="middle" dominant-baseline="text-after-edge" fill-opacity="1">*39</text><path fill="rgb(69,90,100)" stroke="rgb(244,67,54)" paint-order="fill stroke markers" d=" M 636.65625 353.875 L 636.5868900089954 355.6403296538765 L 636.3792376633907 357.3947754634052 L 636.0345732089477 359.12752068675786 L 635.5550216166409 360.8278823734363 L 634.943539481504 362.48537722821453 L 634.2038967942383 364.0897862441398 L 633.3406536979671 365.6312177061088 L 632.3591323734363 367.10016817658067 L 631.2653842260007 368.48758108742913 L 630.0661525766973 369.78490257669733 L 628.7688310874291 370.9841342260007 L 627.3814181765806 372.0778823734363 L 625.9124677061088 373.05940369796707 L 624.3710362441398 373.9226467942383 L 622.7666272282145 374.66228948150393 L 621.1091323734363 375.27377161664094 L 619.4087706867579 375.75332320894773 L 617.6760254634052 376.0979876633906 L 615.9215796538765 376.3056400089954 L 614.15625 376.375 L 612.3909203461235 376.3056400089954 L 610.6364745365948 376.0979876633906 L 608.9037293132421 375.75332320894773 L 607.2033676265637 375.27377161664094 L 605.5458727717855 374.66228948150393 L 603.9414637558602 373.9226467942383 L 602.4000322938912 373.05940369796707 L 600.9310818234194 372.0778823734363 L 599.5436689125709 370.9841342260007 L 598.2463474233027 369.78490257669733 L 597.0471157739993 368.48758108742913 L 595.9533676265637 367.10016817658067 L 594.9718463020329 365.6312177061088 L 594.1086032057617 364.0897862441398 L 593.368960518496 362.48537722821453 L 592.7574783833591 360.8278823734363 L 592.2779267910523 359.12752068675786 L 591.9332623366095 357.3947754634052 L 591.7256099910046 355.6403296538765 L 591.65625 353.875 L 591.7256099910046 352.1096703461235 L 591.9332623366093 350.3552245365948 L 592.2779267910523 348.62247931324214 L 592.7574783833591 346.9221176265637 L 593.368960518496 345.26462277178547 L 594.1086032057617 343.6602137558602 L 594.9718463020329 342.1187822938912 L 595.9533676265637 340.64983182341933 L 597.0471157739993 339.26241891257087 L 598.2463474233027 337.96509742330267 L 599.5436689125709 336.76586577399934 L 600.9310818234194 335.6721176265637 L 602.4000322938912 334.69059630203293 L 603.9414637558602 333.8273532057617 L 605.5458727717855 333.087710518496 L 607.2033676265637 332.47622838335906 L 608.9037293132421 331.99667679105227 L 610.6364745365948 331.6520123366094 L 612.3909203461236 331.4443599910046 L 614.1562500000001 331.375 L 615.9215796538766 331.4443599910046 L 617.6760254634053 331.6520123366094 L 619.408770686758 331.9966767910523 L 621.1091323734364 332.47622838335906 L 622.7666272282146 333.0877105184961 L 624.3710362441399 333.82735320576177 L 625.9124677061089 334.690596302033 L 627.3814181765807 335.67211762656376 L 628.7688310874292 336.7658657739994 L 630.0661525766974 337.9650974233028 L 631.2653842260008 339.262418912571 L 632.3591323734364 340.6498318234195 L 633.3406536979671 342.11878229389134 L 634.2038967942384 343.6602137558604 L 634.943539481504 345.2646227717857 L 635.555021616641 346.92211762656393 L 636.0345732089478 348.62247931324237 L 636.3792376633907 350.3552245365951 L 636.5868900089954 352.1096703461238 Z" fill-opacity="1" stroke-opacity="1" stroke-miterlimit="10" stroke-width="6"/><text fill="rgb(255,255,255)" stroke="none" font-family="times new roman" font-size="15px" font-style="normal" font-weight="normal" text-decoration="normal" x="614.15625" y="361.375" text-anchor="middle" dominant-baseline="text-after-edge" fill-opacity="1">*4</text><path fill="rgb(3,169,244)" stroke="none" paint-order="stroke fill markers" d=" M 614.15625 321.375 L 638.65625 321.375 L 638.65625 321.375 A 8 8 0 0 1 646.65625 329.375 L 646.65625 378.375 L 646.65625 378.375 A 8 8 0 0 1 638.65625 386.375 L 589.65625 386.375 L 589.65625 386.375 A 8 8 0 0 1 581.65625 378.375 L 581.65625 329.375 L 581.65625 329.375 A 8 8 0 0 1 589.65625 321.375 L 614.15625 321.375 Z" fill-opacity="0.15"/><path fill="rgb(69,90,100)" stroke="rgb(158,158,158)" paint-order="fill stroke markers" d=" M 165.40625 181.875 L 165.40625 201.875 L 260.40625 201.875 L 260.40625 181.875 Z" fill-opacity="1" stroke-opacity="1" stroke-miterlimit="10" stroke-width="6"/><text fill="rgb(255,255,255)" stroke="none" font-family="times new roman" font-size="10px" font-style="normal" font-weight="normal" text-decoration="normal" x="212.90625" y="196.875" text-anchor="middle" dominant-baseline="text-after-edge" fill-opacity="1">42130692G&gt;A</text><path fill="rgb(69,90,100)" stroke="rgb(255,193,7)" paint-order="fill stroke markers" d=" M 712.65625 353.875 L 712.6023033403297 355.2480341752373 L 712.4407959604149 356.61260313820407 L 712.1727236069594 357.96029386747836 L 711.7997390351652 359.2827974015616 L 711.3241418189475 360.57196006638907 L 710.7488641732964 361.81983374544205 L 710.0774528761966 363.0187248825291 L 709.3140474015615 364.1612419151183 L 708.4633543980005 365.24034084577823 L 707.5306186707646 366.24936867076457 L 706.5215908457782 367.18210439800055 L 705.4424919151182 368.0327974015616 L 704.2999748825291 368.7962028761966 L 703.1010837454421 369.46761417329645 L 701.8532100663891 370.0428918189475 L 700.5640474015615 370.5184890351652 L 699.2415438674783 370.8914736069593 L 697.893853138204 371.1595459604149 L 696.5292841752373 371.32105334032974 L 695.15625 371.375 L 693.7832158247627 371.32105334032974 L 692.418646861796 371.1595459604149 L 691.0709561325217 370.8914736069593 L 689.7484525984385 370.5184890351652 L 688.4592899336109 370.0428918189475 L 687.2114162545579 369.46761417329645 L 686.0125251174709 368.7962028761966 L 684.8700080848818 368.0327974015616 L 683.7909091542218 367.18210439800055 L 682.7818813292354 366.24936867076457 L 681.8491456019995 365.24034084577823 L 680.9984525984385 364.1612419151183 L 680.2350471238034 363.0187248825291 L 679.5636358267036 361.81983374544205 L 678.9883581810525 360.57196006638907 L 678.5127609648348 359.2827974015616 L 678.1397763930406 357.96029386747836 L 677.8717040395851 356.61260313820407 L 677.7101966596703 355.2480341752373 L 677.65625 353.875 L 677.7101966596703 352.5019658247627 L 677.8717040395851 351.13739686179593 L 678.1397763930406 349.78970613252164 L 678.5127609648348 348.4672025984384 L 678.9883581810525 347.17803993361093 L 679.5636358267036 345.93016625455795 L 680.2350471238034 344.7312751174709 L 680.9984525984385 343.5887580848817 L 681.8491456019995 342.50965915422177 L 682.7818813292354 341.50063132923543 L 683.7909091542218 340.56789560199945 L 684.8700080848818 339.7172025984384 L 686.0125251174709 338.9537971238034 L 687.2114162545579 338.28238582670355 L 688.459289933611 337.7071081810525 L 689.7484525984385 337.2315109648348 L 691.0709561325217 336.8585263930407 L 692.418646861796 336.5904540395851 L 693.7832158247628 336.42894665967026 L 695.1562500000001 336.375 L 696.5292841752373 336.42894665967026 L 697.8938531382041 336.5904540395851 L 699.2415438674784 336.8585263930407 L 700.5640474015617 337.23151096483485 L 701.8532100663891 337.7071081810525 L 703.1010837454421 338.2823858267036 L 704.2999748825292 338.95379712380344 L 705.4424919151184 339.7172025984385 L 706.5215908457783 340.56789560199957 L 707.5306186707646 341.5006313292355 L 708.4633543980007 342.5096591542219 L 709.3140474015617 343.5887580848818 L 710.0774528761967 344.73127511747106 L 710.7488641732965 345.93016625455806 L 711.3241418189476 347.1780399336111 L 711.7997390351652 348.4672025984386 L 712.1727236069594 349.7897061325218 L 712.4407959604149 351.13739686179616 L 712.6023033403297 352.5019658247629 Z" fill-opacity="1" stroke-opacity="1" stroke-miterlimit="10" stroke-width="6"/><text fill="rgb(255,255,255)" stroke="none" font-family="times new roman" font-size="10px" font-style="normal" font-weight="normal" text-decoration="normal" x="695.15625" y="358.875" text-anchor="middle" dominant-baseline="text-after-edge" fill-opacity="1">*10.1</text><path fill="rgb(69,90,100)" stroke="rgb(76,175,80)" paint-order="fill stroke markers" d=" M 710.59375 118.375 L 710.5398033403297 119.74803417523728 L 710.3782959604149 121.11260313820404 L 710.1102236069594 122.46029386747834 L 709.7372390351652 123.78279740156158 L 709.2616418189475 125.07196006638907 L 708.6863641732964 126.31983374544207 L 708.0149528761966 127.5187248825291 L 707.2515474015615 128.66124191511827 L 706.4008543980005 129.7403408457782 L 705.4681186707646 130.74936867076457 L 704.4590908457782 131.68210439800055 L 703.3799919151182 132.5327974015616 L 702.2374748825291 133.29620287619662 L 701.0385837454421 133.96761417329643 L 699.7907100663891 134.5428918189475 L 698.5015474015615 135.01848903516517 L 697.1790438674783 135.39147360695935 L 695.831353138204 135.6595459604149 L 694.4667841752373 135.82105334032974 L 693.09375 135.875 L 691.7207158247627 135.82105334032974 L 690.356146861796 135.6595459604149 L 689.0084561325217 135.39147360695935 L 687.6859525984385 135.0184890351652 L 686.3967899336109 134.5428918189475 L 685.1489162545579 133.96761417329643 L 683.9500251174709 133.29620287619662 L 682.8075080848818 132.5327974015616 L 681.7284091542218 131.68210439800055 L 680.7193813292354 130.74936867076457 L 679.7866456019995 129.7403408457782 L 678.9359525984385 128.6612419151183 L 678.1725471238034 127.51872488252911 L 677.5011358267036 126.31983374544207 L 676.9258581810525 125.07196006638907 L 676.4502609648348 123.78279740156158 L 676.0772763930406 122.46029386747834 L 675.8092040395851 121.11260313820404 L 675.6476966596703 119.7480341752373 L 675.59375 118.375 L 675.6476966596703 117.00196582476272 L 675.8092040395851 115.63739686179596 L 676.0772763930406 114.28970613252166 L 676.4502609648348 112.96720259843842 L 676.9258581810525 111.67803993361093 L 677.5011358267036 110.43016625455793 L 678.1725471238034 109.2312751174709 L 678.9359525984385 108.08875808488172 L 679.7866456019995 107.0096591542218 L 680.7193813292354 106.00063132923542 L 681.7284091542218 105.06789560199947 L 682.8075080848818 104.21720259843842 L 683.9500251174709 103.45379712380338 L 685.1489162545579 102.78238582670356 L 686.396789933611 102.20710818105248 L 687.6859525984385 101.7315109648348 L 689.0084561325217 101.35852639304065 L 690.356146861796 101.09045403958508 L 691.7207158247628 100.92894665967026 L 693.0937500000001 100.875 L 694.4667841752373 100.92894665967026 L 695.8313531382041 101.0904540395851 L 697.1790438674784 101.35852639304068 L 698.5015474015617 101.73151096483484 L 699.7907100663891 102.20710818105252 L 701.0385837454421 102.7823858267036 L 702.2374748825292 103.45379712380344 L 703.3799919151184 104.21720259843849 L 704.4590908457783 105.06789560199954 L 705.4681186707646 106.00063132923552 L 706.4008543980007 107.0096591542219 L 707.2515474015617 108.08875808488185 L 708.0149528761967 109.23127511747103 L 708.6863641732965 110.43016625455807 L 709.2616418189476 111.67803993361109 L 709.7372390351652 112.96720259843859 L 710.1102236069594 114.28970613252184 L 710.3782959604149 115.63739686179616 L 710.5398033403297 117.00196582476292 Z" fill-opacity="1" stroke-opacity="1" stroke-miterlimit="10" stroke-width="6"/><text fill="rgb(255,255,255)" stroke="none" font-family="times new roman" font-size="10px" font-style="normal" font-weight="normal" text-decoration="normal" x="693.09375" y="123.375" text-anchor="middle" dominant-baseline="text-after-edge" fill-opacity="1">*39.2</text><path fill="rgb(69,90,100)" stroke="rgb(255,193,7)" paint-order="fill stroke markers" d=" M 736.96875 269.125 L 736.8993900089954 270.8903296538765 L 736.6917376633907 272.6447754634052 L 736.3470732089477 274.37752068675786 L 735.8675216166409 276.0778823734363 L 735.256039481504 277.73537722821453 L 734.5163967942383 279.3397862441398 L 733.6531536979671 280.8812177061088 L 732.6716323734363 282.35016817658067 L 731.5778842260007 283.73758108742913 L 730.3786525766973 285.03490257669733 L 729.0813310874291 286.2341342260007 L 727.6939181765806 287.3278823734363 L 726.2249677061088 288.30940369796707 L 724.6835362441398 289.1726467942383 L 723.0791272282145 289.91228948150393 L 721.4216323734363 290.52377161664094 L 719.7212706867579 291.00332320894773 L 717.9885254634052 291.3479876633906 L 716.2340796538765 291.5556400089954 L 714.46875 291.625 L 712.7034203461235 291.5556400089954 L 710.9489745365948 291.3479876633906 L 709.2162293132421 291.00332320894773 L 707.5158676265637 290.52377161664094 L 705.8583727717855 289.91228948150393 L 704.2539637558602 289.1726467942383 L 702.7125322938912 288.30940369796707 L 701.2435818234194 287.3278823734363 L 699.8561689125709 286.2341342260007 L 698.5588474233027 285.03490257669733 L 697.3596157739993 283.73758108742913 L 696.2658676265637 282.35016817658067 L 695.2843463020329 280.8812177061088 L 694.4211032057617 279.3397862441398 L 693.681460518496 277.73537722821453 L 693.0699783833591 276.0778823734363 L 692.5904267910523 274.37752068675786 L 692.2457623366095 272.6447754634052 L 692.0381099910046 270.8903296538765 L 691.96875 269.125 L 692.0381099910046 267.3596703461235 L 692.2457623366093 265.6052245365948 L 692.5904267910523 263.87247931324214 L 693.0699783833591 262.1721176265637 L 693.681460518496 260.51462277178547 L 694.4211032057617 258.9102137558602 L 695.2843463020329 257.3687822938912 L 696.2658676265637 255.89983182341936 L 697.3596157739993 254.51241891257087 L 698.5588474233027 253.2150974233027 L 699.8561689125709 252.0158657739993 L 701.2435818234194 250.92211762656368 L 702.7125322938912 249.94059630203293 L 704.2539637558602 249.0773532057617 L 705.8583727717855 248.33771051849604 L 707.5158676265637 247.72622838335903 L 709.2162293132421 247.24667679105227 L 710.9489745365948 246.9020123366094 L 712.7034203461236 246.6943599910046 L 714.4687500000001 246.625 L 716.2340796538766 246.69435999100463 L 717.9885254634053 246.9020123366094 L 719.721270686758 247.2466767910523 L 721.4216323734364 247.72622838335909 L 723.0791272282146 248.3377105184961 L 724.6835362441399 249.0773532057618 L 726.2249677061089 249.940596302033 L 727.6939181765807 250.92211762656376 L 729.0813310874292 252.01586577399942 L 730.3786525766974 253.2150974233028 L 731.5778842260008 254.512418912571 L 732.6716323734364 255.8998318234195 L 733.6531536979671 257.36878229389134 L 734.5163967942384 258.9102137558604 L 735.256039481504 260.5146227717857 L 735.867521616641 262.17211762656393 L 736.3470732089478 263.87247931324237 L 736.6917376633907 265.6052245365951 L 736.8993900089954 267.3596703461238 Z" fill-opacity="1" stroke-opacity="1" stroke-miterlimit="10" stroke-width="6"/><text fill="rgb(255,255,255)" stroke="none" font-family="times new roman" font-size="15px" font-style="normal" font-weight="normal" text-decoration="normal" x="714.46875" y="276.625" text-anchor="middle" dominant-baseline="text-after-edge" fill-opacity="1">*10</text><path fill="rgb(69,90,100)" stroke="rgb(76,175,80)" paint-order="fill stroke markers" d=" M 295.15625 343.875 L 295.15625 363.875 L 390.15625 363.875 L 390.15625 343.875 Z" fill-opacity="1" stroke-opacity="1" stroke-miterlimit="10" stroke-width="6"/><text fill="rgb(255,255,255)" stroke="none" font-family="times new roman" font-size="10px" font-style="normal" font-weight="normal" text-decoration="normal" x="342.65625" y="358.875" text-anchor="middle" dominant-baseline="text-after-edge" fill-opacity="1">42127407T&gt;G</text><path fill="rgb(69,90,100)" stroke="rgb(76,175,80)" paint-order="fill stroke markers" d=" M 703.34375 424.875 L 703.34375 444.875 L 798.34375 444.875 L 798.34375 424.875 Z" fill-opacity="1" stroke-opacity="1" stroke-miterlimit="10" stroke-width="6"/><text fill="rgb(255,255,255)" stroke="none" font-family="times new roman" font-size="10px" font-style="normal" font-weight="normal" text-decoration="normal" x="750.84375" y="439.875" text-anchor="middle" dominant-baseline="text-after-edge" fill-opacity="1">42129950A&gt;C</text><path fill="rgb(69,90,100)" stroke="rgb(76,175,80)" paint-order="fill stroke markers" d=" M 375.34375 434.875 L 375.28980334032974 436.2480341752373 L 375.1282959604149 437.61260313820407 L 374.8602236069593 438.96029386747836 L 374.4872390351652 440.2827974015616 L 374.0116418189475 441.57196006638907 L 373.43636417329645 442.81983374544205 L 372.7649528761966 444.0187248825291 L 372.0015474015616 445.1612419151183 L 371.15085439800055 446.24034084577823 L 370.21811867076457 447.24936867076457 L 369.20909084577823 448.18210439800055 L 368.1299919151183 449.0327974015616 L 366.9874748825291 449.7962028761966 L 365.78858374544205 450.46761417329645 L 364.54071006638907 451.0428918189475 L 363.2515474015616 451.5184890351652 L 361.92904386747836 451.8914736069593 L 360.58135313820407 452.1595459604149 L 359.2167841752373 452.32105334032974 L 357.84375 452.375 L 356.4707158247627 452.32105334032974 L 355.10614686179593 452.1595459604149 L 353.75845613252164 451.8914736069593 L 352.4359525984384 451.5184890351652 L 351.14678993361093 451.0428918189475 L 349.89891625455795 450.46761417329645 L 348.7000251174709 449.7962028761966 L 347.5575080848817 449.0327974015616 L 346.47840915422177 448.18210439800055 L 345.46938132923543 447.24936867076457 L 344.53664560199945 446.24034084577823 L 343.6859525984384 445.1612419151183 L 342.9225471238034 444.0187248825291 L 342.25113582670355 442.81983374544205 L 341.6758581810525 441.57196006638907 L 341.2002609648348 440.2827974015616 L 340.8272763930407 438.96029386747836 L 340.5592040395851 437.61260313820407 L 340.39769665967026 436.2480341752373 L 340.34375 434.875 L 340.39769665967026 433.5019658247627 L 340.5592040395851 432.13739686179593 L 340.8272763930407 430.78970613252164 L 341.2002609648348 429.4672025984384 L 341.6758581810525 428.17803993361093 L 342.25113582670355 426.93016625455795 L 342.9225471238034 425.7312751174709 L 343.6859525984384 424.5887580848817 L 344.53664560199945 423.50965915422177 L 345.46938132923543 422.50063132923543 L 346.47840915422177 421.56789560199945 L 347.5575080848817 420.7172025984384 L 348.7000251174709 419.9537971238034 L 349.89891625455795 419.28238582670355 L 351.14678993361093 418.7071081810525 L 352.43595259843846 418.2315109648348 L 353.7584561325217 417.8585263930407 L 355.106146861796 417.5904540395851 L 356.47071582476275 417.42894665967026 L 357.84375000000006 417.375 L 359.21678417523736 417.42894665967026 L 360.5813531382041 417.5904540395851 L 361.9290438674784 417.8585263930407 L 363.25154740156165 418.23151096483485 L 364.5407100663892 418.7071081810525 L 365.78858374544217 419.2823858267036 L 366.9874748825292 419.95379712380344 L 368.12999191511835 420.7172025984385 L 369.2090908457783 421.56789560199957 L 370.2181186707647 422.5006313292355 L 371.15085439800066 423.5096591542219 L 372.00154740156165 424.5887580848818 L 372.7649528761967 425.73127511747106 L 373.4363641732965 426.93016625455806 L 374.01164181894757 428.1780399336111 L 374.48723903516526 429.4672025984386 L 374.8602236069594 430.7897061325218 L 375.12829596041496 432.13739686179616 L 375.28980334032974 433.5019658247629 Z" fill-opacity="1" stroke-opacity="1" stroke-miterlimit="10" stroke-width="6"/><text fill="rgb(255,255,255)" stroke="none" font-family="times new roman" font-size="10px" font-style="normal" font-weight="normal" text-decoration="normal" x="357.84375" y="439.875" text-anchor="middle" dominant-baseline="text-after-edge" fill-opacity="1">*1.41</text><path fill="rgb(69,90,100)" stroke="rgb(158,158,158)" paint-order="fill stroke markers" d=" M 1022.09375 259.125 L 1022.09375 279.125 L 1117.09375 279.125 L 1117.09375 259.125 Z" fill-opacity="1" stroke-opacity="1" stroke-miterlimit="10" stroke-width="6"/><text fill="rgb(255,255,255)" stroke="none" font-family="times new roman" font-size="10px" font-style="normal" font-weight="normal" text-decoration="normal" x="1069.59375" y="274.125" text-anchor="middle" dominant-baseline="text-after-edge" fill-opacity="1">42129819G&gt;T</text><path fill="rgb(69,90,100)" stroke="rgb(76,175,80)" paint-order="fill stroke markers" d=" M 230.28125 259.125 L 230.28125 279.125 L 325.28125 279.125 L 325.28125 259.125 Z" fill-opacity="1" stroke-opacity="1" stroke-miterlimit="10" stroke-width="6"/><text fill="rgb(255,255,255)" stroke="none" font-family="times new roman" font-size="10px" font-style="normal" font-weight="normal" text-decoration="normal" x="277.78125" y="274.125" text-anchor="middle" dominant-baseline="text-after-edge" fill-opacity="1">42129130C&gt;G</text><path fill="rgb(69,90,100)" stroke="rgb(158,158,158)" paint-order="fill stroke markers" d=" M 1044.09375 353.875 L 1044.0243900089954 355.6403296538765 L 1043.8167376633905 357.3947754634052 L 1043.4720732089477 359.12752068675786 L 1042.992521616641 360.8278823734363 L 1042.3810394815039 362.48537722821453 L 1041.6413967942383 364.0897862441398 L 1040.7781536979671 365.6312177061088 L 1039.7966323734363 367.10016817658067 L 1038.7028842260006 368.48758108742913 L 1037.5036525766973 369.78490257669733 L 1036.2063310874291 370.9841342260007 L 1034.8189181765806 372.0778823734363 L 1033.3499677061088 373.05940369796707 L 1031.8085362441398 373.9226467942383 L 1030.2041272282145 374.66228948150393 L 1028.5466323734363 375.27377161664094 L 1026.8462706867579 375.75332320894773 L 1025.1135254634053 376.0979876633906 L 1023.3590796538765 376.3056400089954 L 1021.59375 376.375 L 1019.8284203461235 376.3056400089954 L 1018.0739745365948 376.0979876633906 L 1016.3412293132421 375.75332320894773 L 1014.6408676265637 375.27377161664094 L 1012.9833727717855 374.66228948150393 L 1011.3789637558602 373.9226467942383 L 1009.8375322938912 373.05940369796707 L 1008.3685818234194 372.0778823734363 L 1006.9811689125709 370.9841342260007 L 1005.6838474233027 369.78490257669733 L 1004.4846157739993 368.48758108742913 L 1003.3908676265637 367.10016817658067 L 1002.4093463020329 365.6312177061088 L 1001.5461032057617 364.0897862441398 L 1000.806460518496 362.48537722821453 L 1000.1949783833591 360.8278823734363 L 999.7154267910523 359.12752068675786 L 999.3707623366095 357.3947754634052 L 999.1631099910046 355.6403296538765 L 999.09375 353.875 L 999.1631099910046 352.1096703461235 L 999.3707623366093 350.3552245365948 L 999.7154267910523 348.62247931324214 L 1000.1949783833591 346.9221176265637 L 1000.806460518496 345.26462277178547 L 1001.5461032057617 343.6602137558602 L 1002.4093463020329 342.1187822938912 L 1003.3908676265637 340.64983182341933 L 1004.4846157739993 339.26241891257087 L 1005.6838474233027 337.96509742330267 L 1006.9811689125709 336.76586577399934 L 1008.3685818234194 335.6721176265637 L 1009.8375322938912 334.69059630203293 L 1011.3789637558602 333.8273532057617 L 1012.9833727717855 333.087710518496 L 1014.6408676265637 332.47622838335906 L 1016.3412293132421 331.99667679105227 L 1018.0739745365948 331.6520123366094 L 1019.8284203461236 331.4443599910046 L 1021.5937500000001 331.375 L 1023.3590796538766 331.4443599910046 L 1025.1135254634053 331.6520123366094 L 1026.8462706867579 331.9966767910523 L 1028.5466323734365 332.47622838335906 L 1030.2041272282147 333.0877105184961 L 1031.80853624414 333.82735320576177 L 1033.349967706109 334.690596302033 L 1034.8189181765808 335.67211762656376 L 1036.2063310874294 336.7658657739994 L 1037.5036525766975 337.9650974233028 L 1038.7028842260008 339.262418912571 L 1039.7966323734365 340.6498318234195 L 1040.7781536979671 342.11878229389134 L 1041.6413967942383 343.6602137558604 L 1042.381039481504 345.2646227717857 L 1042.992521616641 346.92211762656393 L 1043.4720732089477 348.62247931324237 L 1043.8167376633905 350.3552245365951 L 1044.0243900089954 352.1096703461238 Z" fill-opacity="1" stroke-opacity="1" stroke-miterlimit="10" stroke-width="6"/><text fill="rgb(255,255,255)" stroke="none" font-family="times new roman" font-size="15px" font-style="normal" font-weight="normal" text-decoration="normal" x="1021.59375" y="361.375" text-anchor="middle" dominant-baseline="text-after-edge" fill-opacity="1">*74</text><path fill="rgb(69,90,100)" stroke="rgb(76,175,80)" paint-order="fill stroke markers" d=" M 818.09375 424.875 L 818.09375 444.875 L 913.09375 444.875 L 913.09375 424.875 Z" fill-opacity="1" stroke-opacity="1" stroke-miterlimit="10" stroke-width="6"/><text fill="rgb(255,255,255)" stroke="none" font-family="times new roman" font-size="10px" font-style="normal" font-weight="normal" text-decoration="normal" x="865.59375" y="439.875" text-anchor="middle" dominant-baseline="text-after-edge" fill-opacity="1">42130482C&gt;A</text><path fill="rgb(69,90,100)" stroke="rgb(76,175,80)" paint-order="fill stroke markers" d=" M 850.09375 568 L 850.0398033403297 569.3730341752373 L 849.8782959604149 570.737603138204 L 849.6102236069594 572.0852938674783 L 849.2372390351652 573.4077974015615 L 848.7616418189475 574.6969600663891 L 848.1863641732964 575.9448337454421 L 847.5149528761966 577.1437248825291 L 846.7515474015615 578.2862419151182 L 845.9008543980005 579.3653408457782 L 844.9681186707646 580.3743686707646 L 843.9590908457782 581.3071043980005 L 842.8799919151182 582.1577974015615 L 841.7374748825291 582.9212028761966 L 840.5385837454421 583.5926141732964 L 839.2907100663891 584.1678918189475 L 838.0015474015615 584.6434890351652 L 836.6790438674783 585.0164736069594 L 835.331353138204 585.2845459604149 L 833.9667841752373 585.4460533403297 L 832.59375 585.5 L 831.2207158247627 585.4460533403297 L 829.856146861796 585.2845459604149 L 828.5084561325217 585.0164736069594 L 827.1859525984385 584.6434890351652 L 825.8967899336109 584.1678918189475 L 824.6489162545579 583.5926141732964 L 823.4500251174709 582.9212028761966 L 822.3075080848818 582.1577974015615 L 821.2284091542218 581.3071043980005 L 820.2193813292354 580.3743686707646 L 819.2866456019995 579.3653408457782 L 818.4359525984385 578.2862419151182 L 817.6725471238034 577.1437248825291 L 817.0011358267036 575.9448337454421 L 816.4258581810525 574.6969600663891 L 815.9502609648348 573.4077974015615 L 815.5772763930406 572.0852938674783 L 815.3092040395851 570.737603138204 L 815.1476966596703 569.3730341752373 L 815.09375 568 L 815.1476966596703 566.6269658247627 L 815.3092040395851 565.262396861796 L 815.5772763930406 563.9147061325217 L 815.9502609648348 562.5922025984385 L 816.4258581810525 561.3030399336109 L 817.0011358267036 560.0551662545579 L 817.6725471238034 558.8562751174709 L 818.4359525984385 557.7137580848818 L 819.2866456019995 556.6346591542218 L 820.2193813292354 555.6256313292354 L 821.2284091542218 554.6928956019995 L 822.3075080848818 553.8422025984385 L 823.4500251174709 553.0787971238034 L 824.6489162545579 552.4073858267036 L 825.896789933611 551.8321081810525 L 827.1859525984385 551.3565109648348 L 828.5084561325217 550.9835263930406 L 829.856146861796 550.7154540395851 L 831.2207158247628 550.5539466596703 L 832.5937500000001 550.5 L 833.9667841752373 550.5539466596703 L 835.3313531382041 550.7154540395851 L 836.6790438674784 550.9835263930406 L 838.0015474015617 551.3565109648348 L 839.2907100663891 551.8321081810525 L 840.5385837454421 552.4073858267036 L 841.7374748825292 553.0787971238035 L 842.8799919151184 553.8422025984385 L 843.9590908457783 554.6928956019996 L 844.9681186707646 555.6256313292355 L 845.9008543980007 556.6346591542219 L 846.7515474015617 557.7137580848819 L 847.5149528761967 558.856275117471 L 848.1863641732965 560.0551662545581 L 848.7616418189476 561.3030399336111 L 849.2372390351652 562.5922025984386 L 849.6102236069594 563.9147061325218 L 849.8782959604149 565.2623968617961 L 850.0398033403297 566.6269658247629 Z" fill-opacity="1" stroke-opacity="1" stroke-miterlimit="10" stroke-width="6"/><text fill="rgb(255,255,255)" stroke="none" font-family="times new roman" font-size="10px" font-style="normal" font-weight="normal" text-decoration="normal" x="832.59375" y="573" text-anchor="middle" dominant-baseline="text-after-edge" fill-opacity="1">*1.58</text><path fill="rgb(69,90,100)" stroke="rgb(244,67,54)" paint-order="fill stroke markers" d=" M 1198.84375 434.875 L 1198.7898033403299 436.2480341752373 L 1198.628295960415 437.61260313820407 L 1198.3602236069594 438.96029386747836 L 1197.9872390351652 440.2827974015616 L 1197.5116418189475 441.57196006638907 L 1196.9363641732964 442.81983374544205 L 1196.2649528761965 444.0187248825291 L 1195.5015474015615 445.1612419151183 L 1194.6508543980005 446.24034084577823 L 1193.7181186707646 447.24936867076457 L 1192.7090908457783 448.18210439800055 L 1191.6299919151184 449.0327974015616 L 1190.487474882529 449.7962028761966 L 1189.288583745442 450.46761417329645 L 1188.040710066389 451.0428918189475 L 1186.7515474015615 451.5184890351652 L 1185.4290438674784 451.8914736069593 L 1184.0813531382041 452.1595459604149 L 1182.7167841752373 452.32105334032974 L 1181.34375 452.375 L 1179.9707158247627 452.32105334032974 L 1178.6061468617959 452.1595459604149 L 1177.2584561325216 451.8914736069593 L 1175.9359525984385 451.5184890351652 L 1174.646789933611 451.0428918189475 L 1173.398916254558 450.46761417329645 L 1172.200025117471 449.7962028761966 L 1171.0575080848816 449.0327974015616 L 1169.9784091542217 448.18210439800055 L 1168.9693813292354 447.24936867076457 L 1168.0366456019995 446.24034084577823 L 1167.1859525984385 445.1612419151183 L 1166.4225471238035 444.0187248825291 L 1165.7511358267036 442.81983374544205 L 1165.1758581810525 441.57196006638907 L 1164.7002609648348 440.2827974015616 L 1164.3272763930406 438.96029386747836 L 1164.059204039585 437.61260313820407 L 1163.8976966596701 436.2480341752373 L 1163.84375 434.875 L 1163.8976966596701 433.5019658247627 L 1164.059204039585 432.13739686179593 L 1164.3272763930406 430.78970613252164 L 1164.7002609648348 429.4672025984384 L 1165.1758581810525 428.17803993361093 L 1165.7511358267036 426.93016625455795 L 1166.4225471238035 425.7312751174709 L 1167.1859525984385 424.5887580848817 L 1168.0366456019995 423.50965915422177 L 1168.9693813292354 422.50063132923543 L 1169.9784091542217 421.56789560199945 L 1171.0575080848816 420.7172025984384 L 1172.200025117471 419.9537971238034 L 1173.398916254558 419.28238582670355 L 1174.646789933611 418.7071081810525 L 1175.9359525984385 418.2315109648348 L 1177.2584561325216 417.8585263930407 L 1178.606146861796 417.5904540395851 L 1179.9707158247627 417.42894665967026 L 1181.34375 417.375 L 1182.7167841752373 417.42894665967026 L 1184.0813531382041 417.5904540395851 L 1185.4290438674784 417.8585263930407 L 1186.7515474015618 418.23151096483485 L 1188.0407100663892 418.7071081810525 L 1189.288583745442 419.2823858267036 L 1190.487474882529 419.95379712380344 L 1191.6299919151184 420.7172025984385 L 1192.7090908457783 421.56789560199957 L 1193.7181186707646 422.5006313292355 L 1194.6508543980005 423.5096591542219 L 1195.5015474015618 424.5887580848818 L 1196.2649528761967 425.73127511747106 L 1196.9363641732966 426.93016625455806 L 1197.5116418189475 428.1780399336111 L 1197.9872390351652 429.4672025984386 L 1198.3602236069594 430.7897061325218 L 1198.628295960415 432.13739686179616 L 1198.7898033403299 433.5019658247629 Z" fill-opacity="1" stroke-opacity="1" stroke-miterlimit="10" stroke-width="6"/><text fill="rgb(255,255,255)" stroke="none" font-family="times new roman" font-size="10px" font-style="normal" font-weight="normal" text-decoration="normal" x="1181.34375" y="439.875" text-anchor="middle" dominant-baseline="text-after-edge" fill-opacity="1">*4.2</text><path fill="rgb(69,90,100)" stroke="rgb(158,158,158)" paint-order="fill stroke markers" d=" M 737.84375 108.375 L 737.84375 128.375 L 832.84375 128.375 L 832.84375 108.375 Z" fill-opacity="1" stroke-opacity="1" stroke-miterlimit="10" stroke-width="6"/><text fill="rgb(255,255,255)" stroke="none" font-family="times new roman" font-size="10px" font-style="normal" font-weight="normal" text-decoration="normal" x="785.34375" y="123.375" text-anchor="middle" dominant-baseline="text-after-edge" fill-opacity="1">42126611C&gt;G</text><path fill="rgb(69,90,100)" stroke="rgb(224,224,224)" paint-order="fill stroke markers" d=" M 1090.59375 424.875 L 1133.09375 424.875 L 1133.09375 424.875 A 5 5 0 0 1 1138.09375 429.875 L 1138.09375 439.875 L 1138.09375 439.875 A 5 5 0 0 1 1133.09375 444.875 L 1048.09375 444.875 L 1048.09375 444.875 A 5 5 0 0 1 1043.09375 439.875 L 1043.09375 429.875 L 1043.09375 429.875 A 5 5 0 0 1 1048.09375 424.875 L 1090.59375 424.875 Z" fill-opacity="1" stroke-opacity="1" stroke-miterlimit="10" stroke-width="2"/><text fill="rgb(255,255,255)" stroke="none" font-family="times new roman" font-size="10px" font-style="normal" font-weight="normal" text-decoration="normal" x="1090.59375" y="439.875" text-anchor="middle" dominant-baseline="text-after-edge" fill-opacity="1">42125648_4212565</text><path fill="rgb(69,90,100)" stroke="rgb(244,67,54)" paint-order="fill stroke markers" d=" M 570.96875 259.125 L 570.96875 279.125 L 665.96875 279.125 L 665.96875 259.125 Z" fill-opacity="1" stroke-opacity="1" stroke-miterlimit="10" stroke-width="6"/><text fill="rgb(255,255,255)" stroke="none" font-family="times new roman" font-size="10px" font-style="normal" font-weight="normal" text-decoration="normal" x="618.46875" y="274.125" text-anchor="middle" dominant-baseline="text-after-edge" fill-opacity="1">42128945C&gt;T</text><path fill="rgb(69,90,100)" stroke="rgb(76,175,80)" paint-order="fill stroke markers" d=" M 978.84375 424.875 L 1021.34375 424.875 L 1021.34375 424.875 A 5 5 0 0 1 1026.34375 429.875 L 1026.34375 439.875 L 1026.34375 439.875 A 5 5 0 0 1 1021.34375 444.875 L 936.34375 444.875 L 936.34375 444.875 A 5 5 0 0 1 931.34375 439.875 L 931.34375 429.875 L 931.34375 429.875 A 5 5 0 0 1 936.34375 424.875 L 978.84375 424.875 Z" fill-opacity="1" stroke-opacity="1" stroke-miterlimit="10" stroke-width="2"/><text fill="rgb(255,255,255)" stroke="none" font-family="times new roman" font-size="10px" font-style="normal" font-weight="normal" text-decoration="normal" x="978.84375" y="439.875" text-anchor="middle" dominant-baseline="text-after-edge" fill-opacity="1">42132049dup</text><path fill="rgb(69,90,100)" stroke="rgb(158,158,158)" paint-order="fill stroke markers" d=" M 878.09375 343.875 L 878.09375 363.875 L 973.09375 363.875 L 973.09375 343.875 Z" fill-opacity="1" stroke-opacity="1" stroke-miterlimit="10" stroke-width="6"/><text fill="rgb(255,255,255)" stroke="none" font-family="times new roman" font-size="10px" font-style="normal" font-weight="normal" text-decoration="normal" x="925.59375" y="358.875" text-anchor="middle" dominant-baseline="text-after-edge" fill-opacity="1">42129809T&gt;C</text><path fill="rgb(69,90,100)" stroke="rgb(244,67,54)" paint-order="fill stroke markers" d=" M 267.53125 434.875 L 267.47730334032974 436.2480341752373 L 267.3157959604149 437.61260313820407 L 267.0477236069593 438.96029386747836 L 266.6747390351652 440.2827974015616 L 266.1991418189475 441.57196006638907 L 265.62386417329645 442.81983374544205 L 264.9524528761966 444.0187248825291 L 264.1890474015616 445.1612419151183 L 263.33835439800055 446.24034084577823 L 262.40561867076457 447.24936867076457 L 261.39659084577823 448.18210439800055 L 260.3174919151183 449.0327974015616 L 259.1749748825291 449.7962028761966 L 257.97608374544205 450.46761417329645 L 256.72821006638907 451.0428918189475 L 255.4390474015616 451.5184890351652 L 254.11654386747836 451.8914736069593 L 252.76885313820404 452.1595459604149 L 251.40428417523728 452.32105334032974 L 250.03125 452.375 L 248.65821582476272 452.32105334032974 L 247.29364686179596 452.1595459604149 L 245.94595613252164 451.8914736069593 L 244.62345259843843 451.5184890351652 L 243.33428993361093 451.0428918189475 L 242.08641625455795 450.46761417329645 L 240.8875251174709 449.7962028761966 L 239.74500808488173 449.0327974015616 L 238.6659091542218 448.18210439800055 L 237.65688132923543 447.24936867076457 L 236.72414560199945 446.24034084577823 L 235.87345259843843 445.1612419151183 L 235.11004712380338 444.0187248825291 L 234.43863582670357 442.81983374544205 L 233.8633581810525 441.57196006638907 L 233.38776096483483 440.2827974015616 L 233.01477639304065 438.96029386747836 L 232.7467040395851 437.61260313820407 L 232.58519665967026 436.2480341752373 L 232.53125 434.875 L 232.58519665967026 433.5019658247627 L 232.7467040395851 432.13739686179593 L 233.01477639304065 430.78970613252164 L 233.3877609648348 429.4672025984384 L 233.8633581810525 428.17803993361093 L 234.43863582670357 426.93016625455795 L 235.11004712380338 425.7312751174709 L 235.8734525984384 424.5887580848817 L 236.72414560199945 423.50965915422177 L 237.6568813292354 422.50063132923543 L 238.66590915422177 421.56789560199945 L 239.7450080848817 420.7172025984384 L 240.8875251174709 419.9537971238034 L 242.08641625455795 419.28238582670355 L 243.33428993361096 418.7071081810525 L 244.62345259843843 418.2315109648348 L 245.9459561325217 417.8585263930407 L 247.293646861796 417.5904540395851 L 248.65821582476278 417.42894665967026 L 250.03125000000006 417.375 L 251.40428417523736 417.42894665967026 L 252.76885313820412 417.5904540395851 L 254.1165438674784 417.8585263930407 L 255.43904740156165 418.23151096483485 L 256.7282100663892 418.7071081810525 L 257.97608374544217 419.2823858267036 L 259.1749748825292 419.95379712380344 L 260.31749191511835 420.7172025984385 L 261.3965908457783 421.56789560199957 L 262.4056186707647 422.5006313292355 L 263.33835439800066 423.5096591542219 L 264.18904740156165 424.5887580848818 L 264.9524528761967 425.73127511747106 L 265.6238641732965 426.93016625455806 L 266.19914181894757 428.1780399336111 L 266.67473903516526 429.4672025984386 L 267.0477236069594 430.7897061325218 L 267.31579596041496 432.13739686179616 L 267.47730334032974 433.5019658247629 Z" fill-opacity="1" stroke-opacity="1" stroke-miterlimit="10" stroke-width="6"/><text fill="rgb(255,255,255)" stroke="none" font-family="times new roman" font-size="10px" font-style="normal" font-weight="normal" text-decoration="normal" x="250.03125" y="439.875" text-anchor="middle" dominant-baseline="text-after-edge" fill-opacity="1">*4.9</text><path fill="rgb(69,90,100)" stroke="rgb(244,67,54)" paint-order="fill stroke markers" d=" M 643.09375 568 L 643.0398033403297 569.3730341752373 L 642.8782959604149 570.737603138204 L 642.6102236069594 572.0852938674783 L 642.2372390351652 573.4077974015615 L 641.7616418189475 574.6969600663891 L 641.1863641732964 575.9448337454421 L 640.5149528761966 577.1437248825291 L 639.7515474015615 578.2862419151182 L 638.9008543980005 579.3653408457782 L 637.9681186707646 580.3743686707646 L 636.9590908457782 581.3071043980005 L 635.8799919151182 582.1577974015615 L 634.7374748825291 582.9212028761966 L 633.5385837454421 583.5926141732964 L 632.2907100663891 584.1678918189475 L 631.0015474015615 584.6434890351652 L 629.6790438674783 585.0164736069594 L 628.331353138204 585.2845459604149 L 626.9667841752373 585.4460533403297 L 625.59375 585.5 L 624.2207158247627 585.4460533403297 L 622.856146861796 585.2845459604149 L 621.5084561325217 585.0164736069594 L 620.1859525984385 584.6434890351652 L 618.8967899336109 584.1678918189475 L 617.6489162545579 583.5926141732964 L 616.4500251174709 582.9212028761966 L 615.3075080848818 582.1577974015615 L 614.2284091542218 581.3071043980005 L 613.2193813292354 580.3743686707646 L 612.2866456019995 579.3653408457782 L 611.4359525984385 578.2862419151182 L 610.6725471238034 577.1437248825291 L 610.0011358267036 575.9448337454421 L 609.4258581810525 574.6969600663891 L 608.9502609648348 573.4077974015615 L 608.5772763930406 572.0852938674783 L 608.3092040395851 570.737603138204 L 608.1476966596703 569.3730341752373 L 608.09375 568 L 608.1476966596703 566.6269658247627 L 608.3092040395851 565.262396861796 L 608.5772763930406 563.9147061325217 L 608.9502609648348 562.5922025984385 L 609.4258581810525 561.3030399336109 L 610.0011358267036 560.0551662545579 L 610.6725471238034 558.8562751174709 L 611.4359525984385 557.7137580848818 L 612.2866456019995 556.6346591542218 L 613.2193813292354 555.6256313292354 L 614.2284091542218 554.6928956019995 L 615.3075080848818 553.8422025984385 L 616.4500251174709 553.0787971238034 L 617.6489162545579 552.4073858267036 L 618.896789933611 551.8321081810525 L 620.1859525984385 551.3565109648348 L 621.5084561325217 550.9835263930406 L 622.856146861796 550.7154540395851 L 624.2207158247628 550.5539466596703 L 625.5937500000001 550.5 L 626.9667841752373 550.5539466596703 L 628.3313531382041 550.7154540395851 L 629.6790438674784 550.9835263930406 L 631.0015474015617 551.3565109648348 L 632.2907100663891 551.8321081810525 L 633.5385837454421 552.4073858267036 L 634.7374748825292 553.0787971238035 L 635.8799919151184 553.8422025984385 L 636.9590908457783 554.6928956019996 L 637.9681186707646 555.6256313292355 L 638.9008543980007 556.6346591542219 L 639.7515474015617 557.7137580848819 L 640.5149528761967 558.856275117471 L 641.1863641732965 560.0551662545581 L 641.7616418189476 561.3030399336111 L 642.2372390351652 562.5922025984386 L 642.6102236069594 563.9147061325218 L 642.8782959604149 565.2623968617961 L 643.0398033403297 566.6269658247629 Z" fill-opacity="1" stroke-opacity="1" stroke-miterlimit="10" stroke-width="6"/><text fill="rgb(255,255,255)" stroke="none" font-family="times new roman" font-size="10px" font-style="normal" font-weight="normal" text-decoration="normal" x="625.59375" y="573" text-anchor="middle" dominant-baseline="text-after-edge" fill-opacity="1">*4.11</text><path fill="rgb(69,90,100)" stroke="rgb(76,175,80)" paint-order="fill stroke markers" d=" M 449.78125 568 L 449.72730334032974 569.3730341752373 L 449.5657959604149 570.737603138204 L 449.2977236069593 572.0852938674783 L 448.9247390351652 573.4077974015615 L 448.4491418189475 574.6969600663891 L 447.87386417329645 575.9448337454421 L 447.2024528761966 577.1437248825291 L 446.4390474015616 578.2862419151182 L 445.58835439800055 579.3653408457782 L 444.65561867076457 580.3743686707646 L 443.64659084577823 581.3071043980005 L 442.5674919151183 582.1577974015615 L 441.4249748825291 582.9212028761966 L 440.22608374544205 583.5926141732964 L 438.97821006638907 584.1678918189475 L 437.6890474015616 584.6434890351652 L 436.36654386747836 585.0164736069594 L 435.01885313820407 585.2845459604149 L 433.6542841752373 585.4460533403297 L 432.28125 585.5 L 430.9082158247627 585.4460533403297 L 429.54364686179593 585.2845459604149 L 428.19595613252164 585.0164736069594 L 426.8734525984384 584.6434890351652 L 425.58428993361093 584.1678918189475 L 424.33641625455795 583.5926141732964 L 423.1375251174709 582.9212028761966 L 421.9950080848817 582.1577974015615 L 420.91590915422177 581.3071043980005 L 419.90688132923543 580.3743686707646 L 418.97414560199945 579.3653408457782 L 418.1234525984384 578.2862419151182 L 417.3600471238034 577.1437248825291 L 416.68863582670355 575.9448337454421 L 416.1133581810525 574.6969600663891 L 415.6377609648348 573.4077974015615 L 415.2647763930407 572.0852938674783 L 414.9967040395851 570.737603138204 L 414.83519665967026 569.3730341752373 L 414.78125 568 L 414.83519665967026 566.6269658247627 L 414.9967040395851 565.262396861796 L 415.2647763930407 563.9147061325217 L 415.6377609648348 562.5922025984385 L 416.1133581810525 561.3030399336109 L 416.68863582670355 560.0551662545579 L 417.3600471238034 558.8562751174709 L 418.1234525984384 557.7137580848818 L 418.97414560199945 556.6346591542218 L 419.90688132923543 555.6256313292354 L 420.91590915422177 554.6928956019995 L 421.9950080848817 553.8422025984385 L 423.1375251174709 553.0787971238034 L 424.33641625455795 552.4073858267036 L 425.58428993361093 551.8321081810525 L 426.87345259843846 551.3565109648348 L 428.1959561325217 550.9835263930406 L 429.543646861796 550.7154540395851 L 430.90821582476275 550.5539466596703 L 432.28125000000006 550.5 L 433.65428417523736 550.5539466596703 L 435.0188531382041 550.7154540395851 L 436.3665438674784 550.9835263930406 L 437.68904740156165 551.3565109648348 L 438.9782100663892 551.8321081810525 L 440.22608374544217 552.4073858267036 L 441.4249748825292 553.0787971238035 L 442.56749191511835 553.8422025984385 L 443.6465908457783 554.6928956019996 L 444.6556186707647 555.6256313292355 L 445.58835439800066 556.6346591542219 L 446.43904740156165 557.7137580848819 L 447.2024528761967 558.856275117471 L 447.8738641732965 560.0551662545581 L 448.44914181894757 561.3030399336111 L 448.92473903516526 562.5922025984386 L 449.2977236069594 563.9147061325218 L 449.56579596041496 565.2623968617961 L 449.72730334032974 566.6269658247629 Z" fill-opacity="1" stroke-opacity="1" stroke-miterlimit="10" stroke-width="6"/><text fill="rgb(255,255,255)" stroke="none" font-family="times new roman" font-size="10px" font-style="normal" font-weight="normal" text-decoration="normal" x="432.28125" y="573" text-anchor="middle" dominant-baseline="text-after-edge" fill-opacity="1">*1.54</text><path fill="rgb(176,190,197)" stroke="none" paint-order="stroke fill markers" d=" M 670.59375 463 L 670.59375 673 L 745.59375 673 L 745.59375 463.00000000000006 Z" fill-opacity="0.8"/><text fill="rgb(0,0,0)" stroke="none" font-family="times new roman" font-size="10px" font-style="normal" font-weight="normal" text-decoration="normal" x="675.59375" y="478" text-anchor="start" dominant-baseline="text-after-edge" fill-opacity="0.8">42126390G&gt;A </text><text fill="rgb(0,0,0)" stroke="none" font-family="times new roman" font-size="10px" font-style="normal" font-weight="normal" text-decoration="normal" x="675.59375" y="488" text-anchor="start" dominant-baseline="text-after-edge" fill-opacity="0.8">42126548G&gt;A </text><text fill="rgb(0,0,0)" stroke="none" font-family="times new roman" font-size="10px" font-style="normal" font-weight="normal" text-decoration="normal" x="675.59375" y="498" text-anchor="start" dominant-baseline="text-after-edge" fill-opacity="0.8">42127209T&gt;C </text><text fill="rgb(0,0,0)" stroke="none" font-family="times new roman" font-size="10px" font-style="normal" font-weight="normal" text-decoration="normal" x="675.59375" y="508" text-anchor="start" dominant-baseline="text-after-edge" fill-opacity="0.8">42127356G&gt;T </text><text fill="rgb(0,0,0)" stroke="none" font-family="times new roman" font-size="10px" font-style="normal" font-weight="normal" text-decoration="normal" x="675.59375" y="518" text-anchor="start" dominant-baseline="text-after-edge" fill-opacity="0.8">42128694T&gt;C </text><text fill="rgb(0,0,0)" stroke="none" font-family="times new roman" font-size="10px" font-style="normal" font-weight="normal" text-decoration="normal" x="675.59375" y="528" text-anchor="start" dominant-baseline="text-after-edge" fill-opacity="0.8">42131791C&gt;T </text><text fill="rgb(0,0,0)" stroke="none" font-family="times new roman" font-size="10px" font-style="normal" font-weight="normal" text-decoration="normal" x="675.59375" y="538" text-anchor="start" dominant-baseline="text-after-edge" fill-opacity="0.8">42132217G&gt;A </text><path fill="rgb(176,190,197)" stroke="none" paint-order="stroke fill markers" d=" M 1057.59375 463 L 1124.59375 463 L 1124.59375 463 A 8 8 0 0 1 1132.59375 471 L 1132.59375 665 L 1132.59375 665 A 8 8 0 0 1 1124.59375 673 L 990.59375 673 L 990.59375 673 A 8 8 0 0 1 982.59375 665 L 982.59375 471 L 982.59375 471 A 8 8 0 0 1 990.59375 463 L 1057.59375 463 Z" fill-opacity="0.8"/><text fill="rgb(0,0,0)" stroke="none" font-family="times new roman" font-size="10px" font-style="normal" font-weight="normal" text-decoration="normal" x="987.59375" y="478" text-anchor="start" dominant-baseline="text-after-edge" fill-opacity="0.8">42125638_42125657del </text><text fill="rgb(0,0,0)" stroke="none" font-family="times new roman" font-size="10px" font-style="normal" font-weight="normal" text-decoration="normal" x="987.59375" y="488" text-anchor="start" dominant-baseline="text-after-edge" fill-opacity="0.8">42125924A&gt;G </text><text fill="rgb(0,0,0)" stroke="none" font-family="times new roman" font-size="10px" font-style="normal" font-weight="normal" text-decoration="normal" x="987.59375" y="498" text-anchor="start" dominant-baseline="text-after-edge" fill-opacity="0.8">42125980T&gt;C </text><text fill="rgb(0,0,0)" stroke="none" font-family="times new roman" font-size="10px" font-style="normal" font-weight="normal" text-decoration="normal" x="987.59375" y="508" text-anchor="start" dominant-baseline="text-after-edge" fill-opacity="0.8">42126069A&gt;C </text><text fill="rgb(0,0,0)" stroke="none" font-family="times new roman" font-size="10px" font-style="normal" font-weight="normal" text-decoration="normal" x="987.59375" y="518" text-anchor="start" dominant-baseline="text-after-edge" fill-opacity="0.8">42132027C&gt;T </text><text fill="rgb(0,0,0)" stroke="none" font-family="times new roman" font-size="10px" font-style="normal" font-weight="normal" text-decoration="normal" x="987.59375" y="528" text-anchor="start" dominant-baseline="text-after-edge" fill-opacity="0.8">42132844C&gt;A </text><text fill="rgb(0,0,0)" stroke="none" font-family="times new roman" font-size="10px" font-style="normal" font-weight="normal" text-decoration="normal" x="987.59375" y="538" text-anchor="start" dominant-baseline="text-after-edge" fill-opacity="0.8">42132851T&gt;C </text><text fill="rgb(0,0,0)" stroke="none" font-family="times new roman" font-size="10px" font-style="normal" font-weight="normal" text-decoration="normal" x="987.59375" y="548" text-anchor="start" dominant-baseline="text-after-edge" fill-opacity="0.8">42132969C&gt;T </text><text fill="rgb(0,0,0)" stroke="none" font-family="times new roman" font-size="10px" font-style="normal" font-weight="normal" text-decoration="normal" x="987.59375" y="558" text-anchor="start" dominant-baseline="text-after-edge" fill-opacity="0.8">42133212A&gt;G </text><text fill="rgb(0,0,0)" stroke="none" font-family="times new roman" font-size="10px" font-style="normal" font-weight="normal" text-decoration="normal" x="987.59375" y="568" text-anchor="start" dominant-baseline="text-after-edge" fill-opacity="0.8">42133314C&gt;T </text><text fill="rgb(0,0,0)" stroke="none" font-family="times new roman" font-size="10px" font-style="normal" font-weight="normal" text-decoration="normal" x="987.59375" y="578" text-anchor="start" dominant-baseline="text-after-edge" fill-opacity="0.8">42133400T&gt;G </text><text fill="rgb(0,0,0)" stroke="none" font-family="times new roman" font-size="10px" font-style="normal" font-weight="normal" text-decoration="normal" x="987.59375" y="588" text-anchor="start" dominant-baseline="text-after-edge" fill-opacity="0.8">42134096del </text><text fill="rgb(0,0,0)" stroke="none" font-family="times new roman" font-size="10px" font-style="normal" font-weight="normal" text-decoration="normal" x="987.59375" y="598" text-anchor="start" dominant-baseline="text-after-edge" fill-opacity="0.8">42134820T&gt;G </text><text fill="rgb(0,0,0)" stroke="none" font-family="times new roman" font-size="10px" font-style="normal" font-weight="normal" text-decoration="normal" x="987.59375" y="608" text-anchor="start" dominant-baseline="text-after-edge" fill-opacity="0.8">42135064_42135066dup </text><text fill="rgb(0,0,0)" stroke="none" font-family="times new roman" font-size="10px" font-style="normal" font-weight="normal" text-decoration="normal" x="987.59375" y="618" text-anchor="start" dominant-baseline="text-after-edge" fill-opacity="0.8">42135201T&gt;C </text><g transform="scale(1.135492700729927,1.135492700729927) translate(92.23041382081158,55.315387705906005)"/></g></svg>