<svg version="1.1" xmlns="http://www.w3.org/2000/svg" xmlns:xlink="http://www.w3.org/1999/xlink" width="1017" height="608"><defs/><g transform="translate(-77.77194066749075,-55.46271116604862) scale(0.9031726411207252,0.9031726411207252)"><path fill="none" stroke="rgb(120,144,156)" paint-order="fill stroke markers" d=" M 231.03124999999994 562.3869294605809 L 569.5152158988062 671.9377565979539" stroke-opacity="1" stroke-linejoin="round" stroke-miterlimit="10"/><path fill="rgb(120,144,156)" stroke="none" paint-order="stroke fill markers" d=" M 561.8012900455922 674.013292174887 L 571.4180369127516 672.5536073825504 L 564.4802409585866 665.7360207642248 Z" fill-opacity="1"/><path fill="none" stroke="rgb(120,144,156)" paint-order="fill stroke markers" d=" M 894.28125 346.0750270124257 L 269.0280322044084 416.33578838545816" stroke-opacity="1" stroke-linejoin="round" stroke-miterlimit="10"/><path fill="rgb(120,144,156)" stroke="none" paint-order="stroke fill markers" d=" M 275.2003673383732 411.26481421928224 L 267.04054125763685 416.55912610395006 L 276.1718864138129 419.91039983773845 Z" fill-opacity="1"/><path fill="none" stroke="rgb(120,144,156)" paint-order="fill stroke markers" d=" M 1115.109691508181 358.9355277900547 L 1120.7923013017455 398.3349556921015" stroke-opacity="1" stroke-linejoin="round" stroke-miterlimit="10"/><path fill="rgb(120,144,156)" stroke="none" paint-order="stroke fill markers" d=" M 1115.5304037886888 392.324553495735 L 1121.077808491819 400.3144722099453 L 1124.141300641309 391.0825972189148 Z" fill-opacity="1"/><path fill="none" stroke="rgb(120,144,156)" paint-order="fill stroke markers" d=" M 263.4647753408682 429.7136237752421 L 576.9783635480028 664.4725986247445" stroke-opacity="1" stroke-linejoin="round" stroke-miterlimit="10"/><path fill="rgb(120,144,156)" stroke="none" paint-order="stroke fill markers" d=" M 569.0079509422666 663.9387232700772 L 578.579285206475 665.6713687626085 L 574.2226010419749 656.9747140557229 Z" fill-opacity="1"/><path fill="none" stroke="rgb(120,144,156)" paint-order="fill stroke markers" d=" M 1075.3087729357799 269.875 L 1102.936392038637 322.47605645784193" stroke-opacity="1" stroke-linejoin="round" stroke-miterlimit="10"/><path fill="rgb(120,144,156)" stroke="none" paint-order="stroke fill markers" d=" M 1095.9698211728069 318.5671703797672 L 1103.866378181209 324.24668509610126 L 1103.672055749235 314.52173065957913 Z" fill-opacity="1"/><path fill="none" stroke="rgb(120,144,156)" paint-order="fill stroke markers" d=" M 818.981523356054 343.68649282497836 L 268.98154345535715 415.95433604629545" stroke-opacity="1" stroke-linejoin="round" stroke-miterlimit="10"/><path fill="rgb(120,144,156)" stroke="none" paint-order="stroke fill markers" d=" M 275.05774237985855 410.7685567769967 L 266.99858799629794 416.21488862714466 L 276.19114610655265 419.39441302390435 Z" fill-opacity="1"/><path fill="none" stroke="rgb(120,144,156)" paint-order="fill stroke markers" d=" M 863.2645603003209 351.20567525446484 L 978.6641601635498 409.3950492461051" stroke-opacity="1" stroke-linejoin="round" stroke-miterlimit="10"/><path fill="rgb(120,144,156)" stroke="none" paint-order="stroke fill markers" d=" M 970.7231339350786 410.26257586744475 L 980.4499738061303 410.2955322464851 L 974.6402349867316 402.49428652221957 Z" fill-opacity="1"/><path fill="none" stroke="rgb(120,144,156)" paint-order="fill stroke markers" d=" M 654.96875 195.625 L 644.4282438476988 234.27352255843783" stroke-opacity="1" stroke-linejoin="round" stroke-miterlimit="10"/><path fill="rgb(120,144,156)" stroke="none" paint-order="stroke fill markers" d=" M 641.9944078441218 226.66504424094936 L 643.9020090361146 236.2030502009133 L 650.3878530888901 228.95416567134072 Z" fill-opacity="1"/><path fill="none" stroke="rgb(120,144,156)" paint-order="fill stroke markers" d=" M 343.97035256410254 429.625 L 400.5717495618363 532.297301530773" stroke-opacity="1" stroke-linejoin="round" stroke-miterlimit="10"/><path fill="rgb(120,144,156)" stroke="none" paint-order="stroke fill markers" d=" M 393.52764510930785 528.5299294411237 L 401.5373105801938 534.0487843082585 L 401.14659519137007 524.3297390112689 Z" fill-opacity="1"/><path fill="none" stroke="rgb(120,144,156)" paint-order="fill stroke markers" d=" M 546.7178591940777 435.39487661847875 L 591.5626425146706 531.6671637470911" stroke-opacity="1" stroke-linejoin="round" stroke-miterlimit="10"/><path fill="rgb(120,144,156)" stroke="none" paint-order="stroke fill markers" d=" M 584.7903860340921 527.4305327552224 L 592.4071408059223 533.4801233815213 L 592.6767604438631 523.7569651882778 Z" fill-opacity="1"/><path fill="none" stroke="rgb(55,71,79)" paint-order="fill stroke markers" d=" M 721.2327318313435 130.34954936206384 L 739.6773406466718 164.01543729683783" stroke-opacity="1" stroke-linejoin="round" stroke-miterlimit="10" stroke-width="2"/><path fill="none" stroke="rgb(120,144,156)" paint-order="fill stroke markers" d=" M 951.2034324686941 351.625 L 1090.81879786474 533.973105739228" stroke-opacity="1" stroke-linejoin="round" stroke-miterlimit="10"/><path fill="rgb(120,144,156)" stroke="none" paint-order="stroke fill markers" d=" M 1083.2918261895886 531.2978118485553 L 1092.0346468535458 535.5610954232058 L 1090.199581314892 526.0088687472498 Z" fill-opacity="1"/><path fill="none" stroke="rgb(55,71,79)" paint-order="fill stroke markers" d=" M 498.80288461538464 351.625 L 529.4049182775198 402.7512891704747" stroke-opacity="1" stroke-linejoin="round" stroke-miterlimit="10" stroke-width="2"/><path fill="none" stroke="rgb(120,144,156)" paint-order="fill stroke markers" d=" M 425.6695657192198 560.7944393625418 L 576.2150705074248 665.2242262808421" stroke-opacity="1" stroke-linejoin="round" stroke-miterlimit="10"/><path fill="rgb(120,144,156)" stroke="none" paint-order="stroke fill markers" d=" M 568.230542045488 664.9796751808192 L 577.8584019365296 666.3641656713871 L 573.189278394359 657.831183464213 Z" fill-opacity="1"/><path fill="none" stroke="rgb(120,144,156)" paint-order="fill stroke markers" d=" M 422.52119659385346 343.66572076005116 L 976.6410838223832 415.9724563582533" stroke-opacity="1" stroke-linejoin="round" stroke-miterlimit="10"/><path fill="rgb(120,144,156)" stroke="none" paint-order="stroke fill markers" d=" M 969.4345507379134 419.41895906424986 L 978.6242707665409 416.23124110378956 L 970.5602643809962 410.7920958571637 Z" fill-opacity="1"/><path fill="none" stroke="rgb(55,71,79)" paint-order="fill stroke markers" d=" M 280.1120986238532 269.875 L 379.01442958454265 328.62352356792996" stroke-opacity="1" stroke-linejoin="round" stroke-miterlimit="10" stroke-width="2"/><path fill="none" stroke="rgb(120,144,156)" paint-order="fill stroke markers" d=" M 731.3160290320193 197.5098965286761 L 659.0440429652557 244.89351653271316" stroke-opacity="1" stroke-linejoin="round" stroke-miterlimit="10"/><path fill="rgb(120,144,156)" stroke="none" paint-order="stroke fill markers" d=" M 662.2620825646485 237.58210619429417 L 657.3714709679807 245.9901034713239 L 667.0322357476051 244.85779438244023 Z" fill-opacity="1"/><path fill="none" stroke="rgb(120,144,156)" paint-order="fill stroke markers" d=" M 673.9046474358975 195.625 L 980.0977016218392 406.9794975796766" stroke-opacity="1" stroke-linejoin="round" stroke-miterlimit="10"/><path fill="rgb(120,144,156)" stroke="none" paint-order="stroke fill markers" d=" M 972.1126304188107 406.75336071279037 L 981.743657561172 408.1156441572691 L 977.0548680313382 399.5934523766929 Z" fill-opacity="1"/><path fill="none" stroke="rgb(120,144,156)" paint-order="fill stroke markers" d=" M 615.9799296650049 267.8010120122486 L 267.61990178159147 410.83847888293207" stroke-opacity="1" stroke-linejoin="round" stroke-miterlimit="10"/><path fill="rgb(120,144,156)" stroke="none" paint-order="stroke fill markers" d=" M 272.16551641951423 404.26962148126 L 265.7697894126557 411.5981394797192 L 275.4700400155382 412.3176102861305 Z" fill-opacity="1"/><path fill="none" stroke="rgb(120,144,156)" paint-order="fill stroke markers" d=" M 378.35258698569777 351.4348677633247 L 266.85864752311466 409.1951153553976" stroke-opacity="1" stroke-linejoin="round" stroke-miterlimit="10"/><path fill="rgb(120,144,156)" stroke="none" paint-order="stroke fill markers" d=" M 270.80674826461944 402.2506930946959 L 265.082803862323 410.11510410121247 L 274.80869930891413 409.9756130191397 Z" fill-opacity="1"/><path fill="none" stroke="rgb(120,144,156)" paint-order="fill stroke markers" d=" M 616.96875 349.7010233918129 L 268.8064625854638 414.85419998400675" stroke-opacity="1" stroke-linejoin="round" stroke-miterlimit="10"/><path fill="rgb(120,144,156)" stroke="none" paint-order="stroke fill markers" d=" M 274.5919964514656 409.34601535698613 L 266.840588186882 415.22208291239633 L 276.1922871899603 417.89756899081715 Z" fill-opacity="1"/><path fill="none" stroke="rgb(55,71,79)" paint-order="fill stroke markers" d=" M 573.3987958715596 269.875 L 819.5548207236438 334.6450825802708" stroke-opacity="1" stroke-linejoin="round" stroke-miterlimit="10" stroke-width="2"/><path fill="none" stroke="rgb(120,144,156)" paint-order="fill stroke markers" d=" M 712.21875 351.625 L 977.0136980491617 413.92969365862626" stroke-opacity="1" stroke-linejoin="round" stroke-miterlimit="10"/><path fill="rgb(120,144,156)" stroke="none" paint-order="stroke fill markers" d=" M 969.4954819196206 416.62949480491613 L 978.9605323858289 414.38777232607737 L 971.4881241230329 408.160765440414 Z" fill-opacity="1"/><path fill="none" stroke="rgb(55,71,79)" paint-order="fill stroke markers" d=" M 793.6948138297872 125.125 L 764.6758272744055 165.5366257215687" stroke-opacity="1" stroke-linejoin="round" stroke-miterlimit="10" stroke-width="2"/><path fill="none" stroke="rgb(120,144,156)" paint-order="fill stroke markers" d=" M 600.21875 568.75 L 600.21875 661.375" stroke-opacity="1" stroke-linejoin="round" stroke-miterlimit="10"/><path fill="rgb(120,144,156)" stroke="none" paint-order="stroke fill markers" d=" M 595.86875 654.675 L 600.21875 663.375 L 604.56875 654.675 Z" fill-opacity="1"/><path fill="none" stroke="rgb(120,144,156)" paint-order="fill stroke markers" d=" M 1120.880255691032 436.90594499904086 L 1106.4266085585862 529.9927366226844" stroke-opacity="1" stroke-linejoin="round" stroke-miterlimit="10"/><path fill="rgb(120,144,156)" stroke="none" paint-order="stroke fill markers" d=" M 1103.1561113220594 522.7046403125447 L 1106.119744308968 531.9690550009591 L 1111.7530962675544 524.0394997983836 Z" fill-opacity="1"/><path fill="none" stroke="rgb(120,144,156)" paint-order="fill stroke markers" d=" M 864.9275916187044 346.901401141493 L 1103.9634307155982 413.1498415574209" stroke-opacity="1" stroke-linejoin="round" stroke-miterlimit="10"/><path fill="rgb(120,144,156)" stroke="none" paint-order="stroke fill markers" d=" M 1096.3450122555635 415.5523819145852 L 1105.8907789384666 413.68400335669696 L 1098.668616082414 407.1684171451074 Z" fill-opacity="1"/><path fill="none" stroke="rgb(120,144,156)" paint-order="fill stroke markers" d=" M 737.46875 596.7606007067138 L 625.3186886741346 666.3094903275244" stroke-opacity="1" stroke-linejoin="round" stroke-miterlimit="10"/><path fill="rgb(120,144,156)" stroke="none" paint-order="stroke fill markers" d=" M 628.7201112662981 659.0815705472888 L 623.6189908904239 667.3635431933944 L 633.3052412328329 666.4752559064304 Z" fill-opacity="1"/><path fill="none" stroke="rgb(120,144,156)" paint-order="fill stroke markers" d=" M 1064.5347711267605 269.875 L 1005.4467584777045 399.96023714985984" stroke-opacity="1" stroke-linejoin="round" stroke-miterlimit="10"/><path fill="rgb(120,144,156)" stroke="none" paint-order="stroke fill markers" d=" M 1004.2570481558757 392.0610543218621 L 1004.6196356993919 401.78118962304427 L 1012.178191414228 395.6590384075221 Z" fill-opacity="1"/><path fill="none" stroke="rgb(120,144,156)" paint-order="fill stroke markers" d=" M 981.5534405303774 428.85330552710303 L 624.6607372782822 665.6573487057144" stroke-opacity="1" stroke-linejoin="round" stroke-miterlimit="10"/><path fill="rgb(120,144,156)" stroke="none" paint-order="stroke fill markers" d=" M 627.8385450838807 658.328362585474 L 622.9942173356203 666.7631114654013 L 632.6486130885183 665.5777243360533 Z" fill-opacity="1"/><path fill="none" stroke="rgb(120,144,156)" paint-order="fill stroke markers" d=" M 745.9703525641025 429.625 L 753.6185735970272 443.4985172225144" stroke-opacity="1" stroke-linejoin="round" stroke-miterlimit="10"/><path fill="rgb(120,144,156)" stroke="none" paint-order="stroke fill markers" d=" M 746.5744691444987 439.7311451328652 L 754.5841346153846 445.25 L 754.1934192265609 435.53095470301037 Z" fill-opacity="1"/><path fill="none" stroke="rgb(120,144,156)" paint-order="fill stroke markers" d=" M 1085.3837354971715 554.9328383082317 L 632.4148517650475 673.450973373439" stroke-opacity="1" stroke-linejoin="round" stroke-miterlimit="10"/><path fill="rgb(120,144,156)" stroke="none" paint-order="stroke fill markers" d=" M 637.7955544962985 667.5466920354684 L 630.4799853323093 673.957226163518 L 639.9977541331426 675.9633610178796 Z" fill-opacity="1"/><path fill="none" stroke="rgb(120,144,156)" paint-order="fill stroke markers" d=" M 660.8779071517122 262.86291173702466 L 1092.266080995315 337.1461833783402" stroke-opacity="1" stroke-linejoin="round" stroke-miterlimit="10"/><path fill="rgb(120,144,156)" stroke="none" paint-order="stroke fill markers" d=" M 1084.9250695496755 340.296112100548 L 1094.237073093333 337.48558012191677 L 1086.4014453842335 331.7222964741694 Z" fill-opacity="1"/><path fill="none" stroke="rgb(120,144,156)" paint-order="fill stroke markers" d=" M 848.3813212250712 429.625 L 844.3001201171961 443.33314917573364" stroke-opacity="1" stroke-linejoin="round" stroke-miterlimit="10"/><path fill="rgb(120,144,156)" stroke="none" paint-order="stroke fill markers" d=" M 842.0427688687331 435.6704560890269 L 843.7294337606837 445.25 L 850.3810699542918 438.1529417398557 Z" fill-opacity="1"/><path fill="none" stroke="rgb(120,144,156)" paint-order="fill stroke markers" d=" M 625.8214921652421 429.625 L 604.4750713226036 530.1967277284043" stroke-opacity="1" stroke-linejoin="round" stroke-miterlimit="10"/><path fill="rgb(120,144,156)" stroke="none" paint-order="stroke fill markers" d=" M 601.6109551508965 522.7395608028913 L 604.0598204618618 532.1531445353893 L 610.121368261281 524.5459020471183 Z" fill-opacity="1"/><path fill="none" stroke="rgb(120,144,156)" paint-order="fill stroke markers" d=" M 950.4230769230769 351.625 L 985.2726023427786 401.7890227494667" stroke-opacity="1" stroke-linejoin="round" stroke-miterlimit="10"/><path fill="rgb(120,144,156)" stroke="none" paint-order="stroke fill markers" d=" M 977.8774467162808 398.76839810216626 L 986.4136899190928 403.4315571153724 L 985.0224712079705 393.8046671451991 Z" fill-opacity="1"/><path fill="none" stroke="rgb(120,144,156)" paint-order="fill stroke markers" d=" M 446.38132122507125 429.625 L 416.3182851542516 530.6022790512698" stroke-opacity="1" stroke-linejoin="round" stroke-miterlimit="10"/><path fill="rgb(120,144,156)" stroke="none" paint-order="stroke fill markers" d=" M 414.06093390578866 522.9395859645631 L 415.7475987977393 532.5191298755361 L 422.3992349913474 525.4220716153918 Z" fill-opacity="1"/><path fill="rgb(69,90,100)" stroke="rgb(244,67,54)" paint-order="fill stroke markers" d=" M 484.09375 248.875 L 484.09375 268.875 L 579.09375 268.875 L 579.09375 248.875 Z" fill-opacity="1" stroke-opacity="1" stroke-miterlimit="10" stroke-width="2"/><text fill="rgb(255,255,255)" stroke="none" font-family="times new roman" font-size="10px" font-style="normal" font-weight="normal" text-decoration="normal" x="531.59375" y="263.875" text-anchor="middle" dominant-baseline="text-after-edge" fill-opacity="1">42128945C&gt;T</text><path fill="rgb(69,90,100)" stroke="rgb(76,175,80)" paint-order="fill stroke markers" d=" M 729.84375 114.125 L 729.7898033403297 115.49803417523728 L 729.6282959604149 116.86260313820404 L 729.3602236069594 118.21029386747834 L 728.9872390351652 119.53279740156158 L 728.5116418189475 120.82196006638907 L 727.9363641732964 122.06983374544207 L 727.2649528761966 123.2687248825291 L 726.5015474015615 124.41124191511828 L 725.6508543980005 125.4903408457782 L 724.7181186707646 126.49936867076458 L 723.7090908457782 127.43210439800055 L 722.6299919151182 128.2827974015616 L 721.4874748825291 129.04620287619662 L 720.2885837454421 129.71761417329643 L 719.0407100663891 130.2928918189475 L 717.7515474015615 130.76848903516517 L 716.4290438674783 131.14147360695935 L 715.081353138204 131.4095459604149 L 713.7167841752373 131.57105334032974 L 712.34375 131.625 L 710.9707158247627 131.57105334032974 L 709.606146861796 131.4095459604149 L 708.2584561325217 131.14147360695935 L 706.9359525984385 130.7684890351652 L 705.6467899336109 130.2928918189475 L 704.3989162545579 129.71761417329643 L 703.2000251174709 129.04620287619662 L 702.0575080848818 128.2827974015616 L 700.9784091542218 127.43210439800055 L 699.9693813292354 126.49936867076458 L 699.0366456019995 125.49034084577822 L 698.1859525984385 124.41124191511828 L 697.4225471238034 123.26872488252911 L 696.7511358267036 122.06983374544207 L 696.1758581810525 120.82196006638907 L 695.7002609648348 119.53279740156158 L 695.3272763930406 118.21029386747834 L 695.0592040395851 116.86260313820404 L 694.8976966596703 115.4980341752373 L 694.84375 114.125 L 694.8976966596703 112.75196582476272 L 695.0592040395851 111.38739686179596 L 695.3272763930406 110.03970613252166 L 695.7002609648348 108.71720259843842 L 696.1758581810525 107.42803993361093 L 696.7511358267036 106.18016625455793 L 697.4225471238034 104.9812751174709 L 698.1859525984385 103.83875808488172 L 699.0366456019995 102.7596591542218 L 699.9693813292354 101.75063132923542 L 700.9784091542218 100.81789560199947 L 702.0575080848818 99.96720259843842 L 703.2000251174709 99.20379712380338 L 704.3989162545579 98.53238582670356 L 705.646789933611 97.95710818105248 L 706.9359525984385 97.4815109648348 L 708.2584561325217 97.10852639304065 L 709.606146861796 96.84045403958508 L 710.9707158247628 96.67894665967026 L 712.3437500000001 96.625 L 713.7167841752373 96.67894665967026 L 715.0813531382041 96.8404540395851 L 716.4290438674784 97.10852639304068 L 717.7515474015617 97.48151096483484 L 719.0407100663891 97.95710818105252 L 720.2885837454421 98.5323858267036 L 721.4874748825292 99.20379712380344 L 722.6299919151184 99.96720259843849 L 723.7090908457783 100.81789560199954 L 724.7181186707646 101.75063132923552 L 725.6508543980007 102.7596591542219 L 726.5015474015617 103.83875808488185 L 727.2649528761967 104.98127511747103 L 727.9363641732965 106.18016625455807 L 728.5116418189476 107.42803993361109 L 728.9872390351652 108.71720259843859 L 729.3602236069594 110.03970613252184 L 729.6282959604149 111.38739686179616 L 729.7898033403297 112.75196582476292 Z" fill-opacity="1" stroke-opacity="1" stroke-miterlimit="10" stroke-width="2"/><text fill="rgb(255,255,255)" stroke="none" font-family="times new roman" font-size="10px" font-style="normal" font-weight="normal" text-decoration="normal" x="712.34375" y="119.125" text-anchor="middle" dominant-baseline="text-after-edge" fill-opacity="1">*39.2</text><path fill="rgb(69,90,100)" stroke="rgb(244,67,54)" paint-order="fill stroke markers" d=" M 1120.78125 550.25 L 1120.7273033403299 551.6230341752373 L 1120.565795960415 552.987603138204 L 1120.2977236069594 554.3352938674783 L 1119.9247390351652 555.6577974015615 L 1119.4491418189475 556.9469600663891 L 1118.8738641732964 558.1948337454421 L 1118.2024528761965 559.3937248825291 L 1117.4390474015615 560.5362419151182 L 1116.5883543980005 561.6153408457782 L 1115.6556186707646 562.6243686707646 L 1114.6465908457783 563.5571043980005 L 1113.5674919151184 564.4077974015615 L 1112.424974882529 565.1712028761966 L 1111.226083745442 565.8426141732964 L 1109.978210066389 566.4178918189475 L 1108.6890474015615 566.8934890351652 L 1107.3665438674784 567.2664736069594 L 1106.0188531382041 567.5345459604149 L 1104.6542841752373 567.6960533403297 L 1103.28125 567.75 L 1101.9082158247627 567.6960533403297 L 1100.5436468617959 567.5345459604149 L 1099.1959561325216 567.2664736069594 L 1097.8734525984385 566.8934890351652 L 1096.584289933611 566.4178918189475 L 1095.336416254558 565.8426141732964 L 1094.137525117471 565.1712028761966 L 1092.9950080848816 564.4077974015615 L 1091.9159091542217 563.5571043980005 L 1090.9068813292354 562.6243686707646 L 1089.9741456019995 561.6153408457782 L 1089.1234525984385 560.5362419151182 L 1088.3600471238035 559.3937248825291 L 1087.6886358267036 558.1948337454421 L 1087.1133581810525 556.9469600663891 L 1086.6377609648348 555.6577974015615 L 1086.2647763930406 554.3352938674783 L 1085.996704039585 552.987603138204 L 1085.8351966596701 551.6230341752373 L 1085.78125 550.25 L 1085.8351966596701 548.8769658247627 L 1085.996704039585 547.512396861796 L 1086.2647763930406 546.1647061325217 L 1086.6377609648348 544.8422025984385 L 1087.1133581810525 543.5530399336109 L 1087.6886358267036 542.3051662545579 L 1088.3600471238035 541.1062751174709 L 1089.1234525984385 539.9637580848818 L 1089.9741456019995 538.8846591542218 L 1090.9068813292354 537.8756313292354 L 1091.9159091542217 536.9428956019995 L 1092.9950080848816 536.0922025984385 L 1094.137525117471 535.3287971238034 L 1095.336416254558 534.6573858267036 L 1096.584289933611 534.0821081810525 L 1097.8734525984385 533.6065109648348 L 1099.1959561325216 533.2335263930406 L 1100.543646861796 532.9654540395851 L 1101.9082158247627 532.8039466596703 L 1103.28125 532.75 L 1104.6542841752373 532.8039466596703 L 1106.0188531382041 532.9654540395851 L 1107.3665438674784 533.2335263930406 L 1108.6890474015618 533.6065109648348 L 1109.9782100663892 534.0821081810525 L 1111.226083745442 534.6573858267036 L 1112.424974882529 535.3287971238035 L 1113.5674919151184 536.0922025984385 L 1114.6465908457783 536.9428956019996 L 1115.6556186707646 537.8756313292355 L 1116.5883543980005 538.8846591542219 L 1117.4390474015618 539.9637580848819 L 1118.2024528761967 541.106275117471 L 1118.8738641732966 542.3051662545581 L 1119.4491418189475 543.5530399336111 L 1119.9247390351652 544.8422025984386 L 1120.2977236069594 546.1647061325218 L 1120.565795960415 547.5123968617961 L 1120.7273033403299 548.8769658247629 Z" fill-opacity="1" stroke-opacity="1" stroke-miterlimit="10" stroke-width="2"/><text fill="rgb(255,255,255)" stroke="none" font-family="times new roman" font-size="10px" font-style="normal" font-weight="normal" text-decoration="normal" x="1103.28125" y="555.25" text-anchor="middle" dominant-baseline="text-after-edge" fill-opacity="1">*4.11</text><path fill="rgb(69,90,100)" stroke="rgb(76,175,80)" paint-order="fill stroke markers" d=" M 895.28125 330.625 L 895.28125 350.625 L 990.28125 350.625 L 990.28125 330.625 Z" fill-opacity="1" stroke-opacity="1" stroke-miterlimit="10" stroke-width="2"/><text fill="rgb(255,255,255)" stroke="none" font-family="times new roman" font-size="10px" font-style="normal" font-weight="normal" text-decoration="normal" x="942.78125" y="345.625" text-anchor="middle" dominant-baseline="text-after-edge" fill-opacity="1">42129796G&gt;C</text><path fill="rgb(69,90,100)" stroke="rgb(76,175,80)" paint-order="fill stroke markers" d=" M 580.65625 408.625 L 580.65625 428.625 L 675.65625 428.625 L 675.65625 408.625 Z" fill-opacity="1" stroke-opacity="1" stroke-miterlimit="10" stroke-width="2"/><text fill="rgb(255,255,255)" stroke="none" font-family="times new roman" font-size="10px" font-style="normal" font-weight="normal" text-decoration="normal" x="628.15625" y="423.625" text-anchor="middle" dominant-baseline="text-after-edge" fill-opacity="1">42130047G&gt;C</text><path fill="rgb(69,90,100)" stroke="rgb(76,175,80)" paint-order="fill stroke markers" d=" M 739.90625 408.625 L 782.40625 408.625 L 782.40625 408.625 A 5 5 0 0 1 787.40625 413.625 L 787.40625 423.625 L 787.40625 423.625 A 5 5 0 0 1 782.40625 428.625 L 697.40625 428.625 L 697.40625 428.625 A 5 5 0 0 1 692.40625 423.625 L 692.40625 413.625 L 692.40625 413.625 A 5 5 0 0 1 697.40625 408.625 L 739.90625 408.625 Z" fill-opacity="1" stroke-opacity="1" stroke-miterlimit="10" stroke-width="2"/><text fill="rgb(255,255,255)" stroke="none" font-family="times new roman" font-size="10px" font-style="normal" font-weight="normal" text-decoration="normal" x="739.90625" y="423.625" text-anchor="middle" dominant-baseline="text-after-edge" fill-opacity="1">42132049dup</text><path fill="rgb(69,90,100)" stroke="rgb(255,193,7)" paint-order="fill stroke markers" d=" M 610.46875 174.625 L 610.46875 194.625 L 705.46875 194.625 L 705.46875 174.625 Z" fill-opacity="1" stroke-opacity="1" stroke-miterlimit="10" stroke-width="2"/><text fill="rgb(255,255,255)" stroke="none" font-family="times new roman" font-size="10px" font-style="normal" font-weight="normal" text-decoration="normal" x="657.96875" y="189.625" text-anchor="middle" dominant-baseline="text-after-edge" fill-opacity="1">42130692G&gt;A</text><path fill="rgb(69,90,100)" stroke="rgb(244,67,54)" paint-order="fill stroke markers" d=" M 266.15625 418.625 L 266.10230334032974 419.9980341752373 L 265.9407959604149 421.36260313820407 L 265.6727236069593 422.71029386747836 L 265.2997390351652 424.0327974015616 L 264.8241418189475 425.32196006638907 L 264.24886417329645 426.56983374544205 L 263.5774528761966 427.7687248825291 L 262.8140474015616 428.9112419151183 L 261.96335439800055 429.99034084577823 L 261.03061867076457 430.99936867076457 L 260.02159084577823 431.93210439800055 L 258.9424919151183 432.7827974015616 L 257.7999748825291 433.5462028761966 L 256.60108374544205 434.21761417329645 L 255.35321006638907 434.7928918189475 L 254.0640474015616 435.2684890351652 L 252.74154386747836 435.6414736069593 L 251.39385313820404 435.9095459604149 L 250.02928417523728 436.07105334032974 L 248.65625 436.125 L 247.28321582476272 436.07105334032974 L 245.91864686179596 435.9095459604149 L 244.57095613252164 435.6414736069593 L 243.24845259843843 435.2684890351652 L 241.95928993361093 434.7928918189475 L 240.71141625455795 434.21761417329645 L 239.5125251174709 433.5462028761966 L 238.37000808488173 432.7827974015616 L 237.2909091542218 431.93210439800055 L 236.28188132923543 430.99936867076457 L 235.34914560199945 429.99034084577823 L 234.49845259843843 428.9112419151183 L 233.73504712380338 427.7687248825291 L 233.06363582670357 426.56983374544205 L 232.4883581810525 425.32196006638907 L 232.01276096483483 424.0327974015616 L 231.63977639304065 422.71029386747836 L 231.3717040395851 421.36260313820407 L 231.21019665967026 419.9980341752373 L 231.15625 418.625 L 231.21019665967026 417.2519658247627 L 231.3717040395851 415.88739686179593 L 231.63977639304065 414.53970613252164 L 232.0127609648348 413.2172025984384 L 232.4883581810525 411.92803993361093 L 233.06363582670357 410.68016625455795 L 233.73504712380338 409.4812751174709 L 234.4984525984384 408.3387580848817 L 235.34914560199945 407.25965915422177 L 236.2818813292354 406.25063132923543 L 237.29090915422177 405.31789560199945 L 238.3700080848817 404.4672025984384 L 239.5125251174709 403.7037971238034 L 240.71141625455795 403.03238582670355 L 241.95928993361096 402.4571081810525 L 243.24845259843843 401.9815109648348 L 244.5709561325217 401.6085263930407 L 245.918646861796 401.3404540395851 L 247.28321582476278 401.17894665967026 L 248.65625000000006 401.125 L 250.02928417523736 401.17894665967026 L 251.39385313820412 401.3404540395851 L 252.7415438674784 401.6085263930407 L 254.06404740156165 401.98151096483485 L 255.35321006638915 402.4571081810525 L 256.60108374544217 403.0323858267036 L 257.7999748825292 403.70379712380344 L 258.94249191511835 404.4672025984385 L 260.0215908457783 405.31789560199957 L 261.0306186707647 406.2506313292355 L 261.96335439800066 407.2596591542219 L 262.81404740156165 408.3387580848818 L 263.5774528761967 409.48127511747106 L 264.2488641732965 410.68016625455806 L 264.82414181894757 411.9280399336111 L 265.29973903516526 413.2172025984386 L 265.6727236069594 414.5397061325218 L 265.94079596041496 415.88739686179616 L 266.10230334032974 417.2519658247629 Z" fill-opacity="1" stroke-opacity="1" stroke-miterlimit="10" stroke-width="2"/><text fill="rgb(255,255,255)" stroke="none" font-family="times new roman" font-size="10px" font-style="normal" font-weight="normal" text-decoration="normal" x="248.65625" y="423.625" text-anchor="middle" dominant-baseline="text-after-edge" fill-opacity="1">*4.2</text><path fill="rgb(69,90,100)" stroke="rgb(244,67,54)" paint-order="fill stroke markers" d=" M 1014.46875 418.625 L 1014.4148033403297 419.9980341752373 L 1014.2532959604149 421.36260313820407 L 1013.9852236069594 422.71029386747836 L 1013.6122390351652 424.0327974015616 L 1013.1366418189475 425.32196006638907 L 1012.5613641732964 426.56983374544205 L 1011.8899528761966 427.7687248825291 L 1011.1265474015615 428.9112419151183 L 1010.2758543980005 429.99034084577823 L 1009.3431186707646 430.99936867076457 L 1008.3340908457782 431.93210439800055 L 1007.2549919151182 432.7827974015616 L 1006.1124748825291 433.5462028761966 L 1004.9135837454421 434.21761417329645 L 1003.6657100663891 434.7928918189475 L 1002.3765474015615 435.2684890351652 L 1001.0540438674783 435.6414736069593 L 999.706353138204 435.9095459604149 L 998.3417841752373 436.07105334032974 L 996.96875 436.125 L 995.5957158247627 436.07105334032974 L 994.231146861796 435.9095459604149 L 992.8834561325217 435.6414736069593 L 991.5609525984385 435.2684890351652 L 990.2717899336109 434.7928918189475 L 989.0239162545579 434.21761417329645 L 987.8250251174709 433.5462028761966 L 986.6825080848818 432.7827974015616 L 985.6034091542218 431.93210439800055 L 984.5943813292354 430.99936867076457 L 983.6616456019995 429.99034084577823 L 982.8109525984385 428.9112419151183 L 982.0475471238034 427.7687248825291 L 981.3761358267036 426.56983374544205 L 980.8008581810525 425.32196006638907 L 980.3252609648348 424.0327974015616 L 979.9522763930406 422.71029386747836 L 979.6842040395851 421.36260313820407 L 979.5226966596703 419.9980341752373 L 979.46875 418.625 L 979.5226966596703 417.2519658247627 L 979.6842040395851 415.88739686179593 L 979.9522763930406 414.53970613252164 L 980.3252609648348 413.2172025984384 L 980.8008581810525 411.92803993361093 L 981.3761358267036 410.68016625455795 L 982.0475471238034 409.4812751174709 L 982.8109525984385 408.3387580848817 L 983.6616456019995 407.25965915422177 L 984.5943813292354 406.25063132923543 L 985.6034091542218 405.31789560199945 L 986.6825080848818 404.4672025984384 L 987.8250251174709 403.7037971238034 L 989.0239162545579 403.03238582670355 L 990.271789933611 402.4571081810525 L 991.5609525984385 401.9815109648348 L 992.8834561325217 401.6085263930407 L 994.231146861796 401.3404540395851 L 995.5957158247628 401.17894665967026 L 996.9687500000001 401.125 L 998.3417841752373 401.17894665967026 L 999.7063531382041 401.3404540395851 L 1001.0540438674784 401.6085263930407 L 1002.3765474015617 401.98151096483485 L 1003.6657100663891 402.4571081810525 L 1004.9135837454421 403.0323858267036 L 1006.1124748825292 403.70379712380344 L 1007.2549919151184 404.4672025984385 L 1008.3340908457783 405.31789560199957 L 1009.3431186707646 406.2506313292355 L 1010.2758543980007 407.2596591542219 L 1011.1265474015617 408.3387580848818 L 1011.8899528761967 409.48127511747106 L 1012.5613641732965 410.68016625455806 L 1013.1366418189476 411.9280399336111 L 1013.6122390351652 413.2172025984386 L 1013.9852236069594 414.5397061325218 L 1014.2532959604149 415.88739686179616 L 1014.4148033403297 417.2519658247629 Z" fill-opacity="1" stroke-opacity="1" stroke-miterlimit="10" stroke-width="2"/><text fill="rgb(255,255,255)" stroke="none" font-family="times new roman" font-size="10px" font-style="normal" font-weight="normal" text-decoration="normal" x="996.96875" y="423.625" text-anchor="middle" dominant-baseline="text-after-edge" fill-opacity="1">*4.9</text><path fill="rgb(69,90,100)" stroke="rgb(76,175,80)" paint-order="fill stroke markers" d=" M 617.71875 550.25 L 617.6648033403297 551.6230341752373 L 617.5032959604149 552.987603138204 L 617.2352236069594 554.3352938674783 L 616.8622390351652 555.6577974015615 L 616.3866418189475 556.9469600663891 L 615.8113641732964 558.1948337454421 L 615.1399528761966 559.3937248825291 L 614.3765474015615 560.5362419151182 L 613.5258543980005 561.6153408457782 L 612.5931186707646 562.6243686707646 L 611.5840908457782 563.5571043980005 L 610.5049919151182 564.4077974015615 L 609.3624748825291 565.1712028761966 L 608.1635837454421 565.8426141732964 L 606.9157100663891 566.4178918189475 L 605.6265474015615 566.8934890351652 L 604.3040438674783 567.2664736069594 L 602.956353138204 567.5345459604149 L 601.5917841752373 567.6960533403297 L 600.21875 567.75 L 598.8457158247627 567.6960533403297 L 597.481146861796 567.5345459604149 L 596.1334561325217 567.2664736069594 L 594.8109525984385 566.8934890351652 L 593.5217899336109 566.4178918189475 L 592.2739162545579 565.8426141732964 L 591.0750251174709 565.1712028761966 L 589.9325080848818 564.4077974015615 L 588.8534091542218 563.5571043980005 L 587.8443813292354 562.6243686707646 L 586.9116456019995 561.6153408457782 L 586.0609525984385 560.5362419151182 L 585.2975471238034 559.3937248825291 L 584.6261358267036 558.1948337454421 L 584.0508581810525 556.9469600663891 L 583.5752609648348 555.6577974015615 L 583.2022763930406 554.3352938674783 L 582.9342040395851 552.987603138204 L 582.7726966596703 551.6230341752373 L 582.71875 550.25 L 582.7726966596703 548.8769658247627 L 582.9342040395851 547.512396861796 L 583.2022763930406 546.1647061325217 L 583.5752609648348 544.8422025984385 L 584.0508581810525 543.5530399336109 L 584.6261358267036 542.3051662545579 L 585.2975471238034 541.1062751174709 L 586.0609525984385 539.9637580848818 L 586.9116456019995 538.8846591542218 L 587.8443813292354 537.8756313292354 L 588.8534091542218 536.9428956019995 L 589.9325080848818 536.0922025984385 L 591.0750251174709 535.3287971238034 L 592.2739162545579 534.6573858267036 L 593.521789933611 534.0821081810525 L 594.8109525984385 533.6065109648348 L 596.1334561325217 533.2335263930406 L 597.481146861796 532.9654540395851 L 598.8457158247628 532.8039466596703 L 600.2187500000001 532.75 L 601.5917841752373 532.8039466596703 L 602.9563531382041 532.9654540395851 L 604.3040438674784 533.2335263930406 L 605.6265474015617 533.6065109648348 L 606.9157100663891 534.0821081810525 L 608.1635837454421 534.6573858267036 L 609.3624748825292 535.3287971238035 L 610.5049919151184 536.0922025984385 L 611.5840908457783 536.9428956019996 L 612.5931186707646 537.8756313292355 L 613.5258543980007 538.8846591542219 L 614.3765474015617 539.9637580848819 L 615.1399528761967 541.106275117471 L 615.8113641732965 542.3051662545581 L 616.3866418189476 543.5530399336111 L 616.8622390351652 544.8422025984386 L 617.2352236069594 546.1647061325218 L 617.5032959604149 547.5123968617961 L 617.6648033403297 548.8769658247629 Z" fill-opacity="1" stroke-opacity="1" stroke-miterlimit="10" stroke-width="2"/><text fill="rgb(255,255,255)" stroke="none" font-family="times new roman" font-size="10px" font-style="normal" font-weight="normal" text-decoration="normal" x="600.21875" y="555.25" text-anchor="middle" dominant-baseline="text-after-edge" fill-opacity="1">*1.54</text><path fill="rgb(69,90,100)" stroke="rgb(244,67,54)" paint-order="fill stroke markers" d=" M 864.78125 340.625 L 864.7118900089954 342.3903296538765 L 864.5042376633907 344.1447754634052 L 864.1595732089477 345.87752068675786 L 863.6800216166409 347.5778823734363 L 863.068539481504 349.23537722821453 L 862.3288967942383 350.8397862441398 L 861.4656536979671 352.3812177061088 L 860.4841323734363 353.85016817658067 L 859.3903842260007 355.23758108742913 L 858.1911525766973 356.53490257669733 L 856.8938310874291 357.7341342260007 L 855.5064181765806 358.8278823734363 L 854.0374677061088 359.80940369796707 L 852.4960362441398 360.6726467942383 L 850.8916272282145 361.41228948150393 L 849.2341323734363 362.02377161664094 L 847.5337706867579 362.50332320894773 L 845.8010254634052 362.8479876633906 L 844.0465796538765 363.0556400089954 L 842.28125 363.125 L 840.5159203461235 363.0556400089954 L 838.7614745365948 362.8479876633906 L 837.0287293132421 362.50332320894773 L 835.3283676265637 362.02377161664094 L 833.6708727717855 361.41228948150393 L 832.0664637558602 360.6726467942383 L 830.5250322938912 359.80940369796707 L 829.0560818234194 358.8278823734363 L 827.6686689125709 357.7341342260007 L 826.3713474233027 356.53490257669733 L 825.1721157739993 355.23758108742913 L 824.0783676265637 353.85016817658067 L 823.0968463020329 352.3812177061088 L 822.2336032057617 350.8397862441398 L 821.493960518496 349.23537722821453 L 820.8824783833591 347.5778823734363 L 820.4029267910523 345.87752068675786 L 820.0582623366095 344.1447754634052 L 819.8506099910046 342.3903296538765 L 819.78125 340.625 L 819.8506099910046 338.8596703461235 L 820.0582623366093 337.1052245365948 L 820.4029267910523 335.37247931324214 L 820.8824783833591 333.6721176265637 L 821.493960518496 332.01462277178547 L 822.2336032057617 330.4102137558602 L 823.0968463020329 328.8687822938912 L 824.0783676265637 327.39983182341933 L 825.1721157739993 326.01241891257087 L 826.3713474233027 324.71509742330267 L 827.6686689125709 323.51586577399934 L 829.0560818234194 322.4221176265637 L 830.5250322938912 321.44059630203293 L 832.0664637558602 320.5773532057617 L 833.6708727717855 319.837710518496 L 835.3283676265637 319.22622838335906 L 837.0287293132421 318.74667679105227 L 838.7614745365948 318.4020123366094 L 840.5159203461236 318.1943599910046 L 842.2812500000001 318.125 L 844.0465796538766 318.1943599910046 L 845.8010254634053 318.4020123366094 L 847.533770686758 318.7466767910523 L 849.2341323734364 319.22622838335906 L 850.8916272282146 319.8377105184961 L 852.4960362441399 320.57735320576177 L 854.0374677061089 321.440596302033 L 855.5064181765807 322.42211762656376 L 856.8938310874292 323.5158657739994 L 858.1911525766974 324.7150974233028 L 859.3903842260008 326.012418912571 L 860.4841323734364 327.3998318234195 L 861.4656536979671 328.86878229389134 L 862.3288967942384 330.4102137558604 L 863.068539481504 332.0146227717857 L 863.680021616641 333.67211762656393 L 864.1595732089478 335.37247931324237 L 864.5042376633907 337.1052245365951 L 864.7118900089954 338.8596703461238 Z" fill-opacity="1" stroke-opacity="1" stroke-miterlimit="10" stroke-width="2"/><text fill="rgb(255,255,255)" stroke="none" font-family="times new roman" font-size="15px" font-style="normal" font-weight="normal" text-decoration="normal" x="842.28125" y="348.125" text-anchor="middle" dominant-baseline="text-after-edge" fill-opacity="1">*4</text><path fill="rgb(3,169,244)" stroke="none" paint-order="stroke fill markers" d=" M 842.28125 308.125 L 866.78125 308.125 L 866.78125 308.125 A 8 8 0 0 1 874.78125 316.125 L 874.78125 365.125 L 874.78125 365.125 A 8 8 0 0 1 866.78125 373.125 L 817.78125 373.125 L 817.78125 373.125 A 8 8 0 0 1 809.78125 365.125 L 809.78125 316.125 L 809.78125 316.125 A 8 8 0 0 1 817.78125 308.125 L 842.28125 308.125 Z" fill-opacity="0.15"/><path fill="rgb(69,90,100)" stroke="rgb(189,189,189)" paint-order="fill stroke markers" d=" M 851.65625 408.625 L 894.15625 408.625 L 894.15625 408.625 A 5 5 0 0 1 899.15625 413.625 L 899.15625 423.625 L 899.15625 423.625 A 5 5 0 0 1 894.15625 428.625 L 809.15625 428.625 L 809.15625 428.625 A 5 5 0 0 1 804.15625 423.625 L 804.15625 413.625 L 804.15625 413.625 A 5 5 0 0 1 809.15625 408.625 L 851.65625 408.625 Z" fill-opacity="1" stroke-opacity="1" stroke-miterlimit="10" stroke-width="2"/><text fill="rgb(255,255,255)" stroke="none" font-family="times new roman" font-size="10px" font-style="normal" font-weight="normal" text-decoration="normal" x="851.65625" y="423.625" text-anchor="middle" dominant-baseline="text-after-edge" fill-opacity="1">42125648_4212565…</text><path fill="rgb(69,90,100)" stroke="rgb(189,189,189)" paint-order="fill stroke markers" d=" M 421.71875 340.625 L 421.6493900089954 342.3903296538765 L 421.4417376633906 344.1447754634052 L 421.09707320894773 345.87752068675786 L 420.61752161664094 347.5778823734363 L 420.00603948150393 349.23537722821453 L 419.2663967942383 350.8397862441398 L 418.40315369796707 352.3812177061088 L 417.4216323734363 353.85016817658067 L 416.3278842260007 355.23758108742913 L 415.12865257669733 356.53490257669733 L 413.83133108742913 357.7341342260007 L 412.44391817658067 358.8278823734363 L 410.9749677061088 359.80940369796707 L 409.4335362441398 360.6726467942383 L 407.82912722821453 361.41228948150393 L 406.1716323734363 362.02377161664094 L 404.47127068675786 362.50332320894773 L 402.7385254634052 362.8479876633906 L 400.9840796538765 363.0556400089954 L 399.21875 363.125 L 397.4534203461235 363.0556400089954 L 395.6989745365948 362.8479876633906 L 393.96622931324214 362.50332320894773 L 392.2658676265637 362.02377161664094 L 390.60837277178547 361.41228948150393 L 389.0039637558602 360.6726467942383 L 387.4625322938912 359.80940369796707 L 385.99358182341933 358.8278823734363 L 384.60616891257087 357.7341342260007 L 383.30884742330267 356.53490257669733 L 382.1096157739993 355.23758108742913 L 381.0158676265637 353.85016817658067 L 380.03434630203293 352.3812177061088 L 379.1711032057617 350.8397862441398 L 378.43146051849607 349.23537722821453 L 377.81997838335906 347.5778823734363 L 377.34042679105227 345.87752068675786 L 376.9957623366094 344.1447754634052 L 376.7881099910046 342.3903296538765 L 376.71875 340.625 L 376.7881099910046 338.8596703461235 L 376.9957623366094 337.1052245365948 L 377.34042679105227 335.37247931324214 L 377.81997838335906 333.6721176265637 L 378.43146051849607 332.01462277178547 L 379.1711032057617 330.4102137558602 L 380.03434630203293 328.8687822938912 L 381.0158676265637 327.39983182341933 L 382.1096157739993 326.01241891257087 L 383.30884742330267 324.71509742330267 L 384.60616891257087 323.51586577399934 L 385.99358182341933 322.4221176265637 L 387.4625322938912 321.44059630203293 L 389.00396375586024 320.5773532057617 L 390.6083727717855 319.837710518496 L 392.2658676265637 319.22622838335906 L 393.9662293132422 318.74667679105227 L 395.69897453659485 318.4020123366094 L 397.45342034612355 318.1943599910046 L 399.21875000000006 318.125 L 400.9840796538766 318.1943599910046 L 402.73852546340527 318.4020123366094 L 404.471270686758 318.7466767910523 L 406.1716323734364 319.22622838335906 L 407.82912722821465 319.8377105184961 L 409.43353624413993 320.57735320576177 L 410.974967706109 321.440596302033 L 412.4439181765808 322.42211762656376 L 413.83133108742925 323.5158657739994 L 415.12865257669745 324.7150974233028 L 416.32788422600083 326.012418912571 L 417.4216323734364 327.3998318234195 L 418.4031536979672 328.86878229389134 L 419.2663967942384 330.4102137558604 L 420.00603948150405 332.0146227717857 L 420.61752161664106 333.67211762656393 L 421.0970732089478 335.37247931324237 L 421.44173766339065 337.1052245365951 L 421.6493900089954 338.8596703461238 Z" fill-opacity="1" stroke-opacity="1" stroke-miterlimit="10" stroke-width="2"/><text fill="rgb(255,255,255)" stroke="none" font-family="times new roman" font-size="15px" font-style="normal" font-weight="normal" text-decoration="normal" x="399.21875" y="348.125" text-anchor="middle" dominant-baseline="text-after-edge" fill-opacity="1">*74</text><path fill="rgb(69,90,100)" stroke="rgb(76,175,80)" paint-order="fill stroke markers" d=" M 1022.03125 248.875 L 1022.03125 268.875 L 1117.03125 268.875 L 1117.03125 248.875 Z" fill-opacity="1" stroke-opacity="1" stroke-miterlimit="10" stroke-width="2"/><text fill="rgb(255,255,255)" stroke="none" font-family="times new roman" font-size="10px" font-style="normal" font-weight="normal" text-decoration="normal" x="1069.53125" y="263.875" text-anchor="middle" dominant-baseline="text-after-edge" fill-opacity="1">42129130C&gt;G</text><path fill="rgb(69,90,100)" stroke="rgb(244,67,54)" paint-order="fill stroke markers" d=" M 1141.21875 418.625 L 1141.1648033403299 419.9980341752373 L 1141.003295960415 421.36260313820407 L 1140.7352236069594 422.71029386747836 L 1140.3622390351652 424.0327974015616 L 1139.8866418189475 425.32196006638907 L 1139.3113641732964 426.56983374544205 L 1138.6399528761965 427.7687248825291 L 1137.8765474015615 428.9112419151183 L 1137.0258543980005 429.99034084577823 L 1136.0931186707646 430.99936867076457 L 1135.0840908457783 431.93210439800055 L 1134.0049919151184 432.7827974015616 L 1132.862474882529 433.5462028761966 L 1131.663583745442 434.21761417329645 L 1130.415710066389 434.7928918189475 L 1129.1265474015615 435.2684890351652 L 1127.8040438674784 435.6414736069593 L 1126.4563531382041 435.9095459604149 L 1125.0917841752373 436.07105334032974 L 1123.71875 436.125 L 1122.3457158247627 436.07105334032974 L 1120.9811468617959 435.9095459604149 L 1119.6334561325216 435.6414736069593 L 1118.3109525984385 435.2684890351652 L 1117.021789933611 434.7928918189475 L 1115.773916254558 434.21761417329645 L 1114.575025117471 433.5462028761966 L 1113.4325080848816 432.7827974015616 L 1112.3534091542217 431.93210439800055 L 1111.3443813292354 430.99936867076457 L 1110.4116456019995 429.99034084577823 L 1109.5609525984385 428.9112419151183 L 1108.7975471238035 427.7687248825291 L 1108.1261358267036 426.56983374544205 L 1107.5508581810525 425.32196006638907 L 1107.0752609648348 424.0327974015616 L 1106.7022763930406 422.71029386747836 L 1106.434204039585 421.36260313820407 L 1106.2726966596701 419.9980341752373 L 1106.21875 418.625 L 1106.2726966596701 417.2519658247627 L 1106.434204039585 415.88739686179593 L 1106.7022763930406 414.53970613252164 L 1107.0752609648348 413.2172025984384 L 1107.5508581810525 411.92803993361093 L 1108.1261358267036 410.68016625455795 L 1108.7975471238035 409.4812751174709 L 1109.5609525984385 408.3387580848817 L 1110.4116456019995 407.25965915422177 L 1111.3443813292354 406.25063132923543 L 1112.3534091542217 405.31789560199945 L 1113.4325080848816 404.4672025984384 L 1114.575025117471 403.7037971238034 L 1115.773916254558 403.03238582670355 L 1117.021789933611 402.4571081810525 L 1118.3109525984385 401.9815109648348 L 1119.6334561325216 401.6085263930407 L 1120.981146861796 401.3404540395851 L 1122.3457158247627 401.17894665967026 L 1123.71875 401.125 L 1125.0917841752373 401.17894665967026 L 1126.4563531382041 401.3404540395851 L 1127.8040438674784 401.6085263930407 L 1129.1265474015618 401.98151096483485 L 1130.4157100663892 402.4571081810525 L 1131.663583745442 403.0323858267036 L 1132.862474882529 403.70379712380344 L 1134.0049919151184 404.4672025984385 L 1135.0840908457783 405.31789560199957 L 1136.0931186707646 406.2506313292355 L 1137.0258543980005 407.2596591542219 L 1137.8765474015618 408.3387580848818 L 1138.6399528761967 409.48127511747106 L 1139.3113641732966 410.68016625455806 L 1139.8866418189475 411.9280399336111 L 1140.3622390351652 413.2172025984386 L 1140.7352236069594 414.5397061325218 L 1141.003295960415 415.88739686179616 L 1141.1648033403299 417.2519658247629 Z" fill-opacity="1" stroke-opacity="1" stroke-miterlimit="10" stroke-width="2"/><text fill="rgb(255,255,255)" stroke="none" font-family="times new roman" font-size="10px" font-style="normal" font-weight="normal" text-decoration="normal" x="1123.71875" y="423.625" text-anchor="middle" dominant-baseline="text-after-edge" fill-opacity="1">*4.5</text><path fill="rgb(69,90,100)" stroke="rgb(76,175,80)" paint-order="fill stroke markers" d=" M 444.71875 330.625 L 444.71875 350.625 L 539.71875 350.625 L 539.71875 330.625 Z" fill-opacity="1" stroke-opacity="1" stroke-miterlimit="10" stroke-width="2"/><text fill="rgb(255,255,255)" stroke="none" font-family="times new roman" font-size="10px" font-style="normal" font-weight="normal" text-decoration="normal" x="492.21875" y="345.625" text-anchor="middle" dominant-baseline="text-after-edge" fill-opacity="1">42127407T&gt;G</text><path fill="rgb(69,90,100)" stroke="rgb(255,193,7)" paint-order="fill stroke markers" d=" M 1129.96875 340.625 L 1129.9148033403299 341.9980341752373 L 1129.753295960415 343.36260313820407 L 1129.4852236069594 344.71029386747836 L 1129.1122390351652 346.0327974015616 L 1128.6366418189475 347.32196006638907 L 1128.0613641732964 348.56983374544205 L 1127.3899528761965 349.7687248825291 L 1126.6265474015615 350.9112419151183 L 1125.7758543980005 351.99034084577823 L 1124.8431186707646 352.99936867076457 L 1123.8340908457783 353.93210439800055 L 1122.7549919151184 354.7827974015616 L 1121.612474882529 355.5462028761966 L 1120.413583745442 356.21761417329645 L 1119.165710066389 356.7928918189475 L 1117.8765474015615 357.2684890351652 L 1116.5540438674784 357.6414736069593 L 1115.2063531382041 357.9095459604149 L 1113.8417841752373 358.07105334032974 L 1112.46875 358.125 L 1111.0957158247627 358.07105334032974 L 1109.7311468617959 357.9095459604149 L 1108.3834561325216 357.6414736069593 L 1107.0609525984385 357.2684890351652 L 1105.771789933611 356.7928918189475 L 1104.523916254558 356.21761417329645 L 1103.325025117471 355.5462028761966 L 1102.1825080848816 354.7827974015616 L 1101.1034091542217 353.93210439800055 L 1100.0943813292354 352.99936867076457 L 1099.1616456019995 351.99034084577823 L 1098.3109525984385 350.9112419151183 L 1097.5475471238035 349.7687248825291 L 1096.8761358267036 348.56983374544205 L 1096.3008581810525 347.32196006638907 L 1095.8252609648348 346.0327974015616 L 1095.4522763930406 344.71029386747836 L 1095.184204039585 343.36260313820407 L 1095.0226966596701 341.9980341752373 L 1094.96875 340.625 L 1095.0226966596701 339.2519658247627 L 1095.184204039585 337.88739686179593 L 1095.4522763930406 336.53970613252164 L 1095.8252609648348 335.2172025984384 L 1096.3008581810525 333.92803993361093 L 1096.8761358267036 332.68016625455795 L 1097.5475471238035 331.4812751174709 L 1098.3109525984385 330.3387580848817 L 1099.1616456019995 329.25965915422177 L 1100.0943813292354 328.25063132923543 L 1101.1034091542217 327.31789560199945 L 1102.1825080848816 326.4672025984384 L 1103.325025117471 325.7037971238034 L 1104.523916254558 325.03238582670355 L 1105.771789933611 324.4571081810525 L 1107.0609525984385 323.9815109648348 L 1108.3834561325216 323.6085263930407 L 1109.731146861796 323.3404540395851 L 1111.0957158247627 323.17894665967026 L 1112.46875 323.125 L 1113.8417841752373 323.17894665967026 L 1115.2063531382041 323.3404540395851 L 1116.5540438674784 323.6085263930407 L 1117.8765474015618 323.98151096483485 L 1119.1657100663892 324.4571081810525 L 1120.413583745442 325.0323858267036 L 1121.612474882529 325.70379712380344 L 1122.7549919151184 326.4672025984385 L 1123.8340908457783 327.31789560199957 L 1124.8431186707646 328.2506313292355 L 1125.7758543980005 329.2596591542219 L 1126.6265474015618 330.3387580848818 L 1127.3899528761967 331.48127511747106 L 1128.0613641732966 332.68016625455806 L 1128.6366418189475 333.9280399336111 L 1129.1122390351652 335.2172025984386 L 1129.4852236069594 336.5397061325218 L 1129.753295960415 337.88739686179616 L 1129.9148033403299 339.2519658247629 Z" fill-opacity="1" stroke-opacity="1" stroke-miterlimit="10" stroke-width="2"/><text fill="rgb(255,255,255)" stroke="none" font-family="times new roman" font-size="10px" font-style="normal" font-weight="normal" text-decoration="normal" x="1112.46875" y="345.625" text-anchor="middle" dominant-baseline="text-after-edge" fill-opacity="1">*10.1</text><path fill="rgb(69,90,100)" stroke="rgb(255,193,7)" paint-order="fill stroke markers" d=" M 214.09375 248.875 L 214.09375 268.875 L 309.09375 268.875 L 309.09375 248.875 Z" fill-opacity="1" stroke-opacity="1" stroke-miterlimit="10" stroke-width="2"/><text fill="rgb(255,255,255)" stroke="none" font-family="times new roman" font-size="10px" font-style="normal" font-weight="normal" text-decoration="normal" x="261.59375" y="263.875" text-anchor="middle" dominant-baseline="text-after-edge" fill-opacity="1">42129819G&gt;T</text><path fill="rgb(69,90,100)" stroke="rgb(76,175,80)" paint-order="fill stroke markers" d=" M 556.40625 418.625 L 556.3523033403297 419.9980341752373 L 556.1907959604149 421.36260313820407 L 555.9227236069594 422.71029386747836 L 555.5497390351652 424.0327974015616 L 555.0741418189475 425.32196006638907 L 554.4988641732964 426.56983374544205 L 553.8274528761966 427.7687248825291 L 553.0640474015615 428.9112419151183 L 552.2133543980005 429.99034084577823 L 551.2806186707646 430.99936867076457 L 550.2715908457782 431.93210439800055 L 549.1924919151182 432.7827974015616 L 548.0499748825291 433.5462028761966 L 546.8510837454421 434.21761417329645 L 545.6032100663891 434.7928918189475 L 544.3140474015615 435.2684890351652 L 542.9915438674783 435.6414736069593 L 541.643853138204 435.9095459604149 L 540.2792841752373 436.07105334032974 L 538.90625 436.125 L 537.5332158247627 436.07105334032974 L 536.168646861796 435.9095459604149 L 534.8209561325217 435.6414736069593 L 533.4984525984385 435.2684890351652 L 532.2092899336109 434.7928918189475 L 530.9614162545579 434.21761417329645 L 529.7625251174709 433.5462028761966 L 528.6200080848818 432.7827974015616 L 527.5409091542218 431.93210439800055 L 526.5318813292354 430.99936867076457 L 525.5991456019995 429.99034084577823 L 524.7484525984385 428.9112419151183 L 523.9850471238034 427.7687248825291 L 523.3136358267036 426.56983374544205 L 522.7383581810525 425.32196006638907 L 522.2627609648348 424.0327974015616 L 521.8897763930406 422.71029386747836 L 521.6217040395851 421.36260313820407 L 521.4601966596703 419.9980341752373 L 521.40625 418.625 L 521.4601966596703 417.2519658247627 L 521.6217040395851 415.88739686179593 L 521.8897763930406 414.53970613252164 L 522.2627609648348 413.2172025984384 L 522.7383581810525 411.92803993361093 L 523.3136358267036 410.68016625455795 L 523.9850471238034 409.4812751174709 L 524.7484525984385 408.3387580848817 L 525.5991456019995 407.25965915422177 L 526.5318813292354 406.25063132923543 L 527.5409091542218 405.31789560199945 L 528.6200080848818 404.4672025984384 L 529.7625251174709 403.7037971238034 L 530.9614162545579 403.03238582670355 L 532.209289933611 402.4571081810525 L 533.4984525984385 401.9815109648348 L 534.8209561325217 401.6085263930407 L 536.168646861796 401.3404540395851 L 537.5332158247628 401.17894665967026 L 538.9062500000001 401.125 L 540.2792841752373 401.17894665967026 L 541.6438531382041 401.3404540395851 L 542.9915438674784 401.6085263930407 L 544.3140474015617 401.98151096483485 L 545.6032100663891 402.4571081810525 L 546.8510837454421 403.0323858267036 L 548.0499748825292 403.70379712380344 L 549.1924919151184 404.4672025984385 L 550.2715908457783 405.31789560199957 L 551.2806186707646 406.2506313292355 L 552.2133543980007 407.2596591542219 L 553.0640474015617 408.3387580848818 L 553.8274528761967 409.48127511747106 L 554.4988641732965 410.68016625455806 L 555.0741418189476 411.9280399336111 L 555.5497390351652 413.2172025984386 L 555.9227236069594 414.5397061325218 L 556.1907959604149 415.88739686179616 L 556.3523033403297 417.2519658247629 Z" fill-opacity="1" stroke-opacity="1" stroke-miterlimit="10" stroke-width="2"/><text fill="rgb(255,255,255)" stroke="none" font-family="times new roman" font-size="10px" font-style="normal" font-weight="normal" text-decoration="normal" x="538.90625" y="423.625" text-anchor="middle" dominant-baseline="text-after-edge" fill-opacity="1">*1.41</text><path fill="rgb(69,90,100)" stroke="rgb(76,175,80)" paint-order="fill stroke markers" d=" M 290.40625 408.625 L 290.40625 428.625 L 385.40625 428.625 L 385.40625 408.625 Z" fill-opacity="1" stroke-opacity="1" stroke-miterlimit="10" stroke-width="2"/><text fill="rgb(255,255,255)" stroke="none" font-family="times new roman" font-size="10px" font-style="normal" font-weight="normal" text-decoration="normal" x="337.90625" y="423.625" text-anchor="middle" dominant-baseline="text-after-edge" fill-opacity="1">42129950A&gt;C</text><path fill="rgb(69,90,100)" stroke="rgb(76,175,80)" paint-order="fill stroke markers" d=" M 402.15625 408.625 L 402.15625 428.625 L 497.15625 428.625 L 497.15625 408.625 Z" fill-opacity="1" stroke-opacity="1" stroke-miterlimit="10" stroke-width="2"/><text fill="rgb(255,255,255)" stroke="none" font-family="times new roman" font-size="10px" font-style="normal" font-weight="normal" text-decoration="normal" x="449.65625" y="423.625" text-anchor="middle" dominant-baseline="text-after-edge" fill-opacity="1">42130482C&gt;A</text><path fill="rgb(69,90,100)" stroke="rgb(255,193,7)" paint-order="fill stroke markers" d=" M 617.96875 330.625 L 617.96875 350.625 L 712.96875 350.625 L 712.96875 330.625 Z" fill-opacity="1" stroke-opacity="1" stroke-miterlimit="10" stroke-width="2"/><text fill="rgb(255,255,255)" stroke="none" font-family="times new roman" font-size="10px" font-style="normal" font-weight="normal" text-decoration="normal" x="665.46875" y="345.625" text-anchor="middle" dominant-baseline="text-after-edge" fill-opacity="1">42129809T&gt;C</text><path fill="rgb(69,90,100)" stroke="rgb(255,193,7)" paint-order="fill stroke markers" d=" M 660.21875 258.875 L 660.1493900089954 260.6403296538765 L 659.9417376633907 262.3947754634052 L 659.5970732089477 264.12752068675786 L 659.1175216166409 265.8278823734363 L 658.506039481504 267.48537722821453 L 657.7663967942383 269.0897862441398 L 656.9031536979671 270.6312177061088 L 655.9216323734363 272.10016817658067 L 654.8278842260007 273.48758108742913 L 653.6286525766973 274.78490257669733 L 652.3313310874291 275.9841342260007 L 650.9439181765806 277.0778823734363 L 649.4749677061088 278.05940369796707 L 647.9335362441398 278.9226467942383 L 646.3291272282145 279.66228948150393 L 644.6716323734363 280.27377161664094 L 642.9712706867579 280.75332320894773 L 641.2385254634052 281.0979876633906 L 639.4840796538765 281.3056400089954 L 637.71875 281.375 L 635.9534203461235 281.3056400089954 L 634.1989745365948 281.0979876633906 L 632.4662293132421 280.75332320894773 L 630.7658676265637 280.27377161664094 L 629.1083727717855 279.66228948150393 L 627.5039637558602 278.9226467942383 L 625.9625322938912 278.05940369796707 L 624.4935818234194 277.0778823734363 L 623.1061689125709 275.9841342260007 L 621.8088474233027 274.78490257669733 L 620.6096157739993 273.48758108742913 L 619.5158676265637 272.10016817658067 L 618.5343463020329 270.6312177061088 L 617.6711032057617 269.0897862441398 L 616.931460518496 267.48537722821453 L 616.3199783833591 265.8278823734363 L 615.8404267910523 264.12752068675786 L 615.4957623366095 262.3947754634052 L 615.2881099910046 260.6403296538765 L 615.21875 258.875 L 615.2881099910046 257.1096703461235 L 615.4957623366093 255.35522453659482 L 615.8404267910523 253.62247931324214 L 616.3199783833591 251.92211762656368 L 616.931460518496 250.26462277178547 L 617.6711032057617 248.6602137558602 L 618.5343463020329 247.11878229389114 L 619.5158676265637 245.64983182341936 L 620.6096157739993 244.26241891257087 L 621.8088474233027 242.9650974233027 L 623.1061689125709 241.7658657739993 L 624.4935818234194 240.67211762656368 L 625.9625322938912 239.69059630203293 L 627.5039637558602 238.8273532057617 L 629.1083727717855 238.08771051849604 L 630.7658676265637 237.47622838335903 L 632.4662293132421 236.99667679105227 L 634.1989745365948 236.6520123366094 L 635.9534203461236 236.4443599910046 L 637.7187500000001 236.375 L 639.4840796538766 236.44435999100463 L 641.2385254634053 236.6520123366094 L 642.971270686758 236.9966767910523 L 644.6716323734364 237.47622838335909 L 646.3291272282146 238.0877105184961 L 647.9335362441399 238.8273532057618 L 649.4749677061089 239.690596302033 L 650.9439181765807 240.67211762656376 L 652.3313310874292 241.76586577399942 L 653.6286525766974 242.9650974233028 L 654.8278842260008 244.262418912571 L 655.9216323734364 245.6498318234195 L 656.9031536979671 247.11878229389131 L 657.7663967942384 248.66021375586038 L 658.506039481504 250.2646227717857 L 659.117521616641 251.9221176265639 L 659.5970732089478 253.62247931324237 L 659.9417376633907 255.35522453659505 L 660.1493900089954 257.1096703461238 Z" fill-opacity="1" stroke-opacity="1" stroke-miterlimit="10" stroke-width="2"/><text fill="rgb(255,255,255)" stroke="none" font-family="times new roman" font-size="15px" font-style="normal" font-weight="normal" text-decoration="normal" x="637.71875" y="266.375" text-anchor="middle" dominant-baseline="text-after-edge" fill-opacity="1">*10</text><path fill="rgb(69,90,100)" stroke="rgb(255,193,7)" paint-order="fill stroke markers" d=" M 754.09375 104.125 L 754.09375 124.125 L 849.09375 124.125 L 849.09375 104.125 Z" fill-opacity="1" stroke-opacity="1" stroke-miterlimit="10" stroke-width="2"/><text fill="rgb(255,255,255)" stroke="none" font-family="times new roman" font-size="10px" font-style="normal" font-weight="normal" text-decoration="normal" x="801.59375" y="119.125" text-anchor="middle" dominant-baseline="text-after-edge" fill-opacity="1">42126611C&gt;G</text><path fill="rgb(69,90,100)" stroke="rgb(76,175,80)" paint-order="fill stroke markers" d=" M 427.96875 550.25 L 427.91480334032974 551.6230341752373 L 427.7532959604149 552.987603138204 L 427.4852236069593 554.3352938674783 L 427.1122390351652 555.6577974015615 L 426.6366418189475 556.9469600663891 L 426.06136417329645 558.1948337454421 L 425.3899528761966 559.3937248825291 L 424.6265474015616 560.5362419151182 L 423.77585439800055 561.6153408457782 L 422.84311867076457 562.6243686707646 L 421.83409084577823 563.5571043980005 L 420.7549919151183 564.4077974015615 L 419.6124748825291 565.1712028761966 L 418.41358374544205 565.8426141732964 L 417.16571006638907 566.4178918189475 L 415.8765474015616 566.8934890351652 L 414.55404386747836 567.2664736069594 L 413.20635313820407 567.5345459604149 L 411.8417841752373 567.6960533403297 L 410.46875 567.75 L 409.0957158247627 567.6960533403297 L 407.73114686179593 567.5345459604149 L 406.38345613252164 567.2664736069594 L 405.0609525984384 566.8934890351652 L 403.77178993361093 566.4178918189475 L 402.52391625455795 565.8426141732964 L 401.3250251174709 565.1712028761966 L 400.1825080848817 564.4077974015615 L 399.10340915422177 563.5571043980005 L 398.09438132923543 562.6243686707646 L 397.16164560199945 561.6153408457782 L 396.3109525984384 560.5362419151182 L 395.5475471238034 559.3937248825291 L 394.87613582670355 558.1948337454421 L 394.3008581810525 556.9469600663891 L 393.8252609648348 555.6577974015615 L 393.4522763930407 554.3352938674783 L 393.1842040395851 552.987603138204 L 393.02269665967026 551.6230341752373 L 392.96875 550.25 L 393.02269665967026 548.8769658247627 L 393.1842040395851 547.512396861796 L 393.4522763930407 546.1647061325217 L 393.8252609648348 544.8422025984385 L 394.3008581810525 543.5530399336109 L 394.87613582670355 542.3051662545579 L 395.5475471238034 541.1062751174709 L 396.3109525984384 539.9637580848818 L 397.16164560199945 538.8846591542218 L 398.09438132923543 537.8756313292354 L 399.10340915422177 536.9428956019995 L 400.1825080848817 536.0922025984385 L 401.3250251174709 535.3287971238034 L 402.52391625455795 534.6573858267036 L 403.77178993361093 534.0821081810525 L 405.06095259843846 533.6065109648348 L 406.3834561325217 533.2335263930406 L 407.731146861796 532.9654540395851 L 409.09571582476275 532.8039466596703 L 410.46875000000006 532.75 L 411.84178417523736 532.8039466596703 L 413.2063531382041 532.9654540395851 L 414.5540438674784 533.2335263930406 L 415.87654740156165 533.6065109648348 L 417.1657100663892 534.0821081810525 L 418.41358374544217 534.6573858267036 L 419.6124748825292 535.3287971238035 L 420.75499191511835 536.0922025984385 L 421.8340908457783 536.9428956019996 L 422.8431186707647 537.8756313292355 L 423.77585439800066 538.8846591542219 L 424.62654740156165 539.9637580848819 L 425.3899528761967 541.106275117471 L 426.0613641732965 542.3051662545581 L 426.63664181894757 543.5530399336111 L 427.11223903516526 544.8422025984386 L 427.4852236069594 546.1647061325218 L 427.75329596041496 547.5123968617961 L 427.91480334032974 548.8769658247629 Z" fill-opacity="1" stroke-opacity="1" stroke-miterlimit="10" stroke-width="2"/><text fill="rgb(255,255,255)" stroke="none" font-family="times new roman" font-size="10px" font-style="normal" font-weight="normal" text-decoration="normal" x="410.46875" y="555.25" text-anchor="middle" dominant-baseline="text-after-edge" fill-opacity="1">*1.58</text><path fill="rgb(69,90,100)" stroke="rgb(69,90,100)" paint-order="fill stroke markers" d=" M 581.46875 664.375 L 562.71875 681.875 L 581.46875 699.375 L 618.96875 699.375 L 637.71875 681.875 L 618.96875 664.375 Z" fill-opacity="1" stroke-opacity="1" stroke-miterlimit="10" stroke-width="2"/><text fill="rgb(255,255,255)" stroke="none" font-family="times new roman" font-size="10px" font-style="normal" font-weight="normal" text-decoration="normal" x="600.21875" y="686.875" text-anchor="middle" dominant-baseline="text-after-edge" fill-opacity="1">NA07048-B</text><path fill="rgb(69,90,100)" stroke="rgb(76,175,80)" paint-order="fill stroke markers" d=" M 773.46875 184.625 L 773.3993900089954 186.3903296538765 L 773.1917376633907 188.14477546340518 L 772.8470732089477 189.87752068675786 L 772.3675216166409 191.57788237343632 L 771.756039481504 193.23537722821453 L 771.0163967942383 194.83978624413982 L 770.1531536979671 196.38121770610886 L 769.1716323734363 197.85016817658064 L 768.0778842260007 199.23758108742913 L 766.8786525766973 200.5349025766973 L 765.5813310874291 201.7341342260007 L 764.1939181765806 202.82788237343632 L 762.7249677061088 203.80940369796707 L 761.1835362441398 204.6726467942383 L 759.5791272282145 205.41228948150396 L 757.9216323734363 206.02377161664094 L 756.2212706867579 206.50332320894773 L 754.4885254634052 206.8479876633906 L 752.7340796538765 207.05564000899537 L 750.96875 207.125 L 749.2034203461235 207.05564000899537 L 747.4489745365948 206.8479876633906 L 745.7162293132421 206.50332320894773 L 744.0158676265637 206.02377161664094 L 742.3583727717855 205.41228948150396 L 740.7539637558602 204.6726467942383 L 739.2125322938912 203.80940369796707 L 737.7435818234194 202.82788237343632 L 736.3561689125709 201.7341342260007 L 735.0588474233027 200.53490257669733 L 733.8596157739993 199.23758108742913 L 732.7658676265637 197.85016817658064 L 731.7843463020329 196.38121770610886 L 730.9211032057617 194.83978624413982 L 730.181460518496 193.23537722821453 L 729.5699783833591 191.57788237343632 L 729.0904267910523 189.87752068675786 L 728.7457623366095 188.1447754634052 L 728.5381099910046 186.3903296538765 L 728.46875 184.625 L 728.5381099910046 182.8596703461235 L 728.7457623366093 181.10522453659482 L 729.0904267910523 179.37247931324214 L 729.5699783833591 177.67211762656368 L 730.181460518496 176.01462277178547 L 730.9211032057617 174.4102137558602 L 731.7843463020329 172.86878229389114 L 732.7658676265637 171.39983182341936 L 733.8596157739993 170.01241891257087 L 735.0588474233027 168.7150974233027 L 736.3561689125709 167.5158657739993 L 737.7435818234194 166.42211762656368 L 739.2125322938912 165.44059630203293 L 740.7539637558602 164.5773532057617 L 742.3583727717855 163.83771051849604 L 744.0158676265637 163.22622838335903 L 745.7162293132421 162.74667679105227 L 747.4489745365948 162.4020123366094 L 749.2034203461236 162.1943599910046 L 750.9687500000001 162.125 L 752.7340796538766 162.19435999100463 L 754.4885254634053 162.4020123366094 L 756.221270686758 162.7466767910523 L 757.9216323734364 163.22622838335909 L 759.5791272282146 163.8377105184961 L 761.1835362441399 164.5773532057618 L 762.7249677061089 165.440596302033 L 764.1939181765807 166.42211762656376 L 765.5813310874292 167.51586577399942 L 766.8786525766974 168.7150974233028 L 768.0778842260008 170.012418912571 L 769.1716323734364 171.3998318234195 L 770.1531536979671 172.86878229389131 L 771.0163967942384 174.41021375586038 L 771.756039481504 176.0146227717857 L 772.367521616641 177.6721176265639 L 772.8470732089478 179.37247931324237 L 773.1917376633907 181.10522453659505 L 773.3993900089954 182.85967034612375 Z" fill-opacity="1" stroke-opacity="1" stroke-miterlimit="10" stroke-width="2"/><text fill="rgb(255,255,255)" stroke="none" font-family="times new roman" font-size="15px" font-style="normal" font-weight="normal" text-decoration="normal" x="750.96875" y="192.125" text-anchor="middle" dominant-baseline="text-after-edge" fill-opacity="1">*39</text><path fill="rgb(176,190,197)" stroke="none" paint-order="stroke fill markers" d=" M 156.03125 445.25 L 156.03125 655.25 L 231.03125 655.25 L 231.03125 445.25000000000006 Z" fill-opacity="0.8"/><text fill="rgb(0,0,0)" stroke="none" font-family="times new roman" font-size="10px" font-style="normal" font-weight="normal" text-decoration="normal" x="161.03125" y="460.25" text-anchor="start" dominant-baseline="text-after-edge" fill-opacity="0.8">42126390G&gt;A </text><text fill="rgb(0,0,0)" stroke="none" font-family="times new roman" font-size="10px" font-style="normal" font-weight="normal" text-decoration="normal" x="161.03125" y="470.25" text-anchor="start" dominant-baseline="text-after-edge" fill-opacity="0.8">42127209T&gt;C </text><text fill="rgb(0,0,0)" stroke="none" font-family="times new roman" font-size="10px" font-style="normal" font-weight="normal" text-decoration="normal" x="161.03125" y="480.25" text-anchor="start" dominant-baseline="text-after-edge" fill-opacity="0.8">42127356G&gt;T </text><text fill="rgb(0,0,0)" stroke="none" font-family="times new roman" font-size="10px" font-style="normal" font-weight="normal" text-decoration="normal" x="161.03125" y="490.25" text-anchor="start" dominant-baseline="text-after-edge" fill-opacity="0.8">42128694T&gt;C </text><text fill="rgb(0,0,0)" stroke="none" font-family="times new roman" font-size="10px" font-style="normal" font-weight="normal" text-decoration="normal" x="161.03125" y="500.25" text-anchor="start" dominant-baseline="text-after-edge" fill-opacity="0.8">42131791C&gt;T </text><text fill="rgb(0,0,0)" stroke="none" font-family="times new roman" font-size="10px" font-style="normal" font-weight="normal" text-decoration="normal" x="161.03125" y="510.25" text-anchor="start" dominant-baseline="text-after-edge" fill-opacity="0.8">42132217G&gt;A </text><path fill="rgb(176,190,197)" stroke="none" paint-order="stroke fill markers" d=" M 812.46875 445.25 L 879.46875 445.25 L 879.46875 445.25 A 8 8 0 0 1 887.46875 453.25 L 887.46875 647.25 L 887.46875 647.25 A 8 8 0 0 1 879.46875 655.25 L 745.46875 655.25 L 745.46875 655.25 A 8 8 0 0 1 737.46875 647.25 L 737.46875 453.25 L 737.46875 453.25 A 8 8 0 0 1 745.46875 445.25 L 812.46875 445.25 Z" fill-opacity="0.8"/><text fill="rgb(0,0,0)" stroke="none" font-family="times new roman" font-size="10px" font-style="normal" font-weight="normal" text-decoration="normal" x="742.46875" y="460.25" text-anchor="start" dominant-baseline="text-after-edge" fill-opacity="0.8">42125638_42125657del </text><text fill="rgb(0,0,0)" stroke="none" font-family="times new roman" font-size="10px" font-style="normal" font-weight="normal" text-decoration="normal" x="742.46875" y="470.25" text-anchor="start" dominant-baseline="text-after-edge" fill-opacity="0.8">42125924A&gt;G </text><text fill="rgb(0,0,0)" stroke="none" font-family="times new roman" font-size="10px" font-style="normal" font-weight="normal" text-decoration="normal" x="742.46875" y="480.25" text-anchor="start" dominant-baseline="text-after-edge" fill-opacity="0.8">42125980T&gt;C </text><text fill="rgb(0,0,0)" stroke="none" font-family="times new roman" font-size="10px" font-style="normal" font-weight="normal" text-decoration="normal" x="742.46875" y="490.25" text-anchor="start" dominant-baseline="text-after-edge" fill-opacity="0.8">42126069A&gt;C </text><text fill="rgb(0,0,0)" stroke="none" font-family="times new roman" font-size="10px" font-style="normal" font-weight="normal" text-decoration="normal" x="742.46875" y="500.25" text-anchor="start" dominant-baseline="text-after-edge" fill-opacity="0.8">42132027C&gt;T </text><text fill="rgb(0,0,0)" stroke="none" font-family="times new roman" font-size="10px" font-style="normal" font-weight="normal" text-decoration="normal" x="742.46875" y="510.25" text-anchor="start" dominant-baseline="text-after-edge" fill-opacity="0.8">42132844C&gt;A </text><text fill="rgb(0,0,0)" stroke="none" font-family="times new roman" font-size="10px" font-style="normal" font-weight="normal" text-decoration="normal" x="742.46875" y="520.25" text-anchor="start" dominant-baseline="text-after-edge" fill-opacity="0.8">42132851T&gt;C </text><text fill="rgb(0,0,0)" stroke="none" font-family="times new roman" font-size="10px" font-style="normal" font-weight="normal" text-decoration="normal" x="742.46875" y="530.25" text-anchor="start" dominant-baseline="text-after-edge" fill-opacity="0.8">42132969C&gt;T </text><text fill="rgb(0,0,0)" stroke="none" font-family="times new roman" font-size="10px" font-style="normal" font-weight="normal" text-decoration="normal" x="742.46875" y="540.25" text-anchor="start" dominant-baseline="text-after-edge" fill-opacity="0.8">42133212A&gt;G </text><text fill="rgb(0,0,0)" stroke="none" font-family="times new roman" font-size="10px" font-style="normal" font-weight="normal" text-decoration="normal" x="742.46875" y="550.25" text-anchor="start" dominant-baseline="text-after-edge" fill-opacity="0.8">42133314C&gt;T </text><text fill="rgb(0,0,0)" stroke="none" font-family="times new roman" font-size="10px" font-style="normal" font-weight="normal" text-decoration="normal" x="742.46875" y="560.25" text-anchor="start" dominant-baseline="text-after-edge" fill-opacity="0.8">42133400T&gt;G </text><text fill="rgb(0,0,0)" stroke="none" font-family="times new roman" font-size="10px" font-style="normal" font-weight="normal" text-decoration="normal" x="742.46875" y="570.25" text-anchor="start" dominant-baseline="text-after-edge" fill-opacity="0.8">42134096del </text><text fill="rgb(0,0,0)" stroke="none" font-family="times new roman" font-size="10px" font-style="normal" font-weight="normal" text-decoration="normal" x="742.46875" y="580.25" text-anchor="start" dominant-baseline="text-after-edge" fill-opacity="0.8">42134820T&gt;G </text><text fill="rgb(0,0,0)" stroke="none" font-family="times new roman" font-size="10px" font-style="normal" font-weight="normal" text-decoration="normal" x="742.46875" y="590.25" text-anchor="start" dominant-baseline="text-after-edge" fill-opacity="0.8">42135064_42135066dup </text><text fill="rgb(0,0,0)" stroke="none" font-family="times new roman" font-size="10px" font-style="normal" font-weight="normal" text-decoration="normal" x="742.46875" y="600.25" text-anchor="start" dominant-baseline="text-after-edge" fill-opacity="0.8">42135201T&gt;C </text><g transform="scale(1.1072080291970803,1.1072080291970803) translate(77.77194066749075,55.46271116604862)"/></g></svg>