<svg version="1.1" xmlns="http://www.w3.org/2000/svg" xmlns:xlink="http://www.w3.org/1999/xlink" width="1017" height="608"><defs/><g transform="translate(-115.14581557866029,48.23453212885633) scale(0.8699505709902846,0.8699505709902846)"><path fill="none" stroke="rgb(120,144,156)" paint-order="fill stroke markers" d=" M 910.373182132964 243.875 L 922.7544648221642 262.2685928016513" stroke-opacity="1" stroke-linejoin="round" stroke-miterlimit="10"/><path fill="rgb(120,144,156)" stroke="none" paint-order="stroke fill markers" d=" M 915.4045217323535 259.1395615495634 L 923.871278385499 263.92772735458897 L 922.621757037632 254.28142254905723 Z" fill-opacity="1"/><path fill="none" stroke="rgb(120,144,156)" paint-order="fill stroke markers" d=" M 308.36671483225206 252.99158396533485 L 364.78691582032224 346.42136633548773" stroke-opacity="1" stroke-linejoin="round" stroke-miterlimit="10"/><path fill="rgb(120,144,156)" stroke="none" paint-order="stroke fill markers" d=" M 357.5997454107352 342.93466567389424 L 365.82078516774794 348.1334160346652 L 365.047161602157 338.43733401259243 Z" fill-opacity="1"/><path fill="none" stroke="rgb(120,144,156)" paint-order="fill stroke markers" d=" M 271.04721092852276 179.85409855156925 L 285.2825477158583 209.83916965680783" stroke-opacity="1" stroke-linejoin="round" stroke-miterlimit="10"/><path fill="rgb(120,144,156)" stroke="none" paint-order="stroke fill markers" d=" M 278.4794725277549 205.6522056033423 L 286.14028907147724 211.64590144843075 L 286.3387558213146 201.92103070639982 Z" fill-opacity="1"/><path fill="none" stroke="rgb(55,71,79)" paint-order="fill stroke markers" d=" M 1217.40625 169.625 L 1217.40625 214.375" stroke-opacity="1" stroke-linejoin="round" stroke-miterlimit="10" stroke-width="2"/><path fill="none" stroke="rgb(120,144,156)" paint-order="fill stroke markers" d=" M 1013.0428497229917 243.875 L 1010.392213015293 261.2728154814406" stroke-opacity="1" stroke-linejoin="round" stroke-miterlimit="10"/><path fill="rgb(120,144,156)" stroke="none" paint-order="stroke fill markers" d=" M 1007.1009675670512 253.9940653552563 L 1010.0909799168975 263.25 L 1015.7017202227846 255.30442933327672 Z" fill-opacity="1"/><path fill="none" stroke="rgb(120,144,156)" paint-order="fill stroke markers" d=" M 400.70721721180064 374.18397917571895 L 850.1304652653449 491.4684104521458" stroke-opacity="1" stroke-linejoin="round" stroke-miterlimit="10"/><path fill="rgb(120,144,156)" stroke="none" paint-order="stroke fill markers" d=" M 842.5491657022197 493.9856305327422 L 852.0656539642216 491.9734299564623 L 844.7460005459966 485.5675596926288 Z" fill-opacity="1"/><path fill="none" stroke="rgb(120,144,156)" paint-order="fill stroke markers" d=" M 580.1157145623743 377.09486060346455 L 853.4299679291629 488.1287760337225" stroke-opacity="1" stroke-linejoin="round" stroke-miterlimit="10"/><path fill="rgb(120,144,156)" stroke="none" paint-order="stroke fill markers" d=" M 845.5854017081851 489.6371794295997 L 855.2829010834075 488.88153012763433 L 848.8598820167018 481.5769202086356 Z" fill-opacity="1"/><path fill="none" stroke="rgb(120,144,156)" paint-order="fill stroke markers" d=" M 388.3046225761773 243.875 L 380.08058393184416 342.8375983534749" stroke-opacity="1" stroke-linejoin="round" stroke-miterlimit="10"/><path fill="rgb(120,144,156)" stroke="none" paint-order="stroke fill markers" d=" M 376.3004011938431 335.8003603677792 L 379.91494989797405 344.8307278943788 L 384.9705146967752 336.52086841511425 Z" fill-opacity="1"/><path fill="none" stroke="rgb(55,71,79)" paint-order="fill stroke markers" d=" M 223.3065159574468 99.125 L 248.40005199750863 138.76856954228253" stroke-opacity="1" stroke-linejoin="round" stroke-miterlimit="10" stroke-width="2"/><path fill="none" stroke="rgb(120,144,156)" paint-order="fill stroke markers" d=" M 782.567079677671 382.3528144861159 L 865.3427832742397 479.8503714069064" stroke-opacity="1" stroke-linejoin="round" stroke-miterlimit="10"/><path fill="rgb(120,144,156)" stroke="none" paint-order="stroke fill markers" d=" M 857.6904291199153 477.5582161118195 L 866.6371972934473 481.375 L 864.3225634998726 471.92751512826607 Z" fill-opacity="1"/><path fill="none" stroke="rgb(120,144,156)" paint-order="fill stroke markers" d=" M 919.09375 456.58892617449663 L 899.3447167257603 479.8503714069064" stroke-opacity="1" stroke-linejoin="round" stroke-miterlimit="10"/><path fill="rgb(120,144,156)" stroke="none" paint-order="stroke fill markers" d=" M 900.3649365001276 471.92751512826607 L 898.0503027065527 481.375 L 906.9970708800847 477.55821611181955 Z" fill-opacity="1"/><path fill="none" stroke="rgb(120,144,156)" paint-order="fill stroke markers" d=" M 686.873182132964 243.875 L 759.1464109758189 351.2438708323893" stroke-opacity="1" stroke-linejoin="round" stroke-miterlimit="10"/><path fill="rgb(120,144,156)" stroke="none" paint-order="stroke fill markers" d=" M 751.7964678860081 348.11483958030135 L 760.2632245391536 352.90300538532694 L 759.0137031912868 343.25670057979517 Z" fill-opacity="1"/><path fill="none" stroke="rgb(55,71,79)" paint-order="fill stroke markers" d=" M 487.8698313426712 248.80828809720327 L 546.4018358620123 348.0104178224715" stroke-opacity="1" stroke-linejoin="round" stroke-miterlimit="10" stroke-width="2"/><path fill="none" stroke="rgb(120,144,156)" paint-order="fill stroke markers" d=" M 789.5428497229917 243.875 L 773.6813892585537 347.9838586847659" stroke-opacity="1" stroke-linejoin="round" stroke-miterlimit="10"/><path fill="rgb(120,144,156)" stroke="none" paint-order="stroke fill markers" d=" M 770.3901438103118 340.7051085585817 L 773.3801561601582 349.96104320332535 L 778.9908964660453 342.01547253660203 Z" fill-opacity="1"/><path fill="none" stroke="rgb(55,71,79)" paint-order="fill stroke markers" d=" M 323.5346424605246 175.33726907251196 L 306.29721092852276 211.64590144843075" stroke-opacity="1" stroke-linejoin="round" stroke-miterlimit="10" stroke-width="2"/><path fill="none" stroke="rgb(55,71,79)" paint-order="fill stroke markers" d=" M 382.2382569381315 103.75665801990523 L 404.4000519975086 138.76856954228253" stroke-opacity="1" stroke-linejoin="round" stroke-miterlimit="10" stroke-width="2"/><path fill="none" stroke="rgb(55,71,79)" paint-order="fill stroke markers" d=" M 295.6992430618685 103.75665801990523 L 273.5374480024914 138.76856954228253" stroke-opacity="1" stroke-linejoin="round" stroke-miterlimit="10" stroke-width="2"/><path fill="none" stroke="rgb(120,144,156)" paint-order="fill stroke markers" d=" M 1089.53125 388.42241379310343 L 908.7886982527166 485.64944162957323" stroke-opacity="1" stroke-linejoin="round" stroke-miterlimit="10"/><path fill="rgb(120,144,156)" stroke="none" paint-order="stroke fill markers" d=" M 912.6284022218413 478.6445024128856 L 907.0273661567878 486.59691682600385 L 916.7499193263145 486.3062970301756 Z" fill-opacity="1"/><path fill="none" stroke="rgb(55,71,79)" paint-order="fill stroke markers" d=" M 566.9569771468144 243.875 L 559.9672853630203 344.8061493579868" stroke-opacity="1" stroke-linejoin="round" stroke-miterlimit="10" stroke-width="2"/><path fill="none" stroke="rgb(55,71,79)" paint-order="fill stroke markers" d=" M 454.6309840425532 99.125 L 429.5374480024914 138.76856954228253" stroke-opacity="1" stroke-linejoin="round" stroke-miterlimit="10" stroke-width="2"/><path fill="none" stroke="rgb(120,144,156)" paint-order="fill stroke markers" d=" M 396.9505116821788 170.9343515122006 L 317.94066817465705 219.5180441037823" stroke-opacity="1" stroke-linejoin="round" stroke-miterlimit="10"/><path fill="rgb(120,144,156)" stroke="none" paint-order="stroke fill markers" d=" M 321.36945615982 212.30306572870717 L 316.2369883178212 220.5656484877994 L 325.9265352302943 219.7140731059431 Z" fill-opacity="1"/><path fill="none" stroke="rgb(120,144,156)" paint-order="fill stroke markers" d=" M 1133.0961738227147 243.875 L 1197.4519160533503 350.6907376793538" stroke-opacity="1" stroke-linejoin="round" stroke-miterlimit="10"/><path fill="rgb(120,144,156)" stroke="none" paint-order="stroke fill markers" d=" M 1190.2682902710399 347.19673988030974 L 1198.4840461944868 352.4038364423437 L 1197.7202698900458 342.7069737663657 Z" fill-opacity="1"/><path fill="none" stroke="rgb(120,144,156)" paint-order="fill stroke markers" d=" M 1190.8790568350676 375.18197443971366 L 911.3006141024925 488.1722259067647" stroke-opacity="1" stroke-linejoin="round" stroke-miterlimit="10"/><path fill="rgb(120,144,156)" stroke="none" paint-order="stroke fill markers" d=" M 915.8825387182922 481.62864379792484 L 909.4463229495268 488.9216285488959 L 919.1424402115629 489.6948103133255 Z" fill-opacity="1"/><path fill="none" stroke="rgb(120,144,156)" paint-order="fill stroke markers" d=" M 1216.1281476929414 251.33079731392527 L 1209.4475255294433 347.7989813548396" stroke-opacity="1" stroke-linejoin="round" stroke-miterlimit="10"/><path fill="rgb(120,144,156)" stroke="none" paint-order="stroke fill markers" d=" M 1205.5707994289955 340.81446313651503 L 1209.3093523070586 349.79420268607475 L 1214.2500122198685 341.4155166538885 Z" fill-opacity="1"/><path fill="rgb(69,90,100)" stroke="rgb(76,175,80)" paint-order="fill stroke markers" d=" M 631.96875 222.875 L 631.96875 242.875 L 726.96875 242.875 L 726.96875 222.875 Z" fill-opacity="1" stroke-opacity="1" stroke-miterlimit="10" stroke-width="2"/><text fill="rgb(255,255,255)" stroke="none" font-family="times new roman" font-size="10px" font-style="normal" font-weight="normal" text-decoration="normal" x="679.46875" y="237.875" text-anchor="middle" dominant-baseline="text-after-edge" fill-opacity="1">42130482C&gt;A</text><path fill="rgb(69,90,100)" stroke="rgb(76,175,80)" paint-order="fill stroke markers" d=" M 1225.53125 368.25 L 1225.4773033403299 369.6230341752373 L 1225.315795960415 370.98760313820407 L 1225.0477236069594 372.33529386747836 L 1224.6747390351652 373.6577974015616 L 1224.1991418189475 374.94696006638907 L 1223.6238641732964 376.19483374544205 L 1222.9524528761965 377.3937248825291 L 1222.1890474015615 378.5362419151183 L 1221.3383543980005 379.61534084577823 L 1220.4056186707646 380.62436867076457 L 1219.3965908457783 381.55710439800055 L 1218.3174919151184 382.4077974015616 L 1217.174974882529 383.1712028761966 L 1215.976083745442 383.84261417329645 L 1214.728210066389 384.4178918189475 L 1213.4390474015615 384.8934890351652 L 1212.1165438674784 385.2664736069593 L 1210.7688531382041 385.5345459604149 L 1209.4042841752373 385.69605334032974 L 1208.03125 385.75 L 1206.6582158247627 385.69605334032974 L 1205.2936468617959 385.5345459604149 L 1203.9459561325216 385.2664736069593 L 1202.6234525984385 384.8934890351652 L 1201.334289933611 384.4178918189475 L 1200.086416254558 383.84261417329645 L 1198.887525117471 383.1712028761966 L 1197.7450080848816 382.4077974015616 L 1196.6659091542217 381.55710439800055 L 1195.6568813292354 380.62436867076457 L 1194.7241456019995 379.61534084577823 L 1193.8734525984385 378.5362419151183 L 1193.1100471238035 377.3937248825291 L 1192.4386358267036 376.19483374544205 L 1191.8633581810525 374.94696006638907 L 1191.3877609648348 373.6577974015616 L 1191.0147763930406 372.33529386747836 L 1190.746704039585 370.98760313820407 L 1190.5851966596701 369.6230341752373 L 1190.53125 368.25 L 1190.5851966596701 366.8769658247627 L 1190.746704039585 365.51239686179593 L 1191.0147763930406 364.16470613252164 L 1191.3877609648348 362.8422025984384 L 1191.8633581810525 361.55303993361093 L 1192.4386358267036 360.30516625455795 L 1193.1100471238035 359.1062751174709 L 1193.8734525984385 357.9637580848817 L 1194.7241456019995 356.88465915422177 L 1195.6568813292354 355.87563132923543 L 1196.6659091542217 354.94289560199945 L 1197.7450080848816 354.0922025984384 L 1198.887525117471 353.3287971238034 L 1200.086416254558 352.65738582670355 L 1201.334289933611 352.0821081810525 L 1202.6234525984385 351.6065109648348 L 1203.9459561325216 351.2335263930407 L 1205.293646861796 350.9654540395851 L 1206.6582158247627 350.80394665967026 L 1208.03125 350.75 L 1209.4042841752373 350.80394665967026 L 1210.7688531382041 350.9654540395851 L 1212.1165438674784 351.2335263930407 L 1213.4390474015618 351.60651096483485 L 1214.7282100663892 352.0821081810525 L 1215.976083745442 352.6573858267036 L 1217.174974882529 353.32879712380344 L 1218.3174919151184 354.0922025984385 L 1219.3965908457783 354.94289560199957 L 1220.4056186707646 355.8756313292355 L 1221.3383543980005 356.8846591542219 L 1222.1890474015618 357.9637580848818 L 1222.9524528761967 359.10627511747106 L 1223.6238641732966 360.30516625455806 L 1224.1991418189475 361.5530399336111 L 1224.6747390351652 362.8422025984386 L 1225.0477236069594 364.1647061325218 L 1225.315795960415 365.51239686179616 L 1225.4773033403299 366.8769658247629 Z" fill-opacity="1" stroke-opacity="1" stroke-miterlimit="10" stroke-width="2"/><text fill="rgb(255,255,255)" stroke="none" font-family="times new roman" font-size="10px" font-style="normal" font-weight="normal" text-decoration="normal" x="1208.03125" y="373.25" text-anchor="middle" dominant-baseline="text-after-edge" fill-opacity="1">*1.54</text><path fill="rgb(69,90,100)" stroke="rgb(76,175,80)" paint-order="fill stroke markers" d=" M 1234.90625 232.875 L 1234.8523033403299 234.24803417523728 L 1234.690795960415 235.61260313820404 L 1234.4227236069594 236.96029386747836 L 1234.0497390351652 238.28279740156157 L 1233.5741418189475 239.57196006638907 L 1232.9988641732964 240.81983374544205 L 1232.3274528761965 242.0187248825291 L 1231.5640474015615 243.16124191511827 L 1230.7133543980005 244.2403408457782 L 1229.7806186707646 245.24936867076457 L 1228.7715908457783 246.18210439800055 L 1227.6924919151184 247.0327974015616 L 1226.549974882529 247.79620287619662 L 1225.351083745442 248.46761417329643 L 1224.103210066389 249.0428918189475 L 1222.8140474015615 249.51848903516517 L 1221.4915438674784 249.89147360695935 L 1220.1438531382041 250.1595459604149 L 1218.7792841752373 250.32105334032974 L 1217.40625 250.375 L 1216.0332158247627 250.32105334032974 L 1214.6686468617959 250.1595459604149 L 1213.3209561325216 249.89147360695935 L 1211.9984525984385 249.5184890351652 L 1210.709289933611 249.0428918189475 L 1209.461416254558 248.46761417329643 L 1208.262525117471 247.79620287619662 L 1207.1200080848816 247.0327974015616 L 1206.0409091542217 246.18210439800055 L 1205.0318813292354 245.24936867076457 L 1204.0991456019995 244.2403408457782 L 1203.2484525984385 243.1612419151183 L 1202.4850471238035 242.0187248825291 L 1201.8136358267036 240.81983374544208 L 1201.2383581810525 239.57196006638907 L 1200.7627609648348 238.2827974015616 L 1200.3897763930406 236.96029386747836 L 1200.121704039585 235.61260313820404 L 1199.9601966596701 234.24803417523728 L 1199.90625 232.875 L 1199.9601966596701 231.50196582476272 L 1200.121704039585 230.13739686179596 L 1200.3897763930406 228.78970613252164 L 1200.7627609648348 227.46720259843843 L 1201.2383581810525 226.17803993361093 L 1201.8136358267036 224.93016625455795 L 1202.4850471238035 223.7312751174709 L 1203.2484525984385 222.58875808488173 L 1204.0991456019995 221.5096591542218 L 1205.0318813292354 220.50063132923543 L 1206.0409091542217 219.56789560199945 L 1207.1200080848816 218.71720259843843 L 1208.262525117471 217.95379712380338 L 1209.461416254558 217.28238582670355 L 1210.709289933611 216.7071081810525 L 1211.9984525984385 216.2315109648348 L 1213.3209561325216 215.85852639304065 L 1214.668646861796 215.5904540395851 L 1216.0332158247627 215.42894665967026 L 1217.40625 215.375 L 1218.7792841752373 215.42894665967026 L 1220.1438531382041 215.5904540395851 L 1221.4915438674784 215.85852639304068 L 1222.8140474015618 216.23151096483485 L 1224.1032100663892 216.70710818105252 L 1225.351083745442 217.2823858267036 L 1226.549974882529 217.95379712380344 L 1227.6924919151184 218.7172025984385 L 1228.7715908457783 219.56789560199954 L 1229.7806186707646 220.50063132923552 L 1230.7133543980005 221.5096591542219 L 1231.5640474015618 222.58875808488185 L 1232.3274528761967 223.73127511747103 L 1232.9988641732966 224.9301662545581 L 1233.5741418189475 226.1780399336111 L 1234.0497390351652 227.4672025984386 L 1234.4227236069594 228.78970613252184 L 1234.690795960415 230.13739686179616 L 1234.8523033403299 231.50196582476292 Z" fill-opacity="1" stroke-opacity="1" stroke-miterlimit="10" stroke-width="2"/><text fill="rgb(255,255,255)" stroke="none" font-family="times new roman" font-size="10px" font-style="normal" font-weight="normal" text-decoration="normal" x="1217.40625" y="237.875" text-anchor="middle" dominant-baseline="text-after-edge" fill-opacity="1">*1.41</text><path fill="rgb(69,90,100)" stroke="rgb(76,175,80)" paint-order="fill stroke markers" d=" M 743.71875 222.875 L 743.71875 242.875 L 838.71875 242.875 L 838.71875 222.875 Z" fill-opacity="1" stroke-opacity="1" stroke-miterlimit="10" stroke-width="2"/><text fill="rgb(255,255,255)" stroke="none" font-family="times new roman" font-size="10px" font-style="normal" font-weight="normal" text-decoration="normal" x="791.21875" y="237.875" text-anchor="middle" dominant-baseline="text-after-edge" fill-opacity="1">42129950A&gt;C</text><path fill="rgb(69,90,100)" stroke="rgb(255,193,7)" paint-order="fill stroke markers" d=" M 520.21875 222.875 L 520.21875 242.875 L 615.21875 242.875 L 615.21875 222.875 Z" fill-opacity="1" stroke-opacity="1" stroke-miterlimit="10" stroke-width="2"/><text fill="rgb(255,255,255)" stroke="none" font-family="times new roman" font-size="10px" font-style="normal" font-weight="normal" text-decoration="normal" x="567.71875" y="237.875" text-anchor="middle" dominant-baseline="text-after-edge" fill-opacity="1">42128176_4212817…</text><path fill="rgb(69,90,100)" stroke="rgb(255,193,7)" paint-order="fill stroke markers" d=" M 495.96875 232.875 L 495.91480334032974 234.24803417523728 L 495.7532959604149 235.61260313820404 L 495.4852236069593 236.96029386747836 L 495.1122390351652 238.28279740156157 L 494.6366418189475 239.57196006638907 L 494.06136417329645 240.81983374544205 L 493.3899528761966 242.0187248825291 L 492.6265474015616 243.16124191511827 L 491.77585439800055 244.2403408457782 L 490.84311867076457 245.24936867076457 L 489.83409084577823 246.18210439800055 L 488.7549919151183 247.0327974015616 L 487.6124748825291 247.79620287619662 L 486.41358374544205 248.46761417329643 L 485.16571006638907 249.0428918189475 L 483.8765474015616 249.51848903516517 L 482.55404386747836 249.89147360695935 L 481.20635313820407 250.1595459604149 L 479.8417841752373 250.32105334032974 L 478.46875 250.375 L 477.0957158247627 250.32105334032974 L 475.73114686179593 250.1595459604149 L 474.38345613252164 249.89147360695935 L 473.0609525984384 249.5184890351652 L 471.77178993361093 249.0428918189475 L 470.52391625455795 248.46761417329643 L 469.3250251174709 247.79620287619662 L 468.1825080848817 247.0327974015616 L 467.10340915422177 246.18210439800055 L 466.09438132923543 245.24936867076457 L 465.16164560199945 244.2403408457782 L 464.3109525984384 243.1612419151183 L 463.5475471238034 242.0187248825291 L 462.87613582670355 240.81983374544208 L 462.3008581810525 239.57196006638907 L 461.8252609648348 238.2827974015616 L 461.4522763930407 236.96029386747836 L 461.1842040395851 235.61260313820404 L 461.02269665967026 234.24803417523728 L 460.96875 232.875 L 461.02269665967026 231.50196582476272 L 461.1842040395851 230.13739686179596 L 461.4522763930407 228.78970613252164 L 461.8252609648348 227.46720259843843 L 462.3008581810525 226.17803993361093 L 462.87613582670355 224.93016625455795 L 463.5475471238034 223.7312751174709 L 464.3109525984384 222.58875808488173 L 465.16164560199945 221.5096591542218 L 466.09438132923543 220.50063132923543 L 467.10340915422177 219.56789560199945 L 468.1825080848817 218.71720259843843 L 469.3250251174709 217.95379712380338 L 470.52391625455795 217.28238582670355 L 471.77178993361093 216.7071081810525 L 473.06095259843846 216.2315109648348 L 474.3834561325217 215.85852639304065 L 475.731146861796 215.5904540395851 L 477.09571582476275 215.42894665967026 L 478.46875000000006 215.375 L 479.84178417523736 215.42894665967026 L 481.2063531382041 215.5904540395851 L 482.5540438674784 215.85852639304068 L 483.87654740156165 216.23151096483485 L 485.1657100663892 216.70710818105252 L 486.41358374544217 217.2823858267036 L 487.6124748825292 217.95379712380344 L 488.75499191511835 218.7172025984385 L 489.8340908457783 219.56789560199954 L 490.8431186707647 220.50063132923552 L 491.77585439800066 221.5096591542219 L 492.62654740156165 222.58875808488185 L 493.3899528761967 223.73127511747103 L 494.0613641732965 224.9301662545581 L 494.63664181894757 226.1780399336111 L 495.11223903516526 227.4672025984386 L 495.4852236069594 228.78970613252184 L 495.75329596041496 230.13739686179616 L 495.91480334032974 231.50196582476292 Z" fill-opacity="1" stroke-opacity="1" stroke-miterlimit="10" stroke-width="2"/><text fill="rgb(255,255,255)" stroke="none" font-family="times new roman" font-size="10px" font-style="normal" font-weight="normal" text-decoration="normal" x="478.46875" y="237.875" text-anchor="middle" dominant-baseline="text-after-edge" fill-opacity="1">*9.1</text><path fill="rgb(69,90,100)" stroke="rgb(76,175,80)" paint-order="fill stroke markers" d=" M 348.96875 158.625 L 348.91480334032974 159.99803417523728 L 348.7532959604149 161.36260313820404 L 348.4852236069593 162.71029386747836 L 348.1122390351652 164.03279740156157 L 347.6366418189475 165.32196006638907 L 347.06136417329645 166.56983374544205 L 346.3899528761966 167.7687248825291 L 345.6265474015616 168.91124191511827 L 344.77585439800055 169.9903408457782 L 343.84311867076457 170.99936867076457 L 342.83409084577823 171.93210439800055 L 341.7549919151183 172.7827974015616 L 340.6124748825291 173.54620287619662 L 339.41358374544205 174.21761417329643 L 338.16571006638907 174.7928918189475 L 336.8765474015616 175.26848903516517 L 335.55404386747836 175.64147360695935 L 334.20635313820407 175.9095459604149 L 332.8417841752373 176.07105334032974 L 331.46875 176.125 L 330.0957158247627 176.07105334032974 L 328.73114686179593 175.9095459604149 L 327.38345613252164 175.64147360695935 L 326.0609525984384 175.2684890351652 L 324.77178993361093 174.7928918189475 L 323.52391625455795 174.21761417329643 L 322.3250251174709 173.54620287619662 L 321.1825080848817 172.7827974015616 L 320.10340915422177 171.93210439800055 L 319.09438132923543 170.99936867076457 L 318.16164560199945 169.9903408457782 L 317.3109525984384 168.9112419151183 L 316.5475471238034 167.7687248825291 L 315.87613582670355 166.56983374544208 L 315.3008581810525 165.32196006638907 L 314.8252609648348 164.0327974015616 L 314.4522763930407 162.71029386747836 L 314.1842040395851 161.36260313820404 L 314.02269665967026 159.99803417523728 L 313.96875 158.625 L 314.02269665967026 157.25196582476272 L 314.1842040395851 155.88739686179596 L 314.4522763930407 154.53970613252164 L 314.8252609648348 153.21720259843843 L 315.3008581810525 151.92803993361093 L 315.87613582670355 150.68016625455795 L 316.5475471238034 149.4812751174709 L 317.3109525984384 148.33875808488173 L 318.16164560199945 147.2596591542218 L 319.09438132923543 146.25063132923543 L 320.10340915422177 145.31789560199945 L 321.1825080848817 144.46720259843843 L 322.3250251174709 143.70379712380338 L 323.52391625455795 143.03238582670355 L 324.77178993361093 142.4571081810525 L 326.06095259843846 141.9815109648348 L 327.3834561325217 141.60852639304065 L 328.731146861796 141.3404540395851 L 330.09571582476275 141.17894665967026 L 331.46875000000006 141.125 L 332.84178417523736 141.17894665967026 L 334.2063531382041 141.3404540395851 L 335.5540438674784 141.60852639304068 L 336.87654740156165 141.98151096483485 L 338.1657100663892 142.45710818105252 L 339.41358374544217 143.0323858267036 L 340.6124748825292 143.70379712380344 L 341.75499191511835 144.4672025984385 L 342.8340908457783 145.31789560199954 L 343.8431186707647 146.25063132923552 L 344.77585439800066 147.2596591542219 L 345.62654740156165 148.33875808488185 L 346.3899528761967 149.48127511747103 L 347.0613641732965 150.6801662545581 L 347.63664181894757 151.9280399336111 L 348.11223903516526 153.2172025984386 L 348.4852236069594 154.53970613252184 L 348.75329596041496 155.88739686179616 L 348.91480334032974 157.25196582476292 Z" fill-opacity="1" stroke-opacity="1" stroke-miterlimit="10" stroke-width="2"/><text fill="rgb(255,255,255)" stroke="none" font-family="times new roman" font-size="10px" font-style="normal" font-weight="normal" text-decoration="normal" x="331.46875" y="163.625" text-anchor="middle" dominant-baseline="text-after-edge" fill-opacity="1">*2.4</text><path fill="rgb(69,90,100)" stroke="rgb(76,175,80)" paint-order="fill stroke markers" d=" M 323.09375 88.125 L 323.03980334032974 89.49803417523728 L 322.8782959604149 90.86260313820404 L 322.6102236069593 92.21029386747834 L 322.2372390351652 93.53279740156158 L 321.7616418189475 94.82196006638907 L 321.18636417329645 96.06983374544207 L 320.5149528761966 97.2687248825291 L 319.7515474015616 98.41124191511828 L 318.90085439800055 99.4903408457782 L 317.96811867076457 100.49936867076458 L 316.95909084577823 101.43210439800055 L 315.8799919151183 102.28279740156158 L 314.7374748825291 103.04620287619662 L 313.53858374544205 103.71761417329644 L 312.29071006638907 104.29289181894751 L 311.0015474015616 104.76848903516519 L 309.67904386747836 105.14147360695934 L 308.33135313820407 105.4095459604149 L 306.9667841752373 105.57105334032974 L 305.59375 105.625 L 304.2207158247627 105.57105334032974 L 302.85614686179593 105.4095459604149 L 301.50845613252164 105.14147360695934 L 300.1859525984384 104.76848903516519 L 298.89678993361093 104.29289181894751 L 297.64891625455795 103.71761417329644 L 296.4500251174709 103.04620287619662 L 295.3075080848817 102.28279740156158 L 294.22840915422177 101.43210439800055 L 293.21938132923543 100.49936867076458 L 292.28664560199945 99.49034084577822 L 291.4359525984384 98.41124191511828 L 290.6725471238034 97.26872488252911 L 290.00113582670355 96.06983374544207 L 289.4258581810525 94.82196006638907 L 288.9502609648348 93.53279740156158 L 288.5772763930407 92.21029386747834 L 288.3092040395851 90.86260313820404 L 288.14769665967026 89.4980341752373 L 288.09375 88.125 L 288.14769665967026 86.75196582476272 L 288.3092040395851 85.38739686179596 L 288.5772763930407 84.03970613252166 L 288.9502609648348 82.71720259843842 L 289.4258581810525 81.42803993361093 L 290.00113582670355 80.18016625455793 L 290.6725471238034 78.9812751174709 L 291.4359525984384 77.83875808488172 L 292.28664560199945 76.7596591542218 L 293.21938132923543 75.75063132923542 L 294.22840915422177 74.81789560199947 L 295.3075080848817 73.96720259843842 L 296.4500251174709 73.20379712380338 L 297.64891625455795 72.53238582670356 L 298.89678993361093 71.95710818105248 L 300.18595259843846 71.4815109648348 L 301.5084561325217 71.10852639304065 L 302.856146861796 70.84045403958508 L 304.22071582476275 70.67894665967026 L 305.59375000000006 70.625 L 306.96678417523736 70.67894665967026 L 308.3313531382041 70.8404540395851 L 309.6790438674784 71.10852639304068 L 311.00154740156165 71.48151096483484 L 312.2907100663892 71.95710818105252 L 313.53858374544217 72.5323858267036 L 314.7374748825292 73.20379712380344 L 315.87999191511835 73.96720259843849 L 316.9590908457783 74.81789560199954 L 317.9681186707647 75.75063132923552 L 318.90085439800066 76.7596591542219 L 319.75154740156165 77.83875808488185 L 320.5149528761967 78.98127511747103 L 321.1863641732965 80.18016625455807 L 321.76164181894757 81.42803993361109 L 322.23723903516526 82.71720259843859 L 322.6102236069594 84.03970613252184 L 322.87829596041496 85.38739686179616 L 323.03980334032974 86.75196582476292 Z" fill-opacity="1" stroke-opacity="1" stroke-miterlimit="10" stroke-width="2"/><text fill="rgb(255,255,255)" stroke="none" font-family="times new roman" font-size="10px" font-style="normal" font-weight="normal" text-decoration="normal" x="305.59375" y="93.125" text-anchor="middle" dominant-baseline="text-after-edge" fill-opacity="1">*39.2</text><path fill="rgb(69,90,100)" stroke="rgb(76,175,80)" paint-order="fill stroke markers" d=" M 283.46875 158.625 L 283.3993900089954 160.3903296538765 L 283.1917376633906 162.14477546340518 L 282.84707320894773 163.87752068675786 L 282.36752161664094 165.57788237343632 L 281.75603948150393 167.23537722821453 L 281.0163967942383 168.83978624413982 L 280.15315369796707 170.38121770610886 L 279.1716323734363 171.85016817658064 L 278.0778842260007 173.23758108742913 L 276.87865257669733 174.5349025766973 L 275.58133108742913 175.7341342260007 L 274.19391817658067 176.82788237343632 L 272.7249677061088 177.80940369796707 L 271.1835362441398 178.6726467942383 L 269.57912722821453 179.41228948150396 L 267.9216323734363 180.02377161664094 L 266.22127068675786 180.50332320894773 L 264.4885254634052 180.8479876633906 L 262.7340796538765 181.05564000899537 L 260.96875 181.125 L 259.2034203461235 181.05564000899537 L 257.4489745365948 180.8479876633906 L 255.71622931324214 180.50332320894773 L 254.01586762656368 180.02377161664094 L 252.35837277178547 179.41228948150396 L 250.7539637558602 178.6726467942383 L 249.21253229389114 177.80940369796707 L 247.74358182341936 176.82788237343632 L 246.35616891257087 175.7341342260007 L 245.0588474233027 174.53490257669733 L 243.8596157739993 173.23758108742913 L 242.76586762656368 171.85016817658064 L 241.78434630203293 170.38121770610886 L 240.9211032057617 168.83978624413982 L 240.18146051849604 167.23537722821453 L 239.56997838335906 165.57788237343632 L 239.09042679105227 163.87752068675786 L 238.7457623366094 162.1447754634052 L 238.53810999100463 160.3903296538765 L 238.46875 158.625 L 238.53810999100463 156.8596703461235 L 238.7457623366094 155.10522453659482 L 239.09042679105227 153.37247931324214 L 239.56997838335906 151.67211762656368 L 240.18146051849604 150.01462277178547 L 240.9211032057617 148.4102137558602 L 241.78434630203293 146.86878229389114 L 242.76586762656368 145.39983182341936 L 243.8596157739993 144.01241891257087 L 245.05884742330267 142.7150974233027 L 246.35616891257087 141.5158657739993 L 247.74358182341936 140.42211762656368 L 249.21253229389114 139.44059630203293 L 250.7539637558602 138.5773532057617 L 252.3583727717855 137.83771051849604 L 254.0158676265637 137.22622838335903 L 255.71622931324217 136.74667679105227 L 257.44897453659485 136.4020123366094 L 259.20342034612355 136.1943599910046 L 260.96875000000006 136.125 L 262.7340796538766 136.19435999100463 L 264.48852546340527 136.4020123366094 L 266.221270686758 136.7466767910523 L 267.9216323734364 137.22622838335909 L 269.57912722821465 137.8377105184961 L 271.18353624413993 138.5773532057618 L 272.724967706109 139.440596302033 L 274.1939181765808 140.42211762656376 L 275.58133108742925 141.51586577399942 L 276.87865257669745 142.7150974233028 L 278.07788422600083 144.012418912571 L 279.1716323734364 145.3998318234195 L 280.1531536979672 146.86878229389131 L 281.0163967942384 148.41021375586038 L 281.75603948150405 150.0146227717857 L 282.36752161664106 151.6721176265639 L 282.8470732089478 153.37247931324237 L 283.19173766339065 155.10522453659505 L 283.3993900089954 156.85967034612375 Z" fill-opacity="1" stroke-opacity="1" stroke-miterlimit="10" stroke-width="2"/><text fill="rgb(255,255,255)" stroke="none" font-family="times new roman" font-size="15px" font-style="normal" font-weight="normal" text-decoration="normal" x="260.96875" y="166.125" text-anchor="middle" dominant-baseline="text-after-edge" fill-opacity="1">*39</text><path fill="rgb(69,90,100)" stroke="rgb(76,175,80)" paint-order="fill stroke markers" d=" M 439.46875 158.625 L 439.3993900089954 160.3903296538765 L 439.1917376633906 162.14477546340518 L 438.84707320894773 163.87752068675786 L 438.36752161664094 165.57788237343632 L 437.75603948150393 167.23537722821453 L 437.0163967942383 168.83978624413982 L 436.15315369796707 170.38121770610886 L 435.1716323734363 171.85016817658064 L 434.0778842260007 173.23758108742913 L 432.87865257669733 174.5349025766973 L 431.58133108742913 175.7341342260007 L 430.19391817658067 176.82788237343632 L 428.7249677061088 177.80940369796707 L 427.1835362441398 178.6726467942383 L 425.57912722821453 179.41228948150396 L 423.9216323734363 180.02377161664094 L 422.22127068675786 180.50332320894773 L 420.4885254634052 180.8479876633906 L 418.7340796538765 181.05564000899537 L 416.96875 181.125 L 415.2034203461235 181.05564000899537 L 413.4489745365948 180.8479876633906 L 411.71622931324214 180.50332320894773 L 410.0158676265637 180.02377161664094 L 408.35837277178547 179.41228948150396 L 406.7539637558602 178.6726467942383 L 405.2125322938912 177.80940369796707 L 403.74358182341933 176.82788237343632 L 402.35616891257087 175.7341342260007 L 401.05884742330267 174.53490257669733 L 399.8596157739993 173.23758108742913 L 398.7658676265637 171.85016817658064 L 397.78434630203293 170.38121770610886 L 396.9211032057617 168.83978624413982 L 396.18146051849607 167.23537722821453 L 395.56997838335906 165.57788237343632 L 395.09042679105227 163.87752068675786 L 394.7457623366094 162.1447754634052 L 394.5381099910046 160.3903296538765 L 394.46875 158.625 L 394.5381099910046 156.8596703461235 L 394.7457623366094 155.10522453659482 L 395.09042679105227 153.37247931324214 L 395.56997838335906 151.67211762656368 L 396.18146051849607 150.01462277178547 L 396.9211032057617 148.4102137558602 L 397.78434630203293 146.86878229389114 L 398.7658676265637 145.39983182341936 L 399.8596157739993 144.01241891257087 L 401.05884742330267 142.7150974233027 L 402.35616891257087 141.5158657739993 L 403.74358182341933 140.42211762656368 L 405.2125322938912 139.44059630203293 L 406.75396375586024 138.5773532057617 L 408.3583727717855 137.83771051849604 L 410.0158676265637 137.22622838335903 L 411.7162293132422 136.74667679105227 L 413.44897453659485 136.4020123366094 L 415.20342034612355 136.1943599910046 L 416.96875000000006 136.125 L 418.7340796538766 136.19435999100463 L 420.48852546340527 136.4020123366094 L 422.221270686758 136.7466767910523 L 423.9216323734364 137.22622838335909 L 425.57912722821465 137.8377105184961 L 427.18353624413993 138.5773532057618 L 428.724967706109 139.440596302033 L 430.1939181765808 140.42211762656376 L 431.58133108742925 141.51586577399942 L 432.87865257669745 142.7150974233028 L 434.07788422600083 144.012418912571 L 435.1716323734364 145.3998318234195 L 436.1531536979672 146.86878229389131 L 437.0163967942384 148.41021375586038 L 437.75603948150405 150.0146227717857 L 438.36752161664106 151.6721176265639 L 438.8470732089478 153.37247931324237 L 439.19173766339065 155.10522453659505 L 439.3993900089954 156.85967034612375 Z" fill-opacity="1" stroke-opacity="1" stroke-miterlimit="10" stroke-width="2"/><text fill="rgb(255,255,255)" stroke="none" font-family="times new roman" font-size="15px" font-style="normal" font-weight="normal" text-decoration="normal" x="416.96875" y="166.125" text-anchor="middle" dominant-baseline="text-after-edge" fill-opacity="1">*34</text><path fill="rgb(69,90,100)" stroke="rgb(76,175,80)" paint-order="fill stroke markers" d=" M 1014.71875 222.875 L 1057.21875 222.875 L 1057.21875 222.875 A 5 5 0 0 1 1062.21875 227.875 L 1062.21875 237.875 L 1062.21875 237.875 A 5 5 0 0 1 1057.21875 242.875 L 972.21875 242.875 L 972.21875 242.875 A 5 5 0 0 1 967.21875 237.875 L 967.21875 227.875 L 967.21875 227.875 A 5 5 0 0 1 972.21875 222.875 L 1014.71875 222.875 Z" fill-opacity="1" stroke-opacity="1" stroke-miterlimit="10" stroke-width="2"/><text fill="rgb(255,255,255)" stroke="none" font-family="times new roman" font-size="10px" font-style="normal" font-weight="normal" text-decoration="normal" x="1014.71875" y="237.875" text-anchor="middle" dominant-baseline="text-after-edge" fill-opacity="1">42132025_4213202…</text><path fill="rgb(69,90,100)" stroke="rgb(76,175,80)" paint-order="fill stroke markers" d=" M 318.71875 232.875 L 318.6493900089954 234.6403296538765 L 318.4417376633906 236.39477546340518 L 318.09707320894773 238.12752068675786 L 317.61752161664094 239.82788237343632 L 317.00603948150393 241.48537722821453 L 316.2663967942383 243.08978624413982 L 315.40315369796707 244.63121770610886 L 314.4216323734363 246.10016817658064 L 313.3278842260007 247.48758108742913 L 312.12865257669733 248.7849025766973 L 310.83133108742913 249.9841342260007 L 309.44391817658067 251.07788237343632 L 307.9749677061088 252.05940369796707 L 306.4335362441398 252.9226467942383 L 304.82912722821453 253.66228948150396 L 303.1716323734363 254.27377161664094 L 301.47127068675786 254.75332320894773 L 299.7385254634052 255.0979876633906 L 297.9840796538765 255.30564000899537 L 296.21875 255.375 L 294.4534203461235 255.30564000899537 L 292.6989745365948 255.0979876633906 L 290.96622931324214 254.75332320894773 L 289.2658676265637 254.27377161664094 L 287.60837277178547 253.66228948150396 L 286.0039637558602 252.9226467942383 L 284.4625322938912 252.05940369796707 L 282.99358182341933 251.07788237343632 L 281.60616891257087 249.9841342260007 L 280.30884742330267 248.78490257669733 L 279.1096157739993 247.48758108742913 L 278.0158676265637 246.10016817658064 L 277.03434630203293 244.63121770610886 L 276.1711032057617 243.08978624413982 L 275.43146051849607 241.48537722821453 L 274.81997838335906 239.82788237343632 L 274.34042679105227 238.12752068675786 L 273.9957623366094 236.3947754634052 L 273.7881099910046 234.6403296538765 L 273.71875 232.875 L 273.7881099910046 231.1096703461235 L 273.9957623366094 229.35522453659482 L 274.34042679105227 227.62247931324214 L 274.81997838335906 225.92211762656368 L 275.43146051849607 224.26462277178547 L 276.1711032057617 222.6602137558602 L 277.03434630203293 221.11878229389114 L 278.0158676265637 219.64983182341936 L 279.1096157739993 218.26241891257087 L 280.30884742330267 216.9650974233027 L 281.60616891257087 215.7658657739993 L 282.99358182341933 214.67211762656368 L 284.4625322938912 213.69059630203293 L 286.00396375586024 212.8273532057617 L 287.6083727717855 212.08771051849604 L 289.2658676265637 211.47622838335903 L 290.9662293132422 210.99667679105227 L 292.69897453659485 210.6520123366094 L 294.45342034612355 210.4443599910046 L 296.21875000000006 210.375 L 297.9840796538766 210.44435999100463 L 299.73852546340527 210.6520123366094 L 301.471270686758 210.9966767910523 L 303.1716323734364 211.47622838335909 L 304.82912722821465 212.0877105184961 L 306.43353624413993 212.8273532057618 L 307.974967706109 213.690596302033 L 309.4439181765808 214.67211762656376 L 310.83133108742925 215.76586577399942 L 312.12865257669745 216.9650974233028 L 313.32788422600083 218.262418912571 L 314.4216323734364 219.6498318234195 L 315.4031536979672 221.11878229389131 L 316.2663967942384 222.66021375586038 L 317.00603948150405 224.2646227717857 L 317.61752161664106 225.9221176265639 L 318.0970732089478 227.62247931324237 L 318.44173766339065 229.35522453659505 L 318.6493900089954 231.10967034612375 Z" fill-opacity="1" stroke-opacity="1" stroke-miterlimit="10" stroke-width="2"/><text fill="rgb(255,255,255)" stroke="none" font-family="times new roman" font-size="15px" font-style="normal" font-weight="normal" text-decoration="normal" x="296.21875" y="240.375" text-anchor="middle" dominant-baseline="text-after-edge" fill-opacity="1">*2</text><path fill="rgb(69,90,100)" stroke="rgb(158,158,158)" paint-order="fill stroke markers" d=" M 341.71875 222.875 L 341.71875 242.875 L 436.71875 242.875 L 436.71875 222.875 Z" fill-opacity="1" stroke-opacity="1" stroke-miterlimit="10" stroke-width="2"/><text fill="rgb(255,255,255)" stroke="none" font-family="times new roman" font-size="10px" font-style="normal" font-weight="normal" text-decoration="normal" x="389.21875" y="237.875" text-anchor="middle" dominant-baseline="text-after-edge" fill-opacity="1">42130761C&gt;T</text><path fill="rgb(69,90,100)" stroke="rgb(76,175,80)" paint-order="fill stroke markers" d=" M 389.84375 88.125 L 389.78980334032974 89.49803417523728 L 389.6282959604149 90.86260313820404 L 389.3602236069593 92.21029386747834 L 388.9872390351652 93.53279740156158 L 388.5116418189475 94.82196006638907 L 387.93636417329645 96.06983374544207 L 387.2649528761966 97.2687248825291 L 386.5015474015616 98.41124191511828 L 385.65085439800055 99.4903408457782 L 384.71811867076457 100.49936867076458 L 383.70909084577823 101.43210439800055 L 382.6299919151183 102.28279740156158 L 381.4874748825291 103.04620287619662 L 380.28858374544205 103.71761417329644 L 379.04071006638907 104.29289181894751 L 377.7515474015616 104.76848903516519 L 376.42904386747836 105.14147360695934 L 375.08135313820407 105.4095459604149 L 373.7167841752373 105.57105334032974 L 372.34375 105.625 L 370.9707158247627 105.57105334032974 L 369.60614686179593 105.4095459604149 L 368.25845613252164 105.14147360695934 L 366.9359525984384 104.76848903516519 L 365.64678993361093 104.29289181894751 L 364.39891625455795 103.71761417329644 L 363.2000251174709 103.04620287619662 L 362.0575080848817 102.28279740156158 L 360.97840915422177 101.43210439800055 L 359.96938132923543 100.49936867076458 L 359.03664560199945 99.49034084577822 L 358.1859525984384 98.41124191511828 L 357.4225471238034 97.26872488252911 L 356.75113582670355 96.06983374544207 L 356.1758581810525 94.82196006638907 L 355.7002609648348 93.53279740156158 L 355.3272763930407 92.21029386747834 L 355.0592040395851 90.86260313820404 L 354.89769665967026 89.4980341752373 L 354.84375 88.125 L 354.89769665967026 86.75196582476272 L 355.0592040395851 85.38739686179596 L 355.3272763930407 84.03970613252166 L 355.7002609648348 82.71720259843842 L 356.1758581810525 81.42803993361093 L 356.75113582670355 80.18016625455793 L 357.4225471238034 78.9812751174709 L 358.1859525984384 77.83875808488172 L 359.03664560199945 76.7596591542218 L 359.96938132923543 75.75063132923542 L 360.97840915422177 74.81789560199947 L 362.0575080848817 73.96720259843842 L 363.2000251174709 73.20379712380338 L 364.39891625455795 72.53238582670356 L 365.64678993361093 71.95710818105248 L 366.93595259843846 71.4815109648348 L 368.2584561325217 71.10852639304065 L 369.606146861796 70.84045403958508 L 370.97071582476275 70.67894665967026 L 372.34375000000006 70.625 L 373.71678417523736 70.67894665967026 L 375.0813531382041 70.8404540395851 L 376.4290438674784 71.10852639304068 L 377.75154740156165 71.48151096483484 L 379.0407100663892 71.95710818105252 L 380.28858374544217 72.5323858267036 L 381.4874748825292 73.20379712380344 L 382.62999191511835 73.96720259843849 L 383.7090908457783 74.81789560199954 L 384.7181186707647 75.75063132923552 L 385.65085439800066 76.7596591542219 L 386.50154740156165 77.83875808488185 L 387.2649528761967 78.98127511747103 L 387.9363641732965 80.18016625455807 L 388.51164181894757 81.42803993361109 L 388.98723903516526 82.71720259843859 L 389.3602236069594 84.03970613252184 L 389.62829596041496 85.38739686179616 L 389.78980334032974 86.75196582476292 Z" fill-opacity="1" stroke-opacity="1" stroke-miterlimit="10" stroke-width="2"/><text fill="rgb(255,255,255)" stroke="none" font-family="times new roman" font-size="10px" font-style="normal" font-weight="normal" text-decoration="normal" x="372.34375" y="93.125" text-anchor="middle" dominant-baseline="text-after-edge" fill-opacity="1">*34.1</text><path fill="rgb(69,90,100)" stroke="rgb(76,175,80)" paint-order="fill stroke markers" d=" M 902.96875 222.875 L 945.46875 222.875 L 945.46875 222.875 A 5 5 0 0 1 950.46875 227.875 L 950.46875 237.875 L 950.46875 237.875 A 5 5 0 0 1 945.46875 242.875 L 860.46875 242.875 L 860.46875 242.875 A 5 5 0 0 1 855.46875 237.875 L 855.46875 227.875 L 855.46875 227.875 A 5 5 0 0 1 860.46875 222.875 L 902.96875 222.875 Z" fill-opacity="1" stroke-opacity="1" stroke-miterlimit="10" stroke-width="2"/><text fill="rgb(255,255,255)" stroke="none" font-family="times new roman" font-size="10px" font-style="normal" font-weight="normal" text-decoration="normal" x="902.96875" y="237.875" text-anchor="middle" dominant-baseline="text-after-edge" fill-opacity="1">42132049dup</text><path fill="rgb(69,90,100)" stroke="rgb(76,175,80)" paint-order="fill stroke markers" d=" M 400.46875 368.25 L 400.3993900089954 370.0153296538765 L 400.1917376633906 371.7697754634052 L 399.84707320894773 373.50252068675786 L 399.36752161664094 375.2028823734363 L 398.75603948150393 376.86037722821453 L 398.0163967942383 378.4647862441398 L 397.15315369796707 380.0062177061088 L 396.1716323734363 381.47516817658067 L 395.0778842260007 382.86258108742913 L 393.87865257669733 384.15990257669733 L 392.58133108742913 385.3591342260007 L 391.19391817658067 386.4528823734363 L 389.7249677061088 387.43440369796707 L 388.1835362441398 388.2976467942383 L 386.57912722821453 389.03728948150393 L 384.9216323734363 389.64877161664094 L 383.22127068675786 390.12832320894773 L 381.4885254634052 390.4729876633906 L 379.7340796538765 390.6806400089954 L 377.96875 390.75 L 376.2034203461235 390.6806400089954 L 374.4489745365948 390.4729876633906 L 372.71622931324214 390.12832320894773 L 371.0158676265637 389.64877161664094 L 369.35837277178547 389.03728948150393 L 367.7539637558602 388.2976467942383 L 366.2125322938912 387.43440369796707 L 364.74358182341933 386.4528823734363 L 363.35616891257087 385.3591342260007 L 362.05884742330267 384.15990257669733 L 360.8596157739993 382.86258108742913 L 359.7658676265637 381.47516817658067 L 358.78434630203293 380.0062177061088 L 357.9211032057617 378.4647862441398 L 357.18146051849607 376.86037722821453 L 356.56997838335906 375.2028823734363 L 356.09042679105227 373.50252068675786 L 355.7457623366094 371.7697754634052 L 355.5381099910046 370.0153296538765 L 355.46875 368.25 L 355.5381099910046 366.4846703461235 L 355.7457623366094 364.7302245365948 L 356.09042679105227 362.99747931324214 L 356.56997838335906 361.2971176265637 L 357.18146051849607 359.63962277178547 L 357.9211032057617 358.0352137558602 L 358.78434630203293 356.4937822938912 L 359.7658676265637 355.02483182341933 L 360.8596157739993 353.63741891257087 L 362.05884742330267 352.34009742330267 L 363.35616891257087 351.14086577399934 L 364.74358182341933 350.0471176265637 L 366.2125322938912 349.06559630203293 L 367.75396375586024 348.2023532057617 L 369.3583727717855 347.462710518496 L 371.0158676265637 346.85122838335906 L 372.7162293132422 346.37167679105227 L 374.44897453659485 346.0270123366094 L 376.20342034612355 345.8193599910046 L 377.96875000000006 345.75 L 379.7340796538766 345.8193599910046 L 381.48852546340527 346.0270123366094 L 383.221270686758 346.3716767910523 L 384.9216323734364 346.85122838335906 L 386.57912722821465 347.4627105184961 L 388.18353624413993 348.20235320576177 L 389.724967706109 349.065596302033 L 391.1939181765808 350.04711762656376 L 392.58133108742925 351.1408657739994 L 393.87865257669745 352.3400974233028 L 395.07788422600083 353.637418912571 L 396.1716323734364 355.0248318234195 L 397.1531536979672 356.49378229389134 L 398.0163967942384 358.0352137558604 L 398.75603948150405 359.6396227717857 L 399.36752161664106 361.29711762656393 L 399.8470732089478 362.99747931324237 L 400.19173766339065 364.7302245365951 L 400.3993900089954 366.4846703461238 Z" fill-opacity="1" stroke-opacity="1" stroke-miterlimit="10" stroke-width="2"/><text fill="rgb(255,255,255)" stroke="none" font-family="times new roman" font-size="15px" font-style="normal" font-weight="normal" text-decoration="normal" x="377.96875" y="375.75" text-anchor="middle" dominant-baseline="text-after-edge" fill-opacity="1">*35</text><path fill="rgb(3,169,244)" stroke="none" paint-order="stroke fill markers" d=" M 377.96875 335.75 L 402.46875 335.75 L 402.46875 335.75 A 8 8 0 0 1 410.46875 343.75 L 410.46875 392.75 L 410.46875 392.75 A 8 8 0 0 1 402.46875 400.75 L 353.46875 400.75 L 353.46875 400.75 A 8 8 0 0 1 345.46875 392.75 L 345.46875 343.75 L 345.46875 343.75 A 8 8 0 0 1 353.46875 335.75 L 377.96875 335.75 Z" fill-opacity="0.15"/><path fill="rgb(69,90,100)" stroke="rgb(158,158,158)" paint-order="fill stroke markers" d=" M 168.84375 78.125 L 168.84375 98.125 L 263.84375 98.125 L 263.84375 78.125 Z" fill-opacity="1" stroke-opacity="1" stroke-miterlimit="10" stroke-width="2"/><text fill="rgb(255,255,255)" stroke="none" font-family="times new roman" font-size="10px" font-style="normal" font-weight="normal" text-decoration="normal" x="216.34375" y="93.125" text-anchor="middle" dominant-baseline="text-after-edge" fill-opacity="1">42126611C&gt;G</text><path fill="rgb(69,90,100)" stroke="rgb(76,175,80)" paint-order="fill stroke markers" d=" M 788.09375 368.25 L 788.0398033403297 369.6230341752373 L 787.8782959604149 370.98760313820407 L 787.6102236069594 372.33529386747836 L 787.2372390351652 373.6577974015616 L 786.7616418189475 374.94696006638907 L 786.1863641732964 376.19483374544205 L 785.5149528761966 377.3937248825291 L 784.7515474015615 378.5362419151183 L 783.9008543980005 379.61534084577823 L 782.9681186707646 380.62436867076457 L 781.9590908457782 381.55710439800055 L 780.8799919151182 382.4077974015616 L 779.7374748825291 383.1712028761966 L 778.5385837454421 383.84261417329645 L 777.2907100663891 384.4178918189475 L 776.0015474015615 384.8934890351652 L 774.6790438674783 385.2664736069593 L 773.331353138204 385.5345459604149 L 771.9667841752373 385.69605334032974 L 770.59375 385.75 L 769.2207158247627 385.69605334032974 L 767.856146861796 385.5345459604149 L 766.5084561325217 385.2664736069593 L 765.1859525984385 384.8934890351652 L 763.8967899336109 384.4178918189475 L 762.6489162545579 383.84261417329645 L 761.4500251174709 383.1712028761966 L 760.3075080848818 382.4077974015616 L 759.2284091542218 381.55710439800055 L 758.2193813292354 380.62436867076457 L 757.2866456019995 379.61534084577823 L 756.4359525984385 378.5362419151183 L 755.6725471238034 377.3937248825291 L 755.0011358267036 376.19483374544205 L 754.4258581810525 374.94696006638907 L 753.9502609648348 373.6577974015616 L 753.5772763930406 372.33529386747836 L 753.3092040395851 370.98760313820407 L 753.1476966596703 369.6230341752373 L 753.09375 368.25 L 753.1476966596703 366.8769658247627 L 753.3092040395851 365.51239686179593 L 753.5772763930406 364.16470613252164 L 753.9502609648348 362.8422025984384 L 754.4258581810525 361.55303993361093 L 755.0011358267036 360.30516625455795 L 755.6725471238034 359.1062751174709 L 756.4359525984385 357.9637580848817 L 757.2866456019995 356.88465915422177 L 758.2193813292354 355.87563132923543 L 759.2284091542218 354.94289560199945 L 760.3075080848818 354.0922025984384 L 761.4500251174709 353.3287971238034 L 762.6489162545579 352.65738582670355 L 763.896789933611 352.0821081810525 L 765.1859525984385 351.6065109648348 L 766.5084561325217 351.2335263930407 L 767.856146861796 350.9654540395851 L 769.2207158247628 350.80394665967026 L 770.5937500000001 350.75 L 771.9667841752373 350.80394665967026 L 773.3313531382041 350.9654540395851 L 774.6790438674784 351.2335263930407 L 776.0015474015617 351.60651096483485 L 777.2907100663891 352.0821081810525 L 778.5385837454421 352.6573858267036 L 779.7374748825292 353.32879712380344 L 780.8799919151184 354.0922025984385 L 781.9590908457783 354.94289560199957 L 782.9681186707646 355.8756313292355 L 783.9008543980007 356.8846591542219 L 784.7515474015617 357.9637580848818 L 785.5149528761967 359.10627511747106 L 786.1863641732965 360.30516625455806 L 786.7616418189476 361.5530399336111 L 787.2372390351652 362.8422025984386 L 787.6102236069594 364.1647061325218 L 787.8782959604149 365.51239686179616 L 788.0398033403297 366.8769658247629 Z" fill-opacity="1" stroke-opacity="1" stroke-miterlimit="10" stroke-width="2"/><text fill="rgb(255,255,255)" stroke="none" font-family="times new roman" font-size="10px" font-style="normal" font-weight="normal" text-decoration="normal" x="770.59375" y="373.25" text-anchor="middle" dominant-baseline="text-after-edge" fill-opacity="1">*1.58</text><path fill="rgb(69,90,100)" stroke="rgb(255,193,7)" paint-order="fill stroke markers" d=" M 580.84375 368.25 L 580.7743900089954 370.0153296538765 L 580.5667376633907 371.7697754634052 L 580.2220732089477 373.50252068675786 L 579.7425216166409 375.2028823734363 L 579.131039481504 376.86037722821453 L 578.3913967942383 378.4647862441398 L 577.5281536979671 380.0062177061088 L 576.5466323734363 381.47516817658067 L 575.4528842260007 382.86258108742913 L 574.2536525766973 384.15990257669733 L 572.9563310874291 385.3591342260007 L 571.5689181765806 386.4528823734363 L 570.0999677061088 387.43440369796707 L 568.5585362441398 388.2976467942383 L 566.9541272282145 389.03728948150393 L 565.2966323734363 389.64877161664094 L 563.5962706867579 390.12832320894773 L 561.8635254634052 390.4729876633906 L 560.1090796538765 390.6806400089954 L 558.34375 390.75 L 556.5784203461235 390.6806400089954 L 554.8239745365948 390.4729876633906 L 553.0912293132421 390.12832320894773 L 551.3908676265637 389.64877161664094 L 549.7333727717855 389.03728948150393 L 548.1289637558602 388.2976467942383 L 546.5875322938912 387.43440369796707 L 545.1185818234194 386.4528823734363 L 543.7311689125709 385.3591342260007 L 542.4338474233027 384.15990257669733 L 541.2346157739993 382.86258108742913 L 540.1408676265637 381.47516817658067 L 539.1593463020329 380.0062177061088 L 538.2961032057617 378.4647862441398 L 537.556460518496 376.86037722821453 L 536.9449783833591 375.2028823734363 L 536.4654267910523 373.50252068675786 L 536.1207623366095 371.7697754634052 L 535.9131099910046 370.0153296538765 L 535.84375 368.25 L 535.9131099910046 366.4846703461235 L 536.1207623366093 364.7302245365948 L 536.4654267910523 362.99747931324214 L 536.9449783833591 361.2971176265637 L 537.556460518496 359.63962277178547 L 538.2961032057617 358.0352137558602 L 539.1593463020329 356.4937822938912 L 540.1408676265637 355.02483182341933 L 541.2346157739993 353.63741891257087 L 542.4338474233027 352.34009742330267 L 543.7311689125709 351.14086577399934 L 545.1185818234194 350.0471176265637 L 546.5875322938912 349.06559630203293 L 548.1289637558602 348.2023532057617 L 549.7333727717855 347.462710518496 L 551.3908676265637 346.85122838335906 L 553.0912293132421 346.37167679105227 L 554.8239745365948 346.0270123366094 L 556.5784203461236 345.8193599910046 L 558.3437500000001 345.75 L 560.1090796538766 345.8193599910046 L 561.8635254634053 346.0270123366094 L 563.596270686758 346.3716767910523 L 565.2966323734364 346.85122838335906 L 566.9541272282146 347.4627105184961 L 568.5585362441399 348.20235320576177 L 570.0999677061089 349.065596302033 L 571.5689181765807 350.04711762656376 L 572.9563310874292 351.1408657739994 L 574.2536525766974 352.3400974233028 L 575.4528842260008 353.637418912571 L 576.5466323734364 355.0248318234195 L 577.5281536979671 356.49378229389134 L 578.3913967942384 358.0352137558604 L 579.131039481504 359.6396227717857 L 579.742521616641 361.29711762656393 L 580.2220732089478 362.99747931324237 L 580.5667376633907 364.7302245365951 L 580.7743900089954 366.4846703461238 Z" fill-opacity="1" stroke-opacity="1" stroke-miterlimit="10" stroke-width="2"/><text fill="rgb(255,255,255)" stroke="none" font-family="times new roman" font-size="15px" font-style="normal" font-weight="normal" text-decoration="normal" x="558.34375" y="375.75" text-anchor="middle" dominant-baseline="text-after-edge" fill-opacity="1">*9</text><path fill="rgb(3,169,244)" stroke="none" paint-order="stroke fill markers" d=" M 558.34375 335.75 L 582.84375 335.75 L 582.84375 335.75 A 8 8 0 0 1 590.84375 343.75 L 590.84375 392.75 L 590.84375 392.75 A 8 8 0 0 1 582.84375 400.75 L 533.84375 400.75 L 533.84375 400.75 A 8 8 0 0 1 525.84375 392.75 L 525.84375 343.75 L 525.84375 343.75 A 8 8 0 0 1 533.84375 335.75 L 558.34375 335.75 Z" fill-opacity="0.15"/><path fill="rgb(69,90,100)" stroke="rgb(158,158,158)" paint-order="fill stroke markers" d=" M 414.09375 78.125 L 414.09375 98.125 L 509.09375 98.125 L 509.09375 78.125 Z" fill-opacity="1" stroke-opacity="1" stroke-miterlimit="10" stroke-width="2"/><text fill="rgb(255,255,255)" stroke="none" font-family="times new roman" font-size="10px" font-style="normal" font-weight="normal" text-decoration="normal" x="461.59375" y="93.125" text-anchor="middle" dominant-baseline="text-after-edge" fill-opacity="1">42127941G&gt;A</text><path fill="rgb(69,90,100)" stroke="rgb(69,90,100)" paint-order="fill stroke markers" d=" M 863.59375 482.375 L 844.84375 499.875 L 863.59375 517.375 L 901.09375 517.375 L 919.84375 499.875 L 901.09375 482.375 Z" fill-opacity="1" stroke-opacity="1" stroke-miterlimit="10" stroke-width="2"/><text fill="rgb(255,255,255)" stroke="none" font-family="times new roman" font-size="10px" font-style="normal" font-weight="normal" text-decoration="normal" x="882.34375" y="504.875" text-anchor="middle" dominant-baseline="text-after-edge" fill-opacity="1">NA07000-all</text><path fill="rgb(69,90,100)" stroke="rgb(76,175,80)" paint-order="fill stroke markers" d=" M 1169.90625 148.625 L 1169.90625 168.625 L 1264.90625 168.625 L 1264.90625 148.625 Z" fill-opacity="1" stroke-opacity="1" stroke-miterlimit="10" stroke-width="2"/><text fill="rgb(255,255,255)" stroke="none" font-family="times new roman" font-size="10px" font-style="normal" font-weight="normal" text-decoration="normal" x="1217.40625" y="163.625" text-anchor="middle" dominant-baseline="text-after-edge" fill-opacity="1">42127407T&gt;G</text><path fill="rgb(69,90,100)" stroke="rgb(76,175,80)" paint-order="fill stroke markers" d=" M 1078.96875 222.875 L 1078.96875 242.875 L 1173.96875 242.875 L 1173.96875 222.875 Z" fill-opacity="1" stroke-opacity="1" stroke-miterlimit="10" stroke-width="2"/><text fill="rgb(255,255,255)" stroke="none" font-family="times new roman" font-size="10px" font-style="normal" font-weight="normal" text-decoration="normal" x="1126.46875" y="237.875" text-anchor="middle" dominant-baseline="text-after-edge" fill-opacity="1">42130047G&gt;C</text><path fill="rgb(176,190,197)" stroke="none" paint-order="stroke fill markers" d=" M 1089.53125 263.25 L 1089.53125 473.25 L 1164.53125 473.25 L 1164.53125 263.25000000000006 Z" fill-opacity="0.8"/><text fill="rgb(0,0,0)" stroke="none" font-family="times new roman" font-size="10px" font-style="normal" font-weight="normal" text-decoration="normal" x="1094.53125" y="278.25" text-anchor="start" dominant-baseline="text-after-edge" fill-opacity="0.8">42126310C&gt;T </text><text fill="rgb(0,0,0)" stroke="none" font-family="times new roman" font-size="10px" font-style="normal" font-weight="normal" text-decoration="normal" x="1094.53125" y="288.25" text-anchor="start" dominant-baseline="text-after-edge" fill-opacity="0.8">42127001G&gt;A </text><text fill="rgb(0,0,0)" stroke="none" font-family="times new roman" font-size="10px" font-style="normal" font-weight="normal" text-decoration="normal" x="1094.53125" y="298.25" text-anchor="start" dominant-baseline="text-after-edge" fill-opacity="0.8">42127207C&gt;T </text><text fill="rgb(0,0,0)" stroke="none" font-family="times new roman" font-size="10px" font-style="normal" font-weight="normal" text-decoration="normal" x="1094.53125" y="308.25" text-anchor="start" dominant-baseline="text-after-edge" fill-opacity="0.8">42129130C&gt;G </text><text fill="rgb(0,0,0)" stroke="none" font-family="times new roman" font-size="10px" font-style="normal" font-weight="normal" text-decoration="normal" x="1094.53125" y="318.25" text-anchor="start" dominant-baseline="text-after-edge" fill-opacity="0.8">42131469C&gt;T </text><text fill="rgb(0,0,0)" stroke="none" font-family="times new roman" font-size="10px" font-style="normal" font-weight="normal" text-decoration="normal" x="1094.53125" y="328.25" text-anchor="start" dominant-baseline="text-after-edge" fill-opacity="0.8">42131531G&gt;A </text><text fill="rgb(0,0,0)" stroke="none" font-family="times new roman" font-size="10px" font-style="normal" font-weight="normal" text-decoration="normal" x="1094.53125" y="338.25" text-anchor="start" dominant-baseline="text-after-edge" fill-opacity="0.8">42132026T&gt;C </text><text fill="rgb(0,0,0)" stroke="none" font-family="times new roman" font-size="10px" font-style="normal" font-weight="normal" text-decoration="normal" x="1094.53125" y="348.25" text-anchor="start" dominant-baseline="text-after-edge" fill-opacity="0.8">42132375G&gt;C </text><path fill="rgb(176,190,197)" stroke="none" paint-order="stroke fill markers" d=" M 994.09375 263.25 L 1061.09375 263.25 L 1061.09375 263.25 A 8 8 0 0 1 1069.09375 271.25 L 1069.09375 465.25 L 1069.09375 465.25 A 8 8 0 0 1 1061.09375 473.25 L 927.09375 473.25 L 927.09375 473.25 A 8 8 0 0 1 919.09375 465.25 L 919.09375 271.25 L 919.09375 271.25 A 8 8 0 0 1 927.09375 263.25 L 994.09375 263.25 Z" fill-opacity="0.8"/><text fill="rgb(0,0,0)" stroke="none" font-family="times new roman" font-size="10px" font-style="normal" font-weight="normal" text-decoration="normal" x="924.09375" y="278.25" text-anchor="start" dominant-baseline="text-after-edge" fill-opacity="0.8">42125924A&gt;G </text><text fill="rgb(0,0,0)" stroke="none" font-family="times new roman" font-size="10px" font-style="normal" font-weight="normal" text-decoration="normal" x="924.09375" y="288.25" text-anchor="start" dominant-baseline="text-after-edge" fill-opacity="0.8">42126069A&gt;C </text><text fill="rgb(0,0,0)" stroke="none" font-family="times new roman" font-size="10px" font-style="normal" font-weight="normal" text-decoration="normal" x="924.09375" y="298.25" text-anchor="start" dominant-baseline="text-after-edge" fill-opacity="0.8">42126136_42126138del </text><text fill="rgb(0,0,0)" stroke="none" font-family="times new roman" font-size="10px" font-style="normal" font-weight="normal" text-decoration="normal" x="924.09375" y="308.25" text-anchor="start" dominant-baseline="text-after-edge" fill-opacity="0.8">42132025_42132026insCCTTTT </text><text fill="rgb(0,0,0)" stroke="none" font-family="times new roman" font-size="10px" font-style="normal" font-weight="normal" text-decoration="normal" x="924.09375" y="318.25" text-anchor="start" dominant-baseline="text-after-edge" fill-opacity="0.8">42132027C&gt;T </text><text fill="rgb(0,0,0)" stroke="none" font-family="times new roman" font-size="10px" font-style="normal" font-weight="normal" text-decoration="normal" x="924.09375" y="328.25" text-anchor="start" dominant-baseline="text-after-edge" fill-opacity="0.8">42132561C&gt;T </text><text fill="rgb(0,0,0)" stroke="none" font-family="times new roman" font-size="10px" font-style="normal" font-weight="normal" text-decoration="normal" x="924.09375" y="338.25" text-anchor="start" dominant-baseline="text-after-edge" fill-opacity="0.8">42132844C&gt;A </text><text fill="rgb(0,0,0)" stroke="none" font-family="times new roman" font-size="10px" font-style="normal" font-weight="normal" text-decoration="normal" x="924.09375" y="348.25" text-anchor="start" dominant-baseline="text-after-edge" fill-opacity="0.8">42132851T&gt;C </text><text fill="rgb(0,0,0)" stroke="none" font-family="times new roman" font-size="10px" font-style="normal" font-weight="normal" text-decoration="normal" x="924.09375" y="358.25" text-anchor="start" dominant-baseline="text-after-edge" fill-opacity="0.8">42133400T&gt;G </text><text fill="rgb(0,0,0)" stroke="none" font-family="times new roman" font-size="10px" font-style="normal" font-weight="normal" text-decoration="normal" x="924.09375" y="368.25" text-anchor="start" dominant-baseline="text-after-edge" fill-opacity="0.8">42133533A&gt;C </text><text fill="rgb(0,0,0)" stroke="none" font-family="times new roman" font-size="10px" font-style="normal" font-weight="normal" text-decoration="normal" x="924.09375" y="378.25" text-anchor="start" dominant-baseline="text-after-edge" fill-opacity="0.8">42134096del </text><text fill="rgb(0,0,0)" stroke="none" font-family="times new roman" font-size="10px" font-style="normal" font-weight="normal" text-decoration="normal" x="924.09375" y="388.25" text-anchor="start" dominant-baseline="text-after-edge" fill-opacity="0.8">42134820T&gt;G </text><text fill="rgb(0,0,0)" stroke="none" font-family="times new roman" font-size="10px" font-style="normal" font-weight="normal" text-decoration="normal" x="924.09375" y="398.25" text-anchor="start" dominant-baseline="text-after-edge" fill-opacity="0.8">42135064_42135066dup </text><text fill="rgb(0,0,0)" stroke="none" font-family="times new roman" font-size="10px" font-style="normal" font-weight="normal" text-decoration="normal" x="924.09375" y="408.25" text-anchor="start" dominant-baseline="text-after-edge" fill-opacity="0.8">42135201T&gt;C </text><text fill="rgb(0,0,0)" stroke="none" font-family="times new roman" font-size="10px" font-style="normal" font-weight="normal" text-decoration="normal" x="924.09375" y="418.25" text-anchor="start" dominant-baseline="text-after-edge" fill-opacity="0.8">42135415G&gt;A </text><text fill="rgb(0,0,0)" stroke="none" font-family="times new roman" font-size="10px" font-style="normal" font-weight="normal" text-decoration="normal" x="924.09375" y="428.25" text-anchor="start" dominant-baseline="text-after-edge" fill-opacity="0.8">42135691T&gt;C </text><g transform="scale(1.1494905956112853,1.1494905956112853) translate(115.14581557866029,-48.23453212885633)"/></g></svg>