<svg version="1.1" xmlns="http://www.w3.org/2000/svg" xmlns:xlink="http://www.w3.org/1999/xlink" width="1017" height="608"><defs/><g transform="translate(-119.98841354723709,-25.18360071301248) scale(0.8270944741532977,0.8270944741532977)"><path fill="none" stroke="rgb(120,144,156)" paint-order="fill stroke markers" d=" M 289.70251394716684 554.5898426575837 L 784.4392203010782 673.9797250434365" stroke-opacity="1" stroke-linejoin="round" stroke-miterlimit="10"/><path fill="rgb(120,144,156)" stroke="none" paint-order="stroke fill markers" d=" M 776.9057319764021 676.6366130090778 L 786.3834109980692 674.4488972226347 L 778.9466309559144 668.179383477167 Z" fill-opacity="1"/><path fill="none" stroke="rgb(120,144,156)" paint-order="fill stroke markers" d=" M 741.8353988413497 343.65264706995674 L 1298.577098883078 415.9838610666335" stroke-opacity="1" stroke-linejoin="round" stroke-miterlimit="10"/><path fill="rgb(120,144,156)" stroke="none" paint-order="stroke fill markers" d=" M 1291.3725005004671 419.4344062620021 L 1300.560430699363 416.24153315769365 L 1292.4933740965787 410.80691286116195 Z" fill-opacity="1"/><path fill="none" stroke="rgb(120,144,156)" paint-order="fill stroke markers" d=" M 420.96875 561.6313229571984 L 785.9828211344625 672.413803690615" stroke-opacity="1" stroke-linejoin="round" stroke-miterlimit="10"/><path fill="rgb(120,144,156)" stroke="none" paint-order="stroke fill markers" d=" M 778.3082673085468 674.6304957245075 L 787.8966192455243 672.9946451406649 L 780.8349276162638 666.3054739413883 Z" fill-opacity="1"/><path fill="none" stroke="rgb(120,144,156)" paint-order="fill stroke markers" d=" M 794.924657698314 267.087169167207 L 972.8862028589176 333.46119285413863" stroke-opacity="1" stroke-linejoin="round" stroke-miterlimit="10"/><path fill="rgb(120,144,156)" stroke="none" paint-order="stroke fill markers" d=" M 965.0884893501493 335.19559881445264 L 974.760109897072 334.160100868369 L 968.1287392120514 327.0441031984811 Z" fill-opacity="1"/><path fill="none" stroke="rgb(120,144,156)" paint-order="fill stroke markers" d=" M 846.4607371794872 195.625 L 1300.36764895535 409.8745559365648" stroke-opacity="1" stroke-linejoin="round" stroke-miterlimit="10"/><path fill="rgb(120,144,156)" stroke="none" paint-order="stroke fill markers" d=" M 1292.4518899955892 410.9484554155506 L 1302.1762929597062 410.7282577964121 L 1296.1654930859252 403.08085399660166 Z" fill-opacity="1"/><path fill="none" stroke="rgb(120,144,156)" paint-order="fill stroke markers" d=" M 825.5803406174794 344.13368301156856 L 1298.6360326528372 415.56423396863164" stroke-opacity="1" stroke-linejoin="round" stroke-miterlimit="10"/><path fill="rgb(120,144,156)" stroke="none" paint-order="stroke fill markers" d=" M 1291.3616527278398 418.86512728814336 L 1300.6136148330481 415.86284528876513 L 1292.6606119704206 410.2626448042255 Z" fill-opacity="1"/><path fill="none" stroke="rgb(120,144,156)" paint-order="fill stroke markers" d=" M 951.34375 349.71738395673725 L 1298.757267380492 414.8476332718724" stroke-opacity="1" stroke-linejoin="round" stroke-miterlimit="10"/><path fill="rgb(120,144,156)" stroke="none" paint-order="stroke fill markers" d=" M 1291.370451340587 417.88859509218474 L 1300.7230217823953 415.2161568551043 L 1292.973528927646 409.33756344390576 Z" fill-opacity="1"/><path fill="none" stroke="rgb(120,144,156)" paint-order="fill stroke markers" d=" M 908.8455389087657 351.625 L 1007.4000258699944 532.2543711846781" stroke-opacity="1" stroke-linejoin="round" stroke-miterlimit="10"/><path fill="rgb(120,144,156)" stroke="none" paint-order="stroke fill markers" d=" M 1000.3723947959608 528.4563583506716 L 1008.3579501753608 534.0100422886119 L 1008.009564098073 524.2893876223277 Z" fill-opacity="1"/><path fill="none" stroke="rgb(120,144,156)" paint-order="fill stroke markers" d=" M 824.8215908252812 347.4804118646019 L 1038.4854207694357 412.6447470968367" stroke-opacity="1" stroke-linejoin="round" stroke-miterlimit="10"/><path fill="rgb(120,144,156)" stroke="none" paint-order="stroke fill markers" d=" M 1030.8078643804824 414.85101722862987 L 1040.3984284992468 413.22818640446235 L 1033.3458253686542 406.5294336039513 Z" fill-opacity="1"/><path fill="none" stroke="rgb(120,144,156)" paint-order="fill stroke markers" d=" M 1004.0436814671242 354.7476462793286 L 1044.8519340499433 402.9755811499332" stroke-opacity="1" stroke-linejoin="round" stroke-miterlimit="10"/><path fill="rgb(120,144,156)" stroke="none" paint-order="stroke fill markers" d=" M 1037.2033906907643 400.670741788338 L 1046.1438185328757 404.5023537206714 L 1043.8448513734756 395.0510442875823 Z" fill-opacity="1"/><path fill="none" stroke="rgb(120,144,156)" paint-order="fill stroke markers" d=" M 234.25970441595442 429.625 L 265.63905744457185 530.6722744316029" stroke-opacity="1" stroke-linejoin="round" stroke-miterlimit="10"/><path fill="rgb(120,144,156)" stroke="none" paint-order="stroke fill markers" d=" M 259.4977381107232 525.5637818124737 L 266.2321981816868 532.5822964382758 L 267.8063338397503 522.9836196060237 Z" fill-opacity="1"/><path fill="none" stroke="rgb(120,144,156)" paint-order="fill stroke markers" d=" M 501.1747935121757 557.0472102113379 L 788.0117479061621 670.3615275915171" stroke-opacity="1" stroke-linejoin="round" stroke-miterlimit="10"/><path fill="rgb(120,144,156)" stroke="none" paint-order="stroke fill markers" d=" M 780.1821070439514 671.9455806110847 L 789.8718607182892 671.0963611278779 L 783.3786329271212 663.8540898783317 Z" fill-opacity="1"/><path fill="none" stroke="rgb(120,144,156)" paint-order="fill stroke markers" d=" M 815.7118055555555 195.625 L 787.1984428851649 237.7566851398309" stroke-opacity="1" stroke-linejoin="round" stroke-miterlimit="10"/><path fill="rgb(120,144,156)" stroke="none" paint-order="stroke fill markers" d=" M 787.3511104415912 229.76987146870928 L 786.0774865804461 239.4130235602363 L 794.5561825703547 234.64603139423613 Z" fill-opacity="1"/><path fill="none" stroke="rgb(120,144,156)" paint-order="fill stroke markers" d=" M 779.4006986842903 281.45977664904217 L 813.178379871151 398.92338632743133" stroke-opacity="1" stroke-linejoin="round" stroke-miterlimit="10"/><path fill="rgb(120,144,156)" stroke="none" paint-order="stroke fill markers" d=" M 807.1461847814455 393.6864862520305 L 813.7310989081119 400.8454949784136 L 815.5073574132186 391.28215844125066 Z" fill-opacity="1"/><path fill="none" stroke="rgb(120,144,156)" paint-order="fill stroke markers" d=" M 1079.7572115384614 351.625 L 838.6995433110507 413.5262283843228" stroke-opacity="1" stroke-linejoin="round" stroke-miterlimit="10"/><path fill="rgb(120,144,156)" stroke="none" paint-order="stroke fill markers" d=" M 844.1070632454821 407.6464981049029 L 836.7623927441189 414.0236695175596 L 846.2709321750622 416.0731030710561 Z" fill-opacity="1"/><path fill="none" stroke="rgb(120,144,156)" paint-order="fill stroke markers" d=" M 908.09375 429.625 L 908.09375 443.25" stroke-opacity="1" stroke-linejoin="round" stroke-miterlimit="10"/><path fill="rgb(120,144,156)" stroke="none" paint-order="stroke fill markers" d=" M 903.74375 436.55 L 908.09375 445.25 L 912.44375 436.55 Z" fill-opacity="1"/><path fill="none" stroke="rgb(55,71,79)" paint-order="fill stroke markers" d=" M 916.15625 132.625 L 916.15625 161.125" stroke-opacity="1" stroke-linejoin="round" stroke-miterlimit="10" stroke-width="2"/><path fill="none" stroke="rgb(120,144,156)" paint-order="fill stroke markers" d=" M 1192.3290786384975 269.875 L 1305.6209486808552 403.012480380812" stroke-opacity="1" stroke-linejoin="round" stroke-miterlimit="10"/><path fill="rgb(120,144,156)" stroke="none" paint-order="stroke fill markers" d=" M 1297.9660228671119 400.7289281510422 L 1306.9170756388205 404.53565302658643 L 1304.5918238762306 395.090775883893 Z" fill-opacity="1"/><path fill="none" stroke="rgb(55,71,79)" paint-order="fill stroke markers" d=" M 658.9779243119266 269.875 L 703.3978697402931 322.64637930999396" stroke-opacity="1" stroke-linejoin="round" stroke-miterlimit="10" stroke-width="2"/><path fill="none" stroke="rgb(120,144,156)" paint-order="fill stroke markers" d=" M 737.0828941206349 355.05020365268064 L 802.6604008734887 406.04131170723605" stroke-opacity="1" stroke-linejoin="round" stroke-miterlimit="10"/><path fill="rgb(120,144,156)" stroke="none" paint-order="stroke fill markers" d=" M 794.7010114480668 405.36262181156803 L 804.2392642029045 407.26898861384717 L 800.0414059918252 398.49456632860955 Z" fill-opacity="1"/><path fill="none" stroke="rgb(55,71,79)" paint-order="fill stroke markers" d=" M 991.4807180851064 125.125 L 934.597027637144 170.05833531183583" stroke-opacity="1" stroke-linejoin="round" stroke-miterlimit="10" stroke-width="2"/><path fill="none" stroke="rgb(120,144,156)" paint-order="fill stroke markers" d=" M 336.6706730769231 429.625 L 281.43779637221786 532.2003424515954" stroke-opacity="1" stroke-linejoin="round" stroke-miterlimit="10"/><path fill="rgb(120,144,156)" stroke="none" paint-order="stroke fill markers" d=" M 280.78421590189106 524.2388518519145 L 280.48959672614785 533.9612846514398 L 288.44431447121394 528.3635203123192 Z" fill-opacity="1"/><path fill="none" stroke="rgb(120,144,156)" paint-order="fill stroke markers" d=" M 456.8195334757835 429.625 L 479.46739417006154 530.2503051100203" stroke-opacity="1" stroke-linejoin="round" stroke-miterlimit="10"/><path fill="rgb(120,144,156)" stroke="none" paint-order="stroke fill markers" d=" M 473.7523816416713 524.668985212331 L 479.906550836397 532.2014948553842 L 482.24005703400417 522.7586537137718 Z" fill-opacity="1"/><path fill="none" stroke="rgb(120,144,156)" paint-order="fill stroke markers" d=" M 807.2072768895432 363.6162180232951 L 814.60109888359 398.5688310860617" stroke-opacity="1" stroke-linejoin="round" stroke-miterlimit="10"/><path fill="rgb(120,144,156)" stroke="none" paint-order="stroke fill markers" d=" M 808.9586551150252 392.91415794620787 L 815.0150160656788 400.5255304922996 L 817.47029753216 391.11361820412174 Z" fill-opacity="1"/><path fill="none" stroke="rgb(55,71,79)" paint-order="fill stroke markers" d=" M 543.59375 351.625 L 543.59375 400.125" stroke-opacity="1" stroke-linejoin="round" stroke-miterlimit="10" stroke-width="2"/><path fill="none" stroke="rgb(55,71,79)" paint-order="fill stroke markers" d=" M 871.7955848623853 269.875 L 818.8061924806998 323.8548483140535" stroke-opacity="1" stroke-linejoin="round" stroke-miterlimit="10" stroke-width="2"/><path fill="none" stroke="rgb(120,144,156)" paint-order="fill stroke markers" d=" M 818.7251626928437 437.12461991638156 L 817.287659993012 661.3750410901209" stroke-opacity="1" stroke-linejoin="round" stroke-miterlimit="10"/><path fill="rgb(120,144,156)" stroke="none" paint-order="stroke fill markers" d=" M 812.9806971995897 654.6472946995325 L 817.2748397435897 663.375 L 821.6805184575637 654.7030627845195 Z" fill-opacity="1"/><path fill="none" stroke="rgb(120,144,156)" paint-order="fill stroke markers" d=" M 890.9975961538462 351.625 L 833.8660165783391 404.6757524629708" stroke-opacity="1" stroke-linejoin="round" stroke-miterlimit="10"/><path fill="rgb(120,144,156)" stroke="none" paint-order="stroke fill markers" d=" M 835.8157706899876 396.92907840863563 L 832.4004295950865 406.03665466170537 L 841.735695254483 403.30438178578447 Z" fill-opacity="1"/><path fill="none" stroke="rgb(120,144,156)" paint-order="fill stroke markers" d=" M 1150.2788461538462 351.625 L 1299.8549598889665 411.0554329644795" stroke-opacity="1" stroke-linejoin="round" stroke-miterlimit="10"/><path fill="rgb(120,144,156)" stroke="none" paint-order="stroke fill markers" d=" M 1292.0222154817257 412.62406773740673 L 1301.7136223388234 411.79392730940833 L 1295.234665882166 404.53888608052915 Z" fill-opacity="1"/><path fill="none" stroke="rgb(120,144,156)" paint-order="fill stroke markers" d=" M 836.5358096151857 653.8245858765765 L 831.0744239235877 661.7295193930751" stroke-opacity="1" stroke-linejoin="round" stroke-miterlimit="10"/><path fill="rgb(120,144,156)" stroke="none" paint-order="stroke fill markers" d=" M 831.3039004925591 653.7445434692359 L 829.937589031339 663.375 L 838.4617411326825 658.6897752505176 Z" fill-opacity="1"/><path fill="none" stroke="rgb(120,144,156)" paint-order="fill stroke markers" d=" M 535.9601051933361 435.4766309882958 L 492.4276537046817 531.5765710670236" stroke-opacity="1" stroke-linejoin="round" stroke-miterlimit="10"/><path fill="rgb(120,144,156)" stroke="none" paint-order="stroke fill markers" d=" M 491.22986048336065 523.6786098491549 L 491.60239480666394 533.3983690117042 L 499.1546815427214 527.268486055532 Z" fill-opacity="1"/><path fill="none" stroke="rgb(120,144,156)" paint-order="fill stroke markers" d=" M 1001.7637089998017 560.4181713047228 L 841.6812663679752 665.7395159415945" stroke-opacity="1" stroke-linejoin="round" stroke-miterlimit="10"/><path fill="rgb(120,144,156)" stroke="none" paint-order="stroke fill markers" d=" M 844.8876030990988 658.4229658825402 L 840.0104511247106 666.8387777042673 L 849.6693917667252 665.6910121907415 Z" fill-opacity="1"/><path fill="none" stroke="rgb(120,144,156)" paint-order="fill stroke markers" d=" M 1052.6071981816867 436.29270356172424 L 1023.2984425554282 530.6722744316029" stroke-opacity="1" stroke-linejoin="round" stroke-miterlimit="10"/><path fill="rgb(120,144,156)" stroke="none" paint-order="stroke fill markers" d=" M 1021.1311661602498 522.9836196060237 L 1022.7053018183133 532.5822964382758 L 1029.4397618892767 525.5637818124737 Z" fill-opacity="1"/><path fill="none" stroke="rgb(120,144,156)" paint-order="fill stroke markers" d=" M 1157.2852637614678 269.875 L 1010.9381375358789 332.55412282353325" stroke-opacity="1" stroke-linejoin="round" stroke-miterlimit="10"/><path fill="rgb(120,144,156)" stroke="none" paint-order="stroke fill markers" d=" M 1015.3844341589403 325.9176368301966 L 1009.0996607031102 333.34152547489583 L 1018.8096356923676 333.91501105274034 Z" fill-opacity="1"/><path fill="none" stroke="rgb(120,144,156)" paint-order="fill stroke markers" d=" M 1302.524121784956 427.22010762852085 L 843.8313322820214 667.8795532421682" stroke-opacity="1" stroke-linejoin="round" stroke-miterlimit="10"/><path fill="rgb(120,144,156)" stroke="none" paint-order="stroke fill markers" d=" M 847.7433074634662 660.914716547761 L 842.0602913939085 668.8087540668731 L 851.7853310509328 668.618744411052 Z" fill-opacity="1"/><path fill="none" stroke="rgb(120,144,156)" paint-order="fill stroke markers" d=" M 895.2923654681566 195.43926475734287 L 795.5457842792343 247.1403722845854" stroke-opacity="1" stroke-linejoin="round" stroke-miterlimit="10"/><path fill="rgb(120,144,156)" stroke="none" paint-order="stroke fill markers" d=" M 799.4924214991879 240.19511817446983 L 793.7701345318434 248.06073524265713 L 803.4960003667999 247.91919457562034 Z" fill-opacity="1"/><path fill="rgb(69,90,100)" stroke="rgb(158,158,158)" paint-order="fill stroke markers" d=" M 775.65625 174.625 L 775.65625 194.625 L 870.65625 194.625 L 870.65625 174.625 Z" fill-opacity="1" stroke-opacity="1" stroke-miterlimit="10" stroke-width="2"/><text fill="rgb(255,255,255)" stroke="none" font-family="times new roman" font-size="10px" font-style="normal" font-weight="normal" text-decoration="normal" x="823.15625" y="189.625" text-anchor="middle" dominant-baseline="text-after-edge" fill-opacity="1">42130692G&gt;A</text><path fill="rgb(69,90,100)" stroke="rgb(76,175,80)" paint-order="fill stroke markers" d=" M 908.09375 408.625 L 950.59375 408.625 L 950.59375 408.625 A 5 5 0 0 1 955.59375 413.625 L 955.59375 423.625 L 955.59375 423.625 A 5 5 0 0 1 950.59375 428.625 L 865.59375 428.625 L 865.59375 428.625 A 5 5 0 0 1 860.59375 423.625 L 860.59375 413.625 L 860.59375 413.625 A 5 5 0 0 1 865.59375 408.625 L 908.09375 408.625 Z" fill-opacity="1" stroke-opacity="1" stroke-miterlimit="10" stroke-width="2"/><text fill="rgb(255,255,255)" stroke="none" font-family="times new roman" font-size="10px" font-style="normal" font-weight="normal" text-decoration="normal" x="908.09375" y="423.625" text-anchor="middle" dominant-baseline="text-after-edge" fill-opacity="1">42132049dup</text><path fill="rgb(69,90,100)" stroke="rgb(244,67,54)" paint-order="fill stroke markers" d=" M 1075.59375 418.625 L 1075.5398033403299 419.9980341752373 L 1075.378295960415 421.36260313820407 L 1075.1102236069594 422.71029386747836 L 1074.7372390351652 424.0327974015616 L 1074.2616418189475 425.32196006638907 L 1073.6863641732964 426.56983374544205 L 1073.0149528761965 427.7687248825291 L 1072.2515474015615 428.9112419151183 L 1071.4008543980005 429.99034084577823 L 1070.4681186707646 430.99936867076457 L 1069.4590908457783 431.93210439800055 L 1068.3799919151184 432.7827974015616 L 1067.237474882529 433.5462028761966 L 1066.038583745442 434.21761417329645 L 1064.790710066389 434.7928918189475 L 1063.5015474015615 435.2684890351652 L 1062.1790438674784 435.6414736069593 L 1060.8313531382041 435.9095459604149 L 1059.4667841752373 436.07105334032974 L 1058.09375 436.125 L 1056.7207158247627 436.07105334032974 L 1055.3561468617959 435.9095459604149 L 1054.0084561325216 435.6414736069593 L 1052.6859525984385 435.2684890351652 L 1051.396789933611 434.7928918189475 L 1050.148916254558 434.21761417329645 L 1048.950025117471 433.5462028761966 L 1047.8075080848816 432.7827974015616 L 1046.7284091542217 431.93210439800055 L 1045.7193813292354 430.99936867076457 L 1044.7866456019995 429.99034084577823 L 1043.9359525984385 428.9112419151183 L 1043.1725471238035 427.7687248825291 L 1042.5011358267036 426.56983374544205 L 1041.9258581810525 425.32196006638907 L 1041.4502609648348 424.0327974015616 L 1041.0772763930406 422.71029386747836 L 1040.809204039585 421.36260313820407 L 1040.6476966596701 419.9980341752373 L 1040.59375 418.625 L 1040.6476966596701 417.2519658247627 L 1040.809204039585 415.88739686179593 L 1041.0772763930406 414.53970613252164 L 1041.4502609648348 413.2172025984384 L 1041.9258581810525 411.92803993361093 L 1042.5011358267036 410.68016625455795 L 1043.1725471238035 409.4812751174709 L 1043.9359525984385 408.3387580848817 L 1044.7866456019995 407.25965915422177 L 1045.7193813292354 406.25063132923543 L 1046.7284091542217 405.31789560199945 L 1047.8075080848816 404.4672025984384 L 1048.950025117471 403.7037971238034 L 1050.148916254558 403.03238582670355 L 1051.396789933611 402.4571081810525 L 1052.6859525984385 401.9815109648348 L 1054.0084561325216 401.6085263930407 L 1055.356146861796 401.3404540395851 L 1056.7207158247627 401.17894665967026 L 1058.09375 401.125 L 1059.4667841752373 401.17894665967026 L 1060.8313531382041 401.3404540395851 L 1062.1790438674784 401.6085263930407 L 1063.5015474015618 401.98151096483485 L 1064.7907100663892 402.4571081810525 L 1066.038583745442 403.0323858267036 L 1067.237474882529 403.70379712380344 L 1068.3799919151184 404.4672025984385 L 1069.4590908457783 405.31789560199957 L 1070.4681186707646 406.2506313292355 L 1071.4008543980005 407.2596591542219 L 1072.2515474015618 408.3387580848818 L 1073.0149528761967 409.48127511747106 L 1073.6863641732966 410.68016625455806 L 1074.2616418189475 411.9280399336111 L 1074.7372390351652 413.2172025984386 L 1075.1102236069594 414.5397061325218 L 1075.378295960415 415.88739686179616 L 1075.5398033403299 417.2519658247629 Z" fill-opacity="1" stroke-opacity="1" stroke-miterlimit="10" stroke-width="2"/><text fill="rgb(255,255,255)" stroke="none" font-family="times new roman" font-size="10px" font-style="normal" font-weight="normal" text-decoration="normal" x="1058.09375" y="423.625" text-anchor="middle" dominant-baseline="text-after-edge" fill-opacity="1">*4.5</text><path fill="rgb(69,90,100)" stroke="rgb(244,67,54)" paint-order="fill stroke markers" d=" M 1336.40625 418.625 L 1336.3523033403299 419.9980341752373 L 1336.190795960415 421.36260313820407 L 1335.9227236069594 422.71029386747836 L 1335.5497390351652 424.0327974015616 L 1335.0741418189475 425.32196006638907 L 1334.4988641732964 426.56983374544205 L 1333.8274528761965 427.7687248825291 L 1333.0640474015615 428.9112419151183 L 1332.2133543980005 429.99034084577823 L 1331.2806186707646 430.99936867076457 L 1330.2715908457783 431.93210439800055 L 1329.1924919151184 432.7827974015616 L 1328.049974882529 433.5462028761966 L 1326.851083745442 434.21761417329645 L 1325.603210066389 434.7928918189475 L 1324.3140474015615 435.2684890351652 L 1322.9915438674784 435.6414736069593 L 1321.6438531382041 435.9095459604149 L 1320.2792841752373 436.07105334032974 L 1318.90625 436.125 L 1317.5332158247627 436.07105334032974 L 1316.1686468617959 435.9095459604149 L 1314.8209561325216 435.6414736069593 L 1313.4984525984385 435.2684890351652 L 1312.209289933611 434.7928918189475 L 1310.961416254558 434.21761417329645 L 1309.762525117471 433.5462028761966 L 1308.6200080848816 432.7827974015616 L 1307.5409091542217 431.93210439800055 L 1306.5318813292354 430.99936867076457 L 1305.5991456019995 429.99034084577823 L 1304.7484525984385 428.9112419151183 L 1303.9850471238035 427.7687248825291 L 1303.3136358267036 426.56983374544205 L 1302.7383581810525 425.32196006638907 L 1302.2627609648348 424.0327974015616 L 1301.8897763930406 422.71029386747836 L 1301.621704039585 421.36260313820407 L 1301.4601966596701 419.9980341752373 L 1301.40625 418.625 L 1301.4601966596701 417.2519658247627 L 1301.621704039585 415.88739686179593 L 1301.8897763930406 414.53970613252164 L 1302.2627609648348 413.2172025984384 L 1302.7383581810525 411.92803993361093 L 1303.3136358267036 410.68016625455795 L 1303.9850471238035 409.4812751174709 L 1304.7484525984385 408.3387580848817 L 1305.5991456019995 407.25965915422177 L 1306.5318813292354 406.25063132923543 L 1307.5409091542217 405.31789560199945 L 1308.6200080848816 404.4672025984384 L 1309.762525117471 403.7037971238034 L 1310.961416254558 403.03238582670355 L 1312.209289933611 402.4571081810525 L 1313.4984525984385 401.9815109648348 L 1314.8209561325216 401.6085263930407 L 1316.168646861796 401.3404540395851 L 1317.5332158247627 401.17894665967026 L 1318.90625 401.125 L 1320.2792841752373 401.17894665967026 L 1321.6438531382041 401.3404540395851 L 1322.9915438674784 401.6085263930407 L 1324.3140474015618 401.98151096483485 L 1325.6032100663892 402.4571081810525 L 1326.851083745442 403.0323858267036 L 1328.049974882529 403.70379712380344 L 1329.1924919151184 404.4672025984385 L 1330.2715908457783 405.31789560199957 L 1331.2806186707646 406.2506313292355 L 1332.2133543980005 407.2596591542219 L 1333.0640474015618 408.3387580848818 L 1333.8274528761967 409.48127511747106 L 1334.4988641732966 410.68016625455806 L 1335.0741418189475 411.9280399336111 L 1335.5497390351652 413.2172025984386 L 1335.9227236069594 414.5397061325218 L 1336.190795960415 415.88739686179616 L 1336.3523033403299 417.2519658247629 Z" fill-opacity="1" stroke-opacity="1" stroke-miterlimit="10" stroke-width="2"/><text fill="rgb(255,255,255)" stroke="none" font-family="times new roman" font-size="10px" font-style="normal" font-weight="normal" text-decoration="normal" x="1318.90625" y="423.625" text-anchor="middle" dominant-baseline="text-after-edge" fill-opacity="1">*4.9</text><path fill="rgb(69,90,100)" stroke="rgb(76,175,80)" paint-order="fill stroke markers" d=" M 938.65625 184.625 L 938.5868900089954 186.3903296538765 L 938.3792376633907 188.14477546340518 L 938.0345732089477 189.87752068675786 L 937.5550216166409 191.57788237343632 L 936.943539481504 193.23537722821453 L 936.2038967942383 194.83978624413982 L 935.3406536979671 196.38121770610886 L 934.3591323734363 197.85016817658064 L 933.2653842260007 199.23758108742913 L 932.0661525766973 200.5349025766973 L 930.7688310874291 201.7341342260007 L 929.3814181765806 202.82788237343632 L 927.9124677061088 203.80940369796707 L 926.3710362441398 204.6726467942383 L 924.7666272282145 205.41228948150396 L 923.1091323734363 206.02377161664094 L 921.4087706867579 206.50332320894773 L 919.6760254634052 206.8479876633906 L 917.9215796538765 207.05564000899537 L 916.15625 207.125 L 914.3909203461235 207.05564000899537 L 912.6364745365948 206.8479876633906 L 910.9037293132421 206.50332320894773 L 909.2033676265637 206.02377161664094 L 907.5458727717855 205.41228948150396 L 905.9414637558602 204.6726467942383 L 904.4000322938912 203.80940369796707 L 902.9310818234194 202.82788237343632 L 901.5436689125709 201.7341342260007 L 900.2463474233027 200.53490257669733 L 899.0471157739993 199.23758108742913 L 897.9533676265637 197.85016817658064 L 896.9718463020329 196.38121770610886 L 896.1086032057617 194.83978624413982 L 895.368960518496 193.23537722821453 L 894.7574783833591 191.57788237343632 L 894.2779267910523 189.87752068675786 L 893.9332623366095 188.1447754634052 L 893.7256099910046 186.3903296538765 L 893.65625 184.625 L 893.7256099910046 182.8596703461235 L 893.9332623366093 181.10522453659482 L 894.2779267910523 179.37247931324214 L 894.7574783833591 177.67211762656368 L 895.368960518496 176.01462277178547 L 896.1086032057617 174.4102137558602 L 896.9718463020329 172.86878229389114 L 897.9533676265637 171.39983182341936 L 899.0471157739993 170.01241891257087 L 900.2463474233027 168.7150974233027 L 901.5436689125709 167.5158657739993 L 902.9310818234194 166.42211762656368 L 904.4000322938912 165.44059630203293 L 905.9414637558602 164.5773532057617 L 907.5458727717855 163.83771051849604 L 909.2033676265637 163.22622838335903 L 910.9037293132421 162.74667679105227 L 912.6364745365948 162.4020123366094 L 914.3909203461236 162.1943599910046 L 916.1562500000001 162.125 L 917.9215796538766 162.19435999100463 L 919.6760254634053 162.4020123366094 L 921.408770686758 162.7466767910523 L 923.1091323734364 163.22622838335909 L 924.7666272282146 163.8377105184961 L 926.3710362441399 164.5773532057618 L 927.9124677061089 165.440596302033 L 929.3814181765807 166.42211762656376 L 930.7688310874292 167.51586577399942 L 932.0661525766974 168.7150974233028 L 933.2653842260008 170.012418912571 L 934.3591323734364 171.3998318234195 L 935.3406536979671 172.86878229389131 L 936.2038967942384 174.41021375586038 L 936.943539481504 176.0146227717857 L 937.555021616641 177.6721176265639 L 938.0345732089478 179.37247931324237 L 938.3792376633907 181.10522453659505 L 938.5868900089954 182.85967034612375 Z" fill-opacity="1" stroke-opacity="1" stroke-miterlimit="10" stroke-width="2"/><text fill="rgb(255,255,255)" stroke="none" font-family="times new roman" font-size="15px" font-style="normal" font-weight="normal" text-decoration="normal" x="916.15625" y="192.125" text-anchor="middle" dominant-baseline="text-after-edge" fill-opacity="1">*39</text><path fill="rgb(69,90,100)" stroke="rgb(244,67,54)" paint-order="fill stroke markers" d=" M 836.34375 418.625 L 836.2898033403297 419.9980341752373 L 836.1282959604149 421.36260313820407 L 835.8602236069594 422.71029386747836 L 835.4872390351652 424.0327974015616 L 835.0116418189475 425.32196006638907 L 834.4363641732964 426.56983374544205 L 833.7649528761966 427.7687248825291 L 833.0015474015615 428.9112419151183 L 832.1508543980005 429.99034084577823 L 831.2181186707646 430.99936867076457 L 830.2090908457782 431.93210439800055 L 829.1299919151182 432.7827974015616 L 827.9874748825291 433.5462028761966 L 826.7885837454421 434.21761417329645 L 825.5407100663891 434.7928918189475 L 824.2515474015615 435.2684890351652 L 822.9290438674783 435.6414736069593 L 821.581353138204 435.9095459604149 L 820.2167841752373 436.07105334032974 L 818.84375 436.125 L 817.4707158247627 436.07105334032974 L 816.106146861796 435.9095459604149 L 814.7584561325217 435.6414736069593 L 813.4359525984385 435.2684890351652 L 812.1467899336109 434.7928918189475 L 810.8989162545579 434.21761417329645 L 809.7000251174709 433.5462028761966 L 808.5575080848818 432.7827974015616 L 807.4784091542218 431.93210439800055 L 806.4693813292354 430.99936867076457 L 805.5366456019995 429.99034084577823 L 804.6859525984385 428.9112419151183 L 803.9225471238034 427.7687248825291 L 803.2511358267036 426.56983374544205 L 802.6758581810525 425.32196006638907 L 802.2002609648348 424.0327974015616 L 801.8272763930406 422.71029386747836 L 801.5592040395851 421.36260313820407 L 801.3976966596703 419.9980341752373 L 801.34375 418.625 L 801.3976966596703 417.2519658247627 L 801.5592040395851 415.88739686179593 L 801.8272763930406 414.53970613252164 L 802.2002609648348 413.2172025984384 L 802.6758581810525 411.92803993361093 L 803.2511358267036 410.68016625455795 L 803.9225471238034 409.4812751174709 L 804.6859525984385 408.3387580848817 L 805.5366456019995 407.25965915422177 L 806.4693813292354 406.25063132923543 L 807.4784091542218 405.31789560199945 L 808.5575080848818 404.4672025984384 L 809.7000251174709 403.7037971238034 L 810.8989162545579 403.03238582670355 L 812.146789933611 402.4571081810525 L 813.4359525984385 401.9815109648348 L 814.7584561325217 401.6085263930407 L 816.106146861796 401.3404540395851 L 817.4707158247628 401.17894665967026 L 818.8437500000001 401.125 L 820.2167841752373 401.17894665967026 L 821.5813531382041 401.3404540395851 L 822.9290438674784 401.6085263930407 L 824.2515474015617 401.98151096483485 L 825.5407100663891 402.4571081810525 L 826.7885837454421 403.0323858267036 L 827.9874748825292 403.70379712380344 L 829.1299919151184 404.4672025984385 L 830.2090908457783 405.31789560199957 L 831.2181186707646 406.2506313292355 L 832.1508543980007 407.2596591542219 L 833.0015474015617 408.3387580848818 L 833.7649528761967 409.48127511747106 L 834.4363641732965 410.68016625455806 L 835.0116418189476 411.9280399336111 L 835.4872390351652 413.2172025984386 L 835.8602236069594 414.5397061325218 L 836.1282959604149 415.88739686179616 L 836.2898033403297 417.2519658247629 Z" fill-opacity="1" stroke-opacity="1" stroke-miterlimit="10" stroke-width="2"/><text fill="rgb(255,255,255)" stroke="none" font-family="times new roman" font-size="10px" font-style="normal" font-weight="normal" text-decoration="normal" x="818.84375" y="423.625" text-anchor="middle" dominant-baseline="text-after-edge" fill-opacity="1">*4.2</text><path fill="rgb(69,90,100)" stroke="rgb(76,175,80)" paint-order="fill stroke markers" d=" M 289.21875 550.25 L 289.16480334032974 551.6230341752373 L 289.0032959604149 552.987603138204 L 288.7352236069593 554.3352938674783 L 288.3622390351652 555.6577974015615 L 287.8866418189475 556.9469600663891 L 287.31136417329645 558.1948337454421 L 286.6399528761966 559.3937248825291 L 285.8765474015616 560.5362419151182 L 285.02585439800055 561.6153408457782 L 284.09311867076457 562.6243686707646 L 283.08409084577823 563.5571043980005 L 282.0049919151183 564.4077974015615 L 280.8624748825291 565.1712028761966 L 279.66358374544205 565.8426141732964 L 278.41571006638907 566.4178918189475 L 277.1265474015616 566.8934890351652 L 275.80404386747836 567.2664736069594 L 274.45635313820407 567.5345459604149 L 273.0917841752373 567.6960533403297 L 271.71875 567.75 L 270.3457158247627 567.6960533403297 L 268.98114686179593 567.5345459604149 L 267.63345613252164 567.2664736069594 L 266.3109525984384 566.8934890351652 L 265.02178993361093 566.4178918189475 L 263.77391625455795 565.8426141732964 L 262.5750251174709 565.1712028761966 L 261.4325080848817 564.4077974015615 L 260.35340915422177 563.5571043980005 L 259.34438132923543 562.6243686707646 L 258.41164560199945 561.6153408457782 L 257.5609525984384 560.5362419151182 L 256.7975471238034 559.3937248825291 L 256.12613582670355 558.1948337454421 L 255.5508581810525 556.9469600663891 L 255.07526096483483 555.6577974015615 L 254.70227639304065 554.3352938674783 L 254.4342040395851 552.987603138204 L 254.27269665967026 551.6230341752373 L 254.21875 550.25 L 254.27269665967026 548.8769658247627 L 254.4342040395851 547.512396861796 L 254.70227639304065 546.1647061325217 L 255.0752609648348 544.8422025984385 L 255.5508581810525 543.5530399336109 L 256.12613582670355 542.3051662545579 L 256.7975471238034 541.1062751174709 L 257.5609525984384 539.9637580848818 L 258.41164560199945 538.8846591542218 L 259.34438132923543 537.8756313292354 L 260.35340915422177 536.9428956019995 L 261.4325080848817 536.0922025984385 L 262.5750251174709 535.3287971238034 L 263.77391625455795 534.6573858267036 L 265.02178993361093 534.0821081810525 L 266.31095259843846 533.6065109648348 L 267.6334561325217 533.2335263930406 L 268.981146861796 532.9654540395851 L 270.34571582476275 532.8039466596703 L 271.71875000000006 532.75 L 273.09178417523736 532.8039466596703 L 274.4563531382041 532.9654540395851 L 275.8040438674784 533.2335263930406 L 277.12654740156165 533.6065109648348 L 278.4157100663892 534.0821081810525 L 279.66358374544217 534.6573858267036 L 280.8624748825292 535.3287971238035 L 282.00499191511835 536.0922025984385 L 283.0840908457783 536.9428956019996 L 284.0931186707647 537.8756313292355 L 285.02585439800066 538.8846591542219 L 285.87654740156165 539.9637580848819 L 286.6399528761967 541.106275117471 L 287.3113641732965 542.3051662545581 L 287.88664181894757 543.5530399336111 L 288.36223903516526 544.8422025984386 L 288.7352236069594 546.1647061325218 L 289.00329596041496 547.5123968617961 L 289.16480334032974 548.8769658247629 Z" fill-opacity="1" stroke-opacity="1" stroke-miterlimit="10" stroke-width="2"/><text fill="rgb(255,255,255)" stroke="none" font-family="times new roman" font-size="10px" font-style="normal" font-weight="normal" text-decoration="normal" x="271.71875" y="555.25" text-anchor="middle" dominant-baseline="text-after-edge" fill-opacity="1">*1.58</text><path fill="rgb(69,90,100)" stroke="rgb(255,193,7)" paint-order="fill stroke markers" d=" M 1009.59375 340.625 L 1009.5398033403297 341.9980341752373 L 1009.3782959604149 343.36260313820407 L 1009.1102236069594 344.71029386747836 L 1008.7372390351652 346.0327974015616 L 1008.2616418189475 347.32196006638907 L 1007.6863641732964 348.56983374544205 L 1007.0149528761966 349.7687248825291 L 1006.2515474015615 350.9112419151183 L 1005.4008543980005 351.99034084577823 L 1004.4681186707646 352.99936867076457 L 1003.4590908457782 353.93210439800055 L 1002.3799919151182 354.7827974015616 L 1001.2374748825291 355.5462028761966 L 1000.0385837454421 356.21761417329645 L 998.7907100663891 356.7928918189475 L 997.5015474015615 357.2684890351652 L 996.1790438674783 357.6414736069593 L 994.831353138204 357.9095459604149 L 993.4667841752373 358.07105334032974 L 992.09375 358.125 L 990.7207158247627 358.07105334032974 L 989.356146861796 357.9095459604149 L 988.0084561325217 357.6414736069593 L 986.6859525984385 357.2684890351652 L 985.3967899336109 356.7928918189475 L 984.1489162545579 356.21761417329645 L 982.9500251174709 355.5462028761966 L 981.8075080848818 354.7827974015616 L 980.7284091542218 353.93210439800055 L 979.7193813292354 352.99936867076457 L 978.7866456019995 351.99034084577823 L 977.9359525984385 350.9112419151183 L 977.1725471238034 349.7687248825291 L 976.5011358267036 348.56983374544205 L 975.9258581810525 347.32196006638907 L 975.4502609648348 346.0327974015616 L 975.0772763930406 344.71029386747836 L 974.8092040395851 343.36260313820407 L 974.6476966596703 341.9980341752373 L 974.59375 340.625 L 974.6476966596703 339.2519658247627 L 974.8092040395851 337.88739686179593 L 975.0772763930406 336.53970613252164 L 975.4502609648348 335.2172025984384 L 975.9258581810525 333.92803993361093 L 976.5011358267036 332.68016625455795 L 977.1725471238034 331.4812751174709 L 977.9359525984385 330.3387580848817 L 978.7866456019995 329.25965915422177 L 979.7193813292354 328.25063132923543 L 980.7284091542218 327.31789560199945 L 981.8075080848818 326.4672025984384 L 982.9500251174709 325.7037971238034 L 984.1489162545579 325.03238582670355 L 985.396789933611 324.4571081810525 L 986.6859525984385 323.9815109648348 L 988.0084561325217 323.6085263930407 L 989.356146861796 323.3404540395851 L 990.7207158247628 323.17894665967026 L 992.0937500000001 323.125 L 993.4667841752373 323.17894665967026 L 994.8313531382041 323.3404540395851 L 996.1790438674784 323.6085263930407 L 997.5015474015617 323.98151096483485 L 998.7907100663891 324.4571081810525 L 1000.0385837454421 325.0323858267036 L 1001.2374748825292 325.70379712380344 L 1002.3799919151184 326.4672025984385 L 1003.4590908457783 327.31789560199957 L 1004.4681186707646 328.2506313292355 L 1005.4008543980007 329.2596591542219 L 1006.2515474015617 330.3387580848818 L 1007.0149528761967 331.48127511747106 L 1007.6863641732965 332.68016625455806 L 1008.2616418189476 333.9280399336111 L 1008.7372390351652 335.2172025984386 L 1009.1102236069594 336.5397061325218 L 1009.3782959604149 337.88739686179616 L 1009.5398033403297 339.2519658247629 Z" fill-opacity="1" stroke-opacity="1" stroke-miterlimit="10" stroke-width="2"/><text fill="rgb(255,255,255)" stroke="none" font-family="times new roman" font-size="10px" font-style="normal" font-weight="normal" text-decoration="normal" x="992.09375" y="345.625" text-anchor="middle" dominant-baseline="text-after-edge" fill-opacity="1">*10.1</text><path fill="rgb(69,90,100)" stroke="rgb(158,158,158)" paint-order="fill stroke markers" d=" M 957.90625 104.125 L 957.90625 124.125 L 1052.90625 124.125 L 1052.90625 104.125 Z" fill-opacity="1" stroke-opacity="1" stroke-miterlimit="10" stroke-width="2"/><text fill="rgb(255,255,255)" stroke="none" font-family="times new roman" font-size="10px" font-style="normal" font-weight="normal" text-decoration="normal" x="1005.40625" y="119.125" text-anchor="middle" dominant-baseline="text-after-edge" fill-opacity="1">42126611C&gt;G</text><path fill="rgb(69,90,100)" stroke="rgb(76,175,80)" paint-order="fill stroke markers" d=" M 855.34375 330.625 L 855.34375 350.625 L 950.34375 350.625 L 950.34375 330.625 Z" fill-opacity="1" stroke-opacity="1" stroke-miterlimit="10" stroke-width="2"/><text fill="rgb(255,255,255)" stroke="none" font-family="times new roman" font-size="10px" font-style="normal" font-weight="normal" text-decoration="normal" x="902.84375" y="345.625" text-anchor="middle" dominant-baseline="text-after-edge" fill-opacity="1">42129796G&gt;C</text><path fill="rgb(69,90,100)" stroke="rgb(76,175,80)" paint-order="fill stroke markers" d=" M 496.09375 330.625 L 496.09375 350.625 L 591.09375 350.625 L 591.09375 330.625 Z" fill-opacity="1" stroke-opacity="1" stroke-miterlimit="10" stroke-width="2"/><text fill="rgb(255,255,255)" stroke="none" font-family="times new roman" font-size="10px" font-style="normal" font-weight="normal" text-decoration="normal" x="543.59375" y="345.625" text-anchor="middle" dominant-baseline="text-after-edge" fill-opacity="1">42127407T&gt;G</text><path fill="rgb(69,90,100)" stroke="rgb(158,158,158)" paint-order="fill stroke markers" d=" M 741.03125 340.625 L 740.9618900089954 342.3903296538765 L 740.7542376633907 344.1447754634052 L 740.4095732089477 345.87752068675786 L 739.9300216166409 347.5778823734363 L 739.318539481504 349.23537722821453 L 738.5788967942383 350.8397862441398 L 737.7156536979671 352.3812177061088 L 736.7341323734363 353.85016817658067 L 735.6403842260007 355.23758108742913 L 734.4411525766973 356.53490257669733 L 733.1438310874291 357.7341342260007 L 731.7564181765806 358.8278823734363 L 730.2874677061088 359.80940369796707 L 728.7460362441398 360.6726467942383 L 727.1416272282145 361.41228948150393 L 725.4841323734363 362.02377161664094 L 723.7837706867579 362.50332320894773 L 722.0510254634052 362.8479876633906 L 720.2965796538765 363.0556400089954 L 718.53125 363.125 L 716.7659203461235 363.0556400089954 L 715.0114745365948 362.8479876633906 L 713.2787293132421 362.50332320894773 L 711.5783676265637 362.02377161664094 L 709.9208727717855 361.41228948150393 L 708.3164637558602 360.6726467942383 L 706.7750322938912 359.80940369796707 L 705.3060818234194 358.8278823734363 L 703.9186689125709 357.7341342260007 L 702.6213474233027 356.53490257669733 L 701.4221157739993 355.23758108742913 L 700.3283676265637 353.85016817658067 L 699.3468463020329 352.3812177061088 L 698.4836032057617 350.8397862441398 L 697.743960518496 349.23537722821453 L 697.1324783833591 347.5778823734363 L 696.6529267910523 345.87752068675786 L 696.3082623366095 344.1447754634052 L 696.1006099910046 342.3903296538765 L 696.03125 340.625 L 696.1006099910046 338.8596703461235 L 696.3082623366093 337.1052245365948 L 696.6529267910523 335.37247931324214 L 697.1324783833591 333.6721176265637 L 697.743960518496 332.01462277178547 L 698.4836032057617 330.4102137558602 L 699.3468463020329 328.8687822938912 L 700.3283676265637 327.39983182341933 L 701.4221157739993 326.01241891257087 L 702.6213474233027 324.71509742330267 L 703.9186689125709 323.51586577399934 L 705.3060818234194 322.4221176265637 L 706.7750322938912 321.44059630203293 L 708.3164637558602 320.5773532057617 L 709.9208727717855 319.837710518496 L 711.5783676265637 319.22622838335906 L 713.2787293132421 318.74667679105227 L 715.0114745365948 318.4020123366094 L 716.7659203461236 318.1943599910046 L 718.5312500000001 318.125 L 720.2965796538766 318.1943599910046 L 722.0510254634053 318.4020123366094 L 723.783770686758 318.7466767910523 L 725.4841323734364 319.22622838335906 L 727.1416272282146 319.8377105184961 L 728.7460362441399 320.57735320576177 L 730.2874677061089 321.440596302033 L 731.7564181765807 322.42211762656376 L 733.1438310874292 323.5158657739994 L 734.4411525766974 324.7150974233028 L 735.6403842260008 326.012418912571 L 736.7341323734364 327.3998318234195 L 737.7156536979671 328.86878229389134 L 738.5788967942384 330.4102137558604 L 739.318539481504 332.0146227717857 L 739.930021616641 333.67211762656393 L 740.4095732089478 335.37247931324237 L 740.7542376633907 337.1052245365951 L 740.9618900089954 338.8596703461238 Z" fill-opacity="1" stroke-opacity="1" stroke-miterlimit="10" stroke-width="2"/><text fill="rgb(255,255,255)" stroke="none" font-family="times new roman" font-size="15px" font-style="normal" font-weight="normal" text-decoration="normal" x="718.53125" y="348.125" text-anchor="middle" dominant-baseline="text-after-edge" fill-opacity="1">*74</text><path fill="rgb(69,90,100)" stroke="rgb(244,67,54)" paint-order="fill stroke markers" d=" M 824.84375 340.625 L 824.7743900089954 342.3903296538765 L 824.5667376633907 344.1447754634052 L 824.2220732089477 345.87752068675786 L 823.7425216166409 347.5778823734363 L 823.131039481504 349.23537722821453 L 822.3913967942383 350.8397862441398 L 821.5281536979671 352.3812177061088 L 820.5466323734363 353.85016817658067 L 819.4528842260007 355.23758108742913 L 818.2536525766973 356.53490257669733 L 816.9563310874291 357.7341342260007 L 815.5689181765806 358.8278823734363 L 814.0999677061088 359.80940369796707 L 812.5585362441398 360.6726467942383 L 810.9541272282145 361.41228948150393 L 809.2966323734363 362.02377161664094 L 807.5962706867579 362.50332320894773 L 805.8635254634052 362.8479876633906 L 804.1090796538765 363.0556400089954 L 802.34375 363.125 L 800.5784203461235 363.0556400089954 L 798.8239745365948 362.8479876633906 L 797.0912293132421 362.50332320894773 L 795.3908676265637 362.02377161664094 L 793.7333727717855 361.41228948150393 L 792.1289637558602 360.6726467942383 L 790.5875322938912 359.80940369796707 L 789.1185818234194 358.8278823734363 L 787.7311689125709 357.7341342260007 L 786.4338474233027 356.53490257669733 L 785.2346157739993 355.23758108742913 L 784.1408676265637 353.85016817658067 L 783.1593463020329 352.3812177061088 L 782.2961032057617 350.8397862441398 L 781.556460518496 349.23537722821453 L 780.9449783833591 347.5778823734363 L 780.4654267910523 345.87752068675786 L 780.1207623366095 344.1447754634052 L 779.9131099910046 342.3903296538765 L 779.84375 340.625 L 779.9131099910046 338.8596703461235 L 780.1207623366093 337.1052245365948 L 780.4654267910523 335.37247931324214 L 780.9449783833591 333.6721176265637 L 781.556460518496 332.01462277178547 L 782.2961032057617 330.4102137558602 L 783.1593463020329 328.8687822938912 L 784.1408676265637 327.39983182341933 L 785.2346157739993 326.01241891257087 L 786.4338474233027 324.71509742330267 L 787.7311689125709 323.51586577399934 L 789.1185818234194 322.4221176265637 L 790.5875322938912 321.44059630203293 L 792.1289637558602 320.5773532057617 L 793.7333727717855 319.837710518496 L 795.3908676265637 319.22622838335906 L 797.0912293132421 318.74667679105227 L 798.8239745365948 318.4020123366094 L 800.5784203461236 318.1943599910046 L 802.3437500000001 318.125 L 804.1090796538766 318.1943599910046 L 805.8635254634053 318.4020123366094 L 807.596270686758 318.7466767910523 L 809.2966323734364 319.22622838335906 L 810.9541272282146 319.8377105184961 L 812.5585362441399 320.57735320576177 L 814.0999677061089 321.440596302033 L 815.5689181765807 322.42211762656376 L 816.9563310874292 323.5158657739994 L 818.2536525766974 324.7150974233028 L 819.4528842260008 326.012418912571 L 820.5466323734364 327.3998318234195 L 821.5281536979671 328.86878229389134 L 822.3913967942384 330.4102137558604 L 823.131039481504 332.0146227717857 L 823.742521616641 333.67211762656393 L 824.2220732089478 335.37247931324237 L 824.5667376633907 337.1052245365951 L 824.7743900089954 338.8596703461238 Z" fill-opacity="1" stroke-opacity="1" stroke-miterlimit="10" stroke-width="2"/><text fill="rgb(255,255,255)" stroke="none" font-family="times new roman" font-size="15px" font-style="normal" font-weight="normal" text-decoration="normal" x="802.34375" y="348.125" text-anchor="middle" dominant-baseline="text-after-edge" fill-opacity="1">*4</text><path fill="rgb(3,169,244)" stroke="none" paint-order="stroke fill markers" d=" M 802.34375 308.125 L 826.84375 308.125 L 826.84375 308.125 A 8 8 0 0 1 834.84375 316.125 L 834.84375 365.125 L 834.84375 365.125 A 8 8 0 0 1 826.84375 373.125 L 777.84375 373.125 L 777.84375 373.125 A 8 8 0 0 1 769.84375 365.125 L 769.84375 316.125 L 769.84375 316.125 A 8 8 0 0 1 777.84375 308.125 L 802.34375 308.125 Z" fill-opacity="0.15"/><path fill="rgb(69,90,100)" stroke="rgb(158,158,158)" paint-order="fill stroke markers" d=" M 602.21875 248.875 L 602.21875 268.875 L 697.21875 268.875 L 697.21875 248.875 Z" fill-opacity="1" stroke-opacity="1" stroke-miterlimit="10" stroke-width="2"/><text fill="rgb(255,255,255)" stroke="none" font-family="times new roman" font-size="10px" font-style="normal" font-weight="normal" text-decoration="normal" x="649.71875" y="263.875" text-anchor="middle" dominant-baseline="text-after-edge" fill-opacity="1">42129819G&gt;T</text><path fill="rgb(69,90,100)" stroke="rgb(76,175,80)" paint-order="fill stroke markers" d=" M 561.09375 418.625 L 561.0398033403297 419.9980341752373 L 560.8782959604149 421.36260313820407 L 560.6102236069594 422.71029386747836 L 560.2372390351652 424.0327974015616 L 559.7616418189475 425.32196006638907 L 559.1863641732964 426.56983374544205 L 558.5149528761966 427.7687248825291 L 557.7515474015615 428.9112419151183 L 556.9008543980005 429.99034084577823 L 555.9681186707646 430.99936867076457 L 554.9590908457782 431.93210439800055 L 553.8799919151182 432.7827974015616 L 552.7374748825291 433.5462028761966 L 551.5385837454421 434.21761417329645 L 550.2907100663891 434.7928918189475 L 549.0015474015615 435.2684890351652 L 547.6790438674783 435.6414736069593 L 546.331353138204 435.9095459604149 L 544.9667841752373 436.07105334032974 L 543.59375 436.125 L 542.2207158247627 436.07105334032974 L 540.856146861796 435.9095459604149 L 539.5084561325217 435.6414736069593 L 538.1859525984385 435.2684890351652 L 536.8967899336109 434.7928918189475 L 535.6489162545579 434.21761417329645 L 534.4500251174709 433.5462028761966 L 533.3075080848818 432.7827974015616 L 532.2284091542218 431.93210439800055 L 531.2193813292354 430.99936867076457 L 530.2866456019995 429.99034084577823 L 529.4359525984385 428.9112419151183 L 528.6725471238034 427.7687248825291 L 528.0011358267036 426.56983374544205 L 527.4258581810525 425.32196006638907 L 526.9502609648348 424.0327974015616 L 526.5772763930406 422.71029386747836 L 526.3092040395851 421.36260313820407 L 526.1476966596703 419.9980341752373 L 526.09375 418.625 L 526.1476966596703 417.2519658247627 L 526.3092040395851 415.88739686179593 L 526.5772763930406 414.53970613252164 L 526.9502609648348 413.2172025984384 L 527.4258581810525 411.92803993361093 L 528.0011358267036 410.68016625455795 L 528.6725471238034 409.4812751174709 L 529.4359525984385 408.3387580848817 L 530.2866456019995 407.25965915422177 L 531.2193813292354 406.25063132923543 L 532.2284091542218 405.31789560199945 L 533.3075080848818 404.4672025984384 L 534.4500251174709 403.7037971238034 L 535.6489162545579 403.03238582670355 L 536.896789933611 402.4571081810525 L 538.1859525984385 401.9815109648348 L 539.5084561325217 401.6085263930407 L 540.856146861796 401.3404540395851 L 542.2207158247628 401.17894665967026 L 543.5937500000001 401.125 L 544.9667841752373 401.17894665967026 L 546.3313531382041 401.3404540395851 L 547.6790438674784 401.6085263930407 L 549.0015474015617 401.98151096483485 L 550.2907100663891 402.4571081810525 L 551.5385837454421 403.0323858267036 L 552.7374748825292 403.70379712380344 L 553.8799919151184 404.4672025984385 L 554.9590908457783 405.31789560199957 L 555.9681186707646 406.2506313292355 L 556.9008543980007 407.2596591542219 L 557.7515474015617 408.3387580848818 L 558.5149528761967 409.48127511747106 L 559.1863641732965 410.68016625455806 L 559.7616418189476 411.9280399336111 L 560.2372390351652 413.2172025984386 L 560.6102236069594 414.5397061325218 L 560.8782959604149 415.88739686179616 L 561.0398033403297 417.2519658247629 Z" fill-opacity="1" stroke-opacity="1" stroke-miterlimit="10" stroke-width="2"/><text fill="rgb(255,255,255)" stroke="none" font-family="times new roman" font-size="10px" font-style="normal" font-weight="normal" text-decoration="normal" x="543.59375" y="423.625" text-anchor="middle" dominant-baseline="text-after-edge" fill-opacity="1">*1.41</text><path fill="rgb(69,90,100)" stroke="rgb(76,175,80)" paint-order="fill stroke markers" d=" M 406.84375 408.625 L 406.84375 428.625 L 501.84375 428.625 L 501.84375 408.625 Z" fill-opacity="1" stroke-opacity="1" stroke-miterlimit="10" stroke-width="2"/><text fill="rgb(255,255,255)" stroke="none" font-family="times new roman" font-size="10px" font-style="normal" font-weight="normal" text-decoration="normal" x="454.34375" y="423.625" text-anchor="middle" dominant-baseline="text-after-edge" fill-opacity="1">42130047G&gt;C</text><path fill="rgb(69,90,100)" stroke="rgb(244,67,54)" paint-order="fill stroke markers" d=" M 835.09375 248.875 L 835.09375 268.875 L 930.09375 268.875 L 930.09375 248.875 Z" fill-opacity="1" stroke-opacity="1" stroke-miterlimit="10" stroke-width="2"/><text fill="rgb(255,255,255)" stroke="none" font-family="times new roman" font-size="10px" font-style="normal" font-weight="normal" text-decoration="normal" x="882.59375" y="263.875" text-anchor="middle" dominant-baseline="text-after-edge" fill-opacity="1">42128945C&gt;T</text><path fill="rgb(69,90,100)" stroke="rgb(244,67,54)" paint-order="fill stroke markers" d=" M 1034.71875 550.25 L 1034.6648033403299 551.6230341752373 L 1034.503295960415 552.987603138204 L 1034.2352236069594 554.3352938674783 L 1033.8622390351652 555.6577974015615 L 1033.3866418189475 556.9469600663891 L 1032.8113641732964 558.1948337454421 L 1032.1399528761965 559.3937248825291 L 1031.3765474015615 560.5362419151182 L 1030.5258543980005 561.6153408457782 L 1029.5931186707646 562.6243686707646 L 1028.5840908457783 563.5571043980005 L 1027.5049919151184 564.4077974015615 L 1026.362474882529 565.1712028761966 L 1025.163583745442 565.8426141732964 L 1023.9157100663891 566.4178918189475 L 1022.6265474015615 566.8934890351652 L 1021.3040438674783 567.2664736069594 L 1019.956353138204 567.5345459604149 L 1018.5917841752373 567.6960533403297 L 1017.21875 567.75 L 1015.8457158247627 567.6960533403297 L 1014.481146861796 567.5345459604149 L 1013.1334561325217 567.2664736069594 L 1011.8109525984385 566.8934890351652 L 1010.5217899336109 566.4178918189475 L 1009.2739162545579 565.8426141732964 L 1008.0750251174709 565.1712028761966 L 1006.9325080848818 564.4077974015615 L 1005.8534091542218 563.5571043980005 L 1004.8443813292354 562.6243686707646 L 1003.9116456019995 561.6153408457782 L 1003.0609525984385 560.5362419151182 L 1002.2975471238034 559.3937248825291 L 1001.6261358267036 558.1948337454421 L 1001.0508581810525 556.9469600663891 L 1000.5752609648348 555.6577974015615 L 1000.2022763930406 554.3352938674783 L 999.9342040395851 552.987603138204 L 999.7726966596703 551.6230341752373 L 999.71875 550.25 L 999.7726966596703 548.8769658247627 L 999.9342040395851 547.512396861796 L 1000.2022763930406 546.1647061325217 L 1000.5752609648348 544.8422025984385 L 1001.0508581810525 543.5530399336109 L 1001.6261358267036 542.3051662545579 L 1002.2975471238034 541.1062751174709 L 1003.0609525984385 539.9637580848818 L 1003.9116456019995 538.8846591542218 L 1004.8443813292354 537.8756313292354 L 1005.8534091542218 536.9428956019995 L 1006.9325080848818 536.0922025984385 L 1008.0750251174709 535.3287971238034 L 1009.2739162545579 534.6573858267036 L 1010.521789933611 534.0821081810525 L 1011.8109525984385 533.6065109648348 L 1013.1334561325217 533.2335263930406 L 1014.481146861796 532.9654540395851 L 1015.8457158247628 532.8039466596703 L 1017.2187500000001 532.75 L 1018.5917841752373 532.8039466596703 L 1019.9563531382041 532.9654540395851 L 1021.3040438674784 533.2335263930406 L 1022.6265474015617 533.6065109648348 L 1023.9157100663891 534.0821081810525 L 1025.163583745442 534.6573858267036 L 1026.362474882529 535.3287971238035 L 1027.5049919151184 536.0922025984385 L 1028.5840908457783 536.9428956019996 L 1029.5931186707646 537.8756313292355 L 1030.5258543980005 538.8846591542219 L 1031.3765474015618 539.9637580848819 L 1032.1399528761967 541.106275117471 L 1032.8113641732966 542.3051662545581 L 1033.3866418189475 543.5530399336111 L 1033.8622390351652 544.8422025984386 L 1034.2352236069594 546.1647061325218 L 1034.503295960415 547.5123968617961 L 1034.6648033403299 548.8769658247629 Z" fill-opacity="1" stroke-opacity="1" stroke-miterlimit="10" stroke-width="2"/><text fill="rgb(255,255,255)" stroke="none" font-family="times new roman" font-size="10px" font-style="normal" font-weight="normal" text-decoration="normal" x="1017.21875" y="555.25" text-anchor="middle" dominant-baseline="text-after-edge" fill-opacity="1">*4.11</text><path fill="rgb(69,90,100)" stroke="rgb(76,175,80)" paint-order="fill stroke markers" d=" M 933.65625 114.125 L 933.6023033403297 115.49803417523728 L 933.4407959604149 116.86260313820404 L 933.1727236069594 118.21029386747834 L 932.7997390351652 119.53279740156158 L 932.3241418189475 120.82196006638907 L 931.7488641732964 122.06983374544207 L 931.0774528761966 123.2687248825291 L 930.3140474015615 124.41124191511828 L 929.4633543980005 125.4903408457782 L 928.5306186707646 126.49936867076458 L 927.5215908457782 127.43210439800055 L 926.4424919151182 128.2827974015616 L 925.2999748825291 129.04620287619662 L 924.1010837454421 129.71761417329643 L 922.8532100663891 130.2928918189475 L 921.5640474015615 130.76848903516517 L 920.2415438674783 131.14147360695935 L 918.893853138204 131.4095459604149 L 917.5292841752373 131.57105334032974 L 916.15625 131.625 L 914.7832158247627 131.57105334032974 L 913.418646861796 131.4095459604149 L 912.0709561325217 131.14147360695935 L 910.7484525984385 130.7684890351652 L 909.4592899336109 130.2928918189475 L 908.2114162545579 129.71761417329643 L 907.0125251174709 129.04620287619662 L 905.8700080848818 128.2827974015616 L 904.7909091542218 127.43210439800055 L 903.7818813292354 126.49936867076458 L 902.8491456019995 125.49034084577822 L 901.9984525984385 124.41124191511828 L 901.2350471238034 123.26872488252911 L 900.5636358267036 122.06983374544207 L 899.9883581810525 120.82196006638907 L 899.5127609648348 119.53279740156158 L 899.1397763930406 118.21029386747834 L 898.8717040395851 116.86260313820404 L 898.7101966596703 115.4980341752373 L 898.65625 114.125 L 898.7101966596703 112.75196582476272 L 898.8717040395851 111.38739686179596 L 899.1397763930406 110.03970613252166 L 899.5127609648348 108.71720259843842 L 899.9883581810525 107.42803993361093 L 900.5636358267036 106.18016625455793 L 901.2350471238034 104.9812751174709 L 901.9984525984385 103.83875808488172 L 902.8491456019995 102.7596591542218 L 903.7818813292354 101.75063132923542 L 904.7909091542218 100.81789560199947 L 905.8700080848818 99.96720259843842 L 907.0125251174709 99.20379712380338 L 908.2114162545579 98.53238582670356 L 909.459289933611 97.95710818105248 L 910.7484525984385 97.4815109648348 L 912.0709561325217 97.10852639304065 L 913.418646861796 96.84045403958508 L 914.7832158247628 96.67894665967026 L 916.1562500000001 96.625 L 917.5292841752373 96.67894665967026 L 918.8938531382041 96.8404540395851 L 920.2415438674784 97.10852639304068 L 921.5640474015617 97.48151096483484 L 922.8532100663891 97.95710818105252 L 924.1010837454421 98.5323858267036 L 925.2999748825292 99.20379712380344 L 926.4424919151184 99.96720259843849 L 927.5215908457783 100.81789560199954 L 928.5306186707646 101.75063132923552 L 929.4633543980007 102.7596591542219 L 930.3140474015617 103.83875808488185 L 931.0774528761967 104.98127511747103 L 931.7488641732965 106.18016625455807 L 932.3241418189476 107.42803993361109 L 932.7997390351652 108.71720259843859 L 933.1727236069594 110.03970613252184 L 933.4407959604149 111.38739686179616 L 933.6023033403297 112.75196582476292 Z" fill-opacity="1" stroke-opacity="1" stroke-miterlimit="10" stroke-width="2"/><text fill="rgb(255,255,255)" stroke="none" font-family="times new roman" font-size="10px" font-style="normal" font-weight="normal" text-decoration="normal" x="916.15625" y="119.125" text-anchor="middle" dominant-baseline="text-after-edge" fill-opacity="1">*39.2</text><path fill="rgb(69,90,100)" stroke="rgb(158,158,158)" paint-order="fill stroke markers" d=" M 1075.09375 330.625 L 1075.09375 350.625 L 1170.09375 350.625 L 1170.09375 330.625 Z" fill-opacity="1" stroke-opacity="1" stroke-miterlimit="10" stroke-width="2"/><text fill="rgb(255,255,255)" stroke="none" font-family="times new roman" font-size="10px" font-style="normal" font-weight="normal" text-decoration="normal" x="1122.59375" y="345.625" text-anchor="middle" dominant-baseline="text-after-edge" fill-opacity="1">42129809T&gt;C</text><path fill="rgb(69,90,100)" stroke="rgb(76,175,80)" paint-order="fill stroke markers" d=" M 1135.46875 248.875 L 1135.46875 268.875 L 1230.46875 268.875 L 1230.46875 248.875 Z" fill-opacity="1" stroke-opacity="1" stroke-miterlimit="10" stroke-width="2"/><text fill="rgb(255,255,255)" stroke="none" font-family="times new roman" font-size="10px" font-style="normal" font-weight="normal" text-decoration="normal" x="1182.96875" y="263.875" text-anchor="middle" dominant-baseline="text-after-edge" fill-opacity="1">42129130C&gt;G</text><path fill="rgb(69,90,100)" stroke="rgb(255,193,7)" paint-order="fill stroke markers" d=" M 795.40625 258.875 L 795.3368900089954 260.6403296538765 L 795.1292376633907 262.3947754634052 L 794.7845732089477 264.12752068675786 L 794.3050216166409 265.8278823734363 L 793.693539481504 267.48537722821453 L 792.9538967942383 269.0897862441398 L 792.0906536979671 270.6312177061088 L 791.1091323734363 272.10016817658067 L 790.0153842260007 273.48758108742913 L 788.8161525766973 274.78490257669733 L 787.5188310874291 275.9841342260007 L 786.1314181765806 277.0778823734363 L 784.6624677061088 278.05940369796707 L 783.1210362441398 278.9226467942383 L 781.5166272282145 279.66228948150393 L 779.8591323734363 280.27377161664094 L 778.1587706867579 280.75332320894773 L 776.4260254634052 281.0979876633906 L 774.6715796538765 281.3056400089954 L 772.90625 281.375 L 771.1409203461235 281.3056400089954 L 769.3864745365948 281.0979876633906 L 767.6537293132421 280.75332320894773 L 765.9533676265637 280.27377161664094 L 764.2958727717855 279.66228948150393 L 762.6914637558602 278.9226467942383 L 761.1500322938912 278.05940369796707 L 759.6810818234194 277.0778823734363 L 758.2936689125709 275.9841342260007 L 756.9963474233027 274.78490257669733 L 755.7971157739993 273.48758108742913 L 754.7033676265637 272.10016817658067 L 753.7218463020329 270.6312177061088 L 752.8586032057617 269.0897862441398 L 752.118960518496 267.48537722821453 L 751.5074783833591 265.8278823734363 L 751.0279267910523 264.12752068675786 L 750.6832623366095 262.3947754634052 L 750.4756099910046 260.6403296538765 L 750.40625 258.875 L 750.4756099910046 257.1096703461235 L 750.6832623366093 255.35522453659482 L 751.0279267910523 253.62247931324214 L 751.5074783833591 251.92211762656368 L 752.118960518496 250.26462277178547 L 752.8586032057617 248.6602137558602 L 753.7218463020329 247.11878229389114 L 754.7033676265637 245.64983182341936 L 755.7971157739993 244.26241891257087 L 756.9963474233027 242.9650974233027 L 758.2936689125709 241.7658657739993 L 759.6810818234194 240.67211762656368 L 761.1500322938912 239.69059630203293 L 762.6914637558602 238.8273532057617 L 764.2958727717855 238.08771051849604 L 765.9533676265637 237.47622838335903 L 767.6537293132421 236.99667679105227 L 769.3864745365948 236.6520123366094 L 771.1409203461236 236.4443599910046 L 772.9062500000001 236.375 L 774.6715796538766 236.44435999100463 L 776.4260254634053 236.6520123366094 L 778.158770686758 236.9966767910523 L 779.8591323734364 237.47622838335909 L 781.5166272282146 238.0877105184961 L 783.1210362441399 238.8273532057618 L 784.6624677061089 239.690596302033 L 786.1314181765807 240.67211762656376 L 787.5188310874292 241.76586577399942 L 788.8161525766974 242.9650974233028 L 790.0153842260008 244.262418912571 L 791.1091323734364 245.6498318234195 L 792.0906536979671 247.11878229389131 L 792.9538967942384 248.66021375586038 L 793.693539481504 250.2646227717857 L 794.305021616641 251.9221176265639 L 794.7845732089478 253.62247931324237 L 795.1292376633907 255.35522453659505 L 795.3368900089954 257.1096703461238 Z" fill-opacity="1" stroke-opacity="1" stroke-miterlimit="10" stroke-width="2"/><text fill="rgb(255,255,255)" stroke="none" font-family="times new roman" font-size="15px" font-style="normal" font-weight="normal" text-decoration="normal" x="772.90625" y="266.375" text-anchor="middle" dominant-baseline="text-after-edge" fill-opacity="1">*10</text><path fill="rgb(69,90,100)" stroke="rgb(69,90,100)" paint-order="fill stroke markers" d=" M 798.40625 664.375 L 779.65625 681.875 L 798.40625 699.375 L 835.90625 699.375 L 854.65625 681.875 L 835.90625 664.375 Z" fill-opacity="1" stroke-opacity="1" stroke-miterlimit="10" stroke-width="2"/><text fill="rgb(255,255,255)" stroke="none" font-family="times new roman" font-size="10px" font-style="normal" font-weight="normal" text-decoration="normal" x="817.15625" y="686.875" text-anchor="middle" dominant-baseline="text-after-edge" fill-opacity="1">NA07019-B</text><path fill="rgb(69,90,100)" stroke="rgb(76,175,80)" paint-order="fill stroke markers" d=" M 183.34375 408.625 L 183.34375 428.625 L 278.34375 428.625 L 278.34375 408.625 Z" fill-opacity="1" stroke-opacity="1" stroke-miterlimit="10" stroke-width="2"/><text fill="rgb(255,255,255)" stroke="none" font-family="times new roman" font-size="10px" font-style="normal" font-weight="normal" text-decoration="normal" x="230.84375" y="423.625" text-anchor="middle" dominant-baseline="text-after-edge" fill-opacity="1">42130482C&gt;A</text><path fill="rgb(69,90,100)" stroke="rgb(76,175,80)" paint-order="fill stroke markers" d=" M 295.09375 408.625 L 295.09375 428.625 L 390.09375 428.625 L 390.09375 408.625 Z" fill-opacity="1" stroke-opacity="1" stroke-miterlimit="10" stroke-width="2"/><text fill="rgb(255,255,255)" stroke="none" font-family="times new roman" font-size="10px" font-style="normal" font-weight="normal" text-decoration="normal" x="342.59375" y="423.625" text-anchor="middle" dominant-baseline="text-after-edge" fill-opacity="1">42129950A&gt;C</text><path fill="rgb(69,90,100)" stroke="rgb(76,175,80)" paint-order="fill stroke markers" d=" M 501.46875 550.25 L 501.41480334032974 551.6230341752373 L 501.2532959604149 552.987603138204 L 500.9852236069593 554.3352938674783 L 500.6122390351652 555.6577974015615 L 500.1366418189475 556.9469600663891 L 499.56136417329645 558.1948337454421 L 498.8899528761966 559.3937248825291 L 498.1265474015616 560.5362419151182 L 497.27585439800055 561.6153408457782 L 496.34311867076457 562.6243686707646 L 495.33409084577823 563.5571043980005 L 494.2549919151183 564.4077974015615 L 493.1124748825291 565.1712028761966 L 491.91358374544205 565.8426141732964 L 490.66571006638907 566.4178918189475 L 489.3765474015616 566.8934890351652 L 488.05404386747836 567.2664736069594 L 486.70635313820407 567.5345459604149 L 485.3417841752373 567.6960533403297 L 483.96875 567.75 L 482.5957158247627 567.6960533403297 L 481.23114686179593 567.5345459604149 L 479.88345613252164 567.2664736069594 L 478.5609525984384 566.8934890351652 L 477.27178993361093 566.4178918189475 L 476.02391625455795 565.8426141732964 L 474.8250251174709 565.1712028761966 L 473.6825080848817 564.4077974015615 L 472.60340915422177 563.5571043980005 L 471.59438132923543 562.6243686707646 L 470.66164560199945 561.6153408457782 L 469.8109525984384 560.5362419151182 L 469.0475471238034 559.3937248825291 L 468.37613582670355 558.1948337454421 L 467.8008581810525 556.9469600663891 L 467.3252609648348 555.6577974015615 L 466.9522763930407 554.3352938674783 L 466.6842040395851 552.987603138204 L 466.52269665967026 551.6230341752373 L 466.46875 550.25 L 466.52269665967026 548.8769658247627 L 466.6842040395851 547.512396861796 L 466.9522763930407 546.1647061325217 L 467.3252609648348 544.8422025984385 L 467.8008581810525 543.5530399336109 L 468.37613582670355 542.3051662545579 L 469.0475471238034 541.1062751174709 L 469.8109525984384 539.9637580848818 L 470.66164560199945 538.8846591542218 L 471.59438132923543 537.8756313292354 L 472.60340915422177 536.9428956019995 L 473.6825080848817 536.0922025984385 L 474.8250251174709 535.3287971238034 L 476.02391625455795 534.6573858267036 L 477.27178993361093 534.0821081810525 L 478.56095259843846 533.6065109648348 L 479.8834561325217 533.2335263930406 L 481.231146861796 532.9654540395851 L 482.59571582476275 532.8039466596703 L 483.96875000000006 532.75 L 485.34178417523736 532.8039466596703 L 486.7063531382041 532.9654540395851 L 488.0540438674784 533.2335263930406 L 489.37654740156165 533.6065109648348 L 490.6657100663892 534.0821081810525 L 491.91358374544217 534.6573858267036 L 493.1124748825292 535.3287971238035 L 494.25499191511835 536.0922025984385 L 495.3340908457783 536.9428956019996 L 496.3431186707647 537.8756313292355 L 497.27585439800066 538.8846591542219 L 498.12654740156165 539.9637580848819 L 498.8899528761967 541.106275117471 L 499.5613641732965 542.3051662545581 L 500.13664181894757 543.5530399336111 L 500.61223903516526 544.8422025984386 L 500.9852236069594 546.1647061325218 L 501.25329596041496 547.5123968617961 L 501.41480334032974 548.8769658247629 Z" fill-opacity="1" stroke-opacity="1" stroke-miterlimit="10" stroke-width="2"/><text fill="rgb(255,255,255)" stroke="none" font-family="times new roman" font-size="10px" font-style="normal" font-weight="normal" text-decoration="normal" x="483.96875" y="555.25" text-anchor="middle" dominant-baseline="text-after-edge" fill-opacity="1">*1.54</text><path fill="rgb(176,190,197)" stroke="none" paint-order="stroke fill markers" d=" M 345.96875 445.25 L 345.96875 655.25 L 420.96875 655.25 L 420.96875 445.25000000000006 Z" fill-opacity="0.8"/><text fill="rgb(0,0,0)" stroke="none" font-family="times new roman" font-size="10px" font-style="normal" font-weight="normal" text-decoration="normal" x="350.96875" y="460.25" text-anchor="start" dominant-baseline="text-after-edge" fill-opacity="0.8">42126390G&gt;A </text><text fill="rgb(0,0,0)" stroke="none" font-family="times new roman" font-size="10px" font-style="normal" font-weight="normal" text-decoration="normal" x="350.96875" y="470.25" text-anchor="start" dominant-baseline="text-after-edge" fill-opacity="0.8">42126548G&gt;A </text><text fill="rgb(0,0,0)" stroke="none" font-family="times new roman" font-size="10px" font-style="normal" font-weight="normal" text-decoration="normal" x="350.96875" y="480.25" text-anchor="start" dominant-baseline="text-after-edge" fill-opacity="0.8">42127209T&gt;C </text><text fill="rgb(0,0,0)" stroke="none" font-family="times new roman" font-size="10px" font-style="normal" font-weight="normal" text-decoration="normal" x="350.96875" y="490.25" text-anchor="start" dominant-baseline="text-after-edge" fill-opacity="0.8">42128694T&gt;C </text><text fill="rgb(0,0,0)" stroke="none" font-family="times new roman" font-size="10px" font-style="normal" font-weight="normal" text-decoration="normal" x="350.96875" y="500.25" text-anchor="start" dominant-baseline="text-after-edge" fill-opacity="0.8">42131791C&gt;T </text><text fill="rgb(0,0,0)" stroke="none" font-family="times new roman" font-size="10px" font-style="normal" font-weight="normal" text-decoration="normal" x="350.96875" y="510.25" text-anchor="start" dominant-baseline="text-after-edge" fill-opacity="0.8">42132217G&gt;A </text><path fill="rgb(176,190,197)" stroke="none" paint-order="stroke fill markers" d=" M 908.09375 445.25 L 975.09375 445.25 L 975.09375 445.25 A 8 8 0 0 1 983.09375 453.25 L 983.09375 647.25 L 983.09375 647.25 A 8 8 0 0 1 975.09375 655.25 L 841.09375 655.25 L 841.09375 655.25 A 8 8 0 0 1 833.09375 647.25 L 833.09375 453.25 L 833.09375 453.25 A 8 8 0 0 1 841.09375 445.25 L 908.09375 445.25 Z" fill-opacity="0.8"/><text fill="rgb(0,0,0)" stroke="none" font-family="times new roman" font-size="10px" font-style="normal" font-weight="normal" text-decoration="normal" x="838.09375" y="460.25" text-anchor="start" dominant-baseline="text-after-edge" fill-opacity="0.8">42125924A&gt;G </text><text fill="rgb(0,0,0)" stroke="none" font-family="times new roman" font-size="10px" font-style="normal" font-weight="normal" text-decoration="normal" x="838.09375" y="470.25" text-anchor="start" dominant-baseline="text-after-edge" fill-opacity="0.8">42125980T&gt;C </text><text fill="rgb(0,0,0)" stroke="none" font-family="times new roman" font-size="10px" font-style="normal" font-weight="normal" text-decoration="normal" x="838.09375" y="480.25" text-anchor="start" dominant-baseline="text-after-edge" fill-opacity="0.8">42126069A&gt;C </text><text fill="rgb(0,0,0)" stroke="none" font-family="times new roman" font-size="10px" font-style="normal" font-weight="normal" text-decoration="normal" x="838.09375" y="490.25" text-anchor="start" dominant-baseline="text-after-edge" fill-opacity="0.8">42132027C&gt;T </text><text fill="rgb(0,0,0)" stroke="none" font-family="times new roman" font-size="10px" font-style="normal" font-weight="normal" text-decoration="normal" x="838.09375" y="500.25" text-anchor="start" dominant-baseline="text-after-edge" fill-opacity="0.8">42132844C&gt;A </text><text fill="rgb(0,0,0)" stroke="none" font-family="times new roman" font-size="10px" font-style="normal" font-weight="normal" text-decoration="normal" x="838.09375" y="510.25" text-anchor="start" dominant-baseline="text-after-edge" fill-opacity="0.8">42132851T&gt;C </text><text fill="rgb(0,0,0)" stroke="none" font-family="times new roman" font-size="10px" font-style="normal" font-weight="normal" text-decoration="normal" x="838.09375" y="520.25" text-anchor="start" dominant-baseline="text-after-edge" fill-opacity="0.8">42132969C&gt;T </text><text fill="rgb(0,0,0)" stroke="none" font-family="times new roman" font-size="10px" font-style="normal" font-weight="normal" text-decoration="normal" x="838.09375" y="530.25" text-anchor="start" dominant-baseline="text-after-edge" fill-opacity="0.8">42133212A&gt;G </text><text fill="rgb(0,0,0)" stroke="none" font-family="times new roman" font-size="10px" font-style="normal" font-weight="normal" text-decoration="normal" x="838.09375" y="540.25" text-anchor="start" dominant-baseline="text-after-edge" fill-opacity="0.8">42133314C&gt;T </text><text fill="rgb(0,0,0)" stroke="none" font-family="times new roman" font-size="10px" font-style="normal" font-weight="normal" text-decoration="normal" x="838.09375" y="550.25" text-anchor="start" dominant-baseline="text-after-edge" fill-opacity="0.8">42133400T&gt;G </text><text fill="rgb(0,0,0)" stroke="none" font-family="times new roman" font-size="10px" font-style="normal" font-weight="normal" text-decoration="normal" x="838.09375" y="560.25" text-anchor="start" dominant-baseline="text-after-edge" fill-opacity="0.8">42134096del </text><text fill="rgb(0,0,0)" stroke="none" font-family="times new roman" font-size="10px" font-style="normal" font-weight="normal" text-decoration="normal" x="838.09375" y="570.25" text-anchor="start" dominant-baseline="text-after-edge" fill-opacity="0.8">42134820T&gt;G </text><text fill="rgb(0,0,0)" stroke="none" font-family="times new roman" font-size="10px" font-style="normal" font-weight="normal" text-decoration="normal" x="838.09375" y="580.25" text-anchor="start" dominant-baseline="text-after-edge" fill-opacity="0.8">42135064_42135066dup </text><text fill="rgb(0,0,0)" stroke="none" font-family="times new roman" font-size="10px" font-style="normal" font-weight="normal" text-decoration="normal" x="838.09375" y="590.25" text-anchor="start" dominant-baseline="text-after-edge" fill-opacity="0.8">42135201T&gt;C </text><g transform="scale(1.209051724137931,1.209051724137931) translate(119.98841354723709,25.18360071301248)"/></g></svg>