<svg version="1.1" xmlns="http://www.w3.org/2000/svg" xmlns:xlink="http://www.w3.org/1999/xlink" width="1017" height="608"><defs/><g transform="translate(215.64170040485828,-30.272604588394074) scale(5.916329284750337,5.916329284750337)"><path fill="none" stroke="rgb(55,71,79)" paint-order="fill stroke markers" d=" M 49.5 33.1875 L 49.5 64.81250000000001" stroke-opacity="1" stroke-linejoin="round" stroke-miterlimit="10" stroke-width="2"/><path fill="rgb(69,90,100)" stroke="rgb(76,175,80)" paint-order="fill stroke markers" d=" M 49.5 12.1875 L 92 12.1875 L 92 12.1875 A 5 5 0 0 1 97 17.1875 L 97 27.1875 L 97 27.1875 A 5 5 0 0 1 92 32.1875 L 7 32.1875 L 7 32.1875 A 5 5 0 0 1 2 27.1875 L 2 17.1875 L 2 17.1875 A 5 5 0 0 1 7 12.1875 L 49.5 12.1875 Z" fill-opacity="1" stroke-opacity="1" stroke-miterlimit="10" stroke-width="2"/><text fill="rgb(255,255,255)" stroke="none" font-family="times new roman" font-size="10px" font-style="normal" font-weight="normal" text-decoration="normal" x="49.5" y="27.1875" text-anchor="middle" dominant-baseline="text-after-edge" fill-opacity="1">42129037G&gt;A</text><path fill="rgb(69,90,100)" stroke="rgb(69,90,100)" paint-order="fill stroke markers" d=" M 30.750000000000007 65.8125 L 12 83.3125 L 30.749999999999982 100.81249999999999 L 68.24999999999997 100.8125 L 87 83.3125 L 68.25000000000004 65.81250000000001 Z" fill-opacity="1" stroke-opacity="1" stroke-miterlimit="10" stroke-width="2"/><text fill="rgb(255,255,255)" stroke="none" font-family="times new roman" font-size="10px" font-style="normal" font-weight="normal" text-decoration="normal" x="49.5" y="88.3125" text-anchor="middle" dominant-baseline="text-after-edge" fill-opacity="1">NA10854-A</text><g transform="scale(0.16902372262773724,0.16902372262773724) translate(-215.64170040485828,30.272604588394074)"/></g></svg>