<svg version="1.1" xmlns="http://www.w3.org/2000/svg" xmlns:xlink="http://www.w3.org/1999/xlink" width="1017" height="608"><defs/><g transform="translate(-113.87840845854203,25.65164162493045) scale(0.9467631237247264,0.9467631237247264)"><path fill="none" stroke="rgb(55,71,79)" paint-order="fill stroke markers" d=" M 790.6190159574468 99.125 L 815.7125519975086 138.76856954228253" stroke-opacity="1" stroke-linejoin="round" stroke-miterlimit="10" stroke-width="2"/><path fill="none" stroke="rgb(120,144,156)" paint-order="fill stroke markers" d=" M 702.004531201032 249.12792974422433 L 811.5997706544189 354.071912350783" stroke-opacity="1" stroke-linejoin="round" stroke-miterlimit="10"/><path fill="rgb(120,144,156)" stroke="none" paint-order="stroke fill markers" d=" M 803.7520588061511 352.57996102900375 L 813.0443052247194 355.4551404141213 L 809.7691008816726 346.2962356481961 Z" fill-opacity="1"/><path fill="none" stroke="rgb(120,144,156)" paint-order="fill stroke markers" d=" M 218.90133013362612 374.44315346852505 L 541.9750983196182 489.2193605872328" stroke-opacity="1" stroke-linejoin="round" stroke-miterlimit="10"/><path fill="rgb(120,144,156)" stroke="none" paint-order="stroke fill markers" d=" M 534.2054494286248 491.07544682194396 L 543.8597015773075 489.88889069193823 L 537.1179053840933 482.8774226509954 Z" fill-opacity="1"/><path fill="none" stroke="rgb(120,144,156)" paint-order="fill stroke markers" d=" M 659.8597109285228 179.85409855156925 L 674.0950477158583 209.83916965680783" stroke-opacity="1" stroke-linejoin="round" stroke-miterlimit="10"/><path fill="rgb(120,144,156)" stroke="none" paint-order="stroke fill markers" d=" M 667.2919725277549 205.6522056033423 L 674.9527890714772 211.64590144843075 L 675.1512558213146 201.92103070639982 Z" fill-opacity="1"/><path fill="none" stroke="rgb(55,71,79)" paint-order="fill stroke markers" d=" M 612.1190159574468 99.125 L 637.2125519975086 138.76856954228253" stroke-opacity="1" stroke-linejoin="round" stroke-miterlimit="10" stroke-width="2"/><path fill="none" stroke="rgb(55,71,79)" paint-order="fill stroke markers" d=" M 712.3471424605247 175.33726907251196 L 695.1097109285228 211.64590144843075" stroke-opacity="1" stroke-linejoin="round" stroke-miterlimit="10" stroke-width="2"/><path fill="none" stroke="rgb(120,144,156)" paint-order="fill stroke markers" d=" M 477.46875 426.4911504424779 L 549.0952150866633 482.1125868261478" stroke-opacity="1" stroke-linejoin="round" stroke-miterlimit="10"/><path fill="rgb(120,144,156)" stroke="none" paint-order="stroke fill markers" d=" M 541.135395040206 481.4389661405851 L 550.6748599627946 483.3392579578338 L 546.4714144630404 474.56751092941374 Z" fill-opacity="1"/><path fill="none" stroke="rgb(120,144,156)" paint-order="fill stroke markers" d=" M 562.6386217948718 473.25 L 564.8244246328742 479.48753492795805" stroke-opacity="1" stroke-linejoin="round" stroke-miterlimit="10"/><path fill="rgb(120,144,156)" stroke="none" paint-order="stroke fill markers" d=" M 558.5034331640467 474.6031140972956 L 565.485844017094 481.375 L 566.7139062274291 471.7259397759395 Z" fill-opacity="1"/><path fill="none" stroke="rgb(55,71,79)" paint-order="fill stroke markers" d=" M 684.5117430618685 103.75665801990523 L 662.3499480024914 138.76856954228253" stroke-opacity="1" stroke-linejoin="round" stroke-miterlimit="10" stroke-width="2"/><path fill="none" stroke="rgb(120,144,156)" paint-order="fill stroke markers" d=" M 781.9619979224377 243.875 L 819.507966406902 348.94550095264844" stroke-opacity="1" stroke-linejoin="round" stroke-miterlimit="10"/><path fill="rgb(120,144,156)" stroke="none" paint-order="stroke fill markers" d=" M 813.1570848981345 344.10000778253726 L 820.1809696842774 350.8288667133657 L 821.3497259572543 341.1724435259543 Z" fill-opacity="1"/><path fill="none" stroke="rgb(55,71,79)" paint-order="fill stroke markers" d=" M 863.0117430618685 103.75665801990523 L 840.8499480024914 138.76856954228253" stroke-opacity="1" stroke-linejoin="round" stroke-miterlimit="10" stroke-width="2"/><path fill="none" stroke="rgb(120,144,156)" paint-order="fill stroke markers" d=" M 566.4765701670838 254.28179254016675 L 607.573296201675 345.02135277556374" stroke-opacity="1" stroke-linejoin="round" stroke-miterlimit="10"/><path fill="rgb(120,144,156)" stroke="none" paint-order="stroke fill markers" d=" M 600.8465645987309 340.71280523121044 L 608.3984298329162 346.84320745983325 L 608.7716324753032 337.1234739353113 Z" fill-opacity="1"/><path fill="none" stroke="rgb(120,144,156)" paint-order="fill stroke markers" d=" M 610.3220722354171 390.42771459649276 L 579.1130753671258 479.48753492795805" stroke-opacity="1" stroke-linejoin="round" stroke-miterlimit="10"/><path fill="rgb(120,144,156)" stroke="none" paint-order="stroke fill markers" d=" M 577.223593772571 471.7259397759395 L 578.451655982906 481.375 L 585.4340668359534 474.6031140972957 Z" fill-opacity="1"/><path fill="none" stroke="rgb(55,71,79)" paint-order="fill stroke markers" d=" M 201.46875 169.625 L 201.46875 214.375" stroke-opacity="1" stroke-linejoin="round" stroke-miterlimit="10" stroke-width="2"/><path fill="none" stroke="rgb(120,144,156)" paint-order="fill stroke markers" d=" M 201.46875 251.375 L 201.46875 347.75" stroke-opacity="1" stroke-linejoin="round" stroke-miterlimit="10"/><path fill="rgb(120,144,156)" stroke="none" paint-order="stroke fill markers" d=" M 197.11875 341.05 L 201.46875 349.75 L 205.81875 341.05 Z" fill-opacity="1"/><path fill="none" stroke="rgb(120,144,156)" paint-order="fill stroke markers" d=" M 1008.4938538781164 243.875 L 1076.2547488548894 350.92831766571123" stroke-opacity="1" stroke-linejoin="round" stroke-miterlimit="10"/><path fill="rgb(120,144,156)" stroke="none" paint-order="stroke fill markers" d=" M 1068.995815887748 347.5935924628575 L 1077.3244075031928 352.61823789344675 L 1076.3469688783973 342.9405773427373 Z" fill-opacity="1"/><path fill="none" stroke="rgb(120,144,156)" paint-order="fill stroke markers" d=" M 809.9747347868745 376.7503122178438 L 598.7729214674447 486.0087300146306" stroke-opacity="1" stroke-linejoin="round" stroke-miterlimit="10"/><path fill="rgb(120,144,156)" stroke="none" paint-order="stroke fill markers" d=" M 602.7250724825972 479.06661201264956 L 596.9965414444041 486.92768268682994 L 606.7225166066643 486.7938651128761 Z" fill-opacity="1"/><path fill="none" stroke="rgb(120,144,156)" paint-order="fill stroke markers" d=" M 283.46667243767314 243.875 L 212.75242739961337 351.13484226361163" stroke-opacity="1" stroke-linejoin="round" stroke-miterlimit="10"/><path fill="rgb(120,144,156)" stroke="none" paint-order="stroke fill markers" d=" M 212.80851044469242 343.1467664820448 L 211.65158082404133 352.80461375008855 L 220.07201641086698 347.93544908578315 Z" fill-opacity="1"/><path fill="none" stroke="rgb(120,144,156)" paint-order="fill stroke markers" d=" M 402.46875 243.875 L 402.46875 261.25" stroke-opacity="1" stroke-linejoin="round" stroke-miterlimit="10"/><path fill="rgb(120,144,156)" stroke="none" paint-order="stroke fill markers" d=" M 398.11875 254.55 L 402.46875 263.25 L 406.81875 254.55 Z" fill-opacity="1"/><path fill="none" stroke="rgb(120,144,156)" paint-order="fill stroke markers" d=" M 674.6151993466235 253.94051420654847 L 629.3962730494085 345.3916760737453" stroke-opacity="1" stroke-linejoin="round" stroke-miterlimit="10"/><path fill="rgb(120,144,156)" stroke="none" paint-order="stroke fill markers" d=" M 628.4665944357547 337.45768605135964 L 628.5098006533765 347.18448579345153 L 636.265316716477 341.313840974099 Z" fill-opacity="1"/><path fill="none" stroke="rgb(55,71,79)" paint-order="fill stroke markers" d=" M 556.78125 169.625 L 556.78125 209.375" stroke-opacity="1" stroke-linejoin="round" stroke-miterlimit="10" stroke-width="2"/><path fill="none" stroke="rgb(120,144,156)" paint-order="fill stroke markers" d=" M 1069.2943712757224 372.8289351762893 L 604.3217091300404 491.61016109560103" stroke-opacity="1" stroke-linejoin="round" stroke-miterlimit="10"/><path fill="rgb(120,144,156)" stroke="none" paint-order="stroke fill markers" d=" M 609.7365723427865 485.73719281820934 L 602.3839384571455 492.10518111465933 L 611.8899094256901 494.1664952453021 Z" fill-opacity="1"/><path fill="none" stroke="rgb(120,144,156)" paint-order="fill stroke markers" d=" M 807.4173654681566 169.43926475734287 L 707.6707842792343 221.1403722845854" stroke-opacity="1" stroke-linejoin="round" stroke-miterlimit="10"/><path fill="rgb(120,144,156)" stroke="none" paint-order="stroke fill markers" d=" M 711.6174214991879 214.19511817446983 L 705.8951345318434 222.06073524265713 L 715.6210003667999 221.91919457562034 Z" fill-opacity="1"/><path fill="none" stroke="rgb(120,144,156)" paint-order="fill stroke markers" d=" M 1111.1635214681442 243.875 L 1091.0942579511911 348.11966373553946" stroke-opacity="1" stroke-linejoin="round" stroke-miterlimit="10"/><path fill="rgb(120,144,156)" stroke="none" paint-order="stroke fill markers" d=" M 1088.089328220585 340.7181167814142 L 1090.7161596144895 350.0835989808527 L 1096.6324465376977 342.3628445460661 Z" fill-opacity="1"/><path fill="none" stroke="rgb(120,144,156)" paint-order="fill stroke markers" d=" M 884.6316655124654 243.875 L 835.097919753864 349.68377052577" stroke-opacity="1" stroke-linejoin="round" stroke-miterlimit="10"/><path fill="rgb(120,144,156)" stroke="none" paint-order="stroke fill markers" d=" M 833.9989484923024 341.77145340837245 L 834.2499519729992 351.49510998667046 L 841.8782751472195 345.4601132551342 Z" fill-opacity="1"/><path fill="rgb(69,90,100)" stroke="rgb(76,175,80)" paint-order="fill stroke markers" d=" M 843.90625 368.25 L 843.8523033403297 369.6230341752373 L 843.6907959604149 370.98760313820407 L 843.4227236069594 372.33529386747836 L 843.0497390351652 373.6577974015616 L 842.5741418189475 374.94696006638907 L 841.9988641732964 376.19483374544205 L 841.3274528761966 377.3937248825291 L 840.5640474015615 378.5362419151183 L 839.7133543980005 379.61534084577823 L 838.7806186707646 380.62436867076457 L 837.7715908457782 381.55710439800055 L 836.6924919151182 382.4077974015616 L 835.5499748825291 383.1712028761966 L 834.3510837454421 383.84261417329645 L 833.1032100663891 384.4178918189475 L 831.8140474015615 384.8934890351652 L 830.4915438674783 385.2664736069593 L 829.143853138204 385.5345459604149 L 827.7792841752373 385.69605334032974 L 826.40625 385.75 L 825.0332158247627 385.69605334032974 L 823.668646861796 385.5345459604149 L 822.3209561325217 385.2664736069593 L 820.9984525984385 384.8934890351652 L 819.7092899336109 384.4178918189475 L 818.4614162545579 383.84261417329645 L 817.2625251174709 383.1712028761966 L 816.1200080848818 382.4077974015616 L 815.0409091542218 381.55710439800055 L 814.0318813292354 380.62436867076457 L 813.0991456019995 379.61534084577823 L 812.2484525984385 378.5362419151183 L 811.4850471238034 377.3937248825291 L 810.8136358267036 376.19483374544205 L 810.2383581810525 374.94696006638907 L 809.7627609648348 373.6577974015616 L 809.3897763930406 372.33529386747836 L 809.1217040395851 370.98760313820407 L 808.9601966596703 369.6230341752373 L 808.90625 368.25 L 808.9601966596703 366.8769658247627 L 809.1217040395851 365.51239686179593 L 809.3897763930406 364.16470613252164 L 809.7627609648348 362.8422025984384 L 810.2383581810525 361.55303993361093 L 810.8136358267036 360.30516625455795 L 811.4850471238034 359.1062751174709 L 812.2484525984385 357.9637580848817 L 813.0991456019995 356.88465915422177 L 814.0318813292354 355.87563132923543 L 815.0409091542218 354.94289560199945 L 816.1200080848818 354.0922025984384 L 817.2625251174709 353.3287971238034 L 818.4614162545579 352.65738582670355 L 819.709289933611 352.0821081810525 L 820.9984525984385 351.6065109648348 L 822.3209561325217 351.2335263930407 L 823.668646861796 350.9654540395851 L 825.0332158247628 350.80394665967026 L 826.4062500000001 350.75 L 827.7792841752373 350.80394665967026 L 829.1438531382041 350.9654540395851 L 830.4915438674784 351.2335263930407 L 831.8140474015617 351.60651096483485 L 833.1032100663891 352.0821081810525 L 834.3510837454421 352.6573858267036 L 835.5499748825292 353.32879712380344 L 836.6924919151184 354.0922025984385 L 837.7715908457783 354.94289560199957 L 838.7806186707646 355.8756313292355 L 839.7133543980007 356.8846591542219 L 840.5640474015617 357.9637580848818 L 841.3274528761967 359.10627511747106 L 841.9988641732965 360.30516625455806 L 842.5741418189476 361.5530399336111 L 843.0497390351652 362.8422025984386 L 843.4227236069594 364.1647061325218 L 843.6907959604149 365.51239686179616 L 843.8523033403297 366.8769658247629 Z" fill-opacity="1" stroke-opacity="1" stroke-miterlimit="10" stroke-width="2"/><text fill="rgb(255,255,255)" stroke="none" font-family="times new roman" font-size="10px" font-style="normal" font-weight="normal" text-decoration="normal" x="826.40625" y="373.25" text-anchor="middle" dominant-baseline="text-after-edge" fill-opacity="1">*2.3</text><path fill="rgb(69,90,100)" stroke="rgb(76,175,80)" paint-order="fill stroke markers" d=" M 243.21875 222.875 L 243.21875 242.875 L 338.21875 242.875 L 338.21875 222.875 Z" fill-opacity="1" stroke-opacity="1" stroke-miterlimit="10" stroke-width="2"/><text fill="rgb(255,255,255)" stroke="none" font-family="times new roman" font-size="10px" font-style="normal" font-weight="normal" text-decoration="normal" x="290.71875" y="237.875" text-anchor="middle" dominant-baseline="text-after-edge" fill-opacity="1">42130047G&gt;C</text><path fill="rgb(69,90,100)" stroke="rgb(255,193,7)" paint-order="fill stroke markers" d=" M 640.59375 368.25 L 640.5243900089954 370.0153296538765 L 640.3167376633907 371.7697754634052 L 639.9720732089477 373.50252068675786 L 639.4925216166409 375.2028823734363 L 638.881039481504 376.86037722821453 L 638.1413967942383 378.4647862441398 L 637.2781536979671 380.0062177061088 L 636.2966323734363 381.47516817658067 L 635.2028842260007 382.86258108742913 L 634.0036525766973 384.15990257669733 L 632.7063310874291 385.3591342260007 L 631.3189181765806 386.4528823734363 L 629.8499677061088 387.43440369796707 L 628.3085362441398 388.2976467942383 L 626.7041272282145 389.03728948150393 L 625.0466323734363 389.64877161664094 L 623.3462706867579 390.12832320894773 L 621.6135254634052 390.4729876633906 L 619.8590796538765 390.6806400089954 L 618.09375 390.75 L 616.3284203461235 390.6806400089954 L 614.5739745365948 390.4729876633906 L 612.8412293132421 390.12832320894773 L 611.1408676265637 389.64877161664094 L 609.4833727717855 389.03728948150393 L 607.8789637558602 388.2976467942383 L 606.3375322938912 387.43440369796707 L 604.8685818234194 386.4528823734363 L 603.4811689125709 385.3591342260007 L 602.1838474233027 384.15990257669733 L 600.9846157739993 382.86258108742913 L 599.8908676265637 381.47516817658067 L 598.9093463020329 380.0062177061088 L 598.0461032057617 378.4647862441398 L 597.306460518496 376.86037722821453 L 596.6949783833591 375.2028823734363 L 596.2154267910523 373.50252068675786 L 595.8707623366095 371.7697754634052 L 595.6631099910046 370.0153296538765 L 595.59375 368.25 L 595.6631099910046 366.4846703461235 L 595.8707623366093 364.7302245365948 L 596.2154267910523 362.99747931324214 L 596.6949783833591 361.2971176265637 L 597.306460518496 359.63962277178547 L 598.0461032057617 358.0352137558602 L 598.9093463020329 356.4937822938912 L 599.8908676265637 355.02483182341933 L 600.9846157739993 353.63741891257087 L 602.1838474233027 352.34009742330267 L 603.4811689125709 351.14086577399934 L 604.8685818234194 350.0471176265637 L 606.3375322938912 349.06559630203293 L 607.8789637558602 348.2023532057617 L 609.4833727717855 347.462710518496 L 611.1408676265637 346.85122838335906 L 612.8412293132421 346.37167679105227 L 614.5739745365948 346.0270123366094 L 616.3284203461236 345.8193599910046 L 618.0937500000001 345.75 L 619.8590796538766 345.8193599910046 L 621.6135254634053 346.0270123366094 L 623.346270686758 346.3716767910523 L 625.0466323734364 346.85122838335906 L 626.7041272282146 347.4627105184961 L 628.3085362441399 348.20235320576177 L 629.8499677061089 349.065596302033 L 631.3189181765807 350.04711762656376 L 632.7063310874292 351.1408657739994 L 634.0036525766974 352.3400974233028 L 635.2028842260008 353.637418912571 L 636.2966323734364 355.0248318234195 L 637.2781536979671 356.49378229389134 L 638.1413967942384 358.0352137558604 L 638.881039481504 359.6396227717857 L 639.492521616641 361.29711762656393 L 639.9720732089478 362.99747931324237 L 640.3167376633907 364.7302245365951 L 640.5243900089954 366.4846703461238 Z" fill-opacity="1" stroke-opacity="1" stroke-miterlimit="10" stroke-width="2"/><text fill="rgb(255,255,255)" stroke="none" font-family="times new roman" font-size="15px" font-style="normal" font-weight="normal" text-decoration="normal" x="618.09375" y="375.75" text-anchor="middle" dominant-baseline="text-after-edge" fill-opacity="1">*41</text><path fill="rgb(3,169,244)" stroke="none" paint-order="stroke fill markers" d=" M 618.09375 335.75 L 642.59375 335.75 L 642.59375 335.75 A 8 8 0 0 1 650.59375 343.75 L 650.59375 392.75 L 650.59375 392.75 A 8 8 0 0 1 642.59375 400.75 L 593.59375 400.75 L 593.59375 400.75 A 8 8 0 0 1 585.59375 392.75 L 585.59375 343.75 L 585.59375 343.75 A 8 8 0 0 1 593.59375 335.75 L 618.09375 335.75 Z" fill-opacity="0.15"/><path fill="rgb(69,90,100)" stroke="rgb(76,175,80)" paint-order="fill stroke markers" d=" M 707.53125 232.875 L 707.4618900089954 234.6403296538765 L 707.2542376633907 236.39477546340518 L 706.9095732089477 238.12752068675786 L 706.4300216166409 239.82788237343632 L 705.818539481504 241.48537722821453 L 705.0788967942383 243.08978624413982 L 704.2156536979671 244.63121770610886 L 703.2341323734363 246.10016817658064 L 702.1403842260007 247.48758108742913 L 700.9411525766973 248.7849025766973 L 699.6438310874291 249.9841342260007 L 698.2564181765806 251.07788237343632 L 696.7874677061088 252.05940369796707 L 695.2460362441398 252.9226467942383 L 693.6416272282145 253.66228948150396 L 691.9841323734363 254.27377161664094 L 690.2837706867579 254.75332320894773 L 688.5510254634052 255.0979876633906 L 686.7965796538765 255.30564000899537 L 685.03125 255.375 L 683.2659203461235 255.30564000899537 L 681.5114745365948 255.0979876633906 L 679.7787293132421 254.75332320894773 L 678.0783676265637 254.27377161664094 L 676.4208727717855 253.66228948150396 L 674.8164637558602 252.9226467942383 L 673.2750322938912 252.05940369796707 L 671.8060818234194 251.07788237343632 L 670.4186689125709 249.9841342260007 L 669.1213474233027 248.78490257669733 L 667.9221157739993 247.48758108742913 L 666.8283676265637 246.10016817658064 L 665.8468463020329 244.63121770610886 L 664.9836032057617 243.08978624413982 L 664.243960518496 241.48537722821453 L 663.6324783833591 239.82788237343632 L 663.1529267910523 238.12752068675786 L 662.8082623366095 236.3947754634052 L 662.6006099910046 234.6403296538765 L 662.53125 232.875 L 662.6006099910046 231.1096703461235 L 662.8082623366093 229.35522453659482 L 663.1529267910523 227.62247931324214 L 663.6324783833591 225.92211762656368 L 664.243960518496 224.26462277178547 L 664.9836032057617 222.6602137558602 L 665.8468463020329 221.11878229389114 L 666.8283676265637 219.64983182341936 L 667.9221157739993 218.26241891257087 L 669.1213474233027 216.9650974233027 L 670.4186689125709 215.7658657739993 L 671.8060818234194 214.67211762656368 L 673.2750322938912 213.69059630203293 L 674.8164637558602 212.8273532057617 L 676.4208727717855 212.08771051849604 L 678.0783676265637 211.47622838335903 L 679.7787293132421 210.99667679105227 L 681.5114745365948 210.6520123366094 L 683.2659203461236 210.4443599910046 L 685.0312500000001 210.375 L 686.7965796538766 210.44435999100463 L 688.5510254634053 210.6520123366094 L 690.283770686758 210.9966767910523 L 691.9841323734364 211.47622838335909 L 693.6416272282146 212.0877105184961 L 695.2460362441399 212.8273532057618 L 696.7874677061089 213.690596302033 L 698.2564181765807 214.67211762656376 L 699.6438310874292 215.76586577399942 L 700.9411525766974 216.9650974233028 L 702.1403842260008 218.262418912571 L 703.2341323734364 219.6498318234195 L 704.2156536979671 221.11878229389131 L 705.0788967942384 222.66021375586038 L 705.818539481504 224.2646227717857 L 706.430021616641 225.9221176265639 L 706.9095732089478 227.62247931324237 L 707.2542376633907 229.35522453659505 L 707.4618900089954 231.10967034612375 Z" fill-opacity="1" stroke-opacity="1" stroke-miterlimit="10" stroke-width="2"/><text fill="rgb(255,255,255)" stroke="none" font-family="times new roman" font-size="15px" font-style="normal" font-weight="normal" text-decoration="normal" x="685.03125" y="240.375" text-anchor="middle" dominant-baseline="text-after-edge" fill-opacity="1">*2</text><path fill="rgb(69,90,100)" stroke="rgb(76,175,80)" paint-order="fill stroke markers" d=" M 711.90625 88.125 L 711.8523033403297 89.49803417523728 L 711.6907959604149 90.86260313820404 L 711.4227236069594 92.21029386747834 L 711.0497390351652 93.53279740156158 L 710.5741418189475 94.82196006638907 L 709.9988641732964 96.06983374544207 L 709.3274528761966 97.2687248825291 L 708.5640474015615 98.41124191511828 L 707.7133543980005 99.4903408457782 L 706.7806186707646 100.49936867076458 L 705.7715908457782 101.43210439800055 L 704.6924919151182 102.28279740156158 L 703.5499748825291 103.04620287619662 L 702.3510837454421 103.71761417329644 L 701.1032100663891 104.29289181894751 L 699.8140474015615 104.76848903516519 L 698.4915438674783 105.14147360695934 L 697.143853138204 105.4095459604149 L 695.7792841752373 105.57105334032974 L 694.40625 105.625 L 693.0332158247627 105.57105334032974 L 691.668646861796 105.4095459604149 L 690.3209561325217 105.14147360695934 L 688.9984525984385 104.76848903516519 L 687.7092899336109 104.29289181894751 L 686.4614162545579 103.71761417329644 L 685.2625251174709 103.04620287619662 L 684.1200080848818 102.28279740156158 L 683.0409091542218 101.43210439800055 L 682.0318813292354 100.49936867076458 L 681.0991456019995 99.49034084577822 L 680.2484525984385 98.41124191511828 L 679.4850471238034 97.26872488252911 L 678.8136358267036 96.06983374544207 L 678.2383581810525 94.82196006638907 L 677.7627609648348 93.53279740156158 L 677.3897763930406 92.21029386747834 L 677.1217040395851 90.86260313820404 L 676.9601966596703 89.4980341752373 L 676.90625 88.125 L 676.9601966596703 86.75196582476272 L 677.1217040395851 85.38739686179596 L 677.3897763930406 84.03970613252166 L 677.7627609648348 82.71720259843842 L 678.2383581810525 81.42803993361093 L 678.8136358267036 80.18016625455793 L 679.4850471238034 78.9812751174709 L 680.2484525984385 77.83875808488172 L 681.0991456019995 76.7596591542218 L 682.0318813292354 75.75063132923542 L 683.0409091542218 74.81789560199947 L 684.1200080848818 73.96720259843842 L 685.2625251174709 73.20379712380338 L 686.4614162545579 72.53238582670356 L 687.709289933611 71.95710818105248 L 688.9984525984385 71.4815109648348 L 690.3209561325217 71.10852639304065 L 691.668646861796 70.84045403958508 L 693.0332158247628 70.67894665967026 L 694.4062500000001 70.625 L 695.7792841752373 70.67894665967026 L 697.1438531382041 70.8404540395851 L 698.4915438674784 71.10852639304068 L 699.8140474015617 71.48151096483484 L 701.1032100663891 71.95710818105252 L 702.3510837454421 72.5323858267036 L 703.5499748825292 73.20379712380344 L 704.6924919151184 73.96720259843849 L 705.7715908457783 74.81789560199954 L 706.7806186707646 75.75063132923552 L 707.7133543980007 76.7596591542219 L 708.5640474015617 77.83875808488185 L 709.3274528761967 78.98127511747103 L 709.9988641732965 80.18016625455807 L 710.5741418189476 81.42803993361109 L 711.0497390351652 82.71720259843859 L 711.4227236069594 84.03970613252184 L 711.6907959604149 85.38739686179616 L 711.8523033403297 86.75196582476292 Z" fill-opacity="1" stroke-opacity="1" stroke-miterlimit="10" stroke-width="2"/><text fill="rgb(255,255,255)" stroke="none" font-family="times new roman" font-size="10px" font-style="normal" font-weight="normal" text-decoration="normal" x="694.40625" y="93.125" text-anchor="middle" dominant-baseline="text-after-edge" fill-opacity="1">*34.1</text><path fill="rgb(69,90,100)" stroke="rgb(255,193,7)" paint-order="fill stroke markers" d=" M 579.28125 232.875 L 579.2118900089954 234.6403296538765 L 579.0042376633907 236.39477546340518 L 578.6595732089477 238.12752068675786 L 578.1800216166409 239.82788237343632 L 577.568539481504 241.48537722821453 L 576.8288967942383 243.08978624413982 L 575.9656536979671 244.63121770610886 L 574.9841323734363 246.10016817658064 L 573.8903842260007 247.48758108742913 L 572.6911525766973 248.7849025766973 L 571.3938310874291 249.9841342260007 L 570.0064181765806 251.07788237343632 L 568.5374677061088 252.05940369796707 L 566.9960362441398 252.9226467942383 L 565.3916272282145 253.66228948150396 L 563.7341323734363 254.27377161664094 L 562.0337706867579 254.75332320894773 L 560.3010254634052 255.0979876633906 L 558.5465796538765 255.30564000899537 L 556.78125 255.375 L 555.0159203461235 255.30564000899537 L 553.2614745365948 255.0979876633906 L 551.5287293132421 254.75332320894773 L 549.8283676265637 254.27377161664094 L 548.1708727717855 253.66228948150396 L 546.5664637558602 252.9226467942383 L 545.0250322938912 252.05940369796707 L 543.5560818234194 251.07788237343632 L 542.1686689125709 249.9841342260007 L 540.8713474233027 248.78490257669733 L 539.6721157739993 247.48758108742913 L 538.5783676265637 246.10016817658064 L 537.5968463020329 244.63121770610886 L 536.7336032057617 243.08978624413982 L 535.993960518496 241.48537722821453 L 535.3824783833591 239.82788237343632 L 534.9029267910523 238.12752068675786 L 534.5582623366095 236.3947754634052 L 534.3506099910046 234.6403296538765 L 534.28125 232.875 L 534.3506099910046 231.1096703461235 L 534.5582623366093 229.35522453659482 L 534.9029267910523 227.62247931324214 L 535.3824783833591 225.92211762656368 L 535.993960518496 224.26462277178547 L 536.7336032057617 222.6602137558602 L 537.5968463020329 221.11878229389114 L 538.5783676265637 219.64983182341936 L 539.6721157739993 218.26241891257087 L 540.8713474233027 216.9650974233027 L 542.1686689125709 215.7658657739993 L 543.5560818234194 214.67211762656368 L 545.0250322938912 213.69059630203293 L 546.5664637558602 212.8273532057617 L 548.1708727717855 212.08771051849604 L 549.8283676265637 211.47622838335903 L 551.5287293132421 210.99667679105227 L 553.2614745365948 210.6520123366094 L 555.0159203461236 210.4443599910046 L 556.7812500000001 210.375 L 558.5465796538766 210.44435999100463 L 560.3010254634053 210.6520123366094 L 562.033770686758 210.9966767910523 L 563.7341323734364 211.47622838335909 L 565.3916272282146 212.0877105184961 L 566.9960362441399 212.8273532057618 L 568.5374677061089 213.690596302033 L 570.0064181765807 214.67211762656376 L 571.3938310874292 215.76586577399942 L 572.6911525766974 216.9650974233028 L 573.8903842260008 218.262418912571 L 574.9841323734364 219.6498318234195 L 575.9656536979671 221.11878229389131 L 576.8288967942384 222.66021375586038 L 577.568539481504 224.2646227717857 L 578.180021616641 225.9221176265639 L 578.6595732089478 227.62247931324237 L 579.0042376633907 229.35522453659505 L 579.2118900089954 231.10967034612375 Z" fill-opacity="1" stroke-opacity="1" stroke-miterlimit="10" stroke-width="2"/><text fill="rgb(255,255,255)" stroke="none" font-family="times new roman" font-size="15px" font-style="normal" font-weight="normal" text-decoration="normal" x="556.78125" y="240.375" text-anchor="middle" dominant-baseline="text-after-edge" fill-opacity="1">*119</text><path fill="rgb(69,90,100)" stroke="rgb(76,175,80)" paint-order="fill stroke markers" d=" M 842.28125 222.875 L 842.28125 242.875 L 937.28125 242.875 L 937.28125 222.875 Z" fill-opacity="1" stroke-opacity="1" stroke-miterlimit="10" stroke-width="2"/><text fill="rgb(255,255,255)" stroke="none" font-family="times new roman" font-size="10px" font-style="normal" font-weight="normal" text-decoration="normal" x="889.78125" y="237.875" text-anchor="middle" dominant-baseline="text-after-edge" fill-opacity="1">42128321A&gt;G</text><path fill="rgb(69,90,100)" stroke="rgb(76,175,80)" paint-order="fill stroke markers" d=" M 402.46875 222.875 L 444.96875 222.875 L 444.96875 222.875 A 5 5 0 0 1 449.96875 227.875 L 449.96875 237.875 L 449.96875 237.875 A 5 5 0 0 1 444.96875 242.875 L 359.96875 242.875 L 359.96875 242.875 A 5 5 0 0 1 354.96875 237.875 L 354.96875 227.875 L 354.96875 227.875 A 5 5 0 0 1 359.96875 222.875 L 402.46875 222.875 Z" fill-opacity="1" stroke-opacity="1" stroke-miterlimit="10" stroke-width="2"/><text fill="rgb(255,255,255)" stroke="none" font-family="times new roman" font-size="10px" font-style="normal" font-weight="normal" text-decoration="normal" x="402.46875" y="237.875" text-anchor="middle" dominant-baseline="text-after-edge" fill-opacity="1">42132049dup</text><path fill="rgb(69,90,100)" stroke="rgb(69,90,100)" paint-order="fill stroke markers" d=" M 553.21875 482.375 L 534.46875 499.875 L 553.21875 517.375 L 590.71875 517.375 L 609.46875 499.875 L 590.71875 482.375 Z" fill-opacity="1" stroke-opacity="1" stroke-miterlimit="10" stroke-width="2"/><text fill="rgb(255,255,255)" stroke="none" font-family="times new roman" font-size="10px" font-style="normal" font-weight="normal" text-decoration="normal" x="571.96875" y="504.875" text-anchor="middle" dominant-baseline="text-after-edge" fill-opacity="1">NA10865-B</text><path fill="rgb(69,90,100)" stroke="rgb(76,175,80)" paint-order="fill stroke markers" d=" M 1065.78125 222.875 L 1065.78125 242.875 L 1160.78125 242.875 L 1160.78125 222.875 Z" fill-opacity="1" stroke-opacity="1" stroke-miterlimit="10" stroke-width="2"/><text fill="rgb(255,255,255)" stroke="none" font-family="times new roman" font-size="10px" font-style="normal" font-weight="normal" text-decoration="normal" x="1113.28125" y="237.875" text-anchor="middle" dominant-baseline="text-after-edge" fill-opacity="1">42129950A&gt;C</text><path fill="rgb(69,90,100)" stroke="rgb(255,193,7)" paint-order="fill stroke markers" d=" M 736.15625 78.125 L 736.15625 98.125 L 831.15625 98.125 L 831.15625 78.125 Z" fill-opacity="1" stroke-opacity="1" stroke-miterlimit="10" stroke-width="2"/><text fill="rgb(255,255,255)" stroke="none" font-family="times new roman" font-size="10px" font-style="normal" font-weight="normal" text-decoration="normal" x="783.65625" y="93.125" text-anchor="middle" dominant-baseline="text-after-edge" fill-opacity="1">42126611C&gt;G</text><path fill="rgb(69,90,100)" stroke="rgb(76,175,80)" paint-order="fill stroke markers" d=" M 672.28125 158.625 L 672.2118900089954 160.3903296538765 L 672.0042376633907 162.14477546340518 L 671.6595732089477 163.87752068675786 L 671.1800216166409 165.57788237343632 L 670.568539481504 167.23537722821453 L 669.8288967942383 168.83978624413982 L 668.9656536979671 170.38121770610886 L 667.9841323734363 171.85016817658064 L 666.8903842260007 173.23758108742913 L 665.6911525766973 174.5349025766973 L 664.3938310874291 175.7341342260007 L 663.0064181765806 176.82788237343632 L 661.5374677061088 177.80940369796707 L 659.9960362441398 178.6726467942383 L 658.3916272282145 179.41228948150396 L 656.7341323734363 180.02377161664094 L 655.0337706867579 180.50332320894773 L 653.3010254634052 180.8479876633906 L 651.5465796538765 181.05564000899537 L 649.78125 181.125 L 648.0159203461235 181.05564000899537 L 646.2614745365948 180.8479876633906 L 644.5287293132421 180.50332320894773 L 642.8283676265637 180.02377161664094 L 641.1708727717855 179.41228948150396 L 639.5664637558602 178.6726467942383 L 638.0250322938912 177.80940369796707 L 636.5560818234194 176.82788237343632 L 635.1686689125709 175.7341342260007 L 633.8713474233027 174.53490257669733 L 632.6721157739993 173.23758108742913 L 631.5783676265637 171.85016817658064 L 630.5968463020329 170.38121770610886 L 629.7336032057617 168.83978624413982 L 628.993960518496 167.23537722821453 L 628.3824783833591 165.57788237343632 L 627.9029267910523 163.87752068675786 L 627.5582623366095 162.1447754634052 L 627.3506099910046 160.3903296538765 L 627.28125 158.625 L 627.3506099910046 156.8596703461235 L 627.5582623366093 155.10522453659482 L 627.9029267910523 153.37247931324214 L 628.3824783833591 151.67211762656368 L 628.993960518496 150.01462277178547 L 629.7336032057617 148.4102137558602 L 630.5968463020329 146.86878229389114 L 631.5783676265637 145.39983182341936 L 632.6721157739993 144.01241891257087 L 633.8713474233027 142.7150974233027 L 635.1686689125709 141.5158657739993 L 636.5560818234194 140.42211762656368 L 638.0250322938912 139.44059630203293 L 639.5664637558602 138.5773532057617 L 641.1708727717855 137.83771051849604 L 642.8283676265637 137.22622838335903 L 644.5287293132421 136.74667679105227 L 646.2614745365948 136.4020123366094 L 648.0159203461236 136.1943599910046 L 649.7812500000001 136.125 L 651.5465796538766 136.19435999100463 L 653.3010254634053 136.4020123366094 L 655.033770686758 136.7466767910523 L 656.7341323734364 137.22622838335909 L 658.3916272282146 137.8377105184961 L 659.9960362441399 138.5773532057618 L 661.5374677061089 139.440596302033 L 663.0064181765807 140.42211762656376 L 664.3938310874292 141.51586577399942 L 665.6911525766974 142.7150974233028 L 666.8903842260008 144.012418912571 L 667.9841323734364 145.3998318234195 L 668.9656536979671 146.86878229389131 L 669.8288967942384 148.41021375586038 L 670.568539481504 150.0146227717857 L 671.180021616641 151.6721176265639 L 671.6595732089478 153.37247931324237 L 672.0042376633907 155.10522453659505 L 672.2118900089954 156.85967034612375 Z" fill-opacity="1" stroke-opacity="1" stroke-miterlimit="10" stroke-width="2"/><text fill="rgb(255,255,255)" stroke="none" font-family="times new roman" font-size="15px" font-style="normal" font-weight="normal" text-decoration="normal" x="649.78125" y="166.125" text-anchor="middle" dominant-baseline="text-after-edge" fill-opacity="1">*34</text><path fill="rgb(69,90,100)" stroke="rgb(76,175,80)" paint-order="fill stroke markers" d=" M 730.53125 222.875 L 730.53125 242.875 L 825.53125 242.875 L 825.53125 222.875 Z" fill-opacity="1" stroke-opacity="1" stroke-miterlimit="10" stroke-width="2"/><text fill="rgb(255,255,255)" stroke="none" font-family="times new roman" font-size="10px" font-style="normal" font-weight="normal" text-decoration="normal" x="778.03125" y="237.875" text-anchor="middle" dominant-baseline="text-after-edge" fill-opacity="1">42129130C&gt;G</text><path fill="rgb(69,90,100)" stroke="rgb(76,175,80)" paint-order="fill stroke markers" d=" M 218.96875 368.25 L 218.91480334032974 369.6230341752373 L 218.7532959604149 370.98760313820407 L 218.48522360695935 372.33529386747836 L 218.11223903516517 373.6577974015616 L 217.6366418189475 374.94696006638907 L 217.06136417329643 376.19483374544205 L 216.38995287619662 377.3937248825291 L 215.6265474015616 378.5362419151183 L 214.77585439800055 379.61534084577823 L 213.84311867076457 380.62436867076457 L 212.8340908457782 381.55710439800055 L 211.75499191511827 382.4077974015616 L 210.6124748825291 383.1712028761966 L 209.41358374544208 383.84261417329645 L 208.16571006638907 384.4178918189475 L 206.8765474015616 384.8934890351652 L 205.55404386747836 385.2664736069593 L 204.20635313820404 385.5345459604149 L 202.84178417523728 385.69605334032974 L 201.46875 385.75 L 200.09571582476272 385.69605334032974 L 198.73114686179596 385.5345459604149 L 197.38345613252164 385.2664736069593 L 196.06095259843843 384.8934890351652 L 194.77178993361093 384.4178918189475 L 193.52391625455795 383.84261417329645 L 192.3250251174709 383.1712028761966 L 191.18250808488173 382.4077974015616 L 190.1034091542218 381.55710439800055 L 189.09438132923543 380.62436867076457 L 188.16164560199945 379.61534084577823 L 187.31095259843843 378.5362419151183 L 186.54754712380338 377.3937248825291 L 185.87613582670357 376.19483374544205 L 185.3008581810525 374.94696006638907 L 184.82526096483483 373.6577974015616 L 184.45227639304065 372.33529386747836 L 184.1842040395851 370.98760313820407 L 184.02269665967026 369.6230341752373 L 183.96875 368.25 L 184.02269665967026 366.8769658247627 L 184.1842040395851 365.51239686179593 L 184.45227639304065 364.16470613252164 L 184.8252609648348 362.8422025984384 L 185.3008581810525 361.55303993361093 L 185.87613582670357 360.30516625455795 L 186.54754712380338 359.1062751174709 L 187.3109525984384 357.9637580848817 L 188.16164560199945 356.88465915422177 L 189.0943813292354 355.87563132923543 L 190.10340915422177 354.94289560199945 L 191.1825080848817 354.0922025984384 L 192.3250251174709 353.3287971238034 L 193.52391625455795 352.65738582670355 L 194.77178993361096 352.0821081810525 L 196.06095259843843 351.6065109648348 L 197.3834561325217 351.2335263930407 L 198.731146861796 350.9654540395851 L 200.09571582476278 350.80394665967026 L 201.46875000000006 350.75 L 202.84178417523736 350.80394665967026 L 204.20635313820412 350.9654540395851 L 205.5540438674784 351.2335263930407 L 206.87654740156165 351.60651096483485 L 208.16571006638915 352.0821081810525 L 209.41358374544217 352.6573858267036 L 210.6124748825292 353.32879712380344 L 211.75499191511838 354.0922025984385 L 212.83409084577832 354.94289560199957 L 213.84311867076468 355.8756313292355 L 214.77585439800063 356.8846591542219 L 215.62654740156168 357.9637580848818 L 216.3899528761967 359.10627511747106 L 217.0613641732965 360.30516625455806 L 217.6366418189476 361.5530399336111 L 218.11223903516523 362.8422025984386 L 218.48522360695938 364.1647061325218 L 218.75329596041493 365.51239686179616 L 218.91480334032974 366.8769658247629 Z" fill-opacity="1" stroke-opacity="1" stroke-miterlimit="10" stroke-width="2"/><text fill="rgb(255,255,255)" stroke="none" font-family="times new roman" font-size="10px" font-style="normal" font-weight="normal" text-decoration="normal" x="201.46875" y="373.25" text-anchor="middle" dominant-baseline="text-after-edge" fill-opacity="1">*1.54</text><path fill="rgb(69,90,100)" stroke="rgb(76,175,80)" paint-order="fill stroke markers" d=" M 737.78125 158.625 L 737.7273033403297 159.99803417523728 L 737.5657959604149 161.36260313820404 L 737.2977236069594 162.71029386747836 L 736.9247390351652 164.03279740156157 L 736.4491418189475 165.32196006638907 L 735.8738641732964 166.56983374544205 L 735.2024528761966 167.7687248825291 L 734.4390474015615 168.91124191511827 L 733.5883543980005 169.9903408457782 L 732.6556186707646 170.99936867076457 L 731.6465908457782 171.93210439800055 L 730.5674919151182 172.7827974015616 L 729.4249748825291 173.54620287619662 L 728.2260837454421 174.21761417329643 L 726.9782100663891 174.7928918189475 L 725.6890474015615 175.26848903516517 L 724.3665438674783 175.64147360695935 L 723.018853138204 175.9095459604149 L 721.6542841752373 176.07105334032974 L 720.28125 176.125 L 718.9082158247627 176.07105334032974 L 717.543646861796 175.9095459604149 L 716.1959561325217 175.64147360695935 L 714.8734525984385 175.2684890351652 L 713.5842899336109 174.7928918189475 L 712.3364162545579 174.21761417329643 L 711.1375251174709 173.54620287619662 L 709.9950080848818 172.7827974015616 L 708.9159091542218 171.93210439800055 L 707.9068813292354 170.99936867076457 L 706.9741456019995 169.9903408457782 L 706.1234525984385 168.9112419151183 L 705.3600471238034 167.7687248825291 L 704.6886358267036 166.56983374544208 L 704.1133581810525 165.32196006638907 L 703.6377609648348 164.0327974015616 L 703.2647763930406 162.71029386747836 L 702.9967040395851 161.36260313820404 L 702.8351966596703 159.99803417523728 L 702.78125 158.625 L 702.8351966596703 157.25196582476272 L 702.9967040395851 155.88739686179596 L 703.2647763930406 154.53970613252164 L 703.6377609648348 153.21720259843843 L 704.1133581810525 151.92803993361093 L 704.6886358267036 150.68016625455795 L 705.3600471238034 149.4812751174709 L 706.1234525984385 148.33875808488173 L 706.9741456019995 147.2596591542218 L 707.9068813292354 146.25063132923543 L 708.9159091542218 145.31789560199945 L 709.9950080848818 144.46720259843843 L 711.1375251174709 143.70379712380338 L 712.3364162545579 143.03238582670355 L 713.584289933611 142.4571081810525 L 714.8734525984385 141.9815109648348 L 716.1959561325217 141.60852639304065 L 717.543646861796 141.3404540395851 L 718.9082158247628 141.17894665967026 L 720.2812500000001 141.125 L 721.6542841752373 141.17894665967026 L 723.0188531382041 141.3404540395851 L 724.3665438674784 141.60852639304068 L 725.6890474015617 141.98151096483485 L 726.9782100663891 142.45710818105252 L 728.2260837454421 143.0323858267036 L 729.4249748825292 143.70379712380344 L 730.5674919151184 144.4672025984385 L 731.6465908457783 145.31789560199954 L 732.6556186707646 146.25063132923552 L 733.5883543980007 147.2596591542219 L 734.4390474015617 148.33875808488185 L 735.2024528761967 149.48127511747103 L 735.8738641732965 150.6801662545581 L 736.4491418189476 151.9280399336111 L 736.9247390351652 153.2172025984386 L 737.2977236069594 154.53970613252184 L 737.5657959604149 155.88739686179616 L 737.7273033403297 157.25196582476292 Z" fill-opacity="1" stroke-opacity="1" stroke-miterlimit="10" stroke-width="2"/><text fill="rgb(255,255,255)" stroke="none" font-family="times new roman" font-size="10px" font-style="normal" font-weight="normal" text-decoration="normal" x="720.28125" y="163.625" text-anchor="middle" dominant-baseline="text-after-edge" fill-opacity="1">*2.4</text><path fill="rgb(69,90,100)" stroke="rgb(76,175,80)" paint-order="fill stroke markers" d=" M 1104.71875 368.25 L 1104.6648033403299 369.6230341752373 L 1104.503295960415 370.98760313820407 L 1104.2352236069594 372.33529386747836 L 1103.8622390351652 373.6577974015616 L 1103.3866418189475 374.94696006638907 L 1102.8113641732964 376.19483374544205 L 1102.1399528761965 377.3937248825291 L 1101.3765474015615 378.5362419151183 L 1100.5258543980005 379.61534084577823 L 1099.5931186707646 380.62436867076457 L 1098.5840908457783 381.55710439800055 L 1097.5049919151184 382.4077974015616 L 1096.362474882529 383.1712028761966 L 1095.163583745442 383.84261417329645 L 1093.915710066389 384.4178918189475 L 1092.6265474015615 384.8934890351652 L 1091.3040438674784 385.2664736069593 L 1089.9563531382041 385.5345459604149 L 1088.5917841752373 385.69605334032974 L 1087.21875 385.75 L 1085.8457158247627 385.69605334032974 L 1084.4811468617959 385.5345459604149 L 1083.1334561325216 385.2664736069593 L 1081.8109525984385 384.8934890351652 L 1080.521789933611 384.4178918189475 L 1079.273916254558 383.84261417329645 L 1078.075025117471 383.1712028761966 L 1076.9325080848816 382.4077974015616 L 1075.8534091542217 381.55710439800055 L 1074.8443813292354 380.62436867076457 L 1073.9116456019995 379.61534084577823 L 1073.0609525984385 378.5362419151183 L 1072.2975471238035 377.3937248825291 L 1071.6261358267036 376.19483374544205 L 1071.0508581810525 374.94696006638907 L 1070.5752609648348 373.6577974015616 L 1070.2022763930406 372.33529386747836 L 1069.934204039585 370.98760313820407 L 1069.7726966596701 369.6230341752373 L 1069.71875 368.25 L 1069.7726966596701 366.8769658247627 L 1069.934204039585 365.51239686179593 L 1070.2022763930406 364.16470613252164 L 1070.5752609648348 362.8422025984384 L 1071.0508581810525 361.55303993361093 L 1071.6261358267036 360.30516625455795 L 1072.2975471238035 359.1062751174709 L 1073.0609525984385 357.9637580848817 L 1073.9116456019995 356.88465915422177 L 1074.8443813292354 355.87563132923543 L 1075.8534091542217 354.94289560199945 L 1076.9325080848816 354.0922025984384 L 1078.075025117471 353.3287971238034 L 1079.273916254558 352.65738582670355 L 1080.521789933611 352.0821081810525 L 1081.8109525984385 351.6065109648348 L 1083.1334561325216 351.2335263930407 L 1084.481146861796 350.9654540395851 L 1085.8457158247627 350.80394665967026 L 1087.21875 350.75 L 1088.5917841752373 350.80394665967026 L 1089.9563531382041 350.9654540395851 L 1091.3040438674784 351.2335263930407 L 1092.6265474015618 351.60651096483485 L 1093.9157100663892 352.0821081810525 L 1095.163583745442 352.6573858267036 L 1096.362474882529 353.32879712380344 L 1097.5049919151184 354.0922025984385 L 1098.5840908457783 354.94289560199957 L 1099.5931186707646 355.8756313292355 L 1100.5258543980005 356.8846591542219 L 1101.3765474015618 357.9637580848818 L 1102.1399528761967 359.10627511747106 L 1102.8113641732966 360.30516625455806 L 1103.3866418189475 361.5530399336111 L 1103.8622390351652 362.8422025984386 L 1104.2352236069594 364.1647061325218 L 1104.503295960415 365.51239686179616 L 1104.6648033403299 366.8769658247629 Z" fill-opacity="1" stroke-opacity="1" stroke-miterlimit="10" stroke-width="2"/><text fill="rgb(255,255,255)" stroke="none" font-family="times new roman" font-size="10px" font-style="normal" font-weight="normal" text-decoration="normal" x="1087.21875" y="373.25" text-anchor="middle" dominant-baseline="text-after-edge" fill-opacity="1">*1.58</text><path fill="rgb(69,90,100)" stroke="rgb(76,175,80)" paint-order="fill stroke markers" d=" M 850.78125 158.625 L 850.7118900089954 160.3903296538765 L 850.5042376633907 162.14477546340518 L 850.1595732089477 163.87752068675786 L 849.6800216166409 165.57788237343632 L 849.068539481504 167.23537722821453 L 848.3288967942383 168.83978624413982 L 847.4656536979671 170.38121770610886 L 846.4841323734363 171.85016817658064 L 845.3903842260007 173.23758108742913 L 844.1911525766973 174.5349025766973 L 842.8938310874291 175.7341342260007 L 841.5064181765806 176.82788237343632 L 840.0374677061088 177.80940369796707 L 838.4960362441398 178.6726467942383 L 836.8916272282145 179.41228948150396 L 835.2341323734363 180.02377161664094 L 833.5337706867579 180.50332320894773 L 831.8010254634052 180.8479876633906 L 830.0465796538765 181.05564000899537 L 828.28125 181.125 L 826.5159203461235 181.05564000899537 L 824.7614745365948 180.8479876633906 L 823.0287293132421 180.50332320894773 L 821.3283676265637 180.02377161664094 L 819.6708727717855 179.41228948150396 L 818.0664637558602 178.6726467942383 L 816.5250322938912 177.80940369796707 L 815.0560818234194 176.82788237343632 L 813.6686689125709 175.7341342260007 L 812.3713474233027 174.53490257669733 L 811.1721157739993 173.23758108742913 L 810.0783676265637 171.85016817658064 L 809.0968463020329 170.38121770610886 L 808.2336032057617 168.83978624413982 L 807.493960518496 167.23537722821453 L 806.8824783833591 165.57788237343632 L 806.4029267910523 163.87752068675786 L 806.0582623366095 162.1447754634052 L 805.8506099910046 160.3903296538765 L 805.78125 158.625 L 805.8506099910046 156.8596703461235 L 806.0582623366093 155.10522453659482 L 806.4029267910523 153.37247931324214 L 806.8824783833591 151.67211762656368 L 807.493960518496 150.01462277178547 L 808.2336032057617 148.4102137558602 L 809.0968463020329 146.86878229389114 L 810.0783676265637 145.39983182341936 L 811.1721157739993 144.01241891257087 L 812.3713474233027 142.7150974233027 L 813.6686689125709 141.5158657739993 L 815.0560818234194 140.42211762656368 L 816.5250322938912 139.44059630203293 L 818.0664637558602 138.5773532057617 L 819.6708727717855 137.83771051849604 L 821.3283676265637 137.22622838335903 L 823.0287293132421 136.74667679105227 L 824.7614745365948 136.4020123366094 L 826.5159203461236 136.1943599910046 L 828.2812500000001 136.125 L 830.0465796538766 136.19435999100463 L 831.8010254634053 136.4020123366094 L 833.533770686758 136.7466767910523 L 835.2341323734364 137.22622838335909 L 836.8916272282146 137.8377105184961 L 838.4960362441399 138.5773532057618 L 840.0374677061089 139.440596302033 L 841.5064181765807 140.42211762656376 L 842.8938310874292 141.51586577399942 L 844.1911525766974 142.7150974233028 L 845.3903842260008 144.012418912571 L 846.4841323734364 145.3998318234195 L 847.4656536979671 146.86878229389131 L 848.3288967942384 148.41021375586038 L 849.068539481504 150.0146227717857 L 849.680021616641 151.6721176265639 L 850.1595732089478 153.37247931324237 L 850.5042376633907 155.10522453659505 L 850.7118900089954 156.85967034612375 Z" fill-opacity="1" stroke-opacity="1" stroke-miterlimit="10" stroke-width="2"/><text fill="rgb(255,255,255)" stroke="none" font-family="times new roman" font-size="15px" font-style="normal" font-weight="normal" text-decoration="normal" x="828.28125" y="166.125" text-anchor="middle" dominant-baseline="text-after-edge" fill-opacity="1">*39</text><path fill="rgb(69,90,100)" stroke="rgb(76,175,80)" paint-order="fill stroke markers" d=" M 218.96875 232.875 L 218.91480334032974 234.24803417523728 L 218.7532959604149 235.61260313820404 L 218.48522360695935 236.96029386747836 L 218.11223903516517 238.28279740156157 L 217.6366418189475 239.57196006638907 L 217.06136417329643 240.81983374544205 L 216.38995287619662 242.0187248825291 L 215.6265474015616 243.16124191511827 L 214.77585439800055 244.2403408457782 L 213.84311867076457 245.24936867076457 L 212.8340908457782 246.18210439800055 L 211.75499191511827 247.0327974015616 L 210.6124748825291 247.79620287619662 L 209.41358374544208 248.46761417329643 L 208.16571006638907 249.0428918189475 L 206.8765474015616 249.51848903516517 L 205.55404386747836 249.89147360695935 L 204.20635313820404 250.1595459604149 L 202.84178417523728 250.32105334032974 L 201.46875 250.375 L 200.09571582476272 250.32105334032974 L 198.73114686179596 250.1595459604149 L 197.38345613252164 249.89147360695935 L 196.06095259843843 249.5184890351652 L 194.77178993361093 249.0428918189475 L 193.52391625455795 248.46761417329643 L 192.3250251174709 247.79620287619662 L 191.18250808488173 247.0327974015616 L 190.1034091542218 246.18210439800055 L 189.09438132923543 245.24936867076457 L 188.16164560199945 244.2403408457782 L 187.31095259843843 243.1612419151183 L 186.54754712380338 242.0187248825291 L 185.87613582670357 240.81983374544208 L 185.3008581810525 239.57196006638907 L 184.82526096483483 238.2827974015616 L 184.45227639304065 236.96029386747836 L 184.1842040395851 235.61260313820404 L 184.02269665967026 234.24803417523728 L 183.96875 232.875 L 184.02269665967026 231.50196582476272 L 184.1842040395851 230.13739686179596 L 184.45227639304065 228.78970613252164 L 184.8252609648348 227.46720259843843 L 185.3008581810525 226.17803993361093 L 185.87613582670357 224.93016625455795 L 186.54754712380338 223.7312751174709 L 187.3109525984384 222.58875808488173 L 188.16164560199945 221.5096591542218 L 189.0943813292354 220.50063132923543 L 190.10340915422177 219.56789560199945 L 191.1825080848817 218.71720259843843 L 192.3250251174709 217.95379712380338 L 193.52391625455795 217.28238582670355 L 194.77178993361096 216.7071081810525 L 196.06095259843843 216.2315109648348 L 197.3834561325217 215.85852639304065 L 198.731146861796 215.5904540395851 L 200.09571582476278 215.42894665967026 L 201.46875000000006 215.375 L 202.84178417523736 215.42894665967026 L 204.20635313820412 215.5904540395851 L 205.5540438674784 215.85852639304068 L 206.87654740156165 216.23151096483485 L 208.16571006638915 216.70710818105252 L 209.41358374544217 217.2823858267036 L 210.6124748825292 217.95379712380344 L 211.75499191511838 218.7172025984385 L 212.83409084577832 219.56789560199954 L 213.84311867076468 220.50063132923552 L 214.77585439800063 221.5096591542219 L 215.62654740156168 222.58875808488185 L 216.3899528761967 223.73127511747103 L 217.0613641732965 224.9301662545581 L 217.6366418189476 226.1780399336111 L 218.11223903516523 227.4672025984386 L 218.48522360695938 228.78970613252184 L 218.75329596041493 230.13739686179616 L 218.91480334032974 231.50196582476292 Z" fill-opacity="1" stroke-opacity="1" stroke-miterlimit="10" stroke-width="2"/><text fill="rgb(255,255,255)" stroke="none" font-family="times new roman" font-size="10px" font-style="normal" font-weight="normal" text-decoration="normal" x="201.46875" y="237.875" text-anchor="middle" dominant-baseline="text-after-edge" fill-opacity="1">*1.41</text><path fill="rgb(69,90,100)" stroke="rgb(255,193,7)" paint-order="fill stroke markers" d=" M 557.65625 78.125 L 557.65625 98.125 L 652.65625 98.125 L 652.65625 78.125 Z" fill-opacity="1" stroke-opacity="1" stroke-miterlimit="10" stroke-width="2"/><text fill="rgb(255,255,255)" stroke="none" font-family="times new roman" font-size="10px" font-style="normal" font-weight="normal" text-decoration="normal" x="605.15625" y="93.125" text-anchor="middle" dominant-baseline="text-after-edge" fill-opacity="1">42127941G&gt;A</text><path fill="rgb(69,90,100)" stroke="rgb(76,175,80)" paint-order="fill stroke markers" d=" M 954.03125 222.875 L 954.03125 242.875 L 1049.03125 242.875 L 1049.03125 222.875 Z" fill-opacity="1" stroke-opacity="1" stroke-miterlimit="10" stroke-width="2"/><text fill="rgb(255,255,255)" stroke="none" font-family="times new roman" font-size="10px" font-style="normal" font-weight="normal" text-decoration="normal" x="1001.53125" y="237.875" text-anchor="middle" dominant-baseline="text-after-edge" fill-opacity="1">42130482C&gt;A</text><path fill="rgb(69,90,100)" stroke="rgb(76,175,80)" paint-order="fill stroke markers" d=" M 890.40625 88.125 L 890.3523033403297 89.49803417523728 L 890.1907959604149 90.86260313820404 L 889.9227236069594 92.21029386747834 L 889.5497390351652 93.53279740156158 L 889.0741418189475 94.82196006638907 L 888.4988641732964 96.06983374544207 L 887.8274528761966 97.2687248825291 L 887.0640474015615 98.41124191511828 L 886.2133543980005 99.4903408457782 L 885.2806186707646 100.49936867076458 L 884.2715908457782 101.43210439800055 L 883.1924919151182 102.28279740156158 L 882.0499748825291 103.04620287619662 L 880.8510837454421 103.71761417329644 L 879.6032100663891 104.29289181894751 L 878.3140474015615 104.76848903516519 L 876.9915438674783 105.14147360695934 L 875.643853138204 105.4095459604149 L 874.2792841752373 105.57105334032974 L 872.90625 105.625 L 871.5332158247627 105.57105334032974 L 870.168646861796 105.4095459604149 L 868.8209561325217 105.14147360695934 L 867.4984525984385 104.76848903516519 L 866.2092899336109 104.29289181894751 L 864.9614162545579 103.71761417329644 L 863.7625251174709 103.04620287619662 L 862.6200080848818 102.28279740156158 L 861.5409091542218 101.43210439800055 L 860.5318813292354 100.49936867076458 L 859.5991456019995 99.49034084577822 L 858.7484525984385 98.41124191511828 L 857.9850471238034 97.26872488252911 L 857.3136358267036 96.06983374544207 L 856.7383581810525 94.82196006638907 L 856.2627609648348 93.53279740156158 L 855.8897763930406 92.21029386747834 L 855.6217040395851 90.86260313820404 L 855.4601966596703 89.4980341752373 L 855.40625 88.125 L 855.4601966596703 86.75196582476272 L 855.6217040395851 85.38739686179596 L 855.8897763930406 84.03970613252166 L 856.2627609648348 82.71720259843842 L 856.7383581810525 81.42803993361093 L 857.3136358267036 80.18016625455793 L 857.9850471238034 78.9812751174709 L 858.7484525984385 77.83875808488172 L 859.5991456019995 76.7596591542218 L 860.5318813292354 75.75063132923542 L 861.5409091542218 74.81789560199947 L 862.6200080848818 73.96720259843842 L 863.7625251174709 73.20379712380338 L 864.9614162545579 72.53238582670356 L 866.209289933611 71.95710818105248 L 867.4984525984385 71.4815109648348 L 868.8209561325217 71.10852639304065 L 870.168646861796 70.84045403958508 L 871.5332158247628 70.67894665967026 L 872.9062500000001 70.625 L 874.2792841752373 70.67894665967026 L 875.6438531382041 70.8404540395851 L 876.9915438674784 71.10852639304068 L 878.3140474015617 71.48151096483484 L 879.6032100663891 71.95710818105252 L 880.8510837454421 72.5323858267036 L 882.0499748825292 73.20379712380344 L 883.1924919151184 73.96720259843849 L 884.2715908457783 74.81789560199954 L 885.2806186707646 75.75063132923552 L 886.2133543980007 76.7596591542219 L 887.0640474015617 77.83875808488185 L 887.8274528761967 78.98127511747103 L 888.4988641732965 80.18016625455807 L 889.0741418189476 81.42803993361109 L 889.5497390351652 82.71720259843859 L 889.9227236069594 84.03970613252184 L 890.1907959604149 85.38739686179616 L 890.3523033403297 86.75196582476292 Z" fill-opacity="1" stroke-opacity="1" stroke-miterlimit="10" stroke-width="2"/><text fill="rgb(255,255,255)" stroke="none" font-family="times new roman" font-size="10px" font-style="normal" font-weight="normal" text-decoration="normal" x="872.90625" y="93.125" text-anchor="middle" dominant-baseline="text-after-edge" fill-opacity="1">*39.2</text><path fill="rgb(69,90,100)" stroke="rgb(76,175,80)" paint-order="fill stroke markers" d=" M 153.96875 148.625 L 153.96875 168.625 L 248.96874999999997 168.625 L 248.96875 148.625 Z" fill-opacity="1" stroke-opacity="1" stroke-miterlimit="10" stroke-width="2"/><text fill="rgb(255,255,255)" stroke="none" font-family="times new roman" font-size="10px" font-style="normal" font-weight="normal" text-decoration="normal" x="201.46875" y="163.625" text-anchor="middle" dominant-baseline="text-after-edge" fill-opacity="1">42127407T&gt;G</text><path fill="rgb(69,90,100)" stroke="rgb(244,67,54)" paint-order="fill stroke markers" d=" M 509.28125 148.625 L 509.28125 168.625 L 604.28125 168.625 L 604.28125 148.625 Z" fill-opacity="1" stroke-opacity="1" stroke-miterlimit="10" stroke-width="2"/><text fill="rgb(255,255,255)" stroke="none" font-family="times new roman" font-size="10px" font-style="normal" font-weight="normal" text-decoration="normal" x="556.78125" y="163.625" text-anchor="middle" dominant-baseline="text-after-edge" fill-opacity="1">42127803C&gt;T</text><path fill="rgb(176,190,197)" stroke="none" paint-order="stroke fill markers" d=" M 488.34375 263.25 L 488.34375 473.25 L 563.34375 473.25 L 563.34375 263.25000000000006 Z" fill-opacity="0.8"/><text fill="rgb(0,0,0)" stroke="none" font-family="times new roman" font-size="10px" font-style="normal" font-weight="normal" text-decoration="normal" x="493.34375" y="278.25" text-anchor="start" dominant-baseline="text-after-edge" fill-opacity="0.8">42126310C&gt;T </text><text fill="rgb(0,0,0)" stroke="none" font-family="times new roman" font-size="10px" font-style="normal" font-weight="normal" text-decoration="normal" x="493.34375" y="288.25" text-anchor="start" dominant-baseline="text-after-edge" fill-opacity="0.8">42127001G&gt;A </text><text fill="rgb(0,0,0)" stroke="none" font-family="times new roman" font-size="10px" font-style="normal" font-weight="normal" text-decoration="normal" x="493.34375" y="298.25" text-anchor="start" dominant-baseline="text-after-edge" fill-opacity="0.8">42127207C&gt;T </text><text fill="rgb(0,0,0)" stroke="none" font-family="times new roman" font-size="10px" font-style="normal" font-weight="normal" text-decoration="normal" x="493.34375" y="308.25" text-anchor="start" dominant-baseline="text-after-edge" fill-opacity="0.8">42131469C&gt;T </text><text fill="rgb(0,0,0)" stroke="none" font-family="times new roman" font-size="10px" font-style="normal" font-weight="normal" text-decoration="normal" x="493.34375" y="318.25" text-anchor="start" dominant-baseline="text-after-edge" fill-opacity="0.8">42131531G&gt;A </text><path fill="rgb(176,190,197)" stroke="none" paint-order="stroke fill markers" d=" M 402.46875 263.25 L 469.46875 263.25 L 469.46875 263.25 A 8 8 0 0 1 477.46875 271.25 L 477.46875 465.25 L 477.46875 465.25 A 8 8 0 0 1 469.46875 473.25 L 335.46875 473.25 L 335.46875 473.25 A 8 8 0 0 1 327.46875 465.25 L 327.46875 271.25 L 327.46875 271.25 A 8 8 0 0 1 335.46875 263.25 L 402.46875 263.25 Z" fill-opacity="0.8"/><text fill="rgb(0,0,0)" stroke="none" font-family="times new roman" font-size="10px" font-style="normal" font-weight="normal" text-decoration="normal" x="332.46875" y="278.25" text-anchor="start" dominant-baseline="text-after-edge" fill-opacity="0.8">42125924A&gt;G </text><text fill="rgb(0,0,0)" stroke="none" font-family="times new roman" font-size="10px" font-style="normal" font-weight="normal" text-decoration="normal" x="332.46875" y="288.25" text-anchor="start" dominant-baseline="text-after-edge" fill-opacity="0.8">42126069A&gt;C </text><text fill="rgb(0,0,0)" stroke="none" font-family="times new roman" font-size="10px" font-style="normal" font-weight="normal" text-decoration="normal" x="332.46875" y="298.25" text-anchor="start" dominant-baseline="text-after-edge" fill-opacity="0.8">42126136_42126138del </text><text fill="rgb(0,0,0)" stroke="none" font-family="times new roman" font-size="10px" font-style="normal" font-weight="normal" text-decoration="normal" x="332.46875" y="308.25" text-anchor="start" dominant-baseline="text-after-edge" fill-opacity="0.8">42132027C&gt;T </text><text fill="rgb(0,0,0)" stroke="none" font-family="times new roman" font-size="10px" font-style="normal" font-weight="normal" text-decoration="normal" x="332.46875" y="318.25" text-anchor="start" dominant-baseline="text-after-edge" fill-opacity="0.8">42132561C&gt;T </text><text fill="rgb(0,0,0)" stroke="none" font-family="times new roman" font-size="10px" font-style="normal" font-weight="normal" text-decoration="normal" x="332.46875" y="328.25" text-anchor="start" dominant-baseline="text-after-edge" fill-opacity="0.8">42132844C&gt;A </text><text fill="rgb(0,0,0)" stroke="none" font-family="times new roman" font-size="10px" font-style="normal" font-weight="normal" text-decoration="normal" x="332.46875" y="338.25" text-anchor="start" dominant-baseline="text-after-edge" fill-opacity="0.8">42132851T&gt;C </text><text fill="rgb(0,0,0)" stroke="none" font-family="times new roman" font-size="10px" font-style="normal" font-weight="normal" text-decoration="normal" x="332.46875" y="348.25" text-anchor="start" dominant-baseline="text-after-edge" fill-opacity="0.8">42133169T&gt;C </text><text fill="rgb(0,0,0)" stroke="none" font-family="times new roman" font-size="10px" font-style="normal" font-weight="normal" text-decoration="normal" x="332.46875" y="358.25" text-anchor="start" dominant-baseline="text-after-edge" fill-opacity="0.8">42133400T&gt;G </text><text fill="rgb(0,0,0)" stroke="none" font-family="times new roman" font-size="10px" font-style="normal" font-weight="normal" text-decoration="normal" x="332.46875" y="368.25" text-anchor="start" dominant-baseline="text-after-edge" fill-opacity="0.8">42133533A&gt;C </text><text fill="rgb(0,0,0)" stroke="none" font-family="times new roman" font-size="10px" font-style="normal" font-weight="normal" text-decoration="normal" x="332.46875" y="378.25" text-anchor="start" dominant-baseline="text-after-edge" fill-opacity="0.8">42134096del </text><text fill="rgb(0,0,0)" stroke="none" font-family="times new roman" font-size="10px" font-style="normal" font-weight="normal" text-decoration="normal" x="332.46875" y="388.25" text-anchor="start" dominant-baseline="text-after-edge" fill-opacity="0.8">42134820T&gt;G </text><text fill="rgb(0,0,0)" stroke="none" font-family="times new roman" font-size="10px" font-style="normal" font-weight="normal" text-decoration="normal" x="332.46875" y="398.25" text-anchor="start" dominant-baseline="text-after-edge" fill-opacity="0.8">42135064_42135066dup </text><text fill="rgb(0,0,0)" stroke="none" font-family="times new roman" font-size="10px" font-style="normal" font-weight="normal" text-decoration="normal" x="332.46875" y="408.25" text-anchor="start" dominant-baseline="text-after-edge" fill-opacity="0.8">42135201T&gt;C </text><text fill="rgb(0,0,0)" stroke="none" font-family="times new roman" font-size="10px" font-style="normal" font-weight="normal" text-decoration="normal" x="332.46875" y="418.25" text-anchor="start" dominant-baseline="text-after-edge" fill-opacity="0.8">42135691T&gt;C </text><g transform="scale(1.056230407523511,1.056230407523511) translate(113.87840845854203,-25.65164162493045)"/></g></svg>