<svg version="1.1" xmlns="http://www.w3.org/2000/svg" xmlns:xlink="http://www.w3.org/1999/xlink" width="1017" height="608"><defs/><g transform="translate(-115.20186757215629,-40.88828522920204) scale(0.866553480475382,0.866553480475382)"><path fill="none" stroke="rgb(120,144,156)" paint-order="fill stroke markers" d=" M 650.0793269230769 351.625 L 612.5364136694762 402.1682100760449" stroke-opacity="1" stroke-linejoin="round" stroke-miterlimit="10"/><path fill="rgb(120,144,156)" stroke="none" paint-order="stroke fill markers" d=" M 613.0394958849049 394.1957946149365 L 611.3438367261127 403.77375055643074 L 620.0235969745834 399.38350431856793 Z" fill-opacity="1"/><path fill="none" stroke="rgb(120,144,156)" paint-order="fill stroke markers" d=" M 238.92789055105948 556.6291230595729 L 550.1443085256592 670.9535214992218" stroke-opacity="1" stroke-linejoin="round" stroke-miterlimit="10"/><path fill="rgb(120,144,156)" stroke="none" paint-order="stroke fill markers" d=" M 542.3552651742408 672.7264579531661 L 552.0216480446927 671.643156424581 L 545.3551770995535 664.5600310453706 Z" fill-opacity="1"/><path fill="none" stroke="rgb(120,144,156)" paint-order="fill stroke markers" d=" M 457.5853139099697 563.1372964934976 L 559.3866823955034 661.9817787574598" stroke-opacity="1" stroke-linejoin="round" stroke-miterlimit="10"/><path fill="rgb(120,144,156)" stroke="none" paint-order="stroke fill markers" d=" M 551.5495152093677 660.435392487294 L 560.8215811965812 663.375 L 557.6100276144178 654.1935827026056 Z" fill-opacity="1"/><path fill="none" stroke="rgb(120,144,156)" paint-order="fill stroke markers" d=" M 772.4189207232426 350.82925379011465 L 894.5959946882351 409.72341690649574" stroke-opacity="1" stroke-linejoin="round" stroke-miterlimit="10"/><path fill="rgb(120,144,156)" stroke="none" paint-order="stroke fill markers" d=" M 886.6717277591831 410.732621364042 L 896.3976049625537 410.59186403756934 L 890.4494727793532 402.89561667075645 Z" fill-opacity="1"/><path fill="none" stroke="rgb(55,71,79)" paint-order="fill stroke markers" d=" M 1060.5745412844037 269.875 L 973.696522299835 327.6170979836462" stroke-opacity="1" stroke-linejoin="round" stroke-miterlimit="10" stroke-width="2"/><path fill="none" stroke="rgb(120,144,156)" paint-order="fill stroke markers" d=" M 931.1760519503061 345.6842275509659 L 620.3317951071797 414.2116312853276" stroke-opacity="1" stroke-linejoin="round" stroke-miterlimit="10"/><path fill="rgb(120,144,156)" stroke="none" paint-order="stroke fill markers" d=" M 625.938191366169 408.52121645095997 L 618.3786931455037 414.64220384285665 L 627.8111819914202 417.0172099842509 Z" fill-opacity="1"/><path fill="none" stroke="rgb(120,144,156)" paint-order="fill stroke markers" d=" M 572.8584401709402 655.25 L 574.4899792771569 661.4410294733196" stroke-opacity="1" stroke-linejoin="round" stroke-miterlimit="10"/><path fill="rgb(120,144,156)" stroke="none" paint-order="stroke fill markers" d=" M 568.5762169800456 656.0707487084744 L 574.9996438746439 663.375 L 576.9889887711054 653.8537077094061 Z" fill-opacity="1"/><path fill="none" stroke="rgb(55,71,79)" paint-order="fill stroke markers" d=" M 1032.5 125.125 L 1032.5 161.125" stroke-opacity="1" stroke-linejoin="round" stroke-miterlimit="10" stroke-width="2"/><path fill="none" stroke="rgb(120,144,156)" paint-order="fill stroke markers" d=" M 1217.9214449541284 269.875 L 1196.6606780476175 321.66100207396" stroke-opacity="1" stroke-linejoin="round" stroke-miterlimit="10"/><path fill="rgb(120,144,156)" stroke="none" paint-order="stroke fill markers" d=" M 1195.1811976544839 313.8109296051013 L 1195.9010997015084 323.51114821308585 L 1203.2293333596813 317.11509541067545 Z" fill-opacity="1"/><path fill="none" stroke="rgb(120,144,156)" paint-order="fill stroke markers" d=" M 1019.6718087819257 204.31478186960237 L 998.044952172804 237.5094920138357" stroke-opacity="1" stroke-linejoin="round" stroke-miterlimit="10"/><path fill="rgb(120,144,156)" stroke="none" paint-order="stroke fill markers" d=" M 998.0576470676264 229.5212294468162 L 996.9531912180743 239.18521813039763 L 1005.3470556746707 234.27038959989048 Z" fill-opacity="1"/><path fill="none" stroke="rgb(120,144,156)" paint-order="fill stroke markers" d=" M 838.7291666666666 195.625 L 906.5798307966548 399.1769923899644" stroke-opacity="1" stroke-linejoin="round" stroke-miterlimit="10"/><path fill="rgb(120,144,156)" stroke="none" paint-order="stroke fill markers" d=" M 900.3343324178222 394.19640507519927 L 907.2122863286885 401.0743589860655 L 908.5878771108618 391.44522351085277 Z" fill-opacity="1"/><path fill="none" stroke="rgb(120,144,156)" paint-order="fill stroke markers" d=" M 598.8805552959989 437.06949875612463 L 581.4660583941186 661.381000134473" stroke-opacity="1" stroke-linejoin="round" stroke-miterlimit="10"/><path fill="rgb(120,144,156)" stroke="none" paint-order="stroke fill markers" d=" M 577.6477048766951 654.3644000734763 L 581.3112535612536 663.375 L 586.3216042917375 655.0378010964389 Z" fill-opacity="1"/><path fill="none" stroke="rgb(120,144,156)" paint-order="fill stroke markers" d=" M 748.625 429.625 L 748.625 443.25" stroke-opacity="1" stroke-linejoin="round" stroke-miterlimit="10"/><path fill="rgb(120,144,156)" stroke="none" paint-order="stroke fill markers" d=" M 744.275 436.55 L 748.625 445.25 L 752.975 436.55 Z" fill-opacity="1"/><path fill="none" stroke="rgb(120,144,156)" paint-order="fill stroke markers" d=" M 962.4292445718222 267.9051825231106 L 619.238584522453 410.7476067351588" stroke-opacity="1" stroke-linejoin="round" stroke-miterlimit="10"/><path fill="rgb(120,144,156)" stroke="none" paint-order="stroke fill markers" d=" M 623.7526384540811 404.15702124505606 L 617.3921372519698 411.51613290733843 L 627.0957273030624 412.18906687165804 Z" fill-opacity="1"/><path fill="none" stroke="rgb(120,144,156)" paint-order="fill stroke markers" d=" M 673.625 608.75 L 602.7036829650119 664.0686272872908" stroke-opacity="1" stroke-linejoin="round" stroke-miterlimit="10"/><path fill="rgb(120,144,156)" stroke="none" paint-order="stroke fill markers" d=" M 605.3112600910127 656.5179292048645 L 601.1266783529763 665.2986908846785 L 610.6620367396495 663.3778992672192 Z" fill-opacity="1"/><path fill="none" stroke="rgb(55,71,79)" paint-order="fill stroke markers" d=" M 529.8125 351.625 L 529.8125 400.125" stroke-opacity="1" stroke-linejoin="round" stroke-miterlimit="10" stroke-width="2"/><path fill="none" stroke="rgb(120,144,156)" paint-order="fill stroke markers" d=" M 1006.125 348.9518675196038 L 620.5168827091929 415.15615014155003" stroke-opacity="1" stroke-linejoin="round" stroke-miterlimit="10"/><path fill="rgb(120,144,156)" stroke="none" paint-order="stroke fill markers" d=" M 626.3841933075995 409.73515702756936 L 618.5457234204912 415.4945745179842 L 627.856339345088 418.30969993342194 Z" fill-opacity="1"/><path fill="none" stroke="rgb(120,144,156)" paint-order="fill stroke markers" d=" M 1058.737701252236 351.625 L 1125.8207949701364 531.048202814862" stroke-opacity="1" stroke-linejoin="round" stroke-miterlimit="10"/><path fill="rgb(120,144,156)" stroke="none" paint-order="stroke fill markers" d=" M 1119.3998929479199 526.2958857777635 L 1126.5212052169522 532.9215488817047 L 1127.5489483386857 523.249101204114 Z" fill-opacity="1"/><path fill="none" stroke="rgb(120,144,156)" paint-order="fill stroke markers" d=" M 217.4385683760684 429.625 L 220.86205452752898 529.7619699302229" stroke-opacity="1" stroke-linejoin="round" stroke-miterlimit="10"/><path fill="rgb(120,144,156)" stroke="none" paint-order="stroke fill markers" d=" M 216.28566840708572 523.2145131662103 L 220.93039067118468 531.7608021321523 L 224.980588485479 522.9172509413079 Z" fill-opacity="1"/><path fill="none" stroke="rgb(120,144,156)" paint-order="fill stroke markers" d=" M 976.2712834929368 348.4857968712131 L 1154.5559016338211 411.76770911234604" stroke-opacity="1" stroke-linejoin="round" stroke-miterlimit="10"/><path fill="rgb(120,144,156)" stroke="none" paint-order="stroke fill markers" d=" M 1146.7867711745678 413.62596418286296 L 1156.4406917183264 412.43671310138546 L 1149.6969385268892 405.42712731526507 Z" fill-opacity="1"/><path fill="none" stroke="rgb(120,144,156)" paint-order="fill stroke markers" d=" M 694.1850961538462 351.625 L 893.4603185226206 412.62462656763074" stroke-opacity="1" stroke-linejoin="round" stroke-miterlimit="10"/><path fill="rgb(120,144,156)" stroke="none" paint-order="stroke fill markers" d=" M 885.7805019211938 414.8230161983491 L 895.3727264716332 413.2100288537155 L 888.3270018656627 406.50404162014416 Z" fill-opacity="1"/><path fill="none" stroke="rgb(120,144,156)" paint-order="fill stroke markers" d=" M 943.1778986901365 361.4194938123434 L 922.6120990149873 400.4851224190196" stroke-opacity="1" stroke-linejoin="round" stroke-miterlimit="10"/><path fill="rgb(120,144,156)" stroke="none" paint-order="stroke fill markers" d=" M 921.8839939380678 392.5301011747385 L 921.6804308184031 402.2548665732616 L 929.5823810090204 396.5828578298794 Z" fill-opacity="1"/><path fill="none" stroke="rgb(55,71,79)" paint-order="fill stroke markers" d=" M 751.25 269.875 L 751.25 317.125" stroke-opacity="1" stroke-linejoin="round" stroke-miterlimit="10" stroke-width="2"/><path fill="none" stroke="rgb(120,144,156)" paint-order="fill stroke markers" d=" M 857.1458333333334 195.625 L 961.2999061654565 247.5055192975104" stroke-opacity="1" stroke-linejoin="round" stroke-miterlimit="10"/><path fill="rgb(120,144,156)" stroke="none" paint-order="stroke fill markers" d=" M 953.3632249988968 248.41193645333723 L 963.09010960346 248.39724327417625 L 957.2422242973934 240.62455149802238 Z" fill-opacity="1"/><path fill="none" stroke="rgb(120,144,156)" paint-order="fill stroke markers" d=" M 730.3728726046373 351.4136770142495 L 618.5244621959548 409.2136009024632" stroke-opacity="1" stroke-linejoin="round" stroke-miterlimit="10"/><path fill="rgb(120,144,156)" stroke="none" paint-order="stroke fill markers" d=" M 622.4796114953992 402.2731906826632 L 616.7476853963494 410.13178618027166 L 626.473717453866 410.0021697609464 Z" fill-opacity="1"/><path fill="none" stroke="rgb(120,144,156)" paint-order="fill stroke markers" d=" M 319.84953703703707 429.625 L 234.51179549882585 534.3576827968956" stroke-opacity="1" stroke-linejoin="round" stroke-miterlimit="10"/><path fill="rgb(120,144,156)" stroke="none" paint-order="stroke fill markers" d=" M 235.3717320846126 526.415831056374 L 233.24844959650136 535.9081527679301 L 242.11627645861302 531.9113857314854 Z" fill-opacity="1"/><path fill="none" stroke="rgb(120,144,156)" paint-order="fill stroke markers" d=" M 898.5465609757803 430.09398052335655 L 602.5734485728201 663.9410541383007" stroke-opacity="1" stroke-linejoin="round" stroke-miterlimit="10"/><path fill="rgb(120,144,156)" stroke="none" paint-order="stroke fill markers" d=" M 605.133812150424 656.3742160700929 L 601.0041578674991 665.1809439246096 L 610.5273327208674 663.2006306382395 Z" fill-opacity="1"/><path fill="none" stroke="rgb(120,144,156)" paint-order="fill stroke markers" d=" M 1034.6610576923076 351.625 L 931.0173893991217 408.7319748476362" stroke-opacity="1" stroke-linejoin="round" stroke-miterlimit="10"/><path fill="rgb(120,144,156)" stroke="none" paint-order="stroke fill markers" d=" M 934.7863210850405 401.6887047302207 L 929.2656928723782 409.6971480332327 L 938.9848244423852 409.3085846215553 Z" fill-opacity="1"/><path fill="none" stroke="rgb(55,71,79)" paint-order="fill stroke markers" d=" M 1107.2327920728867 125.59237432898031 L 1050.940777637144 170.05833531183583" stroke-opacity="1" stroke-linejoin="round" stroke-miterlimit="10" stroke-width="2"/><path fill="none" stroke="rgb(120,144,156)" paint-order="fill stroke markers" d=" M 440.8758903133903 429.625 L 443.7286913013206 529.7583146763536" stroke-opacity="1" stroke-linejoin="round" stroke-miterlimit="10"/><path fill="rgb(120,144,156)" stroke="none" paint-order="stroke fill markers" d=" M 439.1896498652712 523.1849135139548 L 443.78564824753323 531.7575034884167 L 447.88612119774547 522.9371507979299 Z" fill-opacity="1"/><path fill="none" stroke="rgb(120,144,156)" paint-order="fill stroke markers" d=" M 1115.0025614866154 554.5327802835241 L 612.6795879354847 674.0686200912846" stroke-opacity="1" stroke-linejoin="round" stroke-miterlimit="10"/><path fill="rgb(120,144,156)" stroke="none" paint-order="stroke fill markers" d=" M 618.1905470601522 668.2857289868072 L 610.7339189070108 674.5316233651791 L 620.2046113015932 676.7493892606691 Z" fill-opacity="1"/><path fill="none" stroke="rgb(120,144,156)" paint-order="fill stroke markers" d=" M 1168.3884481816867 436.29270356172424 L 1139.0796925554282 530.6722744316029" stroke-opacity="1" stroke-linejoin="round" stroke-miterlimit="10"/><path fill="rgb(120,144,156)" stroke="none" paint-order="stroke fill markers" d=" M 1136.9124161602497 522.9836196060237 L 1138.4865518183133 532.5822964382758 L 1145.2210118892767 525.5637818124737 Z" fill-opacity="1"/><path fill="none" stroke="rgb(120,144,156)" paint-order="fill stroke markers" d=" M 1185.3813232174728 358.79211926914195 L 1177.7463715698275 398.49386783689675" stroke-opacity="1" stroke-linejoin="round" stroke-miterlimit="10"/><path fill="rgb(120,144,156)" stroke="none" paint-order="stroke fill markers" d=" M 1174.7399210629176 391.0929384797484 L 1177.3686767825272 400.45788073085805 L 1183.2833771516491 392.7359108045045 Z" fill-opacity="1"/><path fill="none" stroke="rgb(120,144,156)" paint-order="fill stroke markers" d=" M 1201.1346830985915 269.875 L 931.2774815289197 409.2194459014306" stroke-opacity="1" stroke-linejoin="round" stroke-miterlimit="10"/><path fill="rgb(120,144,156)" stroke="none" paint-order="stroke fill markers" d=" M 935.2348579150165 402.2803053106396 L 929.5004101602447 410.1370609354374 L 939.226483312946 410.0105657643762 Z" fill-opacity="1"/><path fill="none" stroke="rgb(120,144,156)" paint-order="fill stroke markers" d=" M 1005.9497112613435 267.5888957050785 L 1169.8364220911683 333.0235165125911" stroke-opacity="1" stroke-linejoin="round" stroke-miterlimit="10"/><path fill="rgb(120,144,156)" stroke="none" paint-order="stroke fill markers" d=" M 1162.0010598882707 334.5790225876046 L 1171.6938443261763 333.7651246577041 L 1165.2270553195126 326.49923586532 Z" fill-opacity="1"/><path fill="none" stroke="rgb(120,144,156)" paint-order="fill stroke markers" d=" M 519.7348767883141 434.13923573377974 L 455.4795959913277 533.0585495922982" stroke-opacity="1" stroke-linejoin="round" stroke-miterlimit="10"/><path fill="rgb(120,144,156)" stroke="none" paint-order="stroke fill markers" d=" M 455.48138788734684 525.0702771389382 L 454.390123211686 534.7357642662203 L 462.77727171890814 529.8094837303797 Z" fill-opacity="1"/><path fill="rgb(69,90,100)" stroke="rgb(158,158,158)" paint-order="fill stroke markers" d=" M 610.75 330.625 L 610.75 350.625 L 705.75 350.625 L 705.75 330.625 Z" fill-opacity="1" stroke-opacity="1" stroke-miterlimit="10" stroke-width="2"/><text fill="rgb(255,255,255)" stroke="none" font-family="times new roman" font-size="10px" font-style="normal" font-weight="normal" text-decoration="normal" x="658.25" y="345.625" text-anchor="middle" dominant-baseline="text-after-edge" fill-opacity="1">42129809T&gt;C</text><path fill="rgb(69,90,100)" stroke="rgb(76,175,80)" paint-order="fill stroke markers" d=" M 239.0625 550.25 L 239.00855334032974 551.6230341752373 L 238.8470459604149 552.987603138204 L 238.57897360695935 554.3352938674783 L 238.20598903516517 555.6577974015615 L 237.7303918189475 556.9469600663891 L 237.15511417329643 558.1948337454421 L 236.48370287619662 559.3937248825291 L 235.7202974015616 560.5362419151182 L 234.86960439800055 561.6153408457782 L 233.93686867076457 562.6243686707646 L 232.9278408457782 563.5571043980005 L 231.84874191511827 564.4077974015615 L 230.7062248825291 565.1712028761966 L 229.50733374544208 565.8426141732964 L 228.25946006638907 566.4178918189475 L 226.9702974015616 566.8934890351652 L 225.64779386747836 567.2664736069594 L 224.30010313820404 567.5345459604149 L 222.93553417523728 567.6960533403297 L 221.5625 567.75 L 220.18946582476272 567.6960533403297 L 218.82489686179596 567.5345459604149 L 217.47720613252164 567.2664736069594 L 216.15470259843843 566.8934890351652 L 214.86553993361093 566.4178918189475 L 213.61766625455795 565.8426141732964 L 212.4187751174709 565.1712028761966 L 211.27625808488173 564.4077974015615 L 210.1971591542218 563.5571043980005 L 209.18813132923543 562.6243686707646 L 208.25539560199945 561.6153408457782 L 207.40470259843843 560.5362419151182 L 206.64129712380338 559.3937248825291 L 205.96988582670357 558.1948337454421 L 205.3946081810525 556.9469600663891 L 204.91901096483483 555.6577974015615 L 204.54602639304065 554.3352938674783 L 204.2779540395851 552.987603138204 L 204.11644665967026 551.6230341752373 L 204.0625 550.25 L 204.11644665967026 548.8769658247627 L 204.2779540395851 547.512396861796 L 204.54602639304065 546.1647061325217 L 204.9190109648348 544.8422025984385 L 205.3946081810525 543.5530399336109 L 205.96988582670357 542.3051662545579 L 206.64129712380338 541.1062751174709 L 207.4047025984384 539.9637580848818 L 208.25539560199945 538.8846591542218 L 209.1881313292354 537.8756313292354 L 210.19715915422177 536.9428956019995 L 211.2762580848817 536.0922025984385 L 212.4187751174709 535.3287971238034 L 213.61766625455795 534.6573858267036 L 214.86553993361096 534.0821081810525 L 216.15470259843843 533.6065109648348 L 217.4772061325217 533.2335263930406 L 218.824896861796 532.9654540395851 L 220.18946582476278 532.8039466596703 L 221.56250000000006 532.75 L 222.93553417523736 532.8039466596703 L 224.30010313820412 532.9654540395851 L 225.6477938674784 533.2335263930406 L 226.97029740156165 533.6065109648348 L 228.25946006638915 534.0821081810525 L 229.50733374544217 534.6573858267036 L 230.7062248825292 535.3287971238035 L 231.84874191511838 536.0922025984385 L 232.92784084577832 536.9428956019996 L 233.93686867076468 537.8756313292355 L 234.86960439800063 538.8846591542219 L 235.72029740156168 539.9637580848819 L 236.4837028761967 541.106275117471 L 237.1551141732965 542.3051662545581 L 237.7303918189476 543.5530399336111 L 238.20598903516523 544.8422025984386 L 238.57897360695938 546.1647061325218 L 238.84704596041493 547.5123968617961 L 239.00855334032974 548.8769658247629 Z" fill-opacity="1" stroke-opacity="1" stroke-miterlimit="10" stroke-width="2"/><text fill="rgb(255,255,255)" stroke="none" font-family="times new roman" font-size="10px" font-style="normal" font-weight="normal" text-decoration="normal" x="221.5625" y="555.25" text-anchor="middle" dominant-baseline="text-after-edge" fill-opacity="1">*1.58</text><path fill="rgb(69,90,100)" stroke="rgb(76,175,80)" paint-order="fill stroke markers" d=" M 461.8125 550.25 L 461.75855334032974 551.6230341752373 L 461.5970459604149 552.987603138204 L 461.3289736069593 554.3352938674783 L 460.9559890351652 555.6577974015615 L 460.4803918189475 556.9469600663891 L 459.90511417329645 558.1948337454421 L 459.2337028761966 559.3937248825291 L 458.4702974015616 560.5362419151182 L 457.61960439800055 561.6153408457782 L 456.68686867076457 562.6243686707646 L 455.67784084577823 563.5571043980005 L 454.5987419151183 564.4077974015615 L 453.4562248825291 565.1712028761966 L 452.25733374544205 565.8426141732964 L 451.00946006638907 566.4178918189475 L 449.7202974015616 566.8934890351652 L 448.39779386747836 567.2664736069594 L 447.05010313820407 567.5345459604149 L 445.6855341752373 567.6960533403297 L 444.3125 567.75 L 442.9394658247627 567.6960533403297 L 441.57489686179593 567.5345459604149 L 440.22720613252164 567.2664736069594 L 438.9047025984384 566.8934890351652 L 437.61553993361093 566.4178918189475 L 436.36766625455795 565.8426141732964 L 435.1687751174709 565.1712028761966 L 434.0262580848817 564.4077974015615 L 432.94715915422177 563.5571043980005 L 431.93813132923543 562.6243686707646 L 431.00539560199945 561.6153408457782 L 430.1547025984384 560.5362419151182 L 429.3912971238034 559.3937248825291 L 428.71988582670355 558.1948337454421 L 428.1446081810525 556.9469600663891 L 427.6690109648348 555.6577974015615 L 427.2960263930407 554.3352938674783 L 427.0279540395851 552.987603138204 L 426.86644665967026 551.6230341752373 L 426.8125 550.25 L 426.86644665967026 548.8769658247627 L 427.0279540395851 547.512396861796 L 427.2960263930407 546.1647061325217 L 427.6690109648348 544.8422025984385 L 428.1446081810525 543.5530399336109 L 428.71988582670355 542.3051662545579 L 429.3912971238034 541.1062751174709 L 430.1547025984384 539.9637580848818 L 431.00539560199945 538.8846591542218 L 431.93813132923543 537.8756313292354 L 432.94715915422177 536.9428956019995 L 434.0262580848817 536.0922025984385 L 435.1687751174709 535.3287971238034 L 436.36766625455795 534.6573858267036 L 437.61553993361093 534.0821081810525 L 438.90470259843846 533.6065109648348 L 440.2272061325217 533.2335263930406 L 441.574896861796 532.9654540395851 L 442.93946582476275 532.8039466596703 L 444.31250000000006 532.75 L 445.68553417523736 532.8039466596703 L 447.0501031382041 532.9654540395851 L 448.3977938674784 533.2335263930406 L 449.72029740156165 533.6065109648348 L 451.0094600663892 534.0821081810525 L 452.25733374544217 534.6573858267036 L 453.4562248825292 535.3287971238035 L 454.59874191511835 536.0922025984385 L 455.6778408457783 536.9428956019996 L 456.6868686707647 537.8756313292355 L 457.61960439800066 538.8846591542219 L 458.47029740156165 539.9637580848819 L 459.2337028761967 541.106275117471 L 459.9051141732965 542.3051662545581 L 460.48039181894757 543.5530399336111 L 460.95598903516526 544.8422025984386 L 461.3289736069594 546.1647061325218 L 461.59704596041496 547.5123968617961 L 461.75855334032974 548.8769658247629 Z" fill-opacity="1" stroke-opacity="1" stroke-miterlimit="10" stroke-width="2"/><text fill="rgb(255,255,255)" stroke="none" font-family="times new roman" font-size="10px" font-style="normal" font-weight="normal" text-decoration="normal" x="444.3125" y="555.25" text-anchor="middle" dominant-baseline="text-after-edge" fill-opacity="1">*1.54</text><path fill="rgb(69,90,100)" stroke="rgb(76,175,80)" paint-order="fill stroke markers" d=" M 1007.125 330.625 L 1007.125 350.625 L 1102.125 350.625 L 1102.125 330.625 Z" fill-opacity="1" stroke-opacity="1" stroke-miterlimit="10" stroke-width="2"/><text fill="rgb(255,255,255)" stroke="none" font-family="times new roman" font-size="10px" font-style="normal" font-weight="normal" text-decoration="normal" x="1054.625" y="345.625" text-anchor="middle" dominant-baseline="text-after-edge" fill-opacity="1">42129796G&gt;C</text><path fill="rgb(69,90,100)" stroke="rgb(158,158,158)" paint-order="fill stroke markers" d=" M 787.5625 174.625 L 787.5625 194.625 L 882.5625 194.625 L 882.5625 174.625 Z" fill-opacity="1" stroke-opacity="1" stroke-miterlimit="10" stroke-width="2"/><text fill="rgb(255,255,255)" stroke="none" font-family="times new roman" font-size="10px" font-style="normal" font-weight="normal" text-decoration="normal" x="835.0625" y="189.625" text-anchor="middle" dominant-baseline="text-after-edge" fill-opacity="1">42130692G&gt;A</text><path fill="rgb(69,90,100)" stroke="rgb(76,175,80)" paint-order="fill stroke markers" d=" M 1055 184.625 L 1054.9306400089954 186.3903296538765 L 1054.7229876633905 188.14477546340518 L 1054.3783232089477 189.87752068675786 L 1053.898771616641 191.57788237343632 L 1053.2872894815039 193.23537722821453 L 1052.5476467942383 194.83978624413982 L 1051.6844036979671 196.38121770610886 L 1050.7028823734363 197.85016817658064 L 1049.6091342260006 199.23758108742913 L 1048.4099025766973 200.5349025766973 L 1047.1125810874291 201.7341342260007 L 1045.7251681765806 202.82788237343632 L 1044.2562177061088 203.80940369796707 L 1042.7147862441398 204.6726467942383 L 1041.1103772282145 205.41228948150396 L 1039.4528823734363 206.02377161664094 L 1037.7525206867579 206.50332320894773 L 1036.0197754634053 206.8479876633906 L 1034.2653296538765 207.05564000899537 L 1032.5 207.125 L 1030.7346703461235 207.05564000899537 L 1028.9802245365947 206.8479876633906 L 1027.2474793132421 206.50332320894773 L 1025.5471176265637 206.02377161664094 L 1023.8896227717855 205.41228948150396 L 1022.2852137558602 204.6726467942383 L 1020.7437822938912 203.80940369796707 L 1019.2748318234194 202.82788237343632 L 1017.8874189125709 201.7341342260007 L 1016.5900974233027 200.53490257669733 L 1015.3908657739993 199.23758108742913 L 1014.2971176265637 197.85016817658064 L 1013.3155963020329 196.38121770610886 L 1012.4523532057617 194.83978624413982 L 1011.712710518496 193.23537722821453 L 1011.1012283833591 191.57788237343632 L 1010.6216767910523 189.87752068675786 L 1010.2770123366095 188.1447754634052 L 1010.0693599910046 186.3903296538765 L 1010 184.625 L 1010.0693599910046 182.8596703461235 L 1010.2770123366093 181.10522453659482 L 1010.6216767910523 179.37247931324214 L 1011.1012283833591 177.67211762656368 L 1011.712710518496 176.01462277178547 L 1012.4523532057617 174.4102137558602 L 1013.3155963020329 172.86878229389114 L 1014.2971176265637 171.39983182341936 L 1015.3908657739993 170.01241891257087 L 1016.5900974233027 168.7150974233027 L 1017.8874189125709 167.5158657739993 L 1019.2748318234194 166.42211762656368 L 1020.7437822938912 165.44059630203293 L 1022.2852137558602 164.5773532057617 L 1023.8896227717855 163.83771051849604 L 1025.5471176265637 163.22622838335903 L 1027.2474793132421 162.74667679105227 L 1028.980224536595 162.4020123366094 L 1030.7346703461235 162.1943599910046 L 1032.5 162.125 L 1034.2653296538765 162.19435999100463 L 1036.0197754634053 162.4020123366094 L 1037.7525206867579 162.7466767910523 L 1039.4528823734365 163.22622838335909 L 1041.1103772282147 163.8377105184961 L 1042.71478624414 164.5773532057618 L 1044.256217706109 165.440596302033 L 1045.7251681765808 166.42211762656376 L 1047.1125810874294 167.51586577399942 L 1048.4099025766975 168.7150974233028 L 1049.6091342260008 170.012418912571 L 1050.7028823734365 171.3998318234195 L 1051.6844036979671 172.86878229389131 L 1052.5476467942383 174.41021375586038 L 1053.287289481504 176.0146227717857 L 1053.898771616641 177.6721176265639 L 1054.3783232089477 179.37247931324237 L 1054.7229876633905 181.10522453659505 L 1054.9306400089954 182.85967034612375 Z" fill-opacity="1" stroke-opacity="1" stroke-miterlimit="10" stroke-width="2"/><text fill="rgb(255,255,255)" stroke="none" font-family="times new roman" font-size="15px" font-style="normal" font-weight="normal" text-decoration="normal" x="1032.5" y="192.125" text-anchor="middle" dominant-baseline="text-after-edge" fill-opacity="1">*39</text><path fill="rgb(69,90,100)" stroke="rgb(244,67,54)" paint-order="fill stroke markers" d=" M 1191.375 418.625 L 1191.3210533403299 419.9980341752373 L 1191.159545960415 421.36260313820407 L 1190.8914736069594 422.71029386747836 L 1190.5184890351652 424.0327974015616 L 1190.0428918189475 425.32196006638907 L 1189.4676141732964 426.56983374544205 L 1188.7962028761965 427.7687248825291 L 1188.0327974015615 428.9112419151183 L 1187.1821043980005 429.99034084577823 L 1186.2493686707646 430.99936867076457 L 1185.2403408457783 431.93210439800055 L 1184.1612419151184 432.7827974015616 L 1183.018724882529 433.5462028761966 L 1181.819833745442 434.21761417329645 L 1180.571960066389 434.7928918189475 L 1179.2827974015615 435.2684890351652 L 1177.9602938674784 435.6414736069593 L 1176.6126031382041 435.9095459604149 L 1175.2480341752373 436.07105334032974 L 1173.875 436.125 L 1172.5019658247627 436.07105334032974 L 1171.1373968617959 435.9095459604149 L 1169.7897061325216 435.6414736069593 L 1168.4672025984385 435.2684890351652 L 1167.178039933611 434.7928918189475 L 1165.930166254558 434.21761417329645 L 1164.731275117471 433.5462028761966 L 1163.5887580848816 432.7827974015616 L 1162.5096591542217 431.93210439800055 L 1161.5006313292354 430.99936867076457 L 1160.5678956019995 429.99034084577823 L 1159.7172025984385 428.9112419151183 L 1158.9537971238035 427.7687248825291 L 1158.2823858267036 426.56983374544205 L 1157.7071081810525 425.32196006638907 L 1157.2315109648348 424.0327974015616 L 1156.8585263930406 422.71029386747836 L 1156.590454039585 421.36260313820407 L 1156.4289466596701 419.9980341752373 L 1156.375 418.625 L 1156.4289466596701 417.2519658247627 L 1156.590454039585 415.88739686179593 L 1156.8585263930406 414.53970613252164 L 1157.2315109648348 413.2172025984384 L 1157.7071081810525 411.92803993361093 L 1158.2823858267036 410.68016625455795 L 1158.9537971238035 409.4812751174709 L 1159.7172025984385 408.3387580848817 L 1160.5678956019995 407.25965915422177 L 1161.5006313292354 406.25063132923543 L 1162.5096591542217 405.31789560199945 L 1163.5887580848816 404.4672025984384 L 1164.731275117471 403.7037971238034 L 1165.930166254558 403.03238582670355 L 1167.178039933611 402.4571081810525 L 1168.4672025984385 401.9815109648348 L 1169.7897061325216 401.6085263930407 L 1171.137396861796 401.3404540395851 L 1172.5019658247627 401.17894665967026 L 1173.875 401.125 L 1175.2480341752373 401.17894665967026 L 1176.6126031382041 401.3404540395851 L 1177.9602938674784 401.6085263930407 L 1179.2827974015618 401.98151096483485 L 1180.5719600663892 402.4571081810525 L 1181.819833745442 403.0323858267036 L 1183.018724882529 403.70379712380344 L 1184.1612419151184 404.4672025984385 L 1185.2403408457783 405.31789560199957 L 1186.2493686707646 406.2506313292355 L 1187.1821043980005 407.2596591542219 L 1188.0327974015618 408.3387580848818 L 1188.7962028761967 409.48127511747106 L 1189.4676141732966 410.68016625455806 L 1190.0428918189475 411.9280399336111 L 1190.5184890351652 413.2172025984386 L 1190.8914736069594 414.5397061325218 L 1191.159545960415 415.88739686179616 L 1191.3210533403299 417.2519658247629 Z" fill-opacity="1" stroke-opacity="1" stroke-miterlimit="10" stroke-width="2"/><text fill="rgb(255,255,255)" stroke="none" font-family="times new roman" font-size="10px" font-style="normal" font-weight="normal" text-decoration="normal" x="1173.875" y="423.625" text-anchor="middle" dominant-baseline="text-after-edge" fill-opacity="1">*4.5</text><path fill="rgb(69,90,100)" stroke="rgb(69,90,100)" paint-order="fill stroke markers" d=" M 561.125 664.375 L 542.375 681.875 L 561.125 699.375 L 598.625 699.375 L 617.375 681.875 L 598.625 664.375 Z" fill-opacity="1" stroke-opacity="1" stroke-miterlimit="10" stroke-width="2"/><text fill="rgb(255,255,255)" stroke="none" font-family="times new roman" font-size="10px" font-style="normal" font-weight="normal" text-decoration="normal" x="579.875" y="686.875" text-anchor="middle" dominant-baseline="text-after-edge" fill-opacity="1">NA10854-all</text><path fill="rgb(69,90,100)" stroke="rgb(255,193,7)" paint-order="fill stroke markers" d=" M 1206.375 340.625 L 1206.3210533403299 341.9980341752373 L 1206.159545960415 343.36260313820407 L 1205.8914736069594 344.71029386747836 L 1205.5184890351652 346.0327974015616 L 1205.0428918189475 347.32196006638907 L 1204.4676141732964 348.56983374544205 L 1203.7962028761965 349.7687248825291 L 1203.0327974015615 350.9112419151183 L 1202.1821043980005 351.99034084577823 L 1201.2493686707646 352.99936867076457 L 1200.2403408457783 353.93210439800055 L 1199.1612419151184 354.7827974015616 L 1198.018724882529 355.5462028761966 L 1196.819833745442 356.21761417329645 L 1195.571960066389 356.7928918189475 L 1194.2827974015615 357.2684890351652 L 1192.9602938674784 357.6414736069593 L 1191.6126031382041 357.9095459604149 L 1190.2480341752373 358.07105334032974 L 1188.875 358.125 L 1187.5019658247627 358.07105334032974 L 1186.1373968617959 357.9095459604149 L 1184.7897061325216 357.6414736069593 L 1183.4672025984385 357.2684890351652 L 1182.178039933611 356.7928918189475 L 1180.930166254558 356.21761417329645 L 1179.731275117471 355.5462028761966 L 1178.5887580848816 354.7827974015616 L 1177.5096591542217 353.93210439800055 L 1176.5006313292354 352.99936867076457 L 1175.5678956019995 351.99034084577823 L 1174.7172025984385 350.9112419151183 L 1173.9537971238035 349.7687248825291 L 1173.2823858267036 348.56983374544205 L 1172.7071081810525 347.32196006638907 L 1172.2315109648348 346.0327974015616 L 1171.8585263930406 344.71029386747836 L 1171.590454039585 343.36260313820407 L 1171.4289466596701 341.9980341752373 L 1171.375 340.625 L 1171.4289466596701 339.2519658247627 L 1171.590454039585 337.88739686179593 L 1171.8585263930406 336.53970613252164 L 1172.2315109648348 335.2172025984384 L 1172.7071081810525 333.92803993361093 L 1173.2823858267036 332.68016625455795 L 1173.9537971238035 331.4812751174709 L 1174.7172025984385 330.3387580848817 L 1175.5678956019995 329.25965915422177 L 1176.5006313292354 328.25063132923543 L 1177.5096591542217 327.31789560199945 L 1178.5887580848816 326.4672025984384 L 1179.731275117471 325.7037971238034 L 1180.930166254558 325.03238582670355 L 1182.178039933611 324.4571081810525 L 1183.4672025984385 323.9815109648348 L 1184.7897061325216 323.6085263930407 L 1186.137396861796 323.3404540395851 L 1187.5019658247627 323.17894665967026 L 1188.875 323.125 L 1190.2480341752373 323.17894665967026 L 1191.6126031382041 323.3404540395851 L 1192.9602938674784 323.6085263930407 L 1194.2827974015618 323.98151096483485 L 1195.5719600663892 324.4571081810525 L 1196.819833745442 325.0323858267036 L 1198.018724882529 325.70379712380344 L 1199.1612419151184 326.4672025984385 L 1200.2403408457783 327.31789560199957 L 1201.2493686707646 328.2506313292355 L 1202.1821043980005 329.2596591542219 L 1203.0327974015618 330.3387580848818 L 1203.7962028761967 331.48127511747106 L 1204.4676141732966 332.68016625455806 L 1205.0428918189475 333.9280399336111 L 1205.5184890351652 335.2172025984386 L 1205.8914736069594 336.5397061325218 L 1206.159545960415 337.88739686179616 L 1206.3210533403299 339.2519658247629 Z" fill-opacity="1" stroke-opacity="1" stroke-miterlimit="10" stroke-width="2"/><text fill="rgb(255,255,255)" stroke="none" font-family="times new roman" font-size="10px" font-style="normal" font-weight="normal" text-decoration="normal" x="1188.875" y="345.625" text-anchor="middle" dominant-baseline="text-after-edge" fill-opacity="1">*10.1</text><path fill="rgb(69,90,100)" stroke="rgb(76,175,80)" paint-order="fill stroke markers" d=" M 748.625 408.625 L 791.125 408.625 L 791.125 408.625 A 5 5 0 0 1 796.125 413.625 L 796.125 423.625 L 796.125 423.625 A 5 5 0 0 1 791.125 428.625 L 706.125 428.625 L 706.125 428.625 A 5 5 0 0 1 701.125 423.625 L 701.125 413.625 L 701.125 413.625 A 5 5 0 0 1 706.125 408.625 L 748.625 408.625 Z" fill-opacity="1" stroke-opacity="1" stroke-miterlimit="10" stroke-width="2"/><text fill="rgb(255,255,255)" stroke="none" font-family="times new roman" font-size="10px" font-style="normal" font-weight="normal" text-decoration="normal" x="748.625" y="423.625" text-anchor="middle" dominant-baseline="text-after-edge" fill-opacity="1">42132049dup</text><path fill="rgb(69,90,100)" stroke="rgb(244,67,54)" paint-order="fill stroke markers" d=" M 930.5625 418.625 L 930.5085533403297 419.9980341752373 L 930.3470459604149 421.36260313820407 L 930.0789736069594 422.71029386747836 L 929.7059890351652 424.0327974015616 L 929.2303918189475 425.32196006638907 L 928.6551141732964 426.56983374544205 L 927.9837028761966 427.7687248825291 L 927.2202974015615 428.9112419151183 L 926.3696043980005 429.99034084577823 L 925.4368686707646 430.99936867076457 L 924.4278408457782 431.93210439800055 L 923.3487419151182 432.7827974015616 L 922.2062248825291 433.5462028761966 L 921.0073337454421 434.21761417329645 L 919.7594600663891 434.7928918189475 L 918.4702974015615 435.2684890351652 L 917.1477938674783 435.6414736069593 L 915.800103138204 435.9095459604149 L 914.4355341752373 436.07105334032974 L 913.0625 436.125 L 911.6894658247627 436.07105334032974 L 910.324896861796 435.9095459604149 L 908.9772061325217 435.6414736069593 L 907.6547025984385 435.2684890351652 L 906.3655399336109 434.7928918189475 L 905.1176662545579 434.21761417329645 L 903.9187751174709 433.5462028761966 L 902.7762580848818 432.7827974015616 L 901.6971591542218 431.93210439800055 L 900.6881313292354 430.99936867076457 L 899.7553956019995 429.99034084577823 L 898.9047025984385 428.9112419151183 L 898.1412971238034 427.7687248825291 L 897.4698858267036 426.56983374544205 L 896.8946081810525 425.32196006638907 L 896.4190109648348 424.0327974015616 L 896.0460263930406 422.71029386747836 L 895.7779540395851 421.36260313820407 L 895.6164466596703 419.9980341752373 L 895.5625 418.625 L 895.6164466596703 417.2519658247627 L 895.7779540395851 415.88739686179593 L 896.0460263930406 414.53970613252164 L 896.4190109648348 413.2172025984384 L 896.8946081810525 411.92803993361093 L 897.4698858267036 410.68016625455795 L 898.1412971238034 409.4812751174709 L 898.9047025984385 408.3387580848817 L 899.7553956019995 407.25965915422177 L 900.6881313292354 406.25063132923543 L 901.6971591542218 405.31789560199945 L 902.7762580848818 404.4672025984384 L 903.9187751174709 403.7037971238034 L 905.1176662545579 403.03238582670355 L 906.365539933611 402.4571081810525 L 907.6547025984385 401.9815109648348 L 908.9772061325217 401.6085263930407 L 910.324896861796 401.3404540395851 L 911.6894658247628 401.17894665967026 L 913.0625000000001 401.125 L 914.4355341752373 401.17894665967026 L 915.8001031382041 401.3404540395851 L 917.1477938674784 401.6085263930407 L 918.4702974015617 401.98151096483485 L 919.7594600663891 402.4571081810525 L 921.0073337454421 403.0323858267036 L 922.2062248825292 403.70379712380344 L 923.3487419151184 404.4672025984385 L 924.4278408457783 405.31789560199957 L 925.4368686707646 406.2506313292355 L 926.3696043980007 407.2596591542219 L 927.2202974015617 408.3387580848818 L 927.9837028761967 409.48127511747106 L 928.6551141732965 410.68016625455806 L 929.2303918189476 411.9280399336111 L 929.7059890351652 413.2172025984386 L 930.0789736069594 414.5397061325218 L 930.3470459604149 415.88739686179616 L 930.5085533403297 417.2519658247629 Z" fill-opacity="1" stroke-opacity="1" stroke-miterlimit="10" stroke-width="2"/><text fill="rgb(255,255,255)" stroke="none" font-family="times new roman" font-size="10px" font-style="normal" font-weight="normal" text-decoration="normal" x="913.0625" y="423.625" text-anchor="middle" dominant-baseline="text-after-edge" fill-opacity="1">*4.9</text><path fill="rgb(69,90,100)" stroke="rgb(76,175,80)" paint-order="fill stroke markers" d=" M 482.3125 330.625 L 482.3125 350.625 L 577.3125 350.625 L 577.3125 330.625 Z" fill-opacity="1" stroke-opacity="1" stroke-miterlimit="10" stroke-width="2"/><text fill="rgb(255,255,255)" stroke="none" font-family="times new roman" font-size="10px" font-style="normal" font-weight="normal" text-decoration="normal" x="529.8125" y="345.625" text-anchor="middle" dominant-baseline="text-after-edge" fill-opacity="1">42127407T&gt;G</text><path fill="rgb(69,90,100)" stroke="rgb(76,175,80)" paint-order="fill stroke markers" d=" M 1139.25 114.125 L 1139.1960533403299 115.49803417523728 L 1139.034545960415 116.86260313820404 L 1138.7664736069594 118.21029386747834 L 1138.3934890351652 119.53279740156158 L 1137.9178918189475 120.82196006638907 L 1137.3426141732964 122.06983374544207 L 1136.6712028761965 123.2687248825291 L 1135.9077974015615 124.41124191511828 L 1135.0571043980005 125.4903408457782 L 1134.1243686707646 126.49936867076458 L 1133.1153408457783 127.43210439800055 L 1132.0362419151184 128.2827974015616 L 1130.893724882529 129.04620287619662 L 1129.694833745442 129.71761417329643 L 1128.446960066389 130.2928918189475 L 1127.1577974015615 130.76848903516517 L 1125.8352938674784 131.14147360695935 L 1124.4876031382041 131.4095459604149 L 1123.1230341752373 131.57105334032974 L 1121.75 131.625 L 1120.3769658247627 131.57105334032974 L 1119.0123968617959 131.4095459604149 L 1117.6647061325216 131.14147360695935 L 1116.3422025984385 130.7684890351652 L 1115.053039933611 130.2928918189475 L 1113.805166254558 129.71761417329643 L 1112.606275117471 129.04620287619662 L 1111.4637580848816 128.2827974015616 L 1110.3846591542217 127.43210439800055 L 1109.3756313292354 126.49936867076458 L 1108.4428956019995 125.49034084577822 L 1107.5922025984385 124.41124191511828 L 1106.8287971238035 123.26872488252911 L 1106.1573858267036 122.06983374544207 L 1105.5821081810525 120.82196006638907 L 1105.1065109648348 119.53279740156158 L 1104.7335263930406 118.21029386747834 L 1104.465454039585 116.86260313820404 L 1104.3039466596701 115.4980341752373 L 1104.25 114.125 L 1104.3039466596701 112.75196582476272 L 1104.465454039585 111.38739686179596 L 1104.7335263930406 110.03970613252166 L 1105.1065109648348 108.71720259843842 L 1105.5821081810525 107.42803993361093 L 1106.1573858267036 106.18016625455793 L 1106.8287971238035 104.9812751174709 L 1107.5922025984385 103.83875808488172 L 1108.4428956019995 102.7596591542218 L 1109.3756313292354 101.75063132923542 L 1110.3846591542217 100.81789560199947 L 1111.4637580848816 99.96720259843842 L 1112.606275117471 99.20379712380338 L 1113.805166254558 98.53238582670356 L 1115.053039933611 97.95710818105248 L 1116.3422025984385 97.4815109648348 L 1117.6647061325216 97.10852639304065 L 1119.012396861796 96.84045403958508 L 1120.3769658247627 96.67894665967026 L 1121.75 96.625 L 1123.1230341752373 96.67894665967026 L 1124.4876031382041 96.8404540395851 L 1125.8352938674784 97.10852639304068 L 1127.1577974015618 97.48151096483484 L 1128.4469600663892 97.95710818105252 L 1129.694833745442 98.5323858267036 L 1130.893724882529 99.20379712380344 L 1132.0362419151184 99.96720259843849 L 1133.1153408457783 100.81789560199954 L 1134.1243686707646 101.75063132923552 L 1135.0571043980005 102.7596591542219 L 1135.9077974015618 103.83875808488185 L 1136.6712028761967 104.98127511747103 L 1137.3426141732966 106.18016625455807 L 1137.9178918189475 107.42803993361109 L 1138.3934890351652 108.71720259843859 L 1138.7664736069594 110.03970613252184 L 1139.034545960415 111.38739686179616 L 1139.1960533403299 112.75196582476292 Z" fill-opacity="1" stroke-opacity="1" stroke-miterlimit="10" stroke-width="2"/><text fill="rgb(255,255,255)" stroke="none" font-family="times new roman" font-size="10px" font-style="normal" font-weight="normal" text-decoration="normal" x="1121.75" y="119.125" text-anchor="middle" dominant-baseline="text-after-edge" fill-opacity="1">*39.2</text><path fill="rgb(69,90,100)" stroke="rgb(244,67,54)" paint-order="fill stroke markers" d=" M 976.625 340.625 L 976.5556400089954 342.3903296538765 L 976.3479876633907 344.1447754634052 L 976.0033232089477 345.87752068675786 L 975.5237716166409 347.5778823734363 L 974.912289481504 349.23537722821453 L 974.1726467942383 350.8397862441398 L 973.3094036979671 352.3812177061088 L 972.3278823734363 353.85016817658067 L 971.2341342260007 355.23758108742913 L 970.0349025766973 356.53490257669733 L 968.7375810874291 357.7341342260007 L 967.3501681765806 358.8278823734363 L 965.8812177061088 359.80940369796707 L 964.3397862441398 360.6726467942383 L 962.7353772282145 361.41228948150393 L 961.0778823734363 362.02377161664094 L 959.3775206867579 362.50332320894773 L 957.6447754634052 362.8479876633906 L 955.8903296538765 363.0556400089954 L 954.125 363.125 L 952.3596703461235 363.0556400089954 L 950.6052245365948 362.8479876633906 L 948.8724793132421 362.50332320894773 L 947.1721176265637 362.02377161664094 L 945.5146227717855 361.41228948150393 L 943.9102137558602 360.6726467942383 L 942.3687822938912 359.80940369796707 L 940.8998318234194 358.8278823734363 L 939.5124189125709 357.7341342260007 L 938.2150974233027 356.53490257669733 L 937.0158657739993 355.23758108742913 L 935.9221176265637 353.85016817658067 L 934.9405963020329 352.3812177061088 L 934.0773532057617 350.8397862441398 L 933.337710518496 349.23537722821453 L 932.7262283833591 347.5778823734363 L 932.2466767910523 345.87752068675786 L 931.9020123366095 344.1447754634052 L 931.6943599910046 342.3903296538765 L 931.625 340.625 L 931.6943599910046 338.8596703461235 L 931.9020123366093 337.1052245365948 L 932.2466767910523 335.37247931324214 L 932.7262283833591 333.6721176265637 L 933.337710518496 332.01462277178547 L 934.0773532057617 330.4102137558602 L 934.9405963020329 328.8687822938912 L 935.9221176265637 327.39983182341933 L 937.0158657739993 326.01241891257087 L 938.2150974233027 324.71509742330267 L 939.5124189125709 323.51586577399934 L 940.8998318234194 322.4221176265637 L 942.3687822938912 321.44059630203293 L 943.9102137558602 320.5773532057617 L 945.5146227717855 319.837710518496 L 947.1721176265637 319.22622838335906 L 948.8724793132421 318.74667679105227 L 950.6052245365948 318.4020123366094 L 952.3596703461236 318.1943599910046 L 954.1250000000001 318.125 L 955.8903296538766 318.1943599910046 L 957.6447754634053 318.4020123366094 L 959.377520686758 318.7466767910523 L 961.0778823734364 319.22622838335906 L 962.7353772282146 319.8377105184961 L 964.3397862441399 320.57735320576177 L 965.8812177061089 321.440596302033 L 967.3501681765807 322.42211762656376 L 968.7375810874292 323.5158657739994 L 970.0349025766974 324.7150974233028 L 971.2341342260008 326.012418912571 L 972.3278823734364 327.3998318234195 L 973.3094036979671 328.86878229389134 L 974.1726467942384 330.4102137558604 L 974.912289481504 332.0146227717857 L 975.523771616641 333.67211762656393 L 976.0033232089478 335.37247931324237 L 976.3479876633907 337.1052245365951 L 976.5556400089954 338.8596703461238 Z" fill-opacity="1" stroke-opacity="1" stroke-miterlimit="10" stroke-width="2"/><text fill="rgb(255,255,255)" stroke="none" font-family="times new roman" font-size="15px" font-style="normal" font-weight="normal" text-decoration="normal" x="954.125" y="348.125" text-anchor="middle" dominant-baseline="text-after-edge" fill-opacity="1">*4</text><path fill="rgb(3,169,244)" stroke="none" paint-order="stroke fill markers" d=" M 954.125 308.125 L 978.625 308.125 L 978.625 308.125 A 8 8 0 0 1 986.625 316.125 L 986.625 365.125 L 986.625 365.125 A 8 8 0 0 1 978.625 373.125 L 929.625 373.125 L 929.625 373.125 A 8 8 0 0 1 921.625 365.125 L 921.625 316.125 L 921.625 316.125 A 8 8 0 0 1 929.625 308.125 L 954.125 308.125 Z" fill-opacity="0.15"/><path fill="rgb(69,90,100)" stroke="rgb(76,175,80)" paint-order="fill stroke markers" d=" M 281.3125 408.625 L 281.3125 428.625 L 376.3125 428.625 L 376.3125 408.625 Z" fill-opacity="1" stroke-opacity="1" stroke-miterlimit="10" stroke-width="2"/><text fill="rgb(255,255,255)" stroke="none" font-family="times new roman" font-size="10px" font-style="normal" font-weight="normal" text-decoration="normal" x="328.8125" y="423.625" text-anchor="middle" dominant-baseline="text-after-edge" fill-opacity="1">42130482C&gt;A</text><path fill="rgb(69,90,100)" stroke="rgb(76,175,80)" paint-order="fill stroke markers" d=" M 1174.9375 248.875 L 1174.9375 268.875 L 1269.9375 268.875 L 1269.9375 248.875 Z" fill-opacity="1" stroke-opacity="1" stroke-miterlimit="10" stroke-width="2"/><text fill="rgb(255,255,255)" stroke="none" font-family="times new roman" font-size="10px" font-style="normal" font-weight="normal" text-decoration="normal" x="1222.4375" y="263.875" text-anchor="middle" dominant-baseline="text-after-edge" fill-opacity="1">42129130C&gt;G</text><path fill="rgb(69,90,100)" stroke="rgb(158,158,158)" paint-order="fill stroke markers" d=" M 703.75 248.875 L 703.75 268.875 L 798.75 268.875 L 798.75 248.875 Z" fill-opacity="1" stroke-opacity="1" stroke-miterlimit="10" stroke-width="2"/><text fill="rgb(255,255,255)" stroke="none" font-family="times new roman" font-size="10px" font-style="normal" font-weight="normal" text-decoration="normal" x="751.25" y="263.875" text-anchor="middle" dominant-baseline="text-after-edge" fill-opacity="1">42129819G&gt;T</text><path fill="rgb(69,90,100)" stroke="rgb(76,175,80)" paint-order="fill stroke markers" d=" M 547.3125 418.625 L 547.2585533403297 419.9980341752373 L 547.0970459604149 421.36260313820407 L 546.8289736069594 422.71029386747836 L 546.4559890351652 424.0327974015616 L 545.9803918189475 425.32196006638907 L 545.4051141732964 426.56983374544205 L 544.7337028761966 427.7687248825291 L 543.9702974015615 428.9112419151183 L 543.1196043980005 429.99034084577823 L 542.1868686707646 430.99936867076457 L 541.1778408457782 431.93210439800055 L 540.0987419151182 432.7827974015616 L 538.9562248825291 433.5462028761966 L 537.7573337454421 434.21761417329645 L 536.5094600663891 434.7928918189475 L 535.2202974015615 435.2684890351652 L 533.8977938674783 435.6414736069593 L 532.550103138204 435.9095459604149 L 531.1855341752373 436.07105334032974 L 529.8125 436.125 L 528.4394658247627 436.07105334032974 L 527.074896861796 435.9095459604149 L 525.7272061325217 435.6414736069593 L 524.4047025984385 435.2684890351652 L 523.1155399336109 434.7928918189475 L 521.8676662545579 434.21761417329645 L 520.6687751174709 433.5462028761966 L 519.5262580848818 432.7827974015616 L 518.4471591542218 431.93210439800055 L 517.4381313292354 430.99936867076457 L 516.5053956019995 429.99034084577823 L 515.6547025984385 428.9112419151183 L 514.8912971238034 427.7687248825291 L 514.2198858267036 426.56983374544205 L 513.6446081810525 425.32196006638907 L 513.1690109648348 424.0327974015616 L 512.7960263930406 422.71029386747836 L 512.5279540395851 421.36260313820407 L 512.3664466596703 419.9980341752373 L 512.3125 418.625 L 512.3664466596703 417.2519658247627 L 512.5279540395851 415.88739686179593 L 512.7960263930406 414.53970613252164 L 513.1690109648348 413.2172025984384 L 513.6446081810525 411.92803993361093 L 514.2198858267036 410.68016625455795 L 514.8912971238034 409.4812751174709 L 515.6547025984385 408.3387580848817 L 516.5053956019995 407.25965915422177 L 517.4381313292354 406.25063132923543 L 518.4471591542218 405.31789560199945 L 519.5262580848818 404.4672025984384 L 520.6687751174709 403.7037971238034 L 521.8676662545579 403.03238582670355 L 523.115539933611 402.4571081810525 L 524.4047025984385 401.9815109648348 L 525.7272061325217 401.6085263930407 L 527.074896861796 401.3404540395851 L 528.4394658247628 401.17894665967026 L 529.8125000000001 401.125 L 531.1855341752373 401.17894665967026 L 532.5501031382041 401.3404540395851 L 533.8977938674784 401.6085263930407 L 535.2202974015617 401.98151096483485 L 536.5094600663891 402.4571081810525 L 537.7573337454421 403.0323858267036 L 538.9562248825292 403.70379712380344 L 540.0987419151184 404.4672025984385 L 541.1778408457783 405.31789560199957 L 542.1868686707646 406.2506313292355 L 543.1196043980007 407.2596591542219 L 543.9702974015617 408.3387580848818 L 544.7337028761967 409.48127511747106 L 545.4051141732965 410.68016625455806 L 545.9803918189476 411.9280399336111 L 546.4559890351652 413.2172025984386 L 546.8289736069594 414.5397061325218 L 547.0970459604149 415.88739686179616 L 547.2585533403297 417.2519658247629 Z" fill-opacity="1" stroke-opacity="1" stroke-miterlimit="10" stroke-width="2"/><text fill="rgb(255,255,255)" stroke="none" font-family="times new roman" font-size="10px" font-style="normal" font-weight="normal" text-decoration="normal" x="529.8125" y="423.625" text-anchor="middle" dominant-baseline="text-after-edge" fill-opacity="1">*1.41</text><path fill="rgb(69,90,100)" stroke="rgb(158,158,158)" paint-order="fill stroke markers" d=" M 985 104.125 L 985 124.125 L 1080 124.125 L 1080 104.125 Z" fill-opacity="1" stroke-opacity="1" stroke-miterlimit="10" stroke-width="2"/><text fill="rgb(255,255,255)" stroke="none" font-family="times new roman" font-size="10px" font-style="normal" font-weight="normal" text-decoration="normal" x="1032.5" y="119.125" text-anchor="middle" dominant-baseline="text-after-edge" fill-opacity="1">42126611C&gt;G</text><path fill="rgb(69,90,100)" stroke="rgb(244,67,54)" paint-order="fill stroke markers" d=" M 1150.5 550.25 L 1150.4460533403299 551.6230341752373 L 1150.284545960415 552.987603138204 L 1150.0164736069594 554.3352938674783 L 1149.6434890351652 555.6577974015615 L 1149.1678918189475 556.9469600663891 L 1148.5926141732964 558.1948337454421 L 1147.9212028761965 559.3937248825291 L 1147.1577974015615 560.5362419151182 L 1146.3071043980005 561.6153408457782 L 1145.3743686707646 562.6243686707646 L 1144.3653408457783 563.5571043980005 L 1143.2862419151184 564.4077974015615 L 1142.143724882529 565.1712028761966 L 1140.944833745442 565.8426141732964 L 1139.696960066389 566.4178918189475 L 1138.4077974015615 566.8934890351652 L 1137.0852938674784 567.2664736069594 L 1135.7376031382041 567.5345459604149 L 1134.3730341752373 567.6960533403297 L 1133 567.75 L 1131.6269658247627 567.6960533403297 L 1130.2623968617959 567.5345459604149 L 1128.9147061325216 567.2664736069594 L 1127.5922025984385 566.8934890351652 L 1126.303039933611 566.4178918189475 L 1125.055166254558 565.8426141732964 L 1123.856275117471 565.1712028761966 L 1122.7137580848816 564.4077974015615 L 1121.6346591542217 563.5571043980005 L 1120.6256313292354 562.6243686707646 L 1119.6928956019995 561.6153408457782 L 1118.8422025984385 560.5362419151182 L 1118.0787971238035 559.3937248825291 L 1117.4073858267036 558.1948337454421 L 1116.8321081810525 556.9469600663891 L 1116.3565109648348 555.6577974015615 L 1115.9835263930406 554.3352938674783 L 1115.715454039585 552.987603138204 L 1115.5539466596701 551.6230341752373 L 1115.5 550.25 L 1115.5539466596701 548.8769658247627 L 1115.715454039585 547.512396861796 L 1115.9835263930406 546.1647061325217 L 1116.3565109648348 544.8422025984385 L 1116.8321081810525 543.5530399336109 L 1117.4073858267036 542.3051662545579 L 1118.0787971238035 541.1062751174709 L 1118.8422025984385 539.9637580848818 L 1119.6928956019995 538.8846591542218 L 1120.6256313292354 537.8756313292354 L 1121.6346591542217 536.9428956019995 L 1122.7137580848816 536.0922025984385 L 1123.856275117471 535.3287971238034 L 1125.055166254558 534.6573858267036 L 1126.303039933611 534.0821081810525 L 1127.5922025984385 533.6065109648348 L 1128.9147061325216 533.2335263930406 L 1130.262396861796 532.9654540395851 L 1131.6269658247627 532.8039466596703 L 1133 532.75 L 1134.3730341752373 532.8039466596703 L 1135.7376031382041 532.9654540395851 L 1137.0852938674784 533.2335263930406 L 1138.4077974015618 533.6065109648348 L 1139.6969600663892 534.0821081810525 L 1140.944833745442 534.6573858267036 L 1142.143724882529 535.3287971238035 L 1143.2862419151184 536.0922025984385 L 1144.3653408457783 536.9428956019996 L 1145.3743686707646 537.8756313292355 L 1146.3071043980005 538.8846591542219 L 1147.1577974015618 539.9637580848819 L 1147.9212028761967 541.106275117471 L 1148.5926141732966 542.3051662545581 L 1149.1678918189475 543.5530399336111 L 1149.6434890351652 544.8422025984386 L 1150.0164736069594 546.1647061325218 L 1150.284545960415 547.5123968617961 L 1150.4460533403299 548.8769658247629 Z" fill-opacity="1" stroke-opacity="1" stroke-miterlimit="10" stroke-width="2"/><text fill="rgb(255,255,255)" stroke="none" font-family="times new roman" font-size="10px" font-style="normal" font-weight="normal" text-decoration="normal" x="1133" y="555.25" text-anchor="middle" dominant-baseline="text-after-edge" fill-opacity="1">*4.11</text><path fill="rgb(69,90,100)" stroke="rgb(255,193,7)" paint-order="fill stroke markers" d=" M 1006.625 258.875 L 1006.5556400089954 260.6403296538765 L 1006.3479876633907 262.3947754634052 L 1006.0033232089477 264.12752068675786 L 1005.5237716166409 265.8278823734363 L 1004.912289481504 267.48537722821453 L 1004.1726467942383 269.0897862441398 L 1003.3094036979671 270.6312177061088 L 1002.3278823734363 272.10016817658067 L 1001.2341342260007 273.48758108742913 L 1000.0349025766973 274.78490257669733 L 998.7375810874291 275.9841342260007 L 997.3501681765806 277.0778823734363 L 995.8812177061088 278.05940369796707 L 994.3397862441398 278.9226467942383 L 992.7353772282145 279.66228948150393 L 991.0778823734363 280.27377161664094 L 989.3775206867579 280.75332320894773 L 987.6447754634052 281.0979876633906 L 985.8903296538765 281.3056400089954 L 984.125 281.375 L 982.3596703461235 281.3056400089954 L 980.6052245365948 281.0979876633906 L 978.8724793132421 280.75332320894773 L 977.1721176265637 280.27377161664094 L 975.5146227717855 279.66228948150393 L 973.9102137558602 278.9226467942383 L 972.3687822938912 278.05940369796707 L 970.8998318234194 277.0778823734363 L 969.5124189125709 275.9841342260007 L 968.2150974233027 274.78490257669733 L 967.0158657739993 273.48758108742913 L 965.9221176265637 272.10016817658067 L 964.9405963020329 270.6312177061088 L 964.0773532057617 269.0897862441398 L 963.337710518496 267.48537722821453 L 962.7262283833591 265.8278823734363 L 962.2466767910523 264.12752068675786 L 961.9020123366095 262.3947754634052 L 961.6943599910046 260.6403296538765 L 961.625 258.875 L 961.6943599910046 257.1096703461235 L 961.9020123366093 255.35522453659482 L 962.2466767910523 253.62247931324214 L 962.7262283833591 251.92211762656368 L 963.337710518496 250.26462277178547 L 964.0773532057617 248.6602137558602 L 964.9405963020329 247.11878229389114 L 965.9221176265637 245.64983182341936 L 967.0158657739993 244.26241891257087 L 968.2150974233027 242.9650974233027 L 969.5124189125709 241.7658657739993 L 970.8998318234194 240.67211762656368 L 972.3687822938912 239.69059630203293 L 973.9102137558602 238.8273532057617 L 975.5146227717855 238.08771051849604 L 977.1721176265637 237.47622838335903 L 978.8724793132421 236.99667679105227 L 980.6052245365948 236.6520123366094 L 982.3596703461236 236.4443599910046 L 984.1250000000001 236.375 L 985.8903296538766 236.44435999100463 L 987.6447754634053 236.6520123366094 L 989.377520686758 236.9966767910523 L 991.0778823734364 237.47622838335909 L 992.7353772282146 238.0877105184961 L 994.3397862441399 238.8273532057618 L 995.8812177061089 239.690596302033 L 997.3501681765807 240.67211762656376 L 998.7375810874292 241.76586577399942 L 1000.0349025766974 242.9650974233028 L 1001.2341342260008 244.262418912571 L 1002.3278823734364 245.6498318234195 L 1003.3094036979671 247.11878229389131 L 1004.1726467942384 248.66021375586038 L 1004.912289481504 250.2646227717857 L 1005.523771616641 251.9221176265639 L 1006.0033232089478 253.62247931324237 L 1006.3479876633907 255.35522453659505 L 1006.5556400089954 257.1096703461238 Z" fill-opacity="1" stroke-opacity="1" stroke-miterlimit="10" stroke-width="2"/><text fill="rgb(255,255,255)" stroke="none" font-family="times new roman" font-size="15px" font-style="normal" font-weight="normal" text-decoration="normal" x="984.125" y="266.375" text-anchor="middle" dominant-baseline="text-after-edge" fill-opacity="1">*10</text><path fill="rgb(69,90,100)" stroke="rgb(76,175,80)" paint-order="fill stroke markers" d=" M 169.5625 408.625 L 169.5625 428.625 L 264.5625 428.625 L 264.5625 408.625 Z" fill-opacity="1" stroke-opacity="1" stroke-miterlimit="10" stroke-width="2"/><text fill="rgb(255,255,255)" stroke="none" font-family="times new roman" font-size="10px" font-style="normal" font-weight="normal" text-decoration="normal" x="217.0625" y="423.625" text-anchor="middle" dominant-baseline="text-after-edge" fill-opacity="1">42129950A&gt;C</text><path fill="rgb(69,90,100)" stroke="rgb(158,158,158)" paint-order="fill stroke markers" d=" M 773.75 340.625 L 773.6806400089954 342.3903296538765 L 773.4729876633907 344.1447754634052 L 773.1283232089477 345.87752068675786 L 772.6487716166409 347.5778823734363 L 772.037289481504 349.23537722821453 L 771.2976467942383 350.8397862441398 L 770.4344036979671 352.3812177061088 L 769.4528823734363 353.85016817658067 L 768.3591342260007 355.23758108742913 L 767.1599025766973 356.53490257669733 L 765.8625810874291 357.7341342260007 L 764.4751681765806 358.8278823734363 L 763.0062177061088 359.80940369796707 L 761.4647862441398 360.6726467942383 L 759.8603772282145 361.41228948150393 L 758.2028823734363 362.02377161664094 L 756.5025206867579 362.50332320894773 L 754.7697754634052 362.8479876633906 L 753.0153296538765 363.0556400089954 L 751.25 363.125 L 749.4846703461235 363.0556400089954 L 747.7302245365948 362.8479876633906 L 745.9974793132421 362.50332320894773 L 744.2971176265637 362.02377161664094 L 742.6396227717855 361.41228948150393 L 741.0352137558602 360.6726467942383 L 739.4937822938912 359.80940369796707 L 738.0248318234194 358.8278823734363 L 736.6374189125709 357.7341342260007 L 735.3400974233027 356.53490257669733 L 734.1408657739993 355.23758108742913 L 733.0471176265637 353.85016817658067 L 732.0655963020329 352.3812177061088 L 731.2023532057617 350.8397862441398 L 730.462710518496 349.23537722821453 L 729.8512283833591 347.5778823734363 L 729.3716767910523 345.87752068675786 L 729.0270123366095 344.1447754634052 L 728.8193599910046 342.3903296538765 L 728.75 340.625 L 728.8193599910046 338.8596703461235 L 729.0270123366093 337.1052245365948 L 729.3716767910523 335.37247931324214 L 729.8512283833591 333.6721176265637 L 730.462710518496 332.01462277178547 L 731.2023532057617 330.4102137558602 L 732.0655963020329 328.8687822938912 L 733.0471176265637 327.39983182341933 L 734.1408657739993 326.01241891257087 L 735.3400974233027 324.71509742330267 L 736.6374189125709 323.51586577399934 L 738.0248318234194 322.4221176265637 L 739.4937822938912 321.44059630203293 L 741.0352137558602 320.5773532057617 L 742.6396227717855 319.837710518496 L 744.2971176265637 319.22622838335906 L 745.9974793132421 318.74667679105227 L 747.7302245365948 318.4020123366094 L 749.4846703461236 318.1943599910046 L 751.2500000000001 318.125 L 753.0153296538766 318.1943599910046 L 754.7697754634053 318.4020123366094 L 756.502520686758 318.7466767910523 L 758.2028823734364 319.22622838335906 L 759.8603772282146 319.8377105184961 L 761.4647862441399 320.57735320576177 L 763.0062177061089 321.440596302033 L 764.4751681765807 322.42211762656376 L 765.8625810874292 323.5158657739994 L 767.1599025766974 324.7150974233028 L 768.3591342260008 326.012418912571 L 769.4528823734364 327.3998318234195 L 770.4344036979671 328.86878229389134 L 771.2976467942384 330.4102137558604 L 772.037289481504 332.0146227717857 L 772.648771616641 333.67211762656393 L 773.1283232089478 335.37247931324237 L 773.4729876633907 337.1052245365951 L 773.6806400089954 338.8596703461238 Z" fill-opacity="1" stroke-opacity="1" stroke-miterlimit="10" stroke-width="2"/><text fill="rgb(255,255,255)" stroke="none" font-family="times new roman" font-size="15px" font-style="normal" font-weight="normal" text-decoration="normal" x="751.25" y="348.125" text-anchor="middle" dominant-baseline="text-after-edge" fill-opacity="1">*74</text><path fill="rgb(69,90,100)" stroke="rgb(244,67,54)" paint-order="fill stroke markers" d=" M 617.8125 418.625 L 617.7585533403297 419.9980341752373 L 617.5970459604149 421.36260313820407 L 617.3289736069594 422.71029386747836 L 616.9559890351652 424.0327974015616 L 616.4803918189475 425.32196006638907 L 615.9051141732964 426.56983374544205 L 615.2337028761966 427.7687248825291 L 614.4702974015615 428.9112419151183 L 613.6196043980005 429.99034084577823 L 612.6868686707646 430.99936867076457 L 611.6778408457782 431.93210439800055 L 610.5987419151182 432.7827974015616 L 609.4562248825291 433.5462028761966 L 608.2573337454421 434.21761417329645 L 607.0094600663891 434.7928918189475 L 605.7202974015615 435.2684890351652 L 604.3977938674783 435.6414736069593 L 603.050103138204 435.9095459604149 L 601.6855341752373 436.07105334032974 L 600.3125 436.125 L 598.9394658247627 436.07105334032974 L 597.574896861796 435.9095459604149 L 596.2272061325217 435.6414736069593 L 594.9047025984385 435.2684890351652 L 593.6155399336109 434.7928918189475 L 592.3676662545579 434.21761417329645 L 591.1687751174709 433.5462028761966 L 590.0262580848818 432.7827974015616 L 588.9471591542218 431.93210439800055 L 587.9381313292354 430.99936867076457 L 587.0053956019995 429.99034084577823 L 586.1547025984385 428.9112419151183 L 585.3912971238034 427.7687248825291 L 584.7198858267036 426.56983374544205 L 584.1446081810525 425.32196006638907 L 583.6690109648348 424.0327974015616 L 583.2960263930406 422.71029386747836 L 583.0279540395851 421.36260313820407 L 582.8664466596703 419.9980341752373 L 582.8125 418.625 L 582.8664466596703 417.2519658247627 L 583.0279540395851 415.88739686179593 L 583.2960263930406 414.53970613252164 L 583.6690109648348 413.2172025984384 L 584.1446081810525 411.92803993361093 L 584.7198858267036 410.68016625455795 L 585.3912971238034 409.4812751174709 L 586.1547025984385 408.3387580848817 L 587.0053956019995 407.25965915422177 L 587.9381313292354 406.25063132923543 L 588.9471591542218 405.31789560199945 L 590.0262580848818 404.4672025984384 L 591.1687751174709 403.7037971238034 L 592.3676662545579 403.03238582670355 L 593.615539933611 402.4571081810525 L 594.9047025984385 401.9815109648348 L 596.2272061325217 401.6085263930407 L 597.574896861796 401.3404540395851 L 598.9394658247628 401.17894665967026 L 600.3125000000001 401.125 L 601.6855341752373 401.17894665967026 L 603.0501031382041 401.3404540395851 L 604.3977938674784 401.6085263930407 L 605.7202974015617 401.98151096483485 L 607.0094600663891 402.4571081810525 L 608.2573337454421 403.0323858267036 L 609.4562248825292 403.70379712380344 L 610.5987419151184 404.4672025984385 L 611.6778408457783 405.31789560199957 L 612.6868686707646 406.2506313292355 L 613.6196043980007 407.2596591542219 L 614.4702974015617 408.3387580848818 L 615.2337028761967 409.48127511747106 L 615.9051141732965 410.68016625455806 L 616.4803918189476 411.9280399336111 L 616.9559890351652 413.2172025984386 L 617.3289736069594 414.5397061325218 L 617.5970459604149 415.88739686179616 L 617.7585533403297 417.2519658247629 Z" fill-opacity="1" stroke-opacity="1" stroke-miterlimit="10" stroke-width="2"/><text fill="rgb(255,255,255)" stroke="none" font-family="times new roman" font-size="10px" font-style="normal" font-weight="normal" text-decoration="normal" x="600.3125" y="423.625" text-anchor="middle" dominant-baseline="text-after-edge" fill-opacity="1">*4.2</text><path fill="rgb(69,90,100)" stroke="rgb(76,175,80)" paint-order="fill stroke markers" d=" M 393.0625 408.625 L 393.0625 428.625 L 488.0625 428.625 L 488.0625 408.625 Z" fill-opacity="1" stroke-opacity="1" stroke-miterlimit="10" stroke-width="2"/><text fill="rgb(255,255,255)" stroke="none" font-family="times new roman" font-size="10px" font-style="normal" font-weight="normal" text-decoration="normal" x="440.5625" y="423.625" text-anchor="middle" dominant-baseline="text-after-edge" fill-opacity="1">42130047G&gt;C</text><path fill="rgb(69,90,100)" stroke="rgb(244,67,54)" paint-order="fill stroke markers" d=" M 1029.625 248.875 L 1029.625 268.875 L 1124.625 268.875 L 1124.625 248.875 Z" fill-opacity="1" stroke-opacity="1" stroke-miterlimit="10" stroke-width="2"/><text fill="rgb(255,255,255)" stroke="none" font-family="times new roman" font-size="10px" font-style="normal" font-weight="normal" text-decoration="normal" x="1077.125" y="263.875" text-anchor="middle" dominant-baseline="text-after-edge" fill-opacity="1">42128945C&gt;T</text><path fill="rgb(176,190,197)" stroke="none" paint-order="stroke fill markers" d=" M 507.6875 445.25 L 507.6875 655.25 L 582.6875 655.25 L 582.6875 445.25000000000006 Z" fill-opacity="0.8"/><text fill="rgb(0,0,0)" stroke="none" font-family="times new roman" font-size="10px" font-style="normal" font-weight="normal" text-decoration="normal" x="512.6875" y="460.25" text-anchor="start" dominant-baseline="text-after-edge" fill-opacity="0.8">42126390G&gt;A </text><text fill="rgb(0,0,0)" stroke="none" font-family="times new roman" font-size="10px" font-style="normal" font-weight="normal" text-decoration="normal" x="512.6875" y="470.25" text-anchor="start" dominant-baseline="text-after-edge" fill-opacity="0.8">42126548G&gt;A </text><text fill="rgb(0,0,0)" stroke="none" font-family="times new roman" font-size="10px" font-style="normal" font-weight="normal" text-decoration="normal" x="512.6875" y="480.25" text-anchor="start" dominant-baseline="text-after-edge" fill-opacity="0.8">42127209T&gt;C </text><text fill="rgb(0,0,0)" stroke="none" font-family="times new roman" font-size="10px" font-style="normal" font-weight="normal" text-decoration="normal" x="512.6875" y="490.25" text-anchor="start" dominant-baseline="text-after-edge" fill-opacity="0.8">42128694T&gt;C </text><text fill="rgb(0,0,0)" stroke="none" font-family="times new roman" font-size="10px" font-style="normal" font-weight="normal" text-decoration="normal" x="512.6875" y="500.25" text-anchor="start" dominant-baseline="text-after-edge" fill-opacity="0.8">42131791C&gt;T </text><text fill="rgb(0,0,0)" stroke="none" font-family="times new roman" font-size="10px" font-style="normal" font-weight="normal" text-decoration="normal" x="512.6875" y="510.25" text-anchor="start" dominant-baseline="text-after-edge" fill-opacity="0.8">42132217G&gt;A </text><path fill="rgb(176,190,197)" stroke="none" paint-order="stroke fill markers" d=" M 748.625 445.25 L 815.625 445.25 L 815.625 445.25 A 8 8 0 0 1 823.625 453.25 L 823.625 647.25 L 823.625 647.25 A 8 8 0 0 1 815.625 655.25 L 681.625 655.25 L 681.625 655.25 A 8 8 0 0 1 673.625 647.25 L 673.625 453.25 L 673.625 453.25 A 8 8 0 0 1 681.625 445.25 L 748.625 445.25 Z" fill-opacity="0.8"/><text fill="rgb(0,0,0)" stroke="none" font-family="times new roman" font-size="10px" font-style="normal" font-weight="normal" text-decoration="normal" x="678.625" y="460.25" text-anchor="start" dominant-baseline="text-after-edge" fill-opacity="0.8">42125924A&gt;G </text><text fill="rgb(0,0,0)" stroke="none" font-family="times new roman" font-size="10px" font-style="normal" font-weight="normal" text-decoration="normal" x="678.625" y="470.25" text-anchor="start" dominant-baseline="text-after-edge" fill-opacity="0.8">42125980T&gt;C </text><text fill="rgb(0,0,0)" stroke="none" font-family="times new roman" font-size="10px" font-style="normal" font-weight="normal" text-decoration="normal" x="678.625" y="480.25" text-anchor="start" dominant-baseline="text-after-edge" fill-opacity="0.8">42126069A&gt;C </text><text fill="rgb(0,0,0)" stroke="none" font-family="times new roman" font-size="10px" font-style="normal" font-weight="normal" text-decoration="normal" x="678.625" y="490.25" text-anchor="start" dominant-baseline="text-after-edge" fill-opacity="0.8">42129037G&gt;A </text><text fill="rgb(0,0,0)" stroke="none" font-family="times new roman" font-size="10px" font-style="normal" font-weight="normal" text-decoration="normal" x="678.625" y="500.25" text-anchor="start" dominant-baseline="text-after-edge" fill-opacity="0.8">42132027C&gt;T </text><text fill="rgb(0,0,0)" stroke="none" font-family="times new roman" font-size="10px" font-style="normal" font-weight="normal" text-decoration="normal" x="678.625" y="510.25" text-anchor="start" dominant-baseline="text-after-edge" fill-opacity="0.8">42132844C&gt;A </text><text fill="rgb(0,0,0)" stroke="none" font-family="times new roman" font-size="10px" font-style="normal" font-weight="normal" text-decoration="normal" x="678.625" y="520.25" text-anchor="start" dominant-baseline="text-after-edge" fill-opacity="0.8">42132851T&gt;C </text><text fill="rgb(0,0,0)" stroke="none" font-family="times new roman" font-size="10px" font-style="normal" font-weight="normal" text-decoration="normal" x="678.625" y="530.25" text-anchor="start" dominant-baseline="text-after-edge" fill-opacity="0.8">42132969C&gt;T </text><text fill="rgb(0,0,0)" stroke="none" font-family="times new roman" font-size="10px" font-style="normal" font-weight="normal" text-decoration="normal" x="678.625" y="540.25" text-anchor="start" dominant-baseline="text-after-edge" fill-opacity="0.8">42133212A&gt;G </text><text fill="rgb(0,0,0)" stroke="none" font-family="times new roman" font-size="10px" font-style="normal" font-weight="normal" text-decoration="normal" x="678.625" y="550.25" text-anchor="start" dominant-baseline="text-after-edge" fill-opacity="0.8">42133314C&gt;T </text><text fill="rgb(0,0,0)" stroke="none" font-family="times new roman" font-size="10px" font-style="normal" font-weight="normal" text-decoration="normal" x="678.625" y="560.25" text-anchor="start" dominant-baseline="text-after-edge" fill-opacity="0.8">42133400T&gt;G </text><text fill="rgb(0,0,0)" stroke="none" font-family="times new roman" font-size="10px" font-style="normal" font-weight="normal" text-decoration="normal" x="678.625" y="570.25" text-anchor="start" dominant-baseline="text-after-edge" fill-opacity="0.8">42134096del </text><text fill="rgb(0,0,0)" stroke="none" font-family="times new roman" font-size="10px" font-style="normal" font-weight="normal" text-decoration="normal" x="678.625" y="580.25" text-anchor="start" dominant-baseline="text-after-edge" fill-opacity="0.8">42134820T&gt;G </text><text fill="rgb(0,0,0)" stroke="none" font-family="times new roman" font-size="10px" font-style="normal" font-weight="normal" text-decoration="normal" x="678.625" y="590.25" text-anchor="start" dominant-baseline="text-after-edge" fill-opacity="0.8">42135064_42135066dup </text><text fill="rgb(0,0,0)" stroke="none" font-family="times new roman" font-size="10px" font-style="normal" font-weight="normal" text-decoration="normal" x="678.625" y="600.25" text-anchor="start" dominant-baseline="text-after-edge" fill-opacity="0.8">42135201T&gt;C </text><g transform="scale(1.1539968652037618,1.1539968652037618) translate(115.20186757215629,40.88828522920204)"/></g></svg>