<svg version="1.1" xmlns="http://www.w3.org/2000/svg" xmlns:xlink="http://www.w3.org/1999/xlink" width="1017" height="608"><defs/><g transform="translate(-111.90999026921827,-33.72818683100871) scale(0.827765163801492,0.827765163801492)"><path fill="none" stroke="rgb(120,144,156)" paint-order="fill stroke markers" d=" M 1000.2316176470588 282.125 L 998.1687901631738 412.37782112531386" stroke-opacity="1" stroke-linejoin="round" stroke-miterlimit="10"/><path fill="rgb(120,144,156)" stroke="none" paint-order="stroke fill markers" d=" M 993.9254308737684 405.60977842886035 L 998.1371199264472 414.37757035861927 L 1002.624340038647 405.7475439586209 Z" fill-opacity="1"/><path fill="none" stroke="rgb(120,144,156)" paint-order="fill stroke markers" d=" M 637.9957626612743 291.1018222665263 L 663.5257976518168 334.48368623541796" stroke-opacity="1" stroke-linejoin="round" stroke-miterlimit="10"/><path fill="rgb(120,144,156)" stroke="none" paint-order="stroke fill markers" d=" M 656.3786589580941 330.9156463683912 L 664.5401711938775 336.20735857004746 L 663.8766336137325 326.503121460427 Z" fill-opacity="1"/><path fill="none" stroke="rgb(120,144,156)" paint-order="fill stroke markers" d=" M 921.9821584938704 366.875 L 915.7251080820124 545.5137892585444" stroke-opacity="1" stroke-linejoin="round" stroke-miterlimit="10"/><path fill="rgb(120,144,156)" stroke="none" paint-order="stroke fill markers" d=" M 911.6123061897525 538.6656244974553 L 915.6550984747224 547.5125635466738 L 920.3069743431153 538.9701662891667 Z" fill-opacity="1"/><path fill="none" stroke="rgb(120,144,156)" paint-order="fill stroke markers" d=" M 1222.6313787913077 195.01350750691788 L 652.3534150289818 265.7403350415591" stroke-opacity="1" stroke-linejoin="round" stroke-miterlimit="10"/><path fill="rgb(120,144,156)" stroke="none" paint-order="stroke fill markers" d=" M 658.4670818698894 260.59878101982736 L 650.3686212086922 265.9864924930821 L 659.5378667840143 269.232634138087 Z" fill-opacity="1"/><path fill="none" stroke="rgb(120,144,156)" paint-order="fill stroke markers" d=" M 980.9968168521234 446.6003059776799 L 642.0772524586646 682.9234787794398" stroke-opacity="1" stroke-linejoin="round" stroke-miterlimit="10"/><path fill="rgb(120,144,156)" stroke="none" paint-order="stroke fill markers" d=" M 645.0850571458776 675.5230996699901 L 640.4366980052132 684.0674110699451 L 650.0611626095758 682.6595115425035 Z" fill-opacity="1"/><path fill="none" stroke="rgb(120,144,156)" paint-order="fill stroke markers" d=" M 528.269190140845 447.875 L 389.7787152595504 554.2908410884407" stroke-opacity="1" stroke-linejoin="round" stroke-miterlimit="10"/><path fill="rgb(120,144,156)" stroke="none" paint-order="stroke fill markers" d=" M 392.44099530282614 546.7592565957078 L 388.19282945870145 555.5094329916905 L 397.7418700819624 553.6578598294006 Z" fill-opacity="1"/><path fill="none" stroke="rgb(120,144,156)" paint-order="fill stroke markers" d=" M 322.4375 594.6312594840667 L 588.1274036101067 688.9733496885659" stroke-opacity="1" stroke-linejoin="round" stroke-miterlimit="10"/><path fill="rgb(120,144,156)" stroke="none" paint-order="stroke fill markers" d=" M 580.3580509914966 690.8306756932559 L 590.0121136799233 689.6425790608529 L 583.269198760945 682.6321868895533 Z" fill-opacity="1"/><path fill="none" stroke="rgb(120,144,156)" paint-order="fill stroke markers" d=" M 757.9643888330844 378.2933386469811 L 747.4211275002197 413.32940707619315" stroke-opacity="1" stroke-linejoin="round" stroke-miterlimit="10"/><path fill="rgb(120,144,156)" stroke="none" paint-order="stroke fill markers" d=" M 745.1863263905714 405.6601069777282 L 746.8448050557557 415.24457089164264 L 753.5172889877766 408.1671096111465 Z" fill-opacity="1"/><path fill="none" stroke="rgb(120,144,156)" paint-order="fill stroke markers" d=" M 618.1875 363.38502615518746 L 975.7011562309772 430.71105034515347" stroke-opacity="1" stroke-linejoin="round" stroke-miterlimit="10"/><path fill="rgb(120,144,156)" stroke="none" paint-order="stroke fill markers" d=" M 968.3118591531534 433.74597846549915 L 977.6666090104459 431.08117920336207 L 969.9219196863608 425.1962588748103 Z" fill-opacity="1"/><path fill="none" stroke="rgb(120,144,156)" paint-order="fill stroke markers" d=" M 390.0158160912031 577.6656343457918 L 591.623555517388 685.4559108706826" stroke-opacity="1" stroke-linejoin="round" stroke-miterlimit="10"/><path fill="rgb(120,144,156)" stroke="none" paint-order="stroke fill markers" d=" M 583.664032238595 686.1330291575084 L 593.3872936726273 686.3988995873452 L 587.7660331560774 678.4607681822174 Z" fill-opacity="1"/><path fill="none" stroke="rgb(120,144,156)" paint-order="fill stroke markers" d=" M 247.4375 445.875 L 247.4375 461" stroke-opacity="1" stroke-linejoin="round" stroke-miterlimit="10"/><path fill="rgb(120,144,156)" stroke="none" paint-order="stroke fill markers" d=" M 243.0875 454.3 L 247.4375 463 L 251.7875 454.3 Z" fill-opacity="1"/><path fill="none" stroke="rgb(120,144,156)" paint-order="fill stroke markers" d=" M 812.3808098591549 447.875 L 485.4572935296665 560.6620245840315" stroke-opacity="1" stroke-linejoin="round" stroke-miterlimit="10"/><path fill="rgb(120,144,156)" stroke="none" paint-order="stroke fill markers" d=" M 490.3722901336355 554.3647784888742 L 483.56664521591836 561.3142890654509 L 493.20964062780996 562.5890986536787 Z" fill-opacity="1"/><path fill="none" stroke="rgb(120,144,156)" paint-order="fill stroke markers" d=" M 789.3929735196235 362.2643262584495 L 976.5650233650381 427.4726533013681" stroke-opacity="1" stroke-linejoin="round" stroke-miterlimit="10"/><path fill="rgb(120,144,156)" stroke="none" paint-order="stroke fill markers" d=" M 968.8068766275584 429.3762444338681 L 978.4536879548125 428.1306396745798 L 971.6691173510294 421.1605534683495 Z" fill-opacity="1"/><path fill="none" stroke="rgb(120,144,156)" paint-order="fill stroke markers" d=" M 896.1975351056581 576.3104582159368 L 646.2971699561317 687.1317193245708" stroke-opacity="1" stroke-linejoin="round" stroke-miterlimit="10"/><path fill="rgb(120,144,156)" stroke="none" paint-order="stroke fill markers" d=" M 650.6585002757788 680.4390892105628 L 644.4688806981471 687.9424957358817 L 654.1853776649813 688.3921474827957 Z" fill-opacity="1"/><path fill="none" stroke="rgb(55,71,79)" paint-order="fill stroke markers" d=" M 765.3125 282.125 L 765.3125 328.375" stroke-opacity="1" stroke-linejoin="round" stroke-miterlimit="10" stroke-width="2"/><path fill="none" stroke="rgb(120,144,156)" paint-order="fill stroke markers" d=" M 745.9841081421866 370.50819777405457 L 688.241963403953 420.19864902289305" stroke-opacity="1" stroke-linejoin="round" stroke-miterlimit="10"/><path fill="rgb(120,144,156)" stroke="none" paint-order="stroke fill markers" d=" M 690.4829757620006 412.53116158494583 L 686.7260111013794 421.50321355419146 L 696.1578314731486 419.125554101141 Z" fill-opacity="1"/><path fill="none" stroke="rgb(55,71,79)" paint-order="fill stroke markers" d=" M 1197.289511628716 133.82233496624755 L 1231.17341236428 172.66002235905793" stroke-opacity="1" stroke-linejoin="round" stroke-miterlimit="10" stroke-width="2"/><path fill="none" stroke="rgb(120,144,156)" paint-order="fill stroke markers" d=" M 898.75 203.90854540196648 L 651.8135084020103 262.750554967248" stroke-opacity="1" stroke-linejoin="round" stroke-miterlimit="10"/><path fill="rgb(120,144,156)" stroke="none" paint-order="stroke fill markers" d=" M 657.322705507501 256.96598521204135 L 649.8679805182277 263.21415096962994 L 659.3393481178626 265.42903150649545 Z" fill-opacity="1"/><path fill="none" stroke="rgb(120,144,156)" paint-order="fill stroke markers" d=" M 454.6637414070205 455.3021899830762 L 462.2928447971726 545.579913433209" stroke-opacity="1" stroke-linejoin="round" stroke-miterlimit="10"/><path fill="rgb(120,144,156)" stroke="none" paint-order="stroke fill markers" d=" M 457.39410851164 539.2700098836445 L 462.4612585929795 547.5728100169238 L 466.06320865079914 538.5374098718846 Z" fill-opacity="1"/><path fill="none" stroke="rgb(120,144,156)" paint-order="fill stroke markers" d=" M 1090.2645546430913 359.2691444860644 L 762.9283341384489 430.1154607475902" stroke-opacity="1" stroke-linejoin="round" stroke-miterlimit="10"/><path fill="rgb(120,144,156)" stroke="none" paint-order="stroke fill markers" d=" M 768.5565382708767 424.4466144589947 L 760.9735933261423 430.53853090335997 L 770.3968934484751 432.9497369925283 Z" fill-opacity="1"/><path fill="none" stroke="rgb(120,144,156)" paint-order="fill stroke markers" d=" M 1094.1998974117394 368.3584573772022 L 1016.3309728719946 422.0954787848215" stroke-opacity="1" stroke-linejoin="round" stroke-miterlimit="10"/><path fill="rgb(120,144,156)" stroke="none" paint-order="stroke fill markers" d=" M 1019.3746551367208 414.7097832677161 L 1014.684886394484 423.23143622617073 L 1024.3160700065898 421.8702594448874 Z" fill-opacity="1"/><path fill="none" stroke="rgb(55,71,79)" paint-order="fill stroke markers" d=" M 1271.0880102040817 131.375 L 1257.050741056456 168.05906337246162" stroke-opacity="1" stroke-linejoin="round" stroke-miterlimit="10" stroke-width="2"/><path fill="none" stroke="rgb(120,144,156)" paint-order="fill stroke markers" d=" M 893.3078703703703 366.875 L 761.4842309395904 425.7053845393564" stroke-opacity="1" stroke-linejoin="round" stroke-miterlimit="10"/><path fill="rgb(120,144,156)" stroke="none" paint-order="stroke fill markers" d=" M 765.8297984969885 419.00250884275493 L 759.6578548560713 426.52046146919133 L 769.3753831417707 426.9472448060633 Z" fill-opacity="1"/><path fill="none" stroke="rgb(120,144,156)" paint-order="fill stroke markers" d=" M 673.9894413914047 374.3530659456568 L 672.2280521313851 412.399073962084" stroke-opacity="1" stroke-linejoin="round" stroke-miterlimit="10"/><path fill="rgb(120,144,156)" stroke="none" paint-order="stroke fill markers" d=" M 668.192559732067 405.50506924094793 L 672.1355586085953 414.3969340543432 L 676.8832511333945 405.90741606508345 Z" fill-opacity="1"/><path fill="none" stroke="rgb(55,71,79)" paint-order="fill stroke markers" d=" M 1115.1875 282.125 L 1115.1875 328.375" stroke-opacity="1" stroke-linejoin="round" stroke-miterlimit="10" stroke-width="2"/><path fill="none" stroke="rgb(55,71,79)" paint-order="fill stroke markers" d=" M 452.9375 366.875 L 452.9375 414.375" stroke-opacity="1" stroke-linejoin="round" stroke-miterlimit="10" stroke-width="2"/><path fill="none" stroke="rgb(120,144,156)" paint-order="fill stroke markers" d=" M 951.8479938271605 204.875 L 993.4031609454946 412.8112802523596" stroke-opacity="1" stroke-linejoin="round" stroke-miterlimit="10"/><path fill="rgb(120,144,156)" stroke="none" paint-order="stroke fill markers" d=" M 987.8245052758315 407.09366703359996 L 993.795102194784 414.7724997854832 L 996.3558102449191 405.3887225991912 Z" fill-opacity="1"/><path fill="none" stroke="rgb(120,144,156)" paint-order="fill stroke markers" d=" M 479.7683244145731 581.3224588782342 L 596.2315222450816 680.9048765116289" stroke-opacity="1" stroke-linejoin="round" stroke-miterlimit="10"/><path fill="rgb(120,144,156)" stroke="none" paint-order="stroke fill markers" d=" M 588.3122920159129 679.8568819613471 L 597.7516026757717 682.2046285973103 L 593.9662135886269 673.2445320878453 Z" fill-opacity="1"/><path fill="none" stroke="rgb(120,144,156)" paint-order="fill stroke markers" d=" M 732.3109100122576 453.4715573476217 L 627.5484174022449 679.3107017221832" stroke-opacity="1" stroke-linejoin="round" stroke-miterlimit="10"/><path fill="rgb(120,144,156)" stroke="none" paint-order="stroke fill markers" d=" M 626.4217407415483 671.402282177025 L 626.7067988668555 681.125 L 634.3139382500513 675.0633228059693 Z" fill-opacity="1"/><path fill="none" stroke="rgb(120,144,156)" paint-order="fill stroke markers" d=" M 639.6730935316165 290.02429560185914 L 728.0457998250442 416.43444505718315" stroke-opacity="1" stroke-linejoin="round" stroke-miterlimit="10"/><path fill="rgb(120,144,156)" stroke="none" paint-order="stroke fill markers" d=" M 720.6417640395573 413.4356529524802 L 729.1917287294848 418.07360549654464 L 727.7721119507798 408.45086221816405 Z" fill-opacity="1"/><path fill="none" stroke="rgb(120,144,156)" paint-order="fill stroke markers" d=" M 950.508296460177 282.125 L 696.7115501609185 348.2057196585627" stroke-opacity="1" stroke-linejoin="round" stroke-miterlimit="10"/><path fill="rgb(120,144,156)" stroke="none" paint-order="stroke fill markers" d=" M 702.0993175650474 342.3078842591127 L 694.7760790355035 348.7096556889127 L 704.2914392970698 350.72718365466784 Z" fill-opacity="1"/><path fill="none" stroke="rgb(120,144,156)" paint-order="fill stroke markers" d=" M 934.5347222222222 366.875 L 982.4848093422587 418.4034518304869" stroke-opacity="1" stroke-linejoin="round" stroke-miterlimit="10"/><path fill="rgb(120,144,156)" stroke="none" paint-order="stroke fill markers" d=" M 974.7360643669588 416.461944347173 L 983.8472707340579 419.86758944555476 L 981.1050629925038 410.5352372928464 Z" fill-opacity="1"/><path fill="none" stroke="rgb(120,144,156)" paint-order="fill stroke markers" d=" M 361.78609154929575 447.875 L 370.0428447971726 545.579913433209" stroke-opacity="1" stroke-linejoin="round" stroke-miterlimit="10"/><path fill="rgb(120,144,156)" stroke="none" paint-order="stroke fill markers" d=" M 365.14410851164 539.2700098836445 L 370.2112585929795 547.5728100169238 L 373.81320865079914 538.5374098718846 Z" fill-opacity="1"/><path fill="none" stroke="rgb(120,144,156)" paint-order="fill stroke markers" d=" M 595.4930555555555 366.875 L 720.5551470588236 425.34558823529414" stroke-opacity="1" stroke-linejoin="round" stroke-miterlimit="10"/><path fill="rgb(120,144,156)" stroke="none" paint-order="stroke fill markers" d=" M 712.6433823529412 426.4485294117647 L 722.366911764706 426.1926470588235 L 716.3280882352942 418.56735294117647 Z" fill-opacity="1"/><path fill="none" stroke="rgb(120,144,156)" paint-order="fill stroke markers" d=" M 689.1790675876625 444.70116383633876 L 895.1906575257362 557.2151860332867" stroke-opacity="1" stroke-linejoin="round" stroke-miterlimit="10"/><path fill="rgb(120,144,156)" stroke="none" paint-order="stroke fill markers" d=" M 887.2254226220576 557.8214309748897 L 896.9459324123375 558.1738361636612 L 891.3955506891867 550.1859852181744 Z" fill-opacity="1"/><path fill="none" stroke="rgb(120,144,156)" paint-order="fill stroke markers" d=" M 621.3867521367522 673 L 620.6345778647532 679.1398411505029" stroke-opacity="1" stroke-linejoin="round" stroke-miterlimit="10"/><path fill="rgb(120,144,156)" stroke="none" paint-order="stroke fill markers" d=" M 617.1315642966413 671.9606074907294 L 620.3913817663818 681.125 L 625.7670052919539 673.0185105186453 Z" fill-opacity="1"/><path fill="rgb(69,90,100)" stroke="rgb(255,193,7)" paint-order="fill stroke markers" d=" M 647.5625 269.125 L 647.4931400089954 270.8903296538765 L 647.2854876633907 272.6447754634052 L 646.9408232089477 274.37752068675786 L 646.4612716166409 276.0778823734363 L 645.849789481504 277.73537722821453 L 645.1101467942383 279.3397862441398 L 644.2469036979671 280.8812177061088 L 643.2653823734363 282.35016817658067 L 642.1716342260007 283.73758108742913 L 640.9724025766973 285.03490257669733 L 639.6750810874291 286.2341342260007 L 638.2876681765806 287.3278823734363 L 636.8187177061088 288.30940369796707 L 635.2772862441398 289.1726467942383 L 633.6728772282145 289.91228948150393 L 632.0153823734363 290.52377161664094 L 630.3150206867579 291.00332320894773 L 628.5822754634052 291.3479876633906 L 626.8278296538765 291.5556400089954 L 625.0625 291.625 L 623.2971703461235 291.5556400089954 L 621.5427245365948 291.3479876633906 L 619.8099793132421 291.00332320894773 L 618.1096176265637 290.52377161664094 L 616.4521227717855 289.91228948150393 L 614.8477137558602 289.1726467942383 L 613.3062822938912 288.30940369796707 L 611.8373318234194 287.3278823734363 L 610.4499189125709 286.2341342260007 L 609.1525974233027 285.03490257669733 L 607.9533657739993 283.73758108742913 L 606.8596176265637 282.35016817658067 L 605.8780963020329 280.8812177061088 L 605.0148532057617 279.3397862441398 L 604.275210518496 277.73537722821453 L 603.6637283833591 276.0778823734363 L 603.1841767910523 274.37752068675786 L 602.8395123366095 272.6447754634052 L 602.6318599910046 270.8903296538765 L 602.5625 269.125 L 602.6318599910046 267.3596703461235 L 602.8395123366093 265.6052245365948 L 603.1841767910523 263.87247931324214 L 603.6637283833591 262.1721176265637 L 604.275210518496 260.51462277178547 L 605.0148532057617 258.9102137558602 L 605.8780963020329 257.3687822938912 L 606.8596176265637 255.89983182341936 L 607.9533657739993 254.51241891257087 L 609.1525974233027 253.2150974233027 L 610.4499189125709 252.0158657739993 L 611.8373318234194 250.92211762656368 L 613.3062822938912 249.94059630203293 L 614.8477137558602 249.0773532057617 L 616.4521227717855 248.33771051849604 L 618.1096176265637 247.72622838335903 L 619.8099793132421 247.24667679105227 L 621.5427245365948 246.9020123366094 L 623.2971703461236 246.6943599910046 L 625.0625000000001 246.625 L 626.8278296538766 246.69435999100463 L 628.5822754634053 246.9020123366094 L 630.315020686758 247.2466767910523 L 632.0153823734364 247.72622838335909 L 633.6728772282146 248.3377105184961 L 635.2772862441399 249.0773532057618 L 636.8187177061089 249.940596302033 L 638.2876681765807 250.92211762656376 L 639.6750810874292 252.01586577399942 L 640.9724025766974 253.2150974233028 L 642.1716342260008 254.512418912571 L 643.2653823734364 255.8998318234195 L 644.2469036979671 257.36878229389134 L 645.1101467942384 258.9102137558604 L 645.849789481504 260.5146227717857 L 646.461271616641 262.17211762656393 L 646.9408232089478 263.87247931324237 L 647.2854876633907 265.6052245365951 L 647.4931400089954 267.3596703461238 Z" fill-opacity="1" stroke-opacity="1" stroke-miterlimit="10" stroke-width="6"/><text fill="rgb(255,255,255)" stroke="none" font-family="times new roman" font-size="15px" font-style="normal" font-weight="normal" text-decoration="normal" x="625.0625" y="276.625" text-anchor="middle" dominant-baseline="text-after-edge" fill-opacity="1">*10</text><path fill="rgb(69,90,100)" stroke="rgb(244,67,54)" paint-order="fill stroke markers" d=" M 717.8125 259.125 L 717.8125 279.125 L 812.8125 279.125 L 812.8125 259.125 Z" fill-opacity="1" stroke-opacity="1" stroke-miterlimit="10" stroke-width="6"/><text fill="rgb(255,255,255)" stroke="none" font-family="times new roman" font-size="10px" font-style="normal" font-weight="normal" text-decoration="normal" x="765.3125" y="274.125" text-anchor="middle" dominant-baseline="text-after-edge" fill-opacity="1">42128945C&gt;T</text><path fill="rgb(69,90,100)" stroke="rgb(76,175,80)" paint-order="fill stroke markers" d=" M 952.9375 259.125 L 952.9375 279.125 L 1047.9375 279.125 L 1047.9375 259.125 Z" fill-opacity="1" stroke-opacity="1" stroke-miterlimit="10" stroke-width="6"/><text fill="rgb(255,255,255)" stroke="none" font-family="times new roman" font-size="10px" font-style="normal" font-weight="normal" text-decoration="normal" x="1000.4375" y="274.125" text-anchor="middle" dominant-baseline="text-after-edge" fill-opacity="1">42129130C&gt;G</text><path fill="rgb(69,90,100)" stroke="rgb(76,175,80)" paint-order="fill stroke markers" d=" M 481.6875 568 L 481.63355334032974 569.3730341752373 L 481.4720459604149 570.737603138204 L 481.2039736069593 572.0852938674783 L 480.8309890351652 573.4077974015615 L 480.3553918189475 574.6969600663891 L 479.78011417329645 575.9448337454421 L 479.1087028761966 577.1437248825291 L 478.3452974015616 578.2862419151182 L 477.49460439800055 579.3653408457782 L 476.56186867076457 580.3743686707646 L 475.55284084577823 581.3071043980005 L 474.4737419151183 582.1577974015615 L 473.3312248825291 582.9212028761966 L 472.13233374544205 583.5926141732964 L 470.88446006638907 584.1678918189475 L 469.5952974015616 584.6434890351652 L 468.27279386747836 585.0164736069594 L 466.92510313820407 585.2845459604149 L 465.5605341752373 585.4460533403297 L 464.1875 585.5 L 462.8144658247627 585.4460533403297 L 461.44989686179593 585.2845459604149 L 460.10220613252164 585.0164736069594 L 458.7797025984384 584.6434890351652 L 457.49053993361093 584.1678918189475 L 456.24266625455795 583.5926141732964 L 455.0437751174709 582.9212028761966 L 453.9012580848817 582.1577974015615 L 452.82215915422177 581.3071043980005 L 451.81313132923543 580.3743686707646 L 450.88039560199945 579.3653408457782 L 450.0297025984384 578.2862419151182 L 449.2662971238034 577.1437248825291 L 448.59488582670355 575.9448337454421 L 448.0196081810525 574.6969600663891 L 447.5440109648348 573.4077974015615 L 447.1710263930407 572.0852938674783 L 446.9029540395851 570.737603138204 L 446.74144665967026 569.3730341752373 L 446.6875 568 L 446.74144665967026 566.6269658247627 L 446.9029540395851 565.262396861796 L 447.1710263930407 563.9147061325217 L 447.5440109648348 562.5922025984385 L 448.0196081810525 561.3030399336109 L 448.59488582670355 560.0551662545579 L 449.2662971238034 558.8562751174709 L 450.0297025984384 557.7137580848818 L 450.88039560199945 556.6346591542218 L 451.81313132923543 555.6256313292354 L 452.82215915422177 554.6928956019995 L 453.9012580848817 553.8422025984385 L 455.0437751174709 553.0787971238034 L 456.24266625455795 552.4073858267036 L 457.49053993361093 551.8321081810525 L 458.77970259843846 551.3565109648348 L 460.1022061325217 550.9835263930406 L 461.449896861796 550.7154540395851 L 462.81446582476275 550.5539466596703 L 464.18750000000006 550.5 L 465.56053417523736 550.5539466596703 L 466.9251031382041 550.7154540395851 L 468.2727938674784 550.9835263930406 L 469.59529740156165 551.3565109648348 L 470.8844600663892 551.8321081810525 L 472.13233374544217 552.4073858267036 L 473.3312248825292 553.0787971238035 L 474.47374191511835 553.8422025984385 L 475.5528408457783 554.6928956019996 L 476.5618686707647 555.6256313292355 L 477.49460439800066 556.6346591542219 L 478.34529740156165 557.7137580848819 L 479.1087028761967 558.856275117471 L 479.7801141732965 560.0551662545581 L 480.35539181894757 561.3030399336111 L 480.83098903516526 562.5922025984386 L 481.2039736069594 563.9147061325218 L 481.47204596041496 565.2623968617961 L 481.63355334032974 566.6269658247629 Z" fill-opacity="1" stroke-opacity="1" stroke-miterlimit="10" stroke-width="6"/><text fill="rgb(255,255,255)" stroke="none" font-family="times new roman" font-size="10px" font-style="normal" font-weight="normal" text-decoration="normal" x="464.1875" y="573" text-anchor="middle" dominant-baseline="text-after-edge" fill-opacity="1">*1.54</text><path fill="rgb(69,90,100)" stroke="rgb(76,175,80)" paint-order="fill stroke markers" d=" M 247.4375 424.875 L 289.9375 424.875 L 289.9375 424.875 A 5 5 0 0 1 294.9375 429.875 L 294.9375 439.875 L 294.9375 439.875 A 5 5 0 0 1 289.9375 444.875 L 204.9375 444.875 L 204.9375 444.875 A 5 5 0 0 1 199.9375 439.875 L 199.9375 429.875 L 199.9375 429.875 A 5 5 0 0 1 204.9375 424.875 L 247.4375 424.875 Z" fill-opacity="1" stroke-opacity="1" stroke-miterlimit="10" stroke-width="2"/><text fill="rgb(255,255,255)" stroke="none" font-family="times new roman" font-size="10px" font-style="normal" font-weight="normal" text-decoration="normal" x="247.4375" y="439.875" text-anchor="middle" dominant-baseline="text-after-edge" fill-opacity="1">42132049dup</text><path fill="rgb(69,90,100)" stroke="rgb(255,193,7)" paint-order="fill stroke markers" d=" M 1067.6875 259.125 L 1067.6875 279.125 L 1162.6875 279.125 L 1162.6875 259.125 Z" fill-opacity="1" stroke-opacity="1" stroke-miterlimit="10" stroke-width="6"/><text fill="rgb(255,255,255)" stroke="none" font-family="times new roman" font-size="10px" font-style="normal" font-weight="normal" text-decoration="normal" x="1115.1875" y="274.125" text-anchor="middle" dominant-baseline="text-after-edge" fill-opacity="1">42129819G&gt;T</text><path fill="rgb(69,90,100)" stroke="rgb(76,175,80)" paint-order="fill stroke markers" d=" M 405.4375 343.875 L 405.4375 363.875 L 500.4375 363.875 L 500.4375 343.875 Z" fill-opacity="1" stroke-opacity="1" stroke-miterlimit="10" stroke-width="6"/><text fill="rgb(255,255,255)" stroke="none" font-family="times new roman" font-size="10px" font-style="normal" font-weight="normal" text-decoration="normal" x="452.9375" y="358.875" text-anchor="middle" dominant-baseline="text-after-edge" fill-opacity="1">42127407T&gt;G</text><path fill="rgb(69,90,100)" stroke="rgb(255,193,7)" paint-order="fill stroke markers" d=" M 901.75 181.875 L 901.75 201.875 L 996.75 201.875 L 996.75 181.875 Z" fill-opacity="1" stroke-opacity="1" stroke-miterlimit="10" stroke-width="6"/><text fill="rgb(255,255,255)" stroke="none" font-family="times new roman" font-size="10px" font-style="normal" font-weight="normal" text-decoration="normal" x="949.25" y="196.875" text-anchor="middle" dominant-baseline="text-after-edge" fill-opacity="1">42130692G&gt;A</text><path fill="rgb(69,90,100)" stroke="rgb(255,193,7)" paint-order="fill stroke markers" d=" M 1228.5625 108.375 L 1228.5625 128.375 L 1323.5625 128.375 L 1323.5625 108.375 Z" fill-opacity="1" stroke-opacity="1" stroke-miterlimit="10" stroke-width="6"/><text fill="rgb(255,255,255)" stroke="none" font-family="times new roman" font-size="10px" font-style="normal" font-weight="normal" text-decoration="normal" x="1276.0625" y="123.375" text-anchor="middle" dominant-baseline="text-after-edge" fill-opacity="1">42126611C&gt;G</text><path fill="rgb(69,90,100)" stroke="rgb(69,90,100)" paint-order="fill stroke markers" d=" M 599.375 682.125 L 580.625 699.625 L 599.375 717.125 L 636.875 717.125 L 655.625 699.625 L 636.875 682.125 Z" fill-opacity="1" stroke-opacity="1" stroke-miterlimit="10" stroke-width="2"/><text fill="rgb(255,255,255)" stroke="none" font-family="times new roman" font-size="10px" font-style="normal" font-weight="normal" text-decoration="normal" x="618.125" y="704.625" text-anchor="middle" dominant-baseline="text-after-edge" fill-opacity="1">NA10831-all</text><path fill="rgb(69,90,100)" stroke="rgb(76,175,80)" paint-order="fill stroke markers" d=" M 313.1875 424.875 L 313.1875 444.875 L 408.1875 444.875 L 408.1875 424.875 Z" fill-opacity="1" stroke-opacity="1" stroke-miterlimit="10" stroke-width="6"/><text fill="rgb(255,255,255)" stroke="none" font-family="times new roman" font-size="10px" font-style="normal" font-weight="normal" text-decoration="normal" x="360.6875" y="439.875" text-anchor="middle" dominant-baseline="text-after-edge" fill-opacity="1">42129950A&gt;C</text><path fill="rgb(69,90,100)" stroke="rgb(255,193,7)" paint-order="fill stroke markers" d=" M 520.1875 343.875 L 520.1875 363.875 L 615.1875 363.875 L 615.1875 343.875 Z" fill-opacity="1" stroke-opacity="1" stroke-miterlimit="10" stroke-width="6"/><text fill="rgb(255,255,255)" stroke="none" font-family="times new roman" font-size="10px" font-style="normal" font-weight="normal" text-decoration="normal" x="567.6875" y="358.875" text-anchor="middle" dominant-baseline="text-after-edge" fill-opacity="1">42129809T&gt;C</text><path fill="rgb(69,90,100)" stroke="rgb(76,175,80)" paint-order="fill stroke markers" d=" M 1201.3125 118.375 L 1201.2585533403299 119.74803417523728 L 1201.097045960415 121.11260313820404 L 1200.8289736069594 122.46029386747834 L 1200.4559890351652 123.78279740156158 L 1199.9803918189475 125.07196006638907 L 1199.4051141732964 126.31983374544207 L 1198.7337028761965 127.5187248825291 L 1197.9702974015615 128.66124191511827 L 1197.1196043980005 129.7403408457782 L 1196.1868686707646 130.74936867076457 L 1195.1778408457783 131.68210439800055 L 1194.0987419151184 132.5327974015616 L 1192.956224882529 133.29620287619662 L 1191.757333745442 133.96761417329643 L 1190.509460066389 134.5428918189475 L 1189.2202974015615 135.01848903516517 L 1187.8977938674784 135.39147360695935 L 1186.5501031382041 135.6595459604149 L 1185.1855341752373 135.82105334032974 L 1183.8125 135.875 L 1182.4394658247627 135.82105334032974 L 1181.0748968617959 135.6595459604149 L 1179.7272061325216 135.39147360695935 L 1178.4047025984385 135.0184890351652 L 1177.115539933611 134.5428918189475 L 1175.867666254558 133.96761417329643 L 1174.668775117471 133.29620287619662 L 1173.5262580848816 132.5327974015616 L 1172.4471591542217 131.68210439800055 L 1171.4381313292354 130.74936867076457 L 1170.5053956019995 129.7403408457782 L 1169.6547025984385 128.6612419151183 L 1168.8912971238035 127.51872488252911 L 1168.2198858267036 126.31983374544207 L 1167.6446081810525 125.07196006638907 L 1167.1690109648348 123.78279740156158 L 1166.7960263930406 122.46029386747834 L 1166.527954039585 121.11260313820404 L 1166.3664466596701 119.7480341752373 L 1166.3125 118.375 L 1166.3664466596701 117.00196582476272 L 1166.527954039585 115.63739686179596 L 1166.7960263930406 114.28970613252166 L 1167.1690109648348 112.96720259843842 L 1167.6446081810525 111.67803993361093 L 1168.2198858267036 110.43016625455793 L 1168.8912971238035 109.2312751174709 L 1169.6547025984385 108.08875808488172 L 1170.5053956019995 107.0096591542218 L 1171.4381313292354 106.00063132923542 L 1172.4471591542217 105.06789560199947 L 1173.5262580848816 104.21720259843842 L 1174.668775117471 103.45379712380338 L 1175.867666254558 102.78238582670356 L 1177.115539933611 102.20710818105248 L 1178.4047025984385 101.7315109648348 L 1179.7272061325216 101.35852639304065 L 1181.074896861796 101.09045403958508 L 1182.4394658247627 100.92894665967026 L 1183.8125 100.875 L 1185.1855341752373 100.92894665967026 L 1186.5501031382041 101.0904540395851 L 1187.8977938674784 101.35852639304068 L 1189.2202974015618 101.73151096483484 L 1190.5094600663892 102.20710818105252 L 1191.757333745442 102.7823858267036 L 1192.956224882529 103.45379712380344 L 1194.0987419151184 104.21720259843849 L 1195.1778408457783 105.06789560199954 L 1196.1868686707646 106.00063132923552 L 1197.1196043980005 107.0096591542219 L 1197.9702974015618 108.08875808488185 L 1198.7337028761967 109.23127511747103 L 1199.4051141732966 110.43016625455807 L 1199.9803918189475 111.67803993361109 L 1200.4559890351652 112.96720259843859 L 1200.8289736069594 114.28970613252184 L 1201.097045960415 115.63739686179616 L 1201.2585533403299 117.00196582476292 Z" fill-opacity="1" stroke-opacity="1" stroke-miterlimit="10" stroke-width="6"/><text fill="rgb(255,255,255)" stroke="none" font-family="times new roman" font-size="10px" font-style="normal" font-weight="normal" text-decoration="normal" x="1183.8125" y="123.375" text-anchor="middle" dominant-baseline="text-after-edge" fill-opacity="1">*39.2</text><path fill="rgb(69,90,100)" stroke="rgb(255,193,7)" paint-order="fill stroke markers" d=" M 692.4375 353.875 L 692.3835533403297 355.2480341752373 L 692.2220459604149 356.61260313820407 L 691.9539736069594 357.96029386747836 L 691.5809890351652 359.2827974015616 L 691.1053918189475 360.57196006638907 L 690.5301141732964 361.81983374544205 L 689.8587028761966 363.0187248825291 L 689.0952974015615 364.1612419151183 L 688.2446043980005 365.24034084577823 L 687.3118686707646 366.24936867076457 L 686.3028408457782 367.18210439800055 L 685.2237419151182 368.0327974015616 L 684.0812248825291 368.7962028761966 L 682.8823337454421 369.46761417329645 L 681.6344600663891 370.0428918189475 L 680.3452974015615 370.5184890351652 L 679.0227938674783 370.8914736069593 L 677.675103138204 371.1595459604149 L 676.3105341752373 371.32105334032974 L 674.9375 371.375 L 673.5644658247627 371.32105334032974 L 672.199896861796 371.1595459604149 L 670.8522061325217 370.8914736069593 L 669.5297025984385 370.5184890351652 L 668.2405399336109 370.0428918189475 L 666.9926662545579 369.46761417329645 L 665.7937751174709 368.7962028761966 L 664.6512580848818 368.0327974015616 L 663.5721591542218 367.18210439800055 L 662.5631313292354 366.24936867076457 L 661.6303956019995 365.24034084577823 L 660.7797025984385 364.1612419151183 L 660.0162971238034 363.0187248825291 L 659.3448858267036 361.81983374544205 L 658.7696081810525 360.57196006638907 L 658.2940109648348 359.2827974015616 L 657.9210263930406 357.96029386747836 L 657.6529540395851 356.61260313820407 L 657.4914466596703 355.2480341752373 L 657.4375 353.875 L 657.4914466596703 352.5019658247627 L 657.6529540395851 351.13739686179593 L 657.9210263930406 349.78970613252164 L 658.2940109648348 348.4672025984384 L 658.7696081810525 347.17803993361093 L 659.3448858267036 345.93016625455795 L 660.0162971238034 344.7312751174709 L 660.7797025984385 343.5887580848817 L 661.6303956019995 342.50965915422177 L 662.5631313292354 341.50063132923543 L 663.5721591542218 340.56789560199945 L 664.6512580848818 339.7172025984384 L 665.7937751174709 338.9537971238034 L 666.9926662545579 338.28238582670355 L 668.240539933611 337.7071081810525 L 669.5297025984385 337.2315109648348 L 670.8522061325217 336.8585263930407 L 672.199896861796 336.5904540395851 L 673.5644658247628 336.42894665967026 L 674.9375000000001 336.375 L 676.3105341752373 336.42894665967026 L 677.6751031382041 336.5904540395851 L 679.0227938674784 336.8585263930407 L 680.3452974015617 337.23151096483485 L 681.6344600663891 337.7071081810525 L 682.8823337454421 338.2823858267036 L 684.0812248825292 338.95379712380344 L 685.2237419151184 339.7172025984385 L 686.3028408457783 340.56789560199957 L 687.3118686707646 341.5006313292355 L 688.2446043980007 342.5096591542219 L 689.0952974015617 343.5887580848818 L 689.8587028761967 344.73127511747106 L 690.5301141732965 345.93016625455806 L 691.1053918189476 347.1780399336111 L 691.5809890351652 348.4672025984386 L 691.9539736069594 349.7897061325218 L 692.2220459604149 351.13739686179616 L 692.3835533403297 352.5019658247629 Z" fill-opacity="1" stroke-opacity="1" stroke-miterlimit="10" stroke-width="6"/><text fill="rgb(255,255,255)" stroke="none" font-family="times new roman" font-size="10px" font-style="normal" font-weight="normal" text-decoration="normal" x="674.9375" y="358.875" text-anchor="middle" dominant-baseline="text-after-edge" fill-opacity="1">*10.1</text><path fill="rgb(69,90,100)" stroke="rgb(244,67,54)" paint-order="fill stroke markers" d=" M 787.8125 353.875 L 787.7431400089954 355.6403296538765 L 787.5354876633907 357.3947754634052 L 787.1908232089477 359.12752068675786 L 786.7112716166409 360.8278823734363 L 786.099789481504 362.48537722821453 L 785.3601467942383 364.0897862441398 L 784.4969036979671 365.6312177061088 L 783.5153823734363 367.10016817658067 L 782.4216342260007 368.48758108742913 L 781.2224025766973 369.78490257669733 L 779.9250810874291 370.9841342260007 L 778.5376681765806 372.0778823734363 L 777.0687177061088 373.05940369796707 L 775.5272862441398 373.9226467942383 L 773.9228772282145 374.66228948150393 L 772.2653823734363 375.27377161664094 L 770.5650206867579 375.75332320894773 L 768.8322754634052 376.0979876633906 L 767.0778296538765 376.3056400089954 L 765.3125 376.375 L 763.5471703461235 376.3056400089954 L 761.7927245365948 376.0979876633906 L 760.0599793132421 375.75332320894773 L 758.3596176265637 375.27377161664094 L 756.7021227717855 374.66228948150393 L 755.0977137558602 373.9226467942383 L 753.5562822938912 373.05940369796707 L 752.0873318234194 372.0778823734363 L 750.6999189125709 370.9841342260007 L 749.4025974233027 369.78490257669733 L 748.2033657739993 368.48758108742913 L 747.1096176265637 367.10016817658067 L 746.1280963020329 365.6312177061088 L 745.2648532057617 364.0897862441398 L 744.525210518496 362.48537722821453 L 743.9137283833591 360.8278823734363 L 743.4341767910523 359.12752068675786 L 743.0895123366095 357.3947754634052 L 742.8818599910046 355.6403296538765 L 742.8125 353.875 L 742.8818599910046 352.1096703461235 L 743.0895123366093 350.3552245365948 L 743.4341767910523 348.62247931324214 L 743.9137283833591 346.9221176265637 L 744.525210518496 345.26462277178547 L 745.2648532057617 343.6602137558602 L 746.1280963020329 342.1187822938912 L 747.1096176265637 340.64983182341933 L 748.2033657739993 339.26241891257087 L 749.4025974233027 337.96509742330267 L 750.6999189125709 336.76586577399934 L 752.0873318234194 335.6721176265637 L 753.5562822938912 334.69059630203293 L 755.0977137558602 333.8273532057617 L 756.7021227717855 333.087710518496 L 758.3596176265637 332.47622838335906 L 760.0599793132421 331.99667679105227 L 761.7927245365948 331.6520123366094 L 763.5471703461236 331.4443599910046 L 765.3125000000001 331.375 L 767.0778296538766 331.4443599910046 L 768.8322754634053 331.6520123366094 L 770.565020686758 331.9966767910523 L 772.2653823734364 332.47622838335906 L 773.9228772282146 333.0877105184961 L 775.5272862441399 333.82735320576177 L 777.0687177061089 334.690596302033 L 778.5376681765807 335.67211762656376 L 779.9250810874292 336.7658657739994 L 781.2224025766974 337.9650974233028 L 782.4216342260008 339.262418912571 L 783.5153823734364 340.6498318234195 L 784.4969036979671 342.11878229389134 L 785.3601467942384 343.6602137558604 L 786.099789481504 345.2646227717857 L 786.711271616641 346.92211762656393 L 787.1908232089478 348.62247931324237 L 787.5354876633907 350.3552245365951 L 787.7431400089954 352.1096703461238 Z" fill-opacity="1" stroke-opacity="1" stroke-miterlimit="10" stroke-width="6"/><text fill="rgb(255,255,255)" stroke="none" font-family="times new roman" font-size="15px" font-style="normal" font-weight="normal" text-decoration="normal" x="765.3125" y="361.375" text-anchor="middle" dominant-baseline="text-after-edge" fill-opacity="1">*4</text><path fill="rgb(3,169,244)" stroke="none" paint-order="stroke fill markers" d=" M 765.3125 321.375 L 789.8125 321.375 L 789.8125 321.375 A 8 8 0 0 1 797.8125 329.375 L 797.8125 378.375 L 797.8125 378.375 A 8 8 0 0 1 789.8125 386.375 L 740.8125 386.375 L 740.8125 386.375 A 8 8 0 0 1 732.8125 378.375 L 732.8125 329.375 L 732.8125 329.375 A 8 8 0 0 1 740.8125 321.375 L 765.3125 321.375 Z" fill-opacity="0.15"/><path fill="rgb(69,90,100)" stroke="rgb(76,175,80)" paint-order="fill stroke markers" d=" M 1270.4375 191.875 L 1270.3681400089954 193.6403296538765 L 1270.1604876633905 195.39477546340518 L 1269.8158232089477 197.12752068675786 L 1269.336271616641 198.82788237343632 L 1268.7247894815039 200.48537722821453 L 1267.9851467942383 202.08978624413982 L 1267.1219036979671 203.63121770610886 L 1266.1403823734363 205.10016817658064 L 1265.0466342260006 206.48758108742913 L 1263.8474025766973 207.7849025766973 L 1262.5500810874291 208.9841342260007 L 1261.1626681765806 210.07788237343632 L 1259.6937177061088 211.05940369796707 L 1258.1522862441398 211.9226467942383 L 1256.5478772282145 212.66228948150396 L 1254.8903823734363 213.27377161664094 L 1253.1900206867579 213.75332320894773 L 1251.4572754634053 214.0979876633906 L 1249.7028296538765 214.30564000899537 L 1247.9375 214.375 L 1246.1721703461235 214.30564000899537 L 1244.4177245365947 214.0979876633906 L 1242.6849793132421 213.75332320894773 L 1240.9846176265637 213.27377161664094 L 1239.3271227717855 212.66228948150396 L 1237.7227137558602 211.9226467942383 L 1236.1812822938912 211.05940369796707 L 1234.7123318234194 210.07788237343632 L 1233.3249189125709 208.9841342260007 L 1232.0275974233027 207.78490257669733 L 1230.8283657739994 206.48758108742913 L 1229.7346176265637 205.10016817658064 L 1228.7530963020329 203.63121770610886 L 1227.8898532057617 202.08978624413982 L 1227.1502105184961 200.48537722821453 L 1226.538728383359 198.82788237343632 L 1226.0591767910523 197.12752068675786 L 1225.7145123366095 195.3947754634052 L 1225.5068599910046 193.6403296538765 L 1225.4375 191.875 L 1225.5068599910046 190.1096703461235 L 1225.7145123366095 188.35522453659482 L 1226.0591767910523 186.62247931324214 L 1226.538728383359 184.92211762656368 L 1227.1502105184961 183.26462277178547 L 1227.8898532057617 181.6602137558602 L 1228.7530963020329 180.11878229389114 L 1229.7346176265637 178.64983182341936 L 1230.8283657739994 177.26241891257087 L 1232.0275974233027 175.9650974233027 L 1233.3249189125709 174.7658657739993 L 1234.7123318234194 173.67211762656368 L 1236.1812822938912 172.69059630203293 L 1237.7227137558602 171.8273532057617 L 1239.3271227717855 171.08771051849604 L 1240.9846176265637 170.47622838335903 L 1242.6849793132421 169.99667679105227 L 1244.417724536595 169.6520123366094 L 1246.1721703461235 169.4443599910046 L 1247.9375 169.375 L 1249.7028296538765 169.44435999100463 L 1251.4572754634053 169.6520123366094 L 1253.1900206867579 169.9966767910523 L 1254.8903823734365 170.47622838335909 L 1256.5478772282147 171.0877105184961 L 1258.15228624414 171.8273532057618 L 1259.693717706109 172.690596302033 L 1261.1626681765808 173.67211762656376 L 1262.5500810874294 174.76586577399942 L 1263.8474025766975 175.9650974233028 L 1265.0466342260008 177.262418912571 L 1266.1403823734365 178.6498318234195 L 1267.1219036979671 180.11878229389131 L 1267.9851467942383 181.66021375586038 L 1268.724789481504 183.2646227717857 L 1269.336271616641 184.9221176265639 L 1269.8158232089477 186.62247931324237 L 1270.1604876633905 188.35522453659505 L 1270.3681400089954 190.10967034612375 Z" fill-opacity="1" stroke-opacity="1" stroke-miterlimit="10" stroke-width="6"/><text fill="rgb(255,255,255)" stroke="none" font-family="times new roman" font-size="15px" font-style="normal" font-weight="normal" text-decoration="normal" x="1247.9375" y="199.375" text-anchor="middle" dominant-baseline="text-after-edge" fill-opacity="1">*39</text><path fill="rgb(69,90,100)" stroke="rgb(189,189,189)" paint-order="fill stroke markers" d=" M 1137.6875 353.875 L 1137.6181400089954 355.6403296538765 L 1137.4104876633905 357.3947754634052 L 1137.0658232089477 359.12752068675786 L 1136.586271616641 360.8278823734363 L 1135.9747894815039 362.48537722821453 L 1135.2351467942383 364.0897862441398 L 1134.3719036979671 365.6312177061088 L 1133.3903823734363 367.10016817658067 L 1132.2966342260006 368.48758108742913 L 1131.0974025766973 369.78490257669733 L 1129.8000810874291 370.9841342260007 L 1128.4126681765806 372.0778823734363 L 1126.9437177061088 373.05940369796707 L 1125.4022862441398 373.9226467942383 L 1123.7978772282145 374.66228948150393 L 1122.1403823734363 375.27377161664094 L 1120.4400206867579 375.75332320894773 L 1118.7072754634053 376.0979876633906 L 1116.9528296538765 376.3056400089954 L 1115.1875 376.375 L 1113.4221703461235 376.3056400089954 L 1111.6677245365947 376.0979876633906 L 1109.9349793132421 375.75332320894773 L 1108.2346176265637 375.27377161664094 L 1106.5771227717855 374.66228948150393 L 1104.9727137558602 373.9226467942383 L 1103.4312822938912 373.05940369796707 L 1101.9623318234194 372.0778823734363 L 1100.5749189125709 370.9841342260007 L 1099.2775974233027 369.78490257669733 L 1098.0783657739994 368.48758108742913 L 1096.9846176265637 367.10016817658067 L 1096.0030963020329 365.6312177061088 L 1095.1398532057617 364.0897862441398 L 1094.4002105184961 362.48537722821453 L 1093.788728383359 360.8278823734363 L 1093.3091767910523 359.12752068675786 L 1092.9645123366095 357.3947754634052 L 1092.7568599910046 355.6403296538765 L 1092.6875 353.875 L 1092.7568599910046 352.1096703461235 L 1092.9645123366095 350.3552245365948 L 1093.3091767910523 348.62247931324214 L 1093.788728383359 346.9221176265637 L 1094.4002105184961 345.26462277178547 L 1095.1398532057617 343.6602137558602 L 1096.0030963020329 342.1187822938912 L 1096.9846176265637 340.64983182341933 L 1098.0783657739994 339.26241891257087 L 1099.2775974233027 337.96509742330267 L 1100.5749189125709 336.76586577399934 L 1101.9623318234194 335.6721176265637 L 1103.4312822938912 334.69059630203293 L 1104.9727137558602 333.8273532057617 L 1106.5771227717855 333.087710518496 L 1108.2346176265637 332.47622838335906 L 1109.9349793132421 331.99667679105227 L 1111.667724536595 331.6520123366094 L 1113.4221703461235 331.4443599910046 L 1115.1875 331.375 L 1116.9528296538765 331.4443599910046 L 1118.7072754634053 331.6520123366094 L 1120.4400206867579 331.9966767910523 L 1122.1403823734365 332.47622838335906 L 1123.7978772282147 333.0877105184961 L 1125.40228624414 333.82735320576177 L 1126.943717706109 334.690596302033 L 1128.4126681765808 335.67211762656376 L 1129.8000810874294 336.7658657739994 L 1131.0974025766975 337.9650974233028 L 1132.2966342260008 339.262418912571 L 1133.3903823734365 340.6498318234195 L 1134.3719036979671 342.11878229389134 L 1135.2351467942383 343.6602137558604 L 1135.974789481504 345.2646227717857 L 1136.586271616641 346.92211762656393 L 1137.0658232089477 348.62247931324237 L 1137.4104876633905 350.3552245365951 L 1137.6181400089954 352.1096703461238 Z" fill-opacity="1" stroke-opacity="1" stroke-miterlimit="10" stroke-width="6"/><text fill="rgb(255,255,255)" stroke="none" font-family="times new roman" font-size="15px" font-style="normal" font-weight="normal" text-decoration="normal" x="1115.1875" y="361.375" text-anchor="middle" dominant-baseline="text-after-edge" fill-opacity="1">*74</text><path fill="rgb(69,90,100)" stroke="rgb(244,67,54)" paint-order="fill stroke markers" d=" M 688.6875 434.875 L 688.6335533403297 436.2480341752373 L 688.4720459604149 437.61260313820407 L 688.2039736069594 438.96029386747836 L 687.8309890351652 440.2827974015616 L 687.3553918189475 441.57196006638907 L 686.7801141732964 442.81983374544205 L 686.1087028761966 444.0187248825291 L 685.3452974015615 445.1612419151183 L 684.4946043980005 446.24034084577823 L 683.5618686707646 447.24936867076457 L 682.5528408457782 448.18210439800055 L 681.4737419151182 449.0327974015616 L 680.3312248825291 449.7962028761966 L 679.1323337454421 450.46761417329645 L 677.8844600663891 451.0428918189475 L 676.5952974015615 451.5184890351652 L 675.2727938674783 451.8914736069593 L 673.925103138204 452.1595459604149 L 672.5605341752373 452.32105334032974 L 671.1875 452.375 L 669.8144658247627 452.32105334032974 L 668.449896861796 452.1595459604149 L 667.1022061325217 451.8914736069593 L 665.7797025984385 451.5184890351652 L 664.4905399336109 451.0428918189475 L 663.2426662545579 450.46761417329645 L 662.0437751174709 449.7962028761966 L 660.9012580848818 449.0327974015616 L 659.8221591542218 448.18210439800055 L 658.8131313292354 447.24936867076457 L 657.8803956019995 446.24034084577823 L 657.0297025984385 445.1612419151183 L 656.2662971238034 444.0187248825291 L 655.5948858267036 442.81983374544205 L 655.0196081810525 441.57196006638907 L 654.5440109648348 440.2827974015616 L 654.1710263930406 438.96029386747836 L 653.9029540395851 437.61260313820407 L 653.7414466596703 436.2480341752373 L 653.6875 434.875 L 653.7414466596703 433.5019658247627 L 653.9029540395851 432.13739686179593 L 654.1710263930406 430.78970613252164 L 654.5440109648348 429.4672025984384 L 655.0196081810525 428.17803993361093 L 655.5948858267036 426.93016625455795 L 656.2662971238034 425.7312751174709 L 657.0297025984385 424.5887580848817 L 657.8803956019995 423.50965915422177 L 658.8131313292354 422.50063132923543 L 659.8221591542218 421.56789560199945 L 660.9012580848818 420.7172025984384 L 662.0437751174709 419.9537971238034 L 663.2426662545579 419.28238582670355 L 664.490539933611 418.7071081810525 L 665.7797025984385 418.2315109648348 L 667.1022061325217 417.8585263930407 L 668.449896861796 417.5904540395851 L 669.8144658247628 417.42894665967026 L 671.1875000000001 417.375 L 672.5605341752373 417.42894665967026 L 673.9251031382041 417.5904540395851 L 675.2727938674784 417.8585263930407 L 676.5952974015617 418.23151096483485 L 677.8844600663891 418.7071081810525 L 679.1323337454421 419.2823858267036 L 680.3312248825292 419.95379712380344 L 681.4737419151184 420.7172025984385 L 682.5528408457783 421.56789560199957 L 683.5618686707646 422.5006313292355 L 684.4946043980007 423.5096591542219 L 685.3452974015617 424.5887580848818 L 686.1087028761967 425.73127511747106 L 686.7801141732965 426.93016625455806 L 687.3553918189476 428.1780399336111 L 687.8309890351652 429.4672025984386 L 688.2039736069594 430.7897061325218 L 688.4720459604149 432.13739686179616 L 688.6335533403297 433.5019658247629 Z" fill-opacity="1" stroke-opacity="1" stroke-miterlimit="10" stroke-width="6"/><text fill="rgb(255,255,255)" stroke="none" font-family="times new roman" font-size="10px" font-style="normal" font-weight="normal" text-decoration="normal" x="671.1875" y="439.875" text-anchor="middle" dominant-baseline="text-after-edge" fill-opacity="1">*4.5</text><path fill="rgb(69,90,100)" stroke="rgb(76,175,80)" paint-order="fill stroke markers" d=" M 389.4375 568 L 389.38355334032974 569.3730341752373 L 389.2220459604149 570.737603138204 L 388.9539736069593 572.0852938674783 L 388.5809890351652 573.4077974015615 L 388.1053918189475 574.6969600663891 L 387.53011417329645 575.9448337454421 L 386.8587028761966 577.1437248825291 L 386.0952974015616 578.2862419151182 L 385.24460439800055 579.3653408457782 L 384.31186867076457 580.3743686707646 L 383.30284084577823 581.3071043980005 L 382.2237419151183 582.1577974015615 L 381.0812248825291 582.9212028761966 L 379.88233374544205 583.5926141732964 L 378.63446006638907 584.1678918189475 L 377.3452974015616 584.6434890351652 L 376.02279386747836 585.0164736069594 L 374.67510313820407 585.2845459604149 L 373.3105341752373 585.4460533403297 L 371.9375 585.5 L 370.5644658247627 585.4460533403297 L 369.19989686179593 585.2845459604149 L 367.85220613252164 585.0164736069594 L 366.5297025984384 584.6434890351652 L 365.24053993361093 584.1678918189475 L 363.99266625455795 583.5926141732964 L 362.7937751174709 582.9212028761966 L 361.6512580848817 582.1577974015615 L 360.57215915422177 581.3071043980005 L 359.56313132923543 580.3743686707646 L 358.63039560199945 579.3653408457782 L 357.7797025984384 578.2862419151182 L 357.0162971238034 577.1437248825291 L 356.34488582670355 575.9448337454421 L 355.7696081810525 574.6969600663891 L 355.2940109648348 573.4077974015615 L 354.9210263930407 572.0852938674783 L 354.6529540395851 570.737603138204 L 354.49144665967026 569.3730341752373 L 354.4375 568 L 354.49144665967026 566.6269658247627 L 354.6529540395851 565.262396861796 L 354.9210263930407 563.9147061325217 L 355.2940109648348 562.5922025984385 L 355.7696081810525 561.3030399336109 L 356.34488582670355 560.0551662545579 L 357.0162971238034 558.8562751174709 L 357.7797025984384 557.7137580848818 L 358.63039560199945 556.6346591542218 L 359.56313132923543 555.6256313292354 L 360.57215915422177 554.6928956019995 L 361.6512580848817 553.8422025984385 L 362.7937751174709 553.0787971238034 L 363.99266625455795 552.4073858267036 L 365.24053993361093 551.8321081810525 L 366.52970259843846 551.3565109648348 L 367.8522061325217 550.9835263930406 L 369.199896861796 550.7154540395851 L 370.56446582476275 550.5539466596703 L 371.93750000000006 550.5 L 373.31053417523736 550.5539466596703 L 374.6751031382041 550.7154540395851 L 376.0227938674784 550.9835263930406 L 377.34529740156165 551.3565109648348 L 378.6344600663892 551.8321081810525 L 379.88233374544217 552.4073858267036 L 381.0812248825292 553.0787971238035 L 382.22374191511835 553.8422025984385 L 383.3028408457783 554.6928956019996 L 384.3118686707647 555.6256313292355 L 385.24460439800066 556.6346591542219 L 386.09529740156165 557.7137580848819 L 386.8587028761967 558.856275117471 L 387.5301141732965 560.0551662545581 L 388.10539181894757 561.3030399336111 L 388.58098903516526 562.5922025984386 L 388.9539736069594 563.9147061325218 L 389.22204596041496 565.2623968617961 L 389.38355334032974 566.6269658247629 Z" fill-opacity="1" stroke-opacity="1" stroke-miterlimit="10" stroke-width="6"/><text fill="rgb(255,255,255)" stroke="none" font-family="times new roman" font-size="10px" font-style="normal" font-weight="normal" text-decoration="normal" x="371.9375" y="573" text-anchor="middle" dominant-baseline="text-after-edge" fill-opacity="1">*1.58</text><path fill="rgb(69,90,100)" stroke="rgb(76,175,80)" paint-order="fill stroke markers" d=" M 497.6875 424.875 L 497.6875 444.875 L 592.6875 444.875 L 592.6875 424.875 Z" fill-opacity="1" stroke-opacity="1" stroke-miterlimit="10" stroke-width="6"/><text fill="rgb(255,255,255)" stroke="none" font-family="times new roman" font-size="10px" font-style="normal" font-weight="normal" text-decoration="normal" x="545.1875" y="439.875" text-anchor="middle" dominant-baseline="text-after-edge" fill-opacity="1">42130482C&gt;A</text><path fill="rgb(69,90,100)" stroke="rgb(244,67,54)" paint-order="fill stroke markers" d=" M 1015.3125 434.875 L 1015.2585533403297 436.2480341752373 L 1015.0970459604149 437.61260313820407 L 1014.8289736069594 438.96029386747836 L 1014.4559890351652 440.2827974015616 L 1013.9803918189475 441.57196006638907 L 1013.4051141732964 442.81983374544205 L 1012.7337028761966 444.0187248825291 L 1011.9702974015615 445.1612419151183 L 1011.1196043980005 446.24034084577823 L 1010.1868686707646 447.24936867076457 L 1009.1778408457782 448.18210439800055 L 1008.0987419151182 449.0327974015616 L 1006.9562248825291 449.7962028761966 L 1005.7573337454421 450.46761417329645 L 1004.5094600663891 451.0428918189475 L 1003.2202974015615 451.5184890351652 L 1001.8977938674783 451.8914736069593 L 1000.550103138204 452.1595459604149 L 999.1855341752373 452.32105334032974 L 997.8125 452.375 L 996.4394658247627 452.32105334032974 L 995.074896861796 452.1595459604149 L 993.7272061325217 451.8914736069593 L 992.4047025984385 451.5184890351652 L 991.1155399336109 451.0428918189475 L 989.8676662545579 450.46761417329645 L 988.6687751174709 449.7962028761966 L 987.5262580848818 449.0327974015616 L 986.4471591542218 448.18210439800055 L 985.4381313292354 447.24936867076457 L 984.5053956019995 446.24034084577823 L 983.6547025984385 445.1612419151183 L 982.8912971238034 444.0187248825291 L 982.2198858267036 442.81983374544205 L 981.6446081810525 441.57196006638907 L 981.1690109648348 440.2827974015616 L 980.7960263930406 438.96029386747836 L 980.5279540395851 437.61260313820407 L 980.3664466596703 436.2480341752373 L 980.3125 434.875 L 980.3664466596703 433.5019658247627 L 980.5279540395851 432.13739686179593 L 980.7960263930406 430.78970613252164 L 981.1690109648348 429.4672025984384 L 981.6446081810525 428.17803993361093 L 982.2198858267036 426.93016625455795 L 982.8912971238034 425.7312751174709 L 983.6547025984385 424.5887580848817 L 984.5053956019995 423.50965915422177 L 985.4381313292354 422.50063132923543 L 986.4471591542218 421.56789560199945 L 987.5262580848818 420.7172025984384 L 988.6687751174709 419.9537971238034 L 989.8676662545579 419.28238582670355 L 991.115539933611 418.7071081810525 L 992.4047025984385 418.2315109648348 L 993.7272061325217 417.8585263930407 L 995.074896861796 417.5904540395851 L 996.4394658247628 417.42894665967026 L 997.8125000000001 417.375 L 999.1855341752373 417.42894665967026 L 1000.5501031382041 417.5904540395851 L 1001.8977938674784 417.8585263930407 L 1003.2202974015617 418.23151096483485 L 1004.5094600663891 418.7071081810525 L 1005.7573337454421 419.2823858267036 L 1006.9562248825292 419.95379712380344 L 1008.0987419151184 420.7172025984385 L 1009.1778408457783 421.56789560199957 L 1010.1868686707646 422.5006313292355 L 1011.1196043980007 423.5096591542219 L 1011.9702974015617 424.5887580848818 L 1012.7337028761967 425.73127511747106 L 1013.4051141732965 426.93016625455806 L 1013.9803918189476 428.1780399336111 L 1014.4559890351652 429.4672025984386 L 1014.8289736069594 430.7897061325218 L 1015.0970459604149 432.13739686179616 L 1015.2585533403297 433.5019658247629 Z" fill-opacity="1" stroke-opacity="1" stroke-miterlimit="10" stroke-width="6"/><text fill="rgb(255,255,255)" stroke="none" font-family="times new roman" font-size="10px" font-style="normal" font-weight="normal" text-decoration="normal" x="997.8125" y="439.875" text-anchor="middle" dominant-baseline="text-after-edge" fill-opacity="1">*4.9</text><path fill="rgb(69,90,100)" stroke="rgb(244,67,54)" paint-order="fill stroke markers" d=" M 932.4375 568 L 932.3835533403297 569.3730341752373 L 932.2220459604149 570.737603138204 L 931.9539736069594 572.0852938674783 L 931.5809890351652 573.4077974015615 L 931.1053918189475 574.6969600663891 L 930.5301141732964 575.9448337454421 L 929.8587028761966 577.1437248825291 L 929.0952974015615 578.2862419151182 L 928.2446043980005 579.3653408457782 L 927.3118686707646 580.3743686707646 L 926.3028408457782 581.3071043980005 L 925.2237419151182 582.1577974015615 L 924.0812248825291 582.9212028761966 L 922.8823337454421 583.5926141732964 L 921.6344600663891 584.1678918189475 L 920.3452974015615 584.6434890351652 L 919.0227938674783 585.0164736069594 L 917.675103138204 585.2845459604149 L 916.3105341752373 585.4460533403297 L 914.9375 585.5 L 913.5644658247627 585.4460533403297 L 912.199896861796 585.2845459604149 L 910.8522061325217 585.0164736069594 L 909.5297025984385 584.6434890351652 L 908.2405399336109 584.1678918189475 L 906.9926662545579 583.5926141732964 L 905.7937751174709 582.9212028761966 L 904.6512580848818 582.1577974015615 L 903.5721591542218 581.3071043980005 L 902.5631313292354 580.3743686707646 L 901.6303956019995 579.3653408457782 L 900.7797025984385 578.2862419151182 L 900.0162971238034 577.1437248825291 L 899.3448858267036 575.9448337454421 L 898.7696081810525 574.6969600663891 L 898.2940109648348 573.4077974015615 L 897.9210263930406 572.0852938674783 L 897.6529540395851 570.737603138204 L 897.4914466596703 569.3730341752373 L 897.4375 568 L 897.4914466596703 566.6269658247627 L 897.6529540395851 565.262396861796 L 897.9210263930406 563.9147061325217 L 898.2940109648348 562.5922025984385 L 898.7696081810525 561.3030399336109 L 899.3448858267036 560.0551662545579 L 900.0162971238034 558.8562751174709 L 900.7797025984385 557.7137580848818 L 901.6303956019995 556.6346591542218 L 902.5631313292354 555.6256313292354 L 903.5721591542218 554.6928956019995 L 904.6512580848818 553.8422025984385 L 905.7937751174709 553.0787971238034 L 906.9926662545579 552.4073858267036 L 908.240539933611 551.8321081810525 L 909.5297025984385 551.3565109648348 L 910.8522061325217 550.9835263930406 L 912.199896861796 550.7154540395851 L 913.5644658247628 550.5539466596703 L 914.9375000000001 550.5 L 916.3105341752373 550.5539466596703 L 917.6751031382041 550.7154540395851 L 919.0227938674784 550.9835263930406 L 920.3452974015617 551.3565109648348 L 921.6344600663891 551.8321081810525 L 922.8823337454421 552.4073858267036 L 924.0812248825292 553.0787971238035 L 925.2237419151184 553.8422025984385 L 926.3028408457783 554.6928956019996 L 927.3118686707646 555.6256313292355 L 928.2446043980007 556.6346591542219 L 929.0952974015617 557.7137580848819 L 929.8587028761967 558.856275117471 L 930.5301141732965 560.0551662545581 L 931.1053918189476 561.3030399336111 L 931.5809890351652 562.5922025984386 L 931.9539736069594 563.9147061325218 L 932.2220459604149 565.2623968617961 L 932.3835533403297 566.6269658247629 Z" fill-opacity="1" stroke-opacity="1" stroke-miterlimit="10" stroke-width="6"/><text fill="rgb(255,255,255)" stroke="none" font-family="times new roman" font-size="10px" font-style="normal" font-weight="normal" text-decoration="normal" x="914.9375" y="573" text-anchor="middle" dominant-baseline="text-after-edge" fill-opacity="1">*4.11</text><path fill="rgb(69,90,100)" stroke="rgb(244,67,54)" paint-order="fill stroke markers" d=" M 758.4375 434.875 L 758.3835533403297 436.2480341752373 L 758.2220459604149 437.61260313820407 L 757.9539736069594 438.96029386747836 L 757.5809890351652 440.2827974015616 L 757.1053918189475 441.57196006638907 L 756.5301141732964 442.81983374544205 L 755.8587028761966 444.0187248825291 L 755.0952974015615 445.1612419151183 L 754.2446043980005 446.24034084577823 L 753.3118686707646 447.24936867076457 L 752.3028408457782 448.18210439800055 L 751.2237419151182 449.0327974015616 L 750.0812248825291 449.7962028761966 L 748.8823337454421 450.46761417329645 L 747.6344600663891 451.0428918189475 L 746.3452974015615 451.5184890351652 L 745.0227938674783 451.8914736069593 L 743.675103138204 452.1595459604149 L 742.3105341752373 452.32105334032974 L 740.9375 452.375 L 739.5644658247627 452.32105334032974 L 738.199896861796 452.1595459604149 L 736.8522061325217 451.8914736069593 L 735.5297025984385 451.5184890351652 L 734.2405399336109 451.0428918189475 L 732.9926662545579 450.46761417329645 L 731.7937751174709 449.7962028761966 L 730.6512580848818 449.0327974015616 L 729.5721591542218 448.18210439800055 L 728.5631313292354 447.24936867076457 L 727.6303956019995 446.24034084577823 L 726.7797025984385 445.1612419151183 L 726.0162971238034 444.0187248825291 L 725.3448858267036 442.81983374544205 L 724.7696081810525 441.57196006638907 L 724.2940109648348 440.2827974015616 L 723.9210263930406 438.96029386747836 L 723.6529540395851 437.61260313820407 L 723.4914466596703 436.2480341752373 L 723.4375 434.875 L 723.4914466596703 433.5019658247627 L 723.6529540395851 432.13739686179593 L 723.9210263930406 430.78970613252164 L 724.2940109648348 429.4672025984384 L 724.7696081810525 428.17803993361093 L 725.3448858267036 426.93016625455795 L 726.0162971238034 425.7312751174709 L 726.7797025984385 424.5887580848817 L 727.6303956019995 423.50965915422177 L 728.5631313292354 422.50063132923543 L 729.5721591542218 421.56789560199945 L 730.6512580848818 420.7172025984384 L 731.7937751174709 419.9537971238034 L 732.9926662545579 419.28238582670355 L 734.240539933611 418.7071081810525 L 735.5297025984385 418.2315109648348 L 736.8522061325217 417.8585263930407 L 738.199896861796 417.5904540395851 L 739.5644658247628 417.42894665967026 L 740.9375000000001 417.375 L 742.3105341752373 417.42894665967026 L 743.6751031382041 417.5904540395851 L 745.0227938674784 417.8585263930407 L 746.3452974015617 418.23151096483485 L 747.6344600663891 418.7071081810525 L 748.8823337454421 419.2823858267036 L 750.0812248825292 419.95379712380344 L 751.2237419151184 420.7172025984385 L 752.3028408457783 421.56789560199957 L 753.3118686707646 422.5006313292355 L 754.2446043980007 423.5096591542219 L 755.0952974015617 424.5887580848818 L 755.8587028761967 425.73127511747106 L 756.5301141732965 426.93016625455806 L 757.1053918189476 428.1780399336111 L 757.5809890351652 429.4672025984386 L 757.9539736069594 430.7897061325218 L 758.2220459604149 432.13739686179616 L 758.3835533403297 433.5019658247629 Z" fill-opacity="1" stroke-opacity="1" stroke-miterlimit="10" stroke-width="6"/><text fill="rgb(255,255,255)" stroke="none" font-family="times new roman" font-size="10px" font-style="normal" font-weight="normal" text-decoration="normal" x="740.9375" y="439.875" text-anchor="middle" dominant-baseline="text-after-edge" fill-opacity="1">*4.2</text><path fill="rgb(69,90,100)" stroke="rgb(76,175,80)" paint-order="fill stroke markers" d=" M 802.5625 424.875 L 802.5625 444.875 L 897.5625 444.875 L 897.5625 424.875 Z" fill-opacity="1" stroke-opacity="1" stroke-miterlimit="10" stroke-width="6"/><text fill="rgb(255,255,255)" stroke="none" font-family="times new roman" font-size="10px" font-style="normal" font-weight="normal" text-decoration="normal" x="850.0625" y="439.875" text-anchor="middle" dominant-baseline="text-after-edge" fill-opacity="1">42130047G&gt;C</text><path fill="rgb(69,90,100)" stroke="rgb(76,175,80)" paint-order="fill stroke markers" d=" M 874.9375 343.875 L 874.9375 363.875 L 969.9375 363.875 L 969.9375 343.875 Z" fill-opacity="1" stroke-opacity="1" stroke-miterlimit="10" stroke-width="6"/><text fill="rgb(255,255,255)" stroke="none" font-family="times new roman" font-size="10px" font-style="normal" font-weight="normal" text-decoration="normal" x="922.4375" y="358.875" text-anchor="middle" dominant-baseline="text-after-edge" fill-opacity="1">42129796G&gt;C</text><path fill="rgb(69,90,100)" stroke="rgb(76,175,80)" paint-order="fill stroke markers" d=" M 470.4375 434.875 L 470.38355334032974 436.2480341752373 L 470.2220459604149 437.61260313820407 L 469.9539736069593 438.96029386747836 L 469.5809890351652 440.2827974015616 L 469.1053918189475 441.57196006638907 L 468.53011417329645 442.81983374544205 L 467.8587028761966 444.0187248825291 L 467.0952974015616 445.1612419151183 L 466.24460439800055 446.24034084577823 L 465.31186867076457 447.24936867076457 L 464.30284084577823 448.18210439800055 L 463.2237419151183 449.0327974015616 L 462.0812248825291 449.7962028761966 L 460.88233374544205 450.46761417329645 L 459.63446006638907 451.0428918189475 L 458.3452974015616 451.5184890351652 L 457.02279386747836 451.8914736069593 L 455.67510313820407 452.1595459604149 L 454.3105341752373 452.32105334032974 L 452.9375 452.375 L 451.5644658247627 452.32105334032974 L 450.19989686179593 452.1595459604149 L 448.85220613252164 451.8914736069593 L 447.5297025984384 451.5184890351652 L 446.24053993361093 451.0428918189475 L 444.99266625455795 450.46761417329645 L 443.7937751174709 449.7962028761966 L 442.6512580848817 449.0327974015616 L 441.57215915422177 448.18210439800055 L 440.56313132923543 447.24936867076457 L 439.63039560199945 446.24034084577823 L 438.7797025984384 445.1612419151183 L 438.0162971238034 444.0187248825291 L 437.34488582670355 442.81983374544205 L 436.7696081810525 441.57196006638907 L 436.2940109648348 440.2827974015616 L 435.9210263930407 438.96029386747836 L 435.6529540395851 437.61260313820407 L 435.49144665967026 436.2480341752373 L 435.4375 434.875 L 435.49144665967026 433.5019658247627 L 435.6529540395851 432.13739686179593 L 435.9210263930407 430.78970613252164 L 436.2940109648348 429.4672025984384 L 436.7696081810525 428.17803993361093 L 437.34488582670355 426.93016625455795 L 438.0162971238034 425.7312751174709 L 438.7797025984384 424.5887580848817 L 439.63039560199945 423.50965915422177 L 440.56313132923543 422.50063132923543 L 441.57215915422177 421.56789560199945 L 442.6512580848817 420.7172025984384 L 443.7937751174709 419.9537971238034 L 444.99266625455795 419.28238582670355 L 446.24053993361093 418.7071081810525 L 447.52970259843846 418.2315109648348 L 448.8522061325217 417.8585263930407 L 450.199896861796 417.5904540395851 L 451.56446582476275 417.42894665967026 L 452.93750000000006 417.375 L 454.31053417523736 417.42894665967026 L 455.6751031382041 417.5904540395851 L 457.0227938674784 417.8585263930407 L 458.34529740156165 418.23151096483485 L 459.6344600663892 418.7071081810525 L 460.88233374544217 419.2823858267036 L 462.0812248825292 419.95379712380344 L 463.22374191511835 420.7172025984385 L 464.3028408457783 421.56789560199957 L 465.3118686707647 422.5006313292355 L 466.24460439800066 423.5096591542219 L 467.09529740156165 424.5887580848818 L 467.8587028761967 425.73127511747106 L 468.5301141732965 426.93016625455806 L 469.10539181894757 428.1780399336111 L 469.58098903516526 429.4672025984386 L 469.9539736069594 430.7897061325218 L 470.22204596041496 432.13739686179616 L 470.38355334032974 433.5019658247629 Z" fill-opacity="1" stroke-opacity="1" stroke-miterlimit="10" stroke-width="6"/><text fill="rgb(255,255,255)" stroke="none" font-family="times new roman" font-size="10px" font-style="normal" font-weight="normal" text-decoration="normal" x="452.9375" y="439.875" text-anchor="middle" dominant-baseline="text-after-edge" fill-opacity="1">*1.41</text><path fill="rgb(176,190,197)" stroke="none" paint-order="stroke fill markers" d=" M 596.75 463 L 596.75 673 L 671.75 673 L 671.75 463.00000000000006 Z" fill-opacity="0.8"/><text fill="rgb(0,0,0)" stroke="none" font-family="times new roman" font-size="10px" font-style="normal" font-weight="normal" text-decoration="normal" x="601.75" y="478" text-anchor="start" dominant-baseline="text-after-edge" fill-opacity="0.8">42126390G&gt;A </text><text fill="rgb(0,0,0)" stroke="none" font-family="times new roman" font-size="10px" font-style="normal" font-weight="normal" text-decoration="normal" x="601.75" y="488" text-anchor="start" dominant-baseline="text-after-edge" fill-opacity="0.8">42126462G&gt;A </text><text fill="rgb(0,0,0)" stroke="none" font-family="times new roman" font-size="10px" font-style="normal" font-weight="normal" text-decoration="normal" x="601.75" y="498" text-anchor="start" dominant-baseline="text-after-edge" fill-opacity="0.8">42127209T&gt;C </text><text fill="rgb(0,0,0)" stroke="none" font-family="times new roman" font-size="10px" font-style="normal" font-weight="normal" text-decoration="normal" x="601.75" y="508" text-anchor="start" dominant-baseline="text-after-edge" fill-opacity="0.8">42128694T&gt;C </text><text fill="rgb(0,0,0)" stroke="none" font-family="times new roman" font-size="10px" font-style="normal" font-weight="normal" text-decoration="normal" x="601.75" y="518" text-anchor="start" dominant-baseline="text-after-edge" fill-opacity="0.8">42131791C&gt;T </text><text fill="rgb(0,0,0)" stroke="none" font-family="times new roman" font-size="10px" font-style="normal" font-weight="normal" text-decoration="normal" x="601.75" y="528" text-anchor="start" dominant-baseline="text-after-edge" fill-opacity="0.8">42132217G&gt;A </text><path fill="rgb(176,190,197)" stroke="none" paint-order="stroke fill markers" d=" M 247.4375 463 L 314.4375 463 L 314.4375 463 A 8 8 0 0 1 322.4375 471 L 322.4375 665 L 322.4375 665 A 8 8 0 0 1 314.4375 673 L 180.4375 673 L 180.4375 673 A 8 8 0 0 1 172.4375 665 L 172.4375 471 L 172.4375 471 A 8 8 0 0 1 180.4375 463 L 247.4375 463 Z" fill-opacity="0.8"/><text fill="rgb(0,0,0)" stroke="none" font-family="times new roman" font-size="10px" font-style="normal" font-weight="normal" text-decoration="normal" x="177.4375" y="478" text-anchor="start" dominant-baseline="text-after-edge" fill-opacity="0.8">42125924A&gt;G </text><text fill="rgb(0,0,0)" stroke="none" font-family="times new roman" font-size="10px" font-style="normal" font-weight="normal" text-decoration="normal" x="177.4375" y="488" text-anchor="start" dominant-baseline="text-after-edge" fill-opacity="0.8">42125980T&gt;C </text><text fill="rgb(0,0,0)" stroke="none" font-family="times new roman" font-size="10px" font-style="normal" font-weight="normal" text-decoration="normal" x="177.4375" y="498" text-anchor="start" dominant-baseline="text-after-edge" fill-opacity="0.8">42126069A&gt;C </text><text fill="rgb(0,0,0)" stroke="none" font-family="times new roman" font-size="10px" font-style="normal" font-weight="normal" text-decoration="normal" x="177.4375" y="508" text-anchor="start" dominant-baseline="text-after-edge" fill-opacity="0.8">42132027C&gt;T </text><text fill="rgb(0,0,0)" stroke="none" font-family="times new roman" font-size="10px" font-style="normal" font-weight="normal" text-decoration="normal" x="177.4375" y="518" text-anchor="start" dominant-baseline="text-after-edge" fill-opacity="0.8">42132844C&gt;A </text><text fill="rgb(0,0,0)" stroke="none" font-family="times new roman" font-size="10px" font-style="normal" font-weight="normal" text-decoration="normal" x="177.4375" y="528" text-anchor="start" dominant-baseline="text-after-edge" fill-opacity="0.8">42132851T&gt;C </text><text fill="rgb(0,0,0)" stroke="none" font-family="times new roman" font-size="10px" font-style="normal" font-weight="normal" text-decoration="normal" x="177.4375" y="538" text-anchor="start" dominant-baseline="text-after-edge" fill-opacity="0.8">42132969C&gt;T </text><text fill="rgb(0,0,0)" stroke="none" font-family="times new roman" font-size="10px" font-style="normal" font-weight="normal" text-decoration="normal" x="177.4375" y="548" text-anchor="start" dominant-baseline="text-after-edge" fill-opacity="0.8">42133212A&gt;G </text><text fill="rgb(0,0,0)" stroke="none" font-family="times new roman" font-size="10px" font-style="normal" font-weight="normal" text-decoration="normal" x="177.4375" y="558" text-anchor="start" dominant-baseline="text-after-edge" fill-opacity="0.8">42133314C&gt;T </text><text fill="rgb(0,0,0)" stroke="none" font-family="times new roman" font-size="10px" font-style="normal" font-weight="normal" text-decoration="normal" x="177.4375" y="568" text-anchor="start" dominant-baseline="text-after-edge" fill-opacity="0.8">42133400T&gt;G </text><text fill="rgb(0,0,0)" stroke="none" font-family="times new roman" font-size="10px" font-style="normal" font-weight="normal" text-decoration="normal" x="177.4375" y="578" text-anchor="start" dominant-baseline="text-after-edge" fill-opacity="0.8">42134096del </text><text fill="rgb(0,0,0)" stroke="none" font-family="times new roman" font-size="10px" font-style="normal" font-weight="normal" text-decoration="normal" x="177.4375" y="588" text-anchor="start" dominant-baseline="text-after-edge" fill-opacity="0.8">42134820T&gt;G </text><text fill="rgb(0,0,0)" stroke="none" font-family="times new roman" font-size="10px" font-style="normal" font-weight="normal" text-decoration="normal" x="177.4375" y="598" text-anchor="start" dominant-baseline="text-after-edge" fill-opacity="0.8">42135064_42135066dup </text><text fill="rgb(0,0,0)" stroke="none" font-family="times new roman" font-size="10px" font-style="normal" font-weight="normal" text-decoration="normal" x="177.4375" y="608" text-anchor="start" dominant-baseline="text-after-edge" fill-opacity="0.8">42135201T&gt;C </text><g transform="scale(1.2080721003134798,1.2080721003134798) translate(111.90999026921827,33.72818683100871)"/></g></svg>