<svg version="1.1" xmlns="http://www.w3.org/2000/svg" xmlns:xlink="http://www.w3.org/1999/xlink" width="1017" height="608"><defs/><g transform="translate(-107.91224049609059,0.5672688056079664) scale(1.0320841197088164,1.0320841197088164)"><path fill="none" stroke="rgb(120,144,156)" paint-order="fill stroke markers" d=" M 400.80994726297143 252.49481496610372 L 463.08920616145656 346.96041354741936" stroke-opacity="1" stroke-linejoin="round" stroke-miterlimit="10"/><path fill="rgb(120,144,156)" stroke="none" paint-order="stroke fill markers" d=" M 455.7696171502029 343.7610203695909 L 464.19005273702857 348.6301850338963 L 463.0331231163775 338.97233776585256 Z" fill-opacity="1"/><path fill="none" stroke="rgb(120,144,156)" paint-order="fill stroke markers" d=" M 201.19163654818965 372.23078432417736 L 747.2274910568765 492.54376921592194" stroke-opacity="1" stroke-linejoin="round" stroke-miterlimit="10"/><path fill="rgb(120,144,156)" stroke="none" paint-order="stroke fill markers" d=" M 739.7484166415768 495.35018078417255 L 749.180640953978 492.97412427799514 L 741.6204611615954 486.8539787317806 Z" fill-opacity="1"/><path fill="none" stroke="rgb(120,144,156)" paint-order="fill stroke markers" d=" M 498.6833421546357 377.60349579267876 L 752.1401994286024 487.57056242205124" stroke-opacity="1" stroke-linejoin="round" stroke-miterlimit="10"/><path fill="rgb(120,144,156)" stroke="none" paint-order="stroke fill markers" d=" M 744.262386699487 488.8944078076562 L 753.9749519524012 488.3666046171728 L 747.725170248266 480.9132343291315 Z" fill-opacity="1"/><path fill="none" stroke="rgb(120,144,156)" paint-order="fill stroke markers" d=" M 183.125 243.875 L 183.125 347.75" stroke-opacity="1" stroke-linejoin="round" stroke-miterlimit="10"/><path fill="rgb(120,144,156)" stroke="none" paint-order="stroke fill markers" d=" M 178.775 341.05 L 183.125 349.75 L 187.475 341.05 Z" fill-opacity="1"/><path fill="none" stroke="rgb(55,71,79)" paint-order="fill stroke markers" d=" M 735.875 169.625 L 735.875 214.375" stroke-opacity="1" stroke-linejoin="round" stroke-miterlimit="10" stroke-width="2"/><path fill="none" stroke="rgb(55,71,79)" paint-order="fill stroke markers" d=" M 493.4627659574468 99.125 L 518.5563019975086 138.76856954228253" stroke-opacity="1" stroke-linejoin="round" stroke-miterlimit="10" stroke-width="2"/><path fill="none" stroke="rgb(120,144,156)" paint-order="fill stroke markers" d=" M 780.5 386.75 L 780.5 479.375" stroke-opacity="1" stroke-linejoin="round" stroke-miterlimit="10"/><path fill="rgb(120,144,156)" stroke="none" paint-order="stroke fill markers" d=" M 776.15 472.675 L 780.5 481.375 L 784.85 472.675 Z" fill-opacity="1"/><path fill="none" stroke="rgb(55,71,79)" paint-order="fill stroke markers" d=" M 295.3945069381315 103.75665801990523 L 317.5563019975086 138.76856954228253" stroke-opacity="1" stroke-linejoin="round" stroke-miterlimit="10" stroke-width="2"/><path fill="none" stroke="rgb(55,71,79)" paint-order="fill stroke markers" d=" M 275.6353862814008 167.89417100502152 L 367.53748229119356 221.10064764226996" stroke-opacity="1" stroke-linejoin="round" stroke-miterlimit="10" stroke-width="2"/><path fill="none" stroke="rgb(120,144,156)" paint-order="fill stroke markers" d=" M 741.6667768064626 250.44501199271423 L 774.0820851604063 348.7805272513167" stroke-opacity="1" stroke-linejoin="round" stroke-miterlimit="10"/><path fill="rgb(120,144,156)" stroke="none" paint-order="stroke fill markers" d=" M 767.8531956051843 343.7791839408803 L 774.7082231935374 350.6799880072858 L 776.11584989365 341.05548349676 Z" fill-opacity="1"/><path fill="none" stroke="rgb(55,71,79)" paint-order="fill stroke markers" d=" M 624.125 169.625 L 624.125 209.375" stroke-opacity="1" stroke-linejoin="round" stroke-miterlimit="10" stroke-width="2"/><path fill="none" stroke="rgb(120,144,156)" paint-order="fill stroke markers" d=" M 344.5526044176006 177.17477710834368 L 372.21951435536954 212.7465184569037" stroke-opacity="1" stroke-linejoin="round" stroke-miterlimit="10"/><path fill="rgb(120,144,156)" stroke="none" paint-order="stroke fill markers" d=" M 364.67243009923254 210.1285002692722 L 373.4473955823994 214.32522289165632 L 371.5397943904066 204.7872169316924 Z" fill-opacity="1"/><path fill="none" stroke="rgb(55,71,79)" paint-order="fill stroke markers" d=" M 565.8554930618685 103.75665801990523 L 543.6936980024914 138.76856954228253" stroke-opacity="1" stroke-linejoin="round" stroke-miterlimit="10" stroke-width="2"/><path fill="none" stroke="rgb(120,144,156)" paint-order="fill stroke markers" d=" M 285.7946675900277 243.875 L 196.1754101388342 352.44061053651296" stroke-opacity="1" stroke-linejoin="round" stroke-miterlimit="10"/><path fill="rgb(120,144,156)" stroke="none" paint-order="stroke fill markers" d=" M 197.0859908102498 344.50440597508407 L 194.90219939358207 353.98298999636535 L 203.79534146060772 350.0428727169308 Z" fill-opacity="1"/><path fill="none" stroke="rgb(120,144,156)" paint-order="fill stroke markers" d=" M 823.0493421052631 243.875 L 787.1355974207912 348.8536383084562" stroke-opacity="1" stroke-linejoin="round" stroke-miterlimit="10"/><path fill="rgb(120,144,156)" stroke="none" paint-order="stroke fill markers" d=" M 785.1884915359661 341.10629820534473 L 786.4882220626653 350.7459662783629 L 793.4201182050604 343.9223810131927 Z" fill-opacity="1"/><path fill="none" stroke="rgb(120,144,156)" paint-order="fill stroke markers" d=" M 824 429.1875 L 792.9328102359441 479.6716833665909" stroke-opacity="1" stroke-linejoin="round" stroke-miterlimit="10"/><path fill="rgb(120,144,156)" stroke="none" paint-order="stroke fill markers" d=" M 792.7395493102304 471.68574884303064 L 791.8846153846154 481.375 L 800.1489766655599 476.24539644631034 Z" fill-opacity="1"/><path fill="none" stroke="rgb(120,144,156)" paint-order="fill stroke markers" d=" M 510.2611154681567 169.43926475734287 L 410.5145342792342 221.1403722845854" stroke-opacity="1" stroke-linejoin="round" stroke-miterlimit="10"/><path fill="rgb(120,144,156)" stroke="none" paint-order="stroke fill markers" d=" M 414.4611714991878 214.19511817446983 L 408.7388845318433 222.06073524265713 L 418.4647503667999 221.91919457562034 Z" fill-opacity="1"/><path fill="none" stroke="rgb(120,144,156)" paint-order="fill stroke markers" d=" M 909.875 416.552752293578 L 805.2333270407532 483.9458297407259" stroke-opacity="1" stroke-linejoin="round" stroke-miterlimit="10"/><path fill="rgb(120,144,156)" stroke="none" paint-order="stroke fill markers" d=" M 808.5108514741702 476.6608909222899 L 803.5518728565702 485.02874794008045 L 813.2215456413626 483.9752166234861 Z" fill-opacity="1"/><path fill="none" stroke="rgb(120,144,156)" paint-order="fill stroke markers" d=" M 606.8385335104842 248.79442449672246 L 495.88265512692135 350.9757308652586" stroke-opacity="1" stroke-linejoin="round" stroke-miterlimit="10"/><path fill="rgb(120,144,156)" stroke="none" paint-order="stroke fill markers" d=" M 497.8643499745389 343.237166041538 L 494.41146648951576 352.33057550327754 L 503.7579241499213 349.6368366142524 Z" fill-opacity="1"/><path fill="none" stroke="rgb(120,144,156)" paint-order="fill stroke markers" d=" M 984.875 243.875 L 984.875 261.25" stroke-opacity="1" stroke-linejoin="round" stroke-miterlimit="10"/><path fill="rgb(120,144,156)" stroke="none" paint-order="stroke fill markers" d=" M 980.525 254.55 L 984.875 263.25 L 989.225 254.55 Z" fill-opacity="1"/><path fill="none" stroke="rgb(55,71,79)" paint-order="fill stroke markers" d=" M 367.7872340425532 99.125 L 342.6936980024914 138.76856954228253" stroke-opacity="1" stroke-linejoin="round" stroke-miterlimit="10" stroke-width="2"/><path fill="rgb(69,90,100)" stroke="rgb(76,175,80)" paint-order="fill stroke markers" d=" M 984.875 222.875 L 1027.375 222.875 L 1027.375 222.875 A 5 5 0 0 1 1032.375 227.875 L 1032.375 237.875 L 1032.375 237.875 A 5 5 0 0 1 1027.375 242.875 L 942.375 242.875 L 942.375 242.875 A 5 5 0 0 1 937.375 237.875 L 937.375 227.875 L 937.375 227.875 A 5 5 0 0 1 942.375 222.875 L 984.875 222.875 Z" fill-opacity="1" stroke-opacity="1" stroke-miterlimit="10" stroke-width="2"/><text fill="rgb(255,255,255)" stroke="none" font-family="times new roman" font-size="10px" font-style="normal" font-weight="normal" text-decoration="normal" x="984.875" y="237.875" text-anchor="middle" dominant-baseline="text-after-edge" fill-opacity="1">42132049dup</text><path fill="rgb(69,90,100)" stroke="rgb(255,193,7)" paint-order="fill stroke markers" d=" M 646.625 232.875 L 646.5556400089954 234.6403296538765 L 646.3479876633907 236.39477546340518 L 646.0033232089477 238.12752068675786 L 645.5237716166409 239.82788237343632 L 644.912289481504 241.48537722821453 L 644.1726467942383 243.08978624413982 L 643.3094036979671 244.63121770610886 L 642.3278823734363 246.10016817658064 L 641.2341342260007 247.48758108742913 L 640.0349025766973 248.7849025766973 L 638.7375810874291 249.9841342260007 L 637.3501681765806 251.07788237343632 L 635.8812177061088 252.05940369796707 L 634.3397862441398 252.9226467942383 L 632.7353772282145 253.66228948150396 L 631.0778823734363 254.27377161664094 L 629.3775206867579 254.75332320894773 L 627.6447754634052 255.0979876633906 L 625.8903296538765 255.30564000899537 L 624.125 255.375 L 622.3596703461235 255.30564000899537 L 620.6052245365948 255.0979876633906 L 618.8724793132421 254.75332320894773 L 617.1721176265637 254.27377161664094 L 615.5146227717855 253.66228948150396 L 613.9102137558602 252.9226467942383 L 612.3687822938912 252.05940369796707 L 610.8998318234194 251.07788237343632 L 609.5124189125709 249.9841342260007 L 608.2150974233027 248.78490257669733 L 607.0158657739993 247.48758108742913 L 605.9221176265637 246.10016817658064 L 604.9405963020329 244.63121770610886 L 604.0773532057617 243.08978624413982 L 603.337710518496 241.48537722821453 L 602.7262283833591 239.82788237343632 L 602.2466767910523 238.12752068675786 L 601.9020123366095 236.3947754634052 L 601.6943599910046 234.6403296538765 L 601.625 232.875 L 601.6943599910046 231.1096703461235 L 601.9020123366093 229.35522453659482 L 602.2466767910523 227.62247931324214 L 602.7262283833591 225.92211762656368 L 603.337710518496 224.26462277178547 L 604.0773532057617 222.6602137558602 L 604.9405963020329 221.11878229389114 L 605.9221176265637 219.64983182341936 L 607.0158657739993 218.26241891257087 L 608.2150974233027 216.9650974233027 L 609.5124189125709 215.7658657739993 L 610.8998318234194 214.67211762656368 L 612.3687822938912 213.69059630203293 L 613.9102137558602 212.8273532057617 L 615.5146227717855 212.08771051849604 L 617.1721176265637 211.47622838335903 L 618.8724793132421 210.99667679105227 L 620.6052245365948 210.6520123366094 L 622.3596703461236 210.4443599910046 L 624.1250000000001 210.375 L 625.8903296538766 210.44435999100463 L 627.6447754634053 210.6520123366094 L 629.377520686758 210.9966767910523 L 631.0778823734364 211.47622838335909 L 632.7353772282146 212.0877105184961 L 634.3397862441399 212.8273532057618 L 635.8812177061089 213.690596302033 L 637.3501681765807 214.67211762656376 L 638.7375810874292 215.76586577399942 L 640.0349025766974 216.9650974233028 L 641.2341342260008 218.262418912571 L 642.3278823734364 219.6498318234195 L 643.3094036979671 221.11878229389131 L 644.1726467942384 222.66021375586038 L 644.912289481504 224.2646227717857 L 645.523771616641 225.9221176265639 L 646.0033232089478 227.62247931324237 L 646.3479876633907 229.35522453659505 L 646.5556400089954 231.10967034612375 Z" fill-opacity="1" stroke-opacity="1" stroke-miterlimit="10" stroke-width="2"/><text fill="rgb(255,255,255)" stroke="none" font-family="times new roman" font-size="15px" font-style="normal" font-weight="normal" text-decoration="normal" x="624.125" y="240.375" text-anchor="middle" dominant-baseline="text-after-edge" fill-opacity="1">*119</text><path fill="rgb(69,90,100)" stroke="rgb(76,175,80)" paint-order="fill stroke markers" d=" M 553.625 158.625 L 553.5556400089954 160.3903296538765 L 553.3479876633907 162.14477546340518 L 553.0033232089477 163.87752068675786 L 552.5237716166409 165.57788237343632 L 551.912289481504 167.23537722821453 L 551.1726467942383 168.83978624413982 L 550.3094036979671 170.38121770610886 L 549.3278823734363 171.85016817658064 L 548.2341342260007 173.23758108742913 L 547.0349025766973 174.5349025766973 L 545.7375810874291 175.7341342260007 L 544.3501681765806 176.82788237343632 L 542.8812177061088 177.80940369796707 L 541.3397862441398 178.6726467942383 L 539.7353772282145 179.41228948150396 L 538.0778823734363 180.02377161664094 L 536.3775206867579 180.50332320894773 L 534.6447754634052 180.8479876633906 L 532.8903296538765 181.05564000899537 L 531.125 181.125 L 529.3596703461235 181.05564000899537 L 527.6052245365948 180.8479876633906 L 525.8724793132421 180.50332320894773 L 524.1721176265637 180.02377161664094 L 522.5146227717855 179.41228948150396 L 520.9102137558602 178.6726467942383 L 519.3687822938912 177.80940369796707 L 517.8998318234194 176.82788237343632 L 516.5124189125709 175.7341342260007 L 515.2150974233027 174.53490257669733 L 514.0158657739993 173.23758108742913 L 512.9221176265637 171.85016817658064 L 511.94059630203293 170.38121770610886 L 511.0773532057617 168.83978624413982 L 510.33771051849607 167.23537722821453 L 509.72622838335906 165.57788237343632 L 509.24667679105227 163.87752068675786 L 508.9020123366094 162.1447754634052 L 508.6943599910046 160.3903296538765 L 508.625 158.625 L 508.6943599910046 156.8596703461235 L 508.9020123366094 155.10522453659482 L 509.24667679105227 153.37247931324214 L 509.72622838335906 151.67211762656368 L 510.33771051849607 150.01462277178547 L 511.0773532057617 148.4102137558602 L 511.94059630203293 146.86878229389114 L 512.9221176265637 145.39983182341936 L 514.0158657739993 144.01241891257087 L 515.2150974233027 142.7150974233027 L 516.5124189125709 141.5158657739993 L 517.8998318234194 140.42211762656368 L 519.3687822938912 139.44059630203293 L 520.9102137558602 138.5773532057617 L 522.5146227717855 137.83771051849604 L 524.1721176265637 137.22622838335903 L 525.8724793132421 136.74667679105227 L 527.6052245365948 136.4020123366094 L 529.3596703461236 136.1943599910046 L 531.1250000000001 136.125 L 532.8903296538766 136.19435999100463 L 534.6447754634053 136.4020123366094 L 536.377520686758 136.7466767910523 L 538.0778823734364 137.22622838335909 L 539.7353772282146 137.8377105184961 L 541.3397862441399 138.5773532057618 L 542.8812177061089 139.440596302033 L 544.3501681765807 140.42211762656376 L 545.7375810874292 141.51586577399942 L 547.0349025766974 142.7150974233028 L 548.2341342260008 144.012418912571 L 549.3278823734364 145.3998318234195 L 550.3094036979671 146.86878229389131 L 551.1726467942384 148.41021375586038 L 551.912289481504 150.0146227717857 L 552.523771616641 151.6721176265639 L 553.0033232089478 153.37247931324237 L 553.3479876633907 155.10522453659505 L 553.5556400089954 156.85967034612375 Z" fill-opacity="1" stroke-opacity="1" stroke-miterlimit="10" stroke-width="2"/><text fill="rgb(255,255,255)" stroke="none" font-family="times new roman" font-size="15px" font-style="normal" font-weight="normal" text-decoration="normal" x="531.125" y="166.125" text-anchor="middle" dominant-baseline="text-after-edge" fill-opacity="1">*34</text><path fill="rgb(69,90,100)" stroke="rgb(76,175,80)" paint-order="fill stroke markers" d=" M 779.3125 222.875 L 779.3125 242.875 L 874.3125 242.875 L 874.3125 222.875 Z" fill-opacity="1" stroke-opacity="1" stroke-miterlimit="10" stroke-width="2"/><text fill="rgb(255,255,255)" stroke="none" font-family="times new roman" font-size="10px" font-style="normal" font-weight="normal" text-decoration="normal" x="826.8125" y="237.875" text-anchor="middle" dominant-baseline="text-after-edge" fill-opacity="1">42130047G&gt;C</text><path fill="rgb(69,90,100)" stroke="rgb(244,67,54)" paint-order="fill stroke markers" d=" M 576.625 148.625 L 576.625 168.625 L 671.625 168.625 L 671.625 148.625 Z" fill-opacity="1" stroke-opacity="1" stroke-miterlimit="10" stroke-width="2"/><text fill="rgb(255,255,255)" stroke="none" font-family="times new roman" font-size="10px" font-style="normal" font-weight="normal" text-decoration="normal" x="624.125" y="163.625" text-anchor="middle" dominant-baseline="text-after-edge" fill-opacity="1">42127803C&gt;T</text><path fill="rgb(69,90,100)" stroke="rgb(76,175,80)" paint-order="fill stroke markers" d=" M 247.375 222.875 L 247.375 242.875 L 342.375 242.875 L 342.375 222.875 Z" fill-opacity="1" stroke-opacity="1" stroke-miterlimit="10" stroke-width="2"/><text fill="rgb(255,255,255)" stroke="none" font-family="times new roman" font-size="10px" font-style="normal" font-weight="normal" text-decoration="normal" x="294.875" y="237.875" text-anchor="middle" dominant-baseline="text-after-edge" fill-opacity="1">42130482C&gt;A</text><path fill="rgb(69,90,100)" stroke="rgb(76,175,80)" paint-order="fill stroke markers" d=" M 753.375 232.875 L 753.3210533403297 234.24803417523728 L 753.1595459604149 235.61260313820404 L 752.8914736069594 236.96029386747836 L 752.5184890351652 238.28279740156157 L 752.0428918189475 239.57196006638907 L 751.4676141732964 240.81983374544205 L 750.7962028761966 242.0187248825291 L 750.0327974015615 243.16124191511827 L 749.1821043980005 244.2403408457782 L 748.2493686707646 245.24936867076457 L 747.2403408457782 246.18210439800055 L 746.1612419151182 247.0327974015616 L 745.0187248825291 247.79620287619662 L 743.8198337454421 248.46761417329643 L 742.5719600663891 249.0428918189475 L 741.2827974015615 249.51848903516517 L 739.9602938674783 249.89147360695935 L 738.612603138204 250.1595459604149 L 737.2480341752373 250.32105334032974 L 735.875 250.375 L 734.5019658247627 250.32105334032974 L 733.137396861796 250.1595459604149 L 731.7897061325217 249.89147360695935 L 730.4672025984385 249.5184890351652 L 729.1780399336109 249.0428918189475 L 727.9301662545579 248.46761417329643 L 726.7312751174709 247.79620287619662 L 725.5887580848818 247.0327974015616 L 724.5096591542218 246.18210439800055 L 723.5006313292354 245.24936867076457 L 722.5678956019995 244.2403408457782 L 721.7172025984385 243.1612419151183 L 720.9537971238034 242.0187248825291 L 720.2823858267036 240.81983374544208 L 719.7071081810525 239.57196006638907 L 719.2315109648348 238.2827974015616 L 718.8585263930406 236.96029386747836 L 718.5904540395851 235.61260313820404 L 718.4289466596703 234.24803417523728 L 718.375 232.875 L 718.4289466596703 231.50196582476272 L 718.5904540395851 230.13739686179596 L 718.8585263930406 228.78970613252164 L 719.2315109648348 227.46720259843843 L 719.7071081810525 226.17803993361093 L 720.2823858267036 224.93016625455795 L 720.9537971238034 223.7312751174709 L 721.7172025984385 222.58875808488173 L 722.5678956019995 221.5096591542218 L 723.5006313292354 220.50063132923543 L 724.5096591542218 219.56789560199945 L 725.5887580848818 218.71720259843843 L 726.7312751174709 217.95379712380338 L 727.9301662545579 217.28238582670355 L 729.178039933611 216.7071081810525 L 730.4672025984385 216.2315109648348 L 731.7897061325217 215.85852639304065 L 733.137396861796 215.5904540395851 L 734.5019658247628 215.42894665967026 L 735.8750000000001 215.375 L 737.2480341752373 215.42894665967026 L 738.6126031382041 215.5904540395851 L 739.9602938674784 215.85852639304068 L 741.2827974015617 216.23151096483485 L 742.5719600663891 216.70710818105252 L 743.8198337454421 217.2823858267036 L 745.0187248825292 217.95379712380344 L 746.1612419151184 218.7172025984385 L 747.2403408457783 219.56789560199954 L 748.2493686707646 220.50063132923552 L 749.1821043980007 221.5096591542219 L 750.0327974015617 222.58875808488185 L 750.7962028761967 223.73127511747103 L 751.4676141732965 224.9301662545581 L 752.0428918189476 226.1780399336111 L 752.5184890351652 227.4672025984386 L 752.8914736069594 228.78970613252184 L 753.1595459604149 230.13739686179616 L 753.3210533403297 231.50196582476292 Z" fill-opacity="1" stroke-opacity="1" stroke-miterlimit="10" stroke-width="2"/><text fill="rgb(255,255,255)" stroke="none" font-family="times new roman" font-size="10px" font-style="normal" font-weight="normal" text-decoration="normal" x="735.875" y="237.875" text-anchor="middle" dominant-baseline="text-after-edge" fill-opacity="1">*1.41</text><path fill="rgb(69,90,100)" stroke="rgb(76,175,80)" paint-order="fill stroke markers" d=" M 688.375 148.625 L 688.375 168.625 L 783.375 168.625 L 783.375 148.625 Z" fill-opacity="1" stroke-opacity="1" stroke-miterlimit="10" stroke-width="2"/><text fill="rgb(255,255,255)" stroke="none" font-family="times new roman" font-size="10px" font-style="normal" font-weight="normal" text-decoration="normal" x="735.875" y="163.625" text-anchor="middle" dominant-baseline="text-after-edge" fill-opacity="1">42127407T&gt;G</text><path fill="rgb(69,90,100)" stroke="rgb(69,90,100)" paint-order="fill stroke markers" d=" M 761.75 482.375 L 743 499.875 L 761.75 517.375 L 799.25 517.375 L 818 499.875 L 799.25 482.375 Z" fill-opacity="1" stroke-opacity="1" stroke-miterlimit="10" stroke-width="2"/><text fill="rgb(255,255,255)" stroke="none" font-family="times new roman" font-size="10px" font-style="normal" font-weight="normal" text-decoration="normal" x="780.5" y="504.875" text-anchor="middle" dominant-baseline="text-after-edge" fill-opacity="1">NA10847-A</text><path fill="rgb(69,90,100)" stroke="rgb(76,175,80)" paint-order="fill stroke markers" d=" M 352.625 158.625 L 352.5556400089954 160.3903296538765 L 352.3479876633906 162.14477546340518 L 352.00332320894773 163.87752068675786 L 351.52377161664094 165.57788237343632 L 350.91228948150393 167.23537722821453 L 350.1726467942383 168.83978624413982 L 349.30940369796707 170.38121770610886 L 348.3278823734363 171.85016817658064 L 347.2341342260007 173.23758108742913 L 346.03490257669733 174.5349025766973 L 344.73758108742913 175.7341342260007 L 343.35016817658067 176.82788237343632 L 341.8812177061088 177.80940369796707 L 340.3397862441398 178.6726467942383 L 338.73537722821453 179.41228948150396 L 337.0778823734363 180.02377161664094 L 335.37752068675786 180.50332320894773 L 333.6447754634052 180.8479876633906 L 331.8903296538765 181.05564000899537 L 330.125 181.125 L 328.3596703461235 181.05564000899537 L 326.6052245365948 180.8479876633906 L 324.87247931324214 180.50332320894773 L 323.1721176265637 180.02377161664094 L 321.51462277178547 179.41228948150396 L 319.9102137558602 178.6726467942383 L 318.3687822938912 177.80940369796707 L 316.89983182341933 176.82788237343632 L 315.51241891257087 175.7341342260007 L 314.21509742330267 174.53490257669733 L 313.0158657739993 173.23758108742913 L 311.9221176265637 171.85016817658064 L 310.94059630203293 170.38121770610886 L 310.0773532057617 168.83978624413982 L 309.33771051849607 167.23537722821453 L 308.72622838335906 165.57788237343632 L 308.24667679105227 163.87752068675786 L 307.9020123366094 162.1447754634052 L 307.6943599910046 160.3903296538765 L 307.625 158.625 L 307.6943599910046 156.8596703461235 L 307.9020123366094 155.10522453659482 L 308.24667679105227 153.37247931324214 L 308.72622838335906 151.67211762656368 L 309.33771051849607 150.01462277178547 L 310.0773532057617 148.4102137558602 L 310.94059630203293 146.86878229389114 L 311.9221176265637 145.39983182341936 L 313.0158657739993 144.01241891257087 L 314.21509742330267 142.7150974233027 L 315.51241891257087 141.5158657739993 L 316.89983182341933 140.42211762656368 L 318.3687822938912 139.44059630203293 L 319.91021375586024 138.5773532057617 L 321.5146227717855 137.83771051849604 L 323.1721176265637 137.22622838335903 L 324.8724793132422 136.74667679105227 L 326.60522453659485 136.4020123366094 L 328.35967034612355 136.1943599910046 L 330.12500000000006 136.125 L 331.8903296538766 136.19435999100463 L 333.64477546340527 136.4020123366094 L 335.377520686758 136.7466767910523 L 337.0778823734364 137.22622838335909 L 338.73537722821465 137.8377105184961 L 340.33978624413993 138.5773532057618 L 341.881217706109 139.440596302033 L 343.3501681765808 140.42211762656376 L 344.73758108742925 141.51586577399942 L 346.03490257669745 142.7150974233028 L 347.23413422600083 144.012418912571 L 348.3278823734364 145.3998318234195 L 349.3094036979672 146.86878229389131 L 350.1726467942384 148.41021375586038 L 350.91228948150405 150.0146227717857 L 351.52377161664106 151.6721176265639 L 352.0033232089478 153.37247931324237 L 352.34798766339065 155.10522453659505 L 352.5556400089954 156.85967034612375 Z" fill-opacity="1" stroke-opacity="1" stroke-miterlimit="10" stroke-width="2"/><text fill="rgb(255,255,255)" stroke="none" font-family="times new roman" font-size="15px" font-style="normal" font-weight="normal" text-decoration="normal" x="330.125" y="166.125" text-anchor="middle" dominant-baseline="text-after-edge" fill-opacity="1">*39</text><path fill="rgb(69,90,100)" stroke="rgb(76,175,80)" paint-order="fill stroke markers" d=" M 303 88.125 L 302.94605334032974 89.49803417523728 L 302.7845459604149 90.86260313820404 L 302.5164736069593 92.21029386747834 L 302.1434890351652 93.53279740156158 L 301.6678918189475 94.82196006638907 L 301.09261417329645 96.06983374544207 L 300.4212028761966 97.2687248825291 L 299.6577974015616 98.41124191511828 L 298.80710439800055 99.4903408457782 L 297.87436867076457 100.49936867076458 L 296.86534084577823 101.43210439800055 L 295.7862419151183 102.28279740156158 L 294.6437248825291 103.04620287619662 L 293.44483374544205 103.71761417329644 L 292.19696006638907 104.29289181894751 L 290.9077974015616 104.76848903516519 L 289.58529386747836 105.14147360695934 L 288.23760313820407 105.4095459604149 L 286.8730341752373 105.57105334032974 L 285.5 105.625 L 284.1269658247627 105.57105334032974 L 282.76239686179593 105.4095459604149 L 281.41470613252164 105.14147360695934 L 280.0922025984384 104.76848903516519 L 278.80303993361093 104.29289181894751 L 277.55516625455795 103.71761417329644 L 276.3562751174709 103.04620287619662 L 275.2137580848817 102.28279740156158 L 274.13465915422177 101.43210439800055 L 273.12563132923543 100.49936867076458 L 272.19289560199945 99.49034084577822 L 271.3422025984384 98.41124191511828 L 270.5787971238034 97.26872488252911 L 269.90738582670355 96.06983374544207 L 269.3321081810525 94.82196006638907 L 268.8565109648348 93.53279740156158 L 268.4835263930407 92.21029386747834 L 268.2154540395851 90.86260313820404 L 268.05394665967026 89.4980341752373 L 268 88.125 L 268.05394665967026 86.75196582476272 L 268.2154540395851 85.38739686179596 L 268.4835263930407 84.03970613252166 L 268.8565109648348 82.71720259843842 L 269.3321081810525 81.42803993361093 L 269.90738582670355 80.18016625455793 L 270.5787971238034 78.9812751174709 L 271.3422025984384 77.83875808488172 L 272.19289560199945 76.7596591542218 L 273.12563132923543 75.75063132923542 L 274.13465915422177 74.81789560199947 L 275.2137580848817 73.96720259843842 L 276.3562751174709 73.20379712380338 L 277.55516625455795 72.53238582670356 L 278.80303993361093 71.95710818105248 L 280.09220259843846 71.4815109648348 L 281.4147061325217 71.10852639304065 L 282.762396861796 70.84045403958508 L 284.12696582476275 70.67894665967026 L 285.50000000000006 70.625 L 286.87303417523736 70.67894665967026 L 288.2376031382041 70.8404540395851 L 289.5852938674784 71.10852639304068 L 290.90779740156165 71.48151096483484 L 292.1969600663892 71.95710818105252 L 293.44483374544217 72.5323858267036 L 294.6437248825292 73.20379712380344 L 295.78624191511835 73.96720259843849 L 296.8653408457783 74.81789560199954 L 297.8743686707647 75.75063132923552 L 298.80710439800066 76.7596591542219 L 299.65779740156165 77.83875808488185 L 300.4212028761967 78.98127511747103 L 301.0926141732965 80.18016625455807 L 301.66789181894757 81.42803993361109 L 302.14348903516526 82.71720259843859 L 302.5164736069594 84.03970613252184 L 302.78454596041496 85.38739686179616 L 302.94605334032974 86.75196582476292 Z" fill-opacity="1" stroke-opacity="1" stroke-miterlimit="10" stroke-width="2"/><text fill="rgb(255,255,255)" stroke="none" font-family="times new roman" font-size="10px" font-style="normal" font-weight="normal" text-decoration="normal" x="285.5" y="93.125" text-anchor="middle" dominant-baseline="text-after-edge" fill-opacity="1">*39.2</text><path fill="rgb(69,90,100)" stroke="rgb(255,193,7)" paint-order="fill stroke markers" d=" M 499.625 368.25 L 499.5556400089954 370.0153296538765 L 499.3479876633906 371.7697754634052 L 499.00332320894773 373.50252068675786 L 498.52377161664094 375.2028823734363 L 497.91228948150393 376.86037722821453 L 497.1726467942383 378.4647862441398 L 496.30940369796707 380.0062177061088 L 495.3278823734363 381.47516817658067 L 494.2341342260007 382.86258108742913 L 493.03490257669733 384.15990257669733 L 491.73758108742913 385.3591342260007 L 490.35016817658067 386.4528823734363 L 488.8812177061088 387.43440369796707 L 487.3397862441398 388.2976467942383 L 485.73537722821453 389.03728948150393 L 484.0778823734363 389.64877161664094 L 482.37752068675786 390.12832320894773 L 480.6447754634052 390.4729876633906 L 478.8903296538765 390.6806400089954 L 477.125 390.75 L 475.3596703461235 390.6806400089954 L 473.6052245365948 390.4729876633906 L 471.87247931324214 390.12832320894773 L 470.1721176265637 389.64877161664094 L 468.51462277178547 389.03728948150393 L 466.9102137558602 388.2976467942383 L 465.3687822938912 387.43440369796707 L 463.89983182341933 386.4528823734363 L 462.51241891257087 385.3591342260007 L 461.21509742330267 384.15990257669733 L 460.0158657739993 382.86258108742913 L 458.9221176265637 381.47516817658067 L 457.94059630203293 380.0062177061088 L 457.0773532057617 378.4647862441398 L 456.33771051849607 376.86037722821453 L 455.72622838335906 375.2028823734363 L 455.24667679105227 373.50252068675786 L 454.9020123366094 371.7697754634052 L 454.6943599910046 370.0153296538765 L 454.625 368.25 L 454.6943599910046 366.4846703461235 L 454.9020123366094 364.7302245365948 L 455.24667679105227 362.99747931324214 L 455.72622838335906 361.2971176265637 L 456.33771051849607 359.63962277178547 L 457.0773532057617 358.0352137558602 L 457.94059630203293 356.4937822938912 L 458.9221176265637 355.02483182341933 L 460.0158657739993 353.63741891257087 L 461.21509742330267 352.34009742330267 L 462.51241891257087 351.14086577399934 L 463.89983182341933 350.0471176265637 L 465.3687822938912 349.06559630203293 L 466.91021375586024 348.2023532057617 L 468.5146227717855 347.462710518496 L 470.1721176265637 346.85122838335906 L 471.8724793132422 346.37167679105227 L 473.60522453659485 346.0270123366094 L 475.35967034612355 345.8193599910046 L 477.12500000000006 345.75 L 478.8903296538766 345.8193599910046 L 480.64477546340527 346.0270123366094 L 482.377520686758 346.3716767910523 L 484.0778823734364 346.85122838335906 L 485.73537722821465 347.4627105184961 L 487.33978624413993 348.20235320576177 L 488.881217706109 349.065596302033 L 490.3501681765808 350.04711762656376 L 491.73758108742925 351.1408657739994 L 493.03490257669745 352.3400974233028 L 494.23413422600083 353.637418912571 L 495.3278823734364 355.0248318234195 L 496.3094036979672 356.49378229389134 L 497.1726467942384 358.0352137558604 L 497.91228948150405 359.6396227717857 L 498.52377161664106 361.29711762656393 L 499.0033232089478 362.99747931324237 L 499.34798766339065 364.7302245365951 L 499.5556400089954 366.4846703461238 Z" fill-opacity="1" stroke-opacity="1" stroke-miterlimit="10" stroke-width="2"/><text fill="rgb(255,255,255)" stroke="none" font-family="times new roman" font-size="15px" font-style="normal" font-weight="normal" text-decoration="normal" x="477.125" y="375.75" text-anchor="middle" dominant-baseline="text-after-edge" fill-opacity="1">*41</text><path fill="rgb(3,169,244)" stroke="none" paint-order="stroke fill markers" d=" M 477.125 335.75 L 501.625 335.75 L 501.625 335.75 A 8 8 0 0 1 509.625 343.75 L 509.625 392.75 L 509.625 392.75 A 8 8 0 0 1 501.625 400.75 L 452.625 400.75 L 452.625 400.75 A 8 8 0 0 1 444.625 392.75 L 444.625 343.75 L 444.625 343.75 A 8 8 0 0 1 452.625 335.75 L 477.125 335.75 Z" fill-opacity="0.15"/><path fill="rgb(69,90,100)" stroke="rgb(76,175,80)" paint-order="fill stroke markers" d=" M 200.625 368.25 L 200.57105334032974 369.6230341752373 L 200.4095459604149 370.98760313820407 L 200.14147360695935 372.33529386747836 L 199.76848903516517 373.6577974015616 L 199.2928918189475 374.94696006638907 L 198.71761417329643 376.19483374544205 L 198.04620287619662 377.3937248825291 L 197.2827974015616 378.5362419151183 L 196.43210439800055 379.61534084577823 L 195.49936867076457 380.62436867076457 L 194.4903408457782 381.55710439800055 L 193.41124191511827 382.4077974015616 L 192.2687248825291 383.1712028761966 L 191.06983374544208 383.84261417329645 L 189.82196006638907 384.4178918189475 L 188.5327974015616 384.8934890351652 L 187.21029386747836 385.2664736069593 L 185.86260313820404 385.5345459604149 L 184.49803417523728 385.69605334032974 L 183.125 385.75 L 181.75196582476272 385.69605334032974 L 180.38739686179596 385.5345459604149 L 179.03970613252164 385.2664736069593 L 177.71720259843843 384.8934890351652 L 176.42803993361093 384.4178918189475 L 175.18016625455795 383.84261417329645 L 173.9812751174709 383.1712028761966 L 172.83875808488173 382.4077974015616 L 171.7596591542218 381.55710439800055 L 170.75063132923543 380.62436867076457 L 169.81789560199945 379.61534084577823 L 168.96720259843843 378.5362419151183 L 168.20379712380338 377.3937248825291 L 167.53238582670357 376.19483374544205 L 166.9571081810525 374.94696006638907 L 166.48151096483483 373.6577974015616 L 166.10852639304065 372.33529386747836 L 165.8404540395851 370.98760313820407 L 165.67894665967026 369.6230341752373 L 165.625 368.25 L 165.67894665967026 366.8769658247627 L 165.8404540395851 365.51239686179593 L 166.10852639304065 364.16470613252164 L 166.4815109648348 362.8422025984384 L 166.9571081810525 361.55303993361093 L 167.53238582670357 360.30516625455795 L 168.20379712380338 359.1062751174709 L 168.9672025984384 357.9637580848817 L 169.81789560199945 356.88465915422177 L 170.7506313292354 355.87563132923543 L 171.75965915422177 354.94289560199945 L 172.8387580848817 354.0922025984384 L 173.9812751174709 353.3287971238034 L 175.18016625455795 352.65738582670355 L 176.42803993361096 352.0821081810525 L 177.71720259843843 351.6065109648348 L 179.0397061325217 351.2335263930407 L 180.387396861796 350.9654540395851 L 181.75196582476278 350.80394665967026 L 183.12500000000006 350.75 L 184.49803417523736 350.80394665967026 L 185.86260313820412 350.9654540395851 L 187.2102938674784 351.2335263930407 L 188.53279740156165 351.60651096483485 L 189.82196006638915 352.0821081810525 L 191.06983374544217 352.6573858267036 L 192.2687248825292 353.32879712380344 L 193.41124191511838 354.0922025984385 L 194.49034084577832 354.94289560199957 L 195.49936867076468 355.8756313292355 L 196.43210439800063 356.8846591542219 L 197.28279740156168 357.9637580848818 L 198.0462028761967 359.10627511747106 L 198.7176141732965 360.30516625455806 L 199.2928918189476 361.5530399336111 L 199.76848903516523 362.8422025984386 L 200.14147360695938 364.1647061325218 L 200.40954596041493 365.51239686179616 L 200.57105334032974 366.8769658247629 Z" fill-opacity="1" stroke-opacity="1" stroke-miterlimit="10" stroke-width="2"/><text fill="rgb(255,255,255)" stroke="none" font-family="times new roman" font-size="10px" font-style="normal" font-weight="normal" text-decoration="normal" x="183.125" y="373.25" text-anchor="middle" dominant-baseline="text-after-edge" fill-opacity="1">*1.58</text><path fill="rgb(69,90,100)" stroke="rgb(158,158,158)" paint-order="fill stroke markers" d=" M 439 78.125 L 439 98.125 L 534 98.125 L 534 78.125 Z" fill-opacity="1" stroke-opacity="1" stroke-miterlimit="10" stroke-width="2"/><text fill="rgb(255,255,255)" stroke="none" font-family="times new roman" font-size="10px" font-style="normal" font-weight="normal" text-decoration="normal" x="486.5" y="93.125" text-anchor="middle" dominant-baseline="text-after-edge" fill-opacity="1">42127941G&gt;A</text><path fill="rgb(69,90,100)" stroke="rgb(76,175,80)" paint-order="fill stroke markers" d=" M 410.375 232.875 L 410.3056400089954 234.6403296538765 L 410.0979876633906 236.39477546340518 L 409.75332320894773 238.12752068675786 L 409.27377161664094 239.82788237343632 L 408.66228948150393 241.48537722821453 L 407.9226467942383 243.08978624413982 L 407.05940369796707 244.63121770610886 L 406.0778823734363 246.10016817658064 L 404.9841342260007 247.48758108742913 L 403.78490257669733 248.7849025766973 L 402.48758108742913 249.9841342260007 L 401.10016817658067 251.07788237343632 L 399.6312177061088 252.05940369796707 L 398.0897862441398 252.9226467942383 L 396.48537722821453 253.66228948150396 L 394.8278823734363 254.27377161664094 L 393.12752068675786 254.75332320894773 L 391.3947754634052 255.0979876633906 L 389.6403296538765 255.30564000899537 L 387.875 255.375 L 386.1096703461235 255.30564000899537 L 384.3552245365948 255.0979876633906 L 382.62247931324214 254.75332320894773 L 380.9221176265637 254.27377161664094 L 379.26462277178547 253.66228948150396 L 377.6602137558602 252.9226467942383 L 376.1187822938912 252.05940369796707 L 374.64983182341933 251.07788237343632 L 373.26241891257087 249.9841342260007 L 371.96509742330267 248.78490257669733 L 370.7658657739993 247.48758108742913 L 369.6721176265637 246.10016817658064 L 368.69059630203293 244.63121770610886 L 367.8273532057617 243.08978624413982 L 367.08771051849607 241.48537722821453 L 366.47622838335906 239.82788237343632 L 365.99667679105227 238.12752068675786 L 365.6520123366094 236.3947754634052 L 365.4443599910046 234.6403296538765 L 365.375 232.875 L 365.4443599910046 231.1096703461235 L 365.6520123366094 229.35522453659482 L 365.99667679105227 227.62247931324214 L 366.47622838335906 225.92211762656368 L 367.08771051849607 224.26462277178547 L 367.8273532057617 222.6602137558602 L 368.69059630203293 221.11878229389114 L 369.6721176265637 219.64983182341936 L 370.7658657739993 218.26241891257087 L 371.96509742330267 216.9650974233027 L 373.26241891257087 215.7658657739993 L 374.64983182341933 214.67211762656368 L 376.1187822938912 213.69059630203293 L 377.66021375586024 212.8273532057617 L 379.2646227717855 212.08771051849604 L 380.9221176265637 211.47622838335903 L 382.6224793132422 210.99667679105227 L 384.35522453659485 210.6520123366094 L 386.10967034612355 210.4443599910046 L 387.87500000000006 210.375 L 389.6403296538766 210.44435999100463 L 391.39477546340527 210.6520123366094 L 393.127520686758 210.9966767910523 L 394.8278823734364 211.47622838335909 L 396.48537722821465 212.0877105184961 L 398.08978624413993 212.8273532057618 L 399.631217706109 213.690596302033 L 401.1001681765808 214.67211762656376 L 402.48758108742925 215.76586577399942 L 403.78490257669745 216.9650974233028 L 404.98413422600083 218.262418912571 L 406.0778823734364 219.6498318234195 L 407.0594036979672 221.11878229389131 L 407.9226467942384 222.66021375586038 L 408.66228948150405 224.2646227717857 L 409.27377161664106 225.9221176265639 L 409.7533232089478 227.62247931324237 L 410.09798766339065 229.35522453659505 L 410.3056400089954 231.10967034612375 Z" fill-opacity="1" stroke-opacity="1" stroke-miterlimit="10" stroke-width="2"/><text fill="rgb(255,255,255)" stroke="none" font-family="times new roman" font-size="15px" font-style="normal" font-weight="normal" text-decoration="normal" x="387.875" y="240.375" text-anchor="middle" dominant-baseline="text-after-edge" fill-opacity="1">*2</text><path fill="rgb(69,90,100)" stroke="rgb(158,158,158)" paint-order="fill stroke markers" d=" M 327.25 78.125 L 327.25 98.125 L 422.25 98.125 L 422.25 78.125 Z" fill-opacity="1" stroke-opacity="1" stroke-miterlimit="10" stroke-width="2"/><text fill="rgb(255,255,255)" stroke="none" font-family="times new roman" font-size="10px" font-style="normal" font-weight="normal" text-decoration="normal" x="374.75" y="93.125" text-anchor="middle" dominant-baseline="text-after-edge" fill-opacity="1">42126611C&gt;G</text><path fill="rgb(69,90,100)" stroke="rgb(76,175,80)" paint-order="fill stroke markers" d=" M 593.25 88.125 L 593.1960533403297 89.49803417523728 L 593.0345459604149 90.86260313820404 L 592.7664736069594 92.21029386747834 L 592.3934890351652 93.53279740156158 L 591.9178918189475 94.82196006638907 L 591.3426141732964 96.06983374544207 L 590.6712028761966 97.2687248825291 L 589.9077974015615 98.41124191511828 L 589.0571043980005 99.4903408457782 L 588.1243686707646 100.49936867076458 L 587.1153408457782 101.43210439800055 L 586.0362419151182 102.28279740156158 L 584.8937248825291 103.04620287619662 L 583.6948337454421 103.71761417329644 L 582.4469600663891 104.29289181894751 L 581.1577974015615 104.76848903516519 L 579.8352938674783 105.14147360695934 L 578.487603138204 105.4095459604149 L 577.1230341752373 105.57105334032974 L 575.75 105.625 L 574.3769658247627 105.57105334032974 L 573.012396861796 105.4095459604149 L 571.6647061325217 105.14147360695934 L 570.3422025984385 104.76848903516519 L 569.0530399336109 104.29289181894751 L 567.8051662545579 103.71761417329644 L 566.6062751174709 103.04620287619662 L 565.4637580848818 102.28279740156158 L 564.3846591542218 101.43210439800055 L 563.3756313292354 100.49936867076458 L 562.4428956019995 99.49034084577822 L 561.5922025984385 98.41124191511828 L 560.8287971238034 97.26872488252911 L 560.1573858267036 96.06983374544207 L 559.5821081810525 94.82196006638907 L 559.1065109648348 93.53279740156158 L 558.7335263930406 92.21029386747834 L 558.4654540395851 90.86260313820404 L 558.3039466596703 89.4980341752373 L 558.25 88.125 L 558.3039466596703 86.75196582476272 L 558.4654540395851 85.38739686179596 L 558.7335263930406 84.03970613252166 L 559.1065109648348 82.71720259843842 L 559.5821081810525 81.42803993361093 L 560.1573858267036 80.18016625455793 L 560.8287971238034 78.9812751174709 L 561.5922025984385 77.83875808488172 L 562.4428956019995 76.7596591542218 L 563.3756313292354 75.75063132923542 L 564.3846591542218 74.81789560199947 L 565.4637580848818 73.96720259843842 L 566.6062751174709 73.20379712380338 L 567.8051662545579 72.53238582670356 L 569.053039933611 71.95710818105248 L 570.3422025984385 71.4815109648348 L 571.6647061325217 71.10852639304065 L 573.012396861796 70.84045403958508 L 574.3769658247628 70.67894665967026 L 575.7500000000001 70.625 L 577.1230341752373 70.67894665967026 L 578.4876031382041 70.8404540395851 L 579.8352938674784 71.10852639304068 L 581.1577974015617 71.48151096483484 L 582.4469600663891 71.95710818105252 L 583.6948337454421 72.5323858267036 L 584.8937248825292 73.20379712380344 L 586.0362419151184 73.96720259843849 L 587.1153408457783 74.81789560199954 L 588.1243686707646 75.75063132923552 L 589.0571043980007 76.7596591542219 L 589.9077974015617 77.83875808488185 L 590.6712028761967 78.98127511747103 L 591.3426141732965 80.18016625455807 L 591.9178918189476 81.42803993361109 L 592.3934890351652 82.71720259843859 L 592.7664736069594 84.03970613252184 L 593.0345459604149 85.38739686179616 L 593.1960533403297 86.75196582476292 Z" fill-opacity="1" stroke-opacity="1" stroke-miterlimit="10" stroke-width="2"/><text fill="rgb(255,255,255)" stroke="none" font-family="times new roman" font-size="10px" font-style="normal" font-weight="normal" text-decoration="normal" x="575.75" y="93.125" text-anchor="middle" dominant-baseline="text-after-edge" fill-opacity="1">*34.1</text><path fill="rgb(69,90,100)" stroke="rgb(76,175,80)" paint-order="fill stroke markers" d=" M 277.125 158.625 L 277.07105334032974 159.99803417523728 L 276.9095459604149 161.36260313820404 L 276.6414736069593 162.71029386747836 L 276.2684890351652 164.03279740156157 L 275.7928918189475 165.32196006638907 L 275.21761417329645 166.56983374544205 L 274.5462028761966 167.7687248825291 L 273.7827974015616 168.91124191511827 L 272.93210439800055 169.9903408457782 L 271.99936867076457 170.99936867076457 L 270.99034084577823 171.93210439800055 L 269.9112419151183 172.7827974015616 L 268.7687248825291 173.54620287619662 L 267.56983374544205 174.21761417329643 L 266.32196006638907 174.7928918189475 L 265.0327974015616 175.26848903516517 L 263.71029386747836 175.64147360695935 L 262.36260313820407 175.9095459604149 L 260.9980341752373 176.07105334032974 L 259.625 176.125 L 258.2519658247627 176.07105334032974 L 256.88739686179593 175.9095459604149 L 255.53970613252164 175.64147360695935 L 254.21720259843843 175.2684890351652 L 252.92803993361093 174.7928918189475 L 251.68016625455795 174.21761417329643 L 250.4812751174709 173.54620287619662 L 249.33875808488173 172.7827974015616 L 248.2596591542218 171.93210439800055 L 247.25063132923543 170.99936867076457 L 246.31789560199945 169.9903408457782 L 245.46720259843843 168.9112419151183 L 244.70379712380338 167.7687248825291 L 244.03238582670357 166.56983374544208 L 243.4571081810525 165.32196006638907 L 242.98151096483483 164.0327974015616 L 242.60852639304065 162.71029386747836 L 242.3404540395851 161.36260313820404 L 242.17894665967026 159.99803417523728 L 242.125 158.625 L 242.17894665967026 157.25196582476272 L 242.3404540395851 155.88739686179596 L 242.60852639304065 154.53970613252164 L 242.9815109648348 153.21720259843843 L 243.4571081810525 151.92803993361093 L 244.03238582670357 150.68016625455795 L 244.70379712380338 149.4812751174709 L 245.4672025984384 148.33875808488173 L 246.31789560199945 147.2596591542218 L 247.2506313292354 146.25063132923543 L 248.25965915422177 145.31789560199945 L 249.3387580848817 144.46720259843843 L 250.4812751174709 143.70379712380338 L 251.68016625455795 143.03238582670355 L 252.92803993361096 142.4571081810525 L 254.21720259843843 141.9815109648348 L 255.5397061325217 141.60852639304065 L 256.887396861796 141.3404540395851 L 258.25196582476275 141.17894665967026 L 259.62500000000006 141.125 L 260.99803417523736 141.17894665967026 L 262.3626031382041 141.3404540395851 L 263.7102938674784 141.60852639304068 L 265.03279740156165 141.98151096483485 L 266.3219600663892 142.45710818105252 L 267.56983374544217 143.0323858267036 L 268.7687248825292 143.70379712380344 L 269.91124191511835 144.4672025984385 L 270.9903408457783 145.31789560199954 L 271.9993686707647 146.25063132923552 L 272.93210439800066 147.2596591542219 L 273.78279740156165 148.33875808488185 L 274.5462028761967 149.48127511747103 L 275.2176141732965 150.6801662545581 L 275.79289181894757 151.9280399336111 L 276.26848903516526 153.2172025984386 L 276.6414736069594 154.53970613252184 L 276.90954596041496 155.88739686179616 L 277.07105334032974 157.25196582476292 Z" fill-opacity="1" stroke-opacity="1" stroke-miterlimit="10" stroke-width="2"/><text fill="rgb(255,255,255)" stroke="none" font-family="times new roman" font-size="10px" font-style="normal" font-weight="normal" text-decoration="normal" x="259.625" y="163.625" text-anchor="middle" dominant-baseline="text-after-edge" fill-opacity="1">*2.4</text><path fill="rgb(69,90,100)" stroke="rgb(76,175,80)" paint-order="fill stroke markers" d=" M 135.625 222.875 L 135.625 242.875 L 230.62499999999997 242.875 L 230.625 222.875 Z" fill-opacity="1" stroke-opacity="1" stroke-miterlimit="10" stroke-width="2"/><text fill="rgb(255,255,255)" stroke="none" font-family="times new roman" font-size="10px" font-style="normal" font-weight="normal" text-decoration="normal" x="183.125" y="237.875" text-anchor="middle" dominant-baseline="text-after-edge" fill-opacity="1">42129950A&gt;C</text><path fill="rgb(69,90,100)" stroke="rgb(76,175,80)" paint-order="fill stroke markers" d=" M 798 368.25 L 797.9460533403297 369.6230341752373 L 797.7845459604149 370.98760313820407 L 797.5164736069594 372.33529386747836 L 797.1434890351652 373.6577974015616 L 796.6678918189475 374.94696006638907 L 796.0926141732964 376.19483374544205 L 795.4212028761966 377.3937248825291 L 794.6577974015615 378.5362419151183 L 793.8071043980005 379.61534084577823 L 792.8743686707646 380.62436867076457 L 791.8653408457782 381.55710439800055 L 790.7862419151182 382.4077974015616 L 789.6437248825291 383.1712028761966 L 788.4448337454421 383.84261417329645 L 787.1969600663891 384.4178918189475 L 785.9077974015615 384.8934890351652 L 784.5852938674783 385.2664736069593 L 783.237603138204 385.5345459604149 L 781.8730341752373 385.69605334032974 L 780.5 385.75 L 779.1269658247627 385.69605334032974 L 777.762396861796 385.5345459604149 L 776.4147061325217 385.2664736069593 L 775.0922025984385 384.8934890351652 L 773.8030399336109 384.4178918189475 L 772.5551662545579 383.84261417329645 L 771.3562751174709 383.1712028761966 L 770.2137580848818 382.4077974015616 L 769.1346591542218 381.55710439800055 L 768.1256313292354 380.62436867076457 L 767.1928956019995 379.61534084577823 L 766.3422025984385 378.5362419151183 L 765.5787971238034 377.3937248825291 L 764.9073858267036 376.19483374544205 L 764.3321081810525 374.94696006638907 L 763.8565109648348 373.6577974015616 L 763.4835263930406 372.33529386747836 L 763.2154540395851 370.98760313820407 L 763.0539466596703 369.6230341752373 L 763 368.25 L 763.0539466596703 366.8769658247627 L 763.2154540395851 365.51239686179593 L 763.4835263930406 364.16470613252164 L 763.8565109648348 362.8422025984384 L 764.3321081810525 361.55303993361093 L 764.9073858267036 360.30516625455795 L 765.5787971238034 359.1062751174709 L 766.3422025984385 357.9637580848817 L 767.1928956019995 356.88465915422177 L 768.1256313292354 355.87563132923543 L 769.1346591542218 354.94289560199945 L 770.2137580848818 354.0922025984384 L 771.3562751174709 353.3287971238034 L 772.5551662545579 352.65738582670355 L 773.803039933611 352.0821081810525 L 775.0922025984385 351.6065109648348 L 776.4147061325217 351.2335263930407 L 777.762396861796 350.9654540395851 L 779.1269658247628 350.80394665967026 L 780.5000000000001 350.75 L 781.8730341752373 350.80394665967026 L 783.2376031382041 350.9654540395851 L 784.5852938674784 351.2335263930407 L 785.9077974015617 351.60651096483485 L 787.1969600663891 352.0821081810525 L 788.4448337454421 352.6573858267036 L 789.6437248825292 353.32879712380344 L 790.7862419151184 354.0922025984385 L 791.8653408457783 354.94289560199957 L 792.8743686707646 355.8756313292355 L 793.8071043980007 356.8846591542219 L 794.6577974015617 357.9637580848818 L 795.4212028761967 359.10627511747106 L 796.0926141732965 360.30516625455806 L 796.6678918189476 361.5530399336111 L 797.1434890351652 362.8422025984386 L 797.5164736069594 364.1647061325218 L 797.7845459604149 365.51239686179616 L 797.9460533403297 366.8769658247629 Z" fill-opacity="1" stroke-opacity="1" stroke-miterlimit="10" stroke-width="2"/><text fill="rgb(255,255,255)" stroke="none" font-family="times new roman" font-size="10px" font-style="normal" font-weight="normal" text-decoration="normal" x="780.5" y="373.25" text-anchor="middle" dominant-baseline="text-after-edge" fill-opacity="1">*1.54</text><path fill="rgb(176,190,197)" stroke="none" paint-order="stroke fill markers" d=" M 824 263.25 L 824 473.25 L 899 473.25 L 899 263.25000000000006 Z" fill-opacity="0.8"/><text fill="rgb(0,0,0)" stroke="none" font-family="times new roman" font-size="10px" font-style="normal" font-weight="normal" text-decoration="normal" x="829" y="278.25" text-anchor="start" dominant-baseline="text-after-edge" fill-opacity="0.8">42126310C&gt;T </text><text fill="rgb(0,0,0)" stroke="none" font-family="times new roman" font-size="10px" font-style="normal" font-weight="normal" text-decoration="normal" x="829" y="288.25" text-anchor="start" dominant-baseline="text-after-edge" fill-opacity="0.8">42127001G&gt;A </text><text fill="rgb(0,0,0)" stroke="none" font-family="times new roman" font-size="10px" font-style="normal" font-weight="normal" text-decoration="normal" x="829" y="298.25" text-anchor="start" dominant-baseline="text-after-edge" fill-opacity="0.8">42127207C&gt;T </text><text fill="rgb(0,0,0)" stroke="none" font-family="times new roman" font-size="10px" font-style="normal" font-weight="normal" text-decoration="normal" x="829" y="308.25" text-anchor="start" dominant-baseline="text-after-edge" fill-opacity="0.8">42129130C&gt;G </text><text fill="rgb(0,0,0)" stroke="none" font-family="times new roman" font-size="10px" font-style="normal" font-weight="normal" text-decoration="normal" x="829" y="318.25" text-anchor="start" dominant-baseline="text-after-edge" fill-opacity="0.8">42131469C&gt;T </text><text fill="rgb(0,0,0)" stroke="none" font-family="times new roman" font-size="10px" font-style="normal" font-weight="normal" text-decoration="normal" x="829" y="328.25" text-anchor="start" dominant-baseline="text-after-edge" fill-opacity="0.8">42131531G&gt;A </text><path fill="rgb(176,190,197)" stroke="none" paint-order="stroke fill markers" d=" M 984.875 263.25 L 1051.875 263.25 L 1051.875 263.25 A 8 8 0 0 1 1059.875 271.25 L 1059.875 465.25 L 1059.875 465.25 A 8 8 0 0 1 1051.875 473.25 L 917.875 473.25 L 917.875 473.25 A 8 8 0 0 1 909.875 465.25 L 909.875 271.25 L 909.875 271.25 A 8 8 0 0 1 917.875 263.25 L 984.875 263.25 Z" fill-opacity="0.8"/><text fill="rgb(0,0,0)" stroke="none" font-family="times new roman" font-size="10px" font-style="normal" font-weight="normal" text-decoration="normal" x="914.875" y="278.25" text-anchor="start" dominant-baseline="text-after-edge" fill-opacity="0.8">42125924A&gt;G </text><text fill="rgb(0,0,0)" stroke="none" font-family="times new roman" font-size="10px" font-style="normal" font-weight="normal" text-decoration="normal" x="914.875" y="288.25" text-anchor="start" dominant-baseline="text-after-edge" fill-opacity="0.8">42126069A&gt;C </text><text fill="rgb(0,0,0)" stroke="none" font-family="times new roman" font-size="10px" font-style="normal" font-weight="normal" text-decoration="normal" x="914.875" y="298.25" text-anchor="start" dominant-baseline="text-after-edge" fill-opacity="0.8">42126136_42126138del </text><text fill="rgb(0,0,0)" stroke="none" font-family="times new roman" font-size="10px" font-style="normal" font-weight="normal" text-decoration="normal" x="914.875" y="308.25" text-anchor="start" dominant-baseline="text-after-edge" fill-opacity="0.8">42132027C&gt;T </text><text fill="rgb(0,0,0)" stroke="none" font-family="times new roman" font-size="10px" font-style="normal" font-weight="normal" text-decoration="normal" x="914.875" y="318.25" text-anchor="start" dominant-baseline="text-after-edge" fill-opacity="0.8">42132561C&gt;T </text><text fill="rgb(0,0,0)" stroke="none" font-family="times new roman" font-size="10px" font-style="normal" font-weight="normal" text-decoration="normal" x="914.875" y="328.25" text-anchor="start" dominant-baseline="text-after-edge" fill-opacity="0.8">42132844C&gt;A </text><text fill="rgb(0,0,0)" stroke="none" font-family="times new roman" font-size="10px" font-style="normal" font-weight="normal" text-decoration="normal" x="914.875" y="338.25" text-anchor="start" dominant-baseline="text-after-edge" fill-opacity="0.8">42132851T&gt;C </text><text fill="rgb(0,0,0)" stroke="none" font-family="times new roman" font-size="10px" font-style="normal" font-weight="normal" text-decoration="normal" x="914.875" y="348.25" text-anchor="start" dominant-baseline="text-after-edge" fill-opacity="0.8">42133400T&gt;G </text><text fill="rgb(0,0,0)" stroke="none" font-family="times new roman" font-size="10px" font-style="normal" font-weight="normal" text-decoration="normal" x="914.875" y="358.25" text-anchor="start" dominant-baseline="text-after-edge" fill-opacity="0.8">42133533A&gt;C </text><text fill="rgb(0,0,0)" stroke="none" font-family="times new roman" font-size="10px" font-style="normal" font-weight="normal" text-decoration="normal" x="914.875" y="368.25" text-anchor="start" dominant-baseline="text-after-edge" fill-opacity="0.8">42134096del </text><text fill="rgb(0,0,0)" stroke="none" font-family="times new roman" font-size="10px" font-style="normal" font-weight="normal" text-decoration="normal" x="914.875" y="378.25" text-anchor="start" dominant-baseline="text-after-edge" fill-opacity="0.8">42134820T&gt;G </text><text fill="rgb(0,0,0)" stroke="none" font-family="times new roman" font-size="10px" font-style="normal" font-weight="normal" text-decoration="normal" x="914.875" y="388.25" text-anchor="start" dominant-baseline="text-after-edge" fill-opacity="0.8">42135064_42135066dup </text><text fill="rgb(0,0,0)" stroke="none" font-family="times new roman" font-size="10px" font-style="normal" font-weight="normal" text-decoration="normal" x="914.875" y="398.25" text-anchor="start" dominant-baseline="text-after-edge" fill-opacity="0.8">42135201T&gt;C </text><text fill="rgb(0,0,0)" stroke="none" font-family="times new roman" font-size="10px" font-style="normal" font-weight="normal" text-decoration="normal" x="914.875" y="408.25" text-anchor="start" dominant-baseline="text-after-edge" fill-opacity="0.8">42135691T&gt;C </text><g transform="scale(0.9689132706374085,0.9689132706374085) translate(107.91224049609059,-0.5672688056079664)"/></g></svg>