<svg version="1.1" xmlns="http://www.w3.org/2000/svg" xmlns:xlink="http://www.w3.org/1999/xlink" width="1017" height="608"><defs/><g transform="translate(-114.63922710428801,56.26416093170991) scale(1.0132345156167284,1.0132345156167284)"><path fill="none" stroke="rgb(55,71,79)" paint-order="fill stroke markers" d=" M 449.75 86.75 L 449.75 127.75" stroke-opacity="1" stroke-linejoin="round" stroke-miterlimit="10" stroke-width="2"/><path fill="none" stroke="rgb(55,71,79)" paint-order="fill stroke markers" d=" M 595.6860027978028 91.19329456441062 L 619.0610234730614 126.63284203980272" stroke-opacity="1" stroke-linejoin="round" stroke-miterlimit="10" stroke-width="2"/><path fill="none" stroke="rgb(120,144,156)" paint-order="fill stroke markers" d=" M 930.5401662049861 157.25 L 974.0537911373248 262.67562819177346" stroke-opacity="1" stroke-linejoin="round" stroke-miterlimit="10"/><path fill="rgb(120,144,156)" stroke="none" paint-order="stroke fill markers" d=" M 967.4766269058267 258.1420412375061 L 974.816835904415 264.52434739257603 L 975.518555429318 254.82279650066346 Z" fill-opacity="1"/><path fill="none" stroke="rgb(120,144,156)" paint-order="fill stroke markers" d=" M 218.75 297.3884730538922 L 465.7468166933287 401.21587743635735" stroke-opacity="1" stroke-linejoin="round" stroke-miterlimit="10"/><path fill="rgb(120,144,156)" stroke="none" paint-order="stroke fill markers" d=" M 457.88464319353005 402.62964115744495 L 467.59054432146996 401.9909054572886 L 461.2560150845809 394.60942597503043 Z" fill-opacity="1"/><path fill="none" stroke="rgb(55,71,79)" paint-order="fill stroke markers" d=" M 795.3377659574468 86.75 L 820.4313019975086 126.39356954228255" stroke-opacity="1" stroke-linejoin="round" stroke-miterlimit="10" stroke-width="2"/><path fill="none" stroke="rgb(120,144,156)" paint-order="fill stroke markers" d=" M 253.29016620498615 157.25 L 260.5240050944056 174.77628079919742" stroke-opacity="1" stroke-linejoin="round" stroke-miterlimit="10"/><path fill="rgb(120,144,156)" stroke="none" paint-order="stroke fill markers" d=" M 253.94684086290758 170.24269384493007 L 261.28704986149586 176.625 L 261.9887693863988 166.92344910808742 Z" fill-opacity="1"/><path fill="none" stroke="rgb(120,144,156)" paint-order="fill stroke markers" d=" M 379.625 333.65069169960475 L 470.3713205074248 396.59922628084206" stroke-opacity="1" stroke-linejoin="round" stroke-miterlimit="10"/><path fill="rgb(120,144,156)" stroke="none" paint-order="stroke fill markers" d=" M 462.38679204548805 396.35467518081913 L 472.0146519365296 397.7391656713871 L 467.34552839435906 389.2061834642131 Z" fill-opacity="1"/><path fill="none" stroke="rgb(120,144,156)" paint-order="fill stroke markers" d=" M 494.375 300.125 L 494.375 392.75" stroke-opacity="1" stroke-linejoin="round" stroke-miterlimit="10"/><path fill="rgb(120,144,156)" stroke="none" paint-order="stroke fill markers" d=" M 490.025 386.05 L 494.375 394.75 L 498.725 386.05 Z" fill-opacity="1"/><path fill="none" stroke="rgb(55,71,79)" paint-order="fill stroke markers" d=" M 867.7304930618685 91.38165801990523 L 845.5686980024914 126.39356954228255" stroke-opacity="1" stroke-linejoin="round" stroke-miterlimit="10" stroke-width="2"/><path fill="none" stroke="rgb(120,144,156)" paint-order="fill stroke markers" d=" M 646.0078394181123 165.11876876842737 L 717.3000040356653 261.1503785704299" stroke-opacity="1" stroke-linejoin="round" stroke-miterlimit="10"/><path fill="rgb(120,144,156)" stroke="none" paint-order="stroke fill markers" d=" M 709.8135500678351 258.3637126436352 L 718.4921605818877 262.75623123157266 L 716.7990091438061 253.1778316675681 Z" fill-opacity="1"/><path fill="none" stroke="rgb(120,144,156)" paint-order="fill stroke markers" d=" M 455.54177680646256 163.82001199271423 L 487.95708516040634 262.1555272513167" stroke-opacity="1" stroke-linejoin="round" stroke-miterlimit="10"/><path fill="rgb(120,144,156)" stroke="none" paint-order="stroke fill markers" d=" M 481.7281956051844 257.1541839408803 L 488.58322319353744 264.0549880072858 L 489.99084989364997 254.43048349676005 Z" fill-opacity="1"/><path fill="none" stroke="rgb(55,71,79)" paint-order="fill stroke markers" d=" M 732.5 164.75 L 732.5 258.125" stroke-opacity="1" stroke-linejoin="round" stroke-miterlimit="10" stroke-width="2"/><path fill="none" stroke="rgb(120,144,156)" paint-order="fill stroke markers" d=" M 1033.2098337950138 157.25 L 989.6962088626752 262.67562819177346" stroke-opacity="1" stroke-linejoin="round" stroke-miterlimit="10"/><path fill="rgb(120,144,156)" stroke="none" paint-order="stroke fill markers" d=" M 988.231444570682 254.82279650066346 L 988.933164095585 264.52434739257603 L 996.2733730941733 258.1420412375061 Z" fill-opacity="1"/><path fill="none" stroke="rgb(120,144,156)" paint-order="fill stroke markers" d=" M 818.9921605818877 165.11876876842737 L 747.6999959643347 261.1503785704299" stroke-opacity="1" stroke-linejoin="round" stroke-miterlimit="10"/><path fill="rgb(120,144,156)" stroke="none" paint-order="stroke fill markers" d=" M 748.2009908561939 253.1778316675681 L 746.5078394181123 262.75623123157266 L 755.1864499321649 258.3637126436352 Z" fill-opacity="1"/><path fill="none" stroke="rgb(120,144,156)" paint-order="fill stroke markers" d=" M 355.9598337950139 157.25 L 348.7259949055944 174.77628079919742" stroke-opacity="1" stroke-linejoin="round" stroke-miterlimit="10"/><path fill="rgb(120,144,156)" stroke="none" paint-order="stroke fill markers" d=" M 347.2612306136012 166.92344910808742 L 347.96295013850414 176.625 L 355.30315913709245 170.24269384493007 Z" fill-opacity="1"/><path fill="none" stroke="rgb(120,144,156)" paint-order="fill stroke markers" d=" M 535.3739612188366 157.25 L 500.79291483959366 262.1555272513167" stroke-opacity="1" stroke-linejoin="round" stroke-miterlimit="10"/><path fill="rgb(120,144,156)" stroke="none" paint-order="stroke fill markers" d=" M 498.75915010635003 254.43048349676005 L 500.16677680646256 264.0549880072858 L 507.0218043948156 257.1541839408803 Z" fill-opacity="1"/><path fill="none" stroke="rgb(120,144,156)" paint-order="fill stroke markers" d=" M 711.9329065116642 292.9935823848911 L 520.5672759075487 398.77206481330774" stroke-opacity="1" stroke-linejoin="round" stroke-miterlimit="10"/><path fill="rgb(120,144,156)" stroke="none" paint-order="stroke fill markers" d=" M 524.3266883755306 391.7237091259447 L 518.8168849723712 399.73960373968146 L 528.5354827052562 399.3379096939669 Z" fill-opacity="1"/><path fill="none" stroke="rgb(55,71,79)" paint-order="fill stroke markers" d=" M 669.6622340425532 86.75 L 644.5686980024914 126.39356954228255" stroke-opacity="1" stroke-linejoin="round" stroke-miterlimit="10" stroke-width="2"/><path fill="none" stroke="rgb(120,144,156)" paint-order="fill stroke markers" d=" M 964.0145619726698 286.44731826737916 L 526.3617712361158 404.6135717662487" stroke-opacity="1" stroke-linejoin="round" stroke-miterlimit="10"/><path fill="rgb(120,144,156)" stroke="none" paint-order="stroke fill markers" d=" M 531.6962496317922 398.6674940467716 L 524.430913070999 405.13490347083024 L 533.9640425467219 407.06672706502957 Z" fill-opacity="1"/><path fill="rgb(69,90,100)" stroke="rgb(76,175,80)" paint-order="fill stroke markers" d=" M 990.25 136.25 L 990.25 156.25 L 1085.25 156.25 L 1085.25 136.25 Z" fill-opacity="1" stroke-opacity="1" stroke-miterlimit="10" stroke-width="2"/><text fill="rgb(255,255,255)" stroke="none" font-family="times new roman" font-size="10px" font-style="normal" font-weight="normal" text-decoration="normal" x="1037.75" y="151.25" text-anchor="middle" dominant-baseline="text-after-edge" fill-opacity="1">42129950A&gt;C</text><path fill="rgb(69,90,100)" stroke="rgb(76,175,80)" paint-order="fill stroke markers" d=" M 895.125 75.75 L 895.0710533403297 77.12303417523728 L 894.9095459604149 78.48760313820404 L 894.6414736069594 79.83529386747834 L 894.2684890351652 81.15779740156158 L 893.7928918189475 82.44696006638907 L 893.2176141732964 83.69483374544207 L 892.5462028761966 84.8937248825291 L 891.7827974015615 86.03624191511828 L 890.9321043980005 87.1153408457782 L 889.9993686707646 88.12436867076458 L 888.9903408457782 89.05710439800055 L 887.9112419151182 89.90779740156158 L 886.7687248825291 90.67120287619662 L 885.5698337454421 91.34261417329644 L 884.3219600663891 91.91789181894751 L 883.0327974015615 92.39348903516519 L 881.7102938674783 92.76647360695934 L 880.362603138204 93.0345459604149 L 878.9980341752373 93.19605334032974 L 877.625 93.25 L 876.2519658247627 93.19605334032974 L 874.887396861796 93.0345459604149 L 873.5397061325217 92.76647360695934 L 872.2172025984385 92.39348903516519 L 870.9280399336109 91.91789181894751 L 869.6801662545579 91.34261417329644 L 868.4812751174709 90.67120287619662 L 867.3387580848818 89.90779740156158 L 866.2596591542218 89.05710439800055 L 865.2506313292354 88.12436867076458 L 864.3178956019995 87.11534084577822 L 863.4672025984385 86.03624191511828 L 862.7037971238034 84.89372488252911 L 862.0323858267036 83.69483374544207 L 861.4571081810525 82.44696006638907 L 860.9815109648348 81.15779740156158 L 860.6085263930406 79.83529386747834 L 860.3404540395851 78.48760313820404 L 860.1789466596703 77.1230341752373 L 860.125 75.75 L 860.1789466596703 74.37696582476272 L 860.3404540395851 73.01239686179596 L 860.6085263930406 71.66470613252166 L 860.9815109648348 70.34220259843842 L 861.4571081810525 69.05303993361093 L 862.0323858267036 67.80516625455793 L 862.7037971238034 66.6062751174709 L 863.4672025984385 65.46375808488172 L 864.3178956019995 64.3846591542218 L 865.2506313292354 63.37563132923542 L 866.2596591542218 62.44289560199947 L 867.3387580848818 61.59220259843842 L 868.4812751174709 60.82879712380338 L 869.6801662545579 60.15738582670356 L 870.928039933611 59.582108181052476 L 872.2172025984385 59.106510964834804 L 873.5397061325217 58.73352639304065 L 874.887396861796 58.46545403958508 L 876.2519658247628 58.30394665967026 L 877.6250000000001 58.25 L 878.9980341752373 58.30394665967027 L 880.3626031382041 58.4654540395851 L 881.7102938674784 58.73352639304068 L 883.0327974015617 59.10651096483484 L 884.3219600663891 59.58210818105252 L 885.5698337454421 60.15738582670361 L 886.7687248825292 60.82879712380345 L 887.9112419151184 61.59220259843849 L 888.9903408457783 62.44289560199954 L 889.9993686707646 63.37563132923552 L 890.9321043980007 64.3846591542219 L 891.7827974015617 65.46375808488185 L 892.5462028761967 66.60627511747103 L 893.2176141732965 67.80516625455807 L 893.7928918189476 69.05303993361109 L 894.2684890351652 70.34220259843859 L 894.6414736069594 71.66470613252184 L 894.9095459604149 73.01239686179616 L 895.0710533403297 74.37696582476292 Z" fill-opacity="1" stroke-opacity="1" stroke-miterlimit="10" stroke-width="2"/><text fill="rgb(255,255,255)" stroke="none" font-family="times new roman" font-size="10px" font-style="normal" font-weight="normal" text-decoration="normal" x="877.625" y="80.75" text-anchor="middle" dominant-baseline="text-after-edge" fill-opacity="1">*34.1</text><path fill="rgb(69,90,100)" stroke="rgb(76,175,80)" paint-order="fill stroke markers" d=" M 402.25 65.75 L 402.25 85.75 L 497.25 85.75 L 497.25 65.75 Z" fill-opacity="1" stroke-opacity="1" stroke-miterlimit="10" stroke-width="2"/><text fill="rgb(255,255,255)" stroke="none" font-family="times new roman" font-size="10px" font-style="normal" font-weight="normal" text-decoration="normal" x="449.75" y="80.75" text-anchor="middle" dominant-baseline="text-after-edge" fill-opacity="1">42127407T&gt;G</text><path fill="rgb(69,90,100)" stroke="rgb(76,175,80)" paint-order="fill stroke markers" d=" M 511.875 281.625 L 511.82105334032974 282.9980341752373 L 511.6595459604149 284.36260313820407 L 511.3914736069593 285.71029386747836 L 511.0184890351652 287.0327974015616 L 510.5428918189475 288.32196006638907 L 509.96761417329645 289.56983374544205 L 509.2962028761966 290.7687248825291 L 508.5327974015616 291.9112419151183 L 507.68210439800055 292.99034084577823 L 506.74936867076457 293.99936867076457 L 505.74034084577823 294.93210439800055 L 504.6612419151183 295.7827974015616 L 503.5187248825291 296.5462028761966 L 502.31983374544205 297.21761417329645 L 501.07196006638907 297.7928918189475 L 499.7827974015616 298.2684890351652 L 498.46029386747836 298.6414736069593 L 497.11260313820407 298.9095459604149 L 495.7480341752373 299.07105334032974 L 494.375 299.125 L 493.0019658247627 299.07105334032974 L 491.63739686179593 298.9095459604149 L 490.28970613252164 298.6414736069593 L 488.9672025984384 298.2684890351652 L 487.67803993361093 297.7928918189475 L 486.43016625455795 297.21761417329645 L 485.2312751174709 296.5462028761966 L 484.0887580848817 295.7827974015616 L 483.00965915422177 294.93210439800055 L 482.00063132923543 293.99936867076457 L 481.06789560199945 292.99034084577823 L 480.2172025984384 291.9112419151183 L 479.4537971238034 290.7687248825291 L 478.78238582670355 289.56983374544205 L 478.2071081810525 288.32196006638907 L 477.7315109648348 287.0327974015616 L 477.3585263930407 285.71029386747836 L 477.0904540395851 284.36260313820407 L 476.92894665967026 282.9980341752373 L 476.875 281.625 L 476.92894665967026 280.2519658247627 L 477.0904540395851 278.88739686179593 L 477.3585263930407 277.53970613252164 L 477.7315109648348 276.2172025984384 L 478.2071081810525 274.92803993361093 L 478.78238582670355 273.68016625455795 L 479.4537971238034 272.4812751174709 L 480.2172025984384 271.3387580848817 L 481.06789560199945 270.25965915422177 L 482.00063132923543 269.25063132923543 L 483.00965915422177 268.31789560199945 L 484.0887580848817 267.4672025984384 L 485.2312751174709 266.7037971238034 L 486.43016625455795 266.03238582670355 L 487.67803993361093 265.4571081810525 L 488.96720259843846 264.9815109648348 L 490.2897061325217 264.6085263930407 L 491.637396861796 264.3404540395851 L 493.00196582476275 264.17894665967026 L 494.37500000000006 264.125 L 495.74803417523736 264.17894665967026 L 497.1126031382041 264.3404540395851 L 498.4602938674784 264.6085263930407 L 499.78279740156165 264.98151096483485 L 501.0719600663892 265.4571081810525 L 502.31983374544217 266.0323858267036 L 503.5187248825292 266.70379712380344 L 504.66124191511835 267.4672025984385 L 505.7403408457783 268.31789560199957 L 506.7493686707647 269.2506313292355 L 507.68210439800066 270.2596591542219 L 508.53279740156165 271.3387580848818 L 509.2962028761967 272.48127511747106 L 509.9676141732965 273.68016625455806 L 510.54289181894757 274.9280399336111 L 511.01848903516526 276.2172025984386 L 511.3914736069594 277.5397061325218 L 511.65954596041496 278.88739686179616 L 511.82105334032974 280.2519658247629 Z" fill-opacity="1" stroke-opacity="1" stroke-miterlimit="10" stroke-width="2"/><text fill="rgb(255,255,255)" stroke="none" font-family="times new roman" font-size="10px" font-style="normal" font-weight="normal" text-decoration="normal" x="494.375" y="286.625" text-anchor="middle" dominant-baseline="text-after-edge" fill-opacity="1">*1.54</text><path fill="rgb(69,90,100)" stroke="rgb(76,175,80)" paint-order="fill stroke markers" d=" M 855.5 146.25 L 855.4306400089954 148.0153296538765 L 855.2229876633907 149.76977546340518 L 854.8783232089477 151.50252068675786 L 854.3987716166409 153.20288237343632 L 853.787289481504 154.86037722821453 L 853.0476467942383 156.46478624413982 L 852.1844036979671 158.00621770610886 L 851.2028823734363 159.47516817658064 L 850.1091342260007 160.86258108742913 L 848.9099025766973 162.1599025766973 L 847.6125810874291 163.3591342260007 L 846.2251681765806 164.45288237343632 L 844.7562177061088 165.43440369796707 L 843.2147862441398 166.2976467942383 L 841.6103772282145 167.03728948150396 L 839.9528823734363 167.64877161664094 L 838.2525206867579 168.12832320894773 L 836.5197754634052 168.4729876633906 L 834.7653296538765 168.68064000899537 L 833 168.75 L 831.2346703461235 168.68064000899537 L 829.4802245365948 168.4729876633906 L 827.7474793132421 168.12832320894773 L 826.0471176265637 167.64877161664094 L 824.3896227717855 167.03728948150396 L 822.7852137558602 166.2976467942383 L 821.2437822938912 165.43440369796707 L 819.7748318234194 164.45288237343632 L 818.3874189125709 163.3591342260007 L 817.0900974233027 162.15990257669733 L 815.8908657739993 160.86258108742913 L 814.7971176265637 159.47516817658064 L 813.8155963020329 158.00621770610886 L 812.9523532057617 156.46478624413982 L 812.212710518496 154.86037722821453 L 811.6012283833591 153.20288237343632 L 811.1216767910523 151.50252068675786 L 810.7770123366095 149.7697754634052 L 810.5693599910046 148.0153296538765 L 810.5 146.25 L 810.5693599910046 144.4846703461235 L 810.7770123366093 142.73022453659482 L 811.1216767910523 140.99747931324214 L 811.6012283833591 139.29711762656368 L 812.212710518496 137.63962277178547 L 812.9523532057617 136.0352137558602 L 813.8155963020329 134.49378229389114 L 814.7971176265637 133.02483182341936 L 815.8908657739993 131.63741891257087 L 817.0900974233027 130.3400974233027 L 818.3874189125709 129.1408657739993 L 819.7748318234194 128.04711762656368 L 821.2437822938912 127.06559630203293 L 822.7852137558602 126.20235320576171 L 824.3896227717855 125.46271051849604 L 826.0471176265637 124.85122838335903 L 827.7474793132421 124.37167679105227 L 829.4802245365948 124.02701233660939 L 831.2346703461236 123.81935999100462 L 833.0000000000001 123.75 L 834.7653296538766 123.81935999100463 L 836.5197754634053 124.02701233660942 L 838.252520686758 124.3716767910523 L 839.9528823734364 124.85122838335909 L 841.6103772282146 125.4627105184961 L 843.2147862441399 126.20235320576178 L 844.7562177061089 127.065596302033 L 846.2251681765807 128.04711762656376 L 847.6125810874292 129.14086577399942 L 848.9099025766974 130.3400974233028 L 850.1091342260008 131.637418912571 L 851.2028823734364 133.0248318234195 L 852.1844036979671 134.49378229389131 L 853.0476467942384 136.03521375586038 L 853.787289481504 137.6396227717857 L 854.398771616641 139.2971176265639 L 854.8783232089478 140.99747931324237 L 855.2229876633907 142.73022453659505 L 855.4306400089954 144.48467034612375 Z" fill-opacity="1" stroke-opacity="1" stroke-miterlimit="10" stroke-width="2"/><text fill="rgb(255,255,255)" stroke="none" font-family="times new roman" font-size="15px" font-style="normal" font-weight="normal" text-decoration="normal" x="833" y="153.75" text-anchor="middle" dominant-baseline="text-after-edge" fill-opacity="1">*34</text><path fill="rgb(69,90,100)" stroke="rgb(76,175,80)" paint-order="fill stroke markers" d=" M 360.5 136.25 L 403 136.25 L 403 136.25 A 5 5 0 0 1 408 141.25 L 408 151.25 L 408 151.25 A 5 5 0 0 1 403 156.25 L 318 156.25 L 318 156.25 A 5 5 0 0 1 313 151.25 L 313 141.25 L 313 141.25 A 5 5 0 0 1 318 136.25 L 360.5 136.25 Z" fill-opacity="1" stroke-opacity="1" stroke-miterlimit="10" stroke-width="2"/><text fill="rgb(255,255,255)" stroke="none" font-family="times new roman" font-size="10px" font-style="normal" font-weight="normal" text-decoration="normal" x="360.5" y="151.25" text-anchor="middle" dominant-baseline="text-after-edge" fill-opacity="1">42132049dup</text><path fill="rgb(69,90,100)" stroke="rgb(76,175,80)" paint-order="fill stroke markers" d=" M 878.5 136.25 L 878.5 156.25 L 973.5 156.25 L 973.5 136.25 Z" fill-opacity="1" stroke-opacity="1" stroke-miterlimit="10" stroke-width="2"/><text fill="rgb(255,255,255)" stroke="none" font-family="times new roman" font-size="10px" font-style="normal" font-weight="normal" text-decoration="normal" x="926" y="151.25" text-anchor="middle" dominant-baseline="text-after-edge" fill-opacity="1">42130482C&gt;A</text><path fill="rgb(69,90,100)" stroke="rgb(69,90,100)" paint-order="fill stroke markers" d=" M 475.625 395.75 L 456.875 413.25 L 475.625 430.75 L 513.125 430.75 L 531.875 413.25 L 513.125 395.75 Z" fill-opacity="1" stroke-opacity="1" stroke-miterlimit="10" stroke-width="2"/><text fill="rgb(255,255,255)" stroke="none" font-family="times new roman" font-size="10px" font-style="normal" font-weight="normal" text-decoration="normal" x="494.375" y="418.25" text-anchor="middle" dominant-baseline="text-after-edge" fill-opacity="1">NA11839-all</text><path fill="rgb(69,90,100)" stroke="rgb(76,175,80)" paint-order="fill stroke markers" d=" M 999.375 281.625 L 999.3210533403297 282.9980341752373 L 999.1595459604149 284.36260313820407 L 998.8914736069594 285.71029386747836 L 998.5184890351652 287.0327974015616 L 998.0428918189475 288.32196006638907 L 997.4676141732964 289.56983374544205 L 996.7962028761966 290.7687248825291 L 996.0327974015615 291.9112419151183 L 995.1821043980005 292.99034084577823 L 994.2493686707646 293.99936867076457 L 993.2403408457782 294.93210439800055 L 992.1612419151182 295.7827974015616 L 991.0187248825291 296.5462028761966 L 989.8198337454421 297.21761417329645 L 988.5719600663891 297.7928918189475 L 987.2827974015615 298.2684890351652 L 985.9602938674783 298.6414736069593 L 984.612603138204 298.9095459604149 L 983.2480341752373 299.07105334032974 L 981.875 299.125 L 980.5019658247627 299.07105334032974 L 979.137396861796 298.9095459604149 L 977.7897061325217 298.6414736069593 L 976.4672025984385 298.2684890351652 L 975.1780399336109 297.7928918189475 L 973.9301662545579 297.21761417329645 L 972.7312751174709 296.5462028761966 L 971.5887580848818 295.7827974015616 L 970.5096591542218 294.93210439800055 L 969.5006313292354 293.99936867076457 L 968.5678956019995 292.99034084577823 L 967.7172025984385 291.9112419151183 L 966.9537971238034 290.7687248825291 L 966.2823858267036 289.56983374544205 L 965.7071081810525 288.32196006638907 L 965.2315109648348 287.0327974015616 L 964.8585263930406 285.71029386747836 L 964.5904540395851 284.36260313820407 L 964.4289466596703 282.9980341752373 L 964.375 281.625 L 964.4289466596703 280.2519658247627 L 964.5904540395851 278.88739686179593 L 964.8585263930406 277.53970613252164 L 965.2315109648348 276.2172025984384 L 965.7071081810525 274.92803993361093 L 966.2823858267036 273.68016625455795 L 966.9537971238034 272.4812751174709 L 967.7172025984385 271.3387580848817 L 968.5678956019995 270.25965915422177 L 969.5006313292354 269.25063132923543 L 970.5096591542218 268.31789560199945 L 971.5887580848818 267.4672025984384 L 972.7312751174709 266.7037971238034 L 973.9301662545579 266.03238582670355 L 975.178039933611 265.4571081810525 L 976.4672025984385 264.9815109648348 L 977.7897061325217 264.6085263930407 L 979.137396861796 264.3404540395851 L 980.5019658247628 264.17894665967026 L 981.8750000000001 264.125 L 983.2480341752373 264.17894665967026 L 984.6126031382041 264.3404540395851 L 985.9602938674784 264.6085263930407 L 987.2827974015617 264.98151096483485 L 988.5719600663891 265.4571081810525 L 989.8198337454421 266.0323858267036 L 991.0187248825292 266.70379712380344 L 992.1612419151184 267.4672025984385 L 993.2403408457783 268.31789560199957 L 994.2493686707646 269.2506313292355 L 995.1821043980007 270.2596591542219 L 996.0327974015617 271.3387580848818 L 996.7962028761967 272.48127511747106 L 997.4676141732965 273.68016625455806 L 998.0428918189476 274.9280399336111 L 998.5184890351652 276.2172025984386 L 998.8914736069594 277.5397061325218 L 999.1595459604149 278.88739686179616 L 999.3210533403297 280.2519658247629 Z" fill-opacity="1" stroke-opacity="1" stroke-miterlimit="10" stroke-width="2"/><text fill="rgb(255,255,255)" stroke="none" font-family="times new roman" font-size="10px" font-style="normal" font-weight="normal" text-decoration="normal" x="981.875" y="286.625" text-anchor="middle" dominant-baseline="text-after-edge" fill-opacity="1">*1.58</text><path fill="rgb(69,90,100)" stroke="rgb(76,175,80)" paint-order="fill stroke markers" d=" M 750 146.25 L 749.9460533403297 147.62303417523728 L 749.7845459604149 148.98760313820404 L 749.5164736069594 150.33529386747836 L 749.1434890351652 151.65779740156157 L 748.6678918189475 152.94696006638907 L 748.0926141732964 154.19483374544205 L 747.4212028761966 155.3937248825291 L 746.6577974015615 156.53624191511827 L 745.8071043980005 157.6153408457782 L 744.8743686707646 158.62436867076457 L 743.8653408457782 159.55710439800055 L 742.7862419151182 160.4077974015616 L 741.6437248825291 161.17120287619662 L 740.4448337454421 161.84261417329643 L 739.1969600663891 162.4178918189475 L 737.9077974015615 162.89348903516517 L 736.5852938674783 163.26647360695935 L 735.237603138204 163.5345459604149 L 733.8730341752373 163.69605334032974 L 732.5 163.75 L 731.1269658247627 163.69605334032974 L 729.762396861796 163.5345459604149 L 728.4147061325217 163.26647360695935 L 727.0922025984385 162.8934890351652 L 725.8030399336109 162.4178918189475 L 724.5551662545579 161.84261417329643 L 723.3562751174709 161.17120287619662 L 722.2137580848818 160.4077974015616 L 721.1346591542218 159.55710439800055 L 720.1256313292354 158.62436867076457 L 719.1928956019995 157.6153408457782 L 718.3422025984385 156.5362419151183 L 717.5787971238034 155.3937248825291 L 716.9073858267036 154.19483374544208 L 716.3321081810525 152.94696006638907 L 715.8565109648348 151.6577974015616 L 715.4835263930406 150.33529386747836 L 715.2154540395851 148.98760313820404 L 715.0539466596703 147.62303417523728 L 715 146.25 L 715.0539466596703 144.87696582476272 L 715.2154540395851 143.51239686179596 L 715.4835263930406 142.16470613252164 L 715.8565109648348 140.84220259843843 L 716.3321081810525 139.55303993361093 L 716.9073858267036 138.30516625455795 L 717.5787971238034 137.1062751174709 L 718.3422025984385 135.96375808488173 L 719.1928956019995 134.8846591542218 L 720.1256313292354 133.87563132923543 L 721.1346591542218 132.94289560199945 L 722.2137580848818 132.09220259843843 L 723.3562751174709 131.32879712380338 L 724.5551662545579 130.65738582670355 L 725.803039933611 130.0821081810525 L 727.0922025984385 129.6065109648348 L 728.4147061325217 129.23352639304065 L 729.762396861796 128.9654540395851 L 731.1269658247628 128.80394665967026 L 732.5000000000001 128.75 L 733.8730341752373 128.80394665967026 L 735.2376031382041 128.9654540395851 L 736.5852938674784 129.23352639304068 L 737.9077974015617 129.60651096483485 L 739.1969600663891 130.08210818105252 L 740.4448337454421 130.6573858267036 L 741.6437248825292 131.32879712380344 L 742.7862419151184 132.0922025984385 L 743.8653408457783 132.94289560199954 L 744.8743686707646 133.87563132923552 L 745.8071043980007 134.8846591542219 L 746.6577974015617 135.96375808488185 L 747.4212028761967 137.10627511747103 L 748.0926141732965 138.3051662545581 L 748.6678918189476 139.5530399336111 L 749.1434890351652 140.8422025984386 L 749.5164736069594 142.16470613252184 L 749.7845459604149 143.51239686179616 L 749.9460533403297 144.87696582476292 Z" fill-opacity="1" stroke-opacity="1" stroke-miterlimit="10" stroke-width="2"/><text fill="rgb(255,255,255)" stroke="none" font-family="times new roman" font-size="10px" font-style="normal" font-weight="normal" text-decoration="normal" x="732.5" y="151.25" text-anchor="middle" dominant-baseline="text-after-edge" fill-opacity="1">*2.4</text><path fill="rgb(69,90,100)" stroke="rgb(76,175,80)" paint-order="fill stroke markers" d=" M 491.5 136.25 L 491.5 156.25 L 586.5 156.25 L 586.5 136.25 Z" fill-opacity="1" stroke-opacity="1" stroke-miterlimit="10" stroke-width="2"/><text fill="rgb(255,255,255)" stroke="none" font-family="times new roman" font-size="10px" font-style="normal" font-weight="normal" text-decoration="normal" x="539" y="151.25" text-anchor="middle" dominant-baseline="text-after-edge" fill-opacity="1">42130047G&gt;C</text><path fill="rgb(69,90,100)" stroke="rgb(255,193,7)" paint-order="fill stroke markers" d=" M 629.125 65.75 L 629.125 85.75 L 724.125 85.75 L 724.125 65.75 Z" fill-opacity="1" stroke-opacity="1" stroke-miterlimit="10" stroke-width="2"/><text fill="rgb(255,255,255)" stroke="none" font-family="times new roman" font-size="10px" font-style="normal" font-weight="normal" text-decoration="normal" x="676.625" y="80.75" text-anchor="middle" dominant-baseline="text-after-edge" fill-opacity="1">42126611C&gt;G</text><path fill="rgb(69,90,100)" stroke="rgb(76,175,80)" paint-order="fill stroke markers" d=" M 654.5 146.25 L 654.4306400089954 148.0153296538765 L 654.2229876633907 149.76977546340518 L 653.8783232089477 151.50252068675786 L 653.3987716166409 153.20288237343632 L 652.787289481504 154.86037722821453 L 652.0476467942383 156.46478624413982 L 651.1844036979671 158.00621770610886 L 650.2028823734363 159.47516817658064 L 649.1091342260007 160.86258108742913 L 647.9099025766973 162.1599025766973 L 646.6125810874291 163.3591342260007 L 645.2251681765806 164.45288237343632 L 643.7562177061088 165.43440369796707 L 642.2147862441398 166.2976467942383 L 640.6103772282145 167.03728948150396 L 638.9528823734363 167.64877161664094 L 637.2525206867579 168.12832320894773 L 635.5197754634052 168.4729876633906 L 633.7653296538765 168.68064000899537 L 632 168.75 L 630.2346703461235 168.68064000899537 L 628.4802245365948 168.4729876633906 L 626.7474793132421 168.12832320894773 L 625.0471176265637 167.64877161664094 L 623.3896227717855 167.03728948150396 L 621.7852137558602 166.2976467942383 L 620.2437822938912 165.43440369796707 L 618.7748318234194 164.45288237343632 L 617.3874189125709 163.3591342260007 L 616.0900974233027 162.15990257669733 L 614.8908657739993 160.86258108742913 L 613.7971176265637 159.47516817658064 L 612.8155963020329 158.00621770610886 L 611.9523532057617 156.46478624413982 L 611.212710518496 154.86037722821453 L 610.6012283833591 153.20288237343632 L 610.1216767910523 151.50252068675786 L 609.7770123366095 149.7697754634052 L 609.5693599910046 148.0153296538765 L 609.5 146.25 L 609.5693599910046 144.4846703461235 L 609.7770123366093 142.73022453659482 L 610.1216767910523 140.99747931324214 L 610.6012283833591 139.29711762656368 L 611.212710518496 137.63962277178547 L 611.9523532057617 136.0352137558602 L 612.8155963020329 134.49378229389114 L 613.7971176265637 133.02483182341936 L 614.8908657739993 131.63741891257087 L 616.0900974233027 130.3400974233027 L 617.3874189125709 129.1408657739993 L 618.7748318234194 128.04711762656368 L 620.2437822938912 127.06559630203293 L 621.7852137558602 126.20235320576171 L 623.3896227717855 125.46271051849604 L 625.0471176265637 124.85122838335903 L 626.7474793132421 124.37167679105227 L 628.4802245365948 124.02701233660939 L 630.2346703461236 123.81935999100462 L 632.0000000000001 123.75 L 633.7653296538766 123.81935999100463 L 635.5197754634053 124.02701233660942 L 637.252520686758 124.3716767910523 L 638.9528823734364 124.85122838335909 L 640.6103772282146 125.4627105184961 L 642.2147862441399 126.20235320576178 L 643.7562177061089 127.065596302033 L 645.2251681765807 128.04711762656376 L 646.6125810874292 129.14086577399942 L 647.9099025766974 130.3400974233028 L 649.1091342260008 131.637418912571 L 650.2028823734364 133.0248318234195 L 651.1844036979671 134.49378229389131 L 652.0476467942384 136.03521375586038 L 652.787289481504 137.6396227717857 L 653.398771616641 139.2971176265639 L 653.8783232089478 140.99747931324237 L 654.2229876633907 142.73022453659505 L 654.4306400089954 144.48467034612375 Z" fill-opacity="1" stroke-opacity="1" stroke-miterlimit="10" stroke-width="2"/><text fill="rgb(255,255,255)" stroke="none" font-family="times new roman" font-size="15px" font-style="normal" font-weight="normal" text-decoration="normal" x="632" y="153.75" text-anchor="middle" dominant-baseline="text-after-edge" fill-opacity="1">*39</text><path fill="rgb(69,90,100)" stroke="rgb(76,175,80)" paint-order="fill stroke markers" d=" M 603 75.75 L 602.9460533403297 77.12303417523728 L 602.7845459604149 78.48760313820404 L 602.5164736069594 79.83529386747834 L 602.1434890351652 81.15779740156158 L 601.6678918189475 82.44696006638907 L 601.0926141732964 83.69483374544207 L 600.4212028761966 84.8937248825291 L 599.6577974015615 86.03624191511828 L 598.8071043980005 87.1153408457782 L 597.8743686707646 88.12436867076458 L 596.8653408457782 89.05710439800055 L 595.7862419151182 89.90779740156158 L 594.6437248825291 90.67120287619662 L 593.4448337454421 91.34261417329644 L 592.1969600663891 91.91789181894751 L 590.9077974015615 92.39348903516519 L 589.5852938674783 92.76647360695934 L 588.237603138204 93.0345459604149 L 586.8730341752373 93.19605334032974 L 585.5 93.25 L 584.1269658247627 93.19605334032974 L 582.762396861796 93.0345459604149 L 581.4147061325217 92.76647360695934 L 580.0922025984385 92.39348903516519 L 578.8030399336109 91.91789181894751 L 577.5551662545579 91.34261417329644 L 576.3562751174709 90.67120287619662 L 575.2137580848818 89.90779740156158 L 574.1346591542218 89.05710439800055 L 573.1256313292354 88.12436867076458 L 572.1928956019995 87.11534084577822 L 571.3422025984385 86.03624191511828 L 570.5787971238034 84.89372488252911 L 569.9073858267036 83.69483374544207 L 569.3321081810525 82.44696006638907 L 568.8565109648348 81.15779740156158 L 568.4835263930406 79.83529386747834 L 568.2154540395851 78.48760313820404 L 568.0539466596703 77.1230341752373 L 568 75.75 L 568.0539466596703 74.37696582476272 L 568.2154540395851 73.01239686179596 L 568.4835263930406 71.66470613252166 L 568.8565109648348 70.34220259843842 L 569.3321081810525 69.05303993361093 L 569.9073858267036 67.80516625455793 L 570.5787971238034 66.6062751174709 L 571.3422025984385 65.46375808488172 L 572.1928956019995 64.3846591542218 L 573.1256313292354 63.37563132923542 L 574.1346591542218 62.44289560199947 L 575.2137580848818 61.59220259843842 L 576.3562751174709 60.82879712380338 L 577.5551662545579 60.15738582670356 L 578.803039933611 59.582108181052476 L 580.0922025984385 59.106510964834804 L 581.4147061325217 58.73352639304065 L 582.762396861796 58.46545403958508 L 584.1269658247628 58.30394665967026 L 585.5000000000001 58.25 L 586.8730341752373 58.30394665967027 L 588.2376031382041 58.4654540395851 L 589.5852938674784 58.73352639304068 L 590.9077974015617 59.10651096483484 L 592.1969600663891 59.58210818105252 L 593.4448337454421 60.15738582670361 L 594.6437248825292 60.82879712380345 L 595.7862419151184 61.59220259843849 L 596.8653408457783 62.44289560199954 L 597.8743686707646 63.37563132923552 L 598.8071043980007 64.3846591542219 L 599.6577974015617 65.46375808488185 L 600.4212028761967 66.60627511747103 L 601.0926141732965 67.80516625455807 L 601.6678918189476 69.05303993361109 L 602.1434890351652 70.34220259843859 L 602.5164736069594 71.66470613252184 L 602.7845459604149 73.01239686179616 L 602.9460533403297 74.37696582476292 Z" fill-opacity="1" stroke-opacity="1" stroke-miterlimit="10" stroke-width="2"/><text fill="rgb(255,255,255)" stroke="none" font-family="times new roman" font-size="10px" font-style="normal" font-weight="normal" text-decoration="normal" x="585.5" y="80.75" text-anchor="middle" dominant-baseline="text-after-edge" fill-opacity="1">*39.2</text><path fill="rgb(69,90,100)" stroke="rgb(255,193,7)" paint-order="fill stroke markers" d=" M 740.875 65.75 L 740.875 85.75 L 835.875 85.75 L 835.875 65.75 Z" fill-opacity="1" stroke-opacity="1" stroke-miterlimit="10" stroke-width="2"/><text fill="rgb(255,255,255)" stroke="none" font-family="times new roman" font-size="10px" font-style="normal" font-weight="normal" text-decoration="normal" x="788.375" y="80.75" text-anchor="middle" dominant-baseline="text-after-edge" fill-opacity="1">42127941G&gt;A</text><path fill="rgb(69,90,100)" stroke="rgb(76,175,80)" paint-order="fill stroke markers" d=" M 755 281.625 L 754.9306400089954 283.3903296538765 L 754.7229876633907 285.1447754634052 L 754.3783232089477 286.87752068675786 L 753.8987716166409 288.5778823734363 L 753.287289481504 290.23537722821453 L 752.5476467942383 291.8397862441398 L 751.6844036979671 293.3812177061088 L 750.7028823734363 294.85016817658067 L 749.6091342260007 296.23758108742913 L 748.4099025766973 297.53490257669733 L 747.1125810874291 298.7341342260007 L 745.7251681765806 299.8278823734363 L 744.2562177061088 300.80940369796707 L 742.7147862441398 301.6726467942383 L 741.1103772282145 302.41228948150393 L 739.4528823734363 303.02377161664094 L 737.7525206867579 303.50332320894773 L 736.0197754634052 303.8479876633906 L 734.2653296538765 304.0556400089954 L 732.5 304.125 L 730.7346703461235 304.0556400089954 L 728.9802245365948 303.8479876633906 L 727.2474793132421 303.50332320894773 L 725.5471176265637 303.02377161664094 L 723.8896227717855 302.41228948150393 L 722.2852137558602 301.6726467942383 L 720.7437822938912 300.80940369796707 L 719.2748318234194 299.8278823734363 L 717.8874189125709 298.7341342260007 L 716.5900974233027 297.53490257669733 L 715.3908657739993 296.23758108742913 L 714.2971176265637 294.85016817658067 L 713.3155963020329 293.3812177061088 L 712.4523532057617 291.8397862441398 L 711.712710518496 290.23537722821453 L 711.1012283833591 288.5778823734363 L 710.6216767910523 286.87752068675786 L 710.2770123366095 285.1447754634052 L 710.0693599910046 283.3903296538765 L 710 281.625 L 710.0693599910046 279.8596703461235 L 710.2770123366093 278.1052245365948 L 710.6216767910523 276.37247931324214 L 711.1012283833591 274.6721176265637 L 711.712710518496 273.01462277178547 L 712.4523532057617 271.4102137558602 L 713.3155963020329 269.8687822938912 L 714.2971176265637 268.39983182341933 L 715.3908657739993 267.01241891257087 L 716.5900974233027 265.71509742330267 L 717.8874189125709 264.51586577399934 L 719.2748318234194 263.4221176265637 L 720.7437822938912 262.44059630203293 L 722.2852137558602 261.5773532057617 L 723.8896227717855 260.837710518496 L 725.5471176265637 260.22622838335906 L 727.2474793132421 259.74667679105227 L 728.9802245365948 259.4020123366094 L 730.7346703461236 259.1943599910046 L 732.5000000000001 259.125 L 734.2653296538766 259.1943599910046 L 736.0197754634053 259.4020123366094 L 737.752520686758 259.7466767910523 L 739.4528823734364 260.22622838335906 L 741.1103772282146 260.8377105184961 L 742.7147862441399 261.57735320576177 L 744.2562177061089 262.440596302033 L 745.7251681765807 263.42211762656376 L 747.1125810874292 264.5158657739994 L 748.4099025766974 265.7150974233028 L 749.6091342260008 267.012418912571 L 750.7028823734364 268.3998318234195 L 751.6844036979671 269.86878229389134 L 752.5476467942384 271.4102137558604 L 753.287289481504 273.0146227717857 L 753.898771616641 274.67211762656393 L 754.3783232089478 276.37247931324237 L 754.7229876633907 278.1052245365951 L 754.9306400089954 279.8596703461238 Z" fill-opacity="1" stroke-opacity="1" stroke-miterlimit="10" stroke-width="2"/><text fill="rgb(255,255,255)" stroke="none" font-family="times new roman" font-size="15px" font-style="normal" font-weight="normal" text-decoration="normal" x="732.5" y="289.125" text-anchor="middle" dominant-baseline="text-after-edge" fill-opacity="1">*2</text><path fill="rgb(3,169,244)" stroke="none" paint-order="stroke fill markers" d=" M 732.5 249.125 L 757 249.125 L 757 249.125 A 8 8 0 0 1 765 257.125 L 765 306.125 L 765 306.125 A 8 8 0 0 1 757 314.125 L 708 314.125 L 708 314.125 A 8 8 0 0 1 700 306.125 L 700 257.125 L 700 257.125 A 8 8 0 0 1 708 249.125 L 732.5 249.125 Z" fill-opacity="0.15"/><path fill="rgb(69,90,100)" stroke="rgb(76,175,80)" paint-order="fill stroke markers" d=" M 248.75 136.25 L 291.25 136.25 L 291.25 136.25 A 5 5 0 0 1 296.25 141.25 L 296.25 151.25 L 296.25 151.25 A 5 5 0 0 1 291.25 156.25 L 206.25 156.25 L 206.25 156.25 A 5 5 0 0 1 201.25 151.25 L 201.25 141.25 L 201.25 141.25 A 5 5 0 0 1 206.25 136.25 L 248.75 136.25 Z" fill-opacity="1" stroke-opacity="1" stroke-miterlimit="10" stroke-width="2"/><text fill="rgb(255,255,255)" stroke="none" font-family="times new roman" font-size="10px" font-style="normal" font-weight="normal" text-decoration="normal" x="248.75" y="151.25" text-anchor="middle" dominant-baseline="text-after-edge" fill-opacity="1">42132025_4213202…</text><path fill="rgb(69,90,100)" stroke="rgb(76,175,80)" paint-order="fill stroke markers" d=" M 467.25 146.25 L 467.19605334032974 147.62303417523728 L 467.0345459604149 148.98760313820404 L 466.7664736069593 150.33529386747836 L 466.3934890351652 151.65779740156157 L 465.9178918189475 152.94696006638907 L 465.34261417329645 154.19483374544205 L 464.6712028761966 155.3937248825291 L 463.9077974015616 156.53624191511827 L 463.05710439800055 157.6153408457782 L 462.12436867076457 158.62436867076457 L 461.11534084577823 159.55710439800055 L 460.0362419151183 160.4077974015616 L 458.8937248825291 161.17120287619662 L 457.69483374544205 161.84261417329643 L 456.44696006638907 162.4178918189475 L 455.1577974015616 162.89348903516517 L 453.83529386747836 163.26647360695935 L 452.48760313820407 163.5345459604149 L 451.1230341752373 163.69605334032974 L 449.75 163.75 L 448.3769658247627 163.69605334032974 L 447.01239686179593 163.5345459604149 L 445.66470613252164 163.26647360695935 L 444.3422025984384 162.8934890351652 L 443.05303993361093 162.4178918189475 L 441.80516625455795 161.84261417329643 L 440.6062751174709 161.17120287619662 L 439.4637580848817 160.4077974015616 L 438.38465915422177 159.55710439800055 L 437.37563132923543 158.62436867076457 L 436.44289560199945 157.6153408457782 L 435.5922025984384 156.5362419151183 L 434.8287971238034 155.3937248825291 L 434.15738582670355 154.19483374544208 L 433.5821081810525 152.94696006638907 L 433.1065109648348 151.6577974015616 L 432.7335263930407 150.33529386747836 L 432.4654540395851 148.98760313820404 L 432.30394665967026 147.62303417523728 L 432.25 146.25 L 432.30394665967026 144.87696582476272 L 432.4654540395851 143.51239686179596 L 432.7335263930407 142.16470613252164 L 433.1065109648348 140.84220259843843 L 433.5821081810525 139.55303993361093 L 434.15738582670355 138.30516625455795 L 434.8287971238034 137.1062751174709 L 435.5922025984384 135.96375808488173 L 436.44289560199945 134.8846591542218 L 437.37563132923543 133.87563132923543 L 438.38465915422177 132.94289560199945 L 439.4637580848817 132.09220259843843 L 440.6062751174709 131.32879712380338 L 441.80516625455795 130.65738582670355 L 443.05303993361093 130.0821081810525 L 444.34220259843846 129.6065109648348 L 445.6647061325217 129.23352639304065 L 447.012396861796 128.9654540395851 L 448.37696582476275 128.80394665967026 L 449.75000000000006 128.75 L 451.12303417523736 128.80394665967026 L 452.4876031382041 128.9654540395851 L 453.8352938674784 129.23352639304068 L 455.15779740156165 129.60651096483485 L 456.4469600663892 130.08210818105252 L 457.69483374544217 130.6573858267036 L 458.8937248825292 131.32879712380344 L 460.03624191511835 132.0922025984385 L 461.1153408457783 132.94289560199954 L 462.1243686707647 133.87563132923552 L 463.05710439800066 134.8846591542219 L 463.90779740156165 135.96375808488185 L 464.6712028761967 137.10627511747103 L 465.3426141732965 138.3051662545581 L 465.91789181894757 139.5530399336111 L 466.39348903516526 140.8422025984386 L 466.7664736069594 142.16470613252184 L 467.03454596041496 143.51239686179616 L 467.19605334032974 144.87696582476292 Z" fill-opacity="1" stroke-opacity="1" stroke-miterlimit="10" stroke-width="2"/><text fill="rgb(255,255,255)" stroke="none" font-family="times new roman" font-size="10px" font-style="normal" font-weight="normal" text-decoration="normal" x="449.75" y="151.25" text-anchor="middle" dominant-baseline="text-after-edge" fill-opacity="1">*1.41</text><path fill="rgb(176,190,197)" stroke="none" paint-order="stroke fill markers" d=" M 143.75 176.62500000000003 L 143.75 386.625 L 218.75 386.625 L 218.75 176.62500000000006 Z" fill-opacity="0.8"/><text fill="rgb(0,0,0)" stroke="none" font-family="times new roman" font-size="10px" font-style="normal" font-weight="normal" text-decoration="normal" x="148.75" y="191.625" text-anchor="start" dominant-baseline="text-after-edge" fill-opacity="0.8">42126310C&gt;T </text><text fill="rgb(0,0,0)" stroke="none" font-family="times new roman" font-size="10px" font-style="normal" font-weight="normal" text-decoration="normal" x="148.75" y="201.625" text-anchor="start" dominant-baseline="text-after-edge" fill-opacity="0.8">42127001G&gt;A </text><text fill="rgb(0,0,0)" stroke="none" font-family="times new roman" font-size="10px" font-style="normal" font-weight="normal" text-decoration="normal" x="148.75" y="211.625" text-anchor="start" dominant-baseline="text-after-edge" fill-opacity="0.8">42127207C&gt;T </text><text fill="rgb(0,0,0)" stroke="none" font-family="times new roman" font-size="10px" font-style="normal" font-weight="normal" text-decoration="normal" x="148.75" y="221.625" text-anchor="start" dominant-baseline="text-after-edge" fill-opacity="0.8">42129130C&gt;G </text><text fill="rgb(0,0,0)" stroke="none" font-family="times new roman" font-size="10px" font-style="normal" font-weight="normal" text-decoration="normal" x="148.75" y="231.625" text-anchor="start" dominant-baseline="text-after-edge" fill-opacity="0.8">42131469C&gt;T </text><text fill="rgb(0,0,0)" stroke="none" font-family="times new roman" font-size="10px" font-style="normal" font-weight="normal" text-decoration="normal" x="148.75" y="241.625" text-anchor="start" dominant-baseline="text-after-edge" fill-opacity="0.8">42131531G&gt;A </text><text fill="rgb(0,0,0)" stroke="none" font-family="times new roman" font-size="10px" font-style="normal" font-weight="normal" text-decoration="normal" x="148.75" y="251.625" text-anchor="start" dominant-baseline="text-after-edge" fill-opacity="0.8">42132026T&gt;C </text><text fill="rgb(0,0,0)" stroke="none" font-family="times new roman" font-size="10px" font-style="normal" font-weight="normal" text-decoration="normal" x="148.75" y="261.625" text-anchor="start" dominant-baseline="text-after-edge" fill-opacity="0.8">42132375G&gt;C </text><path fill="rgb(176,190,197)" stroke="none" paint-order="stroke fill markers" d=" M 304.625 176.625 L 371.625 176.625 L 371.625 176.625 A 8 8 0 0 1 379.625 184.625 L 379.625 378.625 L 379.625 378.625 A 8 8 0 0 1 371.625 386.625 L 237.625 386.625 L 237.625 386.625 A 8 8 0 0 1 229.625 378.625 L 229.625 184.625 L 229.625 184.625 A 8 8 0 0 1 237.625 176.625 L 304.625 176.625 Z" fill-opacity="0.8"/><text fill="rgb(0,0,0)" stroke="none" font-family="times new roman" font-size="10px" font-style="normal" font-weight="normal" text-decoration="normal" x="234.625" y="191.625" text-anchor="start" dominant-baseline="text-after-edge" fill-opacity="0.8">42125924A&gt;G </text><text fill="rgb(0,0,0)" stroke="none" font-family="times new roman" font-size="10px" font-style="normal" font-weight="normal" text-decoration="normal" x="234.625" y="201.625" text-anchor="start" dominant-baseline="text-after-edge" fill-opacity="0.8">42126069A&gt;C </text><text fill="rgb(0,0,0)" stroke="none" font-family="times new roman" font-size="10px" font-style="normal" font-weight="normal" text-decoration="normal" x="234.625" y="211.625" text-anchor="start" dominant-baseline="text-after-edge" fill-opacity="0.8">42126136_42126138del </text><text fill="rgb(0,0,0)" stroke="none" font-family="times new roman" font-size="10px" font-style="normal" font-weight="normal" text-decoration="normal" x="234.625" y="221.625" text-anchor="start" dominant-baseline="text-after-edge" fill-opacity="0.8">42129037G&gt;A </text><text fill="rgb(0,0,0)" stroke="none" font-family="times new roman" font-size="10px" font-style="normal" font-weight="normal" text-decoration="normal" x="234.625" y="231.625" text-anchor="start" dominant-baseline="text-after-edge" fill-opacity="0.8">42132025_42132026insCCTTTT </text><text fill="rgb(0,0,0)" stroke="none" font-family="times new roman" font-size="10px" font-style="normal" font-weight="normal" text-decoration="normal" x="234.625" y="241.625" text-anchor="start" dominant-baseline="text-after-edge" fill-opacity="0.8">42132027C&gt;T </text><text fill="rgb(0,0,0)" stroke="none" font-family="times new roman" font-size="10px" font-style="normal" font-weight="normal" text-decoration="normal" x="234.625" y="251.625" text-anchor="start" dominant-baseline="text-after-edge" fill-opacity="0.8">42132561C&gt;T </text><text fill="rgb(0,0,0)" stroke="none" font-family="times new roman" font-size="10px" font-style="normal" font-weight="normal" text-decoration="normal" x="234.625" y="261.625" text-anchor="start" dominant-baseline="text-after-edge" fill-opacity="0.8">42132844C&gt;A </text><text fill="rgb(0,0,0)" stroke="none" font-family="times new roman" font-size="10px" font-style="normal" font-weight="normal" text-decoration="normal" x="234.625" y="271.625" text-anchor="start" dominant-baseline="text-after-edge" fill-opacity="0.8">42132851T&gt;C </text><text fill="rgb(0,0,0)" stroke="none" font-family="times new roman" font-size="10px" font-style="normal" font-weight="normal" text-decoration="normal" x="234.625" y="281.625" text-anchor="start" dominant-baseline="text-after-edge" fill-opacity="0.8">42133400T&gt;G </text><text fill="rgb(0,0,0)" stroke="none" font-family="times new roman" font-size="10px" font-style="normal" font-weight="normal" text-decoration="normal" x="234.625" y="291.625" text-anchor="start" dominant-baseline="text-after-edge" fill-opacity="0.8">42133533A&gt;C </text><text fill="rgb(0,0,0)" stroke="none" font-family="times new roman" font-size="10px" font-style="normal" font-weight="normal" text-decoration="normal" x="234.625" y="301.625" text-anchor="start" dominant-baseline="text-after-edge" fill-opacity="0.8">42134096del </text><text fill="rgb(0,0,0)" stroke="none" font-family="times new roman" font-size="10px" font-style="normal" font-weight="normal" text-decoration="normal" x="234.625" y="311.625" text-anchor="start" dominant-baseline="text-after-edge" fill-opacity="0.8">42134820T&gt;G </text><text fill="rgb(0,0,0)" stroke="none" font-family="times new roman" font-size="10px" font-style="normal" font-weight="normal" text-decoration="normal" x="234.625" y="321.625" text-anchor="start" dominant-baseline="text-after-edge" fill-opacity="0.8">42135064_42135066dup </text><text fill="rgb(0,0,0)" stroke="none" font-family="times new roman" font-size="10px" font-style="normal" font-weight="normal" text-decoration="normal" x="234.625" y="331.625" text-anchor="start" dominant-baseline="text-after-edge" fill-opacity="0.8">42135201T&gt;C </text><text fill="rgb(0,0,0)" stroke="none" font-family="times new roman" font-size="10px" font-style="normal" font-weight="normal" text-decoration="normal" x="234.625" y="341.625" text-anchor="start" dominant-baseline="text-after-edge" fill-opacity="0.8">42135691T&gt;C </text><g transform="scale(0.9869383490073146,0.9869383490073146) translate(114.63922710428801,-56.26416093170991)"/></g></svg>