<svg version="1.1" xmlns="http://www.w3.org/2000/svg" xmlns:xlink="http://www.w3.org/1999/xlink" width="1017" height="608"><defs/><g transform="translate(-112.26497695852538,-26.912442396313395) scale(0.8110599078341014,0.8110599078341014)"><path fill="none" stroke="rgb(120,144,156)" paint-order="fill stroke markers" d=" M 618.0971802073473 360.51038250182535 L 363.88116452292894 429.02025073368355" stroke-opacity="1" stroke-linejoin="round" stroke-miterlimit="10"/><path fill="rgb(120,144,156)" stroke="none" paint-order="stroke fill markers" d=" M 369.218443100491 423.0766863666142 L 361.9500610097797 429.54067289068945 L 371.4822794834667 431.47698664881335 Z" fill-opacity="1"/><path fill="none" stroke="rgb(120,144,156)" paint-order="fill stroke markers" d=" M 423.3428644371456 453.38460429104543 L 468.2349658616695 547.6845806561696" stroke-opacity="1" stroke-linejoin="round" stroke-miterlimit="10"/><path fill="rgb(120,144,156)" stroke="none" paint-order="stroke fill markers" d=" M 461.4274246228928 543.5048818294174 L 469.0946355628544 549.4903957089546 L 469.28272010250714 539.7653186292629 Z" fill-opacity="1"/><path fill="none" stroke="rgb(55,71,79)" paint-order="fill stroke markers" d=" M 896.5019132653061 131.375 L 920.9141773259075 170.27584354372266" stroke-opacity="1" stroke-linejoin="round" stroke-miterlimit="10" stroke-width="2"/><path fill="none" stroke="rgb(120,144,156)" paint-order="fill stroke markers" d=" M 1110.818860619469 282.125 L 1071.8347912421027 335.6836606643453" stroke-opacity="1" stroke-linejoin="round" stroke-miterlimit="10"/><path fill="rgb(120,144,156)" stroke="none" paint-order="stroke fill markers" d=" M 1072.26068680708 327.7067494220328 L 1070.6578097983602 337.3006686052924 L 1079.2946713501997 332.8266187023125 Z" fill-opacity="1"/><path fill="none" stroke="rgb(120,144,156)" paint-order="fill stroke markers" d=" M 326.40625 585.6381909547739 L 778.2159656973602 691.8929381640023" stroke-opacity="1" stroke-linejoin="round" stroke-miterlimit="10"/><path fill="rgb(120,144,156)" stroke="none" paint-order="stroke fill markers" d=" M 770.698052096786 694.5935816233101 L 780.1628513442737 692.3507987081006 L 772.6897454636135 686.1246290592361 Z" fill-opacity="1"/><path fill="none" stroke="rgb(120,144,156)" paint-order="fill stroke markers" d=" M 503.9615316901409 447.875 L 482.6756304085209 546.0112981165596" stroke-opacity="1" stroke-linejoin="round" stroke-miterlimit="10"/><path fill="rgb(120,144,156)" stroke="none" paint-order="stroke fill markers" d=" M 479.84469687714864 538.5414711211766 L 482.251685483319 547.9658493950876 L 488.3469949387456 540.3856315458047 Z" fill-opacity="1"/><path fill="none" stroke="rgb(120,144,156)" paint-order="fill stroke markers" d=" M 251.40625 445.875 L 251.40625 461" stroke-opacity="1" stroke-linejoin="round" stroke-miterlimit="10"/><path fill="rgb(120,144,156)" stroke="none" paint-order="stroke fill markers" d=" M 247.05625 454.3 L 251.40625 463 L 255.75625 454.3 Z" fill-opacity="1"/><path fill="none" stroke="rgb(120,144,156)" paint-order="fill stroke markers" d=" M 749.9131944444445 366.875 L 793.7869794544027 417.82520194704836" stroke-opacity="1" stroke-linejoin="round" stroke-miterlimit="10"/><path fill="rgb(120,144,156)" stroke="none" paint-order="stroke fill markers" d=" M 786.1187801572543 415.586626610096 L 795.0920257251225 419.3407395517552 L 792.7113687377289 409.9096753324651 Z" fill-opacity="1"/><path fill="none" stroke="rgb(120,144,156)" paint-order="fill stroke markers" d=" M 360.00770476346275 444.9534702622989 L 785.0996003921157 684.9493745516464" stroke-opacity="1" stroke-linejoin="round" stroke-miterlimit="10"/><path fill="rgb(120,144,156)" stroke="none" paint-order="stroke fill markers" d=" M 777.126620267423 685.4434271108494 L 786.8412057348926 685.9326399430902 L 781.4038247202035 677.86744386977 Z" fill-opacity="1"/><path fill="none" stroke="rgb(120,144,156)" paint-order="fill stroke markers" d=" M 496.9724063243028 575.5320437476987 L 781.9492479061621 688.1115275915171" stroke-opacity="1" stroke-linejoin="round" stroke-miterlimit="10"/><path fill="rgb(120,144,156)" stroke="none" paint-order="stroke fill markers" d=" M 774.1196070439514 689.6955806110847 L 783.8093607182892 688.8463611278779 L 777.3161329271212 681.6040898783318 Z" fill-opacity="1"/><path fill="none" stroke="rgb(120,144,156)" paint-order="fill stroke markers" d=" M 808.6719978002217 455.37399242235347 L 810.8904931842802 679.1250983002582" stroke-opacity="1" stroke-linejoin="round" stroke-miterlimit="10"/><path fill="rgb(120,144,156)" stroke="none" paint-order="stroke fill markers" d=" M 806.4742796575133 672.4685557978775 L 810.9103222379604 681.125 L 815.1738520513901 672.3822994143688 Z" fill-opacity="1"/><path fill="none" stroke="rgb(55,71,79)" paint-order="fill stroke markers" d=" M 525.5034722222222 366.875 L 432.0106445946967 424.1642220355901" stroke-opacity="1" stroke-linejoin="round" stroke-miterlimit="10" stroke-width="2"/><path fill="none" stroke="rgb(55,71,79)" paint-order="fill stroke markers" d=" M 1001.2458517699115 282.125 L 985.5771437958374 329.6569194918221" stroke-opacity="1" stroke-linejoin="round" stroke-miterlimit="10" stroke-width="2"/><path fill="none" stroke="rgb(120,144,156)" paint-order="fill stroke markers" d=" M 931.6988527884254 281.72846724574623 L 1039.0341004808013 342.75429360669455" stroke-opacity="1" stroke-linejoin="round" stroke-miterlimit="10"/><path fill="rgb(120,144,156)" stroke="none" paint-order="stroke fill markers" d=" M 1031.059668276823 343.2243266099553 L 1040.7727359936189 343.742800841655 L 1035.3596747489012 335.66126212919846 Z" fill-opacity="1"/><path fill="none" stroke="rgb(120,144,156)" paint-order="fill stroke markers" d=" M 1055.8231067497684 577.1731051758109 L 838.2006181093799 686.0619056216789" stroke-opacity="1" stroke-linejoin="round" stroke-miterlimit="10"/><path fill="rgb(120,144,156)" stroke="none" paint-order="stroke fill markers" d=" M 842.2459377319054 679.1736628013647 L 836.4120187678939 686.9568427120018 L 846.1389140748106 686.9540699368289 Z" fill-opacity="1"/><path fill="none" stroke="rgb(55,71,79)" paint-order="fill stroke markers" d=" M 642.71875 282.125 L 642.71875 328.375" stroke-opacity="1" stroke-linejoin="round" stroke-miterlimit="10" stroke-width="2"/><path fill="none" stroke="rgb(120,144,156)" paint-order="fill stroke markers" d=" M 1119.15625 582.2837764514379 L 840.5347870464356 688.410888222139" stroke-opacity="1" stroke-linejoin="round" stroke-miterlimit="10"/><path fill="rgb(120,144,156)" stroke="none" paint-order="stroke fill markers" d=" M 845.2475662707749 681.960910549105 L 838.6657794482136 689.1227945346468 L 848.3443587301837 690.0910936013707 Z" fill-opacity="1"/><path fill="none" stroke="rgb(120,144,156)" paint-order="fill stroke markers" d=" M 1056.1908726054476 455.1201951315729 L 1070.6197739696306 545.779663879981" stroke-opacity="1" stroke-linejoin="round" stroke-miterlimit="10"/><path fill="rgb(120,144,156)" stroke="none" paint-order="stroke fill markers" d=" M 1065.2707583462727 539.8466602678911 L 1070.9341273945524 547.7548048684271 L 1073.8626216460134 538.4792228694816 Z" fill-opacity="1"/><path fill="none" stroke="rgb(120,144,156)" paint-order="fill stroke markers" d=" M 482.46875 364.7395418326693 L 786.4720504549917 430.1426423289623" stroke-opacity="1" stroke-linejoin="round" stroke-miterlimit="10"/><path fill="rgb(120,144,156)" stroke="none" paint-order="stroke fill markers" d=" M 779.0069996629663 432.9861466233994 L 788.4273126367702 430.5632963441657 L 780.8368446291009 424.48075613266286 Z" fill-opacity="1"/><path fill="none" stroke="rgb(120,144,156)" paint-order="fill stroke markers" d=" M 688.21875 364.18989361702126 L 364.2010908535127 430.37222399587824" stroke-opacity="1" stroke-linejoin="round" stroke-miterlimit="10"/><path fill="rgb(120,144,156)" stroke="none" paint-order="stroke fill markers" d=" M 369.89501788020635 424.76939479852734 L 362.2415494443116 430.7724707518002 L 371.63609126846677 433.2933999285523 Z" fill-opacity="1"/><path fill="none" stroke="rgb(120,144,156)" paint-order="fill stroke markers" d=" M 1226.8459157403786 573.9324847761646 L 842.2950483028401 690.1920493503042" stroke-opacity="1" stroke-linejoin="round" stroke-miterlimit="10"/><path fill="rgb(120,144,156)" stroke="none" paint-order="stroke fill markers" d=" M 847.4495205351888 684.0892699830039 L 840.3806254482429 690.7708283528568 L 849.9672091962927 692.4170094005018 Z" fill-opacity="1"/><path fill="none" stroke="rgb(55,71,79)" paint-order="fill stroke markers" d=" M 969.6969366737688 135.7390277393602 L 948.0233226740925 170.27584354372266" stroke-opacity="1" stroke-linejoin="round" stroke-miterlimit="10" stroke-width="2"/><path fill="none" stroke="rgb(120,144,156)" paint-order="fill stroke markers" d=" M 1057.1735592270945 374.32574712983745 L 1054.5274959702622 412.4290580282272" stroke-opacity="1" stroke-linejoin="round" stroke-miterlimit="10"/><path fill="rgb(120,144,156)" stroke="none" paint-order="stroke fill markers" d=" M 1050.6521071001973 405.4437977534931 L 1054.3889407729055 414.42425287016255 L 1059.3312046626163 406.0465128619944 Z" fill-opacity="1"/><path fill="none" stroke="rgb(120,144,156)" paint-order="fill stroke markers" d=" M 1194.6965669014085 447.875 L 1237.563435982085 547.337343291766" stroke-opacity="1" stroke-linejoin="round" stroke-miterlimit="10"/><path fill="rgb(120,144,156)" stroke="none" paint-order="stroke fill markers" d=" M 1230.9168510664917 542.9061573376666 L 1238.3550194503441 549.1740238880535 L 1238.9064116603422 539.4627692507395 Z" fill-opacity="1"/><path fill="none" stroke="rgb(120,144,156)" paint-order="fill stroke markers" d=" M 994.9651327454402 372.5427545921148 L 1037.6410593422588 418.4034518304869" stroke-opacity="1" stroke-linejoin="round" stroke-miterlimit="10"/><path fill="rgb(120,144,156)" stroke="none" paint-order="stroke fill markers" d=" M 1029.8923143669588 416.461944347173 L 1039.003520734058 419.86758944555476 L 1036.261312992504 410.5352372928464 Z" fill-opacity="1"/><path fill="none" stroke="rgb(120,144,156)" paint-order="fill stroke markers" d=" M 810.9533179012345 204.875 L 808.7117913753144 412.3763126851835" stroke-opacity="1" stroke-linejoin="round" stroke-miterlimit="10"/><path fill="rgb(120,144,156)" stroke="none" paint-order="stroke fill markers" d=" M 804.4344174817658 405.6297155744329 L 808.6901876975087 414.3761960020561 L 813.1339099101614 405.7236915728878 Z" fill-opacity="1"/><path fill="none" stroke="rgb(120,144,156)" paint-order="fill stroke markers" d=" M 1095.8253676470588 282.125 L 828.3362235087084 424.3140579785338" stroke-opacity="1" stroke-linejoin="round" stroke-miterlimit="10"/><path fill="rgb(120,144,156)" stroke="none" paint-order="stroke fill markers" d=" M 832.2105334960404 417.3281992537914 L 826.5702258634899 425.25280838044193 L 836.2940977443405 425.010289010492 Z" fill-opacity="1"/><path fill="none" stroke="rgb(120,144,156)" paint-order="fill stroke markers" d=" M 1298.2409330985915 447.875 L 1255.374064017915 547.337343291766" stroke-opacity="1" stroke-linejoin="round" stroke-miterlimit="10"/><path fill="rgb(120,144,156)" stroke="none" paint-order="stroke fill markers" d=" M 1254.0310883396578 539.4627692507395 L 1254.5824805496559 549.1740238880535 L 1262.0206489335083 542.9061573376666 Z" fill-opacity="1"/><path fill="none" stroke="rgb(120,144,156)" paint-order="fill stroke markers" d=" M 827.6592839805826 204.875 L 887.897490124297 252.1476493927816" stroke-opacity="1" stroke-linejoin="round" stroke-miterlimit="10"/><path fill="rgb(120,144,156)" stroke="none" paint-order="stroke fill markers" d=" M 879.9412113494384 251.43341689790685 L 889.4708544788936 253.3823658005793 L 885.3122277233584 244.5892819554117 Z" fill-opacity="1"/><path fill="none" stroke="rgb(120,144,156)" paint-order="fill stroke markers" d=" M 665.6293689128607 365.0711395592261 L 788.253498018064 424.9960533300947" stroke-opacity="1" stroke-linejoin="round" stroke-miterlimit="10"/><path fill="rgb(120,144,156)" stroke="none" paint-order="stroke fill markers" d=" M 780.3239155161502 425.962604593786 L 790.0504093053472 425.87418192297514 L 784.1437748951804 418.1460404941041 Z" fill-opacity="1"/><path fill="none" stroke="rgb(120,144,156)" paint-order="fill stroke markers" d=" M 417.55439814814815 366.875 L 358.86474909993404 419.80595697041434" stroke-opacity="1" stroke-linejoin="round" stroke-miterlimit="10"/><path fill="rgb(120,144,156)" stroke="none" paint-order="stroke fill markers" d=" M 360.9268205128612 412.0884209978394 L 357.3795491799399 421.1454274619331 L 366.7535171509676 418.5490406498139 Z" fill-opacity="1"/><path fill="none" stroke="rgb(120,144,156)" paint-order="fill stroke markers" d=" M 885.054332519305 276.27556016289964 L 363.75353013002507 428.5656822092061" stroke-opacity="1" stroke-linejoin="round" stroke-miterlimit="10"/><path fill="rgb(120,144,156)" stroke="none" paint-order="stroke fill markers" d=" M 368.96491877363457 422.5114334196983 L 361.833771896245 429.1265104572767 L 371.4045216527415 430.8623817366413 Z" fill-opacity="1"/><path fill="none" stroke="rgb(120,144,156)" paint-order="fill stroke markers" d=" M 926.6350164960652 216.14190378662528 L 917.9793939748316 242.9548096418747" stroke-opacity="1" stroke-linejoin="round" stroke-miterlimit="10"/><path fill="rgb(120,144,156)" stroke="none" paint-order="stroke fill markers" d=" M 915.8980207593237 235.24245685314895 L 917.3649835039348 244.85809621337472 L 924.1773173453487 237.91514240155036 Z" fill-opacity="1"/><path fill="none" stroke="rgb(120,144,156)" paint-order="fill stroke markers" d=" M 954.5953716657036 364.8897443907051 L 828.7614367655556 425.15610789055427" stroke-opacity="1" stroke-linejoin="round" stroke-miterlimit="10"/><path fill="rgb(120,144,156)" stroke="none" paint-order="stroke fill markers" d=" M 832.925162127917 418.3387850210675 L 826.957642386395 426.0200094113939 L 836.6831337435693 426.18529057041565 Z" fill-opacity="1"/><path fill="none" stroke="rgb(120,144,156)" paint-order="fill stroke markers" d=" M 759.0838988616463 366.875 L 1055.190909471975 555.8935612727753" stroke-opacity="1" stroke-linejoin="round" stroke-miterlimit="10"/><path fill="rgb(120,144,156)" stroke="none" paint-order="stroke fill markers" d=" M 1047.2028743608107 555.9551653538645 L 1056.8767175189105 556.9696891596398 L 1051.884030668671 548.6219003496947 Z" fill-opacity="1"/><path fill="none" stroke="rgb(120,144,156)" paint-order="fill stroke markers" d=" M 952.2984326088317 357.09942523251243 L 364.4756476980897 432.029918912489" stroke-opacity="1" stroke-linejoin="round" stroke-miterlimit="10"/><path fill="rgb(120,144,156)" stroke="none" paint-order="stroke fill markers" d=" M 370.5718193357131 426.8676334336884 L 362.4917012360372 432.28281500915665 L 371.6719173562173 435.4978005436164 Z" fill-opacity="1"/><path fill="rgb(69,90,100)" stroke="rgb(255,193,7)" paint-order="fill stroke markers" d=" M 932.03125 269.125 L 931.9618900089954 270.8903296538765 L 931.7542376633907 272.6447754634052 L 931.4095732089477 274.37752068675786 L 930.9300216166409 276.0778823734363 L 930.318539481504 277.73537722821453 L 929.5788967942383 279.3397862441398 L 928.7156536979671 280.8812177061088 L 927.7341323734363 282.35016817658067 L 926.6403842260007 283.73758108742913 L 925.4411525766973 285.03490257669733 L 924.1438310874291 286.2341342260007 L 922.7564181765806 287.3278823734363 L 921.2874677061088 288.30940369796707 L 919.7460362441398 289.1726467942383 L 918.1416272282145 289.91228948150393 L 916.4841323734363 290.52377161664094 L 914.7837706867579 291.00332320894773 L 913.0510254634052 291.3479876633906 L 911.2965796538765 291.5556400089954 L 909.53125 291.625 L 907.7659203461235 291.5556400089954 L 906.0114745365948 291.3479876633906 L 904.2787293132421 291.00332320894773 L 902.5783676265637 290.52377161664094 L 900.9208727717855 289.91228948150393 L 899.3164637558602 289.1726467942383 L 897.7750322938912 288.30940369796707 L 896.3060818234194 287.3278823734363 L 894.9186689125709 286.2341342260007 L 893.6213474233027 285.03490257669733 L 892.4221157739993 283.73758108742913 L 891.3283676265637 282.35016817658067 L 890.3468463020329 280.8812177061088 L 889.4836032057617 279.3397862441398 L 888.743960518496 277.73537722821453 L 888.1324783833591 276.0778823734363 L 887.6529267910523 274.37752068675786 L 887.3082623366095 272.6447754634052 L 887.1006099910046 270.8903296538765 L 887.03125 269.125 L 887.1006099910046 267.3596703461235 L 887.3082623366093 265.6052245365948 L 887.6529267910523 263.87247931324214 L 888.1324783833591 262.1721176265637 L 888.743960518496 260.51462277178547 L 889.4836032057617 258.9102137558602 L 890.3468463020329 257.3687822938912 L 891.3283676265637 255.89983182341936 L 892.4221157739993 254.51241891257087 L 893.6213474233027 253.2150974233027 L 894.9186689125709 252.0158657739993 L 896.3060818234194 250.92211762656368 L 897.7750322938912 249.94059630203293 L 899.3164637558602 249.0773532057617 L 900.9208727717855 248.33771051849604 L 902.5783676265637 247.72622838335903 L 904.2787293132421 247.24667679105227 L 906.0114745365948 246.9020123366094 L 907.7659203461236 246.6943599910046 L 909.5312500000001 246.625 L 911.2965796538766 246.69435999100463 L 913.0510254634053 246.9020123366094 L 914.783770686758 247.2466767910523 L 916.4841323734364 247.72622838335909 L 918.1416272282146 248.3377105184961 L 919.7460362441399 249.0773532057618 L 921.2874677061089 249.940596302033 L 922.7564181765807 250.92211762656376 L 924.1438310874292 252.01586577399942 L 925.4411525766974 253.2150974233028 L 926.6403842260008 254.512418912571 L 927.7341323734364 255.8998318234195 L 928.7156536979671 257.36878229389134 L 929.5788967942384 258.9102137558604 L 930.318539481504 260.5146227717857 L 930.930021616641 262.17211762656393 L 931.4095732089478 263.87247931324237 L 931.7542376633907 265.6052245365951 L 931.9618900089954 267.3596703461238 Z" fill-opacity="1" stroke-opacity="1" stroke-miterlimit="10" stroke-width="6"/><text fill="rgb(255,255,255)" stroke="none" font-family="times new roman" font-size="15px" font-style="normal" font-weight="normal" text-decoration="normal" x="909.53125" y="276.625" text-anchor="middle" dominant-baseline="text-after-edge" fill-opacity="1">*10</text><path fill="rgb(69,90,100)" stroke="rgb(76,175,80)" paint-order="fill stroke markers" d=" M 499.21875 343.875 L 499.21875 363.875 L 594.21875 363.875 L 594.21875 343.875 Z" fill-opacity="1" stroke-opacity="1" stroke-miterlimit="10" stroke-width="6"/><text fill="rgb(255,255,255)" stroke="none" font-family="times new roman" font-size="10px" font-style="normal" font-weight="normal" text-decoration="normal" x="546.71875" y="358.875" text-anchor="middle" dominant-baseline="text-after-edge" fill-opacity="1">42127407T&gt;G</text><path fill="rgb(69,90,100)" stroke="rgb(158,158,158)" paint-order="fill stroke markers" d=" M 763.59375 181.875 L 763.59375 201.875 L 858.59375 201.875 L 858.59375 181.875 Z" fill-opacity="1" stroke-opacity="1" stroke-miterlimit="10" stroke-width="6"/><text fill="rgb(255,255,255)" stroke="none" font-family="times new roman" font-size="10px" font-style="normal" font-weight="normal" text-decoration="normal" x="811.09375" y="196.875" text-anchor="middle" dominant-baseline="text-after-edge" fill-opacity="1">42130692G&gt;A</text><path fill="rgb(69,90,100)" stroke="rgb(76,175,80)" paint-order="fill stroke markers" d=" M 956.96875 191.875 L 956.8993900089954 193.6403296538765 L 956.6917376633907 195.39477546340518 L 956.3470732089477 197.12752068675786 L 955.8675216166409 198.82788237343632 L 955.256039481504 200.48537722821453 L 954.5163967942383 202.08978624413982 L 953.6531536979671 203.63121770610886 L 952.6716323734363 205.10016817658064 L 951.5778842260007 206.48758108742913 L 950.3786525766973 207.7849025766973 L 949.0813310874291 208.9841342260007 L 947.6939181765806 210.07788237343632 L 946.2249677061088 211.05940369796707 L 944.6835362441398 211.9226467942383 L 943.0791272282145 212.66228948150396 L 941.4216323734363 213.27377161664094 L 939.7212706867579 213.75332320894773 L 937.9885254634052 214.0979876633906 L 936.2340796538765 214.30564000899537 L 934.46875 214.375 L 932.7034203461235 214.30564000899537 L 930.9489745365948 214.0979876633906 L 929.2162293132421 213.75332320894773 L 927.5158676265637 213.27377161664094 L 925.8583727717855 212.66228948150396 L 924.2539637558602 211.9226467942383 L 922.7125322938912 211.05940369796707 L 921.2435818234194 210.07788237343632 L 919.8561689125709 208.9841342260007 L 918.5588474233027 207.78490257669733 L 917.3596157739993 206.48758108742913 L 916.2658676265637 205.10016817658064 L 915.2843463020329 203.63121770610886 L 914.4211032057617 202.08978624413982 L 913.681460518496 200.48537722821453 L 913.0699783833591 198.82788237343632 L 912.5904267910523 197.12752068675786 L 912.2457623366095 195.3947754634052 L 912.0381099910046 193.6403296538765 L 911.96875 191.875 L 912.0381099910046 190.1096703461235 L 912.2457623366093 188.35522453659482 L 912.5904267910523 186.62247931324214 L 913.0699783833591 184.92211762656368 L 913.681460518496 183.26462277178547 L 914.4211032057617 181.6602137558602 L 915.2843463020329 180.11878229389114 L 916.2658676265637 178.64983182341936 L 917.3596157739993 177.26241891257087 L 918.5588474233027 175.9650974233027 L 919.8561689125709 174.7658657739993 L 921.2435818234194 173.67211762656368 L 922.7125322938912 172.69059630203293 L 924.2539637558602 171.8273532057617 L 925.8583727717855 171.08771051849604 L 927.5158676265637 170.47622838335903 L 929.2162293132421 169.99667679105227 L 930.9489745365948 169.6520123366094 L 932.7034203461236 169.4443599910046 L 934.4687500000001 169.375 L 936.2340796538766 169.44435999100463 L 937.9885254634053 169.6520123366094 L 939.721270686758 169.9966767910523 L 941.4216323734364 170.47622838335909 L 943.0791272282146 171.0877105184961 L 944.6835362441399 171.8273532057618 L 946.2249677061089 172.690596302033 L 947.6939181765807 173.67211762656376 L 949.0813310874292 174.76586577399942 L 950.3786525766974 175.9650974233028 L 951.5778842260008 177.262418912571 L 952.6716323734364 178.6498318234195 L 953.6531536979671 180.11878229389131 L 954.5163967942384 181.66021375586038 L 955.256039481504 183.2646227717857 L 955.867521616641 184.9221176265639 L 956.3470732089478 186.62247931324237 L 956.6917376633907 188.35522453659505 L 956.8993900089954 190.10967034612375 Z" fill-opacity="1" stroke-opacity="1" stroke-miterlimit="10" stroke-width="6"/><text fill="rgb(255,255,255)" stroke="none" font-family="times new roman" font-size="15px" font-style="normal" font-weight="normal" text-decoration="normal" x="934.46875" y="199.375" text-anchor="middle" dominant-baseline="text-after-edge" fill-opacity="1">*39</text><path fill="rgb(69,90,100)" stroke="rgb(244,67,54)" paint-order="fill stroke markers" d=" M 359.65625 434.875 L 359.60230334032974 436.2480341752373 L 359.4407959604149 437.61260313820407 L 359.1727236069593 438.96029386747836 L 358.7997390351652 440.2827974015616 L 358.3241418189475 441.57196006638907 L 357.74886417329645 442.81983374544205 L 357.0774528761966 444.0187248825291 L 356.3140474015616 445.1612419151183 L 355.46335439800055 446.24034084577823 L 354.53061867076457 447.24936867076457 L 353.52159084577823 448.18210439800055 L 352.4424919151183 449.0327974015616 L 351.2999748825291 449.7962028761966 L 350.10108374544205 450.46761417329645 L 348.85321006638907 451.0428918189475 L 347.5640474015616 451.5184890351652 L 346.24154386747836 451.8914736069593 L 344.89385313820407 452.1595459604149 L 343.5292841752373 452.32105334032974 L 342.15625 452.375 L 340.7832158247627 452.32105334032974 L 339.41864686179593 452.1595459604149 L 338.07095613252164 451.8914736069593 L 336.7484525984384 451.5184890351652 L 335.45928993361093 451.0428918189475 L 334.21141625455795 450.46761417329645 L 333.0125251174709 449.7962028761966 L 331.8700080848817 449.0327974015616 L 330.79090915422177 448.18210439800055 L 329.78188132923543 447.24936867076457 L 328.84914560199945 446.24034084577823 L 327.9984525984384 445.1612419151183 L 327.2350471238034 444.0187248825291 L 326.56363582670355 442.81983374544205 L 325.9883581810525 441.57196006638907 L 325.5127609648348 440.2827974015616 L 325.1397763930407 438.96029386747836 L 324.8717040395851 437.61260313820407 L 324.71019665967026 436.2480341752373 L 324.65625 434.875 L 324.71019665967026 433.5019658247627 L 324.8717040395851 432.13739686179593 L 325.1397763930407 430.78970613252164 L 325.5127609648348 429.4672025984384 L 325.9883581810525 428.17803993361093 L 326.56363582670355 426.93016625455795 L 327.2350471238034 425.7312751174709 L 327.9984525984384 424.5887580848817 L 328.84914560199945 423.50965915422177 L 329.78188132923543 422.50063132923543 L 330.79090915422177 421.56789560199945 L 331.8700080848817 420.7172025984384 L 333.0125251174709 419.9537971238034 L 334.21141625455795 419.28238582670355 L 335.45928993361093 418.7071081810525 L 336.74845259843846 418.2315109648348 L 338.0709561325217 417.8585263930407 L 339.418646861796 417.5904540395851 L 340.78321582476275 417.42894665967026 L 342.15625000000006 417.375 L 343.52928417523736 417.42894665967026 L 344.8938531382041 417.5904540395851 L 346.2415438674784 417.8585263930407 L 347.56404740156165 418.23151096483485 L 348.8532100663892 418.7071081810525 L 350.10108374544217 419.2823858267036 L 351.2999748825292 419.95379712380344 L 352.44249191511835 420.7172025984385 L 353.5215908457783 421.56789560199957 L 354.5306186707647 422.5006313292355 L 355.46335439800066 423.5096591542219 L 356.31404740156165 424.5887580848818 L 357.0774528761967 425.73127511747106 L 357.7488641732965 426.93016625455806 L 358.32414181894757 428.1780399336111 L 358.79973903516526 429.4672025984386 L 359.1727236069594 430.7897061325218 L 359.44079596041496 432.13739686179616 L 359.60230334032974 433.5019658247629 Z" fill-opacity="1" stroke-opacity="1" stroke-miterlimit="10" stroke-width="6"/><text fill="rgb(255,255,255)" stroke="none" font-family="times new roman" font-size="10px" font-style="normal" font-weight="normal" text-decoration="normal" x="342.15625" y="439.875" text-anchor="middle" dominant-baseline="text-after-edge" fill-opacity="1">*4.2</text><path fill="rgb(69,90,100)" stroke="rgb(255,193,7)" paint-order="fill stroke markers" d=" M 1076.09375 353.875 L 1076.0398033403299 355.2480341752373 L 1075.878295960415 356.61260313820407 L 1075.6102236069594 357.96029386747836 L 1075.2372390351652 359.2827974015616 L 1074.7616418189475 360.57196006638907 L 1074.1863641732964 361.81983374544205 L 1073.5149528761965 363.0187248825291 L 1072.7515474015615 364.1612419151183 L 1071.9008543980005 365.24034084577823 L 1070.9681186707646 366.24936867076457 L 1069.9590908457783 367.18210439800055 L 1068.8799919151184 368.0327974015616 L 1067.737474882529 368.7962028761966 L 1066.538583745442 369.46761417329645 L 1065.290710066389 370.0428918189475 L 1064.0015474015615 370.5184890351652 L 1062.6790438674784 370.8914736069593 L 1061.3313531382041 371.1595459604149 L 1059.9667841752373 371.32105334032974 L 1058.59375 371.375 L 1057.2207158247627 371.32105334032974 L 1055.8561468617959 371.1595459604149 L 1054.5084561325216 370.8914736069593 L 1053.1859525984385 370.5184890351652 L 1051.896789933611 370.0428918189475 L 1050.648916254558 369.46761417329645 L 1049.450025117471 368.7962028761966 L 1048.3075080848816 368.0327974015616 L 1047.2284091542217 367.18210439800055 L 1046.2193813292354 366.24936867076457 L 1045.2866456019995 365.24034084577823 L 1044.4359525984385 364.1612419151183 L 1043.6725471238035 363.0187248825291 L 1043.0011358267036 361.81983374544205 L 1042.4258581810525 360.57196006638907 L 1041.9502609648348 359.2827974015616 L 1041.5772763930406 357.96029386747836 L 1041.309204039585 356.61260313820407 L 1041.1476966596701 355.2480341752373 L 1041.09375 353.875 L 1041.1476966596701 352.5019658247627 L 1041.309204039585 351.13739686179593 L 1041.5772763930406 349.78970613252164 L 1041.9502609648348 348.4672025984384 L 1042.4258581810525 347.17803993361093 L 1043.0011358267036 345.93016625455795 L 1043.6725471238035 344.7312751174709 L 1044.4359525984385 343.5887580848817 L 1045.2866456019995 342.50965915422177 L 1046.2193813292354 341.50063132923543 L 1047.2284091542217 340.56789560199945 L 1048.3075080848816 339.7172025984384 L 1049.450025117471 338.9537971238034 L 1050.648916254558 338.28238582670355 L 1051.896789933611 337.7071081810525 L 1053.1859525984385 337.2315109648348 L 1054.5084561325216 336.8585263930407 L 1055.856146861796 336.5904540395851 L 1057.2207158247627 336.42894665967026 L 1058.59375 336.375 L 1059.9667841752373 336.42894665967026 L 1061.3313531382041 336.5904540395851 L 1062.6790438674784 336.8585263930407 L 1064.0015474015618 337.23151096483485 L 1065.2907100663892 337.7071081810525 L 1066.538583745442 338.2823858267036 L 1067.737474882529 338.95379712380344 L 1068.8799919151184 339.7172025984385 L 1069.9590908457783 340.56789560199957 L 1070.9681186707646 341.5006313292355 L 1071.9008543980005 342.5096591542219 L 1072.7515474015618 343.5887580848818 L 1073.5149528761967 344.73127511747106 L 1074.1863641732966 345.93016625455806 L 1074.7616418189475 347.1780399336111 L 1075.2372390351652 348.4672025984386 L 1075.6102236069594 349.7897061325218 L 1075.878295960415 351.13739686179616 L 1076.0398033403299 352.5019658247629 Z" fill-opacity="1" stroke-opacity="1" stroke-miterlimit="10" stroke-width="6"/><text fill="rgb(255,255,255)" stroke="none" font-family="times new roman" font-size="10px" font-style="normal" font-weight="normal" text-decoration="normal" x="1058.59375" y="358.875" text-anchor="middle" dominant-baseline="text-after-edge" fill-opacity="1">*10.1</text><path fill="rgb(69,90,100)" stroke="rgb(76,175,80)" paint-order="fill stroke markers" d=" M 251.40625 424.875 L 293.90625 424.875 L 293.90625 424.875 A 5 5 0 0 1 298.90625 429.875 L 298.90625 439.875 L 298.90625 439.875 A 5 5 0 0 1 293.90625 444.875 L 208.90625 444.875 L 208.90625 444.875 A 5 5 0 0 1 203.90625 439.875 L 203.90625 429.875 L 203.90625 429.875 A 5 5 0 0 1 208.90625 424.875 L 251.40625 424.875 Z" fill-opacity="1" stroke-opacity="1" stroke-miterlimit="10" stroke-width="2"/><text fill="rgb(255,255,255)" stroke="none" font-family="times new roman" font-size="10px" font-style="normal" font-weight="normal" text-decoration="normal" x="251.40625" y="439.875" text-anchor="middle" dominant-baseline="text-after-edge" fill-opacity="1">42132049dup</text><path fill="rgb(69,90,100)" stroke="rgb(76,175,80)" paint-order="fill stroke markers" d=" M 1141.59375 424.875 L 1141.59375 444.875 L 1236.59375 444.875 L 1236.59375 424.875 Z" fill-opacity="1" stroke-opacity="1" stroke-miterlimit="10" stroke-width="6"/><text fill="rgb(255,255,255)" stroke="none" font-family="times new roman" font-size="10px" font-style="normal" font-weight="normal" text-decoration="normal" x="1189.09375" y="439.875" text-anchor="middle" dominant-baseline="text-after-edge" fill-opacity="1">42130482C&gt;A</text><path fill="rgb(69,90,100)" stroke="rgb(244,67,54)" paint-order="fill stroke markers" d=" M 1000.09375 353.875 L 1000.0243900089954 355.6403296538765 L 999.8167376633907 357.3947754634052 L 999.4720732089477 359.12752068675786 L 998.9925216166409 360.8278823734363 L 998.381039481504 362.48537722821453 L 997.6413967942383 364.0897862441398 L 996.7781536979671 365.6312177061088 L 995.7966323734363 367.10016817658067 L 994.7028842260007 368.48758108742913 L 993.5036525766973 369.78490257669733 L 992.2063310874291 370.9841342260007 L 990.8189181765806 372.0778823734363 L 989.3499677061088 373.05940369796707 L 987.8085362441398 373.9226467942383 L 986.2041272282145 374.66228948150393 L 984.5466323734363 375.27377161664094 L 982.8462706867579 375.75332320894773 L 981.1135254634052 376.0979876633906 L 979.3590796538765 376.3056400089954 L 977.59375 376.375 L 975.8284203461235 376.3056400089954 L 974.0739745365948 376.0979876633906 L 972.3412293132421 375.75332320894773 L 970.6408676265637 375.27377161664094 L 968.9833727717855 374.66228948150393 L 967.3789637558602 373.9226467942383 L 965.8375322938912 373.05940369796707 L 964.3685818234194 372.0778823734363 L 962.9811689125709 370.9841342260007 L 961.6838474233027 369.78490257669733 L 960.4846157739993 368.48758108742913 L 959.3908676265637 367.10016817658067 L 958.4093463020329 365.6312177061088 L 957.5461032057617 364.0897862441398 L 956.806460518496 362.48537722821453 L 956.1949783833591 360.8278823734363 L 955.7154267910523 359.12752068675786 L 955.3707623366095 357.3947754634052 L 955.1631099910046 355.6403296538765 L 955.09375 353.875 L 955.1631099910046 352.1096703461235 L 955.3707623366093 350.3552245365948 L 955.7154267910523 348.62247931324214 L 956.1949783833591 346.9221176265637 L 956.806460518496 345.26462277178547 L 957.5461032057617 343.6602137558602 L 958.4093463020329 342.1187822938912 L 959.3908676265637 340.64983182341933 L 960.4846157739993 339.26241891257087 L 961.6838474233027 337.96509742330267 L 962.9811689125709 336.76586577399934 L 964.3685818234194 335.6721176265637 L 965.8375322938912 334.69059630203293 L 967.3789637558602 333.8273532057617 L 968.9833727717855 333.087710518496 L 970.6408676265637 332.47622838335906 L 972.3412293132421 331.99667679105227 L 974.0739745365948 331.6520123366094 L 975.8284203461236 331.4443599910046 L 977.5937500000001 331.375 L 979.3590796538766 331.4443599910046 L 981.1135254634053 331.6520123366094 L 982.846270686758 331.9966767910523 L 984.5466323734364 332.47622838335906 L 986.2041272282146 333.0877105184961 L 987.8085362441399 333.82735320576177 L 989.3499677061089 334.690596302033 L 990.8189181765807 335.67211762656376 L 992.2063310874292 336.7658657739994 L 993.5036525766974 337.9650974233028 L 994.7028842260008 339.262418912571 L 995.7966323734364 340.6498318234195 L 996.7781536979671 342.11878229389134 L 997.6413967942384 343.6602137558604 L 998.381039481504 345.2646227717857 L 998.992521616641 346.92211762656393 L 999.4720732089478 348.62247931324237 L 999.8167376633907 350.3552245365951 L 1000.0243900089954 352.1096703461238 Z" fill-opacity="1" stroke-opacity="1" stroke-miterlimit="10" stroke-width="6"/><text fill="rgb(255,255,255)" stroke="none" font-family="times new roman" font-size="15px" font-style="normal" font-weight="normal" text-decoration="normal" x="977.59375" y="361.375" text-anchor="middle" dominant-baseline="text-after-edge" fill-opacity="1">*4</text><path fill="rgb(3,169,244)" stroke="none" paint-order="stroke fill markers" d=" M 977.59375 321.375 L 1002.09375 321.375 L 1002.09375 321.375 A 8 8 0 0 1 1010.09375 329.375 L 1010.09375 378.375 L 1010.09375 378.375 A 8 8 0 0 1 1002.09375 386.375 L 953.09375 386.375 L 953.09375 386.375 A 8 8 0 0 1 945.09375 378.375 L 945.09375 329.375 L 945.09375 329.375 A 8 8 0 0 1 953.09375 321.375 L 977.59375 321.375 Z" fill-opacity="0.15"/><path fill="rgb(69,90,100)" stroke="rgb(244,67,54)" paint-order="fill stroke markers" d=" M 825.96875 434.875 L 825.9148033403297 436.2480341752373 L 825.7532959604149 437.61260313820407 L 825.4852236069594 438.96029386747836 L 825.1122390351652 440.2827974015616 L 824.6366418189475 441.57196006638907 L 824.0613641732964 442.81983374544205 L 823.3899528761966 444.0187248825291 L 822.6265474015615 445.1612419151183 L 821.7758543980005 446.24034084577823 L 820.8431186707646 447.24936867076457 L 819.8340908457782 448.18210439800055 L 818.7549919151182 449.0327974015616 L 817.6124748825291 449.7962028761966 L 816.4135837454421 450.46761417329645 L 815.1657100663891 451.0428918189475 L 813.8765474015615 451.5184890351652 L 812.5540438674783 451.8914736069593 L 811.206353138204 452.1595459604149 L 809.8417841752373 452.32105334032974 L 808.46875 452.375 L 807.0957158247627 452.32105334032974 L 805.731146861796 452.1595459604149 L 804.3834561325217 451.8914736069593 L 803.0609525984385 451.5184890351652 L 801.7717899336109 451.0428918189475 L 800.5239162545579 450.46761417329645 L 799.3250251174709 449.7962028761966 L 798.1825080848818 449.0327974015616 L 797.1034091542218 448.18210439800055 L 796.0943813292354 447.24936867076457 L 795.1616456019995 446.24034084577823 L 794.3109525984385 445.1612419151183 L 793.5475471238034 444.0187248825291 L 792.8761358267036 442.81983374544205 L 792.3008581810525 441.57196006638907 L 791.8252609648348 440.2827974015616 L 791.4522763930406 438.96029386747836 L 791.1842040395851 437.61260313820407 L 791.0226966596703 436.2480341752373 L 790.96875 434.875 L 791.0226966596703 433.5019658247627 L 791.1842040395851 432.13739686179593 L 791.4522763930406 430.78970613252164 L 791.8252609648348 429.4672025984384 L 792.3008581810525 428.17803993361093 L 792.8761358267036 426.93016625455795 L 793.5475471238034 425.7312751174709 L 794.3109525984385 424.5887580848817 L 795.1616456019995 423.50965915422177 L 796.0943813292354 422.50063132923543 L 797.1034091542218 421.56789560199945 L 798.1825080848818 420.7172025984384 L 799.3250251174709 419.9537971238034 L 800.5239162545579 419.28238582670355 L 801.771789933611 418.7071081810525 L 803.0609525984385 418.2315109648348 L 804.3834561325217 417.8585263930407 L 805.731146861796 417.5904540395851 L 807.0957158247628 417.42894665967026 L 808.4687500000001 417.375 L 809.8417841752373 417.42894665967026 L 811.2063531382041 417.5904540395851 L 812.5540438674784 417.8585263930407 L 813.8765474015617 418.23151096483485 L 815.1657100663891 418.7071081810525 L 816.4135837454421 419.2823858267036 L 817.6124748825292 419.95379712380344 L 818.7549919151184 420.7172025984385 L 819.8340908457783 421.56789560199957 L 820.8431186707646 422.5006313292355 L 821.7758543980007 423.5096591542219 L 822.6265474015617 424.5887580848818 L 823.3899528761967 425.73127511747106 L 824.0613641732965 426.93016625455806 L 824.6366418189476 428.1780399336111 L 825.1122390351652 429.4672025984386 L 825.4852236069594 430.7897061325218 L 825.7532959604149 432.13739686179616 L 825.9148033403297 433.5019658247629 Z" fill-opacity="1" stroke-opacity="1" stroke-miterlimit="10" stroke-width="6"/><text fill="rgb(255,255,255)" stroke="none" font-family="times new roman" font-size="10px" font-style="normal" font-weight="normal" text-decoration="normal" x="808.46875" y="439.875" text-anchor="middle" dominant-baseline="text-after-edge" fill-opacity="1">*4.9</text><path fill="rgb(69,90,100)" stroke="rgb(76,175,80)" paint-order="fill stroke markers" d=" M 432.03125 434.875 L 431.97730334032974 436.2480341752373 L 431.8157959604149 437.61260313820407 L 431.5477236069593 438.96029386747836 L 431.1747390351652 440.2827974015616 L 430.6991418189475 441.57196006638907 L 430.12386417329645 442.81983374544205 L 429.4524528761966 444.0187248825291 L 428.6890474015616 445.1612419151183 L 427.83835439800055 446.24034084577823 L 426.90561867076457 447.24936867076457 L 425.89659084577823 448.18210439800055 L 424.8174919151183 449.0327974015616 L 423.6749748825291 449.7962028761966 L 422.47608374544205 450.46761417329645 L 421.22821006638907 451.0428918189475 L 419.9390474015616 451.5184890351652 L 418.61654386747836 451.8914736069593 L 417.26885313820407 452.1595459604149 L 415.9042841752373 452.32105334032974 L 414.53125 452.375 L 413.1582158247627 452.32105334032974 L 411.79364686179593 452.1595459604149 L 410.44595613252164 451.8914736069593 L 409.1234525984384 451.5184890351652 L 407.83428993361093 451.0428918189475 L 406.58641625455795 450.46761417329645 L 405.3875251174709 449.7962028761966 L 404.2450080848817 449.0327974015616 L 403.16590915422177 448.18210439800055 L 402.15688132923543 447.24936867076457 L 401.22414560199945 446.24034084577823 L 400.3734525984384 445.1612419151183 L 399.6100471238034 444.0187248825291 L 398.93863582670355 442.81983374544205 L 398.3633581810525 441.57196006638907 L 397.8877609648348 440.2827974015616 L 397.5147763930407 438.96029386747836 L 397.2467040395851 437.61260313820407 L 397.08519665967026 436.2480341752373 L 397.03125 434.875 L 397.08519665967026 433.5019658247627 L 397.2467040395851 432.13739686179593 L 397.5147763930407 430.78970613252164 L 397.8877609648348 429.4672025984384 L 398.3633581810525 428.17803993361093 L 398.93863582670355 426.93016625455795 L 399.6100471238034 425.7312751174709 L 400.3734525984384 424.5887580848817 L 401.22414560199945 423.50965915422177 L 402.15688132923543 422.50063132923543 L 403.16590915422177 421.56789560199945 L 404.2450080848817 420.7172025984384 L 405.3875251174709 419.9537971238034 L 406.58641625455795 419.28238582670355 L 407.83428993361093 418.7071081810525 L 409.12345259843846 418.2315109648348 L 410.4459561325217 417.8585263930407 L 411.793646861796 417.5904540395851 L 413.15821582476275 417.42894665967026 L 414.53125000000006 417.375 L 415.90428417523736 417.42894665967026 L 417.2688531382041 417.5904540395851 L 418.6165438674784 417.8585263930407 L 419.93904740156165 418.23151096483485 L 421.2282100663892 418.7071081810525 L 422.47608374544217 419.2823858267036 L 423.6749748825292 419.95379712380344 L 424.81749191511835 420.7172025984385 L 425.8965908457783 421.56789560199957 L 426.9056186707647 422.5006313292355 L 427.83835439800066 423.5096591542219 L 428.68904740156165 424.5887580848818 L 429.4524528761967 425.73127511747106 L 430.1238641732965 426.93016625455806 L 430.69914181894757 428.1780399336111 L 431.17473903516526 429.4672025984386 L 431.5477236069594 430.7897061325218 L 431.81579596041496 432.13739686179616 L 431.97730334032974 433.5019658247629 Z" fill-opacity="1" stroke-opacity="1" stroke-miterlimit="10" stroke-width="6"/><text fill="rgb(255,255,255)" stroke="none" font-family="times new roman" font-size="10px" font-style="normal" font-weight="normal" text-decoration="normal" x="414.53125" y="439.875" text-anchor="middle" dominant-baseline="text-after-edge" fill-opacity="1">*1.41</text><path fill="rgb(69,90,100)" stroke="rgb(158,158,158)" paint-order="fill stroke markers" d=" M 840.84375 108.375 L 840.84375 128.375 L 935.84375 128.375 L 935.84375 108.375 Z" fill-opacity="1" stroke-opacity="1" stroke-miterlimit="10" stroke-width="6"/><text fill="rgb(255,255,255)" stroke="none" font-family="times new roman" font-size="10px" font-style="normal" font-weight="normal" text-decoration="normal" x="888.34375" y="123.375" text-anchor="middle" dominant-baseline="text-after-edge" fill-opacity="1">42126611C&gt;G</text><path fill="rgb(69,90,100)" stroke="rgb(76,175,80)" paint-order="fill stroke markers" d=" M 1263.96875 568 L 1263.9148033403299 569.3730341752373 L 1263.753295960415 570.737603138204 L 1263.4852236069594 572.0852938674783 L 1263.1122390351652 573.4077974015615 L 1262.6366418189475 574.6969600663891 L 1262.0613641732964 575.9448337454421 L 1261.3899528761965 577.1437248825291 L 1260.6265474015615 578.2862419151182 L 1259.7758543980005 579.3653408457782 L 1258.8431186707646 580.3743686707646 L 1257.8340908457783 581.3071043980005 L 1256.7549919151184 582.1577974015615 L 1255.612474882529 582.9212028761966 L 1254.413583745442 583.5926141732964 L 1253.165710066389 584.1678918189475 L 1251.8765474015615 584.6434890351652 L 1250.5540438674784 585.0164736069594 L 1249.2063531382041 585.2845459604149 L 1247.8417841752373 585.4460533403297 L 1246.46875 585.5 L 1245.0957158247627 585.4460533403297 L 1243.7311468617959 585.2845459604149 L 1242.3834561325216 585.0164736069594 L 1241.0609525984385 584.6434890351652 L 1239.771789933611 584.1678918189475 L 1238.523916254558 583.5926141732964 L 1237.325025117471 582.9212028761966 L 1236.1825080848816 582.1577974015615 L 1235.1034091542217 581.3071043980005 L 1234.0943813292354 580.3743686707646 L 1233.1616456019995 579.3653408457782 L 1232.3109525984385 578.2862419151182 L 1231.5475471238035 577.1437248825291 L 1230.8761358267036 575.9448337454421 L 1230.3008581810525 574.6969600663891 L 1229.8252609648348 573.4077974015615 L 1229.4522763930406 572.0852938674783 L 1229.184204039585 570.737603138204 L 1229.0226966596701 569.3730341752373 L 1228.96875 568 L 1229.0226966596701 566.6269658247627 L 1229.184204039585 565.262396861796 L 1229.4522763930406 563.9147061325217 L 1229.8252609648348 562.5922025984385 L 1230.3008581810525 561.3030399336109 L 1230.8761358267036 560.0551662545579 L 1231.5475471238035 558.8562751174709 L 1232.3109525984385 557.7137580848818 L 1233.1616456019995 556.6346591542218 L 1234.0943813292354 555.6256313292354 L 1235.1034091542217 554.6928956019995 L 1236.1825080848816 553.8422025984385 L 1237.325025117471 553.0787971238034 L 1238.523916254558 552.4073858267036 L 1239.771789933611 551.8321081810525 L 1241.0609525984385 551.3565109648348 L 1242.3834561325216 550.9835263930406 L 1243.731146861796 550.7154540395851 L 1245.0957158247627 550.5539466596703 L 1246.46875 550.5 L 1247.8417841752373 550.5539466596703 L 1249.2063531382041 550.7154540395851 L 1250.5540438674784 550.9835263930406 L 1251.8765474015618 551.3565109648348 L 1253.1657100663892 551.8321081810525 L 1254.413583745442 552.4073858267036 L 1255.612474882529 553.0787971238035 L 1256.7549919151184 553.8422025984385 L 1257.8340908457783 554.6928956019996 L 1258.8431186707646 555.6256313292355 L 1259.7758543980005 556.6346591542219 L 1260.6265474015618 557.7137580848819 L 1261.3899528761967 558.856275117471 L 1262.0613641732966 560.0551662545581 L 1262.6366418189475 561.3030399336111 L 1263.1122390351652 562.5922025984386 L 1263.4852236069594 563.9147061325218 L 1263.753295960415 565.2623968617961 L 1263.9148033403299 566.6269658247629 Z" fill-opacity="1" stroke-opacity="1" stroke-miterlimit="10" stroke-width="6"/><text fill="rgb(255,255,255)" stroke="none" font-family="times new roman" font-size="10px" font-style="normal" font-weight="normal" text-decoration="normal" x="1246.46875" y="573" text-anchor="middle" dominant-baseline="text-after-edge" fill-opacity="1">*1.58</text><path fill="rgb(69,90,100)" stroke="rgb(76,175,80)" paint-order="fill stroke markers" d=" M 495.40625 568 L 495.35230334032974 569.3730341752373 L 495.1907959604149 570.737603138204 L 494.9227236069593 572.0852938674783 L 494.5497390351652 573.4077974015615 L 494.0741418189475 574.6969600663891 L 493.49886417329645 575.9448337454421 L 492.8274528761966 577.1437248825291 L 492.0640474015616 578.2862419151182 L 491.21335439800055 579.3653408457782 L 490.28061867076457 580.3743686707646 L 489.27159084577823 581.3071043980005 L 488.1924919151183 582.1577974015615 L 487.0499748825291 582.9212028761966 L 485.85108374544205 583.5926141732964 L 484.60321006638907 584.1678918189475 L 483.3140474015616 584.6434890351652 L 481.99154386747836 585.0164736069594 L 480.64385313820407 585.2845459604149 L 479.2792841752373 585.4460533403297 L 477.90625 585.5 L 476.5332158247627 585.4460533403297 L 475.16864686179593 585.2845459604149 L 473.82095613252164 585.0164736069594 L 472.4984525984384 584.6434890351652 L 471.20928993361093 584.1678918189475 L 469.96141625455795 583.5926141732964 L 468.7625251174709 582.9212028761966 L 467.6200080848817 582.1577974015615 L 466.54090915422177 581.3071043980005 L 465.53188132923543 580.3743686707646 L 464.59914560199945 579.3653408457782 L 463.7484525984384 578.2862419151182 L 462.9850471238034 577.1437248825291 L 462.31363582670355 575.9448337454421 L 461.7383581810525 574.6969600663891 L 461.2627609648348 573.4077974015615 L 460.8897763930407 572.0852938674783 L 460.6217040395851 570.737603138204 L 460.46019665967026 569.3730341752373 L 460.40625 568 L 460.46019665967026 566.6269658247627 L 460.6217040395851 565.262396861796 L 460.8897763930407 563.9147061325217 L 461.2627609648348 562.5922025984385 L 461.7383581810525 561.3030399336109 L 462.31363582670355 560.0551662545579 L 462.9850471238034 558.8562751174709 L 463.7484525984384 557.7137580848818 L 464.59914560199945 556.6346591542218 L 465.53188132923543 555.6256313292354 L 466.54090915422177 554.6928956019995 L 467.6200080848817 553.8422025984385 L 468.7625251174709 553.0787971238034 L 469.96141625455795 552.4073858267036 L 471.20928993361093 551.8321081810525 L 472.49845259843846 551.3565109648348 L 473.8209561325217 550.9835263930406 L 475.168646861796 550.7154540395851 L 476.53321582476275 550.5539466596703 L 477.90625000000006 550.5 L 479.27928417523736 550.5539466596703 L 480.6438531382041 550.7154540395851 L 481.9915438674784 550.9835263930406 L 483.31404740156165 551.3565109648348 L 484.6032100663892 551.8321081810525 L 485.85108374544217 552.4073858267036 L 487.0499748825292 553.0787971238035 L 488.19249191511835 553.8422025984385 L 489.2715908457783 554.6928956019996 L 490.2806186707647 555.6256313292355 L 491.21335439800066 556.6346591542219 L 492.06404740156165 557.7137580848819 L 492.8274528761967 558.856275117471 L 493.4988641732965 560.0551662545581 L 494.07414181894757 561.3030399336111 L 494.54973903516526 562.5922025984386 L 494.9227236069594 563.9147061325218 L 495.19079596041496 565.2623968617961 L 495.35230334032974 566.6269658247629 Z" fill-opacity="1" stroke-opacity="1" stroke-miterlimit="10" stroke-width="6"/><text fill="rgb(255,255,255)" stroke="none" font-family="times new roman" font-size="10px" font-style="normal" font-weight="normal" text-decoration="normal" x="477.90625" y="573" text-anchor="middle" dominant-baseline="text-after-edge" fill-opacity="1">*1.54</text><path fill="rgb(69,90,100)" stroke="rgb(158,158,158)" paint-order="fill stroke markers" d=" M 384.46875 343.875 L 384.46875 363.875 L 479.46875 363.875 L 479.46875 343.875 Z" fill-opacity="1" stroke-opacity="1" stroke-miterlimit="10" stroke-width="6"/><text fill="rgb(255,255,255)" stroke="none" font-family="times new roman" font-size="10px" font-style="normal" font-weight="normal" text-decoration="normal" x="431.96875" y="358.875" text-anchor="middle" dominant-baseline="text-after-edge" fill-opacity="1">42129809T&gt;C</text><path fill="rgb(69,90,100)" stroke="rgb(244,67,54)" paint-order="fill stroke markers" d=" M 958.03125 259.125 L 958.03125 279.125 L 1053.03125 279.125 L 1053.03125 259.125 Z" fill-opacity="1" stroke-opacity="1" stroke-miterlimit="10" stroke-width="6"/><text fill="rgb(255,255,255)" stroke="none" font-family="times new roman" font-size="10px" font-style="normal" font-weight="normal" text-decoration="normal" x="1005.53125" y="274.125" text-anchor="middle" dominant-baseline="text-after-edge" fill-opacity="1">42128945C&gt;T</text><path fill="rgb(69,90,100)" stroke="rgb(76,175,80)" paint-order="fill stroke markers" d=" M 1256.34375 424.875 L 1256.34375 444.875 L 1351.34375 444.875 L 1351.34375 424.875 Z" fill-opacity="1" stroke-opacity="1" stroke-miterlimit="10" stroke-width="6"/><text fill="rgb(255,255,255)" stroke="none" font-family="times new roman" font-size="10px" font-style="normal" font-weight="normal" text-decoration="normal" x="1303.84375" y="439.875" text-anchor="middle" dominant-baseline="text-after-edge" fill-opacity="1">42129950A&gt;C</text><path fill="rgb(69,90,100)" stroke="rgb(76,175,80)" paint-order="fill stroke markers" d=" M 459.28125 424.875 L 459.28125 444.875 L 554.28125 444.875 L 554.28125 424.875 Z" fill-opacity="1" stroke-opacity="1" stroke-miterlimit="10" stroke-width="6"/><text fill="rgb(255,255,255)" stroke="none" font-family="times new roman" font-size="10px" font-style="normal" font-weight="normal" text-decoration="normal" x="506.78125" y="439.875" text-anchor="middle" dominant-baseline="text-after-edge" fill-opacity="1">42130047G&gt;C</text><path fill="rgb(69,90,100)" stroke="rgb(76,175,80)" paint-order="fill stroke markers" d=" M 691.21875 343.875 L 691.21875 363.875 L 786.21875 363.875 L 786.21875 343.875 Z" fill-opacity="1" stroke-opacity="1" stroke-miterlimit="10" stroke-width="6"/><text fill="rgb(255,255,255)" stroke="none" font-family="times new roman" font-size="10px" font-style="normal" font-weight="normal" text-decoration="normal" x="738.71875" y="358.875" text-anchor="middle" dominant-baseline="text-after-edge" fill-opacity="1">42129796G&gt;C</text><path fill="rgb(69,90,100)" stroke="rgb(244,67,54)" paint-order="fill stroke markers" d=" M 1070.46875 434.875 L 1070.4148033403299 436.2480341752373 L 1070.253295960415 437.61260313820407 L 1069.9852236069594 438.96029386747836 L 1069.6122390351652 440.2827974015616 L 1069.1366418189475 441.57196006638907 L 1068.5613641732964 442.81983374544205 L 1067.8899528761965 444.0187248825291 L 1067.1265474015615 445.1612419151183 L 1066.2758543980005 446.24034084577823 L 1065.3431186707646 447.24936867076457 L 1064.3340908457783 448.18210439800055 L 1063.2549919151184 449.0327974015616 L 1062.112474882529 449.7962028761966 L 1060.913583745442 450.46761417329645 L 1059.665710066389 451.0428918189475 L 1058.3765474015615 451.5184890351652 L 1057.0540438674784 451.8914736069593 L 1055.7063531382041 452.1595459604149 L 1054.3417841752373 452.32105334032974 L 1052.96875 452.375 L 1051.5957158247627 452.32105334032974 L 1050.2311468617959 452.1595459604149 L 1048.8834561325216 451.8914736069593 L 1047.5609525984385 451.5184890351652 L 1046.271789933611 451.0428918189475 L 1045.023916254558 450.46761417329645 L 1043.825025117471 449.7962028761966 L 1042.6825080848816 449.0327974015616 L 1041.6034091542217 448.18210439800055 L 1040.5943813292354 447.24936867076457 L 1039.6616456019995 446.24034084577823 L 1038.8109525984385 445.1612419151183 L 1038.0475471238035 444.0187248825291 L 1037.3761358267036 442.81983374544205 L 1036.8008581810525 441.57196006638907 L 1036.3252609648348 440.2827974015616 L 1035.9522763930406 438.96029386747836 L 1035.684204039585 437.61260313820407 L 1035.5226966596701 436.2480341752373 L 1035.46875 434.875 L 1035.5226966596701 433.5019658247627 L 1035.684204039585 432.13739686179593 L 1035.9522763930406 430.78970613252164 L 1036.3252609648348 429.4672025984384 L 1036.8008581810525 428.17803993361093 L 1037.3761358267036 426.93016625455795 L 1038.0475471238035 425.7312751174709 L 1038.8109525984385 424.5887580848817 L 1039.6616456019995 423.50965915422177 L 1040.5943813292354 422.50063132923543 L 1041.6034091542217 421.56789560199945 L 1042.6825080848816 420.7172025984384 L 1043.825025117471 419.9537971238034 L 1045.023916254558 419.28238582670355 L 1046.271789933611 418.7071081810525 L 1047.5609525984385 418.2315109648348 L 1048.8834561325216 417.8585263930407 L 1050.231146861796 417.5904540395851 L 1051.5957158247627 417.42894665967026 L 1052.96875 417.375 L 1054.3417841752373 417.42894665967026 L 1055.7063531382041 417.5904540395851 L 1057.0540438674784 417.8585263930407 L 1058.3765474015618 418.23151096483485 L 1059.6657100663892 418.7071081810525 L 1060.913583745442 419.2823858267036 L 1062.112474882529 419.95379712380344 L 1063.2549919151184 420.7172025984385 L 1064.3340908457783 421.56789560199957 L 1065.3431186707646 422.5006313292355 L 1066.2758543980005 423.5096591542219 L 1067.1265474015618 424.5887580848818 L 1067.8899528761967 425.73127511747106 L 1068.5613641732966 426.93016625455806 L 1069.1366418189475 428.1780399336111 L 1069.6122390351652 429.4672025984386 L 1069.9852236069594 430.7897061325218 L 1070.253295960415 432.13739686179616 L 1070.4148033403299 433.5019658247629 Z" fill-opacity="1" stroke-opacity="1" stroke-miterlimit="10" stroke-width="6"/><text fill="rgb(255,255,255)" stroke="none" font-family="times new roman" font-size="10px" font-style="normal" font-weight="normal" text-decoration="normal" x="1052.96875" y="439.875" text-anchor="middle" dominant-baseline="text-after-edge" fill-opacity="1">*4.5</text><path fill="rgb(69,90,100)" stroke="rgb(69,90,100)" paint-order="fill stroke markers" d=" M 792.34375 682.125 L 773.59375 699.625 L 792.34375 717.125 L 829.84375 717.125 L 848.59375 699.625 L 829.84375 682.125 Z" fill-opacity="1" stroke-opacity="1" stroke-miterlimit="10" stroke-width="2"/><text fill="rgb(255,255,255)" stroke="none" font-family="times new roman" font-size="10px" font-style="normal" font-weight="normal" text-decoration="normal" x="811.09375" y="704.625" text-anchor="middle" dominant-baseline="text-after-edge" fill-opacity="1">NA12156-all</text><path fill="rgb(69,90,100)" stroke="rgb(76,175,80)" paint-order="fill stroke markers" d=" M 1072.78125 259.125 L 1072.78125 279.125 L 1167.78125 279.125 L 1167.78125 259.125 Z" fill-opacity="1" stroke-opacity="1" stroke-miterlimit="10" stroke-width="6"/><text fill="rgb(255,255,255)" stroke="none" font-family="times new roman" font-size="10px" font-style="normal" font-weight="normal" text-decoration="normal" x="1120.28125" y="274.125" text-anchor="middle" dominant-baseline="text-after-edge" fill-opacity="1">42129130C&gt;G</text><path fill="rgb(69,90,100)" stroke="rgb(158,158,158)" paint-order="fill stroke markers" d=" M 595.21875 259.125 L 595.21875 279.125 L 690.21875 279.125 L 690.21875 259.125 Z" fill-opacity="1" stroke-opacity="1" stroke-miterlimit="10" stroke-width="6"/><text fill="rgb(255,255,255)" stroke="none" font-family="times new roman" font-size="10px" font-style="normal" font-weight="normal" text-decoration="normal" x="642.71875" y="274.125" text-anchor="middle" dominant-baseline="text-after-edge" fill-opacity="1">42129819G&gt;T</text><path fill="rgb(69,90,100)" stroke="rgb(244,67,54)" paint-order="fill stroke markers" d=" M 1091.65625 568 L 1091.6023033403299 569.3730341752373 L 1091.440795960415 570.737603138204 L 1091.1727236069594 572.0852938674783 L 1090.7997390351652 573.4077974015615 L 1090.3241418189475 574.6969600663891 L 1089.7488641732964 575.9448337454421 L 1089.0774528761965 577.1437248825291 L 1088.3140474015615 578.2862419151182 L 1087.4633543980005 579.3653408457782 L 1086.5306186707646 580.3743686707646 L 1085.5215908457783 581.3071043980005 L 1084.4424919151184 582.1577974015615 L 1083.299974882529 582.9212028761966 L 1082.101083745442 583.5926141732964 L 1080.853210066389 584.1678918189475 L 1079.5640474015615 584.6434890351652 L 1078.2415438674784 585.0164736069594 L 1076.8938531382041 585.2845459604149 L 1075.5292841752373 585.4460533403297 L 1074.15625 585.5 L 1072.7832158247627 585.4460533403297 L 1071.4186468617959 585.2845459604149 L 1070.0709561325216 585.0164736069594 L 1068.7484525984385 584.6434890351652 L 1067.459289933611 584.1678918189475 L 1066.211416254558 583.5926141732964 L 1065.012525117471 582.9212028761966 L 1063.8700080848816 582.1577974015615 L 1062.7909091542217 581.3071043980005 L 1061.7818813292354 580.3743686707646 L 1060.8491456019995 579.3653408457782 L 1059.9984525984385 578.2862419151182 L 1059.2350471238035 577.1437248825291 L 1058.5636358267036 575.9448337454421 L 1057.9883581810525 574.6969600663891 L 1057.5127609648348 573.4077974015615 L 1057.1397763930406 572.0852938674783 L 1056.871704039585 570.737603138204 L 1056.7101966596701 569.3730341752373 L 1056.65625 568 L 1056.7101966596701 566.6269658247627 L 1056.871704039585 565.262396861796 L 1057.1397763930406 563.9147061325217 L 1057.5127609648348 562.5922025984385 L 1057.9883581810525 561.3030399336109 L 1058.5636358267036 560.0551662545579 L 1059.2350471238035 558.8562751174709 L 1059.9984525984385 557.7137580848818 L 1060.8491456019995 556.6346591542218 L 1061.7818813292354 555.6256313292354 L 1062.7909091542217 554.6928956019995 L 1063.8700080848816 553.8422025984385 L 1065.012525117471 553.0787971238034 L 1066.211416254558 552.4073858267036 L 1067.459289933611 551.8321081810525 L 1068.7484525984385 551.3565109648348 L 1070.0709561325216 550.9835263930406 L 1071.418646861796 550.7154540395851 L 1072.7832158247627 550.5539466596703 L 1074.15625 550.5 L 1075.5292841752373 550.5539466596703 L 1076.8938531382041 550.7154540395851 L 1078.2415438674784 550.9835263930406 L 1079.5640474015618 551.3565109648348 L 1080.8532100663892 551.8321081810525 L 1082.101083745442 552.4073858267036 L 1083.299974882529 553.0787971238035 L 1084.4424919151184 553.8422025984385 L 1085.5215908457783 554.6928956019996 L 1086.5306186707646 555.6256313292355 L 1087.4633543980005 556.6346591542219 L 1088.3140474015618 557.7137580848819 L 1089.0774528761967 558.856275117471 L 1089.7488641732966 560.0551662545581 L 1090.3241418189475 561.3030399336111 L 1090.7997390351652 562.5922025984386 L 1091.1727236069594 563.9147061325218 L 1091.440795960415 565.2623968617961 L 1091.6023033403299 566.6269658247629 Z" fill-opacity="1" stroke-opacity="1" stroke-miterlimit="10" stroke-width="6"/><text fill="rgb(255,255,255)" stroke="none" font-family="times new roman" font-size="10px" font-style="normal" font-weight="normal" text-decoration="normal" x="1074.15625" y="573" text-anchor="middle" dominant-baseline="text-after-edge" fill-opacity="1">*4.11</text><path fill="rgb(69,90,100)" stroke="rgb(76,175,80)" paint-order="fill stroke markers" d=" M 998.09375 118.375 L 998.0398033403297 119.74803417523728 L 997.8782959604149 121.11260313820404 L 997.6102236069594 122.46029386747834 L 997.2372390351652 123.78279740156158 L 996.7616418189475 125.07196006638907 L 996.1863641732964 126.31983374544207 L 995.5149528761966 127.5187248825291 L 994.7515474015615 128.66124191511827 L 993.9008543980005 129.7403408457782 L 992.9681186707646 130.74936867076457 L 991.9590908457782 131.68210439800055 L 990.8799919151182 132.5327974015616 L 989.7374748825291 133.29620287619662 L 988.5385837454421 133.96761417329643 L 987.2907100663891 134.5428918189475 L 986.0015474015615 135.01848903516517 L 984.6790438674783 135.39147360695935 L 983.331353138204 135.6595459604149 L 981.9667841752373 135.82105334032974 L 980.59375 135.875 L 979.2207158247627 135.82105334032974 L 977.856146861796 135.6595459604149 L 976.5084561325217 135.39147360695935 L 975.1859525984385 135.0184890351652 L 973.8967899336109 134.5428918189475 L 972.6489162545579 133.96761417329643 L 971.4500251174709 133.29620287619662 L 970.3075080848818 132.5327974015616 L 969.2284091542218 131.68210439800055 L 968.2193813292354 130.74936867076457 L 967.2866456019995 129.7403408457782 L 966.4359525984385 128.6612419151183 L 965.6725471238034 127.51872488252911 L 965.0011358267036 126.31983374544207 L 964.4258581810525 125.07196006638907 L 963.9502609648348 123.78279740156158 L 963.5772763930406 122.46029386747834 L 963.3092040395851 121.11260313820404 L 963.1476966596703 119.7480341752373 L 963.09375 118.375 L 963.1476966596703 117.00196582476272 L 963.3092040395851 115.63739686179596 L 963.5772763930406 114.28970613252166 L 963.9502609648348 112.96720259843842 L 964.4258581810525 111.67803993361093 L 965.0011358267036 110.43016625455793 L 965.6725471238034 109.2312751174709 L 966.4359525984385 108.08875808488172 L 967.2866456019995 107.0096591542218 L 968.2193813292354 106.00063132923542 L 969.2284091542218 105.06789560199947 L 970.3075080848818 104.21720259843842 L 971.4500251174709 103.45379712380338 L 972.6489162545579 102.78238582670356 L 973.896789933611 102.20710818105248 L 975.1859525984385 101.7315109648348 L 976.5084561325217 101.35852639304065 L 977.856146861796 101.09045403958508 L 979.2207158247628 100.92894665967026 L 980.5937500000001 100.875 L 981.9667841752373 100.92894665967026 L 983.3313531382041 101.0904540395851 L 984.6790438674784 101.35852639304068 L 986.0015474015617 101.73151096483484 L 987.2907100663891 102.20710818105252 L 988.5385837454421 102.7823858267036 L 989.7374748825292 103.45379712380344 L 990.8799919151184 104.21720259843849 L 991.9590908457783 105.06789560199954 L 992.9681186707646 106.00063132923552 L 993.9008543980007 107.0096591542219 L 994.7515474015617 108.08875808488185 L 995.5149528761967 109.23127511747103 L 996.1863641732965 110.43016625455807 L 996.7616418189476 111.67803993361109 L 997.2372390351652 112.96720259843859 L 997.6102236069594 114.28970613252184 L 997.8782959604149 115.63739686179616 L 998.0398033403297 117.00196582476292 Z" fill-opacity="1" stroke-opacity="1" stroke-miterlimit="10" stroke-width="6"/><text fill="rgb(255,255,255)" stroke="none" font-family="times new roman" font-size="10px" font-style="normal" font-weight="normal" text-decoration="normal" x="980.59375" y="123.375" text-anchor="middle" dominant-baseline="text-after-edge" fill-opacity="1">*39.2</text><path fill="rgb(69,90,100)" stroke="rgb(158,158,158)" paint-order="fill stroke markers" d=" M 665.21875 353.875 L 665.1493900089954 355.6403296538765 L 664.9417376633907 357.3947754634052 L 664.5970732089477 359.12752068675786 L 664.1175216166409 360.8278823734363 L 663.506039481504 362.48537722821453 L 662.7663967942383 364.0897862441398 L 661.9031536979671 365.6312177061088 L 660.9216323734363 367.10016817658067 L 659.8278842260007 368.48758108742913 L 658.6286525766973 369.78490257669733 L 657.3313310874291 370.9841342260007 L 655.9439181765806 372.0778823734363 L 654.4749677061088 373.05940369796707 L 652.9335362441398 373.9226467942383 L 651.3291272282145 374.66228948150393 L 649.6716323734363 375.27377161664094 L 647.9712706867579 375.75332320894773 L 646.2385254634052 376.0979876633906 L 644.4840796538765 376.3056400089954 L 642.71875 376.375 L 640.9534203461235 376.3056400089954 L 639.1989745365948 376.0979876633906 L 637.4662293132421 375.75332320894773 L 635.7658676265637 375.27377161664094 L 634.1083727717855 374.66228948150393 L 632.5039637558602 373.9226467942383 L 630.9625322938912 373.05940369796707 L 629.4935818234194 372.0778823734363 L 628.1061689125709 370.9841342260007 L 626.8088474233027 369.78490257669733 L 625.6096157739993 368.48758108742913 L 624.5158676265637 367.10016817658067 L 623.5343463020329 365.6312177061088 L 622.6711032057617 364.0897862441398 L 621.931460518496 362.48537722821453 L 621.3199783833591 360.8278823734363 L 620.8404267910523 359.12752068675786 L 620.4957623366095 357.3947754634052 L 620.2881099910046 355.6403296538765 L 620.21875 353.875 L 620.2881099910046 352.1096703461235 L 620.4957623366093 350.3552245365948 L 620.8404267910523 348.62247931324214 L 621.3199783833591 346.9221176265637 L 621.931460518496 345.26462277178547 L 622.6711032057617 343.6602137558602 L 623.5343463020329 342.1187822938912 L 624.5158676265637 340.64983182341933 L 625.6096157739993 339.26241891257087 L 626.8088474233027 337.96509742330267 L 628.1061689125709 336.76586577399934 L 629.4935818234194 335.6721176265637 L 630.9625322938912 334.69059630203293 L 632.5039637558602 333.8273532057617 L 634.1083727717855 333.087710518496 L 635.7658676265637 332.47622838335906 L 637.4662293132421 331.99667679105227 L 639.1989745365948 331.6520123366094 L 640.9534203461236 331.4443599910046 L 642.7187500000001 331.375 L 644.4840796538766 331.4443599910046 L 646.2385254634053 331.6520123366094 L 647.971270686758 331.9966767910523 L 649.6716323734364 332.47622838335906 L 651.3291272282146 333.0877105184961 L 652.9335362441399 333.82735320576177 L 654.4749677061089 334.690596302033 L 655.9439181765807 335.67211762656376 L 657.3313310874292 336.7658657739994 L 658.6286525766974 337.9650974233028 L 659.8278842260008 339.262418912571 L 660.9216323734364 340.6498318234195 L 661.9031536979671 342.11878229389134 L 662.7663967942384 343.6602137558604 L 663.506039481504 345.2646227717857 L 664.117521616641 346.92211762656393 L 664.5970732089478 348.62247931324237 L 664.9417376633907 350.3552245365951 L 665.1493900089954 352.1096703461238 Z" fill-opacity="1" stroke-opacity="1" stroke-miterlimit="10" stroke-width="6"/><text fill="rgb(255,255,255)" stroke="none" font-family="times new roman" font-size="15px" font-style="normal" font-weight="normal" text-decoration="normal" x="642.71875" y="361.375" text-anchor="middle" dominant-baseline="text-after-edge" fill-opacity="1">*74</text><path fill="rgb(176,190,197)" stroke="none" paint-order="stroke fill markers" d=" M 1119.15625 463 L 1119.15625 673 L 1194.15625 673 L 1194.15625 463.00000000000006 Z" fill-opacity="0.8"/><text fill="rgb(0,0,0)" stroke="none" font-family="times new roman" font-size="10px" font-style="normal" font-weight="normal" text-decoration="normal" x="1124.15625" y="478" text-anchor="start" dominant-baseline="text-after-edge" fill-opacity="0.8">42126390G&gt;A </text><text fill="rgb(0,0,0)" stroke="none" font-family="times new roman" font-size="10px" font-style="normal" font-weight="normal" text-decoration="normal" x="1124.15625" y="488" text-anchor="start" dominant-baseline="text-after-edge" fill-opacity="0.8">42126462G&gt;A </text><text fill="rgb(0,0,0)" stroke="none" font-family="times new roman" font-size="10px" font-style="normal" font-weight="normal" text-decoration="normal" x="1124.15625" y="498" text-anchor="start" dominant-baseline="text-after-edge" fill-opacity="0.8">42127209T&gt;C </text><text fill="rgb(0,0,0)" stroke="none" font-family="times new roman" font-size="10px" font-style="normal" font-weight="normal" text-decoration="normal" x="1124.15625" y="508" text-anchor="start" dominant-baseline="text-after-edge" fill-opacity="0.8">42128694T&gt;C </text><text fill="rgb(0,0,0)" stroke="none" font-family="times new roman" font-size="10px" font-style="normal" font-weight="normal" text-decoration="normal" x="1124.15625" y="518" text-anchor="start" dominant-baseline="text-after-edge" fill-opacity="0.8">42131791C&gt;T </text><text fill="rgb(0,0,0)" stroke="none" font-family="times new roman" font-size="10px" font-style="normal" font-weight="normal" text-decoration="normal" x="1124.15625" y="528" text-anchor="start" dominant-baseline="text-after-edge" fill-opacity="0.8">42132217G&gt;A </text><path fill="rgb(176,190,197)" stroke="none" paint-order="stroke fill markers" d=" M 251.40625 463 L 318.40625 463 L 318.40625 463 A 8 8 0 0 1 326.40625 471 L 326.40625 665 L 326.40625 665 A 8 8 0 0 1 318.40625 673 L 184.40625 673 L 184.40625 673 A 8 8 0 0 1 176.40625 665 L 176.40625 471 L 176.40625 471 A 8 8 0 0 1 184.40625 463 L 251.40625 463 Z" fill-opacity="0.8"/><text fill="rgb(0,0,0)" stroke="none" font-family="times new roman" font-size="10px" font-style="normal" font-weight="normal" text-decoration="normal" x="181.40625" y="478" text-anchor="start" dominant-baseline="text-after-edge" fill-opacity="0.8">42125924A&gt;G </text><text fill="rgb(0,0,0)" stroke="none" font-family="times new roman" font-size="10px" font-style="normal" font-weight="normal" text-decoration="normal" x="181.40625" y="488" text-anchor="start" dominant-baseline="text-after-edge" fill-opacity="0.8">42125980T&gt;C </text><text fill="rgb(0,0,0)" stroke="none" font-family="times new roman" font-size="10px" font-style="normal" font-weight="normal" text-decoration="normal" x="181.40625" y="498" text-anchor="start" dominant-baseline="text-after-edge" fill-opacity="0.8">42126069A&gt;C </text><text fill="rgb(0,0,0)" stroke="none" font-family="times new roman" font-size="10px" font-style="normal" font-weight="normal" text-decoration="normal" x="181.40625" y="508" text-anchor="start" dominant-baseline="text-after-edge" fill-opacity="0.8">42132027C&gt;T </text><text fill="rgb(0,0,0)" stroke="none" font-family="times new roman" font-size="10px" font-style="normal" font-weight="normal" text-decoration="normal" x="181.40625" y="518" text-anchor="start" dominant-baseline="text-after-edge" fill-opacity="0.8">42132844C&gt;A </text><text fill="rgb(0,0,0)" stroke="none" font-family="times new roman" font-size="10px" font-style="normal" font-weight="normal" text-decoration="normal" x="181.40625" y="528" text-anchor="start" dominant-baseline="text-after-edge" fill-opacity="0.8">42132851T&gt;C </text><text fill="rgb(0,0,0)" stroke="none" font-family="times new roman" font-size="10px" font-style="normal" font-weight="normal" text-decoration="normal" x="181.40625" y="538" text-anchor="start" dominant-baseline="text-after-edge" fill-opacity="0.8">42132969C&gt;T </text><text fill="rgb(0,0,0)" stroke="none" font-family="times new roman" font-size="10px" font-style="normal" font-weight="normal" text-decoration="normal" x="181.40625" y="548" text-anchor="start" dominant-baseline="text-after-edge" fill-opacity="0.8">42133212A&gt;G </text><text fill="rgb(0,0,0)" stroke="none" font-family="times new roman" font-size="10px" font-style="normal" font-weight="normal" text-decoration="normal" x="181.40625" y="558" text-anchor="start" dominant-baseline="text-after-edge" fill-opacity="0.8">42133314C&gt;T </text><text fill="rgb(0,0,0)" stroke="none" font-family="times new roman" font-size="10px" font-style="normal" font-weight="normal" text-decoration="normal" x="181.40625" y="568" text-anchor="start" dominant-baseline="text-after-edge" fill-opacity="0.8">42133400T&gt;G </text><text fill="rgb(0,0,0)" stroke="none" font-family="times new roman" font-size="10px" font-style="normal" font-weight="normal" text-decoration="normal" x="181.40625" y="578" text-anchor="start" dominant-baseline="text-after-edge" fill-opacity="0.8">42134096del </text><text fill="rgb(0,0,0)" stroke="none" font-family="times new roman" font-size="10px" font-style="normal" font-weight="normal" text-decoration="normal" x="181.40625" y="588" text-anchor="start" dominant-baseline="text-after-edge" fill-opacity="0.8">42134820T&gt;G </text><text fill="rgb(0,0,0)" stroke="none" font-family="times new roman" font-size="10px" font-style="normal" font-weight="normal" text-decoration="normal" x="181.40625" y="598" text-anchor="start" dominant-baseline="text-after-edge" fill-opacity="0.8">42135064_42135066dup </text><text fill="rgb(0,0,0)" stroke="none" font-family="times new roman" font-size="10px" font-style="normal" font-weight="normal" text-decoration="normal" x="181.40625" y="608" text-anchor="start" dominant-baseline="text-after-edge" fill-opacity="0.8">42135201T&gt;C </text><g transform="scale(1.2329545454545454,1.2329545454545454) translate(112.26497695852538,26.912442396313395)"/></g></svg>