<svg version="1.1" xmlns="http://www.w3.org/2000/svg" xmlns:xlink="http://www.w3.org/1999/xlink" width="1017" height="608"><defs/><g transform="translate(-120.30074580484768,67.51572405220634) scale(0.9516469857054071,0.9516469857054071)"><path fill="none" stroke="rgb(120,144,156)" paint-order="fill stroke markers" d=" M 908.9089911432061 166.68523962120668 L 1041.6546053552445 272.9399527514566" stroke-opacity="1" stroke-linejoin="round" stroke-miterlimit="10"/><path fill="rgb(120,144,156)" stroke="none" paint-order="stroke fill markers" d=" M 1033.7055720355963 272.1491498157486 L 1043.216008856794 274.1897603787933 L 1039.1422352145112 265.35704458400846 Z" fill-opacity="1"/><path fill="none" stroke="rgb(120,144,156)" paint-order="fill stroke markers" d=" M 233.9375 302.98271704180064 L 516.7717529842062 409.3865999972738" stroke-opacity="1" stroke-linejoin="round" stroke-miterlimit="10"/><path fill="rgb(120,144,156)" stroke="none" paint-order="stroke fill markers" d=" M 508.96914680503687 411.09886072881807 L 518.6436682228398 410.0908253442838 L 512.0325270645307 402.95602944076205 Z" fill-opacity="1"/><path fill="none" stroke="rgb(55,71,79)" paint-order="fill stroke markers" d=" M 1034.095663265306 91.5 L 1058.5079273259075 130.40084354372266" stroke-opacity="1" stroke-linejoin="round" stroke-miterlimit="10" stroke-width="2"/><path fill="none" stroke="rgb(120,144,156)" paint-order="fill stroke markers" d=" M 702.4840025630999 171.42661329700383 L 734.8773142600123 267.553107356947" stroke-opacity="1" stroke-linejoin="round" stroke-miterlimit="10"/><path fill="rgb(120,144,156)" stroke="none" paint-order="stroke fill markers" d=" M 728.6154930397812 262.5930574574133 L 735.5159974369001 269.4483867029962 L 736.859958195095 259.8147856379514 Z" fill-opacity="1"/><path fill="none" stroke="rgb(120,144,156)" paint-order="fill stroke markers" d=" M 494.38681506849315 165 L 537.6142691510761 268.12431856302476" stroke-opacity="1" stroke-linejoin="round" stroke-miterlimit="10"/><path fill="rgb(120,144,156)" stroke="none" paint-order="stroke fill markers" d=" M 531.0123308871368 263.62688472147295 L 538.387445226536 269.9688235796448 L 539.035927709434 260.2635687932224 Z" fill-opacity="1"/><path fill="none" stroke="rgb(120,144,156)" paint-order="fill stroke markers" d=" M 394.8125 332.45943708609275 L 520.5910351957317 405.55259247301626" stroke-opacity="1" stroke-linejoin="round" stroke-miterlimit="10"/><path fill="rgb(120,144,156)" stroke="none" paint-order="stroke fill markers" d=" M 512.6125173994848 405.94724900086163 L 522.3202520460661 406.55748504663774 L 516.9838000947382 398.425155701907 Z" fill-opacity="1"/><path fill="none" stroke="rgb(120,144,156)" paint-order="fill stroke markers" d=" M 546.3125 309.375 L 546.3125 400" stroke-opacity="1" stroke-linejoin="round" stroke-miterlimit="10"/><path fill="rgb(120,144,156)" stroke="none" paint-order="stroke fill markers" d=" M 541.9625 393.3 L 546.3125 402 L 550.6625 393.3 Z" fill-opacity="1"/><path fill="none" stroke="rgb(55,71,79)" paint-order="fill stroke markers" d=" M 695.9375 91.5 L 695.9375 131.5" stroke-opacity="1" stroke-linejoin="round" stroke-miterlimit="10" stroke-width="2"/><path fill="none" stroke="rgb(120,144,156)" paint-order="fill stroke markers" d=" M 1070.112066136537 177.42529857728826 L 1063.5129338634633 263.4497014227117" stroke-opacity="1" stroke-linejoin="round" stroke-miterlimit="10"/><path fill="rgb(120,144,156)" stroke="none" paint-order="stroke fill markers" d=" M 1059.6881439840122 256.4366077845197 L 1063.3599586584858 265.44384248759707 L 1068.3626576162635 257.10204992617184 Z" fill-opacity="1"/><path fill="none" stroke="rgb(120,144,156)" paint-order="fill stroke markers" d=" M 783.8066780821918 165 L 749.2476857399877 267.553107356947" stroke-opacity="1" stroke-linejoin="round" stroke-miterlimit="10"/><path fill="rgb(120,144,156)" stroke="none" paint-order="stroke fill markers" d=" M 747.265041804905 259.8147856379514 L 748.6090025630999 269.4483867029962 L 755.5095069602187 262.5930574574133 Z" fill-opacity="1"/><path fill="none" stroke="rgb(55,71,79)" paint-order="fill stroke markers" d=" M 852.6160714285714 89.5 L 878.3665138453185 131.91249339228938" stroke-opacity="1" stroke-linejoin="round" stroke-miterlimit="10" stroke-width="2"/><path fill="none" stroke="rgb(55,71,79)" paint-order="fill stroke markers" d=" M 1107.2906866737687 95.86402773936021 L 1085.6170726740925 130.40084354372266" stroke-opacity="1" stroke-linejoin="round" stroke-miterlimit="10" stroke-width="2"/><path fill="none" stroke="rgb(55,71,79)" paint-order="fill stroke markers" d=" M 925.5864045165274 94.31356903160199 L 902.7584861546815 131.91249339228938" stroke-opacity="1" stroke-linejoin="round" stroke-miterlimit="10" stroke-width="2"/><path fill="none" stroke="rgb(120,144,156)" paint-order="fill stroke markers" d=" M 725.0507273288001 300.31395058925506 L 570.6235902106208 404.1528876169964" stroke-opacity="1" stroke-linejoin="round" stroke-miterlimit="10"/><path fill="rgb(120,144,156)" stroke="none" paint-order="stroke fill markers" d=" M 573.7562459098295 396.80448858930237 L 568.9639050719671 405.26888279643595 L 578.6108249403915 404.0241189424457 Z" fill-opacity="1"/><path fill="none" stroke="rgb(120,144,156)" paint-order="fill stroke markers" d=" M 598.2381849315068 165 L 555.0107308489239 268.12431856302476" stroke-opacity="1" stroke-linejoin="round" stroke-miterlimit="10"/><path fill="rgb(120,144,156)" stroke="none" paint-order="stroke fill markers" d=" M 553.589072290566 260.2635687932224 L 554.237554773464 269.9688235796448 L 561.6126691128632 263.62688472147295 Z" fill-opacity="1"/><path fill="none" stroke="rgb(120,144,156)" paint-order="fill stroke markers" d=" M 268.42791095890414 163 L 276.1936035609056 182.02334093778896" stroke-opacity="1" stroke-linejoin="round" stroke-miterlimit="10"/><path fill="rgb(120,144,156)" stroke="none" paint-order="stroke fill markers" d=" M 269.6340379200414 177.46432803989165 L 276.94948630136986 183.875 L 277.6887548406595 174.17623811887225 Z" fill-opacity="1"/><path fill="none" stroke="rgb(55,71,79)" paint-order="fill stroke markers" d=" M 1134.5124291052382 167.84443580267293 L 1073.6936711365893 268.7482842506587" stroke-opacity="1" stroke-linejoin="round" stroke-miterlimit="10" stroke-width="2"/><path fill="none" stroke="rgb(120,144,156)" paint-order="fill stroke markers" d=" M 1038.793694593485 294.69148522393505 L 578.6654591300404 412.23516109560103" stroke-opacity="1" stroke-linejoin="round" stroke-miterlimit="10"/><path fill="rgb(120,144,156)" stroke="none" paint-order="stroke fill markers" d=" M 584.0803223427865 406.36219281820934 L 576.7276884571455 412.73018111465933 L 586.2336594256901 414.7914952453021 Z" fill-opacity="1"/><path fill="none" stroke="rgb(120,144,156)" paint-order="fill stroke markers" d=" M 371.19708904109586 163 L 363.4313964390944 182.02334093778896" stroke-opacity="1" stroke-linejoin="round" stroke-miterlimit="10"/><path fill="rgb(120,144,156)" stroke="none" paint-order="stroke fill markers" d=" M 361.9362451593405 174.17623811887225 L 362.67551369863014 183.875 L 369.99096207995854 177.46432803989163 Z" fill-opacity="1"/><path fill="rgb(69,90,100)" stroke="rgb(76,175,80)" paint-order="fill stroke markers" d=" M 648.4375 68.5 L 648.4375 88.5 L 743.4375 88.5 L 743.4375 68.5 Z" fill-opacity="1" stroke-opacity="1" stroke-miterlimit="10" stroke-width="6"/><text fill="rgb(255,255,255)" stroke="none" font-family="times new roman" font-size="10px" font-style="normal" font-weight="normal" text-decoration="normal" x="695.9375" y="83.5" text-anchor="middle" dominant-baseline="text-after-edge" fill-opacity="1">42127407T&gt;G</text><path fill="rgb(69,90,100)" stroke="rgb(76,175,80)" paint-order="fill stroke markers" d=" M 1094.5625 152 L 1094.4931400089954 153.7653296538765 L 1094.2854876633905 155.51977546340518 L 1093.9408232089477 157.25252068675786 L 1093.461271616641 158.95288237343632 L 1092.8497894815039 160.61037722821453 L 1092.1101467942383 162.21478624413982 L 1091.2469036979671 163.75621770610886 L 1090.2653823734363 165.22516817658064 L 1089.1716342260006 166.61258108742913 L 1087.9724025766973 167.9099025766973 L 1086.6750810874291 169.1091342260007 L 1085.2876681765806 170.20288237343632 L 1083.8187177061088 171.18440369796707 L 1082.2772862441398 172.0476467942383 L 1080.6728772282145 172.78728948150396 L 1079.0153823734363 173.39877161664094 L 1077.3150206867579 173.87832320894773 L 1075.5822754634053 174.2229876633906 L 1073.8278296538765 174.43064000899537 L 1072.0625 174.5 L 1070.2971703461235 174.43064000899537 L 1068.5427245365947 174.2229876633906 L 1066.8099793132421 173.87832320894773 L 1065.1096176265637 173.39877161664094 L 1063.4521227717855 172.78728948150396 L 1061.8477137558602 172.0476467942383 L 1060.3062822938912 171.18440369796707 L 1058.8373318234194 170.20288237343632 L 1057.4499189125709 169.1091342260007 L 1056.1525974233027 167.90990257669733 L 1054.9533657739994 166.61258108742913 L 1053.8596176265637 165.22516817658064 L 1052.8780963020329 163.75621770610886 L 1052.0148532057617 162.21478624413982 L 1051.2752105184961 160.61037722821453 L 1050.663728383359 158.95288237343632 L 1050.1841767910523 157.25252068675786 L 1049.8395123366095 155.5197754634052 L 1049.6318599910046 153.7653296538765 L 1049.5625 152 L 1049.6318599910046 150.2346703461235 L 1049.8395123366095 148.48022453659482 L 1050.1841767910523 146.74747931324214 L 1050.663728383359 145.04711762656368 L 1051.2752105184961 143.38962277178547 L 1052.0148532057617 141.7852137558602 L 1052.8780963020329 140.24378229389114 L 1053.8596176265637 138.77483182341936 L 1054.9533657739994 137.38741891257087 L 1056.1525974233027 136.0900974233027 L 1057.4499189125709 134.8908657739993 L 1058.8373318234194 133.79711762656368 L 1060.3062822938912 132.81559630203293 L 1061.8477137558602 131.9523532057617 L 1063.4521227717855 131.21271051849604 L 1065.1096176265637 130.60122838335903 L 1066.8099793132421 130.12167679105227 L 1068.542724536595 129.7770123366094 L 1070.2971703461235 129.5693599910046 L 1072.0625 129.5 L 1073.8278296538765 129.56935999100463 L 1075.5822754634053 129.7770123366094 L 1077.3150206867579 130.1216767910523 L 1079.0153823734365 130.60122838335909 L 1080.6728772282147 131.2127105184961 L 1082.27728624414 131.9523532057618 L 1083.818717706109 132.815596302033 L 1085.2876681765808 133.79711762656376 L 1086.6750810874294 134.89086577399942 L 1087.9724025766975 136.0900974233028 L 1089.1716342260008 137.387418912571 L 1090.2653823734365 138.7748318234195 L 1091.2469036979671 140.24378229389131 L 1092.1101467942383 141.78521375586038 L 1092.849789481504 143.3896227717857 L 1093.461271616641 145.0471176265639 L 1093.9408232089477 146.74747931324237 L 1094.2854876633905 148.48022453659505 L 1094.4931400089954 150.23467034612375 Z" fill-opacity="1" stroke-opacity="1" stroke-miterlimit="10" stroke-width="6"/><text fill="rgb(255,255,255)" stroke="none" font-family="times new roman" font-size="15px" font-style="normal" font-weight="normal" text-decoration="normal" x="1072.0625" y="159.5" text-anchor="middle" dominant-baseline="text-after-edge" fill-opacity="1">*39</text><path fill="rgb(69,90,100)" stroke="rgb(69,90,100)" paint-order="fill stroke markers" d=" M 527.5625 403 L 508.8125 420.5 L 527.5625 438 L 565.0625 438 L 583.8125 420.5 L 565.0625 403 Z" fill-opacity="1" stroke-opacity="1" stroke-miterlimit="10" stroke-width="2"/><text fill="rgb(255,255,255)" stroke="none" font-family="times new roman" font-size="10px" font-style="normal" font-weight="normal" text-decoration="normal" x="546.3125" y="425.5" text-anchor="middle" dominant-baseline="text-after-edge" fill-opacity="1">NA12813-A</text><path fill="rgb(69,90,100)" stroke="rgb(76,175,80)" paint-order="fill stroke markers" d=" M 556.1875 142 L 556.1875 162 L 651.1875 162 L 651.1875 142 Z" fill-opacity="1" stroke-opacity="1" stroke-miterlimit="10" stroke-width="6"/><text fill="rgb(255,255,255)" stroke="none" font-family="times new roman" font-size="10px" font-style="normal" font-weight="normal" text-decoration="normal" x="603.6875" y="157" text-anchor="middle" dominant-baseline="text-after-edge" fill-opacity="1">42130482C&gt;A</text><path fill="rgb(69,90,100)" stroke="rgb(76,175,80)" paint-order="fill stroke markers" d=" M 713.4375 152 L 713.3835533403297 153.37303417523728 L 713.2220459604149 154.73760313820404 L 712.9539736069594 156.08529386747836 L 712.5809890351652 157.40779740156157 L 712.1053918189475 158.69696006638907 L 711.5301141732964 159.94483374544205 L 710.8587028761966 161.1437248825291 L 710.0952974015615 162.28624191511827 L 709.2446043980005 163.3653408457782 L 708.3118686707646 164.37436867076457 L 707.3028408457782 165.30710439800055 L 706.2237419151182 166.1577974015616 L 705.0812248825291 166.92120287619662 L 703.8823337454421 167.59261417329643 L 702.6344600663891 168.1678918189475 L 701.3452974015615 168.64348903516517 L 700.0227938674783 169.01647360695935 L 698.675103138204 169.2845459604149 L 697.3105341752373 169.44605334032974 L 695.9375 169.5 L 694.5644658247627 169.44605334032974 L 693.199896861796 169.2845459604149 L 691.8522061325217 169.01647360695935 L 690.5297025984385 168.6434890351652 L 689.2405399336109 168.1678918189475 L 687.9926662545579 167.59261417329643 L 686.7937751174709 166.92120287619662 L 685.6512580848818 166.1577974015616 L 684.5721591542218 165.30710439800055 L 683.5631313292354 164.37436867076457 L 682.6303956019995 163.3653408457782 L 681.7797025984385 162.2862419151183 L 681.0162971238034 161.1437248825291 L 680.3448858267036 159.94483374544208 L 679.7696081810525 158.69696006638907 L 679.2940109648348 157.4077974015616 L 678.9210263930406 156.08529386747836 L 678.6529540395851 154.73760313820404 L 678.4914466596703 153.37303417523728 L 678.4375 152 L 678.4914466596703 150.62696582476272 L 678.6529540395851 149.26239686179596 L 678.9210263930406 147.91470613252164 L 679.2940109648348 146.59220259843843 L 679.7696081810525 145.30303993361093 L 680.3448858267036 144.05516625455795 L 681.0162971238034 142.8562751174709 L 681.7797025984385 141.71375808488173 L 682.6303956019995 140.6346591542218 L 683.5631313292354 139.62563132923543 L 684.5721591542218 138.69289560199945 L 685.6512580848818 137.84220259843843 L 686.7937751174709 137.07879712380338 L 687.9926662545579 136.40738582670355 L 689.240539933611 135.8321081810525 L 690.5297025984385 135.3565109648348 L 691.8522061325217 134.98352639304065 L 693.199896861796 134.7154540395851 L 694.5644658247628 134.55394665967026 L 695.9375000000001 134.5 L 697.3105341752373 134.55394665967026 L 698.6751031382041 134.7154540395851 L 700.0227938674784 134.98352639304068 L 701.3452974015617 135.35651096483485 L 702.6344600663891 135.83210818105252 L 703.8823337454421 136.4073858267036 L 705.0812248825292 137.07879712380344 L 706.2237419151184 137.8422025984385 L 707.3028408457783 138.69289560199954 L 708.3118686707646 139.62563132923552 L 709.2446043980007 140.6346591542219 L 710.0952974015617 141.71375808488185 L 710.8587028761967 142.85627511747103 L 711.5301141732965 144.0551662545581 L 712.1053918189476 145.3030399336111 L 712.5809890351652 146.5922025984386 L 712.9539736069594 147.91470613252184 L 713.2220459604149 149.26239686179616 L 713.3835533403297 150.62696582476292 Z" fill-opacity="1" stroke-opacity="1" stroke-miterlimit="10" stroke-width="6"/><text fill="rgb(255,255,255)" stroke="none" font-family="times new roman" font-size="10px" font-style="normal" font-weight="normal" text-decoration="normal" x="695.9375" y="157" text-anchor="middle" dominant-baseline="text-after-edge" fill-opacity="1">*1.41</text><path fill="rgb(69,90,100)" stroke="rgb(76,175,80)" paint-order="fill stroke markers" d=" M 913.0625 152 L 912.9931400089954 153.7653296538765 L 912.7854876633907 155.51977546340518 L 912.4408232089477 157.25252068675786 L 911.9612716166409 158.95288237343632 L 911.349789481504 160.61037722821453 L 910.6101467942383 162.21478624413982 L 909.7469036979671 163.75621770610886 L 908.7653823734363 165.22516817658064 L 907.6716342260007 166.61258108742913 L 906.4724025766973 167.9099025766973 L 905.1750810874291 169.1091342260007 L 903.7876681765806 170.20288237343632 L 902.3187177061088 171.18440369796707 L 900.7772862441398 172.0476467942383 L 899.1728772282145 172.78728948150396 L 897.5153823734363 173.39877161664094 L 895.8150206867579 173.87832320894773 L 894.0822754634052 174.2229876633906 L 892.3278296538765 174.43064000899537 L 890.5625 174.5 L 888.7971703461235 174.43064000899537 L 887.0427245365948 174.2229876633906 L 885.3099793132421 173.87832320894773 L 883.6096176265637 173.39877161664094 L 881.9521227717855 172.78728948150396 L 880.3477137558602 172.0476467942383 L 878.8062822938912 171.18440369796707 L 877.3373318234194 170.20288237343632 L 875.9499189125709 169.1091342260007 L 874.6525974233027 167.90990257669733 L 873.4533657739993 166.61258108742913 L 872.3596176265637 165.22516817658064 L 871.3780963020329 163.75621770610886 L 870.5148532057617 162.21478624413982 L 869.775210518496 160.61037722821453 L 869.1637283833591 158.95288237343632 L 868.6841767910523 157.25252068675786 L 868.3395123366095 155.5197754634052 L 868.1318599910046 153.7653296538765 L 868.0625 152 L 868.1318599910046 150.2346703461235 L 868.3395123366093 148.48022453659482 L 868.6841767910523 146.74747931324214 L 869.1637283833591 145.04711762656368 L 869.775210518496 143.38962277178547 L 870.5148532057617 141.7852137558602 L 871.3780963020329 140.24378229389114 L 872.3596176265637 138.77483182341936 L 873.4533657739993 137.38741891257087 L 874.6525974233027 136.0900974233027 L 875.9499189125709 134.8908657739993 L 877.3373318234194 133.79711762656368 L 878.8062822938912 132.81559630203293 L 880.3477137558602 131.9523532057617 L 881.9521227717855 131.21271051849604 L 883.6096176265637 130.60122838335903 L 885.3099793132421 130.12167679105227 L 887.0427245365948 129.7770123366094 L 888.7971703461236 129.5693599910046 L 890.5625000000001 129.5 L 892.3278296538766 129.56935999100463 L 894.0822754634053 129.7770123366094 L 895.815020686758 130.1216767910523 L 897.5153823734364 130.60122838335909 L 899.1728772282146 131.2127105184961 L 900.7772862441399 131.9523532057618 L 902.3187177061089 132.815596302033 L 903.7876681765807 133.79711762656376 L 905.1750810874292 134.89086577399942 L 906.4724025766974 136.0900974233028 L 907.6716342260008 137.387418912571 L 908.7653823734364 138.7748318234195 L 909.7469036979671 140.24378229389131 L 910.6101467942384 141.78521375586038 L 911.349789481504 143.3896227717857 L 911.961271616641 145.0471176265639 L 912.4408232089478 146.74747931324237 L 912.7854876633907 148.48022453659505 L 912.9931400089954 150.23467034612375 Z" fill-opacity="1" stroke-opacity="1" stroke-miterlimit="10" stroke-width="2"/><text fill="rgb(255,255,255)" stroke="none" font-family="times new roman" font-size="15px" font-style="normal" font-weight="normal" text-decoration="normal" x="890.5625" y="159.5" text-anchor="middle" dominant-baseline="text-after-edge" fill-opacity="1">*34</text><path fill="rgb(69,90,100)" stroke="rgb(158,158,158)" paint-order="fill stroke markers" d=" M 798.4375 68.5 L 798.4375 88.5 L 893.4375 88.5 L 893.4375 68.5 Z" fill-opacity="1" stroke-opacity="1" stroke-miterlimit="10" stroke-width="2"/><text fill="rgb(255,255,255)" stroke="none" font-family="times new roman" font-size="10px" font-style="normal" font-weight="normal" text-decoration="normal" x="845.9375" y="83.5" text-anchor="middle" dominant-baseline="text-after-edge" fill-opacity="1">42127941G&gt;A</text><path fill="rgb(69,90,100)" stroke="rgb(76,175,80)" paint-order="fill stroke markers" d=" M 441.4375 142 L 441.4375 162 L 536.4375 162 L 536.4375 142 Z" fill-opacity="1" stroke-opacity="1" stroke-miterlimit="10" stroke-width="6"/><text fill="rgb(255,255,255)" stroke="none" font-family="times new roman" font-size="10px" font-style="normal" font-weight="normal" text-decoration="normal" x="488.9375" y="157" text-anchor="middle" dominant-baseline="text-after-edge" fill-opacity="1">42129950A&gt;C</text><path fill="rgb(69,90,100)" stroke="rgb(76,175,80)" paint-order="fill stroke markers" d=" M 1161.5625 152 L 1161.5085533403299 153.37303417523728 L 1161.347045960415 154.73760313820404 L 1161.0789736069594 156.08529386747836 L 1160.7059890351652 157.40779740156157 L 1160.2303918189475 158.69696006638907 L 1159.6551141732964 159.94483374544205 L 1158.9837028761965 161.1437248825291 L 1158.2202974015615 162.28624191511827 L 1157.3696043980005 163.3653408457782 L 1156.4368686707646 164.37436867076457 L 1155.4278408457783 165.30710439800055 L 1154.3487419151184 166.1577974015616 L 1153.206224882529 166.92120287619662 L 1152.007333745442 167.59261417329643 L 1150.759460066389 168.1678918189475 L 1149.4702974015615 168.64348903516517 L 1148.1477938674784 169.01647360695935 L 1146.8001031382041 169.2845459604149 L 1145.4355341752373 169.44605334032974 L 1144.0625 169.5 L 1142.6894658247627 169.44605334032974 L 1141.3248968617959 169.2845459604149 L 1139.9772061325216 169.01647360695935 L 1138.6547025984385 168.6434890351652 L 1137.365539933611 168.1678918189475 L 1136.117666254558 167.59261417329643 L 1134.918775117471 166.92120287619662 L 1133.7762580848816 166.1577974015616 L 1132.6971591542217 165.30710439800055 L 1131.6881313292354 164.37436867076457 L 1130.7553956019995 163.3653408457782 L 1129.9047025984385 162.2862419151183 L 1129.1412971238035 161.1437248825291 L 1128.4698858267036 159.94483374544208 L 1127.8946081810525 158.69696006638907 L 1127.4190109648348 157.4077974015616 L 1127.0460263930406 156.08529386747836 L 1126.777954039585 154.73760313820404 L 1126.6164466596701 153.37303417523728 L 1126.5625 152 L 1126.6164466596701 150.62696582476272 L 1126.777954039585 149.26239686179596 L 1127.0460263930406 147.91470613252164 L 1127.4190109648348 146.59220259843843 L 1127.8946081810525 145.30303993361093 L 1128.4698858267036 144.05516625455795 L 1129.1412971238035 142.8562751174709 L 1129.9047025984385 141.71375808488173 L 1130.7553956019995 140.6346591542218 L 1131.6881313292354 139.62563132923543 L 1132.6971591542217 138.69289560199945 L 1133.7762580848816 137.84220259843843 L 1134.918775117471 137.07879712380338 L 1136.117666254558 136.40738582670355 L 1137.365539933611 135.8321081810525 L 1138.6547025984385 135.3565109648348 L 1139.9772061325216 134.98352639304065 L 1141.324896861796 134.7154540395851 L 1142.6894658247627 134.55394665967026 L 1144.0625 134.5 L 1145.4355341752373 134.55394665967026 L 1146.8001031382041 134.7154540395851 L 1148.1477938674784 134.98352639304068 L 1149.4702974015618 135.35651096483485 L 1150.7594600663892 135.83210818105252 L 1152.007333745442 136.4073858267036 L 1153.206224882529 137.07879712380344 L 1154.3487419151184 137.8422025984385 L 1155.4278408457783 138.69289560199954 L 1156.4368686707646 139.62563132923552 L 1157.3696043980005 140.6346591542219 L 1158.2202974015618 141.71375808488185 L 1158.9837028761967 142.85627511747103 L 1159.6551141732966 144.0551662545581 L 1160.2303918189475 145.3030399336111 L 1160.7059890351652 146.5922025984386 L 1161.0789736069594 147.91470613252184 L 1161.347045960415 149.26239686179616 L 1161.5085533403299 150.62696582476292 Z" fill-opacity="1" stroke-opacity="1" stroke-miterlimit="10" stroke-width="2"/><text fill="rgb(255,255,255)" stroke="none" font-family="times new roman" font-size="10px" font-style="normal" font-weight="normal" text-decoration="normal" x="1144.0625" y="157" text-anchor="middle" dominant-baseline="text-after-edge" fill-opacity="1">*2.4</text><path fill="rgb(69,90,100)" stroke="rgb(76,175,80)" paint-order="fill stroke markers" d=" M 1084.0625 288.875 L 1083.9931400089954 290.6403296538765 L 1083.7854876633905 292.3947754634052 L 1083.4408232089477 294.12752068675786 L 1082.961271616641 295.8278823734363 L 1082.3497894815039 297.48537722821453 L 1081.6101467942383 299.0897862441398 L 1080.7469036979671 300.6312177061088 L 1079.7653823734363 302.10016817658067 L 1078.6716342260006 303.48758108742913 L 1077.4724025766973 304.78490257669733 L 1076.1750810874291 305.9841342260007 L 1074.7876681765806 307.0778823734363 L 1073.3187177061088 308.05940369796707 L 1071.7772862441398 308.9226467942383 L 1070.1728772282145 309.66228948150393 L 1068.5153823734363 310.27377161664094 L 1066.8150206867579 310.75332320894773 L 1065.0822754634053 311.0979876633906 L 1063.3278296538765 311.3056400089954 L 1061.5625 311.375 L 1059.7971703461235 311.3056400089954 L 1058.0427245365947 311.0979876633906 L 1056.3099793132421 310.75332320894773 L 1054.6096176265637 310.27377161664094 L 1052.9521227717855 309.66228948150393 L 1051.3477137558602 308.9226467942383 L 1049.8062822938912 308.05940369796707 L 1048.3373318234194 307.0778823734363 L 1046.9499189125709 305.9841342260007 L 1045.6525974233027 304.78490257669733 L 1044.4533657739994 303.48758108742913 L 1043.3596176265637 302.10016817658067 L 1042.3780963020329 300.6312177061088 L 1041.5148532057617 299.0897862441398 L 1040.7752105184961 297.48537722821453 L 1040.163728383359 295.8278823734363 L 1039.6841767910523 294.12752068675786 L 1039.3395123366095 292.3947754634052 L 1039.1318599910046 290.6403296538765 L 1039.0625 288.875 L 1039.1318599910046 287.1096703461235 L 1039.3395123366095 285.3552245365948 L 1039.6841767910523 283.62247931324214 L 1040.163728383359 281.9221176265637 L 1040.7752105184961 280.26462277178547 L 1041.5148532057617 278.6602137558602 L 1042.3780963020329 277.1187822938912 L 1043.3596176265637 275.64983182341933 L 1044.4533657739994 274.26241891257087 L 1045.6525974233027 272.96509742330267 L 1046.9499189125709 271.76586577399934 L 1048.3373318234194 270.6721176265637 L 1049.8062822938912 269.69059630203293 L 1051.3477137558602 268.8273532057617 L 1052.9521227717855 268.087710518496 L 1054.6096176265637 267.47622838335906 L 1056.3099793132421 266.99667679105227 L 1058.042724536595 266.6520123366094 L 1059.7971703461235 266.4443599910046 L 1061.5625 266.375 L 1063.3278296538765 266.4443599910046 L 1065.0822754634053 266.6520123366094 L 1066.8150206867579 266.9966767910523 L 1068.5153823734365 267.47622838335906 L 1070.1728772282147 268.0877105184961 L 1071.77728624414 268.82735320576177 L 1073.318717706109 269.690596302033 L 1074.7876681765808 270.67211762656376 L 1076.1750810874294 271.7658657739994 L 1077.4724025766975 272.9650974233028 L 1078.6716342260008 274.262418912571 L 1079.7653823734365 275.6498318234195 L 1080.7469036979671 277.11878229389134 L 1081.6101467942383 278.6602137558604 L 1082.349789481504 280.2646227717857 L 1082.961271616641 281.92211762656393 L 1083.4408232089477 283.62247931324237 L 1083.7854876633905 285.3552245365951 L 1083.9931400089954 287.1096703461238 Z" fill-opacity="1" stroke-opacity="1" stroke-miterlimit="10" stroke-width="2"/><text fill="rgb(255,255,255)" stroke="none" font-family="times new roman" font-size="15px" font-style="normal" font-weight="normal" text-decoration="normal" x="1061.5625" y="296.375" text-anchor="middle" dominant-baseline="text-after-edge" fill-opacity="1">*2</text><path fill="rgb(3,169,244)" stroke="none" paint-order="stroke fill markers" d=" M 1061.5625 256.375 L 1086.0625 256.375 L 1086.0625 256.375 A 8 8 0 0 1 1094.0625 264.375 L 1094.0625 313.375 L 1094.0625 313.375 A 8 8 0 0 1 1086.0625 321.375 L 1037.0625 321.375 L 1037.0625 321.375 A 8 8 0 0 1 1029.0625 313.375 L 1029.0625 264.375 L 1029.0625 264.375 A 8 8 0 0 1 1037.0625 256.375 L 1061.5625 256.375 Z" fill-opacity="0.15"/><path fill="rgb(69,90,100)" stroke="rgb(158,158,158)" paint-order="fill stroke markers" d=" M 978.4375 68.5 L 978.4375 88.5 L 1073.4375 88.5 L 1073.4375 68.5 Z" fill-opacity="1" stroke-opacity="1" stroke-miterlimit="10" stroke-width="6"/><text fill="rgb(255,255,255)" stroke="none" font-family="times new roman" font-size="10px" font-style="normal" font-weight="normal" text-decoration="normal" x="1025.9375" y="83.5" text-anchor="middle" dominant-baseline="text-after-edge" fill-opacity="1">42126611C&gt;G</text><path fill="rgb(69,90,100)" stroke="rgb(76,175,80)" paint-order="fill stroke markers" d=" M 740.6875 142 L 740.6875 162 L 835.6875 162 L 835.6875 142 Z" fill-opacity="1" stroke-opacity="1" stroke-miterlimit="10" stroke-width="6"/><text fill="rgb(255,255,255)" stroke="none" font-family="times new roman" font-size="10px" font-style="normal" font-weight="normal" text-decoration="normal" x="788.1875" y="157" text-anchor="middle" dominant-baseline="text-after-edge" fill-opacity="1">42130047G&gt;C</text><path fill="rgb(69,90,100)" stroke="rgb(76,175,80)" paint-order="fill stroke markers" d=" M 563.8125 288.875 L 563.7585533403297 290.2480341752373 L 563.5970459604149 291.61260313820407 L 563.3289736069594 292.96029386747836 L 562.9559890351652 294.2827974015616 L 562.4803918189475 295.57196006638907 L 561.9051141732964 296.81983374544205 L 561.2337028761966 298.0187248825291 L 560.4702974015615 299.1612419151183 L 559.6196043980005 300.24034084577823 L 558.6868686707646 301.24936867076457 L 557.6778408457782 302.18210439800055 L 556.5987419151182 303.0327974015616 L 555.4562248825291 303.7962028761966 L 554.2573337454421 304.46761417329645 L 553.0094600663891 305.0428918189475 L 551.7202974015615 305.5184890351652 L 550.3977938674783 305.8914736069593 L 549.050103138204 306.1595459604149 L 547.6855341752373 306.32105334032974 L 546.3125 306.375 L 544.9394658247627 306.32105334032974 L 543.574896861796 306.1595459604149 L 542.2272061325217 305.8914736069593 L 540.9047025984385 305.5184890351652 L 539.6155399336109 305.0428918189475 L 538.3676662545579 304.46761417329645 L 537.1687751174709 303.7962028761966 L 536.0262580848818 303.0327974015616 L 534.9471591542218 302.18210439800055 L 533.9381313292354 301.24936867076457 L 533.0053956019995 300.24034084577823 L 532.1547025984385 299.1612419151183 L 531.3912971238034 298.0187248825291 L 530.7198858267036 296.81983374544205 L 530.1446081810525 295.57196006638907 L 529.6690109648348 294.2827974015616 L 529.2960263930406 292.96029386747836 L 529.0279540395851 291.61260313820407 L 528.8664466596703 290.2480341752373 L 528.8125 288.875 L 528.8664466596703 287.5019658247627 L 529.0279540395851 286.13739686179593 L 529.2960263930406 284.78970613252164 L 529.6690109648348 283.4672025984384 L 530.1446081810525 282.17803993361093 L 530.7198858267036 280.93016625455795 L 531.3912971238034 279.7312751174709 L 532.1547025984385 278.5887580848817 L 533.0053956019995 277.50965915422177 L 533.9381313292354 276.50063132923543 L 534.9471591542218 275.56789560199945 L 536.0262580848818 274.7172025984384 L 537.1687751174709 273.9537971238034 L 538.3676662545579 273.28238582670355 L 539.615539933611 272.7071081810525 L 540.9047025984385 272.2315109648348 L 542.2272061325217 271.8585263930407 L 543.574896861796 271.5904540395851 L 544.9394658247628 271.42894665967026 L 546.3125000000001 271.375 L 547.6855341752373 271.42894665967026 L 549.0501031382041 271.5904540395851 L 550.3977938674784 271.8585263930407 L 551.7202974015617 272.23151096483485 L 553.0094600663891 272.7071081810525 L 554.2573337454421 273.2823858267036 L 555.4562248825292 273.95379712380344 L 556.5987419151184 274.7172025984385 L 557.6778408457783 275.56789560199957 L 558.6868686707646 276.5006313292355 L 559.6196043980007 277.5096591542219 L 560.4702974015617 278.5887580848818 L 561.2337028761967 279.73127511747106 L 561.9051141732965 280.93016625455806 L 562.4803918189476 282.1780399336111 L 562.9559890351652 283.4672025984386 L 563.3289736069594 284.7897061325218 L 563.5970459604149 286.13739686179616 L 563.7585533403297 287.5019658247629 Z" fill-opacity="1" stroke-opacity="1" stroke-miterlimit="10" stroke-width="6"/><text fill="rgb(255,255,255)" stroke="none" font-family="times new roman" font-size="10px" font-style="normal" font-weight="normal" text-decoration="normal" x="546.3125" y="293.875" text-anchor="middle" dominant-baseline="text-after-edge" fill-opacity="1">*1.58</text><path fill="rgb(69,90,100)" stroke="rgb(76,175,80)" paint-order="fill stroke markers" d=" M 952.6875 78.5 L 952.6335533403297 79.87303417523728 L 952.4720459604149 81.23760313820404 L 952.2039736069594 82.58529386747834 L 951.8309890351652 83.90779740156158 L 951.3553918189475 85.19696006638907 L 950.7801141732964 86.44483374544207 L 950.1087028761966 87.6437248825291 L 949.3452974015615 88.78624191511828 L 948.4946043980005 89.8653408457782 L 947.5618686707646 90.87436867076458 L 946.5528408457782 91.80710439800055 L 945.4737419151182 92.65779740156158 L 944.3312248825291 93.42120287619662 L 943.1323337454421 94.09261417329644 L 941.8844600663891 94.66789181894751 L 940.5952974015615 95.14348903516519 L 939.2727938674783 95.51647360695934 L 937.925103138204 95.7845459604149 L 936.5605341752373 95.94605334032974 L 935.1875 96 L 933.8144658247627 95.94605334032974 L 932.449896861796 95.7845459604149 L 931.1022061325217 95.51647360695934 L 929.7797025984385 95.14348903516519 L 928.4905399336109 94.66789181894751 L 927.2426662545579 94.09261417329644 L 926.0437751174709 93.42120287619662 L 924.9012580848818 92.65779740156158 L 923.8221591542218 91.80710439800055 L 922.8131313292354 90.87436867076458 L 921.8803956019995 89.86534084577822 L 921.0297025984385 88.78624191511828 L 920.2662971238034 87.64372488252911 L 919.5948858267036 86.44483374544207 L 919.0196081810525 85.19696006638907 L 918.5440109648348 83.90779740156158 L 918.1710263930406 82.58529386747834 L 917.9029540395851 81.23760313820404 L 917.7414466596703 79.8730341752373 L 917.6875 78.5 L 917.7414466596703 77.12696582476272 L 917.9029540395851 75.76239686179596 L 918.1710263930406 74.41470613252166 L 918.5440109648348 73.09220259843842 L 919.0196081810525 71.80303993361093 L 919.5948858267036 70.55516625455793 L 920.2662971238034 69.3562751174709 L 921.0297025984385 68.21375808488172 L 921.8803956019995 67.1346591542218 L 922.8131313292354 66.12563132923542 L 923.8221591542218 65.19289560199947 L 924.9012580848818 64.34220259843842 L 926.0437751174709 63.57879712380338 L 927.2426662545579 62.90738582670356 L 928.490539933611 62.332108181052476 L 929.7797025984385 61.856510964834804 L 931.1022061325217 61.48352639304065 L 932.449896861796 61.21545403958508 L 933.8144658247628 61.05394665967026 L 935.1875000000001 61 L 936.5605341752373 61.05394665967027 L 937.9251031382041 61.2154540395851 L 939.2727938674784 61.48352639304068 L 940.5952974015617 61.85651096483484 L 941.8844600663891 62.33210818105252 L 943.1323337454421 62.90738582670361 L 944.3312248825292 63.57879712380345 L 945.4737419151184 64.34220259843849 L 946.5528408457783 65.19289560199954 L 947.5618686707646 66.12563132923552 L 948.4946043980007 67.1346591542219 L 949.3452974015617 68.21375808488185 L 950.1087028761967 69.35627511747103 L 950.7801141732965 70.55516625455807 L 951.3553918189476 71.80303993361109 L 951.8309890351652 73.09220259843859 L 952.2039736069594 74.41470613252184 L 952.4720459604149 75.76239686179616 L 952.6335533403297 77.12696582476292 Z" fill-opacity="1" stroke-opacity="1" stroke-miterlimit="10" stroke-width="2"/><text fill="rgb(255,255,255)" stroke="none" font-family="times new roman" font-size="10px" font-style="normal" font-weight="normal" text-decoration="normal" x="935.1875" y="83.5" text-anchor="middle" dominant-baseline="text-after-edge" fill-opacity="1">*34.1</text><path fill="rgb(69,90,100)" stroke="rgb(76,175,80)" paint-order="fill stroke markers" d=" M 375.6875 142 L 418.1875 142 L 418.1875 142 A 5 5 0 0 1 423.1875 147 L 423.1875 157 L 423.1875 157 A 5 5 0 0 1 418.1875 162 L 333.1875 162 L 333.1875 162 A 5 5 0 0 1 328.1875 157 L 328.1875 147 L 328.1875 147 A 5 5 0 0 1 333.1875 142 L 375.6875 142 Z" fill-opacity="1" stroke-opacity="1" stroke-miterlimit="10" stroke-width="2"/><text fill="rgb(255,255,255)" stroke="none" font-family="times new roman" font-size="10px" font-style="normal" font-weight="normal" text-decoration="normal" x="375.6875" y="157" text-anchor="middle" dominant-baseline="text-after-edge" fill-opacity="1">42132025_4213202…</text><path fill="rgb(69,90,100)" stroke="rgb(76,175,80)" paint-order="fill stroke markers" d=" M 759.5625 288.875 L 759.5085533403297 290.2480341752373 L 759.3470459604149 291.61260313820407 L 759.0789736069594 292.96029386747836 L 758.7059890351652 294.2827974015616 L 758.2303918189475 295.57196006638907 L 757.6551141732964 296.81983374544205 L 756.9837028761966 298.0187248825291 L 756.2202974015615 299.1612419151183 L 755.3696043980005 300.24034084577823 L 754.4368686707646 301.24936867076457 L 753.4278408457782 302.18210439800055 L 752.3487419151182 303.0327974015616 L 751.2062248825291 303.7962028761966 L 750.0073337454421 304.46761417329645 L 748.7594600663891 305.0428918189475 L 747.4702974015615 305.5184890351652 L 746.1477938674783 305.8914736069593 L 744.800103138204 306.1595459604149 L 743.4355341752373 306.32105334032974 L 742.0625 306.375 L 740.6894658247627 306.32105334032974 L 739.324896861796 306.1595459604149 L 737.9772061325217 305.8914736069593 L 736.6547025984385 305.5184890351652 L 735.3655399336109 305.0428918189475 L 734.1176662545579 304.46761417329645 L 732.9187751174709 303.7962028761966 L 731.7762580848818 303.0327974015616 L 730.6971591542218 302.18210439800055 L 729.6881313292354 301.24936867076457 L 728.7553956019995 300.24034084577823 L 727.9047025984385 299.1612419151183 L 727.1412971238034 298.0187248825291 L 726.4698858267036 296.81983374544205 L 725.8946081810525 295.57196006638907 L 725.4190109648348 294.2827974015616 L 725.0460263930406 292.96029386747836 L 724.7779540395851 291.61260313820407 L 724.6164466596703 290.2480341752373 L 724.5625 288.875 L 724.6164466596703 287.5019658247627 L 724.7779540395851 286.13739686179593 L 725.0460263930406 284.78970613252164 L 725.4190109648348 283.4672025984384 L 725.8946081810525 282.17803993361093 L 726.4698858267036 280.93016625455795 L 727.1412971238034 279.7312751174709 L 727.9047025984385 278.5887580848817 L 728.7553956019995 277.50965915422177 L 729.6881313292354 276.50063132923543 L 730.6971591542218 275.56789560199945 L 731.7762580848818 274.7172025984384 L 732.9187751174709 273.9537971238034 L 734.1176662545579 273.28238582670355 L 735.365539933611 272.7071081810525 L 736.6547025984385 272.2315109648348 L 737.9772061325217 271.8585263930407 L 739.324896861796 271.5904540395851 L 740.6894658247628 271.42894665967026 L 742.0625000000001 271.375 L 743.4355341752373 271.42894665967026 L 744.8001031382041 271.5904540395851 L 746.1477938674784 271.8585263930407 L 747.4702974015617 272.23151096483485 L 748.7594600663891 272.7071081810525 L 750.0073337454421 273.2823858267036 L 751.2062248825292 273.95379712380344 L 752.3487419151184 274.7172025984385 L 753.4278408457783 275.56789560199957 L 754.4368686707646 276.5006313292355 L 755.3696043980007 277.5096591542219 L 756.2202974015617 278.5887580848818 L 756.9837028761967 279.73127511747106 L 757.6551141732965 280.93016625455806 L 758.2303918189476 282.1780399336111 L 758.7059890351652 283.4672025984386 L 759.0789736069594 284.7897061325218 L 759.3470459604149 286.13739686179616 L 759.5085533403297 287.5019658247629 Z" fill-opacity="1" stroke-opacity="1" stroke-miterlimit="10" stroke-width="6"/><text fill="rgb(255,255,255)" stroke="none" font-family="times new roman" font-size="10px" font-style="normal" font-weight="normal" text-decoration="normal" x="742.0625" y="293.875" text-anchor="middle" dominant-baseline="text-after-edge" fill-opacity="1">*1.54</text><path fill="rgb(69,90,100)" stroke="rgb(76,175,80)" paint-order="fill stroke markers" d=" M 1135.6875 78.5 L 1135.6335533403299 79.87303417523728 L 1135.472045960415 81.23760313820404 L 1135.2039736069594 82.58529386747834 L 1134.8309890351652 83.90779740156158 L 1134.3553918189475 85.19696006638907 L 1133.7801141732964 86.44483374544207 L 1133.1087028761965 87.6437248825291 L 1132.3452974015615 88.78624191511828 L 1131.4946043980005 89.8653408457782 L 1130.5618686707646 90.87436867076458 L 1129.5528408457783 91.80710439800055 L 1128.4737419151184 92.65779740156158 L 1127.331224882529 93.42120287619662 L 1126.132333745442 94.09261417329644 L 1124.884460066389 94.66789181894751 L 1123.5952974015615 95.14348903516519 L 1122.2727938674784 95.51647360695934 L 1120.9251031382041 95.7845459604149 L 1119.5605341752373 95.94605334032974 L 1118.1875 96 L 1116.8144658247627 95.94605334032974 L 1115.4498968617959 95.7845459604149 L 1114.1022061325216 95.51647360695934 L 1112.7797025984385 95.14348903516519 L 1111.490539933611 94.66789181894751 L 1110.242666254558 94.09261417329644 L 1109.043775117471 93.42120287619662 L 1107.9012580848816 92.65779740156158 L 1106.8221591542217 91.80710439800055 L 1105.8131313292354 90.87436867076458 L 1104.8803956019995 89.86534084577822 L 1104.0297025984385 88.78624191511828 L 1103.2662971238035 87.64372488252911 L 1102.5948858267036 86.44483374544207 L 1102.0196081810525 85.19696006638907 L 1101.5440109648348 83.90779740156158 L 1101.1710263930406 82.58529386747834 L 1100.902954039585 81.23760313820404 L 1100.7414466596701 79.8730341752373 L 1100.6875 78.5 L 1100.7414466596701 77.12696582476272 L 1100.902954039585 75.76239686179596 L 1101.1710263930406 74.41470613252166 L 1101.5440109648348 73.09220259843842 L 1102.0196081810525 71.80303993361093 L 1102.5948858267036 70.55516625455793 L 1103.2662971238035 69.3562751174709 L 1104.0297025984385 68.21375808488172 L 1104.8803956019995 67.1346591542218 L 1105.8131313292354 66.12563132923542 L 1106.8221591542217 65.19289560199947 L 1107.9012580848816 64.34220259843842 L 1109.043775117471 63.57879712380338 L 1110.242666254558 62.90738582670356 L 1111.490539933611 62.332108181052476 L 1112.7797025984385 61.856510964834804 L 1114.1022061325216 61.48352639304065 L 1115.449896861796 61.21545403958508 L 1116.8144658247627 61.05394665967026 L 1118.1875 61 L 1119.5605341752373 61.05394665967027 L 1120.9251031382041 61.2154540395851 L 1122.2727938674784 61.48352639304068 L 1123.5952974015618 61.85651096483484 L 1124.8844600663892 62.33210818105252 L 1126.132333745442 62.90738582670361 L 1127.331224882529 63.57879712380345 L 1128.4737419151184 64.34220259843849 L 1129.5528408457783 65.19289560199954 L 1130.5618686707646 66.12563132923552 L 1131.4946043980005 67.1346591542219 L 1132.3452974015618 68.21375808488185 L 1133.1087028761967 69.35627511747103 L 1133.7801141732966 70.55516625455807 L 1134.3553918189475 71.80303993361109 L 1134.8309890351652 73.09220259843859 L 1135.2039736069594 74.41470613252184 L 1135.472045960415 75.76239686179616 L 1135.6335533403299 77.12696582476292 Z" fill-opacity="1" stroke-opacity="1" stroke-miterlimit="10" stroke-width="6"/><text fill="rgb(255,255,255)" stroke="none" font-family="times new roman" font-size="10px" font-style="normal" font-weight="normal" text-decoration="normal" x="1118.1875" y="83.5" text-anchor="middle" dominant-baseline="text-after-edge" fill-opacity="1">*39.2</text><path fill="rgb(69,90,100)" stroke="rgb(76,175,80)" paint-order="fill stroke markers" d=" M 263.9375 142 L 306.4375 142 L 306.4375 142 A 5 5 0 0 1 311.4375 147 L 311.4375 157 L 311.4375 157 A 5 5 0 0 1 306.4375 162 L 221.4375 162 L 221.4375 162 A 5 5 0 0 1 216.4375 157 L 216.4375 147 L 216.4375 147 A 5 5 0 0 1 221.4375 142 L 263.9375 142 Z" fill-opacity="1" stroke-opacity="1" stroke-miterlimit="10" stroke-width="2"/><text fill="rgb(255,255,255)" stroke="none" font-family="times new roman" font-size="10px" font-style="normal" font-weight="normal" text-decoration="normal" x="263.9375" y="157" text-anchor="middle" dominant-baseline="text-after-edge" fill-opacity="1">42132049dup</text><path fill="rgb(176,190,197)" stroke="none" paint-order="stroke fill markers" d=" M 158.9375 183.87500000000003 L 158.9375 393.875 L 233.9375 393.875 L 233.9375 183.87500000000006 Z" fill-opacity="0.8"/><text fill="rgb(0,0,0)" stroke="none" font-family="times new roman" font-size="10px" font-style="normal" font-weight="normal" text-decoration="normal" x="163.9375" y="198.875" text-anchor="start" dominant-baseline="text-after-edge" fill-opacity="0.8">42126310C&gt;T </text><text fill="rgb(0,0,0)" stroke="none" font-family="times new roman" font-size="10px" font-style="normal" font-weight="normal" text-decoration="normal" x="163.9375" y="208.875" text-anchor="start" dominant-baseline="text-after-edge" fill-opacity="0.8">42127001G&gt;A </text><text fill="rgb(0,0,0)" stroke="none" font-family="times new roman" font-size="10px" font-style="normal" font-weight="normal" text-decoration="normal" x="163.9375" y="218.875" text-anchor="start" dominant-baseline="text-after-edge" fill-opacity="0.8">42127207C&gt;T </text><text fill="rgb(0,0,0)" stroke="none" font-family="times new roman" font-size="10px" font-style="normal" font-weight="normal" text-decoration="normal" x="163.9375" y="228.875" text-anchor="start" dominant-baseline="text-after-edge" fill-opacity="0.8">42129130C&gt;G </text><text fill="rgb(0,0,0)" stroke="none" font-family="times new roman" font-size="10px" font-style="normal" font-weight="normal" text-decoration="normal" x="163.9375" y="238.875" text-anchor="start" dominant-baseline="text-after-edge" fill-opacity="0.8">42131469C&gt;T </text><text fill="rgb(0,0,0)" stroke="none" font-family="times new roman" font-size="10px" font-style="normal" font-weight="normal" text-decoration="normal" x="163.9375" y="248.875" text-anchor="start" dominant-baseline="text-after-edge" fill-opacity="0.8">42131531G&gt;A </text><text fill="rgb(0,0,0)" stroke="none" font-family="times new roman" font-size="10px" font-style="normal" font-weight="normal" text-decoration="normal" x="163.9375" y="258.875" text-anchor="start" dominant-baseline="text-after-edge" fill-opacity="0.8">42132026T&gt;C </text><text fill="rgb(0,0,0)" stroke="none" font-family="times new roman" font-size="10px" font-style="normal" font-weight="normal" text-decoration="normal" x="163.9375" y="268.875" text-anchor="start" dominant-baseline="text-after-edge" fill-opacity="0.8">42132375G&gt;C </text><path fill="rgb(176,190,197)" stroke="none" paint-order="stroke fill markers" d=" M 319.8125 183.875 L 386.8125 183.875 L 386.8125 183.875 A 8 8 0 0 1 394.8125 191.875 L 394.8125 385.875 L 394.8125 385.875 A 8 8 0 0 1 386.8125 393.875 L 252.8125 393.875 L 252.8125 393.875 A 8 8 0 0 1 244.8125 385.875 L 244.8125 191.875 L 244.8125 191.875 A 8 8 0 0 1 252.8125 183.875 L 319.8125 183.875 Z" fill-opacity="0.8"/><text fill="rgb(0,0,0)" stroke="none" font-family="times new roman" font-size="10px" font-style="normal" font-weight="normal" text-decoration="normal" x="249.8125" y="198.875" text-anchor="start" dominant-baseline="text-after-edge" fill-opacity="0.8">42125924A&gt;G </text><text fill="rgb(0,0,0)" stroke="none" font-family="times new roman" font-size="10px" font-style="normal" font-weight="normal" text-decoration="normal" x="249.8125" y="208.875" text-anchor="start" dominant-baseline="text-after-edge" fill-opacity="0.8">42126069A&gt;C </text><text fill="rgb(0,0,0)" stroke="none" font-family="times new roman" font-size="10px" font-style="normal" font-weight="normal" text-decoration="normal" x="249.8125" y="218.875" text-anchor="start" dominant-baseline="text-after-edge" fill-opacity="0.8">42126136_42126138del </text><text fill="rgb(0,0,0)" stroke="none" font-family="times new roman" font-size="10px" font-style="normal" font-weight="normal" text-decoration="normal" x="249.8125" y="228.875" text-anchor="start" dominant-baseline="text-after-edge" fill-opacity="0.8">42132025_42132026insCCTTTT </text><text fill="rgb(0,0,0)" stroke="none" font-family="times new roman" font-size="10px" font-style="normal" font-weight="normal" text-decoration="normal" x="249.8125" y="238.875" text-anchor="start" dominant-baseline="text-after-edge" fill-opacity="0.8">42132027C&gt;T </text><text fill="rgb(0,0,0)" stroke="none" font-family="times new roman" font-size="10px" font-style="normal" font-weight="normal" text-decoration="normal" x="249.8125" y="248.875" text-anchor="start" dominant-baseline="text-after-edge" fill-opacity="0.8">42132561C&gt;T </text><text fill="rgb(0,0,0)" stroke="none" font-family="times new roman" font-size="10px" font-style="normal" font-weight="normal" text-decoration="normal" x="249.8125" y="258.875" text-anchor="start" dominant-baseline="text-after-edge" fill-opacity="0.8">42132844C&gt;A </text><text fill="rgb(0,0,0)" stroke="none" font-family="times new roman" font-size="10px" font-style="normal" font-weight="normal" text-decoration="normal" x="249.8125" y="268.875" text-anchor="start" dominant-baseline="text-after-edge" fill-opacity="0.8">42132851T&gt;C </text><text fill="rgb(0,0,0)" stroke="none" font-family="times new roman" font-size="10px" font-style="normal" font-weight="normal" text-decoration="normal" x="249.8125" y="278.875" text-anchor="start" dominant-baseline="text-after-edge" fill-opacity="0.8">42133400T&gt;G </text><text fill="rgb(0,0,0)" stroke="none" font-family="times new roman" font-size="10px" font-style="normal" font-weight="normal" text-decoration="normal" x="249.8125" y="288.875" text-anchor="start" dominant-baseline="text-after-edge" fill-opacity="0.8">42133533A&gt;C </text><text fill="rgb(0,0,0)" stroke="none" font-family="times new roman" font-size="10px" font-style="normal" font-weight="normal" text-decoration="normal" x="249.8125" y="298.875" text-anchor="start" dominant-baseline="text-after-edge" fill-opacity="0.8">42134096del </text><text fill="rgb(0,0,0)" stroke="none" font-family="times new roman" font-size="10px" font-style="normal" font-weight="normal" text-decoration="normal" x="249.8125" y="308.875" text-anchor="start" dominant-baseline="text-after-edge" fill-opacity="0.8">42134820T&gt;G </text><text fill="rgb(0,0,0)" stroke="none" font-family="times new roman" font-size="10px" font-style="normal" font-weight="normal" text-decoration="normal" x="249.8125" y="318.875" text-anchor="start" dominant-baseline="text-after-edge" fill-opacity="0.8">42135064_42135066dup </text><text fill="rgb(0,0,0)" stroke="none" font-family="times new roman" font-size="10px" font-style="normal" font-weight="normal" text-decoration="normal" x="249.8125" y="328.875" text-anchor="start" dominant-baseline="text-after-edge" fill-opacity="0.8">42135201T&gt;C </text><text fill="rgb(0,0,0)" stroke="none" font-family="times new roman" font-size="10px" font-style="normal" font-weight="normal" text-decoration="normal" x="249.8125" y="338.875" text-anchor="start" dominant-baseline="text-after-edge" fill-opacity="0.8">42135691T&gt;C </text><g transform="scale(1.0508098223615465,1.0508098223615465) translate(120.30074580484768,-67.51572405220634)"/></g></svg>