<svg version="1.1" xmlns="http://www.w3.org/2000/svg" xmlns:xlink="http://www.w3.org/1999/xlink" width="1017" height="608"><defs/><g transform="translate(244.33589743589744,-43.06666666666666) scale(2.81025641025641,2.81025641025641)"><path fill="none" stroke="rgb(55,71,79)" paint-order="fill stroke markers" d=" M 79 147 L 79 183" stroke-opacity="1" stroke-linejoin="round" stroke-miterlimit="10" stroke-width="2"/><path fill="none" stroke="rgb(55,71,79)" paint-order="fill stroke markers" d=" M 43.56188305140874 61.55774516548755 L 67.33017558334565 103.102323708705" stroke-opacity="1" stroke-linejoin="round" stroke-miterlimit="10" stroke-width="2"/><path fill="none" stroke="rgb(55,71,79)" paint-order="fill stroke markers" d=" M 117.33173076923077 56.5 L 90.66982441665435 103.102323708705" stroke-opacity="1" stroke-linejoin="round" stroke-miterlimit="10" stroke-width="2"/><path fill="rgb(69,90,100)" stroke="rgb(244,67,54)" paint-order="fill stroke markers" d=" M 76.12500000000001 35.5 L 76.125 55.5 L 171.12499999999997 55.5 L 171.125 35.5 Z" fill-opacity="1" stroke-opacity="1" stroke-miterlimit="10" stroke-width="2"/><text fill="rgb(255,255,255)" stroke="none" font-family="times new roman" font-size="10px" font-style="normal" font-weight="normal" text-decoration="normal" x="123.625" y="50.5" text-anchor="middle" dominant-baseline="text-after-edge" fill-opacity="1">42128242del</text><path fill="rgb(69,90,100)" stroke="rgb(69,90,100)" paint-order="fill stroke markers" d=" M 60.25000000000001 184 L 41.5 201.5 L 60.249999999999986 219 L 97.74999999999997 219 L 116.5 201.5 L 97.75000000000004 184.00000000000003 Z" fill-opacity="1" stroke-opacity="1" stroke-miterlimit="10" stroke-width="2"/><text fill="rgb(255,255,255)" stroke="none" font-family="times new roman" font-size="10px" font-style="normal" font-weight="normal" text-decoration="normal" x="79" y="206.5" text-anchor="middle" dominant-baseline="text-after-edge" fill-opacity="1">NA12753-A</text><path fill="rgb(69,90,100)" stroke="rgb(244,67,54)" paint-order="fill stroke markers" d=" M 101.5 123.5 L 101.43064000899538 125.2653296538765 L 101.2229876633906 127.0197754634052 L 100.87832320894772 128.75252068675786 L 100.39877161664096 130.45288237343632 L 99.78728948150395 132.11037722821453 L 99.04764679423828 133.71478624413982 L 98.18440369796707 135.25621770610886 L 97.20288237343632 136.72516817658064 L 96.10913422600069 138.11258108742913 L 94.90990257669732 139.4099025766973 L 93.61258108742913 140.6091342260007 L 92.22516817658064 141.70288237343632 L 90.75621770610886 142.68440369796707 L 89.2147862441398 143.5476467942383 L 87.61037722821452 144.28728948150396 L 85.95288237343632 144.89877161664094 L 84.25252068675788 145.37832320894773 L 82.5197754634052 145.7229876633906 L 80.7653296538765 145.93064000899537 L 79 146 L 77.2346703461235 145.93064000899537 L 75.4802245365948 145.7229876633906 L 73.74747931324212 145.37832320894773 L 72.04711762656369 144.89877161664094 L 70.38962277178548 144.28728948150396 L 68.7852137558602 143.5476467942383 L 67.24378229389116 142.68440369796707 L 65.77483182341936 141.70288237343632 L 64.38741891257087 140.6091342260007 L 63.09009742330268 139.40990257669733 L 61.89086577399931 138.11258108742913 L 60.79711762656369 136.72516817658064 L 59.81559630203293 135.25621770610886 L 58.952353205761725 133.71478624413982 L 58.21271051849605 132.11037722821453 L 57.60122838335904 130.45288237343632 L 57.12167679105228 128.75252068675786 L 56.7770123366094 127.0197754634052 L 56.56935999100462 125.26532965387652 L 56.5 123.5 L 56.56935999100462 121.7346703461235 L 56.7770123366094 119.9802245365948 L 57.12167679105227 118.24747931324214 L 57.60122838335904 116.54711762656369 L 58.212710518496046 114.88962277178548 L 58.952353205761725 113.2852137558602 L 59.81559630203292 111.74378229389116 L 60.797117626563676 110.27483182341936 L 61.8908657739993 108.88741891257087 L 63.09009742330268 107.59009742330268 L 64.38741891257087 106.39086577399931 L 65.77483182341935 105.29711762656369 L 67.24378229389116 104.31559630203293 L 68.78521375586021 103.45235320576171 L 70.3896227717855 102.71271051849604 L 72.04711762656372 102.10122838335903 L 73.74747931324217 101.62167679105227 L 75.48022453659486 101.27701233660939 L 77.23467034612355 101.06935999100462 L 79.00000000000007 101 L 80.76532965387659 101.06935999100463 L 82.5197754634053 101.27701233660942 L 84.25252068675798 101.6216767910523 L 85.95288237343642 102.10122838335909 L 87.61037722821463 102.7127105184961 L 89.21478624413993 103.45235320576178 L 90.75621770610897 104.315596302033 L 92.22516817658077 105.29711762656378 L 93.61258108742926 106.39086577399941 L 94.90990257669745 107.59009742330281 L 96.10913422600082 108.88741891257101 L 97.20288237343644 110.2748318234195 L 98.18440369796718 111.74378229389133 L 99.04764679423837 113.28521375586038 L 99.78728948150405 114.88962277178568 L 100.39877161664103 116.5471176265639 L 100.87832320894778 118.24747931324237 L 101.22298766339064 119.98022453659506 L 101.4306400089954 121.73467034612375 Z" fill-opacity="1" stroke-opacity="1" stroke-miterlimit="10" stroke-width="2"/><text fill="rgb(255,255,255)" stroke="none" font-family="times new roman" font-size="15px" font-style="normal" font-weight="normal" text-decoration="normal" x="79" y="131" text-anchor="middle" dominant-baseline="text-after-edge" fill-opacity="1">*3</text><path fill="rgb(3,169,244)" stroke="none" paint-order="stroke fill markers" d=" M 79 91 L 103.5 91 L 103.5 91 A 8 8 0 0 1 111.5 99 L 111.5 148 L 111.5 148 A 8 8 0 0 1 103.5 156 L 54.5 156 L 54.5 156 A 8 8 0 0 1 46.5 148 L 46.5 99 L 46.5 99 A 8 8 0 0 1 54.5 91 L 79 91 Z" fill-opacity="0.15"/><path fill="rgb(69,90,100)" stroke="rgb(244,67,54)" paint-order="fill stroke markers" d=" M 51.875 45.5 L 51.82105334032974 46.87303417523729 L 51.65954596041491 48.23760313820404 L 51.39147360695934 49.58529386747834 L 51.01848903516519 50.90779740156158 L 50.54289181894752 52.19696006638907 L 49.96761417329644 53.44483374544207 L 49.29620287619662 54.643724882529106 L 48.53279740156158 55.78624191511828 L 47.68210439800054 56.86534084577821 L 46.74936867076458 57.87436867076458 L 45.74034084577821 58.80710439800054 L 44.66124191511828 59.65779740156158 L 43.518724882529106 60.42120287619662 L 42.31983374544207 61.09261417329644 L 41.071960066389074 61.66789181894752 L 39.78279740156158 62.14348903516519 L 38.46029386747835 62.51647360695934 L 37.112603138204044 62.78454596041491 L 35.74803417523729 62.94605334032974 L 34.375 63 L 33.00196582476271 62.94605334032974 L 31.63739686179596 62.78454596041491 L 30.28970613252166 62.51647360695934 L 28.967202598438423 62.14348903516519 L 27.67803993361093 61.66789181894752 L 26.430166254557932 61.09261417329644 L 25.231275117470894 60.42120287619662 L 24.08875808488172 59.65779740156158 L 23.009659154221787 58.80710439800055 L 22.000631329235418 57.87436867076458 L 21.06789560199946 56.86534084577821 L 20.21720259843842 55.78624191511828 L 19.453797123803387 54.643724882529106 L 18.782385826703564 53.44483374544207 L 18.207108181052483 52.196960066389074 L 17.731510964834815 50.90779740156158 L 17.35852639304066 49.58529386747835 L 17.09045403958509 48.237603138204044 L 16.92894665967026 46.87303417523729 L 16.875 45.5 L 16.92894665967026 44.12696582476271 L 17.09045403958509 42.76239686179596 L 17.35852639304066 41.41470613252166 L 17.73151096483481 40.09220259843842 L 18.20710818105248 38.80303993361093 L 18.78238582670356 37.55516625455793 L 19.453797123803383 36.3562751174709 L 20.21720259843842 35.21375808488172 L 21.067895601999457 34.13465915422179 L 22.000631329235418 33.12563132923542 L 23.00965915422178 32.19289560199947 L 24.088758084881718 31.34220259843842 L 25.2312751174709 30.578797123803383 L 26.430166254557943 29.907385826703557 L 27.678039933610947 29.332108181052476 L 28.967202598438448 28.856510964834804 L 30.28970613252169 28.483526393040652 L 31.637396861796002 28.215454039585083 L 33.00196582476276 28.053946659670256 L 34.37500000000006 28 L 35.74803417523735 28.053946659670267 L 37.112603138204115 28.2154540395851 L 38.46029386747843 28.483526393040677 L 39.782797401561666 28.85651096483484 L 41.07196006638916 29.33210818105252 L 42.31983374544216 29.90738582670361 L 43.5187248825292 30.578797123803447 L 44.66124191511838 31.34220259843849 L 45.74034084577831 32.19289560199954 L 46.74936867076468 33.12563132923552 L 47.68210439800063 34.13465915422189 L 48.532797401561666 35.213758084881846 L 49.296202876196695 36.35627511747103 L 49.96761417329651 37.55516625455808 L 50.54289181894758 38.80303993361109 L 51.018489035165246 40.09220259843859 L 51.39147360695938 41.41470613252184 L 51.659545960414945 42.762396861796155 L 51.821053340329755 44.12696582476292 Z" fill-opacity="1" stroke-opacity="1" stroke-miterlimit="10" stroke-width="2"/><text fill="rgb(255,255,255)" stroke="none" font-family="times new roman" font-size="10px" font-style="normal" font-weight="normal" text-decoration="normal" x="34.375" y="50.5" text-anchor="middle" dominant-baseline="text-after-edge" fill-opacity="1">*3.1</text><g transform="scale(0.3558394160583942,0.3558394160583942) translate(-244.33589743589744,43.06666666666666)"/></g></svg>