<svg version="1.1" xmlns="http://www.w3.org/2000/svg" xmlns:xlink="http://www.w3.org/1999/xlink" width="1017" height="608"><defs/><g transform="translate(-117.98420639591916,5.590739650774935) scale(1.0013733568765941,1.0013733568765941)"><path fill="none" stroke="rgb(55,71,79)" paint-order="fill stroke markers" d=" M 288.03125 177.375 L 288.03125 219.625" stroke-opacity="1" stroke-linejoin="round" stroke-miterlimit="10" stroke-width="2"/><path fill="none" stroke="rgb(120,144,156)" paint-order="fill stroke markers" d=" M 732.3751411794522 255.91320908488 L 845.3309638265519 358.368113546194" stroke-opacity="1" stroke-linejoin="round" stroke-miterlimit="10"/><path fill="rgb(120,144,156)" stroke="none" paint-order="stroke fill markers" d=" M 837.4457923192516 357.0888284722332 L 846.8123588205478 359.71179091512 L 843.2907888740795 350.6447602483509 Z" fill-opacity="1"/><path fill="none" stroke="rgb(55,71,79)" paint-order="fill stroke markers" d=" M 772.9448454834726 106.68856903160199 L 795.7727638453185 144.28749339228938" stroke-opacity="1" stroke-linejoin="round" stroke-miterlimit="10" stroke-width="2"/><path fill="none" stroke="rgb(120,144,156)" paint-order="fill stroke markers" d=" M 257.9899504703995 385.85024781751963 L 413.38295431884615 490.7405254152211" stroke-opacity="1" stroke-linejoin="round" stroke-miterlimit="10"/><path fill="rgb(120,144,156)" stroke="none" paint-order="stroke fill markers" d=" M 405.39596128328463 490.5975490189431 L 415.0406516669974 491.85947112522325 L 410.2633751217939 483.38656555448495 Z" fill-opacity="1"/><path fill="none" stroke="rgb(120,144,156)" paint-order="fill stroke markers" d=" M 200.9682306094183 251.125 L 236.14128412470706 356.06278776048975" stroke-opacity="1" stroke-linejoin="round" stroke-miterlimit="10"/><path fill="rgb(120,144,156)" stroke="none" paint-order="stroke fill markers" d=" M 229.88752097317868 351.09258188501684 L 236.77689055156492 357.95910114971025 L 238.13648421628793 348.32769392818517 Z" fill-opacity="1"/><path fill="none" stroke="rgb(120,144,156)" paint-order="fill stroke markers" d=" M 370.90625 422.84712230215825 L 421.7620792611782 487.0571801103365" stroke-opacity="1" stroke-linejoin="round" stroke-miterlimit="10"/><path fill="rgb(120,144,156)" stroke="none" paint-order="stroke fill markers" d=" M 414.19221156171966 484.50578774288414 L 423.00382834757835 488.625 L 421.01222808175584 479.10417921704357 Z" fill-opacity="1"/><path fill="none" stroke="rgb(120,144,156)" paint-order="fill stroke markers" d=" M 437.65625 396 L 437.65625 486.625" stroke-opacity="1" stroke-linejoin="round" stroke-miterlimit="10"/><path fill="rgb(120,144,156)" stroke="none" paint-order="stroke fill markers" d=" M 433.30625 479.925 L 437.65625 488.625 L 442.00625 479.925 Z" fill-opacity="1"/><path fill="none" stroke="rgb(120,144,156)" paint-order="fill stroke markers" d=" M 385.7909452908587 253.125 L 428.87624758547804 354.78378515266394" stroke-opacity="1" stroke-linejoin="round" stroke-miterlimit="10"/><path fill="rgb(120,144,156)" stroke="none" paint-order="stroke fill markers" d=" M 422.25662310711317 350.3124238649314 L 429.65669224454666 356.62522647242713 L 430.26689284808316 346.9174895979829 Z" fill-opacity="1"/><path fill="none" stroke="rgb(55,71,79)" paint-order="fill stroke markers" d=" M 974.0019132653061 103.875 L 998.4141773259075 142.77584354372266" stroke-opacity="1" stroke-linejoin="round" stroke-miterlimit="10" stroke-width="2"/><path fill="none" stroke="rgb(120,144,156)" paint-order="fill stroke markers" d=" M 994.641977277197 256.000545565817 L 883.0201416779352 358.27334417326244" stroke-opacity="1" stroke-linejoin="round" stroke-miterlimit="10"/><path fill="rgb(120,144,156)" stroke="none" paint-order="stroke fill markers" d=" M 885.0214503601256 350.53982857176595 L 881.545522722803 359.624454434183 L 890.8987799951302 356.9544210265909 Z" fill-opacity="1"/><path fill="none" stroke="rgb(120,144,156)" paint-order="fill stroke markers" d=" M 533.28125 433.3571428571429 L 460.5966361003324 489.42813072260077" stroke-opacity="1" stroke-linejoin="round" stroke-miterlimit="10"/><path fill="rgb(120,144,156)" stroke="none" paint-order="stroke fill markers" d=" M 463.2445821864382 481.8914947671444 L 459.0130715892054 490.6497376311844 L 468.55857223877706 488.78000039054666 Z" fill-opacity="1"/><path fill="none" stroke="rgb(120,144,156)" paint-order="fill stroke markers" d=" M 829.9989991185411 172.5553498565171 L 988.0635860628597 231.24845015569423" stroke-opacity="1" stroke-linejoin="round" stroke-miterlimit="10"/><path fill="rgb(120,144,156)" stroke="none" paint-order="stroke fill markers" d=" M 980.2683864471119 232.99411992705546 L 989.9385008814589 231.9446501434829 L 983.2968563939926 224.83824046614876 Z" fill-opacity="1"/><path fill="none" stroke="rgb(120,144,156)" paint-order="fill stroke markers" d=" M 281.51628412470706 259.5622122395103 L 249.17121587529294 356.06278776048975" stroke-opacity="1" stroke-linejoin="round" stroke-miterlimit="10"/><path fill="rgb(120,144,156)" stroke="none" paint-order="stroke fill markers" d=" M 247.17601578371207 348.32769392818517 L 248.53560944843508 357.95910114971025 L 255.42497902682132 351.09258188501684 Z" fill-opacity="1"/><path fill="none" stroke="rgb(55,71,79)" paint-order="fill stroke markers" d=" M 1047.1969366737687 108.23902773936021 L 1025.5233226740925 142.77584354372266" stroke-opacity="1" stroke-linejoin="round" stroke-miterlimit="10" stroke-width="2"/><path fill="none" stroke="rgb(120,144,156)" paint-order="fill stroke markers" d=" M 841.7634993223315 382.4290487805377 L 468.7101338547279 497.54265869625533" stroke-opacity="1" stroke-linejoin="round" stroke-miterlimit="10"/><path fill="rgb(120,144,156)" stroke="none" paint-order="stroke fill markers" d=" M 473.82965799707006 491.4105324291294 L 466.79904869067104 498.13236497545006 L 476.39488031156696 499.7237528927769 Z" fill-opacity="1"/><path fill="none" stroke="rgb(120,144,156)" paint-order="fill stroke markers" d=" M 1011.96875 189.875 L 1011.96875 214.625" stroke-opacity="1" stroke-linejoin="round" stroke-miterlimit="10"/><path fill="rgb(120,144,156)" stroke="none" paint-order="stroke fill markers" d=" M 1007.61875 207.925 L 1011.96875 216.625 L 1016.31875 207.925 Z" fill-opacity="1"/><path fill="none" stroke="rgb(55,71,79)" paint-order="fill stroke markers" d=" M 714.96875 175.375 L 714.96875 216.625" stroke-opacity="1" stroke-linejoin="round" stroke-miterlimit="10" stroke-width="2"/><path fill="none" stroke="rgb(55,71,79)" paint-order="fill stroke markers" d=" M 1071.2233961846257 177.78417432659165 L 1028.1587940357456 223.09172450405924" stroke-opacity="1" stroke-linejoin="round" stroke-miterlimit="10" stroke-width="2"/><path fill="none" stroke="rgb(120,144,156)" paint-order="fill stroke markers" d=" M 608.28125 251.125 L 608.28125 268.5" stroke-opacity="1" stroke-linejoin="round" stroke-miterlimit="10"/><path fill="rgb(120,144,156)" stroke="none" paint-order="stroke fill markers" d=" M 603.93125 261.8 L 608.28125 270.5 L 612.63125 261.8 Z" fill-opacity="1"/><path fill="none" stroke="rgb(55,71,79)" paint-order="fill stroke markers" d=" M 845.9151785714286 101.875 L 820.1647361546815 144.28749339228938" stroke-opacity="1" stroke-linejoin="round" stroke-miterlimit="10" stroke-width="2"/><path fill="none" stroke="rgb(120,144,156)" paint-order="fill stroke markers" d=" M 489.5215547091413 253.125 L 446.43625241452196 354.78378515266394" stroke-opacity="1" stroke-linejoin="round" stroke-miterlimit="10"/><path fill="rgb(120,144,156)" stroke="none" paint-order="stroke fill markers" d=" M 445.04560715191684 346.9174895979829 L 445.65580775545334 356.62522647242713 L 453.05587689288683 350.3124238649314 Z" fill-opacity="1"/><path fill="rgb(69,90,100)" stroke="rgb(76,175,80)" paint-order="fill stroke markers" d=" M 780.84375 90.875 L 780.7898033403297 92.24803417523728 L 780.6282959604149 93.61260313820404 L 780.3602236069594 94.96029386747834 L 779.9872390351652 96.28279740156158 L 779.5116418189475 97.57196006638907 L 778.9363641732964 98.81983374544207 L 778.2649528761966 100.0187248825291 L 777.5015474015615 101.16124191511828 L 776.6508543980005 102.2403408457782 L 775.7181186707646 103.24936867076458 L 774.7090908457782 104.18210439800055 L 773.6299919151182 105.03279740156158 L 772.4874748825291 105.79620287619662 L 771.2885837454421 106.46761417329644 L 770.0407100663891 107.04289181894751 L 768.7515474015615 107.51848903516519 L 767.4290438674783 107.89147360695934 L 766.081353138204 108.1595459604149 L 764.7167841752373 108.32105334032974 L 763.34375 108.375 L 761.9707158247627 108.32105334032974 L 760.606146861796 108.1595459604149 L 759.2584561325217 107.89147360695934 L 757.9359525984385 107.51848903516519 L 756.6467899336109 107.04289181894751 L 755.3989162545579 106.46761417329644 L 754.2000251174709 105.79620287619662 L 753.0575080848818 105.03279740156158 L 751.9784091542218 104.18210439800055 L 750.9693813292354 103.24936867076458 L 750.0366456019995 102.24034084577822 L 749.1859525984385 101.16124191511828 L 748.4225471238034 100.01872488252911 L 747.7511358267036 98.81983374544207 L 747.1758581810525 97.57196006638907 L 746.7002609648348 96.28279740156158 L 746.3272763930406 94.96029386747834 L 746.0592040395851 93.61260313820404 L 745.8976966596703 92.2480341752373 L 745.84375 90.875 L 745.8976966596703 89.50196582476272 L 746.0592040395851 88.13739686179596 L 746.3272763930406 86.78970613252166 L 746.7002609648348 85.46720259843842 L 747.1758581810525 84.17803993361093 L 747.7511358267036 82.93016625455793 L 748.4225471238034 81.7312751174709 L 749.1859525984385 80.58875808488172 L 750.0366456019995 79.5096591542218 L 750.9693813292354 78.50063132923542 L 751.9784091542218 77.56789560199947 L 753.0575080848818 76.71720259843842 L 754.2000251174709 75.95379712380338 L 755.3989162545579 75.28238582670356 L 756.646789933611 74.70710818105248 L 757.9359525984385 74.2315109648348 L 759.2584561325217 73.85852639304065 L 760.606146861796 73.59045403958508 L 761.9707158247628 73.42894665967026 L 763.3437500000001 73.375 L 764.7167841752373 73.42894665967026 L 766.0813531382041 73.5904540395851 L 767.4290438674784 73.85852639304068 L 768.7515474015617 74.23151096483484 L 770.0407100663891 74.70710818105252 L 771.2885837454421 75.2823858267036 L 772.4874748825292 75.95379712380344 L 773.6299919151184 76.71720259843849 L 774.7090908457783 77.56789560199954 L 775.7181186707646 78.50063132923552 L 776.6508543980007 79.5096591542219 L 777.5015474015617 80.58875808488185 L 778.2649528761967 81.73127511747103 L 778.9363641732965 82.93016625455807 L 779.5116418189476 84.17803993361109 L 779.9872390351652 85.46720259843859 L 780.3602236069594 86.78970613252184 L 780.6282959604149 88.13739686179616 L 780.7898033403297 89.50196582476292 Z" fill-opacity="1" stroke-opacity="1" stroke-miterlimit="10" stroke-width="2"/><text fill="rgb(255,255,255)" stroke="none" font-family="times new roman" font-size="10px" font-style="normal" font-weight="normal" text-decoration="normal" x="763.34375" y="95.875" text-anchor="middle" dominant-baseline="text-after-edge" fill-opacity="1">*34.1</text><path fill="rgb(69,90,100)" stroke="rgb(76,175,80)" paint-order="fill stroke markers" d=" M 332.78125 230.125 L 332.78125 250.125 L 427.78125 250.125 L 427.78125 230.125 Z" fill-opacity="1" stroke-opacity="1" stroke-miterlimit="10" stroke-width="6"/><text fill="rgb(255,255,255)" stroke="none" font-family="times new roman" font-size="10px" font-style="normal" font-weight="normal" text-decoration="normal" x="380.28125" y="245.125" text-anchor="middle" dominant-baseline="text-after-edge" fill-opacity="1">42129950A&gt;C</text><path fill="rgb(69,90,100)" stroke="rgb(76,175,80)" paint-order="fill stroke markers" d=" M 608.28125 230.125 L 650.78125 230.125 L 650.78125 230.125 A 5 5 0 0 1 655.78125 235.125 L 655.78125 245.125 L 655.78125 245.125 A 5 5 0 0 1 650.78125 250.125 L 565.78125 250.125 L 565.78125 250.125 A 5 5 0 0 1 560.78125 245.125 L 560.78125 235.125 L 560.78125 235.125 A 5 5 0 0 1 565.78125 230.125 L 608.28125 230.125 Z" fill-opacity="1" stroke-opacity="1" stroke-miterlimit="10" stroke-width="2"/><text fill="rgb(255,255,255)" stroke="none" font-family="times new roman" font-size="10px" font-style="normal" font-weight="normal" text-decoration="normal" x="608.28125" y="245.125" text-anchor="middle" dominant-baseline="text-after-edge" fill-opacity="1">42132049dup</text><path fill="rgb(69,90,100)" stroke="rgb(76,175,80)" paint-order="fill stroke markers" d=" M 1034.46875 240.125 L 1034.3993900089954 241.8903296538765 L 1034.1917376633905 243.64477546340518 L 1033.8470732089477 245.37752068675786 L 1033.367521616641 247.07788237343632 L 1032.7560394815039 248.73537722821453 L 1032.0163967942383 250.33978624413982 L 1031.1531536979671 251.88121770610886 L 1030.1716323734363 253.35016817658064 L 1029.0778842260006 254.73758108742913 L 1027.8786525766973 256.03490257669733 L 1026.5813310874291 257.2341342260007 L 1025.1939181765806 258.3278823734363 L 1023.7249677061088 259.30940369796707 L 1022.1835362441398 260.1726467942383 L 1020.5791272282145 260.91228948150393 L 1018.9216323734363 261.52377161664094 L 1017.2212706867579 262.00332320894773 L 1015.4885254634052 262.3479876633906 L 1013.7340796538765 262.5556400089954 L 1011.96875 262.625 L 1010.2034203461235 262.5556400089954 L 1008.4489745365948 262.3479876633906 L 1006.7162293132421 262.00332320894773 L 1005.0158676265637 261.52377161664094 L 1003.3583727717855 260.91228948150393 L 1001.7539637558602 260.1726467942383 L 1000.2125322938912 259.30940369796707 L 998.7435818234194 258.3278823734363 L 997.3561689125709 257.2341342260007 L 996.0588474233027 256.03490257669733 L 994.8596157739993 254.73758108742913 L 993.7658676265637 253.35016817658064 L 992.7843463020329 251.88121770610886 L 991.9211032057617 250.33978624413982 L 991.181460518496 248.73537722821453 L 990.5699783833591 247.07788237343632 L 990.0904267910523 245.37752068675786 L 989.7457623366095 243.6447754634052 L 989.5381099910046 241.8903296538765 L 989.46875 240.125 L 989.5381099910046 238.3596703461235 L 989.7457623366093 236.60522453659482 L 990.0904267910523 234.87247931324214 L 990.5699783833591 233.17211762656368 L 991.181460518496 231.51462277178547 L 991.9211032057617 229.9102137558602 L 992.7843463020329 228.36878229389114 L 993.7658676265637 226.89983182341936 L 994.8596157739993 225.51241891257087 L 996.0588474233027 224.2150974233027 L 997.3561689125709 223.0158657739993 L 998.7435818234194 221.92211762656368 L 1000.2125322938912 220.94059630203293 L 1001.7539637558602 220.0773532057617 L 1003.3583727717855 219.33771051849604 L 1005.0158676265637 218.72622838335903 L 1006.7162293132421 218.24667679105227 L 1008.4489745365948 217.9020123366094 L 1010.2034203461236 217.6943599910046 L 1011.9687500000001 217.625 L 1013.7340796538766 217.69435999100463 L 1015.4885254634053 217.9020123366094 L 1017.221270686758 218.2466767910523 L 1018.9216323734364 218.72622838335909 L 1020.5791272282146 219.3377105184961 L 1022.1835362441399 220.0773532057618 L 1023.7249677061089 220.940596302033 L 1025.1939181765808 221.92211762656376 L 1026.5813310874294 223.01586577399942 L 1027.8786525766975 224.2150974233028 L 1029.0778842260008 225.512418912571 L 1030.1716323734365 226.8998318234195 L 1031.1531536979671 228.36878229389131 L 1032.0163967942383 229.91021375586038 L 1032.756039481504 231.5146227717857 L 1033.367521616641 233.1721176265639 L 1033.8470732089477 234.87247931324237 L 1034.1917376633905 236.60522453659505 L 1034.3993900089954 238.35967034612375 Z" fill-opacity="1" stroke-opacity="1" stroke-miterlimit="10" stroke-width="2"/><text fill="rgb(255,255,255)" stroke="none" font-family="times new roman" font-size="15px" font-style="normal" font-weight="normal" text-decoration="normal" x="1011.96875" y="247.625" text-anchor="middle" dominant-baseline="text-after-edge" fill-opacity="1">*2</text><path fill="rgb(69,90,100)" stroke="rgb(255,193,7)" paint-order="fill stroke markers" d=" M 737.46875 240.125 L 737.3993900089954 241.8903296538765 L 737.1917376633907 243.64477546340518 L 736.8470732089477 245.37752068675786 L 736.3675216166409 247.07788237343632 L 735.756039481504 248.73537722821453 L 735.0163967942383 250.33978624413982 L 734.1531536979671 251.88121770610886 L 733.1716323734363 253.35016817658064 L 732.0778842260007 254.73758108742913 L 730.8786525766973 256.03490257669733 L 729.5813310874291 257.2341342260007 L 728.1939181765806 258.3278823734363 L 726.7249677061088 259.30940369796707 L 725.1835362441398 260.1726467942383 L 723.5791272282145 260.91228948150393 L 721.9216323734363 261.52377161664094 L 720.2212706867579 262.00332320894773 L 718.4885254634052 262.3479876633906 L 716.7340796538765 262.5556400089954 L 714.96875 262.625 L 713.2034203461235 262.5556400089954 L 711.4489745365948 262.3479876633906 L 709.7162293132421 262.00332320894773 L 708.0158676265637 261.52377161664094 L 706.3583727717855 260.91228948150393 L 704.7539637558602 260.1726467942383 L 703.2125322938912 259.30940369796707 L 701.7435818234194 258.3278823734363 L 700.3561689125709 257.2341342260007 L 699.0588474233027 256.03490257669733 L 697.8596157739993 254.73758108742913 L 696.7658676265637 253.35016817658064 L 695.7843463020329 251.88121770610886 L 694.9211032057617 250.33978624413982 L 694.181460518496 248.73537722821453 L 693.5699783833591 247.07788237343632 L 693.0904267910523 245.37752068675786 L 692.7457623366095 243.6447754634052 L 692.5381099910046 241.8903296538765 L 692.46875 240.125 L 692.5381099910046 238.3596703461235 L 692.7457623366093 236.60522453659482 L 693.0904267910523 234.87247931324214 L 693.5699783833591 233.17211762656368 L 694.181460518496 231.51462277178547 L 694.9211032057617 229.9102137558602 L 695.7843463020329 228.36878229389114 L 696.7658676265637 226.89983182341936 L 697.8596157739993 225.51241891257087 L 699.0588474233027 224.2150974233027 L 700.3561689125709 223.0158657739993 L 701.7435818234194 221.92211762656368 L 703.2125322938912 220.94059630203293 L 704.7539637558602 220.0773532057617 L 706.3583727717855 219.33771051849604 L 708.0158676265637 218.72622838335903 L 709.7162293132421 218.24667679105227 L 711.4489745365948 217.9020123366094 L 713.2034203461236 217.6943599910046 L 714.9687500000001 217.625 L 716.7340796538766 217.69435999100463 L 718.4885254634053 217.9020123366094 L 720.221270686758 218.2466767910523 L 721.9216323734364 218.72622838335909 L 723.5791272282146 219.3377105184961 L 725.1835362441399 220.0773532057618 L 726.7249677061089 220.940596302033 L 728.1939181765807 221.92211762656376 L 729.5813310874292 223.01586577399942 L 730.8786525766974 224.2150974233028 L 732.0778842260008 225.512418912571 L 733.1716323734364 226.8998318234195 L 734.1531536979671 228.36878229389131 L 735.0163967942384 229.91021375586038 L 735.756039481504 231.5146227717857 L 736.367521616641 233.1721176265639 L 736.8470732089478 234.87247931324237 L 737.1917376633907 236.60522453659505 L 737.3993900089954 238.35967034612375 Z" fill-opacity="1" stroke-opacity="1" stroke-miterlimit="10" stroke-width="2"/><text fill="rgb(255,255,255)" stroke="none" font-family="times new roman" font-size="15px" font-style="normal" font-weight="normal" text-decoration="normal" x="714.96875" y="247.625" text-anchor="middle" dominant-baseline="text-after-edge" fill-opacity="1">*119</text><path fill="rgb(69,90,100)" stroke="rgb(255,193,7)" paint-order="fill stroke markers" d=" M 886.71875 375.5 L 886.6493900089954 377.2653296538765 L 886.4417376633907 379.0197754634052 L 886.0970732089477 380.75252068675786 L 885.6175216166409 382.4528823734363 L 885.006039481504 384.11037722821453 L 884.2663967942383 385.7147862441398 L 883.4031536979671 387.2562177061088 L 882.4216323734363 388.72516817658067 L 881.3278842260007 390.11258108742913 L 880.1286525766973 391.40990257669733 L 878.8313310874291 392.6091342260007 L 877.4439181765806 393.7028823734363 L 875.9749677061088 394.68440369796707 L 874.4335362441398 395.5476467942383 L 872.8291272282145 396.28728948150393 L 871.1716323734363 396.89877161664094 L 869.4712706867579 397.37832320894773 L 867.7385254634052 397.7229876633906 L 865.9840796538765 397.9306400089954 L 864.21875 398 L 862.4534203461235 397.9306400089954 L 860.6989745365948 397.7229876633906 L 858.9662293132421 397.37832320894773 L 857.2658676265637 396.89877161664094 L 855.6083727717855 396.28728948150393 L 854.0039637558602 395.5476467942383 L 852.4625322938912 394.68440369796707 L 850.9935818234194 393.7028823734363 L 849.6061689125709 392.6091342260007 L 848.3088474233027 391.40990257669733 L 847.1096157739993 390.11258108742913 L 846.0158676265637 388.72516817658067 L 845.0343463020329 387.2562177061088 L 844.1711032057617 385.7147862441398 L 843.431460518496 384.11037722821453 L 842.8199783833591 382.4528823734363 L 842.3404267910523 380.75252068675786 L 841.9957623366095 379.0197754634052 L 841.7881099910046 377.2653296538765 L 841.71875 375.5 L 841.7881099910046 373.7346703461235 L 841.9957623366093 371.9802245365948 L 842.3404267910523 370.24747931324214 L 842.8199783833591 368.5471176265637 L 843.431460518496 366.88962277178547 L 844.1711032057617 365.2852137558602 L 845.0343463020329 363.7437822938912 L 846.0158676265637 362.27483182341933 L 847.1096157739993 360.88741891257087 L 848.3088474233027 359.59009742330267 L 849.6061689125709 358.39086577399934 L 850.9935818234194 357.2971176265637 L 852.4625322938912 356.31559630203293 L 854.0039637558602 355.4523532057617 L 855.6083727717855 354.712710518496 L 857.2658676265637 354.10122838335906 L 858.9662293132421 353.62167679105227 L 860.6989745365948 353.2770123366094 L 862.4534203461236 353.0693599910046 L 864.2187500000001 353 L 865.9840796538766 353.0693599910046 L 867.7385254634053 353.2770123366094 L 869.471270686758 353.6216767910523 L 871.1716323734364 354.10122838335906 L 872.8291272282146 354.7127105184961 L 874.4335362441399 355.45235320576177 L 875.9749677061089 356.315596302033 L 877.4439181765807 357.29711762656376 L 878.8313310874292 358.3908657739994 L 880.1286525766974 359.5900974233028 L 881.3278842260008 360.887418912571 L 882.4216323734364 362.2748318234195 L 883.4031536979671 363.74378229389134 L 884.2663967942384 365.2852137558604 L 885.006039481504 366.8896227717857 L 885.617521616641 368.54711762656393 L 886.0970732089478 370.24747931324237 L 886.4417376633907 371.9802245365951 L 886.6493900089954 373.7346703461238 Z" fill-opacity="1" stroke-opacity="1" stroke-miterlimit="10" stroke-width="2"/><text fill="rgb(255,255,255)" stroke="none" font-family="times new roman" font-size="15px" font-style="normal" font-weight="normal" text-decoration="normal" x="864.21875" y="383" text-anchor="middle" dominant-baseline="text-after-edge" fill-opacity="1">*41</text><path fill="rgb(3,169,244)" stroke="none" paint-order="stroke fill markers" d=" M 864.21875 343 L 888.71875 343 L 888.71875 343 A 8 8 0 0 1 896.71875 351 L 896.71875 400 L 896.71875 400 A 8 8 0 0 1 888.71875 408 L 839.71875 408 L 839.71875 408 A 8 8 0 0 1 831.71875 400 L 831.71875 351 L 831.71875 351 A 8 8 0 0 1 839.71875 343 L 864.21875 343 Z" fill-opacity="0.15"/><path fill="rgb(69,90,100)" stroke="rgb(76,175,80)" paint-order="fill stroke markers" d=" M 1101.46875 164.375 L 1101.4148033403299 165.74803417523728 L 1101.253295960415 167.11260313820404 L 1100.9852236069594 168.46029386747836 L 1100.6122390351652 169.78279740156157 L 1100.1366418189475 171.07196006638907 L 1099.5613641732964 172.31983374544205 L 1098.8899528761965 173.5187248825291 L 1098.1265474015615 174.66124191511827 L 1097.2758543980005 175.7403408457782 L 1096.3431186707646 176.74936867076457 L 1095.3340908457783 177.68210439800055 L 1094.2549919151184 178.5327974015616 L 1093.112474882529 179.29620287619662 L 1091.913583745442 179.96761417329643 L 1090.665710066389 180.5428918189475 L 1089.3765474015615 181.01848903516517 L 1088.0540438674784 181.39147360695935 L 1086.7063531382041 181.6595459604149 L 1085.3417841752373 181.82105334032974 L 1083.96875 181.875 L 1082.5957158247627 181.82105334032974 L 1081.2311468617959 181.6595459604149 L 1079.8834561325216 181.39147360695935 L 1078.5609525984385 181.0184890351652 L 1077.271789933611 180.5428918189475 L 1076.023916254558 179.96761417329643 L 1074.825025117471 179.29620287619662 L 1073.6825080848816 178.5327974015616 L 1072.6034091542217 177.68210439800055 L 1071.5943813292354 176.74936867076457 L 1070.6616456019995 175.7403408457782 L 1069.8109525984385 174.6612419151183 L 1069.0475471238035 173.5187248825291 L 1068.3761358267036 172.31983374544208 L 1067.8008581810525 171.07196006638907 L 1067.3252609648348 169.7827974015616 L 1066.9522763930406 168.46029386747836 L 1066.684204039585 167.11260313820404 L 1066.5226966596701 165.74803417523728 L 1066.46875 164.375 L 1066.5226966596701 163.00196582476272 L 1066.684204039585 161.63739686179596 L 1066.9522763930406 160.28970613252164 L 1067.3252609648348 158.96720259843843 L 1067.8008581810525 157.67803993361093 L 1068.3761358267036 156.43016625455795 L 1069.0475471238035 155.2312751174709 L 1069.8109525984385 154.08875808488173 L 1070.6616456019995 153.0096591542218 L 1071.5943813292354 152.00063132923543 L 1072.6034091542217 151.06789560199945 L 1073.6825080848816 150.21720259843843 L 1074.825025117471 149.45379712380338 L 1076.023916254558 148.78238582670355 L 1077.271789933611 148.2071081810525 L 1078.5609525984385 147.7315109648348 L 1079.8834561325216 147.35852639304065 L 1081.231146861796 147.0904540395851 L 1082.5957158247627 146.92894665967026 L 1083.96875 146.875 L 1085.3417841752373 146.92894665967026 L 1086.7063531382041 147.0904540395851 L 1088.0540438674784 147.35852639304068 L 1089.3765474015618 147.73151096483485 L 1090.6657100663892 148.20710818105252 L 1091.913583745442 148.7823858267036 L 1093.112474882529 149.45379712380344 L 1094.2549919151184 150.2172025984385 L 1095.3340908457783 151.06789560199954 L 1096.3431186707646 152.00063132923552 L 1097.2758543980005 153.0096591542219 L 1098.1265474015618 154.08875808488185 L 1098.8899528761967 155.23127511747103 L 1099.5613641732966 156.4301662545581 L 1100.1366418189475 157.6780399336111 L 1100.6122390351652 158.9672025984386 L 1100.9852236069594 160.28970613252184 L 1101.253295960415 161.63739686179616 L 1101.4148033403299 163.00196582476292 Z" fill-opacity="1" stroke-opacity="1" stroke-miterlimit="10" stroke-width="2"/><text fill="rgb(255,255,255)" stroke="none" font-family="times new roman" font-size="10px" font-style="normal" font-weight="normal" text-decoration="normal" x="1083.96875" y="169.375" text-anchor="middle" dominant-baseline="text-after-edge" fill-opacity="1">*2.4</text><path fill="rgb(69,90,100)" stroke="rgb(158,158,158)" paint-order="fill stroke markers" d=" M 805.09375 80.875 L 805.09375 100.875 L 900.09375 100.875 L 900.09375 80.875 Z" fill-opacity="1" stroke-opacity="1" stroke-miterlimit="10" stroke-width="2"/><text fill="rgb(255,255,255)" stroke="none" font-family="times new roman" font-size="10px" font-style="normal" font-weight="normal" text-decoration="normal" x="852.59375" y="95.875" text-anchor="middle" dominant-baseline="text-after-edge" fill-opacity="1">42127941G&gt;A</text><path fill="rgb(69,90,100)" stroke="rgb(76,175,80)" paint-order="fill stroke markers" d=" M 305.53125 240.125 L 305.47730334032974 241.49803417523728 L 305.3157959604149 242.86260313820404 L 305.0477236069593 244.21029386747836 L 304.6747390351652 245.53279740156157 L 304.1991418189475 246.82196006638907 L 303.62386417329645 248.06983374544205 L 302.9524528761966 249.2687248825291 L 302.1890474015616 250.41124191511827 L 301.33835439800055 251.4903408457782 L 300.40561867076457 252.49936867076457 L 299.39659084577823 253.43210439800055 L 298.3174919151183 254.2827974015616 L 297.1749748825291 255.04620287619662 L 295.97608374544205 255.71761417329643 L 294.72821006638907 256.2928918189475 L 293.4390474015616 256.7684890351652 L 292.11654386747836 257.1414736069593 L 290.76885313820407 257.4095459604149 L 289.4042841752373 257.57105334032974 L 288.03125 257.625 L 286.6582158247627 257.57105334032974 L 285.29364686179593 257.4095459604149 L 283.94595613252164 257.1414736069593 L 282.6234525984384 256.7684890351652 L 281.33428993361093 256.2928918189475 L 280.08641625455795 255.71761417329643 L 278.8875251174709 255.04620287619662 L 277.7450080848817 254.2827974015616 L 276.66590915422177 253.43210439800055 L 275.65688132923543 252.49936867076457 L 274.72414560199945 251.4903408457782 L 273.8734525984384 250.4112419151183 L 273.1100471238034 249.2687248825291 L 272.43863582670355 248.06983374544208 L 271.8633581810525 246.82196006638907 L 271.3877609648348 245.5327974015616 L 271.0147763930407 244.21029386747836 L 270.7467040395851 242.86260313820404 L 270.58519665967026 241.49803417523728 L 270.53125 240.125 L 270.58519665967026 238.75196582476272 L 270.7467040395851 237.38739686179596 L 271.0147763930407 236.03970613252164 L 271.3877609648348 234.71720259843843 L 271.8633581810525 233.42803993361093 L 272.43863582670355 232.18016625455795 L 273.1100471238034 230.9812751174709 L 273.8734525984384 229.83875808488173 L 274.72414560199945 228.7596591542218 L 275.65688132923543 227.75063132923543 L 276.66590915422177 226.81789560199945 L 277.7450080848817 225.96720259843843 L 278.8875251174709 225.20379712380338 L 280.08641625455795 224.53238582670355 L 281.33428993361093 223.9571081810525 L 282.62345259843846 223.4815109648348 L 283.9459561325217 223.10852639304065 L 285.293646861796 222.8404540395851 L 286.65821582476275 222.67894665967026 L 288.03125000000006 222.625 L 289.40428417523736 222.67894665967026 L 290.7688531382041 222.8404540395851 L 292.1165438674784 223.10852639304068 L 293.43904740156165 223.48151096483485 L 294.7282100663892 223.95710818105252 L 295.97608374544217 224.5323858267036 L 297.1749748825292 225.20379712380344 L 298.31749191511835 225.9672025984385 L 299.3965908457783 226.81789560199954 L 300.4056186707647 227.75063132923552 L 301.33835439800066 228.7596591542219 L 302.18904740156165 229.83875808488185 L 302.9524528761967 230.98127511747103 L 303.6238641732965 232.1801662545581 L 304.19914181894757 233.4280399336111 L 304.67473903516526 234.7172025984386 L 305.0477236069594 236.03970613252184 L 305.31579596041496 237.38739686179616 L 305.47730334032974 238.75196582476292 Z" fill-opacity="1" stroke-opacity="1" stroke-miterlimit="10" stroke-width="6"/><text fill="rgb(255,255,255)" stroke="none" font-family="times new roman" font-size="10px" font-style="normal" font-weight="normal" text-decoration="normal" x="288.03125" y="245.125" text-anchor="middle" dominant-baseline="text-after-edge" fill-opacity="1">*1.41</text><path fill="rgb(69,90,100)" stroke="rgb(244,67,54)" paint-order="fill stroke markers" d=" M 667.46875 154.375 L 667.46875 174.375 L 762.46875 174.375 L 762.46875 154.375 Z" fill-opacity="1" stroke-opacity="1" stroke-miterlimit="10" stroke-width="2"/><text fill="rgb(255,255,255)" stroke="none" font-family="times new roman" font-size="10px" font-style="normal" font-weight="normal" text-decoration="normal" x="714.96875" y="169.375" text-anchor="middle" dominant-baseline="text-after-edge" fill-opacity="1">42127803C&gt;T</text><path fill="rgb(69,90,100)" stroke="rgb(76,175,80)" paint-order="fill stroke markers" d=" M 455.15625 375.5 L 455.10230334032974 376.8730341752373 L 454.9407959604149 378.23760313820407 L 454.6727236069593 379.58529386747836 L 454.2997390351652 380.9077974015616 L 453.8241418189475 382.19696006638907 L 453.24886417329645 383.44483374544205 L 452.5774528761966 384.6437248825291 L 451.8140474015616 385.7862419151183 L 450.96335439800055 386.86534084577823 L 450.03061867076457 387.87436867076457 L 449.02159084577823 388.80710439800055 L 447.9424919151183 389.6577974015616 L 446.7999748825291 390.4212028761966 L 445.60108374544205 391.09261417329645 L 444.35321006638907 391.6678918189475 L 443.0640474015616 392.1434890351652 L 441.74154386747836 392.5164736069593 L 440.39385313820407 392.7845459604149 L 439.0292841752373 392.94605334032974 L 437.65625 393 L 436.2832158247627 392.94605334032974 L 434.91864686179593 392.7845459604149 L 433.57095613252164 392.5164736069593 L 432.2484525984384 392.1434890351652 L 430.95928993361093 391.6678918189475 L 429.71141625455795 391.09261417329645 L 428.5125251174709 390.4212028761966 L 427.3700080848817 389.6577974015616 L 426.29090915422177 388.80710439800055 L 425.28188132923543 387.87436867076457 L 424.34914560199945 386.86534084577823 L 423.4984525984384 385.7862419151183 L 422.7350471238034 384.6437248825291 L 422.06363582670355 383.44483374544205 L 421.4883581810525 382.19696006638907 L 421.0127609648348 380.9077974015616 L 420.6397763930407 379.58529386747836 L 420.3717040395851 378.23760313820407 L 420.21019665967026 376.8730341752373 L 420.15625 375.5 L 420.21019665967026 374.1269658247627 L 420.3717040395851 372.76239686179593 L 420.6397763930407 371.41470613252164 L 421.0127609648348 370.0922025984384 L 421.4883581810525 368.80303993361093 L 422.06363582670355 367.55516625455795 L 422.7350471238034 366.3562751174709 L 423.4984525984384 365.2137580848817 L 424.34914560199945 364.13465915422177 L 425.28188132923543 363.12563132923543 L 426.29090915422177 362.19289560199945 L 427.3700080848817 361.3422025984384 L 428.5125251174709 360.5787971238034 L 429.71141625455795 359.90738582670355 L 430.95928993361093 359.3321081810525 L 432.24845259843846 358.8565109648348 L 433.5709561325217 358.4835263930407 L 434.918646861796 358.2154540395851 L 436.28321582476275 358.05394665967026 L 437.65625000000006 358 L 439.02928417523736 358.05394665967026 L 440.3938531382041 358.2154540395851 L 441.7415438674784 358.4835263930407 L 443.06404740156165 358.85651096483485 L 444.3532100663892 359.3321081810525 L 445.60108374544217 359.9073858267036 L 446.7999748825292 360.57879712380344 L 447.94249191511835 361.3422025984385 L 449.0215908457783 362.19289560199957 L 450.0306186707647 363.1256313292355 L 450.96335439800066 364.1346591542219 L 451.81404740156165 365.2137580848818 L 452.5774528761967 366.35627511747106 L 453.2488641732965 367.55516625455806 L 453.82414181894757 368.8030399336111 L 454.29973903516526 370.0922025984386 L 454.6727236069594 371.4147061325218 L 454.94079596041496 372.76239686179616 L 455.10230334032974 374.1269658247629 Z" fill-opacity="1" stroke-opacity="1" stroke-miterlimit="10" stroke-width="6"/><text fill="rgb(255,255,255)" stroke="none" font-family="times new roman" font-size="10px" font-style="normal" font-weight="normal" text-decoration="normal" x="437.65625" y="380.5" text-anchor="middle" dominant-baseline="text-after-edge" fill-opacity="1">*1.58</text><path fill="rgb(69,90,100)" stroke="rgb(158,158,158)" paint-order="fill stroke markers" d=" M 918.34375 80.875 L 918.34375 100.875 L 1013.34375 100.875 L 1013.34375 80.875 Z" fill-opacity="1" stroke-opacity="1" stroke-miterlimit="10" stroke-width="6"/><text fill="rgb(255,255,255)" stroke="none" font-family="times new roman" font-size="10px" font-style="normal" font-weight="normal" text-decoration="normal" x="965.84375" y="95.875" text-anchor="middle" dominant-baseline="text-after-edge" fill-opacity="1">42126611C&gt;G</text><path fill="rgb(69,90,100)" stroke="rgb(69,90,100)" paint-order="fill stroke markers" d=" M 418.90625 489.625 L 400.15625 507.125 L 418.90625 524.625 L 456.40625 524.625 L 475.15625 507.125 L 456.40625000000006 489.625 Z" fill-opacity="1" stroke-opacity="1" stroke-miterlimit="10" stroke-width="2"/><text fill="rgb(255,255,255)" stroke="none" font-family="times new roman" font-size="10px" font-style="normal" font-weight="normal" text-decoration="normal" x="437.65625" y="512.125" text-anchor="middle" dominant-baseline="text-after-edge" fill-opacity="1">NA12006-A</text><path fill="rgb(69,90,100)" stroke="rgb(76,175,80)" paint-order="fill stroke markers" d=" M 1075.59375 90.875 L 1075.5398033403299 92.24803417523728 L 1075.378295960415 93.61260313820404 L 1075.1102236069594 94.96029386747834 L 1074.7372390351652 96.28279740156158 L 1074.2616418189475 97.57196006638907 L 1073.6863641732964 98.81983374544207 L 1073.0149528761965 100.0187248825291 L 1072.2515474015615 101.16124191511828 L 1071.4008543980005 102.2403408457782 L 1070.4681186707646 103.24936867076458 L 1069.4590908457783 104.18210439800055 L 1068.3799919151184 105.03279740156158 L 1067.237474882529 105.79620287619662 L 1066.038583745442 106.46761417329644 L 1064.790710066389 107.04289181894751 L 1063.5015474015615 107.51848903516519 L 1062.1790438674784 107.89147360695934 L 1060.8313531382041 108.1595459604149 L 1059.4667841752373 108.32105334032974 L 1058.09375 108.375 L 1056.7207158247627 108.32105334032974 L 1055.3561468617959 108.1595459604149 L 1054.0084561325216 107.89147360695934 L 1052.6859525984385 107.51848903516519 L 1051.396789933611 107.04289181894751 L 1050.148916254558 106.46761417329644 L 1048.950025117471 105.79620287619662 L 1047.8075080848816 105.03279740156158 L 1046.7284091542217 104.18210439800055 L 1045.7193813292354 103.24936867076458 L 1044.7866456019995 102.24034084577822 L 1043.9359525984385 101.16124191511828 L 1043.1725471238035 100.01872488252911 L 1042.5011358267036 98.81983374544207 L 1041.9258581810525 97.57196006638907 L 1041.4502609648348 96.28279740156158 L 1041.0772763930406 94.96029386747834 L 1040.809204039585 93.61260313820404 L 1040.6476966596701 92.2480341752373 L 1040.59375 90.875 L 1040.6476966596701 89.50196582476272 L 1040.809204039585 88.13739686179596 L 1041.0772763930406 86.78970613252166 L 1041.4502609648348 85.46720259843842 L 1041.9258581810525 84.17803993361093 L 1042.5011358267036 82.93016625455793 L 1043.1725471238035 81.7312751174709 L 1043.9359525984385 80.58875808488172 L 1044.7866456019995 79.5096591542218 L 1045.7193813292354 78.50063132923542 L 1046.7284091542217 77.56789560199947 L 1047.8075080848816 76.71720259843842 L 1048.950025117471 75.95379712380338 L 1050.148916254558 75.28238582670356 L 1051.396789933611 74.70710818105248 L 1052.6859525984385 74.2315109648348 L 1054.0084561325216 73.85852639304065 L 1055.356146861796 73.59045403958508 L 1056.7207158247627 73.42894665967026 L 1058.09375 73.375 L 1059.4667841752373 73.42894665967026 L 1060.8313531382041 73.5904540395851 L 1062.1790438674784 73.85852639304068 L 1063.5015474015618 74.23151096483484 L 1064.7907100663892 74.70710818105252 L 1066.038583745442 75.2823858267036 L 1067.237474882529 75.95379712380344 L 1068.3799919151184 76.71720259843849 L 1069.4590908457783 77.56789560199954 L 1070.4681186707646 78.50063132923552 L 1071.4008543980005 79.5096591542219 L 1072.2515474015618 80.58875808488185 L 1073.0149528761967 81.73127511747103 L 1073.6863641732966 82.93016625455807 L 1074.2616418189475 84.17803993361109 L 1074.7372390351652 85.46720259843859 L 1075.1102236069594 86.78970613252184 L 1075.378295960415 88.13739686179616 L 1075.5398033403299 89.50196582476292 Z" fill-opacity="1" stroke-opacity="1" stroke-miterlimit="10" stroke-width="6"/><text fill="rgb(255,255,255)" stroke="none" font-family="times new roman" font-size="10px" font-style="normal" font-weight="normal" text-decoration="normal" x="1058.09375" y="95.875" text-anchor="middle" dominant-baseline="text-after-edge" fill-opacity="1">*39.2</text><path fill="rgb(69,90,100)" stroke="rgb(76,175,80)" paint-order="fill stroke markers" d=" M 1034.46875 164.375 L 1034.3993900089954 166.1403296538765 L 1034.1917376633905 167.89477546340518 L 1033.8470732089477 169.62752068675786 L 1033.367521616641 171.32788237343632 L 1032.7560394815039 172.98537722821453 L 1032.0163967942383 174.58978624413982 L 1031.1531536979671 176.13121770610886 L 1030.1716323734363 177.60016817658064 L 1029.0778842260006 178.98758108742913 L 1027.8786525766973 180.2849025766973 L 1026.5813310874291 181.4841342260007 L 1025.1939181765806 182.57788237343632 L 1023.7249677061088 183.55940369796707 L 1022.1835362441398 184.4226467942383 L 1020.5791272282145 185.16228948150396 L 1018.9216323734363 185.77377161664094 L 1017.2212706867579 186.25332320894773 L 1015.4885254634052 186.5979876633906 L 1013.7340796538765 186.80564000899537 L 1011.96875 186.875 L 1010.2034203461235 186.80564000899537 L 1008.4489745365948 186.5979876633906 L 1006.7162293132421 186.25332320894773 L 1005.0158676265637 185.77377161664094 L 1003.3583727717855 185.16228948150396 L 1001.7539637558602 184.4226467942383 L 1000.2125322938912 183.55940369796707 L 998.7435818234194 182.57788237343632 L 997.3561689125709 181.4841342260007 L 996.0588474233027 180.28490257669733 L 994.8596157739993 178.98758108742913 L 993.7658676265637 177.60016817658064 L 992.7843463020329 176.13121770610886 L 991.9211032057617 174.58978624413982 L 991.181460518496 172.98537722821453 L 990.5699783833591 171.32788237343632 L 990.0904267910523 169.62752068675786 L 989.7457623366095 167.8947754634052 L 989.5381099910046 166.1403296538765 L 989.46875 164.375 L 989.5381099910046 162.6096703461235 L 989.7457623366093 160.85522453659482 L 990.0904267910523 159.12247931324214 L 990.5699783833591 157.42211762656368 L 991.181460518496 155.76462277178547 L 991.9211032057617 154.1602137558602 L 992.7843463020329 152.61878229389114 L 993.7658676265637 151.14983182341936 L 994.8596157739993 149.76241891257087 L 996.0588474233027 148.4650974233027 L 997.3561689125709 147.2658657739993 L 998.7435818234194 146.17211762656368 L 1000.2125322938912 145.19059630203293 L 1001.7539637558602 144.3273532057617 L 1003.3583727717855 143.58771051849604 L 1005.0158676265637 142.97622838335903 L 1006.7162293132421 142.49667679105227 L 1008.4489745365948 142.1520123366094 L 1010.2034203461236 141.9443599910046 L 1011.9687500000001 141.875 L 1013.7340796538766 141.94435999100463 L 1015.4885254634053 142.1520123366094 L 1017.221270686758 142.4966767910523 L 1018.9216323734364 142.97622838335909 L 1020.5791272282146 143.5877105184961 L 1022.1835362441399 144.3273532057618 L 1023.7249677061089 145.190596302033 L 1025.1939181765808 146.17211762656376 L 1026.5813310874294 147.26586577399942 L 1027.8786525766975 148.4650974233028 L 1029.0778842260008 149.762418912571 L 1030.1716323734365 151.1498318234195 L 1031.1531536979671 152.61878229389131 L 1032.0163967942383 154.16021375586038 L 1032.756039481504 155.7646227717857 L 1033.367521616641 157.4221176265639 L 1033.8470732089477 159.12247931324237 L 1034.1917376633905 160.85522453659505 L 1034.3993900089954 162.60967034612375 Z" fill-opacity="1" stroke-opacity="1" stroke-miterlimit="10" stroke-width="6"/><text fill="rgb(255,255,255)" stroke="none" font-family="times new roman" font-size="15px" font-style="normal" font-weight="normal" text-decoration="normal" x="1011.96875" y="171.875" text-anchor="middle" dominant-baseline="text-after-edge" fill-opacity="1">*39</text><path fill="rgb(69,90,100)" stroke="rgb(76,175,80)" paint-order="fill stroke markers" d=" M 260.15625 375.5 L 260.10230334032974 376.8730341752373 L 259.9407959604149 378.23760313820407 L 259.6727236069593 379.58529386747836 L 259.2997390351652 380.9077974015616 L 258.8241418189475 382.19696006638907 L 258.24886417329645 383.44483374544205 L 257.5774528761966 384.6437248825291 L 256.8140474015616 385.7862419151183 L 255.96335439800055 386.86534084577823 L 255.03061867076457 387.87436867076457 L 254.0215908457782 388.80710439800055 L 252.94249191511827 389.6577974015616 L 251.7999748825291 390.4212028761966 L 250.60108374544208 391.09261417329645 L 249.35321006638907 391.6678918189475 L 248.0640474015616 392.1434890351652 L 246.74154386747836 392.5164736069593 L 245.39385313820404 392.7845459604149 L 244.02928417523728 392.94605334032974 L 242.65625 393 L 241.28321582476272 392.94605334032974 L 239.91864686179596 392.7845459604149 L 238.57095613252164 392.5164736069593 L 237.24845259843843 392.1434890351652 L 235.95928993361093 391.6678918189475 L 234.71141625455795 391.09261417329645 L 233.5125251174709 390.4212028761966 L 232.37000808488173 389.6577974015616 L 231.2909091542218 388.80710439800055 L 230.28188132923543 387.87436867076457 L 229.34914560199945 386.86534084577823 L 228.49845259843843 385.7862419151183 L 227.73504712380338 384.6437248825291 L 227.06363582670357 383.44483374544205 L 226.4883581810525 382.19696006638907 L 226.01276096483483 380.9077974015616 L 225.63977639304065 379.58529386747836 L 225.3717040395851 378.23760313820407 L 225.21019665967026 376.8730341752373 L 225.15625 375.5 L 225.21019665967026 374.1269658247627 L 225.3717040395851 372.76239686179593 L 225.63977639304065 371.41470613252164 L 226.0127609648348 370.0922025984384 L 226.4883581810525 368.80303993361093 L 227.06363582670357 367.55516625455795 L 227.73504712380338 366.3562751174709 L 228.4984525984384 365.2137580848817 L 229.34914560199945 364.13465915422177 L 230.2818813292354 363.12563132923543 L 231.29090915422177 362.19289560199945 L 232.3700080848817 361.3422025984384 L 233.5125251174709 360.5787971238034 L 234.71141625455795 359.90738582670355 L 235.95928993361096 359.3321081810525 L 237.24845259843843 358.8565109648348 L 238.5709561325217 358.4835263930407 L 239.918646861796 358.2154540395851 L 241.28321582476278 358.05394665967026 L 242.65625000000006 358 L 244.02928417523736 358.05394665967026 L 245.39385313820412 358.2154540395851 L 246.7415438674784 358.4835263930407 L 248.06404740156165 358.85651096483485 L 249.35321006638915 359.3321081810525 L 250.60108374544217 359.9073858267036 L 251.7999748825292 360.57879712380344 L 252.94249191511838 361.3422025984385 L 254.02159084577832 362.19289560199957 L 255.03061867076468 363.1256313292355 L 255.96335439800063 364.1346591542219 L 256.81404740156165 365.2137580848818 L 257.5774528761967 366.35627511747106 L 258.2488641732965 367.55516625455806 L 258.82414181894757 368.8030399336111 L 259.29973903516526 370.0922025984386 L 259.6727236069594 371.4147061325218 L 259.94079596041496 372.76239686179616 L 260.10230334032974 374.1269658247629 Z" fill-opacity="1" stroke-opacity="1" stroke-miterlimit="10" stroke-width="2"/><text fill="rgb(255,255,255)" stroke="none" font-family="times new roman" font-size="10px" font-style="normal" font-weight="normal" text-decoration="normal" x="242.65625" y="380.5" text-anchor="middle" dominant-baseline="text-after-edge" fill-opacity="1">*1.54</text><path fill="rgb(69,90,100)" stroke="rgb(76,175,80)" paint-order="fill stroke markers" d=" M 447.53125 230.125 L 447.53125 250.125 L 542.53125 250.125 L 542.53125 230.125 Z" fill-opacity="1" stroke-opacity="1" stroke-miterlimit="10" stroke-width="6"/><text fill="rgb(255,255,255)" stroke="none" font-family="times new roman" font-size="10px" font-style="normal" font-weight="normal" text-decoration="normal" x="495.03125" y="245.125" text-anchor="middle" dominant-baseline="text-after-edge" fill-opacity="1">42130482C&gt;A</text><path fill="rgb(69,90,100)" stroke="rgb(76,175,80)" paint-order="fill stroke markers" d=" M 830.46875 164.375 L 830.3993900089954 166.1403296538765 L 830.1917376633907 167.89477546340518 L 829.8470732089477 169.62752068675786 L 829.3675216166409 171.32788237343632 L 828.756039481504 172.98537722821453 L 828.0163967942383 174.58978624413982 L 827.1531536979671 176.13121770610886 L 826.1716323734363 177.60016817658064 L 825.0778842260007 178.98758108742913 L 823.8786525766973 180.2849025766973 L 822.5813310874291 181.4841342260007 L 821.1939181765806 182.57788237343632 L 819.7249677061088 183.55940369796707 L 818.1835362441398 184.4226467942383 L 816.5791272282145 185.16228948150396 L 814.9216323734363 185.77377161664094 L 813.2212706867579 186.25332320894773 L 811.4885254634052 186.5979876633906 L 809.7340796538765 186.80564000899537 L 807.96875 186.875 L 806.2034203461235 186.80564000899537 L 804.4489745365948 186.5979876633906 L 802.7162293132421 186.25332320894773 L 801.0158676265637 185.77377161664094 L 799.3583727717855 185.16228948150396 L 797.7539637558602 184.4226467942383 L 796.2125322938912 183.55940369796707 L 794.7435818234194 182.57788237343632 L 793.3561689125709 181.4841342260007 L 792.0588474233027 180.28490257669733 L 790.8596157739993 178.98758108742913 L 789.7658676265637 177.60016817658064 L 788.7843463020329 176.13121770610886 L 787.9211032057617 174.58978624413982 L 787.181460518496 172.98537722821453 L 786.5699783833591 171.32788237343632 L 786.0904267910523 169.62752068675786 L 785.7457623366095 167.8947754634052 L 785.5381099910046 166.1403296538765 L 785.46875 164.375 L 785.5381099910046 162.6096703461235 L 785.7457623366093 160.85522453659482 L 786.0904267910523 159.12247931324214 L 786.5699783833591 157.42211762656368 L 787.181460518496 155.76462277178547 L 787.9211032057617 154.1602137558602 L 788.7843463020329 152.61878229389114 L 789.7658676265637 151.14983182341936 L 790.8596157739993 149.76241891257087 L 792.0588474233027 148.4650974233027 L 793.3561689125709 147.2658657739993 L 794.7435818234194 146.17211762656368 L 796.2125322938912 145.19059630203293 L 797.7539637558602 144.3273532057617 L 799.3583727717855 143.58771051849604 L 801.0158676265637 142.97622838335903 L 802.7162293132421 142.49667679105227 L 804.4489745365948 142.1520123366094 L 806.2034203461236 141.9443599910046 L 807.9687500000001 141.875 L 809.7340796538766 141.94435999100463 L 811.4885254634053 142.1520123366094 L 813.221270686758 142.4966767910523 L 814.9216323734364 142.97622838335909 L 816.5791272282146 143.5877105184961 L 818.1835362441399 144.3273532057618 L 819.7249677061089 145.190596302033 L 821.1939181765807 146.17211762656376 L 822.5813310874292 147.26586577399942 L 823.8786525766974 148.4650974233028 L 825.0778842260008 149.762418912571 L 826.1716323734364 151.1498318234195 L 827.1531536979671 152.61878229389131 L 828.0163967942384 154.16021375586038 L 828.756039481504 155.7646227717857 L 829.367521616641 157.4221176265639 L 829.8470732089478 159.12247931324237 L 830.1917376633907 160.85522453659505 L 830.3993900089954 162.60967034612375 Z" fill-opacity="1" stroke-opacity="1" stroke-miterlimit="10" stroke-width="2"/><text fill="rgb(255,255,255)" stroke="none" font-family="times new roman" font-size="15px" font-style="normal" font-weight="normal" text-decoration="normal" x="807.96875" y="171.875" text-anchor="middle" dominant-baseline="text-after-edge" fill-opacity="1">*34</text><path fill="rgb(69,90,100)" stroke="rgb(76,175,80)" paint-order="fill stroke markers" d=" M 149.78125 230.125 L 149.78125 250.125 L 244.78124999999997 250.125 L 244.78125 230.125 Z" fill-opacity="1" stroke-opacity="1" stroke-miterlimit="10" stroke-width="2"/><text fill="rgb(255,255,255)" stroke="none" font-family="times new roman" font-size="10px" font-style="normal" font-weight="normal" text-decoration="normal" x="197.28125" y="245.125" text-anchor="middle" dominant-baseline="text-after-edge" fill-opacity="1">42130047G&gt;C</text><path fill="rgb(69,90,100)" stroke="rgb(76,175,80)" paint-order="fill stroke markers" d=" M 240.53125 154.375 L 240.53125 174.375 L 335.53125 174.375 L 335.53125 154.375 Z" fill-opacity="1" stroke-opacity="1" stroke-miterlimit="10" stroke-width="6"/><text fill="rgb(255,255,255)" stroke="none" font-family="times new roman" font-size="10px" font-style="normal" font-weight="normal" text-decoration="normal" x="288.03125" y="169.375" text-anchor="middle" dominant-baseline="text-after-edge" fill-opacity="1">42127407T&gt;G</text><path fill="rgb(176,190,197)" stroke="none" paint-order="stroke fill markers" d=" M 295.90625 270.5 L 295.90625 480.5 L 370.90625 480.5 L 370.90625 270.50000000000006 Z" fill-opacity="0.8"/><text fill="rgb(0,0,0)" stroke="none" font-family="times new roman" font-size="10px" font-style="normal" font-weight="normal" text-decoration="normal" x="300.90625" y="285.5" text-anchor="start" dominant-baseline="text-after-edge" fill-opacity="0.8">42126310C&gt;T </text><text fill="rgb(0,0,0)" stroke="none" font-family="times new roman" font-size="10px" font-style="normal" font-weight="normal" text-decoration="normal" x="300.90625" y="295.5" text-anchor="start" dominant-baseline="text-after-edge" fill-opacity="0.8">42127001G&gt;A </text><text fill="rgb(0,0,0)" stroke="none" font-family="times new roman" font-size="10px" font-style="normal" font-weight="normal" text-decoration="normal" x="300.90625" y="305.5" text-anchor="start" dominant-baseline="text-after-edge" fill-opacity="0.8">42127207C&gt;T </text><text fill="rgb(0,0,0)" stroke="none" font-family="times new roman" font-size="10px" font-style="normal" font-weight="normal" text-decoration="normal" x="300.90625" y="315.5" text-anchor="start" dominant-baseline="text-after-edge" fill-opacity="0.8">42129130C&gt;G </text><text fill="rgb(0,0,0)" stroke="none" font-family="times new roman" font-size="10px" font-style="normal" font-weight="normal" text-decoration="normal" x="300.90625" y="325.5" text-anchor="start" dominant-baseline="text-after-edge" fill-opacity="0.8">42129178G&gt;A </text><text fill="rgb(0,0,0)" stroke="none" font-family="times new roman" font-size="10px" font-style="normal" font-weight="normal" text-decoration="normal" x="300.90625" y="335.5" text-anchor="start" dominant-baseline="text-after-edge" fill-opacity="0.8">42129414G&gt;C </text><text fill="rgb(0,0,0)" stroke="none" font-family="times new roman" font-size="10px" font-style="normal" font-weight="normal" text-decoration="normal" x="300.90625" y="345.5" text-anchor="start" dominant-baseline="text-after-edge" fill-opacity="0.8">42131469C&gt;T </text><text fill="rgb(0,0,0)" stroke="none" font-family="times new roman" font-size="10px" font-style="normal" font-weight="normal" text-decoration="normal" x="300.90625" y="355.5" text-anchor="start" dominant-baseline="text-after-edge" fill-opacity="0.8">42131531G&gt;A </text><path fill="rgb(176,190,197)" stroke="none" paint-order="stroke fill markers" d=" M 608.28125 270.5 L 675.28125 270.5 L 675.28125 270.5 A 8 8 0 0 1 683.28125 278.5 L 683.28125 472.5 L 683.28125 472.5 A 8 8 0 0 1 675.28125 480.5 L 541.28125 480.5 L 541.28125 480.5 A 8 8 0 0 1 533.28125 472.5 L 533.28125 278.5 L 533.28125 278.5 A 8 8 0 0 1 541.28125 270.5 L 608.28125 270.5 Z" fill-opacity="0.8"/><text fill="rgb(0,0,0)" stroke="none" font-family="times new roman" font-size="10px" font-style="normal" font-weight="normal" text-decoration="normal" x="538.28125" y="285.5" text-anchor="start" dominant-baseline="text-after-edge" fill-opacity="0.8">42125924A&gt;G </text><text fill="rgb(0,0,0)" stroke="none" font-family="times new roman" font-size="10px" font-style="normal" font-weight="normal" text-decoration="normal" x="538.28125" y="295.5" text-anchor="start" dominant-baseline="text-after-edge" fill-opacity="0.8">42126069A&gt;C </text><text fill="rgb(0,0,0)" stroke="none" font-family="times new roman" font-size="10px" font-style="normal" font-weight="normal" text-decoration="normal" x="538.28125" y="305.5" text-anchor="start" dominant-baseline="text-after-edge" fill-opacity="0.8">42126136_42126138del </text><text fill="rgb(0,0,0)" stroke="none" font-family="times new roman" font-size="10px" font-style="normal" font-weight="normal" text-decoration="normal" x="538.28125" y="315.5" text-anchor="start" dominant-baseline="text-after-edge" fill-opacity="0.8">42132027C&gt;T </text><text fill="rgb(0,0,0)" stroke="none" font-family="times new roman" font-size="10px" font-style="normal" font-weight="normal" text-decoration="normal" x="538.28125" y="325.5" text-anchor="start" dominant-baseline="text-after-edge" fill-opacity="0.8">42132561C&gt;T </text><text fill="rgb(0,0,0)" stroke="none" font-family="times new roman" font-size="10px" font-style="normal" font-weight="normal" text-decoration="normal" x="538.28125" y="335.5" text-anchor="start" dominant-baseline="text-after-edge" fill-opacity="0.8">42132844C&gt;A </text><text fill="rgb(0,0,0)" stroke="none" font-family="times new roman" font-size="10px" font-style="normal" font-weight="normal" text-decoration="normal" x="538.28125" y="345.5" text-anchor="start" dominant-baseline="text-after-edge" fill-opacity="0.8">42132851T&gt;C </text><text fill="rgb(0,0,0)" stroke="none" font-family="times new roman" font-size="10px" font-style="normal" font-weight="normal" text-decoration="normal" x="538.28125" y="355.5" text-anchor="start" dominant-baseline="text-after-edge" fill-opacity="0.8">42133400T&gt;G </text><text fill="rgb(0,0,0)" stroke="none" font-family="times new roman" font-size="10px" font-style="normal" font-weight="normal" text-decoration="normal" x="538.28125" y="365.5" text-anchor="start" dominant-baseline="text-after-edge" fill-opacity="0.8">42133533A&gt;C </text><text fill="rgb(0,0,0)" stroke="none" font-family="times new roman" font-size="10px" font-style="normal" font-weight="normal" text-decoration="normal" x="538.28125" y="375.5" text-anchor="start" dominant-baseline="text-after-edge" fill-opacity="0.8">42134096del </text><text fill="rgb(0,0,0)" stroke="none" font-family="times new roman" font-size="10px" font-style="normal" font-weight="normal" text-decoration="normal" x="538.28125" y="385.5" text-anchor="start" dominant-baseline="text-after-edge" fill-opacity="0.8">42134820T&gt;G </text><text fill="rgb(0,0,0)" stroke="none" font-family="times new roman" font-size="10px" font-style="normal" font-weight="normal" text-decoration="normal" x="538.28125" y="395.5" text-anchor="start" dominant-baseline="text-after-edge" fill-opacity="0.8">42135064_42135066dup </text><text fill="rgb(0,0,0)" stroke="none" font-family="times new roman" font-size="10px" font-style="normal" font-weight="normal" text-decoration="normal" x="538.28125" y="405.5" text-anchor="start" dominant-baseline="text-after-edge" fill-opacity="0.8">42135201T&gt;C </text><text fill="rgb(0,0,0)" stroke="none" font-family="times new roman" font-size="10px" font-style="normal" font-weight="normal" text-decoration="normal" x="538.28125" y="415.5" text-anchor="start" dominant-baseline="text-after-edge" fill-opacity="0.8">42135691T&gt;C </text><g transform="scale(0.998628526645768,0.998628526645768) translate(117.98420639591916,-5.590739650774935)"/></g></svg>