<svg version="1.1" xmlns="http://www.w3.org/2000/svg" xmlns:xlink="http://www.w3.org/1999/xlink" width="1017" height="608"><defs/><g transform="translate(-108.06521739130437,1.3913043478261216) scale(1.008695652173913,1.008695652173913)"><path fill="none" stroke="rgb(55,71,79)" paint-order="fill stroke markers" d=" M 284.093349732941 175.18567809318034 L 377.0851015517075 229.29952237189758" stroke-opacity="1" stroke-linejoin="round" stroke-miterlimit="10" stroke-width="2"/><path fill="none" stroke="rgb(120,144,156)" paint-order="fill stroke markers" d=" M 188.375 255.125 L 188.375 356.5" stroke-opacity="1" stroke-linejoin="round" stroke-miterlimit="10"/><path fill="rgb(120,144,156)" stroke="none" paint-order="stroke fill markers" d=" M 184.025 349.8 L 188.375 358.5 L 192.725 349.8 Z" fill-opacity="1"/><path fill="none" stroke="rgb(120,144,156)" paint-order="fill stroke markers" d=" M 1009.625 253.125 L 1009.625 272" stroke-opacity="1" stroke-linejoin="round" stroke-miterlimit="10"/><path fill="rgb(120,144,156)" stroke="none" paint-order="stroke fill markers" d=" M 1005.275 265.3 L 1009.625 274 L 1013.975 265.3 Z" fill-opacity="1"/><path fill="none" stroke="rgb(55,71,79)" paint-order="fill stroke markers" d=" M 642.875 177.875 L 642.875 216.625" stroke-opacity="1" stroke-linejoin="round" stroke-miterlimit="10" stroke-width="2"/><path fill="none" stroke="rgb(120,144,156)" paint-order="fill stroke markers" d=" M 208.42155702703622 383.28783760907356 L 770.3030790444656 503.47090538976687" stroke-opacity="1" stroke-linejoin="round" stroke-miterlimit="10"/><path fill="rgb(120,144,156)" stroke="none" paint-order="stroke fill markers" d=" M 762.8414192551674 506.32329617448954 L 772.2588407056398 503.8892310101643 L 764.6611357038962 497.8157329483815 Z" fill-opacity="1"/><path fill="none" stroke="rgb(55,71,79)" paint-order="fill stroke markers" d=" M 508.90816326530614 104.375 L 533.3204273259075 143.27584354372266" stroke-opacity="1" stroke-linejoin="round" stroke-miterlimit="10" stroke-width="2"/><path fill="none" stroke="rgb(120,144,156)" paint-order="fill stroke markers" d=" M 514.8740461481127 388.9017589411615 L 775.1420366333509 498.57050403158" stroke-opacity="1" stroke-linejoin="round" stroke-miterlimit="10"/><path fill="rgb(120,144,156)" stroke="none" paint-order="stroke fill markers" d=" M 767.2786538652565 499.97752622132543 L 776.9850990763401 499.34711257598485 L 770.6569010334175 491.9602045943223 Z" fill-opacity="1"/><path fill="none" stroke="rgb(120,144,156)" paint-order="fill stroke markers" d=" M 803.75 399.5 L 803.75 490.125" stroke-opacity="1" stroke-linejoin="round" stroke-miterlimit="10"/><path fill="rgb(120,144,156)" stroke="none" paint-order="stroke fill markers" d=" M 799.4 483.425 L 803.75 492.125 L 808.1 483.425 Z" fill-opacity="1"/><path fill="none" stroke="rgb(55,71,79)" paint-order="fill stroke markers" d=" M 304.64681332623115 108.73902773936021 L 326.3204273259076 143.27584354372266" stroke-opacity="1" stroke-linejoin="round" stroke-miterlimit="10" stroke-width="2"/><path fill="none" stroke="rgb(120,144,156)" paint-order="fill stroke markers" d=" M 764.1715025630999 261.5516132970038 L 796.5648142600123 357.678107356947" stroke-opacity="1" stroke-linejoin="round" stroke-miterlimit="10"/><path fill="rgb(120,144,156)" stroke="none" paint-order="stroke fill markers" d=" M 790.3029930397812 352.7180574574133 L 797.2034974369001 359.5733867029962 L 798.547458195095 349.9397856379514 Z" fill-opacity="1"/><path fill="none" stroke="rgb(120,144,156)" paint-order="fill stroke markers" d=" M 413.3766293543564 263.2707102208946 L 476.00559579432155 356.1958027029568" stroke-opacity="1" stroke-linejoin="round" stroke-miterlimit="10"/><path fill="rgb(120,144,156)" stroke="none" paint-order="stroke fill markers" d=" M 468.6538406517694 353.0710312994845 L 477.1233706456436 357.8542897791054 L 475.8682594330158 348.2087106962335 Z" fill-opacity="1"/><path fill="none" stroke="rgb(120,144,156)" paint-order="fill stroke markers" d=" M 623.953637298661 259.2197955098731 L 511.7803911485029 360.5644362148427" stroke-opacity="1" stroke-linejoin="round" stroke-miterlimit="10"/><path fill="rgb(120,144,156)" stroke="none" paint-order="stroke fill markers" d=" M 513.8357154477587 352.84510062005944 L 510.29636270133904 361.9052044901269 L 519.6680574452448 359.3006243652221 Z" fill-opacity="1"/><path fill="none" stroke="rgb(120,144,156)" paint-order="fill stroke markers" d=" M 848.75 438.82954545454544 L 816.4076085096417 490.43036096870793" stroke-opacity="1" stroke-linejoin="round" stroke-miterlimit="10"/><path fill="rgb(120,144,156)" stroke="none" paint-order="stroke fill markers" d=" M 816.280027779152 482.44310717549416 L 815.3454415954416 492.125 L 823.6517075652725 487.06353325226485 Z" fill-opacity="1"/><path fill="none" stroke="rgb(120,144,156)" paint-order="fill stroke markers" d=" M 355.39412814171374 185.1087999822344 L 382.3886853373675 220.30423531327665" stroke-opacity="1" stroke-linejoin="round" stroke-miterlimit="10"/><path fill="rgb(120,144,156)" stroke="none" paint-order="stroke fill markers" d=" M 374.8594622600263 217.63528423623683 L 383.60587185828626 221.8912000177656 L 381.7627587245533 212.34052287024036 Z" fill-opacity="1"/><path fill="none" stroke="rgb(120,144,156)" paint-order="fill stroke markers" d=" M 934.625 426.95081967213116 L 828.5545068490756 494.76638086698443" stroke-opacity="1" stroke-linejoin="round" stroke-miterlimit="10"/><path fill="rgb(120,144,156)" stroke="none" paint-order="stroke fill markers" d=" M 831.8562268435307 487.49237611868966 L 826.8694625515498 495.8437042703206 L 836.5425836480431 494.8223188129269 Z" fill-opacity="1"/><path fill="none" stroke="rgb(120,144,156)" paint-order="fill stroke markers" d=" M 524.2773215790875 176.6900298342842 L 423.49504535588596 229.3833011591053" stroke-opacity="1" stroke-linejoin="round" stroke-miterlimit="10"/><path fill="rgb(120,144,156)" stroke="none" paint-order="stroke fill markers" d=" M 427.41696949866946 222.4240619033926 L 421.7226784209125 230.3099701657158 L 431.4479796774252 230.13385807052745 Z" fill-opacity="1"/><path fill="none" stroke="rgb(55,71,79)" paint-order="fill stroke markers" d=" M 377.84183673469386 104.375 L 353.4295726740924 143.27584354372266" stroke-opacity="1" stroke-linejoin="round" stroke-miterlimit="10" stroke-width="2"/><path fill="none" stroke="rgb(120,144,156)" paint-order="fill stroke markers" d=" M 845.6638698630137 255.125 L 810.9613988797521 357.6869587764413" stroke-opacity="1" stroke-linejoin="round" stroke-miterlimit="10"/><path fill="rgb(120,144,156)" stroke="none" paint-order="stroke fill markers" d=" M 808.9882719096124 349.9462049397851 L 810.3203856459963 359.58145132964654 L 817.2293145160552 352.73461250662257 Z" fill-opacity="1"/><path fill="none" stroke="rgb(55,71,79)" paint-order="fill stroke markers" d=" M 582.1031866737688 108.73902773936021 L 560.4295726740925 143.27584354372266" stroke-opacity="1" stroke-linejoin="round" stroke-miterlimit="10" stroke-width="2"/><path fill="none" stroke="rgb(55,71,79)" paint-order="fill stroke markers" d=" M 757.625 177.875 L 757.625 221.625" stroke-opacity="1" stroke-linejoin="round" stroke-miterlimit="10" stroke-width="2"/><path fill="none" stroke="rgb(120,144,156)" paint-order="fill stroke markers" d=" M 292.2263698630137 255.125 L 202.83019729244216 361.7576895041131" stroke-opacity="1" stroke-linejoin="round" stroke-miterlimit="10"/><path fill="rgb(120,144,156)" stroke="none" paint-order="stroke fill markers" d=" M 203.8011204569868 353.82864112435465 L 201.54529086644732 363.29033932596974 L 210.4681471820631 359.41798407743227 Z" fill-opacity="1"/><path fill="rgb(69,90,100)" stroke="rgb(76,175,80)" paint-order="fill stroke markers" d=" M 283.875 164.875 L 283.82105334032974 166.24803417523728 L 283.6595459604149 167.61260313820404 L 283.3914736069593 168.96029386747836 L 283.0184890351652 170.28279740156157 L 282.5428918189475 171.57196006638907 L 281.96761417329645 172.81983374544205 L 281.2962028761966 174.0187248825291 L 280.5327974015616 175.16124191511827 L 279.68210439800055 176.2403408457782 L 278.74936867076457 177.24936867076457 L 277.74034084577823 178.18210439800055 L 276.6612419151183 179.0327974015616 L 275.5187248825291 179.79620287619662 L 274.31983374544205 180.46761417329643 L 273.07196006638907 181.0428918189475 L 271.7827974015616 181.51848903516517 L 270.46029386747836 181.89147360695935 L 269.11260313820407 182.1595459604149 L 267.7480341752373 182.32105334032974 L 266.375 182.375 L 265.0019658247627 182.32105334032974 L 263.63739686179593 182.1595459604149 L 262.28970613252164 181.89147360695935 L 260.9672025984384 181.5184890351652 L 259.67803993361093 181.0428918189475 L 258.43016625455795 180.46761417329643 L 257.2312751174709 179.79620287619662 L 256.0887580848817 179.0327974015616 L 255.0096591542218 178.18210439800055 L 254.00063132923543 177.24936867076457 L 253.06789560199945 176.2403408457782 L 252.21720259843843 175.1612419151183 L 251.45379712380338 174.0187248825291 L 250.78238582670357 172.81983374544208 L 250.2071081810525 171.57196006638907 L 249.73151096483483 170.2827974015616 L 249.35852639304065 168.96029386747836 L 249.0904540395851 167.61260313820404 L 248.92894665967026 166.24803417523728 L 248.875 164.875 L 248.92894665967026 163.50196582476272 L 249.0904540395851 162.13739686179596 L 249.35852639304065 160.78970613252164 L 249.7315109648348 159.46720259843843 L 250.2071081810525 158.17803993361093 L 250.78238582670357 156.93016625455795 L 251.45379712380338 155.7312751174709 L 252.2172025984384 154.58875808488173 L 253.06789560199945 153.5096591542218 L 254.0006313292354 152.50063132923543 L 255.00965915422177 151.56789560199945 L 256.0887580848817 150.71720259843843 L 257.2312751174709 149.95379712380338 L 258.43016625455795 149.28238582670355 L 259.67803993361093 148.7071081810525 L 260.96720259843846 148.2315109648348 L 262.2897061325217 147.85852639304065 L 263.637396861796 147.5904540395851 L 265.00196582476275 147.42894665967026 L 266.37500000000006 147.375 L 267.74803417523736 147.42894665967026 L 269.1126031382041 147.5904540395851 L 270.4602938674784 147.85852639304068 L 271.78279740156165 148.23151096483485 L 273.0719600663892 148.70710818105252 L 274.31983374544217 149.2823858267036 L 275.5187248825292 149.95379712380344 L 276.66124191511835 150.7172025984385 L 277.7403408457783 151.56789560199954 L 278.7493686707647 152.50063132923552 L 279.68210439800066 153.5096591542219 L 280.53279740156165 154.58875808488185 L 281.2962028761967 155.73127511747103 L 281.9676141732965 156.9301662545581 L 282.54289181894757 158.1780399336111 L 283.01848903516526 159.4672025984386 L 283.3914736069594 160.78970613252184 L 283.65954596041496 162.13739686179616 L 283.82105334032974 163.50196582476292 Z" fill-opacity="1" stroke-opacity="1" stroke-miterlimit="10" stroke-width="6"/><text fill="rgb(255,255,255)" stroke="none" font-family="times new roman" font-size="10px" font-style="normal" font-weight="normal" text-decoration="normal" x="266.375" y="169.875" text-anchor="middle" dominant-baseline="text-after-edge" fill-opacity="1">*2.4</text><path fill="rgb(69,90,100)" stroke="rgb(76,175,80)" paint-order="fill stroke markers" d=" M 421.625 242.125 L 421.5556400089954 243.8903296538765 L 421.3479876633906 245.64477546340518 L 421.00332320894773 247.37752068675786 L 420.52377161664094 249.07788237343632 L 419.91228948150393 250.73537722821453 L 419.1726467942383 252.33978624413982 L 418.30940369796707 253.88121770610886 L 417.3278823734363 255.35016817658064 L 416.2341342260007 256.73758108742913 L 415.03490257669733 258.03490257669733 L 413.73758108742913 259.2341342260007 L 412.35016817658067 260.3278823734363 L 410.8812177061088 261.30940369796707 L 409.3397862441398 262.1726467942383 L 407.73537722821453 262.91228948150393 L 406.0778823734363 263.52377161664094 L 404.37752068675786 264.00332320894773 L 402.6447754634052 264.3479876633906 L 400.8903296538765 264.5556400089954 L 399.125 264.625 L 397.3596703461235 264.5556400089954 L 395.6052245365948 264.3479876633906 L 393.87247931324214 264.00332320894773 L 392.1721176265637 263.52377161664094 L 390.51462277178547 262.91228948150393 L 388.9102137558602 262.1726467942383 L 387.3687822938912 261.30940369796707 L 385.89983182341933 260.3278823734363 L 384.51241891257087 259.2341342260007 L 383.21509742330267 258.03490257669733 L 382.0158657739993 256.73758108742913 L 380.9221176265637 255.35016817658064 L 379.94059630203293 253.88121770610886 L 379.0773532057617 252.33978624413982 L 378.33771051849607 250.73537722821453 L 377.72622838335906 249.07788237343632 L 377.24667679105227 247.37752068675786 L 376.9020123366094 245.6447754634052 L 376.6943599910046 243.8903296538765 L 376.625 242.125 L 376.6943599910046 240.3596703461235 L 376.9020123366094 238.60522453659482 L 377.24667679105227 236.87247931324214 L 377.72622838335906 235.17211762656368 L 378.33771051849607 233.51462277178547 L 379.0773532057617 231.9102137558602 L 379.94059630203293 230.36878229389114 L 380.9221176265637 228.89983182341936 L 382.0158657739993 227.51241891257087 L 383.21509742330267 226.2150974233027 L 384.51241891257087 225.0158657739993 L 385.89983182341933 223.92211762656368 L 387.3687822938912 222.94059630203293 L 388.91021375586024 222.0773532057617 L 390.5146227717855 221.33771051849604 L 392.1721176265637 220.72622838335903 L 393.8724793132422 220.24667679105227 L 395.60522453659485 219.9020123366094 L 397.35967034612355 219.6943599910046 L 399.12500000000006 219.625 L 400.8903296538766 219.69435999100463 L 402.64477546340527 219.9020123366094 L 404.377520686758 220.2466767910523 L 406.0778823734364 220.72622838335909 L 407.73537722821465 221.3377105184961 L 409.33978624413993 222.0773532057618 L 410.881217706109 222.940596302033 L 412.3501681765808 223.92211762656376 L 413.73758108742925 225.01586577399942 L 415.03490257669745 226.2150974233028 L 416.23413422600083 227.512418912571 L 417.3278823734364 228.8998318234195 L 418.3094036979672 230.36878229389131 L 419.1726467942384 231.91021375586038 L 419.91228948150405 233.5146227717857 L 420.52377161664106 235.1721176265639 L 421.0033232089478 236.87247931324237 L 421.34798766339065 238.60522453659505 L 421.5556400089954 240.35967034612375 Z" fill-opacity="1" stroke-opacity="1" stroke-miterlimit="10" stroke-width="6"/><text fill="rgb(255,255,255)" stroke="none" font-family="times new roman" font-size="15px" font-style="normal" font-weight="normal" text-decoration="normal" x="399.125" y="249.625" text-anchor="middle" dominant-baseline="text-after-edge" fill-opacity="1">*2</text><path fill="rgb(69,90,100)" stroke="rgb(76,175,80)" paint-order="fill stroke markers" d=" M 255.625 232.125 L 255.625 252.125 L 350.625 252.125 L 350.625 232.125 Z" fill-opacity="1" stroke-opacity="1" stroke-miterlimit="10" stroke-width="6"/><text fill="rgb(255,255,255)" stroke="none" font-family="times new roman" font-size="10px" font-style="normal" font-weight="normal" text-decoration="normal" x="303.125" y="247.125" text-anchor="middle" dominant-baseline="text-after-edge" fill-opacity="1">42129950A&gt;C</text><path fill="rgb(69,90,100)" stroke="rgb(76,175,80)" paint-order="fill stroke markers" d=" M 311.25 91.375 L 311.19605334032974 92.74803417523728 L 311.0345459604149 94.11260313820404 L 310.7664736069593 95.46029386747834 L 310.3934890351652 96.78279740156158 L 309.9178918189475 98.07196006638907 L 309.34261417329645 99.31983374544207 L 308.6712028761966 100.5187248825291 L 307.9077974015616 101.66124191511828 L 307.05710439800055 102.7403408457782 L 306.12436867076457 103.74936867076458 L 305.11534084577823 104.68210439800055 L 304.0362419151183 105.53279740156158 L 302.8937248825291 106.29620287619662 L 301.69483374544205 106.96761417329644 L 300.44696006638907 107.54289181894751 L 299.1577974015616 108.01848903516519 L 297.83529386747836 108.39147360695934 L 296.48760313820407 108.6595459604149 L 295.1230341752373 108.82105334032974 L 293.75 108.875 L 292.3769658247627 108.82105334032974 L 291.01239686179593 108.6595459604149 L 289.66470613252164 108.39147360695934 L 288.3422025984384 108.01848903516519 L 287.05303993361093 107.54289181894751 L 285.80516625455795 106.96761417329644 L 284.6062751174709 106.29620287619662 L 283.4637580848817 105.53279740156158 L 282.38465915422177 104.68210439800055 L 281.37563132923543 103.74936867076458 L 280.44289560199945 102.74034084577822 L 279.5922025984384 101.66124191511828 L 278.8287971238034 100.51872488252911 L 278.15738582670355 99.31983374544207 L 277.5821081810525 98.07196006638907 L 277.1065109648348 96.78279740156158 L 276.7335263930407 95.46029386747834 L 276.4654540395851 94.11260313820404 L 276.30394665967026 92.7480341752373 L 276.25 91.375 L 276.30394665967026 90.00196582476272 L 276.4654540395851 88.63739686179596 L 276.7335263930407 87.28970613252166 L 277.1065109648348 85.96720259843842 L 277.5821081810525 84.67803993361093 L 278.15738582670355 83.43016625455793 L 278.8287971238034 82.2312751174709 L 279.5922025984384 81.08875808488172 L 280.44289560199945 80.0096591542218 L 281.37563132923543 79.00063132923542 L 282.38465915422177 78.06789560199947 L 283.4637580848817 77.21720259843842 L 284.6062751174709 76.45379712380338 L 285.80516625455795 75.78238582670356 L 287.05303993361093 75.20710818105248 L 288.34220259843846 74.7315109648348 L 289.6647061325217 74.35852639304065 L 291.012396861796 74.09045403958508 L 292.37696582476275 73.92894665967026 L 293.75000000000006 73.875 L 295.12303417523736 73.92894665967026 L 296.4876031382041 74.0904540395851 L 297.8352938674784 74.35852639304068 L 299.15779740156165 74.73151096483484 L 300.4469600663892 75.20710818105252 L 301.69483374544217 75.7823858267036 L 302.8937248825292 76.45379712380344 L 304.03624191511835 77.21720259843849 L 305.1153408457783 78.06789560199954 L 306.1243686707647 79.00063132923552 L 307.05710439800066 80.0096591542219 L 307.90779740156165 81.08875808488185 L 308.6712028761967 82.23127511747103 L 309.3426141732965 83.43016625455807 L 309.91789181894757 84.67803993361109 L 310.39348903516526 85.96720259843859 L 310.7664736069594 87.28970613252184 L 311.03454596041496 88.63739686179616 L 311.19605334032974 90.00196582476292 Z" fill-opacity="1" stroke-opacity="1" stroke-miterlimit="10" stroke-width="6"/><text fill="rgb(255,255,255)" stroke="none" font-family="times new roman" font-size="10px" font-style="normal" font-weight="normal" text-decoration="normal" x="293.75" y="96.375" text-anchor="middle" dominant-baseline="text-after-edge" fill-opacity="1">*34.1</text><path fill="rgb(69,90,100)" stroke="rgb(76,175,80)" paint-order="fill stroke markers" d=" M 821.25 379 L 821.1960533403297 380.3730341752373 L 821.0345459604149 381.73760313820407 L 820.7664736069594 383.08529386747836 L 820.3934890351652 384.4077974015616 L 819.9178918189475 385.69696006638907 L 819.3426141732964 386.94483374544205 L 818.6712028761966 388.1437248825291 L 817.9077974015615 389.2862419151183 L 817.0571043980005 390.36534084577823 L 816.1243686707646 391.37436867076457 L 815.1153408457782 392.30710439800055 L 814.0362419151182 393.1577974015616 L 812.8937248825291 393.9212028761966 L 811.6948337454421 394.59261417329645 L 810.4469600663891 395.1678918189475 L 809.1577974015615 395.6434890351652 L 807.8352938674783 396.0164736069593 L 806.487603138204 396.2845459604149 L 805.1230341752373 396.44605334032974 L 803.75 396.5 L 802.3769658247627 396.44605334032974 L 801.012396861796 396.2845459604149 L 799.6647061325217 396.0164736069593 L 798.3422025984385 395.6434890351652 L 797.0530399336109 395.1678918189475 L 795.8051662545579 394.59261417329645 L 794.6062751174709 393.9212028761966 L 793.4637580848818 393.1577974015616 L 792.3846591542218 392.30710439800055 L 791.3756313292354 391.37436867076457 L 790.4428956019995 390.36534084577823 L 789.5922025984385 389.2862419151183 L 788.8287971238034 388.1437248825291 L 788.1573858267036 386.94483374544205 L 787.5821081810525 385.69696006638907 L 787.1065109648348 384.4077974015616 L 786.7335263930406 383.08529386747836 L 786.4654540395851 381.73760313820407 L 786.3039466596703 380.3730341752373 L 786.25 379 L 786.3039466596703 377.6269658247627 L 786.4654540395851 376.26239686179593 L 786.7335263930406 374.91470613252164 L 787.1065109648348 373.5922025984384 L 787.5821081810525 372.30303993361093 L 788.1573858267036 371.05516625455795 L 788.8287971238034 369.8562751174709 L 789.5922025984385 368.7137580848817 L 790.4428956019995 367.63465915422177 L 791.3756313292354 366.62563132923543 L 792.3846591542218 365.69289560199945 L 793.4637580848818 364.8422025984384 L 794.6062751174709 364.0787971238034 L 795.8051662545579 363.40738582670355 L 797.053039933611 362.8321081810525 L 798.3422025984385 362.3565109648348 L 799.6647061325217 361.9835263930407 L 801.012396861796 361.7154540395851 L 802.3769658247628 361.55394665967026 L 803.7500000000001 361.5 L 805.1230341752373 361.55394665967026 L 806.4876031382041 361.7154540395851 L 807.8352938674784 361.9835263930407 L 809.1577974015617 362.35651096483485 L 810.4469600663891 362.8321081810525 L 811.6948337454421 363.4073858267036 L 812.8937248825292 364.07879712380344 L 814.0362419151184 364.8422025984385 L 815.1153408457783 365.69289560199957 L 816.1243686707646 366.6256313292355 L 817.0571043980007 367.6346591542219 L 817.9077974015617 368.7137580848818 L 818.6712028761967 369.85627511747106 L 819.3426141732965 371.05516625455806 L 819.9178918189476 372.3030399336111 L 820.3934890351652 373.5922025984386 L 820.7664736069594 374.9147061325218 L 821.0345459604149 376.26239686179616 L 821.1960533403297 377.6269658247629 Z" fill-opacity="1" stroke-opacity="1" stroke-miterlimit="10" stroke-width="6"/><text fill="rgb(255,255,255)" stroke="none" font-family="times new roman" font-size="10px" font-style="normal" font-weight="normal" text-decoration="normal" x="803.75" y="384" text-anchor="middle" dominant-baseline="text-after-edge" fill-opacity="1">*1.54</text><path fill="rgb(69,90,100)" stroke="rgb(76,175,80)" paint-order="fill stroke markers" d=" M 1009.625 232.125 L 1052.125 232.125 L 1052.125 232.125 A 5 5 0 0 1 1057.125 237.125 L 1057.125 247.125 L 1057.125 247.125 A 5 5 0 0 1 1052.125 252.125 L 967.125 252.125 L 967.125 252.125 A 5 5 0 0 1 962.125 247.125 L 962.125 237.125 L 962.125 237.125 A 5 5 0 0 1 967.125 232.125 L 1009.625 232.125 Z" fill-opacity="1" stroke-opacity="1" stroke-miterlimit="10" stroke-width="2"/><text fill="rgb(255,255,255)" stroke="none" font-family="times new roman" font-size="10px" font-style="normal" font-weight="normal" text-decoration="normal" x="1009.625" y="247.125" text-anchor="middle" dominant-baseline="text-after-edge" fill-opacity="1">42132049dup</text><path fill="rgb(69,90,100)" stroke="rgb(255,193,7)" paint-order="fill stroke markers" d=" M 338.5 81.375 L 338.5 101.375 L 433.5 101.375 L 433.5 81.375 Z" fill-opacity="1" stroke-opacity="1" stroke-miterlimit="10" stroke-width="6"/><text fill="rgb(255,255,255)" stroke="none" font-family="times new roman" font-size="10px" font-style="normal" font-weight="normal" text-decoration="normal" x="386" y="96.375" text-anchor="middle" dominant-baseline="text-after-edge" fill-opacity="1">42127941G&gt;A</text><path fill="rgb(69,90,100)" stroke="rgb(76,175,80)" paint-order="fill stroke markers" d=" M 802.5625 232.125 L 802.5625 252.125 L 897.5625 252.125 L 897.5625 232.125 Z" fill-opacity="1" stroke-opacity="1" stroke-miterlimit="10" stroke-width="6"/><text fill="rgb(255,255,255)" stroke="none" font-family="times new roman" font-size="10px" font-style="normal" font-weight="normal" text-decoration="normal" x="850.0625" y="247.125" text-anchor="middle" dominant-baseline="text-after-edge" fill-opacity="1">42130047G&gt;C</text><path fill="rgb(69,90,100)" stroke="rgb(255,193,7)" paint-order="fill stroke markers" d=" M 665.375 242.125 L 665.3056400089954 243.8903296538765 L 665.0979876633907 245.64477546340518 L 664.7533232089477 247.37752068675786 L 664.2737716166409 249.07788237343632 L 663.662289481504 250.73537722821453 L 662.9226467942383 252.33978624413982 L 662.0594036979671 253.88121770610886 L 661.0778823734363 255.35016817658064 L 659.9841342260007 256.73758108742913 L 658.7849025766973 258.03490257669733 L 657.4875810874291 259.2341342260007 L 656.1001681765806 260.3278823734363 L 654.6312177061088 261.30940369796707 L 653.0897862441398 262.1726467942383 L 651.4853772282145 262.91228948150393 L 649.8278823734363 263.52377161664094 L 648.1275206867579 264.00332320894773 L 646.3947754634052 264.3479876633906 L 644.6403296538765 264.5556400089954 L 642.875 264.625 L 641.1096703461235 264.5556400089954 L 639.3552245365948 264.3479876633906 L 637.6224793132421 264.00332320894773 L 635.9221176265637 263.52377161664094 L 634.2646227717855 262.91228948150393 L 632.6602137558602 262.1726467942383 L 631.1187822938912 261.30940369796707 L 629.6498318234194 260.3278823734363 L 628.2624189125709 259.2341342260007 L 626.9650974233027 258.03490257669733 L 625.7658657739993 256.73758108742913 L 624.6721176265637 255.35016817658064 L 623.6905963020329 253.88121770610886 L 622.8273532057617 252.33978624413982 L 622.087710518496 250.73537722821453 L 621.4762283833591 249.07788237343632 L 620.9966767910523 247.37752068675786 L 620.6520123366095 245.6447754634052 L 620.4443599910046 243.8903296538765 L 620.375 242.125 L 620.4443599910046 240.3596703461235 L 620.6520123366093 238.60522453659482 L 620.9966767910523 236.87247931324214 L 621.4762283833591 235.17211762656368 L 622.087710518496 233.51462277178547 L 622.8273532057617 231.9102137558602 L 623.6905963020329 230.36878229389114 L 624.6721176265637 228.89983182341936 L 625.7658657739993 227.51241891257087 L 626.9650974233027 226.2150974233027 L 628.2624189125709 225.0158657739993 L 629.6498318234194 223.92211762656368 L 631.1187822938912 222.94059630203293 L 632.6602137558602 222.0773532057617 L 634.2646227717855 221.33771051849604 L 635.9221176265637 220.72622838335903 L 637.6224793132421 220.24667679105227 L 639.3552245365948 219.9020123366094 L 641.1096703461236 219.6943599910046 L 642.8750000000001 219.625 L 644.6403296538766 219.69435999100463 L 646.3947754634053 219.9020123366094 L 648.127520686758 220.2466767910523 L 649.8278823734364 220.72622838335909 L 651.4853772282146 221.3377105184961 L 653.0897862441399 222.0773532057618 L 654.6312177061089 222.940596302033 L 656.1001681765807 223.92211762656376 L 657.4875810874292 225.01586577399942 L 658.7849025766974 226.2150974233028 L 659.9841342260008 227.512418912571 L 661.0778823734364 228.8998318234195 L 662.0594036979671 230.36878229389131 L 662.9226467942384 231.91021375586038 L 663.662289481504 233.5146227717857 L 664.273771616641 235.1721176265639 L 664.7533232089478 236.87247931324237 L 665.0979876633907 238.60522453659505 L 665.3056400089954 240.35967034612375 Z" fill-opacity="1" stroke-opacity="1" stroke-miterlimit="10" stroke-width="6"/><text fill="rgb(255,255,255)" stroke="none" font-family="times new roman" font-size="15px" font-style="normal" font-weight="normal" text-decoration="normal" x="642.875" y="249.625" text-anchor="middle" dominant-baseline="text-after-edge" fill-opacity="1">*119</text><path fill="rgb(69,90,100)" stroke="rgb(76,175,80)" paint-order="fill stroke markers" d=" M 569.375 164.875 L 569.3056400089954 166.6403296538765 L 569.0979876633907 168.39477546340518 L 568.7533232089477 170.12752068675786 L 568.2737716166409 171.82788237343632 L 567.662289481504 173.48537722821453 L 566.9226467942383 175.08978624413982 L 566.0594036979671 176.63121770610886 L 565.0778823734363 178.10016817658064 L 563.9841342260007 179.48758108742913 L 562.7849025766973 180.7849025766973 L 561.4875810874291 181.9841342260007 L 560.1001681765806 183.07788237343632 L 558.6312177061088 184.05940369796707 L 557.0897862441398 184.9226467942383 L 555.4853772282145 185.66228948150396 L 553.8278823734363 186.27377161664094 L 552.1275206867579 186.75332320894773 L 550.3947754634052 187.0979876633906 L 548.6403296538765 187.30564000899537 L 546.875 187.375 L 545.1096703461235 187.30564000899537 L 543.3552245365948 187.0979876633906 L 541.6224793132421 186.75332320894773 L 539.9221176265637 186.27377161664094 L 538.2646227717855 185.66228948150396 L 536.6602137558602 184.9226467942383 L 535.1187822938912 184.05940369796707 L 533.6498318234194 183.07788237343632 L 532.2624189125709 181.9841342260007 L 530.9650974233027 180.78490257669733 L 529.7658657739993 179.48758108742913 L 528.6721176265637 178.10016817658064 L 527.6905963020329 176.63121770610886 L 526.8273532057617 175.08978624413982 L 526.087710518496 173.48537722821453 L 525.4762283833591 171.82788237343632 L 524.9966767910523 170.12752068675786 L 524.6520123366095 168.3947754634052 L 524.4443599910046 166.6403296538765 L 524.375 164.875 L 524.4443599910046 163.1096703461235 L 524.6520123366093 161.35522453659482 L 524.9966767910523 159.62247931324214 L 525.4762283833591 157.92211762656368 L 526.087710518496 156.26462277178547 L 526.8273532057617 154.6602137558602 L 527.6905963020329 153.11878229389114 L 528.6721176265637 151.64983182341936 L 529.7658657739993 150.26241891257087 L 530.9650974233027 148.9650974233027 L 532.2624189125709 147.7658657739993 L 533.6498318234194 146.67211762656368 L 535.1187822938912 145.69059630203293 L 536.6602137558602 144.8273532057617 L 538.2646227717855 144.08771051849604 L 539.9221176265637 143.47622838335903 L 541.6224793132421 142.99667679105227 L 543.3552245365948 142.6520123366094 L 545.1096703461236 142.4443599910046 L 546.8750000000001 142.375 L 548.6403296538766 142.44435999100463 L 550.3947754634053 142.6520123366094 L 552.127520686758 142.9966767910523 L 553.8278823734364 143.47622838335909 L 555.4853772282146 144.0877105184961 L 557.0897862441399 144.8273532057618 L 558.6312177061089 145.690596302033 L 560.1001681765807 146.67211762656376 L 561.4875810874292 147.76586577399942 L 562.7849025766974 148.9650974233028 L 563.9841342260008 150.262418912571 L 565.0778823734364 151.6498318234195 L 566.0594036979671 153.11878229389131 L 566.9226467942384 154.66021375586038 L 567.662289481504 156.2646227717857 L 568.273771616641 157.9221176265639 L 568.7533232089478 159.62247931324237 L 569.0979876633907 161.35522453659505 L 569.3056400089954 163.10967034612375 Z" fill-opacity="1" stroke-opacity="1" stroke-miterlimit="10" stroke-width="6"/><text fill="rgb(255,255,255)" stroke="none" font-family="times new roman" font-size="15px" font-style="normal" font-weight="normal" text-decoration="normal" x="546.875" y="172.375" text-anchor="middle" dominant-baseline="text-after-edge" fill-opacity="1">*39</text><path fill="rgb(69,90,100)" stroke="rgb(255,193,7)" paint-order="fill stroke markers" d=" M 513.875 379 L 513.8056400089954 380.7653296538765 L 513.5979876633907 382.5197754634052 L 513.2533232089477 384.25252068675786 L 512.7737716166409 385.9528823734363 L 512.162289481504 387.61037722821453 L 511.4226467942383 389.2147862441398 L 510.55940369796707 390.7562177061088 L 509.5778823734363 392.22516817658067 L 508.4841342260007 393.61258108742913 L 507.28490257669733 394.90990257669733 L 505.98758108742913 396.1091342260007 L 504.60016817658067 397.2028823734363 L 503.1312177061088 398.18440369796707 L 501.5897862441398 399.0476467942383 L 499.98537722821453 399.78728948150393 L 498.3278823734363 400.39877161664094 L 496.62752068675786 400.87832320894773 L 494.8947754634052 401.2229876633906 L 493.1403296538765 401.4306400089954 L 491.375 401.5 L 489.6096703461235 401.4306400089954 L 487.8552245365948 401.2229876633906 L 486.12247931324214 400.87832320894773 L 484.4221176265637 400.39877161664094 L 482.76462277178547 399.78728948150393 L 481.1602137558602 399.0476467942383 L 479.6187822938912 398.18440369796707 L 478.14983182341933 397.2028823734363 L 476.76241891257087 396.1091342260007 L 475.46509742330267 394.90990257669733 L 474.2658657739993 393.61258108742913 L 473.1721176265637 392.22516817658067 L 472.19059630203293 390.7562177061088 L 471.3273532057617 389.2147862441398 L 470.58771051849607 387.61037722821453 L 469.97622838335906 385.9528823734363 L 469.49667679105227 384.25252068675786 L 469.1520123366094 382.5197754634052 L 468.9443599910046 380.7653296538765 L 468.875 379 L 468.9443599910046 377.2346703461235 L 469.1520123366094 375.4802245365948 L 469.49667679105227 373.74747931324214 L 469.97622838335906 372.0471176265637 L 470.58771051849607 370.38962277178547 L 471.3273532057617 368.7852137558602 L 472.19059630203293 367.2437822938912 L 473.1721176265637 365.77483182341933 L 474.2658657739993 364.38741891257087 L 475.46509742330267 363.09009742330267 L 476.76241891257087 361.89086577399934 L 478.14983182341933 360.7971176265637 L 479.6187822938912 359.81559630203293 L 481.16021375586024 358.9523532057617 L 482.7646227717855 358.212710518496 L 484.4221176265637 357.60122838335906 L 486.1224793132422 357.12167679105227 L 487.85522453659485 356.7770123366094 L 489.60967034612355 356.5693599910046 L 491.37500000000006 356.5 L 493.1403296538766 356.5693599910046 L 494.89477546340527 356.7770123366094 L 496.627520686758 357.1216767910523 L 498.3278823734364 357.60122838335906 L 499.98537722821465 358.2127105184961 L 501.58978624413993 358.95235320576177 L 503.131217706109 359.815596302033 L 504.6001681765808 360.79711762656376 L 505.98758108742925 361.8908657739994 L 507.28490257669745 363.0900974233028 L 508.48413422600083 364.387418912571 L 509.5778823734364 365.7748318234195 L 510.5594036979672 367.24378229389134 L 511.4226467942384 368.7852137558604 L 512.162289481504 370.3896227717857 L 512.773771616641 372.04711762656393 L 513.2533232089478 373.74747931324237 L 513.5979876633907 375.4802245365951 L 513.8056400089954 377.2346703461238 Z" fill-opacity="1" stroke-opacity="1" stroke-miterlimit="10" stroke-width="6"/><text fill="rgb(255,255,255)" stroke="none" font-family="times new roman" font-size="15px" font-style="normal" font-weight="normal" text-decoration="normal" x="491.375" y="386.5" text-anchor="middle" dominant-baseline="text-after-edge" fill-opacity="1">*41</text><path fill="rgb(3,169,244)" stroke="none" paint-order="stroke fill markers" d=" M 491.375 346.5 L 515.875 346.5 L 515.875 346.5 A 8 8 0 0 1 523.875 354.5 L 523.875 403.5 L 523.875 403.5 A 8 8 0 0 1 515.875 411.5 L 466.875 411.5 L 466.875 411.5 A 8 8 0 0 1 458.875 403.5 L 458.875 354.5 L 458.875 354.5 A 8 8 0 0 1 466.875 346.5 L 491.375 346.5 Z" fill-opacity="0.15"/><path fill="rgb(69,90,100)" stroke="rgb(76,175,80)" paint-order="fill stroke markers" d=" M 362.375 164.875 L 362.3056400089954 166.6403296538765 L 362.0979876633906 168.39477546340518 L 361.75332320894773 170.12752068675786 L 361.27377161664094 171.82788237343632 L 360.66228948150393 173.48537722821453 L 359.9226467942383 175.08978624413982 L 359.05940369796707 176.63121770610886 L 358.0778823734363 178.10016817658064 L 356.9841342260007 179.48758108742913 L 355.78490257669733 180.7849025766973 L 354.48758108742913 181.9841342260007 L 353.10016817658067 183.07788237343632 L 351.6312177061088 184.05940369796707 L 350.0897862441398 184.9226467942383 L 348.48537722821453 185.66228948150396 L 346.8278823734363 186.27377161664094 L 345.12752068675786 186.75332320894773 L 343.3947754634052 187.0979876633906 L 341.6403296538765 187.30564000899537 L 339.875 187.375 L 338.1096703461235 187.30564000899537 L 336.3552245365948 187.0979876633906 L 334.62247931324214 186.75332320894773 L 332.9221176265637 186.27377161664094 L 331.26462277178547 185.66228948150396 L 329.6602137558602 184.9226467942383 L 328.1187822938912 184.05940369796707 L 326.64983182341933 183.07788237343632 L 325.26241891257087 181.9841342260007 L 323.96509742330267 180.78490257669733 L 322.7658657739993 179.48758108742913 L 321.6721176265637 178.10016817658064 L 320.69059630203293 176.63121770610886 L 319.8273532057617 175.08978624413982 L 319.08771051849607 173.48537722821453 L 318.47622838335906 171.82788237343632 L 317.99667679105227 170.12752068675786 L 317.6520123366094 168.3947754634052 L 317.4443599910046 166.6403296538765 L 317.375 164.875 L 317.4443599910046 163.1096703461235 L 317.6520123366094 161.35522453659482 L 317.99667679105227 159.62247931324214 L 318.47622838335906 157.92211762656368 L 319.08771051849607 156.26462277178547 L 319.8273532057617 154.6602137558602 L 320.69059630203293 153.11878229389114 L 321.6721176265637 151.64983182341936 L 322.7658657739993 150.26241891257087 L 323.96509742330267 148.9650974233027 L 325.26241891257087 147.7658657739993 L 326.64983182341933 146.67211762656368 L 328.1187822938912 145.69059630203293 L 329.66021375586024 144.8273532057617 L 331.2646227717855 144.08771051849604 L 332.9221176265637 143.47622838335903 L 334.6224793132422 142.99667679105227 L 336.35522453659485 142.6520123366094 L 338.10967034612355 142.4443599910046 L 339.87500000000006 142.375 L 341.6403296538766 142.44435999100463 L 343.39477546340527 142.6520123366094 L 345.127520686758 142.9966767910523 L 346.8278823734364 143.47622838335909 L 348.48537722821465 144.0877105184961 L 350.08978624413993 144.8273532057618 L 351.631217706109 145.690596302033 L 353.1001681765808 146.67211762656376 L 354.48758108742925 147.76586577399942 L 355.78490257669745 148.9650974233028 L 356.98413422600083 150.262418912571 L 358.0778823734364 151.6498318234195 L 359.0594036979672 153.11878229389131 L 359.9226467942384 154.66021375586038 L 360.66228948150405 156.2646227717857 L 361.27377161664106 157.9221176265639 L 361.7533232089478 159.62247931324237 L 362.09798766339065 161.35522453659505 L 362.3056400089954 163.10967034612375 Z" fill-opacity="1" stroke-opacity="1" stroke-miterlimit="10" stroke-width="6"/><text fill="rgb(255,255,255)" stroke="none" font-family="times new roman" font-size="15px" font-style="normal" font-weight="normal" text-decoration="normal" x="339.875" y="172.375" text-anchor="middle" dominant-baseline="text-after-edge" fill-opacity="1">*34</text><path fill="rgb(69,90,100)" stroke="rgb(255,193,7)" paint-order="fill stroke markers" d=" M 453.25 81.375 L 453.25 101.375 L 548.25 101.375 L 548.25 81.375 Z" fill-opacity="1" stroke-opacity="1" stroke-miterlimit="10" stroke-width="6"/><text fill="rgb(255,255,255)" stroke="none" font-family="times new roman" font-size="10px" font-style="normal" font-weight="normal" text-decoration="normal" x="500.75" y="96.375" text-anchor="middle" dominant-baseline="text-after-edge" fill-opacity="1">42126611C&gt;G</text><path fill="rgb(69,90,100)" stroke="rgb(76,175,80)" paint-order="fill stroke markers" d=" M 610.5 91.375 L 610.4460533403297 92.74803417523728 L 610.2845459604149 94.11260313820404 L 610.0164736069594 95.46029386747834 L 609.6434890351652 96.78279740156158 L 609.1678918189475 98.07196006638907 L 608.5926141732964 99.31983374544207 L 607.9212028761966 100.5187248825291 L 607.1577974015615 101.66124191511828 L 606.3071043980005 102.7403408457782 L 605.3743686707646 103.74936867076458 L 604.3653408457782 104.68210439800055 L 603.2862419151182 105.53279740156158 L 602.1437248825291 106.29620287619662 L 600.9448337454421 106.96761417329644 L 599.6969600663891 107.54289181894751 L 598.4077974015615 108.01848903516519 L 597.0852938674783 108.39147360695934 L 595.737603138204 108.6595459604149 L 594.3730341752373 108.82105334032974 L 593 108.875 L 591.6269658247627 108.82105334032974 L 590.262396861796 108.6595459604149 L 588.9147061325217 108.39147360695934 L 587.5922025984385 108.01848903516519 L 586.3030399336109 107.54289181894751 L 585.0551662545579 106.96761417329644 L 583.8562751174709 106.29620287619662 L 582.7137580848818 105.53279740156158 L 581.6346591542218 104.68210439800055 L 580.6256313292354 103.74936867076458 L 579.6928956019995 102.74034084577822 L 578.8422025984385 101.66124191511828 L 578.0787971238034 100.51872488252911 L 577.4073858267036 99.31983374544207 L 576.8321081810525 98.07196006638907 L 576.3565109648348 96.78279740156158 L 575.9835263930406 95.46029386747834 L 575.7154540395851 94.11260313820404 L 575.5539466596703 92.7480341752373 L 575.5 91.375 L 575.5539466596703 90.00196582476272 L 575.7154540395851 88.63739686179596 L 575.9835263930406 87.28970613252166 L 576.3565109648348 85.96720259843842 L 576.8321081810525 84.67803993361093 L 577.4073858267036 83.43016625455793 L 578.0787971238034 82.2312751174709 L 578.8422025984385 81.08875808488172 L 579.6928956019995 80.0096591542218 L 580.6256313292354 79.00063132923542 L 581.6346591542218 78.06789560199947 L 582.7137580848818 77.21720259843842 L 583.8562751174709 76.45379712380338 L 585.0551662545579 75.78238582670356 L 586.303039933611 75.20710818105248 L 587.5922025984385 74.7315109648348 L 588.9147061325217 74.35852639304065 L 590.262396861796 74.09045403958508 L 591.6269658247628 73.92894665967026 L 593.0000000000001 73.875 L 594.3730341752373 73.92894665967026 L 595.7376031382041 74.0904540395851 L 597.0852938674784 74.35852639304068 L 598.4077974015617 74.73151096483484 L 599.6969600663891 75.20710818105252 L 600.9448337454421 75.7823858267036 L 602.1437248825292 76.45379712380344 L 603.2862419151184 77.21720259843849 L 604.3653408457783 78.06789560199954 L 605.3743686707646 79.00063132923552 L 606.3071043980007 80.0096591542219 L 607.1577974015617 81.08875808488185 L 607.9212028761967 82.23127511747103 L 608.5926141732965 83.43016625455807 L 609.1678918189476 84.67803993361109 L 609.6434890351652 85.96720259843859 L 610.0164736069594 87.28970613252184 L 610.2845459604149 88.63739686179616 L 610.4460533403297 90.00196582476292 Z" fill-opacity="1" stroke-opacity="1" stroke-miterlimit="10" stroke-width="6"/><text fill="rgb(255,255,255)" stroke="none" font-family="times new roman" font-size="10px" font-style="normal" font-weight="normal" text-decoration="normal" x="593" y="96.375" text-anchor="middle" dominant-baseline="text-after-edge" fill-opacity="1">*39.2</text><path fill="rgb(69,90,100)" stroke="rgb(76,175,80)" paint-order="fill stroke markers" d=" M 710.125 154.875 L 710.125 174.875 L 805.125 174.875 L 805.125 154.875 Z" fill-opacity="1" stroke-opacity="1" stroke-miterlimit="10" stroke-width="6"/><text fill="rgb(255,255,255)" stroke="none" font-family="times new roman" font-size="10px" font-style="normal" font-weight="normal" text-decoration="normal" x="757.625" y="169.875" text-anchor="middle" dominant-baseline="text-after-edge" fill-opacity="1">42127407T&gt;G</text><path fill="rgb(69,90,100)" stroke="rgb(69,90,100)" paint-order="fill stroke markers" d=" M 785 493.125 L 766.25 510.625 L 785 528.125 L 822.5 528.125 L 841.25 510.625 L 822.5 493.125 Z" fill-opacity="1" stroke-opacity="1" stroke-miterlimit="10" stroke-width="2"/><text fill="rgb(255,255,255)" stroke="none" font-family="times new roman" font-size="10px" font-style="normal" font-weight="normal" text-decoration="normal" x="803.75" y="515.625" text-anchor="middle" dominant-baseline="text-after-edge" fill-opacity="1">NA12336-B</text><path fill="rgb(69,90,100)" stroke="rgb(76,175,80)" paint-order="fill stroke markers" d=" M 775.125 242.125 L 775.0710533403297 243.49803417523728 L 774.9095459604149 244.86260313820404 L 774.6414736069594 246.21029386747836 L 774.2684890351652 247.53279740156157 L 773.7928918189475 248.82196006638907 L 773.2176141732964 250.06983374544205 L 772.5462028761966 251.2687248825291 L 771.7827974015615 252.41124191511827 L 770.9321043980005 253.4903408457782 L 769.9993686707646 254.49936867076457 L 768.9903408457782 255.43210439800055 L 767.9112419151182 256.2827974015616 L 766.7687248825291 257.0462028761966 L 765.5698337454421 257.71761417329645 L 764.3219600663891 258.2928918189475 L 763.0327974015615 258.7684890351652 L 761.7102938674783 259.1414736069593 L 760.362603138204 259.4095459604149 L 758.9980341752373 259.57105334032974 L 757.625 259.625 L 756.2519658247627 259.57105334032974 L 754.887396861796 259.4095459604149 L 753.5397061325217 259.1414736069593 L 752.2172025984385 258.7684890351652 L 750.9280399336109 258.2928918189475 L 749.6801662545579 257.71761417329645 L 748.4812751174709 257.0462028761966 L 747.3387580848818 256.2827974015616 L 746.2596591542218 255.43210439800055 L 745.2506313292354 254.49936867076457 L 744.3178956019995 253.4903408457782 L 743.4672025984385 252.4112419151183 L 742.7037971238034 251.2687248825291 L 742.0323858267036 250.06983374544208 L 741.4571081810525 248.82196006638907 L 740.9815109648348 247.5327974015616 L 740.6085263930406 246.21029386747836 L 740.3404540395851 244.86260313820404 L 740.1789466596703 243.49803417523728 L 740.125 242.125 L 740.1789466596703 240.75196582476272 L 740.3404540395851 239.38739686179596 L 740.6085263930406 238.03970613252164 L 740.9815109648348 236.71720259843843 L 741.4571081810525 235.42803993361093 L 742.0323858267036 234.18016625455795 L 742.7037971238034 232.9812751174709 L 743.4672025984385 231.83875808488173 L 744.3178956019995 230.7596591542218 L 745.2506313292354 229.75063132923543 L 746.2596591542218 228.81789560199945 L 747.3387580848818 227.96720259843843 L 748.4812751174709 227.20379712380338 L 749.6801662545579 226.53238582670355 L 750.928039933611 225.9571081810525 L 752.2172025984385 225.4815109648348 L 753.5397061325217 225.10852639304065 L 754.887396861796 224.8404540395851 L 756.2519658247628 224.67894665967026 L 757.6250000000001 224.625 L 758.9980341752373 224.67894665967026 L 760.3626031382041 224.8404540395851 L 761.7102938674784 225.10852639304068 L 763.0327974015617 225.48151096483485 L 764.3219600663891 225.95710818105252 L 765.5698337454421 226.5323858267036 L 766.7687248825292 227.20379712380344 L 767.9112419151184 227.9672025984385 L 768.9903408457783 228.81789560199954 L 769.9993686707646 229.75063132923552 L 770.9321043980007 230.7596591542219 L 771.7827974015617 231.83875808488185 L 772.5462028761967 232.98127511747103 L 773.2176141732965 234.1801662545581 L 773.7928918189476 235.4280399336111 L 774.2684890351652 236.7172025984386 L 774.6414736069594 238.03970613252184 L 774.9095459604149 239.38739686179616 L 775.0710533403297 240.75196582476292 Z" fill-opacity="1" stroke-opacity="1" stroke-miterlimit="10" stroke-width="6"/><text fill="rgb(255,255,255)" stroke="none" font-family="times new roman" font-size="10px" font-style="normal" font-weight="normal" text-decoration="normal" x="757.625" y="247.125" text-anchor="middle" dominant-baseline="text-after-edge" fill-opacity="1">*1.41</text><path fill="rgb(69,90,100)" stroke="rgb(244,67,54)" paint-order="fill stroke markers" d=" M 595.375 154.875 L 595.375 174.875 L 690.375 174.875 L 690.375 154.875 Z" fill-opacity="1" stroke-opacity="1" stroke-miterlimit="10" stroke-width="6"/><text fill="rgb(255,255,255)" stroke="none" font-family="times new roman" font-size="10px" font-style="normal" font-weight="normal" text-decoration="normal" x="642.875" y="169.875" text-anchor="middle" dominant-baseline="text-after-edge" fill-opacity="1">42127803C&gt;T</text><path fill="rgb(69,90,100)" stroke="rgb(76,175,80)" paint-order="fill stroke markers" d=" M 140.875 232.125 L 140.875 252.125 L 235.87499999999997 252.125 L 235.875 232.125 Z" fill-opacity="1" stroke-opacity="1" stroke-miterlimit="10" stroke-width="6"/><text fill="rgb(255,255,255)" stroke="none" font-family="times new roman" font-size="10px" font-style="normal" font-weight="normal" text-decoration="normal" x="188.375" y="247.125" text-anchor="middle" dominant-baseline="text-after-edge" fill-opacity="1">42130482C&gt;A</text><path fill="rgb(69,90,100)" stroke="rgb(76,175,80)" paint-order="fill stroke markers" d=" M 205.875 379 L 205.82105334032974 380.3730341752373 L 205.6595459604149 381.73760313820407 L 205.39147360695935 383.08529386747836 L 205.01848903516517 384.4077974015616 L 204.5428918189475 385.69696006638907 L 203.96761417329643 386.94483374544205 L 203.29620287619662 388.1437248825291 L 202.5327974015616 389.2862419151183 L 201.68210439800055 390.36534084577823 L 200.74936867076457 391.37436867076457 L 199.7403408457782 392.30710439800055 L 198.66124191511827 393.1577974015616 L 197.5187248825291 393.9212028761966 L 196.31983374544208 394.59261417329645 L 195.07196006638907 395.1678918189475 L 193.7827974015616 395.6434890351652 L 192.46029386747836 396.0164736069593 L 191.11260313820404 396.2845459604149 L 189.74803417523728 396.44605334032974 L 188.375 396.5 L 187.00196582476272 396.44605334032974 L 185.63739686179596 396.2845459604149 L 184.28970613252164 396.0164736069593 L 182.96720259843843 395.6434890351652 L 181.67803993361093 395.1678918189475 L 180.43016625455795 394.59261417329645 L 179.2312751174709 393.9212028761966 L 178.08875808488173 393.1577974015616 L 177.0096591542218 392.30710439800055 L 176.00063132923543 391.37436867076457 L 175.06789560199945 390.36534084577823 L 174.21720259843843 389.2862419151183 L 173.45379712380338 388.1437248825291 L 172.78238582670357 386.94483374544205 L 172.2071081810525 385.69696006638907 L 171.73151096483483 384.4077974015616 L 171.35852639304065 383.08529386747836 L 171.0904540395851 381.73760313820407 L 170.92894665967026 380.3730341752373 L 170.875 379 L 170.92894665967026 377.6269658247627 L 171.0904540395851 376.26239686179593 L 171.35852639304065 374.91470613252164 L 171.7315109648348 373.5922025984384 L 172.2071081810525 372.30303993361093 L 172.78238582670357 371.05516625455795 L 173.45379712380338 369.8562751174709 L 174.2172025984384 368.7137580848817 L 175.06789560199945 367.63465915422177 L 176.0006313292354 366.62563132923543 L 177.00965915422177 365.69289560199945 L 178.0887580848817 364.8422025984384 L 179.2312751174709 364.0787971238034 L 180.43016625455795 363.40738582670355 L 181.67803993361096 362.8321081810525 L 182.96720259843843 362.3565109648348 L 184.2897061325217 361.9835263930407 L 185.637396861796 361.7154540395851 L 187.00196582476278 361.55394665967026 L 188.37500000000006 361.5 L 189.74803417523736 361.55394665967026 L 191.11260313820412 361.7154540395851 L 192.4602938674784 361.9835263930407 L 193.78279740156165 362.35651096483485 L 195.07196006638915 362.8321081810525 L 196.31983374544217 363.4073858267036 L 197.5187248825292 364.07879712380344 L 198.66124191511838 364.8422025984385 L 199.74034084577832 365.69289560199957 L 200.74936867076468 366.6256313292355 L 201.68210439800063 367.6346591542219 L 202.53279740156168 368.7137580848818 L 203.2962028761967 369.85627511747106 L 203.9676141732965 371.05516625455806 L 204.5428918189476 372.3030399336111 L 205.01848903516523 373.5922025984386 L 205.39147360695938 374.9147061325218 L 205.65954596041493 376.26239686179616 L 205.82105334032974 377.6269658247629 Z" fill-opacity="1" stroke-opacity="1" stroke-miterlimit="10" stroke-width="6"/><text fill="rgb(255,255,255)" stroke="none" font-family="times new roman" font-size="10px" font-style="normal" font-weight="normal" text-decoration="normal" x="188.375" y="384" text-anchor="middle" dominant-baseline="text-after-edge" fill-opacity="1">*1.58</text><path fill="rgb(176,190,197)" stroke="none" paint-order="stroke fill markers" d=" M 848.75 274 L 848.75 484 L 923.75 484 L 923.75 274.00000000000006 Z" fill-opacity="0.8"/><text fill="rgb(0,0,0)" stroke="none" font-family="times new roman" font-size="10px" font-style="normal" font-weight="normal" text-decoration="normal" x="853.75" y="289" text-anchor="start" dominant-baseline="text-after-edge" fill-opacity="0.8">42126310C&gt;T </text><text fill="rgb(0,0,0)" stroke="none" font-family="times new roman" font-size="10px" font-style="normal" font-weight="normal" text-decoration="normal" x="853.75" y="299" text-anchor="start" dominant-baseline="text-after-edge" fill-opacity="0.8">42127001G&gt;A </text><text fill="rgb(0,0,0)" stroke="none" font-family="times new roman" font-size="10px" font-style="normal" font-weight="normal" text-decoration="normal" x="853.75" y="309" text-anchor="start" dominant-baseline="text-after-edge" fill-opacity="0.8">42127207C&gt;T </text><text fill="rgb(0,0,0)" stroke="none" font-family="times new roman" font-size="10px" font-style="normal" font-weight="normal" text-decoration="normal" x="853.75" y="319" text-anchor="start" dominant-baseline="text-after-edge" fill-opacity="0.8">42129130C&gt;G </text><text fill="rgb(0,0,0)" stroke="none" font-family="times new roman" font-size="10px" font-style="normal" font-weight="normal" text-decoration="normal" x="853.75" y="329" text-anchor="start" dominant-baseline="text-after-edge" fill-opacity="0.8">42131469C&gt;T </text><text fill="rgb(0,0,0)" stroke="none" font-family="times new roman" font-size="10px" font-style="normal" font-weight="normal" text-decoration="normal" x="853.75" y="339" text-anchor="start" dominant-baseline="text-after-edge" fill-opacity="0.8">42131531G&gt;A </text><path fill="rgb(176,190,197)" stroke="none" paint-order="stroke fill markers" d=" M 1009.625 274 L 1076.625 274 L 1076.625 274 A 8 8 0 0 1 1084.625 282 L 1084.625 476 L 1084.625 476 A 8 8 0 0 1 1076.625 484 L 942.625 484 L 942.625 484 A 8 8 0 0 1 934.625 476 L 934.625 282 L 934.625 282 A 8 8 0 0 1 942.625 274 L 1009.625 274 Z" fill-opacity="0.8"/><text fill="rgb(0,0,0)" stroke="none" font-family="times new roman" font-size="10px" font-style="normal" font-weight="normal" text-decoration="normal" x="939.625" y="289" text-anchor="start" dominant-baseline="text-after-edge" fill-opacity="0.8">42132027C&gt;T </text><text fill="rgb(0,0,0)" stroke="none" font-family="times new roman" font-size="10px" font-style="normal" font-weight="normal" text-decoration="normal" x="939.625" y="299" text-anchor="start" dominant-baseline="text-after-edge" fill-opacity="0.8">42132561C&gt;T </text><text fill="rgb(0,0,0)" stroke="none" font-family="times new roman" font-size="10px" font-style="normal" font-weight="normal" text-decoration="normal" x="939.625" y="309" text-anchor="start" dominant-baseline="text-after-edge" fill-opacity="0.8">42132844C&gt;A </text><text fill="rgb(0,0,0)" stroke="none" font-family="times new roman" font-size="10px" font-style="normal" font-weight="normal" text-decoration="normal" x="939.625" y="319" text-anchor="start" dominant-baseline="text-after-edge" fill-opacity="0.8">42132851T&gt;C </text><text fill="rgb(0,0,0)" stroke="none" font-family="times new roman" font-size="10px" font-style="normal" font-weight="normal" text-decoration="normal" x="939.625" y="329" text-anchor="start" dominant-baseline="text-after-edge" fill-opacity="0.8">42133400T&gt;G </text><text fill="rgb(0,0,0)" stroke="none" font-family="times new roman" font-size="10px" font-style="normal" font-weight="normal" text-decoration="normal" x="939.625" y="339" text-anchor="start" dominant-baseline="text-after-edge" fill-opacity="0.8">42133533A&gt;C </text><text fill="rgb(0,0,0)" stroke="none" font-family="times new roman" font-size="10px" font-style="normal" font-weight="normal" text-decoration="normal" x="939.625" y="349" text-anchor="start" dominant-baseline="text-after-edge" fill-opacity="0.8">42134096del </text><text fill="rgb(0,0,0)" stroke="none" font-family="times new roman" font-size="10px" font-style="normal" font-weight="normal" text-decoration="normal" x="939.625" y="359" text-anchor="start" dominant-baseline="text-after-edge" fill-opacity="0.8">42134820T&gt;G </text><text fill="rgb(0,0,0)" stroke="none" font-family="times new roman" font-size="10px" font-style="normal" font-weight="normal" text-decoration="normal" x="939.625" y="369" text-anchor="start" dominant-baseline="text-after-edge" fill-opacity="0.8">42135064_42135066dup </text><text fill="rgb(0,0,0)" stroke="none" font-family="times new roman" font-size="10px" font-style="normal" font-weight="normal" text-decoration="normal" x="939.625" y="379" text-anchor="start" dominant-baseline="text-after-edge" fill-opacity="0.8">42135201T&gt;C </text><g transform="scale(0.9913793103448276,0.9913793103448276) translate(108.06521739130437,-1.3913043478261216)"/></g></svg>