<svg version="1.1" xmlns="http://www.w3.org/2000/svg" xmlns:xlink="http://www.w3.org/1999/xlink" width="1017" height="608"><defs/><g transform="translate(-115.68050541516243,99.22021660649818) scale(0.8375451263537906,0.8375451263537906)"><path fill="none" stroke="rgb(120,144,156)" paint-order="fill stroke markers" d=" M 670.4117040942137 160.4504993235529 L 809.8697466211723 266.2159475425277" stroke-opacity="1" stroke-linejoin="round" stroke-miterlimit="10"/><path fill="rgb(120,144,156)" stroke="none" paint-order="stroke fill markers" d=" M 801.902753451441 265.6332642379331 L 811.4632959057863 267.4245006764471 L 807.1599595839903 258.70132484986243 Z" fill-opacity="1"/><path fill="none" stroke="rgb(55,71,79)" paint-order="fill stroke markers" d=" M 1183.6042768064626 163.82001199271423 L 1215.0803781107097 259.306336117363" stroke-opacity="1" stroke-linejoin="round" stroke-miterlimit="10" stroke-width="2"/><path fill="none" stroke="rgb(120,144,156)" paint-order="fill stroke markers" d=" M 450.7768351800554 157.25 L 456.88023090796435 174.73671315694554" stroke-opacity="1" stroke-linejoin="round" stroke-miterlimit="10"/><path fill="rgb(120,144,156)" stroke="none" paint-order="stroke fill markers" d=" M 450.5653237100459 169.84442871287675 L 457.5393005540166 176.625 L 458.7793714773328 166.97747575254948 Z" fill-opacity="1"/><path fill="none" stroke="rgb(120,144,156)" paint-order="fill stroke markers" d=" M 288.7654647625816 285.55401896697595 L 842.9589907415399 406.0010329723099" stroke-opacity="1" stroke-linejoin="round" stroke-miterlimit="10"/><path fill="rgb(120,144,156)" stroke="none" paint-order="stroke fill markers" d=" M 835.4879855298835 408.82885565547156 L 844.9133653104676 406.42579177955054 L 837.3356863413803 400.3273262806359 Z" fill-opacity="1"/><path fill="none" stroke="rgb(120,144,156)" paint-order="fill stroke markers" d=" M 569.1875 307.45915112855744 L 846.0797821168215 402.83617862905237" stroke-opacity="1" stroke-linejoin="round" stroke-miterlimit="10"/><path fill="rgb(120,144,156)" stroke="none" paint-order="stroke fill markers" d=" M 838.3283656555844 404.7669926657899 L 847.9707449015455 403.4875308738395 L 841.1617479204085 396.541304552241 Z" fill-opacity="1"/><path fill="none" stroke="rgb(120,144,156)" paint-order="fill stroke markers" d=" M 830.1875 169.75 L 830.1875 256.125" stroke-opacity="1" stroke-linejoin="round" stroke-miterlimit="10"/><path fill="rgb(120,144,156)" stroke="none" paint-order="stroke fill markers" d=" M 825.8375 249.425 L 830.1875 258.125 L 834.5375 249.425 Z" fill-opacity="1"/><path fill="none" stroke="rgb(120,144,156)" paint-order="fill stroke markers" d=" M 837.9591777645829 303.80271459649276 L 869.1681746328742 392.86253492795805" stroke-opacity="1" stroke-linejoin="round" stroke-miterlimit="10"/><path fill="rgb(120,144,156)" stroke="none" paint-order="stroke fill markers" d=" M 862.8471831640466 387.9781140972957 L 869.829594017094 394.75 L 871.057656227429 385.1009397759395 Z" fill-opacity="1"/><path fill="none" stroke="rgb(55,71,79)" paint-order="fill stroke markers" d=" M 1263.4364612188365 157.25 L 1229.7946218892903 259.306336117363" stroke-opacity="1" stroke-linejoin="round" stroke-miterlimit="10" stroke-width="2"/><path fill="none" stroke="rgb(55,71,79)" paint-order="fill stroke markers" d=" M 616.9570069381315 91.38165801990523 L 639.1188019975086 126.39356954228255" stroke-opacity="1" stroke-linejoin="round" stroke-miterlimit="10" stroke-width="2"/><path fill="none" stroke="rgb(120,144,156)" paint-order="fill stroke markers" d=" M 227.2768351800554 157.25 L 263.93203612796447 262.2700598586918" stroke-opacity="1" stroke-linejoin="round" stroke-miterlimit="10"/><path fill="rgb(120,144,156)" stroke="none" paint-order="stroke fill markers" d=" M 257.61712893004596 257.37777541462304 L 264.5911057740167 264.15834670174627 L 265.83117669733286 254.51082245429575 Z" fill-opacity="1"/><path fill="none" stroke="rgb(55,71,79)" paint-order="fill stroke markers" d=" M 999.3125 86.75 L 999.3125 127.75" stroke-opacity="1" stroke-linejoin="round" stroke-miterlimit="10" stroke-width="2"/><path fill="none" stroke="rgb(55,71,79)" paint-order="fill stroke markers" d=" M 689.3497340425532 86.75 L 664.2561980024914 126.39356954228255" stroke-opacity="1" stroke-linejoin="round" stroke-miterlimit="10" stroke-width="2"/><path fill="none" stroke="rgb(120,144,156)" paint-order="fill stroke markers" d=" M 1005.1042768064626 163.82001199271423 L 1037.5195851604062 262.1555272513167" stroke-opacity="1" stroke-linejoin="round" stroke-miterlimit="10"/><path fill="rgb(120,144,156)" stroke="none" paint-order="stroke fill markers" d=" M 1031.2906956051843 257.1541839408803 L 1038.1457231935374 264.0549880072858 L 1039.55334989365 254.43048349676005 Z" fill-opacity="1"/><path fill="none" stroke="rgb(120,144,156)" paint-order="fill stroke markers" d=" M 912.6875 348.4397208121827 L 887.6745615417497 393.00592080632424" stroke-opacity="1" stroke-linejoin="round" stroke-miterlimit="10"/><path fill="rgb(120,144,156)" stroke="none" paint-order="stroke fill markers" d=" M 887.1604060016767 385.03421182514506 L 886.6956908831909 394.75 L 894.7471504941662 389.2922991898757 Z" fill-opacity="1"/><path fill="none" stroke="rgb(120,144,156)" paint-order="fill stroke markers" d=" M 553.446502770083 157.25 L 545.075456257275 174.819463901882" stroke-opacity="1" stroke-linejoin="round" stroke-miterlimit="10"/><path fill="rgb(120,144,156)" stroke="none" paint-order="stroke fill markers" d=" M 544.0302709218064 166.89986242109262 L 544.215200831025 176.625 L 551.8843529486197 170.6419735252807 Z" fill-opacity="1"/><path fill="none" stroke="rgb(120,144,156)" paint-order="fill stroke markers" d=" M 329.9465027700831 157.25 L 279.50511811906387 263.1182549942904" stroke-opacity="1" stroke-linejoin="round" stroke-miterlimit="10"/><path fill="rgb(120,144,156)" stroke="none" paint-order="stroke fill markers" d=" M 278.45993278359515 255.19865351350103 L 278.6448626928137 264.9237910924084 L 286.3140148104085 258.9407646176891 Z" fill-opacity="1"/><path fill="none" stroke="rgb(120,144,156)" paint-order="fill stroke markers" d=" M 1029.3872227857917 293.05038546350585 L 899.073473992738 395.3772888781857" stroke-opacity="1" stroke-linejoin="round" stroke-miterlimit="10"/><path fill="rgb(120,144,156)" stroke="none" paint-order="stroke fill markers" d=" M 901.6565242937619 387.8181651761697 L 897.5004710506613 396.6124656850512 L 907.0295434036268 394.6607279742028 Z" fill-opacity="1"/><path fill="none" stroke="rgb(55,71,79)" paint-order="fill stroke markers" d=" M 795.4570069381315 91.38165801990523 L 817.6188019975086 126.39356954228255" stroke-opacity="1" stroke-linejoin="round" stroke-miterlimit="10" stroke-width="2"/><path fill="none" stroke="rgb(55,71,79)" paint-order="fill stroke markers" d=" M 867.8497340425532 86.75 L 842.7561980024914 126.39356954228255" stroke-opacity="1" stroke-linejoin="round" stroke-miterlimit="10" stroke-width="2"/><path fill="none" stroke="rgb(120,144,156)" paint-order="fill stroke markers" d=" M 1200.4721410667253 289.978023819696 L 905.7666461020883 402.04912753864244" stroke-opacity="1" stroke-linejoin="round" stroke-miterlimit="10"/><path fill="rgb(120,144,156)" stroke="none" paint-order="stroke fill markers" d=" M 910.4829121121845 395.6016989875059 L 903.8972538524479 402.7600231828719 L 913.5753081645827 403.7335552734417 Z" fill-opacity="1"/><path fill="none" stroke="rgb(120,144,156)" paint-order="fill stroke markers" d=" M 1084.9364612188365 157.25 L 1050.3554148395938 262.1555272513167" stroke-opacity="1" stroke-linejoin="round" stroke-miterlimit="10"/><path fill="rgb(120,144,156)" stroke="none" paint-order="stroke fill markers" d=" M 1048.32165010635 254.43048349676005 L 1049.7292768064626 264.0549880072858 L 1056.5843043948157 257.1541839408803 Z" fill-opacity="1"/><path fill="none" stroke="rgb(55,71,79)" paint-order="fill stroke markers" d=" M 921.4037283266703 161.00573836656417 L 844.3621559093648 262.8812242370671" stroke-opacity="1" stroke-linejoin="round" stroke-miterlimit="10" stroke-width="2"/><path fill="rgb(69,90,100)" stroke="rgb(76,175,80)" paint-order="fill stroke markers" d=" M 803.0625 75.75 L 803.0085533403297 77.12303417523728 L 802.8470459604149 78.48760313820404 L 802.5789736069594 79.83529386747834 L 802.2059890351652 81.15779740156158 L 801.7303918189475 82.44696006638907 L 801.1551141732964 83.69483374544207 L 800.4837028761966 84.8937248825291 L 799.7202974015615 86.03624191511828 L 798.8696043980005 87.1153408457782 L 797.9368686707646 88.12436867076458 L 796.9278408457782 89.05710439800055 L 795.8487419151182 89.90779740156158 L 794.7062248825291 90.67120287619662 L 793.5073337454421 91.34261417329644 L 792.2594600663891 91.91789181894751 L 790.9702974015615 92.39348903516519 L 789.6477938674783 92.76647360695934 L 788.300103138204 93.0345459604149 L 786.9355341752373 93.19605334032974 L 785.5625 93.25 L 784.1894658247627 93.19605334032974 L 782.824896861796 93.0345459604149 L 781.4772061325217 92.76647360695934 L 780.1547025984385 92.39348903516519 L 778.8655399336109 91.91789181894751 L 777.6176662545579 91.34261417329644 L 776.4187751174709 90.67120287619662 L 775.2762580848818 89.90779740156158 L 774.1971591542218 89.05710439800055 L 773.1881313292354 88.12436867076458 L 772.2553956019995 87.11534084577822 L 771.4047025984385 86.03624191511828 L 770.6412971238034 84.89372488252911 L 769.9698858267036 83.69483374544207 L 769.3946081810525 82.44696006638907 L 768.9190109648348 81.15779740156158 L 768.5460263930406 79.83529386747834 L 768.2779540395851 78.48760313820404 L 768.1164466596703 77.1230341752373 L 768.0625 75.75 L 768.1164466596703 74.37696582476272 L 768.2779540395851 73.01239686179596 L 768.5460263930406 71.66470613252166 L 768.9190109648348 70.34220259843842 L 769.3946081810525 69.05303993361093 L 769.9698858267036 67.80516625455793 L 770.6412971238034 66.6062751174709 L 771.4047025984385 65.46375808488172 L 772.2553956019995 64.3846591542218 L 773.1881313292354 63.37563132923542 L 774.1971591542218 62.44289560199947 L 775.2762580848818 61.59220259843842 L 776.4187751174709 60.82879712380338 L 777.6176662545579 60.15738582670356 L 778.865539933611 59.582108181052476 L 780.1547025984385 59.106510964834804 L 781.4772061325217 58.73352639304065 L 782.824896861796 58.46545403958508 L 784.1894658247628 58.30394665967026 L 785.5625000000001 58.25 L 786.9355341752373 58.30394665967027 L 788.3001031382041 58.4654540395851 L 789.6477938674784 58.73352639304068 L 790.9702974015617 59.10651096483484 L 792.2594600663891 59.58210818105252 L 793.5073337454421 60.15738582670361 L 794.7062248825292 60.82879712380345 L 795.8487419151184 61.59220259843849 L 796.9278408457783 62.44289560199954 L 797.9368686707646 63.37563132923552 L 798.8696043980007 64.3846591542219 L 799.7202974015617 65.46375808488185 L 800.4837028761967 66.60627511747103 L 801.1551141732965 67.80516625455807 L 801.7303918189476 69.05303993361109 L 802.2059890351652 70.34220259843859 L 802.5789736069594 71.66470613252184 L 802.8470459604149 73.01239686179616 L 803.0085533403297 74.37696582476292 Z" fill-opacity="1" stroke-opacity="1" stroke-miterlimit="10" stroke-width="2"/><text fill="rgb(255,255,255)" stroke="none" font-family="times new roman" font-size="10px" font-style="normal" font-weight="normal" text-decoration="normal" x="785.5625" y="80.75" text-anchor="middle" dominant-baseline="text-after-edge" fill-opacity="1">*34.1</text><path fill="rgb(69,90,100)" stroke="rgb(76,175,80)" paint-order="fill stroke markers" d=" M 175.9375 136.25 L 175.9375 156.25 L 270.9375 156.25 L 270.9375 136.25 Z" fill-opacity="1" stroke-opacity="1" stroke-miterlimit="10" stroke-width="2"/><text fill="rgb(255,255,255)" stroke="none" font-family="times new roman" font-size="10px" font-style="normal" font-weight="normal" text-decoration="normal" x="223.4375" y="151.25" text-anchor="middle" dominant-baseline="text-after-edge" fill-opacity="1">42129950A&gt;C</text><path fill="rgb(69,90,100)" stroke="rgb(76,175,80)" paint-order="fill stroke markers" d=" M 624.5625 75.75 L 624.5085533403297 77.12303417523728 L 624.3470459604149 78.48760313820404 L 624.0789736069594 79.83529386747834 L 623.7059890351652 81.15779740156158 L 623.2303918189475 82.44696006638907 L 622.6551141732964 83.69483374544207 L 621.9837028761966 84.8937248825291 L 621.2202974015615 86.03624191511828 L 620.3696043980005 87.1153408457782 L 619.4368686707646 88.12436867076458 L 618.4278408457782 89.05710439800055 L 617.3487419151182 89.90779740156158 L 616.2062248825291 90.67120287619662 L 615.0073337454421 91.34261417329644 L 613.7594600663891 91.91789181894751 L 612.4702974015615 92.39348903516519 L 611.1477938674783 92.76647360695934 L 609.800103138204 93.0345459604149 L 608.4355341752373 93.19605334032974 L 607.0625 93.25 L 605.6894658247627 93.19605334032974 L 604.324896861796 93.0345459604149 L 602.9772061325217 92.76647360695934 L 601.6547025984385 92.39348903516519 L 600.3655399336109 91.91789181894751 L 599.1176662545579 91.34261417329644 L 597.9187751174709 90.67120287619662 L 596.7762580848818 89.90779740156158 L 595.6971591542218 89.05710439800055 L 594.6881313292354 88.12436867076458 L 593.7553956019995 87.11534084577822 L 592.9047025984385 86.03624191511828 L 592.1412971238034 84.89372488252911 L 591.4698858267036 83.69483374544207 L 590.8946081810525 82.44696006638907 L 590.4190109648348 81.15779740156158 L 590.0460263930406 79.83529386747834 L 589.7779540395851 78.48760313820404 L 589.6164466596703 77.1230341752373 L 589.5625 75.75 L 589.6164466596703 74.37696582476272 L 589.7779540395851 73.01239686179596 L 590.0460263930406 71.66470613252166 L 590.4190109648348 70.34220259843842 L 590.8946081810525 69.05303993361093 L 591.4698858267036 67.80516625455793 L 592.1412971238034 66.6062751174709 L 592.9047025984385 65.46375808488172 L 593.7553956019995 64.3846591542218 L 594.6881313292354 63.37563132923542 L 595.6971591542218 62.44289560199947 L 596.7762580848818 61.59220259843842 L 597.9187751174709 60.82879712380338 L 599.1176662545579 60.15738582670356 L 600.365539933611 59.582108181052476 L 601.6547025984385 59.106510964834804 L 602.9772061325217 58.73352639304065 L 604.324896861796 58.46545403958508 L 605.6894658247628 58.30394665967026 L 607.0625000000001 58.25 L 608.4355341752373 58.30394665967027 L 609.8001031382041 58.4654540395851 L 611.1477938674784 58.73352639304068 L 612.4702974015617 59.10651096483484 L 613.7594600663891 59.58210818105252 L 615.0073337454421 60.15738582670361 L 616.2062248825292 60.82879712380345 L 617.3487419151184 61.59220259843849 L 618.4278408457783 62.44289560199954 L 619.4368686707646 63.37563132923552 L 620.3696043980007 64.3846591542219 L 621.2202974015617 65.46375808488185 L 621.9837028761967 66.60627511747103 L 622.6551141732965 67.80516625455807 L 623.2303918189476 69.05303993361109 L 623.7059890351652 70.34220259843859 L 624.0789736069594 71.66470613252184 L 624.3470459604149 73.01239686179616 L 624.5085533403297 74.37696582476292 Z" fill-opacity="1" stroke-opacity="1" stroke-miterlimit="10" stroke-width="2"/><text fill="rgb(255,255,255)" stroke="none" font-family="times new roman" font-size="10px" font-style="normal" font-weight="normal" text-decoration="normal" x="607.0625" y="80.75" text-anchor="middle" dominant-baseline="text-after-edge" fill-opacity="1">*39.2</text><path fill="rgb(69,90,100)" stroke="rgb(76,175,80)" paint-order="fill stroke markers" d=" M 287.6875 136.25 L 287.6875 156.25 L 382.6875 156.25 L 382.6875 136.25 Z" fill-opacity="1" stroke-opacity="1" stroke-miterlimit="10" stroke-width="2"/><text fill="rgb(255,255,255)" stroke="none" font-family="times new roman" font-size="10px" font-style="normal" font-weight="normal" text-decoration="normal" x="335.1875" y="151.25" text-anchor="middle" dominant-baseline="text-after-edge" fill-opacity="1">42130482C&gt;A</text><path fill="rgb(69,90,100)" stroke="rgb(255,193,7)" paint-order="fill stroke markers" d=" M 827.3125 65.75 L 827.3125 85.75 L 922.3125 85.75 L 922.3125 65.75 Z" fill-opacity="1" stroke-opacity="1" stroke-miterlimit="10" stroke-width="2"/><text fill="rgb(255,255,255)" stroke="none" font-family="times new roman" font-size="10px" font-style="normal" font-weight="normal" text-decoration="normal" x="874.8125" y="80.75" text-anchor="middle" dominant-baseline="text-after-edge" fill-opacity="1">42127941G&gt;A</text><path fill="rgb(69,90,100)" stroke="rgb(244,67,54)" paint-order="fill stroke markers" d=" M 1244.9375 281.625 L 1244.8681400089954 283.3903296538765 L 1244.6604876633905 285.1447754634052 L 1244.3158232089477 286.87752068675786 L 1243.836271616641 288.5778823734363 L 1243.2247894815039 290.23537722821453 L 1242.4851467942383 291.8397862441398 L 1241.6219036979671 293.3812177061088 L 1240.6403823734363 294.85016817658067 L 1239.5466342260006 296.23758108742913 L 1238.3474025766973 297.53490257669733 L 1237.0500810874291 298.7341342260007 L 1235.6626681765806 299.8278823734363 L 1234.1937177061088 300.80940369796707 L 1232.6522862441398 301.6726467942383 L 1231.0478772282145 302.41228948150393 L 1229.3903823734363 303.02377161664094 L 1227.6900206867579 303.50332320894773 L 1225.9572754634053 303.8479876633906 L 1224.2028296538765 304.0556400089954 L 1222.4375 304.125 L 1220.6721703461235 304.0556400089954 L 1218.9177245365947 303.8479876633906 L 1217.1849793132421 303.50332320894773 L 1215.4846176265637 303.02377161664094 L 1213.8271227717855 302.41228948150393 L 1212.2227137558602 301.6726467942383 L 1210.6812822938912 300.80940369796707 L 1209.2123318234194 299.8278823734363 L 1207.8249189125709 298.7341342260007 L 1206.5275974233027 297.53490257669733 L 1205.3283657739994 296.23758108742913 L 1204.2346176265637 294.85016817658067 L 1203.2530963020329 293.3812177061088 L 1202.3898532057617 291.8397862441398 L 1201.6502105184961 290.23537722821453 L 1201.038728383359 288.5778823734363 L 1200.5591767910523 286.87752068675786 L 1200.2145123366095 285.1447754634052 L 1200.0068599910046 283.3903296538765 L 1199.9375 281.625 L 1200.0068599910046 279.8596703461235 L 1200.2145123366095 278.1052245365948 L 1200.5591767910523 276.37247931324214 L 1201.038728383359 274.6721176265637 L 1201.6502105184961 273.01462277178547 L 1202.3898532057617 271.4102137558602 L 1203.2530963020329 269.8687822938912 L 1204.2346176265637 268.39983182341933 L 1205.3283657739994 267.01241891257087 L 1206.5275974233027 265.71509742330267 L 1207.8249189125709 264.51586577399934 L 1209.2123318234194 263.4221176265637 L 1210.6812822938912 262.44059630203293 L 1212.2227137558602 261.5773532057617 L 1213.8271227717855 260.837710518496 L 1215.4846176265637 260.22622838335906 L 1217.1849793132421 259.74667679105227 L 1218.917724536595 259.4020123366094 L 1220.6721703461235 259.1943599910046 L 1222.4375 259.125 L 1224.2028296538765 259.1943599910046 L 1225.9572754634053 259.4020123366094 L 1227.6900206867579 259.7466767910523 L 1229.3903823734365 260.22622838335906 L 1231.0478772282147 260.8377105184961 L 1232.65228624414 261.57735320576177 L 1234.193717706109 262.440596302033 L 1235.6626681765808 263.42211762656376 L 1237.0500810874294 264.5158657739994 L 1238.3474025766975 265.7150974233028 L 1239.5466342260008 267.012418912571 L 1240.6403823734365 268.3998318234195 L 1241.6219036979671 269.86878229389134 L 1242.4851467942383 271.4102137558604 L 1243.224789481504 273.0146227717857 L 1243.836271616641 274.67211762656393 L 1244.3158232089477 276.37247931324237 L 1244.6604876633905 278.1052245365951 L 1244.8681400089954 279.8596703461238 Z" fill-opacity="1" stroke-opacity="1" stroke-miterlimit="10" stroke-width="2"/><text fill="rgb(255,255,255)" stroke="none" font-family="times new roman" font-size="15px" font-style="normal" font-weight="normal" text-decoration="normal" x="1222.4375" y="289.125" text-anchor="middle" dominant-baseline="text-after-edge" fill-opacity="1">*3</text><path fill="rgb(3,169,244)" stroke="none" paint-order="stroke fill markers" d=" M 1222.4375 249.125 L 1246.9375 249.125 L 1246.9375 249.125 A 8 8 0 0 1 1254.9375 257.125 L 1254.9375 306.125 L 1254.9375 306.125 A 8 8 0 0 1 1246.9375 314.125 L 1197.9375 314.125 L 1197.9375 314.125 A 8 8 0 0 1 1189.9375 306.125 L 1189.9375 257.125 L 1189.9375 257.125 A 8 8 0 0 1 1197.9375 249.125 L 1222.4375 249.125 Z" fill-opacity="0.15"/><path fill="rgb(69,90,100)" stroke="rgb(76,175,80)" paint-order="fill stroke markers" d=" M 446.9375 136.25 L 489.4375 136.25 L 489.4375 136.25 A 5 5 0 0 1 494.4375 141.25 L 494.4375 151.25 L 494.4375 151.25 A 5 5 0 0 1 489.4375 156.25 L 404.4375 156.25 L 404.4375 156.25 A 5 5 0 0 1 399.4375 151.25 L 399.4375 141.25 L 399.4375 141.25 A 5 5 0 0 1 404.4375 136.25 L 446.9375 136.25 Z" fill-opacity="1" stroke-opacity="1" stroke-miterlimit="10" stroke-width="2"/><text fill="rgb(255,255,255)" stroke="none" font-family="times new roman" font-size="10px" font-style="normal" font-weight="normal" text-decoration="normal" x="446.9375" y="151.25" text-anchor="middle" dominant-baseline="text-after-edge" fill-opacity="1">42132025_4213202…</text><path fill="rgb(69,90,100)" stroke="rgb(69,90,100)" paint-order="fill stroke markers" d=" M 857.5625 395.75 L 838.8125 413.25 L 857.5625 430.75 L 895.0625 430.75 L 913.8125 413.25 L 895.0625 395.75 Z" fill-opacity="1" stroke-opacity="1" stroke-miterlimit="10" stroke-width="2"/><text fill="rgb(255,255,255)" stroke="none" font-family="times new roman" font-size="10px" font-style="normal" font-weight="normal" text-decoration="normal" x="876.3125" y="418.25" text-anchor="middle" dominant-baseline="text-after-edge" fill-opacity="1">NA12892-all</text><path fill="rgb(69,90,100)" stroke="rgb(244,67,54)" paint-order="fill stroke markers" d=" M 1195.3125 146.25 L 1195.2585533403299 147.62303417523728 L 1195.097045960415 148.98760313820404 L 1194.8289736069594 150.33529386747836 L 1194.4559890351652 151.65779740156157 L 1193.9803918189475 152.94696006638907 L 1193.4051141732964 154.19483374544205 L 1192.7337028761965 155.3937248825291 L 1191.9702974015615 156.53624191511827 L 1191.1196043980005 157.6153408457782 L 1190.1868686707646 158.62436867076457 L 1189.1778408457783 159.55710439800055 L 1188.0987419151184 160.4077974015616 L 1186.956224882529 161.17120287619662 L 1185.757333745442 161.84261417329643 L 1184.509460066389 162.4178918189475 L 1183.2202974015615 162.89348903516517 L 1181.8977938674784 163.26647360695935 L 1180.5501031382041 163.5345459604149 L 1179.1855341752373 163.69605334032974 L 1177.8125 163.75 L 1176.4394658247627 163.69605334032974 L 1175.0748968617959 163.5345459604149 L 1173.7272061325216 163.26647360695935 L 1172.4047025984385 162.8934890351652 L 1171.115539933611 162.4178918189475 L 1169.867666254558 161.84261417329643 L 1168.668775117471 161.17120287619662 L 1167.5262580848816 160.4077974015616 L 1166.4471591542217 159.55710439800055 L 1165.4381313292354 158.62436867076457 L 1164.5053956019995 157.6153408457782 L 1163.6547025984385 156.5362419151183 L 1162.8912971238035 155.3937248825291 L 1162.2198858267036 154.19483374544208 L 1161.6446081810525 152.94696006638907 L 1161.1690109648348 151.6577974015616 L 1160.7960263930406 150.33529386747836 L 1160.527954039585 148.98760313820404 L 1160.3664466596701 147.62303417523728 L 1160.3125 146.25 L 1160.3664466596701 144.87696582476272 L 1160.527954039585 143.51239686179596 L 1160.7960263930406 142.16470613252164 L 1161.1690109648348 140.84220259843843 L 1161.6446081810525 139.55303993361093 L 1162.2198858267036 138.30516625455795 L 1162.8912971238035 137.1062751174709 L 1163.6547025984385 135.96375808488173 L 1164.5053956019995 134.8846591542218 L 1165.4381313292354 133.87563132923543 L 1166.4471591542217 132.94289560199945 L 1167.5262580848816 132.09220259843843 L 1168.668775117471 131.32879712380338 L 1169.867666254558 130.65738582670355 L 1171.115539933611 130.0821081810525 L 1172.4047025984385 129.6065109648348 L 1173.7272061325216 129.23352639304065 L 1175.074896861796 128.9654540395851 L 1176.4394658247627 128.80394665967026 L 1177.8125 128.75 L 1179.1855341752373 128.80394665967026 L 1180.5501031382041 128.9654540395851 L 1181.8977938674784 129.23352639304068 L 1183.2202974015618 129.60651096483485 L 1184.5094600663892 130.08210818105252 L 1185.757333745442 130.6573858267036 L 1186.956224882529 131.32879712380344 L 1188.0987419151184 132.0922025984385 L 1189.1778408457783 132.94289560199954 L 1190.1868686707646 133.87563132923552 L 1191.1196043980005 134.8846591542219 L 1191.9702974015618 135.96375808488185 L 1192.7337028761967 137.10627511747103 L 1193.4051141732966 138.3051662545581 L 1193.9803918189475 139.5530399336111 L 1194.4559890351652 140.8422025984386 L 1194.8289736069594 142.16470613252184 L 1195.097045960415 143.51239686179616 L 1195.2585533403299 144.87696582476292 Z" fill-opacity="1" stroke-opacity="1" stroke-miterlimit="10" stroke-width="2"/><text fill="rgb(255,255,255)" stroke="none" font-family="times new roman" font-size="10px" font-style="normal" font-weight="normal" text-decoration="normal" x="1177.8125" y="151.25" text-anchor="middle" dominant-baseline="text-after-edge" fill-opacity="1">*3.1</text><path fill="rgb(69,90,100)" stroke="rgb(76,175,80)" paint-order="fill stroke markers" d=" M 558.6875 136.25 L 601.1875 136.25 L 601.1875 136.25 A 5 5 0 0 1 606.1875 141.25 L 606.1875 151.25 L 606.1875 151.25 A 5 5 0 0 1 601.1875 156.25 L 516.1875 156.25 L 516.1875 156.25 A 5 5 0 0 1 511.1875 151.25 L 511.1875 141.25 L 511.1875 141.25 A 5 5 0 0 1 516.1875 136.25 L 558.6875 136.25 Z" fill-opacity="1" stroke-opacity="1" stroke-miterlimit="10" stroke-width="2"/><text fill="rgb(255,255,255)" stroke="none" font-family="times new roman" font-size="10px" font-style="normal" font-weight="normal" text-decoration="normal" x="558.6875" y="151.25" text-anchor="middle" dominant-baseline="text-after-edge" fill-opacity="1">42132049dup</text><path fill="rgb(69,90,100)" stroke="rgb(76,175,80)" paint-order="fill stroke markers" d=" M 674.1875 146.25 L 674.1181400089954 148.0153296538765 L 673.9104876633907 149.76977546340518 L 673.5658232089477 151.50252068675786 L 673.0862716166409 153.20288237343632 L 672.474789481504 154.86037722821453 L 671.7351467942383 156.46478624413982 L 670.8719036979671 158.00621770610886 L 669.8903823734363 159.47516817658064 L 668.7966342260007 160.86258108742913 L 667.5974025766973 162.1599025766973 L 666.3000810874291 163.3591342260007 L 664.9126681765806 164.45288237343632 L 663.4437177061088 165.43440369796707 L 661.9022862441398 166.2976467942383 L 660.2978772282145 167.03728948150396 L 658.6403823734363 167.64877161664094 L 656.9400206867579 168.12832320894773 L 655.2072754634052 168.4729876633906 L 653.4528296538765 168.68064000899537 L 651.6875 168.75 L 649.9221703461235 168.68064000899537 L 648.1677245365948 168.4729876633906 L 646.4349793132421 168.12832320894773 L 644.7346176265637 167.64877161664094 L 643.0771227717855 167.03728948150396 L 641.4727137558602 166.2976467942383 L 639.9312822938912 165.43440369796707 L 638.4623318234194 164.45288237343632 L 637.0749189125709 163.3591342260007 L 635.7775974233027 162.15990257669733 L 634.5783657739993 160.86258108742913 L 633.4846176265637 159.47516817658064 L 632.5030963020329 158.00621770610886 L 631.6398532057617 156.46478624413982 L 630.900210518496 154.86037722821453 L 630.2887283833591 153.20288237343632 L 629.8091767910523 151.50252068675786 L 629.4645123366095 149.7697754634052 L 629.2568599910046 148.0153296538765 L 629.1875 146.25 L 629.2568599910046 144.4846703461235 L 629.4645123366093 142.73022453659482 L 629.8091767910523 140.99747931324214 L 630.2887283833591 139.29711762656368 L 630.900210518496 137.63962277178547 L 631.6398532057617 136.0352137558602 L 632.5030963020329 134.49378229389114 L 633.4846176265637 133.02483182341936 L 634.5783657739993 131.63741891257087 L 635.7775974233027 130.3400974233027 L 637.0749189125709 129.1408657739993 L 638.4623318234194 128.04711762656368 L 639.9312822938912 127.06559630203293 L 641.4727137558602 126.20235320576171 L 643.0771227717855 125.46271051849604 L 644.7346176265637 124.85122838335903 L 646.4349793132421 124.37167679105227 L 648.1677245365948 124.02701233660939 L 649.9221703461236 123.81935999100462 L 651.6875000000001 123.75 L 653.4528296538766 123.81935999100463 L 655.2072754634053 124.02701233660942 L 656.940020686758 124.3716767910523 L 658.6403823734364 124.85122838335909 L 660.2978772282146 125.4627105184961 L 661.9022862441399 126.20235320576178 L 663.4437177061089 127.065596302033 L 664.9126681765807 128.04711762656376 L 666.3000810874292 129.14086577399942 L 667.5974025766974 130.3400974233028 L 668.7966342260008 131.637418912571 L 669.8903823734364 133.0248318234195 L 670.8719036979671 134.49378229389131 L 671.7351467942384 136.03521375586038 L 672.474789481504 137.6396227717857 L 673.086271616641 139.2971176265639 L 673.5658232089478 140.99747931324237 L 673.9104876633907 142.73022453659505 L 674.1181400089954 144.48467034612375 Z" fill-opacity="1" stroke-opacity="1" stroke-miterlimit="10" stroke-width="2"/><text fill="rgb(255,255,255)" stroke="none" font-family="times new roman" font-size="15px" font-style="normal" font-weight="normal" text-decoration="normal" x="651.6875" y="153.75" text-anchor="middle" dominant-baseline="text-after-edge" fill-opacity="1">*39</text><path fill="rgb(69,90,100)" stroke="rgb(76,175,80)" paint-order="fill stroke markers" d=" M 1041.0625 136.25 L 1041.0625 156.25 L 1136.0625 156.25 L 1136.0625 136.25 Z" fill-opacity="1" stroke-opacity="1" stroke-miterlimit="10" stroke-width="2"/><text fill="rgb(255,255,255)" stroke="none" font-family="times new roman" font-size="10px" font-style="normal" font-weight="normal" text-decoration="normal" x="1088.5625" y="151.25" text-anchor="middle" dominant-baseline="text-after-edge" fill-opacity="1">42130047G&gt;C</text><path fill="rgb(69,90,100)" stroke="rgb(76,175,80)" paint-order="fill stroke markers" d=" M 1061.4375 281.625 L 1061.3835533403299 282.9980341752373 L 1061.222045960415 284.36260313820407 L 1060.9539736069594 285.71029386747836 L 1060.5809890351652 287.0327974015616 L 1060.1053918189475 288.32196006638907 L 1059.5301141732964 289.56983374544205 L 1058.8587028761965 290.7687248825291 L 1058.0952974015615 291.9112419151183 L 1057.2446043980005 292.99034084577823 L 1056.3118686707646 293.99936867076457 L 1055.3028408457783 294.93210439800055 L 1054.2237419151184 295.7827974015616 L 1053.081224882529 296.5462028761966 L 1051.882333745442 297.21761417329645 L 1050.634460066389 297.7928918189475 L 1049.3452974015615 298.2684890351652 L 1048.0227938674784 298.6414736069593 L 1046.6751031382041 298.9095459604149 L 1045.3105341752373 299.07105334032974 L 1043.9375 299.125 L 1042.5644658247627 299.07105334032974 L 1041.1998968617959 298.9095459604149 L 1039.8522061325216 298.6414736069593 L 1038.5297025984385 298.2684890351652 L 1037.240539933611 297.7928918189475 L 1035.992666254558 297.21761417329645 L 1034.793775117471 296.5462028761966 L 1033.6512580848816 295.7827974015616 L 1032.5721591542217 294.93210439800055 L 1031.5631313292354 293.99936867076457 L 1030.6303956019995 292.99034084577823 L 1029.7797025984385 291.9112419151183 L 1029.0162971238035 290.7687248825291 L 1028.3448858267036 289.56983374544205 L 1027.7696081810525 288.32196006638907 L 1027.2940109648348 287.0327974015616 L 1026.9210263930406 285.71029386747836 L 1026.652954039585 284.36260313820407 L 1026.4914466596701 282.9980341752373 L 1026.4375 281.625 L 1026.4914466596701 280.2519658247627 L 1026.652954039585 278.88739686179593 L 1026.9210263930406 277.53970613252164 L 1027.2940109648348 276.2172025984384 L 1027.7696081810525 274.92803993361093 L 1028.3448858267036 273.68016625455795 L 1029.0162971238035 272.4812751174709 L 1029.7797025984385 271.3387580848817 L 1030.6303956019995 270.25965915422177 L 1031.5631313292354 269.25063132923543 L 1032.5721591542217 268.31789560199945 L 1033.6512580848816 267.4672025984384 L 1034.793775117471 266.7037971238034 L 1035.992666254558 266.03238582670355 L 1037.240539933611 265.4571081810525 L 1038.5297025984385 264.9815109648348 L 1039.8522061325216 264.6085263930407 L 1041.199896861796 264.3404540395851 L 1042.5644658247627 264.17894665967026 L 1043.9375 264.125 L 1045.3105341752373 264.17894665967026 L 1046.6751031382041 264.3404540395851 L 1048.0227938674784 264.6085263930407 L 1049.3452974015618 264.98151096483485 L 1050.6344600663892 265.4571081810525 L 1051.882333745442 266.0323858267036 L 1053.081224882529 266.70379712380344 L 1054.2237419151184 267.4672025984385 L 1055.3028408457783 268.31789560199957 L 1056.3118686707646 269.2506313292355 L 1057.2446043980005 270.2596591542219 L 1058.0952974015618 271.3387580848818 L 1058.8587028761967 272.48127511747106 L 1059.5301141732966 273.68016625455806 L 1060.1053918189475 274.9280399336111 L 1060.5809890351652 276.2172025984386 L 1060.9539736069594 277.5397061325218 L 1061.222045960415 278.88739686179616 L 1061.3835533403299 280.2519658247629 Z" fill-opacity="1" stroke-opacity="1" stroke-miterlimit="10" stroke-width="2"/><text fill="rgb(255,255,255)" stroke="none" font-family="times new roman" font-size="10px" font-style="normal" font-weight="normal" text-decoration="normal" x="1043.9375" y="286.625" text-anchor="middle" dominant-baseline="text-after-edge" fill-opacity="1">*1.54</text><path fill="rgb(69,90,100)" stroke="rgb(76,175,80)" paint-order="fill stroke markers" d=" M 951.8125 65.75 L 951.8125 85.75 L 1046.8125 85.75 L 1046.8125 65.75 Z" fill-opacity="1" stroke-opacity="1" stroke-miterlimit="10" stroke-width="2"/><text fill="rgb(255,255,255)" stroke="none" font-family="times new roman" font-size="10px" font-style="normal" font-weight="normal" text-decoration="normal" x="999.3125" y="80.75" text-anchor="middle" dominant-baseline="text-after-edge" fill-opacity="1">42127407T&gt;G</text><path fill="rgb(69,90,100)" stroke="rgb(244,67,54)" paint-order="fill stroke markers" d=" M 1219.5625 136.25 L 1219.5625 156.25 L 1314.5625 156.25 L 1314.5625 136.25 Z" fill-opacity="1" stroke-opacity="1" stroke-miterlimit="10" stroke-width="2"/><text fill="rgb(255,255,255)" stroke="none" font-family="times new roman" font-size="10px" font-style="normal" font-weight="normal" text-decoration="normal" x="1267.0625" y="151.25" text-anchor="middle" dominant-baseline="text-after-edge" fill-opacity="1">42128242del</text><path fill="rgb(69,90,100)" stroke="rgb(76,175,80)" paint-order="fill stroke markers" d=" M 852.6875 281.625 L 852.6181400089954 283.3903296538765 L 852.4104876633907 285.1447754634052 L 852.0658232089477 286.87752068675786 L 851.5862716166409 288.5778823734363 L 850.974789481504 290.23537722821453 L 850.2351467942383 291.8397862441398 L 849.3719036979671 293.3812177061088 L 848.3903823734363 294.85016817658067 L 847.2966342260007 296.23758108742913 L 846.0974025766973 297.53490257669733 L 844.8000810874291 298.7341342260007 L 843.4126681765806 299.8278823734363 L 841.9437177061088 300.80940369796707 L 840.4022862441398 301.6726467942383 L 838.7978772282145 302.41228948150393 L 837.1403823734363 303.02377161664094 L 835.4400206867579 303.50332320894773 L 833.7072754634052 303.8479876633906 L 831.9528296538765 304.0556400089954 L 830.1875 304.125 L 828.4221703461235 304.0556400089954 L 826.6677245365948 303.8479876633906 L 824.9349793132421 303.50332320894773 L 823.2346176265637 303.02377161664094 L 821.5771227717855 302.41228948150393 L 819.9727137558602 301.6726467942383 L 818.4312822938912 300.80940369796707 L 816.9623318234194 299.8278823734363 L 815.5749189125709 298.7341342260007 L 814.2775974233027 297.53490257669733 L 813.0783657739993 296.23758108742913 L 811.9846176265637 294.85016817658067 L 811.0030963020329 293.3812177061088 L 810.1398532057617 291.8397862441398 L 809.400210518496 290.23537722821453 L 808.7887283833591 288.5778823734363 L 808.3091767910523 286.87752068675786 L 807.9645123366095 285.1447754634052 L 807.7568599910046 283.3903296538765 L 807.6875 281.625 L 807.7568599910046 279.8596703461235 L 807.9645123366093 278.1052245365948 L 808.3091767910523 276.37247931324214 L 808.7887283833591 274.6721176265637 L 809.400210518496 273.01462277178547 L 810.1398532057617 271.4102137558602 L 811.0030963020329 269.8687822938912 L 811.9846176265637 268.39983182341933 L 813.0783657739993 267.01241891257087 L 814.2775974233027 265.71509742330267 L 815.5749189125709 264.51586577399934 L 816.9623318234194 263.4221176265637 L 818.4312822938912 262.44059630203293 L 819.9727137558602 261.5773532057617 L 821.5771227717855 260.837710518496 L 823.2346176265637 260.22622838335906 L 824.9349793132421 259.74667679105227 L 826.6677245365948 259.4020123366094 L 828.4221703461236 259.1943599910046 L 830.1875000000001 259.125 L 831.9528296538766 259.1943599910046 L 833.7072754634053 259.4020123366094 L 835.440020686758 259.7466767910523 L 837.1403823734364 260.22622838335906 L 838.7978772282146 260.8377105184961 L 840.4022862441399 261.57735320576177 L 841.9437177061089 262.440596302033 L 843.4126681765807 263.42211762656376 L 844.8000810874292 264.5158657739994 L 846.0974025766974 265.7150974233028 L 847.2966342260008 267.012418912571 L 848.3903823734364 268.3998318234195 L 849.3719036979671 269.86878229389134 L 850.2351467942384 271.4102137558604 L 850.974789481504 273.0146227717857 L 851.586271616641 274.67211762656393 L 852.0658232089478 276.37247931324237 L 852.4104876633907 278.1052245365951 L 852.6181400089954 279.8596703461238 Z" fill-opacity="1" stroke-opacity="1" stroke-miterlimit="10" stroke-width="2"/><text fill="rgb(255,255,255)" stroke="none" font-family="times new roman" font-size="15px" font-style="normal" font-weight="normal" text-decoration="normal" x="830.1875" y="289.125" text-anchor="middle" dominant-baseline="text-after-edge" fill-opacity="1">*2</text><path fill="rgb(3,169,244)" stroke="none" paint-order="stroke fill markers" d=" M 830.1875 249.125 L 854.6875 249.125 L 854.6875 249.125 A 8 8 0 0 1 862.6875 257.125 L 862.6875 306.125 L 862.6875 306.125 A 8 8 0 0 1 854.6875 314.125 L 805.6875 314.125 L 805.6875 314.125 A 8 8 0 0 1 797.6875 306.125 L 797.6875 257.125 L 797.6875 257.125 A 8 8 0 0 1 805.6875 249.125 L 830.1875 249.125 Z" fill-opacity="0.15"/><path fill="rgb(69,90,100)" stroke="rgb(255,193,7)" paint-order="fill stroke markers" d=" M 648.8125 65.75 L 648.8125 85.75 L 743.8125 85.75 L 743.8125 65.75 Z" fill-opacity="1" stroke-opacity="1" stroke-miterlimit="10" stroke-width="2"/><text fill="rgb(255,255,255)" stroke="none" font-family="times new roman" font-size="10px" font-style="normal" font-weight="normal" text-decoration="normal" x="696.3125" y="80.75" text-anchor="middle" dominant-baseline="text-after-edge" fill-opacity="1">42126611C&gt;G</text><path fill="rgb(69,90,100)" stroke="rgb(76,175,80)" paint-order="fill stroke markers" d=" M 950.0625 146.25 L 950.0085533403297 147.62303417523728 L 949.8470459604149 148.98760313820404 L 949.5789736069594 150.33529386747836 L 949.2059890351652 151.65779740156157 L 948.7303918189475 152.94696006638907 L 948.1551141732964 154.19483374544205 L 947.4837028761966 155.3937248825291 L 946.7202974015615 156.53624191511827 L 945.8696043980005 157.6153408457782 L 944.9368686707646 158.62436867076457 L 943.9278408457782 159.55710439800055 L 942.8487419151182 160.4077974015616 L 941.7062248825291 161.17120287619662 L 940.5073337454421 161.84261417329643 L 939.2594600663891 162.4178918189475 L 937.9702974015615 162.89348903516517 L 936.6477938674783 163.26647360695935 L 935.300103138204 163.5345459604149 L 933.9355341752373 163.69605334032974 L 932.5625 163.75 L 931.1894658247627 163.69605334032974 L 929.824896861796 163.5345459604149 L 928.4772061325217 163.26647360695935 L 927.1547025984385 162.8934890351652 L 925.8655399336109 162.4178918189475 L 924.6176662545579 161.84261417329643 L 923.4187751174709 161.17120287619662 L 922.2762580848818 160.4077974015616 L 921.1971591542218 159.55710439800055 L 920.1881313292354 158.62436867076457 L 919.2553956019995 157.6153408457782 L 918.4047025984385 156.5362419151183 L 917.6412971238034 155.3937248825291 L 916.9698858267036 154.19483374544208 L 916.3946081810525 152.94696006638907 L 915.9190109648348 151.6577974015616 L 915.5460263930406 150.33529386747836 L 915.2779540395851 148.98760313820404 L 915.1164466596703 147.62303417523728 L 915.0625 146.25 L 915.1164466596703 144.87696582476272 L 915.2779540395851 143.51239686179596 L 915.5460263930406 142.16470613252164 L 915.9190109648348 140.84220259843843 L 916.3946081810525 139.55303993361093 L 916.9698858267036 138.30516625455795 L 917.6412971238034 137.1062751174709 L 918.4047025984385 135.96375808488173 L 919.2553956019995 134.8846591542218 L 920.1881313292354 133.87563132923543 L 921.1971591542218 132.94289560199945 L 922.2762580848818 132.09220259843843 L 923.4187751174709 131.32879712380338 L 924.6176662545579 130.65738582670355 L 925.865539933611 130.0821081810525 L 927.1547025984385 129.6065109648348 L 928.4772061325217 129.23352639304065 L 929.824896861796 128.9654540395851 L 931.1894658247628 128.80394665967026 L 932.5625000000001 128.75 L 933.9355341752373 128.80394665967026 L 935.3001031382041 128.9654540395851 L 936.6477938674784 129.23352639304068 L 937.9702974015617 129.60651096483485 L 939.2594600663891 130.08210818105252 L 940.5073337454421 130.6573858267036 L 941.7062248825292 131.32879712380344 L 942.8487419151184 132.0922025984385 L 943.9278408457783 132.94289560199954 L 944.9368686707646 133.87563132923552 L 945.8696043980007 134.8846591542219 L 946.7202974015617 135.96375808488185 L 947.4837028761967 137.10627511747103 L 948.1551141732965 138.3051662545581 L 948.7303918189476 139.5530399336111 L 949.2059890351652 140.8422025984386 L 949.5789736069594 142.16470613252184 L 949.8470459604149 143.51239686179616 L 950.0085533403297 144.87696582476292 Z" fill-opacity="1" stroke-opacity="1" stroke-miterlimit="10" stroke-width="2"/><text fill="rgb(255,255,255)" stroke="none" font-family="times new roman" font-size="10px" font-style="normal" font-weight="normal" text-decoration="normal" x="932.5625" y="151.25" text-anchor="middle" dominant-baseline="text-after-edge" fill-opacity="1">*2.4</text><path fill="rgb(69,90,100)" stroke="rgb(76,175,80)" paint-order="fill stroke markers" d=" M 852.6875 146.25 L 852.6181400089954 148.0153296538765 L 852.4104876633907 149.76977546340518 L 852.0658232089477 151.50252068675786 L 851.5862716166409 153.20288237343632 L 850.974789481504 154.86037722821453 L 850.2351467942383 156.46478624413982 L 849.3719036979671 158.00621770610886 L 848.3903823734363 159.47516817658064 L 847.2966342260007 160.86258108742913 L 846.0974025766973 162.1599025766973 L 844.8000810874291 163.3591342260007 L 843.4126681765806 164.45288237343632 L 841.9437177061088 165.43440369796707 L 840.4022862441398 166.2976467942383 L 838.7978772282145 167.03728948150396 L 837.1403823734363 167.64877161664094 L 835.4400206867579 168.12832320894773 L 833.7072754634052 168.4729876633906 L 831.9528296538765 168.68064000899537 L 830.1875 168.75 L 828.4221703461235 168.68064000899537 L 826.6677245365948 168.4729876633906 L 824.9349793132421 168.12832320894773 L 823.2346176265637 167.64877161664094 L 821.5771227717855 167.03728948150396 L 819.9727137558602 166.2976467942383 L 818.4312822938912 165.43440369796707 L 816.9623318234194 164.45288237343632 L 815.5749189125709 163.3591342260007 L 814.2775974233027 162.15990257669733 L 813.0783657739993 160.86258108742913 L 811.9846176265637 159.47516817658064 L 811.0030963020329 158.00621770610886 L 810.1398532057617 156.46478624413982 L 809.400210518496 154.86037722821453 L 808.7887283833591 153.20288237343632 L 808.3091767910523 151.50252068675786 L 807.9645123366095 149.7697754634052 L 807.7568599910046 148.0153296538765 L 807.6875 146.25 L 807.7568599910046 144.4846703461235 L 807.9645123366093 142.73022453659482 L 808.3091767910523 140.99747931324214 L 808.7887283833591 139.29711762656368 L 809.400210518496 137.63962277178547 L 810.1398532057617 136.0352137558602 L 811.0030963020329 134.49378229389114 L 811.9846176265637 133.02483182341936 L 813.0783657739993 131.63741891257087 L 814.2775974233027 130.3400974233027 L 815.5749189125709 129.1408657739993 L 816.9623318234194 128.04711762656368 L 818.4312822938912 127.06559630203293 L 819.9727137558602 126.20235320576171 L 821.5771227717855 125.46271051849604 L 823.2346176265637 124.85122838335903 L 824.9349793132421 124.37167679105227 L 826.6677245365948 124.02701233660939 L 828.4221703461236 123.81935999100462 L 830.1875000000001 123.75 L 831.9528296538766 123.81935999100463 L 833.7072754634053 124.02701233660942 L 835.440020686758 124.3716767910523 L 837.1403823734364 124.85122838335909 L 838.7978772282146 125.4627105184961 L 840.4022862441399 126.20235320576178 L 841.9437177061089 127.065596302033 L 843.4126681765807 128.04711762656376 L 844.8000810874292 129.14086577399942 L 846.0974025766974 130.3400974233028 L 847.2966342260008 131.637418912571 L 848.3903823734364 133.0248318234195 L 849.3719036979671 134.49378229389131 L 850.2351467942384 136.03521375586038 L 850.974789481504 137.6396227717857 L 851.586271616641 139.2971176265639 L 852.0658232089478 140.99747931324237 L 852.4104876633907 142.73022453659505 L 852.6181400089954 144.48467034612375 Z" fill-opacity="1" stroke-opacity="1" stroke-miterlimit="10" stroke-width="2"/><text fill="rgb(255,255,255)" stroke="none" font-family="times new roman" font-size="15px" font-style="normal" font-weight="normal" text-decoration="normal" x="830.1875" y="153.75" text-anchor="middle" dominant-baseline="text-after-edge" fill-opacity="1">*34</text><path fill="rgb(69,90,100)" stroke="rgb(76,175,80)" paint-order="fill stroke markers" d=" M 1016.8125 146.25 L 1016.7585533403297 147.62303417523728 L 1016.5970459604149 148.98760313820404 L 1016.3289736069594 150.33529386747836 L 1015.9559890351652 151.65779740156157 L 1015.4803918189475 152.94696006638907 L 1014.9051141732964 154.19483374544205 L 1014.2337028761966 155.3937248825291 L 1013.4702974015615 156.53624191511827 L 1012.6196043980005 157.6153408457782 L 1011.6868686707646 158.62436867076457 L 1010.6778408457782 159.55710439800055 L 1009.5987419151182 160.4077974015616 L 1008.4562248825291 161.17120287619662 L 1007.2573337454421 161.84261417329643 L 1006.0094600663891 162.4178918189475 L 1004.7202974015615 162.89348903516517 L 1003.3977938674783 163.26647360695935 L 1002.050103138204 163.5345459604149 L 1000.6855341752373 163.69605334032974 L 999.3125 163.75 L 997.9394658247627 163.69605334032974 L 996.574896861796 163.5345459604149 L 995.2272061325217 163.26647360695935 L 993.9047025984385 162.8934890351652 L 992.6155399336109 162.4178918189475 L 991.3676662545579 161.84261417329643 L 990.1687751174709 161.17120287619662 L 989.0262580848818 160.4077974015616 L 987.9471591542218 159.55710439800055 L 986.9381313292354 158.62436867076457 L 986.0053956019995 157.6153408457782 L 985.1547025984385 156.5362419151183 L 984.3912971238034 155.3937248825291 L 983.7198858267036 154.19483374544208 L 983.1446081810525 152.94696006638907 L 982.6690109648348 151.6577974015616 L 982.2960263930406 150.33529386747836 L 982.0279540395851 148.98760313820404 L 981.8664466596703 147.62303417523728 L 981.8125 146.25 L 981.8664466596703 144.87696582476272 L 982.0279540395851 143.51239686179596 L 982.2960263930406 142.16470613252164 L 982.6690109648348 140.84220259843843 L 983.1446081810525 139.55303993361093 L 983.7198858267036 138.30516625455795 L 984.3912971238034 137.1062751174709 L 985.1547025984385 135.96375808488173 L 986.0053956019995 134.8846591542218 L 986.9381313292354 133.87563132923543 L 987.9471591542218 132.94289560199945 L 989.0262580848818 132.09220259843843 L 990.1687751174709 131.32879712380338 L 991.3676662545579 130.65738582670355 L 992.615539933611 130.0821081810525 L 993.9047025984385 129.6065109648348 L 995.2272061325217 129.23352639304065 L 996.574896861796 128.9654540395851 L 997.9394658247628 128.80394665967026 L 999.3125000000001 128.75 L 1000.6855341752373 128.80394665967026 L 1002.0501031382041 128.9654540395851 L 1003.3977938674784 129.23352639304068 L 1004.7202974015617 129.60651096483485 L 1006.0094600663891 130.08210818105252 L 1007.2573337454421 130.6573858267036 L 1008.4562248825292 131.32879712380344 L 1009.5987419151184 132.0922025984385 L 1010.6778408457783 132.94289560199954 L 1011.6868686707646 133.87563132923552 L 1012.6196043980007 134.8846591542219 L 1013.4702974015617 135.96375808488185 L 1014.2337028761967 137.10627511747103 L 1014.9051141732965 138.3051662545581 L 1015.4803918189476 139.5530399336111 L 1015.9559890351652 140.8422025984386 L 1016.3289736069594 142.16470613252184 L 1016.5970459604149 143.51239686179616 L 1016.7585533403297 144.87696582476292 Z" fill-opacity="1" stroke-opacity="1" stroke-miterlimit="10" stroke-width="2"/><text fill="rgb(255,255,255)" stroke="none" font-family="times new roman" font-size="10px" font-style="normal" font-weight="normal" text-decoration="normal" x="999.3125" y="151.25" text-anchor="middle" dominant-baseline="text-after-edge" fill-opacity="1">*1.41</text><path fill="rgb(69,90,100)" stroke="rgb(76,175,80)" paint-order="fill stroke markers" d=" M 288.1875 281.625 L 288.13355334032974 282.9980341752373 L 287.9720459604149 284.36260313820407 L 287.7039736069593 285.71029386747836 L 287.3309890351652 287.0327974015616 L 286.8553918189475 288.32196006638907 L 286.28011417329645 289.56983374544205 L 285.6087028761966 290.7687248825291 L 284.8452974015616 291.9112419151183 L 283.99460439800055 292.99034084577823 L 283.06186867076457 293.99936867076457 L 282.05284084577823 294.93210439800055 L 280.9737419151183 295.7827974015616 L 279.8312248825291 296.5462028761966 L 278.63233374544205 297.21761417329645 L 277.38446006638907 297.7928918189475 L 276.0952974015616 298.2684890351652 L 274.77279386747836 298.6414736069593 L 273.42510313820407 298.9095459604149 L 272.0605341752373 299.07105334032974 L 270.6875 299.125 L 269.3144658247627 299.07105334032974 L 267.94989686179593 298.9095459604149 L 266.60220613252164 298.6414736069593 L 265.2797025984384 298.2684890351652 L 263.99053993361093 297.7928918189475 L 262.74266625455795 297.21761417329645 L 261.5437751174709 296.5462028761966 L 260.4012580848817 295.7827974015616 L 259.32215915422177 294.93210439800055 L 258.31313132923543 293.99936867076457 L 257.38039560199945 292.99034084577823 L 256.5297025984384 291.9112419151183 L 255.76629712380338 290.7687248825291 L 255.09488582670357 289.56983374544205 L 254.5196081810525 288.32196006638907 L 254.04401096483483 287.0327974015616 L 253.67102639304065 285.71029386747836 L 253.4029540395851 284.36260313820407 L 253.24144665967026 282.9980341752373 L 253.1875 281.625 L 253.24144665967026 280.2519658247627 L 253.4029540395851 278.88739686179593 L 253.67102639304065 277.53970613252164 L 254.0440109648348 276.2172025984384 L 254.5196081810525 274.92803993361093 L 255.09488582670357 273.68016625455795 L 255.76629712380338 272.4812751174709 L 256.5297025984384 271.3387580848817 L 257.38039560199945 270.25965915422177 L 258.31313132923543 269.25063132923543 L 259.32215915422177 268.31789560199945 L 260.4012580848817 267.4672025984384 L 261.5437751174709 266.7037971238034 L 262.74266625455795 266.03238582670355 L 263.99053993361093 265.4571081810525 L 265.27970259843846 264.9815109648348 L 266.6022061325217 264.6085263930407 L 267.949896861796 264.3404540395851 L 269.31446582476275 264.17894665967026 L 270.68750000000006 264.125 L 272.06053417523736 264.17894665967026 L 273.4251031382041 264.3404540395851 L 274.7727938674784 264.6085263930407 L 276.09529740156165 264.98151096483485 L 277.3844600663892 265.4571081810525 L 278.63233374544217 266.0323858267036 L 279.8312248825292 266.70379712380344 L 280.97374191511835 267.4672025984385 L 282.0528408457783 268.31789560199957 L 283.0618686707647 269.2506313292355 L 283.99460439800066 270.2596591542219 L 284.84529740156165 271.3387580848818 L 285.6087028761967 272.48127511747106 L 286.2801141732965 273.68016625455806 L 286.85539181894757 274.9280399336111 L 287.33098903516526 276.2172025984386 L 287.7039736069594 277.5397061325218 L 287.97204596041496 278.88739686179616 L 288.13355334032974 280.2519658247629 Z" fill-opacity="1" stroke-opacity="1" stroke-miterlimit="10" stroke-width="2"/><text fill="rgb(255,255,255)" stroke="none" font-family="times new roman" font-size="10px" font-style="normal" font-weight="normal" text-decoration="normal" x="270.6875" y="286.625" text-anchor="middle" dominant-baseline="text-after-edge" fill-opacity="1">*1.58</text><path fill="rgb(176,190,197)" stroke="none" paint-order="stroke fill markers" d=" M 912.6875 176.62500000000003 L 912.6875 386.625 L 987.6875 386.625 L 987.6875 176.62500000000006 Z" fill-opacity="0.8"/><text fill="rgb(0,0,0)" stroke="none" font-family="times new roman" font-size="10px" font-style="normal" font-weight="normal" text-decoration="normal" x="917.6875" y="191.625" text-anchor="start" dominant-baseline="text-after-edge" fill-opacity="0.8">42126310C&gt;T </text><text fill="rgb(0,0,0)" stroke="none" font-family="times new roman" font-size="10px" font-style="normal" font-weight="normal" text-decoration="normal" x="917.6875" y="201.625" text-anchor="start" dominant-baseline="text-after-edge" fill-opacity="0.8">42127001G&gt;A </text><text fill="rgb(0,0,0)" stroke="none" font-family="times new roman" font-size="10px" font-style="normal" font-weight="normal" text-decoration="normal" x="917.6875" y="211.625" text-anchor="start" dominant-baseline="text-after-edge" fill-opacity="0.8">42127207C&gt;T </text><text fill="rgb(0,0,0)" stroke="none" font-family="times new roman" font-size="10px" font-style="normal" font-weight="normal" text-decoration="normal" x="917.6875" y="221.625" text-anchor="start" dominant-baseline="text-after-edge" fill-opacity="0.8">42129130C&gt;G </text><text fill="rgb(0,0,0)" stroke="none" font-family="times new roman" font-size="10px" font-style="normal" font-weight="normal" text-decoration="normal" x="917.6875" y="231.625" text-anchor="start" dominant-baseline="text-after-edge" fill-opacity="0.8">42131469C&gt;T </text><text fill="rgb(0,0,0)" stroke="none" font-family="times new roman" font-size="10px" font-style="normal" font-weight="normal" text-decoration="normal" x="917.6875" y="241.625" text-anchor="start" dominant-baseline="text-after-edge" fill-opacity="0.8">42131531G&gt;A </text><text fill="rgb(0,0,0)" stroke="none" font-family="times new roman" font-size="10px" font-style="normal" font-weight="normal" text-decoration="normal" x="917.6875" y="251.625" text-anchor="start" dominant-baseline="text-after-edge" fill-opacity="0.8">42132026T&gt;C </text><text fill="rgb(0,0,0)" stroke="none" font-family="times new roman" font-size="10px" font-style="normal" font-weight="normal" text-decoration="normal" x="917.6875" y="261.625" text-anchor="start" dominant-baseline="text-after-edge" fill-opacity="0.8">42132375G&gt;C </text><path fill="rgb(176,190,197)" stroke="none" paint-order="stroke fill markers" d=" M 494.1875 176.625 L 561.1875 176.625 L 561.1875 176.625 A 8 8 0 0 1 569.1875 184.625 L 569.1875 378.625 L 569.1875 378.625 A 8 8 0 0 1 561.1875 386.625 L 427.1875 386.625 L 427.1875 386.625 A 8 8 0 0 1 419.1875 378.625 L 419.1875 184.625 L 419.1875 184.625 A 8 8 0 0 1 427.1875 176.625 L 494.1875 176.625 Z" fill-opacity="0.8"/><text fill="rgb(0,0,0)" stroke="none" font-family="times new roman" font-size="10px" font-style="normal" font-weight="normal" text-decoration="normal" x="424.1875" y="191.625" text-anchor="start" dominant-baseline="text-after-edge" fill-opacity="0.8">42125924A&gt;G </text><text fill="rgb(0,0,0)" stroke="none" font-family="times new roman" font-size="10px" font-style="normal" font-weight="normal" text-decoration="normal" x="424.1875" y="201.625" text-anchor="start" dominant-baseline="text-after-edge" fill-opacity="0.8">42126069A&gt;C </text><text fill="rgb(0,0,0)" stroke="none" font-family="times new roman" font-size="10px" font-style="normal" font-weight="normal" text-decoration="normal" x="424.1875" y="211.625" text-anchor="start" dominant-baseline="text-after-edge" fill-opacity="0.8">42126136_42126138del </text><text fill="rgb(0,0,0)" stroke="none" font-family="times new roman" font-size="10px" font-style="normal" font-weight="normal" text-decoration="normal" x="424.1875" y="221.625" text-anchor="start" dominant-baseline="text-after-edge" fill-opacity="0.8">42132025_42132026insCCTTTT </text><text fill="rgb(0,0,0)" stroke="none" font-family="times new roman" font-size="10px" font-style="normal" font-weight="normal" text-decoration="normal" x="424.1875" y="231.625" text-anchor="start" dominant-baseline="text-after-edge" fill-opacity="0.8">42132027C&gt;T </text><text fill="rgb(0,0,0)" stroke="none" font-family="times new roman" font-size="10px" font-style="normal" font-weight="normal" text-decoration="normal" x="424.1875" y="241.625" text-anchor="start" dominant-baseline="text-after-edge" fill-opacity="0.8">42132561C&gt;T </text><text fill="rgb(0,0,0)" stroke="none" font-family="times new roman" font-size="10px" font-style="normal" font-weight="normal" text-decoration="normal" x="424.1875" y="251.625" text-anchor="start" dominant-baseline="text-after-edge" fill-opacity="0.8">42132844C&gt;A </text><text fill="rgb(0,0,0)" stroke="none" font-family="times new roman" font-size="10px" font-style="normal" font-weight="normal" text-decoration="normal" x="424.1875" y="261.625" text-anchor="start" dominant-baseline="text-after-edge" fill-opacity="0.8">42132851T&gt;C </text><text fill="rgb(0,0,0)" stroke="none" font-family="times new roman" font-size="10px" font-style="normal" font-weight="normal" text-decoration="normal" x="424.1875" y="271.625" text-anchor="start" dominant-baseline="text-after-edge" fill-opacity="0.8">42133400T&gt;G </text><text fill="rgb(0,0,0)" stroke="none" font-family="times new roman" font-size="10px" font-style="normal" font-weight="normal" text-decoration="normal" x="424.1875" y="281.625" text-anchor="start" dominant-baseline="text-after-edge" fill-opacity="0.8">42133533A&gt;C </text><text fill="rgb(0,0,0)" stroke="none" font-family="times new roman" font-size="10px" font-style="normal" font-weight="normal" text-decoration="normal" x="424.1875" y="291.625" text-anchor="start" dominant-baseline="text-after-edge" fill-opacity="0.8">42134096del </text><text fill="rgb(0,0,0)" stroke="none" font-family="times new roman" font-size="10px" font-style="normal" font-weight="normal" text-decoration="normal" x="424.1875" y="301.625" text-anchor="start" dominant-baseline="text-after-edge" fill-opacity="0.8">42134277del </text><text fill="rgb(0,0,0)" stroke="none" font-family="times new roman" font-size="10px" font-style="normal" font-weight="normal" text-decoration="normal" x="424.1875" y="311.625" text-anchor="start" dominant-baseline="text-after-edge" fill-opacity="0.8">42134820T&gt;G </text><text fill="rgb(0,0,0)" stroke="none" font-family="times new roman" font-size="10px" font-style="normal" font-weight="normal" text-decoration="normal" x="424.1875" y="321.625" text-anchor="start" dominant-baseline="text-after-edge" fill-opacity="0.8">42135064_42135066dup </text><text fill="rgb(0,0,0)" stroke="none" font-family="times new roman" font-size="10px" font-style="normal" font-weight="normal" text-decoration="normal" x="424.1875" y="331.625" text-anchor="start" dominant-baseline="text-after-edge" fill-opacity="0.8">42135201T&gt;C </text><text fill="rgb(0,0,0)" stroke="none" font-family="times new roman" font-size="10px" font-style="normal" font-weight="normal" text-decoration="normal" x="424.1875" y="341.625" text-anchor="start" dominant-baseline="text-after-edge" fill-opacity="0.8">42135691T&gt;C </text><g transform="scale(1.1939655172413792,1.1939655172413792) translate(115.68050541516243,-99.22021660649818)"/></g></svg>