<svg version="1.1" xmlns="http://www.w3.org/2000/svg" xmlns:xlink="http://www.w3.org/1999/xlink" width="1017" height="608"><defs/><g transform="translate(-112.11858974358972,50.43589743589743) scale(0.8179487179487179,0.8179487179487179)"><path fill="none" stroke="rgb(120,144,156)" paint-order="fill stroke markers" d=" M 789.8301948051948 265.125 L 749.1609929040568 375.39008966153625" stroke-opacity="1" stroke-linejoin="round" stroke-miterlimit="10"/><path fill="rgb(120,144,156)" stroke="none" paint-order="stroke fill markers" d=" M 747.3982392367174 367.5987355104094 L 748.4689046459184 377.2665261360664 L 755.5607379009233 370.6093194333114 Z" fill-opacity="1"/><path fill="none" stroke="rgb(120,144,156)" paint-order="fill stroke markers" d=" M 722.248232408689 257.15537112251496 L 1250.937915649 390.9788609630933" stroke-opacity="1" stroke-linejoin="round" stroke-miterlimit="10"/><path fill="rgb(120,144,156)" stroke="none" paint-order="stroke fill markers" d=" M 1243.3753414284556 393.55179142440784 L 1252.876767591311 391.46962887748504 L 1245.5101818560595 385.1177854753544 Z" fill-opacity="1"/><path fill="none" stroke="rgb(120,144,156)" paint-order="fill stroke markers" d=" M 1006.2198434368751 179.19545050169853 L 1121.2580119798408 239.3774553413055" stroke-opacity="1" stroke-linejoin="round" stroke-miterlimit="10"/><path fill="rgb(120,144,156)" stroke="none" paint-order="stroke fill markers" d=" M 1113.304897834372 240.12610438401242 L 1123.030156563125 240.30454949830147 L 1117.3377574173044 232.41727544672565 Z" fill-opacity="1"/><path fill="none" stroke="rgb(120,144,156)" paint-order="fill stroke markers" d=" M 324.75 412.75 L 823.8783347896027 520.8944725377472" stroke-opacity="1" stroke-linejoin="round" stroke-miterlimit="10"/><path fill="rgb(120,144,156)" stroke="none" paint-order="stroke fill markers" d=" M 816.4091426919479 523.7270807719249 L 825.8329810696563 521.3179792317588 L 818.2513968108984 515.2243694536918 Z" fill-opacity="1"/><path fill="none" stroke="rgb(55,71,79)" paint-order="fill stroke markers" d=" M 889.125 178.375 L 889.125 228.625" stroke-opacity="1" stroke-linejoin="round" stroke-miterlimit="10" stroke-width="2"/><path fill="none" stroke="rgb(120,144,156)" paint-order="fill stroke markers" d=" M 1123.7469307339923 265.22462156673873 L 926.3780692660077 383.4003784332613" stroke-opacity="1" stroke-linejoin="round" stroke-miterlimit="10"/><path fill="rgb(120,144,156)" stroke="none" paint-order="stroke fill markers" d=" M 929.891783394123 376.2263758527012 L 924.6621422647522 384.4277997326134 L 934.3610660463045 383.69065830816265 Z" fill-opacity="1"/><path fill="none" stroke="rgb(120,144,156)" paint-order="fill stroke markers" d=" M 1145.625 192.875 L 1145.625 224.625" stroke-opacity="1" stroke-linejoin="round" stroke-miterlimit="10"/><path fill="rgb(120,144,156)" stroke="none" paint-order="stroke fill markers" d=" M 1141.275 217.925 L 1145.625 226.625 L 1149.975 217.925 Z" fill-opacity="1"/><path fill="none" stroke="rgb(120,144,156)" paint-order="fill stroke markers" d=" M 651.5312049975203 405.9468324096948 L 831.7353960677996 512.971656547881" stroke-opacity="1" stroke-linejoin="round" stroke-miterlimit="10"/><path fill="rgb(120,144,156)" stroke="none" paint-order="stroke fill markers" d=" M 823.7534882588504 513.2904789583814 L 833.4549857972612 513.9929357273074 L 828.1960526893556 505.81026363522324 Z" fill-opacity="1"/><path fill="none" stroke="rgb(55,71,79)" paint-order="fill stroke markers" d=" M 945.6581632653061 106.875 L 970.0704273259075 145.77584354372266" stroke-opacity="1" stroke-linejoin="round" stroke-miterlimit="10" stroke-width="2"/><path fill="none" stroke="rgb(120,144,156)" paint-order="fill stroke markers" d=" M 754.9208362687799 411.8870178975462 L 839.642130211843 508.1238275221906" stroke-opacity="1" stroke-linejoin="round" stroke-miterlimit="10"/><path fill="rgb(120,144,156)" stroke="none" paint-order="stroke fill markers" d=" M 831.9499043164698 505.9692601005142 L 840.9636752136752 509.625 L 838.4800045949405 500.22053934254416 Z" fill-opacity="1"/><path fill="none" stroke="rgb(120,144,156)" paint-order="fill stroke markers" d=" M 693.7720496085661 270.7325050601237 L 644.2279503914338 377.8924949398763" stroke-opacity="1" stroke-linejoin="round" stroke-miterlimit="10"/><path fill="rgb(120,144,156)" stroke="none" paint-order="stroke fill markers" d=" M 643.0912245675835 369.9855135688731 L 643.3886381581232 379.70786128720545 L 650.9880681784653 373.6365217837743 Z" fill-opacity="1"/><path fill="none" stroke="rgb(120,144,156)" paint-order="fill stroke markers" d=" M 249.75 263.125 L 249.75 289.5" stroke-opacity="1" stroke-linejoin="round" stroke-miterlimit="10"/><path fill="rgb(120,144,156)" stroke="none" paint-order="stroke fill markers" d=" M 245.4 282.8 L 249.75 291.5 L 254.1 282.8 Z" fill-opacity="1"/><path fill="none" stroke="rgb(55,71,79)" paint-order="fill stroke markers" d=" M 1018.8531866737688 111.23902773936021 L 997.1795726740925 145.77584354372266" stroke-opacity="1" stroke-linejoin="round" stroke-miterlimit="10" stroke-width="2"/><path fill="none" stroke="rgb(120,144,156)" paint-order="fill stroke markers" d=" M 891.613526163109 275.49286762919377 L 901.7996843762008 371.14337767895995" stroke-opacity="1" stroke-linejoin="round" stroke-miterlimit="10"/><path fill="rgb(120,144,156)" stroke="none" paint-order="stroke fill markers" d=" M 896.7646482281233 364.9416915382759 L 902.011473836891 373.13213237080623 L 905.4157311376547 364.0204073842739 Z" fill-opacity="1"/><path fill="none" stroke="rgb(120,144,156)" paint-order="fill stroke markers" d=" M 1290.4941558441558 265.125 L 1275.7616154360744 374.20246263675745" stroke-opacity="1" stroke-linejoin="round" stroke-miterlimit="10"/><path fill="rgb(120,144,156)" stroke="none" paint-order="stroke fill markers" d=" M 1272.3475503645896 366.9805058598397 L 1275.493916286201 376.18446595793455 L 1280.96926481171 368.14499716178847 Z" fill-opacity="1"/><path fill="none" stroke="rgb(55,71,79)" paint-order="fill stroke markers" d=" M 702.375 180.375 L 702.375 231.625" stroke-opacity="1" stroke-linejoin="round" stroke-miterlimit="10" stroke-width="2"/><path fill="none" stroke="rgb(120,144,156)" paint-order="fill stroke markers" d=" M 352.98571428571427 263.125 L 325.9741806698879 298.02245114796364" stroke-opacity="1" stroke-linejoin="round" stroke-miterlimit="10"/><path fill="rgb(120,144,156)" stroke="none" paint-order="stroke fill markers" d=" M 326.6352587715715 290.06157960374975 L 324.75 299.6040268456376 L 333.5151130564532 295.38676551776206 Z" fill-opacity="1"/><path fill="none" stroke="rgb(120,144,156)" paint-order="fill stroke markers" d=" M 485.62142857142857 263.125 L 620.3050611751811 382.8783453867084" stroke-opacity="1" stroke-linejoin="round" stroke-miterlimit="10"/><path fill="rgb(120,144,156)" stroke="none" paint-order="stroke fill markers" d=" M 612.4076081169321 381.67720626372835 L 621.7996893532122 384.2072873002003 L 618.1885054406217 375.175573689293 Z" fill-opacity="1"/><path fill="none" stroke="rgb(55,71,79)" paint-order="fill stroke markers" d=" M 1205.6937069316914 182.86210323182513 L 1162.3322182069203 232.8605545165102" stroke-opacity="1" stroke-linejoin="round" stroke-miterlimit="10" stroke-width="2"/><path fill="none" stroke="rgb(120,144,156)" paint-order="fill stroke markers" d=" M 988.4282467532468 265.125 L 761.240838886205 385.93598346520866" stroke-opacity="1" stroke-linejoin="round" stroke-miterlimit="10"/><path fill="rgb(120,144,156)" stroke="none" paint-order="stroke fill markers" d=" M 765.1140677133709 378.94952524573785 L 759.4749865407646 386.8750071571901 L 769.1988207734902 386.63098294840376 Z" fill-opacity="1"/><path fill="none" stroke="rgb(120,144,156)" paint-order="fill stroke markers" d=" M 868.7045767332041 263.7549747895213 L 653.4385607220986 386.35470284318353" stroke-opacity="1" stroke-linejoin="round" stroke-miterlimit="10"/><path fill="rgb(120,144,156)" stroke="none" paint-order="stroke fill markers" d=" M 657.1077711711672 379.2589721069982 L 651.700652358967 387.3444879316534 L 661.4133363060113 386.81887348662053 Z" fill-opacity="1"/><path fill="none" stroke="rgb(120,144,156)" paint-order="fill stroke markers" d=" M 590.9233766233766 265.125 L 629.0214756297802 377.09269555317087" stroke-opacity="1" stroke-linejoin="round" stroke-miterlimit="10"/><path fill="rgb(120,144,156)" stroke="none" paint-order="stroke fill markers" d=" M 622.745115257869 372.151056100327 L 629.6657219098016 378.9860911089591 L 630.9813859255477 369.3485847822338 Z" fill-opacity="1"/><path fill="none" stroke="rgb(120,144,156)" paint-order="fill stroke markers" d=" M 896.560178290241 418.6180747629001 L 864.5667551482392 507.74261065847656" stroke-opacity="1" stroke-linejoin="round" stroke-miterlimit="10"/><path fill="rgb(120,144,156)" stroke="none" paint-order="stroke fill markers" d=" M 862.736252179591 499.9668946861837 L 863.8910256410256 509.625 L 870.9246458152179 502.9063180425626 Z" fill-opacity="1"/><path fill="none" stroke="rgb(120,144,156)" paint-order="fill stroke markers" d=" M 959.25 431.883064516129 L 878.1314571290577 508.4223348056472" stroke-opacity="1" stroke-linejoin="round" stroke-miterlimit="10"/><path fill="rgb(120,144,156)" stroke="none" paint-order="stroke fill markers" d=" M 880.0193108915774 500.6603435552437 L 876.6767803134452 509.79489276876546 L 885.989938031142 506.98818770315825 Z" fill-opacity="1"/><path fill="none" stroke="rgb(120,144,156)" paint-order="fill stroke markers" d=" M 1253.2071613381472 402.6909173017242 L 888.1120481935027 518.3483042275095" stroke-opacity="1" stroke-linejoin="round" stroke-miterlimit="10"/><path fill="rgb(120,144,156)" stroke="none" paint-order="stroke fill markers" d=" M 893.1855374018887 512.1780362226016 L 886.2054297874682 518.952296159385 L 895.8129023055473 520.4718262888514 Z" fill-opacity="1"/><path fill="none" stroke="rgb(120,144,156)" paint-order="fill stroke markers" d=" M 780.3081168831169 265.125 L 650.8018671916224 382.7191182340222" stroke-opacity="1" stroke-linejoin="round" stroke-miterlimit="10"/><path fill="rgb(120,144,156)" stroke="none" paint-order="stroke fill markers" d=" M 652.8378757039085 374.9946655454559 L 649.321197221708 384.0635945038737 L 658.6863474777624 381.43557991458346 Z" fill-opacity="1"/><path fill="none" stroke="rgb(55,71,79)" paint-order="fill stroke markers" d=" M 1110.3968133262313 111.23902773936021 L 1132.0704273259075 145.77584354372266" stroke-opacity="1" stroke-linejoin="round" stroke-miterlimit="10" stroke-width="2"/><path fill="none" stroke="rgb(55,71,79)" paint-order="fill stroke markers" d=" M 1183.591836734694 106.875 L 1159.1795726740925 145.77584354372266" stroke-opacity="1" stroke-linejoin="round" stroke-miterlimit="10" stroke-width="2"/><path fill="rgb(69,90,100)" stroke="rgb(158,158,158)" paint-order="fill stroke markers" d=" M 1144.25 83.875 L 1144.25 103.875 L 1239.25 103.875 L 1239.25 83.875 Z" fill-opacity="1" stroke-opacity="1" stroke-miterlimit="10" stroke-width="6"/><text fill="rgb(255,255,255)" stroke="none" font-family="times new roman" font-size="10px" font-style="normal" font-weight="normal" text-decoration="normal" x="1191.75" y="98.875" text-anchor="middle" dominant-baseline="text-after-edge" fill-opacity="1">42126611C&gt;G</text><path fill="rgb(69,90,100)" stroke="rgb(76,175,80)" paint-order="fill stroke markers" d=" M 361.5 242.125 L 404 242.125 L 404 242.125 A 5 5 0 0 1 409 247.125 L 409 257.125 L 409 257.125 A 5 5 0 0 1 404 262.125 L 319 262.125 L 319 262.125 A 5 5 0 0 1 314 257.125 L 314 247.125 L 314 247.125 A 5 5 0 0 1 319 242.125 L 361.5 242.125 Z" fill-opacity="1" stroke-opacity="1" stroke-miterlimit="10" stroke-width="2"/><text fill="rgb(255,255,255)" stroke="none" font-family="times new roman" font-size="10px" font-style="normal" font-weight="normal" text-decoration="normal" x="361.5" y="257.125" text-anchor="middle" dominant-baseline="text-after-edge" fill-opacity="1">42132049dup</text><path fill="rgb(69,90,100)" stroke="rgb(76,175,80)" paint-order="fill stroke markers" d=" M 1236.625 167.375 L 1236.5710533403299 168.74803417523728 L 1236.409545960415 170.11260313820404 L 1236.1414736069594 171.46029386747836 L 1235.7684890351652 172.78279740156157 L 1235.2928918189475 174.07196006638907 L 1234.7176141732964 175.31983374544205 L 1234.0462028761965 176.5187248825291 L 1233.2827974015615 177.66124191511827 L 1232.4321043980005 178.7403408457782 L 1231.4993686707646 179.74936867076457 L 1230.4903408457783 180.68210439800055 L 1229.4112419151184 181.5327974015616 L 1228.268724882529 182.29620287619662 L 1227.069833745442 182.96761417329643 L 1225.821960066389 183.5428918189475 L 1224.5327974015615 184.01848903516517 L 1223.2102938674784 184.39147360695935 L 1221.8626031382041 184.6595459604149 L 1220.4980341752373 184.82105334032974 L 1219.125 184.875 L 1217.7519658247627 184.82105334032974 L 1216.3873968617959 184.6595459604149 L 1215.0397061325216 184.39147360695935 L 1213.7172025984385 184.0184890351652 L 1212.428039933611 183.5428918189475 L 1211.180166254558 182.96761417329643 L 1209.981275117471 182.29620287619662 L 1208.8387580848816 181.5327974015616 L 1207.7596591542217 180.68210439800055 L 1206.7506313292354 179.74936867076457 L 1205.8178956019995 178.7403408457782 L 1204.9672025984385 177.6612419151183 L 1204.2037971238035 176.5187248825291 L 1203.5323858267036 175.31983374544208 L 1202.9571081810525 174.07196006638907 L 1202.4815109648348 172.7827974015616 L 1202.1085263930406 171.46029386747836 L 1201.840454039585 170.11260313820404 L 1201.6789466596701 168.74803417523728 L 1201.625 167.375 L 1201.6789466596701 166.00196582476272 L 1201.840454039585 164.63739686179596 L 1202.1085263930406 163.28970613252164 L 1202.4815109648348 161.96720259843843 L 1202.9571081810525 160.67803993361093 L 1203.5323858267036 159.43016625455795 L 1204.2037971238035 158.2312751174709 L 1204.9672025984385 157.08875808488173 L 1205.8178956019995 156.0096591542218 L 1206.7506313292354 155.00063132923543 L 1207.7596591542217 154.06789560199945 L 1208.8387580848816 153.21720259843843 L 1209.981275117471 152.45379712380338 L 1211.180166254558 151.78238582670355 L 1212.428039933611 151.2071081810525 L 1213.7172025984385 150.7315109648348 L 1215.0397061325216 150.35852639304065 L 1216.387396861796 150.0904540395851 L 1217.7519658247627 149.92894665967026 L 1219.125 149.875 L 1220.4980341752373 149.92894665967026 L 1221.8626031382041 150.0904540395851 L 1223.2102938674784 150.35852639304068 L 1224.5327974015618 150.73151096483485 L 1225.8219600663892 151.20710818105252 L 1227.069833745442 151.7823858267036 L 1228.268724882529 152.45379712380344 L 1229.4112419151184 153.2172025984385 L 1230.4903408457783 154.06789560199954 L 1231.4993686707646 155.00063132923552 L 1232.4321043980005 156.0096591542219 L 1233.2827974015618 157.08875808488185 L 1234.0462028761967 158.23127511747103 L 1234.7176141732966 159.4301662545581 L 1235.2928918189475 160.6780399336111 L 1235.7684890351652 161.9672025984386 L 1236.1414736069594 163.28970613252184 L 1236.409545960415 164.63739686179616 L 1236.5710533403299 166.00196582476292 Z" fill-opacity="1" stroke-opacity="1" stroke-miterlimit="10" stroke-width="6"/><text fill="rgb(255,255,255)" stroke="none" font-family="times new roman" font-size="10px" font-style="normal" font-weight="normal" text-decoration="normal" x="1219.125" y="172.375" text-anchor="middle" dominant-baseline="text-after-edge" fill-opacity="1">*2.4</text><path fill="rgb(69,90,100)" stroke="rgb(76,175,80)" paint-order="fill stroke markers" d=" M 539 242.125 L 539 262.125 L 634 262.125 L 634 242.125 Z" fill-opacity="1" stroke-opacity="1" stroke-miterlimit="10" stroke-width="6"/><text fill="rgb(255,255,255)" stroke="none" font-family="times new roman" font-size="10px" font-style="normal" font-weight="normal" text-decoration="normal" x="586.5" y="257.125" text-anchor="middle" dominant-baseline="text-after-edge" fill-opacity="1">42126310C&gt;T</text><path fill="rgb(69,90,100)" stroke="rgb(76,175,80)" paint-order="fill stroke markers" d=" M 654.875 157.375 L 654.875 177.375 L 749.875 177.375 L 749.875 157.375 Z" fill-opacity="1" stroke-opacity="1" stroke-miterlimit="10" stroke-width="6"/><text fill="rgb(255,255,255)" stroke="none" font-family="times new roman" font-size="10px" font-style="normal" font-weight="normal" text-decoration="normal" x="702.375" y="172.375" text-anchor="middle" dominant-baseline="text-after-edge" fill-opacity="1">42127407T&gt;G</text><path fill="rgb(69,90,100)" stroke="rgb(244,67,54)" paint-order="fill stroke markers" d=" M 841.625 157.375 L 841.625 177.375 L 936.625 177.375 L 936.625 157.375 Z" fill-opacity="1" stroke-opacity="1" stroke-miterlimit="10" stroke-width="2"/><text fill="rgb(255,255,255)" stroke="none" font-family="times new roman" font-size="10px" font-style="normal" font-weight="normal" text-decoration="normal" x="889.125" y="172.375" text-anchor="middle" dominant-baseline="text-after-edge" fill-opacity="1">42127803C&gt;T</text><path fill="rgb(69,90,100)" stroke="rgb(76,175,80)" paint-order="fill stroke markers" d=" M 1244.75 242.125 L 1244.75 262.125 L 1339.75 262.125 L 1339.75 242.125 Z" fill-opacity="1" stroke-opacity="1" stroke-miterlimit="10" stroke-width="6"/><text fill="rgb(255,255,255)" stroke="none" font-family="times new roman" font-size="10px" font-style="normal" font-weight="normal" text-decoration="normal" x="1292.25" y="257.125" text-anchor="middle" dominant-baseline="text-after-edge" fill-opacity="1">42130047G&gt;C</text><path fill="rgb(69,90,100)" stroke="rgb(76,175,80)" paint-order="fill stroke markers" d=" M 719.875 252.125 L 719.8210533403297 253.49803417523728 L 719.6595459604149 254.86260313820404 L 719.3914736069594 256.21029386747836 L 719.0184890351652 257.5327974015616 L 718.5428918189475 258.82196006638907 L 717.9676141732964 260.06983374544205 L 717.2962028761966 261.2687248825291 L 716.5327974015615 262.4112419151183 L 715.6821043980005 263.49034084577823 L 714.7493686707646 264.49936867076457 L 713.7403408457782 265.43210439800055 L 712.6612419151182 266.2827974015616 L 711.5187248825291 267.0462028761966 L 710.3198337454421 267.71761417329645 L 709.0719600663891 268.2928918189475 L 707.7827974015615 268.7684890351652 L 706.4602938674783 269.1414736069593 L 705.112603138204 269.4095459604149 L 703.7480341752373 269.57105334032974 L 702.375 269.625 L 701.0019658247627 269.57105334032974 L 699.637396861796 269.4095459604149 L 698.2897061325217 269.1414736069593 L 696.9672025984385 268.7684890351652 L 695.6780399336109 268.2928918189475 L 694.4301662545579 267.71761417329645 L 693.2312751174709 267.0462028761966 L 692.0887580848818 266.2827974015616 L 691.0096591542218 265.43210439800055 L 690.0006313292354 264.49936867076457 L 689.0678956019995 263.49034084577823 L 688.2172025984385 262.4112419151183 L 687.4537971238034 261.2687248825291 L 686.7823858267036 260.06983374544205 L 686.2071081810525 258.82196006638907 L 685.7315109648348 257.5327974015616 L 685.3585263930406 256.21029386747836 L 685.0904540395851 254.86260313820404 L 684.9289466596703 253.49803417523728 L 684.875 252.125 L 684.9289466596703 250.75196582476272 L 685.0904540395851 249.38739686179596 L 685.3585263930406 248.03970613252164 L 685.7315109648348 246.71720259843843 L 686.2071081810525 245.42803993361093 L 686.7823858267036 244.18016625455795 L 687.4537971238034 242.9812751174709 L 688.2172025984385 241.83875808488173 L 689.0678956019995 240.7596591542218 L 690.0006313292354 239.75063132923543 L 691.0096591542218 238.81789560199945 L 692.0887580848818 237.96720259843843 L 693.2312751174709 237.20379712380338 L 694.4301662545579 236.53238582670355 L 695.678039933611 235.9571081810525 L 696.9672025984385 235.4815109648348 L 698.2897061325217 235.10852639304065 L 699.637396861796 234.8404540395851 L 701.0019658247628 234.67894665967026 L 702.3750000000001 234.625 L 703.7480341752373 234.67894665967026 L 705.1126031382041 234.8404540395851 L 706.4602938674784 235.10852639304068 L 707.7827974015617 235.48151096483485 L 709.0719600663891 235.95710818105252 L 710.3198337454421 236.5323858267036 L 711.5187248825292 237.20379712380344 L 712.6612419151184 237.9672025984385 L 713.7403408457783 238.81789560199954 L 714.7493686707646 239.75063132923552 L 715.6821043980007 240.7596591542219 L 716.5327974015617 241.83875808488185 L 717.2962028761967 242.98127511747103 L 717.9676141732965 244.1801662545581 L 718.5428918189476 245.4280399336111 L 719.0184890351652 246.7172025984386 L 719.3914736069594 248.03970613252184 L 719.6595459604149 249.38739686179616 L 719.8210533403297 250.75196582476292 Z" fill-opacity="1" stroke-opacity="1" stroke-miterlimit="10" stroke-width="6"/><text fill="rgb(255,255,255)" stroke="none" font-family="times new roman" font-size="10px" font-style="normal" font-weight="normal" text-decoration="normal" x="702.375" y="257.125" text-anchor="middle" dominant-baseline="text-after-edge" fill-opacity="1">*1.41</text><path fill="rgb(69,90,100)" stroke="rgb(76,175,80)" paint-order="fill stroke markers" d=" M 425.75 242.125 L 425.75 262.125 L 520.75 262.125 L 520.75 242.125 Z" fill-opacity="1" stroke-opacity="1" stroke-miterlimit="10" stroke-width="2"/><text fill="rgb(255,255,255)" stroke="none" font-family="times new roman" font-size="10px" font-style="normal" font-weight="normal" text-decoration="normal" x="473.25" y="257.125" text-anchor="middle" dominant-baseline="text-after-edge" fill-opacity="1">42132026T&gt;C</text><path fill="rgb(69,90,100)" stroke="rgb(76,175,80)" paint-order="fill stroke markers" d=" M 1117 93.875 L 1116.9460533403299 95.24803417523728 L 1116.784545960415 96.61260313820404 L 1116.5164736069594 97.96029386747834 L 1116.1434890351652 99.28279740156158 L 1115.6678918189475 100.57196006638907 L 1115.0926141732964 101.81983374544207 L 1114.4212028761965 103.0187248825291 L 1113.6577974015615 104.16124191511828 L 1112.8071043980005 105.2403408457782 L 1111.8743686707646 106.24936867076458 L 1110.8653408457783 107.18210439800055 L 1109.7862419151184 108.03279740156158 L 1108.643724882529 108.79620287619662 L 1107.444833745442 109.46761417329644 L 1106.196960066389 110.04289181894751 L 1104.9077974015615 110.51848903516519 L 1103.5852938674784 110.89147360695934 L 1102.2376031382041 111.1595459604149 L 1100.8730341752373 111.32105334032974 L 1099.5 111.375 L 1098.1269658247627 111.32105334032974 L 1096.7623968617959 111.1595459604149 L 1095.4147061325216 110.89147360695934 L 1094.0922025984385 110.51848903516519 L 1092.803039933611 110.04289181894751 L 1091.555166254558 109.46761417329644 L 1090.356275117471 108.79620287619662 L 1089.2137580848816 108.03279740156158 L 1088.1346591542217 107.18210439800055 L 1087.1256313292354 106.24936867076458 L 1086.1928956019995 105.24034084577822 L 1085.3422025984385 104.16124191511828 L 1084.5787971238035 103.01872488252911 L 1083.9073858267036 101.81983374544207 L 1083.3321081810525 100.57196006638907 L 1082.8565109648348 99.28279740156158 L 1082.4835263930406 97.96029386747834 L 1082.215454039585 96.61260313820404 L 1082.0539466596701 95.2480341752373 L 1082 93.875 L 1082.0539466596701 92.50196582476272 L 1082.215454039585 91.13739686179596 L 1082.4835263930406 89.78970613252166 L 1082.8565109648348 88.46720259843842 L 1083.3321081810525 87.17803993361093 L 1083.9073858267036 85.93016625455793 L 1084.5787971238035 84.7312751174709 L 1085.3422025984385 83.58875808488172 L 1086.1928956019995 82.5096591542218 L 1087.1256313292354 81.50063132923542 L 1088.1346591542217 80.56789560199947 L 1089.2137580848816 79.71720259843842 L 1090.356275117471 78.95379712380338 L 1091.555166254558 78.28238582670356 L 1092.803039933611 77.70710818105248 L 1094.0922025984385 77.2315109648348 L 1095.4147061325216 76.85852639304065 L 1096.762396861796 76.59045403958508 L 1098.1269658247627 76.42894665967026 L 1099.5 76.375 L 1100.8730341752373 76.42894665967026 L 1102.2376031382041 76.5904540395851 L 1103.5852938674784 76.85852639304068 L 1104.9077974015618 77.23151096483484 L 1106.1969600663892 77.70710818105252 L 1107.444833745442 78.2823858267036 L 1108.643724882529 78.95379712380344 L 1109.7862419151184 79.71720259843849 L 1110.8653408457783 80.56789560199954 L 1111.8743686707646 81.50063132923552 L 1112.8071043980005 82.5096591542219 L 1113.6577974015618 83.58875808488185 L 1114.4212028761967 84.73127511747103 L 1115.0926141732966 85.93016625455807 L 1115.6678918189475 87.17803993361109 L 1116.1434890351652 88.46720259843859 L 1116.5164736069594 89.78970613252184 L 1116.784545960415 91.13739686179616 L 1116.9460533403299 92.50196582476292 Z" fill-opacity="1" stroke-opacity="1" stroke-miterlimit="10" stroke-width="6"/><text fill="rgb(255,255,255)" stroke="none" font-family="times new roman" font-size="10px" font-style="normal" font-weight="normal" text-decoration="normal" x="1099.5" y="98.875" text-anchor="middle" dominant-baseline="text-after-edge" fill-opacity="1">*39.2</text><path fill="rgb(69,90,100)" stroke="rgb(76,175,80)" paint-order="fill stroke markers" d=" M 1290.25 396.5 L 1290.1960533403299 397.8730341752373 L 1290.034545960415 399.23760313820407 L 1289.7664736069594 400.58529386747836 L 1289.3934890351652 401.9077974015616 L 1288.9178918189475 403.19696006638907 L 1288.3426141732964 404.44483374544205 L 1287.6712028761965 405.6437248825291 L 1286.9077974015615 406.7862419151183 L 1286.0571043980005 407.86534084577823 L 1285.1243686707646 408.87436867076457 L 1284.1153408457783 409.80710439800055 L 1283.0362419151184 410.6577974015616 L 1281.893724882529 411.4212028761966 L 1280.694833745442 412.09261417329645 L 1279.446960066389 412.6678918189475 L 1278.1577974015615 413.1434890351652 L 1276.8352938674784 413.5164736069593 L 1275.4876031382041 413.7845459604149 L 1274.1230341752373 413.94605334032974 L 1272.75 414 L 1271.3769658247627 413.94605334032974 L 1270.0123968617959 413.7845459604149 L 1268.6647061325216 413.5164736069593 L 1267.3422025984385 413.1434890351652 L 1266.053039933611 412.6678918189475 L 1264.805166254558 412.09261417329645 L 1263.606275117471 411.4212028761966 L 1262.4637580848816 410.6577974015616 L 1261.3846591542217 409.80710439800055 L 1260.3756313292354 408.87436867076457 L 1259.4428956019995 407.86534084577823 L 1258.5922025984385 406.7862419151183 L 1257.8287971238035 405.6437248825291 L 1257.1573858267036 404.44483374544205 L 1256.5821081810525 403.19696006638907 L 1256.1065109648348 401.9077974015616 L 1255.7335263930406 400.58529386747836 L 1255.465454039585 399.23760313820407 L 1255.3039466596701 397.8730341752373 L 1255.25 396.5 L 1255.3039466596701 395.1269658247627 L 1255.465454039585 393.76239686179593 L 1255.7335263930406 392.41470613252164 L 1256.1065109648348 391.0922025984384 L 1256.5821081810525 389.80303993361093 L 1257.1573858267036 388.55516625455795 L 1257.8287971238035 387.3562751174709 L 1258.5922025984385 386.2137580848817 L 1259.4428956019995 385.13465915422177 L 1260.3756313292354 384.12563132923543 L 1261.3846591542217 383.19289560199945 L 1262.4637580848816 382.3422025984384 L 1263.606275117471 381.5787971238034 L 1264.805166254558 380.90738582670355 L 1266.053039933611 380.3321081810525 L 1267.3422025984385 379.8565109648348 L 1268.6647061325216 379.4835263930407 L 1270.012396861796 379.2154540395851 L 1271.3769658247627 379.05394665967026 L 1272.75 379 L 1274.1230341752373 379.05394665967026 L 1275.4876031382041 379.2154540395851 L 1276.8352938674784 379.4835263930407 L 1278.1577974015618 379.85651096483485 L 1279.4469600663892 380.3321081810525 L 1280.694833745442 380.9073858267036 L 1281.893724882529 381.57879712380344 L 1283.0362419151184 382.3422025984385 L 1284.1153408457783 383.19289560199957 L 1285.1243686707646 384.1256313292355 L 1286.0571043980005 385.1346591542219 L 1286.9077974015618 386.2137580848818 L 1287.6712028761967 387.35627511747106 L 1288.3426141732966 388.55516625455806 L 1288.9178918189475 389.8030399336111 L 1289.3934890351652 391.0922025984386 L 1289.7664736069594 392.4147061325218 L 1290.034545960415 393.76239686179616 L 1290.1960533403299 395.1269658247629 Z" fill-opacity="1" stroke-opacity="1" stroke-miterlimit="10" stroke-width="6"/><text fill="rgb(255,255,255)" stroke="none" font-family="times new roman" font-size="10px" font-style="normal" font-weight="normal" text-decoration="normal" x="1272.75" y="401.5" text-anchor="middle" dominant-baseline="text-after-edge" fill-opacity="1">*1.54</text><path fill="rgb(69,90,100)" stroke="rgb(76,175,80)" paint-order="fill stroke markers" d=" M 747.125 242.125 L 747.125 262.125 L 842.125 262.125 L 842.125 242.125 Z" fill-opacity="1" stroke-opacity="1" stroke-miterlimit="10" stroke-width="6"/><text fill="rgb(255,255,255)" stroke="none" font-family="times new roman" font-size="10px" font-style="normal" font-weight="normal" text-decoration="normal" x="794.625" y="257.125" text-anchor="middle" dominant-baseline="text-after-edge" fill-opacity="1">42129950A&gt;C</text><path fill="rgb(69,90,100)" stroke="rgb(76,175,80)" paint-order="fill stroke markers" d=" M 965.375 242.125 L 965.375 262.125 L 1060.375 262.125 L 1060.375 242.125 Z" fill-opacity="1" stroke-opacity="1" stroke-miterlimit="10" stroke-width="6"/><text fill="rgb(255,255,255)" stroke="none" font-family="times new roman" font-size="10px" font-style="normal" font-weight="normal" text-decoration="normal" x="1012.875" y="257.125" text-anchor="middle" dominant-baseline="text-after-edge" fill-opacity="1">42130482C&gt;A</text><path fill="rgb(69,90,100)" stroke="rgb(76,175,80)" paint-order="fill stroke markers" d=" M 1168.125 167.375 L 1168.0556400089954 169.1403296538765 L 1167.8479876633905 170.89477546340518 L 1167.5033232089477 172.62752068675786 L 1167.023771616641 174.32788237343632 L 1166.4122894815039 175.98537722821453 L 1165.6726467942383 177.58978624413982 L 1164.8094036979671 179.13121770610886 L 1163.8278823734363 180.60016817658064 L 1162.7341342260006 181.98758108742913 L 1161.5349025766973 183.2849025766973 L 1160.2375810874291 184.4841342260007 L 1158.8501681765806 185.57788237343632 L 1157.3812177061088 186.55940369796707 L 1155.8397862441398 187.4226467942383 L 1154.2353772282145 188.16228948150396 L 1152.5778823734363 188.77377161664094 L 1150.8775206867579 189.25332320894773 L 1149.1447754634053 189.5979876633906 L 1147.3903296538765 189.80564000899537 L 1145.625 189.875 L 1143.8596703461235 189.80564000899537 L 1142.1052245365947 189.5979876633906 L 1140.3724793132421 189.25332320894773 L 1138.6721176265637 188.77377161664094 L 1137.0146227717855 188.16228948150396 L 1135.4102137558602 187.4226467942383 L 1133.8687822938912 186.55940369796707 L 1132.3998318234194 185.57788237343632 L 1131.0124189125709 184.4841342260007 L 1129.7150974233027 183.28490257669733 L 1128.5158657739994 181.98758108742913 L 1127.4221176265637 180.60016817658064 L 1126.4405963020329 179.13121770610886 L 1125.5773532057617 177.58978624413982 L 1124.8377105184961 175.98537722821453 L 1124.226228383359 174.32788237343632 L 1123.7466767910523 172.62752068675786 L 1123.4020123366095 170.8947754634052 L 1123.1943599910046 169.1403296538765 L 1123.125 167.375 L 1123.1943599910046 165.6096703461235 L 1123.4020123366095 163.85522453659482 L 1123.7466767910523 162.12247931324214 L 1124.226228383359 160.42211762656368 L 1124.8377105184961 158.76462277178547 L 1125.5773532057617 157.1602137558602 L 1126.4405963020329 155.61878229389114 L 1127.4221176265637 154.14983182341936 L 1128.5158657739994 152.76241891257087 L 1129.7150974233027 151.4650974233027 L 1131.0124189125709 150.2658657739993 L 1132.3998318234194 149.17211762656368 L 1133.8687822938912 148.19059630203293 L 1135.4102137558602 147.3273532057617 L 1137.0146227717855 146.58771051849604 L 1138.6721176265637 145.97622838335903 L 1140.3724793132421 145.49667679105227 L 1142.105224536595 145.1520123366094 L 1143.8596703461235 144.9443599910046 L 1145.625 144.875 L 1147.3903296538765 144.94435999100463 L 1149.1447754634053 145.1520123366094 L 1150.8775206867579 145.4966767910523 L 1152.5778823734365 145.97622838335909 L 1154.2353772282147 146.5877105184961 L 1155.83978624414 147.3273532057618 L 1157.381217706109 148.190596302033 L 1158.8501681765808 149.17211762656376 L 1160.2375810874294 150.26586577399942 L 1161.5349025766975 151.4650974233028 L 1162.7341342260008 152.762418912571 L 1163.8278823734365 154.1498318234195 L 1164.8094036979671 155.61878229389131 L 1165.6726467942383 157.16021375586038 L 1166.412289481504 158.7646227717857 L 1167.023771616641 160.4221176265639 L 1167.5033232089477 162.12247931324237 L 1167.8479876633905 163.85522453659505 L 1168.0556400089954 165.60967034612375 Z" fill-opacity="1" stroke-opacity="1" stroke-miterlimit="10" stroke-width="6"/><text fill="rgb(255,255,255)" stroke="none" font-family="times new roman" font-size="15px" font-style="normal" font-weight="normal" text-decoration="normal" x="1145.625" y="174.875" text-anchor="middle" dominant-baseline="text-after-edge" fill-opacity="1">*39</text><path fill="rgb(69,90,100)" stroke="rgb(255,193,7)" paint-order="fill stroke markers" d=" M 653.125 396.5 L 653.0710533403297 397.8730341752373 L 652.9095459604149 399.23760313820407 L 652.6414736069594 400.58529386747836 L 652.2684890351652 401.9077974015616 L 651.7928918189475 403.19696006638907 L 651.2176141732964 404.44483374544205 L 650.5462028761966 405.6437248825291 L 649.7827974015615 406.7862419151183 L 648.9321043980005 407.86534084577823 L 647.9993686707646 408.87436867076457 L 646.9903408457782 409.80710439800055 L 645.9112419151182 410.6577974015616 L 644.7687248825291 411.4212028761966 L 643.5698337454421 412.09261417329645 L 642.3219600663891 412.6678918189475 L 641.0327974015615 413.1434890351652 L 639.7102938674783 413.5164736069593 L 638.362603138204 413.7845459604149 L 636.9980341752373 413.94605334032974 L 635.625 414 L 634.2519658247627 413.94605334032974 L 632.887396861796 413.7845459604149 L 631.5397061325217 413.5164736069593 L 630.2172025984385 413.1434890351652 L 628.9280399336109 412.6678918189475 L 627.6801662545579 412.09261417329645 L 626.4812751174709 411.4212028761966 L 625.3387580848818 410.6577974015616 L 624.2596591542218 409.80710439800055 L 623.2506313292354 408.87436867076457 L 622.3178956019995 407.86534084577823 L 621.4672025984385 406.7862419151183 L 620.7037971238034 405.6437248825291 L 620.0323858267036 404.44483374544205 L 619.4571081810525 403.19696006638907 L 618.9815109648348 401.9077974015616 L 618.6085263930406 400.58529386747836 L 618.3404540395851 399.23760313820407 L 618.1789466596703 397.8730341752373 L 618.125 396.5 L 618.1789466596703 395.1269658247627 L 618.3404540395851 393.76239686179593 L 618.6085263930406 392.41470613252164 L 618.9815109648348 391.0922025984384 L 619.4571081810525 389.80303993361093 L 620.0323858267036 388.55516625455795 L 620.7037971238034 387.3562751174709 L 621.4672025984385 386.2137580848817 L 622.3178956019995 385.13465915422177 L 623.2506313292354 384.12563132923543 L 624.2596591542218 383.19289560199945 L 625.3387580848818 382.3422025984384 L 626.4812751174709 381.5787971238034 L 627.6801662545579 380.90738582670355 L 628.928039933611 380.3321081810525 L 630.2172025984385 379.8565109648348 L 631.5397061325217 379.4835263930407 L 632.887396861796 379.2154540395851 L 634.2519658247628 379.05394665967026 L 635.6250000000001 379 L 636.9980341752373 379.05394665967026 L 638.3626031382041 379.2154540395851 L 639.7102938674784 379.4835263930407 L 641.0327974015617 379.85651096483485 L 642.3219600663891 380.3321081810525 L 643.5698337454421 380.9073858267036 L 644.7687248825292 381.57879712380344 L 645.9112419151184 382.3422025984385 L 646.9903408457783 383.19289560199957 L 647.9993686707646 384.1256313292355 L 648.9321043980007 385.1346591542219 L 649.7827974015617 386.2137580848818 L 650.5462028761967 387.35627511747106 L 651.2176141732965 388.55516625455806 L 651.7928918189476 389.8030399336111 L 652.2684890351652 391.0922025984386 L 652.6414736069594 392.4147061325218 L 652.9095459604149 393.76239686179616 L 653.0710533403297 395.1269658247629 Z" fill-opacity="1" stroke-opacity="1" stroke-miterlimit="10" stroke-width="2"/><text fill="rgb(255,255,255)" stroke="none" font-family="times new roman" font-size="10px" font-style="normal" font-weight="normal" text-decoration="normal" x="635.625" y="401.5" text-anchor="middle" dominant-baseline="text-after-edge" fill-opacity="1">*119.1</text><path fill="rgb(69,90,100)" stroke="rgb(255,193,7)" paint-order="fill stroke markers" d=" M 911.625 252.125 L 911.5556400089954 253.8903296538765 L 911.3479876633907 255.64477546340518 L 911.0033232089477 257.37752068675786 L 910.5237716166409 259.0778823734363 L 909.912289481504 260.73537722821453 L 909.1726467942383 262.3397862441398 L 908.3094036979671 263.8812177061088 L 907.3278823734363 265.35016817658067 L 906.2341342260007 266.73758108742913 L 905.0349025766973 268.03490257669733 L 903.7375810874291 269.2341342260007 L 902.3501681765806 270.3278823734363 L 900.8812177061088 271.30940369796707 L 899.3397862441398 272.1726467942383 L 897.7353772282145 272.91228948150393 L 896.0778823734363 273.52377161664094 L 894.3775206867579 274.00332320894773 L 892.6447754634052 274.3479876633906 L 890.8903296538765 274.5556400089954 L 889.125 274.625 L 887.3596703461235 274.5556400089954 L 885.6052245365948 274.3479876633906 L 883.8724793132421 274.00332320894773 L 882.1721176265637 273.52377161664094 L 880.5146227717855 272.91228948150393 L 878.9102137558602 272.1726467942383 L 877.3687822938912 271.30940369796707 L 875.8998318234194 270.3278823734363 L 874.5124189125709 269.2341342260007 L 873.2150974233027 268.03490257669733 L 872.0158657739993 266.73758108742913 L 870.9221176265637 265.35016817658067 L 869.9405963020329 263.8812177061088 L 869.0773532057617 262.3397862441398 L 868.337710518496 260.73537722821453 L 867.7262283833591 259.0778823734363 L 867.2466767910523 257.37752068675786 L 866.9020123366095 255.6447754634052 L 866.6943599910046 253.8903296538765 L 866.625 252.125 L 866.6943599910046 250.3596703461235 L 866.9020123366093 248.60522453659482 L 867.2466767910523 246.87247931324214 L 867.7262283833591 245.17211762656368 L 868.337710518496 243.51462277178547 L 869.0773532057617 241.9102137558602 L 869.9405963020329 240.36878229389114 L 870.9221176265637 238.89983182341936 L 872.0158657739993 237.51241891257087 L 873.2150974233027 236.2150974233027 L 874.5124189125709 235.0158657739993 L 875.8998318234194 233.92211762656368 L 877.3687822938912 232.94059630203293 L 878.9102137558602 232.0773532057617 L 880.5146227717855 231.33771051849604 L 882.1721176265637 230.72622838335903 L 883.8724793132421 230.24667679105227 L 885.6052245365948 229.9020123366094 L 887.3596703461236 229.6943599910046 L 889.1250000000001 229.625 L 890.8903296538766 229.69435999100463 L 892.6447754634053 229.9020123366094 L 894.377520686758 230.2466767910523 L 896.0778823734364 230.72622838335909 L 897.7353772282146 231.3377105184961 L 899.3397862441399 232.0773532057618 L 900.8812177061089 232.940596302033 L 902.3501681765807 233.92211762656376 L 903.7375810874292 235.01586577399942 L 905.0349025766974 236.2150974233028 L 906.2341342260008 237.512418912571 L 907.3278823734364 238.8998318234195 L 908.3094036979671 240.36878229389131 L 909.1726467942384 241.91021375586038 L 909.912289481504 243.5146227717857 L 910.523771616641 245.1721176265639 L 911.0033232089478 246.87247931324237 L 911.3479876633907 248.60522453659505 L 911.5556400089954 250.35967034612375 Z" fill-opacity="1" stroke-opacity="1" stroke-miterlimit="10" stroke-width="2"/><text fill="rgb(255,255,255)" stroke="none" font-family="times new roman" font-size="15px" font-style="normal" font-weight="normal" text-decoration="normal" x="889.125" y="259.625" text-anchor="middle" dominant-baseline="text-after-edge" fill-opacity="1">*119</text><path fill="rgb(69,90,100)" stroke="rgb(76,175,80)" paint-order="fill stroke markers" d=" M 1168.125 252.125 L 1168.0556400089954 253.8903296538765 L 1167.8479876633905 255.64477546340518 L 1167.5033232089477 257.37752068675786 L 1167.023771616641 259.0778823734363 L 1166.4122894815039 260.73537722821453 L 1165.6726467942383 262.3397862441398 L 1164.8094036979671 263.8812177061088 L 1163.8278823734363 265.35016817658067 L 1162.7341342260006 266.73758108742913 L 1161.5349025766973 268.03490257669733 L 1160.2375810874291 269.2341342260007 L 1158.8501681765806 270.3278823734363 L 1157.3812177061088 271.30940369796707 L 1155.8397862441398 272.1726467942383 L 1154.2353772282145 272.91228948150393 L 1152.5778823734363 273.52377161664094 L 1150.8775206867579 274.00332320894773 L 1149.1447754634053 274.3479876633906 L 1147.3903296538765 274.5556400089954 L 1145.625 274.625 L 1143.8596703461235 274.5556400089954 L 1142.1052245365947 274.3479876633906 L 1140.3724793132421 274.00332320894773 L 1138.6721176265637 273.52377161664094 L 1137.0146227717855 272.91228948150393 L 1135.4102137558602 272.1726467942383 L 1133.8687822938912 271.30940369796707 L 1132.3998318234194 270.3278823734363 L 1131.0124189125709 269.2341342260007 L 1129.7150974233027 268.03490257669733 L 1128.5158657739994 266.73758108742913 L 1127.4221176265637 265.35016817658067 L 1126.4405963020329 263.8812177061088 L 1125.5773532057617 262.3397862441398 L 1124.8377105184961 260.73537722821453 L 1124.226228383359 259.0778823734363 L 1123.7466767910523 257.37752068675786 L 1123.4020123366095 255.6447754634052 L 1123.1943599910046 253.8903296538765 L 1123.125 252.125 L 1123.1943599910046 250.3596703461235 L 1123.4020123366095 248.60522453659482 L 1123.7466767910523 246.87247931324214 L 1124.226228383359 245.17211762656368 L 1124.8377105184961 243.51462277178547 L 1125.5773532057617 241.9102137558602 L 1126.4405963020329 240.36878229389114 L 1127.4221176265637 238.89983182341936 L 1128.5158657739994 237.51241891257087 L 1129.7150974233027 236.2150974233027 L 1131.0124189125709 235.0158657739993 L 1132.3998318234194 233.92211762656368 L 1133.8687822938912 232.94059630203293 L 1135.4102137558602 232.0773532057617 L 1137.0146227717855 231.33771051849604 L 1138.6721176265637 230.72622838335903 L 1140.3724793132421 230.24667679105227 L 1142.105224536595 229.9020123366094 L 1143.8596703461235 229.6943599910046 L 1145.625 229.625 L 1147.3903296538765 229.69435999100463 L 1149.1447754634053 229.9020123366094 L 1150.8775206867579 230.2466767910523 L 1152.5778823734365 230.72622838335909 L 1154.2353772282147 231.3377105184961 L 1155.83978624414 232.0773532057618 L 1157.381217706109 232.940596302033 L 1158.8501681765808 233.92211762656376 L 1160.2375810874294 235.01586577399942 L 1161.5349025766975 236.2150974233028 L 1162.7341342260008 237.512418912571 L 1163.8278823734365 238.8998318234195 L 1164.8094036979671 240.36878229389131 L 1165.6726467942383 241.91021375586038 L 1166.412289481504 243.5146227717857 L 1167.023771616641 245.1721176265639 L 1167.5033232089477 246.87247931324237 L 1167.8479876633905 248.60522453659505 L 1168.0556400089954 250.35967034612375 Z" fill-opacity="1" stroke-opacity="1" stroke-miterlimit="10" stroke-width="6"/><text fill="rgb(255,255,255)" stroke="none" font-family="times new roman" font-size="15px" font-style="normal" font-weight="normal" text-decoration="normal" x="1145.625" y="259.625" text-anchor="middle" dominant-baseline="text-after-edge" fill-opacity="1">*2</text><path fill="rgb(3,169,244)" stroke="none" paint-order="stroke fill markers" d=" M 1145.625 219.625 L 1170.125 219.625 L 1170.125 219.625 A 8 8 0 0 1 1178.125 227.625 L 1178.125 276.625 L 1178.125 276.625 A 8 8 0 0 1 1170.125 284.625 L 1121.125 284.625 L 1121.125 284.625 A 8 8 0 0 1 1113.125 276.625 L 1113.125 227.625 L 1113.125 227.625 A 8 8 0 0 1 1121.125 219.625 L 1145.625 219.625 Z" fill-opacity="0.15"/><path fill="rgb(69,90,100)" stroke="rgb(76,175,80)" paint-order="fill stroke markers" d=" M 249.75 242.125 L 292.25 242.125 L 292.25 242.125 A 5 5 0 0 1 297.25 247.125 L 297.25 257.125 L 297.25 257.125 A 5 5 0 0 1 292.25 262.125 L 207.25 262.125 L 207.25 262.125 A 5 5 0 0 1 202.25 257.125 L 202.25 247.125 L 202.25 247.125 A 5 5 0 0 1 207.25 242.125 L 249.75 242.125 Z" fill-opacity="1" stroke-opacity="1" stroke-miterlimit="10" stroke-width="2"/><text fill="rgb(255,255,255)" stroke="none" font-family="times new roman" font-size="10px" font-style="normal" font-weight="normal" text-decoration="normal" x="249.75" y="257.125" text-anchor="middle" dominant-baseline="text-after-edge" fill-opacity="1">42132025_4213202…</text><path fill="rgb(69,90,100)" stroke="rgb(255,193,7)" paint-order="fill stroke markers" d=" M 927 396.5 L 926.9306400089954 398.2653296538765 L 926.7229876633907 400.0197754634052 L 926.3783232089477 401.75252068675786 L 925.8987716166409 403.4528823734363 L 925.287289481504 405.11037722821453 L 924.5476467942383 406.7147862441398 L 923.6844036979671 408.2562177061088 L 922.7028823734363 409.72516817658067 L 921.6091342260007 411.11258108742913 L 920.4099025766973 412.40990257669733 L 919.1125810874291 413.6091342260007 L 917.7251681765806 414.7028823734363 L 916.2562177061088 415.68440369796707 L 914.7147862441398 416.5476467942383 L 913.1103772282145 417.28728948150393 L 911.4528823734363 417.89877161664094 L 909.7525206867579 418.37832320894773 L 908.0197754634052 418.7229876633906 L 906.2653296538765 418.9306400089954 L 904.5 419 L 902.7346703461235 418.9306400089954 L 900.9802245365948 418.7229876633906 L 899.2474793132421 418.37832320894773 L 897.5471176265637 417.89877161664094 L 895.8896227717855 417.28728948150393 L 894.2852137558602 416.5476467942383 L 892.7437822938912 415.68440369796707 L 891.2748318234194 414.7028823734363 L 889.8874189125709 413.6091342260007 L 888.5900974233027 412.40990257669733 L 887.3908657739993 411.11258108742913 L 886.2971176265637 409.72516817658067 L 885.3155963020329 408.2562177061088 L 884.4523532057617 406.7147862441398 L 883.712710518496 405.11037722821453 L 883.1012283833591 403.4528823734363 L 882.6216767910523 401.75252068675786 L 882.2770123366095 400.0197754634052 L 882.0693599910046 398.2653296538765 L 882 396.5 L 882.0693599910046 394.7346703461235 L 882.2770123366093 392.9802245365948 L 882.6216767910523 391.24747931324214 L 883.1012283833591 389.5471176265637 L 883.712710518496 387.88962277178547 L 884.4523532057617 386.2852137558602 L 885.3155963020329 384.7437822938912 L 886.2971176265637 383.27483182341933 L 887.3908657739993 381.88741891257087 L 888.5900974233027 380.59009742330267 L 889.8874189125709 379.39086577399934 L 891.2748318234194 378.2971176265637 L 892.7437822938912 377.31559630203293 L 894.2852137558602 376.4523532057617 L 895.8896227717855 375.712710518496 L 897.5471176265637 375.10122838335906 L 899.2474793132421 374.62167679105227 L 900.9802245365948 374.2770123366094 L 902.7346703461236 374.0693599910046 L 904.5000000000001 374 L 906.2653296538766 374.0693599910046 L 908.0197754634053 374.2770123366094 L 909.752520686758 374.6216767910523 L 911.4528823734364 375.10122838335906 L 913.1103772282146 375.7127105184961 L 914.7147862441399 376.45235320576177 L 916.2562177061089 377.315596302033 L 917.7251681765807 378.29711762656376 L 919.1125810874292 379.3908657739994 L 920.4099025766974 380.5900974233028 L 921.6091342260008 381.887418912571 L 922.7028823734364 383.2748318234195 L 923.6844036979671 384.74378229389134 L 924.5476467942384 386.2852137558604 L 925.287289481504 387.8896227717857 L 925.898771616641 389.54711762656393 L 926.3783232089478 391.24747931324237 L 926.7229876633907 392.9802245365951 L 926.9306400089954 394.7346703461238 Z" fill-opacity="1" stroke-opacity="1" stroke-miterlimit="10" stroke-width="2"/><text fill="rgb(255,255,255)" stroke="none" font-family="times new roman" font-size="15px" font-style="normal" font-weight="normal" text-decoration="normal" x="904.5" y="404" text-anchor="middle" dominant-baseline="text-after-edge" fill-opacity="1">*41</text><path fill="rgb(3,169,244)" stroke="none" paint-order="stroke fill markers" d=" M 904.5 364 L 929 364 L 929 364 A 8 8 0 0 1 937 372 L 937 421 L 937 421 A 8 8 0 0 1 929 429 L 880 429 L 880 429 A 8 8 0 0 1 872 421 L 872 372 L 872 372 A 8 8 0 0 1 880 364 L 904.5 364 Z" fill-opacity="0.15"/><path fill="rgb(69,90,100)" stroke="rgb(69,90,100)" paint-order="fill stroke markers" d=" M 838.5 510.625 L 819.75 528.125 L 838.5 545.625 L 876 545.625 L 894.75 528.125 L 876 510.625 Z" fill-opacity="1" stroke-opacity="1" stroke-miterlimit="10" stroke-width="2"/><text fill="rgb(255,255,255)" stroke="none" font-family="times new roman" font-size="10px" font-style="normal" font-weight="normal" text-decoration="normal" x="857.25" y="533.125" text-anchor="middle" dominant-baseline="text-after-edge" fill-opacity="1">NA12815-all</text><path fill="rgb(69,90,100)" stroke="rgb(76,175,80)" paint-order="fill stroke markers" d=" M 1047.25 93.875 L 1047.1960533403299 95.24803417523728 L 1047.034545960415 96.61260313820404 L 1046.7664736069594 97.96029386747834 L 1046.3934890351652 99.28279740156158 L 1045.9178918189475 100.57196006638907 L 1045.3426141732964 101.81983374544207 L 1044.6712028761965 103.0187248825291 L 1043.9077974015615 104.16124191511828 L 1043.0571043980005 105.2403408457782 L 1042.1243686707646 106.24936867076458 L 1041.1153408457783 107.18210439800055 L 1040.0362419151184 108.03279740156158 L 1038.893724882529 108.79620287619662 L 1037.694833745442 109.46761417329644 L 1036.446960066389 110.04289181894751 L 1035.1577974015615 110.51848903516519 L 1033.8352938674784 110.89147360695934 L 1032.4876031382041 111.1595459604149 L 1031.1230341752373 111.32105334032974 L 1029.75 111.375 L 1028.3769658247627 111.32105334032974 L 1027.0123968617959 111.1595459604149 L 1025.6647061325216 110.89147360695934 L 1024.3422025984385 110.51848903516519 L 1023.0530399336109 110.04289181894751 L 1021.8051662545579 109.46761417329644 L 1020.6062751174709 108.79620287619662 L 1019.4637580848818 108.03279740156158 L 1018.3846591542218 107.18210439800055 L 1017.3756313292354 106.24936867076458 L 1016.4428956019995 105.24034084577822 L 1015.5922025984385 104.16124191511828 L 1014.8287971238034 103.01872488252911 L 1014.1573858267036 101.81983374544207 L 1013.5821081810525 100.57196006638907 L 1013.1065109648348 99.28279740156158 L 1012.7335263930406 97.96029386747834 L 1012.4654540395851 96.61260313820404 L 1012.3039466596703 95.2480341752373 L 1012.25 93.875 L 1012.3039466596703 92.50196582476272 L 1012.4654540395851 91.13739686179596 L 1012.7335263930406 89.78970613252166 L 1013.1065109648348 88.46720259843842 L 1013.5821081810525 87.17803993361093 L 1014.1573858267036 85.93016625455793 L 1014.8287971238034 84.7312751174709 L 1015.5922025984385 83.58875808488172 L 1016.4428956019995 82.5096591542218 L 1017.3756313292354 81.50063132923542 L 1018.3846591542218 80.56789560199947 L 1019.4637580848818 79.71720259843842 L 1020.6062751174709 78.95379712380338 L 1021.8051662545579 78.28238582670356 L 1023.053039933611 77.70710818105248 L 1024.3422025984385 77.2315109648348 L 1025.6647061325216 76.85852639304065 L 1027.012396861796 76.59045403958508 L 1028.3769658247627 76.42894665967026 L 1029.75 76.375 L 1031.1230341752373 76.42894665967026 L 1032.4876031382041 76.5904540395851 L 1033.8352938674784 76.85852639304068 L 1035.1577974015618 77.23151096483484 L 1036.4469600663892 77.70710818105252 L 1037.694833745442 78.2823858267036 L 1038.893724882529 78.95379712380344 L 1040.0362419151184 79.71720259843849 L 1041.1153408457783 80.56789560199954 L 1042.1243686707646 81.50063132923552 L 1043.0571043980005 82.5096591542219 L 1043.9077974015618 83.58875808488185 L 1044.6712028761967 84.73127511747103 L 1045.3426141732966 85.93016625455807 L 1045.9178918189475 87.17803993361109 L 1046.3934890351652 88.46720259843859 L 1046.7664736069594 89.78970613252184 L 1047.034545960415 91.13739686179616 L 1047.1960533403299 92.50196582476292 Z" fill-opacity="1" stroke-opacity="1" stroke-miterlimit="10" stroke-width="6"/><text fill="rgb(255,255,255)" stroke="none" font-family="times new roman" font-size="10px" font-style="normal" font-weight="normal" text-decoration="normal" x="1029.75" y="98.875" text-anchor="middle" dominant-baseline="text-after-edge" fill-opacity="1">*34.1</text><path fill="rgb(69,90,100)" stroke="rgb(158,158,158)" paint-order="fill stroke markers" d=" M 890 83.875 L 890 103.875 L 985 103.875 L 985 83.875 Z" fill-opacity="1" stroke-opacity="1" stroke-miterlimit="10" stroke-width="6"/><text fill="rgb(255,255,255)" stroke="none" font-family="times new roman" font-size="10px" font-style="normal" font-weight="normal" text-decoration="normal" x="937.5" y="98.875" text-anchor="middle" dominant-baseline="text-after-edge" fill-opacity="1">42127941G&gt;A</text><path fill="rgb(69,90,100)" stroke="rgb(76,175,80)" paint-order="fill stroke markers" d=" M 1006.125 167.375 L 1006.0556400089954 169.1403296538765 L 1005.8479876633907 170.89477546340518 L 1005.5033232089477 172.62752068675786 L 1005.0237716166409 174.32788237343632 L 1004.412289481504 175.98537722821453 L 1003.6726467942383 177.58978624413982 L 1002.8094036979671 179.13121770610886 L 1001.8278823734363 180.60016817658064 L 1000.7341342260007 181.98758108742913 L 999.5349025766973 183.2849025766973 L 998.2375810874291 184.4841342260007 L 996.8501681765806 185.57788237343632 L 995.3812177061088 186.55940369796707 L 993.8397862441398 187.4226467942383 L 992.2353772282145 188.16228948150396 L 990.5778823734363 188.77377161664094 L 988.8775206867579 189.25332320894773 L 987.1447754634052 189.5979876633906 L 985.3903296538765 189.80564000899537 L 983.625 189.875 L 981.8596703461235 189.80564000899537 L 980.1052245365948 189.5979876633906 L 978.3724793132421 189.25332320894773 L 976.6721176265637 188.77377161664094 L 975.0146227717855 188.16228948150396 L 973.4102137558602 187.4226467942383 L 971.8687822938912 186.55940369796707 L 970.3998318234194 185.57788237343632 L 969.0124189125709 184.4841342260007 L 967.7150974233027 183.28490257669733 L 966.5158657739993 181.98758108742913 L 965.4221176265637 180.60016817658064 L 964.4405963020329 179.13121770610886 L 963.5773532057617 177.58978624413982 L 962.837710518496 175.98537722821453 L 962.2262283833591 174.32788237343632 L 961.7466767910523 172.62752068675786 L 961.4020123366095 170.8947754634052 L 961.1943599910046 169.1403296538765 L 961.125 167.375 L 961.1943599910046 165.6096703461235 L 961.4020123366093 163.85522453659482 L 961.7466767910523 162.12247931324214 L 962.2262283833591 160.42211762656368 L 962.837710518496 158.76462277178547 L 963.5773532057617 157.1602137558602 L 964.4405963020329 155.61878229389114 L 965.4221176265637 154.14983182341936 L 966.5158657739993 152.76241891257087 L 967.7150974233027 151.4650974233027 L 969.0124189125709 150.2658657739993 L 970.3998318234194 149.17211762656368 L 971.8687822938912 148.19059630203293 L 973.4102137558602 147.3273532057617 L 975.0146227717855 146.58771051849604 L 976.6721176265637 145.97622838335903 L 978.3724793132421 145.49667679105227 L 980.1052245365948 145.1520123366094 L 981.8596703461236 144.9443599910046 L 983.6250000000001 144.875 L 985.3903296538766 144.94435999100463 L 987.1447754634053 145.1520123366094 L 988.877520686758 145.4966767910523 L 990.5778823734364 145.97622838335909 L 992.2353772282146 146.5877105184961 L 993.8397862441399 147.3273532057618 L 995.3812177061089 148.190596302033 L 996.8501681765807 149.17211762656376 L 998.2375810874292 150.26586577399942 L 999.5349025766974 151.4650974233028 L 1000.7341342260008 152.762418912571 L 1001.8278823734364 154.1498318234195 L 1002.8094036979671 155.61878229389131 L 1003.6726467942384 157.16021375586038 L 1004.412289481504 158.7646227717857 L 1005.023771616641 160.4221176265639 L 1005.5033232089478 162.12247931324237 L 1005.8479876633907 163.85522453659505 L 1006.0556400089954 165.60967034612375 Z" fill-opacity="1" stroke-opacity="1" stroke-miterlimit="10" stroke-width="6"/><text fill="rgb(255,255,255)" stroke="none" font-family="times new roman" font-size="15px" font-style="normal" font-weight="normal" text-decoration="normal" x="983.625" y="174.875" text-anchor="middle" dominant-baseline="text-after-edge" fill-opacity="1">*34</text><path fill="rgb(69,90,100)" stroke="rgb(76,175,80)" paint-order="fill stroke markers" d=" M 758.875 396.5 L 758.8210533403297 397.8730341752373 L 758.6595459604149 399.23760313820407 L 758.3914736069594 400.58529386747836 L 758.0184890351652 401.9077974015616 L 757.5428918189475 403.19696006638907 L 756.9676141732964 404.44483374544205 L 756.2962028761966 405.6437248825291 L 755.5327974015615 406.7862419151183 L 754.6821043980005 407.86534084577823 L 753.7493686707646 408.87436867076457 L 752.7403408457782 409.80710439800055 L 751.6612419151182 410.6577974015616 L 750.5187248825291 411.4212028761966 L 749.3198337454421 412.09261417329645 L 748.0719600663891 412.6678918189475 L 746.7827974015615 413.1434890351652 L 745.4602938674783 413.5164736069593 L 744.112603138204 413.7845459604149 L 742.7480341752373 413.94605334032974 L 741.375 414 L 740.0019658247627 413.94605334032974 L 738.637396861796 413.7845459604149 L 737.2897061325217 413.5164736069593 L 735.9672025984385 413.1434890351652 L 734.6780399336109 412.6678918189475 L 733.4301662545579 412.09261417329645 L 732.2312751174709 411.4212028761966 L 731.0887580848818 410.6577974015616 L 730.0096591542218 409.80710439800055 L 729.0006313292354 408.87436867076457 L 728.0678956019995 407.86534084577823 L 727.2172025984385 406.7862419151183 L 726.4537971238034 405.6437248825291 L 725.7823858267036 404.44483374544205 L 725.2071081810525 403.19696006638907 L 724.7315109648348 401.9077974015616 L 724.3585263930406 400.58529386747836 L 724.0904540395851 399.23760313820407 L 723.9289466596703 397.8730341752373 L 723.875 396.5 L 723.9289466596703 395.1269658247627 L 724.0904540395851 393.76239686179593 L 724.3585263930406 392.41470613252164 L 724.7315109648348 391.0922025984384 L 725.2071081810525 389.80303993361093 L 725.7823858267036 388.55516625455795 L 726.4537971238034 387.3562751174709 L 727.2172025984385 386.2137580848817 L 728.0678956019995 385.13465915422177 L 729.0006313292354 384.12563132923543 L 730.0096591542218 383.19289560199945 L 731.0887580848818 382.3422025984384 L 732.2312751174709 381.5787971238034 L 733.4301662545579 380.90738582670355 L 734.678039933611 380.3321081810525 L 735.9672025984385 379.8565109648348 L 737.2897061325217 379.4835263930407 L 738.637396861796 379.2154540395851 L 740.0019658247628 379.05394665967026 L 741.3750000000001 379 L 742.7480341752373 379.05394665967026 L 744.1126031382041 379.2154540395851 L 745.4602938674784 379.4835263930407 L 746.7827974015617 379.85651096483485 L 748.0719600663891 380.3321081810525 L 749.3198337454421 380.9073858267036 L 750.5187248825292 381.57879712380344 L 751.6612419151184 382.3422025984385 L 752.7403408457783 383.19289560199957 L 753.7493686707646 384.1256313292355 L 754.6821043980007 385.1346591542219 L 755.5327974015617 386.2137580848818 L 756.2962028761967 387.35627511747106 L 756.9676141732965 388.55516625455806 L 757.5428918189476 389.8030399336111 L 758.0184890351652 391.0922025984386 L 758.3914736069594 392.4147061325218 L 758.6595459604149 393.76239686179616 L 758.8210533403297 395.1269658247629 Z" fill-opacity="1" stroke-opacity="1" stroke-miterlimit="10" stroke-width="6"/><text fill="rgb(255,255,255)" stroke="none" font-family="times new roman" font-size="10px" font-style="normal" font-weight="normal" text-decoration="normal" x="741.375" y="401.5" text-anchor="middle" dominant-baseline="text-after-edge" fill-opacity="1">*1.58</text><path fill="rgb(176,190,197)" stroke="none" paint-order="stroke fill markers" d=" M 959.25 291.5 L 959.25 501.5 L 1034.25 501.5 L 1034.25 291.50000000000006 Z" fill-opacity="0.8"/><text fill="rgb(0,0,0)" stroke="none" font-family="times new roman" font-size="10px" font-style="normal" font-weight="normal" text-decoration="normal" x="964.25" y="306.5" text-anchor="start" dominant-baseline="text-after-edge" fill-opacity="0.8">42127001G&gt;A </text><text fill="rgb(0,0,0)" stroke="none" font-family="times new roman" font-size="10px" font-style="normal" font-weight="normal" text-decoration="normal" x="964.25" y="316.5" text-anchor="start" dominant-baseline="text-after-edge" fill-opacity="0.8">42127207C&gt;T </text><text fill="rgb(0,0,0)" stroke="none" font-family="times new roman" font-size="10px" font-style="normal" font-weight="normal" text-decoration="normal" x="964.25" y="326.5" text-anchor="start" dominant-baseline="text-after-edge" fill-opacity="0.8">42129130C&gt;G </text><text fill="rgb(0,0,0)" stroke="none" font-family="times new roman" font-size="10px" font-style="normal" font-weight="normal" text-decoration="normal" x="964.25" y="336.5" text-anchor="start" dominant-baseline="text-after-edge" fill-opacity="0.8">42131469C&gt;T </text><text fill="rgb(0,0,0)" stroke="none" font-family="times new roman" font-size="10px" font-style="normal" font-weight="normal" text-decoration="normal" x="964.25" y="346.5" text-anchor="start" dominant-baseline="text-after-edge" fill-opacity="0.8">42131531G&gt;A </text><text fill="rgb(0,0,0)" stroke="none" font-family="times new roman" font-size="10px" font-style="normal" font-weight="normal" text-decoration="normal" x="964.25" y="356.5" text-anchor="start" dominant-baseline="text-after-edge" fill-opacity="0.8">42132375G&gt;C </text><path fill="rgb(176,190,197)" stroke="none" paint-order="stroke fill markers" d=" M 249.75 291.5 L 316.75 291.5 L 316.75 291.5 A 8 8 0 0 1 324.75 299.5 L 324.75 493.5 L 324.75 493.5 A 8 8 0 0 1 316.75 501.5 L 182.75 501.5 L 182.75 501.5 A 8 8 0 0 1 174.75 493.5 L 174.75 299.5 L 174.75 299.5 A 8 8 0 0 1 182.75 291.5 L 249.75 291.5 Z" fill-opacity="0.8"/><text fill="rgb(0,0,0)" stroke="none" font-family="times new roman" font-size="10px" font-style="normal" font-weight="normal" text-decoration="normal" x="179.75" y="306.5" text-anchor="start" dominant-baseline="text-after-edge" fill-opacity="0.8">42125924A&gt;G </text><text fill="rgb(0,0,0)" stroke="none" font-family="times new roman" font-size="10px" font-style="normal" font-weight="normal" text-decoration="normal" x="179.75" y="316.5" text-anchor="start" dominant-baseline="text-after-edge" fill-opacity="0.8">42126069A&gt;C </text><text fill="rgb(0,0,0)" stroke="none" font-family="times new roman" font-size="10px" font-style="normal" font-weight="normal" text-decoration="normal" x="179.75" y="326.5" text-anchor="start" dominant-baseline="text-after-edge" fill-opacity="0.8">42126136_42126138del </text><text fill="rgb(0,0,0)" stroke="none" font-family="times new roman" font-size="10px" font-style="normal" font-weight="normal" text-decoration="normal" x="179.75" y="336.5" text-anchor="start" dominant-baseline="text-after-edge" fill-opacity="0.8">42132025_42132026insCCTTTT </text><text fill="rgb(0,0,0)" stroke="none" font-family="times new roman" font-size="10px" font-style="normal" font-weight="normal" text-decoration="normal" x="179.75" y="346.5" text-anchor="start" dominant-baseline="text-after-edge" fill-opacity="0.8">42132027C&gt;T </text><text fill="rgb(0,0,0)" stroke="none" font-family="times new roman" font-size="10px" font-style="normal" font-weight="normal" text-decoration="normal" x="179.75" y="356.5" text-anchor="start" dominant-baseline="text-after-edge" fill-opacity="0.8">42132561C&gt;T </text><text fill="rgb(0,0,0)" stroke="none" font-family="times new roman" font-size="10px" font-style="normal" font-weight="normal" text-decoration="normal" x="179.75" y="366.5" text-anchor="start" dominant-baseline="text-after-edge" fill-opacity="0.8">42132844C&gt;A </text><text fill="rgb(0,0,0)" stroke="none" font-family="times new roman" font-size="10px" font-style="normal" font-weight="normal" text-decoration="normal" x="179.75" y="376.5" text-anchor="start" dominant-baseline="text-after-edge" fill-opacity="0.8">42132851T&gt;C </text><text fill="rgb(0,0,0)" stroke="none" font-family="times new roman" font-size="10px" font-style="normal" font-weight="normal" text-decoration="normal" x="179.75" y="386.5" text-anchor="start" dominant-baseline="text-after-edge" fill-opacity="0.8">42133400T&gt;G </text><text fill="rgb(0,0,0)" stroke="none" font-family="times new roman" font-size="10px" font-style="normal" font-weight="normal" text-decoration="normal" x="179.75" y="396.5" text-anchor="start" dominant-baseline="text-after-edge" fill-opacity="0.8">42133533A&gt;C </text><text fill="rgb(0,0,0)" stroke="none" font-family="times new roman" font-size="10px" font-style="normal" font-weight="normal" text-decoration="normal" x="179.75" y="406.5" text-anchor="start" dominant-baseline="text-after-edge" fill-opacity="0.8">42134096del </text><text fill="rgb(0,0,0)" stroke="none" font-family="times new roman" font-size="10px" font-style="normal" font-weight="normal" text-decoration="normal" x="179.75" y="416.5" text-anchor="start" dominant-baseline="text-after-edge" fill-opacity="0.8">42134820T&gt;G </text><text fill="rgb(0,0,0)" stroke="none" font-family="times new roman" font-size="10px" font-style="normal" font-weight="normal" text-decoration="normal" x="179.75" y="426.5" text-anchor="start" dominant-baseline="text-after-edge" fill-opacity="0.8">42135064_42135066dup </text><text fill="rgb(0,0,0)" stroke="none" font-family="times new roman" font-size="10px" font-style="normal" font-weight="normal" text-decoration="normal" x="179.75" y="436.5" text-anchor="start" dominant-baseline="text-after-edge" fill-opacity="0.8">42135201T&gt;C </text><text fill="rgb(0,0,0)" stroke="none" font-family="times new roman" font-size="10px" font-style="normal" font-weight="normal" text-decoration="normal" x="179.75" y="446.5" text-anchor="start" dominant-baseline="text-after-edge" fill-opacity="0.8">42135691T&gt;C </text><g transform="scale(1.2225705329153604,1.2225705329153604) translate(112.11858974358972,-50.43589743589743)"/></g></svg>