<svg version="1.1" xmlns="http://www.w3.org/2000/svg" xmlns:xlink="http://www.w3.org/1999/xlink" width="1017" height="608"><defs/><g transform="translate(-121.9524671315271,-28.53292170117635) scale(0.8150316708362165,0.8150316708362165)"><path fill="none" stroke="rgb(120,144,156)" paint-order="fill stroke markers" d=" M 705.5212335039348 216.14190378662528 L 714.1768560251684 242.9548096418747" stroke-opacity="1" stroke-linejoin="round" stroke-miterlimit="10"/><path fill="rgb(120,144,156)" stroke="none" paint-order="stroke fill markers" d=" M 707.9789326546513 237.91514240155036 L 714.7912664960652 244.85809621337472 L 716.2582292406763 235.24245685314895 Z" fill-opacity="1"/><path fill="none" stroke="rgb(120,144,156)" paint-order="fill stroke markers" d=" M 454.7523148148148 366.875 L 229.62928938894657 428.89869067855557" stroke-opacity="1" stroke-linejoin="round" stroke-miterlimit="10"/><path fill="rgb(120,144,156)" stroke="none" paint-order="stroke fill markers" d=" M 234.9332024270647 422.9253326209735 L 227.7011303321513 429.42991817379504 L 237.2440420313566 431.31282451803287 Z" fill-opacity="1"/><path fill="none" stroke="rgb(55,71,79)" paint-order="fill stroke markers" d=" M 769.7337962962963 366.875 L 743.2888288374886 416.76244952927914" stroke-opacity="1" stroke-linejoin="round" stroke-miterlimit="10" stroke-width="2"/><path fill="none" stroke="rgb(120,144,156)" paint-order="fill stroke markers" d=" M 226.95023239685543 442.5408989561279 L 835.5862146663167 687.9418147084064" stroke-opacity="1" stroke-linejoin="round" stroke-miterlimit="10"/><path fill="rgb(120,144,156)" stroke="none" paint-order="stroke fill markers" d=" M 827.7456308849465 689.470783631346 L 837.4411153879611 688.6897072894919 L 830.9989636126691 681.4019654921927 Z" fill-opacity="1"/><path fill="none" stroke="rgb(120,144,156)" paint-order="fill stroke markers" d=" M 552.4375 360.06569239500567 L 1140.354680931648 432.137265085832" stroke-opacity="1" stroke-linejoin="round" stroke-miterlimit="10"/><path fill="rgb(120,144,156)" stroke="none" paint-order="stroke fill markers" d=" M 1133.175168281222 435.6397068201611 L 1142.3398204043906 432.3806193004247 L 1134.2337591147002 427.0043501137317 Z" fill-opacity="1"/><path fill="none" stroke="rgb(120,144,156)" paint-order="fill stroke markers" d=" M 897.1853582445522 360.7334840088213 L 1141.0165956665714 428.82339646280474" stroke-opacity="1" stroke-linejoin="round" stroke-miterlimit="10"/><path fill="rgb(120,144,156)" stroke="none" paint-order="stroke fill markers" d=" M 1133.3935052478705 431.2110715806361 L 1142.9428982739873 429.3613167772221 L 1135.7334586155862 422.8316552383771 Z" fill-opacity="1"/><path fill="none" stroke="rgb(120,144,156)" paint-order="fill stroke markers" d=" M 698.3525995037386 276.94168562429695 L 229.35432396728942 427.9779244491498" stroke-opacity="1" stroke-linejoin="round" stroke-miterlimit="10"/><path fill="rgb(120,144,156)" stroke="none" paint-order="stroke fill markers" d=" M 234.398343608829 421.7835426514429 L 227.45060628130813 428.59099783144757 L 237.06521282182442 430.06471458546145 Z" fill-opacity="1"/><path fill="none" stroke="rgb(120,144,156)" paint-order="fill stroke markers" d=" M 747.8526823155831 272.84172503476 L 1275.6152803097793 350.5955367340353" stroke-opacity="1" stroke-linejoin="round" stroke-miterlimit="10"/><path fill="rgb(120,144,156)" stroke="none" paint-order="stroke fill markers" d=" M 1268.3528008817161 353.92253125716843 L 1277.5939220600212 350.8870445798988 L 1269.6208600112225 345.3154396436165 Z" fill-opacity="1"/><path fill="none" stroke="rgb(120,144,156)" paint-order="fill stroke markers" d=" M 650.4459507042253 447.875 L 720.872149904755 549.5063037243415" stroke-opacity="1" stroke-linejoin="round" stroke-miterlimit="10"/><path fill="rgb(120,144,156)" stroke="none" paint-order="stroke fill markers" d=" M 713.4805754853214 546.4769262962261 L 722.0112921354435 551.1501878377334 L 720.6314713785761 541.5216575927313 Z" fill-opacity="1"/><path fill="none" stroke="rgb(120,144,156)" paint-order="fill stroke markers" d=" M 373.6875 585.4453280318091 L 831.6169696961458 691.9617255555647" stroke-opacity="1" stroke-linejoin="round" stroke-miterlimit="10"/><path fill="rgb(120,144,156)" stroke="none" paint-order="stroke fill markers" d=" M 824.1056629479023 694.6806906038488 L 833.5649658778741 692.4148379874975 L 826.07670202681 686.2069072133309 Z" fill-opacity="1"/><path fill="none" stroke="rgb(120,144,156)" paint-order="fill stroke markers" d=" M 918.125 359.25237244269164 L 230.31101592344942 432.4926093470717" stroke-opacity="1" stroke-linejoin="round" stroke-miterlimit="10"/><path fill="rgb(120,144,156)" stroke="none" paint-order="stroke fill markers" d=" M 236.51275624997703 427.4576399407773 L 228.3222589524761 432.70437740510977 L 237.43394730244262 436.10873276451105 Z" fill-opacity="1"/><path fill="none" stroke="rgb(55,71,79)" paint-order="fill stroke markers" d=" M 662.4593133262312 135.7390277393602 L 684.1329273259075 170.27584354372266" stroke-opacity="1" stroke-linejoin="round" stroke-miterlimit="10" stroke-width="2"/><path fill="none" stroke="rgb(120,144,156)" paint-order="fill stroke markers" d=" M 298.6875 445.875 L 298.6875 461" stroke-opacity="1" stroke-linejoin="round" stroke-miterlimit="10"/><path fill="rgb(120,144,156)" stroke="none" paint-order="stroke fill markers" d=" M 294.3375 454.3 L 298.6875 463 L 303.0375 454.3 Z" fill-opacity="1"/><path fill="none" stroke="rgb(120,144,156)" paint-order="fill stroke markers" d=" M 999.7708333333334 366.875 L 1141.9236150670406 426.20833498450395" stroke-opacity="1" stroke-linejoin="round" stroke-miterlimit="10"/><path fill="rgb(120,144,156)" stroke="none" paint-order="stroke fill markers" d=" M 1134.0650363173413 427.6419458224839 L 1143.7692937277482 426.9787052081036 L 1137.4161467899999 419.6132436484063 Z" fill-opacity="1"/><path fill="none" stroke="rgb(120,144,156)" paint-order="fill stroke markers" d=" M 423.1431338028169 447.875 L 511.99730819045 550.957457214411" stroke-opacity="1" stroke-linejoin="round" stroke-miterlimit="10"/><path fill="rgb(120,144,156)" stroke="none" paint-order="stroke fill markers" d=" M 504.32800391305904 548.7226704458819 L 513.3031030179656 552.4723499064634 L 510.9177871234868 543.0424629461893 Z" fill-opacity="1"/><path fill="none" stroke="rgb(120,144,156)" paint-order="fill stroke markers" d=" M 1307.399336283186 282.125 L 1300.8357541449727 331.57065210787306" stroke-opacity="1" stroke-linejoin="round" stroke-miterlimit="10"/><path fill="rgb(120,144,156)" stroke="none" paint-order="stroke fill markers" d=" M 1297.4052270089978 324.35650048974503 L 1300.5725759987529 333.55326080939545 L 1306.0295748606202 325.50132542580104 Z" fill-opacity="1"/><path fill="none" stroke="rgb(120,144,156)" paint-order="fill stroke markers" d=" M 1299.7650633164951 374.287683818147 L 1303.3005402623835 412.4708348337411" stroke-opacity="1" stroke-linejoin="round" stroke-miterlimit="10"/><path fill="rgb(120,144,156)" stroke="none" paint-order="stroke fill markers" d=" M 1298.3513403194831 406.2004345335054 L 1303.4849366835049 414.462316181853 L 1307.0142841837699 405.39831010162703 Z" fill-opacity="1"/><path fill="none" stroke="rgb(120,144,156)" paint-order="fill stroke markers" d=" M 1297.639705882353 282.125 L 1177.5847086115864 418.01311470852454" stroke-opacity="1" stroke-linejoin="round" stroke-miterlimit="10"/><path fill="rgb(120,144,156)" stroke="none" paint-order="stroke fill markers" d=" M 1178.7608017973514 410.1118929790452 L 1176.2605122905566 419.5119489566557 L 1185.2807307767218 415.87214697552525 Z" fill-opacity="1"/><path fill="none" stroke="rgb(55,71,79)" paint-order="fill stroke markers" d=" M 735.6543367346939 131.375 L 711.2420726740925 170.27584354372266" stroke-opacity="1" stroke-linejoin="round" stroke-miterlimit="10" stroke-width="2"/><path fill="none" stroke="rgb(120,144,156)" paint-order="fill stroke markers" d=" M 545.7892159264742 575.441400988005 L 835.3038101153602 688.2267756387253" stroke-opacity="1" stroke-linejoin="round" stroke-miterlimit="10"/><path fill="rgb(120,144,156)" stroke="none" paint-order="stroke fill markers" d=" M 827.4817812858382 689.8479989392389 L 837.1673921569674 688.9527659790184 L 830.6398392661135 681.7414170582474 Z" fill-opacity="1"/><path fill="none" stroke="rgb(55,71,79)" paint-order="fill stroke markers" d=" M 520 279.7417441860465 L 847.6705036886156 348.62875240337405" stroke-opacity="1" stroke-linejoin="round" stroke-miterlimit="10" stroke-width="2"/><path fill="none" stroke="rgb(120,144,156)" paint-order="fill stroke markers" d=" M 1130.0548711078266 363.4911209411697 L 1284.5361431401532 426.3901874048503" stroke-opacity="1" stroke-linejoin="round" stroke-miterlimit="10"/><path fill="rgb(120,144,156)" stroke="none" paint-order="stroke fill markers" d=" M 1276.6903975512698 427.89244442497613 L 1286.3884859721395 427.1443929688636 L 1279.9711917547277 419.8347531058353 Z" fill-opacity="1"/><path fill="none" stroke="rgb(120,144,156)" paint-order="fill stroke markers" d=" M 1081.0404927641134 356.1645465621667 L 230.34662403166453 432.8548118569117" stroke-opacity="1" stroke-linejoin="round" stroke-miterlimit="10"/><path fill="rgb(120,144,156)" stroke="none" paint-order="stroke fill markers" d=" M 236.62899348009643 427.920814074848 L 228.35470189551654 433.0343841362973 L 237.4101328954239 436.58567536709165 Z" fill-opacity="1"/><path fill="none" stroke="rgb(120,144,156)" paint-order="fill stroke markers" d=" M 748.1417137633271 582.5370459338906 L 844.757745908991 679.7067516162058" stroke-opacity="1" stroke-linejoin="round" stroke-miterlimit="10"/><path fill="rgb(120,144,156)" stroke="none" paint-order="stroke fill markers" d=" M 836.9489955662244 678.0227331827134 L 846.1679131054132 681.125 L 843.1183760357292 671.888505878277 Z" fill-opacity="1"/><path fill="none" stroke="rgb(120,144,156)" paint-order="fill stroke markers" d=" M 1308.5971226054476 455.1201951315729 L 1323.0260239696306 545.779663879981" stroke-opacity="1" stroke-linejoin="round" stroke-miterlimit="10"/><path fill="rgb(120,144,156)" stroke="none" paint-order="stroke fill markers" d=" M 1317.6770083462727 539.8466602678911 L 1323.3403773945524 547.7548048684271 L 1326.2688716460134 538.4792228694816 Z" fill-opacity="1"/><path fill="none" stroke="rgb(120,144,156)" paint-order="fill stroke markers" d=" M 1232.7878086419753 204.875 L 1169.2472266014177 413.35245398623454" stroke-opacity="1" stroke-linejoin="round" stroke-miterlimit="10"/><path fill="rgb(120,144,156)" stroke="none" paint-order="stroke fill markers" d=" M 1167.0395418489563 405.67530425252806 L 1168.6641397924027 415.26556918745814 L 1175.361592974279 408.2117318717429 Z" fill-opacity="1"/><path fill="none" stroke="rgb(120,144,156)" paint-order="fill stroke markers" d=" M 1186.25 199.46289204959885 L 749.8197303979246 265.0388479489625" stroke-opacity="1" stroke-linejoin="round" stroke-miterlimit="10"/><path fill="rgb(120,144,156)" stroke="none" paint-order="stroke fill markers" d=" M 755.7990006613458 259.74160082267434 L 747.8419318235301 265.33602264358336 L 757.0917105829467 268.34502462129046 Z" fill-opacity="1"/><path fill="none" stroke="rgb(55,71,79)" paint-order="fill stroke markers" d=" M 677.125 278.0448905822587 L 1081.32621107111 349.4395554529667" stroke-opacity="1" stroke-linejoin="round" stroke-miterlimit="10" stroke-width="2"/><path fill="none" stroke="rgb(120,144,156)" paint-order="fill stroke markers" d=" M 1120.9825931421312 374.81993412466903 L 1149.8535942863548 416.3941757723509" stroke-opacity="1" stroke-linejoin="round" stroke-miterlimit="10"/><path fill="rgb(120,144,156)" stroke="none" paint-order="stroke fill markers" d=" M 1142.4589830120572 413.37221877364453 L 1150.9943859053456 418.03691570369745 L 1149.6049017134148 408.40977523103504 Z" fill-opacity="1"/><path fill="none" stroke="rgb(120,144,156)" paint-order="fill stroke markers" d=" M 526.6875 447.875 L 526.6875 545.5" stroke-opacity="1" stroke-linejoin="round" stroke-miterlimit="10"/><path fill="rgb(120,144,156)" stroke="none" paint-order="stroke fill markers" d=" M 522.3375 538.8 L 526.6875 547.5 L 531.0375 538.8 Z" fill-opacity="1"/><path fill="none" stroke="rgb(120,144,156)" paint-order="fill stroke markers" d=" M 853.6875 670.0348837209302 L 857.0734312728822 679.2477664866792" stroke-opacity="1" stroke-linejoin="round" stroke-miterlimit="10"/><path fill="rgb(120,144,156)" stroke="none" paint-order="stroke fill markers" d=" M 850.6792048977014 674.4596176728951 L 857.7633547008547 681.125 L 858.8451706806467 671.4584507612144 Z" fill-opacity="1"/><path fill="none" stroke="rgb(120,144,156)" paint-order="fill stroke markers" d=" M 1147.359228024874 448.48727674772186 L 886.0677916877763 680.5272189539999" stroke-opacity="1" stroke-linejoin="round" stroke-miterlimit="10"/><path fill="rgb(120,144,156)" stroke="none" paint-order="stroke fill markers" d=" M 888.1890608770814 672.8257439636811 L 884.5723505194713 681.8552459537776 L 893.9659783261145 679.3309130458077 Z" fill-opacity="1"/><path fill="none" stroke="rgb(120,144,156)" paint-order="fill stroke markers" d=" M 733.6875 455.375 L 733.6875 545.5" stroke-opacity="1" stroke-linejoin="round" stroke-miterlimit="10"/><path fill="rgb(120,144,156)" stroke="none" paint-order="stroke fill markers" d=" M 729.3375 538.8 L 733.6875 547.5 L 738.0375 538.8 Z" fill-opacity="1"/><path fill="none" stroke="rgb(120,144,156)" paint-order="fill stroke markers" d=" M 990.356173380035 366.875 L 1307.253753861734 556.4491419120483" stroke-opacity="1" stroke-linejoin="round" stroke-miterlimit="10"/><path fill="rgb(120,144,156)" stroke="none" paint-order="stroke fill markers" d=" M 1299.270872448002 556.7425773125897 L 1308.970086851802 557.4758848531995 L 1303.73720424201 549.2765288057935 Z" fill-opacity="1"/><path fill="none" stroke="rgb(120,144,156)" paint-order="fill stroke markers" d=" M 847.3122581654113 356.95965570452535 L 230.27227220699 432.15324496659525" stroke-opacity="1" stroke-linejoin="round" stroke-miterlimit="10"/><path fill="rgb(120,144,156)" stroke="none" paint-order="stroke fill markers" d=" M 236.39686506883552 427.02471084107447 L 228.28695912192427 432.39517874734236 L 237.44927701508533 435.66082276111064 Z" fill-opacity="1"/><path fill="none" stroke="rgb(120,144,156)" paint-order="fill stroke markers" d=" M 1306.8470374683795 573.6169864842523 L 896.1823766972933 690.6164149993913" stroke-opacity="1" stroke-linejoin="round" stroke-miterlimit="10"/><path fill="rgb(120,144,156)" stroke="none" paint-order="stroke fill markers" d=" M 901.4340697585303 684.5970944405113 L 894.2589169381108 691.1644136807818 L 903.8178640225789 692.9641443929552 Z" fill-opacity="1"/><path fill="rgb(69,90,100)" stroke="rgb(76,175,80)" paint-order="fill stroke markers" d=" M 751.1875 568 L 751.1335533403297 569.3730341752373 L 750.9720459604149 570.737603138204 L 750.7039736069594 572.0852938674783 L 750.3309890351652 573.4077974015615 L 749.8553918189475 574.6969600663891 L 749.2801141732964 575.9448337454421 L 748.6087028761966 577.1437248825291 L 747.8452974015615 578.2862419151182 L 746.9946043980005 579.3653408457782 L 746.0618686707646 580.3743686707646 L 745.0528408457782 581.3071043980005 L 743.9737419151182 582.1577974015615 L 742.8312248825291 582.9212028761966 L 741.6323337454421 583.5926141732964 L 740.3844600663891 584.1678918189475 L 739.0952974015615 584.6434890351652 L 737.7727938674783 585.0164736069594 L 736.425103138204 585.2845459604149 L 735.0605341752373 585.4460533403297 L 733.6875 585.5 L 732.3144658247627 585.4460533403297 L 730.949896861796 585.2845459604149 L 729.6022061325217 585.0164736069594 L 728.2797025984385 584.6434890351652 L 726.9905399336109 584.1678918189475 L 725.7426662545579 583.5926141732964 L 724.5437751174709 582.9212028761966 L 723.4012580848818 582.1577974015615 L 722.3221591542218 581.3071043980005 L 721.3131313292354 580.3743686707646 L 720.3803956019995 579.3653408457782 L 719.5297025984385 578.2862419151182 L 718.7662971238034 577.1437248825291 L 718.0948858267036 575.9448337454421 L 717.5196081810525 574.6969600663891 L 717.0440109648348 573.4077974015615 L 716.6710263930406 572.0852938674783 L 716.4029540395851 570.737603138204 L 716.2414466596703 569.3730341752373 L 716.1875 568 L 716.2414466596703 566.6269658247627 L 716.4029540395851 565.262396861796 L 716.6710263930406 563.9147061325217 L 717.0440109648348 562.5922025984385 L 717.5196081810525 561.3030399336109 L 718.0948858267036 560.0551662545579 L 718.7662971238034 558.8562751174709 L 719.5297025984385 557.7137580848818 L 720.3803956019995 556.6346591542218 L 721.3131313292354 555.6256313292354 L 722.3221591542218 554.6928956019995 L 723.4012580848818 553.8422025984385 L 724.5437751174709 553.0787971238034 L 725.7426662545579 552.4073858267036 L 726.990539933611 551.8321081810525 L 728.2797025984385 551.3565109648348 L 729.6022061325217 550.9835263930406 L 730.949896861796 550.7154540395851 L 732.3144658247628 550.5539466596703 L 733.6875000000001 550.5 L 735.0605341752373 550.5539466596703 L 736.4251031382041 550.7154540395851 L 737.7727938674784 550.9835263930406 L 739.0952974015617 551.3565109648348 L 740.3844600663891 551.8321081810525 L 741.6323337454421 552.4073858267036 L 742.8312248825292 553.0787971238035 L 743.9737419151184 553.8422025984385 L 745.0528408457783 554.6928956019996 L 746.0618686707646 555.6256313292355 L 746.9946043980007 556.6346591542219 L 747.8452974015617 557.7137580848819 L 748.6087028761967 558.856275117471 L 749.2801141732965 560.0551662545581 L 749.8553918189476 561.3030399336111 L 750.3309890351652 562.5922025984386 L 750.7039736069594 563.9147061325218 L 750.9720459604149 565.2623968617961 L 751.1335533403297 566.6269658247629 Z" fill-opacity="1" stroke-opacity="1" stroke-miterlimit="10" stroke-width="6"/><text fill="rgb(255,255,255)" stroke="none" font-family="times new roman" font-size="10px" font-style="normal" font-weight="normal" text-decoration="normal" x="733.6875" y="573" text-anchor="middle" dominant-baseline="text-after-edge" fill-opacity="1">*1.54</text><path fill="rgb(69,90,100)" stroke="rgb(76,175,80)" paint-order="fill stroke markers" d=" M 364.4375 424.875 L 364.4375 444.875 L 459.4375 444.875 L 459.4375 424.875 Z" fill-opacity="1" stroke-opacity="1" stroke-miterlimit="10" stroke-width="6"/><text fill="rgb(255,255,255)" stroke="none" font-family="times new roman" font-size="10px" font-style="normal" font-weight="normal" text-decoration="normal" x="411.9375" y="439.875" text-anchor="middle" dominant-baseline="text-after-edge" fill-opacity="1">42130482C&gt;A</text><path fill="rgb(69,90,100)" stroke="rgb(76,175,80)" paint-order="fill stroke markers" d=" M 479.1875 424.875 L 479.1875 444.875 L 574.1875 444.875 L 574.1875 424.875 Z" fill-opacity="1" stroke-opacity="1" stroke-miterlimit="10" stroke-width="6"/><text fill="rgb(255,255,255)" stroke="none" font-family="times new roman" font-size="10px" font-style="normal" font-weight="normal" text-decoration="normal" x="526.6875" y="439.875" text-anchor="middle" dominant-baseline="text-after-edge" fill-opacity="1">42129950A&gt;C</text><path fill="rgb(69,90,100)" stroke="rgb(76,175,80)" paint-order="fill stroke markers" d=" M 1261.625 259.125 L 1261.625 279.125 L 1356.625 279.125 L 1356.625 259.125 Z" fill-opacity="1" stroke-opacity="1" stroke-miterlimit="10" stroke-width="6"/><text fill="rgb(255,255,255)" stroke="none" font-family="times new roman" font-size="10px" font-style="normal" font-weight="normal" text-decoration="normal" x="1309.125" y="274.125" text-anchor="middle" dominant-baseline="text-after-edge" fill-opacity="1">42129130C&gt;G</text><path fill="rgb(69,90,100)" stroke="rgb(244,67,54)" paint-order="fill stroke markers" d=" M 1128.9375 353.875 L 1128.8681400089954 355.6403296538765 L 1128.6604876633905 357.3947754634052 L 1128.3158232089477 359.12752068675786 L 1127.836271616641 360.8278823734363 L 1127.2247894815039 362.48537722821453 L 1126.4851467942383 364.0897862441398 L 1125.6219036979671 365.6312177061088 L 1124.6403823734363 367.10016817658067 L 1123.5466342260006 368.48758108742913 L 1122.3474025766973 369.78490257669733 L 1121.0500810874291 370.9841342260007 L 1119.6626681765806 372.0778823734363 L 1118.1937177061088 373.05940369796707 L 1116.6522862441398 373.9226467942383 L 1115.0478772282145 374.66228948150393 L 1113.3903823734363 375.27377161664094 L 1111.6900206867579 375.75332320894773 L 1109.9572754634053 376.0979876633906 L 1108.2028296538765 376.3056400089954 L 1106.4375 376.375 L 1104.6721703461235 376.3056400089954 L 1102.9177245365947 376.0979876633906 L 1101.1849793132421 375.75332320894773 L 1099.4846176265637 375.27377161664094 L 1097.8271227717855 374.66228948150393 L 1096.2227137558602 373.9226467942383 L 1094.6812822938912 373.05940369796707 L 1093.2123318234194 372.0778823734363 L 1091.8249189125709 370.9841342260007 L 1090.5275974233027 369.78490257669733 L 1089.3283657739994 368.48758108742913 L 1088.2346176265637 367.10016817658067 L 1087.2530963020329 365.6312177061088 L 1086.3898532057617 364.0897862441398 L 1085.6502105184961 362.48537722821453 L 1085.038728383359 360.8278823734363 L 1084.5591767910523 359.12752068675786 L 1084.2145123366095 357.3947754634052 L 1084.0068599910046 355.6403296538765 L 1083.9375 353.875 L 1084.0068599910046 352.1096703461235 L 1084.2145123366095 350.3552245365948 L 1084.5591767910523 348.62247931324214 L 1085.038728383359 346.9221176265637 L 1085.6502105184961 345.26462277178547 L 1086.3898532057617 343.6602137558602 L 1087.2530963020329 342.1187822938912 L 1088.2346176265637 340.64983182341933 L 1089.3283657739994 339.26241891257087 L 1090.5275974233027 337.96509742330267 L 1091.8249189125709 336.76586577399934 L 1093.2123318234194 335.6721176265637 L 1094.6812822938912 334.69059630203293 L 1096.2227137558602 333.8273532057617 L 1097.8271227717855 333.087710518496 L 1099.4846176265637 332.47622838335906 L 1101.1849793132421 331.99667679105227 L 1102.917724536595 331.6520123366094 L 1104.6721703461235 331.4443599910046 L 1106.4375 331.375 L 1108.2028296538765 331.4443599910046 L 1109.9572754634053 331.6520123366094 L 1111.6900206867579 331.9966767910523 L 1113.3903823734365 332.47622838335906 L 1115.0478772282147 333.0877105184961 L 1116.65228624414 333.82735320576177 L 1118.193717706109 334.690596302033 L 1119.6626681765808 335.67211762656376 L 1121.0500810874294 336.7658657739994 L 1122.3474025766975 337.9650974233028 L 1123.5466342260008 339.262418912571 L 1124.6403823734365 340.6498318234195 L 1125.6219036979671 342.11878229389134 L 1126.4851467942383 343.6602137558604 L 1127.224789481504 345.2646227717857 L 1127.836271616641 346.92211762656393 L 1128.3158232089477 348.62247931324237 L 1128.6604876633905 350.3552245365951 L 1128.8681400089954 352.1096703461238 Z" fill-opacity="1" stroke-opacity="1" stroke-miterlimit="10" stroke-width="6"/><text fill="rgb(255,255,255)" stroke="none" font-family="times new roman" font-size="15px" font-style="normal" font-weight="normal" text-decoration="normal" x="1106.4375" y="361.375" text-anchor="middle" dominant-baseline="text-after-edge" fill-opacity="1">*4</text><path fill="rgb(3,169,244)" stroke="none" paint-order="stroke fill markers" d=" M 1106.4375 321.375 L 1130.9375 321.375 L 1130.9375 321.375 A 8 8 0 0 1 1138.9375 329.375 L 1138.9375 378.375 L 1138.9375 378.375 A 8 8 0 0 1 1130.9375 386.375 L 1081.9375 386.375 L 1081.9375 386.375 A 8 8 0 0 1 1073.9375 378.375 L 1073.9375 329.375 L 1073.9375 329.375 A 8 8 0 0 1 1081.9375 321.375 L 1106.4375 321.375 Z" fill-opacity="0.15"/><path fill="rgb(69,90,100)" stroke="rgb(244,67,54)" paint-order="fill stroke markers" d=" M 579.125 259.125 L 579.125 279.125 L 674.125 279.125 L 674.125 259.125 Z" fill-opacity="1" stroke-opacity="1" stroke-miterlimit="10" stroke-width="6"/><text fill="rgb(255,255,255)" stroke="none" font-family="times new roman" font-size="10px" font-style="normal" font-weight="normal" text-decoration="normal" x="626.625" y="274.125" text-anchor="middle" dominant-baseline="text-after-edge" fill-opacity="1">42128945C&gt;T</text><path fill="rgb(69,90,100)" stroke="rgb(255,193,7)" paint-order="fill stroke markers" d=" M 454.4375 343.875 L 454.4375 363.875 L 549.4375 363.875 L 549.4375 343.875 Z" fill-opacity="1" stroke-opacity="1" stroke-miterlimit="10" stroke-width="6"/><text fill="rgb(255,255,255)" stroke="none" font-family="times new roman" font-size="10px" font-style="normal" font-weight="normal" text-decoration="normal" x="501.9375" y="358.875" text-anchor="middle" dominant-baseline="text-after-edge" fill-opacity="1">42129809T&gt;C</text><path fill="rgb(69,90,100)" stroke="rgb(255,193,7)" paint-order="fill stroke markers" d=" M 745.125 269.125 L 745.0556400089954 270.8903296538765 L 744.8479876633907 272.6447754634052 L 744.5033232089477 274.37752068675786 L 744.0237716166409 276.0778823734363 L 743.412289481504 277.73537722821453 L 742.6726467942383 279.3397862441398 L 741.8094036979671 280.8812177061088 L 740.8278823734363 282.35016817658067 L 739.7341342260007 283.73758108742913 L 738.5349025766973 285.03490257669733 L 737.2375810874291 286.2341342260007 L 735.8501681765806 287.3278823734363 L 734.3812177061088 288.30940369796707 L 732.8397862441398 289.1726467942383 L 731.2353772282145 289.91228948150393 L 729.5778823734363 290.52377161664094 L 727.8775206867579 291.00332320894773 L 726.1447754634052 291.3479876633906 L 724.3903296538765 291.5556400089954 L 722.625 291.625 L 720.8596703461235 291.5556400089954 L 719.1052245365948 291.3479876633906 L 717.3724793132421 291.00332320894773 L 715.6721176265637 290.52377161664094 L 714.0146227717855 289.91228948150393 L 712.4102137558602 289.1726467942383 L 710.8687822938912 288.30940369796707 L 709.3998318234194 287.3278823734363 L 708.0124189125709 286.2341342260007 L 706.7150974233027 285.03490257669733 L 705.5158657739993 283.73758108742913 L 704.4221176265637 282.35016817658067 L 703.4405963020329 280.8812177061088 L 702.5773532057617 279.3397862441398 L 701.837710518496 277.73537722821453 L 701.2262283833591 276.0778823734363 L 700.7466767910523 274.37752068675786 L 700.4020123366095 272.6447754634052 L 700.1943599910046 270.8903296538765 L 700.125 269.125 L 700.1943599910046 267.3596703461235 L 700.4020123366093 265.6052245365948 L 700.7466767910523 263.87247931324214 L 701.2262283833591 262.1721176265637 L 701.837710518496 260.51462277178547 L 702.5773532057617 258.9102137558602 L 703.4405963020329 257.3687822938912 L 704.4221176265637 255.89983182341936 L 705.5158657739993 254.51241891257087 L 706.7150974233027 253.2150974233027 L 708.0124189125709 252.0158657739993 L 709.3998318234194 250.92211762656368 L 710.8687822938912 249.94059630203293 L 712.4102137558602 249.0773532057617 L 714.0146227717855 248.33771051849604 L 715.6721176265637 247.72622838335903 L 717.3724793132421 247.24667679105227 L 719.1052245365948 246.9020123366094 L 720.8596703461236 246.6943599910046 L 722.6250000000001 246.625 L 724.3903296538766 246.69435999100463 L 726.1447754634053 246.9020123366094 L 727.877520686758 247.2466767910523 L 729.5778823734364 247.72622838335909 L 731.2353772282146 248.3377105184961 L 732.8397862441399 249.0773532057618 L 734.3812177061089 249.940596302033 L 735.8501681765807 250.92211762656376 L 737.2375810874292 252.01586577399942 L 738.5349025766974 253.2150974233028 L 739.7341342260008 254.512418912571 L 740.8278823734364 255.8998318234195 L 741.8094036979671 257.36878229389134 L 742.6726467942384 258.9102137558604 L 743.412289481504 260.5146227717857 L 744.023771616641 262.17211762656393 L 744.5033232089478 263.87247931324237 L 744.8479876633907 265.6052245365951 L 745.0556400089954 267.3596703461238 Z" fill-opacity="1" stroke-opacity="1" stroke-miterlimit="10" stroke-width="6"/><text fill="rgb(255,255,255)" stroke="none" font-family="times new roman" font-size="15px" font-style="normal" font-weight="normal" text-decoration="normal" x="722.625" y="276.625" text-anchor="middle" dominant-baseline="text-after-edge" fill-opacity="1">*10</text><path fill="rgb(69,90,100)" stroke="rgb(76,175,80)" paint-order="fill stroke markers" d=" M 544.1875 568 L 544.1335533403297 569.3730341752373 L 543.9720459604149 570.737603138204 L 543.7039736069594 572.0852938674783 L 543.3309890351652 573.4077974015615 L 542.8553918189475 574.6969600663891 L 542.2801141732964 575.9448337454421 L 541.6087028761966 577.1437248825291 L 540.8452974015615 578.2862419151182 L 539.9946043980005 579.3653408457782 L 539.0618686707646 580.3743686707646 L 538.0528408457782 581.3071043980005 L 536.9737419151182 582.1577974015615 L 535.8312248825291 582.9212028761966 L 534.6323337454421 583.5926141732964 L 533.3844600663891 584.1678918189475 L 532.0952974015615 584.6434890351652 L 530.7727938674783 585.0164736069594 L 529.425103138204 585.2845459604149 L 528.0605341752373 585.4460533403297 L 526.6875 585.5 L 525.3144658247627 585.4460533403297 L 523.949896861796 585.2845459604149 L 522.6022061325217 585.0164736069594 L 521.2797025984385 584.6434890351652 L 519.9905399336109 584.1678918189475 L 518.7426662545579 583.5926141732964 L 517.5437751174709 582.9212028761966 L 516.4012580848818 582.1577974015615 L 515.3221591542218 581.3071043980005 L 514.3131313292354 580.3743686707646 L 513.3803956019995 579.3653408457782 L 512.5297025984385 578.2862419151182 L 511.7662971238034 577.1437248825291 L 511.09488582670355 575.9448337454421 L 510.5196081810525 574.6969600663891 L 510.0440109648348 573.4077974015615 L 509.6710263930407 572.0852938674783 L 509.4029540395851 570.737603138204 L 509.24144665967026 569.3730341752373 L 509.1875 568 L 509.24144665967026 566.6269658247627 L 509.4029540395851 565.262396861796 L 509.6710263930407 563.9147061325217 L 510.0440109648348 562.5922025984385 L 510.5196081810525 561.3030399336109 L 511.09488582670355 560.0551662545579 L 511.7662971238034 558.8562751174709 L 512.5297025984385 557.7137580848818 L 513.3803956019995 556.6346591542218 L 514.3131313292354 555.6256313292354 L 515.3221591542218 554.6928956019995 L 516.4012580848818 553.8422025984385 L 517.5437751174709 553.0787971238034 L 518.7426662545579 552.4073858267036 L 519.990539933611 551.8321081810525 L 521.2797025984385 551.3565109648348 L 522.6022061325217 550.9835263930406 L 523.949896861796 550.7154540395851 L 525.3144658247628 550.5539466596703 L 526.6875000000001 550.5 L 528.0605341752373 550.5539466596703 L 529.4251031382041 550.7154540395851 L 530.7727938674784 550.9835263930406 L 532.0952974015617 551.3565109648348 L 533.3844600663891 551.8321081810525 L 534.6323337454421 552.4073858267036 L 535.8312248825292 553.0787971238035 L 536.9737419151184 553.8422025984385 L 538.0528408457783 554.6928956019996 L 539.0618686707646 555.6256313292355 L 539.9946043980007 556.6346591542219 L 540.8452974015617 557.7137580848819 L 541.6087028761967 558.856275117471 L 542.2801141732965 560.0551662545581 L 542.8553918189476 561.3030399336111 L 543.3309890351652 562.5922025984386 L 543.7039736069594 563.9147061325218 L 543.9720459604149 565.2623968617961 L 544.1335533403297 566.6269658247629 Z" fill-opacity="1" stroke-opacity="1" stroke-miterlimit="10" stroke-width="6"/><text fill="rgb(255,255,255)" stroke="none" font-family="times new roman" font-size="10px" font-style="normal" font-weight="normal" text-decoration="normal" x="526.6875" y="573" text-anchor="middle" dominant-baseline="text-after-edge" fill-opacity="1">*1.58</text><path fill="rgb(69,90,100)" stroke="rgb(76,175,80)" paint-order="fill stroke markers" d=" M 298.6875 424.875 L 341.1875 424.875 L 341.1875 424.875 A 5 5 0 0 1 346.1875 429.875 L 346.1875 439.875 L 346.1875 439.875 A 5 5 0 0 1 341.1875 444.875 L 256.1875 444.875 L 256.1875 444.875 A 5 5 0 0 1 251.1875 439.875 L 251.1875 429.875 L 251.1875 429.875 A 5 5 0 0 1 256.1875 424.875 L 298.6875 424.875 Z" fill-opacity="1" stroke-opacity="1" stroke-miterlimit="10" stroke-width="2"/><text fill="rgb(255,255,255)" stroke="none" font-family="times new roman" font-size="10px" font-style="normal" font-weight="normal" text-decoration="normal" x="298.6875" y="439.875" text-anchor="middle" dominant-baseline="text-after-edge" fill-opacity="1">42132049dup</text><path fill="rgb(69,90,100)" stroke="rgb(255,193,7)" paint-order="fill stroke markers" d=" M 1189.25 181.875 L 1189.25 201.875 L 1284.25 201.875 L 1284.25 181.875 Z" fill-opacity="1" stroke-opacity="1" stroke-miterlimit="10" stroke-width="6"/><text fill="rgb(255,255,255)" stroke="none" font-family="times new roman" font-size="10px" font-style="normal" font-weight="normal" text-decoration="normal" x="1236.75" y="196.875" text-anchor="middle" dominant-baseline="text-after-edge" fill-opacity="1">42130692G&gt;A</text><path fill="rgb(69,90,100)" stroke="rgb(76,175,80)" paint-order="fill stroke markers" d=" M 669.0625 118.375 L 669.0085533403297 119.74803417523728 L 668.8470459604149 121.11260313820404 L 668.5789736069594 122.46029386747834 L 668.2059890351652 123.78279740156158 L 667.7303918189475 125.07196006638907 L 667.1551141732964 126.31983374544207 L 666.4837028761966 127.5187248825291 L 665.7202974015615 128.66124191511827 L 664.8696043980005 129.7403408457782 L 663.9368686707646 130.74936867076457 L 662.9278408457782 131.68210439800055 L 661.8487419151182 132.5327974015616 L 660.7062248825291 133.29620287619662 L 659.5073337454421 133.96761417329643 L 658.2594600663891 134.5428918189475 L 656.9702974015615 135.01848903516517 L 655.6477938674783 135.39147360695935 L 654.300103138204 135.6595459604149 L 652.9355341752373 135.82105334032974 L 651.5625 135.875 L 650.1894658247627 135.82105334032974 L 648.824896861796 135.6595459604149 L 647.4772061325217 135.39147360695935 L 646.1547025984385 135.0184890351652 L 644.8655399336109 134.5428918189475 L 643.6176662545579 133.96761417329643 L 642.4187751174709 133.29620287619662 L 641.2762580848818 132.5327974015616 L 640.1971591542218 131.68210439800055 L 639.1881313292354 130.74936867076457 L 638.2553956019995 129.7403408457782 L 637.4047025984385 128.6612419151183 L 636.6412971238034 127.51872488252911 L 635.9698858267036 126.31983374544207 L 635.3946081810525 125.07196006638907 L 634.9190109648348 123.78279740156158 L 634.5460263930406 122.46029386747834 L 634.2779540395851 121.11260313820404 L 634.1164466596703 119.7480341752373 L 634.0625 118.375 L 634.1164466596703 117.00196582476272 L 634.2779540395851 115.63739686179596 L 634.5460263930406 114.28970613252166 L 634.9190109648348 112.96720259843842 L 635.3946081810525 111.67803993361093 L 635.9698858267036 110.43016625455793 L 636.6412971238034 109.2312751174709 L 637.4047025984385 108.08875808488172 L 638.2553956019995 107.0096591542218 L 639.1881313292354 106.00063132923542 L 640.1971591542218 105.06789560199947 L 641.2762580848818 104.21720259843842 L 642.4187751174709 103.45379712380338 L 643.6176662545579 102.78238582670356 L 644.865539933611 102.20710818105248 L 646.1547025984385 101.7315109648348 L 647.4772061325217 101.35852639304065 L 648.824896861796 101.09045403958508 L 650.1894658247628 100.92894665967026 L 651.5625000000001 100.875 L 652.9355341752373 100.92894665967026 L 654.3001031382041 101.0904540395851 L 655.6477938674784 101.35852639304068 L 656.9702974015617 101.73151096483484 L 658.2594600663891 102.20710818105252 L 659.5073337454421 102.7823858267036 L 660.7062248825292 103.45379712380344 L 661.8487419151184 104.21720259843849 L 662.9278408457783 105.06789560199954 L 663.9368686707646 106.00063132923552 L 664.8696043980007 107.0096591542219 L 665.7202974015617 108.08875808488185 L 666.4837028761967 109.23127511747103 L 667.1551141732965 110.43016625455807 L 667.7303918189476 111.67803993361109 L 668.2059890351652 112.96720259843859 L 668.5789736069594 114.28970613252184 L 668.8470459604149 115.63739686179616 L 669.0085533403297 117.00196582476292 Z" fill-opacity="1" stroke-opacity="1" stroke-miterlimit="10" stroke-width="6"/><text fill="rgb(255,255,255)" stroke="none" font-family="times new roman" font-size="10px" font-style="normal" font-weight="normal" text-decoration="normal" x="651.5625" y="123.375" text-anchor="middle" dominant-baseline="text-after-edge" fill-opacity="1">*39.2</text><path fill="rgb(69,90,100)" stroke="rgb(76,175,80)" paint-order="fill stroke markers" d=" M 593.9375 424.875 L 593.9375 444.875 L 688.9375 444.875 L 688.9375 424.875 Z" fill-opacity="1" stroke-opacity="1" stroke-miterlimit="10" stroke-width="6"/><text fill="rgb(255,255,255)" stroke="none" font-family="times new roman" font-size="10px" font-style="normal" font-weight="normal" text-decoration="normal" x="641.4375" y="439.875" text-anchor="middle" dominant-baseline="text-after-edge" fill-opacity="1">42130047G&gt;C</text><path fill="rgb(69,90,100)" stroke="rgb(244,67,54)" paint-order="fill stroke markers" d=" M 1180.1875 434.875 L 1180.1335533403299 436.2480341752373 L 1179.972045960415 437.61260313820407 L 1179.7039736069594 438.96029386747836 L 1179.3309890351652 440.2827974015616 L 1178.8553918189475 441.57196006638907 L 1178.2801141732964 442.81983374544205 L 1177.6087028761965 444.0187248825291 L 1176.8452974015615 445.1612419151183 L 1175.9946043980005 446.24034084577823 L 1175.0618686707646 447.24936867076457 L 1174.0528408457783 448.18210439800055 L 1172.9737419151184 449.0327974015616 L 1171.831224882529 449.7962028761966 L 1170.632333745442 450.46761417329645 L 1169.384460066389 451.0428918189475 L 1168.0952974015615 451.5184890351652 L 1166.7727938674784 451.8914736069593 L 1165.4251031382041 452.1595459604149 L 1164.0605341752373 452.32105334032974 L 1162.6875 452.375 L 1161.3144658247627 452.32105334032974 L 1159.9498968617959 452.1595459604149 L 1158.6022061325216 451.8914736069593 L 1157.2797025984385 451.5184890351652 L 1155.990539933611 451.0428918189475 L 1154.742666254558 450.46761417329645 L 1153.543775117471 449.7962028761966 L 1152.4012580848816 449.0327974015616 L 1151.3221591542217 448.18210439800055 L 1150.3131313292354 447.24936867076457 L 1149.3803956019995 446.24034084577823 L 1148.5297025984385 445.1612419151183 L 1147.7662971238035 444.0187248825291 L 1147.0948858267036 442.81983374544205 L 1146.5196081810525 441.57196006638907 L 1146.0440109648348 440.2827974015616 L 1145.6710263930406 438.96029386747836 L 1145.402954039585 437.61260313820407 L 1145.2414466596701 436.2480341752373 L 1145.1875 434.875 L 1145.2414466596701 433.5019658247627 L 1145.402954039585 432.13739686179593 L 1145.6710263930406 430.78970613252164 L 1146.0440109648348 429.4672025984384 L 1146.5196081810525 428.17803993361093 L 1147.0948858267036 426.93016625455795 L 1147.7662971238035 425.7312751174709 L 1148.5297025984385 424.5887580848817 L 1149.3803956019995 423.50965915422177 L 1150.3131313292354 422.50063132923543 L 1151.3221591542217 421.56789560199945 L 1152.4012580848816 420.7172025984384 L 1153.543775117471 419.9537971238034 L 1154.742666254558 419.28238582670355 L 1155.990539933611 418.7071081810525 L 1157.2797025984385 418.2315109648348 L 1158.6022061325216 417.8585263930407 L 1159.949896861796 417.5904540395851 L 1161.3144658247627 417.42894665967026 L 1162.6875 417.375 L 1164.0605341752373 417.42894665967026 L 1165.4251031382041 417.5904540395851 L 1166.7727938674784 417.8585263930407 L 1168.0952974015618 418.23151096483485 L 1169.3844600663892 418.7071081810525 L 1170.632333745442 419.2823858267036 L 1171.831224882529 419.95379712380344 L 1172.9737419151184 420.7172025984385 L 1174.0528408457783 421.56789560199957 L 1175.0618686707646 422.5006313292355 L 1175.9946043980005 423.5096591542219 L 1176.8452974015618 424.5887580848818 L 1177.6087028761967 425.73127511747106 L 1178.2801141732966 426.93016625455806 L 1178.8553918189475 428.1780399336111 L 1179.3309890351652 429.4672025984386 L 1179.7039736069594 430.7897061325218 L 1179.972045960415 432.13739686179616 L 1180.1335533403299 433.5019658247629 Z" fill-opacity="1" stroke-opacity="1" stroke-miterlimit="10" stroke-width="6"/><text fill="rgb(255,255,255)" stroke="none" font-family="times new roman" font-size="10px" font-style="normal" font-weight="normal" text-decoration="normal" x="1162.6875" y="439.875" text-anchor="middle" dominant-baseline="text-after-edge" fill-opacity="1">*4.9</text><path fill="rgb(69,90,100)" stroke="rgb(244,67,54)" paint-order="fill stroke markers" d=" M 1322.875 434.875 L 1322.8210533403299 436.2480341752373 L 1322.659545960415 437.61260313820407 L 1322.3914736069594 438.96029386747836 L 1322.0184890351652 440.2827974015616 L 1321.5428918189475 441.57196006638907 L 1320.9676141732964 442.81983374544205 L 1320.2962028761965 444.0187248825291 L 1319.5327974015615 445.1612419151183 L 1318.6821043980005 446.24034084577823 L 1317.7493686707646 447.24936867076457 L 1316.7403408457783 448.18210439800055 L 1315.6612419151184 449.0327974015616 L 1314.518724882529 449.7962028761966 L 1313.319833745442 450.46761417329645 L 1312.071960066389 451.0428918189475 L 1310.7827974015615 451.5184890351652 L 1309.4602938674784 451.8914736069593 L 1308.1126031382041 452.1595459604149 L 1306.7480341752373 452.32105334032974 L 1305.375 452.375 L 1304.0019658247627 452.32105334032974 L 1302.6373968617959 452.1595459604149 L 1301.2897061325216 451.8914736069593 L 1299.9672025984385 451.5184890351652 L 1298.678039933611 451.0428918189475 L 1297.430166254558 450.46761417329645 L 1296.231275117471 449.7962028761966 L 1295.0887580848816 449.0327974015616 L 1294.0096591542217 448.18210439800055 L 1293.0006313292354 447.24936867076457 L 1292.0678956019995 446.24034084577823 L 1291.2172025984385 445.1612419151183 L 1290.4537971238035 444.0187248825291 L 1289.7823858267036 442.81983374544205 L 1289.2071081810525 441.57196006638907 L 1288.7315109648348 440.2827974015616 L 1288.3585263930406 438.96029386747836 L 1288.090454039585 437.61260313820407 L 1287.9289466596701 436.2480341752373 L 1287.875 434.875 L 1287.9289466596701 433.5019658247627 L 1288.090454039585 432.13739686179593 L 1288.3585263930406 430.78970613252164 L 1288.7315109648348 429.4672025984384 L 1289.2071081810525 428.17803993361093 L 1289.7823858267036 426.93016625455795 L 1290.4537971238035 425.7312751174709 L 1291.2172025984385 424.5887580848817 L 1292.0678956019995 423.50965915422177 L 1293.0006313292354 422.50063132923543 L 1294.0096591542217 421.56789560199945 L 1295.0887580848816 420.7172025984384 L 1296.231275117471 419.9537971238034 L 1297.430166254558 419.28238582670355 L 1298.678039933611 418.7071081810525 L 1299.9672025984385 418.2315109648348 L 1301.2897061325216 417.8585263930407 L 1302.637396861796 417.5904540395851 L 1304.0019658247627 417.42894665967026 L 1305.375 417.375 L 1306.7480341752373 417.42894665967026 L 1308.1126031382041 417.5904540395851 L 1309.4602938674784 417.8585263930407 L 1310.7827974015618 418.23151096483485 L 1312.0719600663892 418.7071081810525 L 1313.319833745442 419.2823858267036 L 1314.518724882529 419.95379712380344 L 1315.6612419151184 420.7172025984385 L 1316.7403408457783 421.56789560199957 L 1317.7493686707646 422.5006313292355 L 1318.6821043980005 423.5096591542219 L 1319.5327974015618 424.5887580848818 L 1320.2962028761967 425.73127511747106 L 1320.9676141732966 426.93016625455806 L 1321.5428918189475 428.1780399336111 L 1322.0184890351652 429.4672025984386 L 1322.3914736069594 430.7897061325218 L 1322.659545960415 432.13739686179616 L 1322.8210533403299 433.5019658247629 Z" fill-opacity="1" stroke-opacity="1" stroke-miterlimit="10" stroke-width="6"/><text fill="rgb(255,255,255)" stroke="none" font-family="times new roman" font-size="10px" font-style="normal" font-weight="normal" text-decoration="normal" x="1305.375" y="439.875" text-anchor="middle" dominant-baseline="text-after-edge" fill-opacity="1">*4.5</text><path fill="rgb(69,90,100)" stroke="rgb(189,189,189)" paint-order="fill stroke markers" d=" M 895.125 353.875 L 895.0556400089954 355.6403296538765 L 894.8479876633907 357.3947754634052 L 894.5033232089477 359.12752068675786 L 894.0237716166409 360.8278823734363 L 893.412289481504 362.48537722821453 L 892.6726467942383 364.0897862441398 L 891.8094036979671 365.6312177061088 L 890.8278823734363 367.10016817658067 L 889.7341342260007 368.48758108742913 L 888.5349025766973 369.78490257669733 L 887.2375810874291 370.9841342260007 L 885.8501681765806 372.0778823734363 L 884.3812177061088 373.05940369796707 L 882.8397862441398 373.9226467942383 L 881.2353772282145 374.66228948150393 L 879.5778823734363 375.27377161664094 L 877.8775206867579 375.75332320894773 L 876.1447754634052 376.0979876633906 L 874.3903296538765 376.3056400089954 L 872.625 376.375 L 870.8596703461235 376.3056400089954 L 869.1052245365948 376.0979876633906 L 867.3724793132421 375.75332320894773 L 865.6721176265637 375.27377161664094 L 864.0146227717855 374.66228948150393 L 862.4102137558602 373.9226467942383 L 860.8687822938912 373.05940369796707 L 859.3998318234194 372.0778823734363 L 858.0124189125709 370.9841342260007 L 856.7150974233027 369.78490257669733 L 855.5158657739993 368.48758108742913 L 854.4221176265637 367.10016817658067 L 853.4405963020329 365.6312177061088 L 852.5773532057617 364.0897862441398 L 851.837710518496 362.48537722821453 L 851.2262283833591 360.8278823734363 L 850.7466767910523 359.12752068675786 L 850.4020123366095 357.3947754634052 L 850.1943599910046 355.6403296538765 L 850.125 353.875 L 850.1943599910046 352.1096703461235 L 850.4020123366093 350.3552245365948 L 850.7466767910523 348.62247931324214 L 851.2262283833591 346.9221176265637 L 851.837710518496 345.26462277178547 L 852.5773532057617 343.6602137558602 L 853.4405963020329 342.1187822938912 L 854.4221176265637 340.64983182341933 L 855.5158657739993 339.26241891257087 L 856.7150974233027 337.96509742330267 L 858.0124189125709 336.76586577399934 L 859.3998318234194 335.6721176265637 L 860.8687822938912 334.69059630203293 L 862.4102137558602 333.8273532057617 L 864.0146227717855 333.087710518496 L 865.6721176265637 332.47622838335906 L 867.3724793132421 331.99667679105227 L 869.1052245365948 331.6520123366094 L 870.8596703461236 331.4443599910046 L 872.6250000000001 331.375 L 874.3903296538766 331.4443599910046 L 876.1447754634053 331.6520123366094 L 877.877520686758 331.9966767910523 L 879.5778823734364 332.47622838335906 L 881.2353772282146 333.0877105184961 L 882.8397862441399 333.82735320576177 L 884.3812177061089 334.690596302033 L 885.8501681765807 335.67211762656376 L 887.2375810874292 336.7658657739994 L 888.5349025766974 337.9650974233028 L 889.7341342260008 339.262418912571 L 890.8278823734364 340.6498318234195 L 891.8094036979671 342.11878229389134 L 892.6726467942384 343.6602137558604 L 893.412289481504 345.2646227717857 L 894.023771616641 346.92211762656393 L 894.5033232089478 348.62247931324237 L 894.8479876633907 350.3552245365951 L 895.0556400089954 352.1096703461238 Z" fill-opacity="1" stroke-opacity="1" stroke-miterlimit="10" stroke-width="6"/><text fill="rgb(255,255,255)" stroke="none" font-family="times new roman" font-size="15px" font-style="normal" font-weight="normal" text-decoration="normal" x="872.625" y="361.375" text-anchor="middle" dominant-baseline="text-after-edge" fill-opacity="1">*74</text><path fill="rgb(69,90,100)" stroke="rgb(255,193,7)" paint-order="fill stroke markers" d=" M 696.3125 108.375 L 696.3125 128.375 L 791.3125 128.375 L 791.3125 108.375 Z" fill-opacity="1" stroke-opacity="1" stroke-miterlimit="10" stroke-width="6"/><text fill="rgb(255,255,255)" stroke="none" font-family="times new roman" font-size="10px" font-style="normal" font-weight="normal" text-decoration="normal" x="743.8125" y="123.375" text-anchor="middle" dominant-baseline="text-after-edge" fill-opacity="1">42126611C&gt;G</text><path fill="rgb(69,90,100)" stroke="rgb(76,175,80)" paint-order="fill stroke markers" d=" M 921.125 343.875 L 921.125 363.875 L 1016.125 363.875 L 1016.125 343.875 Z" fill-opacity="1" stroke-opacity="1" stroke-miterlimit="10" stroke-width="6"/><text fill="rgb(255,255,255)" stroke="none" font-family="times new roman" font-size="10px" font-style="normal" font-weight="normal" text-decoration="normal" x="968.625" y="358.875" text-anchor="middle" dominant-baseline="text-after-edge" fill-opacity="1">42129796G&gt;C</text><path fill="rgb(69,90,100)" stroke="rgb(255,193,7)" paint-order="fill stroke markers" d=" M 1315.375 353.875 L 1315.3210533403299 355.2480341752373 L 1315.159545960415 356.61260313820407 L 1314.8914736069594 357.96029386747836 L 1314.5184890351652 359.2827974015616 L 1314.0428918189475 360.57196006638907 L 1313.4676141732964 361.81983374544205 L 1312.7962028761965 363.0187248825291 L 1312.0327974015615 364.1612419151183 L 1311.1821043980005 365.24034084577823 L 1310.2493686707646 366.24936867076457 L 1309.2403408457783 367.18210439800055 L 1308.1612419151184 368.0327974015616 L 1307.018724882529 368.7962028761966 L 1305.819833745442 369.46761417329645 L 1304.571960066389 370.0428918189475 L 1303.2827974015615 370.5184890351652 L 1301.9602938674784 370.8914736069593 L 1300.6126031382041 371.1595459604149 L 1299.2480341752373 371.32105334032974 L 1297.875 371.375 L 1296.5019658247627 371.32105334032974 L 1295.1373968617959 371.1595459604149 L 1293.7897061325216 370.8914736069593 L 1292.4672025984385 370.5184890351652 L 1291.178039933611 370.0428918189475 L 1289.930166254558 369.46761417329645 L 1288.731275117471 368.7962028761966 L 1287.5887580848816 368.0327974015616 L 1286.5096591542217 367.18210439800055 L 1285.5006313292354 366.24936867076457 L 1284.5678956019995 365.24034084577823 L 1283.7172025984385 364.1612419151183 L 1282.9537971238035 363.0187248825291 L 1282.2823858267036 361.81983374544205 L 1281.7071081810525 360.57196006638907 L 1281.2315109648348 359.2827974015616 L 1280.8585263930406 357.96029386747836 L 1280.590454039585 356.61260313820407 L 1280.4289466596701 355.2480341752373 L 1280.375 353.875 L 1280.4289466596701 352.5019658247627 L 1280.590454039585 351.13739686179593 L 1280.8585263930406 349.78970613252164 L 1281.2315109648348 348.4672025984384 L 1281.7071081810525 347.17803993361093 L 1282.2823858267036 345.93016625455795 L 1282.9537971238035 344.7312751174709 L 1283.7172025984385 343.5887580848817 L 1284.5678956019995 342.50965915422177 L 1285.5006313292354 341.50063132923543 L 1286.5096591542217 340.56789560199945 L 1287.5887580848816 339.7172025984384 L 1288.731275117471 338.9537971238034 L 1289.930166254558 338.28238582670355 L 1291.178039933611 337.7071081810525 L 1292.4672025984385 337.2315109648348 L 1293.7897061325216 336.8585263930407 L 1295.137396861796 336.5904540395851 L 1296.5019658247627 336.42894665967026 L 1297.875 336.375 L 1299.2480341752373 336.42894665967026 L 1300.6126031382041 336.5904540395851 L 1301.9602938674784 336.8585263930407 L 1303.2827974015618 337.23151096483485 L 1304.5719600663892 337.7071081810525 L 1305.819833745442 338.2823858267036 L 1307.018724882529 338.95379712380344 L 1308.1612419151184 339.7172025984385 L 1309.2403408457783 340.56789560199957 L 1310.2493686707646 341.5006313292355 L 1311.1821043980005 342.5096591542219 L 1312.0327974015618 343.5887580848818 L 1312.7962028761967 344.73127511747106 L 1313.4676141732966 345.93016625455806 L 1314.0428918189475 347.1780399336111 L 1314.5184890351652 348.4672025984386 L 1314.8914736069594 349.7897061325218 L 1315.159545960415 351.13739686179616 L 1315.3210533403299 352.5019658247629 Z" fill-opacity="1" stroke-opacity="1" stroke-miterlimit="10" stroke-width="6"/><text fill="rgb(255,255,255)" stroke="none" font-family="times new roman" font-size="10px" font-style="normal" font-weight="normal" text-decoration="normal" x="1297.875" y="358.875" text-anchor="middle" dominant-baseline="text-after-edge" fill-opacity="1">*10.1</text><path fill="rgb(69,90,100)" stroke="rgb(244,67,54)" paint-order="fill stroke markers" d=" M 225.4375 434.875 L 225.38355334032974 436.2480341752373 L 225.2220459604149 437.61260313820407 L 224.95397360695935 438.96029386747836 L 224.58098903516517 440.2827974015616 L 224.1053918189475 441.57196006638907 L 223.53011417329643 442.81983374544205 L 222.85870287619662 444.0187248825291 L 222.0952974015616 445.1612419151183 L 221.24460439800055 446.24034084577823 L 220.31186867076457 447.24936867076457 L 219.3028408457782 448.18210439800055 L 218.22374191511827 449.0327974015616 L 217.0812248825291 449.7962028761966 L 215.88233374544208 450.46761417329645 L 214.63446006638907 451.0428918189475 L 213.3452974015616 451.5184890351652 L 212.02279386747836 451.8914736069593 L 210.67510313820404 452.1595459604149 L 209.31053417523728 452.32105334032974 L 207.9375 452.375 L 206.56446582476272 452.32105334032974 L 205.19989686179596 452.1595459604149 L 203.85220613252164 451.8914736069593 L 202.52970259843843 451.5184890351652 L 201.24053993361093 451.0428918189475 L 199.99266625455795 450.46761417329645 L 198.7937751174709 449.7962028761966 L 197.65125808488173 449.0327974015616 L 196.5721591542218 448.18210439800055 L 195.56313132923543 447.24936867076457 L 194.63039560199945 446.24034084577823 L 193.77970259843843 445.1612419151183 L 193.01629712380338 444.0187248825291 L 192.34488582670357 442.81983374544205 L 191.7696081810525 441.57196006638907 L 191.29401096483483 440.2827974015616 L 190.92102639304065 438.96029386747836 L 190.6529540395851 437.61260313820407 L 190.49144665967026 436.2480341752373 L 190.4375 434.875 L 190.49144665967026 433.5019658247627 L 190.6529540395851 432.13739686179593 L 190.92102639304065 430.78970613252164 L 191.2940109648348 429.4672025984384 L 191.7696081810525 428.17803993361093 L 192.34488582670357 426.93016625455795 L 193.01629712380338 425.7312751174709 L 193.7797025984384 424.5887580848817 L 194.63039560199945 423.50965915422177 L 195.5631313292354 422.50063132923543 L 196.57215915422177 421.56789560199945 L 197.6512580848817 420.7172025984384 L 198.7937751174709 419.9537971238034 L 199.99266625455795 419.28238582670355 L 201.24053993361096 418.7071081810525 L 202.52970259843843 418.2315109648348 L 203.8522061325217 417.8585263930407 L 205.199896861796 417.5904540395851 L 206.56446582476278 417.42894665967026 L 207.93750000000006 417.375 L 209.31053417523736 417.42894665967026 L 210.67510313820412 417.5904540395851 L 212.0227938674784 417.8585263930407 L 213.34529740156165 418.23151096483485 L 214.63446006638915 418.7071081810525 L 215.88233374544217 419.2823858267036 L 217.0812248825292 419.95379712380344 L 218.22374191511838 420.7172025984385 L 219.30284084577832 421.56789560199957 L 220.31186867076468 422.5006313292355 L 221.24460439800063 423.5096591542219 L 222.09529740156168 424.5887580848818 L 222.8587028761967 425.73127511747106 L 223.5301141732965 426.93016625455806 L 224.1053918189476 428.1780399336111 L 224.58098903516523 429.4672025984386 L 224.95397360695938 430.7897061325218 L 225.22204596041493 432.13739686179616 L 225.38355334032974 433.5019658247629 Z" fill-opacity="1" stroke-opacity="1" stroke-miterlimit="10" stroke-width="6"/><text fill="rgb(255,255,255)" stroke="none" font-family="times new roman" font-size="10px" font-style="normal" font-weight="normal" text-decoration="normal" x="207.9375" y="439.875" text-anchor="middle" dominant-baseline="text-after-edge" fill-opacity="1">*4.2</text><path fill="rgb(69,90,100)" stroke="rgb(76,175,80)" paint-order="fill stroke markers" d=" M 751.1875 434.875 L 751.1335533403297 436.2480341752373 L 750.9720459604149 437.61260313820407 L 750.7039736069594 438.96029386747836 L 750.3309890351652 440.2827974015616 L 749.8553918189475 441.57196006638907 L 749.2801141732964 442.81983374544205 L 748.6087028761966 444.0187248825291 L 747.8452974015615 445.1612419151183 L 746.9946043980005 446.24034084577823 L 746.0618686707646 447.24936867076457 L 745.0528408457782 448.18210439800055 L 743.9737419151182 449.0327974015616 L 742.8312248825291 449.7962028761966 L 741.6323337454421 450.46761417329645 L 740.3844600663891 451.0428918189475 L 739.0952974015615 451.5184890351652 L 737.7727938674783 451.8914736069593 L 736.425103138204 452.1595459604149 L 735.0605341752373 452.32105334032974 L 733.6875 452.375 L 732.3144658247627 452.32105334032974 L 730.949896861796 452.1595459604149 L 729.6022061325217 451.8914736069593 L 728.2797025984385 451.5184890351652 L 726.9905399336109 451.0428918189475 L 725.7426662545579 450.46761417329645 L 724.5437751174709 449.7962028761966 L 723.4012580848818 449.0327974015616 L 722.3221591542218 448.18210439800055 L 721.3131313292354 447.24936867076457 L 720.3803956019995 446.24034084577823 L 719.5297025984385 445.1612419151183 L 718.7662971238034 444.0187248825291 L 718.0948858267036 442.81983374544205 L 717.5196081810525 441.57196006638907 L 717.0440109648348 440.2827974015616 L 716.6710263930406 438.96029386747836 L 716.4029540395851 437.61260313820407 L 716.2414466596703 436.2480341752373 L 716.1875 434.875 L 716.2414466596703 433.5019658247627 L 716.4029540395851 432.13739686179593 L 716.6710263930406 430.78970613252164 L 717.0440109648348 429.4672025984384 L 717.5196081810525 428.17803993361093 L 718.0948858267036 426.93016625455795 L 718.7662971238034 425.7312751174709 L 719.5297025984385 424.5887580848817 L 720.3803956019995 423.50965915422177 L 721.3131313292354 422.50063132923543 L 722.3221591542218 421.56789560199945 L 723.4012580848818 420.7172025984384 L 724.5437751174709 419.9537971238034 L 725.7426662545579 419.28238582670355 L 726.990539933611 418.7071081810525 L 728.2797025984385 418.2315109648348 L 729.6022061325217 417.8585263930407 L 730.949896861796 417.5904540395851 L 732.3144658247628 417.42894665967026 L 733.6875000000001 417.375 L 735.0605341752373 417.42894665967026 L 736.4251031382041 417.5904540395851 L 737.7727938674784 417.8585263930407 L 739.0952974015617 418.23151096483485 L 740.3844600663891 418.7071081810525 L 741.6323337454421 419.2823858267036 L 742.8312248825292 419.95379712380344 L 743.9737419151184 420.7172025984385 L 745.0528408457783 421.56789560199957 L 746.0618686707646 422.5006313292355 L 746.9946043980007 423.5096591542219 L 747.8452974015617 424.5887580848818 L 748.6087028761967 425.73127511747106 L 749.2801141732965 426.93016625455806 L 749.8553918189476 428.1780399336111 L 750.3309890351652 429.4672025984386 L 750.7039736069594 430.7897061325218 L 750.9720459604149 432.13739686179616 L 751.1335533403297 433.5019658247629 Z" fill-opacity="1" stroke-opacity="1" stroke-miterlimit="10" stroke-width="6"/><text fill="rgb(255,255,255)" stroke="none" font-family="times new roman" font-size="10px" font-style="normal" font-weight="normal" text-decoration="normal" x="733.6875" y="439.875" text-anchor="middle" dominant-baseline="text-after-edge" fill-opacity="1">*1.41</text><path fill="rgb(69,90,100)" stroke="rgb(244,67,54)" paint-order="fill stroke markers" d=" M 1344.0625 568 L 1344.0085533403299 569.3730341752373 L 1343.847045960415 570.737603138204 L 1343.5789736069594 572.0852938674783 L 1343.2059890351652 573.4077974015615 L 1342.7303918189475 574.6969600663891 L 1342.1551141732964 575.9448337454421 L 1341.4837028761965 577.1437248825291 L 1340.7202974015615 578.2862419151182 L 1339.8696043980005 579.3653408457782 L 1338.9368686707646 580.3743686707646 L 1337.9278408457783 581.3071043980005 L 1336.8487419151184 582.1577974015615 L 1335.706224882529 582.9212028761966 L 1334.507333745442 583.5926141732964 L 1333.259460066389 584.1678918189475 L 1331.9702974015615 584.6434890351652 L 1330.6477938674784 585.0164736069594 L 1329.3001031382041 585.2845459604149 L 1327.9355341752373 585.4460533403297 L 1326.5625 585.5 L 1325.1894658247627 585.4460533403297 L 1323.8248968617959 585.2845459604149 L 1322.4772061325216 585.0164736069594 L 1321.1547025984385 584.6434890351652 L 1319.865539933611 584.1678918189475 L 1318.617666254558 583.5926141732964 L 1317.418775117471 582.9212028761966 L 1316.2762580848816 582.1577974015615 L 1315.1971591542217 581.3071043980005 L 1314.1881313292354 580.3743686707646 L 1313.2553956019995 579.3653408457782 L 1312.4047025984385 578.2862419151182 L 1311.6412971238035 577.1437248825291 L 1310.9698858267036 575.9448337454421 L 1310.3946081810525 574.6969600663891 L 1309.9190109648348 573.4077974015615 L 1309.5460263930406 572.0852938674783 L 1309.277954039585 570.737603138204 L 1309.1164466596701 569.3730341752373 L 1309.0625 568 L 1309.1164466596701 566.6269658247627 L 1309.277954039585 565.262396861796 L 1309.5460263930406 563.9147061325217 L 1309.9190109648348 562.5922025984385 L 1310.3946081810525 561.3030399336109 L 1310.9698858267036 560.0551662545579 L 1311.6412971238035 558.8562751174709 L 1312.4047025984385 557.7137580848818 L 1313.2553956019995 556.6346591542218 L 1314.1881313292354 555.6256313292354 L 1315.1971591542217 554.6928956019995 L 1316.2762580848816 553.8422025984385 L 1317.418775117471 553.0787971238034 L 1318.617666254558 552.4073858267036 L 1319.865539933611 551.8321081810525 L 1321.1547025984385 551.3565109648348 L 1322.4772061325216 550.9835263930406 L 1323.824896861796 550.7154540395851 L 1325.1894658247627 550.5539466596703 L 1326.5625 550.5 L 1327.9355341752373 550.5539466596703 L 1329.3001031382041 550.7154540395851 L 1330.6477938674784 550.9835263930406 L 1331.9702974015618 551.3565109648348 L 1333.2594600663892 551.8321081810525 L 1334.507333745442 552.4073858267036 L 1335.706224882529 553.0787971238035 L 1336.8487419151184 553.8422025984385 L 1337.9278408457783 554.6928956019996 L 1338.9368686707646 555.6256313292355 L 1339.8696043980005 556.6346591542219 L 1340.7202974015618 557.7137580848819 L 1341.4837028761967 558.856275117471 L 1342.1551141732966 560.0551662545581 L 1342.7303918189475 561.3030399336111 L 1343.2059890351652 562.5922025984386 L 1343.5789736069594 563.9147061325218 L 1343.847045960415 565.2623968617961 L 1344.0085533403299 566.6269658247629 Z" fill-opacity="1" stroke-opacity="1" stroke-miterlimit="10" stroke-width="6"/><text fill="rgb(255,255,255)" stroke="none" font-family="times new roman" font-size="10px" font-style="normal" font-weight="normal" text-decoration="normal" x="1326.5625" y="573" text-anchor="middle" dominant-baseline="text-after-edge" fill-opacity="1">*4.11</text><path fill="rgb(69,90,100)" stroke="rgb(76,175,80)" paint-order="fill stroke markers" d=" M 729.125 343.875 L 729.125 363.875 L 824.125 363.875 L 824.125 343.875 Z" fill-opacity="1" stroke-opacity="1" stroke-miterlimit="10" stroke-width="6"/><text fill="rgb(255,255,255)" stroke="none" font-family="times new roman" font-size="10px" font-style="normal" font-weight="normal" text-decoration="normal" x="776.625" y="358.875" text-anchor="middle" dominant-baseline="text-after-edge" fill-opacity="1">42127407T&gt;G</text><path fill="rgb(69,90,100)" stroke="rgb(69,90,100)" paint-order="fill stroke markers" d=" M 845.8125 682.125 L 827.0625 699.625 L 845.8125 717.125 L 883.3125 717.125 L 902.0625 699.625 L 883.3125 682.125 Z" fill-opacity="1" stroke-opacity="1" stroke-miterlimit="10" stroke-width="2"/><text fill="rgb(255,255,255)" stroke="none" font-family="times new roman" font-size="10px" font-style="normal" font-weight="normal" text-decoration="normal" x="864.5625" y="704.625" text-anchor="middle" dominant-baseline="text-after-edge" fill-opacity="1">NA12156-B</text><path fill="rgb(69,90,100)" stroke="rgb(255,193,7)" paint-order="fill stroke markers" d=" M 422 259.125 L 422 279.125 L 517 279.125 L 517 259.125 Z" fill-opacity="1" stroke-opacity="1" stroke-miterlimit="10" stroke-width="6"/><text fill="rgb(255,255,255)" stroke="none" font-family="times new roman" font-size="10px" font-style="normal" font-weight="normal" text-decoration="normal" x="469.5" y="274.125" text-anchor="middle" dominant-baseline="text-after-edge" fill-opacity="1">42129819G&gt;T</text><path fill="rgb(69,90,100)" stroke="rgb(76,175,80)" paint-order="fill stroke markers" d=" M 720.1875 191.875 L 720.1181400089954 193.6403296538765 L 719.9104876633907 195.39477546340518 L 719.5658232089477 197.12752068675786 L 719.0862716166409 198.82788237343632 L 718.474789481504 200.48537722821453 L 717.7351467942383 202.08978624413982 L 716.8719036979671 203.63121770610886 L 715.8903823734363 205.10016817658064 L 714.7966342260007 206.48758108742913 L 713.5974025766973 207.7849025766973 L 712.3000810874291 208.9841342260007 L 710.9126681765806 210.07788237343632 L 709.4437177061088 211.05940369796707 L 707.9022862441398 211.9226467942383 L 706.2978772282145 212.66228948150396 L 704.6403823734363 213.27377161664094 L 702.9400206867579 213.75332320894773 L 701.2072754634052 214.0979876633906 L 699.4528296538765 214.30564000899537 L 697.6875 214.375 L 695.9221703461235 214.30564000899537 L 694.1677245365948 214.0979876633906 L 692.4349793132421 213.75332320894773 L 690.7346176265637 213.27377161664094 L 689.0771227717855 212.66228948150396 L 687.4727137558602 211.9226467942383 L 685.9312822938912 211.05940369796707 L 684.4623318234194 210.07788237343632 L 683.0749189125709 208.9841342260007 L 681.7775974233027 207.78490257669733 L 680.5783657739993 206.48758108742913 L 679.4846176265637 205.10016817658064 L 678.5030963020329 203.63121770610886 L 677.6398532057617 202.08978624413982 L 676.900210518496 200.48537722821453 L 676.2887283833591 198.82788237343632 L 675.8091767910523 197.12752068675786 L 675.4645123366095 195.3947754634052 L 675.2568599910046 193.6403296538765 L 675.1875 191.875 L 675.2568599910046 190.1096703461235 L 675.4645123366093 188.35522453659482 L 675.8091767910523 186.62247931324214 L 676.2887283833591 184.92211762656368 L 676.900210518496 183.26462277178547 L 677.6398532057617 181.6602137558602 L 678.5030963020329 180.11878229389114 L 679.4846176265637 178.64983182341936 L 680.5783657739993 177.26241891257087 L 681.7775974233027 175.9650974233027 L 683.0749189125709 174.7658657739993 L 684.4623318234194 173.67211762656368 L 685.9312822938912 172.69059630203293 L 687.4727137558602 171.8273532057617 L 689.0771227717855 171.08771051849604 L 690.7346176265637 170.47622838335903 L 692.4349793132421 169.99667679105227 L 694.1677245365948 169.6520123366094 L 695.9221703461236 169.4443599910046 L 697.6875000000001 169.375 L 699.4528296538766 169.44435999100463 L 701.2072754634053 169.6520123366094 L 702.940020686758 169.9966767910523 L 704.6403823734364 170.47622838335909 L 706.2978772282146 171.0877105184961 L 707.9022862441399 171.8273532057618 L 709.4437177061089 172.690596302033 L 710.9126681765807 173.67211762656376 L 712.3000810874292 174.76586577399942 L 713.5974025766974 175.9650974233028 L 714.7966342260008 177.262418912571 L 715.8903823734364 178.6498318234195 L 716.8719036979671 180.11878229389131 L 717.7351467942384 181.66021375586038 L 718.474789481504 183.2646227717857 L 719.086271616641 184.9221176265639 L 719.5658232089478 186.62247931324237 L 719.9104876633907 188.35522453659505 L 720.1181400089954 190.10967034612375 Z" fill-opacity="1" stroke-opacity="1" stroke-miterlimit="10" stroke-width="6"/><text fill="rgb(255,255,255)" stroke="none" font-family="times new roman" font-size="15px" font-style="normal" font-weight="normal" text-decoration="normal" x="697.6875" y="199.375" text-anchor="middle" dominant-baseline="text-after-edge" fill-opacity="1">*39</text><path fill="rgb(176,190,197)" stroke="none" paint-order="stroke fill markers" d=" M 778.6875 463 L 778.6875 673 L 853.6875 673 L 853.6875 463.00000000000006 Z" fill-opacity="0.8"/><text fill="rgb(0,0,0)" stroke="none" font-family="times new roman" font-size="10px" font-style="normal" font-weight="normal" text-decoration="normal" x="783.6875" y="478" text-anchor="start" dominant-baseline="text-after-edge" fill-opacity="0.8">42126390G&gt;A </text><text fill="rgb(0,0,0)" stroke="none" font-family="times new roman" font-size="10px" font-style="normal" font-weight="normal" text-decoration="normal" x="783.6875" y="488" text-anchor="start" dominant-baseline="text-after-edge" fill-opacity="0.8">42127209T&gt;C </text><text fill="rgb(0,0,0)" stroke="none" font-family="times new roman" font-size="10px" font-style="normal" font-weight="normal" text-decoration="normal" x="783.6875" y="498" text-anchor="start" dominant-baseline="text-after-edge" fill-opacity="0.8">42128694T&gt;C </text><text fill="rgb(0,0,0)" stroke="none" font-family="times new roman" font-size="10px" font-style="normal" font-weight="normal" text-decoration="normal" x="783.6875" y="508" text-anchor="start" dominant-baseline="text-after-edge" fill-opacity="0.8">42131791C&gt;T </text><text fill="rgb(0,0,0)" stroke="none" font-family="times new roman" font-size="10px" font-style="normal" font-weight="normal" text-decoration="normal" x="783.6875" y="518" text-anchor="start" dominant-baseline="text-after-edge" fill-opacity="0.8">42132217G&gt;A </text><path fill="rgb(176,190,197)" stroke="none" paint-order="stroke fill markers" d=" M 298.6875 463 L 365.6875 463 L 365.6875 463 A 8 8 0 0 1 373.6875 471 L 373.6875 665 L 373.6875 665 A 8 8 0 0 1 365.6875 673 L 231.6875 673 L 231.6875 673 A 8 8 0 0 1 223.6875 665 L 223.6875 471 L 223.6875 471 A 8 8 0 0 1 231.6875 463 L 298.6875 463 Z" fill-opacity="0.8"/><text fill="rgb(0,0,0)" stroke="none" font-family="times new roman" font-size="10px" font-style="normal" font-weight="normal" text-decoration="normal" x="228.6875" y="478" text-anchor="start" dominant-baseline="text-after-edge" fill-opacity="0.8">42125924A&gt;G </text><text fill="rgb(0,0,0)" stroke="none" font-family="times new roman" font-size="10px" font-style="normal" font-weight="normal" text-decoration="normal" x="228.6875" y="488" text-anchor="start" dominant-baseline="text-after-edge" fill-opacity="0.8">42125980T&gt;C </text><text fill="rgb(0,0,0)" stroke="none" font-family="times new roman" font-size="10px" font-style="normal" font-weight="normal" text-decoration="normal" x="228.6875" y="498" text-anchor="start" dominant-baseline="text-after-edge" fill-opacity="0.8">42126069A&gt;C </text><text fill="rgb(0,0,0)" stroke="none" font-family="times new roman" font-size="10px" font-style="normal" font-weight="normal" text-decoration="normal" x="228.6875" y="508" text-anchor="start" dominant-baseline="text-after-edge" fill-opacity="0.8">42132027C&gt;T </text><text fill="rgb(0,0,0)" stroke="none" font-family="times new roman" font-size="10px" font-style="normal" font-weight="normal" text-decoration="normal" x="228.6875" y="518" text-anchor="start" dominant-baseline="text-after-edge" fill-opacity="0.8">42132844C&gt;A </text><text fill="rgb(0,0,0)" stroke="none" font-family="times new roman" font-size="10px" font-style="normal" font-weight="normal" text-decoration="normal" x="228.6875" y="528" text-anchor="start" dominant-baseline="text-after-edge" fill-opacity="0.8">42132851T&gt;C </text><text fill="rgb(0,0,0)" stroke="none" font-family="times new roman" font-size="10px" font-style="normal" font-weight="normal" text-decoration="normal" x="228.6875" y="538" text-anchor="start" dominant-baseline="text-after-edge" fill-opacity="0.8">42132969C&gt;T </text><text fill="rgb(0,0,0)" stroke="none" font-family="times new roman" font-size="10px" font-style="normal" font-weight="normal" text-decoration="normal" x="228.6875" y="548" text-anchor="start" dominant-baseline="text-after-edge" fill-opacity="0.8">42133212A&gt;G </text><text fill="rgb(0,0,0)" stroke="none" font-family="times new roman" font-size="10px" font-style="normal" font-weight="normal" text-decoration="normal" x="228.6875" y="558" text-anchor="start" dominant-baseline="text-after-edge" fill-opacity="0.8">42133314C&gt;T </text><text fill="rgb(0,0,0)" stroke="none" font-family="times new roman" font-size="10px" font-style="normal" font-weight="normal" text-decoration="normal" x="228.6875" y="568" text-anchor="start" dominant-baseline="text-after-edge" fill-opacity="0.8">42133400T&gt;G </text><text fill="rgb(0,0,0)" stroke="none" font-family="times new roman" font-size="10px" font-style="normal" font-weight="normal" text-decoration="normal" x="228.6875" y="578" text-anchor="start" dominant-baseline="text-after-edge" fill-opacity="0.8">42134096del </text><g transform="scale(1.22694618599791,1.22694618599791) translate(121.9524671315271,28.53292170117635)"/></g></svg>