<svg version="1.1" xmlns="http://www.w3.org/2000/svg" xmlns:xlink="http://www.w3.org/1999/xlink" width="1017" height="608"><defs/><g transform="translate(-79.2036430618092,-51.313958248055656) scale(1.7945149406467458,1.7945149406467458)"><path fill="none" stroke="rgb(120,144,156)" paint-order="fill stroke markers" d=" M 327.88157894736844 72.3125 L 358.62211566192894 106.66957044568527" stroke-opacity="1" stroke-linejoin="round" stroke-miterlimit="10"/><path fill="rgb(120,144,156)" stroke="none" paint-order="stroke fill markers" d=" M 350.91279038964694 104.57701128376085 L 359.9557053808686 108.16005307273547 L 357.3963898173153 98.77589600637336 Z" fill-opacity="1"/><path fill="none" stroke="rgb(120,144,156)" paint-order="fill stroke markers" d=" M 419.36842105263156 72.3125 L 388.62788433807106 106.66957044568527" stroke-opacity="1" stroke-linejoin="round" stroke-miterlimit="10"/><path fill="rgb(120,144,156)" stroke="none" paint-order="stroke fill markers" d=" M 389.8536101826847 98.77589600637336 L 387.2942946191314 108.16005307273547 L 396.33720961035306 104.57701128376087 Z" fill-opacity="1"/><path fill="none" stroke="rgb(120,144,156)" paint-order="fill stroke markers" d=" M 298.8061112960203 211.12135146659966 L 316.59999979705094 243.25400448787843" stroke-opacity="1" stroke-linejoin="round" stroke-miterlimit="10"/><path fill="rgb(120,144,156)" stroke="none" paint-order="stroke fill markers" d=" M 309.54874615982925 239.50003030795014 L 317.5688887039797 245.00364853340034 L 317.1596977578496 235.28536356280983 Z" fill-opacity="1"/><path fill="none" stroke="rgb(120,144,156)" paint-order="fill stroke markers" d=" M 159.92857142857142 275.9375 L 296.93505451857163 321.109927395616" stroke-opacity="1" stroke-linejoin="round" stroke-miterlimit="10"/><path fill="rgb(120,144,156)" stroke="none" paint-order="stroke fill markers" d=" M 289.20988190292985 323.1432026004367 L 298.8344755933068 321.7361857934454 L 291.93410593348756 314.8807209253386 Z" fill-opacity="1"/><path fill="none" stroke="rgb(120,144,156)" paint-order="fill stroke markers" d=" M 457.2782258064516 136.4375 L 432.16081304923193 174.4199290475029" stroke-opacity="1" stroke-linejoin="round" stroke-miterlimit="10"/><path fill="rgb(120,144,156)" stroke="none" paint-order="stroke fill markers" d=" M 432.22808032863156 166.4319396187967 L 431.057629667078 176.08815757661375 L 439.4848744302638 171.23078733116637 Z" fill-opacity="1"/><path fill="none" stroke="rgb(120,144,156)" paint-order="fill stroke markers" d=" M 384.932629667078 140.53684242338625 L 407.33918695076807 174.4199290475029" stroke-opacity="1" stroke-linejoin="round" stroke-miterlimit="10"/><path fill="rgb(120,144,156)" stroke="none" paint-order="stroke fill markers" d=" M 400.0151255697362 171.23078733116637 L 408.442370332922 176.08815757661375 L 407.27191967136844 166.4319396187967 Z" fill-opacity="1"/><path fill="none" stroke="rgb(120,144,156)" paint-order="fill stroke markers" d=" M 282.77284946236557 136.4375 L 286.46951136236703 170.81645567001357" stroke-opacity="1" stroke-linejoin="round" stroke-miterlimit="10"/><path fill="rgb(120,144,156)" stroke="none" paint-order="stroke fill markers" d=" M 281.428141730919 164.61991693947107 L 286.6833325746011 172.80499294379013 L 290.07827887184703 163.689794666253 Z" fill-opacity="1"/><path fill="none" stroke="rgb(120,144,156)" paint-order="fill stroke markers" d=" M 252.82142857142856 275.9375 L 304.13869936719743 313.9039361171948" stroke-opacity="1" stroke-linejoin="round" stroke-miterlimit="10"/><path fill="rgb(120,144,156)" stroke="none" paint-order="stroke fill markers" d=" M 296.165340259033 313.41603804151595 L 305.7465081631386 315.09345319386676 L 301.3397395425559 306.42206977917175 Z" fill-opacity="1"/><path fill="none" stroke="rgb(120,144,156)" paint-order="fill stroke markers" d=" M 327.5 283.4375 L 327.5 310.6875" stroke-opacity="1" stroke-linejoin="round" stroke-miterlimit="10"/><path fill="rgb(120,144,156)" stroke="none" paint-order="stroke fill markers" d=" M 323.15 303.9875 L 327.5 312.6875 L 331.85 303.9875 Z" fill-opacity="1"/><path fill="none" stroke="rgb(120,144,156)" paint-order="fill stroke markers" d=" M 402.17857142857144 275.9375 L 350.8613006328026 313.9039361171948" stroke-opacity="1" stroke-linejoin="round" stroke-miterlimit="10"/><path fill="rgb(120,144,156)" stroke="none" paint-order="stroke fill markers" d=" M 353.6602604574441 306.42206977917175 L 349.25349183686143 315.09345319386676 L 358.8346597409671 313.41603804151595 Z" fill-opacity="1"/><path fill="none" stroke="rgb(120,144,156)" paint-order="fill stroke markers" d=" M 403.39798370871927 205.5512196348708 L 345.4473349538447 249.36756381538572" stroke-opacity="1" stroke-linejoin="round" stroke-miterlimit="10"/><path fill="rgb(120,144,156)" stroke="none" paint-order="stroke fill markers" d=" M 348.1681314777419 241.85692028266837 L 343.85201629128073 250.5737803651292 L 353.4151734691261 248.79655646482166 Z" fill-opacity="1"/><path fill="none" stroke="rgb(120,144,156)" paint-order="fill stroke markers" d=" M 357.796387494358 136.46458816836025 L 306.2478673842412 178.8894764005802" stroke-opacity="1" stroke-linejoin="round" stroke-miterlimit="10"/><path fill="rgb(120,144,156)" stroke="none" paint-order="stroke fill markers" d=" M 308.65683666499416 171.27308834557743 L 304.703612505642 180.16041183163975 L 314.1854057901031 177.99059706748406 Z" fill-opacity="1"/><path fill="none" stroke="rgb(120,144,156)" paint-order="fill stroke markers" d=" M 495.07142857142856 275.9375 L 358.06494548142837 321.109927395616" stroke-opacity="1" stroke-linejoin="round" stroke-miterlimit="10"/><path fill="rgb(120,144,156)" stroke="none" paint-order="stroke fill markers" d=" M 363.06589406651244 314.8807209253386 L 356.1655244066932 321.7361857934454 L 365.79011809707015 323.1432026004367 Z" fill-opacity="1"/><path fill="rgb(69,90,100)" stroke="rgb(224,224,224)" paint-order="fill stroke markers" d=" M 235.25 252.9375 L 277.75 252.9375 L 277.75 252.9375 A 5 5 0 0 1 282.75 257.9375 L 282.75 267.9375 L 282.75 267.9375 A 5 5 0 0 1 277.75 272.9375 L 192.75 272.9375 L 192.75 272.9375 A 5 5 0 0 1 187.75 267.9375 L 187.75 257.9375 L 187.75 257.9375 A 5 5 0 0 1 192.75 252.9375 L 235.25 252.9375 Z" fill-opacity="1" stroke-opacity="1" stroke-miterlimit="10" stroke-width="6"/><text fill="rgb(255,255,255)" stroke="none" font-family="times new roman" font-size="10px" font-style="normal" font-weight="normal" text-decoration="normal" x="235.25" y="267.9375" text-anchor="middle" dominant-baseline="text-after-edge" fill-opacity="1">42134820T&gt;G</text><path fill="rgb(69,90,100)" stroke="rgb(76,175,80)" paint-order="fill stroke markers" d=" M 383.5 49.3125 L 383.5 69.3125 L 478.5 69.3125 L 478.5 49.3125 Z" fill-opacity="1" stroke-opacity="1" stroke-miterlimit="10" stroke-width="6"/><text fill="rgb(255,255,255)" stroke="none" font-family="times new roman" font-size="10px" font-style="normal" font-weight="normal" text-decoration="normal" x="431" y="64.3125" text-anchor="middle" dominant-baseline="text-after-edge" fill-opacity="1">42129950A&gt;C</text><path fill="rgb(69,90,100)" stroke="rgb(76,175,80)" paint-order="fill stroke markers" d=" M 534.5 252.9375 L 577 252.9375 L 577 252.9375 A 5 5 0 0 1 582 257.9375 L 582 267.9375 L 582 267.9375 A 5 5 0 0 1 577 272.9375 L 492 272.9375 L 492 272.9375 A 5 5 0 0 1 487 267.9375 L 487 257.9375 L 487 257.9375 A 5 5 0 0 1 492 252.9375 L 534.5 252.9375 Z" fill-opacity="1" stroke-opacity="1" stroke-miterlimit="10" stroke-width="6"/><text fill="rgb(255,255,255)" stroke="none" font-family="times new roman" font-size="10px" font-style="normal" font-weight="normal" text-decoration="normal" x="534.5" y="267.9375" text-anchor="middle" dominant-baseline="text-after-edge" fill-opacity="1">42132049dup</text><path fill="rgb(69,90,100)" stroke="rgb(76,175,80)" paint-order="fill stroke markers" d=" M 437.25 193.1875 L 437.19605334032974 194.56053417523728 L 437.0345459604149 195.92510313820404 L 436.7664736069593 197.27279386747836 L 436.3934890351652 198.59529740156157 L 435.9178918189475 199.88446006638907 L 435.34261417329645 201.13233374544205 L 434.6712028761966 202.3312248825291 L 433.9077974015616 203.47374191511827 L 433.05710439800055 204.5528408457782 L 432.12436867076457 205.56186867076457 L 431.11534084577823 206.49460439800055 L 430.0362419151183 207.3452974015616 L 428.8937248825291 208.10870287619662 L 427.69483374544205 208.78011417329643 L 426.44696006638907 209.3553918189475 L 425.1577974015616 209.83098903516517 L 423.83529386747836 210.20397360695935 L 422.48760313820407 210.4720459604149 L 421.1230341752373 210.63355334032974 L 419.75 210.6875 L 418.3769658247627 210.63355334032974 L 417.01239686179593 210.4720459604149 L 415.66470613252164 210.20397360695935 L 414.3422025984384 209.8309890351652 L 413.05303993361093 209.3553918189475 L 411.80516625455795 208.78011417329643 L 410.6062751174709 208.10870287619662 L 409.4637580848817 207.3452974015616 L 408.38465915422177 206.49460439800055 L 407.37563132923543 205.56186867076457 L 406.44289560199945 204.5528408457782 L 405.5922025984384 203.4737419151183 L 404.8287971238034 202.3312248825291 L 404.15738582670355 201.13233374544208 L 403.5821081810525 199.88446006638907 L 403.1065109648348 198.5952974015616 L 402.7335263930407 197.27279386747836 L 402.4654540395851 195.92510313820404 L 402.30394665967026 194.56053417523728 L 402.25 193.1875 L 402.30394665967026 191.81446582476272 L 402.4654540395851 190.44989686179596 L 402.7335263930407 189.10220613252164 L 403.1065109648348 187.77970259843843 L 403.5821081810525 186.49053993361093 L 404.15738582670355 185.24266625455795 L 404.8287971238034 184.0437751174709 L 405.5922025984384 182.90125808488173 L 406.44289560199945 181.8221591542218 L 407.37563132923543 180.81313132923543 L 408.38465915422177 179.88039560199945 L 409.4637580848817 179.02970259843843 L 410.6062751174709 178.26629712380338 L 411.80516625455795 177.59488582670355 L 413.05303993361093 177.0196081810525 L 414.34220259843846 176.5440109648348 L 415.6647061325217 176.17102639304065 L 417.012396861796 175.9029540395851 L 418.37696582476275 175.74144665967026 L 419.75000000000006 175.6875 L 421.12303417523736 175.74144665967026 L 422.4876031382041 175.9029540395851 L 423.8352938674784 176.17102639304068 L 425.15779740156165 176.54401096483485 L 426.4469600663892 177.01960818105252 L 427.69483374544217 177.5948858267036 L 428.8937248825292 178.26629712380344 L 430.03624191511835 179.0297025984385 L 431.1153408457783 179.88039560199954 L 432.1243686707647 180.81313132923552 L 433.05710439800066 181.8221591542219 L 433.90779740156165 182.90125808488185 L 434.6712028761967 184.04377511747103 L 435.3426141732965 185.2426662545581 L 435.91789181894757 186.4905399336111 L 436.39348903516526 187.7797025984386 L 436.7664736069594 189.10220613252184 L 437.03454596041496 190.44989686179616 L 437.19605334032974 191.81446582476292 Z" fill-opacity="1" stroke-opacity="1" stroke-miterlimit="10" stroke-width="6"/><text fill="rgb(255,255,255)" stroke="none" font-family="times new roman" font-size="10px" font-style="normal" font-weight="normal" text-decoration="normal" x="419.75" y="198.1875" text-anchor="middle" dominant-baseline="text-after-edge" fill-opacity="1">*1.59</text><path fill="rgb(69,90,100)" stroke="rgb(76,175,80)" paint-order="fill stroke markers" d=" M 345 262.9375 L 344.94605334032974 264.3105341752373 L 344.7845459604149 265.67510313820407 L 344.5164736069593 267.02279386747836 L 344.1434890351652 268.3452974015616 L 343.6678918189475 269.63446006638907 L 343.09261417329645 270.88233374544205 L 342.4212028761966 272.0812248825291 L 341.6577974015616 273.2237419151183 L 340.80710439800055 274.30284084577823 L 339.87436867076457 275.31186867076457 L 338.86534084577823 276.24460439800055 L 337.7862419151183 277.0952974015616 L 336.6437248825291 277.8587028761966 L 335.44483374544205 278.53011417329645 L 334.19696006638907 279.1053918189475 L 332.9077974015616 279.5809890351652 L 331.58529386747836 279.9539736069593 L 330.23760313820407 280.2220459604149 L 328.8730341752373 280.38355334032974 L 327.5 280.4375 L 326.1269658247627 280.38355334032974 L 324.76239686179593 280.2220459604149 L 323.41470613252164 279.9539736069593 L 322.0922025984384 279.5809890351652 L 320.80303993361093 279.1053918189475 L 319.55516625455795 278.53011417329645 L 318.3562751174709 277.8587028761966 L 317.2137580848817 277.0952974015616 L 316.13465915422177 276.24460439800055 L 315.12563132923543 275.31186867076457 L 314.19289560199945 274.30284084577823 L 313.3422025984384 273.2237419151183 L 312.5787971238034 272.0812248825291 L 311.90738582670355 270.88233374544205 L 311.3321081810525 269.63446006638907 L 310.8565109648348 268.3452974015616 L 310.4835263930407 267.02279386747836 L 310.2154540395851 265.67510313820407 L 310.05394665967026 264.3105341752373 L 310 262.9375 L 310.05394665967026 261.5644658247627 L 310.2154540395851 260.19989686179593 L 310.4835263930407 258.85220613252164 L 310.8565109648348 257.5297025984384 L 311.3321081810525 256.24053993361093 L 311.90738582670355 254.99266625455795 L 312.5787971238034 253.7937751174709 L 313.3422025984384 252.65125808488173 L 314.19289560199945 251.5721591542218 L 315.12563132923543 250.56313132923543 L 316.13465915422177 249.63039560199945 L 317.2137580848817 248.77970259843843 L 318.3562751174709 248.01629712380338 L 319.55516625455795 247.34488582670355 L 320.80303993361093 246.7696081810525 L 322.09220259843846 246.2940109648348 L 323.4147061325217 245.92102639304065 L 324.762396861796 245.6529540395851 L 326.12696582476275 245.49144665967026 L 327.50000000000006 245.4375 L 328.87303417523736 245.49144665967026 L 330.2376031382041 245.6529540395851 L 331.5852938674784 245.92102639304068 L 332.90779740156165 246.29401096483485 L 334.1969600663892 246.76960818105252 L 335.44483374544217 247.3448858267036 L 336.6437248825292 248.01629712380344 L 337.78624191511835 248.7797025984385 L 338.8653408457783 249.63039560199954 L 339.8743686707647 250.56313132923552 L 340.80710439800066 251.5721591542219 L 341.65779740156165 252.65125808488185 L 342.4212028761967 253.79377511747103 L 343.0926141732965 254.9926662545581 L 343.66789181894757 256.2405399336111 L 344.14348903516526 257.5297025984386 L 344.5164736069594 258.8522061325218 L 344.78454596041496 260.19989686179616 L 344.94605334032974 261.5644658247629 Z" fill-opacity="1" stroke-opacity="1" stroke-miterlimit="10" stroke-width="6"/><text fill="rgb(255,255,255)" stroke="none" font-family="times new roman" font-size="10px" font-style="normal" font-weight="normal" text-decoration="normal" x="327.5" y="267.9375" text-anchor="middle" dominant-baseline="text-after-edge" fill-opacity="1">*1.45</text><path fill="rgb(69,90,100)" stroke="rgb(76,175,80)" paint-order="fill stroke markers" d=" M 306.375 193.1875 L 306.32105334032974 194.56053417523728 L 306.1595459604149 195.92510313820404 L 305.8914736069593 197.27279386747836 L 305.5184890351652 198.59529740156157 L 305.0428918189475 199.88446006638907 L 304.46761417329645 201.13233374544205 L 303.7962028761966 202.3312248825291 L 303.0327974015616 203.47374191511827 L 302.18210439800055 204.5528408457782 L 301.24936867076457 205.56186867076457 L 300.24034084577823 206.49460439800055 L 299.1612419151183 207.3452974015616 L 298.0187248825291 208.10870287619662 L 296.81983374544205 208.78011417329643 L 295.57196006638907 209.3553918189475 L 294.2827974015616 209.83098903516517 L 292.96029386747836 210.20397360695935 L 291.61260313820407 210.4720459604149 L 290.2480341752373 210.63355334032974 L 288.875 210.6875 L 287.5019658247627 210.63355334032974 L 286.13739686179593 210.4720459604149 L 284.78970613252164 210.20397360695935 L 283.4672025984384 209.8309890351652 L 282.17803993361093 209.3553918189475 L 280.93016625455795 208.78011417329643 L 279.7312751174709 208.10870287619662 L 278.5887580848817 207.3452974015616 L 277.50965915422177 206.49460439800055 L 276.50063132923543 205.56186867076457 L 275.56789560199945 204.5528408457782 L 274.7172025984384 203.4737419151183 L 273.9537971238034 202.3312248825291 L 273.28238582670355 201.13233374544208 L 272.7071081810525 199.88446006638907 L 272.2315109648348 198.5952974015616 L 271.8585263930407 197.27279386747836 L 271.5904540395851 195.92510313820404 L 271.42894665967026 194.56053417523728 L 271.375 193.1875 L 271.42894665967026 191.81446582476272 L 271.5904540395851 190.44989686179596 L 271.8585263930407 189.10220613252164 L 272.2315109648348 187.77970259843843 L 272.7071081810525 186.49053993361093 L 273.28238582670355 185.24266625455795 L 273.9537971238034 184.0437751174709 L 274.7172025984384 182.90125808488173 L 275.56789560199945 181.8221591542218 L 276.50063132923543 180.81313132923543 L 277.50965915422177 179.88039560199945 L 278.5887580848817 179.02970259843843 L 279.7312751174709 178.26629712380338 L 280.93016625455795 177.59488582670355 L 282.17803993361093 177.0196081810525 L 283.46720259843846 176.5440109648348 L 284.7897061325217 176.17102639304065 L 286.137396861796 175.9029540395851 L 287.50196582476275 175.74144665967026 L 288.87500000000006 175.6875 L 290.24803417523736 175.74144665967026 L 291.6126031382041 175.9029540395851 L 292.9602938674784 176.17102639304068 L 294.28279740156165 176.54401096483485 L 295.5719600663892 177.01960818105252 L 296.81983374544217 177.5948858267036 L 298.0187248825292 178.26629712380344 L 299.16124191511835 179.0297025984385 L 300.2403408457783 179.88039560199954 L 301.2493686707647 180.81313132923552 L 302.18210439800066 181.8221591542219 L 303.03279740156165 182.90125808488185 L 303.7962028761967 184.04377511747103 L 304.4676141732965 185.2426662545581 L 305.04289181894757 186.4905399336111 L 305.51848903516526 187.7797025984386 L 305.8914736069594 189.10220613252184 L 306.15954596041496 190.44989686179616 L 306.32105334032974 191.81446582476292 Z" fill-opacity="1" stroke-opacity="1" stroke-miterlimit="10" stroke-width="6"/><text fill="rgb(255,255,255)" stroke="none" font-family="times new roman" font-size="10px" font-style="normal" font-weight="normal" text-decoration="normal" x="288.875" y="198.1875" text-anchor="middle" dominant-baseline="text-after-edge" fill-opacity="1">*1.6</text><path fill="rgb(69,90,100)" stroke="rgb(224,224,224)" paint-order="fill stroke markers" d=" M 120.5 252.9375 L 163 252.9375 L 163 252.9375 A 5 5 0 0 1 168 257.9375 L 168 267.9375 L 168 267.9375 A 5 5 0 0 1 163 272.9375 L 78 272.9375 L 78 272.9375 A 5 5 0 0 1 73 267.9375 L 73 257.9375 L 73 257.9375 A 5 5 0 0 1 78 252.9375 L 120.5 252.9375 Z" fill-opacity="1" stroke-opacity="1" stroke-miterlimit="10" stroke-width="6"/><text fill="rgb(255,255,255)" stroke="none" font-family="times new roman" font-size="10px" font-style="normal" font-weight="normal" text-decoration="normal" x="120.5" y="267.9375" text-anchor="middle" dominant-baseline="text-after-edge" fill-opacity="1">42135192G&gt;C</text><path fill="rgb(69,90,100)" stroke="rgb(76,175,80)" paint-order="fill stroke markers" d=" M 391.125 123.4375 L 391.07105334032974 124.81053417523728 L 390.9095459604149 126.17510313820404 L 390.6414736069593 127.52279386747834 L 390.2684890351652 128.84529740156157 L 389.7928918189475 130.13446006638907 L 389.21761417329645 131.38233374544205 L 388.5462028761966 132.5812248825291 L 387.7827974015616 133.72374191511827 L 386.93210439800055 134.8028408457782 L 385.99936867076457 135.81186867076457 L 384.99034084577823 136.74460439800055 L 383.9112419151183 137.5952974015616 L 382.7687248825291 138.35870287619662 L 381.56983374544205 139.03011417329643 L 380.32196006638907 139.6053918189475 L 379.0327974015616 140.08098903516517 L 377.71029386747836 140.45397360695935 L 376.36260313820407 140.7220459604149 L 374.9980341752373 140.88355334032974 L 373.625 140.9375 L 372.2519658247627 140.88355334032974 L 370.88739686179593 140.7220459604149 L 369.53970613252164 140.45397360695935 L 368.2172025984384 140.0809890351652 L 366.92803993361093 139.6053918189475 L 365.68016625455795 139.03011417329643 L 364.4812751174709 138.35870287619662 L 363.3387580848817 137.5952974015616 L 362.25965915422177 136.74460439800055 L 361.25063132923543 135.81186867076457 L 360.31789560199945 134.8028408457782 L 359.4672025984384 133.7237419151183 L 358.7037971238034 132.5812248825291 L 358.03238582670355 131.38233374544208 L 357.4571081810525 130.13446006638907 L 356.9815109648348 128.8452974015616 L 356.6085263930407 127.52279386747834 L 356.3404540395851 126.17510313820404 L 356.17894665967026 124.8105341752373 L 356.125 123.4375 L 356.17894665967026 122.06446582476272 L 356.3404540395851 120.69989686179596 L 356.6085263930407 119.35220613252166 L 356.9815109648348 118.02970259843842 L 357.4571081810525 116.74053993361093 L 358.03238582670355 115.49266625455793 L 358.7037971238034 114.2937751174709 L 359.4672025984384 113.15125808488172 L 360.31789560199945 112.0721591542218 L 361.25063132923543 111.06313132923542 L 362.25965915422177 110.13039560199947 L 363.3387580848817 109.27970259843842 L 364.4812751174709 108.51629712380338 L 365.68016625455795 107.84488582670356 L 366.92803993361093 107.26960818105248 L 368.21720259843846 106.7940109648348 L 369.5397061325217 106.42102639304065 L 370.887396861796 106.15295403958508 L 372.25196582476275 105.99144665967026 L 373.62500000000006 105.9375 L 374.99803417523736 105.99144665967026 L 376.3626031382041 106.1529540395851 L 377.7102938674784 106.42102639304068 L 379.03279740156165 106.79401096483484 L 380.3219600663892 107.26960818105252 L 381.56983374544217 107.8448858267036 L 382.7687248825292 108.51629712380344 L 383.91124191511835 109.27970259843849 L 384.9903408457783 110.13039560199954 L 385.9993686707647 111.06313132923552 L 386.93210439800066 112.0721591542219 L 387.78279740156165 113.15125808488185 L 388.5462028761967 114.29377511747103 L 389.2176141732965 115.49266625455807 L 389.79289181894757 116.74053993361109 L 390.26848903516526 118.02970259843859 L 390.6414736069594 119.35220613252184 L 390.90954596041496 120.69989686179616 L 391.07105334032974 122.06446582476292 Z" fill-opacity="1" stroke-opacity="1" stroke-miterlimit="10" stroke-width="6"/><text fill="rgb(255,255,255)" stroke="none" font-family="times new roman" font-size="10px" font-style="normal" font-weight="normal" text-decoration="normal" x="373.625" y="128.4375" text-anchor="middle" dominant-baseline="text-after-edge" fill-opacity="1">*1.58</text><path fill="rgb(69,90,100)" stroke="rgb(76,175,80)" paint-order="fill stroke markers" d=" M 233.875 113.4375 L 233.875 133.4375 L 328.875 133.4375 L 328.875 113.4375 Z" fill-opacity="1" stroke-opacity="1" stroke-miterlimit="10" stroke-width="6"/><text fill="rgb(255,255,255)" stroke="none" font-family="times new roman" font-size="10px" font-style="normal" font-weight="normal" text-decoration="normal" x="281.375" y="128.4375" text-anchor="middle" dominant-baseline="text-after-edge" fill-opacity="1">42129726A&gt;C</text><path fill="rgb(69,90,100)" stroke="rgb(76,175,80)" paint-order="fill stroke markers" d=" M 418.375 113.4375 L 418.375 133.4375 L 513.375 133.4375 L 513.375 113.4375 Z" fill-opacity="1" stroke-opacity="1" stroke-miterlimit="10" stroke-width="6"/><text fill="rgb(255,255,255)" stroke="none" font-family="times new roman" font-size="10px" font-style="normal" font-weight="normal" text-decoration="normal" x="465.875" y="128.4375" text-anchor="middle" dominant-baseline="text-after-edge" fill-opacity="1">42128160G&gt;A</text><path fill="rgb(69,90,100)" stroke="rgb(76,175,80)" paint-order="fill stroke markers" d=" M 268.75 49.3125 L 268.75 69.3125 L 363.75 69.3125 L 363.75 49.3125 Z" fill-opacity="1" stroke-opacity="1" stroke-miterlimit="10" stroke-width="6"/><text fill="rgb(255,255,255)" stroke="none" font-family="times new roman" font-size="10px" font-style="normal" font-weight="normal" text-decoration="normal" x="316.25" y="64.3125" text-anchor="middle" dominant-baseline="text-after-edge" fill-opacity="1">42130482C&gt;A</text><path fill="rgb(69,90,100)" stroke="rgb(69,90,100)" paint-order="fill stroke markers" d=" M 308.75 313.6875 L 290 331.1875 L 308.75 348.6875 L 346.25 348.6875 L 365 331.1875 L 346.25000000000006 313.6875 Z" fill-opacity="1" stroke-opacity="1" stroke-miterlimit="10" stroke-width="2"/><text fill="rgb(255,255,255)" stroke="none" font-family="times new roman" font-size="10px" font-style="normal" font-weight="normal" text-decoration="normal" x="327.5" y="336.1875" text-anchor="middle" dominant-baseline="text-after-edge" fill-opacity="1">NA18855-all</text><path fill="rgb(69,90,100)" stroke="rgb(224,224,224)" paint-order="fill stroke markers" d=" M 419.75 252.9375 L 462.25 252.9375 L 462.25 252.9375 A 5 5 0 0 1 467.25 257.9375 L 467.25 267.9375 L 467.25 267.9375 A 5 5 0 0 1 462.25 272.9375 L 377.25 272.9375 L 377.25 272.9375 A 5 5 0 0 1 372.25 267.9375 L 372.25 257.9375 L 372.25 257.9375 A 5 5 0 0 1 377.25 252.9375 L 419.75 252.9375 Z" fill-opacity="1" stroke-opacity="1" stroke-miterlimit="10" stroke-width="6"/><text fill="rgb(255,255,255)" stroke="none" font-family="times new roman" font-size="10px" font-style="normal" font-weight="normal" text-decoration="normal" x="419.75" y="267.9375" text-anchor="middle" dominant-baseline="text-after-edge" fill-opacity="1">42133323C&gt;T</text><g transform="scale(0.5572536496350365,0.5572536496350365) translate(79.2036430618092,51.313958248055656)"/></g></svg>