<svg version="1.1" xmlns="http://www.w3.org/2000/svg" xmlns:xlink="http://www.w3.org/1999/xlink" width="1017" height="608"><defs/><g transform="translate(2.587322461862186,-53.45397159389796) scale(1.1530773277222515,1.1530773277222515)"><path fill="none" stroke="rgb(120,144,156)" paint-order="fill stroke markers" d=" M 590.2543659251915 189.5633726491661 L 612.1349975316563 228.19636282933067" stroke-opacity="1" stroke-linejoin="round" stroke-miterlimit="10"/><path fill="rgb(120,144,156)" stroke="none" paint-order="stroke fill markers" d=" M 605.0480397778267 224.51023616365106 L 613.1206340748085 229.9366273508339 L 612.6181904463657 220.2227172009387 Z" fill-opacity="1"/><path fill="none" stroke="rgb(55,71,79)" paint-order="fill stroke markers" d=" M 542.4593133262312 111.23902773936021 L 564.1329273259075 145.77584354372266" stroke-opacity="1" stroke-linejoin="round" stroke-miterlimit="10" stroke-width="2"/><path fill="none" stroke="rgb(120,144,156)" paint-order="fill stroke markers" d=" M 634.2917206003639 276.12952848652253 L 669.8455406467377 375.31953368836247" stroke-opacity="1" stroke-linejoin="round" stroke-miterlimit="10"/><path fill="rgb(120,144,156)" stroke="none" paint-order="stroke fill markers" d=" M 663.4899337079607 370.4802403060833 L 670.5203814781388 377.20224180495245 L 671.6797140151273 367.5446826894886 Z" fill-opacity="1"/><path fill="none" stroke="rgb(120,144,156)" paint-order="fill stroke markers" d=" M 166.17979851105326 406.55035541246747 L 356.2837868586225 513.4838488579751" stroke-opacity="1" stroke-linejoin="round" stroke-miterlimit="10"/><path fill="rgb(120,144,156)" stroke="none" paint-order="stroke fill markers" d=" M 348.3115943674864 513.9904521389287 L 358.0269379328716 514.4643713372402 L 352.57686715228965 506.40774496594514 Z" fill-opacity="1"/><path fill="none" stroke="rgb(120,144,156)" paint-order="fill stroke markers" d=" M 373.0206168831169 265.125 L 451.92567813250804 378.05603561715833" stroke-opacity="1" stroke-linejoin="round" stroke-miterlimit="10"/><path fill="rgb(120,144,156)" stroke="none" paint-order="stroke fill markers" d=" M 444.5224358401722 375.0552851175384 L 453.07117340961844 379.6954991178554 L 451.6541020682043 370.0723806621082 Z" fill-opacity="1"/><path fill="none" stroke="rgb(55,71,79)" paint-order="fill stroke markers" d=" M 148.3125 265.125 L 148.3125 376" stroke-opacity="1" stroke-linejoin="round" stroke-miterlimit="10" stroke-width="2"/><path fill="none" stroke="rgb(120,144,156)" paint-order="fill stroke markers" d=" M 724.5277597402597 265.125 L 685.0294593532623 375.31953368836247" stroke-opacity="1" stroke-linejoin="round" stroke-miterlimit="10"/><path fill="rgb(120,144,156)" stroke="none" paint-order="stroke fill markers" d=" M 683.1952859848727 367.5446826894886 L 684.3546185218612 377.20224180495245 L 691.3850662920393 370.4802403060833 Z" fill-opacity="1"/><path fill="none" stroke="rgb(120,144,156)" paint-order="fill stroke markers" d=" M 333.9375 476.51519756838906 L 363.60430019570856 508.1657959534763" stroke-opacity="1" stroke-linejoin="round" stroke-miterlimit="10"/><path fill="rgb(120,144,156)" stroke="none" paint-order="stroke fill markers" d=" M 355.8485891156701 506.2523055189643 L 364.97204415954417 509.625 L 362.1961267180483 500.3026192762793 Z" fill-opacity="1"/><path fill="none" stroke="rgb(55,71,79)" paint-order="fill stroke markers" d=" M 615.6543367346939 106.875 L 591.2420726740925 145.77584354372266" stroke-opacity="1" stroke-linejoin="round" stroke-miterlimit="10" stroke-width="2"/><path fill="none" stroke="rgb(120,144,156)" paint-order="fill stroke markers" d=" M 517.0212662337663 265.125 L 473.12195015323226 375.59059928761826" stroke-opacity="1" stroke-linejoin="round" stroke-miterlimit="10"/><path fill="rgb(120,144,156)" stroke="none" paint-order="stroke fill markers" d=" M 471.5538356166898 367.7577507125286 L 472.3833323618338 377.4492126842744 L 479.6388038921441 370.9707381051117 Z" fill-opacity="1"/><path fill="none" stroke="rgb(120,144,156)" paint-order="fill stroke markers" d=" M 382.3125 501.5 L 382.3125 507.625" stroke-opacity="1" stroke-linejoin="round" stroke-miterlimit="10"/><path fill="rgb(120,144,156)" stroke="none" paint-order="stroke fill markers" d=" M 377.9625 500.925 L 382.3125 509.625 L 386.6625 500.925 Z" fill-opacity="1"/><path fill="none" stroke="rgb(120,144,156)" paint-order="fill stroke markers" d=" M 453.9252891294484 413.8700500707437 L 394.9701085096417 507.93036096870793" stroke-opacity="1" stroke-linejoin="round" stroke-miterlimit="10"/><path fill="rgb(120,144,156)" stroke="none" paint-order="stroke fill markers" d=" M 394.842527779152 499.94310717549416 L 393.90794159544157 509.625 L 402.2142075652725 504.56353325226485 Z" fill-opacity="1"/><path fill="none" stroke="rgb(120,144,156)" paint-order="fill stroke markers" d=" M 658.7151700975282 404.85011155751914 L 410.43547409554924 515.5822250221884" stroke-opacity="1" stroke-linejoin="round" stroke-miterlimit="10"/><path fill="rgb(120,144,156)" stroke="none" paint-order="stroke fill markers" d=" M 414.7826265380542 508.8803770948162 L 408.60890532457637 516.3968700521903 L 418.3263324185623 516.8259512485481 Z" fill-opacity="1"/><path fill="none" stroke="rgb(120,144,156)" paint-order="fill stroke markers" d=" M 666.324668141593 180.375 L 639.2400024683437 228.19636282933067" stroke-opacity="1" stroke-linejoin="round" stroke-miterlimit="10"/><path fill="rgb(120,144,156)" stroke="none" paint-order="stroke fill markers" d=" M 638.7568095536343 220.2227172009387 L 638.2543659251915 229.9366273508339 L 646.3269602221733 224.51023616365106 Z" fill-opacity="1"/><path fill="rgb(69,90,100)" stroke="rgb(76,175,80)" paint-order="fill stroke markers" d=" M 165.8125 396.5 L 165.75855334032974 397.8730341752373 L 165.5970459604149 399.23760313820407 L 165.32897360695935 400.58529386747836 L 164.95598903516517 401.9077974015616 L 164.4803918189475 403.19696006638907 L 163.90511417329643 404.44483374544205 L 163.23370287619662 405.6437248825291 L 162.4702974015616 406.7862419151183 L 161.61960439800055 407.86534084577823 L 160.68686867076457 408.87436867076457 L 159.6778408457782 409.80710439800055 L 158.59874191511827 410.6577974015616 L 157.4562248825291 411.4212028761966 L 156.25733374544208 412.09261417329645 L 155.00946006638907 412.6678918189475 L 153.7202974015616 413.1434890351652 L 152.39779386747836 413.5164736069593 L 151.05010313820404 413.7845459604149 L 149.68553417523728 413.94605334032974 L 148.3125 414 L 146.93946582476272 413.94605334032974 L 145.57489686179596 413.7845459604149 L 144.22720613252164 413.5164736069593 L 142.90470259843843 413.1434890351652 L 141.61553993361093 412.6678918189475 L 140.36766625455795 412.09261417329645 L 139.1687751174709 411.4212028761966 L 138.02625808488173 410.6577974015616 L 136.9471591542218 409.80710439800055 L 135.93813132923543 408.87436867076457 L 135.00539560199945 407.86534084577823 L 134.15470259843843 406.7862419151183 L 133.39129712380338 405.6437248825291 L 132.71988582670357 404.44483374544205 L 132.1446081810525 403.19696006638907 L 131.66901096483483 401.9077974015616 L 131.29602639304065 400.58529386747836 L 131.0279540395851 399.23760313820407 L 130.86644665967026 397.8730341752373 L 130.8125 396.5 L 130.86644665967026 395.1269658247627 L 131.0279540395851 393.76239686179593 L 131.29602639304065 392.41470613252164 L 131.6690109648348 391.0922025984384 L 132.1446081810525 389.80303993361093 L 132.71988582670357 388.55516625455795 L 133.39129712380338 387.3562751174709 L 134.1547025984384 386.2137580848817 L 135.00539560199945 385.13465915422177 L 135.9381313292354 384.12563132923543 L 136.94715915422177 383.19289560199945 L 138.0262580848817 382.3422025984384 L 139.1687751174709 381.5787971238034 L 140.36766625455795 380.90738582670355 L 141.61553993361096 380.3321081810525 L 142.90470259843843 379.8565109648348 L 144.2272061325217 379.4835263930407 L 145.574896861796 379.2154540395851 L 146.93946582476278 379.05394665967026 L 148.31250000000006 379 L 149.68553417523736 379.05394665967026 L 151.05010313820412 379.2154540395851 L 152.3977938674784 379.4835263930407 L 153.72029740156165 379.85651096483485 L 155.00946006638915 380.3321081810525 L 156.25733374544217 380.9073858267036 L 157.4562248825292 381.57879712380344 L 158.59874191511838 382.3422025984385 L 159.67784084577832 383.19289560199957 L 160.68686867076468 384.1256313292355 L 161.61960439800063 385.1346591542219 L 162.47029740156168 386.2137580848818 L 163.2337028761967 387.35627511747106 L 163.9051141732965 388.55516625455806 L 164.4803918189476 389.8030399336111 L 164.95598903516523 391.0922025984386 L 165.32897360695938 392.4147061325218 L 165.59704596041493 393.76239686179616 L 165.75855334032974 395.1269658247629 Z" fill-opacity="1" stroke-opacity="1" stroke-miterlimit="10" stroke-width="6"/><text fill="rgb(255,255,255)" stroke="none" font-family="times new roman" font-size="10px" font-style="normal" font-weight="normal" text-decoration="normal" x="148.3125" y="401.5" text-anchor="middle" dominant-baseline="text-after-edge" fill-opacity="1">*1.41</text><path fill="rgb(69,90,100)" stroke="rgb(76,175,80)" paint-order="fill stroke markers" d=" M 600.1875 167.375 L 600.1181400089954 169.1403296538765 L 599.9104876633907 170.89477546340518 L 599.5658232089477 172.62752068675786 L 599.0862716166409 174.32788237343632 L 598.474789481504 175.98537722821453 L 597.7351467942383 177.58978624413982 L 596.8719036979671 179.13121770610886 L 595.8903823734363 180.60016817658064 L 594.7966342260007 181.98758108742913 L 593.5974025766973 183.2849025766973 L 592.3000810874291 184.4841342260007 L 590.9126681765806 185.57788237343632 L 589.4437177061088 186.55940369796707 L 587.9022862441398 187.4226467942383 L 586.2978772282145 188.16228948150396 L 584.6403823734363 188.77377161664094 L 582.9400206867579 189.25332320894773 L 581.2072754634052 189.5979876633906 L 579.4528296538765 189.80564000899537 L 577.6875 189.875 L 575.9221703461235 189.80564000899537 L 574.1677245365948 189.5979876633906 L 572.4349793132421 189.25332320894773 L 570.7346176265637 188.77377161664094 L 569.0771227717855 188.16228948150396 L 567.4727137558602 187.4226467942383 L 565.9312822938912 186.55940369796707 L 564.4623318234194 185.57788237343632 L 563.0749189125709 184.4841342260007 L 561.7775974233027 183.28490257669733 L 560.5783657739993 181.98758108742913 L 559.4846176265637 180.60016817658064 L 558.5030963020329 179.13121770610886 L 557.6398532057617 177.58978624413982 L 556.900210518496 175.98537722821453 L 556.2887283833591 174.32788237343632 L 555.8091767910523 172.62752068675786 L 555.4645123366095 170.8947754634052 L 555.2568599910046 169.1403296538765 L 555.1875 167.375 L 555.2568599910046 165.6096703461235 L 555.4645123366093 163.85522453659482 L 555.8091767910523 162.12247931324214 L 556.2887283833591 160.42211762656368 L 556.900210518496 158.76462277178547 L 557.6398532057617 157.1602137558602 L 558.5030963020329 155.61878229389114 L 559.4846176265637 154.14983182341936 L 560.5783657739993 152.76241891257087 L 561.7775974233027 151.4650974233027 L 563.0749189125709 150.2658657739993 L 564.4623318234194 149.17211762656368 L 565.9312822938912 148.19059630203293 L 567.4727137558602 147.3273532057617 L 569.0771227717855 146.58771051849604 L 570.7346176265637 145.97622838335903 L 572.4349793132421 145.49667679105227 L 574.1677245365948 145.1520123366094 L 575.9221703461236 144.9443599910046 L 577.6875000000001 144.875 L 579.4528296538766 144.94435999100463 L 581.2072754634053 145.1520123366094 L 582.940020686758 145.4966767910523 L 584.6403823734364 145.97622838335909 L 586.2978772282146 146.5877105184961 L 587.9022862441399 147.3273532057618 L 589.4437177061089 148.190596302033 L 590.9126681765807 149.17211762656376 L 592.3000810874292 150.26586577399942 L 593.5974025766974 151.4650974233028 L 594.7966342260008 152.762418912571 L 595.8903823734364 154.1498318234195 L 596.8719036979671 155.61878229389131 L 597.7351467942384 157.16021375586038 L 598.474789481504 158.7646227717857 L 599.086271616641 160.4221176265639 L 599.5658232089478 162.12247931324237 L 599.9104876633907 163.85522453659505 L 600.1181400089954 165.60967034612375 Z" fill-opacity="1" stroke-opacity="1" stroke-miterlimit="10" stroke-width="6"/><text fill="rgb(255,255,255)" stroke="none" font-family="times new roman" font-size="15px" font-style="normal" font-weight="normal" text-decoration="normal" x="577.6875" y="174.875" text-anchor="middle" dominant-baseline="text-after-edge" fill-opacity="1">*39</text><path fill="rgb(69,90,100)" stroke="rgb(76,175,80)" paint-order="fill stroke markers" d=" M 316.4375 242.125 L 316.4375 262.125 L 411.4375 262.125 L 411.4375 242.125 Z" fill-opacity="1" stroke-opacity="1" stroke-miterlimit="10" stroke-width="6"/><text fill="rgb(255,255,255)" stroke="none" font-family="times new roman" font-size="10px" font-style="normal" font-weight="normal" text-decoration="normal" x="363.9375" y="257.125" text-anchor="middle" dominant-baseline="text-after-edge" fill-opacity="1">42130482C&gt;A</text><path fill="rgb(69,90,100)" stroke="rgb(76,175,80)" paint-order="fill stroke markers" d=" M 681.6875 242.125 L 681.6875 262.125 L 776.6875 262.125 L 776.6875 242.125 Z" fill-opacity="1" stroke-opacity="1" stroke-miterlimit="10" stroke-width="6"/><text fill="rgb(255,255,255)" stroke="none" font-family="times new roman" font-size="10px" font-style="normal" font-weight="normal" text-decoration="normal" x="729.1875" y="257.125" text-anchor="middle" dominant-baseline="text-after-edge" fill-opacity="1">42129130C&gt;G</text><path fill="rgb(69,90,100)" stroke="rgb(158,158,158)" paint-order="fill stroke markers" d=" M 576.3125 83.875 L 576.3125 103.875 L 671.3125 103.875 L 671.3125 83.875 Z" fill-opacity="1" stroke-opacity="1" stroke-miterlimit="10" stroke-width="6"/><text fill="rgb(255,255,255)" stroke="none" font-family="times new roman" font-size="10px" font-style="normal" font-weight="normal" text-decoration="normal" x="623.8125" y="98.875" text-anchor="middle" dominant-baseline="text-after-edge" fill-opacity="1">42126611C&gt;G</text><path fill="rgb(69,90,100)" stroke="rgb(255,193,7)" paint-order="fill stroke markers" d=" M 648.1875 252.125 L 648.1181400089954 253.8903296538765 L 647.9104876633907 255.64477546340518 L 647.5658232089477 257.37752068675786 L 647.0862716166409 259.0778823734363 L 646.474789481504 260.73537722821453 L 645.7351467942383 262.3397862441398 L 644.8719036979671 263.8812177061088 L 643.8903823734363 265.35016817658067 L 642.7966342260007 266.73758108742913 L 641.5974025766973 268.03490257669733 L 640.3000810874291 269.2341342260007 L 638.9126681765806 270.3278823734363 L 637.4437177061088 271.30940369796707 L 635.9022862441398 272.1726467942383 L 634.2978772282145 272.91228948150393 L 632.6403823734363 273.52377161664094 L 630.9400206867579 274.00332320894773 L 629.2072754634052 274.3479876633906 L 627.4528296538765 274.5556400089954 L 625.6875 274.625 L 623.9221703461235 274.5556400089954 L 622.1677245365948 274.3479876633906 L 620.4349793132421 274.00332320894773 L 618.7346176265637 273.52377161664094 L 617.0771227717855 272.91228948150393 L 615.4727137558602 272.1726467942383 L 613.9312822938912 271.30940369796707 L 612.4623318234194 270.3278823734363 L 611.0749189125709 269.2341342260007 L 609.7775974233027 268.03490257669733 L 608.5783657739993 266.73758108742913 L 607.4846176265637 265.35016817658067 L 606.5030963020329 263.8812177061088 L 605.6398532057617 262.3397862441398 L 604.900210518496 260.73537722821453 L 604.2887283833591 259.0778823734363 L 603.8091767910523 257.37752068675786 L 603.4645123366095 255.6447754634052 L 603.2568599910046 253.8903296538765 L 603.1875 252.125 L 603.2568599910046 250.3596703461235 L 603.4645123366093 248.60522453659482 L 603.8091767910523 246.87247931324214 L 604.2887283833591 245.17211762656368 L 604.900210518496 243.51462277178547 L 605.6398532057617 241.9102137558602 L 606.5030963020329 240.36878229389114 L 607.4846176265637 238.89983182341936 L 608.5783657739993 237.51241891257087 L 609.7775974233027 236.2150974233027 L 611.0749189125709 235.0158657739993 L 612.4623318234194 233.92211762656368 L 613.9312822938912 232.94059630203293 L 615.4727137558602 232.0773532057617 L 617.0771227717855 231.33771051849604 L 618.7346176265637 230.72622838335903 L 620.4349793132421 230.24667679105227 L 622.1677245365948 229.9020123366094 L 623.9221703461236 229.6943599910046 L 625.6875000000001 229.625 L 627.4528296538766 229.69435999100463 L 629.2072754634053 229.9020123366094 L 630.940020686758 230.2466767910523 L 632.6403823734364 230.72622838335909 L 634.2978772282146 231.3377105184961 L 635.9022862441399 232.0773532057618 L 637.4437177061089 232.940596302033 L 638.9126681765807 233.92211762656376 L 640.3000810874292 235.01586577399942 L 641.5974025766974 236.2150974233028 L 642.7966342260008 237.512418912571 L 643.8903823734364 238.8998318234195 L 644.8719036979671 240.36878229389131 L 645.7351467942384 241.91021375586038 L 646.474789481504 243.5146227717857 L 647.086271616641 245.1721176265639 L 647.5658232089478 246.87247931324237 L 647.9104876633907 248.60522453659505 L 648.1181400089954 250.35967034612375 Z" fill-opacity="1" stroke-opacity="1" stroke-miterlimit="10" stroke-width="6"/><text fill="rgb(255,255,255)" stroke="none" font-family="times new roman" font-size="15px" font-style="normal" font-weight="normal" text-decoration="normal" x="625.6875" y="259.625" text-anchor="middle" dominant-baseline="text-after-edge" fill-opacity="1">*10</text><path fill="rgb(3,169,244)" stroke="none" paint-order="stroke fill markers" d=" M 625.6875 219.625 L 650.1875 219.625 L 650.1875 219.625 A 8 8 0 0 1 658.1875 227.625 L 658.1875 276.625 L 658.1875 276.625 A 8 8 0 0 1 650.1875 284.625 L 601.1875 284.625 L 601.1875 284.625 A 8 8 0 0 1 593.1875 276.625 L 593.1875 227.625 L 593.1875 227.625 A 8 8 0 0 1 601.1875 219.625 L 625.6875 219.625 Z" fill-opacity="0.15"/><path fill="rgb(69,90,100)" stroke="rgb(69,90,100)" paint-order="fill stroke markers" d=" M 363.5625 510.625 L 344.8125 528.125 L 363.5625 545.625 L 401.0625 545.625 L 419.8125 528.125 L 401.06250000000006 510.625 Z" fill-opacity="1" stroke-opacity="1" stroke-miterlimit="10" stroke-width="2"/><text fill="rgb(255,255,255)" stroke="none" font-family="times new roman" font-size="10px" font-style="normal" font-weight="normal" text-decoration="normal" x="382.3125" y="533.125" text-anchor="middle" dominant-baseline="text-after-edge" fill-opacity="1">NA18632-A</text><path fill="rgb(69,90,100)" stroke="rgb(76,175,80)" paint-order="fill stroke markers" d=" M 100.81250000000001 242.125 L 100.8125 262.125 L 195.81249999999997 262.125 L 195.8125 242.125 Z" fill-opacity="1" stroke-opacity="1" stroke-miterlimit="10" stroke-width="6"/><text fill="rgb(255,255,255)" stroke="none" font-family="times new roman" font-size="10px" font-style="normal" font-weight="normal" text-decoration="normal" x="148.3125" y="257.125" text-anchor="middle" dominant-baseline="text-after-edge" fill-opacity="1">42127407T&gt;G</text><path fill="rgb(69,90,100)" stroke="rgb(76,175,80)" paint-order="fill stroke markers" d=" M 549.0625 93.875 L 549.0085533403297 95.24803417523728 L 548.8470459604149 96.61260313820404 L 548.5789736069594 97.96029386747834 L 548.2059890351652 99.28279740156158 L 547.7303918189475 100.57196006638907 L 547.1551141732964 101.81983374544207 L 546.4837028761966 103.0187248825291 L 545.7202974015615 104.16124191511828 L 544.8696043980005 105.2403408457782 L 543.9368686707646 106.24936867076458 L 542.9278408457782 107.18210439800055 L 541.8487419151182 108.03279740156158 L 540.7062248825291 108.79620287619662 L 539.5073337454421 109.46761417329644 L 538.2594600663891 110.04289181894751 L 536.9702974015615 110.51848903516519 L 535.6477938674783 110.89147360695934 L 534.300103138204 111.1595459604149 L 532.9355341752373 111.32105334032974 L 531.5625 111.375 L 530.1894658247627 111.32105334032974 L 528.824896861796 111.1595459604149 L 527.4772061325217 110.89147360695934 L 526.1547025984385 110.51848903516519 L 524.8655399336109 110.04289181894751 L 523.6176662545579 109.46761417329644 L 522.4187751174709 108.79620287619662 L 521.2762580848818 108.03279740156158 L 520.1971591542218 107.18210439800055 L 519.1881313292354 106.24936867076458 L 518.2553956019995 105.24034084577822 L 517.4047025984385 104.16124191511828 L 516.6412971238034 103.01872488252911 L 515.9698858267036 101.81983374544207 L 515.3946081810525 100.57196006638907 L 514.9190109648348 99.28279740156158 L 514.5460263930406 97.96029386747834 L 514.2779540395851 96.61260313820404 L 514.1164466596703 95.2480341752373 L 514.0625 93.875 L 514.1164466596703 92.50196582476272 L 514.2779540395851 91.13739686179596 L 514.5460263930406 89.78970613252166 L 514.9190109648348 88.46720259843842 L 515.3946081810525 87.17803993361093 L 515.9698858267036 85.93016625455793 L 516.6412971238034 84.7312751174709 L 517.4047025984385 83.58875808488172 L 518.2553956019995 82.5096591542218 L 519.1881313292354 81.50063132923542 L 520.1971591542218 80.56789560199947 L 521.2762580848818 79.71720259843842 L 522.4187751174709 78.95379712380338 L 523.6176662545579 78.28238582670356 L 524.865539933611 77.70710818105248 L 526.1547025984385 77.2315109648348 L 527.4772061325217 76.85852639304065 L 528.824896861796 76.59045403958508 L 530.1894658247628 76.42894665967026 L 531.5625000000001 76.375 L 532.9355341752373 76.42894665967026 L 534.3001031382041 76.5904540395851 L 535.6477938674784 76.85852639304068 L 536.9702974015617 77.23151096483484 L 538.2594600663891 77.70710818105252 L 539.5073337454421 78.2823858267036 L 540.7062248825292 78.95379712380344 L 541.8487419151184 79.71720259843849 L 542.9278408457783 80.56789560199954 L 543.9368686707646 81.50063132923552 L 544.8696043980007 82.5096591542219 L 545.7202974015617 83.58875808488185 L 546.4837028761967 84.73127511747103 L 547.1551141732965 85.93016625455807 L 547.7303918189476 87.17803993361109 L 548.2059890351652 88.46720259843859 L 548.5789736069594 89.78970613252184 L 548.8470459604149 91.13739686179616 L 549.0085533403297 92.50196582476292 Z" fill-opacity="1" stroke-opacity="1" stroke-miterlimit="10" stroke-width="6"/><text fill="rgb(255,255,255)" stroke="none" font-family="times new roman" font-size="10px" font-style="normal" font-weight="normal" text-decoration="normal" x="531.5625" y="98.875" text-anchor="middle" dominant-baseline="text-after-edge" fill-opacity="1">*39.2</text><path fill="rgb(69,90,100)" stroke="rgb(255,193,7)" paint-order="fill stroke markers" d=" M 694.9375 396.5 L 694.8835533403297 397.8730341752373 L 694.7220459604149 399.23760313820407 L 694.4539736069594 400.58529386747836 L 694.0809890351652 401.9077974015616 L 693.6053918189475 403.19696006638907 L 693.0301141732964 404.44483374544205 L 692.3587028761966 405.6437248825291 L 691.5952974015615 406.7862419151183 L 690.7446043980005 407.86534084577823 L 689.8118686707646 408.87436867076457 L 688.8028408457782 409.80710439800055 L 687.7237419151182 410.6577974015616 L 686.5812248825291 411.4212028761966 L 685.3823337454421 412.09261417329645 L 684.1344600663891 412.6678918189475 L 682.8452974015615 413.1434890351652 L 681.5227938674783 413.5164736069593 L 680.175103138204 413.7845459604149 L 678.8105341752373 413.94605334032974 L 677.4375 414 L 676.0644658247627 413.94605334032974 L 674.699896861796 413.7845459604149 L 673.3522061325217 413.5164736069593 L 672.0297025984385 413.1434890351652 L 670.7405399336109 412.6678918189475 L 669.4926662545579 412.09261417329645 L 668.2937751174709 411.4212028761966 L 667.1512580848818 410.6577974015616 L 666.0721591542218 409.80710439800055 L 665.0631313292354 408.87436867076457 L 664.1303956019995 407.86534084577823 L 663.2797025984385 406.7862419151183 L 662.5162971238034 405.6437248825291 L 661.8448858267036 404.44483374544205 L 661.2696081810525 403.19696006638907 L 660.7940109648348 401.9077974015616 L 660.4210263930406 400.58529386747836 L 660.1529540395851 399.23760313820407 L 659.9914466596703 397.8730341752373 L 659.9375 396.5 L 659.9914466596703 395.1269658247627 L 660.1529540395851 393.76239686179593 L 660.4210263930406 392.41470613252164 L 660.7940109648348 391.0922025984384 L 661.2696081810525 389.80303993361093 L 661.8448858267036 388.55516625455795 L 662.5162971238034 387.3562751174709 L 663.2797025984385 386.2137580848817 L 664.1303956019995 385.13465915422177 L 665.0631313292354 384.12563132923543 L 666.0721591542218 383.19289560199945 L 667.1512580848818 382.3422025984384 L 668.2937751174709 381.5787971238034 L 669.4926662545579 380.90738582670355 L 670.740539933611 380.3321081810525 L 672.0297025984385 379.8565109648348 L 673.3522061325217 379.4835263930407 L 674.699896861796 379.2154540395851 L 676.0644658247628 379.05394665967026 L 677.4375000000001 379 L 678.8105341752373 379.05394665967026 L 680.1751031382041 379.2154540395851 L 681.5227938674784 379.4835263930407 L 682.8452974015617 379.85651096483485 L 684.1344600663891 380.3321081810525 L 685.3823337454421 380.9073858267036 L 686.5812248825292 381.57879712380344 L 687.7237419151184 382.3422025984385 L 688.8028408457783 383.19289560199957 L 689.8118686707646 384.1256313292355 L 690.7446043980007 385.1346591542219 L 691.5952974015617 386.2137580848818 L 692.3587028761967 387.35627511747106 L 693.0301141732965 388.55516625455806 L 693.6053918189476 389.8030399336111 L 694.0809890351652 391.0922025984386 L 694.4539736069594 392.4147061325218 L 694.7220459604149 393.76239686179616 L 694.8835533403297 395.1269658247629 Z" fill-opacity="1" stroke-opacity="1" stroke-miterlimit="10" stroke-width="6"/><text fill="rgb(255,255,255)" stroke="none" font-family="times new roman" font-size="10px" font-style="normal" font-weight="normal" text-decoration="normal" x="677.4375" y="401.5" text-anchor="middle" dominant-baseline="text-after-edge" fill-opacity="1">*10.1</text><path fill="rgb(69,90,100)" stroke="rgb(76,175,80)" paint-order="fill stroke markers" d=" M 474.6875 242.125 L 474.6875 262.125 L 569.6875 262.125 L 569.6875 242.125 Z" fill-opacity="1" stroke-opacity="1" stroke-miterlimit="10" stroke-width="6"/><text fill="rgb(255,255,255)" stroke="none" font-family="times new roman" font-size="10px" font-style="normal" font-weight="normal" text-decoration="normal" x="522.1875" y="257.125" text-anchor="middle" dominant-baseline="text-after-edge" fill-opacity="1">42129950A&gt;C</text><path fill="rgb(69,90,100)" stroke="rgb(76,175,80)" paint-order="fill stroke markers" d=" M 482.3125 396.5 L 482.25855334032974 397.8730341752373 L 482.0970459604149 399.23760313820407 L 481.8289736069593 400.58529386747836 L 481.4559890351652 401.9077974015616 L 480.9803918189475 403.19696006638907 L 480.40511417329645 404.44483374544205 L 479.7337028761966 405.6437248825291 L 478.9702974015616 406.7862419151183 L 478.11960439800055 407.86534084577823 L 477.18686867076457 408.87436867076457 L 476.17784084577823 409.80710439800055 L 475.0987419151183 410.6577974015616 L 473.9562248825291 411.4212028761966 L 472.75733374544205 412.09261417329645 L 471.50946006638907 412.6678918189475 L 470.2202974015616 413.1434890351652 L 468.89779386747836 413.5164736069593 L 467.55010313820407 413.7845459604149 L 466.1855341752373 413.94605334032974 L 464.8125 414 L 463.4394658247627 413.94605334032974 L 462.07489686179593 413.7845459604149 L 460.72720613252164 413.5164736069593 L 459.4047025984384 413.1434890351652 L 458.11553993361093 412.6678918189475 L 456.86766625455795 412.09261417329645 L 455.6687751174709 411.4212028761966 L 454.5262580848817 410.6577974015616 L 453.44715915422177 409.80710439800055 L 452.43813132923543 408.87436867076457 L 451.50539560199945 407.86534084577823 L 450.6547025984384 406.7862419151183 L 449.8912971238034 405.6437248825291 L 449.21988582670355 404.44483374544205 L 448.6446081810525 403.19696006638907 L 448.1690109648348 401.9077974015616 L 447.7960263930407 400.58529386747836 L 447.5279540395851 399.23760313820407 L 447.36644665967026 397.8730341752373 L 447.3125 396.5 L 447.36644665967026 395.1269658247627 L 447.5279540395851 393.76239686179593 L 447.7960263930407 392.41470613252164 L 448.1690109648348 391.0922025984384 L 448.6446081810525 389.80303993361093 L 449.21988582670355 388.55516625455795 L 449.8912971238034 387.3562751174709 L 450.6547025984384 386.2137580848817 L 451.50539560199945 385.13465915422177 L 452.43813132923543 384.12563132923543 L 453.44715915422177 383.19289560199945 L 454.5262580848817 382.3422025984384 L 455.6687751174709 381.5787971238034 L 456.86766625455795 380.90738582670355 L 458.11553993361093 380.3321081810525 L 459.40470259843846 379.8565109648348 L 460.7272061325217 379.4835263930407 L 462.074896861796 379.2154540395851 L 463.43946582476275 379.05394665967026 L 464.81250000000006 379 L 466.18553417523736 379.05394665967026 L 467.5501031382041 379.2154540395851 L 468.8977938674784 379.4835263930407 L 470.22029740156165 379.85651096483485 L 471.5094600663892 380.3321081810525 L 472.75733374544217 380.9073858267036 L 473.9562248825292 381.57879712380344 L 475.09874191511835 382.3422025984385 L 476.1778408457783 383.19289560199957 L 477.1868686707647 384.1256313292355 L 478.11960439800066 385.1346591542219 L 478.97029740156165 386.2137580848818 L 479.7337028761967 387.35627511747106 L 480.4051141732965 388.55516625455806 L 480.98039181894757 389.8030399336111 L 481.45598903516526 391.0922025984386 L 481.8289736069594 392.4147061325218 L 482.09704596041496 393.76239686179616 L 482.25855334032974 395.1269658247629 Z" fill-opacity="1" stroke-opacity="1" stroke-miterlimit="10" stroke-width="6"/><text fill="rgb(255,255,255)" stroke="none" font-family="times new roman" font-size="10px" font-style="normal" font-weight="normal" text-decoration="normal" x="464.8125" y="401.5" text-anchor="middle" dominant-baseline="text-after-edge" fill-opacity="1">*1.58</text><path fill="rgb(69,90,100)" stroke="rgb(158,158,158)" paint-order="fill stroke markers" d=" M 626.1875 157.375 L 626.1875 177.375 L 721.1875 177.375 L 721.1875 157.375 Z" fill-opacity="1" stroke-opacity="1" stroke-miterlimit="10" stroke-width="6"/><text fill="rgb(255,255,255)" stroke="none" font-family="times new roman" font-size="10px" font-style="normal" font-weight="normal" text-decoration="normal" x="673.6875" y="172.375" text-anchor="middle" dominant-baseline="text-after-edge" fill-opacity="1">42130692G&gt;A</text><path fill="rgb(176,190,197)" stroke="none" paint-order="stroke fill markers" d=" M 344.8125 291.5 L 344.8125 501.5 L 419.8125 501.5 L 419.8125 291.50000000000006 Z" fill-opacity="0.8"/><text fill="rgb(0,0,0)" stroke="none" font-family="times new roman" font-size="10px" font-style="normal" font-weight="normal" text-decoration="normal" x="349.8125" y="306.5" text-anchor="start" dominant-baseline="text-after-edge" fill-opacity="0.8">42126390G&gt;A </text><text fill="rgb(0,0,0)" stroke="none" font-family="times new roman" font-size="10px" font-style="normal" font-weight="normal" text-decoration="normal" x="349.8125" y="316.5" text-anchor="start" dominant-baseline="text-after-edge" fill-opacity="0.8">42127209T&gt;C </text><text fill="rgb(0,0,0)" stroke="none" font-family="times new roman" font-size="10px" font-style="normal" font-weight="normal" text-decoration="normal" x="349.8125" y="326.5" text-anchor="start" dominant-baseline="text-after-edge" fill-opacity="0.8">42128694T&gt;C </text><text fill="rgb(0,0,0)" stroke="none" font-family="times new roman" font-size="10px" font-style="normal" font-weight="normal" text-decoration="normal" x="349.8125" y="336.5" text-anchor="start" dominant-baseline="text-after-edge" fill-opacity="0.8">42129754G&gt;A </text><text fill="rgb(0,0,0)" stroke="none" font-family="times new roman" font-size="10px" font-style="normal" font-weight="normal" text-decoration="normal" x="349.8125" y="346.5" text-anchor="start" dominant-baseline="text-after-edge" fill-opacity="0.8">42131791C&gt;T </text><text fill="rgb(0,0,0)" stroke="none" font-family="times new roman" font-size="10px" font-style="normal" font-weight="normal" text-decoration="normal" x="349.8125" y="356.5" text-anchor="start" dominant-baseline="text-after-edge" fill-opacity="0.8">42132217G&gt;A </text><path fill="rgb(176,190,197)" stroke="none" paint-order="stroke fill markers" d=" M 258.9375 291.5 L 325.9375 291.5 L 325.9375 291.5 A 8 8 0 0 1 333.9375 299.5 L 333.9375 493.5 L 333.9375 493.5 A 8 8 0 0 1 325.9375 501.5 L 191.9375 501.5 L 191.9375 501.5 A 8 8 0 0 1 183.9375 493.5 L 183.9375 299.5 L 183.9375 299.5 A 8 8 0 0 1 191.9375 291.5 L 258.9375 291.5 Z" fill-opacity="0.8"/><text fill="rgb(0,0,0)" stroke="none" font-family="times new roman" font-size="10px" font-style="normal" font-weight="normal" text-decoration="normal" x="188.9375" y="306.5" text-anchor="start" dominant-baseline="text-after-edge" fill-opacity="0.8">42125572G&gt;A </text><text fill="rgb(0,0,0)" stroke="none" font-family="times new roman" font-size="10px" font-style="normal" font-weight="normal" text-decoration="normal" x="188.9375" y="316.5" text-anchor="start" dominant-baseline="text-after-edge" fill-opacity="0.8">42125924A&gt;G </text><text fill="rgb(0,0,0)" stroke="none" font-family="times new roman" font-size="10px" font-style="normal" font-weight="normal" text-decoration="normal" x="188.9375" y="326.5" text-anchor="start" dominant-baseline="text-after-edge" fill-opacity="0.8">42125980T&gt;C </text><text fill="rgb(0,0,0)" stroke="none" font-family="times new roman" font-size="10px" font-style="normal" font-weight="normal" text-decoration="normal" x="188.9375" y="336.5" text-anchor="start" dominant-baseline="text-after-edge" fill-opacity="0.8">42126069A&gt;C </text><text fill="rgb(0,0,0)" stroke="none" font-family="times new roman" font-size="10px" font-style="normal" font-weight="normal" text-decoration="normal" x="188.9375" y="346.5" text-anchor="start" dominant-baseline="text-after-edge" fill-opacity="0.8">42132049dup </text><text fill="rgb(0,0,0)" stroke="none" font-family="times new roman" font-size="10px" font-style="normal" font-weight="normal" text-decoration="normal" x="188.9375" y="356.5" text-anchor="start" dominant-baseline="text-after-edge" fill-opacity="0.8">42132844C&gt;A </text><text fill="rgb(0,0,0)" stroke="none" font-family="times new roman" font-size="10px" font-style="normal" font-weight="normal" text-decoration="normal" x="188.9375" y="366.5" text-anchor="start" dominant-baseline="text-after-edge" fill-opacity="0.8">42132851T&gt;C </text><text fill="rgb(0,0,0)" stroke="none" font-family="times new roman" font-size="10px" font-style="normal" font-weight="normal" text-decoration="normal" x="188.9375" y="376.5" text-anchor="start" dominant-baseline="text-after-edge" fill-opacity="0.8">42132969C&gt;T </text><text fill="rgb(0,0,0)" stroke="none" font-family="times new roman" font-size="10px" font-style="normal" font-weight="normal" text-decoration="normal" x="188.9375" y="386.5" text-anchor="start" dominant-baseline="text-after-edge" fill-opacity="0.8">42133212A&gt;G </text><text fill="rgb(0,0,0)" stroke="none" font-family="times new roman" font-size="10px" font-style="normal" font-weight="normal" text-decoration="normal" x="188.9375" y="396.5" text-anchor="start" dominant-baseline="text-after-edge" fill-opacity="0.8">42133314C&gt;T </text><text fill="rgb(0,0,0)" stroke="none" font-family="times new roman" font-size="10px" font-style="normal" font-weight="normal" text-decoration="normal" x="188.9375" y="406.5" text-anchor="start" dominant-baseline="text-after-edge" fill-opacity="0.8">42133400T&gt;G </text><text fill="rgb(0,0,0)" stroke="none" font-family="times new roman" font-size="10px" font-style="normal" font-weight="normal" text-decoration="normal" x="188.9375" y="416.5" text-anchor="start" dominant-baseline="text-after-edge" fill-opacity="0.8">42134096del </text><text fill="rgb(0,0,0)" stroke="none" font-family="times new roman" font-size="10px" font-style="normal" font-weight="normal" text-decoration="normal" x="188.9375" y="426.5" text-anchor="start" dominant-baseline="text-after-edge" fill-opacity="0.8">42134820T&gt;G </text><text fill="rgb(0,0,0)" stroke="none" font-family="times new roman" font-size="10px" font-style="normal" font-weight="normal" text-decoration="normal" x="188.9375" y="436.5" text-anchor="start" dominant-baseline="text-after-edge" fill-opacity="0.8">42135064_42135066dup </text><text fill="rgb(0,0,0)" stroke="none" font-family="times new roman" font-size="10px" font-style="normal" font-weight="normal" text-decoration="normal" x="188.9375" y="446.5" text-anchor="start" dominant-baseline="text-after-edge" fill-opacity="0.8">42135201T&gt;C </text><g transform="scale(0.8672445255474452,0.8672445255474452) translate(-2.587322461862186,53.45397159389796)"/></g></svg>