<svg version="1.1" xmlns="http://www.w3.org/2000/svg" xmlns:xlink="http://www.w3.org/1999/xlink" width="1017" height="608"><defs/><g transform="translate(-116.76232898504622,88.72828507795097) scale(0.6089723194400255,0.6089723194400255)"><path fill="none" stroke="rgb(120,144,156)" paint-order="fill stroke markers" d=" M 477.25 336.8327380952381 L 1353.4803584324459 469.3104232391912" stroke-opacity="1" stroke-linejoin="round" stroke-miterlimit="10"/><path fill="rgb(120,144,156)" stroke="none" paint-order="stroke fill markers" d=" M 1346.2053580708787 472.609948923164 L 1355.4578844390367 469.6094063378067 L 1347.5059345498562 464.0077107944947 Z" fill-opacity="1"/><path fill="none" stroke="rgb(120,144,156)" paint-order="fill stroke markers" d=" M 536.2474223952669 332.54656789333774 L 1353.5298832917315 468.9990734154906" stroke-opacity="1" stroke-linejoin="round" stroke-miterlimit="10"/><path fill="rgb(120,144,156)" stroke="none" paint-order="stroke fill markers" d=" M 1346.205002189877 472.1863319308446 L 1355.5025776047332 469.32843210666226 L 1347.6377124964736 463.60511166928666 Z" fill-opacity="1"/><path fill="none" stroke="rgb(120,144,156)" paint-order="fill stroke markers" d=" M 836.2711976543645 335.3071126548279 L 1353.8857637483202 467.30922087557565" stroke-opacity="1" stroke-linejoin="round" stroke-miterlimit="10"/><path fill="rgb(120,144,156)" stroke="none" paint-order="stroke fill markers" d=" M 1346.3186163299056 469.8686700249007 L 1355.8237380167768 467.803443229178 L 1348.468483568076 461.4384819571147 Z" fill-opacity="1"/><path fill="none" stroke="rgb(120,144,156)" paint-order="fill stroke markers" d=" M 791.4418032365418 185.5369667444721 L 709.0259156369441 234.68861055387072" stroke-opacity="1" stroke-linejoin="round" stroke-miterlimit="10"/><path fill="rgb(120,144,156)" stroke="none" paint-order="stroke fill markers" d=" M 712.5521544870171 227.52075595348745 L 707.3081967634582 235.7130332555279 L 717.0083932392259 234.99283305315072 Z" fill-opacity="1"/><path fill="none" stroke="rgb(120,144,156)" paint-order="fill stroke markers" d=" M 479.3795871559633 258.75 L 508.17774877570133 311.50629607649483" stroke-opacity="1" stroke-linejoin="round" stroke-miterlimit="10"/><path fill="rgb(120,144,156)" stroke="none" paint-order="stroke fill markers" d=" M 501.1493733966746 307.7096607856761 L 509.13601718782803 313.2617793861051 L 508.7857257934792 303.54119319292494 Z" fill-opacity="1"/><path fill="none" stroke="rgb(55,71,79)" paint-order="fill stroke markers" d=" M 996.6348921912451 115.08192537593614 L 1046.5786504597697 158.15268938732436" stroke-opacity="1" stroke-linejoin="round" stroke-miterlimit="10" stroke-width="2"/><path fill="none" stroke="rgb(55,71,79)" paint-order="fill stroke markers" d=" M 1102.037234042553 114 L 1076.9436980024914 153.64356954228253" stroke-opacity="1" stroke-linejoin="round" stroke-miterlimit="10" stroke-width="2"/><path fill="none" stroke="rgb(55,71,79)" paint-order="fill stroke markers" d=" M 776.8945069381315 118.63165801990523 L 799.0563019975086 153.64356954228253" stroke-opacity="1" stroke-linejoin="round" stroke-miterlimit="10" stroke-width="2"/><path fill="none" stroke="rgb(120,144,156)" paint-order="fill stroke markers" d=" M 706.8564694068803 260.51397724243293 L 792.0892566010448 315.64972682204086" stroke-opacity="1" stroke-linejoin="round" stroke-miterlimit="10"/><path fill="rgb(120,144,156)" stroke="none" paint-order="stroke fill markers" d=" M 784.1009950678243 315.663056370791 L 793.7685305931197 316.73602275756707 L 788.8263823873633 308.3582145052651 Z" fill-opacity="1"/><path fill="none" stroke="rgb(120,144,156)" paint-order="fill stroke markers" d=" M 949.3963254593176 340.5 L 1354.1735246575404 466.2912829482242" stroke-opacity="1" stroke-linejoin="round" stroke-miterlimit="10"/><path fill="rgb(120,144,156)" stroke="none" paint-order="stroke fill markers" d=" M 1346.4844244638962 468.4569787283609 L 1356.083424690951 466.8848163191292 L 1349.0662946273328 460.14891358302435 Z" fill-opacity="1"/><path fill="none" stroke="rgb(120,144,156)" paint-order="fill stroke markers" d=" M 664.80292140112 195.13367187406854 L 677.1659789051677 224.27516456218095" stroke-opacity="1" stroke-linejoin="round" stroke-miterlimit="10"/><path fill="rgb(120,144,156)" stroke="none" paint-order="stroke fill markers" d=" M 670.544764180074 219.80615845744106 L 677.94707859888 226.11632812593146 L 678.5538256823887 216.4083747897924 Z" fill-opacity="1"/><path fill="none" stroke="rgb(120,144,156)" paint-order="fill stroke markers" d=" M 392 490.8616573033708 L 818.4170028803223 595.9686573110907" stroke-opacity="1" stroke-linejoin="round" stroke-miterlimit="10"/><path fill="rgb(120,144,156)" stroke="none" paint-order="stroke fill markers" d=" M 810.8706426375852 598.5887617148951 L 820.3588815963385 596.4473085957267 L 812.9527757257517 590.1415893002251 Z" fill-opacity="1"/><path fill="none" stroke="rgb(120,144,156)" paint-order="fill stroke markers" d=" M 553.761017187828 263.9882206138949 L 527.8222512242987 311.50629607649483" stroke-opacity="1" stroke-linejoin="round" stroke-miterlimit="10"/><path fill="rgb(120,144,156)" stroke="none" paint-order="stroke fill markers" d=" M 527.2142742065208 303.54119319292494 L 526.863982812172 313.2617793861051 L 534.8506266033255 307.7096607856761 Z" fill-opacity="1"/><path fill="none" stroke="rgb(120,144,156)" paint-order="fill stroke markers" d=" M 317 340.5 L 317 365.375" stroke-opacity="1" stroke-linejoin="round" stroke-miterlimit="10"/><path fill="rgb(120,144,156)" stroke="none" paint-order="stroke fill markers" d=" M 312.65 358.675 L 317 367.375 L 321.35 358.675 Z" fill-opacity="1"/><path fill="none" stroke="rgb(120,144,156)" paint-order="fill stroke markers" d=" M 1052.5426509186352 340.5 L 1354.786067942344 464.5891615151219" stroke-opacity="1" stroke-linejoin="round" stroke-miterlimit="10"/><path fill="rgb(120,144,156)" stroke="none" paint-order="stroke fill markers" d=" M 1346.935982957197 466.06857549571305 L 1356.6362076552862 465.34875551364655 L 1350.2402168507795 458.02046774441516 Z" fill-opacity="1"/><path fill="none" stroke="rgb(120,144,156)" paint-order="fill stroke markers" d=" M 1155.6889763779527 340.5 L 1356.208354522105 461.76648106813013" stroke-opacity="1" stroke-linejoin="round" stroke-miterlimit="10"/><path fill="rgb(120,144,156)" stroke="none" paint-order="stroke fill markers" d=" M 1348.224155397445 462.021558189365 L 1357.919734568729 462.8014585248979 L 1352.726307334385 454.577054986551 Z" fill-opacity="1"/><path fill="none" stroke="rgb(120,144,156)" paint-order="fill stroke markers" d=" M 1199.920871559633 258.75 L 1320.241855164914 320.1785115361856" stroke-opacity="1" stroke-linejoin="round" stroke-miterlimit="10"/><path fill="rgb(120,144,156)" stroke="none" paint-order="stroke fill markers" d=" M 1312.296584666735 321.0062655520426 L 1322.0231375878493 321.0879250448504 L 1316.252533429427 313.25768701227435 Z" fill-opacity="1"/><path fill="none" stroke="rgb(120,144,156)" paint-order="fill stroke markers" d=" M 829.8430221596564 188.34431435231255 L 882.9815078693091 231.642339745363" stroke-opacity="1" stroke-linejoin="round" stroke-miterlimit="10"/><path fill="rgb(120,144,156)" stroke="none" paint-order="stroke fill markers" d=" M 875.0396561287876 230.7824031595762 L 884.5319778403436 232.90568564768745 L 880.535210803899 224.0378587855758 Z" fill-opacity="1"/><path fill="none" stroke="rgb(120,144,156)" paint-order="fill stroke markers" d=" M 1258.8353018372704 340.5 L 1360.282274622717 456.9195681664313" stroke-opacity="1" stroke-linejoin="round" stroke-miterlimit="10"/><path fill="rgb(120,144,156)" stroke="none" paint-order="stroke fill markers" d=" M 1352.60106054936 454.7260663179567 L 1361.596199049769 458.4274151745843 L 1359.1601950348256 449.0104950602805 Z" fill-opacity="1"/><path fill="none" stroke="rgb(120,144,156)" paint-order="fill stroke markers" d=" M 1386.8566513761468 258.75 L 1350.0676693962073 312.57549041360284" stroke-opacity="1" stroke-linejoin="round" stroke-miterlimit="10"/><path fill="rgb(120,144,156)" stroke="none" paint-order="stroke fill markers" d=" M 1350.2570239451713 304.5894623110486 L 1348.9391162843822 314.2266620805684 L 1357.4396206964716 309.49866834748775 Z" fill-opacity="1"/><path fill="none" stroke="rgb(55,71,79)" paint-order="fill stroke markers" d=" M 880.6196808510638 114 L 829.4213495402303 158.15268938732436" stroke-opacity="1" stroke-linejoin="round" stroke-miterlimit="10" stroke-width="2"/><path fill="none" stroke="rgb(120,144,156)" paint-order="fill stroke markers" d=" M 1342.9314254929957 347.4614160939506 L 1368.8395014807345 452.47180919318987" stroke-opacity="1" stroke-linejoin="round" stroke-miterlimit="10"/><path fill="rgb(120,144,156)" stroke="none" paint-order="stroke fill markers" d=" M 1363.0112468422612 447.00884773724727 L 1369.3185745070043 454.4135839060494 L 1371.4579668432002 444.9248800729736 Z" fill-opacity="1"/><path fill="none" stroke="rgb(55,71,79)" paint-order="fill stroke markers" d=" M 617.9627659574468 114 L 643.0563019975086 153.64356954228253" stroke-opacity="1" stroke-linejoin="round" stroke-miterlimit="10" stroke-width="2"/><path fill="none" stroke="rgb(120,144,156)" paint-order="fill stroke markers" d=" M 885.4208342220356 263.6229333596481 L 832.3039883973656 312.27617869485" stroke-opacity="1" stroke-linejoin="round" stroke-miterlimit="10"/><path fill="rgb(120,144,156)" stroke="none" paint-order="stroke fill markers" d=" M 834.3064628908929 304.5429648802207 L 830.8291657779644 313.6270666403519 L 840.1828254538265 310.95844327461606 Z" fill-opacity="1"/><path fill="none" stroke="rgb(55,71,79)" paint-order="fill stroke markers" d=" M 979.5331527679301 185.18594959650136 L 920.9680221596564 232.90568564768745" stroke-opacity="1" stroke-linejoin="round" stroke-miterlimit="10" stroke-width="2"/><path fill="none" stroke="rgb(120,144,156)" paint-order="fill stroke markers" d=" M 1043.0205861825416 183.31014834305506 L 925.921810738093 237.1049454149828" stroke-opacity="1" stroke-linejoin="round" stroke-miterlimit="10"/><path fill="rgb(120,144,156)" stroke="none" paint-order="stroke fill markers" d=" M 930.1941693459518 230.35517120202908 L 924.1044138174583 237.93985165694494 L 933.8260114984871 238.26084780679022 Z" fill-opacity="1"/><path fill="none" stroke="rgb(120,144,156)" paint-order="fill stroke markers" d=" M 872.4027777777778 184.5 L 711.2575419428237 239.5116494746912" stroke-opacity="1" stroke-linejoin="round" stroke-miterlimit="10"/><path fill="rgb(120,144,156)" stroke="none" paint-order="stroke fill markers" d=" M 716.1928833636796 233.23033551504997 L 709.3647935551512 240.15779461393112 L 719.0036147193731 241.4637910014251 Z" fill-opacity="1"/><path fill="none" stroke="rgb(120,144,156)" paint-order="fill stroke markers" d=" M 1423.5925196850394 340.5 L 1380.9976479047966 453.19893158522586" stroke-opacity="1" stroke-linejoin="round" stroke-miterlimit="10"/><path fill="rgb(120,144,156)" stroke="none" paint-order="stroke fill markers" d=" M 1379.2973231905464 445.39371564547696 L 1380.2905603043287 455.0697675281306 L 1387.4354595421821 448.46954670751256 Z" fill-opacity="1"/><path fill="none" stroke="rgb(120,144,156)" paint-order="fill stroke markers" d=" M 1526.738845144357 340.5 L 1389.2775032780569 458.99043269470656" stroke-opacity="1" stroke-linejoin="round" stroke-miterlimit="10"/><path fill="rgb(120,144,156)" stroke="none" paint-order="stroke fill markers" d=" M 1391.5122059212256 451.32110390421803 L 1387.762624909466 460.2962441391254 L 1397.1924857044476 457.9108248075886 Z" fill-opacity="1"/><path fill="none" stroke="rgb(120,144,156)" paint-order="fill stroke markers" d=" M 1032.565366972477 258.75 L 837.7658576916576 321.66302670106467" stroke-opacity="1" stroke-linejoin="round" stroke-miterlimit="10"/><path fill="rgb(120,144,156)" stroke="none" paint-order="stroke fill markers" d=" M 842.8046974047453 315.4644305417871 L 835.8626531668217 322.2776912735302 L 845.4784882949702 323.74337022482325 Z" fill-opacity="1"/><path fill="none" stroke="rgb(55,71,79)" paint-order="fill stroke markers" d=" M 562.625 184.5 L 562.625 229.25" stroke-opacity="1" stroke-linejoin="round" stroke-miterlimit="10" stroke-width="2"/><path fill="none" stroke="rgb(55,71,79)" paint-order="fill stroke markers" d=" M 690.3554930618685 118.63165801990523 L 668.1936980024914 153.64356954228253" stroke-opacity="1" stroke-linejoin="round" stroke-miterlimit="10" stroke-width="2"/><path fill="none" stroke="rgb(120,144,156)" paint-order="fill stroke markers" d=" M 1629.8851706036744 340.5 L 1391.9761049018127 462.9910189627153" stroke-opacity="1" stroke-linejoin="round" stroke-miterlimit="10"/><path fill="rgb(120,144,156)" stroke="none" paint-order="stroke fill markers" d=" M 1395.9416944301033 456.05656875429133 L 1390.197948326026 463.9065293078163 L 1399.9241644312924 463.7915498589631 Z" fill-opacity="1"/><path fill="none" stroke="rgb(120,144,156)" paint-order="fill stroke markers" d=" M 1733.0314960629921 340.5 L 1392.994566415569 465.31124296307155" stroke-opacity="1" stroke-linejoin="round" stroke-miterlimit="10"/><path fill="rgb(120,144,156)" stroke="none" paint-order="stroke fill markers" d=" M 1397.7853591898945 458.9189973018449 L 1391.1170477408793 466.00038999106454 L 1400.783148761664 467.0862035367449 Z" fill-opacity="1"/><path fill="none" stroke="rgb(120,144,156)" paint-order="fill stroke markers" d=" M 1355.8099595684998 476.89218378153265 L 883.4465653721084 595.8301689773242" stroke-opacity="1" stroke-linejoin="round" stroke-miterlimit="10"/><path fill="rgb(120,144,156)" stroke="none" paint-order="stroke fill markers" d=" M 888.8816205851562 589.9758821009299 L 881.507101541676 596.3185131699223 L 891.005917822958 598.4125497633111 Z" fill-opacity="1"/><path fill="rgb(69,90,100)" stroke="rgb(76,175,80)" paint-order="fill stroke markers" d=" M 1492 319.5 L 1492 339.5 L 1587 339.5 L 1587 319.5 Z" fill-opacity="1" stroke-opacity="1" stroke-miterlimit="10" stroke-width="2"/><text fill="rgb(255,255,255)" stroke="none" font-family="times new roman" font-size="10px" font-style="normal" font-weight="normal" text-decoration="normal" x="1539.5" y="334.5" text-anchor="middle" dominant-baseline="text-after-edge" fill-opacity="1">42132385A&gt;G</text><path fill="rgb(69,90,100)" stroke="rgb(76,175,80)" paint-order="fill stroke markers" d=" M 580.125 247.75 L 580.0710533403297 249.12303417523728 L 579.9095459604149 250.48760313820404 L 579.6414736069594 251.83529386747836 L 579.2684890351652 253.15779740156157 L 578.7928918189475 254.44696006638907 L 578.2176141732964 255.69483374544205 L 577.5462028761966 256.8937248825291 L 576.7827974015615 258.0362419151183 L 575.9321043980005 259.11534084577823 L 574.9993686707646 260.12436867076457 L 573.9903408457782 261.05710439800055 L 572.9112419151182 261.9077974015616 L 571.7687248825291 262.6712028761966 L 570.5698337454421 263.34261417329645 L 569.3219600663891 263.9178918189475 L 568.0327974015615 264.3934890351652 L 566.7102938674783 264.7664736069593 L 565.362603138204 265.0345459604149 L 563.9980341752373 265.19605334032974 L 562.625 265.25 L 561.2519658247627 265.19605334032974 L 559.887396861796 265.0345459604149 L 558.5397061325217 264.7664736069593 L 557.2172025984385 264.3934890351652 L 555.9280399336109 263.9178918189475 L 554.6801662545579 263.34261417329645 L 553.4812751174709 262.6712028761966 L 552.3387580848818 261.9077974015616 L 551.2596591542218 261.05710439800055 L 550.2506313292354 260.12436867076457 L 549.3178956019995 259.11534084577823 L 548.4672025984385 258.0362419151183 L 547.7037971238034 256.8937248825291 L 547.0323858267036 255.69483374544208 L 546.4571081810525 254.44696006638907 L 545.9815109648348 253.1577974015616 L 545.6085263930406 251.83529386747836 L 545.3404540395851 250.48760313820404 L 545.1789466596703 249.12303417523728 L 545.125 247.75 L 545.1789466596703 246.37696582476272 L 545.3404540395851 245.01239686179596 L 545.6085263930406 243.66470613252164 L 545.9815109648348 242.34220259843843 L 546.4571081810525 241.05303993361093 L 547.0323858267036 239.80516625455795 L 547.7037971238034 238.6062751174709 L 548.4672025984385 237.46375808488173 L 549.3178956019995 236.3846591542218 L 550.2506313292354 235.37563132923543 L 551.2596591542218 234.44289560199945 L 552.3387580848818 233.59220259843843 L 553.4812751174709 232.82879712380338 L 554.6801662545579 232.15738582670355 L 555.928039933611 231.5821081810525 L 557.2172025984385 231.1065109648348 L 558.5397061325217 230.73352639304065 L 559.887396861796 230.4654540395851 L 561.2519658247628 230.30394665967026 L 562.6250000000001 230.25 L 563.9980341752373 230.30394665967026 L 565.3626031382041 230.4654540395851 L 566.7102938674784 230.73352639304068 L 568.0327974015617 231.10651096483485 L 569.3219600663891 231.58210818105252 L 570.5698337454421 232.1573858267036 L 571.7687248825292 232.82879712380344 L 572.9112419151184 233.5922025984385 L 573.9903408457783 234.44289560199954 L 574.9993686707646 235.37563132923552 L 575.9321043980007 236.3846591542219 L 576.7827974015617 237.46375808488185 L 577.5462028761967 238.60627511747103 L 578.2176141732965 239.8051662545581 L 578.7928918189476 241.0530399336111 L 579.2684890351652 242.3422025984386 L 579.6414736069594 243.66470613252184 L 579.9095459604149 245.01239686179616 L 580.0710533403297 246.37696582476292 Z" fill-opacity="1" stroke-opacity="1" stroke-miterlimit="10" stroke-width="2"/><text fill="rgb(255,255,255)" stroke="none" font-family="times new roman" font-size="10px" font-style="normal" font-weight="normal" text-decoration="normal" x="562.625" y="252.75" text-anchor="middle" dominant-baseline="text-after-edge" fill-opacity="1">*1.41</text><path fill="rgb(69,90,100)" stroke="rgb(255,193,7)" paint-order="fill stroke markers" d=" M 845.875 93 L 845.875 113 L 940.875 113 L 940.875 93 Z" fill-opacity="1" stroke-opacity="1" stroke-miterlimit="10" stroke-width="2"/><text fill="rgb(255,255,255)" stroke="none" font-family="times new roman" font-size="10px" font-style="normal" font-weight="normal" text-decoration="normal" x="893.375" y="108" text-anchor="middle" dominant-baseline="text-after-edge" fill-opacity="1">42126611C&gt;G</text><path fill="rgb(69,90,100)" stroke="rgb(76,175,80)" paint-order="fill stroke markers" d=" M 535.5 329.5 L 535.4460533403297 330.8730341752373 L 535.2845459604149 332.23760313820407 L 535.0164736069594 333.58529386747836 L 534.6434890351652 334.9077974015616 L 534.1678918189475 336.19696006638907 L 533.5926141732964 337.44483374544205 L 532.9212028761966 338.6437248825291 L 532.1577974015615 339.7862419151183 L 531.3071043980005 340.86534084577823 L 530.3743686707646 341.87436867076457 L 529.3653408457782 342.80710439800055 L 528.2862419151182 343.6577974015616 L 527.1437248825291 344.4212028761966 L 525.9448337454421 345.09261417329645 L 524.6969600663891 345.6678918189475 L 523.4077974015615 346.1434890351652 L 522.0852938674783 346.5164736069593 L 520.737603138204 346.7845459604149 L 519.3730341752373 346.94605334032974 L 518 347 L 516.6269658247627 346.94605334032974 L 515.262396861796 346.7845459604149 L 513.9147061325217 346.5164736069593 L 512.5922025984385 346.1434890351652 L 511.30303993361093 345.6678918189475 L 510.05516625455795 345.09261417329645 L 508.8562751174709 344.4212028761966 L 507.7137580848817 343.6577974015616 L 506.63465915422177 342.80710439800055 L 505.62563132923543 341.87436867076457 L 504.69289560199945 340.86534084577823 L 503.8422025984384 339.7862419151183 L 503.0787971238034 338.6437248825291 L 502.40738582670355 337.44483374544205 L 501.8321081810525 336.19696006638907 L 501.3565109648348 334.9077974015616 L 500.9835263930407 333.58529386747836 L 500.7154540395851 332.23760313820407 L 500.55394665967026 330.8730341752373 L 500.5 329.5 L 500.55394665967026 328.1269658247627 L 500.7154540395851 326.76239686179593 L 500.9835263930407 325.41470613252164 L 501.3565109648348 324.0922025984384 L 501.8321081810525 322.80303993361093 L 502.40738582670355 321.55516625455795 L 503.0787971238034 320.3562751174709 L 503.8422025984384 319.2137580848817 L 504.69289560199945 318.13465915422177 L 505.62563132923543 317.12563132923543 L 506.63465915422177 316.19289560199945 L 507.7137580848817 315.3422025984384 L 508.8562751174709 314.5787971238034 L 510.05516625455795 313.90738582670355 L 511.30303993361093 313.3321081810525 L 512.5922025984385 312.8565109648348 L 513.9147061325217 312.4835263930407 L 515.262396861796 312.2154540395851 L 516.6269658247628 312.05394665967026 L 518.0000000000001 312 L 519.3730341752373 312.05394665967026 L 520.7376031382041 312.2154540395851 L 522.0852938674784 312.4835263930407 L 523.4077974015617 312.85651096483485 L 524.6969600663891 313.3321081810525 L 525.9448337454421 313.9073858267036 L 527.1437248825292 314.57879712380344 L 528.2862419151184 315.3422025984385 L 529.3653408457783 316.19289560199957 L 530.3743686707646 317.1256313292355 L 531.3071043980007 318.1346591542219 L 532.1577974015617 319.2137580848818 L 532.9212028761967 320.35627511747106 L 533.5926141732965 321.55516625455806 L 534.1678918189476 322.8030399336111 L 534.6434890351652 324.0922025984386 L 535.0164736069594 325.4147061325218 L 535.2845459604149 326.76239686179616 L 535.4460533403297 328.1269658247629 Z" fill-opacity="1" stroke-opacity="1" stroke-miterlimit="10" stroke-width="2"/><text fill="rgb(255,255,255)" stroke="none" font-family="times new roman" font-size="10px" font-style="normal" font-weight="normal" text-decoration="normal" x="518" y="334.5" text-anchor="middle" dominant-baseline="text-after-edge" fill-opacity="1">*1.54</text><path fill="rgb(69,90,100)" stroke="rgb(76,175,80)" paint-order="fill stroke markers" d=" M 925.25 247.75 L 925.1806400089954 249.5153296538765 L 924.9729876633907 251.26977546340518 L 924.6283232089477 253.00252068675786 L 924.1487716166409 254.70288237343632 L 923.537289481504 256.36037722821453 L 922.7976467942383 257.9647862441398 L 921.9344036979671 259.5062177061088 L 920.9528823734363 260.97516817658067 L 919.8591342260007 262.36258108742913 L 918.6599025766973 263.65990257669733 L 917.3625810874291 264.8591342260007 L 915.9751681765806 265.9528823734363 L 914.5062177061088 266.93440369796707 L 912.9647862441398 267.7976467942383 L 911.3603772282145 268.53728948150393 L 909.7028823734363 269.14877161664094 L 908.0025206867579 269.62832320894773 L 906.2697754634052 269.9729876633906 L 904.5153296538765 270.1806400089954 L 902.75 270.25 L 900.9846703461235 270.1806400089954 L 899.2302245365948 269.9729876633906 L 897.4974793132421 269.62832320894773 L 895.7971176265637 269.14877161664094 L 894.1396227717855 268.53728948150393 L 892.5352137558602 267.7976467942383 L 890.9937822938912 266.93440369796707 L 889.5248318234194 265.9528823734363 L 888.1374189125709 264.8591342260007 L 886.8400974233027 263.65990257669733 L 885.6408657739993 262.36258108742913 L 884.5471176265637 260.97516817658067 L 883.5655963020329 259.5062177061088 L 882.7023532057617 257.9647862441398 L 881.962710518496 256.36037722821453 L 881.3512283833591 254.70288237343632 L 880.8716767910523 253.00252068675786 L 880.5270123366095 251.2697754634052 L 880.3193599910046 249.5153296538765 L 880.25 247.75 L 880.3193599910046 245.9846703461235 L 880.5270123366093 244.23022453659482 L 880.8716767910523 242.49747931324214 L 881.3512283833591 240.79711762656368 L 881.962710518496 239.13962277178547 L 882.7023532057617 237.5352137558602 L 883.5655963020329 235.99378229389114 L 884.5471176265637 234.52483182341936 L 885.6408657739993 233.13741891257087 L 886.8400974233027 231.8400974233027 L 888.1374189125709 230.6408657739993 L 889.5248318234194 229.54711762656368 L 890.9937822938912 228.56559630203293 L 892.5352137558602 227.7023532057617 L 894.1396227717855 226.96271051849604 L 895.7971176265637 226.35122838335903 L 897.4974793132421 225.87167679105227 L 899.2302245365948 225.5270123366094 L 900.9846703461236 225.3193599910046 L 902.7500000000001 225.25 L 904.5153296538766 225.31935999100463 L 906.2697754634053 225.5270123366094 L 908.002520686758 225.8716767910523 L 909.7028823734364 226.35122838335909 L 911.3603772282146 226.9627105184961 L 912.9647862441399 227.7023532057618 L 914.5062177061089 228.565596302033 L 915.9751681765807 229.54711762656376 L 917.3625810874292 230.64086577399942 L 918.6599025766974 231.8400974233028 L 919.8591342260008 233.137418912571 L 920.9528823734364 234.5248318234195 L 921.9344036979671 235.99378229389131 L 922.7976467942384 237.53521375586038 L 923.537289481504 239.1396227717857 L 924.148771616641 240.7971176265639 L 924.6283232089478 242.49747931324237 L 924.9729876633907 244.23022453659505 L 925.1806400089954 245.98467034612375 Z" fill-opacity="1" stroke-opacity="1" stroke-miterlimit="10" stroke-width="2"/><text fill="rgb(255,255,255)" stroke="none" font-family="times new roman" font-size="15px" font-style="normal" font-weight="normal" text-decoration="normal" x="902.75" y="255.25" text-anchor="middle" dominant-baseline="text-after-edge" fill-opacity="1">*2</text><path fill="rgb(69,90,100)" stroke="rgb(76,175,80)" paint-order="fill stroke markers" d=" M 1090 319.5 L 1090 339.5 L 1185 339.5 L 1185 319.5 Z" fill-opacity="1" stroke-opacity="1" stroke-miterlimit="10" stroke-width="2"/><text fill="rgb(255,255,255)" stroke="none" font-family="times new roman" font-size="10px" font-style="normal" font-weight="normal" text-decoration="normal" x="1137.5" y="334.5" text-anchor="middle" dominant-baseline="text-after-edge" fill-opacity="1">42130967C&gt;T</text><path fill="rgb(69,90,100)" stroke="rgb(76,175,80)" paint-order="fill stroke markers" d=" M 1380.25 319.5 L 1380.25 339.5 L 1475.25 339.5 L 1475.25 319.5 Z" fill-opacity="1" stroke-opacity="1" stroke-miterlimit="10" stroke-width="2"/><text fill="rgb(255,255,255)" stroke="none" font-family="times new roman" font-size="10px" font-style="normal" font-weight="normal" text-decoration="normal" x="1427.75" y="334.5" text-anchor="middle" dominant-baseline="text-after-edge" fill-opacity="1">42132199C&gt;T</text><path fill="rgb(69,90,100)" stroke="rgb(76,175,80)" paint-order="fill stroke markers" d=" M 1346.875 237.75 L 1346.875 257.75 L 1441.875 257.75 L 1441.875 237.75 Z" fill-opacity="1" stroke-opacity="1" stroke-miterlimit="10" stroke-width="2"/><text fill="rgb(255,255,255)" stroke="none" font-family="times new roman" font-size="10px" font-style="normal" font-weight="normal" text-decoration="normal" x="1394.375" y="252.75" text-anchor="middle" dominant-baseline="text-after-edge" fill-opacity="1">42129950A&gt;C</text><path fill="rgb(69,90,100)" stroke="rgb(255,193,7)" paint-order="fill stroke markers" d=" M 1061.5 93 L 1061.5 113 L 1156.5 113 L 1156.5 93 Z" fill-opacity="1" stroke-opacity="1" stroke-miterlimit="10" stroke-width="2"/><text fill="rgb(255,255,255)" stroke="none" font-family="times new roman" font-size="10px" font-style="normal" font-weight="normal" text-decoration="normal" x="1109" y="108" text-anchor="middle" dominant-baseline="text-after-edge" fill-opacity="1">42127941G&gt;A</text><path fill="rgb(69,90,100)" stroke="rgb(76,175,80)" paint-order="fill stroke markers" d=" M 1715.5 319.5 L 1715.5 339.5 L 1810.5 339.5 L 1810.5 319.5 Z" fill-opacity="1" stroke-opacity="1" stroke-miterlimit="10" stroke-width="2"/><text fill="rgb(255,255,255)" stroke="none" font-family="times new roman" font-size="10px" font-style="normal" font-weight="normal" text-decoration="normal" x="1763" y="334.5" text-anchor="middle" dominant-baseline="text-after-edge" fill-opacity="1">42128668G&gt;A</text><path fill="rgb(69,90,100)" stroke="rgb(76,175,80)" paint-order="fill stroke markers" d=" M 1000.125 103 L 1000.0710533403297 104.37303417523728 L 999.9095459604149 105.73760313820404 L 999.6414736069594 107.08529386747834 L 999.2684890351652 108.40779740156158 L 998.7928918189475 109.69696006638907 L 998.2176141732964 110.94483374544207 L 997.5462028761966 112.1437248825291 L 996.7827974015615 113.28624191511828 L 995.9321043980005 114.3653408457782 L 994.9993686707646 115.37436867076458 L 993.9903408457782 116.30710439800055 L 992.9112419151182 117.15779740156158 L 991.7687248825291 117.92120287619662 L 990.5698337454421 118.59261417329644 L 989.3219600663891 119.16789181894751 L 988.0327974015615 119.64348903516519 L 986.7102938674783 120.01647360695934 L 985.362603138204 120.2845459604149 L 983.9980341752373 120.44605334032974 L 982.625 120.5 L 981.2519658247627 120.44605334032974 L 979.887396861796 120.2845459604149 L 978.5397061325217 120.01647360695934 L 977.2172025984385 119.64348903516519 L 975.9280399336109 119.16789181894751 L 974.6801662545579 118.59261417329644 L 973.4812751174709 117.92120287619662 L 972.3387580848818 117.15779740156158 L 971.2596591542218 116.30710439800055 L 970.2506313292354 115.37436867076458 L 969.3178956019995 114.36534084577822 L 968.4672025984385 113.28624191511828 L 967.7037971238034 112.14372488252911 L 967.0323858267036 110.94483374544207 L 966.4571081810525 109.69696006638907 L 965.9815109648348 108.40779740156158 L 965.6085263930406 107.08529386747834 L 965.3404540395851 105.73760313820404 L 965.1789466596703 104.3730341752373 L 965.125 103 L 965.1789466596703 101.62696582476272 L 965.3404540395851 100.26239686179596 L 965.6085263930406 98.91470613252166 L 965.9815109648348 97.59220259843842 L 966.4571081810525 96.30303993361093 L 967.0323858267036 95.05516625455793 L 967.7037971238034 93.8562751174709 L 968.4672025984385 92.71375808488172 L 969.3178956019995 91.6346591542218 L 970.2506313292354 90.62563132923542 L 971.2596591542218 89.69289560199947 L 972.3387580848818 88.84220259843842 L 973.4812751174709 88.07879712380338 L 974.6801662545579 87.40738582670356 L 975.928039933611 86.83210818105248 L 977.2172025984385 86.3565109648348 L 978.5397061325217 85.98352639304065 L 979.887396861796 85.71545403958508 L 981.2519658247628 85.55394665967026 L 982.6250000000001 85.5 L 983.9980341752373 85.55394665967026 L 985.3626031382041 85.7154540395851 L 986.7102938674784 85.98352639304068 L 988.0327974015617 86.35651096483484 L 989.3219600663891 86.83210818105252 L 990.5698337454421 87.4073858267036 L 991.7687248825292 88.07879712380344 L 992.9112419151184 88.84220259843849 L 993.9903408457783 89.69289560199954 L 994.9993686707646 90.62563132923552 L 995.9321043980007 91.6346591542219 L 996.7827974015617 92.71375808488185 L 997.5462028761967 93.85627511747103 L 998.2176141732965 95.05516625455807 L 998.7928918189476 96.30303993361109 L 999.2684890351652 97.59220259843859 L 999.6414736069594 98.91470613252184 L 999.9095459604149 100.26239686179616 L 1000.0710533403297 101.62696582476292 Z" fill-opacity="1" stroke-opacity="1" stroke-miterlimit="10" stroke-width="2"/><text fill="rgb(255,255,255)" stroke="none" font-family="times new roman" font-size="10px" font-style="normal" font-weight="normal" text-decoration="normal" x="982.625" y="108" text-anchor="middle" dominant-baseline="text-after-edge" fill-opacity="1">*34.1</text><path fill="rgb(69,90,100)" stroke="rgb(255,193,7)" paint-order="fill stroke markers" d=" M 836 329.5 L 835.9306400089954 331.2653296538765 L 835.7229876633907 333.0197754634052 L 835.3783232089477 334.75252068675786 L 834.8987716166409 336.4528823734363 L 834.287289481504 338.11037722821453 L 833.5476467942383 339.7147862441398 L 832.6844036979671 341.2562177061088 L 831.7028823734363 342.72516817658067 L 830.6091342260007 344.11258108742913 L 829.4099025766973 345.40990257669733 L 828.1125810874291 346.6091342260007 L 826.7251681765806 347.7028823734363 L 825.2562177061088 348.68440369796707 L 823.7147862441398 349.5476467942383 L 822.1103772282145 350.28728948150393 L 820.4528823734363 350.89877161664094 L 818.7525206867579 351.37832320894773 L 817.0197754634052 351.7229876633906 L 815.2653296538765 351.9306400089954 L 813.5 352 L 811.7346703461235 351.9306400089954 L 809.9802245365948 351.7229876633906 L 808.2474793132421 351.37832320894773 L 806.5471176265637 350.89877161664094 L 804.8896227717855 350.28728948150393 L 803.2852137558602 349.5476467942383 L 801.7437822938912 348.68440369796707 L 800.2748318234194 347.7028823734363 L 798.8874189125709 346.6091342260007 L 797.5900974233027 345.40990257669733 L 796.3908657739993 344.11258108742913 L 795.2971176265637 342.72516817658067 L 794.3155963020329 341.2562177061088 L 793.4523532057617 339.7147862441398 L 792.712710518496 338.11037722821453 L 792.1012283833591 336.4528823734363 L 791.6216767910523 334.75252068675786 L 791.2770123366095 333.0197754634052 L 791.0693599910046 331.2653296538765 L 791 329.5 L 791.0693599910046 327.7346703461235 L 791.2770123366093 325.9802245365948 L 791.6216767910523 324.24747931324214 L 792.1012283833591 322.5471176265637 L 792.712710518496 320.88962277178547 L 793.4523532057617 319.2852137558602 L 794.3155963020329 317.7437822938912 L 795.2971176265637 316.27483182341933 L 796.3908657739993 314.88741891257087 L 797.5900974233027 313.59009742330267 L 798.8874189125709 312.39086577399934 L 800.2748318234194 311.2971176265637 L 801.7437822938912 310.31559630203293 L 803.2852137558602 309.4523532057617 L 804.8896227717855 308.712710518496 L 806.5471176265637 308.10122838335906 L 808.2474793132421 307.62167679105227 L 809.9802245365948 307.2770123366094 L 811.7346703461236 307.0693599910046 L 813.5000000000001 307 L 815.2653296538766 307.0693599910046 L 817.0197754634053 307.2770123366094 L 818.752520686758 307.6216767910523 L 820.4528823734364 308.10122838335906 L 822.1103772282146 308.7127105184961 L 823.7147862441399 309.45235320576177 L 825.2562177061089 310.315596302033 L 826.7251681765807 311.29711762656376 L 828.1125810874292 312.3908657739994 L 829.4099025766974 313.5900974233028 L 830.6091342260008 314.887418912571 L 831.7028823734364 316.2748318234195 L 832.6844036979671 317.74378229389134 L 833.5476467942384 319.2852137558604 L 834.287289481504 320.8896227717857 L 834.898771616641 322.54711762656393 L 835.3783232089478 324.24747931324237 L 835.7229876633907 325.9802245365951 L 835.9306400089954 327.7346703461238 Z" fill-opacity="1" stroke-opacity="1" stroke-miterlimit="10" stroke-width="2"/><text fill="rgb(255,255,255)" stroke="none" font-family="times new roman" font-size="15px" font-style="normal" font-weight="normal" text-decoration="normal" x="813.5" y="337" text-anchor="middle" dominant-baseline="text-after-edge" fill-opacity="1">*29</text><path fill="rgb(3,169,244)" stroke="none" paint-order="stroke fill markers" d=" M 813.5 297 L 838 297 L 838 297 A 8 8 0 0 1 846 305 L 846 354 L 846 354 A 8 8 0 0 1 838 362 L 789 362 L 789 362 A 8 8 0 0 1 781 354 L 781 305 L 781 305 A 8 8 0 0 1 789 297 L 813.5 297 Z" fill-opacity="0.15"/><path fill="rgb(69,90,100)" stroke="rgb(76,175,80)" paint-order="fill stroke markers" d=" M 425.875 237.75 L 425.875 257.75 L 520.875 257.75 L 520.875 237.75 Z" fill-opacity="1" stroke-opacity="1" stroke-miterlimit="10" stroke-width="2"/><text fill="rgb(255,255,255)" stroke="none" font-family="times new roman" font-size="10px" font-style="normal" font-weight="normal" text-decoration="normal" x="473.375" y="252.75" text-anchor="middle" dominant-baseline="text-after-edge" fill-opacity="1">42130047G&gt;C</text><path fill="rgb(69,90,100)" stroke="rgb(76,175,80)" paint-order="fill stroke markers" d=" M 834.125 173.5 L 834.0556400089954 175.2653296538765 L 833.8479876633907 177.01977546340518 L 833.5033232089477 178.75252068675786 L 833.0237716166409 180.45288237343632 L 832.412289481504 182.11037722821453 L 831.6726467942383 183.71478624413982 L 830.8094036979671 185.25621770610886 L 829.8278823734363 186.72516817658064 L 828.7341342260007 188.11258108742913 L 827.5349025766973 189.4099025766973 L 826.2375810874291 190.6091342260007 L 824.8501681765806 191.70288237343632 L 823.3812177061088 192.68440369796707 L 821.8397862441398 193.5476467942383 L 820.2353772282145 194.28728948150396 L 818.5778823734363 194.89877161664094 L 816.8775206867579 195.37832320894773 L 815.1447754634052 195.7229876633906 L 813.3903296538765 195.93064000899537 L 811.625 196 L 809.8596703461235 195.93064000899537 L 808.1052245365948 195.7229876633906 L 806.3724793132421 195.37832320894773 L 804.6721176265637 194.89877161664094 L 803.0146227717855 194.28728948150396 L 801.4102137558602 193.5476467942383 L 799.8687822938912 192.68440369796707 L 798.3998318234194 191.70288237343632 L 797.0124189125709 190.6091342260007 L 795.7150974233027 189.40990257669733 L 794.5158657739993 188.11258108742913 L 793.4221176265637 186.72516817658064 L 792.4405963020329 185.25621770610886 L 791.5773532057617 183.71478624413982 L 790.837710518496 182.11037722821453 L 790.2262283833591 180.45288237343632 L 789.7466767910523 178.75252068675786 L 789.4020123366095 177.0197754634052 L 789.1943599910046 175.2653296538765 L 789.125 173.5 L 789.1943599910046 171.7346703461235 L 789.4020123366093 169.98022453659482 L 789.7466767910523 168.24747931324214 L 790.2262283833591 166.54711762656368 L 790.837710518496 164.88962277178547 L 791.5773532057617 163.2852137558602 L 792.4405963020329 161.74378229389114 L 793.4221176265637 160.27483182341936 L 794.5158657739993 158.88741891257087 L 795.7150974233027 157.5900974233027 L 797.0124189125709 156.3908657739993 L 798.3998318234194 155.29711762656368 L 799.8687822938912 154.31559630203293 L 801.4102137558602 153.4523532057617 L 803.0146227717855 152.71271051849604 L 804.6721176265637 152.10122838335903 L 806.3724793132421 151.62167679105227 L 808.1052245365948 151.2770123366094 L 809.8596703461236 151.0693599910046 L 811.6250000000001 151 L 813.3903296538766 151.06935999100463 L 815.1447754634053 151.2770123366094 L 816.877520686758 151.6216767910523 L 818.5778823734364 152.10122838335909 L 820.2353772282146 152.7127105184961 L 821.8397862441399 153.4523532057618 L 823.3812177061089 154.315596302033 L 824.8501681765807 155.29711762656376 L 826.2375810874292 156.39086577399942 L 827.5349025766974 157.5900974233028 L 828.7341342260008 158.887418912571 L 829.8278823734364 160.2748318234195 L 830.8094036979671 161.74378229389131 L 831.6726467942384 163.28521375586038 L 832.412289481504 164.8896227717857 L 833.023771616641 166.5471176265639 L 833.5033232089478 168.24747931324237 L 833.8479876633907 169.98022453659505 L 834.0556400089954 171.73467034612375 Z" fill-opacity="1" stroke-opacity="1" stroke-miterlimit="10" stroke-width="2"/><text fill="rgb(255,255,255)" stroke="none" font-family="times new roman" font-size="15px" font-style="normal" font-weight="normal" text-decoration="normal" x="811.625" y="181" text-anchor="middle" dominant-baseline="text-after-edge" fill-opacity="1">*39</text><path fill="rgb(69,90,100)" stroke="rgb(255,193,7)" paint-order="fill stroke markers" d=" M 1019.125 237.75 L 1019.125 257.75 L 1114.125 257.75 L 1114.125 237.75 Z" fill-opacity="1" stroke-opacity="1" stroke-miterlimit="10" stroke-width="2"/><text fill="rgb(255,255,255)" stroke="none" font-family="times new roman" font-size="10px" font-style="normal" font-weight="normal" text-decoration="normal" x="1066.625" y="252.75" text-anchor="middle" dominant-baseline="text-after-edge" fill-opacity="1">42127608C&gt;T</text><path fill="rgb(69,90,100)" stroke="rgb(76,175,80)" paint-order="fill stroke markers" d=" M 1603.75 319.5 L 1603.75 339.5 L 1698.75 339.5 L 1698.75 319.5 Z" fill-opacity="1" stroke-opacity="1" stroke-miterlimit="10" stroke-width="2"/><text fill="rgb(255,255,255)" stroke="none" font-family="times new roman" font-size="10px" font-style="normal" font-weight="normal" text-decoration="normal" x="1651.25" y="334.5" text-anchor="middle" dominant-baseline="text-after-edge" fill-opacity="1">42128499C&gt;T</text><path fill="rgb(69,90,100)" stroke="rgb(255,193,7)" paint-order="fill stroke markers" d=" M 563.5 93 L 563.5 113 L 658.5 113 L 658.5 93 Z" fill-opacity="1" stroke-opacity="1" stroke-miterlimit="10" stroke-width="2"/><text fill="rgb(255,255,255)" stroke="none" font-family="times new roman" font-size="10px" font-style="normal" font-weight="normal" text-decoration="normal" x="611" y="108" text-anchor="middle" dominant-baseline="text-after-edge" fill-opacity="1">42129132C&gt;T</text><path fill="rgb(69,90,100)" stroke="rgb(76,175,80)" paint-order="fill stroke markers" d=" M 515.125 163.5 L 515.125 183.5 L 610.125 183.5 L 610.125 163.5 Z" fill-opacity="1" stroke-opacity="1" stroke-miterlimit="10" stroke-width="2"/><text fill="rgb(255,255,255)" stroke="none" font-family="times new roman" font-size="10px" font-style="normal" font-weight="normal" text-decoration="normal" x="562.625" y="178.5" text-anchor="middle" dominant-baseline="text-after-edge" fill-opacity="1">42127407T&gt;G</text><path fill="rgb(69,90,100)" stroke="rgb(76,175,80)" paint-order="fill stroke markers" d=" M 1356 329.5 L 1355.9460533403299 330.8730341752373 L 1355.784545960415 332.23760313820407 L 1355.5164736069594 333.58529386747836 L 1355.1434890351652 334.9077974015616 L 1354.6678918189475 336.19696006638907 L 1354.0926141732964 337.44483374544205 L 1353.4212028761965 338.6437248825291 L 1352.6577974015615 339.7862419151183 L 1351.8071043980005 340.86534084577823 L 1350.8743686707646 341.87436867076457 L 1349.8653408457783 342.80710439800055 L 1348.7862419151184 343.6577974015616 L 1347.643724882529 344.4212028761966 L 1346.444833745442 345.09261417329645 L 1345.196960066389 345.6678918189475 L 1343.9077974015615 346.1434890351652 L 1342.5852938674784 346.5164736069593 L 1341.2376031382041 346.7845459604149 L 1339.8730341752373 346.94605334032974 L 1338.5 347 L 1337.1269658247627 346.94605334032974 L 1335.7623968617959 346.7845459604149 L 1334.4147061325216 346.5164736069593 L 1333.0922025984385 346.1434890351652 L 1331.803039933611 345.6678918189475 L 1330.555166254558 345.09261417329645 L 1329.356275117471 344.4212028761966 L 1328.2137580848816 343.6577974015616 L 1327.1346591542217 342.80710439800055 L 1326.1256313292354 341.87436867076457 L 1325.1928956019995 340.86534084577823 L 1324.3422025984385 339.7862419151183 L 1323.5787971238035 338.6437248825291 L 1322.9073858267036 337.44483374544205 L 1322.3321081810525 336.19696006638907 L 1321.8565109648348 334.9077974015616 L 1321.4835263930406 333.58529386747836 L 1321.215454039585 332.23760313820407 L 1321.0539466596701 330.8730341752373 L 1321 329.5 L 1321.0539466596701 328.1269658247627 L 1321.215454039585 326.76239686179593 L 1321.4835263930406 325.41470613252164 L 1321.8565109648348 324.0922025984384 L 1322.3321081810525 322.80303993361093 L 1322.9073858267036 321.55516625455795 L 1323.5787971238035 320.3562751174709 L 1324.3422025984385 319.2137580848817 L 1325.1928956019995 318.13465915422177 L 1326.1256313292354 317.12563132923543 L 1327.1346591542217 316.19289560199945 L 1328.2137580848816 315.3422025984384 L 1329.356275117471 314.5787971238034 L 1330.555166254558 313.90738582670355 L 1331.803039933611 313.3321081810525 L 1333.0922025984385 312.8565109648348 L 1334.4147061325216 312.4835263930407 L 1335.762396861796 312.2154540395851 L 1337.1269658247627 312.05394665967026 L 1338.5 312 L 1339.8730341752373 312.05394665967026 L 1341.2376031382041 312.2154540395851 L 1342.5852938674784 312.4835263930407 L 1343.9077974015618 312.85651096483485 L 1345.1969600663892 313.3321081810525 L 1346.444833745442 313.9073858267036 L 1347.643724882529 314.57879712380344 L 1348.7862419151184 315.3422025984385 L 1349.8653408457783 316.19289560199957 L 1350.8743686707646 317.1256313292355 L 1351.8071043980005 318.1346591542219 L 1352.6577974015618 319.2137580848818 L 1353.4212028761967 320.35627511747106 L 1354.0926141732966 321.55516625455806 L 1354.6678918189475 322.8030399336111 L 1355.1434890351652 324.0922025984386 L 1355.5164736069594 325.4147061325218 L 1355.784545960415 326.76239686179616 L 1355.9460533403299 328.1269658247629 Z" fill-opacity="1" stroke-opacity="1" stroke-miterlimit="10" stroke-width="2"/><text fill="rgb(255,255,255)" stroke="none" font-family="times new roman" font-size="10px" font-style="normal" font-weight="normal" text-decoration="normal" x="1338.5" y="334.5" text-anchor="middle" dominant-baseline="text-after-edge" fill-opacity="1">*1.58</text><path fill="rgb(69,90,100)" stroke="rgb(76,175,80)" paint-order="fill stroke markers" d=" M 857.125 163.5 L 857.125 183.5 L 952.125 183.5 L 952.125 163.5 Z" fill-opacity="1" stroke-opacity="1" stroke-miterlimit="10" stroke-width="2"/><text fill="rgb(255,255,255)" stroke="none" font-family="times new roman" font-size="10px" font-style="normal" font-weight="normal" text-decoration="normal" x="904.625" y="178.5" text-anchor="middle" dominant-baseline="text-after-edge" fill-opacity="1">42129130C&gt;G</text><path fill="rgb(69,90,100)" stroke="rgb(76,175,80)" paint-order="fill stroke markers" d=" M 1201.75 319.5 L 1201.75 339.5 L 1296.75 339.5 L 1296.75 319.5 Z" fill-opacity="1" stroke-opacity="1" stroke-miterlimit="10" stroke-width="2"/><text fill="rgb(255,255,255)" stroke="none" font-family="times new roman" font-size="10px" font-style="normal" font-weight="normal" text-decoration="normal" x="1249.25" y="334.5" text-anchor="middle" dominant-baseline="text-after-edge" fill-opacity="1">42132209A&gt;T</text><path fill="rgb(69,90,100)" stroke="rgb(224,224,224)" paint-order="fill stroke markers" d=" M 709.625 247.75 L 709.5556400089954 249.5153296538765 L 709.3479876633907 251.26977546340518 L 709.0033232089477 253.00252068675786 L 708.5237716166409 254.70288237343632 L 707.912289481504 256.36037722821453 L 707.1726467942383 257.9647862441398 L 706.3094036979671 259.5062177061088 L 705.3278823734363 260.97516817658067 L 704.2341342260007 262.36258108742913 L 703.0349025766973 263.65990257669733 L 701.7375810874291 264.8591342260007 L 700.3501681765806 265.9528823734363 L 698.8812177061088 266.93440369796707 L 697.3397862441398 267.7976467942383 L 695.7353772282145 268.53728948150393 L 694.0778823734363 269.14877161664094 L 692.3775206867579 269.62832320894773 L 690.6447754634052 269.9729876633906 L 688.8903296538765 270.1806400089954 L 687.125 270.25 L 685.3596703461235 270.1806400089954 L 683.6052245365948 269.9729876633906 L 681.8724793132421 269.62832320894773 L 680.1721176265637 269.14877161664094 L 678.5146227717855 268.53728948150393 L 676.9102137558602 267.7976467942383 L 675.3687822938912 266.93440369796707 L 673.8998318234194 265.9528823734363 L 672.5124189125709 264.8591342260007 L 671.2150974233027 263.65990257669733 L 670.0158657739993 262.36258108742913 L 668.9221176265637 260.97516817658067 L 667.9405963020329 259.5062177061088 L 667.0773532057617 257.9647862441398 L 666.337710518496 256.36037722821453 L 665.7262283833591 254.70288237343632 L 665.2466767910523 253.00252068675786 L 664.9020123366095 251.2697754634052 L 664.6943599910046 249.5153296538765 L 664.625 247.75 L 664.6943599910046 245.9846703461235 L 664.9020123366093 244.23022453659482 L 665.2466767910523 242.49747931324214 L 665.7262283833591 240.79711762656368 L 666.337710518496 239.13962277178547 L 667.0773532057617 237.5352137558602 L 667.9405963020329 235.99378229389114 L 668.9221176265637 234.52483182341936 L 670.0158657739993 233.13741891257087 L 671.2150974233027 231.8400974233027 L 672.5124189125709 230.6408657739993 L 673.8998318234194 229.54711762656368 L 675.3687822938912 228.56559630203293 L 676.9102137558602 227.7023532057617 L 678.5146227717855 226.96271051849604 L 680.1721176265637 226.35122838335903 L 681.8724793132421 225.87167679105227 L 683.6052245365948 225.5270123366094 L 685.3596703461236 225.3193599910046 L 687.1250000000001 225.25 L 688.8903296538766 225.31935999100463 L 690.6447754634053 225.5270123366094 L 692.377520686758 225.8716767910523 L 694.0778823734364 226.35122838335909 L 695.7353772282146 226.9627105184961 L 697.3397862441399 227.7023532057618 L 698.8812177061089 228.565596302033 L 700.3501681765807 229.54711762656376 L 701.7375810874292 230.64086577399942 L 703.0349025766974 231.8400974233028 L 704.2341342260008 233.137418912571 L 705.3278823734364 234.5248318234195 L 706.3094036979671 235.99378229389131 L 707.1726467942384 237.53521375586038 L 707.912289481504 239.1396227717857 L 708.523771616641 240.7971176265639 L 709.0033232089478 242.49747931324237 L 709.3479876633907 244.23022453659505 L 709.5556400089954 245.98467034612375 Z" fill-opacity="1" stroke-opacity="1" stroke-miterlimit="10" stroke-width="2"/><text fill="rgb(255,255,255)" stroke="none" font-family="times new roman" font-size="15px" font-style="normal" font-weight="normal" text-decoration="normal" x="687.125" y="255.25" text-anchor="middle" dominant-baseline="text-after-edge" fill-opacity="1">*164</text><path fill="rgb(69,90,100)" stroke="rgb(76,175,80)" paint-order="fill stroke markers" d=" M 978.25 319.5 L 978.25 339.5 L 1073.25 339.5 L 1073.25 319.5 Z" fill-opacity="1" stroke-opacity="1" stroke-miterlimit="10" stroke-width="2"/><text fill="rgb(255,255,255)" stroke="none" font-family="times new roman" font-size="10px" font-style="normal" font-weight="normal" text-decoration="normal" x="1025.75" y="334.5" text-anchor="middle" dominant-baseline="text-after-edge" fill-opacity="1">42130052del</text><path fill="rgb(69,90,100)" stroke="rgb(76,175,80)" paint-order="fill stroke markers" d=" M 381.25 319.5 L 381.25 339.5 L 476.25 339.5 L 476.25 319.5 Z" fill-opacity="1" stroke-opacity="1" stroke-miterlimit="10" stroke-width="2"/><text fill="rgb(255,255,255)" stroke="none" font-family="times new roman" font-size="10px" font-style="normal" font-weight="normal" text-decoration="normal" x="428.75" y="334.5" text-anchor="middle" dominant-baseline="text-after-edge" fill-opacity="1">42131531G&gt;A</text><path fill="rgb(69,90,100)" stroke="rgb(76,175,80)" paint-order="fill stroke markers" d=" M 866.5 319.5 L 866.5 339.5 L 961.5 339.5 L 961.5 319.5 Z" fill-opacity="1" stroke-opacity="1" stroke-miterlimit="10" stroke-width="2"/><text fill="rgb(255,255,255)" stroke="none" font-family="times new roman" font-size="10px" font-style="normal" font-weight="normal" text-decoration="normal" x="914" y="334.5" text-anchor="middle" dominant-baseline="text-after-edge" fill-opacity="1">42128576T&gt;C</text><path fill="rgb(69,90,100)" stroke="rgb(255,193,7)" paint-order="fill stroke markers" d=" M 1391.25 472.375 L 1391.1960533403299 473.7480341752373 L 1391.034545960415 475.11260313820407 L 1390.7664736069594 476.46029386747836 L 1390.3934890351652 477.7827974015616 L 1389.9178918189475 479.07196006638907 L 1389.3426141732964 480.31983374544205 L 1388.6712028761965 481.5187248825291 L 1387.9077974015615 482.6612419151183 L 1387.0571043980005 483.74034084577823 L 1386.1243686707646 484.74936867076457 L 1385.1153408457783 485.68210439800055 L 1384.0362419151184 486.5327974015616 L 1382.893724882529 487.2962028761966 L 1381.694833745442 487.96761417329645 L 1380.446960066389 488.5428918189475 L 1379.1577974015615 489.0184890351652 L 1377.8352938674784 489.3914736069593 L 1376.4876031382041 489.6595459604149 L 1375.1230341752373 489.82105334032974 L 1373.75 489.875 L 1372.3769658247627 489.82105334032974 L 1371.0123968617959 489.6595459604149 L 1369.6647061325216 489.3914736069593 L 1368.3422025984385 489.0184890351652 L 1367.053039933611 488.5428918189475 L 1365.805166254558 487.96761417329645 L 1364.606275117471 487.2962028761966 L 1363.4637580848816 486.5327974015616 L 1362.3846591542217 485.68210439800055 L 1361.3756313292354 484.74936867076457 L 1360.4428956019995 483.74034084577823 L 1359.5922025984385 482.6612419151183 L 1358.8287971238035 481.5187248825291 L 1358.1573858267036 480.31983374544205 L 1357.5821081810525 479.07196006638907 L 1357.1065109648348 477.7827974015616 L 1356.7335263930406 476.46029386747836 L 1356.465454039585 475.11260313820407 L 1356.3039466596701 473.7480341752373 L 1356.25 472.375 L 1356.3039466596701 471.0019658247627 L 1356.465454039585 469.63739686179593 L 1356.7335263930406 468.28970613252164 L 1357.1065109648348 466.9672025984384 L 1357.5821081810525 465.67803993361093 L 1358.1573858267036 464.43016625455795 L 1358.8287971238035 463.2312751174709 L 1359.5922025984385 462.0887580848817 L 1360.4428956019995 461.00965915422177 L 1361.3756313292354 460.00063132923543 L 1362.3846591542217 459.06789560199945 L 1363.4637580848816 458.2172025984384 L 1364.606275117471 457.4537971238034 L 1365.805166254558 456.78238582670355 L 1367.053039933611 456.2071081810525 L 1368.3422025984385 455.7315109648348 L 1369.6647061325216 455.3585263930407 L 1371.012396861796 455.0904540395851 L 1372.3769658247627 454.92894665967026 L 1373.75 454.875 L 1375.1230341752373 454.92894665967026 L 1376.4876031382041 455.0904540395851 L 1377.8352938674784 455.3585263930407 L 1379.1577974015618 455.73151096483485 L 1380.4469600663892 456.2071081810525 L 1381.694833745442 456.7823858267036 L 1382.893724882529 457.45379712380344 L 1384.0362419151184 458.2172025984385 L 1385.1153408457783 459.06789560199957 L 1386.1243686707646 460.0006313292355 L 1387.0571043980005 461.0096591542219 L 1387.9077974015618 462.0887580848818 L 1388.6712028761967 463.23127511747106 L 1389.3426141732966 464.43016625455806 L 1389.9178918189475 465.6780399336111 L 1390.3934890351652 466.9672025984386 L 1390.7664736069594 468.2897061325218 L 1391.034545960415 469.63739686179616 L 1391.1960533403299 471.0019658247629 Z" fill-opacity="1" stroke-opacity="1" stroke-miterlimit="10" stroke-width="2"/><text fill="rgb(255,255,255)" stroke="none" font-family="times new roman" font-size="10px" font-style="normal" font-weight="normal" text-decoration="normal" x="1373.75" y="477.375" text-anchor="middle" dominant-baseline="text-after-edge" fill-opacity="1">*29.1</text><path fill="rgb(69,90,100)" stroke="rgb(76,175,80)" paint-order="fill stroke markers" d=" M 317 319.5 L 359.5 319.5 L 359.5 319.5 A 5 5 0 0 1 364.5 324.5 L 364.5 334.5 L 364.5 334.5 A 5 5 0 0 1 359.5 339.5 L 274.5 339.5 L 274.5 339.5 A 5 5 0 0 1 269.5 334.5 L 269.5 324.5 L 269.5 324.5 A 5 5 0 0 1 274.5 319.5 L 317 319.5 Z" fill-opacity="1" stroke-opacity="1" stroke-miterlimit="10" stroke-width="2"/><text fill="rgb(255,255,255)" stroke="none" font-family="times new roman" font-size="10px" font-style="normal" font-weight="normal" text-decoration="normal" x="317" y="334.5" text-anchor="middle" dominant-baseline="text-after-edge" fill-opacity="1">42132049dup</text><path fill="rgb(69,90,100)" stroke="rgb(189,189,189)" paint-order="fill stroke markers" d=" M 678.125 173.5 L 678.0556400089954 175.2653296538765 L 677.8479876633907 177.01977546340518 L 677.5033232089477 178.75252068675786 L 677.0237716166409 180.45288237343632 L 676.412289481504 182.11037722821453 L 675.6726467942383 183.71478624413982 L 674.8094036979671 185.25621770610886 L 673.8278823734363 186.72516817658064 L 672.7341342260007 188.11258108742913 L 671.5349025766973 189.4099025766973 L 670.2375810874291 190.6091342260007 L 668.8501681765806 191.70288237343632 L 667.3812177061088 192.68440369796707 L 665.8397862441398 193.5476467942383 L 664.2353772282145 194.28728948150396 L 662.5778823734363 194.89877161664094 L 660.8775206867579 195.37832320894773 L 659.1447754634052 195.7229876633906 L 657.3903296538765 195.93064000899537 L 655.625 196 L 653.8596703461235 195.93064000899537 L 652.1052245365948 195.7229876633906 L 650.3724793132421 195.37832320894773 L 648.6721176265637 194.89877161664094 L 647.0146227717855 194.28728948150396 L 645.4102137558602 193.5476467942383 L 643.8687822938912 192.68440369796707 L 642.3998318234194 191.70288237343632 L 641.0124189125709 190.6091342260007 L 639.7150974233027 189.40990257669733 L 638.5158657739993 188.11258108742913 L 637.4221176265637 186.72516817658064 L 636.4405963020329 185.25621770610886 L 635.5773532057617 183.71478624413982 L 634.837710518496 182.11037722821453 L 634.2262283833591 180.45288237343632 L 633.7466767910523 178.75252068675786 L 633.4020123366095 177.0197754634052 L 633.1943599910046 175.2653296538765 L 633.125 173.5 L 633.1943599910046 171.7346703461235 L 633.4020123366093 169.98022453659482 L 633.7466767910523 168.24747931324214 L 634.2262283833591 166.54711762656368 L 634.837710518496 164.88962277178547 L 635.5773532057617 163.2852137558602 L 636.4405963020329 161.74378229389114 L 637.4221176265637 160.27483182341936 L 638.5158657739993 158.88741891257087 L 639.7150974233027 157.5900974233027 L 641.0124189125709 156.3908657739993 L 642.3998318234194 155.29711762656368 L 643.8687822938912 154.31559630203293 L 645.4102137558602 153.4523532057617 L 647.0146227717855 152.71271051849604 L 648.6721176265637 152.10122838335903 L 650.3724793132421 151.62167679105227 L 652.1052245365948 151.2770123366094 L 653.8596703461236 151.0693599910046 L 655.6250000000001 151 L 657.3903296538766 151.06935999100463 L 659.1447754634053 151.2770123366094 L 660.877520686758 151.6216767910523 L 662.5778823734364 152.10122838335909 L 664.2353772282146 152.7127105184961 L 665.8397862441399 153.4523532057618 L 667.3812177061089 154.315596302033 L 668.8501681765807 155.29711762656376 L 670.2375810874292 156.39086577399942 L 671.5349025766974 157.5900974233028 L 672.7341342260008 158.887418912571 L 673.8278823734364 160.2748318234195 L 674.8094036979671 161.74378229389131 L 675.6726467942384 163.28521375586038 L 676.412289481504 164.8896227717857 L 677.023771616641 166.5471176265639 L 677.5033232089478 168.24747931324237 L 677.8479876633907 169.98022453659505 L 678.0556400089954 171.73467034612375 Z" fill-opacity="1" stroke-opacity="1" stroke-miterlimit="10" stroke-width="2"/><text fill="rgb(255,255,255)" stroke="none" font-family="times new roman" font-size="15px" font-style="normal" font-weight="normal" text-decoration="normal" x="655.625" y="181" text-anchor="middle" dominant-baseline="text-after-edge" fill-opacity="1">*107</text><path fill="rgb(69,90,100)" stroke="rgb(76,175,80)" paint-order="fill stroke markers" d=" M 1130.875 237.75 L 1130.875 257.75 L 1225.875 257.75 L 1225.875 237.75 Z" fill-opacity="1" stroke-opacity="1" stroke-miterlimit="10" stroke-width="2"/><text fill="rgb(255,255,255)" stroke="none" font-family="times new roman" font-size="10px" font-style="normal" font-weight="normal" text-decoration="normal" x="1178.375" y="252.75" text-anchor="middle" dominant-baseline="text-after-edge" fill-opacity="1">42130482C&gt;A</text><path fill="rgb(69,90,100)" stroke="rgb(76,175,80)" paint-order="fill stroke markers" d=" M 784.5 103 L 784.4460533403297 104.37303417523728 L 784.2845459604149 105.73760313820404 L 784.0164736069594 107.08529386747834 L 783.6434890351652 108.40779740156158 L 783.1678918189475 109.69696006638907 L 782.5926141732964 110.94483374544207 L 781.9212028761966 112.1437248825291 L 781.1577974015615 113.28624191511828 L 780.3071043980005 114.3653408457782 L 779.3743686707646 115.37436867076458 L 778.3653408457782 116.30710439800055 L 777.2862419151182 117.15779740156158 L 776.1437248825291 117.92120287619662 L 774.9448337454421 118.59261417329644 L 773.6969600663891 119.16789181894751 L 772.4077974015615 119.64348903516519 L 771.0852938674783 120.01647360695934 L 769.737603138204 120.2845459604149 L 768.3730341752373 120.44605334032974 L 767 120.5 L 765.6269658247627 120.44605334032974 L 764.262396861796 120.2845459604149 L 762.9147061325217 120.01647360695934 L 761.5922025984385 119.64348903516519 L 760.3030399336109 119.16789181894751 L 759.0551662545579 118.59261417329644 L 757.8562751174709 117.92120287619662 L 756.7137580848818 117.15779740156158 L 755.6346591542218 116.30710439800055 L 754.6256313292354 115.37436867076458 L 753.6928956019995 114.36534084577822 L 752.8422025984385 113.28624191511828 L 752.0787971238034 112.14372488252911 L 751.4073858267036 110.94483374544207 L 750.8321081810525 109.69696006638907 L 750.3565109648348 108.40779740156158 L 749.9835263930406 107.08529386747834 L 749.7154540395851 105.73760313820404 L 749.5539466596703 104.3730341752373 L 749.5 103 L 749.5539466596703 101.62696582476272 L 749.7154540395851 100.26239686179596 L 749.9835263930406 98.91470613252166 L 750.3565109648348 97.59220259843842 L 750.8321081810525 96.30303993361093 L 751.4073858267036 95.05516625455793 L 752.0787971238034 93.8562751174709 L 752.8422025984385 92.71375808488172 L 753.6928956019995 91.6346591542218 L 754.6256313292354 90.62563132923542 L 755.6346591542218 89.69289560199947 L 756.7137580848818 88.84220259843842 L 757.8562751174709 88.07879712380338 L 759.0551662545579 87.40738582670356 L 760.303039933611 86.83210818105248 L 761.5922025984385 86.3565109648348 L 762.9147061325217 85.98352639304065 L 764.262396861796 85.71545403958508 L 765.6269658247628 85.55394665967026 L 767.0000000000001 85.5 L 768.3730341752373 85.55394665967026 L 769.7376031382041 85.7154540395851 L 771.0852938674784 85.98352639304068 L 772.4077974015617 86.35651096483484 L 773.6969600663891 86.83210818105252 L 774.9448337454421 87.4073858267036 L 776.1437248825292 88.07879712380344 L 777.2862419151184 88.84220259843849 L 778.3653408457783 89.69289560199954 L 779.3743686707646 90.62563132923552 L 780.3071043980007 91.6346591542219 L 781.1577974015617 92.71375808488185 L 781.9212028761967 93.85627511747103 L 782.5926141732965 95.05516625455807 L 783.1678918189476 96.30303993361109 L 783.6434890351652 97.59220259843859 L 784.0164736069594 98.91470613252184 L 784.2845459604149 100.26239686179616 L 784.4460533403297 101.62696582476292 Z" fill-opacity="1" stroke-opacity="1" stroke-miterlimit="10" stroke-width="2"/><text fill="rgb(255,255,255)" stroke="none" font-family="times new roman" font-size="10px" font-style="normal" font-weight="normal" text-decoration="normal" x="767" y="108" text-anchor="middle" dominant-baseline="text-after-edge" fill-opacity="1">*39.2</text><path fill="rgb(69,90,100)" stroke="rgb(69,90,100)" paint-order="fill stroke markers" d=" M 832.25 586.5 L 813.5 604 L 832.25 621.5 L 869.75 621.5 L 888.5 604 L 869.75 586.5 Z" fill-opacity="1" stroke-opacity="1" stroke-miterlimit="10" stroke-width="2"/><text fill="rgb(255,255,255)" stroke="none" font-family="times new roman" font-size="10px" font-style="normal" font-weight="normal" text-decoration="normal" x="851" y="609" text-anchor="middle" dominant-baseline="text-after-edge" fill-opacity="1">NA18519-A</text><path fill="rgb(69,90,100)" stroke="rgb(76,175,80)" paint-order="fill stroke markers" d=" M 1086.875 173.5 L 1086.8056400089954 175.2653296538765 L 1086.5979876633905 177.01977546340518 L 1086.2533232089477 178.75252068675786 L 1085.773771616641 180.45288237343632 L 1085.1622894815039 182.11037722821453 L 1084.4226467942383 183.71478624413982 L 1083.5594036979671 185.25621770610886 L 1082.5778823734363 186.72516817658064 L 1081.4841342260006 188.11258108742913 L 1080.2849025766973 189.4099025766973 L 1078.9875810874291 190.6091342260007 L 1077.6001681765806 191.70288237343632 L 1076.1312177061088 192.68440369796707 L 1074.5897862441398 193.5476467942383 L 1072.9853772282145 194.28728948150396 L 1071.3278823734363 194.89877161664094 L 1069.6275206867579 195.37832320894773 L 1067.8947754634053 195.7229876633906 L 1066.1403296538765 195.93064000899537 L 1064.375 196 L 1062.6096703461235 195.93064000899537 L 1060.8552245365947 195.7229876633906 L 1059.1224793132421 195.37832320894773 L 1057.4221176265637 194.89877161664094 L 1055.7646227717855 194.28728948150396 L 1054.1602137558602 193.5476467942383 L 1052.6187822938912 192.68440369796707 L 1051.1498318234194 191.70288237343632 L 1049.7624189125709 190.6091342260007 L 1048.4650974233027 189.40990257669733 L 1047.2658657739994 188.11258108742913 L 1046.1721176265637 186.72516817658064 L 1045.1905963020329 185.25621770610886 L 1044.3273532057617 183.71478624413982 L 1043.5877105184961 182.11037722821453 L 1042.976228383359 180.45288237343632 L 1042.4966767910523 178.75252068675786 L 1042.1520123366095 177.0197754634052 L 1041.9443599910046 175.2653296538765 L 1041.875 173.5 L 1041.9443599910046 171.7346703461235 L 1042.1520123366095 169.98022453659482 L 1042.4966767910523 168.24747931324214 L 1042.976228383359 166.54711762656368 L 1043.5877105184961 164.88962277178547 L 1044.3273532057617 163.2852137558602 L 1045.1905963020329 161.74378229389114 L 1046.1721176265637 160.27483182341936 L 1047.2658657739994 158.88741891257087 L 1048.4650974233027 157.5900974233027 L 1049.7624189125709 156.3908657739993 L 1051.1498318234194 155.29711762656368 L 1052.6187822938912 154.31559630203293 L 1054.1602137558602 153.4523532057617 L 1055.7646227717855 152.71271051849604 L 1057.4221176265637 152.10122838335903 L 1059.1224793132421 151.62167679105227 L 1060.855224536595 151.2770123366094 L 1062.6096703461235 151.0693599910046 L 1064.375 151 L 1066.1403296538765 151.06935999100463 L 1067.8947754634053 151.2770123366094 L 1069.6275206867579 151.6216767910523 L 1071.3278823734365 152.10122838335909 L 1072.9853772282147 152.7127105184961 L 1074.58978624414 153.4523532057618 L 1076.131217706109 154.315596302033 L 1077.6001681765808 155.29711762656376 L 1078.9875810874294 156.39086577399942 L 1080.2849025766975 157.5900974233028 L 1081.4841342260008 158.887418912571 L 1082.5778823734365 160.2748318234195 L 1083.5594036979671 161.74378229389131 L 1084.4226467942383 163.28521375586038 L 1085.162289481504 164.8896227717857 L 1085.773771616641 166.5471176265639 L 1086.2533232089477 168.24747931324237 L 1086.5979876633905 169.98022453659505 L 1086.8056400089954 171.73467034612375 Z" fill-opacity="1" stroke-opacity="1" stroke-miterlimit="10" stroke-width="2"/><text fill="rgb(255,255,255)" stroke="none" font-family="times new roman" font-size="15px" font-style="normal" font-weight="normal" text-decoration="normal" x="1064.375" y="181" text-anchor="middle" dominant-baseline="text-after-edge" fill-opacity="1">*34</text><path fill="rgb(69,90,100)" stroke="rgb(76,175,80)" paint-order="fill stroke markers" d=" M 1011.375 173.5 L 1011.3210533403297 174.87303417523728 L 1011.1595459604149 176.23760313820404 L 1010.8914736069594 177.58529386747836 L 1010.5184890351652 178.90779740156157 L 1010.0428918189475 180.19696006638907 L 1009.4676141732964 181.44483374544205 L 1008.7962028761966 182.6437248825291 L 1008.0327974015615 183.78624191511827 L 1007.1821043980005 184.8653408457782 L 1006.2493686707646 185.87436867076457 L 1005.2403408457782 186.80710439800055 L 1004.1612419151182 187.6577974015616 L 1003.0187248825291 188.42120287619662 L 1001.8198337454421 189.09261417329643 L 1000.5719600663891 189.6678918189475 L 999.2827974015615 190.14348903516517 L 997.9602938674783 190.51647360695935 L 996.612603138204 190.7845459604149 L 995.2480341752373 190.94605334032974 L 993.875 191 L 992.5019658247627 190.94605334032974 L 991.137396861796 190.7845459604149 L 989.7897061325217 190.51647360695935 L 988.4672025984385 190.1434890351652 L 987.1780399336109 189.6678918189475 L 985.9301662545579 189.09261417329643 L 984.7312751174709 188.42120287619662 L 983.5887580848818 187.6577974015616 L 982.5096591542218 186.80710439800055 L 981.5006313292354 185.87436867076457 L 980.5678956019995 184.8653408457782 L 979.7172025984385 183.7862419151183 L 978.9537971238034 182.6437248825291 L 978.2823858267036 181.44483374544208 L 977.7071081810525 180.19696006638907 L 977.2315109648348 178.9077974015616 L 976.8585263930406 177.58529386747836 L 976.5904540395851 176.23760313820404 L 976.4289466596703 174.87303417523728 L 976.375 173.5 L 976.4289466596703 172.12696582476272 L 976.5904540395851 170.76239686179596 L 976.8585263930406 169.41470613252164 L 977.2315109648348 168.09220259843843 L 977.7071081810525 166.80303993361093 L 978.2823858267036 165.55516625455795 L 978.9537971238034 164.3562751174709 L 979.7172025984385 163.21375808488173 L 980.5678956019995 162.1346591542218 L 981.5006313292354 161.12563132923543 L 982.5096591542218 160.19289560199945 L 983.5887580848818 159.34220259843843 L 984.7312751174709 158.57879712380338 L 985.9301662545579 157.90738582670355 L 987.178039933611 157.3321081810525 L 988.4672025984385 156.8565109648348 L 989.7897061325217 156.48352639304065 L 991.137396861796 156.2154540395851 L 992.5019658247628 156.05394665967026 L 993.8750000000001 156 L 995.2480341752373 156.05394665967026 L 996.6126031382041 156.2154540395851 L 997.9602938674784 156.48352639304068 L 999.2827974015617 156.85651096483485 L 1000.5719600663891 157.33210818105252 L 1001.8198337454421 157.9073858267036 L 1003.0187248825292 158.57879712380344 L 1004.1612419151184 159.3422025984385 L 1005.2403408457783 160.19289560199954 L 1006.2493686707646 161.12563132923552 L 1007.1821043980007 162.1346591542219 L 1008.0327974015617 163.21375808488185 L 1008.7962028761967 164.35627511747103 L 1009.4676141732965 165.5551662545581 L 1010.0428918189476 166.8030399336111 L 1010.5184890351652 168.0922025984386 L 1010.8914736069594 169.41470613252184 L 1011.1595459604149 170.76239686179616 L 1011.3210533403297 172.12696582476292 Z" fill-opacity="1" stroke-opacity="1" stroke-miterlimit="10" stroke-width="2"/><text fill="rgb(255,255,255)" stroke="none" font-family="times new roman" font-size="10px" font-style="normal" font-weight="normal" text-decoration="normal" x="993.875" y="178.5" text-anchor="middle" dominant-baseline="text-after-edge" fill-opacity="1">*2.4</text><path fill="rgb(69,90,100)" stroke="rgb(189,189,189)" paint-order="fill stroke markers" d=" M 717.75 103 L 717.6960533403297 104.37303417523728 L 717.5345459604149 105.73760313820404 L 717.2664736069594 107.08529386747834 L 716.8934890351652 108.40779740156158 L 716.4178918189475 109.69696006638907 L 715.8426141732964 110.94483374544207 L 715.1712028761966 112.1437248825291 L 714.4077974015615 113.28624191511828 L 713.5571043980005 114.3653408457782 L 712.6243686707646 115.37436867076458 L 711.6153408457782 116.30710439800055 L 710.5362419151182 117.15779740156158 L 709.3937248825291 117.92120287619662 L 708.1948337454421 118.59261417329644 L 706.9469600663891 119.16789181894751 L 705.6577974015615 119.64348903516519 L 704.3352938674783 120.01647360695934 L 702.987603138204 120.2845459604149 L 701.6230341752373 120.44605334032974 L 700.25 120.5 L 698.8769658247627 120.44605334032974 L 697.512396861796 120.2845459604149 L 696.1647061325217 120.01647360695934 L 694.8422025984385 119.64348903516519 L 693.5530399336109 119.16789181894751 L 692.3051662545579 118.59261417329644 L 691.1062751174709 117.92120287619662 L 689.9637580848818 117.15779740156158 L 688.8846591542218 116.30710439800055 L 687.8756313292354 115.37436867076458 L 686.9428956019995 114.36534084577822 L 686.0922025984385 113.28624191511828 L 685.3287971238034 112.14372488252911 L 684.6573858267036 110.94483374544207 L 684.0821081810525 109.69696006638907 L 683.6065109648348 108.40779740156158 L 683.2335263930406 107.08529386747834 L 682.9654540395851 105.73760313820404 L 682.8039466596703 104.3730341752373 L 682.75 103 L 682.8039466596703 101.62696582476272 L 682.9654540395851 100.26239686179596 L 683.2335263930406 98.91470613252166 L 683.6065109648348 97.59220259843842 L 684.0821081810525 96.30303993361093 L 684.6573858267036 95.05516625455793 L 685.3287971238034 93.8562751174709 L 686.0922025984385 92.71375808488172 L 686.9428956019995 91.6346591542218 L 687.8756313292354 90.62563132923542 L 688.8846591542218 89.69289560199947 L 689.9637580848818 88.84220259843842 L 691.1062751174709 88.07879712380338 L 692.3051662545579 87.40738582670356 L 693.553039933611 86.83210818105248 L 694.8422025984385 86.3565109648348 L 696.1647061325217 85.98352639304065 L 697.512396861796 85.71545403958508 L 698.8769658247628 85.55394665967026 L 700.2500000000001 85.5 L 701.6230341752373 85.55394665967026 L 702.9876031382041 85.7154540395851 L 704.3352938674784 85.98352639304068 L 705.6577974015617 86.35651096483484 L 706.9469600663891 86.83210818105252 L 708.1948337454421 87.4073858267036 L 709.3937248825292 88.07879712380344 L 710.5362419151184 88.84220259843849 L 711.6153408457783 89.69289560199954 L 712.6243686707646 90.62563132923552 L 713.5571043980007 91.6346591542219 L 714.4077974015617 92.71375808488185 L 715.1712028761967 93.85627511747103 L 715.8426141732965 95.05516625455807 L 716.4178918189476 96.30303993361109 L 716.8934890351652 97.59220259843859 L 717.2664736069594 98.91470613252184 L 717.5345459604149 100.26239686179616 L 717.6960533403297 101.62696582476292 Z" fill-opacity="1" stroke-opacity="1" stroke-miterlimit="10" stroke-width="2"/><text fill="rgb(255,255,255)" stroke="none" font-family="times new roman" font-size="10px" font-style="normal" font-weight="normal" text-decoration="normal" x="700.25" y="108" text-anchor="middle" dominant-baseline="text-after-edge" fill-opacity="1">*107.1</text><path fill="rgb(176,190,197)" stroke="none" paint-order="stroke fill markers" d=" M 317 367.375 L 384 367.375 L 384 367.375 A 8 8 0 0 1 392 375.375 L 392 569.375 L 392 569.375 A 8 8 0 0 1 384 577.375 L 250 577.375 L 250 577.375 A 8 8 0 0 1 242 569.375 L 242 375.375 L 242 375.375 A 8 8 0 0 1 250 367.375 L 317 367.375 Z" fill-opacity="0.8"/><text fill="rgb(0,0,0)" stroke="none" font-family="times new roman" font-size="10px" font-style="normal" font-weight="normal" text-decoration="normal" x="247" y="382.375" text-anchor="start" dominant-baseline="text-after-edge" fill-opacity="0.8">42125924A&gt;G </text><text fill="rgb(0,0,0)" stroke="none" font-family="times new roman" font-size="10px" font-style="normal" font-weight="normal" text-decoration="normal" x="247" y="392.375" text-anchor="start" dominant-baseline="text-after-edge" fill-opacity="0.8">42126069A&gt;C </text><text fill="rgb(0,0,0)" stroke="none" font-family="times new roman" font-size="10px" font-style="normal" font-weight="normal" text-decoration="normal" x="247" y="402.375" text-anchor="start" dominant-baseline="text-after-edge" fill-opacity="0.8">42132027C&gt;T </text><text fill="rgb(0,0,0)" stroke="none" font-family="times new roman" font-size="10px" font-style="normal" font-weight="normal" text-decoration="normal" x="247" y="412.375" text-anchor="start" dominant-baseline="text-after-edge" fill-opacity="0.8">42132844C&gt;A </text><text fill="rgb(0,0,0)" stroke="none" font-family="times new roman" font-size="10px" font-style="normal" font-weight="normal" text-decoration="normal" x="247" y="422.375" text-anchor="start" dominant-baseline="text-after-edge" fill-opacity="0.8">42132851T&gt;C </text><text fill="rgb(0,0,0)" stroke="none" font-family="times new roman" font-size="10px" font-style="normal" font-weight="normal" text-decoration="normal" x="247" y="432.375" text-anchor="start" dominant-baseline="text-after-edge" fill-opacity="0.8">42132969C&gt;T </text><text fill="rgb(0,0,0)" stroke="none" font-family="times new roman" font-size="10px" font-style="normal" font-weight="normal" text-decoration="normal" x="247" y="442.375" text-anchor="start" dominant-baseline="text-after-edge" fill-opacity="0.8">42133400T&gt;G </text><text fill="rgb(0,0,0)" stroke="none" font-family="times new roman" font-size="10px" font-style="normal" font-weight="normal" text-decoration="normal" x="247" y="452.375" text-anchor="start" dominant-baseline="text-after-edge" fill-opacity="0.8">42133533A&gt;C </text><text fill="rgb(0,0,0)" stroke="none" font-family="times new roman" font-size="10px" font-style="normal" font-weight="normal" text-decoration="normal" x="247" y="462.375" text-anchor="start" dominant-baseline="text-after-edge" fill-opacity="0.8">42134096del </text><text fill="rgb(0,0,0)" stroke="none" font-family="times new roman" font-size="10px" font-style="normal" font-weight="normal" text-decoration="normal" x="247" y="472.375" text-anchor="start" dominant-baseline="text-after-edge" fill-opacity="0.8">42134820T&gt;G </text><text fill="rgb(0,0,0)" stroke="none" font-family="times new roman" font-size="10px" font-style="normal" font-weight="normal" text-decoration="normal" x="247" y="482.375" text-anchor="start" dominant-baseline="text-after-edge" fill-opacity="0.8">42135064_42135066dup </text><text fill="rgb(0,0,0)" stroke="none" font-family="times new roman" font-size="10px" font-style="normal" font-weight="normal" text-decoration="normal" x="247" y="492.375" text-anchor="start" dominant-baseline="text-after-edge" fill-opacity="0.8">42135083G&gt;A </text><text fill="rgb(0,0,0)" stroke="none" font-family="times new roman" font-size="10px" font-style="normal" font-weight="normal" text-decoration="normal" x="247" y="502.375" text-anchor="start" dominant-baseline="text-after-edge" fill-opacity="0.8">42135201T&gt;C </text><text fill="rgb(0,0,0)" stroke="none" font-family="times new roman" font-size="10px" font-style="normal" font-weight="normal" text-decoration="normal" x="247" y="512.375" text-anchor="start" dominant-baseline="text-after-edge" fill-opacity="0.8">42135456C&gt;G </text><text fill="rgb(0,0,0)" stroke="none" font-family="times new roman" font-size="10px" font-style="normal" font-weight="normal" text-decoration="normal" x="247" y="522.375" text-anchor="start" dominant-baseline="text-after-edge" fill-opacity="0.8">42135691T&gt;C </text><g transform="scale(1.642110762800418,1.642110762800418) translate(116.76232898504622,-88.72828507795097)"/></g></svg>