<svg version="1.1" xmlns="http://www.w3.org/2000/svg" xmlns:xlink="http://www.w3.org/1999/xlink" width="1017" height="608"><defs/><g transform="translate(-79.2036430618092,-51.313958248055656) scale(1.7945149406467458,1.7945149406467458)"><path fill="none" stroke="rgb(120,144,156)" paint-order="fill stroke markers" d=" M 164.21428571428572 275.9375 L 318.68113212202434 321.87371902975235" stroke-opacity="1" stroke-linejoin="round" stroke-miterlimit="10"/><path fill="rgb(120,144,156)" stroke="none" paint-order="stroke fill markers" d=" M 311.0191344701513 324.1334296268625 L 320.59815857812555 322.44381513271054 L 313.4990525180195 315.7943645428223 Z" fill-opacity="1"/><path fill="none" stroke="rgb(120,144,156)" paint-order="fill stroke markers" d=" M 373.328612505642 206.21458816836025 L 424.8771326157588 248.6394764005802" stroke-opacity="1" stroke-linejoin="round" stroke-miterlimit="10"/><path fill="rgb(120,144,156)" stroke="none" paint-order="stroke fill markers" d=" M 416.9395942098969 247.74059706748406 L 426.421387494358 249.91041183163975 L 422.46816333500584 241.02308834557743 Z" fill-opacity="1"/><path fill="none" stroke="rgb(120,144,156)" paint-order="fill stroke markers" d=" M 511.171387494358 206.21458816836025 L 459.6228673842412 248.6394764005802" stroke-opacity="1" stroke-linejoin="round" stroke-miterlimit="10"/><path fill="rgb(120,144,156)" stroke="none" paint-order="stroke fill markers" d=" M 462.03183666499416 241.02308834557743 L 458.078612505642 249.91041183163975 L 467.5604057901031 247.74059706748406 Z" fill-opacity="1"/><path fill="none" stroke="rgb(120,144,156)" paint-order="fill stroke markers" d=" M 351.39784946236557 136.4375 L 355.09451136236703 170.81645567001357" stroke-opacity="1" stroke-linejoin="round" stroke-miterlimit="10"/><path fill="rgb(120,144,156)" stroke="none" paint-order="stroke fill markers" d=" M 350.053141730919 164.61991693947107 L 355.3083325746011 172.80499294379013 L 358.70327887184703 163.689794666253 Z" fill-opacity="1"/><path fill="none" stroke="rgb(120,144,156)" paint-order="fill stroke markers" d=" M 458.078612505642 136.46458816836025 L 509.6271326157588 178.8894764005802" stroke-opacity="1" stroke-linejoin="round" stroke-miterlimit="10"/><path fill="rgb(120,144,156)" stroke="none" paint-order="stroke fill markers" d=" M 501.6895942098969 177.99059706748406 L 511.171387494358 180.16041183163975 L 507.21816333500584 171.27308834557743 Z" fill-opacity="1"/><path fill="none" stroke="rgb(120,144,156)" paint-order="fill stroke markers" d=" M 533.1021505376344 136.4375 L 529.405488637633 170.81645567001357" stroke-opacity="1" stroke-linejoin="round" stroke-miterlimit="10"/><path fill="rgb(120,144,156)" stroke="none" paint-order="stroke fill markers" d=" M 525.796721128153 163.689794666253 L 529.1916674253989 172.80499294379013 L 534.4468582690811 164.61991693947107 Z" fill-opacity="1"/><path fill="none" stroke="rgb(120,144,156)" paint-order="fill stroke markers" d=" M 396.50657894736844 72.3125 L 427.24711566192894 106.66957044568527" stroke-opacity="1" stroke-linejoin="round" stroke-miterlimit="10"/><path fill="rgb(120,144,156)" stroke="none" paint-order="stroke fill markers" d=" M 419.53779038964694 104.57701128376087 L 428.5807053808686 108.16005307273547 L 426.0213898173153 98.77589600637336 Z" fill-opacity="1"/><path fill="none" stroke="rgb(120,144,156)" paint-order="fill stroke markers" d=" M 257.1071428571429 275.9375 L 324.49924046867653 316.02038158594485" stroke-opacity="1" stroke-linejoin="round" stroke-miterlimit="10"/><path fill="rgb(120,144,156)" stroke="none" paint-order="stroke fill markers" d=" M 316.51713105050595 316.33411592635434 L 326.2181788422718 317.0427566970375 L 320.9644627837588 308.8567340012149 Z" fill-opacity="1"/><path fill="none" stroke="rgb(120,144,156)" paint-order="fill stroke markers" d=" M 487.99342105263156 72.3125 L 457.25288433807106 106.66957044568527" stroke-opacity="1" stroke-linejoin="round" stroke-miterlimit="10"/><path fill="rgb(120,144,156)" stroke="none" paint-order="stroke fill markers" d=" M 458.4786101826847 98.77589600637336 L 455.9192946191314 108.16005307273547 L 464.96220961035306 104.57701128376087 Z" fill-opacity="1"/><path fill="none" stroke="rgb(120,144,156)" paint-order="fill stroke markers" d=" M 426.421387494358 136.46458816836025 L 374.8728673842412 178.8894764005802" stroke-opacity="1" stroke-linejoin="round" stroke-miterlimit="10"/><path fill="rgb(120,144,156)" stroke="none" paint-order="stroke fill markers" d=" M 377.28183666499416 171.27308834557743 L 373.328612505642 180.16041183163975 L 382.8104057901031 177.99059706748406 Z" fill-opacity="1"/><path fill="none" stroke="rgb(120,144,156)" paint-order="fill stroke markers" d=" M 350 275.9375 L 350 310.6875" stroke-opacity="1" stroke-linejoin="round" stroke-miterlimit="10"/><path fill="rgb(120,144,156)" stroke="none" paint-order="stroke fill markers" d=" M 345.65 303.9875 L 350 312.6875 L 354.35 303.9875 Z" fill-opacity="1"/><path fill="none" stroke="rgb(120,144,156)" paint-order="fill stroke markers" d=" M 425.7699598416028 275.13005003588734 L 373.3613006328026 313.9039361171948" stroke-opacity="1" stroke-linejoin="round" stroke-miterlimit="10"/><path fill="rgb(120,144,156)" stroke="none" paint-order="stroke fill markers" d=" M 376.1602604574441 306.42206977917175 L 371.75349183686143 315.09345319386676 L 381.334659740967 313.41603804151595 Z" fill-opacity="1"/><path fill="none" stroke="rgb(120,144,156)" paint-order="fill stroke markers" d=" M 499.3571428571429 275.9375 L 379.67530526209646 320.21004967946834" stroke-opacity="1" stroke-linejoin="round" stroke-miterlimit="10"/><path fill="rgb(120,144,156)" stroke="none" paint-order="stroke fill markers" d=" M 384.449948975469 313.8057325878221 L 377.79953195033914 320.9039333029233 L 387.468342737498 321.9653464939665 Z" fill-opacity="1"/><path fill="rgb(69,90,100)" stroke="rgb(189,189,189)" paint-order="fill stroke markers" d=" M 235.25 252.9375 L 277.75 252.9375 L 277.75 252.9375 A 5 5 0 0 1 282.75 257.9375 L 282.75 267.9375 L 282.75 267.9375 A 5 5 0 0 1 277.75 272.9375 L 192.75 272.9375 L 192.75 272.9375 A 5 5 0 0 1 187.75 267.9375 L 187.75 257.9375 L 187.75 257.9375 A 5 5 0 0 1 192.75 252.9375 L 235.25 252.9375 Z" fill-opacity="1" stroke-opacity="1" stroke-miterlimit="10" stroke-width="6"/><text fill="rgb(255,255,255)" stroke="none" font-family="times new roman" font-size="10px" font-style="normal" font-weight="normal" text-decoration="normal" x="235.25" y="267.9375" text-anchor="middle" dominant-baseline="text-after-edge" fill-opacity="1">42134820T&gt;G</text><path fill="rgb(69,90,100)" stroke="rgb(189,189,189)" paint-order="fill stroke markers" d=" M 120.5 252.9375 L 163 252.9375 L 163 252.9375 A 5 5 0 0 1 168 257.9375 L 168 267.9375 L 168 267.9375 A 5 5 0 0 1 163 272.9375 L 78 272.9375 L 78 272.9375 A 5 5 0 0 1 73 267.9375 L 73 257.9375 L 73 257.9375 A 5 5 0 0 1 78 252.9375 L 120.5 252.9375 Z" fill-opacity="1" stroke-opacity="1" stroke-miterlimit="10" stroke-width="6"/><text fill="rgb(255,255,255)" stroke="none" font-family="times new roman" font-size="10px" font-style="normal" font-weight="normal" text-decoration="normal" x="120.5" y="267.9375" text-anchor="middle" dominant-baseline="text-after-edge" fill-opacity="1">42133323C&gt;T</text><path fill="rgb(69,90,100)" stroke="rgb(76,175,80)" paint-order="fill stroke markers" d=" M 337.375 49.3125 L 337.375 69.3125 L 432.375 69.3125 L 432.375 49.3125 Z" fill-opacity="1" stroke-opacity="1" stroke-miterlimit="10" stroke-width="6"/><text fill="rgb(255,255,255)" stroke="none" font-family="times new roman" font-size="10px" font-style="normal" font-weight="normal" text-decoration="normal" x="384.875" y="64.3125" text-anchor="middle" dominant-baseline="text-after-edge" fill-opacity="1">42129950A&gt;C</text><path fill="rgb(69,90,100)" stroke="rgb(76,175,80)" paint-order="fill stroke markers" d=" M 459.75 262.9375 L 459.69605334032974 264.3105341752373 L 459.5345459604149 265.67510313820407 L 459.2664736069593 267.02279386747836 L 458.8934890351652 268.3452974015616 L 458.4178918189475 269.63446006638907 L 457.84261417329645 270.88233374544205 L 457.1712028761966 272.0812248825291 L 456.4077974015616 273.2237419151183 L 455.55710439800055 274.30284084577823 L 454.62436867076457 275.31186867076457 L 453.61534084577823 276.24460439800055 L 452.5362419151183 277.0952974015616 L 451.3937248825291 277.8587028761966 L 450.19483374544205 278.53011417329645 L 448.94696006638907 279.1053918189475 L 447.6577974015616 279.5809890351652 L 446.33529386747836 279.9539736069593 L 444.98760313820407 280.2220459604149 L 443.6230341752373 280.38355334032974 L 442.25 280.4375 L 440.8769658247627 280.38355334032974 L 439.51239686179593 280.2220459604149 L 438.16470613252164 279.9539736069593 L 436.8422025984384 279.5809890351652 L 435.55303993361093 279.1053918189475 L 434.30516625455795 278.53011417329645 L 433.1062751174709 277.8587028761966 L 431.9637580848817 277.0952974015616 L 430.88465915422177 276.24460439800055 L 429.87563132923543 275.31186867076457 L 428.94289560199945 274.30284084577823 L 428.0922025984384 273.2237419151183 L 427.3287971238034 272.0812248825291 L 426.65738582670355 270.88233374544205 L 426.0821081810525 269.63446006638907 L 425.6065109648348 268.3452974015616 L 425.2335263930407 267.02279386747836 L 424.9654540395851 265.67510313820407 L 424.80394665967026 264.3105341752373 L 424.75 262.9375 L 424.80394665967026 261.5644658247627 L 424.9654540395851 260.19989686179593 L 425.2335263930407 258.85220613252164 L 425.6065109648348 257.5297025984384 L 426.0821081810525 256.24053993361093 L 426.65738582670355 254.99266625455795 L 427.3287971238034 253.7937751174709 L 428.0922025984384 252.65125808488173 L 428.94289560199945 251.5721591542218 L 429.87563132923543 250.56313132923543 L 430.88465915422177 249.63039560199945 L 431.9637580848817 248.77970259843843 L 433.1062751174709 248.01629712380338 L 434.30516625455795 247.34488582670355 L 435.55303993361093 246.7696081810525 L 436.84220259843846 246.2940109648348 L 438.1647061325217 245.92102639304065 L 439.512396861796 245.6529540395851 L 440.87696582476275 245.49144665967026 L 442.25000000000006 245.4375 L 443.62303417523736 245.49144665967026 L 444.9876031382041 245.6529540395851 L 446.3352938674784 245.92102639304068 L 447.65779740156165 246.29401096483485 L 448.9469600663892 246.76960818105252 L 450.19483374544217 247.3448858267036 L 451.3937248825292 248.01629712380344 L 452.53624191511835 248.7797025984385 L 453.6153408457783 249.63039560199954 L 454.6243686707647 250.56313132923552 L 455.55710439800066 251.5721591542219 L 456.40779740156165 252.65125808488185 L 457.1712028761967 253.79377511747103 L 457.8426141732965 254.9926662545581 L 458.41789181894757 256.2405399336111 L 458.89348903516526 257.5297025984386 L 459.2664736069594 258.8522061325218 L 459.53454596041496 260.19989686179616 L 459.69605334032974 261.5644658247629 Z" fill-opacity="1" stroke-opacity="1" stroke-miterlimit="10" stroke-width="6"/><text fill="rgb(255,255,255)" stroke="none" font-family="times new roman" font-size="10px" font-style="normal" font-weight="normal" text-decoration="normal" x="442.25" y="267.9375" text-anchor="middle" dominant-baseline="text-after-edge" fill-opacity="1">*1.45</text><path fill="rgb(69,90,100)" stroke="rgb(76,175,80)" paint-order="fill stroke markers" d=" M 375 193.1875 L 374.94605334032974 194.56053417523728 L 374.7845459604149 195.92510313820404 L 374.5164736069593 197.27279386747836 L 374.1434890351652 198.59529740156157 L 373.6678918189475 199.88446006638907 L 373.09261417329645 201.13233374544205 L 372.4212028761966 202.3312248825291 L 371.6577974015616 203.47374191511827 L 370.80710439800055 204.5528408457782 L 369.87436867076457 205.56186867076457 L 368.86534084577823 206.49460439800055 L 367.7862419151183 207.3452974015616 L 366.6437248825291 208.10870287619662 L 365.44483374544205 208.78011417329643 L 364.19696006638907 209.3553918189475 L 362.9077974015616 209.83098903516517 L 361.58529386747836 210.20397360695935 L 360.23760313820407 210.4720459604149 L 358.8730341752373 210.63355334032974 L 357.5 210.6875 L 356.1269658247627 210.63355334032974 L 354.76239686179593 210.4720459604149 L 353.41470613252164 210.20397360695935 L 352.0922025984384 209.8309890351652 L 350.80303993361093 209.3553918189475 L 349.55516625455795 208.78011417329643 L 348.3562751174709 208.10870287619662 L 347.2137580848817 207.3452974015616 L 346.13465915422177 206.49460439800055 L 345.12563132923543 205.56186867076457 L 344.19289560199945 204.5528408457782 L 343.3422025984384 203.4737419151183 L 342.5787971238034 202.3312248825291 L 341.90738582670355 201.13233374544208 L 341.3321081810525 199.88446006638907 L 340.8565109648348 198.5952974015616 L 340.4835263930407 197.27279386747836 L 340.2154540395851 195.92510313820404 L 340.05394665967026 194.56053417523728 L 340 193.1875 L 340.05394665967026 191.81446582476272 L 340.2154540395851 190.44989686179596 L 340.4835263930407 189.10220613252164 L 340.8565109648348 187.77970259843843 L 341.3321081810525 186.49053993361093 L 341.90738582670355 185.24266625455795 L 342.5787971238034 184.0437751174709 L 343.3422025984384 182.90125808488173 L 344.19289560199945 181.8221591542218 L 345.12563132923543 180.81313132923543 L 346.13465915422177 179.88039560199945 L 347.2137580848817 179.02970259843843 L 348.3562751174709 178.26629712380338 L 349.55516625455795 177.59488582670355 L 350.80303993361093 177.0196081810525 L 352.09220259843846 176.5440109648348 L 353.4147061325217 176.17102639304065 L 354.762396861796 175.9029540395851 L 356.12696582476275 175.74144665967026 L 357.50000000000006 175.6875 L 358.87303417523736 175.74144665967026 L 360.2376031382041 175.9029540395851 L 361.5852938674784 176.17102639304068 L 362.90779740156165 176.54401096483485 L 364.1969600663892 177.01960818105252 L 365.44483374544217 177.5948858267036 L 366.6437248825292 178.26629712380344 L 367.78624191511835 179.0297025984385 L 368.8653408457783 179.88039560199954 L 369.8743686707647 180.81313132923552 L 370.80710439800066 181.8221591542219 L 371.65779740156165 182.90125808488185 L 372.4212028761967 184.04377511747103 L 373.0926141732965 185.2426662545581 L 373.66789181894757 186.4905399336111 L 374.14348903516526 187.7797025984386 L 374.5164736069594 189.10220613252184 L 374.78454596041496 190.44989686179616 L 374.94605334032974 191.81446582476292 Z" fill-opacity="1" stroke-opacity="1" stroke-miterlimit="10" stroke-width="6"/><text fill="rgb(255,255,255)" stroke="none" font-family="times new roman" font-size="10px" font-style="normal" font-weight="normal" text-decoration="normal" x="357.5" y="198.1875" text-anchor="middle" dominant-baseline="text-after-edge" fill-opacity="1">*1.6</text><path fill="rgb(69,90,100)" stroke="rgb(76,175,80)" paint-order="fill stroke markers" d=" M 544.5 193.1875 L 544.4460533403297 194.56053417523728 L 544.2845459604149 195.92510313820404 L 544.0164736069594 197.27279386747836 L 543.6434890351652 198.59529740156157 L 543.1678918189475 199.88446006638907 L 542.5926141732964 201.13233374544205 L 541.9212028761966 202.3312248825291 L 541.1577974015615 203.47374191511827 L 540.3071043980005 204.5528408457782 L 539.3743686707646 205.56186867076457 L 538.3653408457782 206.49460439800055 L 537.2862419151182 207.3452974015616 L 536.1437248825291 208.10870287619662 L 534.9448337454421 208.78011417329643 L 533.6969600663891 209.3553918189475 L 532.4077974015615 209.83098903516517 L 531.0852938674783 210.20397360695935 L 529.737603138204 210.4720459604149 L 528.3730341752373 210.63355334032974 L 527 210.6875 L 525.6269658247627 210.63355334032974 L 524.262396861796 210.4720459604149 L 522.9147061325217 210.20397360695935 L 521.5922025984385 209.8309890351652 L 520.3030399336109 209.3553918189475 L 519.0551662545579 208.78011417329643 L 517.8562751174709 208.10870287619662 L 516.7137580848818 207.3452974015616 L 515.6346591542218 206.49460439800055 L 514.6256313292354 205.56186867076457 L 513.6928956019995 204.5528408457782 L 512.8422025984385 203.4737419151183 L 512.0787971238034 202.3312248825291 L 511.40738582670355 201.13233374544208 L 510.8321081810525 199.88446006638907 L 510.3565109648348 198.5952974015616 L 509.9835263930407 197.27279386747836 L 509.7154540395851 195.92510313820404 L 509.55394665967026 194.56053417523728 L 509.5 193.1875 L 509.55394665967026 191.81446582476272 L 509.7154540395851 190.44989686179596 L 509.9835263930407 189.10220613252164 L 510.3565109648348 187.77970259843843 L 510.8321081810525 186.49053993361093 L 511.40738582670355 185.24266625455795 L 512.0787971238034 184.0437751174709 L 512.8422025984385 182.90125808488173 L 513.6928956019995 181.8221591542218 L 514.6256313292354 180.81313132923543 L 515.6346591542218 179.88039560199945 L 516.7137580848818 179.02970259843843 L 517.8562751174709 178.26629712380338 L 519.0551662545579 177.59488582670355 L 520.303039933611 177.0196081810525 L 521.5922025984385 176.5440109648348 L 522.9147061325217 176.17102639304065 L 524.262396861796 175.9029540395851 L 525.6269658247628 175.74144665967026 L 527.0000000000001 175.6875 L 528.3730341752373 175.74144665967026 L 529.7376031382041 175.9029540395851 L 531.0852938674784 176.17102639304068 L 532.4077974015617 176.54401096483485 L 533.6969600663891 177.01960818105252 L 534.9448337454421 177.5948858267036 L 536.1437248825292 178.26629712380344 L 537.2862419151184 179.0297025984385 L 538.3653408457783 179.88039560199954 L 539.3743686707646 180.81313132923552 L 540.3071043980007 181.8221591542219 L 541.1577974015617 182.90125808488185 L 541.9212028761967 184.04377511747103 L 542.5926141732965 185.2426662545581 L 543.1678918189476 186.4905399336111 L 543.6434890351652 187.7797025984386 L 544.0164736069594 189.10220613252184 L 544.2845459604149 190.44989686179616 L 544.4460533403297 191.81446582476292 Z" fill-opacity="1" stroke-opacity="1" stroke-miterlimit="10" stroke-width="6"/><text fill="rgb(255,255,255)" stroke="none" font-family="times new roman" font-size="10px" font-style="normal" font-weight="normal" text-decoration="normal" x="527" y="198.1875" text-anchor="middle" dominant-baseline="text-after-edge" fill-opacity="1">*1.59</text><path fill="rgb(69,90,100)" stroke="rgb(69,90,100)" paint-order="fill stroke markers" d=" M 331.25 313.6875 L 312.5 331.1875 L 331.25 348.6875 L 368.75 348.6875 L 387.5 331.1875 L 368.75000000000006 313.6875 Z" fill-opacity="1" stroke-opacity="1" stroke-miterlimit="10" stroke-width="2"/><text fill="rgb(255,255,255)" stroke="none" font-family="times new roman" font-size="10px" font-style="normal" font-weight="normal" text-decoration="normal" x="350" y="336.1875" text-anchor="middle" dominant-baseline="text-after-edge" fill-opacity="1">NA18855-all</text><path fill="rgb(69,90,100)" stroke="rgb(76,175,80)" paint-order="fill stroke markers" d=" M 534.5 252.9375 L 577 252.9375 L 577 252.9375 A 5 5 0 0 1 582 257.9375 L 582 267.9375 L 582 267.9375 A 5 5 0 0 1 577 272.9375 L 492 272.9375 L 492 272.9375 A 5 5 0 0 1 487 267.9375 L 487 257.9375 L 487 257.9375 A 5 5 0 0 1 492 252.9375 L 534.5 252.9375 Z" fill-opacity="1" stroke-opacity="1" stroke-miterlimit="10" stroke-width="6"/><text fill="rgb(255,255,255)" stroke="none" font-family="times new roman" font-size="10px" font-style="normal" font-weight="normal" text-decoration="normal" x="534.5" y="267.9375" text-anchor="middle" dominant-baseline="text-after-edge" fill-opacity="1">42132049dup</text><path fill="rgb(69,90,100)" stroke="rgb(189,189,189)" paint-order="fill stroke markers" d=" M 350 252.9375 L 392.5 252.9375 L 392.5 252.9375 A 5 5 0 0 1 397.5 257.9375 L 397.5 267.9375 L 397.5 267.9375 A 5 5 0 0 1 392.5 272.9375 L 307.5 272.9375 L 307.5 272.9375 A 5 5 0 0 1 302.5 267.9375 L 302.5 257.9375 L 302.5 257.9375 A 5 5 0 0 1 307.5 252.9375 L 350 252.9375 Z" fill-opacity="1" stroke-opacity="1" stroke-miterlimit="10" stroke-width="6"/><text fill="rgb(255,255,255)" stroke="none" font-family="times new roman" font-size="10px" font-style="normal" font-weight="normal" text-decoration="normal" x="350" y="267.9375" text-anchor="middle" dominant-baseline="text-after-edge" fill-opacity="1">42135192G&gt;C</text><path fill="rgb(69,90,100)" stroke="rgb(76,175,80)" paint-order="fill stroke markers" d=" M 452.125 49.3125 L 452.125 69.3125 L 547.125 69.3125 L 547.125 49.3125 Z" fill-opacity="1" stroke-opacity="1" stroke-miterlimit="10" stroke-width="6"/><text fill="rgb(255,255,255)" stroke="none" font-family="times new roman" font-size="10px" font-style="normal" font-weight="normal" text-decoration="normal" x="499.625" y="64.3125" text-anchor="middle" dominant-baseline="text-after-edge" fill-opacity="1">42130482C&gt;A</text><path fill="rgb(69,90,100)" stroke="rgb(76,175,80)" paint-order="fill stroke markers" d=" M 487 113.4375 L 487 133.4375 L 582 133.4375 L 582 113.4375 Z" fill-opacity="1" stroke-opacity="1" stroke-miterlimit="10" stroke-width="6"/><text fill="rgb(255,255,255)" stroke="none" font-family="times new roman" font-size="10px" font-style="normal" font-weight="normal" text-decoration="normal" x="534.5" y="128.4375" text-anchor="middle" dominant-baseline="text-after-edge" fill-opacity="1">42128160G&gt;A</text><path fill="rgb(69,90,100)" stroke="rgb(76,175,80)" paint-order="fill stroke markers" d=" M 302.5 113.4375 L 302.5 133.4375 L 397.5 133.4375 L 397.5 113.4375 Z" fill-opacity="1" stroke-opacity="1" stroke-miterlimit="10" stroke-width="6"/><text fill="rgb(255,255,255)" stroke="none" font-family="times new roman" font-size="10px" font-style="normal" font-weight="normal" text-decoration="normal" x="350" y="128.4375" text-anchor="middle" dominant-baseline="text-after-edge" fill-opacity="1">42129726A&gt;C</text><path fill="rgb(69,90,100)" stroke="rgb(76,175,80)" paint-order="fill stroke markers" d=" M 459.75 123.4375 L 459.69605334032974 124.81053417523728 L 459.5345459604149 126.17510313820404 L 459.2664736069593 127.52279386747834 L 458.8934890351652 128.84529740156157 L 458.4178918189475 130.13446006638907 L 457.84261417329645 131.38233374544205 L 457.1712028761966 132.5812248825291 L 456.4077974015616 133.72374191511827 L 455.55710439800055 134.8028408457782 L 454.62436867076457 135.81186867076457 L 453.61534084577823 136.74460439800055 L 452.5362419151183 137.5952974015616 L 451.3937248825291 138.35870287619662 L 450.19483374544205 139.03011417329643 L 448.94696006638907 139.6053918189475 L 447.6577974015616 140.08098903516517 L 446.33529386747836 140.45397360695935 L 444.98760313820407 140.7220459604149 L 443.6230341752373 140.88355334032974 L 442.25 140.9375 L 440.8769658247627 140.88355334032974 L 439.51239686179593 140.7220459604149 L 438.16470613252164 140.45397360695935 L 436.8422025984384 140.0809890351652 L 435.55303993361093 139.6053918189475 L 434.30516625455795 139.03011417329643 L 433.1062751174709 138.35870287619662 L 431.9637580848817 137.5952974015616 L 430.88465915422177 136.74460439800055 L 429.87563132923543 135.81186867076457 L 428.94289560199945 134.8028408457782 L 428.0922025984384 133.7237419151183 L 427.3287971238034 132.5812248825291 L 426.65738582670355 131.38233374544208 L 426.0821081810525 130.13446006638907 L 425.6065109648348 128.8452974015616 L 425.2335263930407 127.52279386747834 L 424.9654540395851 126.17510313820404 L 424.80394665967026 124.8105341752373 L 424.75 123.4375 L 424.80394665967026 122.06446582476272 L 424.9654540395851 120.69989686179596 L 425.2335263930407 119.35220613252166 L 425.6065109648348 118.02970259843842 L 426.0821081810525 116.74053993361093 L 426.65738582670355 115.49266625455793 L 427.3287971238034 114.2937751174709 L 428.0922025984384 113.15125808488172 L 428.94289560199945 112.0721591542218 L 429.87563132923543 111.06313132923542 L 430.88465915422177 110.13039560199947 L 431.9637580848817 109.27970259843842 L 433.1062751174709 108.51629712380338 L 434.30516625455795 107.84488582670356 L 435.55303993361093 107.26960818105248 L 436.84220259843846 106.7940109648348 L 438.1647061325217 106.42102639304065 L 439.512396861796 106.15295403958508 L 440.87696582476275 105.99144665967026 L 442.25000000000006 105.9375 L 443.62303417523736 105.99144665967026 L 444.9876031382041 106.1529540395851 L 446.3352938674784 106.42102639304068 L 447.65779740156165 106.79401096483484 L 448.9469600663892 107.26960818105252 L 450.19483374544217 107.8448858267036 L 451.3937248825292 108.51629712380344 L 452.53624191511835 109.27970259843849 L 453.6153408457783 110.13039560199954 L 454.6243686707647 111.06313132923552 L 455.55710439800066 112.0721591542219 L 456.40779740156165 113.15125808488185 L 457.1712028761967 114.29377511747103 L 457.8426141732965 115.49266625455807 L 458.41789181894757 116.74053993361109 L 458.89348903516526 118.02970259843859 L 459.2664736069594 119.35220613252184 L 459.53454596041496 120.69989686179616 L 459.69605334032974 122.06446582476292 Z" fill-opacity="1" stroke-opacity="1" stroke-miterlimit="10" stroke-width="6"/><text fill="rgb(255,255,255)" stroke="none" font-family="times new roman" font-size="10px" font-style="normal" font-weight="normal" text-decoration="normal" x="442.25" y="128.4375" text-anchor="middle" dominant-baseline="text-after-edge" fill-opacity="1">*1.58</text><g transform="scale(0.5572536496350365,0.5572536496350365) translate(79.2036430618092,51.313958248055656)"/></g></svg>