<svg version="1.1" xmlns="http://www.w3.org/2000/svg" xmlns:xlink="http://www.w3.org/1999/xlink" width="1017" height="608"><defs/><g transform="translate(-111.05525928005045,36.99894744228476) scale(1.0744509157252122,1.0744509157252122)"><path fill="none" stroke="rgb(55,71,79)" paint-order="fill stroke markers" d=" M 182.78125 91.5 L 182.78125 131.5" stroke-opacity="1" stroke-linejoin="round" stroke-miterlimit="10" stroke-width="2"/><path fill="none" stroke="rgb(120,144,156)" paint-order="fill stroke markers" d=" M 393.01943493150685 163 L 400.8908393236898 182.02690465660112" stroke-opacity="1" stroke-linejoin="round" stroke-miterlimit="10"/><path fill="rgb(120,144,156)" stroke="none" paint-order="stroke fill markers" d=" M 394.30997433684297 177.49869131965536 L 401.65539383561645 183.875 L 402.34918908062804 174.17287919277445 Z" fill-opacity="1"/><path fill="none" stroke="rgb(120,144,156)" paint-order="fill stroke markers" d=" M 246.41614726704358 299.5358394461965 L 419.816868728849 405.1102596250234" stroke-opacity="1" stroke-linejoin="round" stroke-miterlimit="10"/><path fill="rgb(120,144,156)" stroke="none" paint-order="stroke fill markers" d=" M 411.831943690793 405.34150005537083 L 421.52515138904835 406.1503415222133 L 416.3562999435691 397.91047048350356 Z" fill-opacity="1"/><path fill="none" stroke="rgb(55,71,79)" paint-order="fill stroke markers" d=" M 724.4905633262312 95.86402773936021 L 746.1641773259075 130.40084354372266" stroke-opacity="1" stroke-linejoin="round" stroke-miterlimit="10" stroke-width="2"/><path fill="none" stroke="rgb(120,144,156)" paint-order="fill stroke markers" d=" M 861.1680650684932 165 L 904.3955191510761 268.12431856302476" stroke-opacity="1" stroke-linejoin="round" stroke-miterlimit="10"/><path fill="rgb(120,144,156)" stroke="none" paint-order="stroke fill markers" d=" M 897.7935808871368 263.62688472147295 L 905.168695226536 269.9688235796448 L 905.817177709434 260.2635687932224 Z" fill-opacity="1"/><path fill="none" stroke="rgb(55,71,79)" paint-order="fill stroke markers" d=" M 797.6855867346939 91.5 L 773.2733226740925 130.40084354372266" stroke-opacity="1" stroke-linejoin="round" stroke-miterlimit="10" stroke-width="2"/><path fill="none" stroke="rgb(120,144,156)" paint-order="fill stroke markers" d=" M 189.32775256309992 171.42661329700383 L 221.72106426001227 267.553107356947" stroke-opacity="1" stroke-linejoin="round" stroke-miterlimit="10"/><path fill="rgb(120,144,156)" stroke="none" paint-order="stroke fill markers" d=" M 215.45924303978126 262.5930574574133 L 222.35974743690008 269.4483867029962 L 223.70370819509506 259.8147856379514 Z" fill-opacity="1"/><path fill="none" stroke="rgb(120,144,156)" paint-order="fill stroke markers" d=" M 348.90625 325.79645862552593 L 424.8786995740544 400.59682272228076" stroke-opacity="1" stroke-linejoin="round" stroke-miterlimit="10"/><path fill="rgb(120,144,156)" stroke="none" paint-order="stroke fill markers" d=" M 417.05248830171564 398.99591138160093 L 426.303863960114 402 L 423.1563094597943 392.79644630224186 Z" fill-opacity="1"/><path fill="none" stroke="rgb(120,144,156)" paint-order="fill stroke markers" d=" M 610.7055240626476 173.9452432077146 L 664.713405422635 265.2085612465823" stroke-opacity="1" stroke-linejoin="round" stroke-miterlimit="10"/><path fill="rgb(120,144,156)" stroke="none" paint-order="stroke fill markers" d=" M 657.5575938864273 261.65794703798736 L 665.7319759373524 266.9297567922854 L 665.0447945102358 257.2271652989664 Z" fill-opacity="1"/><path fill="none" stroke="rgb(120,144,156)" paint-order="fill stroke markers" d=" M 270.8201198630137 165 L 236.11764887975204 267.5619587764413" stroke-opacity="1" stroke-linejoin="round" stroke-miterlimit="10"/><path fill="rgb(120,144,156)" stroke="none" paint-order="stroke fill markers" d=" M 234.14452190961242 259.8212049397851 L 235.4766356459963 269.45645132964654 L 242.38556451605513 262.60961250662257 Z" fill-opacity="1"/><path fill="none" stroke="rgb(120,144,156)" paint-order="fill stroke markers" d=" M 496.34066780821917 165 L 489.2966606763102 182.02690465660112" stroke-opacity="1" stroke-linejoin="round" stroke-miterlimit="10"/><path fill="rgb(120,144,156)" stroke="none" paint-order="stroke fill markers" d=" M 487.83831091937196 174.17287919277445 L 488.53210616438355 183.875 L 495.87752566315703 177.49869131965536 Z" fill-opacity="1"/><path fill="none" stroke="rgb(120,144,156)" paint-order="fill stroke markers" d=" M 965.0194349315068 165 L 921.7919808489239 268.12431856302476" stroke-opacity="1" stroke-linejoin="round" stroke-miterlimit="10"/><path fill="rgb(120,144,156)" stroke="none" paint-order="stroke fill markers" d=" M 920.370322290566 260.2635687932224 L 921.018804773464 269.9688235796448 L 928.3939191128632 263.62688472147295 Z" fill-opacity="1"/><path fill="none" stroke="rgb(120,144,156)" paint-order="fill stroke markers" d=" M 445.09375 393.875 L 445.09375 400" stroke-opacity="1" stroke-linejoin="round" stroke-miterlimit="10"/><path fill="rgb(120,144,156)" stroke="none" paint-order="stroke fill markers" d=" M 440.74375 393.3 L 445.09375 402 L 449.44375 393.3 Z" fill-opacity="1"/><path fill="none" stroke="rgb(55,71,79)" paint-order="fill stroke markers" d=" M 678.71875 172.5 L 678.71875 263.375" stroke-opacity="1" stroke-linejoin="round" stroke-miterlimit="10" stroke-width="2"/><path fill="none" stroke="rgb(55,71,79)" paint-order="fill stroke markers" d=" M 474.24936224489795 91.5 L 574.8199973097733 140.77961118178894" stroke-opacity="1" stroke-linejoin="round" stroke-miterlimit="10" stroke-width="2"/><path fill="none" stroke="rgb(55,71,79)" paint-order="fill stroke markers" d=" M 632.9469366737688 95.86402773936021 L 611.2733226740925 130.40084354372266" stroke-opacity="1" stroke-linejoin="round" stroke-miterlimit="10" stroke-width="2"/><path fill="none" stroke="rgb(120,144,156)" paint-order="fill stroke markers" d=" M 656.5021502867644 301.3918964676496 L 471.107406737588 405.8438306342" stroke-opacity="1" stroke-linejoin="round" stroke-miterlimit="10"/><path fill="rgb(120,144,156)" stroke="none" paint-order="stroke fill markers" d=" M 474.8094741275646 398.765186905344 L 469.3649283287068 406.8255480042117 L 479.07994468711564 406.34496798397737 Z" fill-opacity="1"/><path fill="none" stroke="rgb(120,144,156)" paint-order="fill stroke markers" d=" M 893.3594057268451 294.4252843268248 L 476.8027826872337 411.58183455671553" stroke-opacity="1" stroke-linejoin="round" stroke-miterlimit="10"/><path fill="rgb(120,144,156)" stroke="none" paint-order="stroke fill markers" d=" M 482.0748007266702 405.58030760169356 L 474.87748080692586 412.1233257105521 L 484.4302872458593 413.95537078103246 Z" fill-opacity="1"/><path fill="none" stroke="rgb(120,144,156)" paint-order="fill stroke markers" d=" M 746.7319759373524 173.9452432077146 L 692.724094577365 265.2085612465823" stroke-opacity="1" stroke-linejoin="round" stroke-miterlimit="10"/><path fill="rgb(120,144,156)" stroke="none" paint-order="stroke fill markers" d=" M 692.3927054897642 257.2271652989664 L 691.7055240626476 266.9297567922854 L 699.8799061135727 261.65794703798736 Z" fill-opacity="1"/><path fill="rgb(69,90,100)" stroke="rgb(76,175,80)" paint-order="fill stroke markers" d=" M 227.71875 142 L 227.71875 162 L 322.71875 162 L 322.71875 142 Z" fill-opacity="1" stroke-opacity="1" stroke-miterlimit="10" stroke-width="6"/><text fill="rgb(255,255,255)" stroke="none" font-family="times new roman" font-size="10px" font-style="normal" font-weight="normal" text-decoration="normal" x="275.21875" y="157" text-anchor="middle" dominant-baseline="text-after-edge" fill-opacity="1">42130047G&gt;C</text><path fill="rgb(69,90,100)" stroke="rgb(76,175,80)" paint-order="fill stroke markers" d=" M 388.46875 142 L 430.96875 142 L 430.96875 142 A 5 5 0 0 1 435.96875 147 L 435.96875 157 L 435.96875 157 A 5 5 0 0 1 430.96875 162 L 345.96875 162 L 345.96875 162 A 5 5 0 0 1 340.96875 157 L 340.96875 147 L 340.96875 147 A 5 5 0 0 1 345.96875 142 L 388.46875 142 Z" fill-opacity="1" stroke-opacity="1" stroke-miterlimit="10" stroke-width="2"/><text fill="rgb(255,255,255)" stroke="none" font-family="times new roman" font-size="10px" font-style="normal" font-weight="normal" text-decoration="normal" x="388.46875" y="157" text-anchor="middle" dominant-baseline="text-after-edge" fill-opacity="1">42132049dup</text><path fill="rgb(69,90,100)" stroke="rgb(76,175,80)" paint-order="fill stroke markers" d=" M 501.71875 142 L 544.21875 142 L 544.21875 142 A 5 5 0 0 1 549.21875 147 L 549.21875 157 L 549.21875 157 A 5 5 0 0 1 544.21875 162 L 459.21875 162 L 459.21875 162 A 5 5 0 0 1 454.21875 157 L 454.21875 147 L 454.21875 147 A 5 5 0 0 1 459.21875 142 L 501.71875 142 Z" fill-opacity="1" stroke-opacity="1" stroke-miterlimit="10" stroke-width="6"/><text fill="rgb(255,255,255)" stroke="none" font-family="times new roman" font-size="10px" font-style="normal" font-weight="normal" text-decoration="normal" x="501.71875" y="157" text-anchor="middle" dominant-baseline="text-after-edge" fill-opacity="1">42132025_4213202…</text><path fill="rgb(69,90,100)" stroke="rgb(255,193,7)" paint-order="fill stroke markers" d=" M 758.34375 68.5 L 758.34375 88.5 L 853.34375 88.5 L 853.34375 68.5 Z" fill-opacity="1" stroke-opacity="1" stroke-miterlimit="10" stroke-width="6"/><text fill="rgb(255,255,255)" stroke="none" font-family="times new roman" font-size="10px" font-style="normal" font-weight="normal" text-decoration="normal" x="805.84375" y="83.5" text-anchor="middle" dominant-baseline="text-after-edge" fill-opacity="1">42126611C&gt;G</text><path fill="rgb(69,90,100)" stroke="rgb(255,193,7)" paint-order="fill stroke markers" d=" M 400.21875 68.5 L 400.21875 88.5 L 495.21875 88.5 L 495.21875 68.5 Z" fill-opacity="1" stroke-opacity="1" stroke-miterlimit="10" stroke-width="6"/><text fill="rgb(255,255,255)" stroke="none" font-family="times new roman" font-size="10px" font-style="normal" font-weight="normal" text-decoration="normal" x="447.71875" y="83.5" text-anchor="middle" dominant-baseline="text-after-edge" fill-opacity="1">42127941G&gt;A</text><path fill="rgb(69,90,100)" stroke="rgb(76,175,80)" paint-order="fill stroke markers" d=" M 731.09375 78.5 L 731.0398033403297 79.87303417523728 L 730.8782959604149 81.23760313820404 L 730.6102236069594 82.58529386747834 L 730.2372390351652 83.90779740156158 L 729.7616418189475 85.19696006638907 L 729.1863641732964 86.44483374544207 L 728.5149528761966 87.6437248825291 L 727.7515474015615 88.78624191511828 L 726.9008543980005 89.8653408457782 L 725.9681186707646 90.87436867076458 L 724.9590908457782 91.80710439800055 L 723.8799919151182 92.65779740156158 L 722.7374748825291 93.42120287619662 L 721.5385837454421 94.09261417329644 L 720.2907100663891 94.66789181894751 L 719.0015474015615 95.14348903516519 L 717.6790438674783 95.51647360695934 L 716.331353138204 95.7845459604149 L 714.9667841752373 95.94605334032974 L 713.59375 96 L 712.2207158247627 95.94605334032974 L 710.856146861796 95.7845459604149 L 709.5084561325217 95.51647360695934 L 708.1859525984385 95.14348903516519 L 706.8967899336109 94.66789181894751 L 705.6489162545579 94.09261417329644 L 704.4500251174709 93.42120287619662 L 703.3075080848818 92.65779740156158 L 702.2284091542218 91.80710439800055 L 701.2193813292354 90.87436867076458 L 700.2866456019995 89.86534084577822 L 699.4359525984385 88.78624191511828 L 698.6725471238034 87.64372488252911 L 698.0011358267036 86.44483374544207 L 697.4258581810525 85.19696006638907 L 696.9502609648348 83.90779740156158 L 696.5772763930406 82.58529386747834 L 696.3092040395851 81.23760313820404 L 696.1476966596703 79.8730341752373 L 696.09375 78.5 L 696.1476966596703 77.12696582476272 L 696.3092040395851 75.76239686179596 L 696.5772763930406 74.41470613252166 L 696.9502609648348 73.09220259843842 L 697.4258581810525 71.80303993361093 L 698.0011358267036 70.55516625455793 L 698.6725471238034 69.3562751174709 L 699.4359525984385 68.21375808488172 L 700.2866456019995 67.1346591542218 L 701.2193813292354 66.12563132923542 L 702.2284091542218 65.19289560199947 L 703.3075080848818 64.34220259843842 L 704.4500251174709 63.57879712380338 L 705.6489162545579 62.90738582670356 L 706.896789933611 62.332108181052476 L 708.1859525984385 61.856510964834804 L 709.5084561325217 61.48352639304065 L 710.856146861796 61.21545403958508 L 712.2207158247628 61.05394665967026 L 713.5937500000001 61 L 714.9667841752373 61.05394665967027 L 716.3313531382041 61.2154540395851 L 717.6790438674784 61.48352639304068 L 719.0015474015617 61.85651096483484 L 720.2907100663891 62.33210818105252 L 721.5385837454421 62.90738582670361 L 722.7374748825292 63.57879712380345 L 723.8799919151184 64.34220259843849 L 724.9590908457783 65.19289560199954 L 725.9681186707646 66.12563132923552 L 726.9008543980007 67.1346591542219 L 727.7515474015617 68.21375808488185 L 728.5149528761967 69.35627511747103 L 729.1863641732965 70.55516625455807 L 729.7616418189476 71.80303993361109 L 730.2372390351652 73.09220259843859 L 730.6102236069594 74.41470613252184 L 730.8782959604149 75.76239686179616 L 731.0398033403297 77.12696582476292 Z" fill-opacity="1" stroke-opacity="1" stroke-miterlimit="10" stroke-width="6"/><text fill="rgb(255,255,255)" stroke="none" font-family="times new roman" font-size="10px" font-style="normal" font-weight="normal" text-decoration="normal" x="713.59375" y="83.5" text-anchor="middle" dominant-baseline="text-after-edge" fill-opacity="1">*39.2</text><path fill="rgb(69,90,100)" stroke="rgb(76,175,80)" paint-order="fill stroke markers" d=" M 200.28125 152 L 200.22730334032974 153.37303417523728 L 200.0657959604149 154.73760313820404 L 199.79772360695935 156.08529386747836 L 199.42473903516517 157.40779740156157 L 198.9491418189475 158.69696006638907 L 198.37386417329643 159.94483374544205 L 197.70245287619662 161.1437248825291 L 196.9390474015616 162.28624191511827 L 196.08835439800055 163.3653408457782 L 195.15561867076457 164.37436867076457 L 194.1465908457782 165.30710439800055 L 193.06749191511827 166.1577974015616 L 191.9249748825291 166.92120287619662 L 190.72608374544208 167.59261417329643 L 189.47821006638907 168.1678918189475 L 188.1890474015616 168.64348903516517 L 186.86654386747836 169.01647360695935 L 185.51885313820404 169.2845459604149 L 184.15428417523728 169.44605334032974 L 182.78125 169.5 L 181.40821582476272 169.44605334032974 L 180.04364686179596 169.2845459604149 L 178.69595613252164 169.01647360695935 L 177.37345259843843 168.6434890351652 L 176.08428993361093 168.1678918189475 L 174.83641625455795 167.59261417329643 L 173.6375251174709 166.92120287619662 L 172.49500808488173 166.1577974015616 L 171.4159091542218 165.30710439800055 L 170.40688132923543 164.37436867076457 L 169.47414560199945 163.3653408457782 L 168.62345259843843 162.2862419151183 L 167.86004712380338 161.1437248825291 L 167.18863582670357 159.94483374544208 L 166.6133581810525 158.69696006638907 L 166.13776096483483 157.4077974015616 L 165.76477639304065 156.08529386747836 L 165.4967040395851 154.73760313820404 L 165.33519665967026 153.37303417523728 L 165.28125 152 L 165.33519665967026 150.62696582476272 L 165.4967040395851 149.26239686179596 L 165.76477639304065 147.91470613252164 L 166.1377609648348 146.59220259843843 L 166.6133581810525 145.30303993361093 L 167.18863582670357 144.05516625455795 L 167.86004712380338 142.8562751174709 L 168.6234525984384 141.71375808488173 L 169.47414560199945 140.6346591542218 L 170.4068813292354 139.62563132923543 L 171.41590915422177 138.69289560199945 L 172.4950080848817 137.84220259843843 L 173.6375251174709 137.07879712380338 L 174.83641625455795 136.40738582670355 L 176.08428993361096 135.8321081810525 L 177.37345259843843 135.3565109648348 L 178.6959561325217 134.98352639304065 L 180.043646861796 134.7154540395851 L 181.40821582476278 134.55394665967026 L 182.78125000000006 134.5 L 184.15428417523736 134.55394665967026 L 185.51885313820412 134.7154540395851 L 186.8665438674784 134.98352639304068 L 188.18904740156165 135.35651096483485 L 189.47821006638915 135.83210818105252 L 190.72608374544217 136.4073858267036 L 191.9249748825292 137.07879712380344 L 193.06749191511838 137.8422025984385 L 194.14659084577832 138.69289560199954 L 195.15561867076468 139.62563132923552 L 196.08835439800063 140.6346591542219 L 196.93904740156168 141.71375808488185 L 197.7024528761967 142.85627511747103 L 198.3738641732965 144.0551662545581 L 198.9491418189476 145.3030399336111 L 199.42473903516523 146.5922025984386 L 199.79772360695938 147.91470613252184 L 200.06579596041493 149.26239686179616 L 200.22730334032974 150.62696582476292 Z" fill-opacity="1" stroke-opacity="1" stroke-miterlimit="10" stroke-width="6"/><text fill="rgb(255,255,255)" stroke="none" font-family="times new roman" font-size="10px" font-style="normal" font-weight="normal" text-decoration="normal" x="182.78125" y="157" text-anchor="middle" dominant-baseline="text-after-edge" fill-opacity="1">*1.41</text><path fill="rgb(69,90,100)" stroke="rgb(76,175,80)" paint-order="fill stroke markers" d=" M 808.21875 142 L 808.21875 162 L 903.21875 162 L 903.21875 142 Z" fill-opacity="1" stroke-opacity="1" stroke-miterlimit="10" stroke-width="6"/><text fill="rgb(255,255,255)" stroke="none" font-family="times new roman" font-size="10px" font-style="normal" font-weight="normal" text-decoration="normal" x="855.71875" y="157" text-anchor="middle" dominant-baseline="text-after-edge" fill-opacity="1">42130482C&gt;A</text><path fill="rgb(69,90,100)" stroke="rgb(76,175,80)" paint-order="fill stroke markers" d=" M 661.34375 78.5 L 661.2898033403297 79.87303417523728 L 661.1282959604149 81.23760313820404 L 660.8602236069594 82.58529386747834 L 660.4872390351652 83.90779740156158 L 660.0116418189475 85.19696006638907 L 659.4363641732964 86.44483374544207 L 658.7649528761966 87.6437248825291 L 658.0015474015615 88.78624191511828 L 657.1508543980005 89.8653408457782 L 656.2181186707646 90.87436867076458 L 655.2090908457782 91.80710439800055 L 654.1299919151182 92.65779740156158 L 652.9874748825291 93.42120287619662 L 651.7885837454421 94.09261417329644 L 650.5407100663891 94.66789181894751 L 649.2515474015615 95.14348903516519 L 647.9290438674783 95.51647360695934 L 646.581353138204 95.7845459604149 L 645.2167841752373 95.94605334032974 L 643.84375 96 L 642.4707158247627 95.94605334032974 L 641.106146861796 95.7845459604149 L 639.7584561325217 95.51647360695934 L 638.4359525984385 95.14348903516519 L 637.1467899336109 94.66789181894751 L 635.8989162545579 94.09261417329644 L 634.7000251174709 93.42120287619662 L 633.5575080848818 92.65779740156158 L 632.4784091542218 91.80710439800055 L 631.4693813292354 90.87436867076458 L 630.5366456019995 89.86534084577822 L 629.6859525984385 88.78624191511828 L 628.9225471238034 87.64372488252911 L 628.2511358267036 86.44483374544207 L 627.6758581810525 85.19696006638907 L 627.2002609648348 83.90779740156158 L 626.8272763930406 82.58529386747834 L 626.5592040395851 81.23760313820404 L 626.3976966596703 79.8730341752373 L 626.34375 78.5 L 626.3976966596703 77.12696582476272 L 626.5592040395851 75.76239686179596 L 626.8272763930406 74.41470613252166 L 627.2002609648348 73.09220259843842 L 627.6758581810525 71.80303993361093 L 628.2511358267036 70.55516625455793 L 628.9225471238034 69.3562751174709 L 629.6859525984385 68.21375808488172 L 630.5366456019995 67.1346591542218 L 631.4693813292354 66.12563132923542 L 632.4784091542218 65.19289560199947 L 633.5575080848818 64.34220259843842 L 634.7000251174709 63.57879712380338 L 635.8989162545579 62.90738582670356 L 637.146789933611 62.332108181052476 L 638.4359525984385 61.856510964834804 L 639.7584561325217 61.48352639304065 L 641.106146861796 61.21545403958508 L 642.4707158247628 61.05394665967026 L 643.8437500000001 61 L 645.2167841752373 61.05394665967027 L 646.5813531382041 61.2154540395851 L 647.9290438674784 61.48352639304068 L 649.2515474015617 61.85651096483484 L 650.5407100663891 62.33210818105252 L 651.7885837454421 62.90738582670361 L 652.9874748825292 63.57879712380345 L 654.1299919151184 64.34220259843849 L 655.2090908457783 65.19289560199954 L 656.2181186707646 66.12563132923552 L 657.1508543980007 67.1346591542219 L 658.0015474015617 68.21375808488185 L 658.7649528761967 69.35627511747103 L 659.4363641732965 70.55516625455807 L 660.0116418189476 71.80303993361109 L 660.4872390351652 73.09220259843859 L 660.8602236069594 74.41470613252184 L 661.1282959604149 75.76239686179616 L 661.2898033403297 77.12696582476292 Z" fill-opacity="1" stroke-opacity="1" stroke-miterlimit="10" stroke-width="6"/><text fill="rgb(255,255,255)" stroke="none" font-family="times new roman" font-size="10px" font-style="normal" font-weight="normal" text-decoration="normal" x="643.84375" y="83.5" text-anchor="middle" dominant-baseline="text-after-edge" fill-opacity="1">*34.1</text><path fill="rgb(69,90,100)" stroke="rgb(76,175,80)" paint-order="fill stroke markers" d=" M 922.96875 142 L 922.96875 162 L 1017.96875 162 L 1017.96875 142 Z" fill-opacity="1" stroke-opacity="1" stroke-miterlimit="10" stroke-width="6"/><text fill="rgb(255,255,255)" stroke="none" font-family="times new roman" font-size="10px" font-style="normal" font-weight="normal" text-decoration="normal" x="970.46875" y="157" text-anchor="middle" dominant-baseline="text-after-edge" fill-opacity="1">42129950A&gt;C</text><path fill="rgb(69,90,100)" stroke="rgb(69,90,100)" paint-order="fill stroke markers" d=" M 426.34375 403 L 407.59375 420.5 L 426.34375 438 L 463.84375 438 L 482.59375 420.5 L 463.84375000000006 403 Z" fill-opacity="1" stroke-opacity="1" stroke-miterlimit="10" stroke-width="2"/><text fill="rgb(255,255,255)" stroke="none" font-family="times new roman" font-size="10px" font-style="normal" font-weight="normal" text-decoration="normal" x="445.09375" y="425.5" text-anchor="middle" dominant-baseline="text-after-edge" fill-opacity="1">NA18952-B</text><path fill="rgb(69,90,100)" stroke="rgb(76,175,80)" paint-order="fill stroke markers" d=" M 246.40625 288.875 L 246.35230334032974 290.2480341752373 L 246.1907959604149 291.61260313820407 L 245.92272360695935 292.96029386747836 L 245.54973903516517 294.2827974015616 L 245.0741418189475 295.57196006638907 L 244.49886417329643 296.81983374544205 L 243.82745287619662 298.0187248825291 L 243.0640474015616 299.1612419151183 L 242.21335439800055 300.24034084577823 L 241.28061867076457 301.24936867076457 L 240.2715908457782 302.18210439800055 L 239.19249191511827 303.0327974015616 L 238.0499748825291 303.7962028761966 L 236.85108374544208 304.46761417329645 L 235.60321006638907 305.0428918189475 L 234.3140474015616 305.5184890351652 L 232.99154386747836 305.8914736069593 L 231.64385313820404 306.1595459604149 L 230.27928417523728 306.32105334032974 L 228.90625 306.375 L 227.53321582476272 306.32105334032974 L 226.16864686179596 306.1595459604149 L 224.82095613252164 305.8914736069593 L 223.49845259843843 305.5184890351652 L 222.20928993361093 305.0428918189475 L 220.96141625455795 304.46761417329645 L 219.7625251174709 303.7962028761966 L 218.62000808488173 303.0327974015616 L 217.5409091542218 302.18210439800055 L 216.53188132923543 301.24936867076457 L 215.59914560199945 300.24034084577823 L 214.74845259843843 299.1612419151183 L 213.98504712380338 298.0187248825291 L 213.31363582670357 296.81983374544205 L 212.7383581810525 295.57196006638907 L 212.26276096483483 294.2827974015616 L 211.88977639304065 292.96029386747836 L 211.6217040395851 291.61260313820407 L 211.46019665967026 290.2480341752373 L 211.40625 288.875 L 211.46019665967026 287.5019658247627 L 211.6217040395851 286.13739686179593 L 211.88977639304065 284.78970613252164 L 212.2627609648348 283.4672025984384 L 212.7383581810525 282.17803993361093 L 213.31363582670357 280.93016625455795 L 213.98504712380338 279.7312751174709 L 214.7484525984384 278.5887580848817 L 215.59914560199945 277.50965915422177 L 216.5318813292354 276.50063132923543 L 217.54090915422177 275.56789560199945 L 218.6200080848817 274.7172025984384 L 219.7625251174709 273.9537971238034 L 220.96141625455795 273.28238582670355 L 222.20928993361096 272.7071081810525 L 223.49845259843843 272.2315109648348 L 224.8209561325217 271.8585263930407 L 226.168646861796 271.5904540395851 L 227.53321582476278 271.42894665967026 L 228.90625000000006 271.375 L 230.27928417523736 271.42894665967026 L 231.64385313820412 271.5904540395851 L 232.9915438674784 271.8585263930407 L 234.31404740156165 272.23151096483485 L 235.60321006638915 272.7071081810525 L 236.85108374544217 273.2823858267036 L 238.0499748825292 273.95379712380344 L 239.19249191511838 274.7172025984385 L 240.27159084577832 275.56789560199957 L 241.28061867076468 276.5006313292355 L 242.21335439800063 277.5096591542219 L 243.06404740156168 278.5887580848818 L 243.8274528761967 279.73127511747106 L 244.4988641732965 280.93016625455806 L 245.0741418189476 282.1780399336111 L 245.54973903516523 283.4672025984386 L 245.92272360695938 284.7897061325218 L 246.19079596041493 286.13739686179616 L 246.35230334032974 287.5019658247629 Z" fill-opacity="1" stroke-opacity="1" stroke-miterlimit="10" stroke-width="6"/><text fill="rgb(255,255,255)" stroke="none" font-family="times new roman" font-size="10px" font-style="normal" font-weight="normal" text-decoration="normal" x="228.90625" y="293.875" text-anchor="middle" dominant-baseline="text-after-edge" fill-opacity="1">*1.54</text><path fill="rgb(69,90,100)" stroke="rgb(76,175,80)" paint-order="fill stroke markers" d=" M 135.28125 68.5 L 135.28125 88.5 L 230.28124999999997 88.5 L 230.28125 68.5 Z" fill-opacity="1" stroke-opacity="1" stroke-miterlimit="10" stroke-width="6"/><text fill="rgb(255,255,255)" stroke="none" font-family="times new roman" font-size="10px" font-style="normal" font-weight="normal" text-decoration="normal" x="182.78125" y="83.5" text-anchor="middle" dominant-baseline="text-after-edge" fill-opacity="1">42127407T&gt;G</text><path fill="rgb(69,90,100)" stroke="rgb(76,175,80)" paint-order="fill stroke markers" d=" M 696.21875 152 L 696.1648033403297 153.37303417523728 L 696.0032959604149 154.73760313820404 L 695.7352236069594 156.08529386747836 L 695.3622390351652 157.40779740156157 L 694.8866418189475 158.69696006638907 L 694.3113641732964 159.94483374544205 L 693.6399528761966 161.1437248825291 L 692.8765474015615 162.28624191511827 L 692.0258543980005 163.3653408457782 L 691.0931186707646 164.37436867076457 L 690.0840908457782 165.30710439800055 L 689.0049919151182 166.1577974015616 L 687.8624748825291 166.92120287619662 L 686.6635837454421 167.59261417329643 L 685.4157100663891 168.1678918189475 L 684.1265474015615 168.64348903516517 L 682.8040438674783 169.01647360695935 L 681.456353138204 169.2845459604149 L 680.0917841752373 169.44605334032974 L 678.71875 169.5 L 677.3457158247627 169.44605334032974 L 675.981146861796 169.2845459604149 L 674.6334561325217 169.01647360695935 L 673.3109525984385 168.6434890351652 L 672.0217899336109 168.1678918189475 L 670.7739162545579 167.59261417329643 L 669.5750251174709 166.92120287619662 L 668.4325080848818 166.1577974015616 L 667.3534091542218 165.30710439800055 L 666.3443813292354 164.37436867076457 L 665.4116456019995 163.3653408457782 L 664.5609525984385 162.2862419151183 L 663.7975471238034 161.1437248825291 L 663.1261358267036 159.94483374544208 L 662.5508581810525 158.69696006638907 L 662.0752609648348 157.4077974015616 L 661.7022763930406 156.08529386747836 L 661.4342040395851 154.73760313820404 L 661.2726966596703 153.37303417523728 L 661.21875 152 L 661.2726966596703 150.62696582476272 L 661.4342040395851 149.26239686179596 L 661.7022763930406 147.91470613252164 L 662.0752609648348 146.59220259843843 L 662.5508581810525 145.30303993361093 L 663.1261358267036 144.05516625455795 L 663.7975471238034 142.8562751174709 L 664.5609525984385 141.71375808488173 L 665.4116456019995 140.6346591542218 L 666.3443813292354 139.62563132923543 L 667.3534091542218 138.69289560199945 L 668.4325080848818 137.84220259843843 L 669.5750251174709 137.07879712380338 L 670.7739162545579 136.40738582670355 L 672.021789933611 135.8321081810525 L 673.3109525984385 135.3565109648348 L 674.6334561325217 134.98352639304065 L 675.981146861796 134.7154540395851 L 677.3457158247628 134.55394665967026 L 678.7187500000001 134.5 L 680.0917841752373 134.55394665967026 L 681.4563531382041 134.7154540395851 L 682.8040438674784 134.98352639304068 L 684.1265474015617 135.35651096483485 L 685.4157100663891 135.83210818105252 L 686.6635837454421 136.4073858267036 L 687.8624748825292 137.07879712380344 L 689.0049919151184 137.8422025984385 L 690.0840908457783 138.69289560199954 L 691.0931186707646 139.62563132923552 L 692.0258543980007 140.6346591542219 L 692.8765474015617 141.71375808488185 L 693.6399528761967 142.85627511747103 L 694.3113641732965 144.0551662545581 L 694.8866418189476 145.3030399336111 L 695.3622390351652 146.5922025984386 L 695.7352236069594 147.91470613252184 L 696.0032959604149 149.26239686179616 L 696.1648033403297 150.62696582476292 Z" fill-opacity="1" stroke-opacity="1" stroke-miterlimit="10" stroke-width="6"/><text fill="rgb(255,255,255)" stroke="none" font-family="times new roman" font-size="10px" font-style="normal" font-weight="normal" text-decoration="normal" x="678.71875" y="157" text-anchor="middle" dominant-baseline="text-after-edge" fill-opacity="1">*2.4</text><path fill="rgb(69,90,100)" stroke="rgb(76,175,80)" paint-order="fill stroke markers" d=" M 701.21875 288.875 L 701.1493900089954 290.6403296538765 L 700.9417376633907 292.3947754634052 L 700.5970732089477 294.12752068675786 L 700.1175216166409 295.8278823734363 L 699.506039481504 297.48537722821453 L 698.7663967942383 299.0897862441398 L 697.9031536979671 300.6312177061088 L 696.9216323734363 302.10016817658067 L 695.8278842260007 303.48758108742913 L 694.6286525766973 304.78490257669733 L 693.3313310874291 305.9841342260007 L 691.9439181765806 307.0778823734363 L 690.4749677061088 308.05940369796707 L 688.9335362441398 308.9226467942383 L 687.3291272282145 309.66228948150393 L 685.6716323734363 310.27377161664094 L 683.9712706867579 310.75332320894773 L 682.2385254634052 311.0979876633906 L 680.4840796538765 311.3056400089954 L 678.71875 311.375 L 676.9534203461235 311.3056400089954 L 675.1989745365948 311.0979876633906 L 673.4662293132421 310.75332320894773 L 671.7658676265637 310.27377161664094 L 670.1083727717855 309.66228948150393 L 668.5039637558602 308.9226467942383 L 666.9625322938912 308.05940369796707 L 665.4935818234194 307.0778823734363 L 664.1061689125709 305.9841342260007 L 662.8088474233027 304.78490257669733 L 661.6096157739993 303.48758108742913 L 660.5158676265637 302.10016817658067 L 659.5343463020329 300.6312177061088 L 658.6711032057617 299.0897862441398 L 657.931460518496 297.48537722821453 L 657.3199783833591 295.8278823734363 L 656.8404267910523 294.12752068675786 L 656.4957623366095 292.3947754634052 L 656.2881099910046 290.6403296538765 L 656.21875 288.875 L 656.2881099910046 287.1096703461235 L 656.4957623366093 285.3552245365948 L 656.8404267910523 283.62247931324214 L 657.3199783833591 281.9221176265637 L 657.931460518496 280.26462277178547 L 658.6711032057617 278.6602137558602 L 659.5343463020329 277.1187822938912 L 660.5158676265637 275.64983182341933 L 661.6096157739993 274.26241891257087 L 662.8088474233027 272.96509742330267 L 664.1061689125709 271.76586577399934 L 665.4935818234194 270.6721176265637 L 666.9625322938912 269.69059630203293 L 668.5039637558602 268.8273532057617 L 670.1083727717855 268.087710518496 L 671.7658676265637 267.47622838335906 L 673.4662293132421 266.99667679105227 L 675.1989745365948 266.6520123366094 L 676.9534203461236 266.4443599910046 L 678.7187500000001 266.375 L 680.4840796538766 266.4443599910046 L 682.2385254634053 266.6520123366094 L 683.971270686758 266.9966767910523 L 685.6716323734364 267.47622838335906 L 687.3291272282146 268.0877105184961 L 688.9335362441399 268.82735320576177 L 690.4749677061089 269.690596302033 L 691.9439181765807 270.67211762656376 L 693.3313310874292 271.7658657739994 L 694.6286525766974 272.9650974233028 L 695.8278842260008 274.262418912571 L 696.9216323734364 275.6498318234195 L 697.9031536979671 277.11878229389134 L 698.7663967942384 278.6602137558604 L 699.506039481504 280.2646227717857 L 700.117521616641 281.92211762656393 L 700.5970732089478 283.62247931324237 L 700.9417376633907 285.3552245365951 L 701.1493900089954 287.1096703461238 Z" fill-opacity="1" stroke-opacity="1" stroke-miterlimit="10" stroke-width="6"/><text fill="rgb(255,255,255)" stroke="none" font-family="times new roman" font-size="15px" font-style="normal" font-weight="normal" text-decoration="normal" x="678.71875" y="296.375" text-anchor="middle" dominant-baseline="text-after-edge" fill-opacity="1">*2</text><path fill="rgb(3,169,244)" stroke="none" paint-order="stroke fill markers" d=" M 678.71875 256.375 L 703.21875 256.375 L 703.21875 256.375 A 8 8 0 0 1 711.21875 264.375 L 711.21875 313.375 L 711.21875 313.375 A 8 8 0 0 1 703.21875 321.375 L 654.21875 321.375 L 654.21875 321.375 A 8 8 0 0 1 646.21875 313.375 L 646.21875 264.375 L 646.21875 264.375 A 8 8 0 0 1 654.21875 256.375 L 678.71875 256.375 Z" fill-opacity="0.15"/><path fill="rgb(69,90,100)" stroke="rgb(76,175,80)" paint-order="fill stroke markers" d=" M 930.59375 288.875 L 930.5398033403297 290.2480341752373 L 930.3782959604149 291.61260313820407 L 930.1102236069594 292.96029386747836 L 929.7372390351652 294.2827974015616 L 929.2616418189475 295.57196006638907 L 928.6863641732964 296.81983374544205 L 928.0149528761966 298.0187248825291 L 927.2515474015615 299.1612419151183 L 926.4008543980005 300.24034084577823 L 925.4681186707646 301.24936867076457 L 924.4590908457782 302.18210439800055 L 923.3799919151182 303.0327974015616 L 922.2374748825291 303.7962028761966 L 921.0385837454421 304.46761417329645 L 919.7907100663891 305.0428918189475 L 918.5015474015615 305.5184890351652 L 917.1790438674783 305.8914736069593 L 915.831353138204 306.1595459604149 L 914.4667841752373 306.32105334032974 L 913.09375 306.375 L 911.7207158247627 306.32105334032974 L 910.356146861796 306.1595459604149 L 909.0084561325217 305.8914736069593 L 907.6859525984385 305.5184890351652 L 906.3967899336109 305.0428918189475 L 905.1489162545579 304.46761417329645 L 903.9500251174709 303.7962028761966 L 902.8075080848818 303.0327974015616 L 901.7284091542218 302.18210439800055 L 900.7193813292354 301.24936867076457 L 899.7866456019995 300.24034084577823 L 898.9359525984385 299.1612419151183 L 898.1725471238034 298.0187248825291 L 897.5011358267036 296.81983374544205 L 896.9258581810525 295.57196006638907 L 896.4502609648348 294.2827974015616 L 896.0772763930406 292.96029386747836 L 895.8092040395851 291.61260313820407 L 895.6476966596703 290.2480341752373 L 895.59375 288.875 L 895.6476966596703 287.5019658247627 L 895.8092040395851 286.13739686179593 L 896.0772763930406 284.78970613252164 L 896.4502609648348 283.4672025984384 L 896.9258581810525 282.17803993361093 L 897.5011358267036 280.93016625455795 L 898.1725471238034 279.7312751174709 L 898.9359525984385 278.5887580848817 L 899.7866456019995 277.50965915422177 L 900.7193813292354 276.50063132923543 L 901.7284091542218 275.56789560199945 L 902.8075080848818 274.7172025984384 L 903.9500251174709 273.9537971238034 L 905.1489162545579 273.28238582670355 L 906.396789933611 272.7071081810525 L 907.6859525984385 272.2315109648348 L 909.0084561325217 271.8585263930407 L 910.356146861796 271.5904540395851 L 911.7207158247628 271.42894665967026 L 913.0937500000001 271.375 L 914.4667841752373 271.42894665967026 L 915.8313531382041 271.5904540395851 L 917.1790438674784 271.8585263930407 L 918.5015474015617 272.23151096483485 L 919.7907100663891 272.7071081810525 L 921.0385837454421 273.2823858267036 L 922.2374748825292 273.95379712380344 L 923.3799919151184 274.7172025984385 L 924.4590908457783 275.56789560199957 L 925.4681186707646 276.5006313292355 L 926.4008543980007 277.5096591542219 L 927.2515474015617 278.5887580848818 L 928.0149528761967 279.73127511747106 L 928.6863641732965 280.93016625455806 L 929.2616418189476 282.1780399336111 L 929.7372390351652 283.4672025984386 L 930.1102236069594 284.7897061325218 L 930.3782959604149 286.13739686179616 L 930.5398033403297 287.5019658247629 Z" fill-opacity="1" stroke-opacity="1" stroke-miterlimit="10" stroke-width="6"/><text fill="rgb(255,255,255)" stroke="none" font-family="times new roman" font-size="10px" font-style="normal" font-weight="normal" text-decoration="normal" x="913.09375" y="293.875" text-anchor="middle" dominant-baseline="text-after-edge" fill-opacity="1">*1.58</text><path fill="rgb(69,90,100)" stroke="rgb(76,175,80)" paint-order="fill stroke markers" d=" M 620.21875 152 L 620.1493900089954 153.7653296538765 L 619.9417376633907 155.51977546340518 L 619.5970732089477 157.25252068675786 L 619.1175216166409 158.95288237343632 L 618.506039481504 160.61037722821453 L 617.7663967942383 162.21478624413982 L 616.9031536979671 163.75621770610886 L 615.9216323734363 165.22516817658064 L 614.8278842260007 166.61258108742913 L 613.6286525766973 167.9099025766973 L 612.3313310874291 169.1091342260007 L 610.9439181765806 170.20288237343632 L 609.4749677061088 171.18440369796707 L 607.9335362441398 172.0476467942383 L 606.3291272282145 172.78728948150396 L 604.6716323734363 173.39877161664094 L 602.9712706867579 173.87832320894773 L 601.2385254634052 174.2229876633906 L 599.4840796538765 174.43064000899537 L 597.71875 174.5 L 595.9534203461235 174.43064000899537 L 594.1989745365948 174.2229876633906 L 592.4662293132421 173.87832320894773 L 590.7658676265637 173.39877161664094 L 589.1083727717855 172.78728948150396 L 587.5039637558602 172.0476467942383 L 585.9625322938912 171.18440369796707 L 584.4935818234194 170.20288237343632 L 583.1061689125709 169.1091342260007 L 581.8088474233027 167.90990257669733 L 580.6096157739993 166.61258108742913 L 579.5158676265637 165.22516817658064 L 578.5343463020329 163.75621770610886 L 577.6711032057617 162.21478624413982 L 576.931460518496 160.61037722821453 L 576.3199783833591 158.95288237343632 L 575.8404267910523 157.25252068675786 L 575.4957623366095 155.5197754634052 L 575.2881099910046 153.7653296538765 L 575.21875 152 L 575.2881099910046 150.2346703461235 L 575.4957623366093 148.48022453659482 L 575.8404267910523 146.74747931324214 L 576.3199783833591 145.04711762656368 L 576.931460518496 143.38962277178547 L 577.6711032057617 141.7852137558602 L 578.5343463020329 140.24378229389114 L 579.5158676265637 138.77483182341936 L 580.6096157739993 137.38741891257087 L 581.8088474233027 136.0900974233027 L 583.1061689125709 134.8908657739993 L 584.4935818234194 133.79711762656368 L 585.9625322938912 132.81559630203293 L 587.5039637558602 131.9523532057617 L 589.1083727717855 131.21271051849604 L 590.7658676265637 130.60122838335903 L 592.4662293132421 130.12167679105227 L 594.1989745365948 129.7770123366094 L 595.9534203461236 129.5693599910046 L 597.7187500000001 129.5 L 599.4840796538766 129.56935999100463 L 601.2385254634053 129.7770123366094 L 602.971270686758 130.1216767910523 L 604.6716323734364 130.60122838335909 L 606.3291272282146 131.2127105184961 L 607.9335362441399 131.9523532057618 L 609.4749677061089 132.815596302033 L 610.9439181765807 133.79711762656376 L 612.3313310874292 134.89086577399942 L 613.6286525766974 136.0900974233028 L 614.8278842260008 137.387418912571 L 615.9216323734364 138.7748318234195 L 616.9031536979671 140.24378229389131 L 617.7663967942384 141.78521375586038 L 618.506039481504 143.3896227717857 L 619.117521616641 145.0471176265639 L 619.5970732089478 146.74747931324237 L 619.9417376633907 148.48022453659505 L 620.1493900089954 150.23467034612375 Z" fill-opacity="1" stroke-opacity="1" stroke-miterlimit="10" stroke-width="6"/><text fill="rgb(255,255,255)" stroke="none" font-family="times new roman" font-size="15px" font-style="normal" font-weight="normal" text-decoration="normal" x="597.71875" y="159.5" text-anchor="middle" dominant-baseline="text-after-edge" fill-opacity="1">*34</text><path fill="rgb(69,90,100)" stroke="rgb(76,175,80)" paint-order="fill stroke markers" d=" M 782.21875 152 L 782.1493900089954 153.7653296538765 L 781.9417376633907 155.51977546340518 L 781.5970732089477 157.25252068675786 L 781.1175216166409 158.95288237343632 L 780.506039481504 160.61037722821453 L 779.7663967942383 162.21478624413982 L 778.9031536979671 163.75621770610886 L 777.9216323734363 165.22516817658064 L 776.8278842260007 166.61258108742913 L 775.6286525766973 167.9099025766973 L 774.3313310874291 169.1091342260007 L 772.9439181765806 170.20288237343632 L 771.4749677061088 171.18440369796707 L 769.9335362441398 172.0476467942383 L 768.3291272282145 172.78728948150396 L 766.6716323734363 173.39877161664094 L 764.9712706867579 173.87832320894773 L 763.2385254634052 174.2229876633906 L 761.4840796538765 174.43064000899537 L 759.71875 174.5 L 757.9534203461235 174.43064000899537 L 756.1989745365948 174.2229876633906 L 754.4662293132421 173.87832320894773 L 752.7658676265637 173.39877161664094 L 751.1083727717855 172.78728948150396 L 749.5039637558602 172.0476467942383 L 747.9625322938912 171.18440369796707 L 746.4935818234194 170.20288237343632 L 745.1061689125709 169.1091342260007 L 743.8088474233027 167.90990257669733 L 742.6096157739993 166.61258108742913 L 741.5158676265637 165.22516817658064 L 740.5343463020329 163.75621770610886 L 739.6711032057617 162.21478624413982 L 738.931460518496 160.61037722821453 L 738.3199783833591 158.95288237343632 L 737.8404267910523 157.25252068675786 L 737.4957623366095 155.5197754634052 L 737.2881099910046 153.7653296538765 L 737.21875 152 L 737.2881099910046 150.2346703461235 L 737.4957623366093 148.48022453659482 L 737.8404267910523 146.74747931324214 L 738.3199783833591 145.04711762656368 L 738.931460518496 143.38962277178547 L 739.6711032057617 141.7852137558602 L 740.5343463020329 140.24378229389114 L 741.5158676265637 138.77483182341936 L 742.6096157739993 137.38741891257087 L 743.8088474233027 136.0900974233027 L 745.1061689125709 134.8908657739993 L 746.4935818234194 133.79711762656368 L 747.9625322938912 132.81559630203293 L 749.5039637558602 131.9523532057617 L 751.1083727717855 131.21271051849604 L 752.7658676265637 130.60122838335903 L 754.4662293132421 130.12167679105227 L 756.1989745365948 129.7770123366094 L 757.9534203461236 129.5693599910046 L 759.7187500000001 129.5 L 761.4840796538766 129.56935999100463 L 763.2385254634053 129.7770123366094 L 764.971270686758 130.1216767910523 L 766.6716323734364 130.60122838335909 L 768.3291272282146 131.2127105184961 L 769.9335362441399 131.9523532057618 L 771.4749677061089 132.815596302033 L 772.9439181765807 133.79711762656376 L 774.3313310874292 134.89086577399942 L 775.6286525766974 136.0900974233028 L 776.8278842260008 137.387418912571 L 777.9216323734364 138.7748318234195 L 778.9031536979671 140.24378229389131 L 779.7663967942384 141.78521375586038 L 780.506039481504 143.3896227717857 L 781.117521616641 145.0471176265639 L 781.5970732089478 146.74747931324237 L 781.9417376633907 148.48022453659505 L 782.1493900089954 150.23467034612375 Z" fill-opacity="1" stroke-opacity="1" stroke-miterlimit="10" stroke-width="6"/><text fill="rgb(255,255,255)" stroke="none" font-family="times new roman" font-size="15px" font-style="normal" font-weight="normal" text-decoration="normal" x="759.71875" y="159.5" text-anchor="middle" dominant-baseline="text-after-edge" fill-opacity="1">*39</text><path fill="rgb(176,190,197)" stroke="none" paint-order="stroke fill markers" d=" M 273.90625 183.87500000000003 L 273.90625 393.875 L 348.90625 393.875 L 348.90625 183.87500000000006 Z" fill-opacity="0.8"/><text fill="rgb(0,0,0)" stroke="none" font-family="times new roman" font-size="10px" font-style="normal" font-weight="normal" text-decoration="normal" x="278.90625" y="198.875" text-anchor="start" dominant-baseline="text-after-edge" fill-opacity="0.8">42126310C&gt;T </text><text fill="rgb(0,0,0)" stroke="none" font-family="times new roman" font-size="10px" font-style="normal" font-weight="normal" text-decoration="normal" x="278.90625" y="208.875" text-anchor="start" dominant-baseline="text-after-edge" fill-opacity="0.8">42127001G&gt;A </text><text fill="rgb(0,0,0)" stroke="none" font-family="times new roman" font-size="10px" font-style="normal" font-weight="normal" text-decoration="normal" x="278.90625" y="218.875" text-anchor="start" dominant-baseline="text-after-edge" fill-opacity="0.8">42127207C&gt;T </text><text fill="rgb(0,0,0)" stroke="none" font-family="times new roman" font-size="10px" font-style="normal" font-weight="normal" text-decoration="normal" x="278.90625" y="228.875" text-anchor="start" dominant-baseline="text-after-edge" fill-opacity="0.8">42129130C&gt;G </text><text fill="rgb(0,0,0)" stroke="none" font-family="times new roman" font-size="10px" font-style="normal" font-weight="normal" text-decoration="normal" x="278.90625" y="238.875" text-anchor="start" dominant-baseline="text-after-edge" fill-opacity="0.8">42131469C&gt;T </text><text fill="rgb(0,0,0)" stroke="none" font-family="times new roman" font-size="10px" font-style="normal" font-weight="normal" text-decoration="normal" x="278.90625" y="248.875" text-anchor="start" dominant-baseline="text-after-edge" fill-opacity="0.8">42131531G&gt;A </text><text fill="rgb(0,0,0)" stroke="none" font-family="times new roman" font-size="10px" font-style="normal" font-weight="normal" text-decoration="normal" x="278.90625" y="258.875" text-anchor="start" dominant-baseline="text-after-edge" fill-opacity="0.8">42132026T&gt;C </text><text fill="rgb(0,0,0)" stroke="none" font-family="times new roman" font-size="10px" font-style="normal" font-weight="normal" text-decoration="normal" x="278.90625" y="268.875" text-anchor="start" dominant-baseline="text-after-edge" fill-opacity="0.8">42132375G&gt;C </text><path fill="rgb(176,190,197)" stroke="none" paint-order="stroke fill markers" d=" M 445.09375 183.875 L 512.09375 183.875 L 512.09375 183.875 A 8 8 0 0 1 520.09375 191.875 L 520.09375 385.875 L 520.09375 385.875 A 8 8 0 0 1 512.09375 393.875 L 378.09375 393.875 L 378.09375 393.875 A 8 8 0 0 1 370.09375 385.875 L 370.09375 191.875 L 370.09375 191.875 A 8 8 0 0 1 378.09375 183.875 L 445.09375 183.875 Z" fill-opacity="0.8"/><text fill="rgb(0,0,0)" stroke="none" font-family="times new roman" font-size="10px" font-style="normal" font-weight="normal" text-decoration="normal" x="375.09375" y="198.875" text-anchor="start" dominant-baseline="text-after-edge" fill-opacity="0.8">42125924A&gt;G </text><text fill="rgb(0,0,0)" stroke="none" font-family="times new roman" font-size="10px" font-style="normal" font-weight="normal" text-decoration="normal" x="375.09375" y="208.875" text-anchor="start" dominant-baseline="text-after-edge" fill-opacity="0.8">42126069A&gt;C </text><text fill="rgb(0,0,0)" stroke="none" font-family="times new roman" font-size="10px" font-style="normal" font-weight="normal" text-decoration="normal" x="375.09375" y="218.875" text-anchor="start" dominant-baseline="text-after-edge" fill-opacity="0.8">42126136_42126138del </text><text fill="rgb(0,0,0)" stroke="none" font-family="times new roman" font-size="10px" font-style="normal" font-weight="normal" text-decoration="normal" x="375.09375" y="228.875" text-anchor="start" dominant-baseline="text-after-edge" fill-opacity="0.8">42132025_42132026insCCTTTT </text><text fill="rgb(0,0,0)" stroke="none" font-family="times new roman" font-size="10px" font-style="normal" font-weight="normal" text-decoration="normal" x="375.09375" y="238.875" text-anchor="start" dominant-baseline="text-after-edge" fill-opacity="0.8">42132027C&gt;T </text><text fill="rgb(0,0,0)" stroke="none" font-family="times new roman" font-size="10px" font-style="normal" font-weight="normal" text-decoration="normal" x="375.09375" y="248.875" text-anchor="start" dominant-baseline="text-after-edge" fill-opacity="0.8">42132561C&gt;T </text><text fill="rgb(0,0,0)" stroke="none" font-family="times new roman" font-size="10px" font-style="normal" font-weight="normal" text-decoration="normal" x="375.09375" y="258.875" text-anchor="start" dominant-baseline="text-after-edge" fill-opacity="0.8">42132844C&gt;A </text><text fill="rgb(0,0,0)" stroke="none" font-family="times new roman" font-size="10px" font-style="normal" font-weight="normal" text-decoration="normal" x="375.09375" y="268.875" text-anchor="start" dominant-baseline="text-after-edge" fill-opacity="0.8">42132851T&gt;C </text><text fill="rgb(0,0,0)" stroke="none" font-family="times new roman" font-size="10px" font-style="normal" font-weight="normal" text-decoration="normal" x="375.09375" y="278.875" text-anchor="start" dominant-baseline="text-after-edge" fill-opacity="0.8">42133400T&gt;G </text><text fill="rgb(0,0,0)" stroke="none" font-family="times new roman" font-size="10px" font-style="normal" font-weight="normal" text-decoration="normal" x="375.09375" y="288.875" text-anchor="start" dominant-baseline="text-after-edge" fill-opacity="0.8">42133533A&gt;C </text><text fill="rgb(0,0,0)" stroke="none" font-family="times new roman" font-size="10px" font-style="normal" font-weight="normal" text-decoration="normal" x="375.09375" y="298.875" text-anchor="start" dominant-baseline="text-after-edge" fill-opacity="0.8">42134096del </text><text fill="rgb(0,0,0)" stroke="none" font-family="times new roman" font-size="10px" font-style="normal" font-weight="normal" text-decoration="normal" x="375.09375" y="308.875" text-anchor="start" dominant-baseline="text-after-edge" fill-opacity="0.8">42134820T&gt;G </text><text fill="rgb(0,0,0)" stroke="none" font-family="times new roman" font-size="10px" font-style="normal" font-weight="normal" text-decoration="normal" x="375.09375" y="318.875" text-anchor="start" dominant-baseline="text-after-edge" fill-opacity="0.8">42135064_42135066dup </text><text fill="rgb(0,0,0)" stroke="none" font-family="times new roman" font-size="10px" font-style="normal" font-weight="normal" text-decoration="normal" x="375.09375" y="328.875" text-anchor="start" dominant-baseline="text-after-edge" fill-opacity="0.8">42135201T&gt;C </text><text fill="rgb(0,0,0)" stroke="none" font-family="times new roman" font-size="10px" font-style="normal" font-weight="normal" text-decoration="normal" x="375.09375" y="338.875" text-anchor="start" dominant-baseline="text-after-edge" fill-opacity="0.8">42135691T&gt;C </text><g transform="scale(0.9307079414838035,0.9307079414838035) translate(111.05525928005045,-36.99894744228476)"/></g></svg>