<svg version="1.1" xmlns="http://www.w3.org/2000/svg" xmlns:xlink="http://www.w3.org/1999/xlink" width="1017" height="608"><defs/><g transform="translate(-114.16960352422905,50.02643171806167) scale(1.0220264317180616,1.0220264317180616)"><path fill="none" stroke="rgb(120,144,156)" paint-order="fill stroke markers" d=" M 415.69262576778584 172.33965907696316 L 487.22608985827014 266.94007354445154" stroke-opacity="1" stroke-linejoin="round" stroke-miterlimit="10"/><path fill="rgb(120,144,156)" stroke="none" paint-order="stroke fill markers" d=" M 479.7153306571347 264.2195963395188 L 488.43237423221416 268.53534092303687 L 486.65474375398094 258.97225931286243 Z" fill-opacity="1"/><path fill="none" stroke="rgb(55,71,79)" paint-order="fill stroke markers" d=" M 365.08431332623115 95.86402773936021 L 386.7579273259076 130.40084354372266" stroke-opacity="1" stroke-linejoin="round" stroke-miterlimit="10" stroke-width="2"/><path fill="none" stroke="rgb(120,144,156)" paint-order="fill stroke markers" d=" M 708.7618150684932 165 L 751.9892691510761 268.12431856302476" stroke-opacity="1" stroke-linejoin="round" stroke-miterlimit="10"/><path fill="rgb(120,144,156)" stroke="none" paint-order="stroke fill markers" d=" M 745.3873308871368 263.62688472147295 L 752.762445226536 269.9688235796448 L 753.410927709434 260.2635687932224 Z" fill-opacity="1"/><path fill="none" stroke="rgb(55,71,79)" paint-order="fill stroke markers" d=" M 503.8125 172.5 L 503.8125 263.375" stroke-opacity="1" stroke-linejoin="round" stroke-miterlimit="10" stroke-width="2"/><path fill="none" stroke="rgb(120,144,156)" paint-order="fill stroke markers" d=" M 324.1875 308.17485337243403 L 728.3821676107046 412.1868242898514" stroke-opacity="1" stroke-linejoin="round" stroke-miterlimit="10"/><path fill="rgb(120,144,156)" stroke="none" paint-order="stroke fill markers" d=" M 720.8094866601932 414.7298546124709 L 730.319065374366 412.68524886099885 L 722.9776335446847 406.30434934054387 Z" fill-opacity="1"/><path fill="none" stroke="rgb(55,71,79)" paint-order="fill stroke markers" d=" M 569.3456632653061 91.5 L 593.7579273259075 130.40084354372266" stroke-opacity="1" stroke-linejoin="round" stroke-miterlimit="10" stroke-width="2"/><path fill="none" stroke="rgb(120,144,156)" paint-order="fill stroke markers" d=" M 526.5066382799438 300.5036752354165 L 733.7963949981647 406.720762254534" stroke-opacity="1" stroke-linejoin="round" stroke-miterlimit="10"/><path fill="rgb(120,144,156)" stroke="none" paint-order="stroke fill markers" d=" M 725.8499062236672 407.5367378404346 L 735.5763274122779 407.6328152141745 L 729.8173365981035 399.794031839042 Z" fill-opacity="1"/><path fill="none" stroke="rgb(120,144,156)" paint-order="fill stroke markers" d=" M 916.8590025630999 171.42661329700383 L 949.2523142600123 267.553107356947" stroke-opacity="1" stroke-linejoin="round" stroke-miterlimit="10"/><path fill="rgb(120,144,156)" stroke="none" paint-order="stroke fill markers" d=" M 942.9904930397812 262.5930574574133 L 949.8909974369001 269.4483867029962 L 951.234958195095 259.8147856379514 Z" fill-opacity="1"/><path fill="none" stroke="rgb(55,71,79)" paint-order="fill stroke markers" d=" M 910.3125 91.5 L 910.3125 131.5" stroke-opacity="1" stroke-linejoin="round" stroke-miterlimit="10" stroke-width="2"/><path fill="none" stroke="rgb(120,144,156)" paint-order="fill stroke markers" d=" M 998.1816780821918 165 L 963.6226857399877 267.553107356947" stroke-opacity="1" stroke-linejoin="round" stroke-miterlimit="10"/><path fill="rgb(120,144,156)" stroke="none" paint-order="stroke fill markers" d=" M 961.640041804905 259.8147856379514 L 962.9840025630999 269.4483867029962 L 969.8845069602187 262.5930574574133 Z" fill-opacity="1"/><path fill="none" stroke="rgb(120,144,156)" paint-order="fill stroke markers" d=" M 812.6131849315068 165 L 769.3857308489239 268.12431856302476" stroke-opacity="1" stroke-linejoin="round" stroke-miterlimit="10"/><path fill="rgb(120,144,156)" stroke="none" paint-order="stroke fill markers" d=" M 767.964072290566 260.2635687932224 L 768.612554773464 269.9688235796448 L 775.9876691128632 263.62688472147295 Z" fill-opacity="1"/><path fill="none" stroke="rgb(120,144,156)" paint-order="fill stroke markers" d=" M 591.9323742322142 172.33965907696316 L 520.3989101417297 266.94007354445154" stroke-opacity="1" stroke-linejoin="round" stroke-miterlimit="10"/><path fill="rgb(120,144,156)" stroke="none" paint-order="stroke fill markers" d=" M 520.9702562460191 258.97225931286243 L 519.1926257677858 268.53534092303687 L 527.9096693428653 264.2195963395188 Z" fill-opacity="1"/><path fill="none" stroke="rgb(55,71,79)" paint-order="fill stroke markers" d=" M 438.27933673469386 91.5 L 413.8670726740924 130.40084354372266" stroke-opacity="1" stroke-linejoin="round" stroke-miterlimit="10" stroke-width="2"/><path fill="none" stroke="rgb(120,144,156)" paint-order="fill stroke markers" d=" M 197.94058219178083 165 L 204.9845893236898 182.02690465660112" stroke-opacity="1" stroke-linejoin="round" stroke-miterlimit="10"/><path fill="rgb(120,144,156)" stroke="none" paint-order="stroke fill markers" d=" M 198.40372433684297 177.49869131965536 L 205.74914383561645 183.875 L 206.44293908062807 174.17287919277442 Z" fill-opacity="1"/><path fill="none" stroke="rgb(55,71,79)" paint-order="fill stroke markers" d=" M 695.8735915539901 90.22785073102472 L 628.2273617255245 137.4116978711644" stroke-opacity="1" stroke-linejoin="round" stroke-miterlimit="10" stroke-width="2"/><path fill="none" stroke="rgb(120,144,156)" paint-order="fill stroke markers" d=" M 760.6875 309.375 L 760.6875 400" stroke-opacity="1" stroke-linejoin="round" stroke-miterlimit="10"/><path fill="rgb(120,144,156)" stroke="none" paint-order="stroke fill markers" d=" M 756.3375 393.3 L 760.6875 402 L 765.0375 393.3 Z" fill-opacity="1"/><path fill="none" stroke="rgb(120,144,156)" paint-order="fill stroke markers" d=" M 939.4257273288001 300.31395058925506 L 784.9985902106208 404.1528876169964" stroke-opacity="1" stroke-linejoin="round" stroke-miterlimit="10"/><path fill="rgb(120,144,156)" stroke="none" paint-order="stroke fill markers" d=" M 788.1312459098295 396.80448858930237 L 783.3389050719671 405.26888279643595 L 792.9858249403915 404.0241189424457 Z" fill-opacity="1"/><path fill="none" stroke="rgb(120,144,156)" paint-order="fill stroke markers" d=" M 301.26181506849315 163 L 293.3904106763102 182.02690465660112" stroke-opacity="1" stroke-linejoin="round" stroke-miterlimit="10"/><path fill="rgb(120,144,156)" stroke="none" paint-order="stroke fill markers" d=" M 291.93206091937196 174.17287919277442 L 292.62585616438355 183.875 L 299.97127566315703 177.4986913196554 Z" fill-opacity="1"/><path fill="none" stroke="rgb(120,144,156)" paint-order="fill stroke markers" d=" M 1001.4375 306.614218328841 L 788.2958491173938 407.43998579487163" stroke-opacity="1" stroke-linejoin="round" stroke-miterlimit="10"/><path fill="rgb(120,144,156)" stroke="none" paint-order="stroke fill markers" d=" M 792.4922625616043 400.64273530623655 L 786.4879271678769 408.29521571977784 L 796.2125127349464 408.50719578663495 Z" fill-opacity="1"/><path fill="rgb(69,90,100)" stroke="rgb(76,175,80)" paint-order="fill stroke markers" d=" M 371.6875 78.5 L 371.63355334032974 79.87303417523728 L 371.4720459604149 81.23760313820404 L 371.2039736069593 82.58529386747834 L 370.8309890351652 83.90779740156158 L 370.3553918189475 85.19696006638907 L 369.78011417329645 86.44483374544207 L 369.1087028761966 87.6437248825291 L 368.3452974015616 88.78624191511828 L 367.49460439800055 89.8653408457782 L 366.56186867076457 90.87436867076458 L 365.55284084577823 91.80710439800055 L 364.4737419151183 92.65779740156158 L 363.3312248825291 93.42120287619662 L 362.13233374544205 94.09261417329644 L 360.88446006638907 94.66789181894751 L 359.5952974015616 95.14348903516519 L 358.27279386747836 95.51647360695934 L 356.92510313820407 95.7845459604149 L 355.5605341752373 95.94605334032974 L 354.1875 96 L 352.8144658247627 95.94605334032974 L 351.44989686179593 95.7845459604149 L 350.10220613252164 95.51647360695934 L 348.7797025984384 95.14348903516519 L 347.49053993361093 94.66789181894751 L 346.24266625455795 94.09261417329644 L 345.0437751174709 93.42120287619662 L 343.9012580848817 92.65779740156158 L 342.82215915422177 91.80710439800055 L 341.81313132923543 90.87436867076458 L 340.88039560199945 89.86534084577822 L 340.0297025984384 88.78624191511828 L 339.2662971238034 87.64372488252911 L 338.59488582670355 86.44483374544207 L 338.0196081810525 85.19696006638907 L 337.5440109648348 83.90779740156158 L 337.1710263930407 82.58529386747834 L 336.9029540395851 81.23760313820404 L 336.74144665967026 79.8730341752373 L 336.6875 78.5 L 336.74144665967026 77.12696582476272 L 336.9029540395851 75.76239686179596 L 337.1710263930407 74.41470613252166 L 337.5440109648348 73.09220259843842 L 338.0196081810525 71.80303993361093 L 338.59488582670355 70.55516625455793 L 339.2662971238034 69.3562751174709 L 340.0297025984384 68.21375808488172 L 340.88039560199945 67.1346591542218 L 341.81313132923543 66.12563132923542 L 342.82215915422177 65.19289560199947 L 343.9012580848817 64.34220259843842 L 345.0437751174709 63.57879712380338 L 346.24266625455795 62.90738582670356 L 347.49053993361093 62.332108181052476 L 348.77970259843846 61.856510964834804 L 350.1022061325217 61.48352639304065 L 351.449896861796 61.21545403958508 L 352.81446582476275 61.05394665967026 L 354.18750000000006 61 L 355.56053417523736 61.05394665967027 L 356.9251031382041 61.2154540395851 L 358.2727938674784 61.48352639304068 L 359.59529740156165 61.85651096483484 L 360.8844600663892 62.33210818105252 L 362.13233374544217 62.90738582670361 L 363.3312248825292 63.57879712380345 L 364.47374191511835 64.34220259843849 L 365.5528408457783 65.19289560199954 L 366.5618686707647 66.12563132923552 L 367.49460439800066 67.1346591542219 L 368.34529740156165 68.21375808488185 L 369.1087028761967 69.35627511747103 L 369.7801141732965 70.55516625455807 L 370.35539181894757 71.80303993361109 L 370.83098903516526 73.09220259843859 L 371.2039736069594 74.41470613252184 L 371.47204596041496 75.76239686179616 L 371.63355334032974 77.12696582476292 Z" fill-opacity="1" stroke-opacity="1" stroke-miterlimit="10" stroke-width="6"/><text fill="rgb(255,255,255)" stroke="none" font-family="times new roman" font-size="10px" font-style="normal" font-weight="normal" text-decoration="normal" x="354.1875" y="83.5" text-anchor="middle" dominant-baseline="text-after-edge" fill-opacity="1">*34.1</text><path fill="rgb(69,90,100)" stroke="rgb(76,175,80)" paint-order="fill stroke markers" d=" M 629.8125 152 L 629.7431400089954 153.7653296538765 L 629.5354876633907 155.51977546340518 L 629.1908232089477 157.25252068675786 L 628.7112716166409 158.95288237343632 L 628.099789481504 160.61037722821453 L 627.3601467942383 162.21478624413982 L 626.4969036979671 163.75621770610886 L 625.5153823734363 165.22516817658064 L 624.4216342260007 166.61258108742913 L 623.2224025766973 167.9099025766973 L 621.9250810874291 169.1091342260007 L 620.5376681765806 170.20288237343632 L 619.0687177061088 171.18440369796707 L 617.5272862441398 172.0476467942383 L 615.9228772282145 172.78728948150396 L 614.2653823734363 173.39877161664094 L 612.5650206867579 173.87832320894773 L 610.8322754634052 174.2229876633906 L 609.0778296538765 174.43064000899537 L 607.3125 174.5 L 605.5471703461235 174.43064000899537 L 603.7927245365948 174.2229876633906 L 602.0599793132421 173.87832320894773 L 600.3596176265637 173.39877161664094 L 598.7021227717855 172.78728948150396 L 597.0977137558602 172.0476467942383 L 595.5562822938912 171.18440369796707 L 594.0873318234194 170.20288237343632 L 592.6999189125709 169.1091342260007 L 591.4025974233027 167.90990257669733 L 590.2033657739993 166.61258108742913 L 589.1096176265637 165.22516817658064 L 588.1280963020329 163.75621770610886 L 587.2648532057617 162.21478624413982 L 586.525210518496 160.61037722821453 L 585.9137283833591 158.95288237343632 L 585.4341767910523 157.25252068675786 L 585.0895123366095 155.5197754634052 L 584.8818599910046 153.7653296538765 L 584.8125 152 L 584.8818599910046 150.2346703461235 L 585.0895123366093 148.48022453659482 L 585.4341767910523 146.74747931324214 L 585.9137283833591 145.04711762656368 L 586.525210518496 143.38962277178547 L 587.2648532057617 141.7852137558602 L 588.1280963020329 140.24378229389114 L 589.1096176265637 138.77483182341936 L 590.2033657739993 137.38741891257087 L 591.4025974233027 136.0900974233027 L 592.6999189125709 134.8908657739993 L 594.0873318234194 133.79711762656368 L 595.5562822938912 132.81559630203293 L 597.0977137558602 131.9523532057617 L 598.7021227717855 131.21271051849604 L 600.3596176265637 130.60122838335903 L 602.0599793132421 130.12167679105227 L 603.7927245365948 129.7770123366094 L 605.5471703461236 129.5693599910046 L 607.3125000000001 129.5 L 609.0778296538766 129.56935999100463 L 610.8322754634053 129.7770123366094 L 612.565020686758 130.1216767910523 L 614.2653823734364 130.60122838335909 L 615.9228772282146 131.2127105184961 L 617.5272862441399 131.9523532057618 L 619.0687177061089 132.815596302033 L 620.5376681765807 133.79711762656376 L 621.9250810874292 134.89086577399942 L 623.2224025766974 136.0900974233028 L 624.4216342260008 137.387418912571 L 625.5153823734364 138.7748318234195 L 626.4969036979671 140.24378229389131 L 627.3601467942384 141.78521375586038 L 628.099789481504 143.3896227717857 L 628.711271616641 145.0471176265639 L 629.1908232089478 146.74747931324237 L 629.5354876633907 148.48022453659505 L 629.7431400089954 150.23467034612375 Z" fill-opacity="1" stroke-opacity="1" stroke-miterlimit="10" stroke-width="6"/><text fill="rgb(255,255,255)" stroke="none" font-family="times new roman" font-size="15px" font-style="normal" font-weight="normal" text-decoration="normal" x="607.3125" y="159.5" text-anchor="middle" dominant-baseline="text-after-edge" fill-opacity="1">*39</text><path fill="rgb(69,90,100)" stroke="rgb(76,175,80)" paint-order="fill stroke markers" d=" M 973.9375 288.875 L 973.8835533403297 290.2480341752373 L 973.7220459604149 291.61260313820407 L 973.4539736069594 292.96029386747836 L 973.0809890351652 294.2827974015616 L 972.6053918189475 295.57196006638907 L 972.0301141732964 296.81983374544205 L 971.3587028761966 298.0187248825291 L 970.5952974015615 299.1612419151183 L 969.7446043980005 300.24034084577823 L 968.8118686707646 301.24936867076457 L 967.8028408457782 302.18210439800055 L 966.7237419151182 303.0327974015616 L 965.5812248825291 303.7962028761966 L 964.3823337454421 304.46761417329645 L 963.1344600663891 305.0428918189475 L 961.8452974015615 305.5184890351652 L 960.5227938674783 305.8914736069593 L 959.175103138204 306.1595459604149 L 957.8105341752373 306.32105334032974 L 956.4375 306.375 L 955.0644658247627 306.32105334032974 L 953.699896861796 306.1595459604149 L 952.3522061325217 305.8914736069593 L 951.0297025984385 305.5184890351652 L 949.7405399336109 305.0428918189475 L 948.4926662545579 304.46761417329645 L 947.2937751174709 303.7962028761966 L 946.1512580848818 303.0327974015616 L 945.0721591542218 302.18210439800055 L 944.0631313292354 301.24936867076457 L 943.1303956019995 300.24034084577823 L 942.2797025984385 299.1612419151183 L 941.5162971238034 298.0187248825291 L 940.8448858267036 296.81983374544205 L 940.2696081810525 295.57196006638907 L 939.7940109648348 294.2827974015616 L 939.4210263930406 292.96029386747836 L 939.1529540395851 291.61260313820407 L 938.9914466596703 290.2480341752373 L 938.9375 288.875 L 938.9914466596703 287.5019658247627 L 939.1529540395851 286.13739686179593 L 939.4210263930406 284.78970613252164 L 939.7940109648348 283.4672025984384 L 940.2696081810525 282.17803993361093 L 940.8448858267036 280.93016625455795 L 941.5162971238034 279.7312751174709 L 942.2797025984385 278.5887580848817 L 943.1303956019995 277.50965915422177 L 944.0631313292354 276.50063132923543 L 945.0721591542218 275.56789560199945 L 946.1512580848818 274.7172025984384 L 947.2937751174709 273.9537971238034 L 948.4926662545579 273.28238582670355 L 949.740539933611 272.7071081810525 L 951.0297025984385 272.2315109648348 L 952.3522061325217 271.8585263930407 L 953.699896861796 271.5904540395851 L 955.0644658247628 271.42894665967026 L 956.4375000000001 271.375 L 957.8105341752373 271.42894665967026 L 959.1751031382041 271.5904540395851 L 960.5227938674784 271.8585263930407 L 961.8452974015617 272.23151096483485 L 963.1344600663891 272.7071081810525 L 964.3823337454421 273.2823858267036 L 965.5812248825292 273.95379712380344 L 966.7237419151184 274.7172025984385 L 967.8028408457783 275.56789560199957 L 968.8118686707646 276.5006313292355 L 969.7446043980007 277.5096591542219 L 970.5952974015617 278.5887580848818 L 971.3587028761967 279.73127511747106 L 972.0301141732965 280.93016625455806 L 972.6053918189476 282.1780399336111 L 973.0809890351652 283.4672025984386 L 973.4539736069594 284.7897061325218 L 973.7220459604149 286.13739686179616 L 973.8835533403297 287.5019658247629 Z" fill-opacity="1" stroke-opacity="1" stroke-miterlimit="10" stroke-width="6"/><text fill="rgb(255,255,255)" stroke="none" font-family="times new roman" font-size="10px" font-style="normal" font-weight="normal" text-decoration="normal" x="956.4375" y="293.875" text-anchor="middle" dominant-baseline="text-after-edge" fill-opacity="1">*1.54</text><path fill="rgb(69,90,100)" stroke="rgb(76,175,80)" paint-order="fill stroke markers" d=" M 521.3125 152 L 521.2585533403297 153.37303417523728 L 521.0970459604149 154.73760313820404 L 520.8289736069594 156.08529386747836 L 520.4559890351652 157.40779740156157 L 519.9803918189475 158.69696006638907 L 519.4051141732964 159.94483374544205 L 518.7337028761966 161.1437248825291 L 517.9702974015615 162.28624191511827 L 517.1196043980005 163.3653408457782 L 516.1868686707646 164.37436867076457 L 515.1778408457782 165.30710439800055 L 514.0987419151182 166.1577974015616 L 512.9562248825291 166.92120287619662 L 511.75733374544205 167.59261417329643 L 510.50946006638907 168.1678918189475 L 509.2202974015616 168.64348903516517 L 507.89779386747836 169.01647360695935 L 506.55010313820407 169.2845459604149 L 505.1855341752373 169.44605334032974 L 503.8125 169.5 L 502.4394658247627 169.44605334032974 L 501.07489686179593 169.2845459604149 L 499.72720613252164 169.01647360695935 L 498.4047025984384 168.6434890351652 L 497.11553993361093 168.1678918189475 L 495.86766625455795 167.59261417329643 L 494.6687751174709 166.92120287619662 L 493.5262580848817 166.1577974015616 L 492.44715915422177 165.30710439800055 L 491.43813132923543 164.37436867076457 L 490.50539560199945 163.3653408457782 L 489.6547025984384 162.2862419151183 L 488.8912971238034 161.1437248825291 L 488.21988582670355 159.94483374544208 L 487.6446081810525 158.69696006638907 L 487.1690109648348 157.4077974015616 L 486.7960263930407 156.08529386747836 L 486.5279540395851 154.73760313820404 L 486.36644665967026 153.37303417523728 L 486.3125 152 L 486.36644665967026 150.62696582476272 L 486.5279540395851 149.26239686179596 L 486.7960263930407 147.91470613252164 L 487.1690109648348 146.59220259843843 L 487.6446081810525 145.30303993361093 L 488.21988582670355 144.05516625455795 L 488.8912971238034 142.8562751174709 L 489.6547025984384 141.71375808488173 L 490.50539560199945 140.6346591542218 L 491.43813132923543 139.62563132923543 L 492.44715915422177 138.69289560199945 L 493.5262580848817 137.84220259843843 L 494.6687751174709 137.07879712380338 L 495.86766625455795 136.40738582670355 L 497.11553993361093 135.8321081810525 L 498.40470259843846 135.3565109648348 L 499.7272061325217 134.98352639304065 L 501.074896861796 134.7154540395851 L 502.43946582476275 134.55394665967026 L 503.81250000000006 134.5 L 505.18553417523736 134.55394665967026 L 506.5501031382041 134.7154540395851 L 507.8977938674784 134.98352639304068 L 509.22029740156165 135.35651096483485 L 510.5094600663892 135.83210818105252 L 511.75733374544217 136.4073858267036 L 512.9562248825292 137.07879712380344 L 514.0987419151184 137.8422025984385 L 515.1778408457783 138.69289560199954 L 516.1868686707646 139.62563132923552 L 517.1196043980007 140.6346591542219 L 517.9702974015617 141.71375808488185 L 518.7337028761967 142.85627511747103 L 519.4051141732965 144.0551662545581 L 519.9803918189476 145.3030399336111 L 520.4559890351652 146.5922025984386 L 520.8289736069594 147.91470613252184 L 521.0970459604149 149.26239686179616 L 521.2585533403297 150.62696582476292 Z" fill-opacity="1" stroke-opacity="1" stroke-miterlimit="10" stroke-width="6"/><text fill="rgb(255,255,255)" stroke="none" font-family="times new roman" font-size="10px" font-style="normal" font-weight="normal" text-decoration="normal" x="503.8125" y="157" text-anchor="middle" dominant-baseline="text-after-edge" fill-opacity="1">*2.4</text><path fill="rgb(69,90,100)" stroke="rgb(69,90,100)" paint-order="fill stroke markers" d=" M 741.9375 403 L 723.1875 420.5 L 741.9375 438 L 779.4375 438 L 798.1875 420.5 L 779.4375 403 Z" fill-opacity="1" stroke-opacity="1" stroke-miterlimit="10" stroke-width="2"/><text fill="rgb(255,255,255)" stroke="none" font-family="times new roman" font-size="10px" font-style="normal" font-weight="normal" text-decoration="normal" x="760.6875" y="425.5" text-anchor="middle" dominant-baseline="text-after-edge" fill-opacity="1">NA18942-A</text><path fill="rgb(69,90,100)" stroke="rgb(76,175,80)" paint-order="fill stroke markers" d=" M 730.1875 78.5 L 730.1335533403297 79.87303417523728 L 729.9720459604149 81.23760313820404 L 729.7039736069594 82.58529386747834 L 729.3309890351652 83.90779740156158 L 728.8553918189475 85.19696006638907 L 728.2801141732964 86.44483374544207 L 727.6087028761966 87.6437248825291 L 726.8452974015615 88.78624191511828 L 725.9946043980005 89.8653408457782 L 725.0618686707646 90.87436867076458 L 724.0528408457782 91.80710439800055 L 722.9737419151182 92.65779740156158 L 721.8312248825291 93.42120287619662 L 720.6323337454421 94.09261417329644 L 719.3844600663891 94.66789181894751 L 718.0952974015615 95.14348903516519 L 716.7727938674783 95.51647360695934 L 715.425103138204 95.7845459604149 L 714.0605341752373 95.94605334032974 L 712.6875 96 L 711.3144658247627 95.94605334032974 L 709.949896861796 95.7845459604149 L 708.6022061325217 95.51647360695934 L 707.2797025984385 95.14348903516519 L 705.9905399336109 94.66789181894751 L 704.7426662545579 94.09261417329644 L 703.5437751174709 93.42120287619662 L 702.4012580848818 92.65779740156158 L 701.3221591542218 91.80710439800055 L 700.3131313292354 90.87436867076458 L 699.3803956019995 89.86534084577822 L 698.5297025984385 88.78624191511828 L 697.7662971238034 87.64372488252911 L 697.0948858267036 86.44483374544207 L 696.5196081810525 85.19696006638907 L 696.0440109648348 83.90779740156158 L 695.6710263930406 82.58529386747834 L 695.4029540395851 81.23760313820404 L 695.2414466596703 79.8730341752373 L 695.1875 78.5 L 695.2414466596703 77.12696582476272 L 695.4029540395851 75.76239686179596 L 695.6710263930406 74.41470613252166 L 696.0440109648348 73.09220259843842 L 696.5196081810525 71.80303993361093 L 697.0948858267036 70.55516625455793 L 697.7662971238034 69.3562751174709 L 698.5297025984385 68.21375808488172 L 699.3803956019995 67.1346591542218 L 700.3131313292354 66.12563132923542 L 701.3221591542218 65.19289560199947 L 702.4012580848818 64.34220259843842 L 703.5437751174709 63.57879712380338 L 704.7426662545579 62.90738582670356 L 705.990539933611 62.332108181052476 L 707.2797025984385 61.856510964834804 L 708.6022061325217 61.48352639304065 L 709.949896861796 61.21545403958508 L 711.3144658247628 61.05394665967026 L 712.6875000000001 61 L 714.0605341752373 61.05394665967027 L 715.4251031382041 61.2154540395851 L 716.7727938674784 61.48352639304068 L 718.0952974015617 61.85651096483484 L 719.3844600663891 62.33210818105252 L 720.6323337454421 62.90738582670361 L 721.8312248825292 63.57879712380345 L 722.9737419151184 64.34220259843849 L 724.0528408457783 65.19289560199954 L 725.0618686707646 66.12563132923552 L 725.9946043980007 67.1346591542219 L 726.8452974015617 68.21375808488185 L 727.6087028761967 69.35627511747103 L 728.2801141732965 70.55516625455807 L 728.8553918189476 71.80303993361109 L 729.3309890351652 73.09220259843859 L 729.7039736069594 74.41470613252184 L 729.9720459604149 75.76239686179616 L 730.1335533403297 77.12696582476292 Z" fill-opacity="1" stroke-opacity="1" stroke-miterlimit="10" stroke-width="6"/><text fill="rgb(255,255,255)" stroke="none" font-family="times new roman" font-size="10px" font-style="normal" font-weight="normal" text-decoration="normal" x="712.6875" y="83.5" text-anchor="middle" dominant-baseline="text-after-edge" fill-opacity="1">*39.2</text><path fill="rgb(69,90,100)" stroke="rgb(255,193,7)" paint-order="fill stroke markers" d=" M 398.9375 68.5 L 398.9375 88.5 L 493.9375 88.5 L 493.9375 68.5 Z" fill-opacity="1" stroke-opacity="1" stroke-miterlimit="10" stroke-width="6"/><text fill="rgb(255,255,255)" stroke="none" font-family="times new roman" font-size="10px" font-style="normal" font-weight="normal" text-decoration="normal" x="446.4375" y="83.5" text-anchor="middle" dominant-baseline="text-after-edge" fill-opacity="1">42127941G&gt;A</text><path fill="rgb(69,90,100)" stroke="rgb(76,175,80)" paint-order="fill stroke markers" d=" M 655.8125 142 L 655.8125 162 L 750.8125 162 L 750.8125 142 Z" fill-opacity="1" stroke-opacity="1" stroke-miterlimit="10" stroke-width="6"/><text fill="rgb(255,255,255)" stroke="none" font-family="times new roman" font-size="10px" font-style="normal" font-weight="normal" text-decoration="normal" x="703.3125" y="157" text-anchor="middle" dominant-baseline="text-after-edge" fill-opacity="1">42129950A&gt;C</text><path fill="rgb(69,90,100)" stroke="rgb(76,175,80)" paint-order="fill stroke markers" d=" M 526.3125 288.875 L 526.2431400089954 290.6403296538765 L 526.0354876633907 292.3947754634052 L 525.6908232089477 294.12752068675786 L 525.2112716166409 295.8278823734363 L 524.599789481504 297.48537722821453 L 523.8601467942383 299.0897862441398 L 522.9969036979671 300.6312177061088 L 522.0153823734363 302.10016817658067 L 520.9216342260007 303.48758108742913 L 519.7224025766973 304.78490257669733 L 518.4250810874291 305.9841342260007 L 517.0376681765806 307.0778823734363 L 515.5687177061088 308.05940369796707 L 514.0272862441398 308.9226467942383 L 512.4228772282145 309.66228948150393 L 510.7653823734363 310.27377161664094 L 509.06502068675786 310.75332320894773 L 507.3322754634052 311.0979876633906 L 505.5778296538765 311.3056400089954 L 503.8125 311.375 L 502.0471703461235 311.3056400089954 L 500.2927245365948 311.0979876633906 L 498.55997931324214 310.75332320894773 L 496.8596176265637 310.27377161664094 L 495.20212277178547 309.66228948150393 L 493.5977137558602 308.9226467942383 L 492.0562822938912 308.05940369796707 L 490.58733182341933 307.0778823734363 L 489.19991891257087 305.9841342260007 L 487.90259742330267 304.78490257669733 L 486.7033657739993 303.48758108742913 L 485.6096176265637 302.10016817658067 L 484.62809630203293 300.6312177061088 L 483.7648532057617 299.0897862441398 L 483.02521051849607 297.48537722821453 L 482.41372838335906 295.8278823734363 L 481.93417679105227 294.12752068675786 L 481.5895123366094 292.3947754634052 L 481.3818599910046 290.6403296538765 L 481.3125 288.875 L 481.3818599910046 287.1096703461235 L 481.5895123366094 285.3552245365948 L 481.93417679105227 283.62247931324214 L 482.41372838335906 281.9221176265637 L 483.02521051849607 280.26462277178547 L 483.7648532057617 278.6602137558602 L 484.62809630203293 277.1187822938912 L 485.6096176265637 275.64983182341933 L 486.7033657739993 274.26241891257087 L 487.90259742330267 272.96509742330267 L 489.19991891257087 271.76586577399934 L 490.58733182341933 270.6721176265637 L 492.0562822938912 269.69059630203293 L 493.59771375586024 268.8273532057617 L 495.2021227717855 268.087710518496 L 496.8596176265637 267.47622838335906 L 498.5599793132422 266.99667679105227 L 500.29272453659485 266.6520123366094 L 502.04717034612355 266.4443599910046 L 503.81250000000006 266.375 L 505.5778296538766 266.4443599910046 L 507.33227546340527 266.6520123366094 L 509.065020686758 266.9966767910523 L 510.7653823734364 267.47622838335906 L 512.4228772282146 268.0877105184961 L 514.0272862441399 268.82735320576177 L 515.5687177061089 269.690596302033 L 517.0376681765807 270.67211762656376 L 518.4250810874292 271.7658657739994 L 519.7224025766974 272.9650974233028 L 520.9216342260008 274.262418912571 L 522.0153823734364 275.6498318234195 L 522.9969036979671 277.11878229389134 L 523.8601467942384 278.6602137558604 L 524.599789481504 280.2646227717857 L 525.211271616641 281.92211762656393 L 525.6908232089478 283.62247931324237 L 526.0354876633907 285.3552245365951 L 526.2431400089954 287.1096703461238 Z" fill-opacity="1" stroke-opacity="1" stroke-miterlimit="10" stroke-width="6"/><text fill="rgb(255,255,255)" stroke="none" font-family="times new roman" font-size="15px" font-style="normal" font-weight="normal" text-decoration="normal" x="503.8125" y="296.375" text-anchor="middle" dominant-baseline="text-after-edge" fill-opacity="1">*2</text><path fill="rgb(3,169,244)" stroke="none" paint-order="stroke fill markers" d=" M 503.8125 256.375 L 528.3125 256.375 L 528.3125 256.375 A 8 8 0 0 1 536.3125 264.375 L 536.3125 313.375 L 536.3125 313.375 A 8 8 0 0 1 528.3125 321.375 L 479.3125 321.375 L 479.3125 321.375 A 8 8 0 0 1 471.3125 313.375 L 471.3125 264.375 L 471.3125 264.375 A 8 8 0 0 1 479.3125 256.375 L 503.8125 256.375 Z" fill-opacity="0.15"/><path fill="rgb(69,90,100)" stroke="rgb(255,193,7)" paint-order="fill stroke markers" d=" M 513.6875 68.5 L 513.6875 88.5 L 608.6875 88.5 L 608.6875 68.5 Z" fill-opacity="1" stroke-opacity="1" stroke-miterlimit="10" stroke-width="6"/><text fill="rgb(255,255,255)" stroke="none" font-family="times new roman" font-size="10px" font-style="normal" font-weight="normal" text-decoration="normal" x="561.1875" y="83.5" text-anchor="middle" dominant-baseline="text-after-edge" fill-opacity="1">42126611C&gt;G</text><path fill="rgb(69,90,100)" stroke="rgb(76,175,80)" paint-order="fill stroke markers" d=" M 422.8125 152 L 422.7431400089954 153.7653296538765 L 422.5354876633906 155.51977546340518 L 422.19082320894773 157.25252068675786 L 421.71127161664094 158.95288237343632 L 421.09978948150393 160.61037722821453 L 420.3601467942383 162.21478624413982 L 419.49690369796707 163.75621770610886 L 418.5153823734363 165.22516817658064 L 417.4216342260007 166.61258108742913 L 416.22240257669733 167.9099025766973 L 414.92508108742913 169.1091342260007 L 413.53766817658067 170.20288237343632 L 412.0687177061088 171.18440369796707 L 410.5272862441398 172.0476467942383 L 408.92287722821453 172.78728948150396 L 407.2653823734363 173.39877161664094 L 405.56502068675786 173.87832320894773 L 403.8322754634052 174.2229876633906 L 402.0778296538765 174.43064000899537 L 400.3125 174.5 L 398.5471703461235 174.43064000899537 L 396.7927245365948 174.2229876633906 L 395.05997931324214 173.87832320894773 L 393.3596176265637 173.39877161664094 L 391.70212277178547 172.78728948150396 L 390.0977137558602 172.0476467942383 L 388.5562822938912 171.18440369796707 L 387.08733182341933 170.20288237343632 L 385.69991891257087 169.1091342260007 L 384.40259742330267 167.90990257669733 L 383.2033657739993 166.61258108742913 L 382.1096176265637 165.22516817658064 L 381.12809630203293 163.75621770610886 L 380.2648532057617 162.21478624413982 L 379.52521051849607 160.61037722821453 L 378.91372838335906 158.95288237343632 L 378.43417679105227 157.25252068675786 L 378.0895123366094 155.5197754634052 L 377.8818599910046 153.7653296538765 L 377.8125 152 L 377.8818599910046 150.2346703461235 L 378.0895123366094 148.48022453659482 L 378.43417679105227 146.74747931324214 L 378.91372838335906 145.04711762656368 L 379.52521051849607 143.38962277178547 L 380.2648532057617 141.7852137558602 L 381.12809630203293 140.24378229389114 L 382.1096176265637 138.77483182341936 L 383.2033657739993 137.38741891257087 L 384.40259742330267 136.0900974233027 L 385.69991891257087 134.8908657739993 L 387.08733182341933 133.79711762656368 L 388.5562822938912 132.81559630203293 L 390.09771375586024 131.9523532057617 L 391.7021227717855 131.21271051849604 L 393.3596176265637 130.60122838335903 L 395.0599793132422 130.12167679105227 L 396.79272453659485 129.7770123366094 L 398.54717034612355 129.5693599910046 L 400.31250000000006 129.5 L 402.0778296538766 129.56935999100463 L 403.83227546340527 129.7770123366094 L 405.565020686758 130.1216767910523 L 407.2653823734364 130.60122838335909 L 408.92287722821465 131.2127105184961 L 410.52728624413993 131.9523532057618 L 412.068717706109 132.815596302033 L 413.5376681765808 133.79711762656376 L 414.92508108742925 134.89086577399942 L 416.22240257669745 136.0900974233028 L 417.42163422600083 137.387418912571 L 418.5153823734364 138.7748318234195 L 419.4969036979672 140.24378229389131 L 420.3601467942384 141.78521375586038 L 421.09978948150405 143.3896227717857 L 421.71127161664106 145.0471176265639 L 422.1908232089478 146.74747931324237 L 422.53548766339065 148.48022453659505 L 422.7431400089954 150.23467034612375 Z" fill-opacity="1" stroke-opacity="1" stroke-miterlimit="10" stroke-width="6"/><text fill="rgb(255,255,255)" stroke="none" font-family="times new roman" font-size="15px" font-style="normal" font-weight="normal" text-decoration="normal" x="400.3125" y="159.5" text-anchor="middle" dominant-baseline="text-after-edge" fill-opacity="1">*34</text><path fill="rgb(69,90,100)" stroke="rgb(76,175,80)" paint-order="fill stroke markers" d=" M 862.8125 68.5 L 862.8125 88.5 L 957.8125 88.5 L 957.8125 68.5 Z" fill-opacity="1" stroke-opacity="1" stroke-miterlimit="10" stroke-width="6"/><text fill="rgb(255,255,255)" stroke="none" font-family="times new roman" font-size="10px" font-style="normal" font-weight="normal" text-decoration="normal" x="910.3125" y="83.5" text-anchor="middle" dominant-baseline="text-after-edge" fill-opacity="1">42127407T&gt;G</text><path fill="rgb(69,90,100)" stroke="rgb(76,175,80)" paint-order="fill stroke markers" d=" M 305.8125 142 L 348.3125 142 L 348.3125 142 A 5 5 0 0 1 353.3125 147 L 353.3125 157 L 353.3125 157 A 5 5 0 0 1 348.3125 162 L 263.3125 162 L 263.3125 162 A 5 5 0 0 1 258.3125 157 L 258.3125 147 L 258.3125 147 A 5 5 0 0 1 263.3125 142 L 305.8125 142 Z" fill-opacity="1" stroke-opacity="1" stroke-miterlimit="10" stroke-width="2"/><text fill="rgb(255,255,255)" stroke="none" font-family="times new roman" font-size="10px" font-style="normal" font-weight="normal" text-decoration="normal" x="305.8125" y="157" text-anchor="middle" dominant-baseline="text-after-edge" fill-opacity="1">42132049dup</text><path fill="rgb(69,90,100)" stroke="rgb(76,175,80)" paint-order="fill stroke markers" d=" M 778.1875 288.875 L 778.1335533403297 290.2480341752373 L 777.9720459604149 291.61260313820407 L 777.7039736069594 292.96029386747836 L 777.3309890351652 294.2827974015616 L 776.8553918189475 295.57196006638907 L 776.2801141732964 296.81983374544205 L 775.6087028761966 298.0187248825291 L 774.8452974015615 299.1612419151183 L 773.9946043980005 300.24034084577823 L 773.0618686707646 301.24936867076457 L 772.0528408457782 302.18210439800055 L 770.9737419151182 303.0327974015616 L 769.8312248825291 303.7962028761966 L 768.6323337454421 304.46761417329645 L 767.3844600663891 305.0428918189475 L 766.0952974015615 305.5184890351652 L 764.7727938674783 305.8914736069593 L 763.425103138204 306.1595459604149 L 762.0605341752373 306.32105334032974 L 760.6875 306.375 L 759.3144658247627 306.32105334032974 L 757.949896861796 306.1595459604149 L 756.6022061325217 305.8914736069593 L 755.2797025984385 305.5184890351652 L 753.9905399336109 305.0428918189475 L 752.7426662545579 304.46761417329645 L 751.5437751174709 303.7962028761966 L 750.4012580848818 303.0327974015616 L 749.3221591542218 302.18210439800055 L 748.3131313292354 301.24936867076457 L 747.3803956019995 300.24034084577823 L 746.5297025984385 299.1612419151183 L 745.7662971238034 298.0187248825291 L 745.0948858267036 296.81983374544205 L 744.5196081810525 295.57196006638907 L 744.0440109648348 294.2827974015616 L 743.6710263930406 292.96029386747836 L 743.4029540395851 291.61260313820407 L 743.2414466596703 290.2480341752373 L 743.1875 288.875 L 743.2414466596703 287.5019658247627 L 743.4029540395851 286.13739686179593 L 743.6710263930406 284.78970613252164 L 744.0440109648348 283.4672025984384 L 744.5196081810525 282.17803993361093 L 745.0948858267036 280.93016625455795 L 745.7662971238034 279.7312751174709 L 746.5297025984385 278.5887580848817 L 747.3803956019995 277.50965915422177 L 748.3131313292354 276.50063132923543 L 749.3221591542218 275.56789560199945 L 750.4012580848818 274.7172025984384 L 751.5437751174709 273.9537971238034 L 752.7426662545579 273.28238582670355 L 753.990539933611 272.7071081810525 L 755.2797025984385 272.2315109648348 L 756.6022061325217 271.8585263930407 L 757.949896861796 271.5904540395851 L 759.3144658247628 271.42894665967026 L 760.6875000000001 271.375 L 762.0605341752373 271.42894665967026 L 763.4251031382041 271.5904540395851 L 764.7727938674784 271.8585263930407 L 766.0952974015617 272.23151096483485 L 767.3844600663891 272.7071081810525 L 768.6323337454421 273.2823858267036 L 769.8312248825292 273.95379712380344 L 770.9737419151184 274.7172025984385 L 772.0528408457783 275.56789560199957 L 773.0618686707646 276.5006313292355 L 773.9946043980007 277.5096591542219 L 774.8452974015617 278.5887580848818 L 775.6087028761967 279.73127511747106 L 776.2801141732965 280.93016625455806 L 776.8553918189476 282.1780399336111 L 777.3309890351652 283.4672025984386 L 777.7039736069594 284.7897061325218 L 777.9720459604149 286.13739686179616 L 778.1335533403297 287.5019658247629 Z" fill-opacity="1" stroke-opacity="1" stroke-miterlimit="10" stroke-width="6"/><text fill="rgb(255,255,255)" stroke="none" font-family="times new roman" font-size="10px" font-style="normal" font-weight="normal" text-decoration="normal" x="760.6875" y="293.875" text-anchor="middle" dominant-baseline="text-after-edge" fill-opacity="1">*1.58</text><path fill="rgb(69,90,100)" stroke="rgb(76,175,80)" paint-order="fill stroke markers" d=" M 770.5625 142 L 770.5625 162 L 865.5625 162 L 865.5625 142 Z" fill-opacity="1" stroke-opacity="1" stroke-miterlimit="10" stroke-width="6"/><text fill="rgb(255,255,255)" stroke="none" font-family="times new roman" font-size="10px" font-style="normal" font-weight="normal" text-decoration="normal" x="818.0625" y="157" text-anchor="middle" dominant-baseline="text-after-edge" fill-opacity="1">42130482C&gt;A</text><path fill="rgb(69,90,100)" stroke="rgb(76,175,80)" paint-order="fill stroke markers" d=" M 927.8125 152 L 927.7585533403297 153.37303417523728 L 927.5970459604149 154.73760313820404 L 927.3289736069594 156.08529386747836 L 926.9559890351652 157.40779740156157 L 926.4803918189475 158.69696006638907 L 925.9051141732964 159.94483374544205 L 925.2337028761966 161.1437248825291 L 924.4702974015615 162.28624191511827 L 923.6196043980005 163.3653408457782 L 922.6868686707646 164.37436867076457 L 921.6778408457782 165.30710439800055 L 920.5987419151182 166.1577974015616 L 919.4562248825291 166.92120287619662 L 918.2573337454421 167.59261417329643 L 917.0094600663891 168.1678918189475 L 915.7202974015615 168.64348903516517 L 914.3977938674783 169.01647360695935 L 913.050103138204 169.2845459604149 L 911.6855341752373 169.44605334032974 L 910.3125 169.5 L 908.9394658247627 169.44605334032974 L 907.574896861796 169.2845459604149 L 906.2272061325217 169.01647360695935 L 904.9047025984385 168.6434890351652 L 903.6155399336109 168.1678918189475 L 902.3676662545579 167.59261417329643 L 901.1687751174709 166.92120287619662 L 900.0262580848818 166.1577974015616 L 898.9471591542218 165.30710439800055 L 897.9381313292354 164.37436867076457 L 897.0053956019995 163.3653408457782 L 896.1547025984385 162.2862419151183 L 895.3912971238034 161.1437248825291 L 894.7198858267036 159.94483374544208 L 894.1446081810525 158.69696006638907 L 893.6690109648348 157.4077974015616 L 893.2960263930406 156.08529386747836 L 893.0279540395851 154.73760313820404 L 892.8664466596703 153.37303417523728 L 892.8125 152 L 892.8664466596703 150.62696582476272 L 893.0279540395851 149.26239686179596 L 893.2960263930406 147.91470613252164 L 893.6690109648348 146.59220259843843 L 894.1446081810525 145.30303993361093 L 894.7198858267036 144.05516625455795 L 895.3912971238034 142.8562751174709 L 896.1547025984385 141.71375808488173 L 897.0053956019995 140.6346591542218 L 897.9381313292354 139.62563132923543 L 898.9471591542218 138.69289560199945 L 900.0262580848818 137.84220259843843 L 901.1687751174709 137.07879712380338 L 902.3676662545579 136.40738582670355 L 903.615539933611 135.8321081810525 L 904.9047025984385 135.3565109648348 L 906.2272061325217 134.98352639304065 L 907.574896861796 134.7154540395851 L 908.9394658247628 134.55394665967026 L 910.3125000000001 134.5 L 911.6855341752373 134.55394665967026 L 913.0501031382041 134.7154540395851 L 914.3977938674784 134.98352639304068 L 915.7202974015617 135.35651096483485 L 917.0094600663891 135.83210818105252 L 918.2573337454421 136.4073858267036 L 919.4562248825292 137.07879712380344 L 920.5987419151184 137.8422025984385 L 921.6778408457783 138.69289560199954 L 922.6868686707646 139.62563132923552 L 923.6196043980007 140.6346591542219 L 924.4702974015617 141.71375808488185 L 925.2337028761967 142.85627511747103 L 925.9051141732965 144.0551662545581 L 926.4803918189476 145.3030399336111 L 926.9559890351652 146.5922025984386 L 927.3289736069594 147.91470613252184 L 927.5970459604149 149.26239686179616 L 927.7585533403297 150.62696582476292 Z" fill-opacity="1" stroke-opacity="1" stroke-miterlimit="10" stroke-width="6"/><text fill="rgb(255,255,255)" stroke="none" font-family="times new roman" font-size="10px" font-style="normal" font-weight="normal" text-decoration="normal" x="910.3125" y="157" text-anchor="middle" dominant-baseline="text-after-edge" fill-opacity="1">*1.41</text><path fill="rgb(69,90,100)" stroke="rgb(76,175,80)" paint-order="fill stroke markers" d=" M 192.5625 142 L 235.0625 142 L 235.0625 142 A 5 5 0 0 1 240.0625 147 L 240.0625 157 L 240.0625 157 A 5 5 0 0 1 235.0625 162 L 150.0625 162 L 150.0625 162 A 5 5 0 0 1 145.0625 157 L 145.0625 147 L 145.0625 147 A 5 5 0 0 1 150.0625 142 L 192.5625 142 Z" fill-opacity="1" stroke-opacity="1" stroke-miterlimit="10" stroke-width="6"/><text fill="rgb(255,255,255)" stroke="none" font-family="times new roman" font-size="10px" font-style="normal" font-weight="normal" text-decoration="normal" x="192.5625" y="157" text-anchor="middle" dominant-baseline="text-after-edge" fill-opacity="1">42132025_4213202…</text><path fill="rgb(69,90,100)" stroke="rgb(76,175,80)" paint-order="fill stroke markers" d=" M 955.0625 142 L 955.0625 162 L 1050.0625 162 L 1050.0625 142 Z" fill-opacity="1" stroke-opacity="1" stroke-miterlimit="10" stroke-width="6"/><text fill="rgb(255,255,255)" stroke="none" font-family="times new roman" font-size="10px" font-style="normal" font-weight="normal" text-decoration="normal" x="1002.5625" y="157" text-anchor="middle" dominant-baseline="text-after-edge" fill-opacity="1">42130047G&gt;C</text><path fill="rgb(176,190,197)" stroke="none" paint-order="stroke fill markers" d=" M 1001.4375 183.87500000000003 L 1001.4375 393.875 L 1076.4375 393.875 L 1076.4375 183.87500000000006 Z" fill-opacity="0.8"/><text fill="rgb(0,0,0)" stroke="none" font-family="times new roman" font-size="10px" font-style="normal" font-weight="normal" text-decoration="normal" x="1006.4375" y="198.875" text-anchor="start" dominant-baseline="text-after-edge" fill-opacity="0.8">42127001G&gt;A </text><text fill="rgb(0,0,0)" stroke="none" font-family="times new roman" font-size="10px" font-style="normal" font-weight="normal" text-decoration="normal" x="1006.4375" y="208.875" text-anchor="start" dominant-baseline="text-after-edge" fill-opacity="0.8">42127207C&gt;T </text><text fill="rgb(0,0,0)" stroke="none" font-family="times new roman" font-size="10px" font-style="normal" font-weight="normal" text-decoration="normal" x="1006.4375" y="218.875" text-anchor="start" dominant-baseline="text-after-edge" fill-opacity="0.8">42129130C&gt;G </text><text fill="rgb(0,0,0)" stroke="none" font-family="times new roman" font-size="10px" font-style="normal" font-weight="normal" text-decoration="normal" x="1006.4375" y="228.875" text-anchor="start" dominant-baseline="text-after-edge" fill-opacity="0.8">42131469C&gt;T </text><text fill="rgb(0,0,0)" stroke="none" font-family="times new roman" font-size="10px" font-style="normal" font-weight="normal" text-decoration="normal" x="1006.4375" y="238.875" text-anchor="start" dominant-baseline="text-after-edge" fill-opacity="0.8">42131531G&gt;A </text><text fill="rgb(0,0,0)" stroke="none" font-family="times new roman" font-size="10px" font-style="normal" font-weight="normal" text-decoration="normal" x="1006.4375" y="248.875" text-anchor="start" dominant-baseline="text-after-edge" fill-opacity="0.8">42132026T&gt;C </text><text fill="rgb(0,0,0)" stroke="none" font-family="times new roman" font-size="10px" font-style="normal" font-weight="normal" text-decoration="normal" x="1006.4375" y="258.875" text-anchor="start" dominant-baseline="text-after-edge" fill-opacity="0.8">42132375G&gt;C </text><path fill="rgb(176,190,197)" stroke="none" paint-order="stroke fill markers" d=" M 249.1875 183.875 L 316.1875 183.875 L 316.1875 183.875 A 8 8 0 0 1 324.1875 191.875 L 324.1875 385.875 L 324.1875 385.875 A 8 8 0 0 1 316.1875 393.875 L 182.1875 393.875 L 182.1875 393.875 A 8 8 0 0 1 174.1875 385.875 L 174.1875 191.875 L 174.1875 191.875 A 8 8 0 0 1 182.1875 183.875 L 249.1875 183.875 Z" fill-opacity="0.8"/><text fill="rgb(0,0,0)" stroke="none" font-family="times new roman" font-size="10px" font-style="normal" font-weight="normal" text-decoration="normal" x="179.1875" y="198.875" text-anchor="start" dominant-baseline="text-after-edge" fill-opacity="0.8">42125924A&gt;G </text><text fill="rgb(0,0,0)" stroke="none" font-family="times new roman" font-size="10px" font-style="normal" font-weight="normal" text-decoration="normal" x="179.1875" y="208.875" text-anchor="start" dominant-baseline="text-after-edge" fill-opacity="0.8">42126022C&gt;T </text><text fill="rgb(0,0,0)" stroke="none" font-family="times new roman" font-size="10px" font-style="normal" font-weight="normal" text-decoration="normal" x="179.1875" y="218.875" text-anchor="start" dominant-baseline="text-after-edge" fill-opacity="0.8">42126069A&gt;C </text><text fill="rgb(0,0,0)" stroke="none" font-family="times new roman" font-size="10px" font-style="normal" font-weight="normal" text-decoration="normal" x="179.1875" y="228.875" text-anchor="start" dominant-baseline="text-after-edge" fill-opacity="0.8">42132025_42132026insCCTTTT </text><text fill="rgb(0,0,0)" stroke="none" font-family="times new roman" font-size="10px" font-style="normal" font-weight="normal" text-decoration="normal" x="179.1875" y="238.875" text-anchor="start" dominant-baseline="text-after-edge" fill-opacity="0.8">42132027C&gt;T </text><text fill="rgb(0,0,0)" stroke="none" font-family="times new roman" font-size="10px" font-style="normal" font-weight="normal" text-decoration="normal" x="179.1875" y="248.875" text-anchor="start" dominant-baseline="text-after-edge" fill-opacity="0.8">42132561C&gt;T </text><text fill="rgb(0,0,0)" stroke="none" font-family="times new roman" font-size="10px" font-style="normal" font-weight="normal" text-decoration="normal" x="179.1875" y="258.875" text-anchor="start" dominant-baseline="text-after-edge" fill-opacity="0.8">42132844C&gt;A </text><text fill="rgb(0,0,0)" stroke="none" font-family="times new roman" font-size="10px" font-style="normal" font-weight="normal" text-decoration="normal" x="179.1875" y="268.875" text-anchor="start" dominant-baseline="text-after-edge" fill-opacity="0.8">42132851T&gt;C </text><text fill="rgb(0,0,0)" stroke="none" font-family="times new roman" font-size="10px" font-style="normal" font-weight="normal" text-decoration="normal" x="179.1875" y="278.875" text-anchor="start" dominant-baseline="text-after-edge" fill-opacity="0.8">42133400T&gt;G </text><text fill="rgb(0,0,0)" stroke="none" font-family="times new roman" font-size="10px" font-style="normal" font-weight="normal" text-decoration="normal" x="179.1875" y="288.875" text-anchor="start" dominant-baseline="text-after-edge" fill-opacity="0.8">42133533A&gt;C </text><text fill="rgb(0,0,0)" stroke="none" font-family="times new roman" font-size="10px" font-style="normal" font-weight="normal" text-decoration="normal" x="179.1875" y="298.875" text-anchor="start" dominant-baseline="text-after-edge" fill-opacity="0.8">42134096del </text><text fill="rgb(0,0,0)" stroke="none" font-family="times new roman" font-size="10px" font-style="normal" font-weight="normal" text-decoration="normal" x="179.1875" y="308.875" text-anchor="start" dominant-baseline="text-after-edge" fill-opacity="0.8">42134820T&gt;G </text><text fill="rgb(0,0,0)" stroke="none" font-family="times new roman" font-size="10px" font-style="normal" font-weight="normal" text-decoration="normal" x="179.1875" y="318.875" text-anchor="start" dominant-baseline="text-after-edge" fill-opacity="0.8">42135064_42135066dup </text><text fill="rgb(0,0,0)" stroke="none" font-family="times new roman" font-size="10px" font-style="normal" font-weight="normal" text-decoration="normal" x="179.1875" y="328.875" text-anchor="start" dominant-baseline="text-after-edge" fill-opacity="0.8">42135201T&gt;C </text><text fill="rgb(0,0,0)" stroke="none" font-family="times new roman" font-size="10px" font-style="normal" font-weight="normal" text-decoration="normal" x="179.1875" y="338.875" text-anchor="start" dominant-baseline="text-after-edge" fill-opacity="0.8">42135691T&gt;C </text><g transform="scale(0.9784482758620691,0.9784482758620691) translate(114.16960352422905,-50.02643171806167)"/></g></svg>