<svg version="1.1" xmlns="http://www.w3.org/2000/svg" xmlns:xlink="http://www.w3.org/1999/xlink" width="1017" height="608"><defs/><g transform="translate(-12.438271604938222,-53.68545356951154) scale(1.1765968867418142,1.1765968867418142)"><path fill="none" stroke="rgb(120,144,156)" paint-order="fill stroke markers" d=" M 151.68126640419948 253.875 L 191.26093196324535 366.4112132686304" stroke-opacity="1" stroke-linejoin="round" stroke-miterlimit="10"/><path fill="rgb(120,144,156)" stroke="none" paint-order="stroke fill markers" d=" M 184.93438424969833 361.5339913105673 L 191.92449957658727 368.2979241692518 L 193.14157666740152 358.64747219252996 Z" fill-opacity="1"/><path fill="none" stroke="rgb(120,144,156)" paint-order="fill stroke markers" d=" M 213.6159512036931 395.76699334402986 L 377.70417295924676 501.4458297407259" stroke-opacity="1" stroke-linejoin="round" stroke-miterlimit="10"/><path fill="rgb(120,144,156)" stroke="none" paint-order="stroke fill markers" d=" M 369.7159543586374 501.4752166234861 L 379.3856271434298 502.52874794008045 L 374.4266485258298 494.1608909222899 Z" fill-opacity="1"/><path fill="none" stroke="rgb(120,144,156)" paint-order="fill stroke markers" d=" M 208.06938073394497 172.125 L 235.7047803570751 220.70981546647073" stroke-opacity="1" stroke-linejoin="round" stroke-miterlimit="10"/><path fill="rgb(120,144,156)" stroke="none" paint-order="stroke fill markers" d=" M 228.61104410890061 217.0367505281208 L 236.69362111338293 222.44826131223772 L 236.1732835379871 212.73529323818173 Z" fill-opacity="1"/><path fill="none" stroke="rgb(120,144,156)" paint-order="fill stroke markers" d=" M 283.1936211133829 181.55173868776228 L 260.92021964292496 220.70981546647073" stroke-opacity="1" stroke-linejoin="round" stroke-miterlimit="10"/><path fill="rgb(120,144,156)" stroke="none" paint-order="stroke fill markers" d=" M 260.45171646201294 212.73529323818173 L 259.9313788866171 222.44826131223772 L 268.0139558910994 217.0367505281208 Z" fill-opacity="1"/><path fill="none" stroke="rgb(55,71,79)" paint-order="fill stroke markers" d=" M 260.0820069381315 106.25665801990523 L 282.2438019975086 141.26856954228253" stroke-opacity="1" stroke-linejoin="round" stroke-miterlimit="10" stroke-width="2"/><path fill="none" stroke="rgb(120,144,156)" paint-order="fill stroke markers" d=" M 518.4893372703413 253.875 L 562.5960922962887 366.65804473077833" stroke-opacity="1" stroke-linejoin="round" stroke-miterlimit="10"/><path fill="rgb(120,144,156)" stroke="none" paint-order="stroke fill markers" d=" M 556.1046319530701 362.00257025308855 L 563.324522316163 368.52067451314144 L 564.2070715063496 358.8338996666355 Z" fill-opacity="1"/><path fill="none" stroke="rgb(120,144,156)" paint-order="fill stroke markers" d=" M 316.5625 425.7575987841945 L 383.72930019570856 497.4157959534763" stroke-opacity="1" stroke-linejoin="round" stroke-miterlimit="10"/><path fill="rgb(120,144,156)" stroke="none" paint-order="stroke fill markers" d=" M 375.9735891156701 495.5023055189643 L 385.09704415954417 498.875 L 382.3211267180483 489.5526192762793 Z" fill-opacity="1"/><path fill="none" stroke="rgb(120,144,156)" paint-order="fill stroke markers" d=" M 402.4375 490.75 L 402.4375 496.875" stroke-opacity="1" stroke-linejoin="round" stroke-miterlimit="10"/><path fill="rgb(120,144,156)" stroke="none" paint-order="stroke fill markers" d=" M 398.0875 490.175 L 402.4375 498.875 L 406.7875 490.175 Z" fill-opacity="1"/><path fill="none" stroke="rgb(120,144,156)" paint-order="fill stroke markers" d=" M 402.4375 253.875 L 402.4375 278.75" stroke-opacity="1" stroke-linejoin="round" stroke-miterlimit="10"/><path fill="rgb(120,144,156)" stroke="none" paint-order="stroke fill markers" d=" M 398.0875 272.05 L 402.4375 280.75 L 406.7875 272.05 Z" fill-opacity="1"/><path fill="none" stroke="rgb(55,71,79)" paint-order="fill stroke markers" d=" M 737.6875 253.875 L 737.6875 367.25" stroke-opacity="1" stroke-linejoin="round" stroke-miterlimit="10" stroke-width="2"/><path fill="none" stroke="rgb(120,144,156)" paint-order="fill stroke markers" d=" M 555.5122227857917 397.17538546350585 L 425.198473992738 499.5022888781856" stroke-opacity="1" stroke-linejoin="round" stroke-miterlimit="10"/><path fill="rgb(120,144,156)" stroke="none" paint-order="stroke fill markers" d=" M 427.78152429376206 491.94316517616966 L 423.6254710506614 500.7374656850511 L 433.154543403627 498.78572797420276 Z" fill-opacity="1"/><path fill="none" stroke="rgb(55,71,79)" paint-order="fill stroke markers" d=" M 332.4747340425532 101.625 L 307.3811980024914 141.26856954228253" stroke-opacity="1" stroke-linejoin="round" stroke-miterlimit="10" stroke-width="2"/><path fill="none" stroke="rgb(120,144,156)" paint-order="fill stroke markers" d=" M 240.51558054323246 265.0438530823018 L 204.86406803675465 366.4112132686304" stroke-opacity="1" stroke-linejoin="round" stroke-miterlimit="10"/><path fill="rgb(120,144,156)" stroke="none" paint-order="stroke fill markers" d=" M 202.98342333259848 358.64747219252996 L 204.20050042341273 368.2979241692518 L 211.19061575030167 361.5339913105673 Z" fill-opacity="1"/><path fill="none" stroke="rgb(120,144,156)" paint-order="fill stroke markers" d=" M 720.4671929936396 392.5109930192757 L 431.63253107111666 505.9125213579844" stroke-opacity="1" stroke-linejoin="round" stroke-miterlimit="10"/><path fill="rgb(120,144,156)" stroke="none" paint-order="stroke fill markers" d=" M 436.27932768240123 499.4148462927512 L 429.7708762596182 506.64343952223044 L 439.45882169687144 507.5130447227693 Z" fill-opacity="1"/><path fill="none" stroke="rgb(120,144,156)" paint-order="fill stroke markers" d=" M 621.6356627296587 253.875 L 577.5289077037113 366.65804473077833" stroke-opacity="1" stroke-linejoin="round" stroke-miterlimit="10"/><path fill="rgb(120,144,156)" stroke="none" paint-order="stroke fill markers" d=" M 575.9179284936504 358.8338996666355 L 576.800477683837 368.52067451314144 L 584.0203680469299 362.00257025308855 Z" fill-opacity="1"/><path fill="rgb(69,90,100)" stroke="rgb(255,193,7)" paint-order="fill stroke markers" d=" M 291.9375 80.625 L 291.9375 100.625 L 386.9375 100.625 L 386.9375 80.625 Z" fill-opacity="1" stroke-opacity="1" stroke-miterlimit="10" stroke-width="2"/><text fill="rgb(255,255,255)" stroke="none" font-family="times new roman" font-size="10px" font-style="normal" font-weight="normal" text-decoration="normal" x="339.4375" y="95.625" text-anchor="middle" dominant-baseline="text-after-edge" fill-opacity="1">42126611C&gt;G</text><path fill="rgb(69,90,100)" stroke="rgb(76,175,80)" paint-order="fill stroke markers" d=" M 317.3125 161.125 L 317.2431400089954 162.8903296538765 L 317.0354876633906 164.64477546340518 L 316.69082320894773 166.37752068675786 L 316.21127161664094 168.07788237343632 L 315.59978948150393 169.73537722821453 L 314.8601467942383 171.33978624413982 L 313.99690369796707 172.88121770610886 L 313.0153823734363 174.35016817658064 L 311.9216342260007 175.73758108742913 L 310.72240257669733 177.0349025766973 L 309.42508108742913 178.2341342260007 L 308.03766817658067 179.32788237343632 L 306.5687177061088 180.30940369796707 L 305.0272862441398 181.1726467942383 L 303.42287722821453 181.91228948150396 L 301.7653823734363 182.52377161664094 L 300.06502068675786 183.00332320894773 L 298.3322754634052 183.3479876633906 L 296.5778296538765 183.55564000899537 L 294.8125 183.625 L 293.0471703461235 183.55564000899537 L 291.2927245365948 183.3479876633906 L 289.55997931324214 183.00332320894773 L 287.8596176265637 182.52377161664094 L 286.20212277178547 181.91228948150396 L 284.5977137558602 181.1726467942383 L 283.0562822938912 180.30940369796707 L 281.58733182341933 179.32788237343632 L 280.19991891257087 178.2341342260007 L 278.90259742330267 177.03490257669733 L 277.7033657739993 175.73758108742913 L 276.6096176265637 174.35016817658064 L 275.62809630203293 172.88121770610886 L 274.7648532057617 171.33978624413982 L 274.02521051849607 169.73537722821453 L 273.41372838335906 168.07788237343632 L 272.93417679105227 166.37752068675786 L 272.5895123366094 164.6447754634052 L 272.3818599910046 162.8903296538765 L 272.3125 161.125 L 272.3818599910046 159.3596703461235 L 272.5895123366094 157.60522453659482 L 272.93417679105227 155.87247931324214 L 273.41372838335906 154.17211762656368 L 274.02521051849607 152.51462277178547 L 274.7648532057617 150.9102137558602 L 275.62809630203293 149.36878229389114 L 276.6096176265637 147.89983182341936 L 277.7033657739993 146.51241891257087 L 278.90259742330267 145.2150974233027 L 280.19991891257087 144.0158657739993 L 281.58733182341933 142.92211762656368 L 283.0562822938912 141.94059630203293 L 284.59771375586024 141.0773532057617 L 286.2021227717855 140.33771051849604 L 287.8596176265637 139.72622838335903 L 289.5599793132422 139.24667679105227 L 291.29272453659485 138.9020123366094 L 293.04717034612355 138.6943599910046 L 294.81250000000006 138.625 L 296.5778296538766 138.69435999100463 L 298.33227546340527 138.9020123366094 L 300.065020686758 139.2466767910523 L 301.7653823734364 139.72622838335909 L 303.42287722821465 140.3377105184961 L 305.02728624413993 141.0773532057618 L 306.568717706109 141.940596302033 L 308.0376681765808 142.92211762656376 L 309.42508108742925 144.01586577399942 L 310.72240257669745 145.2150974233028 L 311.92163422600083 146.512418912571 L 313.0153823734364 147.8998318234195 L 313.9969036979672 149.36878229389131 L 314.8601467942384 150.91021375586038 L 315.59978948150405 152.5146227717857 L 316.21127161664106 154.1721176265639 L 316.6908232089478 155.87247931324237 L 317.03548766339065 157.60522453659505 L 317.2431400089954 159.35967034612375 Z" fill-opacity="1" stroke-opacity="1" stroke-miterlimit="10" stroke-width="2"/><text fill="rgb(255,255,255)" stroke="none" font-family="times new roman" font-size="15px" font-style="normal" font-weight="normal" text-decoration="normal" x="294.8125" y="168.625" text-anchor="middle" dominant-baseline="text-after-edge" fill-opacity="1">*39</text><path fill="rgb(69,90,100)" stroke="rgb(76,175,80)" paint-order="fill stroke markers" d=" M 755.1875 385.75 L 755.1335533403297 387.1230341752373 L 754.9720459604149 388.48760313820407 L 754.7039736069594 389.83529386747836 L 754.3309890351652 391.1577974015616 L 753.8553918189475 392.44696006638907 L 753.2801141732964 393.69483374544205 L 752.6087028761966 394.8937248825291 L 751.8452974015615 396.0362419151183 L 750.9946043980005 397.11534084577823 L 750.0618686707646 398.12436867076457 L 749.0528408457782 399.05710439800055 L 747.9737419151182 399.9077974015616 L 746.8312248825291 400.6712028761966 L 745.6323337454421 401.34261417329645 L 744.3844600663891 401.9178918189475 L 743.0952974015615 402.3934890351652 L 741.7727938674783 402.7664736069593 L 740.425103138204 403.0345459604149 L 739.0605341752373 403.19605334032974 L 737.6875 403.25 L 736.3144658247627 403.19605334032974 L 734.949896861796 403.0345459604149 L 733.6022061325217 402.7664736069593 L 732.2797025984385 402.3934890351652 L 730.9905399336109 401.9178918189475 L 729.7426662545579 401.34261417329645 L 728.5437751174709 400.6712028761966 L 727.4012580848818 399.9077974015616 L 726.3221591542218 399.05710439800055 L 725.3131313292354 398.12436867076457 L 724.3803956019995 397.11534084577823 L 723.5297025984385 396.0362419151183 L 722.7662971238034 394.8937248825291 L 722.0948858267036 393.69483374544205 L 721.5196081810525 392.44696006638907 L 721.0440109648348 391.1577974015616 L 720.6710263930406 389.83529386747836 L 720.4029540395851 388.48760313820407 L 720.2414466596703 387.1230341752373 L 720.1875 385.75 L 720.2414466596703 384.3769658247627 L 720.4029540395851 383.01239686179593 L 720.6710263930406 381.66470613252164 L 721.0440109648348 380.3422025984384 L 721.5196081810525 379.05303993361093 L 722.0948858267036 377.80516625455795 L 722.7662971238034 376.6062751174709 L 723.5297025984385 375.4637580848817 L 724.3803956019995 374.38465915422177 L 725.3131313292354 373.37563132923543 L 726.3221591542218 372.44289560199945 L 727.4012580848818 371.5922025984384 L 728.5437751174709 370.8287971238034 L 729.7426662545579 370.15738582670355 L 730.990539933611 369.5821081810525 L 732.2797025984385 369.1065109648348 L 733.6022061325217 368.7335263930407 L 734.949896861796 368.4654540395851 L 736.3144658247628 368.30394665967026 L 737.6875000000001 368.25 L 739.0605341752373 368.30394665967026 L 740.4251031382041 368.4654540395851 L 741.7727938674784 368.7335263930407 L 743.0952974015617 369.10651096483485 L 744.3844600663891 369.5821081810525 L 745.6323337454421 370.1573858267036 L 746.8312248825292 370.82879712380344 L 747.9737419151184 371.5922025984385 L 749.0528408457783 372.44289560199957 L 750.0618686707646 373.3756313292355 L 750.9946043980007 374.3846591542219 L 751.8452974015617 375.4637580848818 L 752.6087028761967 376.60627511747106 L 753.2801141732965 377.80516625455806 L 753.8553918189476 379.0530399336111 L 754.3309890351652 380.3422025984386 L 754.7039736069594 381.6647061325218 L 754.9720459604149 383.01239686179616 L 755.1335533403297 384.3769658247629 Z" fill-opacity="1" stroke-opacity="1" stroke-miterlimit="10" stroke-width="2"/><text fill="rgb(255,255,255)" stroke="none" font-family="times new roman" font-size="10px" font-style="normal" font-weight="normal" text-decoration="normal" x="737.6875" y="390.75" text-anchor="middle" dominant-baseline="text-after-edge" fill-opacity="1">*1.41</text><path fill="rgb(69,90,100)" stroke="rgb(76,175,80)" paint-order="fill stroke markers" d=" M 100.31250000000001 232.875 L 100.3125 252.875 L 195.31249999999997 252.875 L 195.3125 232.875 Z" fill-opacity="1" stroke-opacity="1" stroke-miterlimit="10" stroke-width="2"/><text fill="rgb(255,255,255)" stroke="none" font-family="times new roman" font-size="10px" font-style="normal" font-weight="normal" text-decoration="normal" x="147.8125" y="247.875" text-anchor="middle" dominant-baseline="text-after-edge" fill-opacity="1">42129130C&gt;G</text><path fill="rgb(69,90,100)" stroke="rgb(255,193,7)" paint-order="fill stroke markers" d=" M 270.8125 242.875 L 270.7431400089954 244.6403296538765 L 270.5354876633906 246.39477546340518 L 270.19082320894773 248.12752068675786 L 269.71127161664094 249.82788237343632 L 269.09978948150393 251.48537722821453 L 268.3601467942383 253.08978624413982 L 267.49690369796707 254.63121770610886 L 266.5153823734363 256.10016817658067 L 265.4216342260007 257.48758108742913 L 264.22240257669733 258.78490257669733 L 262.92508108742913 259.9841342260007 L 261.53766817658067 261.0778823734363 L 260.0687177061088 262.05940369796707 L 258.5272862441398 262.9226467942383 L 256.92287722821453 263.66228948150393 L 255.26538237343632 264.27377161664094 L 253.56502068675786 264.75332320894773 L 251.83227546340518 265.0979876633906 L 250.0778296538765 265.3056400089954 L 248.3125 265.375 L 246.5471703461235 265.3056400089954 L 244.79272453659482 265.0979876633906 L 243.05997931324214 264.75332320894773 L 241.35961762656368 264.27377161664094 L 239.70212277178547 263.66228948150393 L 238.0977137558602 262.9226467942383 L 236.55628229389114 262.05940369796707 L 235.08733182341936 261.0778823734363 L 233.69991891257087 259.9841342260007 L 232.4025974233027 258.78490257669733 L 231.2033657739993 257.48758108742913 L 230.10961762656368 256.10016817658067 L 229.12809630203293 254.63121770610886 L 228.2648532057617 253.08978624413982 L 227.52521051849604 251.48537722821453 L 226.91372838335906 249.82788237343632 L 226.43417679105227 248.12752068675786 L 226.0895123366094 246.3947754634052 L 225.88185999100463 244.6403296538765 L 225.8125 242.875 L 225.88185999100463 241.1096703461235 L 226.0895123366094 239.35522453659482 L 226.43417679105227 237.62247931324214 L 226.91372838335906 235.92211762656368 L 227.52521051849604 234.26462277178547 L 228.2648532057617 232.6602137558602 L 229.12809630203293 231.11878229389114 L 230.10961762656368 229.64983182341936 L 231.2033657739993 228.26241891257087 L 232.40259742330267 226.9650974233027 L 233.69991891257087 225.7658657739993 L 235.08733182341936 224.67211762656368 L 236.55628229389114 223.69059630203293 L 238.0977137558602 222.8273532057617 L 239.7021227717855 222.08771051849604 L 241.3596176265637 221.47622838335903 L 243.05997931324217 220.99667679105227 L 244.79272453659485 220.6520123366094 L 246.54717034612355 220.4443599910046 L 248.31250000000009 220.375 L 250.0778296538766 220.44435999100463 L 251.8322754634053 220.6520123366094 L 253.56502068675798 220.9966767910523 L 255.26538237343644 221.47622838335909 L 256.92287722821465 222.0877105184961 L 258.52728624413993 222.8273532057618 L 260.068717706109 223.690596302033 L 261.5376681765808 224.67211762656376 L 262.92508108742925 225.76586577399942 L 264.22240257669745 226.9650974233028 L 265.42163422600083 228.262418912571 L 266.5153823734364 229.6498318234195 L 267.4969036979672 231.11878229389131 L 268.3601467942384 232.66021375586038 L 269.09978948150405 234.2646227717857 L 269.71127161664106 235.9221176265639 L 270.1908232089478 237.62247931324237 L 270.53548766339065 239.35522453659505 L 270.7431400089954 241.10967034612375 Z" fill-opacity="1" stroke-opacity="1" stroke-miterlimit="10" stroke-width="2"/><text fill="rgb(255,255,255)" stroke="none" font-family="times new roman" font-size="15px" font-style="normal" font-weight="normal" text-decoration="normal" x="248.3125" y="250.375" text-anchor="middle" dominant-baseline="text-after-edge" fill-opacity="1">*10</text><path fill="rgb(3,169,244)" stroke="none" paint-order="stroke fill markers" d=" M 248.3125 210.375 L 272.8125 210.375 L 272.8125 210.375 A 8 8 0 0 1 280.8125 218.375 L 280.8125 267.375 L 280.8125 267.375 A 8 8 0 0 1 272.8125 275.375 L 223.8125 275.375 L 223.8125 275.375 A 8 8 0 0 1 215.8125 267.375 L 215.8125 218.375 L 215.8125 218.375 A 8 8 0 0 1 223.8125 210.375 L 248.3125 210.375 Z" fill-opacity="0.15"/><path fill="rgb(69,90,100)" stroke="rgb(76,175,80)" paint-order="fill stroke markers" d=" M 578.4375 232.875 L 578.4375 252.875 L 673.4375 252.875 L 673.4375 232.875 Z" fill-opacity="1" stroke-opacity="1" stroke-miterlimit="10" stroke-width="2"/><text fill="rgb(255,255,255)" stroke="none" font-family="times new roman" font-size="10px" font-style="normal" font-weight="normal" text-decoration="normal" x="625.9375" y="247.875" text-anchor="middle" dominant-baseline="text-after-edge" fill-opacity="1">42129950A&gt;C</text><path fill="rgb(69,90,100)" stroke="rgb(69,90,100)" paint-order="fill stroke markers" d=" M 383.6875 499.875 L 364.9375 517.375 L 383.6875 534.875 L 421.1875 534.875 L 439.9375 517.375 L 421.18750000000006 499.875 Z" fill-opacity="1" stroke-opacity="1" stroke-miterlimit="10" stroke-width="2"/><text fill="rgb(255,255,255)" stroke="none" font-family="times new roman" font-size="10px" font-style="normal" font-weight="normal" text-decoration="normal" x="402.4375" y="522.375" text-anchor="middle" dominant-baseline="text-after-edge" fill-opacity="1">NA18563-A</text><path fill="rgb(69,90,100)" stroke="rgb(255,193,7)" paint-order="fill stroke markers" d=" M 154.3125 151.125 L 154.3125 171.125 L 249.31249999999997 171.125 L 249.3125 151.125 Z" fill-opacity="1" stroke-opacity="1" stroke-miterlimit="10" stroke-width="2"/><text fill="rgb(255,255,255)" stroke="none" font-family="times new roman" font-size="10px" font-style="normal" font-weight="normal" text-decoration="normal" x="201.8125" y="166.125" text-anchor="middle" dominant-baseline="text-after-edge" fill-opacity="1">42130692G&gt;A</text><path fill="rgb(69,90,100)" stroke="rgb(76,175,80)" paint-order="fill stroke markers" d=" M 402.4375 232.875 L 444.9375 232.875 L 444.9375 232.875 A 5 5 0 0 1 449.9375 237.875 L 449.9375 247.875 L 449.9375 247.875 A 5 5 0 0 1 444.9375 252.875 L 359.9375 252.875 L 359.9375 252.875 A 5 5 0 0 1 354.9375 247.875 L 354.9375 237.875 L 354.9375 237.875 A 5 5 0 0 1 359.9375 232.875 L 402.4375 232.875 Z" fill-opacity="1" stroke-opacity="1" stroke-miterlimit="10" stroke-width="2"/><text fill="rgb(255,255,255)" stroke="none" font-family="times new roman" font-size="10px" font-style="normal" font-weight="normal" text-decoration="normal" x="402.4375" y="247.875" text-anchor="middle" dominant-baseline="text-after-edge" fill-opacity="1">42132049dup</text><path fill="rgb(69,90,100)" stroke="rgb(76,175,80)" paint-order="fill stroke markers" d=" M 267.6875 90.625 L 267.63355334032974 91.99803417523728 L 267.4720459604149 93.36260313820404 L 267.2039736069593 94.71029386747834 L 266.8309890351652 96.03279740156158 L 266.3553918189475 97.32196006638907 L 265.78011417329645 98.56983374544207 L 265.1087028761966 99.7687248825291 L 264.3452974015616 100.91124191511828 L 263.49460439800055 101.9903408457782 L 262.56186867076457 102.99936867076458 L 261.55284084577823 103.93210439800055 L 260.4737419151183 104.78279740156158 L 259.3312248825291 105.54620287619662 L 258.13233374544205 106.21761417329644 L 256.88446006638907 106.79289181894751 L 255.5952974015616 107.26848903516519 L 254.27279386747836 107.64147360695934 L 252.92510313820404 107.9095459604149 L 251.56053417523728 108.07105334032974 L 250.1875 108.125 L 248.81446582476272 108.07105334032974 L 247.44989686179596 107.9095459604149 L 246.10220613252164 107.64147360695934 L 244.77970259843843 107.26848903516519 L 243.49053993361093 106.79289181894751 L 242.24266625455795 106.21761417329644 L 241.0437751174709 105.54620287619662 L 239.90125808488173 104.78279740156158 L 238.8221591542218 103.93210439800055 L 237.81313132923543 102.99936867076458 L 236.88039560199945 101.99034084577822 L 236.02970259843843 100.91124191511828 L 235.26629712380338 99.76872488252911 L 234.59488582670357 98.56983374544207 L 234.0196081810525 97.32196006638907 L 233.54401096483483 96.03279740156158 L 233.17102639304065 94.71029386747834 L 232.9029540395851 93.36260313820404 L 232.74144665967026 91.9980341752373 L 232.6875 90.625 L 232.74144665967026 89.25196582476272 L 232.9029540395851 87.88739686179596 L 233.17102639304065 86.53970613252166 L 233.5440109648348 85.21720259843842 L 234.0196081810525 83.92803993361093 L 234.59488582670357 82.68016625455793 L 235.26629712380338 81.4812751174709 L 236.0297025984384 80.33875808488172 L 236.88039560199945 79.2596591542218 L 237.8131313292354 78.25063132923542 L 238.82215915422177 77.31789560199947 L 239.9012580848817 76.46720259843842 L 241.0437751174709 75.70379712380338 L 242.24266625455795 75.03238582670356 L 243.49053993361096 74.45710818105248 L 244.77970259843843 73.9815109648348 L 246.1022061325217 73.60852639304065 L 247.449896861796 73.34045403958508 L 248.81446582476278 73.17894665967026 L 250.18750000000006 73.125 L 251.56053417523736 73.17894665967026 L 252.92510313820412 73.3404540395851 L 254.2727938674784 73.60852639304068 L 255.59529740156165 73.98151096483484 L 256.8844600663892 74.45710818105252 L 258.13233374544217 75.0323858267036 L 259.3312248825292 75.70379712380344 L 260.47374191511835 76.46720259843849 L 261.5528408457783 77.31789560199954 L 262.5618686707647 78.25063132923552 L 263.49460439800066 79.2596591542219 L 264.34529740156165 80.33875808488185 L 265.1087028761967 81.48127511747103 L 265.7801141732965 82.68016625455807 L 266.35539181894757 83.92803993361109 L 266.83098903516526 85.21720259843859 L 267.2039736069594 86.53970613252184 L 267.47204596041496 87.88739686179616 L 267.63355334032974 89.25196582476292 Z" fill-opacity="1" stroke-opacity="1" stroke-miterlimit="10" stroke-width="2"/><text fill="rgb(255,255,255)" stroke="none" font-family="times new roman" font-size="10px" font-style="normal" font-weight="normal" text-decoration="normal" x="250.1875" y="95.625" text-anchor="middle" dominant-baseline="text-after-edge" fill-opacity="1">*39.2</text><path fill="rgb(69,90,100)" stroke="rgb(255,193,7)" paint-order="fill stroke markers" d=" M 215.5625 385.75 L 215.50855334032974 387.1230341752373 L 215.3470459604149 388.48760313820407 L 215.07897360695935 389.83529386747836 L 214.70598903516517 391.1577974015616 L 214.2303918189475 392.44696006638907 L 213.65511417329643 393.69483374544205 L 212.98370287619662 394.8937248825291 L 212.2202974015616 396.0362419151183 L 211.36960439800055 397.11534084577823 L 210.43686867076457 398.12436867076457 L 209.4278408457782 399.05710439800055 L 208.34874191511827 399.9077974015616 L 207.2062248825291 400.6712028761966 L 206.00733374544208 401.34261417329645 L 204.75946006638907 401.9178918189475 L 203.4702974015616 402.3934890351652 L 202.14779386747836 402.7664736069593 L 200.80010313820404 403.0345459604149 L 199.43553417523728 403.19605334032974 L 198.0625 403.25 L 196.68946582476272 403.19605334032974 L 195.32489686179596 403.0345459604149 L 193.97720613252164 402.7664736069593 L 192.65470259843843 402.3934890351652 L 191.36553993361093 401.9178918189475 L 190.11766625455795 401.34261417329645 L 188.9187751174709 400.6712028761966 L 187.77625808488173 399.9077974015616 L 186.6971591542218 399.05710439800055 L 185.68813132923543 398.12436867076457 L 184.75539560199945 397.11534084577823 L 183.90470259843843 396.0362419151183 L 183.14129712380338 394.8937248825291 L 182.46988582670357 393.69483374544205 L 181.8946081810525 392.44696006638907 L 181.41901096483483 391.1577974015616 L 181.04602639304065 389.83529386747836 L 180.7779540395851 388.48760313820407 L 180.61644665967026 387.1230341752373 L 180.5625 385.75 L 180.61644665967026 384.3769658247627 L 180.7779540395851 383.01239686179593 L 181.04602639304065 381.66470613252164 L 181.4190109648348 380.3422025984384 L 181.8946081810525 379.05303993361093 L 182.46988582670357 377.80516625455795 L 183.14129712380338 376.6062751174709 L 183.9047025984384 375.4637580848817 L 184.75539560199945 374.38465915422177 L 185.6881313292354 373.37563132923543 L 186.69715915422177 372.44289560199945 L 187.7762580848817 371.5922025984384 L 188.9187751174709 370.8287971238034 L 190.11766625455795 370.15738582670355 L 191.36553993361096 369.5821081810525 L 192.65470259843843 369.1065109648348 L 193.9772061325217 368.7335263930407 L 195.324896861796 368.4654540395851 L 196.68946582476278 368.30394665967026 L 198.06250000000006 368.25 L 199.43553417523736 368.30394665967026 L 200.80010313820412 368.4654540395851 L 202.1477938674784 368.7335263930407 L 203.47029740156165 369.10651096483485 L 204.75946006638915 369.5821081810525 L 206.00733374544217 370.1573858267036 L 207.2062248825292 370.82879712380344 L 208.34874191511838 371.5922025984385 L 209.42784084577832 372.44289560199957 L 210.43686867076468 373.3756313292355 L 211.36960439800063 374.3846591542219 L 212.22029740156168 375.4637580848818 L 212.9837028761967 376.60627511747106 L 213.6551141732965 377.80516625455806 L 214.2303918189476 379.0530399336111 L 214.70598903516523 380.3422025984386 L 215.07897360695938 381.6647061325218 L 215.34704596041493 383.01239686179616 L 215.50855334032974 384.3769658247629 Z" fill-opacity="1" stroke-opacity="1" stroke-miterlimit="10" stroke-width="2"/><text fill="rgb(255,255,255)" stroke="none" font-family="times new roman" font-size="10px" font-style="normal" font-weight="normal" text-decoration="normal" x="198.0625" y="390.75" text-anchor="middle" dominant-baseline="text-after-edge" fill-opacity="1">*10.1</text><path fill="rgb(69,90,100)" stroke="rgb(76,175,80)" paint-order="fill stroke markers" d=" M 466.6875 232.875 L 466.6875 252.875 L 561.6875 252.875 L 561.6875 232.875 Z" fill-opacity="1" stroke-opacity="1" stroke-miterlimit="10" stroke-width="2"/><text fill="rgb(255,255,255)" stroke="none" font-family="times new roman" font-size="10px" font-style="normal" font-weight="normal" text-decoration="normal" x="514.1875" y="247.875" text-anchor="middle" dominant-baseline="text-after-edge" fill-opacity="1">42130482C&gt;A</text><path fill="rgb(69,90,100)" stroke="rgb(76,175,80)" paint-order="fill stroke markers" d=" M 690.1875 232.875 L 690.1875 252.875 L 785.1875 252.875 L 785.1875 232.875 Z" fill-opacity="1" stroke-opacity="1" stroke-miterlimit="10" stroke-width="2"/><text fill="rgb(255,255,255)" stroke="none" font-family="times new roman" font-size="10px" font-style="normal" font-weight="normal" text-decoration="normal" x="737.6875" y="247.875" text-anchor="middle" dominant-baseline="text-after-edge" fill-opacity="1">42127407T&gt;G</text><path fill="rgb(69,90,100)" stroke="rgb(76,175,80)" paint-order="fill stroke markers" d=" M 587.5625 385.75 L 587.5085533403297 387.1230341752373 L 587.3470459604149 388.48760313820407 L 587.0789736069594 389.83529386747836 L 586.7059890351652 391.1577974015616 L 586.2303918189475 392.44696006638907 L 585.6551141732964 393.69483374544205 L 584.9837028761966 394.8937248825291 L 584.2202974015615 396.0362419151183 L 583.3696043980005 397.11534084577823 L 582.4368686707646 398.12436867076457 L 581.4278408457782 399.05710439800055 L 580.3487419151182 399.9077974015616 L 579.2062248825291 400.6712028761966 L 578.0073337454421 401.34261417329645 L 576.7594600663891 401.9178918189475 L 575.4702974015615 402.3934890351652 L 574.1477938674783 402.7664736069593 L 572.800103138204 403.0345459604149 L 571.4355341752373 403.19605334032974 L 570.0625 403.25 L 568.6894658247627 403.19605334032974 L 567.324896861796 403.0345459604149 L 565.9772061325217 402.7664736069593 L 564.6547025984385 402.3934890351652 L 563.3655399336109 401.9178918189475 L 562.1176662545579 401.34261417329645 L 560.9187751174709 400.6712028761966 L 559.7762580848818 399.9077974015616 L 558.6971591542218 399.05710439800055 L 557.6881313292354 398.12436867076457 L 556.7553956019995 397.11534084577823 L 555.9047025984385 396.0362419151183 L 555.1412971238034 394.8937248825291 L 554.4698858267036 393.69483374544205 L 553.8946081810525 392.44696006638907 L 553.4190109648348 391.1577974015616 L 553.0460263930406 389.83529386747836 L 552.7779540395851 388.48760313820407 L 552.6164466596703 387.1230341752373 L 552.5625 385.75 L 552.6164466596703 384.3769658247627 L 552.7779540395851 383.01239686179593 L 553.0460263930406 381.66470613252164 L 553.4190109648348 380.3422025984384 L 553.8946081810525 379.05303993361093 L 554.4698858267036 377.80516625455795 L 555.1412971238034 376.6062751174709 L 555.9047025984385 375.4637580848817 L 556.7553956019995 374.38465915422177 L 557.6881313292354 373.37563132923543 L 558.6971591542218 372.44289560199945 L 559.7762580848818 371.5922025984384 L 560.9187751174709 370.8287971238034 L 562.1176662545579 370.15738582670355 L 563.365539933611 369.5821081810525 L 564.6547025984385 369.1065109648348 L 565.9772061325217 368.7335263930407 L 567.324896861796 368.4654540395851 L 568.6894658247628 368.30394665967026 L 570.0625000000001 368.25 L 571.4355341752373 368.30394665967026 L 572.8001031382041 368.4654540395851 L 574.1477938674784 368.7335263930407 L 575.4702974015617 369.10651096483485 L 576.7594600663891 369.5821081810525 L 578.0073337454421 370.1573858267036 L 579.2062248825292 370.82879712380344 L 580.3487419151184 371.5922025984385 L 581.4278408457783 372.44289560199957 L 582.4368686707646 373.3756313292355 L 583.3696043980007 374.3846591542219 L 584.2202974015617 375.4637580848818 L 584.9837028761967 376.60627511747106 L 585.6551141732965 377.80516625455806 L 586.2303918189476 379.0530399336111 L 586.7059890351652 380.3422025984386 L 587.0789736069594 381.6647061325218 L 587.3470459604149 383.01239686179616 L 587.5085533403297 384.3769658247629 Z" fill-opacity="1" stroke-opacity="1" stroke-miterlimit="10" stroke-width="2"/><text fill="rgb(255,255,255)" stroke="none" font-family="times new roman" font-size="10px" font-style="normal" font-weight="normal" text-decoration="normal" x="570.0625" y="390.75" text-anchor="middle" dominant-baseline="text-after-edge" fill-opacity="1">*1.58</text><path fill="rgb(176,190,197)" stroke="none" paint-order="stroke fill markers" d=" M 241.5625 280.75 L 241.5625 490.75 L 316.5625 490.75 L 316.5625 280.75000000000006 Z" fill-opacity="0.8"/><text fill="rgb(0,0,0)" stroke="none" font-family="times new roman" font-size="10px" font-style="normal" font-weight="normal" text-decoration="normal" x="246.5625" y="295.75" text-anchor="start" dominant-baseline="text-after-edge" fill-opacity="0.8">42126390G&gt;A </text><text fill="rgb(0,0,0)" stroke="none" font-family="times new roman" font-size="10px" font-style="normal" font-weight="normal" text-decoration="normal" x="246.5625" y="305.75" text-anchor="start" dominant-baseline="text-after-edge" fill-opacity="0.8">42127209T&gt;C </text><text fill="rgb(0,0,0)" stroke="none" font-family="times new roman" font-size="10px" font-style="normal" font-weight="normal" text-decoration="normal" x="246.5625" y="315.75" text-anchor="start" dominant-baseline="text-after-edge" fill-opacity="0.8">42128694T&gt;C </text><text fill="rgb(0,0,0)" stroke="none" font-family="times new roman" font-size="10px" font-style="normal" font-weight="normal" text-decoration="normal" x="246.5625" y="325.75" text-anchor="start" dominant-baseline="text-after-edge" fill-opacity="0.8">42129754G&gt;A </text><text fill="rgb(0,0,0)" stroke="none" font-family="times new roman" font-size="10px" font-style="normal" font-weight="normal" text-decoration="normal" x="246.5625" y="335.75" text-anchor="start" dominant-baseline="text-after-edge" fill-opacity="0.8">42131791C&gt;T </text><text fill="rgb(0,0,0)" stroke="none" font-family="times new roman" font-size="10px" font-style="normal" font-weight="normal" text-decoration="normal" x="246.5625" y="345.75" text-anchor="start" dominant-baseline="text-after-edge" fill-opacity="0.8">42132217G&gt;A </text><path fill="rgb(176,190,197)" stroke="none" paint-order="stroke fill markers" d=" M 402.4375 280.75 L 469.4375 280.75 L 469.4375 280.75 A 8 8 0 0 1 477.4375 288.75 L 477.4375 482.75 L 477.4375 482.75 A 8 8 0 0 1 469.4375 490.75 L 335.4375 490.75 L 335.4375 490.75 A 8 8 0 0 1 327.4375 482.75 L 327.4375 288.75 L 327.4375 288.75 A 8 8 0 0 1 335.4375 280.75 L 402.4375 280.75 Z" fill-opacity="0.8"/><text fill="rgb(0,0,0)" stroke="none" font-family="times new roman" font-size="10px" font-style="normal" font-weight="normal" text-decoration="normal" x="332.4375" y="295.75" text-anchor="start" dominant-baseline="text-after-edge" fill-opacity="0.8">42125572G&gt;A </text><text fill="rgb(0,0,0)" stroke="none" font-family="times new roman" font-size="10px" font-style="normal" font-weight="normal" text-decoration="normal" x="332.4375" y="305.75" text-anchor="start" dominant-baseline="text-after-edge" fill-opacity="0.8">42125924A&gt;G </text><text fill="rgb(0,0,0)" stroke="none" font-family="times new roman" font-size="10px" font-style="normal" font-weight="normal" text-decoration="normal" x="332.4375" y="315.75" text-anchor="start" dominant-baseline="text-after-edge" fill-opacity="0.8">42125980T&gt;C </text><text fill="rgb(0,0,0)" stroke="none" font-family="times new roman" font-size="10px" font-style="normal" font-weight="normal" text-decoration="normal" x="332.4375" y="325.75" text-anchor="start" dominant-baseline="text-after-edge" fill-opacity="0.8">42126069A&gt;C </text><text fill="rgb(0,0,0)" stroke="none" font-family="times new roman" font-size="10px" font-style="normal" font-weight="normal" text-decoration="normal" x="332.4375" y="335.75" text-anchor="start" dominant-baseline="text-after-edge" fill-opacity="0.8">42132027C&gt;T </text><text fill="rgb(0,0,0)" stroke="none" font-family="times new roman" font-size="10px" font-style="normal" font-weight="normal" text-decoration="normal" x="332.4375" y="345.75" text-anchor="start" dominant-baseline="text-after-edge" fill-opacity="0.8">42132844C&gt;A </text><text fill="rgb(0,0,0)" stroke="none" font-family="times new roman" font-size="10px" font-style="normal" font-weight="normal" text-decoration="normal" x="332.4375" y="355.75" text-anchor="start" dominant-baseline="text-after-edge" fill-opacity="0.8">42132851T&gt;C </text><text fill="rgb(0,0,0)" stroke="none" font-family="times new roman" font-size="10px" font-style="normal" font-weight="normal" text-decoration="normal" x="332.4375" y="365.75" text-anchor="start" dominant-baseline="text-after-edge" fill-opacity="0.8">42132969C&gt;T </text><text fill="rgb(0,0,0)" stroke="none" font-family="times new roman" font-size="10px" font-style="normal" font-weight="normal" text-decoration="normal" x="332.4375" y="375.75" text-anchor="start" dominant-baseline="text-after-edge" fill-opacity="0.8">42133212A&gt;G </text><text fill="rgb(0,0,0)" stroke="none" font-family="times new roman" font-size="10px" font-style="normal" font-weight="normal" text-decoration="normal" x="332.4375" y="385.75" text-anchor="start" dominant-baseline="text-after-edge" fill-opacity="0.8">42133314C&gt;T </text><text fill="rgb(0,0,0)" stroke="none" font-family="times new roman" font-size="10px" font-style="normal" font-weight="normal" text-decoration="normal" x="332.4375" y="395.75" text-anchor="start" dominant-baseline="text-after-edge" fill-opacity="0.8">42133400T&gt;G </text><text fill="rgb(0,0,0)" stroke="none" font-family="times new roman" font-size="10px" font-style="normal" font-weight="normal" text-decoration="normal" x="332.4375" y="405.75" text-anchor="start" dominant-baseline="text-after-edge" fill-opacity="0.8">42134096del </text><text fill="rgb(0,0,0)" stroke="none" font-family="times new roman" font-size="10px" font-style="normal" font-weight="normal" text-decoration="normal" x="332.4375" y="415.75" text-anchor="start" dominant-baseline="text-after-edge" fill-opacity="0.8">42134820T&gt;G </text><text fill="rgb(0,0,0)" stroke="none" font-family="times new roman" font-size="10px" font-style="normal" font-weight="normal" text-decoration="normal" x="332.4375" y="425.75" text-anchor="start" dominant-baseline="text-after-edge" fill-opacity="0.8">42135064_42135066dup </text><text fill="rgb(0,0,0)" stroke="none" font-family="times new roman" font-size="10px" font-style="normal" font-weight="normal" text-decoration="normal" x="332.4375" y="435.75" text-anchor="start" dominant-baseline="text-after-edge" fill-opacity="0.8">42135201T&gt;C </text><g transform="scale(0.8499087591240877,0.8499087591240877) translate(12.438271604938222,53.68545356951154)"/></g></svg>