<svg version="1.1" xmlns="http://www.w3.org/2000/svg" xmlns:xlink="http://www.w3.org/1999/xlink" width="1017" height="608"><defs/><g transform="translate(12.388479747501322,-53.45397159389796) scale(1.1530773277222515,1.1530773277222515)"><path fill="none" stroke="rgb(120,144,156)" paint-order="fill stroke markers" d=" M 692.875 263.125 L 692.875 289.5" stroke-opacity="1" stroke-linejoin="round" stroke-miterlimit="10"/><path fill="rgb(120,144,156)" stroke="none" paint-order="stroke fill markers" d=" M 688.525 282.8 L 692.875 291.5 L 697.225 282.8 Z" fill-opacity="1"/><path fill="none" stroke="rgb(120,144,156)" paint-order="fill stroke markers" d=" M 435.4878318584071 180.375 L 462.57249753165627 228.19636282933067" stroke-opacity="1" stroke-linejoin="round" stroke-miterlimit="10"/><path fill="rgb(120,144,156)" stroke="none" paint-order="stroke fill markers" d=" M 455.48553977782666 224.51023616365106 L 463.55813407480855 229.9366273508339 L 463.0556904463657 220.2227172009387 Z" fill-opacity="1"/><path fill="none" stroke="rgb(120,144,156)" paint-order="fill stroke markers" d=" M 377.28474025974026 265.125 L 416.78304064673773 375.31953368836247" stroke-opacity="1" stroke-linejoin="round" stroke-miterlimit="10"/><path fill="rgb(120,144,156)" stroke="none" paint-order="stroke fill markers" d=" M 410.4274337079608 370.4802403060833 L 417.4578814781388 377.20224180495245 L 418.61721401512733 367.5446826894886 Z" fill-opacity="1"/><path fill="none" stroke="rgb(55,71,79)" paint-order="fill stroke markers" d=" M 579.625 265.125 L 579.625 376" stroke-opacity="1" stroke-linejoin="round" stroke-miterlimit="10" stroke-width="2"/><path fill="none" stroke="rgb(120,144,156)" paint-order="fill stroke markers" d=" M 218.1719338556944 406.8900314628957 L 398.7642014979838 513.0673948505732" stroke-opacity="1" stroke-linejoin="round" stroke-miterlimit="10"/><path fill="rgb(120,144,156)" stroke="none" paint-order="stroke fill markers" d=" M 390.7837822932643 513.4215266296401 L 400.4882926058564 514.0810564567095 L 395.19321027995665 505.9217303103942 Z" fill-opacity="1"/><path fill="none" stroke="rgb(120,144,156)" paint-order="fill stroke markers" d=" M 352.75 441.7319587628866 L 407.7609116140336 508.0853263798137" stroke-opacity="1" stroke-linejoin="round" stroke-miterlimit="10"/><path fill="rgb(120,144,156)" stroke="none" paint-order="stroke fill markers" d=" M 400.13590830312387 505.7037671198717 L 409.0373931623932 509.625 L 406.83348855093425 500.1510723845076 Z" fill-opacity="1"/><path fill="none" stroke="rgb(55,71,79)" paint-order="fill stroke markers" d=" M 488.89681332623115 111.23902773936021 L 510.5704273259076 145.77584354372266" stroke-opacity="1" stroke-linejoin="round" stroke-miterlimit="10" stroke-width="2"/><path fill="none" stroke="rgb(120,144,156)" paint-order="fill stroke markers" d=" M 467.52077939963607 276.12952848652253 L 431.96695935326227 375.31953368836247" stroke-opacity="1" stroke-linejoin="round" stroke-miterlimit="10"/><path fill="rgb(120,144,156)" stroke="none" paint-order="stroke fill markers" d=" M 430.1327859848727 367.5446826894886 L 431.2921185218612 377.20224180495245 L 438.3225662920392 370.4802403060833 Z" fill-opacity="1"/><path fill="none" stroke="rgb(120,144,156)" paint-order="fill stroke markers" d=" M 148.29123376623377 265.125 L 192.1905498467678 375.59059928761826" stroke-opacity="1" stroke-linejoin="round" stroke-miterlimit="10"/><path fill="rgb(120,144,156)" stroke="none" paint-order="stroke fill markers" d=" M 185.67369610785596 370.9707381051117 L 192.9291676381662 377.4492126842744 L 193.75866438331022 367.7577507125286 Z" fill-opacity="1"/><path fill="none" stroke="rgb(120,144,156)" paint-order="fill stroke markers" d=" M 424.375 417 L 424.375 507.625" stroke-opacity="1" stroke-linejoin="round" stroke-miterlimit="10"/><path fill="rgb(120,144,156)" stroke="none" paint-order="stroke fill markers" d=" M 420.025 500.925 L 424.375 509.625 L 428.725 500.925 Z" fill-opacity="1"/><path fill="none" stroke="rgb(55,71,79)" paint-order="fill stroke markers" d=" M 562.0918367346939 106.875 L 537.6795726740925 145.77584354372266" stroke-opacity="1" stroke-linejoin="round" stroke-miterlimit="10" stroke-width="2"/><path fill="none" stroke="rgb(120,144,156)" paint-order="fill stroke markers" d=" M 563.9884822489242 409.7570476585208 L 446.35532897297765 509.48950369682325" stroke-opacity="1" stroke-linejoin="round" stroke-miterlimit="10"/><path fill="rgb(120,144,156)" stroke="none" paint-order="stroke fill markers" d=" M 448.65271978359436 501.8387197197858 L 444.82981504604345 510.7828742000936 L 454.2788814728203 508.47470530194965 Z" fill-opacity="1"/><path fill="none" stroke="rgb(120,144,156)" paint-order="fill stroke markers" d=" M 511.55813407480855 189.5633726491661 L 489.67750246834373 228.19636282933067" stroke-opacity="1" stroke-linejoin="round" stroke-miterlimit="10"/><path fill="rgb(120,144,156)" stroke="none" paint-order="stroke fill markers" d=" M 489.1943095536343 220.2227172009387 L 488.69186592519145 229.9366273508339 L 496.76446022217334 224.51023616365106 Z" fill-opacity="1"/><path fill="none" stroke="rgb(120,144,156)" paint-order="fill stroke markers" d=" M 617.875 433.26675977653633 L 451.66586643955566 514.7463769269776" stroke-opacity="1" stroke-linejoin="round" stroke-miterlimit="10"/><path fill="rgb(120,144,156)" stroke="none" paint-order="stroke fill markers" d=" M 455.76710003201515 507.8912778744415 L 449.87004443139074 515.6267310119858 L 459.59664030180085 515.7031036099588 Z" fill-opacity="1"/><path fill="none" stroke="rgb(120,144,156)" paint-order="fill stroke markers" d=" M 252.70876623376623 265.125 L 208.8094501532322 375.59059928761826" stroke-opacity="1" stroke-linejoin="round" stroke-miterlimit="10"/><path fill="rgb(120,144,156)" stroke="none" paint-order="stroke fill markers" d=" M 207.24133561668978 367.7577507125286 L 208.0708323618338 377.4492126842744 L 215.32630389214404 370.9707381051117 Z" fill-opacity="1"/><path fill="rgb(69,90,100)" stroke="rgb(76,175,80)" paint-order="fill stroke markers" d=" M 495.5 93.875 L 495.44605334032974 95.24803417523728 L 495.2845459604149 96.61260313820404 L 495.0164736069593 97.96029386747834 L 494.6434890351652 99.28279740156158 L 494.1678918189475 100.57196006638907 L 493.59261417329645 101.81983374544207 L 492.9212028761966 103.0187248825291 L 492.1577974015616 104.16124191511828 L 491.30710439800055 105.2403408457782 L 490.37436867076457 106.24936867076458 L 489.36534084577823 107.18210439800055 L 488.2862419151183 108.03279740156158 L 487.1437248825291 108.79620287619662 L 485.94483374544205 109.46761417329644 L 484.69696006638907 110.04289181894751 L 483.4077974015616 110.51848903516519 L 482.08529386747836 110.89147360695934 L 480.73760313820407 111.1595459604149 L 479.3730341752373 111.32105334032974 L 478 111.375 L 476.6269658247627 111.32105334032974 L 475.26239686179593 111.1595459604149 L 473.91470613252164 110.89147360695934 L 472.5922025984384 110.51848903516519 L 471.30303993361093 110.04289181894751 L 470.05516625455795 109.46761417329644 L 468.8562751174709 108.79620287619662 L 467.7137580848817 108.03279740156158 L 466.63465915422177 107.18210439800055 L 465.62563132923543 106.24936867076458 L 464.69289560199945 105.24034084577822 L 463.8422025984384 104.16124191511828 L 463.0787971238034 103.01872488252911 L 462.40738582670355 101.81983374544207 L 461.8321081810525 100.57196006638907 L 461.3565109648348 99.28279740156158 L 460.9835263930407 97.96029386747834 L 460.7154540395851 96.61260313820404 L 460.55394665967026 95.2480341752373 L 460.5 93.875 L 460.55394665967026 92.50196582476272 L 460.7154540395851 91.13739686179596 L 460.9835263930407 89.78970613252166 L 461.3565109648348 88.46720259843842 L 461.8321081810525 87.17803993361093 L 462.40738582670355 85.93016625455793 L 463.0787971238034 84.7312751174709 L 463.8422025984384 83.58875808488172 L 464.69289560199945 82.5096591542218 L 465.62563132923543 81.50063132923542 L 466.63465915422177 80.56789560199947 L 467.7137580848817 79.71720259843842 L 468.8562751174709 78.95379712380338 L 470.05516625455795 78.28238582670356 L 471.30303993361093 77.70710818105248 L 472.59220259843846 77.2315109648348 L 473.9147061325217 76.85852639304065 L 475.262396861796 76.59045403958508 L 476.62696582476275 76.42894665967026 L 478.00000000000006 76.375 L 479.37303417523736 76.42894665967026 L 480.7376031382041 76.5904540395851 L 482.0852938674784 76.85852639304068 L 483.40779740156165 77.23151096483484 L 484.6969600663892 77.70710818105252 L 485.94483374544217 78.2823858267036 L 487.1437248825292 78.95379712380344 L 488.28624191511835 79.71720259843849 L 489.3653408457783 80.56789560199954 L 490.3743686707647 81.50063132923552 L 491.30710439800066 82.5096591542219 L 492.15779740156165 83.58875808488185 L 492.9212028761967 84.73127511747103 L 493.5926141732965 85.93016625455807 L 494.16789181894757 87.17803993361109 L 494.64348903516526 88.46720259843859 L 495.0164736069594 89.78970613252184 L 495.28454596041496 91.13739686179616 L 495.44605334032974 92.50196582476292 Z" fill-opacity="1" stroke-opacity="1" stroke-miterlimit="10" stroke-width="6"/><text fill="rgb(255,255,255)" stroke="none" font-family="times new roman" font-size="10px" font-style="normal" font-weight="normal" text-decoration="normal" x="478" y="98.875" text-anchor="middle" dominant-baseline="text-after-edge" fill-opacity="1">*39.2</text><path fill="rgb(69,90,100)" stroke="rgb(76,175,80)" paint-order="fill stroke markers" d=" M 597.125 396.5 L 597.0710533403297 397.8730341752373 L 596.9095459604149 399.23760313820407 L 596.6414736069594 400.58529386747836 L 596.2684890351652 401.9077974015616 L 595.7928918189475 403.19696006638907 L 595.2176141732964 404.44483374544205 L 594.5462028761966 405.6437248825291 L 593.7827974015615 406.7862419151183 L 592.9321043980005 407.86534084577823 L 591.9993686707646 408.87436867076457 L 590.9903408457782 409.80710439800055 L 589.9112419151182 410.6577974015616 L 588.7687248825291 411.4212028761966 L 587.5698337454421 412.09261417329645 L 586.3219600663891 412.6678918189475 L 585.0327974015615 413.1434890351652 L 583.7102938674783 413.5164736069593 L 582.362603138204 413.7845459604149 L 580.9980341752373 413.94605334032974 L 579.625 414 L 578.2519658247627 413.94605334032974 L 576.887396861796 413.7845459604149 L 575.5397061325217 413.5164736069593 L 574.2172025984385 413.1434890351652 L 572.9280399336109 412.6678918189475 L 571.6801662545579 412.09261417329645 L 570.4812751174709 411.4212028761966 L 569.3387580848818 410.6577974015616 L 568.2596591542218 409.80710439800055 L 567.2506313292354 408.87436867076457 L 566.3178956019995 407.86534084577823 L 565.4672025984385 406.7862419151183 L 564.7037971238034 405.6437248825291 L 564.0323858267036 404.44483374544205 L 563.4571081810525 403.19696006638907 L 562.9815109648348 401.9077974015616 L 562.6085263930406 400.58529386747836 L 562.3404540395851 399.23760313820407 L 562.1789466596703 397.8730341752373 L 562.125 396.5 L 562.1789466596703 395.1269658247627 L 562.3404540395851 393.76239686179593 L 562.6085263930406 392.41470613252164 L 562.9815109648348 391.0922025984384 L 563.4571081810525 389.80303993361093 L 564.0323858267036 388.55516625455795 L 564.7037971238034 387.3562751174709 L 565.4672025984385 386.2137580848817 L 566.3178956019995 385.13465915422177 L 567.2506313292354 384.12563132923543 L 568.2596591542218 383.19289560199945 L 569.3387580848818 382.3422025984384 L 570.4812751174709 381.5787971238034 L 571.6801662545579 380.90738582670355 L 572.928039933611 380.3321081810525 L 574.2172025984385 379.8565109648348 L 575.5397061325217 379.4835263930407 L 576.887396861796 379.2154540395851 L 578.2519658247628 379.05394665967026 L 579.6250000000001 379 L 580.9980341752373 379.05394665967026 L 582.3626031382041 379.2154540395851 L 583.7102938674784 379.4835263930407 L 585.0327974015617 379.85651096483485 L 586.3219600663891 380.3321081810525 L 587.5698337454421 380.9073858267036 L 588.7687248825292 381.57879712380344 L 589.9112419151184 382.3422025984385 L 590.9903408457783 383.19289560199957 L 591.9993686707646 384.1256313292355 L 592.9321043980007 385.1346591542219 L 593.7827974015617 386.2137580848818 L 594.5462028761967 387.35627511747106 L 595.2176141732965 388.55516625455806 L 595.7928918189476 389.8030399336111 L 596.2684890351652 391.0922025984386 L 596.6414736069594 392.4147061325218 L 596.9095459604149 393.76239686179616 L 597.0710533403297 395.1269658247629 Z" fill-opacity="1" stroke-opacity="1" stroke-miterlimit="10" stroke-width="6"/><text fill="rgb(255,255,255)" stroke="none" font-family="times new roman" font-size="10px" font-style="normal" font-weight="normal" text-decoration="normal" x="579.625" y="401.5" text-anchor="middle" dominant-baseline="text-after-edge" fill-opacity="1">*1.41</text><path fill="rgb(69,90,100)" stroke="rgb(76,175,80)" paint-order="fill stroke markers" d=" M 532.125 242.125 L 532.125 262.125 L 627.125 262.125 L 627.125 242.125 Z" fill-opacity="1" stroke-opacity="1" stroke-miterlimit="10" stroke-width="6"/><text fill="rgb(255,255,255)" stroke="none" font-family="times new roman" font-size="10px" font-style="normal" font-weight="normal" text-decoration="normal" x="579.625" y="257.125" text-anchor="middle" dominant-baseline="text-after-edge" fill-opacity="1">42127407T&gt;G</text><path fill="rgb(69,90,100)" stroke="rgb(158,158,158)" paint-order="fill stroke markers" d=" M 380.625 157.375 L 380.625 177.375 L 475.625 177.375 L 475.625 157.375 Z" fill-opacity="1" stroke-opacity="1" stroke-miterlimit="10" stroke-width="6"/><text fill="rgb(255,255,255)" stroke="none" font-family="times new roman" font-size="10px" font-style="normal" font-weight="normal" text-decoration="normal" x="428.125" y="172.375" text-anchor="middle" dominant-baseline="text-after-edge" fill-opacity="1">42130692G&gt;A</text><path fill="rgb(69,90,100)" stroke="rgb(76,175,80)" paint-order="fill stroke markers" d=" M 325.125 242.125 L 325.125 262.125 L 420.125 262.125 L 420.125 242.125 Z" fill-opacity="1" stroke-opacity="1" stroke-miterlimit="10" stroke-width="6"/><text fill="rgb(255,255,255)" stroke="none" font-family="times new roman" font-size="10px" font-style="normal" font-weight="normal" text-decoration="normal" x="372.625" y="257.125" text-anchor="middle" dominant-baseline="text-after-edge" fill-opacity="1">42129130C&gt;G</text><path fill="rgb(69,90,100)" stroke="rgb(76,175,80)" paint-order="fill stroke markers" d=" M 692.875 242.125 L 735.375 242.125 L 735.375 242.125 A 5 5 0 0 1 740.375 247.125 L 740.375 257.125 L 740.375 257.125 A 5 5 0 0 1 735.375 262.125 L 650.375 262.125 L 650.375 262.125 A 5 5 0 0 1 645.375 257.125 L 645.375 247.125 L 645.375 247.125 A 5 5 0 0 1 650.375 242.125 L 692.875 242.125 Z" fill-opacity="1" stroke-opacity="1" stroke-miterlimit="10" stroke-width="2"/><text fill="rgb(255,255,255)" stroke="none" font-family="times new roman" font-size="10px" font-style="normal" font-weight="normal" text-decoration="normal" x="692.875" y="257.125" text-anchor="middle" dominant-baseline="text-after-edge" fill-opacity="1">42132049dup</text><path fill="rgb(69,90,100)" stroke="rgb(158,158,158)" paint-order="fill stroke markers" d=" M 522.75 83.875 L 522.75 103.875 L 617.75 103.875 L 617.75 83.875 Z" fill-opacity="1" stroke-opacity="1" stroke-miterlimit="10" stroke-width="6"/><text fill="rgb(255,255,255)" stroke="none" font-family="times new roman" font-size="10px" font-style="normal" font-weight="normal" text-decoration="normal" x="570.25" y="98.875" text-anchor="middle" dominant-baseline="text-after-edge" fill-opacity="1">42126611C&gt;G</text><path fill="rgb(69,90,100)" stroke="rgb(255,193,7)" paint-order="fill stroke markers" d=" M 498.625 252.125 L 498.5556400089954 253.8903296538765 L 498.3479876633906 255.64477546340518 L 498.00332320894773 257.37752068675786 L 497.52377161664094 259.0778823734363 L 496.91228948150393 260.73537722821453 L 496.1726467942383 262.3397862441398 L 495.30940369796707 263.8812177061088 L 494.3278823734363 265.35016817658067 L 493.2341342260007 266.73758108742913 L 492.03490257669733 268.03490257669733 L 490.73758108742913 269.2341342260007 L 489.35016817658067 270.3278823734363 L 487.8812177061088 271.30940369796707 L 486.3397862441398 272.1726467942383 L 484.73537722821453 272.91228948150393 L 483.0778823734363 273.52377161664094 L 481.37752068675786 274.00332320894773 L 479.6447754634052 274.3479876633906 L 477.8903296538765 274.5556400089954 L 476.125 274.625 L 474.3596703461235 274.5556400089954 L 472.6052245365948 274.3479876633906 L 470.87247931324214 274.00332320894773 L 469.1721176265637 273.52377161664094 L 467.51462277178547 272.91228948150393 L 465.9102137558602 272.1726467942383 L 464.3687822938912 271.30940369796707 L 462.89983182341933 270.3278823734363 L 461.51241891257087 269.2341342260007 L 460.21509742330267 268.03490257669733 L 459.0158657739993 266.73758108742913 L 457.9221176265637 265.35016817658067 L 456.94059630203293 263.8812177061088 L 456.0773532057617 262.3397862441398 L 455.33771051849607 260.73537722821453 L 454.72622838335906 259.0778823734363 L 454.24667679105227 257.37752068675786 L 453.9020123366094 255.6447754634052 L 453.6943599910046 253.8903296538765 L 453.625 252.125 L 453.6943599910046 250.3596703461235 L 453.9020123366094 248.60522453659482 L 454.24667679105227 246.87247931324214 L 454.72622838335906 245.17211762656368 L 455.33771051849607 243.51462277178547 L 456.0773532057617 241.9102137558602 L 456.94059630203293 240.36878229389114 L 457.9221176265637 238.89983182341936 L 459.0158657739993 237.51241891257087 L 460.21509742330267 236.2150974233027 L 461.51241891257087 235.0158657739993 L 462.89983182341933 233.92211762656368 L 464.3687822938912 232.94059630203293 L 465.91021375586024 232.0773532057617 L 467.5146227717855 231.33771051849604 L 469.1721176265637 230.72622838335903 L 470.8724793132422 230.24667679105227 L 472.60522453659485 229.9020123366094 L 474.35967034612355 229.6943599910046 L 476.12500000000006 229.625 L 477.8903296538766 229.69435999100463 L 479.64477546340527 229.9020123366094 L 481.377520686758 230.2466767910523 L 483.0778823734364 230.72622838335909 L 484.73537722821465 231.3377105184961 L 486.33978624413993 232.0773532057618 L 487.881217706109 232.940596302033 L 489.3501681765808 233.92211762656376 L 490.73758108742925 235.01586577399942 L 492.03490257669745 236.2150974233028 L 493.23413422600083 237.512418912571 L 494.3278823734364 238.8998318234195 L 495.3094036979672 240.36878229389131 L 496.1726467942384 241.91021375586038 L 496.91228948150405 243.5146227717857 L 497.52377161664106 245.1721176265639 L 498.0033232089478 246.87247931324237 L 498.34798766339065 248.60522453659505 L 498.5556400089954 250.35967034612375 Z" fill-opacity="1" stroke-opacity="1" stroke-miterlimit="10" stroke-width="6"/><text fill="rgb(255,255,255)" stroke="none" font-family="times new roman" font-size="15px" font-style="normal" font-weight="normal" text-decoration="normal" x="476.125" y="259.625" text-anchor="middle" dominant-baseline="text-after-edge" fill-opacity="1">*10</text><path fill="rgb(3,169,244)" stroke="none" paint-order="stroke fill markers" d=" M 476.125 219.625 L 500.625 219.625 L 500.625 219.625 A 8 8 0 0 1 508.625 227.625 L 508.625 276.625 L 508.625 276.625 A 8 8 0 0 1 500.625 284.625 L 451.625 284.625 L 451.625 284.625 A 8 8 0 0 1 443.625 276.625 L 443.625 227.625 L 443.625 227.625 A 8 8 0 0 1 451.625 219.625 L 476.125 219.625 Z" fill-opacity="0.15"/><path fill="rgb(69,90,100)" stroke="rgb(255,193,7)" paint-order="fill stroke markers" d=" M 441.875 396.5 L 441.82105334032974 397.8730341752373 L 441.6595459604149 399.23760313820407 L 441.3914736069593 400.58529386747836 L 441.0184890351652 401.9077974015616 L 440.5428918189475 403.19696006638907 L 439.96761417329645 404.44483374544205 L 439.2962028761966 405.6437248825291 L 438.5327974015616 406.7862419151183 L 437.68210439800055 407.86534084577823 L 436.74936867076457 408.87436867076457 L 435.74034084577823 409.80710439800055 L 434.6612419151183 410.6577974015616 L 433.5187248825291 411.4212028761966 L 432.31983374544205 412.09261417329645 L 431.07196006638907 412.6678918189475 L 429.7827974015616 413.1434890351652 L 428.46029386747836 413.5164736069593 L 427.11260313820407 413.7845459604149 L 425.7480341752373 413.94605334032974 L 424.375 414 L 423.0019658247627 413.94605334032974 L 421.63739686179593 413.7845459604149 L 420.28970613252164 413.5164736069593 L 418.9672025984384 413.1434890351652 L 417.67803993361093 412.6678918189475 L 416.43016625455795 412.09261417329645 L 415.2312751174709 411.4212028761966 L 414.0887580848817 410.6577974015616 L 413.00965915422177 409.80710439800055 L 412.00063132923543 408.87436867076457 L 411.06789560199945 407.86534084577823 L 410.2172025984384 406.7862419151183 L 409.4537971238034 405.6437248825291 L 408.78238582670355 404.44483374544205 L 408.2071081810525 403.19696006638907 L 407.7315109648348 401.9077974015616 L 407.3585263930407 400.58529386747836 L 407.0904540395851 399.23760313820407 L 406.92894665967026 397.8730341752373 L 406.875 396.5 L 406.92894665967026 395.1269658247627 L 407.0904540395851 393.76239686179593 L 407.3585263930407 392.41470613252164 L 407.7315109648348 391.0922025984384 L 408.2071081810525 389.80303993361093 L 408.78238582670355 388.55516625455795 L 409.4537971238034 387.3562751174709 L 410.2172025984384 386.2137580848817 L 411.06789560199945 385.13465915422177 L 412.00063132923543 384.12563132923543 L 413.00965915422177 383.19289560199945 L 414.0887580848817 382.3422025984384 L 415.2312751174709 381.5787971238034 L 416.43016625455795 380.90738582670355 L 417.67803993361093 380.3321081810525 L 418.96720259843846 379.8565109648348 L 420.2897061325217 379.4835263930407 L 421.637396861796 379.2154540395851 L 423.00196582476275 379.05394665967026 L 424.37500000000006 379 L 425.74803417523736 379.05394665967026 L 427.1126031382041 379.2154540395851 L 428.4602938674784 379.4835263930407 L 429.78279740156165 379.85651096483485 L 431.0719600663892 380.3321081810525 L 432.31983374544217 380.9073858267036 L 433.5187248825292 381.57879712380344 L 434.66124191511835 382.3422025984385 L 435.7403408457783 383.19289560199957 L 436.7493686707647 384.1256313292355 L 437.68210439800066 385.1346591542219 L 438.53279740156165 386.2137580848818 L 439.2962028761967 387.35627511747106 L 439.9676141732965 388.55516625455806 L 440.54289181894757 389.8030399336111 L 441.01848903516526 391.0922025984386 L 441.3914736069594 392.4147061325218 L 441.65954596041496 393.76239686179616 L 441.82105334032974 395.1269658247629 Z" fill-opacity="1" stroke-opacity="1" stroke-miterlimit="10" stroke-width="6"/><text fill="rgb(255,255,255)" stroke="none" font-family="times new roman" font-size="10px" font-style="normal" font-weight="normal" text-decoration="normal" x="424.375" y="401.5" text-anchor="middle" dominant-baseline="text-after-edge" fill-opacity="1">*10.1</text><path fill="rgb(69,90,100)" stroke="rgb(76,175,80)" paint-order="fill stroke markers" d=" M 95.62500000000001 242.125 L 95.625 262.125 L 190.62499999999997 262.125 L 190.625 242.125 Z" fill-opacity="1" stroke-opacity="1" stroke-miterlimit="10" stroke-width="6"/><text fill="rgb(255,255,255)" stroke="none" font-family="times new roman" font-size="10px" font-style="normal" font-weight="normal" text-decoration="normal" x="143.125" y="257.125" text-anchor="middle" dominant-baseline="text-after-edge" fill-opacity="1">42129950A&gt;C</text><path fill="rgb(69,90,100)" stroke="rgb(76,175,80)" paint-order="fill stroke markers" d=" M 210.375 242.125 L 210.375 262.125 L 305.375 262.125 L 305.375 242.125 Z" fill-opacity="1" stroke-opacity="1" stroke-miterlimit="10" stroke-width="6"/><text fill="rgb(255,255,255)" stroke="none" font-family="times new roman" font-size="10px" font-style="normal" font-weight="normal" text-decoration="normal" x="257.875" y="257.125" text-anchor="middle" dominant-baseline="text-after-edge" fill-opacity="1">42130482C&gt;A</text><path fill="rgb(69,90,100)" stroke="rgb(76,175,80)" paint-order="fill stroke markers" d=" M 546.625 167.375 L 546.5556400089954 169.1403296538765 L 546.3479876633907 170.89477546340518 L 546.0033232089477 172.62752068675786 L 545.5237716166409 174.32788237343632 L 544.912289481504 175.98537722821453 L 544.1726467942383 177.58978624413982 L 543.3094036979671 179.13121770610886 L 542.3278823734363 180.60016817658064 L 541.2341342260007 181.98758108742913 L 540.0349025766973 183.2849025766973 L 538.7375810874291 184.4841342260007 L 537.3501681765806 185.57788237343632 L 535.8812177061088 186.55940369796707 L 534.3397862441398 187.4226467942383 L 532.7353772282145 188.16228948150396 L 531.0778823734363 188.77377161664094 L 529.3775206867579 189.25332320894773 L 527.6447754634052 189.5979876633906 L 525.8903296538765 189.80564000899537 L 524.125 189.875 L 522.3596703461235 189.80564000899537 L 520.6052245365948 189.5979876633906 L 518.8724793132421 189.25332320894773 L 517.1721176265637 188.77377161664094 L 515.5146227717855 188.16228948150396 L 513.9102137558602 187.4226467942383 L 512.3687822938912 186.55940369796707 L 510.89983182341933 185.57788237343632 L 509.51241891257087 184.4841342260007 L 508.21509742330267 183.28490257669733 L 507.0158657739993 181.98758108742913 L 505.9221176265637 180.60016817658064 L 504.94059630203293 179.13121770610886 L 504.0773532057617 177.58978624413982 L 503.33771051849607 175.98537722821453 L 502.72622838335906 174.32788237343632 L 502.24667679105227 172.62752068675786 L 501.9020123366094 170.8947754634052 L 501.6943599910046 169.1403296538765 L 501.625 167.375 L 501.6943599910046 165.6096703461235 L 501.9020123366094 163.85522453659482 L 502.24667679105227 162.12247931324214 L 502.72622838335906 160.42211762656368 L 503.33771051849607 158.76462277178547 L 504.0773532057617 157.1602137558602 L 504.94059630203293 155.61878229389114 L 505.9221176265637 154.14983182341936 L 507.0158657739993 152.76241891257087 L 508.21509742330267 151.4650974233027 L 509.51241891257087 150.2658657739993 L 510.89983182341933 149.17211762656368 L 512.3687822938912 148.19059630203293 L 513.9102137558602 147.3273532057617 L 515.5146227717855 146.58771051849604 L 517.1721176265637 145.97622838335903 L 518.8724793132421 145.49667679105227 L 520.6052245365948 145.1520123366094 L 522.3596703461236 144.9443599910046 L 524.1250000000001 144.875 L 525.8903296538766 144.94435999100463 L 527.6447754634053 145.1520123366094 L 529.377520686758 145.4966767910523 L 531.0778823734364 145.97622838335909 L 532.7353772282146 146.5877105184961 L 534.3397862441399 147.3273532057618 L 535.8812177061089 148.190596302033 L 537.3501681765807 149.17211762656376 L 538.7375810874292 150.26586577399942 L 540.0349025766974 151.4650974233028 L 541.2341342260008 152.762418912571 L 542.3278823734364 154.1498318234195 L 543.3094036979671 155.61878229389131 L 544.1726467942384 157.16021375586038 L 544.912289481504 158.7646227717857 L 545.523771616641 160.4221176265639 L 546.0033232089478 162.12247931324237 L 546.3479876633907 163.85522453659505 L 546.5556400089954 165.60967034612375 Z" fill-opacity="1" stroke-opacity="1" stroke-miterlimit="10" stroke-width="6"/><text fill="rgb(255,255,255)" stroke="none" font-family="times new roman" font-size="15px" font-style="normal" font-weight="normal" text-decoration="normal" x="524.125" y="174.875" text-anchor="middle" dominant-baseline="text-after-edge" fill-opacity="1">*39</text><path fill="rgb(69,90,100)" stroke="rgb(69,90,100)" paint-order="fill stroke markers" d=" M 405.625 510.625 L 386.875 528.125 L 405.625 545.625 L 443.125 545.625 L 461.875 528.125 L 443.12500000000006 510.625 Z" fill-opacity="1" stroke-opacity="1" stroke-miterlimit="10" stroke-width="2"/><text fill="rgb(255,255,255)" stroke="none" font-family="times new roman" font-size="10px" font-style="normal" font-weight="normal" text-decoration="normal" x="424.375" y="533.125" text-anchor="middle" dominant-baseline="text-after-edge" fill-opacity="1">NA18617-A</text><path fill="rgb(69,90,100)" stroke="rgb(76,175,80)" paint-order="fill stroke markers" d=" M 218 396.5 L 217.94605334032974 397.8730341752373 L 217.7845459604149 399.23760313820407 L 217.51647360695935 400.58529386747836 L 217.14348903516517 401.9077974015616 L 216.6678918189475 403.19696006638907 L 216.09261417329643 404.44483374544205 L 215.42120287619662 405.6437248825291 L 214.6577974015616 406.7862419151183 L 213.80710439800055 407.86534084577823 L 212.87436867076457 408.87436867076457 L 211.8653408457782 409.80710439800055 L 210.78624191511827 410.6577974015616 L 209.6437248825291 411.4212028761966 L 208.44483374544208 412.09261417329645 L 207.19696006638907 412.6678918189475 L 205.9077974015616 413.1434890351652 L 204.58529386747836 413.5164736069593 L 203.23760313820404 413.7845459604149 L 201.87303417523728 413.94605334032974 L 200.5 414 L 199.12696582476272 413.94605334032974 L 197.76239686179596 413.7845459604149 L 196.41470613252164 413.5164736069593 L 195.09220259843843 413.1434890351652 L 193.80303993361093 412.6678918189475 L 192.55516625455795 412.09261417329645 L 191.3562751174709 411.4212028761966 L 190.21375808488173 410.6577974015616 L 189.1346591542218 409.80710439800055 L 188.12563132923543 408.87436867076457 L 187.19289560199945 407.86534084577823 L 186.34220259843843 406.7862419151183 L 185.57879712380338 405.6437248825291 L 184.90738582670357 404.44483374544205 L 184.3321081810525 403.19696006638907 L 183.85651096483483 401.9077974015616 L 183.48352639304065 400.58529386747836 L 183.2154540395851 399.23760313820407 L 183.05394665967026 397.8730341752373 L 183 396.5 L 183.05394665967026 395.1269658247627 L 183.2154540395851 393.76239686179593 L 183.48352639304065 392.41470613252164 L 183.8565109648348 391.0922025984384 L 184.3321081810525 389.80303993361093 L 184.90738582670357 388.55516625455795 L 185.57879712380338 387.3562751174709 L 186.3422025984384 386.2137580848817 L 187.19289560199945 385.13465915422177 L 188.1256313292354 384.12563132923543 L 189.13465915422177 383.19289560199945 L 190.2137580848817 382.3422025984384 L 191.3562751174709 381.5787971238034 L 192.55516625455795 380.90738582670355 L 193.80303993361096 380.3321081810525 L 195.09220259843843 379.8565109648348 L 196.4147061325217 379.4835263930407 L 197.762396861796 379.2154540395851 L 199.12696582476278 379.05394665967026 L 200.50000000000006 379 L 201.87303417523736 379.05394665967026 L 203.23760313820412 379.2154540395851 L 204.5852938674784 379.4835263930407 L 205.90779740156165 379.85651096483485 L 207.19696006638915 380.3321081810525 L 208.44483374544217 380.9073858267036 L 209.6437248825292 381.57879712380344 L 210.78624191511838 382.3422025984385 L 211.86534084577832 383.19289560199957 L 212.87436867076468 384.1256313292355 L 213.80710439800063 385.1346591542219 L 214.65779740156168 386.2137580848818 L 215.4212028761967 387.35627511747106 L 216.0926141732965 388.55516625455806 L 216.6678918189476 389.8030399336111 L 217.14348903516523 391.0922025984386 L 217.51647360695938 392.4147061325218 L 217.78454596041493 393.76239686179616 L 217.94605334032974 395.1269658247629 Z" fill-opacity="1" stroke-opacity="1" stroke-miterlimit="10" stroke-width="6"/><text fill="rgb(255,255,255)" stroke="none" font-family="times new roman" font-size="10px" font-style="normal" font-weight="normal" text-decoration="normal" x="200.5" y="401.5" text-anchor="middle" dominant-baseline="text-after-edge" fill-opacity="1">*1.58</text><path fill="rgb(176,190,197)" stroke="none" paint-order="stroke fill markers" d=" M 277.75 291.5 L 277.75 501.5 L 352.75 501.5 L 352.75 291.50000000000006 Z" fill-opacity="0.8"/><text fill="rgb(0,0,0)" stroke="none" font-family="times new roman" font-size="10px" font-style="normal" font-weight="normal" text-decoration="normal" x="282.75" y="306.5" text-anchor="start" dominant-baseline="text-after-edge" fill-opacity="0.8">42126390G&gt;A </text><text fill="rgb(0,0,0)" stroke="none" font-family="times new roman" font-size="10px" font-style="normal" font-weight="normal" text-decoration="normal" x="282.75" y="316.5" text-anchor="start" dominant-baseline="text-after-edge" fill-opacity="0.8">42127209T&gt;C </text><text fill="rgb(0,0,0)" stroke="none" font-family="times new roman" font-size="10px" font-style="normal" font-weight="normal" text-decoration="normal" x="282.75" y="326.5" text-anchor="start" dominant-baseline="text-after-edge" fill-opacity="0.8">42128694T&gt;C </text><text fill="rgb(0,0,0)" stroke="none" font-family="times new roman" font-size="10px" font-style="normal" font-weight="normal" text-decoration="normal" x="282.75" y="336.5" text-anchor="start" dominant-baseline="text-after-edge" fill-opacity="0.8">42129754G&gt;A </text><text fill="rgb(0,0,0)" stroke="none" font-family="times new roman" font-size="10px" font-style="normal" font-weight="normal" text-decoration="normal" x="282.75" y="346.5" text-anchor="start" dominant-baseline="text-after-edge" fill-opacity="0.8">42131791C&gt;T </text><text fill="rgb(0,0,0)" stroke="none" font-family="times new roman" font-size="10px" font-style="normal" font-weight="normal" text-decoration="normal" x="282.75" y="356.5" text-anchor="start" dominant-baseline="text-after-edge" fill-opacity="0.8">42132217G&gt;A </text><path fill="rgb(176,190,197)" stroke="none" paint-order="stroke fill markers" d=" M 692.875 291.5 L 759.875 291.5 L 759.875 291.5 A 8 8 0 0 1 767.875 299.5 L 767.875 493.5 L 767.875 493.5 A 8 8 0 0 1 759.875 501.5 L 625.875 501.5 L 625.875 501.5 A 8 8 0 0 1 617.875 493.5 L 617.875 299.5 L 617.875 299.5 A 8 8 0 0 1 625.875 291.5 L 692.875 291.5 Z" fill-opacity="0.8"/><text fill="rgb(0,0,0)" stroke="none" font-family="times new roman" font-size="10px" font-style="normal" font-weight="normal" text-decoration="normal" x="622.875" y="306.5" text-anchor="start" dominant-baseline="text-after-edge" fill-opacity="0.8">42125572G&gt;A </text><text fill="rgb(0,0,0)" stroke="none" font-family="times new roman" font-size="10px" font-style="normal" font-weight="normal" text-decoration="normal" x="622.875" y="316.5" text-anchor="start" dominant-baseline="text-after-edge" fill-opacity="0.8">42125924A&gt;G </text><text fill="rgb(0,0,0)" stroke="none" font-family="times new roman" font-size="10px" font-style="normal" font-weight="normal" text-decoration="normal" x="622.875" y="326.5" text-anchor="start" dominant-baseline="text-after-edge" fill-opacity="0.8">42125980T&gt;C </text><text fill="rgb(0,0,0)" stroke="none" font-family="times new roman" font-size="10px" font-style="normal" font-weight="normal" text-decoration="normal" x="622.875" y="336.5" text-anchor="start" dominant-baseline="text-after-edge" fill-opacity="0.8">42126069A&gt;C </text><text fill="rgb(0,0,0)" stroke="none" font-family="times new roman" font-size="10px" font-style="normal" font-weight="normal" text-decoration="normal" x="622.875" y="346.5" text-anchor="start" dominant-baseline="text-after-edge" fill-opacity="0.8">42132027C&gt;T </text><text fill="rgb(0,0,0)" stroke="none" font-family="times new roman" font-size="10px" font-style="normal" font-weight="normal" text-decoration="normal" x="622.875" y="356.5" text-anchor="start" dominant-baseline="text-after-edge" fill-opacity="0.8">42132844C&gt;A </text><text fill="rgb(0,0,0)" stroke="none" font-family="times new roman" font-size="10px" font-style="normal" font-weight="normal" text-decoration="normal" x="622.875" y="366.5" text-anchor="start" dominant-baseline="text-after-edge" fill-opacity="0.8">42132851T&gt;C </text><text fill="rgb(0,0,0)" stroke="none" font-family="times new roman" font-size="10px" font-style="normal" font-weight="normal" text-decoration="normal" x="622.875" y="376.5" text-anchor="start" dominant-baseline="text-after-edge" fill-opacity="0.8">42132969C&gt;T </text><text fill="rgb(0,0,0)" stroke="none" font-family="times new roman" font-size="10px" font-style="normal" font-weight="normal" text-decoration="normal" x="622.875" y="386.5" text-anchor="start" dominant-baseline="text-after-edge" fill-opacity="0.8">42133212A&gt;G </text><text fill="rgb(0,0,0)" stroke="none" font-family="times new roman" font-size="10px" font-style="normal" font-weight="normal" text-decoration="normal" x="622.875" y="396.5" text-anchor="start" dominant-baseline="text-after-edge" fill-opacity="0.8">42133314C&gt;T </text><text fill="rgb(0,0,0)" stroke="none" font-family="times new roman" font-size="10px" font-style="normal" font-weight="normal" text-decoration="normal" x="622.875" y="406.5" text-anchor="start" dominant-baseline="text-after-edge" fill-opacity="0.8">42133400T&gt;G </text><text fill="rgb(0,0,0)" stroke="none" font-family="times new roman" font-size="10px" font-style="normal" font-weight="normal" text-decoration="normal" x="622.875" y="416.5" text-anchor="start" dominant-baseline="text-after-edge" fill-opacity="0.8">42134096del </text><text fill="rgb(0,0,0)" stroke="none" font-family="times new roman" font-size="10px" font-style="normal" font-weight="normal" text-decoration="normal" x="622.875" y="426.5" text-anchor="start" dominant-baseline="text-after-edge" fill-opacity="0.8">42134820T&gt;G </text><text fill="rgb(0,0,0)" stroke="none" font-family="times new roman" font-size="10px" font-style="normal" font-weight="normal" text-decoration="normal" x="622.875" y="436.5" text-anchor="start" dominant-baseline="text-after-edge" fill-opacity="0.8">42135064_42135066dup </text><text fill="rgb(0,0,0)" stroke="none" font-family="times new roman" font-size="10px" font-style="normal" font-weight="normal" text-decoration="normal" x="622.875" y="446.5" text-anchor="start" dominant-baseline="text-after-edge" fill-opacity="0.8">42135201T&gt;C </text><g transform="scale(0.8672445255474452,0.8672445255474452) translate(-12.388479747501322,53.45397159389796)"/></g></svg>