<svg version="1.1" xmlns="http://www.w3.org/2000/svg" xmlns:xlink="http://www.w3.org/1999/xlink" width="1017" height="608"><defs/><g transform="translate(-104.35175664095982,33.92973436161094) scale(2.1868037703513283,2.1868037703513283)"><path fill="none" stroke="rgb(120,144,156)" paint-order="fill stroke markers" d=" M 146.59161521570562 133.9893428414071 L 254.80254336819493 187.96505760332025" stroke-opacity="1" stroke-linejoin="round" stroke-miterlimit="10"/><path fill="rgb(120,144,156)" stroke="none" paint-order="stroke fill markers" d=" M 246.86536407860564 188.867102460805 L 256.59225530144647 188.85776763237618 L 250.7486527049989 181.0818555511608 Z" fill-opacity="1"/><path fill="none" stroke="rgb(55,71,79)" paint-order="fill stroke markers" d=" M 90.12438305140874 61.55774516548755 L 113.89267558334565 103.102323708705" stroke-opacity="1" stroke-linejoin="round" stroke-miterlimit="10" stroke-width="2"/><path fill="none" stroke="rgb(120,144,156)" paint-order="fill stroke markers" d=" M 233.94230769230768 134.5 L 267.5204025834988 181.37411904273665" stroke-opacity="1" stroke-linejoin="round" stroke-miterlimit="10"/><path fill="rgb(120,144,156)" stroke="none" paint-order="stroke fill markers" d=" M 260.0823880407875 178.4606263514098 L 268.68509615384613 183 L 267.1549702048831 173.39420932039897 Z" fill-opacity="1"/><path fill="none" stroke="rgb(120,144,156)" paint-order="fill stroke markers" d=" M 329.9326923076923 134.5 L 296.3545974165011 181.37411904273665" stroke-opacity="1" stroke-linejoin="round" stroke-miterlimit="10"/><path fill="rgb(120,144,156)" stroke="none" paint-order="stroke fill markers" d=" M 296.72002979511683 173.394209320399 L 295.1899038461538 183.00000000000003 L 303.7926119592124 178.46062635140981 Z" fill-opacity="1"/><path fill="none" stroke="rgb(120,144,156)" paint-order="fill stroke markers" d=" M 425.9230769230769 134.5 L 309.6908924111905 188.58566975049752" stroke-opacity="1" stroke-linejoin="round" stroke-miterlimit="10"/><path fill="rgb(120,144,156)" stroke="none" paint-order="stroke fill markers" d=" M 313.9302368607557 181.8151115284644 L 307.8775945125677 189.42944147961055 L 317.60064388239743 189.70295738747328 Z" fill-opacity="1"/><path fill="none" stroke="rgb(55,71,79)" paint-order="fill stroke markers" d=" M 163.89423076923077 56.5 L 137.23232441665436 103.102323708705" stroke-opacity="1" stroke-linejoin="round" stroke-miterlimit="10" stroke-width="2"/><path fill="rgb(69,90,100)" stroke="rgb(224,224,224)" paint-order="fill stroke markers" d=" M 226.0625 113.5 L 268.5625 113.5 L 268.5625 113.5 A 5 5 0 0 1 273.5625 118.5 L 273.5625 128.5 L 273.5625 128.5 A 5 5 0 0 1 268.5625 133.5 L 183.5625 133.5 L 183.5625 133.5 A 5 5 0 0 1 178.5625 128.5 L 178.5625 118.5 L 178.5625 118.5 A 5 5 0 0 1 183.5625 113.5 L 226.0625 113.5 Z" fill-opacity="1" stroke-opacity="1" stroke-miterlimit="10" stroke-width="2"/><text fill="rgb(255,255,255)" stroke="none" font-family="times new roman" font-size="10px" font-style="normal" font-weight="normal" text-decoration="normal" x="226.0625" y="128.5" text-anchor="middle" dominant-baseline="text-after-edge" fill-opacity="1">42134417G&gt;A</text><path fill="rgb(69,90,100)" stroke="rgb(117,117,117)" paint-order="fill stroke markers" d=" M 148.0625 123.5 L 147.99314000899537 125.2653296538765 L 147.7854876633906 127.0197754634052 L 147.44082320894773 128.75252068675786 L 146.96127161664094 130.45288237343632 L 146.34978948150396 132.11037722821453 L 145.6101467942383 133.71478624413982 L 144.74690369796707 135.25621770610886 L 143.76538237343632 136.72516817658064 L 142.6716342260007 138.11258108742913 L 141.47240257669733 139.4099025766973 L 140.17508108742913 140.6091342260007 L 138.78766817658064 141.70288237343632 L 137.31871770610886 142.68440369796707 L 135.77728624413982 143.5476467942383 L 134.17287722821453 144.28728948150396 L 132.51538237343632 144.89877161664094 L 130.81502068675786 145.37832320894773 L 129.08227546340518 145.7229876633906 L 127.3278296538765 145.93064000899537 L 125.5625 146 L 123.7971703461235 145.93064000899537 L 122.0427245365948 145.7229876633906 L 120.30997931324212 145.37832320894773 L 118.60961762656369 144.89877161664094 L 116.95212277178548 144.28728948150396 L 115.3477137558602 143.5476467942383 L 113.80628229389116 142.68440369796707 L 112.33733182341936 141.70288237343632 L 110.94991891257087 140.6091342260007 L 109.65259742330268 139.40990257669733 L 108.45336577399931 138.11258108742913 L 107.35961762656369 136.72516817658064 L 106.37809630203293 135.25621770610886 L 105.51485320576172 133.71478624413982 L 104.77521051849605 132.11037722821453 L 104.16372838335904 130.45288237343632 L 103.68417679105228 128.75252068675786 L 103.3395123366094 127.0197754634052 L 103.13185999100462 125.26532965387652 L 103.0625 123.5 L 103.13185999100462 121.7346703461235 L 103.3395123366094 119.9802245365948 L 103.68417679105227 118.24747931324214 L 104.16372838335904 116.54711762656369 L 104.77521051849604 114.88962277178548 L 105.51485320576172 113.2852137558602 L 106.37809630203293 111.74378229389116 L 107.35961762656368 110.27483182341936 L 108.45336577399931 108.88741891257087 L 109.65259742330268 107.59009742330268 L 110.94991891257087 106.39086577399931 L 112.33733182341935 105.29711762656369 L 113.80628229389116 104.31559630203293 L 115.34771375586021 103.45235320576171 L 116.9521227717855 102.71271051849604 L 118.60961762656372 102.10122838335903 L 120.30997931324217 101.62167679105227 L 122.04272453659486 101.27701233660939 L 123.79717034612355 101.06935999100462 L 125.56250000000007 101 L 127.32782965387659 101.06935999100463 L 129.0822754634053 101.27701233660942 L 130.81502068675798 101.6216767910523 L 132.51538237343644 102.10122838335909 L 134.17287722821465 102.7127105184961 L 135.77728624413993 103.45235320576178 L 137.31871770610897 104.315596302033 L 138.78766817658078 105.29711762656378 L 140.17508108742925 106.39086577399941 L 141.47240257669745 107.59009742330281 L 142.6716342260008 108.88741891257101 L 143.76538237343644 110.2748318234195 L 144.74690369796718 111.74378229389133 L 145.61014679423837 113.28521375586038 L 146.34978948150405 114.88962277178568 L 146.96127161664103 116.5471176265639 L 147.4408232089478 118.24747931324237 L 147.78548766339065 119.98022453659506 L 147.9931400089954 121.73467034612375 Z" fill-opacity="1" stroke-opacity="1" stroke-miterlimit="10" stroke-width="2"/><text fill="rgb(255,255,255)" stroke="none" font-family="times new roman" font-size="15px" font-style="normal" font-weight="normal" text-decoration="normal" x="125.5625" y="131" text-anchor="middle" dominant-baseline="text-after-edge" fill-opacity="1">*106</text><path fill="rgb(3,169,244)" stroke="none" paint-order="stroke fill markers" d=" M 125.5625 91 L 150.0625 91 L 150.0625 91 A 8 8 0 0 1 158.0625 99 L 158.0625 148 L 158.0625 148 A 8 8 0 0 1 150.0625 156 L 101.0625 156 L 101.0625 156 A 8 8 0 0 1 93.0625 148 L 93.0625 99 L 93.0625 99 A 8 8 0 0 1 101.0625 91 L 125.5625 91 Z" fill-opacity="0.15"/><path fill="rgb(69,90,100)" stroke="rgb(224,224,224)" paint-order="fill stroke markers" d=" M 449.5625 113.5 L 492.0625 113.5 L 492.0625 113.5 A 5 5 0 0 1 497.0625 118.5 L 497.0625 128.5 L 497.0625 128.5 A 5 5 0 0 1 492.0625 133.5 L 407.0625 133.5 L 407.0625 133.5 A 5 5 0 0 1 402.0625 128.5 L 402.0625 118.5 L 402.0625 118.5 A 5 5 0 0 1 407.0625 113.5 L 449.5625 113.5 Z" fill-opacity="1" stroke-opacity="1" stroke-miterlimit="10" stroke-width="2"/><text fill="rgb(255,255,255)" stroke="none" font-family="times new roman" font-size="10px" font-style="normal" font-weight="normal" text-decoration="normal" x="449.5625" y="128.5" text-anchor="middle" dominant-baseline="text-after-edge" fill-opacity="1">42125648_4212565…</text><path fill="rgb(69,90,100)" stroke="rgb(158,158,158)" paint-order="fill stroke markers" d=" M 122.68750000000001 35.5 L 122.6875 55.5 L 217.68749999999997 55.5 L 217.6875 35.5 Z" fill-opacity="1" stroke-opacity="1" stroke-miterlimit="10" stroke-width="2"/><text fill="rgb(255,255,255)" stroke="none" font-family="times new roman" font-size="10px" font-style="normal" font-weight="normal" text-decoration="normal" x="170.1875" y="50.5" text-anchor="middle" dominant-baseline="text-after-edge" fill-opacity="1">42126914C&gt;T</text><path fill="rgb(69,90,100)" stroke="rgb(224,224,224)" paint-order="fill stroke markers" d=" M 337.8125 113.5 L 380.3125 113.5 L 380.3125 113.5 A 5 5 0 0 1 385.3125 118.5 L 385.3125 128.5 L 385.3125 128.5 A 5 5 0 0 1 380.3125 133.5 L 295.3125 133.5 L 295.3125 133.5 A 5 5 0 0 1 290.3125 128.5 L 290.3125 118.5 L 290.3125 118.5 A 5 5 0 0 1 295.3125 113.5 L 337.8125 113.5 Z" fill-opacity="1" stroke-opacity="1" stroke-miterlimit="10" stroke-width="2"/><text fill="rgb(255,255,255)" stroke="none" font-family="times new roman" font-size="10px" font-style="normal" font-weight="normal" text-decoration="normal" x="337.8125" y="128.5" text-anchor="middle" dominant-baseline="text-after-edge" fill-opacity="1">42134321G&gt;A</text><path fill="rgb(69,90,100)" stroke="rgb(158,158,158)" paint-order="fill stroke markers" d=" M 98.4375 45.5 L 98.38355334032974 46.87303417523729 L 98.2220459604149 48.23760313820404 L 97.95397360695934 49.58529386747834 L 97.58098903516519 50.90779740156158 L 97.10539181894751 52.19696006638907 L 96.53011417329644 53.44483374544207 L 95.85870287619662 54.643724882529106 L 95.09529740156158 55.78624191511828 L 94.24460439800055 56.86534084577821 L 93.31186867076458 57.87436867076458 L 92.3028408457782 58.80710439800054 L 91.22374191511828 59.65779740156158 L 90.08122488252911 60.42120287619662 L 88.88233374544207 61.09261417329644 L 87.63446006638907 61.66789181894752 L 86.34529740156158 62.14348903516519 L 85.02279386747834 62.51647360695934 L 83.67510313820404 62.78454596041491 L 82.3105341752373 62.94605334032974 L 80.9375 63 L 79.56446582476272 62.94605334032974 L 78.19989686179596 62.78454596041491 L 76.85220613252166 62.51647360695934 L 75.52970259843842 62.14348903516519 L 74.24053993361093 61.66789181894752 L 72.99266625455793 61.09261417329644 L 71.7937751174709 60.42120287619662 L 70.65125808488172 59.65779740156158 L 69.5721591542218 58.80710439800055 L 68.56313132923542 57.87436867076458 L 67.63039560199945 56.86534084577821 L 66.77970259843842 55.78624191511828 L 66.01629712380338 54.643724882529106 L 65.34488582670356 53.44483374544207 L 64.76960818105249 52.196960066389074 L 64.29401096483481 50.90779740156158 L 63.92102639304066 49.58529386747835 L 63.65295403958509 48.237603138204044 L 63.49144665967026 46.87303417523729 L 63.4375 45.5 L 63.49144665967026 44.12696582476271 L 63.65295403958509 42.76239686179596 L 63.92102639304066 41.41470613252166 L 64.29401096483481 40.09220259843842 L 64.76960818105248 38.80303993361093 L 65.34488582670356 37.55516625455793 L 66.01629712380338 36.3562751174709 L 66.77970259843842 35.21375808488172 L 67.63039560199945 34.13465915422179 L 68.56313132923542 33.12563132923542 L 69.57215915422178 32.19289560199947 L 70.65125808488172 31.34220259843842 L 71.7937751174709 30.578797123803383 L 72.99266625455795 29.907385826703557 L 74.24053993361095 29.332108181052476 L 75.52970259843845 28.856510964834804 L 76.85220613252169 28.483526393040652 L 78.199896861796 28.215454039585083 L 79.56446582476276 28.053946659670256 L 80.93750000000006 28 L 82.31053417523735 28.053946659670267 L 83.67510313820411 28.2154540395851 L 85.02279386747843 28.483526393040677 L 86.34529740156167 28.85651096483484 L 87.63446006638917 29.33210818105252 L 88.88233374544217 29.90738582670361 L 90.0812248825292 30.578797123803447 L 91.22374191511838 31.34220259843849 L 92.3028408457783 32.19289560199954 L 93.31186867076468 33.12563132923552 L 94.24460439800063 34.13465915422189 L 95.09529740156167 35.213758084881846 L 95.8587028761967 36.35627511747103 L 96.53011417329651 37.55516625455808 L 97.10539181894758 38.80303993361109 L 97.58098903516525 40.09220259843859 L 97.95397360695938 41.41470613252184 L 98.22204596041495 42.762396861796155 L 98.38355334032975 44.12696582476292 Z" fill-opacity="1" stroke-opacity="1" stroke-miterlimit="10" stroke-width="2"/><text fill="rgb(255,255,255)" stroke="none" font-family="times new roman" font-size="10px" font-style="normal" font-weight="normal" text-decoration="normal" x="80.9375" y="50.5" text-anchor="middle" dominant-baseline="text-after-edge" fill-opacity="1">*106.1</text><path fill="rgb(69,90,100)" stroke="rgb(69,90,100)" paint-order="fill stroke markers" d=" M 263.1875 184 L 244.4375 201.5 L 263.1875 219 L 300.6875 219 L 319.4375 201.5 L 300.68750000000006 184.00000000000003 Z" fill-opacity="1" stroke-opacity="1" stroke-miterlimit="10" stroke-width="2"/><text fill="rgb(255,255,255)" stroke="none" font-family="times new roman" font-size="10px" font-style="normal" font-weight="normal" text-decoration="normal" x="281.9375" y="206.5" text-anchor="middle" dominant-baseline="text-after-edge" fill-opacity="1">NA18519-B</text><g transform="scale(0.45728840125391845,0.45728840125391845) translate(104.35175664095982,-33.92973436161094)"/></g></svg>