<svg version="1.1" xmlns="http://www.w3.org/2000/svg" xmlns:xlink="http://www.w3.org/1999/xlink" width="1017" height="608"><defs/><g transform="translate(-12.402682798527053,-53.45397159389796) scale(1.1530773277222515,1.1530773277222515)"><path fill="none" stroke="rgb(120,144,156)" paint-order="fill stroke markers" d=" M 169.68612407701326 406.08040971540913 L 373.9563493525246 514.0606041005063" stroke-opacity="1" stroke-linejoin="round" stroke-miterlimit="10"/><path fill="rgb(120,144,156)" stroke="none" paint-order="stroke fill markers" d=" M 366.0001023487188 514.7751904244949 L 375.7245077990625 514.9952782190828 L 370.0659347645266 507.08370118205517 Z" fill-opacity="1"/><path fill="none" stroke="rgb(55,71,79)" paint-order="fill stroke markers" d=" M 379.84566326530614 106.875 L 404.2579273259076 145.77584354372266" stroke-opacity="1" stroke-linejoin="round" stroke-miterlimit="10" stroke-width="2"/><path fill="none" stroke="rgb(55,71,79)" paint-order="fill stroke markers" d=" M 151.5625 265.125 L 151.5625 376" stroke-opacity="1" stroke-linejoin="round" stroke-miterlimit="10" stroke-width="2"/><path fill="none" stroke="rgb(120,144,156)" paint-order="fill stroke markers" d=" M 642.3537337662337 265.125 L 686.2530498467678 375.59059928761826" stroke-opacity="1" stroke-linejoin="round" stroke-miterlimit="10"/><path fill="rgb(120,144,156)" stroke="none" paint-order="stroke fill markers" d=" M 679.7361961078559 370.9707381051117 L 686.9916676381662 377.4492126842744 L 687.8211643833101 367.7577507125286 Z" fill-opacity="1"/><path fill="none" stroke="rgb(120,144,156)" paint-order="fill stroke markers" d=" M 328.9497108705516 413.8700500707437 L 387.9048914903583 507.93036096870793" stroke-opacity="1" stroke-linejoin="round" stroke-miterlimit="10"/><path fill="rgb(120,144,156)" stroke="none" paint-order="stroke fill markers" d=" M 380.6607924347275 504.56353325226485 L 388.96705840455843 509.625 L 388.032472220848 499.94310717549416 Z" fill-opacity="1"/><path fill="none" stroke="rgb(55,71,79)" paint-order="fill stroke markers" d=" M 453.04068667376885 111.23902773936021 L 431.3670726740924 145.77584354372266" stroke-opacity="1" stroke-linejoin="round" stroke-miterlimit="10" stroke-width="2"/><path fill="none" stroke="rgb(120,144,156)" paint-order="fill stroke markers" d=" M 400.5625 501.5 L 400.5625 507.625" stroke-opacity="1" stroke-linejoin="round" stroke-miterlimit="10"/><path fill="rgb(120,144,156)" stroke="none" paint-order="stroke fill markers" d=" M 396.2125 500.925 L 400.5625 509.625 L 404.9125 500.925 Z" fill-opacity="1"/><path fill="none" stroke="rgb(120,144,156)" paint-order="fill stroke markers" d=" M 329.1753318584071 180.375 L 356.25999753165627 228.19636282933067" stroke-opacity="1" stroke-linejoin="round" stroke-miterlimit="10"/><path fill="rgb(120,144,156)" stroke="none" paint-order="stroke fill markers" d=" M 349.17303977782666 224.51023616365106 L 357.24563407480855 229.9366273508339 L 356.7431904463657 220.2227172009387 Z" fill-opacity="1"/><path fill="none" stroke="rgb(120,144,156)" paint-order="fill stroke markers" d=" M 270.97224025974026 265.125 L 310.47054064673773 375.31953368836247" stroke-opacity="1" stroke-linejoin="round" stroke-miterlimit="10"/><path fill="rgb(120,144,156)" stroke="none" paint-order="stroke fill markers" d=" M 304.1149337079608 370.4802403060833 L 311.1453814781388 377.20224180495245 L 312.30471401512733 367.5446826894886 Z" fill-opacity="1"/><path fill="none" stroke="rgb(120,144,156)" paint-order="fill stroke markers" d=" M 405.24563407480855 189.5633726491661 L 383.36500246834373 228.19636282933067" stroke-opacity="1" stroke-linejoin="round" stroke-miterlimit="10"/><path fill="rgb(120,144,156)" stroke="none" paint-order="stroke fill markers" d=" M 382.8818095536343 220.2227172009387 L 382.37936592519145 229.9366273508339 L 390.45196022217334 224.51023616365106 Z" fill-opacity="1"/><path fill="none" stroke="rgb(120,144,156)" paint-order="fill stroke markers" d=" M 448.9375 476.51519756838906 L 419.27069980429144 508.1657959534763" stroke-opacity="1" stroke-linejoin="round" stroke-miterlimit="10"/><path fill="rgb(120,144,156)" stroke="none" paint-order="stroke fill markers" d=" M 420.6788732819517 500.3026192762793 L 417.90295584045583 509.625 L 427.0264108843299 506.2523055189643 Z" fill-opacity="1"/><path fill="none" stroke="rgb(120,144,156)" paint-order="fill stroke markers" d=" M 523.9375 263.125 L 523.9375 289.5" stroke-opacity="1" stroke-linejoin="round" stroke-miterlimit="10"/><path fill="rgb(120,144,156)" stroke="none" paint-order="stroke fill markers" d=" M 519.5875 282.8 L 523.9375 291.5 L 528.2875 282.8 Z" fill-opacity="1"/><path fill="none" stroke="rgb(120,144,156)" paint-order="fill stroke markers" d=" M 675.8520676579099 404.87673692866537 L 428.6524565558868 515.5490117970456" stroke-opacity="1" stroke-linejoin="round" stroke-miterlimit="10"/><path fill="rgb(120,144,156)" stroke="none" paint-order="stroke fill markers" d=" M 432.9900707535604 508.84098652337974 L 426.82704852251214 516.3662544242325 L 436.54507618182333 516.7815114685594 Z" fill-opacity="1"/><path fill="none" stroke="rgb(120,144,156)" paint-order="fill stroke markers" d=" M 746.7712662337663 265.125 L 702.8719501532322 375.59059928761826" stroke-opacity="1" stroke-linejoin="round" stroke-miterlimit="10"/><path fill="rgb(120,144,156)" stroke="none" paint-order="stroke fill markers" d=" M 701.3038356166899 367.7577507125286 L 702.1333323618338 377.4492126842744 L 709.3888038921441 370.9707381051117 Z" fill-opacity="1"/><path fill="none" stroke="rgb(120,144,156)" paint-order="fill stroke markers" d=" M 361.20827939963607 276.12952848652253 L 325.65445935326227 375.31953368836247" stroke-opacity="1" stroke-linejoin="round" stroke-miterlimit="10"/><path fill="rgb(120,144,156)" stroke="none" paint-order="stroke fill markers" d=" M 323.8202859848727 367.5446826894886 L 324.9796185218612 377.20224180495245 L 332.0100662920392 370.4802403060833 Z" fill-opacity="1"/><path fill="rgb(69,90,100)" stroke="rgb(76,175,80)" paint-order="fill stroke markers" d=" M 704.4375 242.125 L 704.4375 262.125 L 799.4375 262.125 L 799.4375 242.125 Z" fill-opacity="1" stroke-opacity="1" stroke-miterlimit="10" stroke-width="6"/><text fill="rgb(255,255,255)" stroke="none" font-family="times new roman" font-size="10px" font-style="normal" font-weight="normal" text-decoration="normal" x="751.9375" y="257.125" text-anchor="middle" dominant-baseline="text-after-edge" fill-opacity="1">42130482C&gt;A</text><path fill="rgb(69,90,100)" stroke="rgb(76,175,80)" paint-order="fill stroke markers" d=" M 481.4375 93.875 L 481.38355334032974 95.24803417523728 L 481.2220459604149 96.61260313820404 L 480.9539736069593 97.96029386747834 L 480.5809890351652 99.28279740156158 L 480.1053918189475 100.57196006638907 L 479.53011417329645 101.81983374544207 L 478.8587028761966 103.0187248825291 L 478.0952974015616 104.16124191511828 L 477.24460439800055 105.2403408457782 L 476.31186867076457 106.24936867076458 L 475.30284084577823 107.18210439800055 L 474.2237419151183 108.03279740156158 L 473.0812248825291 108.79620287619662 L 471.88233374544205 109.46761417329644 L 470.63446006638907 110.04289181894751 L 469.3452974015616 110.51848903516519 L 468.02279386747836 110.89147360695934 L 466.67510313820407 111.1595459604149 L 465.3105341752373 111.32105334032974 L 463.9375 111.375 L 462.5644658247627 111.32105334032974 L 461.19989686179593 111.1595459604149 L 459.85220613252164 110.89147360695934 L 458.5297025984384 110.51848903516519 L 457.24053993361093 110.04289181894751 L 455.99266625455795 109.46761417329644 L 454.7937751174709 108.79620287619662 L 453.6512580848817 108.03279740156158 L 452.57215915422177 107.18210439800055 L 451.56313132923543 106.24936867076458 L 450.63039560199945 105.24034084577822 L 449.7797025984384 104.16124191511828 L 449.0162971238034 103.01872488252911 L 448.34488582670355 101.81983374544207 L 447.7696081810525 100.57196006638907 L 447.2940109648348 99.28279740156158 L 446.9210263930407 97.96029386747834 L 446.6529540395851 96.61260313820404 L 446.49144665967026 95.2480341752373 L 446.4375 93.875 L 446.49144665967026 92.50196582476272 L 446.6529540395851 91.13739686179596 L 446.9210263930407 89.78970613252166 L 447.2940109648348 88.46720259843842 L 447.7696081810525 87.17803993361093 L 448.34488582670355 85.93016625455793 L 449.0162971238034 84.7312751174709 L 449.7797025984384 83.58875808488172 L 450.63039560199945 82.5096591542218 L 451.56313132923543 81.50063132923542 L 452.57215915422177 80.56789560199947 L 453.6512580848817 79.71720259843842 L 454.7937751174709 78.95379712380338 L 455.99266625455795 78.28238582670356 L 457.24053993361093 77.70710818105248 L 458.52970259843846 77.2315109648348 L 459.8522061325217 76.85852639304065 L 461.199896861796 76.59045403958508 L 462.56446582476275 76.42894665967026 L 463.93750000000006 76.375 L 465.31053417523736 76.42894665967026 L 466.6751031382041 76.5904540395851 L 468.0227938674784 76.85852639304068 L 469.34529740156165 77.23151096483484 L 470.6344600663892 77.70710818105252 L 471.88233374544217 78.2823858267036 L 473.0812248825292 78.95379712380344 L 474.22374191511835 79.71720259843849 L 475.3028408457783 80.56789560199954 L 476.3118686707647 81.50063132923552 L 477.24460439800066 82.5096591542219 L 478.09529740156165 83.58875808488185 L 478.8587028761967 84.73127511747103 L 479.5301141732965 85.93016625455807 L 480.10539181894757 87.17803993361109 L 480.58098903516526 88.46720259843859 L 480.9539736069594 89.78970613252184 L 481.22204596041496 91.13739686179616 L 481.38355334032974 92.50196582476292 Z" fill-opacity="1" stroke-opacity="1" stroke-miterlimit="10" stroke-width="6"/><text fill="rgb(255,255,255)" stroke="none" font-family="times new roman" font-size="10px" font-style="normal" font-weight="normal" text-decoration="normal" x="463.9375" y="98.875" text-anchor="middle" dominant-baseline="text-after-edge" fill-opacity="1">*39.2</text><path fill="rgb(69,90,100)" stroke="rgb(76,175,80)" paint-order="fill stroke markers" d=" M 218.8125 242.125 L 218.8125 262.125 L 313.8125 262.125 L 313.8125 242.125 Z" fill-opacity="1" stroke-opacity="1" stroke-miterlimit="10" stroke-width="6"/><text fill="rgb(255,255,255)" stroke="none" font-family="times new roman" font-size="10px" font-style="normal" font-weight="normal" text-decoration="normal" x="266.3125" y="257.125" text-anchor="middle" dominant-baseline="text-after-edge" fill-opacity="1">42129130C&gt;G</text><path fill="rgb(69,90,100)" stroke="rgb(255,193,7)" paint-order="fill stroke markers" d=" M 392.3125 252.125 L 392.2431400089954 253.8903296538765 L 392.0354876633906 255.64477546340518 L 391.69082320894773 257.37752068675786 L 391.21127161664094 259.0778823734363 L 390.59978948150393 260.73537722821453 L 389.8601467942383 262.3397862441398 L 388.99690369796707 263.8812177061088 L 388.0153823734363 265.35016817658067 L 386.9216342260007 266.73758108742913 L 385.72240257669733 268.03490257669733 L 384.42508108742913 269.2341342260007 L 383.03766817658067 270.3278823734363 L 381.5687177061088 271.30940369796707 L 380.0272862441398 272.1726467942383 L 378.42287722821453 272.91228948150393 L 376.7653823734363 273.52377161664094 L 375.06502068675786 274.00332320894773 L 373.3322754634052 274.3479876633906 L 371.5778296538765 274.5556400089954 L 369.8125 274.625 L 368.0471703461235 274.5556400089954 L 366.2927245365948 274.3479876633906 L 364.55997931324214 274.00332320894773 L 362.8596176265637 273.52377161664094 L 361.20212277178547 272.91228948150393 L 359.5977137558602 272.1726467942383 L 358.0562822938912 271.30940369796707 L 356.58733182341933 270.3278823734363 L 355.19991891257087 269.2341342260007 L 353.90259742330267 268.03490257669733 L 352.7033657739993 266.73758108742913 L 351.6096176265637 265.35016817658067 L 350.62809630203293 263.8812177061088 L 349.7648532057617 262.3397862441398 L 349.02521051849607 260.73537722821453 L 348.41372838335906 259.0778823734363 L 347.93417679105227 257.37752068675786 L 347.5895123366094 255.6447754634052 L 347.3818599910046 253.8903296538765 L 347.3125 252.125 L 347.3818599910046 250.3596703461235 L 347.5895123366094 248.60522453659482 L 347.93417679105227 246.87247931324214 L 348.41372838335906 245.17211762656368 L 349.02521051849607 243.51462277178547 L 349.7648532057617 241.9102137558602 L 350.62809630203293 240.36878229389114 L 351.6096176265637 238.89983182341936 L 352.7033657739993 237.51241891257087 L 353.90259742330267 236.2150974233027 L 355.19991891257087 235.0158657739993 L 356.58733182341933 233.92211762656368 L 358.0562822938912 232.94059630203293 L 359.59771375586024 232.0773532057617 L 361.2021227717855 231.33771051849604 L 362.8596176265637 230.72622838335903 L 364.5599793132422 230.24667679105227 L 366.29272453659485 229.9020123366094 L 368.04717034612355 229.6943599910046 L 369.81250000000006 229.625 L 371.5778296538766 229.69435999100463 L 373.33227546340527 229.9020123366094 L 375.065020686758 230.2466767910523 L 376.7653823734364 230.72622838335909 L 378.42287722821465 231.3377105184961 L 380.02728624413993 232.0773532057618 L 381.568717706109 232.940596302033 L 383.0376681765808 233.92211762656376 L 384.42508108742925 235.01586577399942 L 385.72240257669745 236.2150974233028 L 386.92163422600083 237.512418912571 L 388.0153823734364 238.8998318234195 L 388.9969036979672 240.36878229389131 L 389.8601467942384 241.91021375586038 L 390.59978948150405 243.5146227717857 L 391.21127161664106 245.1721176265639 L 391.6908232089478 246.87247931324237 L 392.03548766339065 248.60522453659505 L 392.2431400089954 250.35967034612375 Z" fill-opacity="1" stroke-opacity="1" stroke-miterlimit="10" stroke-width="6"/><text fill="rgb(255,255,255)" stroke="none" font-family="times new roman" font-size="15px" font-style="normal" font-weight="normal" text-decoration="normal" x="369.8125" y="259.625" text-anchor="middle" dominant-baseline="text-after-edge" fill-opacity="1">*10</text><path fill="rgb(3,169,244)" stroke="none" paint-order="stroke fill markers" d=" M 369.8125 219.625 L 394.3125 219.625 L 394.3125 219.625 A 8 8 0 0 1 402.3125 227.625 L 402.3125 276.625 L 402.3125 276.625 A 8 8 0 0 1 394.3125 284.625 L 345.3125 284.625 L 345.3125 284.625 A 8 8 0 0 1 337.3125 276.625 L 337.3125 227.625 L 337.3125 227.625 A 8 8 0 0 1 345.3125 219.625 L 369.8125 219.625 Z" fill-opacity="0.15"/><path fill="rgb(69,90,100)" stroke="rgb(158,158,158)" paint-order="fill stroke markers" d=" M 324.1875 83.875 L 324.1875 103.875 L 419.1875 103.875 L 419.1875 83.875 Z" fill-opacity="1" stroke-opacity="1" stroke-miterlimit="10" stroke-width="6"/><text fill="rgb(255,255,255)" stroke="none" font-family="times new roman" font-size="10px" font-style="normal" font-weight="normal" text-decoration="normal" x="371.6875" y="98.875" text-anchor="middle" dominant-baseline="text-after-edge" fill-opacity="1">42126611C&gt;G</text><path fill="rgb(69,90,100)" stroke="rgb(158,158,158)" paint-order="fill stroke markers" d=" M 274.3125 157.375 L 274.3125 177.375 L 369.3125 177.375 L 369.3125 157.375 Z" fill-opacity="1" stroke-opacity="1" stroke-miterlimit="10" stroke-width="6"/><text fill="rgb(255,255,255)" stroke="none" font-family="times new roman" font-size="10px" font-style="normal" font-weight="normal" text-decoration="normal" x="321.8125" y="172.375" text-anchor="middle" dominant-baseline="text-after-edge" fill-opacity="1">42130692G&gt;A</text><path fill="rgb(69,90,100)" stroke="rgb(76,175,80)" paint-order="fill stroke markers" d=" M 523.9375 242.125 L 566.4375 242.125 L 566.4375 242.125 A 5 5 0 0 1 571.4375 247.125 L 571.4375 257.125 L 571.4375 257.125 A 5 5 0 0 1 566.4375 262.125 L 481.4375 262.125 L 481.4375 262.125 A 5 5 0 0 1 476.4375 257.125 L 476.4375 247.125 L 476.4375 247.125 A 5 5 0 0 1 481.4375 242.125 L 523.9375 242.125 Z" fill-opacity="1" stroke-opacity="1" stroke-miterlimit="10" stroke-width="2"/><text fill="rgb(255,255,255)" stroke="none" font-family="times new roman" font-size="10px" font-style="normal" font-weight="normal" text-decoration="normal" x="523.9375" y="257.125" text-anchor="middle" dominant-baseline="text-after-edge" fill-opacity="1">42132049dup</text><path fill="rgb(69,90,100)" stroke="rgb(76,175,80)" paint-order="fill stroke markers" d=" M 440.3125 167.375 L 440.2431400089954 169.1403296538765 L 440.0354876633906 170.89477546340518 L 439.69082320894773 172.62752068675786 L 439.21127161664094 174.32788237343632 L 438.59978948150393 175.98537722821453 L 437.8601467942383 177.58978624413982 L 436.99690369796707 179.13121770610886 L 436.0153823734363 180.60016817658064 L 434.9216342260007 181.98758108742913 L 433.72240257669733 183.2849025766973 L 432.42508108742913 184.4841342260007 L 431.03766817658067 185.57788237343632 L 429.5687177061088 186.55940369796707 L 428.0272862441398 187.4226467942383 L 426.42287722821453 188.16228948150396 L 424.7653823734363 188.77377161664094 L 423.06502068675786 189.25332320894773 L 421.3322754634052 189.5979876633906 L 419.5778296538765 189.80564000899537 L 417.8125 189.875 L 416.0471703461235 189.80564000899537 L 414.2927245365948 189.5979876633906 L 412.55997931324214 189.25332320894773 L 410.8596176265637 188.77377161664094 L 409.20212277178547 188.16228948150396 L 407.5977137558602 187.4226467942383 L 406.0562822938912 186.55940369796707 L 404.58733182341933 185.57788237343632 L 403.19991891257087 184.4841342260007 L 401.90259742330267 183.28490257669733 L 400.7033657739993 181.98758108742913 L 399.6096176265637 180.60016817658064 L 398.62809630203293 179.13121770610886 L 397.7648532057617 177.58978624413982 L 397.02521051849607 175.98537722821453 L 396.41372838335906 174.32788237343632 L 395.93417679105227 172.62752068675786 L 395.5895123366094 170.8947754634052 L 395.3818599910046 169.1403296538765 L 395.3125 167.375 L 395.3818599910046 165.6096703461235 L 395.5895123366094 163.85522453659482 L 395.93417679105227 162.12247931324214 L 396.41372838335906 160.42211762656368 L 397.02521051849607 158.76462277178547 L 397.7648532057617 157.1602137558602 L 398.62809630203293 155.61878229389114 L 399.6096176265637 154.14983182341936 L 400.7033657739993 152.76241891257087 L 401.90259742330267 151.4650974233027 L 403.19991891257087 150.2658657739993 L 404.58733182341933 149.17211762656368 L 406.0562822938912 148.19059630203293 L 407.59771375586024 147.3273532057617 L 409.2021227717855 146.58771051849604 L 410.8596176265637 145.97622838335903 L 412.5599793132422 145.49667679105227 L 414.29272453659485 145.1520123366094 L 416.04717034612355 144.9443599910046 L 417.81250000000006 144.875 L 419.5778296538766 144.94435999100463 L 421.33227546340527 145.1520123366094 L 423.065020686758 145.4966767910523 L 424.7653823734364 145.97622838335909 L 426.42287722821465 146.5877105184961 L 428.02728624413993 147.3273532057618 L 429.568717706109 148.190596302033 L 431.0376681765808 149.17211762656376 L 432.42508108742925 150.26586577399942 L 433.72240257669745 151.4650974233028 L 434.92163422600083 152.762418912571 L 436.0153823734364 154.1498318234195 L 436.9969036979672 155.61878229389131 L 437.8601467942384 157.16021375586038 L 438.59978948150405 158.7646227717857 L 439.21127161664106 160.4221176265639 L 439.6908232089478 162.12247931324237 L 440.03548766339065 163.85522453659505 L 440.2431400089954 165.60967034612375 Z" fill-opacity="1" stroke-opacity="1" stroke-miterlimit="10" stroke-width="6"/><text fill="rgb(255,255,255)" stroke="none" font-family="times new roman" font-size="15px" font-style="normal" font-weight="normal" text-decoration="normal" x="417.8125" y="174.875" text-anchor="middle" dominant-baseline="text-after-edge" fill-opacity="1">*39</text><path fill="rgb(69,90,100)" stroke="rgb(255,193,7)" paint-order="fill stroke markers" d=" M 335.5625 396.5 L 335.50855334032974 397.8730341752373 L 335.3470459604149 399.23760313820407 L 335.0789736069593 400.58529386747836 L 334.7059890351652 401.9077974015616 L 334.2303918189475 403.19696006638907 L 333.65511417329645 404.44483374544205 L 332.9837028761966 405.6437248825291 L 332.2202974015616 406.7862419151183 L 331.36960439800055 407.86534084577823 L 330.43686867076457 408.87436867076457 L 329.42784084577823 409.80710439800055 L 328.3487419151183 410.6577974015616 L 327.2062248825291 411.4212028761966 L 326.00733374544205 412.09261417329645 L 324.75946006638907 412.6678918189475 L 323.4702974015616 413.1434890351652 L 322.14779386747836 413.5164736069593 L 320.80010313820407 413.7845459604149 L 319.4355341752373 413.94605334032974 L 318.0625 414 L 316.6894658247627 413.94605334032974 L 315.32489686179593 413.7845459604149 L 313.97720613252164 413.5164736069593 L 312.6547025984384 413.1434890351652 L 311.36553993361093 412.6678918189475 L 310.11766625455795 412.09261417329645 L 308.9187751174709 411.4212028761966 L 307.7762580848817 410.6577974015616 L 306.69715915422177 409.80710439800055 L 305.68813132923543 408.87436867076457 L 304.75539560199945 407.86534084577823 L 303.9047025984384 406.7862419151183 L 303.1412971238034 405.6437248825291 L 302.46988582670355 404.44483374544205 L 301.8946081810525 403.19696006638907 L 301.4190109648348 401.9077974015616 L 301.0460263930407 400.58529386747836 L 300.7779540395851 399.23760313820407 L 300.61644665967026 397.8730341752373 L 300.5625 396.5 L 300.61644665967026 395.1269658247627 L 300.7779540395851 393.76239686179593 L 301.0460263930407 392.41470613252164 L 301.4190109648348 391.0922025984384 L 301.8946081810525 389.80303993361093 L 302.46988582670355 388.55516625455795 L 303.1412971238034 387.3562751174709 L 303.9047025984384 386.2137580848817 L 304.75539560199945 385.13465915422177 L 305.68813132923543 384.12563132923543 L 306.69715915422177 383.19289560199945 L 307.7762580848817 382.3422025984384 L 308.9187751174709 381.5787971238034 L 310.11766625455795 380.90738582670355 L 311.36553993361093 380.3321081810525 L 312.65470259843846 379.8565109648348 L 313.9772061325217 379.4835263930407 L 315.324896861796 379.2154540395851 L 316.68946582476275 379.05394665967026 L 318.06250000000006 379 L 319.43553417523736 379.05394665967026 L 320.8001031382041 379.2154540395851 L 322.1477938674784 379.4835263930407 L 323.47029740156165 379.85651096483485 L 324.7594600663892 380.3321081810525 L 326.00733374544217 380.9073858267036 L 327.2062248825292 381.57879712380344 L 328.34874191511835 382.3422025984385 L 329.4278408457783 383.19289560199957 L 330.4368686707647 384.1256313292355 L 331.36960439800066 385.1346591542219 L 332.22029740156165 386.2137580848818 L 332.9837028761967 387.35627511747106 L 333.6551141732965 388.55516625455806 L 334.23039181894757 389.8030399336111 L 334.70598903516526 391.0922025984386 L 335.0789736069594 392.4147061325218 L 335.34704596041496 393.76239686179616 L 335.50855334032974 395.1269658247629 Z" fill-opacity="1" stroke-opacity="1" stroke-miterlimit="10" stroke-width="6"/><text fill="rgb(255,255,255)" stroke="none" font-family="times new roman" font-size="10px" font-style="normal" font-weight="normal" text-decoration="normal" x="318.0625" y="401.5" text-anchor="middle" dominant-baseline="text-after-edge" fill-opacity="1">*10.1</text><path fill="rgb(69,90,100)" stroke="rgb(76,175,80)" paint-order="fill stroke markers" d=" M 104.06250000000001 242.125 L 104.0625 262.125 L 199.06249999999997 262.125 L 199.0625 242.125 Z" fill-opacity="1" stroke-opacity="1" stroke-miterlimit="10" stroke-width="6"/><text fill="rgb(255,255,255)" stroke="none" font-family="times new roman" font-size="10px" font-style="normal" font-weight="normal" text-decoration="normal" x="151.5625" y="257.125" text-anchor="middle" dominant-baseline="text-after-edge" fill-opacity="1">42127407T&gt;G</text><path fill="rgb(69,90,100)" stroke="rgb(76,175,80)" paint-order="fill stroke markers" d=" M 712.0625 396.5 L 712.0085533403297 397.8730341752373 L 711.8470459604149 399.23760313820407 L 711.5789736069594 400.58529386747836 L 711.2059890351652 401.9077974015616 L 710.7303918189475 403.19696006638907 L 710.1551141732964 404.44483374544205 L 709.4837028761966 405.6437248825291 L 708.7202974015615 406.7862419151183 L 707.8696043980005 407.86534084577823 L 706.9368686707646 408.87436867076457 L 705.9278408457782 409.80710439800055 L 704.8487419151182 410.6577974015616 L 703.7062248825291 411.4212028761966 L 702.5073337454421 412.09261417329645 L 701.2594600663891 412.6678918189475 L 699.9702974015615 413.1434890351652 L 698.6477938674783 413.5164736069593 L 697.300103138204 413.7845459604149 L 695.9355341752373 413.94605334032974 L 694.5625 414 L 693.1894658247627 413.94605334032974 L 691.824896861796 413.7845459604149 L 690.4772061325217 413.5164736069593 L 689.1547025984385 413.1434890351652 L 687.8655399336109 412.6678918189475 L 686.6176662545579 412.09261417329645 L 685.4187751174709 411.4212028761966 L 684.2762580848818 410.6577974015616 L 683.1971591542218 409.80710439800055 L 682.1881313292354 408.87436867076457 L 681.2553956019995 407.86534084577823 L 680.4047025984385 406.7862419151183 L 679.6412971238034 405.6437248825291 L 678.9698858267036 404.44483374544205 L 678.3946081810525 403.19696006638907 L 677.9190109648348 401.9077974015616 L 677.5460263930406 400.58529386747836 L 677.2779540395851 399.23760313820407 L 677.1164466596703 397.8730341752373 L 677.0625 396.5 L 677.1164466596703 395.1269658247627 L 677.2779540395851 393.76239686179593 L 677.5460263930406 392.41470613252164 L 677.9190109648348 391.0922025984384 L 678.3946081810525 389.80303993361093 L 678.9698858267036 388.55516625455795 L 679.6412971238034 387.3562751174709 L 680.4047025984385 386.2137580848817 L 681.2553956019995 385.13465915422177 L 682.1881313292354 384.12563132923543 L 683.1971591542218 383.19289560199945 L 684.2762580848818 382.3422025984384 L 685.4187751174709 381.5787971238034 L 686.6176662545579 380.90738582670355 L 687.865539933611 380.3321081810525 L 689.1547025984385 379.8565109648348 L 690.4772061325217 379.4835263930407 L 691.824896861796 379.2154540395851 L 693.1894658247628 379.05394665967026 L 694.5625000000001 379 L 695.9355341752373 379.05394665967026 L 697.3001031382041 379.2154540395851 L 698.6477938674784 379.4835263930407 L 699.9702974015617 379.85651096483485 L 701.2594600663891 380.3321081810525 L 702.5073337454421 380.9073858267036 L 703.7062248825292 381.57879712380344 L 704.8487419151184 382.3422025984385 L 705.9278408457783 383.19289560199957 L 706.9368686707646 384.1256313292355 L 707.8696043980007 385.1346591542219 L 708.7202974015617 386.2137580848818 L 709.4837028761967 387.35627511747106 L 710.1551141732965 388.55516625455806 L 710.7303918189476 389.8030399336111 L 711.2059890351652 391.0922025984386 L 711.5789736069594 392.4147061325218 L 711.8470459604149 393.76239686179616 L 712.0085533403297 395.1269658247629 Z" fill-opacity="1" stroke-opacity="1" stroke-miterlimit="10" stroke-width="6"/><text fill="rgb(255,255,255)" stroke="none" font-family="times new roman" font-size="10px" font-style="normal" font-weight="normal" text-decoration="normal" x="694.5625" y="401.5" text-anchor="middle" dominant-baseline="text-after-edge" fill-opacity="1">*1.58</text><path fill="rgb(69,90,100)" stroke="rgb(76,175,80)" paint-order="fill stroke markers" d=" M 589.6875 242.125 L 589.6875 262.125 L 684.6875 262.125 L 684.6875 242.125 Z" fill-opacity="1" stroke-opacity="1" stroke-miterlimit="10" stroke-width="6"/><text fill="rgb(255,255,255)" stroke="none" font-family="times new roman" font-size="10px" font-style="normal" font-weight="normal" text-decoration="normal" x="637.1875" y="257.125" text-anchor="middle" dominant-baseline="text-after-edge" fill-opacity="1">42129950A&gt;C</text><path fill="rgb(69,90,100)" stroke="rgb(76,175,80)" paint-order="fill stroke markers" d=" M 169.0625 396.5 L 169.00855334032974 397.8730341752373 L 168.8470459604149 399.23760313820407 L 168.57897360695935 400.58529386747836 L 168.20598903516517 401.9077974015616 L 167.7303918189475 403.19696006638907 L 167.15511417329643 404.44483374544205 L 166.48370287619662 405.6437248825291 L 165.7202974015616 406.7862419151183 L 164.86960439800055 407.86534084577823 L 163.93686867076457 408.87436867076457 L 162.9278408457782 409.80710439800055 L 161.84874191511827 410.6577974015616 L 160.7062248825291 411.4212028761966 L 159.50733374544208 412.09261417329645 L 158.25946006638907 412.6678918189475 L 156.9702974015616 413.1434890351652 L 155.64779386747836 413.5164736069593 L 154.30010313820404 413.7845459604149 L 152.93553417523728 413.94605334032974 L 151.5625 414 L 150.18946582476272 413.94605334032974 L 148.82489686179596 413.7845459604149 L 147.47720613252164 413.5164736069593 L 146.15470259843843 413.1434890351652 L 144.86553993361093 412.6678918189475 L 143.61766625455795 412.09261417329645 L 142.4187751174709 411.4212028761966 L 141.27625808488173 410.6577974015616 L 140.1971591542218 409.80710439800055 L 139.18813132923543 408.87436867076457 L 138.25539560199945 407.86534084577823 L 137.40470259843843 406.7862419151183 L 136.64129712380338 405.6437248825291 L 135.96988582670357 404.44483374544205 L 135.3946081810525 403.19696006638907 L 134.91901096483483 401.9077974015616 L 134.54602639304065 400.58529386747836 L 134.2779540395851 399.23760313820407 L 134.11644665967026 397.8730341752373 L 134.0625 396.5 L 134.11644665967026 395.1269658247627 L 134.2779540395851 393.76239686179593 L 134.54602639304065 392.41470613252164 L 134.9190109648348 391.0922025984384 L 135.3946081810525 389.80303993361093 L 135.96988582670357 388.55516625455795 L 136.64129712380338 387.3562751174709 L 137.4047025984384 386.2137580848817 L 138.25539560199945 385.13465915422177 L 139.1881313292354 384.12563132923543 L 140.19715915422177 383.19289560199945 L 141.2762580848817 382.3422025984384 L 142.4187751174709 381.5787971238034 L 143.61766625455795 380.90738582670355 L 144.86553993361096 380.3321081810525 L 146.15470259843843 379.8565109648348 L 147.4772061325217 379.4835263930407 L 148.824896861796 379.2154540395851 L 150.18946582476278 379.05394665967026 L 151.56250000000006 379 L 152.93553417523736 379.05394665967026 L 154.30010313820412 379.2154540395851 L 155.6477938674784 379.4835263930407 L 156.97029740156165 379.85651096483485 L 158.25946006638915 380.3321081810525 L 159.50733374544217 380.9073858267036 L 160.7062248825292 381.57879712380344 L 161.84874191511838 382.3422025984385 L 162.92784084577832 383.19289560199957 L 163.93686867076468 384.1256313292355 L 164.86960439800063 385.1346591542219 L 165.72029740156168 386.2137580848818 L 166.4837028761967 387.35627511747106 L 167.1551141732965 388.55516625455806 L 167.7303918189476 389.8030399336111 L 168.20598903516523 391.0922025984386 L 168.57897360695938 392.4147061325218 L 168.84704596041493 393.76239686179616 L 169.00855334032974 395.1269658247629 Z" fill-opacity="1" stroke-opacity="1" stroke-miterlimit="10" stroke-width="6"/><text fill="rgb(255,255,255)" stroke="none" font-family="times new roman" font-size="10px" font-style="normal" font-weight="normal" text-decoration="normal" x="151.5625" y="401.5" text-anchor="middle" dominant-baseline="text-after-edge" fill-opacity="1">*1.41</text><path fill="rgb(69,90,100)" stroke="rgb(69,90,100)" paint-order="fill stroke markers" d=" M 381.8125 510.625 L 363.0625 528.125 L 381.8125 545.625 L 419.3125 545.625 L 438.0625 528.125 L 419.31250000000006 510.625 Z" fill-opacity="1" stroke-opacity="1" stroke-miterlimit="10" stroke-width="2"/><text fill="rgb(255,255,255)" stroke="none" font-family="times new roman" font-size="10px" font-style="normal" font-weight="normal" text-decoration="normal" x="400.5625" y="533.125" text-anchor="middle" dominant-baseline="text-after-edge" fill-opacity="1">NA18617-B</text><path fill="rgb(176,190,197)" stroke="none" paint-order="stroke fill markers" d=" M 363.0625 291.5 L 363.0625 501.5 L 438.0625 501.5 L 438.0625 291.50000000000006 Z" fill-opacity="0.8"/><text fill="rgb(0,0,0)" stroke="none" font-family="times new roman" font-size="10px" font-style="normal" font-weight="normal" text-decoration="normal" x="368.0625" y="306.5" text-anchor="start" dominant-baseline="text-after-edge" fill-opacity="0.8">42126390G&gt;A </text><text fill="rgb(0,0,0)" stroke="none" font-family="times new roman" font-size="10px" font-style="normal" font-weight="normal" text-decoration="normal" x="368.0625" y="316.5" text-anchor="start" dominant-baseline="text-after-edge" fill-opacity="0.8">42127209T&gt;C </text><text fill="rgb(0,0,0)" stroke="none" font-family="times new roman" font-size="10px" font-style="normal" font-weight="normal" text-decoration="normal" x="368.0625" y="326.5" text-anchor="start" dominant-baseline="text-after-edge" fill-opacity="0.8">42128694T&gt;C </text><text fill="rgb(0,0,0)" stroke="none" font-family="times new roman" font-size="10px" font-style="normal" font-weight="normal" text-decoration="normal" x="368.0625" y="336.5" text-anchor="start" dominant-baseline="text-after-edge" fill-opacity="0.8">42129754G&gt;A </text><text fill="rgb(0,0,0)" stroke="none" font-family="times new roman" font-size="10px" font-style="normal" font-weight="normal" text-decoration="normal" x="368.0625" y="346.5" text-anchor="start" dominant-baseline="text-after-edge" fill-opacity="0.8">42131791C&gt;T </text><text fill="rgb(0,0,0)" stroke="none" font-family="times new roman" font-size="10px" font-style="normal" font-weight="normal" text-decoration="normal" x="368.0625" y="356.5" text-anchor="start" dominant-baseline="text-after-edge" fill-opacity="0.8">42132217G&gt;A </text><path fill="rgb(176,190,197)" stroke="none" paint-order="stroke fill markers" d=" M 523.9375 291.5 L 590.9375 291.5 L 590.9375 291.5 A 8 8 0 0 1 598.9375 299.5 L 598.9375 493.5 L 598.9375 493.5 A 8 8 0 0 1 590.9375 501.5 L 456.9375 501.5 L 456.9375 501.5 A 8 8 0 0 1 448.9375 493.5 L 448.9375 299.5 L 448.9375 299.5 A 8 8 0 0 1 456.9375 291.5 L 523.9375 291.5 Z" fill-opacity="0.8"/><text fill="rgb(0,0,0)" stroke="none" font-family="times new roman" font-size="10px" font-style="normal" font-weight="normal" text-decoration="normal" x="453.9375" y="306.5" text-anchor="start" dominant-baseline="text-after-edge" fill-opacity="0.8">42125572G&gt;A </text><text fill="rgb(0,0,0)" stroke="none" font-family="times new roman" font-size="10px" font-style="normal" font-weight="normal" text-decoration="normal" x="453.9375" y="316.5" text-anchor="start" dominant-baseline="text-after-edge" fill-opacity="0.8">42125924A&gt;G </text><text fill="rgb(0,0,0)" stroke="none" font-family="times new roman" font-size="10px" font-style="normal" font-weight="normal" text-decoration="normal" x="453.9375" y="326.5" text-anchor="start" dominant-baseline="text-after-edge" fill-opacity="0.8">42125980T&gt;C </text><text fill="rgb(0,0,0)" stroke="none" font-family="times new roman" font-size="10px" font-style="normal" font-weight="normal" text-decoration="normal" x="453.9375" y="336.5" text-anchor="start" dominant-baseline="text-after-edge" fill-opacity="0.8">42126069A&gt;C </text><text fill="rgb(0,0,0)" stroke="none" font-family="times new roman" font-size="10px" font-style="normal" font-weight="normal" text-decoration="normal" x="453.9375" y="346.5" text-anchor="start" dominant-baseline="text-after-edge" fill-opacity="0.8">42132027C&gt;T </text><text fill="rgb(0,0,0)" stroke="none" font-family="times new roman" font-size="10px" font-style="normal" font-weight="normal" text-decoration="normal" x="453.9375" y="356.5" text-anchor="start" dominant-baseline="text-after-edge" fill-opacity="0.8">42132844C&gt;A </text><text fill="rgb(0,0,0)" stroke="none" font-family="times new roman" font-size="10px" font-style="normal" font-weight="normal" text-decoration="normal" x="453.9375" y="366.5" text-anchor="start" dominant-baseline="text-after-edge" fill-opacity="0.8">42132851T&gt;C </text><text fill="rgb(0,0,0)" stroke="none" font-family="times new roman" font-size="10px" font-style="normal" font-weight="normal" text-decoration="normal" x="453.9375" y="376.5" text-anchor="start" dominant-baseline="text-after-edge" fill-opacity="0.8">42132969C&gt;T </text><text fill="rgb(0,0,0)" stroke="none" font-family="times new roman" font-size="10px" font-style="normal" font-weight="normal" text-decoration="normal" x="453.9375" y="386.5" text-anchor="start" dominant-baseline="text-after-edge" fill-opacity="0.8">42133212A&gt;G </text><text fill="rgb(0,0,0)" stroke="none" font-family="times new roman" font-size="10px" font-style="normal" font-weight="normal" text-decoration="normal" x="453.9375" y="396.5" text-anchor="start" dominant-baseline="text-after-edge" fill-opacity="0.8">42133314C&gt;T </text><text fill="rgb(0,0,0)" stroke="none" font-family="times new roman" font-size="10px" font-style="normal" font-weight="normal" text-decoration="normal" x="453.9375" y="406.5" text-anchor="start" dominant-baseline="text-after-edge" fill-opacity="0.8">42133400T&gt;G </text><text fill="rgb(0,0,0)" stroke="none" font-family="times new roman" font-size="10px" font-style="normal" font-weight="normal" text-decoration="normal" x="453.9375" y="416.5" text-anchor="start" dominant-baseline="text-after-edge" fill-opacity="0.8">42134096del </text><text fill="rgb(0,0,0)" stroke="none" font-family="times new roman" font-size="10px" font-style="normal" font-weight="normal" text-decoration="normal" x="453.9375" y="426.5" text-anchor="start" dominant-baseline="text-after-edge" fill-opacity="0.8">42134820T&gt;G </text><text fill="rgb(0,0,0)" stroke="none" font-family="times new roman" font-size="10px" font-style="normal" font-weight="normal" text-decoration="normal" x="453.9375" y="436.5" text-anchor="start" dominant-baseline="text-after-edge" fill-opacity="0.8">42135064_42135066dup </text><text fill="rgb(0,0,0)" stroke="none" font-family="times new roman" font-size="10px" font-style="normal" font-weight="normal" text-decoration="normal" x="453.9375" y="446.5" text-anchor="start" dominant-baseline="text-after-edge" fill-opacity="0.8">42135201T&gt;C </text><g transform="scale(0.8672445255474452,0.8672445255474452) translate(12.402682798527053,53.45397159389796)"/></g></svg>