<svg version="1.1" xmlns="http://www.w3.org/2000/svg" xmlns:xlink="http://www.w3.org/1999/xlink" width="1017" height="608"><defs/><g transform="translate(-111.62701672044591,-26.135523613963073) scale(1.1229099442651804,1.1229099442651804)"><path fill="none" stroke="rgb(55,71,79)" paint-order="fill stroke markers" d=" M 876.5877659574468 99.125 L 901.6813019975086 138.76856954228253" stroke-opacity="1" stroke-linejoin="round" stroke-miterlimit="10" stroke-width="2"/><path fill="none" stroke="rgb(120,144,156)" paint-order="fill stroke markers" d=" M 277.125 402.9337944664031 L 458.94224844042003 487.015288804463" stroke-opacity="1" stroke-linejoin="round" stroke-miterlimit="10"/><path fill="rgb(120,144,156)" stroke="none" paint-order="stroke fill markers" d=" M 451.035161344709 488.151278972044 L 460.75753669178897 487.85476993256646 L 454.68690425195894 480.25477507858903 Z" fill-opacity="1"/><path fill="none" stroke="rgb(120,144,156)" paint-order="fill stroke markers" d=" M 763.8306786703602 243.875 L 790.6329093358878 343.62350794077815" stroke-opacity="1" stroke-linejoin="round" stroke-miterlimit="10"/><path fill="rgb(120,144,156)" stroke="none" paint-order="stroke fill markers" d=" M 784.6933113787439 338.28181568948804 L 791.1518968389554 345.55499751405046 L 793.0952910224785 336.02422005114386 Z" fill-opacity="1"/><path fill="none" stroke="rgb(55,71,79)" paint-order="fill stroke markers" d=" M 537.375 243.875 L 537.375 349.75" stroke-opacity="1" stroke-linejoin="round" stroke-miterlimit="10" stroke-width="2"/><path fill="none" stroke="rgb(120,144,156)" paint-order="fill stroke markers" d=" M 348.4950231921745 380.349145666141 L 464.969392973095 481.04496781664125" stroke-opacity="1" stroke-linejoin="round" stroke-miterlimit="10"/><path fill="rgb(120,144,156)" stroke="none" paint-order="stroke fill markers" d=" M 457.0559908630797 479.9538367313879 L 466.4823684533301 482.35298356433213 L 462.74585936553524 473.3723933923653 Z" fill-opacity="1"/><path fill="none" stroke="rgb(120,144,156)" paint-order="fill stroke markers" d=" M 734.0311350820048 169.59743932329854 L 831.3252576769736 220.968736053442" stroke-opacity="1" stroke-linejoin="round" stroke-miterlimit="10"/><path fill="rgb(120,144,156)" stroke="none" paint-order="stroke fill markers" d=" M 823.3693548639616 221.687144314745 L 833.0938649179952 221.90256067670146 L 827.4314919751401 213.99370281630067 Z" fill-opacity="1"/><path fill="none" stroke="rgb(120,144,156)" paint-order="fill stroke markers" d=" M 480.6057692307692 473.25 L 482.0310502173717 479.4262176086108" stroke-opacity="1" stroke-linejoin="round" stroke-miterlimit="10"/><path fill="rgb(120,144,156)" stroke="none" paint-order="stroke fill markers" d=" M 476.28588982121846 473.87593545159643 L 482.4807692307692 481.375 L 484.76309322376164 471.9196577433172 Z" fill-opacity="1"/><path fill="none" stroke="rgb(55,71,79)" paint-order="fill stroke markers" d=" M 649.125 243.875 L 649.125 349.75" stroke-opacity="1" stroke-linejoin="round" stroke-miterlimit="10" stroke-width="2"/><path fill="none" stroke="rgb(120,144,156)" paint-order="fill stroke markers" d=" M 844.8066972036019 254.55484973178636 L 807.0900732471555 344.7250566740191" stroke-opacity="1" stroke-linejoin="round" stroke-miterlimit="10"/><path fill="rgb(120,144,156)" stroke="none" paint-order="stroke fill markers" d=" M 805.6624256898192 336.8653924030701 L 806.3183027963981 346.57015026821364 L 813.6885828245656 340.2225938638643 Z" fill-opacity="1"/><path fill="none" stroke="rgb(55,71,79)" paint-order="fill stroke markers" d=" M 846.2495942875663 176.95535810881952 L 850.6998396887672 209.59049105095897" stroke-opacity="1" stroke-linejoin="round" stroke-miterlimit="10" stroke-width="2"/><path fill="none" stroke="rgb(55,71,79)" paint-order="fill stroke markers" d=" M 948.9804930618685 103.75665801990523 L 926.8186980024914 138.76856954228253" stroke-opacity="1" stroke-linejoin="round" stroke-miterlimit="10" stroke-width="2"/><path fill="none" stroke="rgb(55,71,79)" paint-order="fill stroke markers" d=" M 678.5195069381315 103.75665801990523 L 700.6813019975086 138.76856954228253" stroke-opacity="1" stroke-linejoin="round" stroke-miterlimit="10" stroke-width="2"/><path fill="none" stroke="rgb(55,71,79)" paint-order="fill stroke markers" d=" M 750.9122340425532 99.125 L 725.8186980024914 138.76856954228253" stroke-opacity="1" stroke-linejoin="round" stroke-miterlimit="10" stroke-width="2"/><path fill="none" stroke="rgb(120,144,156)" paint-order="fill stroke markers" d=" M 530.7338870327859 385.51689371475663 L 494.5833427740024 479.5083087875939" stroke-opacity="1" stroke-linejoin="round" stroke-miterlimit="10"/><path fill="rgb(120,144,156)" stroke="none" paint-order="stroke fill markers" d=" M 492.9284492183885 471.6933342310398 L 493.86538461538464 481.375 L 501.0485559923551 474.81645222102696 Z" fill-opacity="1"/><path fill="none" stroke="rgb(120,144,156)" paint-order="fill stroke markers" d=" M 899.4241408408126 176.8580441833485 L 869.9626344067779 213.09020737551543" stroke-opacity="1" stroke-linejoin="round" stroke-miterlimit="10"/><path fill="rgb(120,144,156)" stroke="none" paint-order="stroke fill markers" d=" M 870.8145286267348 205.14748893420054 L 868.7008591591874 214.6419558166515 L 877.5646343456766 210.63621126121885 Z" fill-opacity="1"/><path fill="none" stroke="rgb(120,144,156)" paint-order="fill stroke markers" d=" M 315.5509002770083 243.875 L 331.4123607414463 347.9838586847659" stroke-opacity="1" stroke-linejoin="round" stroke-miterlimit="10"/><path fill="rgb(120,144,156)" stroke="none" paint-order="stroke fill markers" d=" M 326.1028535339547 342.01547253660203 L 331.7135938398418 349.96104320332535 L 334.70360618968823 340.7051085585817 Z" fill-opacity="1"/><path fill="none" stroke="rgb(120,144,156)" paint-order="fill stroke markers" d=" M 202.125 243.875 L 202.125 261.25" stroke-opacity="1" stroke-linejoin="round" stroke-miterlimit="10"/><path fill="rgb(120,144,156)" stroke="none" paint-order="stroke fill markers" d=" M 197.775 254.55 L 202.125 263.25 L 206.475 254.55 Z" fill-opacity="1"/><path fill="none" stroke="rgb(120,144,156)" paint-order="fill stroke markers" d=" M 634.7537022548445 379.89971249087665 L 509.18799246508064 481.6862347453965" stroke-opacity="1" stroke-linejoin="round" stroke-miterlimit="10"/><path fill="rgb(120,144,156)" stroke="none" paint-order="stroke fill markers" d=" M 511.6534760087146 474.0879526437587 L 507.63433865479357 482.9456631227886 L 517.1319894503702 480.8463467185075 Z" fill-opacity="1"/><path fill="none" stroke="rgb(120,144,156)" paint-order="fill stroke markers" d=" M 775.6137667352928 377.4218814926477 L 515.3071087993724 487.7692690959182" stroke-opacity="1" stroke-linejoin="round" stroke-miterlimit="10"/><path fill="rgb(120,144,156)" stroke="none" paint-order="stroke fill markers" d=" M 519.7779631985435 481.149302257526 L 513.4657272449292 488.54985475486694 L 523.1735108149705 489.1593120193538 Z" fill-opacity="1"/><path fill="none" stroke="rgb(120,144,156)" paint-order="fill stroke markers" d=" M 418.22056786703604 243.875 L 345.94733902418113 351.2438708323893" stroke-opacity="1" stroke-linejoin="round" stroke-miterlimit="10"/><path fill="rgb(120,144,156)" stroke="none" paint-order="stroke fill markers" d=" M 346.0800468087132 343.25670057979517 L 344.8305254608464 352.90300538532694 L 353.29728211399186 348.11483958030135 Z" fill-opacity="1"/><path fill="rgb(69,90,100)" stroke="rgb(76,175,80)" paint-order="fill stroke markers" d=" M 554.875 368.25 L 554.8210533403297 369.6230341752373 L 554.6595459604149 370.98760313820407 L 554.3914736069594 372.33529386747836 L 554.0184890351652 373.6577974015616 L 553.5428918189475 374.94696006638907 L 552.9676141732964 376.19483374544205 L 552.2962028761966 377.3937248825291 L 551.5327974015615 378.5362419151183 L 550.6821043980005 379.61534084577823 L 549.7493686707646 380.62436867076457 L 548.7403408457782 381.55710439800055 L 547.6612419151182 382.4077974015616 L 546.5187248825291 383.1712028761966 L 545.3198337454421 383.84261417329645 L 544.0719600663891 384.4178918189475 L 542.7827974015615 384.8934890351652 L 541.4602938674783 385.2664736069593 L 540.112603138204 385.5345459604149 L 538.7480341752373 385.69605334032974 L 537.375 385.75 L 536.0019658247627 385.69605334032974 L 534.637396861796 385.5345459604149 L 533.2897061325217 385.2664736069593 L 531.9672025984385 384.8934890351652 L 530.6780399336109 384.4178918189475 L 529.4301662545579 383.84261417329645 L 528.2312751174709 383.1712028761966 L 527.0887580848818 382.4077974015616 L 526.0096591542218 381.55710439800055 L 525.0006313292354 380.62436867076457 L 524.0678956019995 379.61534084577823 L 523.2172025984385 378.5362419151183 L 522.4537971238034 377.3937248825291 L 521.7823858267036 376.19483374544205 L 521.2071081810525 374.94696006638907 L 520.7315109648348 373.6577974015616 L 520.3585263930406 372.33529386747836 L 520.0904540395851 370.98760313820407 L 519.9289466596703 369.6230341752373 L 519.875 368.25 L 519.9289466596703 366.8769658247627 L 520.0904540395851 365.51239686179593 L 520.3585263930406 364.16470613252164 L 520.7315109648348 362.8422025984384 L 521.2071081810525 361.55303993361093 L 521.7823858267036 360.30516625455795 L 522.4537971238034 359.1062751174709 L 523.2172025984385 357.9637580848817 L 524.0678956019995 356.88465915422177 L 525.0006313292354 355.87563132923543 L 526.0096591542218 354.94289560199945 L 527.0887580848818 354.0922025984384 L 528.2312751174709 353.3287971238034 L 529.4301662545579 352.65738582670355 L 530.678039933611 352.0821081810525 L 531.9672025984385 351.6065109648348 L 533.2897061325217 351.2335263930407 L 534.637396861796 350.9654540395851 L 536.0019658247628 350.80394665967026 L 537.3750000000001 350.75 L 538.7480341752373 350.80394665967026 L 540.1126031382041 350.9654540395851 L 541.4602938674784 351.2335263930407 L 542.7827974015617 351.60651096483485 L 544.0719600663891 352.0821081810525 L 545.3198337454421 352.6573858267036 L 546.5187248825292 353.32879712380344 L 547.6612419151184 354.0922025984385 L 548.7403408457783 354.94289560199957 L 549.7493686707646 355.8756313292355 L 550.6821043980007 356.8846591542219 L 551.5327974015617 357.9637580848818 L 552.2962028761967 359.10627511747106 L 552.9676141732965 360.30516625455806 L 553.5428918189476 361.5530399336111 L 554.0184890351652 362.8422025984386 L 554.3914736069594 364.1647061325218 L 554.6595459604149 365.51239686179616 L 554.8210533403297 366.8769658247629 Z" fill-opacity="1" stroke-opacity="1" stroke-miterlimit="10" stroke-width="2"/><text fill="rgb(255,255,255)" stroke="none" font-family="times new roman" font-size="10px" font-style="normal" font-weight="normal" text-decoration="normal" x="537.375" y="373.25" text-anchor="middle" dominant-baseline="text-after-edge" fill-opacity="1">*1.24</text><path fill="rgb(69,90,100)" stroke="rgb(76,175,80)" paint-order="fill stroke markers" d=" M 601.625 222.875 L 601.625 242.875 L 696.625 242.875 L 696.625 222.875 Z" fill-opacity="1" stroke-opacity="1" stroke-miterlimit="10" stroke-width="2"/><text fill="rgb(255,255,255)" stroke="none" font-family="times new roman" font-size="10px" font-style="normal" font-weight="normal" text-decoration="normal" x="649.125" y="237.875" text-anchor="middle" dominant-baseline="text-after-edge" fill-opacity="1">42127407T&gt;G</text><path fill="rgb(69,90,100)" stroke="rgb(76,175,80)" paint-order="fill stroke markers" d=" M 378.125 222.875 L 378.125 242.875 L 473.125 242.875 L 473.125 222.875 Z" fill-opacity="1" stroke-opacity="1" stroke-miterlimit="10" stroke-width="2"/><text fill="rgb(255,255,255)" stroke="none" font-family="times new roman" font-size="10px" font-style="normal" font-weight="normal" text-decoration="normal" x="425.625" y="237.875" text-anchor="middle" dominant-baseline="text-after-edge" fill-opacity="1">42130482C&gt;A</text><path fill="rgb(69,90,100)" stroke="rgb(69,90,100)" paint-order="fill stroke markers" d=" M 468 482.375 L 449.25 499.875 L 468 517.375 L 505.5 517.375 L 524.25 499.875 L 505.50000000000006 482.375 Z" fill-opacity="1" stroke-opacity="1" stroke-miterlimit="10" stroke-width="2"/><text fill="rgb(255,255,255)" stroke="none" font-family="times new roman" font-size="10px" font-style="normal" font-weight="normal" text-decoration="normal" x="486.75" y="504.875" text-anchor="middle" dominant-baseline="text-after-edge" fill-opacity="1">NA18484-all</text><path fill="rgb(69,90,100)" stroke="rgb(76,175,80)" paint-order="fill stroke markers" d=" M 686.125 88.125 L 686.0710533403297 89.49803417523728 L 685.9095459604149 90.86260313820404 L 685.6414736069594 92.21029386747834 L 685.2684890351652 93.53279740156158 L 684.7928918189475 94.82196006638907 L 684.2176141732964 96.06983374544207 L 683.5462028761966 97.2687248825291 L 682.7827974015615 98.41124191511828 L 681.9321043980005 99.4903408457782 L 680.9993686707646 100.49936867076458 L 679.9903408457782 101.43210439800055 L 678.9112419151182 102.28279740156158 L 677.7687248825291 103.04620287619662 L 676.5698337454421 103.71761417329644 L 675.3219600663891 104.29289181894751 L 674.0327974015615 104.76848903516519 L 672.7102938674783 105.14147360695934 L 671.362603138204 105.4095459604149 L 669.9980341752373 105.57105334032974 L 668.625 105.625 L 667.2519658247627 105.57105334032974 L 665.887396861796 105.4095459604149 L 664.5397061325217 105.14147360695934 L 663.2172025984385 104.76848903516519 L 661.9280399336109 104.29289181894751 L 660.6801662545579 103.71761417329644 L 659.4812751174709 103.04620287619662 L 658.3387580848818 102.28279740156158 L 657.2596591542218 101.43210439800055 L 656.2506313292354 100.49936867076458 L 655.3178956019995 99.49034084577822 L 654.4672025984385 98.41124191511828 L 653.7037971238034 97.26872488252911 L 653.0323858267036 96.06983374544207 L 652.4571081810525 94.82196006638907 L 651.9815109648348 93.53279740156158 L 651.6085263930406 92.21029386747834 L 651.3404540395851 90.86260313820404 L 651.1789466596703 89.4980341752373 L 651.125 88.125 L 651.1789466596703 86.75196582476272 L 651.3404540395851 85.38739686179596 L 651.6085263930406 84.03970613252166 L 651.9815109648348 82.71720259843842 L 652.4571081810525 81.42803993361093 L 653.0323858267036 80.18016625455793 L 653.7037971238034 78.9812751174709 L 654.4672025984385 77.83875808488172 L 655.3178956019995 76.7596591542218 L 656.2506313292354 75.75063132923542 L 657.2596591542218 74.81789560199947 L 658.3387580848818 73.96720259843842 L 659.4812751174709 73.20379712380338 L 660.6801662545579 72.53238582670356 L 661.928039933611 71.95710818105248 L 663.2172025984385 71.4815109648348 L 664.5397061325217 71.10852639304065 L 665.887396861796 70.84045403958508 L 667.2519658247628 70.67894665967026 L 668.6250000000001 70.625 L 669.9980341752373 70.67894665967026 L 671.3626031382041 70.8404540395851 L 672.7102938674784 71.10852639304068 L 674.0327974015617 71.48151096483484 L 675.3219600663891 71.95710818105252 L 676.5698337454421 72.5323858267036 L 677.7687248825292 73.20379712380344 L 678.9112419151184 73.96720259843849 L 679.9903408457783 74.81789560199954 L 680.9993686707646 75.75063132923552 L 681.9321043980007 76.7596591542219 L 682.7827974015617 77.83875808488185 L 683.5462028761967 78.98127511747103 L 684.2176141732965 80.18016625455807 L 684.7928918189476 81.42803993361109 L 685.2684890351652 82.71720259843859 L 685.6414736069594 84.03970613252184 L 685.9095459604149 85.38739686179616 L 686.0710533403297 86.75196582476292 Z" fill-opacity="1" stroke-opacity="1" stroke-miterlimit="10" stroke-width="2"/><text fill="rgb(255,255,255)" stroke="none" font-family="times new roman" font-size="10px" font-style="normal" font-weight="normal" text-decoration="normal" x="668.625" y="93.125" text-anchor="middle" dominant-baseline="text-after-edge" fill-opacity="1">*34.1</text><path fill="rgb(69,90,100)" stroke="rgb(76,175,80)" paint-order="fill stroke markers" d=" M 861.25 158.625 L 861.1960533403297 159.99803417523728 L 861.0345459604149 161.36260313820404 L 860.7664736069594 162.71029386747836 L 860.3934890351652 164.03279740156157 L 859.9178918189475 165.32196006638907 L 859.3426141732964 166.56983374544205 L 858.6712028761966 167.7687248825291 L 857.9077974015615 168.91124191511827 L 857.0571043980005 169.9903408457782 L 856.1243686707646 170.99936867076457 L 855.1153408457782 171.93210439800055 L 854.0362419151182 172.7827974015616 L 852.8937248825291 173.54620287619662 L 851.6948337454421 174.21761417329643 L 850.4469600663891 174.7928918189475 L 849.1577974015615 175.26848903516517 L 847.8352938674783 175.64147360695935 L 846.487603138204 175.9095459604149 L 845.1230341752373 176.07105334032974 L 843.75 176.125 L 842.3769658247627 176.07105334032974 L 841.012396861796 175.9095459604149 L 839.6647061325217 175.64147360695935 L 838.3422025984385 175.2684890351652 L 837.0530399336109 174.7928918189475 L 835.8051662545579 174.21761417329643 L 834.6062751174709 173.54620287619662 L 833.4637580848818 172.7827974015616 L 832.3846591542218 171.93210439800055 L 831.3756313292354 170.99936867076457 L 830.4428956019995 169.9903408457782 L 829.5922025984385 168.9112419151183 L 828.8287971238034 167.7687248825291 L 828.1573858267036 166.56983374544208 L 827.5821081810525 165.32196006638907 L 827.1065109648348 164.0327974015616 L 826.7335263930406 162.71029386747836 L 826.4654540395851 161.36260313820404 L 826.3039466596703 159.99803417523728 L 826.25 158.625 L 826.3039466596703 157.25196582476272 L 826.4654540395851 155.88739686179596 L 826.7335263930406 154.53970613252164 L 827.1065109648348 153.21720259843843 L 827.5821081810525 151.92803993361093 L 828.1573858267036 150.68016625455795 L 828.8287971238034 149.4812751174709 L 829.5922025984385 148.33875808488173 L 830.4428956019995 147.2596591542218 L 831.3756313292354 146.25063132923543 L 832.3846591542218 145.31789560199945 L 833.4637580848818 144.46720259843843 L 834.6062751174709 143.70379712380338 L 835.8051662545579 143.03238582670355 L 837.053039933611 142.4571081810525 L 838.3422025984385 141.9815109648348 L 839.6647061325217 141.60852639304065 L 841.012396861796 141.3404540395851 L 842.3769658247628 141.17894665967026 L 843.7500000000001 141.125 L 845.1230341752373 141.17894665967026 L 846.4876031382041 141.3404540395851 L 847.8352938674784 141.60852639304068 L 849.1577974015617 141.98151096483485 L 850.4469600663891 142.45710818105252 L 851.6948337454421 143.0323858267036 L 852.8937248825292 143.70379712380344 L 854.0362419151184 144.4672025984385 L 855.1153408457783 145.31789560199954 L 856.1243686707646 146.25063132923552 L 857.0571043980007 147.2596591542219 L 857.9077974015617 148.33875808488185 L 858.6712028761967 149.48127511747103 L 859.3426141732965 150.6801662545581 L 859.9178918189476 151.9280399336111 L 860.3934890351652 153.2172025984386 L 860.7664736069594 154.53970613252184 L 861.0345459604149 155.88739686179616 L 861.1960533403297 157.25196582476292 Z" fill-opacity="1" stroke-opacity="1" stroke-miterlimit="10" stroke-width="2"/><text fill="rgb(255,255,255)" stroke="none" font-family="times new roman" font-size="10px" font-style="normal" font-weight="normal" text-decoration="normal" x="843.75" y="163.625" text-anchor="middle" dominant-baseline="text-after-edge" fill-opacity="1">*2.4</text><path fill="rgb(69,90,100)" stroke="rgb(76,175,80)" paint-order="fill stroke markers" d=" M 735.75 158.625 L 735.6806400089954 160.3903296538765 L 735.4729876633907 162.14477546340518 L 735.1283232089477 163.87752068675786 L 734.6487716166409 165.57788237343632 L 734.037289481504 167.23537722821453 L 733.2976467942383 168.83978624413982 L 732.4344036979671 170.38121770610886 L 731.4528823734363 171.85016817658064 L 730.3591342260007 173.23758108742913 L 729.1599025766973 174.5349025766973 L 727.8625810874291 175.7341342260007 L 726.4751681765806 176.82788237343632 L 725.0062177061088 177.80940369796707 L 723.4647862441398 178.6726467942383 L 721.8603772282145 179.41228948150396 L 720.2028823734363 180.02377161664094 L 718.5025206867579 180.50332320894773 L 716.7697754634052 180.8479876633906 L 715.0153296538765 181.05564000899537 L 713.25 181.125 L 711.4846703461235 181.05564000899537 L 709.7302245365948 180.8479876633906 L 707.9974793132421 180.50332320894773 L 706.2971176265637 180.02377161664094 L 704.6396227717855 179.41228948150396 L 703.0352137558602 178.6726467942383 L 701.4937822938912 177.80940369796707 L 700.0248318234194 176.82788237343632 L 698.6374189125709 175.7341342260007 L 697.3400974233027 174.53490257669733 L 696.1408657739993 173.23758108742913 L 695.0471176265637 171.85016817658064 L 694.0655963020329 170.38121770610886 L 693.2023532057617 168.83978624413982 L 692.462710518496 167.23537722821453 L 691.8512283833591 165.57788237343632 L 691.3716767910523 163.87752068675786 L 691.0270123366095 162.1447754634052 L 690.8193599910046 160.3903296538765 L 690.75 158.625 L 690.8193599910046 156.8596703461235 L 691.0270123366093 155.10522453659482 L 691.3716767910523 153.37247931324214 L 691.8512283833591 151.67211762656368 L 692.462710518496 150.01462277178547 L 693.2023532057617 148.4102137558602 L 694.0655963020329 146.86878229389114 L 695.0471176265637 145.39983182341936 L 696.1408657739993 144.01241891257087 L 697.3400974233027 142.7150974233027 L 698.6374189125709 141.5158657739993 L 700.0248318234194 140.42211762656368 L 701.4937822938912 139.44059630203293 L 703.0352137558602 138.5773532057617 L 704.6396227717855 137.83771051849604 L 706.2971176265637 137.22622838335903 L 707.9974793132421 136.74667679105227 L 709.7302245365948 136.4020123366094 L 711.4846703461236 136.1943599910046 L 713.2500000000001 136.125 L 715.0153296538766 136.19435999100463 L 716.7697754634053 136.4020123366094 L 718.502520686758 136.7466767910523 L 720.2028823734364 137.22622838335909 L 721.8603772282146 137.8377105184961 L 723.4647862441399 138.5773532057618 L 725.0062177061089 139.440596302033 L 726.4751681765807 140.42211762656376 L 727.8625810874292 141.51586577399942 L 729.1599025766974 142.7150974233028 L 730.3591342260008 144.012418912571 L 731.4528823734364 145.3998318234195 L 732.4344036979671 146.86878229389131 L 733.2976467942384 148.41021375586038 L 734.037289481504 150.0146227717857 L 734.648771616641 151.6721176265639 L 735.1283232089478 153.37247931324237 L 735.4729876633907 155.10522453659505 L 735.6806400089954 156.85967034612375 Z" fill-opacity="1" stroke-opacity="1" stroke-miterlimit="10" stroke-width="2"/><text fill="rgb(255,255,255)" stroke="none" font-family="times new roman" font-size="15px" font-style="normal" font-weight="normal" text-decoration="normal" x="713.25" y="166.125" text-anchor="middle" dominant-baseline="text-after-edge" fill-opacity="1">*34</text><path fill="rgb(69,90,100)" stroke="rgb(76,175,80)" paint-order="fill stroke markers" d=" M 876.375 232.875 L 876.3056400089954 234.6403296538765 L 876.0979876633907 236.39477546340518 L 875.7533232089477 238.12752068675786 L 875.2737716166409 239.82788237343632 L 874.662289481504 241.48537722821453 L 873.9226467942383 243.08978624413982 L 873.0594036979671 244.63121770610886 L 872.0778823734363 246.10016817658064 L 870.9841342260007 247.48758108742913 L 869.7849025766973 248.7849025766973 L 868.4875810874291 249.9841342260007 L 867.1001681765806 251.07788237343632 L 865.6312177061088 252.05940369796707 L 864.0897862441398 252.9226467942383 L 862.4853772282145 253.66228948150396 L 860.8278823734363 254.27377161664094 L 859.1275206867579 254.75332320894773 L 857.3947754634052 255.0979876633906 L 855.6403296538765 255.30564000899537 L 853.875 255.375 L 852.1096703461235 255.30564000899537 L 850.3552245365948 255.0979876633906 L 848.6224793132421 254.75332320894773 L 846.9221176265637 254.27377161664094 L 845.2646227717855 253.66228948150396 L 843.6602137558602 252.9226467942383 L 842.1187822938912 252.05940369796707 L 840.6498318234194 251.07788237343632 L 839.2624189125709 249.9841342260007 L 837.9650974233027 248.78490257669733 L 836.7658657739993 247.48758108742913 L 835.6721176265637 246.10016817658064 L 834.6905963020329 244.63121770610886 L 833.8273532057617 243.08978624413982 L 833.087710518496 241.48537722821453 L 832.4762283833591 239.82788237343632 L 831.9966767910523 238.12752068675786 L 831.6520123366095 236.3947754634052 L 831.4443599910046 234.6403296538765 L 831.375 232.875 L 831.4443599910046 231.1096703461235 L 831.6520123366093 229.35522453659482 L 831.9966767910523 227.62247931324214 L 832.4762283833591 225.92211762656368 L 833.087710518496 224.26462277178547 L 833.8273532057617 222.6602137558602 L 834.6905963020329 221.11878229389114 L 835.6721176265637 219.64983182341936 L 836.7658657739993 218.26241891257087 L 837.9650974233027 216.9650974233027 L 839.2624189125709 215.7658657739993 L 840.6498318234194 214.67211762656368 L 842.1187822938912 213.69059630203293 L 843.6602137558602 212.8273532057617 L 845.2646227717855 212.08771051849604 L 846.9221176265637 211.47622838335903 L 848.6224793132421 210.99667679105227 L 850.3552245365948 210.6520123366094 L 852.1096703461236 210.4443599910046 L 853.8750000000001 210.375 L 855.6403296538766 210.44435999100463 L 857.3947754634053 210.6520123366094 L 859.127520686758 210.9966767910523 L 860.8278823734364 211.47622838335909 L 862.4853772282146 212.0877105184961 L 864.0897862441399 212.8273532057618 L 865.6312177061089 213.690596302033 L 867.1001681765807 214.67211762656376 L 868.4875810874292 215.76586577399942 L 869.7849025766974 216.9650974233028 L 870.9841342260008 218.262418912571 L 872.0778823734364 219.6498318234195 L 873.0594036979671 221.11878229389131 L 873.9226467942384 222.66021375586038 L 874.662289481504 224.2646227717857 L 875.273771616641 225.9221176265639 L 875.7533232089478 227.62247931324237 L 876.0979876633907 229.35522453659505 L 876.3056400089954 231.10967034612375 Z" fill-opacity="1" stroke-opacity="1" stroke-miterlimit="10" stroke-width="2"/><text fill="rgb(255,255,255)" stroke="none" font-family="times new roman" font-size="15px" font-style="normal" font-weight="normal" text-decoration="normal" x="853.875" y="240.375" text-anchor="middle" dominant-baseline="text-after-edge" fill-opacity="1">*2</text><path fill="rgb(69,90,100)" stroke="rgb(158,158,158)" paint-order="fill stroke markers" d=" M 710.375 78.125 L 710.375 98.125 L 805.375 98.125 L 805.375 78.125 Z" fill-opacity="1" stroke-opacity="1" stroke-miterlimit="10" stroke-width="2"/><text fill="rgb(255,255,255)" stroke="none" font-family="times new roman" font-size="10px" font-style="normal" font-weight="normal" text-decoration="normal" x="757.875" y="93.125" text-anchor="middle" dominant-baseline="text-after-edge" fill-opacity="1">42127941G&gt;A</text><path fill="rgb(69,90,100)" stroke="rgb(76,175,80)" paint-order="fill stroke markers" d=" M 489.875 222.875 L 489.875 242.875 L 584.875 242.875 L 584.875 222.875 Z" fill-opacity="1" stroke-opacity="1" stroke-miterlimit="10" stroke-width="2"/><text fill="rgb(255,255,255)" stroke="none" font-family="times new roman" font-size="10px" font-style="normal" font-weight="normal" text-decoration="normal" x="537.375" y="237.875" text-anchor="middle" dominant-baseline="text-after-edge" fill-opacity="1">42130839dup</text><path fill="rgb(69,90,100)" stroke="rgb(76,175,80)" paint-order="fill stroke markers" d=" M 976.375 88.125 L 976.3210533403297 89.49803417523728 L 976.1595459604149 90.86260313820404 L 975.8914736069594 92.21029386747834 L 975.5184890351652 93.53279740156158 L 975.0428918189475 94.82196006638907 L 974.4676141732964 96.06983374544207 L 973.7962028761966 97.2687248825291 L 973.0327974015615 98.41124191511828 L 972.1821043980005 99.4903408457782 L 971.2493686707646 100.49936867076458 L 970.2403408457782 101.43210439800055 L 969.1612419151182 102.28279740156158 L 968.0187248825291 103.04620287619662 L 966.8198337454421 103.71761417329644 L 965.5719600663891 104.29289181894751 L 964.2827974015615 104.76848903516519 L 962.9602938674783 105.14147360695934 L 961.612603138204 105.4095459604149 L 960.2480341752373 105.57105334032974 L 958.875 105.625 L 957.5019658247627 105.57105334032974 L 956.137396861796 105.4095459604149 L 954.7897061325217 105.14147360695934 L 953.4672025984385 104.76848903516519 L 952.1780399336109 104.29289181894751 L 950.9301662545579 103.71761417329644 L 949.7312751174709 103.04620287619662 L 948.5887580848818 102.28279740156158 L 947.5096591542218 101.43210439800055 L 946.5006313292354 100.49936867076458 L 945.5678956019995 99.49034084577822 L 944.7172025984385 98.41124191511828 L 943.9537971238034 97.26872488252911 L 943.2823858267036 96.06983374544207 L 942.7071081810525 94.82196006638907 L 942.2315109648348 93.53279740156158 L 941.8585263930406 92.21029386747834 L 941.5904540395851 90.86260313820404 L 941.4289466596703 89.4980341752373 L 941.375 88.125 L 941.4289466596703 86.75196582476272 L 941.5904540395851 85.38739686179596 L 941.8585263930406 84.03970613252166 L 942.2315109648348 82.71720259843842 L 942.7071081810525 81.42803993361093 L 943.2823858267036 80.18016625455793 L 943.9537971238034 78.9812751174709 L 944.7172025984385 77.83875808488172 L 945.5678956019995 76.7596591542218 L 946.5006313292354 75.75063132923542 L 947.5096591542218 74.81789560199947 L 948.5887580848818 73.96720259843842 L 949.7312751174709 73.20379712380338 L 950.9301662545579 72.53238582670356 L 952.178039933611 71.95710818105248 L 953.4672025984385 71.4815109648348 L 954.7897061325217 71.10852639304065 L 956.137396861796 70.84045403958508 L 957.5019658247628 70.67894665967026 L 958.8750000000001 70.625 L 960.2480341752373 70.67894665967026 L 961.6126031382041 70.8404540395851 L 962.9602938674784 71.10852639304068 L 964.2827974015617 71.48151096483484 L 965.5719600663891 71.95710818105252 L 966.8198337454421 72.5323858267036 L 968.0187248825292 73.20379712380344 L 969.1612419151184 73.96720259843849 L 970.2403408457783 74.81789560199954 L 971.2493686707646 75.75063132923552 L 972.1821043980007 76.7596591542219 L 973.0327974015617 77.83875808488185 L 973.7962028761967 78.98127511747103 L 974.4676141732965 80.18016625455807 L 975.0428918189476 81.42803993361109 L 975.5184890351652 82.71720259843859 L 975.8914736069594 84.03970613252184 L 976.1595459604149 85.38739686179616 L 976.3210533403297 86.75196582476292 Z" fill-opacity="1" stroke-opacity="1" stroke-miterlimit="10" stroke-width="2"/><text fill="rgb(255,255,255)" stroke="none" font-family="times new roman" font-size="10px" font-style="normal" font-weight="normal" text-decoration="normal" x="958.875" y="93.125" text-anchor="middle" dominant-baseline="text-after-edge" fill-opacity="1">*39.2</text><path fill="rgb(69,90,100)" stroke="rgb(76,175,80)" paint-order="fill stroke markers" d=" M 266.375 222.875 L 266.375 242.875 L 361.375 242.875 L 361.375 222.875 Z" fill-opacity="1" stroke-opacity="1" stroke-miterlimit="10" stroke-width="2"/><text fill="rgb(255,255,255)" stroke="none" font-family="times new roman" font-size="10px" font-style="normal" font-weight="normal" text-decoration="normal" x="313.875" y="237.875" text-anchor="middle" dominant-baseline="text-after-edge" fill-opacity="1">42129950A&gt;C</text><path fill="rgb(69,90,100)" stroke="rgb(158,158,158)" paint-order="fill stroke markers" d=" M 713.375 222.875 L 713.375 242.875 L 808.375 242.875 L 808.375 222.875 Z" fill-opacity="1" stroke-opacity="1" stroke-miterlimit="10" stroke-width="2"/><text fill="rgb(255,255,255)" stroke="none" font-family="times new roman" font-size="10px" font-style="normal" font-weight="normal" text-decoration="normal" x="760.875" y="237.875" text-anchor="middle" dominant-baseline="text-after-edge" fill-opacity="1">42129770G&gt;A</text><path fill="rgb(69,90,100)" stroke="rgb(76,175,80)" paint-order="fill stroke markers" d=" M 666.625 368.25 L 666.5710533403297 369.6230341752373 L 666.4095459604149 370.98760313820407 L 666.1414736069594 372.33529386747836 L 665.7684890351652 373.6577974015616 L 665.2928918189475 374.94696006638907 L 664.7176141732964 376.19483374544205 L 664.0462028761966 377.3937248825291 L 663.2827974015615 378.5362419151183 L 662.4321043980005 379.61534084577823 L 661.4993686707646 380.62436867076457 L 660.4903408457782 381.55710439800055 L 659.4112419151182 382.4077974015616 L 658.2687248825291 383.1712028761966 L 657.0698337454421 383.84261417329645 L 655.8219600663891 384.4178918189475 L 654.5327974015615 384.8934890351652 L 653.2102938674783 385.2664736069593 L 651.862603138204 385.5345459604149 L 650.4980341752373 385.69605334032974 L 649.125 385.75 L 647.7519658247627 385.69605334032974 L 646.387396861796 385.5345459604149 L 645.0397061325217 385.2664736069593 L 643.7172025984385 384.8934890351652 L 642.4280399336109 384.4178918189475 L 641.1801662545579 383.84261417329645 L 639.9812751174709 383.1712028761966 L 638.8387580848818 382.4077974015616 L 637.7596591542218 381.55710439800055 L 636.7506313292354 380.62436867076457 L 635.8178956019995 379.61534084577823 L 634.9672025984385 378.5362419151183 L 634.2037971238034 377.3937248825291 L 633.5323858267036 376.19483374544205 L 632.9571081810525 374.94696006638907 L 632.4815109648348 373.6577974015616 L 632.1085263930406 372.33529386747836 L 631.8404540395851 370.98760313820407 L 631.6789466596703 369.6230341752373 L 631.625 368.25 L 631.6789466596703 366.8769658247627 L 631.8404540395851 365.51239686179593 L 632.1085263930406 364.16470613252164 L 632.4815109648348 362.8422025984384 L 632.9571081810525 361.55303993361093 L 633.5323858267036 360.30516625455795 L 634.2037971238034 359.1062751174709 L 634.9672025984385 357.9637580848817 L 635.8178956019995 356.88465915422177 L 636.7506313292354 355.87563132923543 L 637.7596591542218 354.94289560199945 L 638.8387580848818 354.0922025984384 L 639.9812751174709 353.3287971238034 L 641.1801662545579 352.65738582670355 L 642.428039933611 352.0821081810525 L 643.7172025984385 351.6065109648348 L 645.0397061325217 351.2335263930407 L 646.387396861796 350.9654540395851 L 647.7519658247628 350.80394665967026 L 649.1250000000001 350.75 L 650.4980341752373 350.80394665967026 L 651.8626031382041 350.9654540395851 L 653.2102938674784 351.2335263930407 L 654.5327974015617 351.60651096483485 L 655.8219600663891 352.0821081810525 L 657.0698337454421 352.6573858267036 L 658.2687248825292 353.32879712380344 L 659.4112419151184 354.0922025984385 L 660.4903408457783 354.94289560199957 L 661.4993686707646 355.8756313292355 L 662.4321043980007 356.8846591542219 L 663.2827974015617 357.9637580848818 L 664.0462028761967 359.10627511747106 L 664.7176141732965 360.30516625455806 L 665.2928918189476 361.5530399336111 L 665.7684890351652 362.8422025984386 L 666.1414736069594 364.1647061325218 L 666.4095459604149 365.51239686179616 L 666.5710533403297 366.8769658247629 Z" fill-opacity="1" stroke-opacity="1" stroke-miterlimit="10" stroke-width="2"/><text fill="rgb(255,255,255)" stroke="none" font-family="times new roman" font-size="10px" font-style="normal" font-weight="normal" text-decoration="normal" x="649.125" y="373.25" text-anchor="middle" dominant-baseline="text-after-edge" fill-opacity="1">*1.41</text><path fill="rgb(69,90,100)" stroke="rgb(158,158,158)" paint-order="fill stroke markers" d=" M 822.125 78.125 L 822.125 98.125 L 917.125 98.125 L 917.125 78.125 Z" fill-opacity="1" stroke-opacity="1" stroke-miterlimit="10" stroke-width="2"/><text fill="rgb(255,255,255)" stroke="none" font-family="times new roman" font-size="10px" font-style="normal" font-weight="normal" text-decoration="normal" x="869.625" y="93.125" text-anchor="middle" dominant-baseline="text-after-edge" fill-opacity="1">42126611C&gt;G</text><path fill="rgb(69,90,100)" stroke="rgb(76,175,80)" paint-order="fill stroke markers" d=" M 936.75 158.625 L 936.6806400089954 160.3903296538765 L 936.4729876633907 162.14477546340518 L 936.1283232089477 163.87752068675786 L 935.6487716166409 165.57788237343632 L 935.037289481504 167.23537722821453 L 934.2976467942383 168.83978624413982 L 933.4344036979671 170.38121770610886 L 932.4528823734363 171.85016817658064 L 931.3591342260007 173.23758108742913 L 930.1599025766973 174.5349025766973 L 928.8625810874291 175.7341342260007 L 927.4751681765806 176.82788237343632 L 926.0062177061088 177.80940369796707 L 924.4647862441398 178.6726467942383 L 922.8603772282145 179.41228948150396 L 921.2028823734363 180.02377161664094 L 919.5025206867579 180.50332320894773 L 917.7697754634052 180.8479876633906 L 916.0153296538765 181.05564000899537 L 914.25 181.125 L 912.4846703461235 181.05564000899537 L 910.7302245365948 180.8479876633906 L 908.9974793132421 180.50332320894773 L 907.2971176265637 180.02377161664094 L 905.6396227717855 179.41228948150396 L 904.0352137558602 178.6726467942383 L 902.4937822938912 177.80940369796707 L 901.0248318234194 176.82788237343632 L 899.6374189125709 175.7341342260007 L 898.3400974233027 174.53490257669733 L 897.1408657739993 173.23758108742913 L 896.0471176265637 171.85016817658064 L 895.0655963020329 170.38121770610886 L 894.2023532057617 168.83978624413982 L 893.462710518496 167.23537722821453 L 892.8512283833591 165.57788237343632 L 892.3716767910523 163.87752068675786 L 892.0270123366095 162.1447754634052 L 891.8193599910046 160.3903296538765 L 891.75 158.625 L 891.8193599910046 156.8596703461235 L 892.0270123366093 155.10522453659482 L 892.3716767910523 153.37247931324214 L 892.8512283833591 151.67211762656368 L 893.462710518496 150.01462277178547 L 894.2023532057617 148.4102137558602 L 895.0655963020329 146.86878229389114 L 896.0471176265637 145.39983182341936 L 897.1408657739993 144.01241891257087 L 898.3400974233027 142.7150974233027 L 899.6374189125709 141.5158657739993 L 901.0248318234194 140.42211762656368 L 902.4937822938912 139.44059630203293 L 904.0352137558602 138.5773532057617 L 905.6396227717855 137.83771051849604 L 907.2971176265637 137.22622838335903 L 908.9974793132421 136.74667679105227 L 910.7302245365948 136.4020123366094 L 912.4846703461236 136.1943599910046 L 914.2500000000001 136.125 L 916.0153296538766 136.19435999100463 L 917.7697754634053 136.4020123366094 L 919.502520686758 136.7466767910523 L 921.2028823734364 137.22622838335909 L 922.8603772282146 137.8377105184961 L 924.4647862441399 138.5773532057618 L 926.0062177061089 139.440596302033 L 927.4751681765807 140.42211762656376 L 928.8625810874292 141.51586577399942 L 930.1599025766974 142.7150974233028 L 931.3591342260008 144.012418912571 L 932.4528823734364 145.3998318234195 L 933.4344036979671 146.86878229389131 L 934.2976467942384 148.41021375586038 L 935.037289481504 150.0146227717857 L 935.648771616641 151.6721176265639 L 936.1283232089478 153.37247931324237 L 936.4729876633907 155.10522453659505 L 936.6806400089954 156.85967034612375 Z" fill-opacity="1" stroke-opacity="1" stroke-miterlimit="10" stroke-width="2"/><text fill="rgb(255,255,255)" stroke="none" font-family="times new roman" font-size="15px" font-style="normal" font-weight="normal" text-decoration="normal" x="914.25" y="166.125" text-anchor="middle" dominant-baseline="text-after-edge" fill-opacity="1">*39</text><path fill="rgb(69,90,100)" stroke="rgb(255,193,7)" paint-order="fill stroke markers" d=" M 819.75 368.25 L 819.6806400089954 370.0153296538765 L 819.4729876633907 371.7697754634052 L 819.1283232089477 373.50252068675786 L 818.6487716166409 375.2028823734363 L 818.037289481504 376.86037722821453 L 817.2976467942383 378.4647862441398 L 816.4344036979671 380.0062177061088 L 815.4528823734363 381.47516817658067 L 814.3591342260007 382.86258108742913 L 813.1599025766973 384.15990257669733 L 811.8625810874291 385.3591342260007 L 810.4751681765806 386.4528823734363 L 809.0062177061088 387.43440369796707 L 807.4647862441398 388.2976467942383 L 805.8603772282145 389.03728948150393 L 804.2028823734363 389.64877161664094 L 802.5025206867579 390.12832320894773 L 800.7697754634052 390.4729876633906 L 799.0153296538765 390.6806400089954 L 797.25 390.75 L 795.4846703461235 390.6806400089954 L 793.7302245365948 390.4729876633906 L 791.9974793132421 390.12832320894773 L 790.2971176265637 389.64877161664094 L 788.6396227717855 389.03728948150393 L 787.0352137558602 388.2976467942383 L 785.4937822938912 387.43440369796707 L 784.0248318234194 386.4528823734363 L 782.6374189125709 385.3591342260007 L 781.3400974233027 384.15990257669733 L 780.1408657739993 382.86258108742913 L 779.0471176265637 381.47516817658067 L 778.0655963020329 380.0062177061088 L 777.2023532057617 378.4647862441398 L 776.462710518496 376.86037722821453 L 775.8512283833591 375.2028823734363 L 775.3716767910523 373.50252068675786 L 775.0270123366095 371.7697754634052 L 774.8193599910046 370.0153296538765 L 774.75 368.25 L 774.8193599910046 366.4846703461235 L 775.0270123366093 364.7302245365948 L 775.3716767910523 362.99747931324214 L 775.8512283833591 361.2971176265637 L 776.462710518496 359.63962277178547 L 777.2023532057617 358.0352137558602 L 778.0655963020329 356.4937822938912 L 779.0471176265637 355.02483182341933 L 780.1408657739993 353.63741891257087 L 781.3400974233027 352.34009742330267 L 782.6374189125709 351.14086577399934 L 784.0248318234194 350.0471176265637 L 785.4937822938912 349.06559630203293 L 787.0352137558602 348.2023532057617 L 788.6396227717855 347.462710518496 L 790.2971176265637 346.85122838335906 L 791.9974793132421 346.37167679105227 L 793.7302245365948 346.0270123366094 L 795.4846703461236 345.8193599910046 L 797.2500000000001 345.75 L 799.0153296538766 345.8193599910046 L 800.7697754634053 346.0270123366094 L 802.502520686758 346.3716767910523 L 804.2028823734364 346.85122838335906 L 805.8603772282146 347.4627105184961 L 807.4647862441399 348.20235320576177 L 809.0062177061089 349.065596302033 L 810.4751681765807 350.04711762656376 L 811.8625810874292 351.1408657739994 L 813.1599025766974 352.3400974233028 L 814.3591342260008 353.637418912571 L 815.4528823734364 355.0248318234195 L 816.4344036979671 356.49378229389134 L 817.2976467942384 358.0352137558604 L 818.037289481504 359.6396227717857 L 818.648771616641 361.29711762656393 L 819.1283232089478 362.99747931324237 L 819.4729876633907 364.7302245365951 L 819.6806400089954 366.4846703461238 Z" fill-opacity="1" stroke-opacity="1" stroke-miterlimit="10" stroke-width="2"/><text fill="rgb(255,255,255)" stroke="none" font-family="times new roman" font-size="15px" font-style="normal" font-weight="normal" text-decoration="normal" x="797.25" y="375.75" text-anchor="middle" dominant-baseline="text-after-edge" fill-opacity="1">*17</text><path fill="rgb(3,169,244)" stroke="none" paint-order="stroke fill markers" d=" M 797.25 335.75 L 821.75 335.75 L 821.75 335.75 A 8 8 0 0 1 829.75 343.75 L 829.75 392.75 L 829.75 392.75 A 8 8 0 0 1 821.75 400.75 L 772.75 400.75 L 772.75 400.75 A 8 8 0 0 1 764.75 392.75 L 764.75 343.75 L 764.75 343.75 A 8 8 0 0 1 772.75 335.75 L 797.25 335.75 Z" fill-opacity="0.15"/><path fill="rgb(69,90,100)" stroke="rgb(76,175,80)" paint-order="fill stroke markers" d=" M 202.125 222.875 L 244.625 222.875 L 244.625 222.875 A 5 5 0 0 1 249.625 227.875 L 249.625 237.875 L 249.625 237.875 A 5 5 0 0 1 244.625 242.875 L 159.625 242.875 L 159.625 242.875 A 5 5 0 0 1 154.625 237.875 L 154.625 227.875 L 154.625 227.875 A 5 5 0 0 1 159.625 222.875 L 202.125 222.875 Z" fill-opacity="1" stroke-opacity="1" stroke-miterlimit="10" stroke-width="2"/><text fill="rgb(255,255,255)" stroke="none" font-family="times new roman" font-size="10px" font-style="normal" font-weight="normal" text-decoration="normal" x="202.125" y="237.875" text-anchor="middle" dominant-baseline="text-after-edge" fill-opacity="1">42132049dup</text><path fill="rgb(69,90,100)" stroke="rgb(76,175,80)" paint-order="fill stroke markers" d=" M 352 368.25 L 351.94605334032974 369.6230341752373 L 351.7845459604149 370.98760313820407 L 351.5164736069593 372.33529386747836 L 351.1434890351652 373.6577974015616 L 350.6678918189475 374.94696006638907 L 350.09261417329645 376.19483374544205 L 349.4212028761966 377.3937248825291 L 348.6577974015616 378.5362419151183 L 347.80710439800055 379.61534084577823 L 346.87436867076457 380.62436867076457 L 345.86534084577823 381.55710439800055 L 344.7862419151183 382.4077974015616 L 343.6437248825291 383.1712028761966 L 342.44483374544205 383.84261417329645 L 341.19696006638907 384.4178918189475 L 339.9077974015616 384.8934890351652 L 338.58529386747836 385.2664736069593 L 337.23760313820407 385.5345459604149 L 335.8730341752373 385.69605334032974 L 334.5 385.75 L 333.1269658247627 385.69605334032974 L 331.76239686179593 385.5345459604149 L 330.41470613252164 385.2664736069593 L 329.0922025984384 384.8934890351652 L 327.80303993361093 384.4178918189475 L 326.55516625455795 383.84261417329645 L 325.3562751174709 383.1712028761966 L 324.2137580848817 382.4077974015616 L 323.13465915422177 381.55710439800055 L 322.12563132923543 380.62436867076457 L 321.19289560199945 379.61534084577823 L 320.3422025984384 378.5362419151183 L 319.5787971238034 377.3937248825291 L 318.90738582670355 376.19483374544205 L 318.3321081810525 374.94696006638907 L 317.8565109648348 373.6577974015616 L 317.4835263930407 372.33529386747836 L 317.2154540395851 370.98760313820407 L 317.05394665967026 369.6230341752373 L 317 368.25 L 317.05394665967026 366.8769658247627 L 317.2154540395851 365.51239686179593 L 317.4835263930407 364.16470613252164 L 317.8565109648348 362.8422025984384 L 318.3321081810525 361.55303993361093 L 318.90738582670355 360.30516625455795 L 319.5787971238034 359.1062751174709 L 320.3422025984384 357.9637580848817 L 321.19289560199945 356.88465915422177 L 322.12563132923543 355.87563132923543 L 323.13465915422177 354.94289560199945 L 324.2137580848817 354.0922025984384 L 325.3562751174709 353.3287971238034 L 326.55516625455795 352.65738582670355 L 327.80303993361093 352.0821081810525 L 329.09220259843846 351.6065109648348 L 330.4147061325217 351.2335263930407 L 331.762396861796 350.9654540395851 L 333.12696582476275 350.80394665967026 L 334.50000000000006 350.75 L 335.87303417523736 350.80394665967026 L 337.2376031382041 350.9654540395851 L 338.5852938674784 351.2335263930407 L 339.90779740156165 351.60651096483485 L 341.1969600663892 352.0821081810525 L 342.44483374544217 352.6573858267036 L 343.6437248825292 353.32879712380344 L 344.78624191511835 354.0922025984385 L 345.8653408457783 354.94289560199957 L 346.8743686707647 355.8756313292355 L 347.80710439800066 356.8846591542219 L 348.65779740156165 357.9637580848818 L 349.4212028761967 359.10627511747106 L 350.0926141732965 360.30516625455806 L 350.66789181894757 361.5530399336111 L 351.14348903516526 362.8422025984386 L 351.5164736069594 364.1647061325218 L 351.78454596041496 365.51239686179616 L 351.94605334032974 366.8769658247629 Z" fill-opacity="1" stroke-opacity="1" stroke-miterlimit="10" stroke-width="2"/><text fill="rgb(255,255,255)" stroke="none" font-family="times new roman" font-size="10px" font-style="normal" font-weight="normal" text-decoration="normal" x="334.5" y="373.25" text-anchor="middle" dominant-baseline="text-after-edge" fill-opacity="1">*1.58</text><path fill="rgb(176,190,197)" stroke="none" paint-order="stroke fill markers" d=" M 418.875 263.25 L 418.875 473.25 L 493.875 473.25 L 493.875 263.25000000000006 Z" fill-opacity="0.8"/><text fill="rgb(0,0,0)" stroke="none" font-family="times new roman" font-size="10px" font-style="normal" font-weight="normal" text-decoration="normal" x="423.875" y="278.25" text-anchor="start" dominant-baseline="text-after-edge" fill-opacity="0.8">42127001G&gt;A </text><text fill="rgb(0,0,0)" stroke="none" font-family="times new roman" font-size="10px" font-style="normal" font-weight="normal" text-decoration="normal" x="423.875" y="288.25" text-anchor="start" dominant-baseline="text-after-edge" fill-opacity="0.8">42127207C&gt;T </text><text fill="rgb(0,0,0)" stroke="none" font-family="times new roman" font-size="10px" font-style="normal" font-weight="normal" text-decoration="normal" x="423.875" y="298.25" text-anchor="start" dominant-baseline="text-after-edge" fill-opacity="0.8">42127239G&gt;A </text><text fill="rgb(0,0,0)" stroke="none" font-family="times new roman" font-size="10px" font-style="normal" font-weight="normal" text-decoration="normal" x="423.875" y="308.25" text-anchor="start" dominant-baseline="text-after-edge" fill-opacity="0.8">42127412G&gt;A </text><text fill="rgb(0,0,0)" stroke="none" font-family="times new roman" font-size="10px" font-style="normal" font-weight="normal" text-decoration="normal" x="423.875" y="318.25" text-anchor="start" dominant-baseline="text-after-edge" fill-opacity="0.8">42129130C&gt;G </text><text fill="rgb(0,0,0)" stroke="none" font-family="times new roman" font-size="10px" font-style="normal" font-weight="normal" text-decoration="normal" x="423.875" y="328.25" text-anchor="start" dominant-baseline="text-after-edge" fill-opacity="0.8">42130139G&gt;A </text><text fill="rgb(0,0,0)" stroke="none" font-family="times new roman" font-size="10px" font-style="normal" font-weight="normal" text-decoration="normal" x="423.875" y="338.25" text-anchor="start" dominant-baseline="text-after-edge" fill-opacity="0.8">42131531G&gt;A </text><path fill="rgb(176,190,197)" stroke="none" paint-order="stroke fill markers" d=" M 202.125 263.25 L 269.125 263.25 L 269.125 263.25 A 8 8 0 0 1 277.125 271.25 L 277.125 465.25 L 277.125 465.25 A 8 8 0 0 1 269.125 473.25 L 135.125 473.25 L 135.125 473.25 A 8 8 0 0 1 127.125 465.25 L 127.125 271.25 L 127.125 271.25 A 8 8 0 0 1 135.125 263.25 L 202.125 263.25 Z" fill-opacity="0.8"/><text fill="rgb(0,0,0)" stroke="none" font-family="times new roman" font-size="10px" font-style="normal" font-weight="normal" text-decoration="normal" x="132.125" y="278.25" text-anchor="start" dominant-baseline="text-after-edge" fill-opacity="0.8">42125860C&gt;T </text><text fill="rgb(0,0,0)" stroke="none" font-family="times new roman" font-size="10px" font-style="normal" font-weight="normal" text-decoration="normal" x="132.125" y="288.25" text-anchor="start" dominant-baseline="text-after-edge" fill-opacity="0.8">42125924A&gt;G </text><text fill="rgb(0,0,0)" stroke="none" font-family="times new roman" font-size="10px" font-style="normal" font-weight="normal" text-decoration="normal" x="132.125" y="298.25" text-anchor="start" dominant-baseline="text-after-edge" fill-opacity="0.8">42126022C&gt;T </text><text fill="rgb(0,0,0)" stroke="none" font-family="times new roman" font-size="10px" font-style="normal" font-weight="normal" text-decoration="normal" x="132.125" y="308.25" text-anchor="start" dominant-baseline="text-after-edge" fill-opacity="0.8">42126069A&gt;C </text><text fill="rgb(0,0,0)" stroke="none" font-family="times new roman" font-size="10px" font-style="normal" font-weight="normal" text-decoration="normal" x="132.125" y="318.25" text-anchor="start" dominant-baseline="text-after-edge" fill-opacity="0.8">42126079C&gt;T </text><text fill="rgb(0,0,0)" stroke="none" font-family="times new roman" font-size="10px" font-style="normal" font-weight="normal" text-decoration="normal" x="132.125" y="328.25" text-anchor="start" dominant-baseline="text-after-edge" fill-opacity="0.8">42127399T&gt;C </text><text fill="rgb(0,0,0)" stroke="none" font-family="times new roman" font-size="10px" font-style="normal" font-weight="normal" text-decoration="normal" x="132.125" y="338.25" text-anchor="start" dominant-baseline="text-after-edge" fill-opacity="0.8">42127404del </text><text fill="rgb(0,0,0)" stroke="none" font-family="times new roman" font-size="10px" font-style="normal" font-weight="normal" text-decoration="normal" x="132.125" y="348.25" text-anchor="start" dominant-baseline="text-after-edge" fill-opacity="0.8">42132027C&gt;T </text><text fill="rgb(0,0,0)" stroke="none" font-family="times new roman" font-size="10px" font-style="normal" font-weight="normal" text-decoration="normal" x="132.125" y="358.25" text-anchor="start" dominant-baseline="text-after-edge" fill-opacity="0.8">42132844C&gt;A </text><text fill="rgb(0,0,0)" stroke="none" font-family="times new roman" font-size="10px" font-style="normal" font-weight="normal" text-decoration="normal" x="132.125" y="368.25" text-anchor="start" dominant-baseline="text-after-edge" fill-opacity="0.8">42132851T&gt;C </text><text fill="rgb(0,0,0)" stroke="none" font-family="times new roman" font-size="10px" font-style="normal" font-weight="normal" text-decoration="normal" x="132.125" y="378.25" text-anchor="start" dominant-baseline="text-after-edge" fill-opacity="0.8">42133212A&gt;G </text><text fill="rgb(0,0,0)" stroke="none" font-family="times new roman" font-size="10px" font-style="normal" font-weight="normal" text-decoration="normal" x="132.125" y="388.25" text-anchor="start" dominant-baseline="text-after-edge" fill-opacity="0.8">42133400T&gt;G </text><text fill="rgb(0,0,0)" stroke="none" font-family="times new roman" font-size="10px" font-style="normal" font-weight="normal" text-decoration="normal" x="132.125" y="398.25" text-anchor="start" dominant-baseline="text-after-edge" fill-opacity="0.8">42134096del </text><text fill="rgb(0,0,0)" stroke="none" font-family="times new roman" font-size="10px" font-style="normal" font-weight="normal" text-decoration="normal" x="132.125" y="408.25" text-anchor="start" dominant-baseline="text-after-edge" fill-opacity="0.8">42134820T&gt;G </text><text fill="rgb(0,0,0)" stroke="none" font-family="times new roman" font-size="10px" font-style="normal" font-weight="normal" text-decoration="normal" x="132.125" y="418.25" text-anchor="start" dominant-baseline="text-after-edge" fill-opacity="0.8">42135064_42135066dup </text><text fill="rgb(0,0,0)" stroke="none" font-family="times new roman" font-size="10px" font-style="normal" font-weight="normal" text-decoration="normal" x="132.125" y="428.25" text-anchor="start" dominant-baseline="text-after-edge" fill-opacity="0.8">42135201T&gt;C </text><g transform="scale(0.8905433646812957,0.8905433646812957) translate(111.62701672044591,26.135523613963073)"/></g></svg>