<svg version="1.1" xmlns="http://www.w3.org/2000/svg" xmlns:xlink="http://www.w3.org/1999/xlink" width="1017" height="608"><defs/><g transform="translate(26.933033350979372,-53.40391741662256) scale(1.1604023292747485,1.1604023292747485)"><path fill="none" stroke="rgb(120,144,156)" paint-order="fill stroke markers" d=" M 367.0252253175275 272.25724886748515 L 403.23331408471006 373.6931446049598" stroke-opacity="1" stroke-linejoin="round" stroke-miterlimit="10"/><path fill="rgb(120,144,156)" stroke="none" paint-order="stroke fill markers" d=" M 396.88408888466773 368.8454813164106 L 403.90567368620174 375.5767402532564 L 405.07772995475796 365.9207170499217 Z" fill-opacity="1"/><path fill="none" stroke="rgb(120,144,156)" paint-order="fill stroke markers" d=" M 318.1182432432432 177.875 L 346.53805925381124 227.948009161477" stroke-opacity="1" stroke-linejoin="round" stroke-miterlimit="10"/><path fill="rgb(120,144,156)" stroke="none" paint-order="stroke fill markers" d=" M 339.44776854216263 224.26829753903843 L 347.525270292728 229.68738099194937 L 347.0140360047175 219.9739295197505 Z" fill-opacity="1"/><path fill="none" stroke="rgb(120,144,156)" paint-order="fill stroke markers" d=" M 217.12874218845002 403.87333067405694 L 385.11078402125906 508.9743942806808" stroke-opacity="1" stroke-linejoin="round" stroke-miterlimit="10"/><path fill="rgb(120,144,156)" stroke="none" paint-order="stroke fill markers" d=" M 377.1236346995633 509.10835589061134 L 386.80627106403466 510.0352070293693 L 381.7381701563582 501.7329872545374 Z" fill-opacity="1"/><path fill="none" stroke="rgb(120,144,156)" paint-order="fill stroke markers" d=" M 147.5954724409449 263.125 L 191.36537187538764 372.12063192498493" stroke-opacity="1" stroke-linejoin="round" stroke-miterlimit="10"/><path fill="rgb(120,144,156)" stroke="none" paint-order="stroke fill markers" d=" M 184.83193811711126 367.5242482022944 L 192.11067215313096 373.9765757538752 L 192.90529377278378 364.282191994111 Z" fill-opacity="1"/><path fill="none" stroke="rgb(120,144,156)" paint-order="fill stroke markers" d=" M 574.375 261.125 L 574.375 286" stroke-opacity="1" stroke-linejoin="round" stroke-miterlimit="10"/><path fill="rgb(120,144,156)" stroke="none" paint-order="stroke fill markers" d=" M 570.025 279.3 L 574.375 288 L 578.725 279.3 Z" fill-opacity="1"/><path fill="none" stroke="rgb(120,144,156)" paint-order="fill stroke markers" d=" M 346.375 441.75 L 394.67480924753136 504.5397520217908" stroke-opacity="1" stroke-linejoin="round" stroke-miterlimit="10"/><path fill="rgb(120,144,156)" stroke="none" paint-order="stroke fill markers" d=" M 387.14183279723346 501.8814131044861 L 395.8942307692308 506.125 L 394.0376615024435 496.57692948509384 Z" fill-opacity="1"/><path fill="none" stroke="rgb(120,144,156)" paint-order="fill stroke markers" d=" M 456.48458005249347 263.125 L 417.01668591528994 373.6931446049598" stroke-opacity="1" stroke-linejoin="round" stroke-miterlimit="10"/><path fill="rgb(120,144,156)" stroke="none" paint-order="stroke fill markers" d=" M 415.17227004524204 365.9207170499217 L 416.34432631379826 375.5767402532564 L 423.36591111533227 368.8454813164106 Z" fill-opacity="1"/><path fill="none" stroke="rgb(120,144,156)" paint-order="fill stroke markers" d=" M 251.9045275590551 263.125 L 208.13462812461236 372.12063192498493" stroke-opacity="1" stroke-linejoin="round" stroke-miterlimit="10"/><path fill="rgb(120,144,156)" stroke="none" paint-order="stroke fill markers" d=" M 206.59470622721622 364.282191994111 L 207.38932784686904 373.9765757538752 L 214.66806188288874 367.5242482022944 Z" fill-opacity="1"/><path fill="none" stroke="rgb(55,71,79)" paint-order="fill stroke markers" d=" M 368.40816326530614 106.375 L 392.8204273259076 145.27584354372266" stroke-opacity="1" stroke-linejoin="round" stroke-miterlimit="10" stroke-width="2"/><path fill="none" stroke="rgb(120,144,156)" paint-order="fill stroke markers" d=" M 393.78805925381124 189.051990838523 L 371.71194074618876 227.948009161477" stroke-opacity="1" stroke-linejoin="round" stroke-miterlimit="10"/><path fill="rgb(120,144,156)" stroke="none" paint-order="stroke fill markers" d=" M 371.2359639952825 219.9739295197505 L 370.724729707272 229.68738099194937 L 378.80223145783737 224.26829753903843 Z" fill-opacity="1"/><path fill="none" stroke="rgb(120,144,156)" paint-order="fill stroke markers" d=" M 410.125 411.5 L 410.125 504.125" stroke-opacity="1" stroke-linejoin="round" stroke-miterlimit="10"/><path fill="rgb(120,144,156)" stroke="none" paint-order="stroke fill markers" d=" M 405.775 497.425 L 410.125 506.125 L 414.475 497.425 Z" fill-opacity="1"/><path fill="none" stroke="rgb(55,71,79)" paint-order="fill stroke markers" d=" M 687.625 263.125 L 687.625 372.5" stroke-opacity="1" stroke-linejoin="round" stroke-miterlimit="10" stroke-width="2"/><path fill="none" stroke="rgb(55,71,79)" paint-order="fill stroke markers" d=" M 441.60318667376885 110.73902773936021 L 419.9295726740924 145.27584354372266" stroke-opacity="1" stroke-linejoin="round" stroke-miterlimit="10" stroke-width="2"/><path fill="none" stroke="rgb(120,144,156)" paint-order="fill stroke markers" d=" M 499.375 453.1027397260274 L 432.6796880210207 506.55035275027797" stroke-opacity="1" stroke-linejoin="round" stroke-miterlimit="10"/><path fill="rgb(120,144,156)" stroke="none" paint-order="stroke fill markers" d=" M 435.1877556350797 498.96602042348024 L 431.1189938424267 507.8010460303841 L 440.6282714035416 505.7550401003643 Z" fill-opacity="1"/><path fill="none" stroke="rgb(120,144,156)" paint-order="fill stroke markers" d=" M 669.1029637385041 401.7854523348447 L 437.7094742213716 511.5410129031062" stroke-opacity="1" stroke-linejoin="round" stroke-miterlimit="10"/><path fill="rgb(120,144,156)" stroke="none" paint-order="stroke fill markers" d=" M 441.8987876504179 504.7393842015956 L 435.9024462934208 512.3981302040667 L 445.6272479095959 512.5999556881817 Z" fill-opacity="1"/><path fill="rgb(69,90,100)" stroke="rgb(76,175,80)" paint-order="fill stroke markers" d=" M 209.625 240.125 L 209.625 260.125 L 304.625 260.125 L 304.625 240.125 Z" fill-opacity="1" stroke-opacity="1" stroke-miterlimit="10" stroke-width="6"/><text fill="rgb(255,255,255)" stroke="none" font-family="times new roman" font-size="10px" font-style="normal" font-weight="normal" text-decoration="normal" x="257.125" y="255.125" text-anchor="middle" dominant-baseline="text-after-edge" fill-opacity="1">42130482C&gt;A</text><path fill="rgb(69,90,100)" stroke="rgb(255,193,7)" paint-order="fill stroke markers" d=" M 264.375 156.875 L 264.375 176.875 L 359.375 176.875 L 359.375 156.875 Z" fill-opacity="1" stroke-opacity="1" stroke-miterlimit="10" stroke-width="2"/><text fill="rgb(255,255,255)" stroke="none" font-family="times new roman" font-size="10px" font-style="normal" font-weight="normal" text-decoration="normal" x="311.875" y="171.875" text-anchor="middle" dominant-baseline="text-after-edge" fill-opacity="1">42130692G&gt;A</text><path fill="rgb(69,90,100)" stroke="rgb(255,193,7)" paint-order="fill stroke markers" d=" M 427.625 393 L 427.57105334032974 394.3730341752373 L 427.4095459604149 395.73760313820407 L 427.1414736069593 397.08529386747836 L 426.7684890351652 398.4077974015616 L 426.2928918189475 399.69696006638907 L 425.71761417329645 400.94483374544205 L 425.0462028761966 402.1437248825291 L 424.2827974015616 403.2862419151183 L 423.43210439800055 404.36534084577823 L 422.49936867076457 405.37436867076457 L 421.49034084577823 406.30710439800055 L 420.4112419151183 407.1577974015616 L 419.2687248825291 407.9212028761966 L 418.06983374544205 408.59261417329645 L 416.82196006638907 409.1678918189475 L 415.5327974015616 409.6434890351652 L 414.21029386747836 410.0164736069593 L 412.86260313820407 410.2845459604149 L 411.4980341752373 410.44605334032974 L 410.125 410.5 L 408.7519658247627 410.44605334032974 L 407.38739686179593 410.2845459604149 L 406.03970613252164 410.0164736069593 L 404.7172025984384 409.6434890351652 L 403.42803993361093 409.1678918189475 L 402.18016625455795 408.59261417329645 L 400.9812751174709 407.9212028761966 L 399.8387580848817 407.1577974015616 L 398.75965915422177 406.30710439800055 L 397.75063132923543 405.37436867076457 L 396.81789560199945 404.36534084577823 L 395.9672025984384 403.2862419151183 L 395.2037971238034 402.1437248825291 L 394.53238582670355 400.94483374544205 L 393.9571081810525 399.69696006638907 L 393.4815109648348 398.4077974015616 L 393.1085263930407 397.08529386747836 L 392.8404540395851 395.73760313820407 L 392.67894665967026 394.3730341752373 L 392.625 393 L 392.67894665967026 391.6269658247627 L 392.8404540395851 390.26239686179593 L 393.1085263930407 388.91470613252164 L 393.4815109648348 387.5922025984384 L 393.9571081810525 386.30303993361093 L 394.53238582670355 385.05516625455795 L 395.2037971238034 383.8562751174709 L 395.9672025984384 382.7137580848817 L 396.81789560199945 381.63465915422177 L 397.75063132923543 380.62563132923543 L 398.75965915422177 379.69289560199945 L 399.8387580848817 378.8422025984384 L 400.9812751174709 378.0787971238034 L 402.18016625455795 377.40738582670355 L 403.42803993361093 376.8321081810525 L 404.71720259843846 376.3565109648348 L 406.0397061325217 375.9835263930407 L 407.387396861796 375.7154540395851 L 408.75196582476275 375.55394665967026 L 410.12500000000006 375.5 L 411.49803417523736 375.55394665967026 L 412.8626031382041 375.7154540395851 L 414.2102938674784 375.9835263930407 L 415.53279740156165 376.35651096483485 L 416.8219600663892 376.8321081810525 L 418.06983374544217 377.4073858267036 L 419.2687248825292 378.07879712380344 L 420.41124191511835 378.8422025984385 L 421.4903408457783 379.69289560199957 L 422.4993686707647 380.6256313292355 L 423.43210439800066 381.6346591542219 L 424.28279740156165 382.7137580848818 L 425.0462028761967 383.85627511747106 L 425.7176141732965 385.05516625455806 L 426.29289181894757 386.3030399336111 L 426.76848903516526 387.5922025984386 L 427.1414736069594 388.9147061325218 L 427.40954596041496 390.26239686179616 L 427.57105334032974 391.6269658247629 Z" fill-opacity="1" stroke-opacity="1" stroke-miterlimit="10" stroke-width="2"/><text fill="rgb(255,255,255)" stroke="none" font-family="times new roman" font-size="10px" font-style="normal" font-weight="normal" text-decoration="normal" x="410.125" y="398" text-anchor="middle" dominant-baseline="text-after-edge" fill-opacity="1">*10.1</text><path fill="rgb(69,90,100)" stroke="rgb(76,175,80)" paint-order="fill stroke markers" d=" M 705.125 393 L 705.0710533403297 394.3730341752373 L 704.9095459604149 395.73760313820407 L 704.6414736069594 397.08529386747836 L 704.2684890351652 398.4077974015616 L 703.7928918189475 399.69696006638907 L 703.2176141732964 400.94483374544205 L 702.5462028761966 402.1437248825291 L 701.7827974015615 403.2862419151183 L 700.9321043980005 404.36534084577823 L 699.9993686707646 405.37436867076457 L 698.9903408457782 406.30710439800055 L 697.9112419151182 407.1577974015616 L 696.7687248825291 407.9212028761966 L 695.5698337454421 408.59261417329645 L 694.3219600663891 409.1678918189475 L 693.0327974015615 409.6434890351652 L 691.7102938674783 410.0164736069593 L 690.362603138204 410.2845459604149 L 688.9980341752373 410.44605334032974 L 687.625 410.5 L 686.2519658247627 410.44605334032974 L 684.887396861796 410.2845459604149 L 683.5397061325217 410.0164736069593 L 682.2172025984385 409.6434890351652 L 680.9280399336109 409.1678918189475 L 679.6801662545579 408.59261417329645 L 678.4812751174709 407.9212028761966 L 677.3387580848818 407.1577974015616 L 676.2596591542218 406.30710439800055 L 675.2506313292354 405.37436867076457 L 674.3178956019995 404.36534084577823 L 673.4672025984385 403.2862419151183 L 672.7037971238034 402.1437248825291 L 672.0323858267036 400.94483374544205 L 671.4571081810525 399.69696006638907 L 670.9815109648348 398.4077974015616 L 670.6085263930406 397.08529386747836 L 670.3404540395851 395.73760313820407 L 670.1789466596703 394.3730341752373 L 670.125 393 L 670.1789466596703 391.6269658247627 L 670.3404540395851 390.26239686179593 L 670.6085263930406 388.91470613252164 L 670.9815109648348 387.5922025984384 L 671.4571081810525 386.30303993361093 L 672.0323858267036 385.05516625455795 L 672.7037971238034 383.8562751174709 L 673.4672025984385 382.7137580848817 L 674.3178956019995 381.63465915422177 L 675.2506313292354 380.62563132923543 L 676.2596591542218 379.69289560199945 L 677.3387580848818 378.8422025984384 L 678.4812751174709 378.0787971238034 L 679.6801662545579 377.40738582670355 L 680.928039933611 376.8321081810525 L 682.2172025984385 376.3565109648348 L 683.5397061325217 375.9835263930407 L 684.887396861796 375.7154540395851 L 686.2519658247628 375.55394665967026 L 687.6250000000001 375.5 L 688.9980341752373 375.55394665967026 L 690.3626031382041 375.7154540395851 L 691.7102938674784 375.9835263930407 L 693.0327974015617 376.35651096483485 L 694.3219600663891 376.8321081810525 L 695.5698337454421 377.4073858267036 L 696.7687248825292 378.07879712380344 L 697.9112419151184 378.8422025984385 L 698.9903408457783 379.69289560199957 L 699.9993686707646 380.6256313292355 L 700.9321043980007 381.6346591542219 L 701.7827974015617 382.7137580848818 L 702.5462028761967 383.85627511747106 L 703.2176141732965 385.05516625455806 L 703.7928918189476 386.3030399336111 L 704.2684890351652 387.5922025984386 L 704.6414736069594 388.9147061325218 L 704.9095459604149 390.26239686179616 L 705.0710533403297 391.6269658247629 Z" fill-opacity="1" stroke-opacity="1" stroke-miterlimit="10" stroke-width="6"/><text fill="rgb(255,255,255)" stroke="none" font-family="times new roman" font-size="10px" font-style="normal" font-weight="normal" text-decoration="normal" x="687.625" y="398" text-anchor="middle" dominant-baseline="text-after-edge" fill-opacity="1">*1.41</text><path fill="rgb(69,90,100)" stroke="rgb(76,175,80)" paint-order="fill stroke markers" d=" M 574.375 240.125 L 616.875 240.125 L 616.875 240.125 A 5 5 0 0 1 621.875 245.125 L 621.875 255.125 L 621.875 255.125 A 5 5 0 0 1 616.875 260.125 L 531.875 260.125 L 531.875 260.125 A 5 5 0 0 1 526.875 255.125 L 526.875 245.125 L 526.875 245.125 A 5 5 0 0 1 531.875 240.125 L 574.375 240.125 Z" fill-opacity="1" stroke-opacity="1" stroke-miterlimit="10" stroke-width="2"/><text fill="rgb(255,255,255)" stroke="none" font-family="times new roman" font-size="10px" font-style="normal" font-weight="normal" text-decoration="normal" x="574.375" y="255.125" text-anchor="middle" dominant-baseline="text-after-edge" fill-opacity="1">42132049dup</text><path fill="rgb(69,90,100)" stroke="rgb(69,90,100)" paint-order="fill stroke markers" d=" M 391.375 507.125 L 372.625 524.625 L 391.375 542.125 L 428.875 542.125 L 447.625 524.625 L 428.87500000000006 507.125 Z" fill-opacity="1" stroke-opacity="1" stroke-miterlimit="10" stroke-width="2"/><text fill="rgb(255,255,255)" stroke="none" font-family="times new roman" font-size="10px" font-style="normal" font-weight="normal" text-decoration="normal" x="410.125" y="529.625" text-anchor="middle" dominant-baseline="text-after-edge" fill-opacity="1">NA18544-A</text><path fill="rgb(69,90,100)" stroke="rgb(76,175,80)" paint-order="fill stroke markers" d=" M 428.875 166.875 L 428.8056400089954 168.6403296538765 L 428.5979876633906 170.39477546340518 L 428.25332320894773 172.12752068675786 L 427.77377161664094 173.82788237343632 L 427.16228948150393 175.48537722821453 L 426.4226467942383 177.08978624413982 L 425.55940369796707 178.63121770610886 L 424.5778823734363 180.10016817658064 L 423.4841342260007 181.48758108742913 L 422.28490257669733 182.7849025766973 L 420.98758108742913 183.9841342260007 L 419.60016817658067 185.07788237343632 L 418.1312177061088 186.05940369796707 L 416.5897862441398 186.9226467942383 L 414.98537722821453 187.66228948150396 L 413.3278823734363 188.27377161664094 L 411.62752068675786 188.75332320894773 L 409.8947754634052 189.0979876633906 L 408.1403296538765 189.30564000899537 L 406.375 189.375 L 404.6096703461235 189.30564000899537 L 402.8552245365948 189.0979876633906 L 401.12247931324214 188.75332320894773 L 399.4221176265637 188.27377161664094 L 397.76462277178547 187.66228948150396 L 396.1602137558602 186.9226467942383 L 394.6187822938912 186.05940369796707 L 393.14983182341933 185.07788237343632 L 391.76241891257087 183.9841342260007 L 390.46509742330267 182.78490257669733 L 389.2658657739993 181.48758108742913 L 388.1721176265637 180.10016817658064 L 387.19059630203293 178.63121770610886 L 386.3273532057617 177.08978624413982 L 385.58771051849607 175.48537722821453 L 384.97622838335906 173.82788237343632 L 384.49667679105227 172.12752068675786 L 384.1520123366094 170.3947754634052 L 383.9443599910046 168.6403296538765 L 383.875 166.875 L 383.9443599910046 165.1096703461235 L 384.1520123366094 163.35522453659482 L 384.49667679105227 161.62247931324214 L 384.97622838335906 159.92211762656368 L 385.58771051849607 158.26462277178547 L 386.3273532057617 156.6602137558602 L 387.19059630203293 155.11878229389114 L 388.1721176265637 153.64983182341936 L 389.2658657739993 152.26241891257087 L 390.46509742330267 150.9650974233027 L 391.76241891257087 149.7658657739993 L 393.14983182341933 148.67211762656368 L 394.6187822938912 147.69059630203293 L 396.16021375586024 146.8273532057617 L 397.7646227717855 146.08771051849604 L 399.4221176265637 145.47622838335903 L 401.1224793132422 144.99667679105227 L 402.85522453659485 144.6520123366094 L 404.60967034612355 144.4443599910046 L 406.37500000000006 144.375 L 408.1403296538766 144.44435999100463 L 409.89477546340527 144.6520123366094 L 411.627520686758 144.9966767910523 L 413.3278823734364 145.47622838335909 L 414.98537722821465 146.0877105184961 L 416.58978624413993 146.8273532057618 L 418.131217706109 147.690596302033 L 419.6001681765808 148.67211762656376 L 420.98758108742925 149.76586577399942 L 422.28490257669745 150.9650974233028 L 423.48413422600083 152.262418912571 L 424.5778823734364 153.6498318234195 L 425.5594036979672 155.11878229389131 L 426.4226467942384 156.66021375586038 L 427.16228948150405 158.2646227717857 L 427.77377161664106 159.9221176265639 L 428.2533232089478 161.62247931324237 L 428.59798766339065 163.35522453659505 L 428.8056400089954 165.10967034612375 Z" fill-opacity="1" stroke-opacity="1" stroke-miterlimit="10" stroke-width="6"/><text fill="rgb(255,255,255)" stroke="none" font-family="times new roman" font-size="15px" font-style="normal" font-weight="normal" text-decoration="normal" x="406.375" y="174.375" text-anchor="middle" dominant-baseline="text-after-edge" fill-opacity="1">*39</text><path fill="rgb(69,90,100)" stroke="rgb(76,175,80)" paint-order="fill stroke markers" d=" M 640.125 240.125 L 640.125 260.125 L 735.125 260.125 L 735.125 240.125 Z" fill-opacity="1" stroke-opacity="1" stroke-miterlimit="10" stroke-width="6"/><text fill="rgb(255,255,255)" stroke="none" font-family="times new roman" font-size="10px" font-style="normal" font-weight="normal" text-decoration="normal" x="687.625" y="255.125" text-anchor="middle" dominant-baseline="text-after-edge" fill-opacity="1">42127407T&gt;G</text><path fill="rgb(69,90,100)" stroke="rgb(76,175,80)" paint-order="fill stroke markers" d=" M 470 93.375 L 469.94605334032974 94.74803417523728 L 469.7845459604149 96.11260313820404 L 469.5164736069593 97.46029386747834 L 469.1434890351652 98.78279740156158 L 468.6678918189475 100.07196006638907 L 468.09261417329645 101.31983374544207 L 467.4212028761966 102.5187248825291 L 466.6577974015616 103.66124191511828 L 465.80710439800055 104.7403408457782 L 464.87436867076457 105.74936867076458 L 463.86534084577823 106.68210439800055 L 462.7862419151183 107.53279740156158 L 461.6437248825291 108.29620287619662 L 460.44483374544205 108.96761417329644 L 459.19696006638907 109.54289181894751 L 457.9077974015616 110.01848903516519 L 456.58529386747836 110.39147360695934 L 455.23760313820407 110.6595459604149 L 453.8730341752373 110.82105334032974 L 452.5 110.875 L 451.1269658247627 110.82105334032974 L 449.76239686179593 110.6595459604149 L 448.41470613252164 110.39147360695934 L 447.0922025984384 110.01848903516519 L 445.80303993361093 109.54289181894751 L 444.55516625455795 108.96761417329644 L 443.3562751174709 108.29620287619662 L 442.2137580848817 107.53279740156158 L 441.13465915422177 106.68210439800055 L 440.12563132923543 105.74936867076458 L 439.19289560199945 104.74034084577822 L 438.3422025984384 103.66124191511828 L 437.5787971238034 102.51872488252911 L 436.90738582670355 101.31983374544207 L 436.3321081810525 100.07196006638907 L 435.8565109648348 98.78279740156158 L 435.4835263930407 97.46029386747834 L 435.2154540395851 96.11260313820404 L 435.05394665967026 94.7480341752373 L 435 93.375 L 435.05394665967026 92.00196582476272 L 435.2154540395851 90.63739686179596 L 435.4835263930407 89.28970613252166 L 435.8565109648348 87.96720259843842 L 436.3321081810525 86.67803993361093 L 436.90738582670355 85.43016625455793 L 437.5787971238034 84.2312751174709 L 438.3422025984384 83.08875808488172 L 439.19289560199945 82.0096591542218 L 440.12563132923543 81.00063132923542 L 441.13465915422177 80.06789560199947 L 442.2137580848817 79.21720259843842 L 443.3562751174709 78.45379712380338 L 444.55516625455795 77.78238582670356 L 445.80303993361093 77.20710818105248 L 447.09220259843846 76.7315109648348 L 448.4147061325217 76.35852639304065 L 449.762396861796 76.09045403958508 L 451.12696582476275 75.92894665967026 L 452.50000000000006 75.875 L 453.87303417523736 75.92894665967026 L 455.2376031382041 76.0904540395851 L 456.5852938674784 76.35852639304068 L 457.90779740156165 76.73151096483484 L 459.1969600663892 77.20710818105252 L 460.44483374544217 77.7823858267036 L 461.6437248825292 78.45379712380344 L 462.78624191511835 79.21720259843849 L 463.8653408457783 80.06789560199954 L 464.8743686707647 81.00063132923552 L 465.80710439800066 82.0096591542219 L 466.65779740156165 83.08875808488185 L 467.4212028761967 84.23127511747103 L 468.0926141732965 85.43016625455807 L 468.66789181894757 86.67803993361109 L 469.14348903516526 87.96720259843859 L 469.5164736069594 89.28970613252184 L 469.78454596041496 90.63739686179616 L 469.94605334032974 92.00196582476292 Z" fill-opacity="1" stroke-opacity="1" stroke-miterlimit="10" stroke-width="6"/><text fill="rgb(255,255,255)" stroke="none" font-family="times new roman" font-size="10px" font-style="normal" font-weight="normal" text-decoration="normal" x="452.5" y="98.375" text-anchor="middle" dominant-baseline="text-after-edge" fill-opacity="1">*39.2</text><path fill="rgb(69,90,100)" stroke="rgb(255,193,7)" paint-order="fill stroke markers" d=" M 312.75 83.375 L 312.75 103.375 L 407.75 103.375 L 407.75 83.375 Z" fill-opacity="1" stroke-opacity="1" stroke-miterlimit="10" stroke-width="6"/><text fill="rgb(255,255,255)" stroke="none" font-family="times new roman" font-size="10px" font-style="normal" font-weight="normal" text-decoration="normal" x="360.25" y="98.375" text-anchor="middle" dominant-baseline="text-after-edge" fill-opacity="1">42126611C&gt;G</text><path fill="rgb(69,90,100)" stroke="rgb(255,193,7)" paint-order="fill stroke markers" d=" M 381.625 250.125 L 381.5556400089954 251.8903296538765 L 381.3479876633906 253.64477546340518 L 381.00332320894773 255.37752068675786 L 380.52377161664094 257.0778823734363 L 379.91228948150393 258.73537722821453 L 379.1726467942383 260.3397862441398 L 378.30940369796707 261.8812177061088 L 377.3278823734363 263.35016817658067 L 376.2341342260007 264.73758108742913 L 375.03490257669733 266.03490257669733 L 373.73758108742913 267.2341342260007 L 372.35016817658067 268.3278823734363 L 370.8812177061088 269.30940369796707 L 369.3397862441398 270.1726467942383 L 367.73537722821453 270.91228948150393 L 366.0778823734363 271.52377161664094 L 364.37752068675786 272.00332320894773 L 362.6447754634052 272.3479876633906 L 360.8903296538765 272.5556400089954 L 359.125 272.625 L 357.3596703461235 272.5556400089954 L 355.6052245365948 272.3479876633906 L 353.87247931324214 272.00332320894773 L 352.1721176265637 271.52377161664094 L 350.51462277178547 270.91228948150393 L 348.9102137558602 270.1726467942383 L 347.3687822938912 269.30940369796707 L 345.89983182341933 268.3278823734363 L 344.51241891257087 267.2341342260007 L 343.21509742330267 266.03490257669733 L 342.0158657739993 264.73758108742913 L 340.9221176265637 263.35016817658067 L 339.94059630203293 261.8812177061088 L 339.0773532057617 260.3397862441398 L 338.33771051849607 258.73537722821453 L 337.72622838335906 257.0778823734363 L 337.24667679105227 255.37752068675786 L 336.9020123366094 253.6447754634052 L 336.6943599910046 251.8903296538765 L 336.625 250.125 L 336.6943599910046 248.3596703461235 L 336.9020123366094 246.60522453659482 L 337.24667679105227 244.87247931324214 L 337.72622838335906 243.17211762656368 L 338.33771051849607 241.51462277178547 L 339.0773532057617 239.9102137558602 L 339.94059630203293 238.36878229389114 L 340.9221176265637 236.89983182341936 L 342.0158657739993 235.51241891257087 L 343.21509742330267 234.2150974233027 L 344.51241891257087 233.0158657739993 L 345.89983182341933 231.92211762656368 L 347.3687822938912 230.94059630203293 L 348.91021375586024 230.0773532057617 L 350.5146227717855 229.33771051849604 L 352.1721176265637 228.72622838335903 L 353.8724793132422 228.24667679105227 L 355.60522453659485 227.9020123366094 L 357.35967034612355 227.6943599910046 L 359.12500000000006 227.625 L 360.8903296538766 227.69435999100463 L 362.64477546340527 227.9020123366094 L 364.377520686758 228.2466767910523 L 366.0778823734364 228.72622838335909 L 367.73537722821465 229.3377105184961 L 369.33978624413993 230.0773532057618 L 370.881217706109 230.940596302033 L 372.3501681765808 231.92211762656376 L 373.73758108742925 233.01586577399942 L 375.03490257669745 234.2150974233028 L 376.23413422600083 235.512418912571 L 377.3278823734364 236.8998318234195 L 378.3094036979672 238.36878229389131 L 379.1726467942384 239.91021375586038 L 379.91228948150405 241.5146227717857 L 380.52377161664106 243.1721176265639 L 381.0033232089478 244.87247931324237 L 381.34798766339065 246.60522453659505 L 381.5556400089954 248.35967034612375 Z" fill-opacity="1" stroke-opacity="1" stroke-miterlimit="10" stroke-width="2"/><text fill="rgb(255,255,255)" stroke="none" font-family="times new roman" font-size="15px" font-style="normal" font-weight="normal" text-decoration="normal" x="359.125" y="257.625" text-anchor="middle" dominant-baseline="text-after-edge" fill-opacity="1">*10</text><path fill="rgb(3,169,244)" stroke="none" paint-order="stroke fill markers" d=" M 359.125 217.625 L 383.625 217.625 L 383.625 217.625 A 8 8 0 0 1 391.625 225.625 L 391.625 274.625 L 391.625 274.625 A 8 8 0 0 1 383.625 282.625 L 334.625 282.625 L 334.625 282.625 A 8 8 0 0 1 326.625 274.625 L 326.625 225.625 L 326.625 225.625 A 8 8 0 0 1 334.625 217.625 L 359.125 217.625 Z" fill-opacity="0.15"/><path fill="rgb(69,90,100)" stroke="rgb(76,175,80)" paint-order="fill stroke markers" d=" M 217.25 393 L 217.19605334032974 394.3730341752373 L 217.0345459604149 395.73760313820407 L 216.76647360695935 397.08529386747836 L 216.39348903516517 398.4077974015616 L 215.9178918189475 399.69696006638907 L 215.34261417329643 400.94483374544205 L 214.67120287619662 402.1437248825291 L 213.9077974015616 403.2862419151183 L 213.05710439800055 404.36534084577823 L 212.12436867076457 405.37436867076457 L 211.1153408457782 406.30710439800055 L 210.03624191511827 407.1577974015616 L 208.8937248825291 407.9212028761966 L 207.69483374544208 408.59261417329645 L 206.44696006638907 409.1678918189475 L 205.1577974015616 409.6434890351652 L 203.83529386747836 410.0164736069593 L 202.48760313820404 410.2845459604149 L 201.12303417523728 410.44605334032974 L 199.75 410.5 L 198.37696582476272 410.44605334032974 L 197.01239686179596 410.2845459604149 L 195.66470613252164 410.0164736069593 L 194.34220259843843 409.6434890351652 L 193.05303993361093 409.1678918189475 L 191.80516625455795 408.59261417329645 L 190.6062751174709 407.9212028761966 L 189.46375808488173 407.1577974015616 L 188.3846591542218 406.30710439800055 L 187.37563132923543 405.37436867076457 L 186.44289560199945 404.36534084577823 L 185.59220259843843 403.2862419151183 L 184.82879712380338 402.1437248825291 L 184.15738582670357 400.94483374544205 L 183.5821081810525 399.69696006638907 L 183.10651096483483 398.4077974015616 L 182.73352639304065 397.08529386747836 L 182.4654540395851 395.73760313820407 L 182.30394665967026 394.3730341752373 L 182.25 393 L 182.30394665967026 391.6269658247627 L 182.4654540395851 390.26239686179593 L 182.73352639304065 388.91470613252164 L 183.1065109648348 387.5922025984384 L 183.5821081810525 386.30303993361093 L 184.15738582670357 385.05516625455795 L 184.82879712380338 383.8562751174709 L 185.5922025984384 382.7137580848817 L 186.44289560199945 381.63465915422177 L 187.3756313292354 380.62563132923543 L 188.38465915422177 379.69289560199945 L 189.4637580848817 378.8422025984384 L 190.6062751174709 378.0787971238034 L 191.80516625455795 377.40738582670355 L 193.05303993361096 376.8321081810525 L 194.34220259843843 376.3565109648348 L 195.6647061325217 375.9835263930407 L 197.012396861796 375.7154540395851 L 198.37696582476278 375.55394665967026 L 199.75000000000006 375.5 L 201.12303417523736 375.55394665967026 L 202.48760313820412 375.7154540395851 L 203.8352938674784 375.9835263930407 L 205.15779740156165 376.35651096483485 L 206.44696006638915 376.8321081810525 L 207.69483374544217 377.4073858267036 L 208.8937248825292 378.07879712380344 L 210.03624191511838 378.8422025984385 L 211.11534084577832 379.69289560199957 L 212.12436867076468 380.6256313292355 L 213.05710439800063 381.6346591542219 L 213.90779740156168 382.7137580848818 L 214.6712028761967 383.85627511747106 L 215.3426141732965 385.05516625455806 L 215.9178918189476 386.3030399336111 L 216.39348903516523 387.5922025984386 L 216.76647360695938 388.9147061325218 L 217.03454596041493 390.26239686179616 L 217.19605334032974 391.6269658247629 Z" fill-opacity="1" stroke-opacity="1" stroke-miterlimit="10" stroke-width="6"/><text fill="rgb(255,255,255)" stroke="none" font-family="times new roman" font-size="10px" font-style="normal" font-weight="normal" text-decoration="normal" x="199.75" y="398" text-anchor="middle" dominant-baseline="text-after-edge" fill-opacity="1">*1.58</text><path fill="rgb(69,90,100)" stroke="rgb(76,175,80)" paint-order="fill stroke markers" d=" M 94.87500000000001 240.125 L 94.875 260.125 L 189.87499999999997 260.125 L 189.875 240.125 Z" fill-opacity="1" stroke-opacity="1" stroke-miterlimit="10" stroke-width="6"/><text fill="rgb(255,255,255)" stroke="none" font-family="times new roman" font-size="10px" font-style="normal" font-weight="normal" text-decoration="normal" x="142.375" y="255.125" text-anchor="middle" dominant-baseline="text-after-edge" fill-opacity="1">42129950A&gt;C</text><path fill="rgb(69,90,100)" stroke="rgb(76,175,80)" paint-order="fill stroke markers" d=" M 413.625 240.125 L 413.625 260.125 L 508.625 260.125 L 508.625 240.125 Z" fill-opacity="1" stroke-opacity="1" stroke-miterlimit="10" stroke-width="6"/><text fill="rgb(255,255,255)" stroke="none" font-family="times new roman" font-size="10px" font-style="normal" font-weight="normal" text-decoration="normal" x="461.125" y="255.125" text-anchor="middle" dominant-baseline="text-after-edge" fill-opacity="1">42129130C&gt;G</text><path fill="rgb(176,190,197)" stroke="none" paint-order="stroke fill markers" d=" M 271.375 288 L 271.375 498 L 346.375 498 L 346.375 288.00000000000006 Z" fill-opacity="0.8"/><text fill="rgb(0,0,0)" stroke="none" font-family="times new roman" font-size="10px" font-style="normal" font-weight="normal" text-decoration="normal" x="276.375" y="303" text-anchor="start" dominant-baseline="text-after-edge" fill-opacity="0.8">42126390G&gt;A </text><text fill="rgb(0,0,0)" stroke="none" font-family="times new roman" font-size="10px" font-style="normal" font-weight="normal" text-decoration="normal" x="276.375" y="313" text-anchor="start" dominant-baseline="text-after-edge" fill-opacity="0.8">42127209T&gt;C </text><text fill="rgb(0,0,0)" stroke="none" font-family="times new roman" font-size="10px" font-style="normal" font-weight="normal" text-decoration="normal" x="276.375" y="323" text-anchor="start" dominant-baseline="text-after-edge" fill-opacity="0.8">42128694T&gt;C </text><text fill="rgb(0,0,0)" stroke="none" font-family="times new roman" font-size="10px" font-style="normal" font-weight="normal" text-decoration="normal" x="276.375" y="333" text-anchor="start" dominant-baseline="text-after-edge" fill-opacity="0.8">42129754G&gt;A </text><text fill="rgb(0,0,0)" stroke="none" font-family="times new roman" font-size="10px" font-style="normal" font-weight="normal" text-decoration="normal" x="276.375" y="343" text-anchor="start" dominant-baseline="text-after-edge" fill-opacity="0.8">42131791C&gt;T </text><text fill="rgb(0,0,0)" stroke="none" font-family="times new roman" font-size="10px" font-style="normal" font-weight="normal" text-decoration="normal" x="276.375" y="353" text-anchor="start" dominant-baseline="text-after-edge" fill-opacity="0.8">42132217G&gt;A </text><path fill="rgb(176,190,197)" stroke="none" paint-order="stroke fill markers" d=" M 574.375 288 L 641.375 288 L 641.375 288 A 8 8 0 0 1 649.375 296 L 649.375 490 L 649.375 490 A 8 8 0 0 1 641.375 498 L 507.375 498 L 507.375 498 A 8 8 0 0 1 499.375 490 L 499.375 296 L 499.375 296 A 8 8 0 0 1 507.375 288 L 574.375 288 Z" fill-opacity="0.8"/><text fill="rgb(0,0,0)" stroke="none" font-family="times new roman" font-size="10px" font-style="normal" font-weight="normal" text-decoration="normal" x="504.375" y="303" text-anchor="start" dominant-baseline="text-after-edge" fill-opacity="0.8">42125572G&gt;A </text><text fill="rgb(0,0,0)" stroke="none" font-family="times new roman" font-size="10px" font-style="normal" font-weight="normal" text-decoration="normal" x="504.375" y="313" text-anchor="start" dominant-baseline="text-after-edge" fill-opacity="0.8">42125924A&gt;G </text><text fill="rgb(0,0,0)" stroke="none" font-family="times new roman" font-size="10px" font-style="normal" font-weight="normal" text-decoration="normal" x="504.375" y="323" text-anchor="start" dominant-baseline="text-after-edge" fill-opacity="0.8">42125980T&gt;C </text><text fill="rgb(0,0,0)" stroke="none" font-family="times new roman" font-size="10px" font-style="normal" font-weight="normal" text-decoration="normal" x="504.375" y="333" text-anchor="start" dominant-baseline="text-after-edge" fill-opacity="0.8">42126069A&gt;C </text><text fill="rgb(0,0,0)" stroke="none" font-family="times new roman" font-size="10px" font-style="normal" font-weight="normal" text-decoration="normal" x="504.375" y="343" text-anchor="start" dominant-baseline="text-after-edge" fill-opacity="0.8">42132027C&gt;T </text><text fill="rgb(0,0,0)" stroke="none" font-family="times new roman" font-size="10px" font-style="normal" font-weight="normal" text-decoration="normal" x="504.375" y="353" text-anchor="start" dominant-baseline="text-after-edge" fill-opacity="0.8">42132844C&gt;A </text><text fill="rgb(0,0,0)" stroke="none" font-family="times new roman" font-size="10px" font-style="normal" font-weight="normal" text-decoration="normal" x="504.375" y="363" text-anchor="start" dominant-baseline="text-after-edge" fill-opacity="0.8">42132851T&gt;C </text><text fill="rgb(0,0,0)" stroke="none" font-family="times new roman" font-size="10px" font-style="normal" font-weight="normal" text-decoration="normal" x="504.375" y="373" text-anchor="start" dominant-baseline="text-after-edge" fill-opacity="0.8">42132969C&gt;T </text><text fill="rgb(0,0,0)" stroke="none" font-family="times new roman" font-size="10px" font-style="normal" font-weight="normal" text-decoration="normal" x="504.375" y="383" text-anchor="start" dominant-baseline="text-after-edge" fill-opacity="0.8">42133212A&gt;G </text><text fill="rgb(0,0,0)" stroke="none" font-family="times new roman" font-size="10px" font-style="normal" font-weight="normal" text-decoration="normal" x="504.375" y="393" text-anchor="start" dominant-baseline="text-after-edge" fill-opacity="0.8">42133314C&gt;T </text><text fill="rgb(0,0,0)" stroke="none" font-family="times new roman" font-size="10px" font-style="normal" font-weight="normal" text-decoration="normal" x="504.375" y="403" text-anchor="start" dominant-baseline="text-after-edge" fill-opacity="0.8">42133400T&gt;G </text><text fill="rgb(0,0,0)" stroke="none" font-family="times new roman" font-size="10px" font-style="normal" font-weight="normal" text-decoration="normal" x="504.375" y="413" text-anchor="start" dominant-baseline="text-after-edge" fill-opacity="0.8">42134096del </text><text fill="rgb(0,0,0)" stroke="none" font-family="times new roman" font-size="10px" font-style="normal" font-weight="normal" text-decoration="normal" x="504.375" y="423" text-anchor="start" dominant-baseline="text-after-edge" fill-opacity="0.8">42134820T&gt;G </text><text fill="rgb(0,0,0)" stroke="none" font-family="times new roman" font-size="10px" font-style="normal" font-weight="normal" text-decoration="normal" x="504.375" y="433" text-anchor="start" dominant-baseline="text-after-edge" fill-opacity="0.8">42135064_42135066dup </text><text fill="rgb(0,0,0)" stroke="none" font-family="times new roman" font-size="10px" font-style="normal" font-weight="normal" text-decoration="normal" x="504.375" y="443" text-anchor="start" dominant-baseline="text-after-edge" fill-opacity="0.8">42135201T&gt;C </text><g transform="scale(0.8617700729927008,0.8617700729927008) translate(-26.933033350979372,53.40391741662256)"/></g></svg>