<svg version="1.1" xmlns="http://www.w3.org/2000/svg" xmlns:xlink="http://www.w3.org/1999/xlink" width="1017" height="608"><defs/><g transform="translate(-117.88214926904334,60.02513464991023) scale(0.9817902026160554,0.9817902026160554)"><path fill="none" stroke="rgb(120,144,156)" paint-order="fill stroke markers" d=" M 618.0743150684932 165 L 661.3017691510761 268.12431856302476" stroke-opacity="1" stroke-linejoin="round" stroke-miterlimit="10"/><path fill="rgb(120,144,156)" stroke="none" paint-order="stroke fill markers" d=" M 654.6998308871368 263.62688472147295 L 662.074945226536 269.9688235796448 L 662.723427709434 260.2635687932224 Z" fill-opacity="1"/><path fill="none" stroke="rgb(120,144,156)" paint-order="fill stroke markers" d=" M 844.6454856283199 166.064723286842 L 1007.4362409890668 273.70716116124885" stroke-opacity="1" stroke-linejoin="round" stroke-miterlimit="10"/><path fill="rgb(120,144,156)" stroke="none" paint-order="stroke fill markers" d=" M 999.4482488319097 273.6402186695371 L 1009.1045143716801 274.81027671315803 L 1004.2468014827147 266.38322945516916 Z" fill-opacity="1"/><path fill="none" stroke="rgb(120,144,156)" paint-order="fill stroke markers" d=" M 1030.375 177.5 L 1030.375 261.375" stroke-opacity="1" stroke-linejoin="round" stroke-miterlimit="10"/><path fill="rgb(120,144,156)" stroke="none" paint-order="stroke fill markers" d=" M 1026.025 254.675 L 1030.375 263.375 L 1034.725 254.675 Z" fill-opacity="1"/><path fill="none" stroke="rgb(55,71,79)" paint-order="fill stroke markers" d=" M 520.375 91.5 L 520.375 131.5" stroke-opacity="1" stroke-linejoin="round" stroke-miterlimit="10" stroke-width="2"/><path fill="none" stroke="rgb(55,71,79)" paint-order="fill stroke markers" d=" M 734.8139084460099 90.22785073102472 L 802.4601382744755 137.4116978711644" stroke-opacity="1" stroke-linejoin="round" stroke-miterlimit="10" stroke-width="2"/><path fill="none" stroke="rgb(120,144,156)" paint-order="fill stroke markers" d=" M 331.75 334.2629310344828 L 448.915044407416 405.16798377069483" stroke-opacity="1" stroke-linejoin="round" stroke-miterlimit="10"/><path fill="rgb(120,144,156)" stroke="none" paint-order="stroke fill markers" d=" M 440.9307689869354 405.420661450573 L 450.6261133429597 406.2034754885842 L 445.43515795975406 397.97751158095804 Z" fill-opacity="1"/><path fill="none" stroke="rgb(120,144,156)" paint-order="fill stroke markers" d=" M 432.50582191780825 165 L 467.06481426001227 267.553107356947" stroke-opacity="1" stroke-linejoin="round" stroke-miterlimit="10"/><path fill="rgb(120,144,156)" stroke="none" paint-order="stroke fill markers" d=" M 460.80299303978126 262.5930574574133 L 467.7034974369001 269.4483867029962 L 469.0474581950951 259.8147856379514 Z" fill-opacity="1"/><path fill="none" stroke="rgb(55,71,79)" paint-order="fill stroke markers" d=" M 992.4081632653061 91.5 L 1016.8204273259075 130.40084354372266" stroke-opacity="1" stroke-linejoin="round" stroke-miterlimit="10" stroke-width="2"/><path fill="none" stroke="rgb(55,71,79)" paint-order="fill stroke markers" d=" M 861.3418367346939 91.5 L 836.9295726740925 130.40084354372266" stroke-opacity="1" stroke-linejoin="round" stroke-miterlimit="10" stroke-width="2"/><path fill="none" stroke="rgb(120,144,156)" paint-order="fill stroke markers" d=" M 428.6875 348.29937923250566 L 461.50814721513564 400.3086215463323" stroke-opacity="1" stroke-linejoin="round" stroke-miterlimit="10"/><path fill="rgb(120,144,156)" stroke="none" paint-order="stroke fill markers" d=" M 454.2537720211925 396.96399293533494 L 462.5754985754986 402 L 461.611268294647 392.32101451775605 Z" fill-opacity="1"/><path fill="none" stroke="rgb(55,71,79)" paint-order="fill stroke markers" d=" M 1065.6031866737687 95.86402773936021 L 1043.9295726740925 130.40084354372266" stroke-opacity="1" stroke-linejoin="round" stroke-miterlimit="10" stroke-width="2"/><path fill="none" stroke="rgb(120,144,156)" paint-order="fill stroke markers" d=" M 513.8284974369001 171.42661329700383 L 481.43518573998773 267.553107356947" stroke-opacity="1" stroke-linejoin="round" stroke-miterlimit="10"/><path fill="rgb(120,144,156)" stroke="none" paint-order="stroke fill markers" d=" M 479.4525418049049 259.8147856379514 L 480.7965025630999 269.4483867029962 L 487.69700696021874 262.5930574574133 Z" fill-opacity="1"/><path fill="none" stroke="rgb(120,144,156)" paint-order="fill stroke markers" d=" M 204.67568493150685 163 L 212.5470893236898 182.02690465660112" stroke-opacity="1" stroke-linejoin="round" stroke-miterlimit="10"/><path fill="rgb(120,144,156)" stroke="none" paint-order="stroke fill markers" d=" M 205.96622433684297 177.49869131965536 L 213.31164383561645 183.875 L 214.00543908062807 174.17287919277445 Z" fill-opacity="1"/><path fill="none" stroke="rgb(55,71,79)" paint-order="fill stroke markers" d=" M 1094.1766151362178 170.06076773102296 L 1042.438844586656 266.4091669687275" stroke-opacity="1" stroke-linejoin="round" stroke-miterlimit="10" stroke-width="2"/><path fill="none" stroke="rgb(120,144,156)" paint-order="fill stroke markers" d=" M 474.25 309.375 L 474.25 400" stroke-opacity="1" stroke-linejoin="round" stroke-miterlimit="10"/><path fill="rgb(120,144,156)" stroke="none" paint-order="stroke fill markers" d=" M 469.9 393.3 L 474.25 402 L 478.6 393.3 Z" fill-opacity="1"/><path fill="none" stroke="rgb(120,144,156)" paint-order="fill stroke markers" d=" M 652.9882273288001 300.31395058925506 L 498.5610902106208 404.1528876169964" stroke-opacity="1" stroke-linejoin="round" stroke-miterlimit="10"/><path fill="rgb(120,144,156)" stroke="none" paint-order="stroke fill markers" d=" M 501.69374590982954 396.8044885893023 L 496.90140507196713 405.2688827964359 L 506.5483249403914 404.0241189424457 Z" fill-opacity="1"/><path fill="none" stroke="rgb(120,144,156)" paint-order="fill stroke markers" d=" M 307.99691780821917 165 L 300.9529106763102 182.02690465660112" stroke-opacity="1" stroke-linejoin="round" stroke-miterlimit="10"/><path fill="rgb(120,144,156)" stroke="none" paint-order="stroke fill markers" d=" M 299.49456091937196 174.17287919277445 L 300.18835616438355 183.875 L 307.53377566315703 177.49869131965536 Z" fill-opacity="1"/><path fill="none" stroke="rgb(120,144,156)" paint-order="fill stroke markers" d=" M 1005.5605642051684 294.74814023195273 L 507.0882233270229 412.72777047350974" stroke-opacity="1" stroke-linejoin="round" stroke-miterlimit="10"/><path fill="rgb(120,144,156)" stroke="none" paint-order="stroke fill markers" d=" M 512.60620606492 406.95158085540777 L 505.14199306860473 413.1884089230747 L 514.6099833205275 415.4176824795268 Z" fill-opacity="1"/><path fill="none" stroke="rgb(120,144,156)" paint-order="fill stroke markers" d=" M 721.9256849315068 165 L 678.6982308489239 268.12431856302476" stroke-opacity="1" stroke-linejoin="round" stroke-miterlimit="10"/><path fill="rgb(120,144,156)" stroke="none" paint-order="stroke fill markers" d=" M 677.276572290566 260.2635687932224 L 677.925054773464 269.9688235796448 L 685.3001691128632 263.62688472147295 Z" fill-opacity="1"/><path fill="rgb(69,90,100)" stroke="rgb(76,175,80)" paint-order="fill stroke markers" d=" M 1121.375 152 L 1121.3210533403299 153.37303417523728 L 1121.159545960415 154.73760313820404 L 1120.8914736069594 156.08529386747836 L 1120.5184890351652 157.40779740156157 L 1120.0428918189475 158.69696006638907 L 1119.4676141732964 159.94483374544205 L 1118.7962028761965 161.1437248825291 L 1118.0327974015615 162.28624191511827 L 1117.1821043980005 163.3653408457782 L 1116.2493686707646 164.37436867076457 L 1115.2403408457783 165.30710439800055 L 1114.1612419151184 166.1577974015616 L 1113.018724882529 166.92120287619662 L 1111.819833745442 167.59261417329643 L 1110.571960066389 168.1678918189475 L 1109.2827974015615 168.64348903516517 L 1107.9602938674784 169.01647360695935 L 1106.6126031382041 169.2845459604149 L 1105.2480341752373 169.44605334032974 L 1103.875 169.5 L 1102.5019658247627 169.44605334032974 L 1101.1373968617959 169.2845459604149 L 1099.7897061325216 169.01647360695935 L 1098.4672025984385 168.6434890351652 L 1097.178039933611 168.1678918189475 L 1095.930166254558 167.59261417329643 L 1094.731275117471 166.92120287619662 L 1093.5887580848816 166.1577974015616 L 1092.5096591542217 165.30710439800055 L 1091.5006313292354 164.37436867076457 L 1090.5678956019995 163.3653408457782 L 1089.7172025984385 162.2862419151183 L 1088.9537971238035 161.1437248825291 L 1088.2823858267036 159.94483374544208 L 1087.7071081810525 158.69696006638907 L 1087.2315109648348 157.4077974015616 L 1086.8585263930406 156.08529386747836 L 1086.590454039585 154.73760313820404 L 1086.4289466596701 153.37303417523728 L 1086.375 152 L 1086.4289466596701 150.62696582476272 L 1086.590454039585 149.26239686179596 L 1086.8585263930406 147.91470613252164 L 1087.2315109648348 146.59220259843843 L 1087.7071081810525 145.30303993361093 L 1088.2823858267036 144.05516625455795 L 1088.9537971238035 142.8562751174709 L 1089.7172025984385 141.71375808488173 L 1090.5678956019995 140.6346591542218 L 1091.5006313292354 139.62563132923543 L 1092.5096591542217 138.69289560199945 L 1093.5887580848816 137.84220259843843 L 1094.731275117471 137.07879712380338 L 1095.930166254558 136.40738582670355 L 1097.178039933611 135.8321081810525 L 1098.4672025984385 135.3565109648348 L 1099.7897061325216 134.98352639304065 L 1101.137396861796 134.7154540395851 L 1102.5019658247627 134.55394665967026 L 1103.875 134.5 L 1105.2480341752373 134.55394665967026 L 1106.6126031382041 134.7154540395851 L 1107.9602938674784 134.98352639304068 L 1109.2827974015618 135.35651096483485 L 1110.5719600663892 135.83210818105252 L 1111.819833745442 136.4073858267036 L 1113.018724882529 137.07879712380344 L 1114.1612419151184 137.8422025984385 L 1115.2403408457783 138.69289560199954 L 1116.2493686707646 139.62563132923552 L 1117.1821043980005 140.6346591542219 L 1118.0327974015618 141.71375808488185 L 1118.7962028761967 142.85627511747103 L 1119.4676141732966 144.0551662545581 L 1120.0428918189475 145.3030399336111 L 1120.5184890351652 146.5922025984386 L 1120.8914736069594 147.91470613252184 L 1121.159545960415 149.26239686179616 L 1121.3210533403299 150.62696582476292 Z" fill-opacity="1" stroke-opacity="1" stroke-miterlimit="10" stroke-width="6"/><text fill="rgb(255,255,255)" stroke="none" font-family="times new roman" font-size="10px" font-style="normal" font-weight="normal" text-decoration="normal" x="1103.875" y="157" text-anchor="middle" dominant-baseline="text-after-edge" fill-opacity="1">*2.4</text><path fill="rgb(69,90,100)" stroke="rgb(76,175,80)" paint-order="fill stroke markers" d=" M 845.875 152 L 845.8056400089954 153.7653296538765 L 845.5979876633907 155.51977546340518 L 845.2533232089477 157.25252068675786 L 844.7737716166409 158.95288237343632 L 844.162289481504 160.61037722821453 L 843.4226467942383 162.21478624413982 L 842.5594036979671 163.75621770610886 L 841.5778823734363 165.22516817658064 L 840.4841342260007 166.61258108742913 L 839.2849025766973 167.9099025766973 L 837.9875810874291 169.1091342260007 L 836.6001681765806 170.20288237343632 L 835.1312177061088 171.18440369796707 L 833.5897862441398 172.0476467942383 L 831.9853772282145 172.78728948150396 L 830.3278823734363 173.39877161664094 L 828.6275206867579 173.87832320894773 L 826.8947754634052 174.2229876633906 L 825.1403296538765 174.43064000899537 L 823.375 174.5 L 821.6096703461235 174.43064000899537 L 819.8552245365948 174.2229876633906 L 818.1224793132421 173.87832320894773 L 816.4221176265637 173.39877161664094 L 814.7646227717855 172.78728948150396 L 813.1602137558602 172.0476467942383 L 811.6187822938912 171.18440369796707 L 810.1498318234194 170.20288237343632 L 808.7624189125709 169.1091342260007 L 807.4650974233027 167.90990257669733 L 806.2658657739993 166.61258108742913 L 805.1721176265637 165.22516817658064 L 804.1905963020329 163.75621770610886 L 803.3273532057617 162.21478624413982 L 802.587710518496 160.61037722821453 L 801.9762283833591 158.95288237343632 L 801.4966767910523 157.25252068675786 L 801.1520123366095 155.5197754634052 L 800.9443599910046 153.7653296538765 L 800.875 152 L 800.9443599910046 150.2346703461235 L 801.1520123366093 148.48022453659482 L 801.4966767910523 146.74747931324214 L 801.9762283833591 145.04711762656368 L 802.587710518496 143.38962277178547 L 803.3273532057617 141.7852137558602 L 804.1905963020329 140.24378229389114 L 805.1721176265637 138.77483182341936 L 806.2658657739993 137.38741891257087 L 807.4650974233027 136.0900974233027 L 808.7624189125709 134.8908657739993 L 810.1498318234194 133.79711762656368 L 811.6187822938912 132.81559630203293 L 813.1602137558602 131.9523532057617 L 814.7646227717855 131.21271051849604 L 816.4221176265637 130.60122838335903 L 818.1224793132421 130.12167679105227 L 819.8552245365948 129.7770123366094 L 821.6096703461236 129.5693599910046 L 823.3750000000001 129.5 L 825.1403296538766 129.56935999100463 L 826.8947754634053 129.7770123366094 L 828.627520686758 130.1216767910523 L 830.3278823734364 130.60122838335909 L 831.9853772282146 131.2127105184961 L 833.5897862441399 131.9523532057618 L 835.1312177061089 132.815596302033 L 836.6001681765807 133.79711762656376 L 837.9875810874292 134.89086577399942 L 839.2849025766974 136.0900974233028 L 840.4841342260008 137.387418912571 L 841.5778823734364 138.7748318234195 L 842.5594036979671 140.24378229389131 L 843.4226467942384 141.78521375586038 L 844.162289481504 143.3896227717857 L 844.773771616641 145.0471176265639 L 845.2533232089478 146.74747931324237 L 845.5979876633907 148.48022453659505 L 845.8056400089954 150.23467034612375 Z" fill-opacity="1" stroke-opacity="1" stroke-miterlimit="10" stroke-width="6"/><text fill="rgb(255,255,255)" stroke="none" font-family="times new roman" font-size="15px" font-style="normal" font-weight="normal" text-decoration="normal" x="823.375" y="159.5" text-anchor="middle" dominant-baseline="text-after-edge" fill-opacity="1">*39</text><path fill="rgb(69,90,100)" stroke="rgb(76,175,80)" paint-order="fill stroke markers" d=" M 200.125 142 L 242.625 142 L 242.625 142 A 5 5 0 0 1 247.625 147 L 247.625 157 L 247.625 157 A 5 5 0 0 1 242.625 162 L 157.625 162 L 157.625 162 A 5 5 0 0 1 152.625 157 L 152.625 147 L 152.625 147 A 5 5 0 0 1 157.625 142 L 200.125 142 Z" fill-opacity="1" stroke-opacity="1" stroke-miterlimit="10" stroke-width="2"/><text fill="rgb(255,255,255)" stroke="none" font-family="times new roman" font-size="10px" font-style="normal" font-weight="normal" text-decoration="normal" x="200.125" y="157" text-anchor="middle" dominant-baseline="text-after-edge" fill-opacity="1">42132049dup</text><path fill="rgb(69,90,100)" stroke="rgb(76,175,80)" paint-order="fill stroke markers" d=" M 679.875 142 L 679.875 162 L 774.875 162 L 774.875 142 Z" fill-opacity="1" stroke-opacity="1" stroke-miterlimit="10" stroke-width="6"/><text fill="rgb(255,255,255)" stroke="none" font-family="times new roman" font-size="10px" font-style="normal" font-weight="normal" text-decoration="normal" x="727.375" y="157" text-anchor="middle" dominant-baseline="text-after-edge" fill-opacity="1">42129950A&gt;C</text><path fill="rgb(69,90,100)" stroke="rgb(76,175,80)" paint-order="fill stroke markers" d=" M 1094 78.5 L 1093.9460533403299 79.87303417523728 L 1093.784545960415 81.23760313820404 L 1093.5164736069594 82.58529386747834 L 1093.1434890351652 83.90779740156158 L 1092.6678918189475 85.19696006638907 L 1092.0926141732964 86.44483374544207 L 1091.4212028761965 87.6437248825291 L 1090.6577974015615 88.78624191511828 L 1089.8071043980005 89.8653408457782 L 1088.8743686707646 90.87436867076458 L 1087.8653408457783 91.80710439800055 L 1086.7862419151184 92.65779740156158 L 1085.643724882529 93.42120287619662 L 1084.444833745442 94.09261417329644 L 1083.196960066389 94.66789181894751 L 1081.9077974015615 95.14348903516519 L 1080.5852938674784 95.51647360695934 L 1079.2376031382041 95.7845459604149 L 1077.8730341752373 95.94605334032974 L 1076.5 96 L 1075.1269658247627 95.94605334032974 L 1073.7623968617959 95.7845459604149 L 1072.4147061325216 95.51647360695934 L 1071.0922025984385 95.14348903516519 L 1069.803039933611 94.66789181894751 L 1068.555166254558 94.09261417329644 L 1067.356275117471 93.42120287619662 L 1066.2137580848816 92.65779740156158 L 1065.1346591542217 91.80710439800055 L 1064.1256313292354 90.87436867076458 L 1063.1928956019995 89.86534084577822 L 1062.3422025984385 88.78624191511828 L 1061.5787971238035 87.64372488252911 L 1060.9073858267036 86.44483374544207 L 1060.3321081810525 85.19696006638907 L 1059.8565109648348 83.90779740156158 L 1059.4835263930406 82.58529386747834 L 1059.215454039585 81.23760313820404 L 1059.0539466596701 79.8730341752373 L 1059 78.5 L 1059.0539466596701 77.12696582476272 L 1059.215454039585 75.76239686179596 L 1059.4835263930406 74.41470613252166 L 1059.8565109648348 73.09220259843842 L 1060.3321081810525 71.80303993361093 L 1060.9073858267036 70.55516625455793 L 1061.5787971238035 69.3562751174709 L 1062.3422025984385 68.21375808488172 L 1063.1928956019995 67.1346591542218 L 1064.1256313292354 66.12563132923542 L 1065.1346591542217 65.19289560199947 L 1066.2137580848816 64.34220259843842 L 1067.356275117471 63.57879712380338 L 1068.555166254558 62.90738582670356 L 1069.803039933611 62.332108181052476 L 1071.0922025984385 61.856510964834804 L 1072.4147061325216 61.48352639304065 L 1073.762396861796 61.21545403958508 L 1075.1269658247627 61.05394665967026 L 1076.5 61 L 1077.8730341752373 61.05394665967027 L 1079.2376031382041 61.2154540395851 L 1080.5852938674784 61.48352639304068 L 1081.9077974015618 61.85651096483484 L 1083.1969600663892 62.33210818105252 L 1084.444833745442 62.90738582670361 L 1085.643724882529 63.57879712380345 L 1086.7862419151184 64.34220259843849 L 1087.8653408457783 65.19289560199954 L 1088.8743686707646 66.12563132923552 L 1089.8071043980005 67.1346591542219 L 1090.6577974015618 68.21375808488185 L 1091.4212028761967 69.35627511747103 L 1092.0926141732966 70.55516625455807 L 1092.6678918189475 71.80303993361109 L 1093.1434890351652 73.09220259843859 L 1093.5164736069594 74.41470613252184 L 1093.784545960415 75.76239686179616 L 1093.9460533403299 77.12696582476292 Z" fill-opacity="1" stroke-opacity="1" stroke-miterlimit="10" stroke-width="6"/><text fill="rgb(255,255,255)" stroke="none" font-family="times new roman" font-size="10px" font-style="normal" font-weight="normal" text-decoration="normal" x="1076.5" y="83.5" text-anchor="middle" dominant-baseline="text-after-edge" fill-opacity="1">*34.1</text><path fill="rgb(69,90,100)" stroke="rgb(76,175,80)" paint-order="fill stroke markers" d=" M 313.375 142 L 355.875 142 L 355.875 142 A 5 5 0 0 1 360.875 147 L 360.875 157 L 360.875 157 A 5 5 0 0 1 355.875 162 L 270.875 162 L 270.875 162 A 5 5 0 0 1 265.875 157 L 265.875 147 L 265.875 147 A 5 5 0 0 1 270.875 142 L 313.375 142 Z" fill-opacity="1" stroke-opacity="1" stroke-miterlimit="10" stroke-width="6"/><text fill="rgb(255,255,255)" stroke="none" font-family="times new roman" font-size="10px" font-style="normal" font-weight="normal" text-decoration="normal" x="313.375" y="157" text-anchor="middle" dominant-baseline="text-after-edge" fill-opacity="1">42132025_4213202…</text><path fill="rgb(69,90,100)" stroke="rgb(76,175,80)" paint-order="fill stroke markers" d=" M 687.5 288.875 L 687.4460533403297 290.2480341752373 L 687.2845459604149 291.61260313820407 L 687.0164736069594 292.96029386747836 L 686.6434890351652 294.2827974015616 L 686.1678918189475 295.57196006638907 L 685.5926141732964 296.81983374544205 L 684.9212028761966 298.0187248825291 L 684.1577974015615 299.1612419151183 L 683.3071043980005 300.24034084577823 L 682.3743686707646 301.24936867076457 L 681.3653408457782 302.18210439800055 L 680.2862419151182 303.0327974015616 L 679.1437248825291 303.7962028761966 L 677.9448337454421 304.46761417329645 L 676.6969600663891 305.0428918189475 L 675.4077974015615 305.5184890351652 L 674.0852938674783 305.8914736069593 L 672.737603138204 306.1595459604149 L 671.3730341752373 306.32105334032974 L 670 306.375 L 668.6269658247627 306.32105334032974 L 667.262396861796 306.1595459604149 L 665.9147061325217 305.8914736069593 L 664.5922025984385 305.5184890351652 L 663.3030399336109 305.0428918189475 L 662.0551662545579 304.46761417329645 L 660.8562751174709 303.7962028761966 L 659.7137580848818 303.0327974015616 L 658.6346591542218 302.18210439800055 L 657.6256313292354 301.24936867076457 L 656.6928956019995 300.24034084577823 L 655.8422025984385 299.1612419151183 L 655.0787971238034 298.0187248825291 L 654.4073858267036 296.81983374544205 L 653.8321081810525 295.57196006638907 L 653.3565109648348 294.2827974015616 L 652.9835263930406 292.96029386747836 L 652.7154540395851 291.61260313820407 L 652.5539466596703 290.2480341752373 L 652.5 288.875 L 652.5539466596703 287.5019658247627 L 652.7154540395851 286.13739686179593 L 652.9835263930406 284.78970613252164 L 653.3565109648348 283.4672025984384 L 653.8321081810525 282.17803993361093 L 654.4073858267036 280.93016625455795 L 655.0787971238034 279.7312751174709 L 655.8422025984385 278.5887580848817 L 656.6928956019995 277.50965915422177 L 657.6256313292354 276.50063132923543 L 658.6346591542218 275.56789560199945 L 659.7137580848818 274.7172025984384 L 660.8562751174709 273.9537971238034 L 662.0551662545579 273.28238582670355 L 663.303039933611 272.7071081810525 L 664.5922025984385 272.2315109648348 L 665.9147061325217 271.8585263930407 L 667.262396861796 271.5904540395851 L 668.6269658247628 271.42894665967026 L 670.0000000000001 271.375 L 671.3730341752373 271.42894665967026 L 672.7376031382041 271.5904540395851 L 674.0852938674784 271.8585263930407 L 675.4077974015617 272.23151096483485 L 676.6969600663891 272.7071081810525 L 677.9448337454421 273.2823858267036 L 679.1437248825292 273.95379712380344 L 680.2862419151184 274.7172025984385 L 681.3653408457783 275.56789560199957 L 682.3743686707646 276.5006313292355 L 683.3071043980007 277.5096591542219 L 684.1577974015617 278.5887580848818 L 684.9212028761967 279.73127511747106 L 685.5926141732965 280.93016625455806 L 686.1678918189476 282.1780399336111 L 686.6434890351652 283.4672025984386 L 687.0164736069594 284.7897061325218 L 687.2845459604149 286.13739686179616 L 687.4460533403297 287.5019658247629 Z" fill-opacity="1" stroke-opacity="1" stroke-miterlimit="10" stroke-width="6"/><text fill="rgb(255,255,255)" stroke="none" font-family="times new roman" font-size="10px" font-style="normal" font-weight="normal" text-decoration="normal" x="670" y="293.875" text-anchor="middle" dominant-baseline="text-after-edge" fill-opacity="1">*1.58</text><path fill="rgb(69,90,100)" stroke="rgb(76,175,80)" paint-order="fill stroke markers" d=" M 1052.875 152 L 1052.8056400089954 153.7653296538765 L 1052.5979876633905 155.51977546340518 L 1052.2533232089477 157.25252068675786 L 1051.773771616641 158.95288237343632 L 1051.1622894815039 160.61037722821453 L 1050.4226467942383 162.21478624413982 L 1049.5594036979671 163.75621770610886 L 1048.5778823734363 165.22516817658064 L 1047.4841342260006 166.61258108742913 L 1046.2849025766973 167.9099025766973 L 1044.9875810874291 169.1091342260007 L 1043.6001681765806 170.20288237343632 L 1042.1312177061088 171.18440369796707 L 1040.5897862441398 172.0476467942383 L 1038.9853772282145 172.78728948150396 L 1037.3278823734363 173.39877161664094 L 1035.6275206867579 173.87832320894773 L 1033.8947754634053 174.2229876633906 L 1032.1403296538765 174.43064000899537 L 1030.375 174.5 L 1028.6096703461235 174.43064000899537 L 1026.8552245365947 174.2229876633906 L 1025.1224793132421 173.87832320894773 L 1023.4221176265637 173.39877161664094 L 1021.7646227717855 172.78728948150396 L 1020.1602137558602 172.0476467942383 L 1018.6187822938912 171.18440369796707 L 1017.1498318234194 170.20288237343632 L 1015.7624189125709 169.1091342260007 L 1014.4650974233027 167.90990257669733 L 1013.2658657739993 166.61258108742913 L 1012.1721176265637 165.22516817658064 L 1011.1905963020329 163.75621770610886 L 1010.3273532057617 162.21478624413982 L 1009.587710518496 160.61037722821453 L 1008.9762283833591 158.95288237343632 L 1008.4966767910523 157.25252068675786 L 1008.1520123366095 155.5197754634052 L 1007.9443599910046 153.7653296538765 L 1007.875 152 L 1007.9443599910046 150.2346703461235 L 1008.1520123366093 148.48022453659482 L 1008.4966767910523 146.74747931324214 L 1008.9762283833591 145.04711762656368 L 1009.587710518496 143.38962277178547 L 1010.3273532057617 141.7852137558602 L 1011.1905963020329 140.24378229389114 L 1012.1721176265637 138.77483182341936 L 1013.2658657739993 137.38741891257087 L 1014.4650974233027 136.0900974233027 L 1015.7624189125709 134.8908657739993 L 1017.1498318234194 133.79711762656368 L 1018.6187822938912 132.81559630203293 L 1020.1602137558602 131.9523532057617 L 1021.7646227717855 131.21271051849604 L 1023.4221176265637 130.60122838335903 L 1025.1224793132421 130.12167679105227 L 1026.855224536595 129.7770123366094 L 1028.6096703461235 129.5693599910046 L 1030.375 129.5 L 1032.1403296538765 129.56935999100463 L 1033.8947754634053 129.7770123366094 L 1035.6275206867579 130.1216767910523 L 1037.3278823734365 130.60122838335909 L 1038.9853772282147 131.2127105184961 L 1040.58978624414 131.9523532057618 L 1042.131217706109 132.815596302033 L 1043.6001681765808 133.79711762656376 L 1044.9875810874294 134.89086577399942 L 1046.2849025766975 136.0900974233028 L 1047.4841342260008 137.387418912571 L 1048.5778823734365 138.7748318234195 L 1049.5594036979671 140.24378229389131 L 1050.4226467942383 141.78521375586038 L 1051.162289481504 143.3896227717857 L 1051.773771616641 145.0471176265639 L 1052.2533232089477 146.74747931324237 L 1052.5979876633905 148.48022453659505 L 1052.8056400089954 150.23467034612375 Z" fill-opacity="1" stroke-opacity="1" stroke-miterlimit="10" stroke-width="6"/><text fill="rgb(255,255,255)" stroke="none" font-family="times new roman" font-size="15px" font-style="normal" font-weight="normal" text-decoration="normal" x="1030.375" y="159.5" text-anchor="middle" dominant-baseline="text-after-edge" fill-opacity="1">*34</text><path fill="rgb(69,90,100)" stroke="rgb(158,158,158)" paint-order="fill stroke markers" d=" M 822 68.5 L 822 88.5 L 917 88.5 L 917 68.5 Z" fill-opacity="1" stroke-opacity="1" stroke-miterlimit="10" stroke-width="6"/><text fill="rgb(255,255,255)" stroke="none" font-family="times new roman" font-size="10px" font-style="normal" font-weight="normal" text-decoration="normal" x="869.5" y="83.5" text-anchor="middle" dominant-baseline="text-after-edge" fill-opacity="1">42126611C&gt;G</text><path fill="rgb(69,90,100)" stroke="rgb(76,175,80)" paint-order="fill stroke markers" d=" M 472.875 68.5 L 472.875 88.5 L 567.875 88.5 L 567.875 68.5 Z" fill-opacity="1" stroke-opacity="1" stroke-miterlimit="10" stroke-width="6"/><text fill="rgb(255,255,255)" stroke="none" font-family="times new roman" font-size="10px" font-style="normal" font-weight="normal" text-decoration="normal" x="520.375" y="83.5" text-anchor="middle" dominant-baseline="text-after-edge" fill-opacity="1">42127407T&gt;G</text><path fill="rgb(69,90,100)" stroke="rgb(76,175,80)" paint-order="fill stroke markers" d=" M 537.875 152 L 537.8210533403297 153.37303417523728 L 537.6595459604149 154.73760313820404 L 537.3914736069594 156.08529386747836 L 537.0184890351652 157.40779740156157 L 536.5428918189475 158.69696006638907 L 535.9676141732964 159.94483374544205 L 535.2962028761966 161.1437248825291 L 534.5327974015615 162.28624191511827 L 533.6821043980005 163.3653408457782 L 532.7493686707646 164.37436867076457 L 531.7403408457782 165.30710439800055 L 530.6612419151182 166.1577974015616 L 529.5187248825291 166.92120287619662 L 528.3198337454421 167.59261417329643 L 527.0719600663891 168.1678918189475 L 525.7827974015615 168.64348903516517 L 524.4602938674783 169.01647360695935 L 523.112603138204 169.2845459604149 L 521.7480341752373 169.44605334032974 L 520.375 169.5 L 519.0019658247627 169.44605334032974 L 517.637396861796 169.2845459604149 L 516.2897061325217 169.01647360695935 L 514.9672025984385 168.6434890351652 L 513.6780399336109 168.1678918189475 L 512.4301662545579 167.59261417329643 L 511.2312751174709 166.92120287619662 L 510.0887580848817 166.1577974015616 L 509.00965915422177 165.30710439800055 L 508.00063132923543 164.37436867076457 L 507.06789560199945 163.3653408457782 L 506.2172025984384 162.2862419151183 L 505.4537971238034 161.1437248825291 L 504.78238582670355 159.94483374544208 L 504.2071081810525 158.69696006638907 L 503.7315109648348 157.4077974015616 L 503.3585263930407 156.08529386747836 L 503.0904540395851 154.73760313820404 L 502.92894665967026 153.37303417523728 L 502.875 152 L 502.92894665967026 150.62696582476272 L 503.0904540395851 149.26239686179596 L 503.3585263930407 147.91470613252164 L 503.7315109648348 146.59220259843843 L 504.2071081810525 145.30303993361093 L 504.78238582670355 144.05516625455795 L 505.4537971238034 142.8562751174709 L 506.2172025984384 141.71375808488173 L 507.06789560199945 140.6346591542218 L 508.00063132923543 139.62563132923543 L 509.00965915422177 138.69289560199945 L 510.0887580848817 137.84220259843843 L 511.2312751174709 137.07879712380338 L 512.4301662545579 136.40738582670355 L 513.678039933611 135.8321081810525 L 514.9672025984385 135.3565109648348 L 516.2897061325217 134.98352639304065 L 517.637396861796 134.7154540395851 L 519.0019658247628 134.55394665967026 L 520.3750000000001 134.5 L 521.7480341752373 134.55394665967026 L 523.1126031382041 134.7154540395851 L 524.4602938674784 134.98352639304068 L 525.7827974015617 135.35651096483485 L 527.0719600663891 135.83210818105252 L 528.3198337454421 136.4073858267036 L 529.5187248825292 137.07879712380344 L 530.6612419151184 137.8422025984385 L 531.7403408457783 138.69289560199954 L 532.7493686707646 139.62563132923552 L 533.6821043980007 140.6346591542219 L 534.5327974015617 141.71375808488185 L 535.2962028761967 142.85627511747103 L 535.9676141732965 144.0551662545581 L 536.5428918189476 145.3030399336111 L 537.0184890351652 146.5922025984386 L 537.3914736069594 147.91470613252184 L 537.6595459604149 149.26239686179616 L 537.8210533403297 150.62696582476292 Z" fill-opacity="1" stroke-opacity="1" stroke-miterlimit="10" stroke-width="6"/><text fill="rgb(255,255,255)" stroke="none" font-family="times new roman" font-size="10px" font-style="normal" font-weight="normal" text-decoration="normal" x="520.375" y="157" text-anchor="middle" dominant-baseline="text-after-edge" fill-opacity="1">*1.41</text><path fill="rgb(69,90,100)" stroke="rgb(76,175,80)" paint-order="fill stroke markers" d=" M 491.75 288.875 L 491.69605334032974 290.2480341752373 L 491.5345459604149 291.61260313820407 L 491.2664736069593 292.96029386747836 L 490.8934890351652 294.2827974015616 L 490.4178918189475 295.57196006638907 L 489.84261417329645 296.81983374544205 L 489.1712028761966 298.0187248825291 L 488.4077974015616 299.1612419151183 L 487.55710439800055 300.24034084577823 L 486.62436867076457 301.24936867076457 L 485.61534084577823 302.18210439800055 L 484.5362419151183 303.0327974015616 L 483.3937248825291 303.7962028761966 L 482.19483374544205 304.46761417329645 L 480.94696006638907 305.0428918189475 L 479.6577974015616 305.5184890351652 L 478.33529386747836 305.8914736069593 L 476.98760313820407 306.1595459604149 L 475.6230341752373 306.32105334032974 L 474.25 306.375 L 472.8769658247627 306.32105334032974 L 471.51239686179593 306.1595459604149 L 470.16470613252164 305.8914736069593 L 468.8422025984384 305.5184890351652 L 467.55303993361093 305.0428918189475 L 466.30516625455795 304.46761417329645 L 465.1062751174709 303.7962028761966 L 463.9637580848817 303.0327974015616 L 462.88465915422177 302.18210439800055 L 461.87563132923543 301.24936867076457 L 460.94289560199945 300.24034084577823 L 460.0922025984384 299.1612419151183 L 459.3287971238034 298.0187248825291 L 458.65738582670355 296.81983374544205 L 458.0821081810525 295.57196006638907 L 457.6065109648348 294.2827974015616 L 457.2335263930407 292.96029386747836 L 456.9654540395851 291.61260313820407 L 456.80394665967026 290.2480341752373 L 456.75 288.875 L 456.80394665967026 287.5019658247627 L 456.9654540395851 286.13739686179593 L 457.2335263930407 284.78970613252164 L 457.6065109648348 283.4672025984384 L 458.0821081810525 282.17803993361093 L 458.65738582670355 280.93016625455795 L 459.3287971238034 279.7312751174709 L 460.0922025984384 278.5887580848817 L 460.94289560199945 277.50965915422177 L 461.87563132923543 276.50063132923543 L 462.88465915422177 275.56789560199945 L 463.9637580848817 274.7172025984384 L 465.1062751174709 273.9537971238034 L 466.30516625455795 273.28238582670355 L 467.55303993361093 272.7071081810525 L 468.84220259843846 272.2315109648348 L 470.1647061325217 271.8585263930407 L 471.512396861796 271.5904540395851 L 472.87696582476275 271.42894665967026 L 474.25000000000006 271.375 L 475.62303417523736 271.42894665967026 L 476.9876031382041 271.5904540395851 L 478.3352938674784 271.8585263930407 L 479.65779740156165 272.23151096483485 L 480.9469600663892 272.7071081810525 L 482.19483374544217 273.2823858267036 L 483.3937248825292 273.95379712380344 L 484.53624191511835 274.7172025984385 L 485.6153408457783 275.56789560199957 L 486.6243686707647 276.5006313292355 L 487.55710439800066 277.5096591542219 L 488.40779740156165 278.5887580848818 L 489.1712028761967 279.73127511747106 L 489.8426141732965 280.93016625455806 L 490.41789181894757 282.1780399336111 L 490.89348903516526 283.4672025984386 L 491.2664736069594 284.7897061325218 L 491.53454596041496 286.13739686179616 L 491.69605334032974 287.5019658247629 Z" fill-opacity="1" stroke-opacity="1" stroke-miterlimit="10" stroke-width="6"/><text fill="rgb(255,255,255)" stroke="none" font-family="times new roman" font-size="10px" font-style="normal" font-weight="normal" text-decoration="normal" x="474.25" y="293.875" text-anchor="middle" dominant-baseline="text-after-edge" fill-opacity="1">*1.54</text><path fill="rgb(69,90,100)" stroke="rgb(76,175,80)" paint-order="fill stroke markers" d=" M 565.125 142 L 565.125 162 L 660.125 162 L 660.125 142 Z" fill-opacity="1" stroke-opacity="1" stroke-miterlimit="10" stroke-width="6"/><text fill="rgb(255,255,255)" stroke="none" font-family="times new roman" font-size="10px" font-style="normal" font-weight="normal" text-decoration="normal" x="612.625" y="157" text-anchor="middle" dominant-baseline="text-after-edge" fill-opacity="1">42130482C&gt;A</text><path fill="rgb(69,90,100)" stroke="rgb(69,90,100)" paint-order="fill stroke markers" d=" M 455.5 403 L 436.75 420.5 L 455.5 438 L 493 438 L 511.75 420.5 L 493.00000000000006 403 Z" fill-opacity="1" stroke-opacity="1" stroke-miterlimit="10" stroke-width="2"/><text fill="rgb(255,255,255)" stroke="none" font-family="times new roman" font-size="10px" font-style="normal" font-weight="normal" text-decoration="normal" x="474.25" y="425.5" text-anchor="middle" dominant-baseline="text-after-edge" fill-opacity="1">NA18942-A</text><path fill="rgb(69,90,100)" stroke="rgb(158,158,158)" paint-order="fill stroke markers" d=" M 936.75 68.5 L 936.75 88.5 L 1031.75 88.5 L 1031.75 68.5 Z" fill-opacity="1" stroke-opacity="1" stroke-miterlimit="10" stroke-width="6"/><text fill="rgb(255,255,255)" stroke="none" font-family="times new roman" font-size="10px" font-style="normal" font-weight="normal" text-decoration="normal" x="984.25" y="83.5" text-anchor="middle" dominant-baseline="text-after-edge" fill-opacity="1">42127941G&gt;A</text><path fill="rgb(69,90,100)" stroke="rgb(76,175,80)" paint-order="fill stroke markers" d=" M 735.5 78.5 L 735.4460533403297 79.87303417523728 L 735.2845459604149 81.23760313820404 L 735.0164736069594 82.58529386747834 L 734.6434890351652 83.90779740156158 L 734.1678918189475 85.19696006638907 L 733.5926141732964 86.44483374544207 L 732.9212028761966 87.6437248825291 L 732.1577974015615 88.78624191511828 L 731.3071043980005 89.8653408457782 L 730.3743686707646 90.87436867076458 L 729.3653408457782 91.80710439800055 L 728.2862419151182 92.65779740156158 L 727.1437248825291 93.42120287619662 L 725.9448337454421 94.09261417329644 L 724.6969600663891 94.66789181894751 L 723.4077974015615 95.14348903516519 L 722.0852938674783 95.51647360695934 L 720.737603138204 95.7845459604149 L 719.3730341752373 95.94605334032974 L 718 96 L 716.6269658247627 95.94605334032974 L 715.262396861796 95.7845459604149 L 713.9147061325217 95.51647360695934 L 712.5922025984385 95.14348903516519 L 711.3030399336109 94.66789181894751 L 710.0551662545579 94.09261417329644 L 708.8562751174709 93.42120287619662 L 707.7137580848818 92.65779740156158 L 706.6346591542218 91.80710439800055 L 705.6256313292354 90.87436867076458 L 704.6928956019995 89.86534084577822 L 703.8422025984385 88.78624191511828 L 703.0787971238034 87.64372488252911 L 702.4073858267036 86.44483374544207 L 701.8321081810525 85.19696006638907 L 701.3565109648348 83.90779740156158 L 700.9835263930406 82.58529386747834 L 700.7154540395851 81.23760313820404 L 700.5539466596703 79.8730341752373 L 700.5 78.5 L 700.5539466596703 77.12696582476272 L 700.7154540395851 75.76239686179596 L 700.9835263930406 74.41470613252166 L 701.3565109648348 73.09220259843842 L 701.8321081810525 71.80303993361093 L 702.4073858267036 70.55516625455793 L 703.0787971238034 69.3562751174709 L 703.8422025984385 68.21375808488172 L 704.6928956019995 67.1346591542218 L 705.6256313292354 66.12563132923542 L 706.6346591542218 65.19289560199947 L 707.7137580848818 64.34220259843842 L 708.8562751174709 63.57879712380338 L 710.0551662545579 62.90738582670356 L 711.303039933611 62.332108181052476 L 712.5922025984385 61.856510964834804 L 713.9147061325217 61.48352639304065 L 715.262396861796 61.21545403958508 L 716.6269658247628 61.05394665967026 L 718.0000000000001 61 L 719.3730341752373 61.05394665967027 L 720.7376031382041 61.2154540395851 L 722.0852938674784 61.48352639304068 L 723.4077974015617 61.85651096483484 L 724.6969600663891 62.33210818105252 L 725.9448337454421 62.90738582670361 L 727.1437248825292 63.57879712380345 L 728.2862419151184 64.34220259843849 L 729.3653408457783 65.19289560199954 L 730.3743686707646 66.12563132923552 L 731.3071043980007 67.1346591542219 L 732.1577974015617 68.21375808488185 L 732.9212028761967 69.35627511747103 L 733.5926141732965 70.55516625455807 L 734.1678918189476 71.80303993361109 L 734.6434890351652 73.09220259843859 L 735.0164736069594 74.41470613252184 L 735.2845459604149 75.76239686179616 L 735.4460533403297 77.12696582476292 Z" fill-opacity="1" stroke-opacity="1" stroke-miterlimit="10" stroke-width="6"/><text fill="rgb(255,255,255)" stroke="none" font-family="times new roman" font-size="10px" font-style="normal" font-weight="normal" text-decoration="normal" x="718" y="83.5" text-anchor="middle" dominant-baseline="text-after-edge" fill-opacity="1">*39.2</text><path fill="rgb(69,90,100)" stroke="rgb(76,175,80)" paint-order="fill stroke markers" d=" M 1052.875 288.875 L 1052.8056400089954 290.6403296538765 L 1052.5979876633905 292.3947754634052 L 1052.2533232089477 294.12752068675786 L 1051.773771616641 295.8278823734363 L 1051.1622894815039 297.48537722821453 L 1050.4226467942383 299.0897862441398 L 1049.5594036979671 300.6312177061088 L 1048.5778823734363 302.10016817658067 L 1047.4841342260006 303.48758108742913 L 1046.2849025766973 304.78490257669733 L 1044.9875810874291 305.9841342260007 L 1043.6001681765806 307.0778823734363 L 1042.1312177061088 308.05940369796707 L 1040.5897862441398 308.9226467942383 L 1038.9853772282145 309.66228948150393 L 1037.3278823734363 310.27377161664094 L 1035.6275206867579 310.75332320894773 L 1033.8947754634053 311.0979876633906 L 1032.1403296538765 311.3056400089954 L 1030.375 311.375 L 1028.6096703461235 311.3056400089954 L 1026.8552245365947 311.0979876633906 L 1025.1224793132421 310.75332320894773 L 1023.4221176265637 310.27377161664094 L 1021.7646227717855 309.66228948150393 L 1020.1602137558602 308.9226467942383 L 1018.6187822938912 308.05940369796707 L 1017.1498318234194 307.0778823734363 L 1015.7624189125709 305.9841342260007 L 1014.4650974233027 304.78490257669733 L 1013.2658657739993 303.48758108742913 L 1012.1721176265637 302.10016817658067 L 1011.1905963020329 300.6312177061088 L 1010.3273532057617 299.0897862441398 L 1009.587710518496 297.48537722821453 L 1008.9762283833591 295.8278823734363 L 1008.4966767910523 294.12752068675786 L 1008.1520123366095 292.3947754634052 L 1007.9443599910046 290.6403296538765 L 1007.875 288.875 L 1007.9443599910046 287.1096703461235 L 1008.1520123366093 285.3552245365948 L 1008.4966767910523 283.62247931324214 L 1008.9762283833591 281.9221176265637 L 1009.587710518496 280.26462277178547 L 1010.3273532057617 278.6602137558602 L 1011.1905963020329 277.1187822938912 L 1012.1721176265637 275.64983182341933 L 1013.2658657739993 274.26241891257087 L 1014.4650974233027 272.96509742330267 L 1015.7624189125709 271.76586577399934 L 1017.1498318234194 270.6721176265637 L 1018.6187822938912 269.69059630203293 L 1020.1602137558602 268.8273532057617 L 1021.7646227717855 268.087710518496 L 1023.4221176265637 267.47622838335906 L 1025.1224793132421 266.99667679105227 L 1026.855224536595 266.6520123366094 L 1028.6096703461235 266.4443599910046 L 1030.375 266.375 L 1032.1403296538765 266.4443599910046 L 1033.8947754634053 266.6520123366094 L 1035.6275206867579 266.9966767910523 L 1037.3278823734365 267.47622838335906 L 1038.9853772282147 268.0877105184961 L 1040.58978624414 268.82735320576177 L 1042.131217706109 269.690596302033 L 1043.6001681765808 270.67211762656376 L 1044.9875810874294 271.7658657739994 L 1046.2849025766975 272.9650974233028 L 1047.4841342260008 274.262418912571 L 1048.5778823734365 275.6498318234195 L 1049.5594036979671 277.11878229389134 L 1050.4226467942383 278.6602137558604 L 1051.162289481504 280.2646227717857 L 1051.773771616641 281.92211762656393 L 1052.2533232089477 283.62247931324237 L 1052.5979876633905 285.3552245365951 L 1052.8056400089954 287.1096703461238 Z" fill-opacity="1" stroke-opacity="1" stroke-miterlimit="10" stroke-width="6"/><text fill="rgb(255,255,255)" stroke="none" font-family="times new roman" font-size="15px" font-style="normal" font-weight="normal" text-decoration="normal" x="1030.375" y="296.375" text-anchor="middle" dominant-baseline="text-after-edge" fill-opacity="1">*2</text><path fill="rgb(3,169,244)" stroke="none" paint-order="stroke fill markers" d=" M 1030.375 256.375 L 1054.875 256.375 L 1054.875 256.375 A 8 8 0 0 1 1062.875 264.375 L 1062.875 313.375 L 1062.875 313.375 A 8 8 0 0 1 1054.875 321.375 L 1005.875 321.375 L 1005.875 321.375 A 8 8 0 0 1 997.875 313.375 L 997.875 264.375 L 997.875 264.375 A 8 8 0 0 1 1005.875 256.375 L 1030.375 256.375 Z" fill-opacity="0.15"/><path fill="rgb(69,90,100)" stroke="rgb(76,175,80)" paint-order="fill stroke markers" d=" M 380.625 142 L 380.625 162 L 475.625 162 L 475.625 142 Z" fill-opacity="1" stroke-opacity="1" stroke-miterlimit="10" stroke-width="6"/><text fill="rgb(255,255,255)" stroke="none" font-family="times new roman" font-size="10px" font-style="normal" font-weight="normal" text-decoration="normal" x="428.125" y="157" text-anchor="middle" dominant-baseline="text-after-edge" fill-opacity="1">42130047G&gt;C</text><path fill="rgb(176,190,197)" stroke="none" paint-order="stroke fill markers" d=" M 353.6875 183.87500000000003 L 353.6875 393.875 L 428.6875 393.875 L 428.6875 183.87500000000006 Z" fill-opacity="0.8"/><text fill="rgb(0,0,0)" stroke="none" font-family="times new roman" font-size="10px" font-style="normal" font-weight="normal" text-decoration="normal" x="358.6875" y="198.875" text-anchor="start" dominant-baseline="text-after-edge" fill-opacity="0.8">42127001G&gt;A </text><text fill="rgb(0,0,0)" stroke="none" font-family="times new roman" font-size="10px" font-style="normal" font-weight="normal" text-decoration="normal" x="358.6875" y="208.875" text-anchor="start" dominant-baseline="text-after-edge" fill-opacity="0.8">42127207C&gt;T </text><text fill="rgb(0,0,0)" stroke="none" font-family="times new roman" font-size="10px" font-style="normal" font-weight="normal" text-decoration="normal" x="358.6875" y="218.875" text-anchor="start" dominant-baseline="text-after-edge" fill-opacity="0.8">42129130C&gt;G </text><text fill="rgb(0,0,0)" stroke="none" font-family="times new roman" font-size="10px" font-style="normal" font-weight="normal" text-decoration="normal" x="358.6875" y="228.875" text-anchor="start" dominant-baseline="text-after-edge" fill-opacity="0.8">42131469C&gt;T </text><text fill="rgb(0,0,0)" stroke="none" font-family="times new roman" font-size="10px" font-style="normal" font-weight="normal" text-decoration="normal" x="358.6875" y="238.875" text-anchor="start" dominant-baseline="text-after-edge" fill-opacity="0.8">42131531G&gt;A </text><text fill="rgb(0,0,0)" stroke="none" font-family="times new roman" font-size="10px" font-style="normal" font-weight="normal" text-decoration="normal" x="358.6875" y="248.875" text-anchor="start" dominant-baseline="text-after-edge" fill-opacity="0.8">42132026T&gt;C </text><text fill="rgb(0,0,0)" stroke="none" font-family="times new roman" font-size="10px" font-style="normal" font-weight="normal" text-decoration="normal" x="358.6875" y="258.875" text-anchor="start" dominant-baseline="text-after-edge" fill-opacity="0.8">42132375G&gt;C </text><path fill="rgb(176,190,197)" stroke="none" paint-order="stroke fill markers" d=" M 256.75 183.875 L 323.75 183.875 L 323.75 183.875 A 8 8 0 0 1 331.75 191.875 L 331.75 385.875 L 331.75 385.875 A 8 8 0 0 1 323.75 393.875 L 189.75 393.875 L 189.75 393.875 A 8 8 0 0 1 181.75 385.875 L 181.75 191.875 L 181.75 191.875 A 8 8 0 0 1 189.75 183.875 L 256.75 183.875 Z" fill-opacity="0.8"/><text fill="rgb(0,0,0)" stroke="none" font-family="times new roman" font-size="10px" font-style="normal" font-weight="normal" text-decoration="normal" x="186.75" y="198.875" text-anchor="start" dominant-baseline="text-after-edge" fill-opacity="0.8">42125924A&gt;G </text><text fill="rgb(0,0,0)" stroke="none" font-family="times new roman" font-size="10px" font-style="normal" font-weight="normal" text-decoration="normal" x="186.75" y="208.875" text-anchor="start" dominant-baseline="text-after-edge" fill-opacity="0.8">42126022C&gt;T </text><text fill="rgb(0,0,0)" stroke="none" font-family="times new roman" font-size="10px" font-style="normal" font-weight="normal" text-decoration="normal" x="186.75" y="218.875" text-anchor="start" dominant-baseline="text-after-edge" fill-opacity="0.8">42126069A&gt;C </text><text fill="rgb(0,0,0)" stroke="none" font-family="times new roman" font-size="10px" font-style="normal" font-weight="normal" text-decoration="normal" x="186.75" y="228.875" text-anchor="start" dominant-baseline="text-after-edge" fill-opacity="0.8">42132025_42132026insCCTTTT </text><text fill="rgb(0,0,0)" stroke="none" font-family="times new roman" font-size="10px" font-style="normal" font-weight="normal" text-decoration="normal" x="186.75" y="238.875" text-anchor="start" dominant-baseline="text-after-edge" fill-opacity="0.8">42132027C&gt;T </text><text fill="rgb(0,0,0)" stroke="none" font-family="times new roman" font-size="10px" font-style="normal" font-weight="normal" text-decoration="normal" x="186.75" y="248.875" text-anchor="start" dominant-baseline="text-after-edge" fill-opacity="0.8">42132561C&gt;T </text><text fill="rgb(0,0,0)" stroke="none" font-family="times new roman" font-size="10px" font-style="normal" font-weight="normal" text-decoration="normal" x="186.75" y="258.875" text-anchor="start" dominant-baseline="text-after-edge" fill-opacity="0.8">42132844C&gt;A </text><text fill="rgb(0,0,0)" stroke="none" font-family="times new roman" font-size="10px" font-style="normal" font-weight="normal" text-decoration="normal" x="186.75" y="268.875" text-anchor="start" dominant-baseline="text-after-edge" fill-opacity="0.8">42132851T&gt;C </text><text fill="rgb(0,0,0)" stroke="none" font-family="times new roman" font-size="10px" font-style="normal" font-weight="normal" text-decoration="normal" x="186.75" y="278.875" text-anchor="start" dominant-baseline="text-after-edge" fill-opacity="0.8">42133400T&gt;G </text><text fill="rgb(0,0,0)" stroke="none" font-family="times new roman" font-size="10px" font-style="normal" font-weight="normal" text-decoration="normal" x="186.75" y="288.875" text-anchor="start" dominant-baseline="text-after-edge" fill-opacity="0.8">42133533A&gt;C </text><text fill="rgb(0,0,0)" stroke="none" font-family="times new roman" font-size="10px" font-style="normal" font-weight="normal" text-decoration="normal" x="186.75" y="298.875" text-anchor="start" dominant-baseline="text-after-edge" fill-opacity="0.8">42134096del </text><text fill="rgb(0,0,0)" stroke="none" font-family="times new roman" font-size="10px" font-style="normal" font-weight="normal" text-decoration="normal" x="186.75" y="308.875" text-anchor="start" dominant-baseline="text-after-edge" fill-opacity="0.8">42134820T&gt;G </text><text fill="rgb(0,0,0)" stroke="none" font-family="times new roman" font-size="10px" font-style="normal" font-weight="normal" text-decoration="normal" x="186.75" y="318.875" text-anchor="start" dominant-baseline="text-after-edge" fill-opacity="0.8">42135064_42135066dup </text><text fill="rgb(0,0,0)" stroke="none" font-family="times new roman" font-size="10px" font-style="normal" font-weight="normal" text-decoration="normal" x="186.75" y="328.875" text-anchor="start" dominant-baseline="text-after-edge" fill-opacity="0.8">42135201T&gt;C </text><text fill="rgb(0,0,0)" stroke="none" font-family="times new roman" font-size="10px" font-style="normal" font-weight="normal" text-decoration="normal" x="186.75" y="338.875" text-anchor="start" dominant-baseline="text-after-edge" fill-opacity="0.8">42135691T&gt;C </text><g transform="scale(1.0185475444096133,1.0185475444096133) translate(117.88214926904334,-60.02513464991023)"/></g></svg>