<svg version="1.1" xmlns="http://www.w3.org/2000/svg" xmlns:xlink="http://www.w3.org/1999/xlink" width="1017" height="608"><defs/><g transform="translate(-51.31904260915314,-53.45397159389796) scale(1.1530773277222515,1.1530773277222515)"><path fill="none" stroke="rgb(120,144,156)" paint-order="fill stroke markers" d=" M 294.2344338556944 406.8900314628957 L 474.8267014979838 513.0673948505732" stroke-opacity="1" stroke-linejoin="round" stroke-miterlimit="10"/><path fill="rgb(120,144,156)" stroke="none" paint-order="stroke fill markers" d=" M 466.8462822932643 513.4215266296401 L 476.5507926058564 514.0810564567095 L 471.25571027995665 505.9217303103942 Z" fill-opacity="1"/><path fill="none" stroke="rgb(120,144,156)" paint-order="fill stroke markers" d=" M 189.37936592519142 189.5633726491661 L 211.25999753165632 228.19636282933067" stroke-opacity="1" stroke-linejoin="round" stroke-miterlimit="10"/><path fill="rgb(120,144,156)" stroke="none" paint-order="stroke fill markers" d=" M 204.1730397778267 224.51023616365106 L 212.24563407480858 229.9366273508339 L 211.74319044636573 220.2227172009387 Z" fill-opacity="1"/><path fill="none" stroke="rgb(120,144,156)" paint-order="fill stroke markers" d=" M 785.8125 263.125 L 785.8125 289.5" stroke-opacity="1" stroke-linejoin="round" stroke-miterlimit="10"/><path fill="rgb(120,144,156)" stroke="none" paint-order="stroke fill markers" d=" M 781.4625 282.8 L 785.8125 291.5 L 790.1625 282.8 Z" fill-opacity="1"/><path fill="none" stroke="rgb(55,71,79)" paint-order="fill stroke markers" d=" M 672.5625 265.125 L 672.5625 376" stroke-opacity="1" stroke-linejoin="round" stroke-miterlimit="10" stroke-width="2"/><path fill="none" stroke="rgb(120,144,156)" paint-order="fill stroke markers" d=" M 233.41672060036393 276.12952848652253 L 268.97054064673773 375.31953368836247" stroke-opacity="1" stroke-linejoin="round" stroke-miterlimit="10"/><path fill="rgb(120,144,156)" stroke="none" paint-order="stroke fill markers" d=" M 262.6149337079608 370.4802403060833 L 269.6453814781388 377.20224180495245 L 270.80471401512733 367.5446826894886 Z" fill-opacity="1"/><path fill="none" stroke="rgb(120,144,156)" paint-order="fill stroke markers" d=" M 448.22873376623374 265.125 L 492.12804984676774 375.59059928761826" stroke-opacity="1" stroke-linejoin="round" stroke-miterlimit="10"/><path fill="rgb(120,144,156)" stroke="none" paint-order="stroke fill markers" d=" M 485.6111961078559 370.9707381051117 L 492.8666676381662 377.4492126842744 L 493.6961643833102 367.7577507125286 Z" fill-opacity="1"/><path fill="none" stroke="rgb(120,144,156)" paint-order="fill stroke markers" d=" M 423.1875 439.5147058823529 L 482.99502447093 508.11745454018444" stroke-opacity="1" stroke-linejoin="round" stroke-miterlimit="10"/><path fill="rgb(120,144,156)" stroke="none" paint-order="stroke fill markers" d=" M 475.3133072529339 505.92571537168334 L 484.30929487179486 509.625 L 481.8711300031316 500.20863912792123 Z" fill-opacity="1"/><path fill="none" stroke="rgb(120,144,156)" paint-order="fill stroke markers" d=" M 500.4375 417 L 500.4375 507.625" stroke-opacity="1" stroke-linejoin="round" stroke-miterlimit="10"/><path fill="rgb(120,144,156)" stroke="none" paint-order="stroke fill markers" d=" M 496.0875 500.925 L 500.4375 509.625 L 504.7875 500.925 Z" fill-opacity="1"/><path fill="none" stroke="rgb(120,144,156)" paint-order="fill stroke markers" d=" M 656.2781644239675 408.9527272052013 L 523.4662333729044 510.5147921266025" stroke-opacity="1" stroke-linejoin="round" stroke-miterlimit="10"/><path fill="rgb(120,144,156)" stroke="none" paint-order="stroke fill markers" d=" M 526.1460228859187 502.98941983242736 L 521.87751770695 511.7296923417441 L 531.4308388217846 509.900332979329 Z" fill-opacity="1"/><path fill="none" stroke="rgb(120,144,156)" paint-order="fill stroke markers" d=" M 323.65275974025974 265.125 L 284.15445935326227 375.31953368836247" stroke-opacity="1" stroke-linejoin="round" stroke-miterlimit="10"/><path fill="rgb(120,144,156)" stroke="none" paint-order="stroke fill markers" d=" M 282.32028598487267 367.5446826894886 L 283.4796185218612 377.20224180495245 L 290.5100662920392 370.4802403060833 Z" fill-opacity="1"/><path fill="none" stroke="rgb(120,144,156)" paint-order="fill stroke markers" d=" M 552.6462662337663 265.125 L 508.74695015323226 375.59059928761826" stroke-opacity="1" stroke-linejoin="round" stroke-miterlimit="10"/><path fill="rgb(120,144,156)" stroke="none" paint-order="stroke fill markers" d=" M 507.1788356166898 367.7577507125286 L 508.0083323618338 377.4492126842744 L 515.2638038921441 370.9707381051117 Z" fill-opacity="1"/><path fill="none" stroke="rgb(55,71,79)" paint-order="fill stroke markers" d=" M 141.58431332623115 111.23902773936021 L 163.2579273259076 145.77584354372266" stroke-opacity="1" stroke-linejoin="round" stroke-miterlimit="10" stroke-width="2"/><path fill="none" stroke="rgb(55,71,79)" paint-order="fill stroke markers" d=" M 214.77933673469389 106.875 L 190.3670726740924 145.77584354372266" stroke-opacity="1" stroke-linejoin="round" stroke-miterlimit="10" stroke-width="2"/><path fill="none" stroke="rgb(120,144,156)" paint-order="fill stroke markers" d=" M 265.4496681415929 180.375 L 238.36500246834368 228.19636282933067" stroke-opacity="1" stroke-linejoin="round" stroke-miterlimit="10"/><path fill="rgb(120,144,156)" stroke="none" paint-order="stroke fill markers" d=" M 237.88180955363427 220.2227172009387 L 237.37936592519142 229.9366273508339 L 245.4519602221733 224.51023616365106 Z" fill-opacity="1"/><path fill="none" stroke="rgb(120,144,156)" paint-order="fill stroke markers" d=" M 710.8125 431.092641261498 L 528.2683029087207 515.2884535861223" stroke-opacity="1" stroke-linejoin="round" stroke-miterlimit="10"/><path fill="rgb(120,144,156)" stroke="none" paint-order="stroke fill markers" d=" M 532.5304170487688 508.53220588068683 L 526.4521746499322 516.1261158973374 L 536.1742481025545 516.4323638064162 Z" fill-opacity="1"/><path fill="rgb(69,90,100)" stroke="rgb(76,175,80)" paint-order="fill stroke markers" d=" M 690.0625 396.5 L 690.0085533403297 397.8730341752373 L 689.8470459604149 399.23760313820407 L 689.5789736069594 400.58529386747836 L 689.2059890351652 401.9077974015616 L 688.7303918189475 403.19696006638907 L 688.1551141732964 404.44483374544205 L 687.4837028761966 405.6437248825291 L 686.7202974015615 406.7862419151183 L 685.8696043980005 407.86534084577823 L 684.9368686707646 408.87436867076457 L 683.9278408457782 409.80710439800055 L 682.8487419151182 410.6577974015616 L 681.7062248825291 411.4212028761966 L 680.5073337454421 412.09261417329645 L 679.2594600663891 412.6678918189475 L 677.9702974015615 413.1434890351652 L 676.6477938674783 413.5164736069593 L 675.300103138204 413.7845459604149 L 673.9355341752373 413.94605334032974 L 672.5625 414 L 671.1894658247627 413.94605334032974 L 669.824896861796 413.7845459604149 L 668.4772061325217 413.5164736069593 L 667.1547025984385 413.1434890351652 L 665.8655399336109 412.6678918189475 L 664.6176662545579 412.09261417329645 L 663.4187751174709 411.4212028761966 L 662.2762580848818 410.6577974015616 L 661.1971591542218 409.80710439800055 L 660.1881313292354 408.87436867076457 L 659.2553956019995 407.86534084577823 L 658.4047025984385 406.7862419151183 L 657.6412971238034 405.6437248825291 L 656.9698858267036 404.44483374544205 L 656.3946081810525 403.19696006638907 L 655.9190109648348 401.9077974015616 L 655.5460263930406 400.58529386747836 L 655.2779540395851 399.23760313820407 L 655.1164466596703 397.8730341752373 L 655.0625 396.5 L 655.1164466596703 395.1269658247627 L 655.2779540395851 393.76239686179593 L 655.5460263930406 392.41470613252164 L 655.9190109648348 391.0922025984384 L 656.3946081810525 389.80303993361093 L 656.9698858267036 388.55516625455795 L 657.6412971238034 387.3562751174709 L 658.4047025984385 386.2137580848817 L 659.2553956019995 385.13465915422177 L 660.1881313292354 384.12563132923543 L 661.1971591542218 383.19289560199945 L 662.2762580848818 382.3422025984384 L 663.4187751174709 381.5787971238034 L 664.6176662545579 380.90738582670355 L 665.865539933611 380.3321081810525 L 667.1547025984385 379.8565109648348 L 668.4772061325217 379.4835263930407 L 669.824896861796 379.2154540395851 L 671.1894658247628 379.05394665967026 L 672.5625000000001 379 L 673.9355341752373 379.05394665967026 L 675.3001031382041 379.2154540395851 L 676.6477938674784 379.4835263930407 L 677.9702974015617 379.85651096483485 L 679.2594600663891 380.3321081810525 L 680.5073337454421 380.9073858267036 L 681.7062248825292 381.57879712380344 L 682.8487419151184 382.3422025984385 L 683.9278408457783 383.19289560199957 L 684.9368686707646 384.1256313292355 L 685.8696043980007 385.1346591542219 L 686.7202974015617 386.2137580848818 L 687.4837028761967 387.35627511747106 L 688.1551141732965 388.55516625455806 L 688.7303918189476 389.8030399336111 L 689.2059890351652 391.0922025984386 L 689.5789736069594 392.4147061325218 L 689.8470459604149 393.76239686179616 L 690.0085533403297 395.1269658247629 Z" fill-opacity="1" stroke-opacity="1" stroke-miterlimit="10" stroke-width="6"/><text fill="rgb(255,255,255)" stroke="none" font-family="times new roman" font-size="10px" font-style="normal" font-weight="normal" text-decoration="normal" x="672.5625" y="401.5" text-anchor="middle" dominant-baseline="text-after-edge" fill-opacity="1">*1.41</text><path fill="rgb(69,90,100)" stroke="rgb(76,175,80)" paint-order="fill stroke markers" d=" M 510.3125 242.125 L 510.3125 262.125 L 605.3125 262.125 L 605.3125 242.125 Z" fill-opacity="1" stroke-opacity="1" stroke-miterlimit="10" stroke-width="6"/><text fill="rgb(255,255,255)" stroke="none" font-family="times new roman" font-size="10px" font-style="normal" font-weight="normal" text-decoration="normal" x="557.8125" y="257.125" text-anchor="middle" dominant-baseline="text-after-edge" fill-opacity="1">42129950A&gt;C</text><path fill="rgb(69,90,100)" stroke="rgb(76,175,80)" paint-order="fill stroke markers" d=" M 395.5625 242.125 L 395.5625 262.125 L 490.5625 262.125 L 490.5625 242.125 Z" fill-opacity="1" stroke-opacity="1" stroke-miterlimit="10" stroke-width="6"/><text fill="rgb(255,255,255)" stroke="none" font-family="times new roman" font-size="10px" font-style="normal" font-weight="normal" text-decoration="normal" x="443.0625" y="257.125" text-anchor="middle" dominant-baseline="text-after-edge" fill-opacity="1">42130482C&gt;A</text><path fill="rgb(69,90,100)" stroke="rgb(255,193,7)" paint-order="fill stroke markers" d=" M 247.3125 252.125 L 247.24314000899537 253.8903296538765 L 247.0354876633906 255.64477546340518 L 246.69082320894773 257.37752068675786 L 246.21127161664094 259.0778823734363 L 245.59978948150396 260.73537722821453 L 244.8601467942383 262.3397862441398 L 243.99690369796707 263.8812177061088 L 243.01538237343632 265.35016817658067 L 241.9216342260007 266.73758108742913 L 240.72240257669733 268.03490257669733 L 239.42508108742913 269.2341342260007 L 238.03766817658064 270.3278823734363 L 236.56871770610886 271.30940369796707 L 235.02728624413982 272.1726467942383 L 233.42287722821453 272.91228948150393 L 231.76538237343632 273.52377161664094 L 230.06502068675786 274.00332320894773 L 228.33227546340518 274.3479876633906 L 226.5778296538765 274.5556400089954 L 224.8125 274.625 L 223.0471703461235 274.5556400089954 L 221.29272453659482 274.3479876633906 L 219.55997931324214 274.00332320894773 L 217.85961762656368 273.52377161664094 L 216.20212277178547 272.91228948150393 L 214.5977137558602 272.1726467942383 L 213.05628229389114 271.30940369796707 L 211.58733182341936 270.3278823734363 L 210.19991891257087 269.2341342260007 L 208.9025974233027 268.03490257669733 L 207.7033657739993 266.73758108742913 L 206.60961762656368 265.35016817658067 L 205.62809630203293 263.8812177061088 L 204.7648532057617 262.3397862441398 L 204.02521051849604 260.73537722821453 L 203.41372838335906 259.0778823734363 L 202.93417679105227 257.37752068675786 L 202.5895123366094 255.6447754634052 L 202.38185999100463 253.8903296538765 L 202.3125 252.125 L 202.38185999100463 250.3596703461235 L 202.5895123366094 248.60522453659482 L 202.93417679105227 246.87247931324214 L 203.41372838335906 245.17211762656368 L 204.02521051849604 243.51462277178547 L 204.7648532057617 241.9102137558602 L 205.62809630203293 240.36878229389114 L 206.60961762656368 238.89983182341936 L 207.7033657739993 237.51241891257087 L 208.90259742330267 236.2150974233027 L 210.19991891257087 235.0158657739993 L 211.58733182341936 233.92211762656368 L 213.05628229389114 232.94059630203293 L 214.5977137558602 232.0773532057617 L 216.2021227717855 231.33771051849604 L 217.8596176265637 230.72622838335903 L 219.55997931324217 230.24667679105227 L 221.29272453659485 229.9020123366094 L 223.04717034612355 229.6943599910046 L 224.81250000000009 229.625 L 226.5778296538766 229.69435999100463 L 228.3322754634053 229.9020123366094 L 230.06502068675798 230.2466767910523 L 231.76538237343644 230.72622838335909 L 233.42287722821465 231.3377105184961 L 235.02728624413993 232.0773532057618 L 236.56871770610897 232.940596302033 L 238.03766817658078 233.92211762656376 L 239.42508108742925 235.01586577399942 L 240.72240257669745 236.2150974233028 L 241.9216342260008 237.512418912571 L 243.01538237343644 238.8998318234195 L 243.99690369796718 240.36878229389131 L 244.86014679423837 241.91021375586038 L 245.59978948150405 243.5146227717857 L 246.21127161664103 245.1721176265639 L 246.6908232089478 246.87247931324237 L 247.03548766339065 248.60522453659505 L 247.2431400089954 250.35967034612375 Z" fill-opacity="1" stroke-opacity="1" stroke-miterlimit="10" stroke-width="6"/><text fill="rgb(255,255,255)" stroke="none" font-family="times new roman" font-size="15px" font-style="normal" font-weight="normal" text-decoration="normal" x="224.8125" y="259.625" text-anchor="middle" dominant-baseline="text-after-edge" fill-opacity="1">*10</text><path fill="rgb(3,169,244)" stroke="none" paint-order="stroke fill markers" d=" M 224.8125 219.625 L 249.3125 219.625 L 249.3125 219.625 A 8 8 0 0 1 257.3125 227.625 L 257.3125 276.625 L 257.3125 276.625 A 8 8 0 0 1 249.3125 284.625 L 200.3125 284.625 L 200.3125 284.625 A 8 8 0 0 1 192.3125 276.625 L 192.3125 227.625 L 192.3125 227.625 A 8 8 0 0 1 200.3125 219.625 L 224.8125 219.625 Z" fill-opacity="0.15"/><path fill="rgb(69,90,100)" stroke="rgb(255,193,7)" paint-order="fill stroke markers" d=" M 225.3125 157.375 L 225.3125 177.375 L 320.3125 177.375 L 320.3125 157.375 Z" fill-opacity="1" stroke-opacity="1" stroke-miterlimit="10" stroke-width="6"/><text fill="rgb(255,255,255)" stroke="none" font-family="times new roman" font-size="10px" font-style="normal" font-weight="normal" text-decoration="normal" x="272.8125" y="172.375" text-anchor="middle" dominant-baseline="text-after-edge" fill-opacity="1">42130692G&gt;A</text><path fill="rgb(69,90,100)" stroke="rgb(76,175,80)" paint-order="fill stroke markers" d=" M 148.1875 93.875 L 148.13355334032974 95.24803417523728 L 147.9720459604149 96.61260313820404 L 147.70397360695935 97.96029386747834 L 147.33098903516517 99.28279740156158 L 146.8553918189475 100.57196006638907 L 146.28011417329643 101.81983374544207 L 145.60870287619662 103.0187248825291 L 144.8452974015616 104.16124191511828 L 143.99460439800055 105.2403408457782 L 143.06186867076457 106.24936867076458 L 142.0528408457782 107.18210439800055 L 140.97374191511827 108.03279740156158 L 139.8312248825291 108.79620287619662 L 138.63233374544208 109.46761417329644 L 137.38446006638907 110.04289181894751 L 136.0952974015616 110.51848903516519 L 134.77279386747836 110.89147360695934 L 133.42510313820404 111.1595459604149 L 132.06053417523728 111.32105334032974 L 130.6875 111.375 L 129.31446582476272 111.32105334032974 L 127.94989686179596 111.1595459604149 L 126.60220613252166 110.89147360695934 L 125.27970259843842 110.51848903516519 L 123.99053993361093 110.04289181894751 L 122.74266625455793 109.46761417329644 L 121.5437751174709 108.79620287619662 L 120.40125808488172 108.03279740156158 L 119.3221591542218 107.18210439800055 L 118.31313132923542 106.24936867076458 L 117.38039560199945 105.24034084577822 L 116.52970259843842 104.16124191511828 L 115.76629712380338 103.01872488252911 L 115.09488582670356 101.81983374544207 L 114.51960818105249 100.57196006638907 L 114.04401096483481 99.28279740156158 L 113.67102639304066 97.96029386747834 L 113.4029540395851 96.61260313820404 L 113.24144665967026 95.2480341752373 L 113.1875 93.875 L 113.24144665967026 92.50196582476272 L 113.4029540395851 91.13739686179596 L 113.67102639304066 89.78970613252166 L 114.04401096483481 88.46720259843842 L 114.51960818105248 87.17803993361093 L 115.09488582670356 85.93016625455793 L 115.76629712380338 84.7312751174709 L 116.52970259843842 83.58875808488172 L 117.38039560199945 82.5096591542218 L 118.31313132923542 81.50063132923542 L 119.32215915422178 80.56789560199947 L 120.40125808488172 79.71720259843842 L 121.5437751174709 78.95379712380338 L 122.74266625455795 78.28238582670356 L 123.99053993361095 77.70710818105248 L 125.27970259843845 77.2315109648348 L 126.60220613252169 76.85852639304065 L 127.949896861796 76.59045403958508 L 129.31446582476278 76.42894665967026 L 130.68750000000006 76.375 L 132.06053417523736 76.42894665967026 L 133.42510313820412 76.5904540395851 L 134.7727938674784 76.85852639304068 L 136.09529740156165 77.23151096483484 L 137.38446006638915 77.70710818105252 L 138.63233374544217 78.2823858267036 L 139.8312248825292 78.95379712380344 L 140.97374191511838 79.71720259843849 L 142.05284084577832 80.56789560199954 L 143.06186867076468 81.50063132923552 L 143.99460439800063 82.5096591542219 L 144.84529740156168 83.58875808488185 L 145.6087028761967 84.73127511747103 L 146.2801141732965 85.93016625455807 L 146.8553918189476 87.17803993361109 L 147.33098903516523 88.46720259843859 L 147.70397360695938 89.78970613252184 L 147.97204596041493 91.13739686179616 L 148.13355334032974 92.50196582476292 Z" fill-opacity="1" stroke-opacity="1" stroke-miterlimit="10" stroke-width="6"/><text fill="rgb(255,255,255)" stroke="none" font-family="times new roman" font-size="10px" font-style="normal" font-weight="normal" text-decoration="normal" x="130.6875" y="98.875" text-anchor="middle" dominant-baseline="text-after-edge" fill-opacity="1">*39.2</text><path fill="rgb(69,90,100)" stroke="rgb(255,193,7)" paint-order="fill stroke markers" d=" M 175.4375 83.875 L 175.4375 103.875 L 270.4375 103.875 L 270.4375 83.875 Z" fill-opacity="1" stroke-opacity="1" stroke-miterlimit="10" stroke-width="6"/><text fill="rgb(255,255,255)" stroke="none" font-family="times new roman" font-size="10px" font-style="normal" font-weight="normal" text-decoration="normal" x="222.9375" y="98.875" text-anchor="middle" dominant-baseline="text-after-edge" fill-opacity="1">42126611C&gt;G</text><path fill="rgb(69,90,100)" stroke="rgb(255,193,7)" paint-order="fill stroke markers" d=" M 294.0625 396.5 L 294.00855334032974 397.8730341752373 L 293.8470459604149 399.23760313820407 L 293.5789736069593 400.58529386747836 L 293.2059890351652 401.9077974015616 L 292.7303918189475 403.19696006638907 L 292.15511417329645 404.44483374544205 L 291.4837028761966 405.6437248825291 L 290.7202974015616 406.7862419151183 L 289.86960439800055 407.86534084577823 L 288.93686867076457 408.87436867076457 L 287.92784084577823 409.80710439800055 L 286.8487419151183 410.6577974015616 L 285.7062248825291 411.4212028761966 L 284.50733374544205 412.09261417329645 L 283.25946006638907 412.6678918189475 L 281.9702974015616 413.1434890351652 L 280.64779386747836 413.5164736069593 L 279.30010313820407 413.7845459604149 L 277.9355341752373 413.94605334032974 L 276.5625 414 L 275.1894658247627 413.94605334032974 L 273.82489686179593 413.7845459604149 L 272.47720613252164 413.5164736069593 L 271.1547025984384 413.1434890351652 L 269.86553993361093 412.6678918189475 L 268.61766625455795 412.09261417329645 L 267.4187751174709 411.4212028761966 L 266.2762580848817 410.6577974015616 L 265.19715915422177 409.80710439800055 L 264.18813132923543 408.87436867076457 L 263.25539560199945 407.86534084577823 L 262.4047025984384 406.7862419151183 L 261.6412971238034 405.6437248825291 L 260.96988582670355 404.44483374544205 L 260.3946081810525 403.19696006638907 L 259.9190109648348 401.9077974015616 L 259.5460263930407 400.58529386747836 L 259.2779540395851 399.23760313820407 L 259.11644665967026 397.8730341752373 L 259.0625 396.5 L 259.11644665967026 395.1269658247627 L 259.2779540395851 393.76239686179593 L 259.5460263930407 392.41470613252164 L 259.9190109648348 391.0922025984384 L 260.3946081810525 389.80303993361093 L 260.96988582670355 388.55516625455795 L 261.6412971238034 387.3562751174709 L 262.4047025984384 386.2137580848817 L 263.25539560199945 385.13465915422177 L 264.18813132923543 384.12563132923543 L 265.19715915422177 383.19289560199945 L 266.2762580848817 382.3422025984384 L 267.4187751174709 381.5787971238034 L 268.61766625455795 380.90738582670355 L 269.86553993361093 380.3321081810525 L 271.15470259843846 379.8565109648348 L 272.4772061325217 379.4835263930407 L 273.824896861796 379.2154540395851 L 275.18946582476275 379.05394665967026 L 276.56250000000006 379 L 277.93553417523736 379.05394665967026 L 279.3001031382041 379.2154540395851 L 280.6477938674784 379.4835263930407 L 281.97029740156165 379.85651096483485 L 283.2594600663892 380.3321081810525 L 284.50733374544217 380.9073858267036 L 285.7062248825292 381.57879712380344 L 286.84874191511835 382.3422025984385 L 287.9278408457783 383.19289560199957 L 288.9368686707647 384.1256313292355 L 289.86960439800066 385.1346591542219 L 290.72029740156165 386.2137580848818 L 291.4837028761967 387.35627511747106 L 292.1551141732965 388.55516625455806 L 292.73039181894757 389.8030399336111 L 293.20598903516526 391.0922025984386 L 293.5789736069594 392.4147061325218 L 293.84704596041496 393.76239686179616 L 294.00855334032974 395.1269658247629 Z" fill-opacity="1" stroke-opacity="1" stroke-miterlimit="10" stroke-width="6"/><text fill="rgb(255,255,255)" stroke="none" font-family="times new roman" font-size="10px" font-style="normal" font-weight="normal" text-decoration="normal" x="276.5625" y="401.5" text-anchor="middle" dominant-baseline="text-after-edge" fill-opacity="1">*10.1</text><path fill="rgb(69,90,100)" stroke="rgb(69,90,100)" paint-order="fill stroke markers" d=" M 481.6875 510.625 L 462.9375 528.125 L 481.6875 545.625 L 519.1875 545.625 L 537.9375 528.125 L 519.1875 510.625 Z" fill-opacity="1" stroke-opacity="1" stroke-miterlimit="10" stroke-width="2"/><text fill="rgb(255,255,255)" stroke="none" font-family="times new roman" font-size="10px" font-style="normal" font-weight="normal" text-decoration="normal" x="500.4375" y="533.125" text-anchor="middle" dominant-baseline="text-after-edge" fill-opacity="1">NA18617-all</text><path fill="rgb(69,90,100)" stroke="rgb(76,175,80)" paint-order="fill stroke markers" d=" M 280.8125 242.125 L 280.8125 262.125 L 375.8125 262.125 L 375.8125 242.125 Z" fill-opacity="1" stroke-opacity="1" stroke-miterlimit="10" stroke-width="6"/><text fill="rgb(255,255,255)" stroke="none" font-family="times new roman" font-size="10px" font-style="normal" font-weight="normal" text-decoration="normal" x="328.3125" y="257.125" text-anchor="middle" dominant-baseline="text-after-edge" fill-opacity="1">42129130C&gt;G</text><path fill="rgb(69,90,100)" stroke="rgb(76,175,80)" paint-order="fill stroke markers" d=" M 199.3125 167.375 L 199.24314000899537 169.1403296538765 L 199.0354876633906 170.89477546340518 L 198.69082320894773 172.62752068675786 L 198.21127161664094 174.32788237343632 L 197.59978948150396 175.98537722821453 L 196.8601467942383 177.58978624413982 L 195.99690369796707 179.13121770610886 L 195.01538237343632 180.60016817658064 L 193.9216342260007 181.98758108742913 L 192.72240257669733 183.2849025766973 L 191.42508108742913 184.4841342260007 L 190.03766817658064 185.57788237343632 L 188.56871770610886 186.55940369796707 L 187.02728624413982 187.4226467942383 L 185.42287722821453 188.16228948150396 L 183.76538237343632 188.77377161664094 L 182.06502068675786 189.25332320894773 L 180.33227546340518 189.5979876633906 L 178.5778296538765 189.80564000899537 L 176.8125 189.875 L 175.0471703461235 189.80564000899537 L 173.29272453659482 189.5979876633906 L 171.55997931324214 189.25332320894773 L 169.85961762656368 188.77377161664094 L 168.20212277178547 188.16228948150396 L 166.5977137558602 187.4226467942383 L 165.05628229389114 186.55940369796707 L 163.58733182341936 185.57788237343632 L 162.19991891257087 184.4841342260007 L 160.9025974233027 183.28490257669733 L 159.7033657739993 181.98758108742913 L 158.60961762656368 180.60016817658064 L 157.62809630203293 179.13121770610886 L 156.7648532057617 177.58978624413982 L 156.02521051849604 175.98537722821453 L 155.41372838335906 174.32788237343632 L 154.93417679105227 172.62752068675786 L 154.5895123366094 170.8947754634052 L 154.38185999100463 169.1403296538765 L 154.3125 167.375 L 154.38185999100463 165.6096703461235 L 154.5895123366094 163.85522453659482 L 154.93417679105227 162.12247931324214 L 155.41372838335906 160.42211762656368 L 156.02521051849604 158.76462277178547 L 156.7648532057617 157.1602137558602 L 157.62809630203293 155.61878229389114 L 158.60961762656368 154.14983182341936 L 159.7033657739993 152.76241891257087 L 160.90259742330267 151.4650974233027 L 162.19991891257087 150.2658657739993 L 163.58733182341936 149.17211762656368 L 165.05628229389114 148.19059630203293 L 166.5977137558602 147.3273532057617 L 168.2021227717855 146.58771051849604 L 169.8596176265637 145.97622838335903 L 171.55997931324217 145.49667679105227 L 173.29272453659485 145.1520123366094 L 175.04717034612355 144.9443599910046 L 176.81250000000009 144.875 L 178.5778296538766 144.94435999100463 L 180.3322754634053 145.1520123366094 L 182.06502068675798 145.4966767910523 L 183.76538237343644 145.97622838335909 L 185.42287722821465 146.5877105184961 L 187.02728624413993 147.3273532057618 L 188.56871770610897 148.190596302033 L 190.03766817658078 149.17211762656376 L 191.42508108742925 150.26586577399942 L 192.72240257669745 151.4650974233028 L 193.9216342260008 152.762418912571 L 195.01538237343644 154.1498318234195 L 195.99690369796718 155.61878229389131 L 196.86014679423837 157.16021375586038 L 197.59978948150405 158.7646227717857 L 198.21127161664103 160.4221176265639 L 198.6908232089478 162.12247931324237 L 199.03548766339065 163.85522453659505 L 199.2431400089954 165.60967034612375 Z" fill-opacity="1" stroke-opacity="1" stroke-miterlimit="10" stroke-width="6"/><text fill="rgb(255,255,255)" stroke="none" font-family="times new roman" font-size="15px" font-style="normal" font-weight="normal" text-decoration="normal" x="176.8125" y="174.875" text-anchor="middle" dominant-baseline="text-after-edge" fill-opacity="1">*39</text><path fill="rgb(69,90,100)" stroke="rgb(76,175,80)" paint-order="fill stroke markers" d=" M 625.0625 242.125 L 625.0625 262.125 L 720.0625 262.125 L 720.0625 242.125 Z" fill-opacity="1" stroke-opacity="1" stroke-miterlimit="10" stroke-width="6"/><text fill="rgb(255,255,255)" stroke="none" font-family="times new roman" font-size="10px" font-style="normal" font-weight="normal" text-decoration="normal" x="672.5625" y="257.125" text-anchor="middle" dominant-baseline="text-after-edge" fill-opacity="1">42127407T&gt;G</text><path fill="rgb(69,90,100)" stroke="rgb(76,175,80)" paint-order="fill stroke markers" d=" M 517.9375 396.5 L 517.8835533403297 397.8730341752373 L 517.7220459604149 399.23760313820407 L 517.4539736069594 400.58529386747836 L 517.0809890351652 401.9077974015616 L 516.6053918189475 403.19696006638907 L 516.0301141732964 404.44483374544205 L 515.3587028761966 405.6437248825291 L 514.5952974015615 406.7862419151183 L 513.7446043980005 407.86534084577823 L 512.8118686707646 408.87436867076457 L 511.80284084577823 409.80710439800055 L 510.7237419151183 410.6577974015616 L 509.5812248825291 411.4212028761966 L 508.38233374544205 412.09261417329645 L 507.13446006638907 412.6678918189475 L 505.8452974015616 413.1434890351652 L 504.52279386747836 413.5164736069593 L 503.17510313820407 413.7845459604149 L 501.8105341752373 413.94605334032974 L 500.4375 414 L 499.0644658247627 413.94605334032974 L 497.69989686179593 413.7845459604149 L 496.35220613252164 413.5164736069593 L 495.0297025984384 413.1434890351652 L 493.74053993361093 412.6678918189475 L 492.49266625455795 412.09261417329645 L 491.2937751174709 411.4212028761966 L 490.1512580848817 410.6577974015616 L 489.07215915422177 409.80710439800055 L 488.06313132923543 408.87436867076457 L 487.13039560199945 407.86534084577823 L 486.2797025984384 406.7862419151183 L 485.5162971238034 405.6437248825291 L 484.84488582670355 404.44483374544205 L 484.2696081810525 403.19696006638907 L 483.7940109648348 401.9077974015616 L 483.4210263930407 400.58529386747836 L 483.1529540395851 399.23760313820407 L 482.99144665967026 397.8730341752373 L 482.9375 396.5 L 482.99144665967026 395.1269658247627 L 483.1529540395851 393.76239686179593 L 483.4210263930407 392.41470613252164 L 483.7940109648348 391.0922025984384 L 484.2696081810525 389.80303993361093 L 484.84488582670355 388.55516625455795 L 485.5162971238034 387.3562751174709 L 486.2797025984384 386.2137580848817 L 487.13039560199945 385.13465915422177 L 488.06313132923543 384.12563132923543 L 489.07215915422177 383.19289560199945 L 490.1512580848817 382.3422025984384 L 491.2937751174709 381.5787971238034 L 492.49266625455795 380.90738582670355 L 493.74053993361093 380.3321081810525 L 495.02970259843846 379.8565109648348 L 496.3522061325217 379.4835263930407 L 497.699896861796 379.2154540395851 L 499.06446582476275 379.05394665967026 L 500.43750000000006 379 L 501.81053417523736 379.05394665967026 L 503.1751031382041 379.2154540395851 L 504.5227938674784 379.4835263930407 L 505.84529740156165 379.85651096483485 L 507.1344600663892 380.3321081810525 L 508.38233374544217 380.9073858267036 L 509.5812248825292 381.57879712380344 L 510.72374191511835 382.3422025984385 L 511.8028408457783 383.19289560199957 L 512.8118686707646 384.1256313292355 L 513.7446043980007 385.1346591542219 L 514.5952974015617 386.2137580848818 L 515.3587028761967 387.35627511747106 L 516.0301141732965 388.55516625455806 L 516.6053918189476 389.8030399336111 L 517.0809890351652 391.0922025984386 L 517.4539736069594 392.4147061325218 L 517.7220459604149 393.76239686179616 L 517.8835533403297 395.1269658247629 Z" fill-opacity="1" stroke-opacity="1" stroke-miterlimit="10" stroke-width="6"/><text fill="rgb(255,255,255)" stroke="none" font-family="times new roman" font-size="10px" font-style="normal" font-weight="normal" text-decoration="normal" x="500.4375" y="401.5" text-anchor="middle" dominant-baseline="text-after-edge" fill-opacity="1">*1.58</text><path fill="rgb(69,90,100)" stroke="rgb(76,175,80)" paint-order="fill stroke markers" d=" M 785.8125 242.125 L 828.3125 242.125 L 828.3125 242.125 A 5 5 0 0 1 833.3125 247.125 L 833.3125 257.125 L 833.3125 257.125 A 5 5 0 0 1 828.3125 262.125 L 743.3125 262.125 L 743.3125 262.125 A 5 5 0 0 1 738.3125 257.125 L 738.3125 247.125 L 738.3125 247.125 A 5 5 0 0 1 743.3125 242.125 L 785.8125 242.125 Z" fill-opacity="1" stroke-opacity="1" stroke-miterlimit="10" stroke-width="2"/><text fill="rgb(255,255,255)" stroke="none" font-family="times new roman" font-size="10px" font-style="normal" font-weight="normal" text-decoration="normal" x="785.8125" y="257.125" text-anchor="middle" dominant-baseline="text-after-edge" fill-opacity="1">42132049dup</text><path fill="rgb(176,190,197)" stroke="none" paint-order="stroke fill markers" d=" M 348.1875 291.5 L 348.1875 501.5 L 423.1875 501.5 L 423.1875 291.50000000000006 Z" fill-opacity="0.8"/><text fill="rgb(0,0,0)" stroke="none" font-family="times new roman" font-size="10px" font-style="normal" font-weight="normal" text-decoration="normal" x="353.1875" y="306.5" text-anchor="start" dominant-baseline="text-after-edge" fill-opacity="0.8">42126390G&gt;A </text><text fill="rgb(0,0,0)" stroke="none" font-family="times new roman" font-size="10px" font-style="normal" font-weight="normal" text-decoration="normal" x="353.1875" y="316.5" text-anchor="start" dominant-baseline="text-after-edge" fill-opacity="0.8">42127209T&gt;C </text><text fill="rgb(0,0,0)" stroke="none" font-family="times new roman" font-size="10px" font-style="normal" font-weight="normal" text-decoration="normal" x="353.1875" y="326.5" text-anchor="start" dominant-baseline="text-after-edge" fill-opacity="0.8">42128694T&gt;C </text><text fill="rgb(0,0,0)" stroke="none" font-family="times new roman" font-size="10px" font-style="normal" font-weight="normal" text-decoration="normal" x="353.1875" y="336.5" text-anchor="start" dominant-baseline="text-after-edge" fill-opacity="0.8">42129754G&gt;A </text><text fill="rgb(0,0,0)" stroke="none" font-family="times new roman" font-size="10px" font-style="normal" font-weight="normal" text-decoration="normal" x="353.1875" y="346.5" text-anchor="start" dominant-baseline="text-after-edge" fill-opacity="0.8">42131791C&gt;T </text><text fill="rgb(0,0,0)" stroke="none" font-family="times new roman" font-size="10px" font-style="normal" font-weight="normal" text-decoration="normal" x="353.1875" y="356.5" text-anchor="start" dominant-baseline="text-after-edge" fill-opacity="0.8">42132217G&gt;A </text><path fill="rgb(176,190,197)" stroke="none" paint-order="stroke fill markers" d=" M 785.8125 291.5 L 852.8125 291.5 L 852.8125 291.5 A 8 8 0 0 1 860.8125 299.5 L 860.8125 493.5 L 860.8125 493.5 A 8 8 0 0 1 852.8125 501.5 L 718.8125 501.5 L 718.8125 501.5 A 8 8 0 0 1 710.8125 493.5 L 710.8125 299.5 L 710.8125 299.5 A 8 8 0 0 1 718.8125 291.5 L 785.8125 291.5 Z" fill-opacity="0.8"/><text fill="rgb(0,0,0)" stroke="none" font-family="times new roman" font-size="10px" font-style="normal" font-weight="normal" text-decoration="normal" x="715.8125" y="306.5" text-anchor="start" dominant-baseline="text-after-edge" fill-opacity="0.8">42125572G&gt;A </text><text fill="rgb(0,0,0)" stroke="none" font-family="times new roman" font-size="10px" font-style="normal" font-weight="normal" text-decoration="normal" x="715.8125" y="316.5" text-anchor="start" dominant-baseline="text-after-edge" fill-opacity="0.8">42125924A&gt;G </text><text fill="rgb(0,0,0)" stroke="none" font-family="times new roman" font-size="10px" font-style="normal" font-weight="normal" text-decoration="normal" x="715.8125" y="326.5" text-anchor="start" dominant-baseline="text-after-edge" fill-opacity="0.8">42125980T&gt;C </text><text fill="rgb(0,0,0)" stroke="none" font-family="times new roman" font-size="10px" font-style="normal" font-weight="normal" text-decoration="normal" x="715.8125" y="336.5" text-anchor="start" dominant-baseline="text-after-edge" fill-opacity="0.8">42126069A&gt;C </text><text fill="rgb(0,0,0)" stroke="none" font-family="times new roman" font-size="10px" font-style="normal" font-weight="normal" text-decoration="normal" x="715.8125" y="346.5" text-anchor="start" dominant-baseline="text-after-edge" fill-opacity="0.8">42132027C&gt;T </text><text fill="rgb(0,0,0)" stroke="none" font-family="times new roman" font-size="10px" font-style="normal" font-weight="normal" text-decoration="normal" x="715.8125" y="356.5" text-anchor="start" dominant-baseline="text-after-edge" fill-opacity="0.8">42132844C&gt;A </text><text fill="rgb(0,0,0)" stroke="none" font-family="times new roman" font-size="10px" font-style="normal" font-weight="normal" text-decoration="normal" x="715.8125" y="366.5" text-anchor="start" dominant-baseline="text-after-edge" fill-opacity="0.8">42132851T&gt;C </text><text fill="rgb(0,0,0)" stroke="none" font-family="times new roman" font-size="10px" font-style="normal" font-weight="normal" text-decoration="normal" x="715.8125" y="376.5" text-anchor="start" dominant-baseline="text-after-edge" fill-opacity="0.8">42132969C&gt;T </text><text fill="rgb(0,0,0)" stroke="none" font-family="times new roman" font-size="10px" font-style="normal" font-weight="normal" text-decoration="normal" x="715.8125" y="386.5" text-anchor="start" dominant-baseline="text-after-edge" fill-opacity="0.8">42133212A&gt;G </text><text fill="rgb(0,0,0)" stroke="none" font-family="times new roman" font-size="10px" font-style="normal" font-weight="normal" text-decoration="normal" x="715.8125" y="396.5" text-anchor="start" dominant-baseline="text-after-edge" fill-opacity="0.8">42133314C&gt;T </text><text fill="rgb(0,0,0)" stroke="none" font-family="times new roman" font-size="10px" font-style="normal" font-weight="normal" text-decoration="normal" x="715.8125" y="406.5" text-anchor="start" dominant-baseline="text-after-edge" fill-opacity="0.8">42133400T&gt;G </text><text fill="rgb(0,0,0)" stroke="none" font-family="times new roman" font-size="10px" font-style="normal" font-weight="normal" text-decoration="normal" x="715.8125" y="416.5" text-anchor="start" dominant-baseline="text-after-edge" fill-opacity="0.8">42134096del </text><text fill="rgb(0,0,0)" stroke="none" font-family="times new roman" font-size="10px" font-style="normal" font-weight="normal" text-decoration="normal" x="715.8125" y="426.5" text-anchor="start" dominant-baseline="text-after-edge" fill-opacity="0.8">42134820T&gt;G </text><text fill="rgb(0,0,0)" stroke="none" font-family="times new roman" font-size="10px" font-style="normal" font-weight="normal" text-decoration="normal" x="715.8125" y="436.5" text-anchor="start" dominant-baseline="text-after-edge" fill-opacity="0.8">42135064_42135066dup </text><text fill="rgb(0,0,0)" stroke="none" font-family="times new roman" font-size="10px" font-style="normal" font-weight="normal" text-decoration="normal" x="715.8125" y="446.5" text-anchor="start" dominant-baseline="text-after-edge" fill-opacity="0.8">42135201T&gt;C </text><g transform="scale(0.8672445255474452,0.8672445255474452) translate(51.31904260915314,53.45397159389796)"/></g></svg>