<svg version="1.1" xmlns="http://www.w3.org/2000/svg" xmlns:xlink="http://www.w3.org/1999/xlink" width="1017" height="608"><defs/><g transform="translate(-115.82584749380919,72.90137477585176) scale(0.6537443429254547,0.6537443429254547)"><path fill="none" stroke="rgb(120,144,156)" paint-order="fill stroke markers" d=" M 405.927342948064 335.15396391172067 L 813.9183497061993 466.1097967464717" stroke-opacity="1" stroke-linejoin="round" stroke-miterlimit="10"/><path fill="rgb(120,144,156)" stroke="none" paint-order="stroke fill markers" d=" M 806.2094745295499 468.20401342839335 L 815.822657051936 466.72103608827933 L 808.8683656664132 459.9202764744389 Z" fill-opacity="1"/><path fill="none" stroke="rgb(120,144,156)" paint-order="fill stroke markers" d=" M 504.9614501312336 340.5 L 814.4134208090567 464.7373032963652" stroke-opacity="1" stroke-linejoin="round" stroke-miterlimit="10"/><path fill="rgb(120,144,156)" stroke="none" paint-order="stroke fill markers" d=" M 806.5751129436843 466.27789727520667 L 816.2694285350024 465.4824444381832 L 809.8164769105928 458.2042636673429 Z" fill-opacity="1"/><path fill="none" stroke="rgb(120,144,156)" paint-order="fill stroke markers" d=" M 608.1077755905512 340.5 L 815.7448364522226 462.02030750890447" stroke-opacity="1" stroke-linejoin="round" stroke-miterlimit="10"/><path fill="rgb(120,144,156)" stroke="none" paint-order="stroke fill markers" d=" M 807.7651409348384 462.3903878378065 L 817.4709499690789 463.03052141047476 L 812.1595714066692 454.88179403948146 Z" fill-opacity="1"/><path fill="none" stroke="rgb(55,71,79)" paint-order="fill stroke markers" d=" M 1517.2570749204772 185.93819190024982 L 1567.916688614529 231.95013461319616" stroke-opacity="1" stroke-linejoin="round" stroke-miterlimit="10" stroke-width="2"/><path fill="none" stroke="rgb(120,144,156)" paint-order="fill stroke markers" d=" M 711.2541010498687 340.5 L 819.5049137426814 457.33727942198755" stroke-opacity="1" stroke-linejoin="round" stroke-miterlimit="10"/><path fill="rgb(120,144,156)" stroke="none" paint-order="stroke fill markers" d=" M 811.7604058188576 455.37893904865354 L 820.8641904507125 458.80437411252535 L 818.142267722697 449.4660853687183 Z" fill-opacity="1"/><path fill="none" stroke="rgb(120,144,156)" paint-order="fill stroke markers" d=" M 814.4004265091863 340.5 L 830.5085432220302 452.08531759260916" stroke-opacity="1" stroke-linejoin="round" stroke-miterlimit="10"/><path fill="rgb(120,144,156)" stroke="none" paint-order="stroke fill markers" d=" M 825.2459027886376 446.07556587820187 L 830.7942951028077 454.0647988030863 L 833.8566460542132 444.8325451968195 Z" fill-opacity="1"/><path fill="none" stroke="rgb(120,144,156)" paint-order="fill stroke markers" d=" M 917.5467519685039 340.5 L 844.461053952172 455.0911561490636" stroke-opacity="1" stroke-linejoin="round" stroke-miterlimit="10"/><path fill="rgb(120,144,156)" stroke="none" paint-order="stroke fill markers" d=" M 844.39632667061 447.10314573476006 L 843.3855852739114 456.7773848174476 L 851.7314213780807 451.78143448519404 Z" fill-opacity="1"/><path fill="none" stroke="rgb(55,71,79)" paint-order="fill stroke markers" d=" M 1357.6545045883902 118.25423924509575 L 1382.2665752525854 154.12299339136487" stroke-opacity="1" stroke-linejoin="round" stroke-miterlimit="10" stroke-width="2"/><path fill="none" stroke="rgb(120,144,156)" paint-order="fill stroke markers" d=" M 1396.7478578678968 196.9700857843557 L 1398.026260611431 222.28246010633745" stroke-opacity="1" stroke-linejoin="round" stroke-miterlimit="10"/><path fill="rgb(120,144,156)" stroke="none" paint-order="stroke fill markers" d=" M 1393.3438448294373 215.8104061476212 L 1398.1271421321032 224.2799142156443 L 1402.0327702049221 215.3715715326977 Z" fill-opacity="1"/><path fill="none" stroke="rgb(55,71,79)" paint-order="fill stroke markers" d=" M 1558.0820069381316 118.63165801990523 L 1580.2438019975086 153.64356954228253" stroke-opacity="1" stroke-linejoin="round" stroke-miterlimit="10" stroke-width="2"/><path fill="none" stroke="rgb(120,144,156)" paint-order="fill stroke markers" d=" M 374.0625 516.9181472081218 L 495.17289606779957 588.846656547881" stroke-opacity="1" stroke-linejoin="round" stroke-miterlimit="10"/><path fill="rgb(120,144,156)" stroke="none" paint-order="stroke fill markers" d=" M 487.19098825885044 589.1654789583814 L 496.8924857972612 589.8679357273074 L 491.63355268935555 581.6852636352232 Z" fill-opacity="1"/><path fill="none" stroke="rgb(120,144,156)" paint-order="fill stroke markers" d=" M 999.3107095159038 340.98686522752735 L 849.507051617512 459.64631150463185" stroke-opacity="1" stroke-linejoin="round" stroke-miterlimit="10"/><path fill="rgb(120,144,156)" stroke="none" paint-order="stroke fill markers" d=" M 852.0580858069012 452.0763230921858 L 847.9392904840962 460.88813477247265 L 857.4600170220087 458.8960840225446 Z" fill-opacity="1"/><path fill="none" stroke="rgb(120,144,156)" paint-order="fill stroke markers" d=" M 816.3860912203884 479.55131232810993 L 549.3055819978847 591.9556993030485" stroke-opacity="1" stroke-linejoin="round" stroke-miterlimit="10"/><path fill="rgb(120,144,156)" stroke="none" paint-order="stroke fill markers" d=" M 553.7935539003777 585.3473252063108 L 547.4621864541429 592.7315168520333 L 557.1683602384618 593.3660958215876 Z" fill-opacity="1"/><path fill="none" stroke="rgb(120,144,156)" paint-order="fill stroke markers" d=" M 791.5017201834862 258.75 L 994.2778960736898 323.2831479475392" stroke-opacity="1" stroke-linejoin="round" stroke-miterlimit="10"/><path fill="rgb(120,144,156)" stroke="none" paint-order="stroke fill markers" d=" M 986.5742300866419 325.39644640256176 L 996.1837110908908 323.8896700989988 L 989.2126014454911 317.1061510777374 Z" fill-opacity="1"/><path fill="none" stroke="rgb(120,144,156)" paint-order="fill stroke markers" d=" M 1231.446705323085 182.06338469164206 L 1375.5658091175035 238.4578166111969" stroke-opacity="1" stroke-linejoin="round" stroke-miterlimit="10"/><path fill="rgb(120,144,156)" stroke="none" paint-order="stroke fill markers" d=" M 1367.7413453271497 240.06724706742753 L 1377.428294676915 239.18661530835794 L 1370.9116196598002 231.96543488398746 Z" fill-opacity="1"/><path fill="none" stroke="rgb(120,144,156)" paint-order="fill stroke markers" d=" M 352.55148281217197 263.9882206138949 L 378.49024877570133 311.50629607649483" stroke-opacity="1" stroke-linejoin="round" stroke-miterlimit="10"/><path fill="rgb(120,144,156)" stroke="none" paint-order="stroke fill markers" d=" M 371.4618733966746 307.7096607856761 L 379.44851718782803 313.2617793861051 L 379.0982257934792 303.54119319292494 Z" fill-opacity="1"/><path fill="none" stroke="rgb(120,144,156)" paint-order="fill stroke markers" d=" M 1316.8958333333333 184.5 L 1379.083112184698 232.2251209789542" stroke-opacity="1" stroke-linejoin="round" stroke-miterlimit="10"/><path fill="rgb(120,144,156)" stroke="none" paint-order="stroke fill markers" d=" M 1371.1195779845382 231.59693068701526 L 1380.6697308368784 233.4427585492323 L 1376.416301415248 224.69513955002986 Z" fill-opacity="1"/><path fill="none" stroke="rgb(120,144,156)" paint-order="fill stroke markers" d=" M 1417.446705323085 182.06338469164206 L 1561.5658091175035 238.4578166111969" stroke-opacity="1" stroke-linejoin="round" stroke-miterlimit="10"/><path fill="rgb(120,144,156)" stroke="none" paint-order="stroke fill markers" d=" M 1553.7413453271497 240.06724706742753 L 1563.428294676915 239.18661530835794 L 1556.9116196598002 231.96543488398746 Z" fill-opacity="1"/><path fill="none" stroke="rgb(120,144,156)" paint-order="fill stroke markers" d=" M 1082.303969816273 340.5 L 851.5514740956878 462.7763572594479" stroke-opacity="1" stroke-linejoin="round" stroke-miterlimit="10"/><path fill="rgb(120,144,156)" stroke="none" paint-order="stroke fill markers" d=" M 855.4348658283564 455.7955429336946 L 849.7842571107426 463.7128102097456 L 859.5084361621516 463.482936818206 Z" fill-opacity="1"/><path fill="none" stroke="rgb(120,144,156)" paint-order="fill stroke markers" d=" M 1419.5875420115747 259.6316106411916 L 1516.8119224980785 316.607188453175" stroke-opacity="1" stroke-linejoin="round" stroke-miterlimit="10"/><path fill="rgb(120,144,156)" stroke="none" paint-order="stroke fill markers" d=" M 1508.8320166356643 316.9727051108076 L 1518.5374579884253 317.6183893588084 L 1513.2307405751694 309.4666257277991 Z" fill-opacity="1"/><path fill="none" stroke="rgb(55,71,79)" paint-order="fill stroke markers" d=" M 1174.8320069381316 118.63165801990523 L 1196.9938019975086 153.64356954228253" stroke-opacity="1" stroke-linejoin="round" stroke-miterlimit="10" stroke-width="2"/><path fill="none" stroke="rgb(120,144,156)" paint-order="fill stroke markers" d=" M 1160.5051605504586 258.75 L 1032.2771163157754 320.59449921053306" stroke-opacity="1" stroke-linejoin="round" stroke-miterlimit="10"/><path fill="rgb(120,144,156)" stroke="none" paint-order="stroke fill markers" d=" M 1036.422189529508 313.7658193928232 L 1030.4756903337486 321.4633285558469 L 1040.2015971816231 321.6020224146401 Z" fill-opacity="1"/><path fill="none" stroke="rgb(55,71,79)" paint-order="fill stroke markers" d=" M 1250.3896276595744 114 L 1222.8584247474146 154.12299339136487" stroke-opacity="1" stroke-linejoin="round" stroke-miterlimit="10" stroke-width="2"/><path fill="none" stroke="rgb(120,144,156)" paint-order="fill stroke markers" d=" M 1185.4502952755906 340.5 L 852.6345743371401 465.1831756908059" stroke-opacity="1" stroke-linejoin="round" stroke-miterlimit="10"/><path fill="rgb(120,144,156)" stroke="none" paint-order="stroke fill markers" d=" M 857.3826700597666 458.7591514840664 L 850.7616890359557 465.88481708682485 L 860.434810132449 466.90620254421856 Z" fill-opacity="1"/><path fill="none" stroke="rgb(120,144,156)" paint-order="fill stroke markers" d=" M 299.0625 340.5 L 299.0625 365.375" stroke-opacity="1" stroke-linejoin="round" stroke-miterlimit="10"/><path fill="rgb(120,144,156)" stroke="none" paint-order="stroke fill markers" d=" M 294.7125 358.675 L 299.0625 367.375 L 303.4125 358.675 Z" fill-opacity="1"/><path fill="none" stroke="rgb(55,71,79)" paint-order="fill stroke markers" d=" M 1449.0492021276596 114 L 1411.272896549327 156.02334585045267" stroke-opacity="1" stroke-linejoin="round" stroke-miterlimit="10" stroke-width="2"/><path fill="none" stroke="rgb(120,144,156)" paint-order="fill stroke markers" d=" M 1288.5966207349081 340.5 L 853.1276986644318 466.6700831246019" stroke-opacity="1" stroke-linejoin="round" stroke-miterlimit="10"/><path fill="rgb(120,144,156)" stroke="none" paint-order="stroke fill markers" d=" M 858.3524763543691 460.627385209702 L 851.20670367278 467.2266603807383 L 860.7735874185624 468.98371342338777 Z" fill-opacity="1"/><path fill="none" stroke="rgb(120,144,156)" paint-order="fill stroke markers" d=" M 1391.7429461942256 340.5 L 853.3884891401244 467.66246009771396" stroke-opacity="1" stroke-linejoin="round" stroke-miterlimit="10"/><path fill="rgb(120,144,156)" stroke="none" paint-order="stroke fill markers" d=" M 858.909078343241 461.88876155601355 L 851.4420511752343 468.1222200881809 L 860.9090343017722 470.3557667032859 Z" fill-opacity="1"/><path fill="none" stroke="rgb(55,71,79)" paint-order="fill stroke markers" d=" M 343.6875 184.5 L 343.6875 229.25" stroke-opacity="1" stroke-linejoin="round" stroke-miterlimit="10" stroke-width="2"/><path fill="none" stroke="rgb(120,144,156)" paint-order="fill stroke markers" d=" M 610.6232798165138 258.75 L 407.8471039263102 323.2831479475392" stroke-opacity="1" stroke-linejoin="round" stroke-miterlimit="10"/><path fill="rgb(120,144,156)" stroke="none" paint-order="stroke fill markers" d=" M 412.9123985545089 317.1061510777374 L 405.9412889091092 323.8896700989988 L 415.5507699133581 325.39644640256176 Z" fill-opacity="1"/><path fill="none" stroke="rgb(120,144,156)" paint-order="fill stroke markers" d=" M 1498.5693807339449 258.75 L 1526.2047803570752 307.33481546647073" stroke-opacity="1" stroke-linejoin="round" stroke-miterlimit="10"/><path fill="rgb(120,144,156)" stroke="none" paint-order="stroke fill markers" d=" M 1519.1110441089006 303.6617505281208 L 1527.193621113383 309.0732613122377 L 1526.6732835379871 299.3602932381817 Z" fill-opacity="1"/><path fill="none" stroke="rgb(55,71,79)" paint-order="fill stroke markers" d=" M 1630.474734042553 114 L 1605.3811980024914 153.64356954228253" stroke-opacity="1" stroke-linejoin="round" stroke-miterlimit="10" stroke-width="2"/><path fill="none" stroke="rgb(120,144,156)" paint-order="fill stroke markers" d=" M 1515.7802262175596 334.1652292988356 L 853.5294835123416 468.30533188824984" stroke-opacity="1" stroke-linejoin="round" stroke-miterlimit="10"/><path fill="rgb(120,144,156)" stroke="none" paint-order="stroke fill markers" d=" M 859.2325680609549 462.7118243454492 L 851.5692899989424 468.70237267964006 L 860.9596955035026 471.23866612873564 Z" fill-opacity="1"/><path fill="none" stroke="rgb(120,144,156)" paint-order="fill stroke markers" d=" M 1573.693621113383 268.1767386877623 L 1551.4202196429248 307.33481546647073" stroke-opacity="1" stroke-linejoin="round" stroke-miterlimit="10"/><path fill="rgb(120,144,156)" stroke="none" paint-order="stroke fill markers" d=" M 1550.9517164620129 299.3602932381817 L 1550.431378886617 309.0732613122377 L 1558.5139558910994 303.6617505281207 Z" fill-opacity="1"/><path fill="none" stroke="rgb(120,144,156)" paint-order="fill stroke markers" d=" M 1590.4507804098962 196.88102394202872 L 1587.8752170020275 222.3791016799263" stroke-opacity="1" stroke-linejoin="round" stroke-miterlimit="10"/><path fill="rgb(120,144,156)" stroke="none" paint-order="stroke fill markers" d=" M 1584.2205815597245 215.27585314254134 L 1587.6742195901038 224.36897605797128 L 1592.87653510422 216.1501918844098 Z" fill-opacity="1"/><path fill="rgb(69,90,100)" stroke="rgb(76,175,80)" paint-order="fill stroke markers" d=" M 1279.0625 319.5 L 1279.0625 339.5 L 1374.0625 339.5 L 1374.0625 319.5 Z" fill-opacity="1" stroke-opacity="1" stroke-miterlimit="10" stroke-width="2"/><text fill="rgb(255,255,255)" stroke="none" font-family="times new roman" font-size="10px" font-style="normal" font-weight="normal" text-decoration="normal" x="1326.5625" y="334.5" text-anchor="middle" dominant-baseline="text-after-edge" fill-opacity="1">42128499C&gt;T</text><path fill="rgb(69,90,100)" stroke="rgb(76,175,80)" paint-order="fill stroke markers" d=" M 1135.8125 237.75 L 1135.8125 257.75 L 1230.8125 257.75 L 1230.8125 237.75 Z" fill-opacity="1" stroke-opacity="1" stroke-miterlimit="10" stroke-width="2"/><text fill="rgb(255,255,255)" stroke="none" font-family="times new roman" font-size="10px" font-style="normal" font-weight="normal" text-decoration="normal" x="1183.3125" y="252.75" text-anchor="middle" dominant-baseline="text-after-edge" fill-opacity="1">42130482C&gt;A</text><path fill="rgb(69,90,100)" stroke="rgb(158,158,158)" paint-order="fill stroke markers" d=" M 1182.4375 103 L 1182.3835533403299 104.37303417523728 L 1182.222045960415 105.73760313820404 L 1181.9539736069594 107.08529386747834 L 1181.5809890351652 108.40779740156158 L 1181.1053918189475 109.69696006638907 L 1180.5301141732964 110.94483374544207 L 1179.8587028761965 112.1437248825291 L 1179.0952974015615 113.28624191511828 L 1178.2446043980005 114.3653408457782 L 1177.3118686707646 115.37436867076458 L 1176.3028408457783 116.30710439800055 L 1175.2237419151184 117.15779740156158 L 1174.081224882529 117.92120287619662 L 1172.882333745442 118.59261417329644 L 1171.634460066389 119.16789181894751 L 1170.3452974015615 119.64348903516519 L 1169.0227938674784 120.01647360695934 L 1167.6751031382041 120.2845459604149 L 1166.3105341752373 120.44605334032974 L 1164.9375 120.5 L 1163.5644658247627 120.44605334032974 L 1162.1998968617959 120.2845459604149 L 1160.8522061325216 120.01647360695934 L 1159.5297025984385 119.64348903516519 L 1158.240539933611 119.16789181894751 L 1156.992666254558 118.59261417329644 L 1155.793775117471 117.92120287619662 L 1154.6512580848816 117.15779740156158 L 1153.5721591542217 116.30710439800055 L 1152.5631313292354 115.37436867076458 L 1151.6303956019995 114.36534084577822 L 1150.7797025984385 113.28624191511828 L 1150.0162971238035 112.14372488252911 L 1149.3448858267036 110.94483374544207 L 1148.7696081810525 109.69696006638907 L 1148.2940109648348 108.40779740156158 L 1147.9210263930406 107.08529386747834 L 1147.652954039585 105.73760313820404 L 1147.4914466596701 104.3730341752373 L 1147.4375 103 L 1147.4914466596701 101.62696582476272 L 1147.652954039585 100.26239686179596 L 1147.9210263930406 98.91470613252166 L 1148.2940109648348 97.59220259843842 L 1148.7696081810525 96.30303993361093 L 1149.3448858267036 95.05516625455793 L 1150.0162971238035 93.8562751174709 L 1150.7797025984385 92.71375808488172 L 1151.6303956019995 91.6346591542218 L 1152.5631313292354 90.62563132923542 L 1153.5721591542217 89.69289560199947 L 1154.6512580848816 88.84220259843842 L 1155.793775117471 88.07879712380338 L 1156.992666254558 87.40738582670356 L 1158.240539933611 86.83210818105248 L 1159.5297025984385 86.3565109648348 L 1160.8522061325216 85.98352639304065 L 1162.199896861796 85.71545403958508 L 1163.5644658247627 85.55394665967026 L 1164.9375 85.5 L 1166.3105341752373 85.55394665967026 L 1167.6751031382041 85.7154540395851 L 1169.0227938674784 85.98352639304068 L 1170.3452974015618 86.35651096483484 L 1171.6344600663892 86.83210818105252 L 1172.882333745442 87.4073858267036 L 1174.081224882529 88.07879712380344 L 1175.2237419151184 88.84220259843849 L 1176.3028408457783 89.69289560199954 L 1177.3118686707646 90.62563132923552 L 1178.2446043980005 91.6346591542219 L 1179.0952974015618 92.71375808488185 L 1179.8587028761967 93.85627511747103 L 1180.5301141732966 95.05516625455807 L 1181.1053918189475 96.30303993361109 L 1181.5809890351652 97.59220259843859 L 1181.9539736069594 98.91470613252184 L 1182.222045960415 100.26239686179616 L 1182.3835533403299 101.62696582476292 Z" fill-opacity="1" stroke-opacity="1" stroke-miterlimit="10" stroke-width="2"/><text fill="rgb(255,255,255)" stroke="none" font-family="times new roman" font-size="10px" font-style="normal" font-weight="normal" text-decoration="normal" x="1164.9375" y="108" text-anchor="middle" dominant-baseline="text-after-edge" fill-opacity="1">*107.1</text><path fill="rgb(69,90,100)" stroke="rgb(76,175,80)" paint-order="fill stroke markers" d=" M 877.0625 319.5 L 877.0625 339.5 L 972.0625 339.5 L 972.0625 319.5 Z" fill-opacity="1" stroke-opacity="1" stroke-miterlimit="10" stroke-width="2"/><text fill="rgb(255,255,255)" stroke="none" font-family="times new roman" font-size="10px" font-style="normal" font-weight="normal" text-decoration="normal" x="924.5625" y="334.5" text-anchor="middle" dominant-baseline="text-after-edge" fill-opacity="1">42130052del</text><path fill="rgb(69,90,100)" stroke="rgb(76,175,80)" paint-order="fill stroke markers" d=" M 653.5625 319.5 L 653.5625 339.5 L 748.5625 339.5 L 748.5625 319.5 Z" fill-opacity="1" stroke-opacity="1" stroke-miterlimit="10" stroke-width="2"/><text fill="rgb(255,255,255)" stroke="none" font-family="times new roman" font-size="10px" font-style="normal" font-weight="normal" text-decoration="normal" x="701.0625" y="334.5" text-anchor="middle" dominant-baseline="text-after-edge" fill-opacity="1">42132199C&gt;T</text><path fill="rgb(69,90,100)" stroke="rgb(255,193,7)" paint-order="fill stroke markers" d=" M 850.9375 472.375 L 850.8835533403297 473.7480341752373 L 850.7220459604149 475.11260313820407 L 850.4539736069594 476.46029386747836 L 850.0809890351652 477.7827974015616 L 849.6053918189475 479.07196006638907 L 849.0301141732964 480.31983374544205 L 848.3587028761966 481.5187248825291 L 847.5952974015615 482.6612419151183 L 846.7446043980005 483.74034084577823 L 845.8118686707646 484.74936867076457 L 844.8028408457782 485.68210439800055 L 843.7237419151182 486.5327974015616 L 842.5812248825291 487.2962028761966 L 841.3823337454421 487.96761417329645 L 840.1344600663891 488.5428918189475 L 838.8452974015615 489.0184890351652 L 837.5227938674783 489.3914736069593 L 836.175103138204 489.6595459604149 L 834.8105341752373 489.82105334032974 L 833.4375 489.875 L 832.0644658247627 489.82105334032974 L 830.699896861796 489.6595459604149 L 829.3522061325217 489.3914736069593 L 828.0297025984385 489.0184890351652 L 826.7405399336109 488.5428918189475 L 825.4926662545579 487.96761417329645 L 824.2937751174709 487.2962028761966 L 823.1512580848818 486.5327974015616 L 822.0721591542218 485.68210439800055 L 821.0631313292354 484.74936867076457 L 820.1303956019995 483.74034084577823 L 819.2797025984385 482.6612419151183 L 818.5162971238034 481.5187248825291 L 817.8448858267036 480.31983374544205 L 817.2696081810525 479.07196006638907 L 816.7940109648348 477.7827974015616 L 816.4210263930406 476.46029386747836 L 816.1529540395851 475.11260313820407 L 815.9914466596703 473.7480341752373 L 815.9375 472.375 L 815.9914466596703 471.0019658247627 L 816.1529540395851 469.63739686179593 L 816.4210263930406 468.28970613252164 L 816.7940109648348 466.9672025984384 L 817.2696081810525 465.67803993361093 L 817.8448858267036 464.43016625455795 L 818.5162971238034 463.2312751174709 L 819.2797025984385 462.0887580848817 L 820.1303956019995 461.00965915422177 L 821.0631313292354 460.00063132923543 L 822.0721591542218 459.06789560199945 L 823.1512580848818 458.2172025984384 L 824.2937751174709 457.4537971238034 L 825.4926662545579 456.78238582670355 L 826.740539933611 456.2071081810525 L 828.0297025984385 455.7315109648348 L 829.3522061325217 455.3585263930407 L 830.699896861796 455.0904540395851 L 832.0644658247628 454.92894665967026 L 833.4375000000001 454.875 L 834.8105341752373 454.92894665967026 L 836.1751031382041 455.0904540395851 L 837.5227938674784 455.3585263930407 L 838.8452974015617 455.73151096483485 L 840.1344600663891 456.2071081810525 L 841.3823337454421 456.7823858267036 L 842.5812248825292 457.45379712380344 L 843.7237419151184 458.2172025984385 L 844.8028408457783 459.06789560199957 L 845.8118686707646 460.0006313292355 L 846.7446043980007 461.0096591542219 L 847.5952974015617 462.0887580848818 L 848.3587028761967 463.23127511747106 L 849.0301141732965 464.43016625455806 L 849.6053918189476 465.6780399336111 L 850.0809890351652 466.9672025984386 L 850.4539736069594 468.2897061325218 L 850.7220459604149 469.63739686179616 L 850.8835533403297 471.0019658247629 Z" fill-opacity="1" stroke-opacity="1" stroke-miterlimit="10" stroke-width="2"/><text fill="rgb(255,255,255)" stroke="none" font-family="times new roman" font-size="10px" font-style="normal" font-weight="normal" text-decoration="normal" x="833.4375" y="477.375" text-anchor="middle" dominant-baseline="text-after-edge" fill-opacity="1">*29.1</text><path fill="rgb(69,90,100)" stroke="rgb(76,175,80)" paint-order="fill stroke markers" d=" M 299.0625 319.5 L 341.5625 319.5 L 341.5625 319.5 A 5 5 0 0 1 346.5625 324.5 L 346.5625 334.5 L 346.5625 334.5 A 5 5 0 0 1 341.5625 339.5 L 256.5625 339.5 L 256.5625 339.5 A 5 5 0 0 1 251.5625 334.5 L 251.5625 324.5 L 251.5625 324.5 A 5 5 0 0 1 256.5625 319.5 L 299.0625 319.5 Z" fill-opacity="1" stroke-opacity="1" stroke-miterlimit="10" stroke-width="2"/><text fill="rgb(255,255,255)" stroke="none" font-family="times new roman" font-size="10px" font-style="normal" font-weight="normal" text-decoration="normal" x="299.0625" y="334.5" text-anchor="middle" dominant-baseline="text-after-edge" fill-opacity="1">42132049dup</text><path fill="rgb(69,90,100)" stroke="rgb(76,175,80)" paint-order="fill stroke markers" d=" M 765.3125 319.5 L 765.3125 339.5 L 860.3125 339.5 L 860.3125 319.5 Z" fill-opacity="1" stroke-opacity="1" stroke-miterlimit="10" stroke-width="2"/><text fill="rgb(255,255,255)" stroke="none" font-family="times new roman" font-size="10px" font-style="normal" font-weight="normal" text-decoration="normal" x="812.8125" y="334.5" text-anchor="middle" dominant-baseline="text-after-edge" fill-opacity="1">42128576T&gt;C</text><path fill="rgb(69,90,100)" stroke="rgb(76,175,80)" paint-order="fill stroke markers" d=" M 1521.0625 173.5 L 1521.0085533403299 174.87303417523728 L 1520.847045960415 176.23760313820404 L 1520.5789736069594 177.58529386747836 L 1520.2059890351652 178.90779740156157 L 1519.7303918189475 180.19696006638907 L 1519.1551141732964 181.44483374544205 L 1518.4837028761965 182.6437248825291 L 1517.7202974015615 183.78624191511827 L 1516.8696043980005 184.8653408457782 L 1515.9368686707646 185.87436867076457 L 1514.9278408457783 186.80710439800055 L 1513.8487419151184 187.6577974015616 L 1512.706224882529 188.42120287619662 L 1511.507333745442 189.09261417329643 L 1510.259460066389 189.6678918189475 L 1508.9702974015615 190.14348903516517 L 1507.6477938674784 190.51647360695935 L 1506.3001031382041 190.7845459604149 L 1504.9355341752373 190.94605334032974 L 1503.5625 191 L 1502.1894658247627 190.94605334032974 L 1500.8248968617959 190.7845459604149 L 1499.4772061325216 190.51647360695935 L 1498.1547025984385 190.1434890351652 L 1496.865539933611 189.6678918189475 L 1495.617666254558 189.09261417329643 L 1494.418775117471 188.42120287619662 L 1493.2762580848816 187.6577974015616 L 1492.1971591542217 186.80710439800055 L 1491.1881313292354 185.87436867076457 L 1490.2553956019995 184.8653408457782 L 1489.4047025984385 183.7862419151183 L 1488.6412971238035 182.6437248825291 L 1487.9698858267036 181.44483374544208 L 1487.3946081810525 180.19696006638907 L 1486.9190109648348 178.9077974015616 L 1486.5460263930406 177.58529386747836 L 1486.277954039585 176.23760313820404 L 1486.1164466596701 174.87303417523728 L 1486.0625 173.5 L 1486.1164466596701 172.12696582476272 L 1486.277954039585 170.76239686179596 L 1486.5460263930406 169.41470613252164 L 1486.9190109648348 168.09220259843843 L 1487.3946081810525 166.80303993361093 L 1487.9698858267036 165.55516625455795 L 1488.6412971238035 164.3562751174709 L 1489.4047025984385 163.21375808488173 L 1490.2553956019995 162.1346591542218 L 1491.1881313292354 161.12563132923543 L 1492.1971591542217 160.19289560199945 L 1493.2762580848816 159.34220259843843 L 1494.418775117471 158.57879712380338 L 1495.617666254558 157.90738582670355 L 1496.865539933611 157.3321081810525 L 1498.1547025984385 156.8565109648348 L 1499.4772061325216 156.48352639304065 L 1500.824896861796 156.2154540395851 L 1502.1894658247627 156.05394665967026 L 1503.5625 156 L 1504.9355341752373 156.05394665967026 L 1506.3001031382041 156.2154540395851 L 1507.6477938674784 156.48352639304068 L 1508.9702974015618 156.85651096483485 L 1510.2594600663892 157.33210818105252 L 1511.507333745442 157.9073858267036 L 1512.706224882529 158.57879712380344 L 1513.8487419151184 159.3422025984385 L 1514.9278408457783 160.19289560199954 L 1515.9368686707646 161.12563132923552 L 1516.8696043980005 162.1346591542219 L 1517.7202974015618 163.21375808488185 L 1518.4837028761967 164.35627511747103 L 1519.1551141732966 165.5551662545581 L 1519.7303918189475 166.8030399336111 L 1520.2059890351652 168.0922025984386 L 1520.5789736069594 169.41470613252184 L 1520.847045960415 170.76239686179616 L 1521.0085533403299 172.12696582476292 Z" fill-opacity="1" stroke-opacity="1" stroke-miterlimit="10" stroke-width="2"/><text fill="rgb(255,255,255)" stroke="none" font-family="times new roman" font-size="10px" font-style="normal" font-weight="normal" text-decoration="normal" x="1503.5625" y="178.5" text-anchor="middle" dominant-baseline="text-after-edge" fill-opacity="1">*2.4</text><path fill="rgb(69,90,100)" stroke="rgb(76,175,80)" paint-order="fill stroke markers" d=" M 430.0625 319.5 L 430.0625 339.5 L 525.0625 339.5 L 525.0625 319.5 Z" fill-opacity="1" stroke-opacity="1" stroke-miterlimit="10" stroke-width="2"/><text fill="rgb(255,255,255)" stroke="none" font-family="times new roman" font-size="10px" font-style="normal" font-weight="normal" text-decoration="normal" x="477.5625" y="334.5" text-anchor="middle" dominant-baseline="text-after-edge" fill-opacity="1">42132385A&gt;G</text><path fill="rgb(69,90,100)" stroke="rgb(158,158,158)" paint-order="fill stroke markers" d=" M 1232.0625 173.5 L 1231.9931400089954 175.2653296538765 L 1231.7854876633905 177.01977546340518 L 1231.4408232089477 178.75252068675786 L 1230.961271616641 180.45288237343632 L 1230.3497894815039 182.11037722821453 L 1229.6101467942383 183.71478624413982 L 1228.7469036979671 185.25621770610886 L 1227.7653823734363 186.72516817658064 L 1226.6716342260006 188.11258108742913 L 1225.4724025766973 189.4099025766973 L 1224.1750810874291 190.6091342260007 L 1222.7876681765806 191.70288237343632 L 1221.3187177061088 192.68440369796707 L 1219.7772862441398 193.5476467942383 L 1218.1728772282145 194.28728948150396 L 1216.5153823734363 194.89877161664094 L 1214.8150206867579 195.37832320894773 L 1213.0822754634053 195.7229876633906 L 1211.3278296538765 195.93064000899537 L 1209.5625 196 L 1207.7971703461235 195.93064000899537 L 1206.0427245365947 195.7229876633906 L 1204.3099793132421 195.37832320894773 L 1202.6096176265637 194.89877161664094 L 1200.9521227717855 194.28728948150396 L 1199.3477137558602 193.5476467942383 L 1197.8062822938912 192.68440369796707 L 1196.3373318234194 191.70288237343632 L 1194.9499189125709 190.6091342260007 L 1193.6525974233027 189.40990257669733 L 1192.4533657739994 188.11258108742913 L 1191.3596176265637 186.72516817658064 L 1190.3780963020329 185.25621770610886 L 1189.5148532057617 183.71478624413982 L 1188.7752105184961 182.11037722821453 L 1188.163728383359 180.45288237343632 L 1187.6841767910523 178.75252068675786 L 1187.3395123366095 177.0197754634052 L 1187.1318599910046 175.2653296538765 L 1187.0625 173.5 L 1187.1318599910046 171.7346703461235 L 1187.3395123366095 169.98022453659482 L 1187.6841767910523 168.24747931324214 L 1188.163728383359 166.54711762656368 L 1188.7752105184961 164.88962277178547 L 1189.5148532057617 163.2852137558602 L 1190.3780963020329 161.74378229389114 L 1191.3596176265637 160.27483182341936 L 1192.4533657739994 158.88741891257087 L 1193.6525974233027 157.5900974233027 L 1194.9499189125709 156.3908657739993 L 1196.3373318234194 155.29711762656368 L 1197.8062822938912 154.31559630203293 L 1199.3477137558602 153.4523532057617 L 1200.9521227717855 152.71271051849604 L 1202.6096176265637 152.10122838335903 L 1204.3099793132421 151.62167679105227 L 1206.042724536595 151.2770123366094 L 1207.7971703461235 151.0693599910046 L 1209.5625 151 L 1211.3278296538765 151.06935999100463 L 1213.0822754634053 151.2770123366094 L 1214.8150206867579 151.6216767910523 L 1216.5153823734365 152.10122838335909 L 1218.1728772282147 152.7127105184961 L 1219.77728624414 153.4523532057618 L 1221.318717706109 154.315596302033 L 1222.7876681765808 155.29711762656376 L 1224.1750810874294 156.39086577399942 L 1225.4724025766975 157.5900974233028 L 1226.6716342260008 158.887418912571 L 1227.7653823734365 160.2748318234195 L 1228.7469036979671 161.74378229389131 L 1229.6101467942383 163.28521375586038 L 1230.349789481504 164.8896227717857 L 1230.961271616641 166.5471176265639 L 1231.4408232089477 168.24747931324237 L 1231.7854876633905 169.98022453659505 L 1231.9931400089954 171.73467034612375 Z" fill-opacity="1" stroke-opacity="1" stroke-miterlimit="10" stroke-width="2"/><text fill="rgb(255,255,255)" stroke="none" font-family="times new roman" font-size="15px" font-style="normal" font-weight="normal" text-decoration="normal" x="1209.5625" y="181" text-anchor="middle" dominant-baseline="text-after-edge" fill-opacity="1">*107</text><path fill="rgb(69,90,100)" stroke="rgb(76,175,80)" paint-order="fill stroke markers" d=" M 1255.0625 163.5 L 1255.0625 183.5 L 1350.0625 183.5 L 1350.0625 163.5 Z" fill-opacity="1" stroke-opacity="1" stroke-miterlimit="10" stroke-width="2"/><text fill="rgb(255,255,255)" stroke="none" font-family="times new roman" font-size="10px" font-style="normal" font-weight="normal" text-decoration="normal" x="1302.5625" y="178.5" text-anchor="middle" dominant-baseline="text-after-edge" fill-opacity="1">42129130C&gt;G</text><path fill="rgb(69,90,100)" stroke="rgb(76,175,80)" paint-order="fill stroke markers" d=" M 1607.8125 247.75 L 1607.7431400089954 249.5153296538765 L 1607.5354876633905 251.26977546340518 L 1607.1908232089477 253.00252068675786 L 1606.711271616641 254.70288237343632 L 1606.0997894815039 256.36037722821453 L 1605.3601467942383 257.9647862441398 L 1604.4969036979671 259.5062177061088 L 1603.5153823734363 260.97516817658067 L 1602.4216342260006 262.36258108742913 L 1601.2224025766973 263.65990257669733 L 1599.9250810874291 264.8591342260007 L 1598.5376681765806 265.9528823734363 L 1597.0687177061088 266.93440369796707 L 1595.5272862441398 267.7976467942383 L 1593.9228772282145 268.53728948150393 L 1592.2653823734363 269.14877161664094 L 1590.5650206867579 269.62832320894773 L 1588.8322754634053 269.9729876633906 L 1587.0778296538765 270.1806400089954 L 1585.3125 270.25 L 1583.5471703461235 270.1806400089954 L 1581.7927245365947 269.9729876633906 L 1580.0599793132421 269.62832320894773 L 1578.3596176265637 269.14877161664094 L 1576.7021227717855 268.53728948150393 L 1575.0977137558602 267.7976467942383 L 1573.5562822938912 266.93440369796707 L 1572.0873318234194 265.9528823734363 L 1570.6999189125709 264.8591342260007 L 1569.4025974233027 263.65990257669733 L 1568.2033657739994 262.36258108742913 L 1567.1096176265637 260.97516817658067 L 1566.1280963020329 259.5062177061088 L 1565.2648532057617 257.9647862441398 L 1564.5252105184961 256.36037722821453 L 1563.913728383359 254.70288237343632 L 1563.4341767910523 253.00252068675786 L 1563.0895123366095 251.2697754634052 L 1562.8818599910046 249.5153296538765 L 1562.8125 247.75 L 1562.8818599910046 245.9846703461235 L 1563.0895123366095 244.23022453659482 L 1563.4341767910523 242.49747931324214 L 1563.913728383359 240.79711762656368 L 1564.5252105184961 239.13962277178547 L 1565.2648532057617 237.5352137558602 L 1566.1280963020329 235.99378229389114 L 1567.1096176265637 234.52483182341936 L 1568.2033657739994 233.13741891257087 L 1569.4025974233027 231.8400974233027 L 1570.6999189125709 230.6408657739993 L 1572.0873318234194 229.54711762656368 L 1573.5562822938912 228.56559630203293 L 1575.0977137558602 227.7023532057617 L 1576.7021227717855 226.96271051849604 L 1578.3596176265637 226.35122838335903 L 1580.0599793132421 225.87167679105227 L 1581.792724536595 225.5270123366094 L 1583.5471703461235 225.3193599910046 L 1585.3125 225.25 L 1587.0778296538765 225.31935999100463 L 1588.8322754634053 225.5270123366094 L 1590.5650206867579 225.8716767910523 L 1592.2653823734365 226.35122838335909 L 1593.9228772282147 226.9627105184961 L 1595.52728624414 227.7023532057618 L 1597.068717706109 228.565596302033 L 1598.5376681765808 229.54711762656376 L 1599.9250810874294 230.64086577399942 L 1601.2224025766975 231.8400974233028 L 1602.4216342260008 233.137418912571 L 1603.5153823734365 234.5248318234195 L 1604.4969036979671 235.99378229389131 L 1605.3601467942383 237.53521375586038 L 1606.099789481504 239.1396227717857 L 1606.711271616641 240.7971176265639 L 1607.1908232089477 242.49747931324237 L 1607.5354876633905 244.23022453659505 L 1607.7431400089954 245.98467034612375 Z" fill-opacity="1" stroke-opacity="1" stroke-miterlimit="10" stroke-width="2"/><text fill="rgb(255,255,255)" stroke="none" font-family="times new roman" font-size="15px" font-style="normal" font-weight="normal" text-decoration="normal" x="1585.3125" y="255.25" text-anchor="middle" dominant-baseline="text-after-edge" fill-opacity="1">*2</text><path fill="rgb(69,90,100)" stroke="rgb(76,175,80)" paint-order="fill stroke markers" d=" M 1364.6875 103 L 1364.6335533403299 104.37303417523728 L 1364.472045960415 105.73760313820404 L 1364.2039736069594 107.08529386747834 L 1363.8309890351652 108.40779740156158 L 1363.3553918189475 109.69696006638907 L 1362.7801141732964 110.94483374544207 L 1362.1087028761965 112.1437248825291 L 1361.3452974015615 113.28624191511828 L 1360.4946043980005 114.3653408457782 L 1359.5618686707646 115.37436867076458 L 1358.5528408457783 116.30710439800055 L 1357.4737419151184 117.15779740156158 L 1356.331224882529 117.92120287619662 L 1355.132333745442 118.59261417329644 L 1353.884460066389 119.16789181894751 L 1352.5952974015615 119.64348903516519 L 1351.2727938674784 120.01647360695934 L 1349.9251031382041 120.2845459604149 L 1348.5605341752373 120.44605334032974 L 1347.1875 120.5 L 1345.8144658247627 120.44605334032974 L 1344.4498968617959 120.2845459604149 L 1343.1022061325216 120.01647360695934 L 1341.7797025984385 119.64348903516519 L 1340.490539933611 119.16789181894751 L 1339.242666254558 118.59261417329644 L 1338.043775117471 117.92120287619662 L 1336.9012580848816 117.15779740156158 L 1335.8221591542217 116.30710439800055 L 1334.8131313292354 115.37436867076458 L 1333.8803956019995 114.36534084577822 L 1333.0297025984385 113.28624191511828 L 1332.2662971238035 112.14372488252911 L 1331.5948858267036 110.94483374544207 L 1331.0196081810525 109.69696006638907 L 1330.5440109648348 108.40779740156158 L 1330.1710263930406 107.08529386747834 L 1329.902954039585 105.73760313820404 L 1329.7414466596701 104.3730341752373 L 1329.6875 103 L 1329.7414466596701 101.62696582476272 L 1329.902954039585 100.26239686179596 L 1330.1710263930406 98.91470613252166 L 1330.5440109648348 97.59220259843842 L 1331.0196081810525 96.30303993361093 L 1331.5948858267036 95.05516625455793 L 1332.2662971238035 93.8562751174709 L 1333.0297025984385 92.71375808488172 L 1333.8803956019995 91.6346591542218 L 1334.8131313292354 90.62563132923542 L 1335.8221591542217 89.69289560199947 L 1336.9012580848816 88.84220259843842 L 1338.043775117471 88.07879712380338 L 1339.242666254558 87.40738582670356 L 1340.490539933611 86.83210818105248 L 1341.7797025984385 86.3565109648348 L 1343.1022061325216 85.98352639304065 L 1344.449896861796 85.71545403958508 L 1345.8144658247627 85.55394665967026 L 1347.1875 85.5 L 1348.5605341752373 85.55394665967026 L 1349.9251031382041 85.7154540395851 L 1351.2727938674784 85.98352639304068 L 1352.5952974015618 86.35651096483484 L 1353.8844600663892 86.83210818105252 L 1355.132333745442 87.4073858267036 L 1356.331224882529 88.07879712380344 L 1357.4737419151184 88.84220259843849 L 1358.5528408457783 89.69289560199954 L 1359.5618686707646 90.62563132923552 L 1360.4946043980005 91.6346591542219 L 1361.3452974015618 92.71375808488185 L 1362.1087028761967 93.85627511747103 L 1362.7801141732966 95.05516625455807 L 1363.3553918189475 96.30303993361109 L 1363.8309890351652 97.59220259843859 L 1364.2039736069594 98.91470613252184 L 1364.472045960415 100.26239686179616 L 1364.6335533403299 101.62696582476292 Z" fill-opacity="1" stroke-opacity="1" stroke-miterlimit="10" stroke-width="2"/><text fill="rgb(255,255,255)" stroke="none" font-family="times new roman" font-size="10px" font-style="normal" font-weight="normal" text-decoration="normal" x="1347.1875" y="108" text-anchor="middle" dominant-baseline="text-after-edge" fill-opacity="1">*39.2</text><path fill="rgb(69,90,100)" stroke="rgb(76,175,80)" paint-order="fill stroke markers" d=" M 1167.3125 319.5 L 1167.3125 339.5 L 1262.3125 339.5 L 1262.3125 319.5 Z" fill-opacity="1" stroke-opacity="1" stroke-miterlimit="10" stroke-width="2"/><text fill="rgb(255,255,255)" stroke="none" font-family="times new roman" font-size="10px" font-style="normal" font-weight="normal" text-decoration="normal" x="1214.8125" y="334.5" text-anchor="middle" dominant-baseline="text-after-edge" fill-opacity="1">42132209A&gt;T</text><path fill="rgb(69,90,100)" stroke="rgb(158,158,158)" paint-order="fill stroke markers" d=" M 1589.9375 93 L 1589.9375 113 L 1684.9375 113 L 1684.9375 93 Z" fill-opacity="1" stroke-opacity="1" stroke-miterlimit="10" stroke-width="2"/><text fill="rgb(255,255,255)" stroke="none" font-family="times new roman" font-size="10px" font-style="normal" font-weight="normal" text-decoration="normal" x="1637.4375" y="108" text-anchor="middle" dominant-baseline="text-after-edge" fill-opacity="1">42127941G&gt;A</text><path fill="rgb(69,90,100)" stroke="rgb(189,189,189)" paint-order="fill stroke markers" d=" M 1421.8125 247.75 L 1421.7431400089954 249.5153296538765 L 1421.5354876633905 251.26977546340518 L 1421.1908232089477 253.00252068675786 L 1420.711271616641 254.70288237343632 L 1420.0997894815039 256.36037722821453 L 1419.3601467942383 257.9647862441398 L 1418.4969036979671 259.5062177061088 L 1417.5153823734363 260.97516817658067 L 1416.4216342260006 262.36258108742913 L 1415.2224025766973 263.65990257669733 L 1413.9250810874291 264.8591342260007 L 1412.5376681765806 265.9528823734363 L 1411.0687177061088 266.93440369796707 L 1409.5272862441398 267.7976467942383 L 1407.9228772282145 268.53728948150393 L 1406.2653823734363 269.14877161664094 L 1404.5650206867579 269.62832320894773 L 1402.8322754634053 269.9729876633906 L 1401.0778296538765 270.1806400089954 L 1399.3125 270.25 L 1397.5471703461235 270.1806400089954 L 1395.7927245365947 269.9729876633906 L 1394.0599793132421 269.62832320894773 L 1392.3596176265637 269.14877161664094 L 1390.7021227717855 268.53728948150393 L 1389.0977137558602 267.7976467942383 L 1387.5562822938912 266.93440369796707 L 1386.0873318234194 265.9528823734363 L 1384.6999189125709 264.8591342260007 L 1383.4025974233027 263.65990257669733 L 1382.2033657739994 262.36258108742913 L 1381.1096176265637 260.97516817658067 L 1380.1280963020329 259.5062177061088 L 1379.2648532057617 257.9647862441398 L 1378.5252105184961 256.36037722821453 L 1377.913728383359 254.70288237343632 L 1377.4341767910523 253.00252068675786 L 1377.0895123366095 251.2697754634052 L 1376.8818599910046 249.5153296538765 L 1376.8125 247.75 L 1376.8818599910046 245.9846703461235 L 1377.0895123366095 244.23022453659482 L 1377.4341767910523 242.49747931324214 L 1377.913728383359 240.79711762656368 L 1378.5252105184961 239.13962277178547 L 1379.2648532057617 237.5352137558602 L 1380.1280963020329 235.99378229389114 L 1381.1096176265637 234.52483182341936 L 1382.2033657739994 233.13741891257087 L 1383.4025974233027 231.8400974233027 L 1384.6999189125709 230.6408657739993 L 1386.0873318234194 229.54711762656368 L 1387.5562822938912 228.56559630203293 L 1389.0977137558602 227.7023532057617 L 1390.7021227717855 226.96271051849604 L 1392.3596176265637 226.35122838335903 L 1394.0599793132421 225.87167679105227 L 1395.792724536595 225.5270123366094 L 1397.5471703461235 225.3193599910046 L 1399.3125 225.25 L 1401.0778296538765 225.31935999100463 L 1402.8322754634053 225.5270123366094 L 1404.5650206867579 225.8716767910523 L 1406.2653823734365 226.35122838335909 L 1407.9228772282147 226.9627105184961 L 1409.52728624414 227.7023532057618 L 1411.068717706109 228.565596302033 L 1412.5376681765808 229.54711762656376 L 1413.9250810874294 230.64086577399942 L 1415.2224025766975 231.8400974233028 L 1416.4216342260008 233.137418912571 L 1417.5153823734365 234.5248318234195 L 1418.4969036979671 235.99378229389131 L 1419.3601467942383 237.53521375586038 L 1420.099789481504 239.1396227717857 L 1420.711271616641 240.7971176265639 L 1421.1908232089477 242.49747931324237 L 1421.5354876633905 244.23022453659505 L 1421.7431400089954 245.98467034612375 Z" fill-opacity="1" stroke-opacity="1" stroke-miterlimit="10" stroke-width="2"/><text fill="rgb(255,255,255)" stroke="none" font-family="times new roman" font-size="15px" font-style="normal" font-weight="normal" text-decoration="normal" x="1399.3125" y="255.25" text-anchor="middle" dominant-baseline="text-after-edge" fill-opacity="1">*164</text><path fill="rgb(69,90,100)" stroke="rgb(76,175,80)" paint-order="fill stroke markers" d=" M 405.8125 329.5 L 405.75855334032974 330.8730341752373 L 405.5970459604149 332.23760313820407 L 405.3289736069593 333.58529386747836 L 404.9559890351652 334.9077974015616 L 404.4803918189475 336.19696006638907 L 403.90511417329645 337.44483374544205 L 403.2337028761966 338.6437248825291 L 402.4702974015616 339.7862419151183 L 401.61960439800055 340.86534084577823 L 400.68686867076457 341.87436867076457 L 399.67784084577823 342.80710439800055 L 398.5987419151183 343.6577974015616 L 397.4562248825291 344.4212028761966 L 396.25733374544205 345.09261417329645 L 395.00946006638907 345.6678918189475 L 393.7202974015616 346.1434890351652 L 392.39779386747836 346.5164736069593 L 391.05010313820407 346.7845459604149 L 389.6855341752373 346.94605334032974 L 388.3125 347 L 386.9394658247627 346.94605334032974 L 385.57489686179593 346.7845459604149 L 384.22720613252164 346.5164736069593 L 382.9047025984384 346.1434890351652 L 381.61553993361093 345.6678918189475 L 380.36766625455795 345.09261417329645 L 379.1687751174709 344.4212028761966 L 378.0262580848817 343.6577974015616 L 376.94715915422177 342.80710439800055 L 375.93813132923543 341.87436867076457 L 375.00539560199945 340.86534084577823 L 374.1547025984384 339.7862419151183 L 373.3912971238034 338.6437248825291 L 372.71988582670355 337.44483374544205 L 372.1446081810525 336.19696006638907 L 371.6690109648348 334.9077974015616 L 371.2960263930407 333.58529386747836 L 371.0279540395851 332.23760313820407 L 370.86644665967026 330.8730341752373 L 370.8125 329.5 L 370.86644665967026 328.1269658247627 L 371.0279540395851 326.76239686179593 L 371.2960263930407 325.41470613252164 L 371.6690109648348 324.0922025984384 L 372.1446081810525 322.80303993361093 L 372.71988582670355 321.55516625455795 L 373.3912971238034 320.3562751174709 L 374.1547025984384 319.2137580848817 L 375.00539560199945 318.13465915422177 L 375.93813132923543 317.12563132923543 L 376.94715915422177 316.19289560199945 L 378.0262580848817 315.3422025984384 L 379.1687751174709 314.5787971238034 L 380.36766625455795 313.90738582670355 L 381.61553993361093 313.3321081810525 L 382.90470259843846 312.8565109648348 L 384.2272061325217 312.4835263930407 L 385.574896861796 312.2154540395851 L 386.93946582476275 312.05394665967026 L 388.31250000000006 312 L 389.68553417523736 312.05394665967026 L 391.0501031382041 312.2154540395851 L 392.3977938674784 312.4835263930407 L 393.72029740156165 312.85651096483485 L 395.0094600663892 313.3321081810525 L 396.25733374544217 313.9073858267036 L 397.4562248825292 314.57879712380344 L 398.59874191511835 315.3422025984385 L 399.6778408457783 316.19289560199957 L 400.6868686707647 317.1256313292355 L 401.61960439800066 318.1346591542219 L 402.47029740156165 319.2137580848818 L 403.2337028761967 320.35627511747106 L 403.9051141732965 321.55516625455806 L 404.48039181894757 322.8030399336111 L 404.95598903516526 324.0922025984386 L 405.3289736069594 325.4147061325218 L 405.59704596041496 326.76239686179616 L 405.75855334032974 328.1269658247629 Z" fill-opacity="1" stroke-opacity="1" stroke-miterlimit="10" stroke-width="2"/><text fill="rgb(255,255,255)" stroke="none" font-family="times new roman" font-size="10px" font-style="normal" font-weight="normal" text-decoration="normal" x="388.3125" y="334.5" text-anchor="middle" dominant-baseline="text-after-edge" fill-opacity="1">*1.54</text><path fill="rgb(69,90,100)" stroke="rgb(158,158,158)" paint-order="fill stroke markers" d=" M 1210.4375 93 L 1210.4375 113 L 1305.4375 113 L 1305.4375 93 Z" fill-opacity="1" stroke-opacity="1" stroke-miterlimit="10" stroke-width="2"/><text fill="rgb(255,255,255)" stroke="none" font-family="times new roman" font-size="10px" font-style="normal" font-weight="normal" text-decoration="normal" x="1257.9375" y="108" text-anchor="middle" dominant-baseline="text-after-edge" fill-opacity="1">42129132C&gt;T</text><path fill="rgb(69,90,100)" stroke="rgb(76,175,80)" paint-order="fill stroke markers" d=" M 1055.5625 319.5 L 1055.5625 339.5 L 1150.5625 339.5 L 1150.5625 319.5 Z" fill-opacity="1" stroke-opacity="1" stroke-miterlimit="10" stroke-width="2"/><text fill="rgb(255,255,255)" stroke="none" font-family="times new roman" font-size="10px" font-style="normal" font-weight="normal" text-decoration="normal" x="1103.0625" y="334.5" text-anchor="middle" dominant-baseline="text-after-edge" fill-opacity="1">42131531G&gt;A</text><path fill="rgb(69,90,100)" stroke="rgb(76,175,80)" paint-order="fill stroke markers" d=" M 296.1875 163.5 L 296.1875 183.5 L 391.1875 183.5 L 391.1875 163.5 Z" fill-opacity="1" stroke-opacity="1" stroke-miterlimit="10" stroke-width="2"/><text fill="rgb(255,255,255)" stroke="none" font-family="times new roman" font-size="10px" font-style="normal" font-weight="normal" text-decoration="normal" x="343.6875" y="178.5" text-anchor="middle" dominant-baseline="text-after-edge" fill-opacity="1">42127407T&gt;G</text><path fill="rgb(69,90,100)" stroke="rgb(76,175,80)" paint-order="fill stroke markers" d=" M 361.1875 247.75 L 361.13355334032974 249.12303417523728 L 360.9720459604149 250.48760313820404 L 360.7039736069593 251.83529386747836 L 360.3309890351652 253.15779740156157 L 359.8553918189475 254.44696006638907 L 359.28011417329645 255.69483374544205 L 358.6087028761966 256.8937248825291 L 357.8452974015616 258.0362419151183 L 356.99460439800055 259.11534084577823 L 356.06186867076457 260.12436867076457 L 355.05284084577823 261.05710439800055 L 353.9737419151183 261.9077974015616 L 352.8312248825291 262.6712028761966 L 351.63233374544205 263.34261417329645 L 350.38446006638907 263.9178918189475 L 349.0952974015616 264.3934890351652 L 347.77279386747836 264.7664736069593 L 346.42510313820407 265.0345459604149 L 345.0605341752373 265.19605334032974 L 343.6875 265.25 L 342.3144658247627 265.19605334032974 L 340.94989686179593 265.0345459604149 L 339.60220613252164 264.7664736069593 L 338.2797025984384 264.3934890351652 L 336.99053993361093 263.9178918189475 L 335.74266625455795 263.34261417329645 L 334.5437751174709 262.6712028761966 L 333.4012580848817 261.9077974015616 L 332.32215915422177 261.05710439800055 L 331.31313132923543 260.12436867076457 L 330.38039560199945 259.11534084577823 L 329.5297025984384 258.0362419151183 L 328.7662971238034 256.8937248825291 L 328.09488582670355 255.69483374544208 L 327.5196081810525 254.44696006638907 L 327.0440109648348 253.1577974015616 L 326.6710263930407 251.83529386747836 L 326.4029540395851 250.48760313820404 L 326.24144665967026 249.12303417523728 L 326.1875 247.75 L 326.24144665967026 246.37696582476272 L 326.4029540395851 245.01239686179596 L 326.6710263930407 243.66470613252164 L 327.0440109648348 242.34220259843843 L 327.5196081810525 241.05303993361093 L 328.09488582670355 239.80516625455795 L 328.7662971238034 238.6062751174709 L 329.5297025984384 237.46375808488173 L 330.38039560199945 236.3846591542218 L 331.31313132923543 235.37563132923543 L 332.32215915422177 234.44289560199945 L 333.4012580848817 233.59220259843843 L 334.5437751174709 232.82879712380338 L 335.74266625455795 232.15738582670355 L 336.99053993361093 231.5821081810525 L 338.27970259843846 231.1065109648348 L 339.6022061325217 230.73352639304065 L 340.949896861796 230.4654540395851 L 342.31446582476275 230.30394665967026 L 343.68750000000006 230.25 L 345.06053417523736 230.30394665967026 L 346.4251031382041 230.4654540395851 L 347.7727938674784 230.73352639304068 L 349.09529740156165 231.10651096483485 L 350.3844600663892 231.58210818105252 L 351.63233374544217 232.1573858267036 L 352.8312248825292 232.82879712380344 L 353.97374191511835 233.5922025984385 L 355.0528408457783 234.44289560199954 L 356.0618686707647 235.37563132923552 L 356.99460439800066 236.3846591542219 L 357.84529740156165 237.46375808488185 L 358.6087028761967 238.60627511747103 L 359.2801141732965 239.8051662545581 L 359.85539181894757 241.0530399336111 L 360.33098903516526 242.3422025984386 L 360.7039736069594 243.66470613252184 L 360.97204596041496 245.01239686179616 L 361.13355334032974 246.37696582476292 Z" fill-opacity="1" stroke-opacity="1" stroke-miterlimit="10" stroke-width="2"/><text fill="rgb(255,255,255)" stroke="none" font-family="times new roman" font-size="10px" font-style="normal" font-weight="normal" text-decoration="normal" x="343.6875" y="252.75" text-anchor="middle" dominant-baseline="text-after-edge" fill-opacity="1">*1.41</text><path fill="rgb(69,90,100)" stroke="rgb(76,175,80)" paint-order="fill stroke markers" d=" M 1565.6875 103 L 1565.6335533403299 104.37303417523728 L 1565.472045960415 105.73760313820404 L 1565.2039736069594 107.08529386747834 L 1564.8309890351652 108.40779740156158 L 1564.3553918189475 109.69696006638907 L 1563.7801141732964 110.94483374544207 L 1563.1087028761965 112.1437248825291 L 1562.3452974015615 113.28624191511828 L 1561.4946043980005 114.3653408457782 L 1560.5618686707646 115.37436867076458 L 1559.5528408457783 116.30710439800055 L 1558.4737419151184 117.15779740156158 L 1557.331224882529 117.92120287619662 L 1556.132333745442 118.59261417329644 L 1554.884460066389 119.16789181894751 L 1553.5952974015615 119.64348903516519 L 1552.2727938674784 120.01647360695934 L 1550.9251031382041 120.2845459604149 L 1549.5605341752373 120.44605334032974 L 1548.1875 120.5 L 1546.8144658247627 120.44605334032974 L 1545.4498968617959 120.2845459604149 L 1544.1022061325216 120.01647360695934 L 1542.7797025984385 119.64348903516519 L 1541.490539933611 119.16789181894751 L 1540.242666254558 118.59261417329644 L 1539.043775117471 117.92120287619662 L 1537.9012580848816 117.15779740156158 L 1536.8221591542217 116.30710439800055 L 1535.8131313292354 115.37436867076458 L 1534.8803956019995 114.36534084577822 L 1534.0297025984385 113.28624191511828 L 1533.2662971238035 112.14372488252911 L 1532.5948858267036 110.94483374544207 L 1532.0196081810525 109.69696006638907 L 1531.5440109648348 108.40779740156158 L 1531.1710263930406 107.08529386747834 L 1530.902954039585 105.73760313820404 L 1530.7414466596701 104.3730341752373 L 1530.6875 103 L 1530.7414466596701 101.62696582476272 L 1530.902954039585 100.26239686179596 L 1531.1710263930406 98.91470613252166 L 1531.5440109648348 97.59220259843842 L 1532.0196081810525 96.30303993361093 L 1532.5948858267036 95.05516625455793 L 1533.2662971238035 93.8562751174709 L 1534.0297025984385 92.71375808488172 L 1534.8803956019995 91.6346591542218 L 1535.8131313292354 90.62563132923542 L 1536.8221591542217 89.69289560199947 L 1537.9012580848816 88.84220259843842 L 1539.043775117471 88.07879712380338 L 1540.242666254558 87.40738582670356 L 1541.490539933611 86.83210818105248 L 1542.7797025984385 86.3565109648348 L 1544.1022061325216 85.98352639304065 L 1545.449896861796 85.71545403958508 L 1546.8144658247627 85.55394665967026 L 1548.1875 85.5 L 1549.5605341752373 85.55394665967026 L 1550.9251031382041 85.7154540395851 L 1552.2727938674784 85.98352639304068 L 1553.5952974015618 86.35651096483484 L 1554.8844600663892 86.83210818105252 L 1556.132333745442 87.4073858267036 L 1557.331224882529 88.07879712380344 L 1558.4737419151184 88.84220259843849 L 1559.5528408457783 89.69289560199954 L 1560.5618686707646 90.62563132923552 L 1561.4946043980005 91.6346591542219 L 1562.3452974015618 92.71375808488185 L 1563.1087028761967 93.85627511747103 L 1563.7801141732966 95.05516625455807 L 1564.3553918189475 96.30303993361109 L 1564.8309890351652 97.59220259843859 L 1565.2039736069594 98.91470613252184 L 1565.472045960415 100.26239686179616 L 1565.6335533403299 101.62696582476292 Z" fill-opacity="1" stroke-opacity="1" stroke-miterlimit="10" stroke-width="2"/><text fill="rgb(255,255,255)" stroke="none" font-family="times new roman" font-size="10px" font-style="normal" font-weight="normal" text-decoration="normal" x="1548.1875" y="108" text-anchor="middle" dominant-baseline="text-after-edge" fill-opacity="1">*34.1</text><path fill="rgb(69,90,100)" stroke="rgb(76,175,80)" paint-order="fill stroke markers" d=" M 1418.0625 173.5 L 1417.9931400089954 175.2653296538765 L 1417.7854876633905 177.01977546340518 L 1417.4408232089477 178.75252068675786 L 1416.961271616641 180.45288237343632 L 1416.3497894815039 182.11037722821453 L 1415.6101467942383 183.71478624413982 L 1414.7469036979671 185.25621770610886 L 1413.7653823734363 186.72516817658064 L 1412.6716342260006 188.11258108742913 L 1411.4724025766973 189.4099025766973 L 1410.1750810874291 190.6091342260007 L 1408.7876681765806 191.70288237343632 L 1407.3187177061088 192.68440369796707 L 1405.7772862441398 193.5476467942383 L 1404.1728772282145 194.28728948150396 L 1402.5153823734363 194.89877161664094 L 1400.8150206867579 195.37832320894773 L 1399.0822754634053 195.7229876633906 L 1397.3278296538765 195.93064000899537 L 1395.5625 196 L 1393.7971703461235 195.93064000899537 L 1392.0427245365947 195.7229876633906 L 1390.3099793132421 195.37832320894773 L 1388.6096176265637 194.89877161664094 L 1386.9521227717855 194.28728948150396 L 1385.3477137558602 193.5476467942383 L 1383.8062822938912 192.68440369796707 L 1382.3373318234194 191.70288237343632 L 1380.9499189125709 190.6091342260007 L 1379.6525974233027 189.40990257669733 L 1378.4533657739994 188.11258108742913 L 1377.3596176265637 186.72516817658064 L 1376.3780963020329 185.25621770610886 L 1375.5148532057617 183.71478624413982 L 1374.7752105184961 182.11037722821453 L 1374.163728383359 180.45288237343632 L 1373.6841767910523 178.75252068675786 L 1373.3395123366095 177.0197754634052 L 1373.1318599910046 175.2653296538765 L 1373.0625 173.5 L 1373.1318599910046 171.7346703461235 L 1373.3395123366095 169.98022453659482 L 1373.6841767910523 168.24747931324214 L 1374.163728383359 166.54711762656368 L 1374.7752105184961 164.88962277178547 L 1375.5148532057617 163.2852137558602 L 1376.3780963020329 161.74378229389114 L 1377.3596176265637 160.27483182341936 L 1378.4533657739994 158.88741891257087 L 1379.6525974233027 157.5900974233027 L 1380.9499189125709 156.3908657739993 L 1382.3373318234194 155.29711762656368 L 1383.8062822938912 154.31559630203293 L 1385.3477137558602 153.4523532057617 L 1386.9521227717855 152.71271051849604 L 1388.6096176265637 152.10122838335903 L 1390.3099793132421 151.62167679105227 L 1392.042724536595 151.2770123366094 L 1393.7971703461235 151.0693599910046 L 1395.5625 151 L 1397.3278296538765 151.06935999100463 L 1399.0822754634053 151.2770123366094 L 1400.8150206867579 151.6216767910523 L 1402.5153823734365 152.10122838335909 L 1404.1728772282147 152.7127105184961 L 1405.77728624414 153.4523532057618 L 1407.318717706109 154.315596302033 L 1408.7876681765808 155.29711762656376 L 1410.1750810874294 156.39086577399942 L 1411.4724025766975 157.5900974233028 L 1412.6716342260008 158.887418912571 L 1413.7653823734365 160.2748318234195 L 1414.7469036979671 161.74378229389131 L 1415.6101467942383 163.28521375586038 L 1416.349789481504 164.8896227717857 L 1416.961271616641 166.5471176265639 L 1417.4408232089477 168.24747931324237 L 1417.7854876633905 169.98022453659505 L 1417.9931400089954 171.73467034612375 Z" fill-opacity="1" stroke-opacity="1" stroke-miterlimit="10" stroke-width="2"/><text fill="rgb(255,255,255)" stroke="none" font-family="times new roman" font-size="15px" font-style="normal" font-weight="normal" text-decoration="normal" x="1395.5625" y="181" text-anchor="middle" dominant-baseline="text-after-edge" fill-opacity="1">*39</text><path fill="rgb(69,90,100)" stroke="rgb(158,158,158)" paint-order="fill stroke markers" d=" M 1411.4375 93 L 1411.4375 113 L 1506.4375 113 L 1506.4375 93 Z" fill-opacity="1" stroke-opacity="1" stroke-miterlimit="10" stroke-width="2"/><text fill="rgb(255,255,255)" stroke="none" font-family="times new roman" font-size="10px" font-style="normal" font-weight="normal" text-decoration="normal" x="1458.9375" y="108" text-anchor="middle" dominant-baseline="text-after-edge" fill-opacity="1">42126611C&gt;G</text><path fill="rgb(69,90,100)" stroke="rgb(76,175,80)" paint-order="fill stroke markers" d=" M 1390.8125 319.5 L 1390.8125 339.5 L 1485.8125 339.5 L 1485.8125 319.5 Z" fill-opacity="1" stroke-opacity="1" stroke-miterlimit="10" stroke-width="2"/><text fill="rgb(255,255,255)" stroke="none" font-family="times new roman" font-size="10px" font-style="normal" font-weight="normal" text-decoration="normal" x="1438.3125" y="334.5" text-anchor="middle" dominant-baseline="text-after-edge" fill-opacity="1">42128668G&gt;A</text><path fill="rgb(69,90,100)" stroke="rgb(76,175,80)" paint-order="fill stroke markers" d=" M 1615.3125 173.5 L 1615.2431400089954 175.2653296538765 L 1615.0354876633905 177.01977546340518 L 1614.6908232089477 178.75252068675786 L 1614.211271616641 180.45288237343632 L 1613.5997894815039 182.11037722821453 L 1612.8601467942383 183.71478624413982 L 1611.9969036979671 185.25621770610886 L 1611.0153823734363 186.72516817658064 L 1609.9216342260006 188.11258108742913 L 1608.7224025766973 189.4099025766973 L 1607.4250810874291 190.6091342260007 L 1606.0376681765806 191.70288237343632 L 1604.5687177061088 192.68440369796707 L 1603.0272862441398 193.5476467942383 L 1601.4228772282145 194.28728948150396 L 1599.7653823734363 194.89877161664094 L 1598.0650206867579 195.37832320894773 L 1596.3322754634053 195.7229876633906 L 1594.5778296538765 195.93064000899537 L 1592.8125 196 L 1591.0471703461235 195.93064000899537 L 1589.2927245365947 195.7229876633906 L 1587.5599793132421 195.37832320894773 L 1585.8596176265637 194.89877161664094 L 1584.2021227717855 194.28728948150396 L 1582.5977137558602 193.5476467942383 L 1581.0562822938912 192.68440369796707 L 1579.5873318234194 191.70288237343632 L 1578.1999189125709 190.6091342260007 L 1576.9025974233027 189.40990257669733 L 1575.7033657739994 188.11258108742913 L 1574.6096176265637 186.72516817658064 L 1573.6280963020329 185.25621770610886 L 1572.7648532057617 183.71478624413982 L 1572.0252105184961 182.11037722821453 L 1571.413728383359 180.45288237343632 L 1570.9341767910523 178.75252068675786 L 1570.5895123366095 177.0197754634052 L 1570.3818599910046 175.2653296538765 L 1570.3125 173.5 L 1570.3818599910046 171.7346703461235 L 1570.5895123366095 169.98022453659482 L 1570.9341767910523 168.24747931324214 L 1571.413728383359 166.54711762656368 L 1572.0252105184961 164.88962277178547 L 1572.7648532057617 163.2852137558602 L 1573.6280963020329 161.74378229389114 L 1574.6096176265637 160.27483182341936 L 1575.7033657739994 158.88741891257087 L 1576.9025974233027 157.5900974233027 L 1578.1999189125709 156.3908657739993 L 1579.5873318234194 155.29711762656368 L 1581.0562822938912 154.31559630203293 L 1582.5977137558602 153.4523532057617 L 1584.2021227717855 152.71271051849604 L 1585.8596176265637 152.10122838335903 L 1587.5599793132421 151.62167679105227 L 1589.292724536595 151.2770123366094 L 1591.0471703461235 151.0693599910046 L 1592.8125 151 L 1594.5778296538765 151.06935999100463 L 1596.3322754634053 151.2770123366094 L 1598.0650206867579 151.6216767910523 L 1599.7653823734365 152.10122838335909 L 1601.4228772282147 152.7127105184961 L 1603.02728624414 153.4523532057618 L 1604.568717706109 154.315596302033 L 1606.0376681765808 155.29711762656376 L 1607.4250810874294 156.39086577399942 L 1608.7224025766975 157.5900974233028 L 1609.9216342260008 158.887418912571 L 1611.0153823734365 160.2748318234195 L 1611.9969036979671 161.74378229389131 L 1612.8601467942383 163.28521375586038 L 1613.599789481504 164.8896227717857 L 1614.211271616641 166.5471176265639 L 1614.6908232089477 168.24747931324237 L 1615.0354876633905 169.98022453659505 L 1615.2431400089954 171.73467034612375 Z" fill-opacity="1" stroke-opacity="1" stroke-miterlimit="10" stroke-width="2"/><text fill="rgb(255,255,255)" stroke="none" font-family="times new roman" font-size="15px" font-style="normal" font-weight="normal" text-decoration="normal" x="1592.8125" y="181" text-anchor="middle" dominant-baseline="text-after-edge" fill-opacity="1">*34</text><path fill="rgb(69,90,100)" stroke="rgb(76,175,80)" paint-order="fill stroke markers" d=" M 1031.3125 329.5 L 1031.2585533403299 330.8730341752373 L 1031.097045960415 332.23760313820407 L 1030.8289736069594 333.58529386747836 L 1030.4559890351652 334.9077974015616 L 1029.9803918189475 336.19696006638907 L 1029.4051141732964 337.44483374544205 L 1028.7337028761965 338.6437248825291 L 1027.9702974015615 339.7862419151183 L 1027.1196043980005 340.86534084577823 L 1026.1868686707646 341.87436867076457 L 1025.1778408457783 342.80710439800055 L 1024.0987419151184 343.6577974015616 L 1022.9562248825291 344.4212028761966 L 1021.7573337454421 345.09261417329645 L 1020.5094600663891 345.6678918189475 L 1019.2202974015615 346.1434890351652 L 1017.8977938674783 346.5164736069593 L 1016.550103138204 346.7845459604149 L 1015.1855341752373 346.94605334032974 L 1013.8125 347 L 1012.4394658247627 346.94605334032974 L 1011.074896861796 346.7845459604149 L 1009.7272061325217 346.5164736069593 L 1008.4047025984385 346.1434890351652 L 1007.1155399336109 345.6678918189475 L 1005.8676662545579 345.09261417329645 L 1004.6687751174709 344.4212028761966 L 1003.5262580848818 343.6577974015616 L 1002.4471591542218 342.80710439800055 L 1001.4381313292354 341.87436867076457 L 1000.5053956019995 340.86534084577823 L 999.6547025984385 339.7862419151183 L 998.8912971238034 338.6437248825291 L 998.2198858267036 337.44483374544205 L 997.6446081810525 336.19696006638907 L 997.1690109648348 334.9077974015616 L 996.7960263930406 333.58529386747836 L 996.5279540395851 332.23760313820407 L 996.3664466596703 330.8730341752373 L 996.3125 329.5 L 996.3664466596703 328.1269658247627 L 996.5279540395851 326.76239686179593 L 996.7960263930406 325.41470613252164 L 997.1690109648348 324.0922025984384 L 997.6446081810525 322.80303993361093 L 998.2198858267036 321.55516625455795 L 998.8912971238034 320.3562751174709 L 999.6547025984385 319.2137580848817 L 1000.5053956019995 318.13465915422177 L 1001.4381313292354 317.12563132923543 L 1002.4471591542218 316.19289560199945 L 1003.5262580848818 315.3422025984384 L 1004.6687751174709 314.5787971238034 L 1005.8676662545579 313.90738582670355 L 1007.115539933611 313.3321081810525 L 1008.4047025984385 312.8565109648348 L 1009.7272061325217 312.4835263930407 L 1011.074896861796 312.2154540395851 L 1012.4394658247628 312.05394665967026 L 1013.8125000000001 312 L 1015.1855341752373 312.05394665967026 L 1016.5501031382041 312.2154540395851 L 1017.8977938674784 312.4835263930407 L 1019.2202974015617 312.85651096483485 L 1020.5094600663891 313.3321081810525 L 1021.7573337454421 313.9073858267036 L 1022.9562248825292 314.57879712380344 L 1024.0987419151184 315.3422025984385 L 1025.1778408457783 316.19289560199957 L 1026.1868686707646 317.1256313292355 L 1027.1196043980005 318.1346591542219 L 1027.9702974015618 319.2137580848818 L 1028.7337028761967 320.35627511747106 L 1029.4051141732966 321.55516625455806 L 1029.9803918189475 322.8030399336111 L 1030.4559890351652 324.0922025984386 L 1030.8289736069594 325.4147061325218 L 1031.097045960415 326.76239686179616 L 1031.2585533403299 328.1269658247629 Z" fill-opacity="1" stroke-opacity="1" stroke-miterlimit="10" stroke-width="2"/><text fill="rgb(255,255,255)" stroke="none" font-family="times new roman" font-size="10px" font-style="normal" font-weight="normal" text-decoration="normal" x="1013.8125" y="334.5" text-anchor="middle" dominant-baseline="text-after-edge" fill-opacity="1">*1.58</text><path fill="rgb(69,90,100)" stroke="rgb(76,175,80)" paint-order="fill stroke markers" d=" M 709.4375 237.75 L 709.4375 257.75 L 804.4375 257.75 L 804.4375 237.75 Z" fill-opacity="1" stroke-opacity="1" stroke-miterlimit="10" stroke-width="2"/><text fill="rgb(255,255,255)" stroke="none" font-family="times new roman" font-size="10px" font-style="normal" font-weight="normal" text-decoration="normal" x="756.9375" y="252.75" text-anchor="middle" dominant-baseline="text-after-edge" fill-opacity="1">42129950A&gt;C</text><path fill="rgb(69,90,100)" stroke="rgb(76,175,80)" paint-order="fill stroke markers" d=" M 541.8125 319.5 L 541.8125 339.5 L 636.8125 339.5 L 636.8125 319.5 Z" fill-opacity="1" stroke-opacity="1" stroke-miterlimit="10" stroke-width="2"/><text fill="rgb(255,255,255)" stroke="none" font-family="times new roman" font-size="10px" font-style="normal" font-weight="normal" text-decoration="normal" x="589.3125" y="334.5" text-anchor="middle" dominant-baseline="text-after-edge" fill-opacity="1">42130967C&gt;T</text><path fill="rgb(69,90,100)" stroke="rgb(76,175,80)" paint-order="fill stroke markers" d=" M 597.6875 237.75 L 597.6875 257.75 L 692.6875 257.75 L 692.6875 237.75 Z" fill-opacity="1" stroke-opacity="1" stroke-miterlimit="10" stroke-width="2"/><text fill="rgb(255,255,255)" stroke="none" font-family="times new roman" font-size="10px" font-style="normal" font-weight="normal" text-decoration="normal" x="645.1875" y="252.75" text-anchor="middle" dominant-baseline="text-after-edge" fill-opacity="1">42130047G&gt;C</text><path fill="rgb(69,90,100)" stroke="rgb(69,90,100)" paint-order="fill stroke markers" d=" M 501.9375 586.5 L 483.1875 604 L 501.9375 621.5 L 539.4375 621.5 L 558.1875 604 L 539.4375 586.5 Z" fill-opacity="1" stroke-opacity="1" stroke-miterlimit="10" stroke-width="2"/><text fill="rgb(255,255,255)" stroke="none" font-family="times new roman" font-size="10px" font-style="normal" font-weight="normal" text-decoration="normal" x="520.6875" y="609" text-anchor="middle" dominant-baseline="text-after-edge" fill-opacity="1">NA18519-A</text><path fill="rgb(69,90,100)" stroke="rgb(158,158,158)" paint-order="fill stroke markers" d=" M 1444.8125 237.75 L 1444.8125 257.75 L 1539.8125 257.75 L 1539.8125 237.75 Z" fill-opacity="1" stroke-opacity="1" stroke-miterlimit="10" stroke-width="2"/><text fill="rgb(255,255,255)" stroke="none" font-family="times new roman" font-size="10px" font-style="normal" font-weight="normal" text-decoration="normal" x="1492.3125" y="252.75" text-anchor="middle" dominant-baseline="text-after-edge" fill-opacity="1">42127608C&gt;T</text><path fill="rgb(69,90,100)" stroke="rgb(255,193,7)" paint-order="fill stroke markers" d=" M 1561.3125 329.5 L 1561.2431400089954 331.2653296538765 L 1561.0354876633905 333.0197754634052 L 1560.6908232089477 334.75252068675786 L 1560.211271616641 336.4528823734363 L 1559.5997894815039 338.11037722821453 L 1558.8601467942383 339.7147862441398 L 1557.9969036979671 341.2562177061088 L 1557.0153823734363 342.72516817658067 L 1555.9216342260006 344.11258108742913 L 1554.7224025766973 345.40990257669733 L 1553.4250810874291 346.6091342260007 L 1552.0376681765806 347.7028823734363 L 1550.5687177061088 348.68440369796707 L 1549.0272862441398 349.5476467942383 L 1547.4228772282145 350.28728948150393 L 1545.7653823734363 350.89877161664094 L 1544.0650206867579 351.37832320894773 L 1542.3322754634053 351.7229876633906 L 1540.5778296538765 351.9306400089954 L 1538.8125 352 L 1537.0471703461235 351.9306400089954 L 1535.2927245365947 351.7229876633906 L 1533.5599793132421 351.37832320894773 L 1531.8596176265637 350.89877161664094 L 1530.2021227717855 350.28728948150393 L 1528.5977137558602 349.5476467942383 L 1527.0562822938912 348.68440369796707 L 1525.5873318234194 347.7028823734363 L 1524.1999189125709 346.6091342260007 L 1522.9025974233027 345.40990257669733 L 1521.7033657739994 344.11258108742913 L 1520.6096176265637 342.72516817658067 L 1519.6280963020329 341.2562177061088 L 1518.7648532057617 339.7147862441398 L 1518.0252105184961 338.11037722821453 L 1517.413728383359 336.4528823734363 L 1516.9341767910523 334.75252068675786 L 1516.5895123366095 333.0197754634052 L 1516.3818599910046 331.2653296538765 L 1516.3125 329.5 L 1516.3818599910046 327.7346703461235 L 1516.5895123366095 325.9802245365948 L 1516.9341767910523 324.24747931324214 L 1517.413728383359 322.5471176265637 L 1518.0252105184961 320.88962277178547 L 1518.7648532057617 319.2852137558602 L 1519.6280963020329 317.7437822938912 L 1520.6096176265637 316.27483182341933 L 1521.7033657739994 314.88741891257087 L 1522.9025974233027 313.59009742330267 L 1524.1999189125709 312.39086577399934 L 1525.5873318234194 311.2971176265637 L 1527.0562822938912 310.31559630203293 L 1528.5977137558602 309.4523532057617 L 1530.2021227717855 308.712710518496 L 1531.8596176265637 308.10122838335906 L 1533.5599793132421 307.62167679105227 L 1535.292724536595 307.2770123366094 L 1537.0471703461235 307.0693599910046 L 1538.8125 307 L 1540.5778296538765 307.0693599910046 L 1542.3322754634053 307.2770123366094 L 1544.0650206867579 307.6216767910523 L 1545.7653823734365 308.10122838335906 L 1547.4228772282147 308.7127105184961 L 1549.02728624414 309.45235320576177 L 1550.568717706109 310.315596302033 L 1552.0376681765808 311.29711762656376 L 1553.4250810874294 312.3908657739994 L 1554.7224025766975 313.5900974233028 L 1555.9216342260008 314.887418912571 L 1557.0153823734365 316.2748318234195 L 1557.9969036979671 317.74378229389134 L 1558.8601467942383 319.2852137558604 L 1559.599789481504 320.8896227717857 L 1560.211271616641 322.54711762656393 L 1560.6908232089477 324.24747931324237 L 1561.0354876633905 325.9802245365951 L 1561.2431400089954 327.7346703461238 Z" fill-opacity="1" stroke-opacity="1" stroke-miterlimit="10" stroke-width="2"/><text fill="rgb(255,255,255)" stroke="none" font-family="times new roman" font-size="15px" font-style="normal" font-weight="normal" text-decoration="normal" x="1538.8125" y="337" text-anchor="middle" dominant-baseline="text-after-edge" fill-opacity="1">*29</text><path fill="rgb(3,169,244)" stroke="none" paint-order="stroke fill markers" d=" M 1538.8125 297 L 1563.3125 297 L 1563.3125 297 A 8 8 0 0 1 1571.3125 305 L 1571.3125 354 L 1571.3125 354 A 8 8 0 0 1 1563.3125 362 L 1514.3125 362 L 1514.3125 362 A 8 8 0 0 1 1506.3125 354 L 1506.3125 305 L 1506.3125 305 A 8 8 0 0 1 1514.3125 297 L 1538.8125 297 Z" fill-opacity="0.15"/><path fill="rgb(176,190,197)" stroke="none" paint-order="stroke fill markers" d=" M 299.0625 367.375 L 366.0625 367.375 L 366.0625 367.375 A 8 8 0 0 1 374.0625 375.375 L 374.0625 569.375 L 374.0625 569.375 A 8 8 0 0 1 366.0625 577.375 L 232.0625 577.375 L 232.0625 577.375 A 8 8 0 0 1 224.0625 569.375 L 224.0625 375.375 L 224.0625 375.375 A 8 8 0 0 1 232.0625 367.375 L 299.0625 367.375 Z" fill-opacity="0.8"/><text fill="rgb(0,0,0)" stroke="none" font-family="times new roman" font-size="10px" font-style="normal" font-weight="normal" text-decoration="normal" x="229.0625" y="382.375" text-anchor="start" dominant-baseline="text-after-edge" fill-opacity="0.8">42125924A&gt;G </text><text fill="rgb(0,0,0)" stroke="none" font-family="times new roman" font-size="10px" font-style="normal" font-weight="normal" text-decoration="normal" x="229.0625" y="392.375" text-anchor="start" dominant-baseline="text-after-edge" fill-opacity="0.8">42126069A&gt;C </text><text fill="rgb(0,0,0)" stroke="none" font-family="times new roman" font-size="10px" font-style="normal" font-weight="normal" text-decoration="normal" x="229.0625" y="402.375" text-anchor="start" dominant-baseline="text-after-edge" fill-opacity="0.8">42132027C&gt;T </text><text fill="rgb(0,0,0)" stroke="none" font-family="times new roman" font-size="10px" font-style="normal" font-weight="normal" text-decoration="normal" x="229.0625" y="412.375" text-anchor="start" dominant-baseline="text-after-edge" fill-opacity="0.8">42132844C&gt;A </text><text fill="rgb(0,0,0)" stroke="none" font-family="times new roman" font-size="10px" font-style="normal" font-weight="normal" text-decoration="normal" x="229.0625" y="422.375" text-anchor="start" dominant-baseline="text-after-edge" fill-opacity="0.8">42132851T&gt;C </text><text fill="rgb(0,0,0)" stroke="none" font-family="times new roman" font-size="10px" font-style="normal" font-weight="normal" text-decoration="normal" x="229.0625" y="432.375" text-anchor="start" dominant-baseline="text-after-edge" fill-opacity="0.8">42132969C&gt;T </text><text fill="rgb(0,0,0)" stroke="none" font-family="times new roman" font-size="10px" font-style="normal" font-weight="normal" text-decoration="normal" x="229.0625" y="442.375" text-anchor="start" dominant-baseline="text-after-edge" fill-opacity="0.8">42133400T&gt;G </text><text fill="rgb(0,0,0)" stroke="none" font-family="times new roman" font-size="10px" font-style="normal" font-weight="normal" text-decoration="normal" x="229.0625" y="452.375" text-anchor="start" dominant-baseline="text-after-edge" fill-opacity="0.8">42133533A&gt;C </text><text fill="rgb(0,0,0)" stroke="none" font-family="times new roman" font-size="10px" font-style="normal" font-weight="normal" text-decoration="normal" x="229.0625" y="462.375" text-anchor="start" dominant-baseline="text-after-edge" fill-opacity="0.8">42134096del </text><text fill="rgb(0,0,0)" stroke="none" font-family="times new roman" font-size="10px" font-style="normal" font-weight="normal" text-decoration="normal" x="229.0625" y="472.375" text-anchor="start" dominant-baseline="text-after-edge" fill-opacity="0.8">42134820T&gt;G </text><text fill="rgb(0,0,0)" stroke="none" font-family="times new roman" font-size="10px" font-style="normal" font-weight="normal" text-decoration="normal" x="229.0625" y="482.375" text-anchor="start" dominant-baseline="text-after-edge" fill-opacity="0.8">42135064_42135066dup </text><text fill="rgb(0,0,0)" stroke="none" font-family="times new roman" font-size="10px" font-style="normal" font-weight="normal" text-decoration="normal" x="229.0625" y="492.375" text-anchor="start" dominant-baseline="text-after-edge" fill-opacity="0.8">42135083G&gt;A </text><text fill="rgb(0,0,0)" stroke="none" font-family="times new roman" font-size="10px" font-style="normal" font-weight="normal" text-decoration="normal" x="229.0625" y="502.375" text-anchor="start" dominant-baseline="text-after-edge" fill-opacity="0.8">42135201T&gt;C </text><text fill="rgb(0,0,0)" stroke="none" font-family="times new roman" font-size="10px" font-style="normal" font-weight="normal" text-decoration="normal" x="229.0625" y="512.375" text-anchor="start" dominant-baseline="text-after-edge" fill-opacity="0.8">42135456C&gt;G </text><text fill="rgb(0,0,0)" stroke="none" font-family="times new roman" font-size="10px" font-style="normal" font-weight="normal" text-decoration="normal" x="229.0625" y="522.375" text-anchor="start" dominant-baseline="text-after-edge" fill-opacity="0.8">42135691T&gt;C </text><g transform="scale(1.529649947753396,1.529649947753396) translate(115.82584749380919,-72.90137477585176)"/></g></svg>