<svg version="1.1" xmlns="http://www.w3.org/2000/svg" xmlns:xlink="http://www.w3.org/1999/xlink" width="1017" height="608"><defs/><g transform="translate(-57.51683324566022,-53.45397159389796) scale(1.1530773277222515,1.1530773277222515)"><path fill="none" stroke="rgb(120,144,156)" paint-order="fill stroke markers" d=" M 668.5981159251915 189.5633726491661 L 690.4787475316563 228.19636282933067" stroke-opacity="1" stroke-linejoin="round" stroke-miterlimit="10"/><path fill="rgb(120,144,156)" stroke="none" paint-order="stroke fill markers" d=" M 683.3917897778267 224.51023616365106 L 691.4643840748085 229.9366273508339 L 690.9619404463657 220.2227172009387 Z" fill-opacity="1"/><path fill="none" stroke="rgb(120,144,156)" paint-order="fill stroke markers" d=" M 198.71875 415.064880112835 L 399.89107009033603 514.6579468994471" stroke-opacity="1" stroke-linejoin="round" stroke-miterlimit="10"/><path fill="rgb(120,144,156)" stroke="none" paint-order="stroke fill markers" d=" M 391.95663017155954 515.5837779722282 L 401.6834497219881 515.5452885788686 L 395.81656647704335 507.7869265745415 Z" fill-opacity="1"/><path fill="none" stroke="rgb(120,144,156)" paint-order="fill stroke markers" d=" M 744.668418141593 180.375 L 717.5837524683437 228.19636282933067" stroke-opacity="1" stroke-linejoin="round" stroke-miterlimit="10"/><path fill="rgb(120,144,156)" stroke="none" paint-order="stroke fill markers" d=" M 717.1005595536343 220.2227172009387 L 716.5981159251915 229.9366273508339 L 724.6707102221733 224.51023616365106 Z" fill-opacity="1"/><path fill="none" stroke="rgb(120,144,156)" paint-order="fill stroke markers" d=" M 271.2530855760325 408.9527272052013 L 404.0650166270956 510.5147921266025" stroke-opacity="1" stroke-linejoin="round" stroke-miterlimit="10"/><path fill="rgb(120,144,156)" stroke="none" paint-order="stroke fill markers" d=" M 396.1004111782154 509.900332979329 L 405.65373229305 511.7296923417441 L 401.3852271140813 502.98941983242736 Z" fill-opacity="1"/><path fill="none" stroke="rgb(55,71,79)" paint-order="fill stroke markers" d=" M 618.0644132653061 106.875 L 642.4766773259075 145.77584354372266" stroke-opacity="1" stroke-linejoin="round" stroke-miterlimit="10" stroke-width="2"/><path fill="none" stroke="rgb(120,144,156)" paint-order="fill stroke markers" d=" M 712.6354706003639 276.12952848652253 L 748.1892906467377 375.31953368836247" stroke-opacity="1" stroke-linejoin="round" stroke-miterlimit="10"/><path fill="rgb(120,144,156)" stroke="none" paint-order="stroke fill markers" d=" M 741.8336837079607 370.4802403060833 L 748.8641314781388 377.20224180495245 L 750.0234640151273 367.5446826894886 Z" fill-opacity="1"/><path fill="none" stroke="rgb(120,144,156)" paint-order="fill stroke markers" d=" M 374.88498376623374 265.125 L 418.78429984676774 375.59059928761826" stroke-opacity="1" stroke-linejoin="round" stroke-miterlimit="10"/><path fill="rgb(120,144,156)" stroke="none" paint-order="stroke fill markers" d=" M 412.2674461078559 370.9707381051117 L 419.5229176381662 377.4492126842744 L 420.3524143833102 367.7577507125286 Z" fill-opacity="1"/><path fill="none" stroke="rgb(120,144,156)" paint-order="fill stroke markers" d=" M 597.71875 263.125 L 597.71875 289.5" stroke-opacity="1" stroke-linejoin="round" stroke-miterlimit="10"/><path fill="rgb(120,144,156)" stroke="none" paint-order="stroke fill markers" d=" M 593.36875 282.8 L 597.71875 291.5 L 602.06875 282.8 Z" fill-opacity="1"/><path fill="none" stroke="rgb(120,144,156)" paint-order="fill stroke markers" d=" M 427.09375 417 L 427.09375 507.625" stroke-opacity="1" stroke-linejoin="round" stroke-miterlimit="10"/><path fill="rgb(120,144,156)" stroke="none" paint-order="stroke fill markers" d=" M 422.74375 500.925 L 427.09375 509.625 L 431.44375 500.925 Z" fill-opacity="1"/><path fill="none" stroke="rgb(55,71,79)" paint-order="fill stroke markers" d=" M 254.96875 265.125 L 254.96875 376" stroke-opacity="1" stroke-linejoin="round" stroke-miterlimit="10" stroke-width="2"/><path fill="none" stroke="rgb(120,144,156)" paint-order="fill stroke markers" d=" M 479.30251623376626 265.125 L 435.40320015323226 375.59059928761826" stroke-opacity="1" stroke-linejoin="round" stroke-miterlimit="10"/><path fill="rgb(120,144,156)" stroke="none" paint-order="stroke fill markers" d=" M 433.8350856166898 367.7577507125286 L 434.6645823618338 377.4492126842744 L 441.9200538921441 370.9707381051117 Z" fill-opacity="1"/><path fill="none" stroke="rgb(120,144,156)" paint-order="fill stroke markers" d=" M 802.8715097402597 265.125 L 763.3732093532623 375.31953368836247" stroke-opacity="1" stroke-linejoin="round" stroke-miterlimit="10"/><path fill="rgb(120,144,156)" stroke="none" paint-order="stroke fill markers" d=" M 761.5390359848727 367.5446826894886 L 762.6983685218612 377.20224180495245 L 769.7288162920393 370.4802403060833 Z" fill-opacity="1"/><path fill="none" stroke="rgb(55,71,79)" paint-order="fill stroke markers" d=" M 691.2594366737688 111.23902773936021 L 669.5858226740925 145.77584354372266" stroke-opacity="1" stroke-linejoin="round" stroke-miterlimit="10" stroke-width="2"/><path fill="none" stroke="rgb(120,144,156)" paint-order="fill stroke markers" d=" M 522.71875 454.3571428571429 L 450.0341361003324 510.42813072260077" stroke-opacity="1" stroke-linejoin="round" stroke-miterlimit="10"/><path fill="rgb(120,144,156)" stroke="none" paint-order="stroke fill markers" d=" M 452.6820821864382 502.8914947671444 L 448.4505715892054 511.6497376311844 L 457.99607223877706 509.78000039054666 Z" fill-opacity="1"/><path fill="none" stroke="rgb(120,144,156)" paint-order="fill stroke markers" d=" M 736.7504741006993 404.12099525459735 L 456.12641337050303 516.4986852903062" stroke-opacity="1" stroke-linejoin="round" stroke-miterlimit="10"/><path fill="rgb(120,144,156)" stroke="none" paint-order="stroke fill markers" d=" M 460.7290899152745 509.9696831748057 L 454.2697523071566 517.242197022462 L 463.9633659501524 518.0461588003626 Z" fill-opacity="1"/><path fill="rgb(69,90,100)" stroke="rgb(76,175,80)" paint-order="fill stroke markers" d=" M 322.21875 242.125 L 322.21875 262.125 L 417.21875 262.125 L 417.21875 242.125 Z" fill-opacity="1" stroke-opacity="1" stroke-miterlimit="10" stroke-width="6"/><text fill="rgb(255,255,255)" stroke="none" font-family="times new roman" font-size="10px" font-style="normal" font-weight="normal" text-decoration="normal" x="369.71875" y="257.125" text-anchor="middle" dominant-baseline="text-after-edge" fill-opacity="1">42129950A&gt;C</text><path fill="rgb(69,90,100)" stroke="rgb(255,193,7)" paint-order="fill stroke markers" d=" M 704.53125 157.375 L 704.53125 177.375 L 799.53125 177.375 L 799.53125 157.375 Z" fill-opacity="1" stroke-opacity="1" stroke-miterlimit="10" stroke-width="6"/><text fill="rgb(255,255,255)" stroke="none" font-family="times new roman" font-size="10px" font-style="normal" font-weight="normal" text-decoration="normal" x="752.03125" y="172.375" text-anchor="middle" dominant-baseline="text-after-edge" fill-opacity="1">42130692G&gt;A</text><path fill="rgb(69,90,100)" stroke="rgb(255,193,7)" paint-order="fill stroke markers" d=" M 562.40625 83.875 L 562.40625 103.875 L 657.40625 103.875 L 657.40625 83.875 Z" fill-opacity="1" stroke-opacity="1" stroke-miterlimit="10" stroke-width="6"/><text fill="rgb(255,255,255)" stroke="none" font-family="times new roman" font-size="10px" font-style="normal" font-weight="normal" text-decoration="normal" x="609.90625" y="98.875" text-anchor="middle" dominant-baseline="text-after-edge" fill-opacity="1">42126611C&gt;G</text><path fill="rgb(69,90,100)" stroke="rgb(76,175,80)" paint-order="fill stroke markers" d=" M 678.53125 167.375 L 678.4618900089954 169.1403296538765 L 678.2542376633907 170.89477546340518 L 677.9095732089477 172.62752068675786 L 677.4300216166409 174.32788237343632 L 676.818539481504 175.98537722821453 L 676.0788967942383 177.58978624413982 L 675.2156536979671 179.13121770610886 L 674.2341323734363 180.60016817658064 L 673.1403842260007 181.98758108742913 L 671.9411525766973 183.2849025766973 L 670.6438310874291 184.4841342260007 L 669.2564181765806 185.57788237343632 L 667.7874677061088 186.55940369796707 L 666.2460362441398 187.4226467942383 L 664.6416272282145 188.16228948150396 L 662.9841323734363 188.77377161664094 L 661.2837706867579 189.25332320894773 L 659.5510254634052 189.5979876633906 L 657.7965796538765 189.80564000899537 L 656.03125 189.875 L 654.2659203461235 189.80564000899537 L 652.5114745365948 189.5979876633906 L 650.7787293132421 189.25332320894773 L 649.0783676265637 188.77377161664094 L 647.4208727717855 188.16228948150396 L 645.8164637558602 187.4226467942383 L 644.2750322938912 186.55940369796707 L 642.8060818234194 185.57788237343632 L 641.4186689125709 184.4841342260007 L 640.1213474233027 183.28490257669733 L 638.9221157739993 181.98758108742913 L 637.8283676265637 180.60016817658064 L 636.8468463020329 179.13121770610886 L 635.9836032057617 177.58978624413982 L 635.243960518496 175.98537722821453 L 634.6324783833591 174.32788237343632 L 634.1529267910523 172.62752068675786 L 633.8082623366095 170.8947754634052 L 633.6006099910046 169.1403296538765 L 633.53125 167.375 L 633.6006099910046 165.6096703461235 L 633.8082623366093 163.85522453659482 L 634.1529267910523 162.12247931324214 L 634.6324783833591 160.42211762656368 L 635.243960518496 158.76462277178547 L 635.9836032057617 157.1602137558602 L 636.8468463020329 155.61878229389114 L 637.8283676265637 154.14983182341936 L 638.9221157739993 152.76241891257087 L 640.1213474233027 151.4650974233027 L 641.4186689125709 150.2658657739993 L 642.8060818234194 149.17211762656368 L 644.2750322938912 148.19059630203293 L 645.8164637558602 147.3273532057617 L 647.4208727717855 146.58771051849604 L 649.0783676265637 145.97622838335903 L 650.7787293132421 145.49667679105227 L 652.5114745365948 145.1520123366094 L 654.2659203461236 144.9443599910046 L 656.0312500000001 144.875 L 657.7965796538766 144.94435999100463 L 659.5510254634053 145.1520123366094 L 661.283770686758 145.4966767910523 L 662.9841323734364 145.97622838335909 L 664.6416272282146 146.5877105184961 L 666.2460362441399 147.3273532057618 L 667.7874677061089 148.190596302033 L 669.2564181765807 149.17211762656376 L 670.6438310874292 150.26586577399942 L 671.9411525766974 151.4650974233028 L 673.1403842260008 152.762418912571 L 674.2341323734364 154.1498318234195 L 675.2156536979671 155.61878229389131 L 676.0788967942384 157.16021375586038 L 676.818539481504 158.7646227717857 L 677.430021616641 160.4221176265639 L 677.9095732089478 162.12247931324237 L 678.2542376633907 163.85522453659505 L 678.4618900089954 165.60967034612375 Z" fill-opacity="1" stroke-opacity="1" stroke-miterlimit="10" stroke-width="6"/><text fill="rgb(255,255,255)" stroke="none" font-family="times new roman" font-size="15px" font-style="normal" font-weight="normal" text-decoration="normal" x="656.03125" y="174.875" text-anchor="middle" dominant-baseline="text-after-edge" fill-opacity="1">*39</text><path fill="rgb(69,90,100)" stroke="rgb(255,193,7)" paint-order="fill stroke markers" d=" M 726.53125 252.125 L 726.4618900089954 253.8903296538765 L 726.2542376633907 255.64477546340518 L 725.9095732089477 257.37752068675786 L 725.4300216166409 259.0778823734363 L 724.818539481504 260.73537722821453 L 724.0788967942383 262.3397862441398 L 723.2156536979671 263.8812177061088 L 722.2341323734363 265.35016817658067 L 721.1403842260007 266.73758108742913 L 719.9411525766973 268.03490257669733 L 718.6438310874291 269.2341342260007 L 717.2564181765806 270.3278823734363 L 715.7874677061088 271.30940369796707 L 714.2460362441398 272.1726467942383 L 712.6416272282145 272.91228948150393 L 710.9841323734363 273.52377161664094 L 709.2837706867579 274.00332320894773 L 707.5510254634052 274.3479876633906 L 705.7965796538765 274.5556400089954 L 704.03125 274.625 L 702.2659203461235 274.5556400089954 L 700.5114745365948 274.3479876633906 L 698.7787293132421 274.00332320894773 L 697.0783676265637 273.52377161664094 L 695.4208727717855 272.91228948150393 L 693.8164637558602 272.1726467942383 L 692.2750322938912 271.30940369796707 L 690.8060818234194 270.3278823734363 L 689.4186689125709 269.2341342260007 L 688.1213474233027 268.03490257669733 L 686.9221157739993 266.73758108742913 L 685.8283676265637 265.35016817658067 L 684.8468463020329 263.8812177061088 L 683.9836032057617 262.3397862441398 L 683.243960518496 260.73537722821453 L 682.6324783833591 259.0778823734363 L 682.1529267910523 257.37752068675786 L 681.8082623366095 255.6447754634052 L 681.6006099910046 253.8903296538765 L 681.53125 252.125 L 681.6006099910046 250.3596703461235 L 681.8082623366093 248.60522453659482 L 682.1529267910523 246.87247931324214 L 682.6324783833591 245.17211762656368 L 683.243960518496 243.51462277178547 L 683.9836032057617 241.9102137558602 L 684.8468463020329 240.36878229389114 L 685.8283676265637 238.89983182341936 L 686.9221157739993 237.51241891257087 L 688.1213474233027 236.2150974233027 L 689.4186689125709 235.0158657739993 L 690.8060818234194 233.92211762656368 L 692.2750322938912 232.94059630203293 L 693.8164637558602 232.0773532057617 L 695.4208727717855 231.33771051849604 L 697.0783676265637 230.72622838335903 L 698.7787293132421 230.24667679105227 L 700.5114745365948 229.9020123366094 L 702.2659203461236 229.6943599910046 L 704.0312500000001 229.625 L 705.7965796538766 229.69435999100463 L 707.5510254634053 229.9020123366094 L 709.283770686758 230.2466767910523 L 710.9841323734364 230.72622838335909 L 712.6416272282146 231.3377105184961 L 714.2460362441399 232.0773532057618 L 715.7874677061089 232.940596302033 L 717.2564181765807 233.92211762656376 L 718.6438310874292 235.01586577399942 L 719.9411525766974 236.2150974233028 L 721.1403842260008 237.512418912571 L 722.2341323734364 238.8998318234195 L 723.2156536979671 240.36878229389131 L 724.0788967942384 241.91021375586038 L 724.818539481504 243.5146227717857 L 725.430021616641 245.1721176265639 L 725.9095732089478 246.87247931324237 L 726.2542376633907 248.60522453659505 L 726.4618900089954 250.35967034612375 Z" fill-opacity="1" stroke-opacity="1" stroke-miterlimit="10" stroke-width="6"/><text fill="rgb(255,255,255)" stroke="none" font-family="times new roman" font-size="15px" font-style="normal" font-weight="normal" text-decoration="normal" x="704.03125" y="259.625" text-anchor="middle" dominant-baseline="text-after-edge" fill-opacity="1">*10</text><path fill="rgb(3,169,244)" stroke="none" paint-order="stroke fill markers" d=" M 704.03125 219.625 L 728.53125 219.625 L 728.53125 219.625 A 8 8 0 0 1 736.53125 227.625 L 736.53125 276.625 L 736.53125 276.625 A 8 8 0 0 1 728.53125 284.625 L 679.53125 284.625 L 679.53125 284.625 A 8 8 0 0 1 671.53125 276.625 L 671.53125 227.625 L 671.53125 227.625 A 8 8 0 0 1 679.53125 219.625 L 704.03125 219.625 Z" fill-opacity="0.15"/><path fill="rgb(69,90,100)" stroke="rgb(76,175,80)" paint-order="fill stroke markers" d=" M 444.59375 396.5 L 444.53980334032974 397.8730341752373 L 444.3782959604149 399.23760313820407 L 444.1102236069593 400.58529386747836 L 443.7372390351652 401.9077974015616 L 443.2616418189475 403.19696006638907 L 442.68636417329645 404.44483374544205 L 442.0149528761966 405.6437248825291 L 441.2515474015616 406.7862419151183 L 440.40085439800055 407.86534084577823 L 439.46811867076457 408.87436867076457 L 438.45909084577823 409.80710439800055 L 437.3799919151183 410.6577974015616 L 436.2374748825291 411.4212028761966 L 435.03858374544205 412.09261417329645 L 433.79071006638907 412.6678918189475 L 432.5015474015616 413.1434890351652 L 431.17904386747836 413.5164736069593 L 429.83135313820407 413.7845459604149 L 428.4667841752373 413.94605334032974 L 427.09375 414 L 425.7207158247627 413.94605334032974 L 424.35614686179593 413.7845459604149 L 423.00845613252164 413.5164736069593 L 421.6859525984384 413.1434890351652 L 420.39678993361093 412.6678918189475 L 419.14891625455795 412.09261417329645 L 417.9500251174709 411.4212028761966 L 416.8075080848817 410.6577974015616 L 415.72840915422177 409.80710439800055 L 414.71938132923543 408.87436867076457 L 413.78664560199945 407.86534084577823 L 412.9359525984384 406.7862419151183 L 412.1725471238034 405.6437248825291 L 411.50113582670355 404.44483374544205 L 410.9258581810525 403.19696006638907 L 410.4502609648348 401.9077974015616 L 410.0772763930407 400.58529386747836 L 409.8092040395851 399.23760313820407 L 409.64769665967026 397.8730341752373 L 409.59375 396.5 L 409.64769665967026 395.1269658247627 L 409.8092040395851 393.76239686179593 L 410.0772763930407 392.41470613252164 L 410.4502609648348 391.0922025984384 L 410.9258581810525 389.80303993361093 L 411.50113582670355 388.55516625455795 L 412.1725471238034 387.3562751174709 L 412.9359525984384 386.2137580848817 L 413.78664560199945 385.13465915422177 L 414.71938132923543 384.12563132923543 L 415.72840915422177 383.19289560199945 L 416.8075080848817 382.3422025984384 L 417.9500251174709 381.5787971238034 L 419.14891625455795 380.90738582670355 L 420.39678993361093 380.3321081810525 L 421.68595259843846 379.8565109648348 L 423.0084561325217 379.4835263930407 L 424.356146861796 379.2154540395851 L 425.72071582476275 379.05394665967026 L 427.09375000000006 379 L 428.46678417523736 379.05394665967026 L 429.8313531382041 379.2154540395851 L 431.1790438674784 379.4835263930407 L 432.50154740156165 379.85651096483485 L 433.7907100663892 380.3321081810525 L 435.03858374544217 380.9073858267036 L 436.2374748825292 381.57879712380344 L 437.37999191511835 382.3422025984385 L 438.4590908457783 383.19289560199957 L 439.4681186707647 384.1256313292355 L 440.40085439800066 385.1346591542219 L 441.25154740156165 386.2137580848818 L 442.0149528761967 387.35627511747106 L 442.6863641732965 388.55516625455806 L 443.26164181894757 389.8030399336111 L 443.73723903516526 391.0922025984386 L 444.1102236069594 392.4147061325218 L 444.37829596041496 393.76239686179616 L 444.53980334032974 395.1269658247629 Z" fill-opacity="1" stroke-opacity="1" stroke-miterlimit="10" stroke-width="6"/><text fill="rgb(255,255,255)" stroke="none" font-family="times new roman" font-size="10px" font-style="normal" font-weight="normal" text-decoration="normal" x="427.09375" y="401.5" text-anchor="middle" dominant-baseline="text-after-edge" fill-opacity="1">*1.58</text><path fill="rgb(69,90,100)" stroke="rgb(76,175,80)" paint-order="fill stroke markers" d=" M 760.03125 242.125 L 760.03125 262.125 L 855.03125 262.125 L 855.03125 242.125 Z" fill-opacity="1" stroke-opacity="1" stroke-miterlimit="10" stroke-width="6"/><text fill="rgb(255,255,255)" stroke="none" font-family="times new roman" font-size="10px" font-style="normal" font-weight="normal" text-decoration="normal" x="807.53125" y="257.125" text-anchor="middle" dominant-baseline="text-after-edge" fill-opacity="1">42129130C&gt;G</text><path fill="rgb(69,90,100)" stroke="rgb(76,175,80)" paint-order="fill stroke markers" d=" M 207.46875 242.125 L 207.46875 262.125 L 302.46875 262.125 L 302.46875 242.125 Z" fill-opacity="1" stroke-opacity="1" stroke-miterlimit="10" stroke-width="6"/><text fill="rgb(255,255,255)" stroke="none" font-family="times new roman" font-size="10px" font-style="normal" font-weight="normal" text-decoration="normal" x="254.96875" y="257.125" text-anchor="middle" dominant-baseline="text-after-edge" fill-opacity="1">42127407T&gt;G</text><path fill="rgb(69,90,100)" stroke="rgb(76,175,80)" paint-order="fill stroke markers" d=" M 597.71875 242.125 L 640.21875 242.125 L 640.21875 242.125 A 5 5 0 0 1 645.21875 247.125 L 645.21875 257.125 L 645.21875 257.125 A 5 5 0 0 1 640.21875 262.125 L 555.21875 262.125 L 555.21875 262.125 A 5 5 0 0 1 550.21875 257.125 L 550.21875 247.125 L 550.21875 247.125 A 5 5 0 0 1 555.21875 242.125 L 597.71875 242.125 Z" fill-opacity="1" stroke-opacity="1" stroke-miterlimit="10" stroke-width="2"/><text fill="rgb(255,255,255)" stroke="none" font-family="times new roman" font-size="10px" font-style="normal" font-weight="normal" text-decoration="normal" x="597.71875" y="257.125" text-anchor="middle" dominant-baseline="text-after-edge" fill-opacity="1">42132049dup</text><path fill="rgb(69,90,100)" stroke="rgb(76,175,80)" paint-order="fill stroke markers" d=" M 272.46875 396.5 L 272.41480334032974 397.8730341752373 L 272.2532959604149 399.23760313820407 L 271.9852236069593 400.58529386747836 L 271.6122390351652 401.9077974015616 L 271.1366418189475 403.19696006638907 L 270.56136417329645 404.44483374544205 L 269.8899528761966 405.6437248825291 L 269.1265474015616 406.7862419151183 L 268.27585439800055 407.86534084577823 L 267.34311867076457 408.87436867076457 L 266.33409084577823 409.80710439800055 L 265.2549919151183 410.6577974015616 L 264.1124748825291 411.4212028761966 L 262.91358374544205 412.09261417329645 L 261.66571006638907 412.6678918189475 L 260.3765474015616 413.1434890351652 L 259.05404386747836 413.5164736069593 L 257.70635313820407 413.7845459604149 L 256.3417841752373 413.94605334032974 L 254.96875 414 L 253.59571582476272 413.94605334032974 L 252.23114686179596 413.7845459604149 L 250.88345613252164 413.5164736069593 L 249.56095259843843 413.1434890351652 L 248.27178993361093 412.6678918189475 L 247.02391625455795 412.09261417329645 L 245.8250251174709 411.4212028761966 L 244.68250808488173 410.6577974015616 L 243.6034091542218 409.80710439800055 L 242.59438132923543 408.87436867076457 L 241.66164560199945 407.86534084577823 L 240.81095259843843 406.7862419151183 L 240.04754712380338 405.6437248825291 L 239.37613582670357 404.44483374544205 L 238.8008581810525 403.19696006638907 L 238.32526096483483 401.9077974015616 L 237.95227639304065 400.58529386747836 L 237.6842040395851 399.23760313820407 L 237.52269665967026 397.8730341752373 L 237.46875 396.5 L 237.52269665967026 395.1269658247627 L 237.6842040395851 393.76239686179593 L 237.95227639304065 392.41470613252164 L 238.3252609648348 391.0922025984384 L 238.8008581810525 389.80303993361093 L 239.37613582670357 388.55516625455795 L 240.04754712380338 387.3562751174709 L 240.8109525984384 386.2137580848817 L 241.66164560199945 385.13465915422177 L 242.5943813292354 384.12563132923543 L 243.60340915422177 383.19289560199945 L 244.6825080848817 382.3422025984384 L 245.8250251174709 381.5787971238034 L 247.02391625455795 380.90738582670355 L 248.27178993361096 380.3321081810525 L 249.56095259843843 379.8565109648348 L 250.8834561325217 379.4835263930407 L 252.231146861796 379.2154540395851 L 253.59571582476278 379.05394665967026 L 254.96875000000006 379 L 256.34178417523736 379.05394665967026 L 257.7063531382041 379.2154540395851 L 259.0540438674784 379.4835263930407 L 260.37654740156165 379.85651096483485 L 261.6657100663892 380.3321081810525 L 262.91358374544217 380.9073858267036 L 264.1124748825292 381.57879712380344 L 265.25499191511835 382.3422025984385 L 266.3340908457783 383.19289560199957 L 267.3431186707647 384.1256313292355 L 268.27585439800066 385.1346591542219 L 269.12654740156165 386.2137580848818 L 269.8899528761967 387.35627511747106 L 270.5613641732965 388.55516625455806 L 271.13664181894757 389.8030399336111 L 271.61223903516526 391.0922025984386 L 271.9852236069594 392.4147061325218 L 272.25329596041496 393.76239686179616 L 272.41480334032974 395.1269658247629 Z" fill-opacity="1" stroke-opacity="1" stroke-miterlimit="10" stroke-width="6"/><text fill="rgb(255,255,255)" stroke="none" font-family="times new roman" font-size="10px" font-style="normal" font-weight="normal" text-decoration="normal" x="254.96875" y="401.5" text-anchor="middle" dominant-baseline="text-after-edge" fill-opacity="1">*1.41</text><path fill="rgb(69,90,100)" stroke="rgb(255,193,7)" paint-order="fill stroke markers" d=" M 773.28125 396.5 L 773.2273033403297 397.8730341752373 L 773.0657959604149 399.23760313820407 L 772.7977236069594 400.58529386747836 L 772.4247390351652 401.9077974015616 L 771.9491418189475 403.19696006638907 L 771.3738641732964 404.44483374544205 L 770.7024528761966 405.6437248825291 L 769.9390474015615 406.7862419151183 L 769.0883543980005 407.86534084577823 L 768.1556186707646 408.87436867076457 L 767.1465908457782 409.80710439800055 L 766.0674919151182 410.6577974015616 L 764.9249748825291 411.4212028761966 L 763.7260837454421 412.09261417329645 L 762.4782100663891 412.6678918189475 L 761.1890474015615 413.1434890351652 L 759.8665438674783 413.5164736069593 L 758.518853138204 413.7845459604149 L 757.1542841752373 413.94605334032974 L 755.78125 414 L 754.4082158247627 413.94605334032974 L 753.043646861796 413.7845459604149 L 751.6959561325217 413.5164736069593 L 750.3734525984385 413.1434890351652 L 749.0842899336109 412.6678918189475 L 747.8364162545579 412.09261417329645 L 746.6375251174709 411.4212028761966 L 745.4950080848818 410.6577974015616 L 744.4159091542218 409.80710439800055 L 743.4068813292354 408.87436867076457 L 742.4741456019995 407.86534084577823 L 741.6234525984385 406.7862419151183 L 740.8600471238034 405.6437248825291 L 740.1886358267036 404.44483374544205 L 739.6133581810525 403.19696006638907 L 739.1377609648348 401.9077974015616 L 738.7647763930406 400.58529386747836 L 738.4967040395851 399.23760313820407 L 738.3351966596703 397.8730341752373 L 738.28125 396.5 L 738.3351966596703 395.1269658247627 L 738.4967040395851 393.76239686179593 L 738.7647763930406 392.41470613252164 L 739.1377609648348 391.0922025984384 L 739.6133581810525 389.80303993361093 L 740.1886358267036 388.55516625455795 L 740.8600471238034 387.3562751174709 L 741.6234525984385 386.2137580848817 L 742.4741456019995 385.13465915422177 L 743.4068813292354 384.12563132923543 L 744.4159091542218 383.19289560199945 L 745.4950080848818 382.3422025984384 L 746.6375251174709 381.5787971238034 L 747.8364162545579 380.90738582670355 L 749.084289933611 380.3321081810525 L 750.3734525984385 379.8565109648348 L 751.6959561325217 379.4835263930407 L 753.043646861796 379.2154540395851 L 754.4082158247628 379.05394665967026 L 755.7812500000001 379 L 757.1542841752373 379.05394665967026 L 758.5188531382041 379.2154540395851 L 759.8665438674784 379.4835263930407 L 761.1890474015617 379.85651096483485 L 762.4782100663891 380.3321081810525 L 763.7260837454421 380.9073858267036 L 764.9249748825292 381.57879712380344 L 766.0674919151184 382.3422025984385 L 767.1465908457783 383.19289560199957 L 768.1556186707646 384.1256313292355 L 769.0883543980007 385.1346591542219 L 769.9390474015617 386.2137580848818 L 770.7024528761967 387.35627511747106 L 771.3738641732965 388.55516625455806 L 771.9491418189476 389.8030399336111 L 772.4247390351652 391.0922025984386 L 772.7977236069594 392.4147061325218 L 773.0657959604149 393.76239686179616 L 773.2273033403297 395.1269658247629 Z" fill-opacity="1" stroke-opacity="1" stroke-miterlimit="10" stroke-width="6"/><text fill="rgb(255,255,255)" stroke="none" font-family="times new roman" font-size="10px" font-style="normal" font-weight="normal" text-decoration="normal" x="755.78125" y="401.5" text-anchor="middle" dominant-baseline="text-after-edge" fill-opacity="1">*10.1</text><path fill="rgb(69,90,100)" stroke="rgb(76,175,80)" paint-order="fill stroke markers" d=" M 436.96875 242.125 L 436.96875 262.125 L 531.96875 262.125 L 531.96875 242.125 Z" fill-opacity="1" stroke-opacity="1" stroke-miterlimit="10" stroke-width="6"/><text fill="rgb(255,255,255)" stroke="none" font-family="times new roman" font-size="10px" font-style="normal" font-weight="normal" text-decoration="normal" x="484.46875" y="257.125" text-anchor="middle" dominant-baseline="text-after-edge" fill-opacity="1">42130482C&gt;A</text><path fill="rgb(69,90,100)" stroke="rgb(76,175,80)" paint-order="fill stroke markers" d=" M 719.65625 93.875 L 719.6023033403297 95.24803417523728 L 719.4407959604149 96.61260313820404 L 719.1727236069594 97.96029386747834 L 718.7997390351652 99.28279740156158 L 718.3241418189475 100.57196006638907 L 717.7488641732964 101.81983374544207 L 717.0774528761966 103.0187248825291 L 716.3140474015615 104.16124191511828 L 715.4633543980005 105.2403408457782 L 714.5306186707646 106.24936867076458 L 713.5215908457782 107.18210439800055 L 712.4424919151182 108.03279740156158 L 711.2999748825291 108.79620287619662 L 710.1010837454421 109.46761417329644 L 708.8532100663891 110.04289181894751 L 707.5640474015615 110.51848903516519 L 706.2415438674783 110.89147360695934 L 704.893853138204 111.1595459604149 L 703.5292841752373 111.32105334032974 L 702.15625 111.375 L 700.7832158247627 111.32105334032974 L 699.418646861796 111.1595459604149 L 698.0709561325217 110.89147360695934 L 696.7484525984385 110.51848903516519 L 695.4592899336109 110.04289181894751 L 694.2114162545579 109.46761417329644 L 693.0125251174709 108.79620287619662 L 691.8700080848818 108.03279740156158 L 690.7909091542218 107.18210439800055 L 689.7818813292354 106.24936867076458 L 688.8491456019995 105.24034084577822 L 687.9984525984385 104.16124191511828 L 687.2350471238034 103.01872488252911 L 686.5636358267036 101.81983374544207 L 685.9883581810525 100.57196006638907 L 685.5127609648348 99.28279740156158 L 685.1397763930406 97.96029386747834 L 684.8717040395851 96.61260313820404 L 684.7101966596703 95.2480341752373 L 684.65625 93.875 L 684.7101966596703 92.50196582476272 L 684.8717040395851 91.13739686179596 L 685.1397763930406 89.78970613252166 L 685.5127609648348 88.46720259843842 L 685.9883581810525 87.17803993361093 L 686.5636358267036 85.93016625455793 L 687.2350471238034 84.7312751174709 L 687.9984525984385 83.58875808488172 L 688.8491456019995 82.5096591542218 L 689.7818813292354 81.50063132923542 L 690.7909091542218 80.56789560199947 L 691.8700080848818 79.71720259843842 L 693.0125251174709 78.95379712380338 L 694.2114162545579 78.28238582670356 L 695.459289933611 77.70710818105248 L 696.7484525984385 77.2315109648348 L 698.0709561325217 76.85852639304065 L 699.418646861796 76.59045403958508 L 700.7832158247628 76.42894665967026 L 702.1562500000001 76.375 L 703.5292841752373 76.42894665967026 L 704.8938531382041 76.5904540395851 L 706.2415438674784 76.85852639304068 L 707.5640474015617 77.23151096483484 L 708.8532100663891 77.70710818105252 L 710.1010837454421 78.2823858267036 L 711.2999748825292 78.95379712380344 L 712.4424919151184 79.71720259843849 L 713.5215908457783 80.56789560199954 L 714.5306186707646 81.50063132923552 L 715.4633543980007 82.5096591542219 L 716.3140474015617 83.58875808488185 L 717.0774528761967 84.73127511747103 L 717.7488641732965 85.93016625455807 L 718.3241418189476 87.17803993361109 L 718.7997390351652 88.46720259843859 L 719.1727236069594 89.78970613252184 L 719.4407959604149 91.13739686179616 L 719.6023033403297 92.50196582476292 Z" fill-opacity="1" stroke-opacity="1" stroke-miterlimit="10" stroke-width="6"/><text fill="rgb(255,255,255)" stroke="none" font-family="times new roman" font-size="10px" font-style="normal" font-weight="normal" text-decoration="normal" x="702.15625" y="98.875" text-anchor="middle" dominant-baseline="text-after-edge" fill-opacity="1">*39.2</text><path fill="rgb(69,90,100)" stroke="rgb(69,90,100)" paint-order="fill stroke markers" d=" M 408.34375 510.625 L 389.59375 528.125 L 408.34375 545.625 L 445.84375 545.625 L 464.59375 528.125 L 445.84375000000006 510.625 Z" fill-opacity="1" stroke-opacity="1" stroke-miterlimit="10" stroke-width="2"/><text fill="rgb(255,255,255)" stroke="none" font-family="times new roman" font-size="10px" font-style="normal" font-weight="normal" text-decoration="normal" x="427.09375" y="533.125" text-anchor="middle" dominant-baseline="text-after-edge" fill-opacity="1">NA18545-A</text><path fill="rgb(176,190,197)" stroke="none" paint-order="stroke fill markers" d=" M 123.71875000000001 291.5 L 123.71875 501.5 L 198.71875 501.5 L 198.71875 291.50000000000006 Z" fill-opacity="0.8"/><text fill="rgb(0,0,0)" stroke="none" font-family="times new roman" font-size="10px" font-style="normal" font-weight="normal" text-decoration="normal" x="128.71875" y="306.5" text-anchor="start" dominant-baseline="text-after-edge" fill-opacity="0.8">42126396_42126397del </text><text fill="rgb(0,0,0)" stroke="none" font-family="times new roman" font-size="10px" font-style="normal" font-weight="normal" text-decoration="normal" x="128.71875" y="316.5" text-anchor="start" dominant-baseline="text-after-edge" fill-opacity="0.8">42127209T&gt;C </text><text fill="rgb(0,0,0)" stroke="none" font-family="times new roman" font-size="10px" font-style="normal" font-weight="normal" text-decoration="normal" x="128.71875" y="326.5" text-anchor="start" dominant-baseline="text-after-edge" fill-opacity="0.8">42128694T&gt;C </text><text fill="rgb(0,0,0)" stroke="none" font-family="times new roman" font-size="10px" font-style="normal" font-weight="normal" text-decoration="normal" x="128.71875" y="336.5" text-anchor="start" dominant-baseline="text-after-edge" fill-opacity="0.8">42129754G&gt;A </text><text fill="rgb(0,0,0)" stroke="none" font-family="times new roman" font-size="10px" font-style="normal" font-weight="normal" text-decoration="normal" x="128.71875" y="346.5" text-anchor="start" dominant-baseline="text-after-edge" fill-opacity="0.8">42131791C&gt;T </text><text fill="rgb(0,0,0)" stroke="none" font-family="times new roman" font-size="10px" font-style="normal" font-weight="normal" text-decoration="normal" x="128.71875" y="356.5" text-anchor="start" dominant-baseline="text-after-edge" fill-opacity="0.8">42132217G&gt;A </text><path fill="rgb(176,190,197)" stroke="none" paint-order="stroke fill markers" d=" M 597.71875 291.5 L 664.71875 291.5 L 664.71875 291.5 A 8 8 0 0 1 672.71875 299.5 L 672.71875 493.5 L 672.71875 493.5 A 8 8 0 0 1 664.71875 501.5 L 530.71875 501.5 L 530.71875 501.5 A 8 8 0 0 1 522.71875 493.5 L 522.71875 299.5 L 522.71875 299.5 A 8 8 0 0 1 530.71875 291.5 L 597.71875 291.5 Z" fill-opacity="0.8"/><text fill="rgb(0,0,0)" stroke="none" font-family="times new roman" font-size="10px" font-style="normal" font-weight="normal" text-decoration="normal" x="527.71875" y="306.5" text-anchor="start" dominant-baseline="text-after-edge" fill-opacity="0.8">42125572G&gt;A </text><text fill="rgb(0,0,0)" stroke="none" font-family="times new roman" font-size="10px" font-style="normal" font-weight="normal" text-decoration="normal" x="527.71875" y="316.5" text-anchor="start" dominant-baseline="text-after-edge" fill-opacity="0.8">42125924A&gt;G </text><text fill="rgb(0,0,0)" stroke="none" font-family="times new roman" font-size="10px" font-style="normal" font-weight="normal" text-decoration="normal" x="527.71875" y="326.5" text-anchor="start" dominant-baseline="text-after-edge" fill-opacity="0.8">42125980T&gt;C </text><text fill="rgb(0,0,0)" stroke="none" font-family="times new roman" font-size="10px" font-style="normal" font-weight="normal" text-decoration="normal" x="527.71875" y="336.5" text-anchor="start" dominant-baseline="text-after-edge" fill-opacity="0.8">42126069A&gt;C </text><text fill="rgb(0,0,0)" stroke="none" font-family="times new roman" font-size="10px" font-style="normal" font-weight="normal" text-decoration="normal" x="527.71875" y="346.5" text-anchor="start" dominant-baseline="text-after-edge" fill-opacity="0.8">42132027C&gt;T </text><text fill="rgb(0,0,0)" stroke="none" font-family="times new roman" font-size="10px" font-style="normal" font-weight="normal" text-decoration="normal" x="527.71875" y="356.5" text-anchor="start" dominant-baseline="text-after-edge" fill-opacity="0.8">42132844C&gt;A </text><text fill="rgb(0,0,0)" stroke="none" font-family="times new roman" font-size="10px" font-style="normal" font-weight="normal" text-decoration="normal" x="527.71875" y="366.5" text-anchor="start" dominant-baseline="text-after-edge" fill-opacity="0.8">42132851T&gt;C </text><text fill="rgb(0,0,0)" stroke="none" font-family="times new roman" font-size="10px" font-style="normal" font-weight="normal" text-decoration="normal" x="527.71875" y="376.5" text-anchor="start" dominant-baseline="text-after-edge" fill-opacity="0.8">42132969C&gt;T </text><text fill="rgb(0,0,0)" stroke="none" font-family="times new roman" font-size="10px" font-style="normal" font-weight="normal" text-decoration="normal" x="527.71875" y="386.5" text-anchor="start" dominant-baseline="text-after-edge" fill-opacity="0.8">42133212A&gt;G </text><text fill="rgb(0,0,0)" stroke="none" font-family="times new roman" font-size="10px" font-style="normal" font-weight="normal" text-decoration="normal" x="527.71875" y="396.5" text-anchor="start" dominant-baseline="text-after-edge" fill-opacity="0.8">42133314C&gt;T </text><text fill="rgb(0,0,0)" stroke="none" font-family="times new roman" font-size="10px" font-style="normal" font-weight="normal" text-decoration="normal" x="527.71875" y="406.5" text-anchor="start" dominant-baseline="text-after-edge" fill-opacity="0.8">42133400T&gt;G </text><text fill="rgb(0,0,0)" stroke="none" font-family="times new roman" font-size="10px" font-style="normal" font-weight="normal" text-decoration="normal" x="527.71875" y="416.5" text-anchor="start" dominant-baseline="text-after-edge" fill-opacity="0.8">42134096del </text><text fill="rgb(0,0,0)" stroke="none" font-family="times new roman" font-size="10px" font-style="normal" font-weight="normal" text-decoration="normal" x="527.71875" y="426.5" text-anchor="start" dominant-baseline="text-after-edge" fill-opacity="0.8">42134820T&gt;G </text><text fill="rgb(0,0,0)" stroke="none" font-family="times new roman" font-size="10px" font-style="normal" font-weight="normal" text-decoration="normal" x="527.71875" y="436.5" text-anchor="start" dominant-baseline="text-after-edge" fill-opacity="0.8">42135064_42135066dup </text><text fill="rgb(0,0,0)" stroke="none" font-family="times new roman" font-size="10px" font-style="normal" font-weight="normal" text-decoration="normal" x="527.71875" y="446.5" text-anchor="start" dominant-baseline="text-after-edge" fill-opacity="0.8">42135201T&gt;C </text><g transform="scale(0.8672445255474452,0.8672445255474452) translate(57.51683324566022,53.45397159389796)"/></g></svg>