<svg version="1.1" xmlns="http://www.w3.org/2000/svg" xmlns:xlink="http://www.w3.org/1999/xlink" width="1017" height="608"><defs/><g transform="translate(-69.48001052077859,-53.45397159389796) scale(1.1530773277222515,1.1530773277222515)"><path fill="none" stroke="rgb(120,144,156)" paint-order="fill stroke markers" d=" M 804.25 263.125 L 804.25 289.5" stroke-opacity="1" stroke-linejoin="round" stroke-miterlimit="10"/><path fill="rgb(120,144,156)" stroke="none" paint-order="stroke fill markers" d=" M 799.9 282.8 L 804.25 291.5 L 808.6 282.8 Z" fill-opacity="1"/><path fill="none" stroke="rgb(120,144,156)" paint-order="fill stroke markers" d=" M 581.4162337662337 265.125 L 625.3155498467678 375.59059928761826" stroke-opacity="1" stroke-linejoin="round" stroke-miterlimit="10"/><path fill="rgb(120,144,156)" stroke="none" paint-order="stroke fill markers" d=" M 618.7986961078559 370.9707381051117 L 626.0541676381662 377.4492126842744 L 626.8836643833101 367.7577507125286 Z" fill-opacity="1"/><path fill="none" stroke="rgb(120,144,156)" paint-order="fill stroke markers" d=" M 685.8337662337663 265.125 L 641.9344501532322 375.59059928761826" stroke-opacity="1" stroke-linejoin="round" stroke-miterlimit="10"/><path fill="rgb(120,144,156)" stroke="none" paint-order="stroke fill markers" d=" M 640.3663356166899 367.7577507125286 L 641.1958323618338 377.4492126842744 L 648.4513038921441 370.9707381051117 Z" fill-opacity="1"/><path fill="none" stroke="rgb(120,144,156)" paint-order="fill stroke markers" d=" M 437.31686592519145 189.5633726491661 L 459.19749753165627 228.19636282933067" stroke-opacity="1" stroke-linejoin="round" stroke-miterlimit="10"/><path fill="rgb(120,144,156)" stroke="none" paint-order="stroke fill markers" d=" M 452.11053977782666 224.51023616365106 L 460.18313407480855 229.9366273508339 L 459.6806904463657 220.2227172009387 Z" fill-opacity="1"/><path fill="none" stroke="rgb(55,71,79)" paint-order="fill stroke markers" d=" M 386.78316326530614 106.875 L 411.1954273259076 145.77584354372266" stroke-opacity="1" stroke-linejoin="round" stroke-miterlimit="10" stroke-width="2"/><path fill="none" stroke="rgb(120,144,156)" paint-order="fill stroke markers" d=" M 513.387168141593 180.375 L 486.30250246834373 228.19636282933067" stroke-opacity="1" stroke-linejoin="round" stroke-miterlimit="10"/><path fill="rgb(120,144,156)" stroke="none" paint-order="stroke fill markers" d=" M 485.8193095536343 220.2227172009387 L 485.31686592519145 229.9366273508339 L 493.38946022217334 224.51023616365106 Z" fill-opacity="1"/><path fill="none" stroke="rgb(120,144,156)" paint-order="fill stroke markers" d=" M 198.25000000000003 415.4661383285303 L 393.99034519872737 514.4644973555523" stroke-opacity="1" stroke-linejoin="round" stroke-miterlimit="10"/><path fill="rgb(120,144,156)" stroke="none" paint-order="stroke fill markers" d=" M 386.04827324420614 515.3223977397504 L 395.77506602196905 515.3671443425233 L 389.97478763752963 507.5588621586492 Z" fill-opacity="1"/><path fill="none" stroke="rgb(120,144,156)" paint-order="fill stroke markers" d=" M 270.5817489882528 409.21327453801064 L 398.3072574859781 510.1854670666178" stroke-opacity="1" stroke-linejoin="round" stroke-miterlimit="10"/><path fill="rgb(120,144,156)" stroke="none" paint-order="stroke fill markers" d=" M 390.3535763902883 509.44286553950695 L 399.8762086067832 511.4257865337408 L 395.74896607227333 502.6179281640046 Z" fill-opacity="1"/><path fill="none" stroke="rgb(55,71,79)" paint-order="fill stroke markers" d=" M 459.97818667376885 111.23902773936021 L 438.3045726740924 145.77584354372266" stroke-opacity="1" stroke-linejoin="round" stroke-miterlimit="10" stroke-width="2"/><path fill="none" stroke="rgb(120,144,156)" paint-order="fill stroke markers" d=" M 421 417 L 421 507.625" stroke-opacity="1" stroke-linejoin="round" stroke-miterlimit="10"/><path fill="rgb(120,144,156)" stroke="none" paint-order="stroke fill markers" d=" M 416.65 500.925 L 421 509.625 L 425.35 500.925 Z" fill-opacity="1"/><path fill="none" stroke="rgb(55,71,79)" paint-order="fill stroke markers" d=" M 254.5 265.125 L 254.5 376" stroke-opacity="1" stroke-linejoin="round" stroke-miterlimit="10" stroke-width="2"/><path fill="none" stroke="rgb(120,144,156)" paint-order="fill stroke markers" d=" M 616.1945644928988 407.29026959963403 L 446.1169686495401 512.5764003598084" stroke-opacity="1" stroke-linejoin="round" stroke-miterlimit="10"/><path fill="rgb(120,144,156)" stroke="none" paint-order="stroke fill markers" d=" M 449.52410255876794 505.3511710537871 L 444.4164383561644 513.629109589041 L 454.10338770592966 512.7484778299714 Z" fill-opacity="1"/><path fill="none" stroke="rgb(120,144,156)" paint-order="fill stroke markers" d=" M 729.25 422.2583170254403 L 451.25527408748303 517.7340007781736" stroke-opacity="1" stroke-linejoin="round" stroke-miterlimit="10"/><path fill="rgb(120,144,156)" stroke="none" paint-order="stroke fill markers" d=" M 456.178997834313 511.4435759542922 L 449.36372315035806 518.3836430276167 L 459.0049416193906 519.671822530786 Z" fill-opacity="1"/><path fill="none" stroke="rgb(120,144,156)" paint-order="fill stroke markers" d=" M 373.90974025974026 265.125 L 413.40804064673773 375.31953368836247" stroke-opacity="1" stroke-linejoin="round" stroke-miterlimit="10"/><path fill="rgb(120,144,156)" stroke="none" paint-order="stroke fill markers" d=" M 407.0524337079608 370.4802403060833 L 414.0828814781388 377.20224180495245 L 415.24221401512733 367.5446826894886 Z" fill-opacity="1"/><path fill="none" stroke="rgb(120,144,156)" paint-order="fill stroke markers" d=" M 464.14577939963607 276.12952848652253 L 428.59195935326227 375.31953368836247" stroke-opacity="1" stroke-linejoin="round" stroke-miterlimit="10"/><path fill="rgb(120,144,156)" stroke="none" paint-order="stroke fill markers" d=" M 426.7577859848727 367.5446826894886 L 427.9171185218612 377.20224180495245 L 434.9475662920392 370.4802403060833 Z" fill-opacity="1"/><path fill="rgb(69,90,100)" stroke="rgb(76,175,80)" paint-order="fill stroke markers" d=" M 321.75 242.125 L 321.75 262.125 L 416.75 262.125 L 416.75 242.125 Z" fill-opacity="1" stroke-opacity="1" stroke-miterlimit="10" stroke-width="6"/><text fill="rgb(255,255,255)" stroke="none" font-family="times new roman" font-size="10px" font-style="normal" font-weight="normal" text-decoration="normal" x="369.25" y="257.125" text-anchor="middle" dominant-baseline="text-after-edge" fill-opacity="1">42129130C&gt;G</text><path fill="rgb(69,90,100)" stroke="rgb(69,90,100)" paint-order="fill stroke markers" d=" M 402.25 510.625 L 383.5 528.125 L 402.25 545.625 L 439.75 545.625 L 458.5 528.125 L 439.75000000000006 510.625 Z" fill-opacity="1" stroke-opacity="1" stroke-miterlimit="10" stroke-width="2"/><text fill="rgb(255,255,255)" stroke="none" font-family="times new roman" font-size="10px" font-style="normal" font-weight="normal" text-decoration="normal" x="421" y="533.125" text-anchor="middle" dominant-baseline="text-after-edge" fill-opacity="1">NA18565-all</text><path fill="rgb(69,90,100)" stroke="rgb(76,175,80)" paint-order="fill stroke markers" d=" M 207 242.125 L 207 262.125 L 302 262.125 L 302 242.125 Z" fill-opacity="1" stroke-opacity="1" stroke-miterlimit="10" stroke-width="6"/><text fill="rgb(255,255,255)" stroke="none" font-family="times new roman" font-size="10px" font-style="normal" font-weight="normal" text-decoration="normal" x="254.5" y="257.125" text-anchor="middle" dominant-baseline="text-after-edge" fill-opacity="1">42127407T&gt;G</text><path fill="rgb(69,90,100)" stroke="rgb(255,193,7)" paint-order="fill stroke markers" d=" M 438.5 396.5 L 438.44605334032974 397.8730341752373 L 438.2845459604149 399.23760313820407 L 438.0164736069593 400.58529386747836 L 437.6434890351652 401.9077974015616 L 437.1678918189475 403.19696006638907 L 436.59261417329645 404.44483374544205 L 435.9212028761966 405.6437248825291 L 435.1577974015616 406.7862419151183 L 434.30710439800055 407.86534084577823 L 433.37436867076457 408.87436867076457 L 432.36534084577823 409.80710439800055 L 431.2862419151183 410.6577974015616 L 430.1437248825291 411.4212028761966 L 428.94483374544205 412.09261417329645 L 427.69696006638907 412.6678918189475 L 426.4077974015616 413.1434890351652 L 425.08529386747836 413.5164736069593 L 423.73760313820407 413.7845459604149 L 422.3730341752373 413.94605334032974 L 421 414 L 419.6269658247627 413.94605334032974 L 418.26239686179593 413.7845459604149 L 416.91470613252164 413.5164736069593 L 415.5922025984384 413.1434890351652 L 414.30303993361093 412.6678918189475 L 413.05516625455795 412.09261417329645 L 411.8562751174709 411.4212028761966 L 410.7137580848817 410.6577974015616 L 409.63465915422177 409.80710439800055 L 408.62563132923543 408.87436867076457 L 407.69289560199945 407.86534084577823 L 406.8422025984384 406.7862419151183 L 406.0787971238034 405.6437248825291 L 405.40738582670355 404.44483374544205 L 404.8321081810525 403.19696006638907 L 404.3565109648348 401.9077974015616 L 403.9835263930407 400.58529386747836 L 403.7154540395851 399.23760313820407 L 403.55394665967026 397.8730341752373 L 403.5 396.5 L 403.55394665967026 395.1269658247627 L 403.7154540395851 393.76239686179593 L 403.9835263930407 392.41470613252164 L 404.3565109648348 391.0922025984384 L 404.8321081810525 389.80303993361093 L 405.40738582670355 388.55516625455795 L 406.0787971238034 387.3562751174709 L 406.8422025984384 386.2137580848817 L 407.69289560199945 385.13465915422177 L 408.62563132923543 384.12563132923543 L 409.63465915422177 383.19289560199945 L 410.7137580848817 382.3422025984384 L 411.8562751174709 381.5787971238034 L 413.05516625455795 380.90738582670355 L 414.30303993361093 380.3321081810525 L 415.59220259843846 379.8565109648348 L 416.9147061325217 379.4835263930407 L 418.262396861796 379.2154540395851 L 419.62696582476275 379.05394665967026 L 421.00000000000006 379 L 422.37303417523736 379.05394665967026 L 423.7376031382041 379.2154540395851 L 425.0852938674784 379.4835263930407 L 426.40779740156165 379.85651096483485 L 427.6969600663892 380.3321081810525 L 428.94483374544217 380.9073858267036 L 430.1437248825292 381.57879712380344 L 431.28624191511835 382.3422025984385 L 432.3653408457783 383.19289560199957 L 433.3743686707647 384.1256313292355 L 434.30710439800066 385.1346591542219 L 435.15779740156165 386.2137580848818 L 435.9212028761967 387.35627511747106 L 436.5926141732965 388.55516625455806 L 437.16789181894757 389.8030399336111 L 437.64348903516526 391.0922025984386 L 438.0164736069594 392.4147061325218 L 438.28454596041496 393.76239686179616 L 438.44605334032974 395.1269658247629 Z" fill-opacity="1" stroke-opacity="1" stroke-miterlimit="10" stroke-width="6"/><text fill="rgb(255,255,255)" stroke="none" font-family="times new roman" font-size="10px" font-style="normal" font-weight="normal" text-decoration="normal" x="421" y="401.5" text-anchor="middle" dominant-baseline="text-after-edge" fill-opacity="1">*10.1</text><path fill="rgb(69,90,100)" stroke="rgb(76,175,80)" paint-order="fill stroke markers" d=" M 804.25 242.125 L 846.75 242.125 L 846.75 242.125 A 5 5 0 0 1 851.75 247.125 L 851.75 257.125 L 851.75 257.125 A 5 5 0 0 1 846.75 262.125 L 761.75 262.125 L 761.75 262.125 A 5 5 0 0 1 756.75 257.125 L 756.75 247.125 L 756.75 247.125 A 5 5 0 0 1 761.75 242.125 L 804.25 242.125 Z" fill-opacity="1" stroke-opacity="1" stroke-miterlimit="10" stroke-width="2"/><text fill="rgb(255,255,255)" stroke="none" font-family="times new roman" font-size="10px" font-style="normal" font-weight="normal" text-decoration="normal" x="804.25" y="257.125" text-anchor="middle" dominant-baseline="text-after-edge" fill-opacity="1">42132049dup</text><path fill="rgb(69,90,100)" stroke="rgb(76,175,80)" paint-order="fill stroke markers" d=" M 643.5 242.125 L 643.5 262.125 L 738.5 262.125 L 738.5 242.125 Z" fill-opacity="1" stroke-opacity="1" stroke-miterlimit="10" stroke-width="6"/><text fill="rgb(255,255,255)" stroke="none" font-family="times new roman" font-size="10px" font-style="normal" font-weight="normal" text-decoration="normal" x="691" y="257.125" text-anchor="middle" dominant-baseline="text-after-edge" fill-opacity="1">42130482C&gt;A</text><path fill="rgb(69,90,100)" stroke="rgb(255,193,7)" paint-order="fill stroke markers" d=" M 473.25 157.375 L 473.25 177.375 L 568.25 177.375 L 568.25 157.375 Z" fill-opacity="1" stroke-opacity="1" stroke-miterlimit="10" stroke-width="6"/><text fill="rgb(255,255,255)" stroke="none" font-family="times new roman" font-size="10px" font-style="normal" font-weight="normal" text-decoration="normal" x="520.75" y="172.375" text-anchor="middle" dominant-baseline="text-after-edge" fill-opacity="1">42130692G&gt;A</text><path fill="rgb(69,90,100)" stroke="rgb(76,175,80)" paint-order="fill stroke markers" d=" M 488.375 93.875 L 488.32105334032974 95.24803417523728 L 488.1595459604149 96.61260313820404 L 487.8914736069593 97.96029386747834 L 487.5184890351652 99.28279740156158 L 487.0428918189475 100.57196006638907 L 486.46761417329645 101.81983374544207 L 485.7962028761966 103.0187248825291 L 485.0327974015616 104.16124191511828 L 484.18210439800055 105.2403408457782 L 483.24936867076457 106.24936867076458 L 482.24034084577823 107.18210439800055 L 481.1612419151183 108.03279740156158 L 480.0187248825291 108.79620287619662 L 478.81983374544205 109.46761417329644 L 477.57196006638907 110.04289181894751 L 476.2827974015616 110.51848903516519 L 474.96029386747836 110.89147360695934 L 473.61260313820407 111.1595459604149 L 472.2480341752373 111.32105334032974 L 470.875 111.375 L 469.5019658247627 111.32105334032974 L 468.13739686179593 111.1595459604149 L 466.78970613252164 110.89147360695934 L 465.4672025984384 110.51848903516519 L 464.17803993361093 110.04289181894751 L 462.93016625455795 109.46761417329644 L 461.7312751174709 108.79620287619662 L 460.5887580848817 108.03279740156158 L 459.50965915422177 107.18210439800055 L 458.50063132923543 106.24936867076458 L 457.56789560199945 105.24034084577822 L 456.7172025984384 104.16124191511828 L 455.9537971238034 103.01872488252911 L 455.28238582670355 101.81983374544207 L 454.7071081810525 100.57196006638907 L 454.2315109648348 99.28279740156158 L 453.8585263930407 97.96029386747834 L 453.5904540395851 96.61260313820404 L 453.42894665967026 95.2480341752373 L 453.375 93.875 L 453.42894665967026 92.50196582476272 L 453.5904540395851 91.13739686179596 L 453.8585263930407 89.78970613252166 L 454.2315109648348 88.46720259843842 L 454.7071081810525 87.17803993361093 L 455.28238582670355 85.93016625455793 L 455.9537971238034 84.7312751174709 L 456.7172025984384 83.58875808488172 L 457.56789560199945 82.5096591542218 L 458.50063132923543 81.50063132923542 L 459.50965915422177 80.56789560199947 L 460.5887580848817 79.71720259843842 L 461.7312751174709 78.95379712380338 L 462.93016625455795 78.28238582670356 L 464.17803993361093 77.70710818105248 L 465.46720259843846 77.2315109648348 L 466.7897061325217 76.85852639304065 L 468.137396861796 76.59045403958508 L 469.50196582476275 76.42894665967026 L 470.87500000000006 76.375 L 472.24803417523736 76.42894665967026 L 473.6126031382041 76.5904540395851 L 474.9602938674784 76.85852639304068 L 476.28279740156165 77.23151096483484 L 477.5719600663892 77.70710818105252 L 478.81983374544217 78.2823858267036 L 480.0187248825292 78.95379712380344 L 481.16124191511835 79.71720259843849 L 482.2403408457783 80.56789560199954 L 483.2493686707647 81.50063132923552 L 484.18210439800066 82.5096591542219 L 485.03279740156165 83.58875808488185 L 485.7962028761967 84.73127511747103 L 486.4676141732965 85.93016625455807 L 487.04289181894757 87.17803993361109 L 487.51848903516526 88.46720259843859 L 487.8914736069594 89.78970613252184 L 488.15954596041496 91.13739686179616 L 488.32105334032974 92.50196582476292 Z" fill-opacity="1" stroke-opacity="1" stroke-miterlimit="10" stroke-width="6"/><text fill="rgb(255,255,255)" stroke="none" font-family="times new roman" font-size="10px" font-style="normal" font-weight="normal" text-decoration="normal" x="470.875" y="98.875" text-anchor="middle" dominant-baseline="text-after-edge" fill-opacity="1">*39.2</text><path fill="rgb(69,90,100)" stroke="rgb(76,175,80)" paint-order="fill stroke markers" d=" M 272 396.5 L 271.94605334032974 397.8730341752373 L 271.7845459604149 399.23760313820407 L 271.5164736069593 400.58529386747836 L 271.1434890351652 401.9077974015616 L 270.6678918189475 403.19696006638907 L 270.09261417329645 404.44483374544205 L 269.4212028761966 405.6437248825291 L 268.6577974015616 406.7862419151183 L 267.80710439800055 407.86534084577823 L 266.87436867076457 408.87436867076457 L 265.86534084577823 409.80710439800055 L 264.7862419151183 410.6577974015616 L 263.6437248825291 411.4212028761966 L 262.44483374544205 412.09261417329645 L 261.19696006638907 412.6678918189475 L 259.9077974015616 413.1434890351652 L 258.58529386747836 413.5164736069593 L 257.23760313820407 413.7845459604149 L 255.87303417523728 413.94605334032974 L 254.5 414 L 253.12696582476272 413.94605334032974 L 251.76239686179596 413.7845459604149 L 250.41470613252164 413.5164736069593 L 249.09220259843843 413.1434890351652 L 247.80303993361093 412.6678918189475 L 246.55516625455795 412.09261417329645 L 245.3562751174709 411.4212028761966 L 244.21375808488173 410.6577974015616 L 243.1346591542218 409.80710439800055 L 242.12563132923543 408.87436867076457 L 241.19289560199945 407.86534084577823 L 240.34220259843843 406.7862419151183 L 239.57879712380338 405.6437248825291 L 238.90738582670357 404.44483374544205 L 238.3321081810525 403.19696006638907 L 237.85651096483483 401.9077974015616 L 237.48352639304065 400.58529386747836 L 237.2154540395851 399.23760313820407 L 237.05394665967026 397.8730341752373 L 237 396.5 L 237.05394665967026 395.1269658247627 L 237.2154540395851 393.76239686179593 L 237.48352639304065 392.41470613252164 L 237.8565109648348 391.0922025984384 L 238.3321081810525 389.80303993361093 L 238.90738582670357 388.55516625455795 L 239.57879712380338 387.3562751174709 L 240.3422025984384 386.2137580848817 L 241.19289560199945 385.13465915422177 L 242.1256313292354 384.12563132923543 L 243.13465915422177 383.19289560199945 L 244.2137580848817 382.3422025984384 L 245.3562751174709 381.5787971238034 L 246.55516625455795 380.90738582670355 L 247.80303993361096 380.3321081810525 L 249.09220259843843 379.8565109648348 L 250.4147061325217 379.4835263930407 L 251.762396861796 379.2154540395851 L 253.12696582476278 379.05394665967026 L 254.50000000000006 379 L 255.87303417523736 379.05394665967026 L 257.2376031382041 379.2154540395851 L 258.5852938674784 379.4835263930407 L 259.90779740156165 379.85651096483485 L 261.1969600663892 380.3321081810525 L 262.44483374544217 380.9073858267036 L 263.6437248825292 381.57879712380344 L 264.78624191511835 382.3422025984385 L 265.8653408457783 383.19289560199957 L 266.8743686707647 384.1256313292355 L 267.80710439800066 385.1346591542219 L 268.65779740156165 386.2137580848818 L 269.4212028761967 387.35627511747106 L 270.0926141732965 388.55516625455806 L 270.66789181894757 389.8030399336111 L 271.14348903516526 391.0922025984386 L 271.5164736069594 392.4147061325218 L 271.78454596041496 393.76239686179616 L 271.94605334032974 395.1269658247629 Z" fill-opacity="1" stroke-opacity="1" stroke-miterlimit="10" stroke-width="6"/><text fill="rgb(255,255,255)" stroke="none" font-family="times new roman" font-size="10px" font-style="normal" font-weight="normal" text-decoration="normal" x="254.5" y="401.5" text-anchor="middle" dominant-baseline="text-after-edge" fill-opacity="1">*1.41</text><path fill="rgb(69,90,100)" stroke="rgb(76,175,80)" paint-order="fill stroke markers" d=" M 528.75 242.125 L 528.75 262.125 L 623.75 262.125 L 623.75 242.125 Z" fill-opacity="1" stroke-opacity="1" stroke-miterlimit="10" stroke-width="6"/><text fill="rgb(255,255,255)" stroke="none" font-family="times new roman" font-size="10px" font-style="normal" font-weight="normal" text-decoration="normal" x="576.25" y="257.125" text-anchor="middle" dominant-baseline="text-after-edge" fill-opacity="1">42129950A&gt;C</text><path fill="rgb(69,90,100)" stroke="rgb(255,193,7)" paint-order="fill stroke markers" d=" M 331.125 83.875 L 331.125 103.875 L 426.125 103.875 L 426.125 83.875 Z" fill-opacity="1" stroke-opacity="1" stroke-miterlimit="10" stroke-width="6"/><text fill="rgb(255,255,255)" stroke="none" font-family="times new roman" font-size="10px" font-style="normal" font-weight="normal" text-decoration="normal" x="378.625" y="98.875" text-anchor="middle" dominant-baseline="text-after-edge" fill-opacity="1">42126611C&gt;G</text><path fill="rgb(69,90,100)" stroke="rgb(255,193,7)" paint-order="fill stroke markers" d=" M 495.25 252.125 L 495.1806400089954 253.8903296538765 L 494.9729876633906 255.64477546340518 L 494.62832320894773 257.37752068675786 L 494.14877161664094 259.0778823734363 L 493.53728948150393 260.73537722821453 L 492.7976467942383 262.3397862441398 L 491.93440369796707 263.8812177061088 L 490.9528823734363 265.35016817658067 L 489.8591342260007 266.73758108742913 L 488.65990257669733 268.03490257669733 L 487.36258108742913 269.2341342260007 L 485.97516817658067 270.3278823734363 L 484.5062177061088 271.30940369796707 L 482.9647862441398 272.1726467942383 L 481.36037722821453 272.91228948150393 L 479.7028823734363 273.52377161664094 L 478.00252068675786 274.00332320894773 L 476.2697754634052 274.3479876633906 L 474.5153296538765 274.5556400089954 L 472.75 274.625 L 470.9846703461235 274.5556400089954 L 469.2302245365948 274.3479876633906 L 467.49747931324214 274.00332320894773 L 465.7971176265637 273.52377161664094 L 464.13962277178547 272.91228948150393 L 462.5352137558602 272.1726467942383 L 460.9937822938912 271.30940369796707 L 459.52483182341933 270.3278823734363 L 458.13741891257087 269.2341342260007 L 456.84009742330267 268.03490257669733 L 455.6408657739993 266.73758108742913 L 454.5471176265637 265.35016817658067 L 453.56559630203293 263.8812177061088 L 452.7023532057617 262.3397862441398 L 451.96271051849607 260.73537722821453 L 451.35122838335906 259.0778823734363 L 450.87167679105227 257.37752068675786 L 450.5270123366094 255.6447754634052 L 450.3193599910046 253.8903296538765 L 450.25 252.125 L 450.3193599910046 250.3596703461235 L 450.5270123366094 248.60522453659482 L 450.87167679105227 246.87247931324214 L 451.35122838335906 245.17211762656368 L 451.96271051849607 243.51462277178547 L 452.7023532057617 241.9102137558602 L 453.56559630203293 240.36878229389114 L 454.5471176265637 238.89983182341936 L 455.6408657739993 237.51241891257087 L 456.84009742330267 236.2150974233027 L 458.13741891257087 235.0158657739993 L 459.52483182341933 233.92211762656368 L 460.9937822938912 232.94059630203293 L 462.53521375586024 232.0773532057617 L 464.1396227717855 231.33771051849604 L 465.7971176265637 230.72622838335903 L 467.4974793132422 230.24667679105227 L 469.23022453659485 229.9020123366094 L 470.98467034612355 229.6943599910046 L 472.75000000000006 229.625 L 474.5153296538766 229.69435999100463 L 476.26977546340527 229.9020123366094 L 478.002520686758 230.2466767910523 L 479.7028823734364 230.72622838335909 L 481.36037722821465 231.3377105184961 L 482.96478624413993 232.0773532057618 L 484.506217706109 232.940596302033 L 485.9751681765808 233.92211762656376 L 487.36258108742925 235.01586577399942 L 488.65990257669745 236.2150974233028 L 489.85913422600083 237.512418912571 L 490.9528823734364 238.8998318234195 L 491.9344036979672 240.36878229389131 L 492.7976467942384 241.91021375586038 L 493.53728948150405 243.5146227717857 L 494.14877161664106 245.1721176265639 L 494.6283232089478 246.87247931324237 L 494.97298766339065 248.60522453659505 L 495.1806400089954 250.35967034612375 Z" fill-opacity="1" stroke-opacity="1" stroke-miterlimit="10" stroke-width="6"/><text fill="rgb(255,255,255)" stroke="none" font-family="times new roman" font-size="15px" font-style="normal" font-weight="normal" text-decoration="normal" x="472.75" y="259.625" text-anchor="middle" dominant-baseline="text-after-edge" fill-opacity="1">*10</text><path fill="rgb(3,169,244)" stroke="none" paint-order="stroke fill markers" d=" M 472.75 219.625 L 497.25 219.625 L 497.25 219.625 A 8 8 0 0 1 505.25 227.625 L 505.25 276.625 L 505.25 276.625 A 8 8 0 0 1 497.25 284.625 L 448.25 284.625 L 448.25 284.625 A 8 8 0 0 1 440.25 276.625 L 440.25 227.625 L 440.25 227.625 A 8 8 0 0 1 448.25 219.625 L 472.75 219.625 Z" fill-opacity="0.15"/><path fill="rgb(69,90,100)" stroke="rgb(76,175,80)" paint-order="fill stroke markers" d=" M 447.25 167.375 L 447.1806400089954 169.1403296538765 L 446.9729876633906 170.89477546340518 L 446.62832320894773 172.62752068675786 L 446.14877161664094 174.32788237343632 L 445.53728948150393 175.98537722821453 L 444.7976467942383 177.58978624413982 L 443.93440369796707 179.13121770610886 L 442.9528823734363 180.60016817658064 L 441.8591342260007 181.98758108742913 L 440.65990257669733 183.2849025766973 L 439.36258108742913 184.4841342260007 L 437.97516817658067 185.57788237343632 L 436.5062177061088 186.55940369796707 L 434.9647862441398 187.4226467942383 L 433.36037722821453 188.16228948150396 L 431.7028823734363 188.77377161664094 L 430.00252068675786 189.25332320894773 L 428.2697754634052 189.5979876633906 L 426.5153296538765 189.80564000899537 L 424.75 189.875 L 422.9846703461235 189.80564000899537 L 421.2302245365948 189.5979876633906 L 419.49747931324214 189.25332320894773 L 417.7971176265637 188.77377161664094 L 416.13962277178547 188.16228948150396 L 414.5352137558602 187.4226467942383 L 412.9937822938912 186.55940369796707 L 411.52483182341933 185.57788237343632 L 410.13741891257087 184.4841342260007 L 408.84009742330267 183.28490257669733 L 407.6408657739993 181.98758108742913 L 406.5471176265637 180.60016817658064 L 405.56559630203293 179.13121770610886 L 404.7023532057617 177.58978624413982 L 403.96271051849607 175.98537722821453 L 403.35122838335906 174.32788237343632 L 402.87167679105227 172.62752068675786 L 402.5270123366094 170.8947754634052 L 402.3193599910046 169.1403296538765 L 402.25 167.375 L 402.3193599910046 165.6096703461235 L 402.5270123366094 163.85522453659482 L 402.87167679105227 162.12247931324214 L 403.35122838335906 160.42211762656368 L 403.96271051849607 158.76462277178547 L 404.7023532057617 157.1602137558602 L 405.56559630203293 155.61878229389114 L 406.5471176265637 154.14983182341936 L 407.6408657739993 152.76241891257087 L 408.84009742330267 151.4650974233027 L 410.13741891257087 150.2658657739993 L 411.52483182341933 149.17211762656368 L 412.9937822938912 148.19059630203293 L 414.53521375586024 147.3273532057617 L 416.1396227717855 146.58771051849604 L 417.7971176265637 145.97622838335903 L 419.4974793132422 145.49667679105227 L 421.23022453659485 145.1520123366094 L 422.98467034612355 144.9443599910046 L 424.75000000000006 144.875 L 426.5153296538766 144.94435999100463 L 428.26977546340527 145.1520123366094 L 430.002520686758 145.4966767910523 L 431.7028823734364 145.97622838335909 L 433.36037722821465 146.5877105184961 L 434.96478624413993 147.3273532057618 L 436.506217706109 148.190596302033 L 437.9751681765808 149.17211762656376 L 439.36258108742925 150.26586577399942 L 440.65990257669745 151.4650974233028 L 441.85913422600083 152.762418912571 L 442.9528823734364 154.1498318234195 L 443.9344036979672 155.61878229389131 L 444.7976467942384 157.16021375586038 L 445.53728948150405 158.7646227717857 L 446.14877161664106 160.4221176265639 L 446.6283232089478 162.12247931324237 L 446.97298766339065 163.85522453659505 L 447.1806400089954 165.60967034612375 Z" fill-opacity="1" stroke-opacity="1" stroke-miterlimit="10" stroke-width="6"/><text fill="rgb(255,255,255)" stroke="none" font-family="times new roman" font-size="15px" font-style="normal" font-weight="normal" text-decoration="normal" x="424.75" y="174.875" text-anchor="middle" dominant-baseline="text-after-edge" fill-opacity="1">*39</text><path fill="rgb(69,90,100)" stroke="rgb(76,175,80)" paint-order="fill stroke markers" d=" M 651.125 396.5 L 651.0710533403297 397.8730341752373 L 650.9095459604149 399.23760313820407 L 650.6414736069594 400.58529386747836 L 650.2684890351652 401.9077974015616 L 649.7928918189475 403.19696006638907 L 649.2176141732964 404.44483374544205 L 648.5462028761966 405.6437248825291 L 647.7827974015615 406.7862419151183 L 646.9321043980005 407.86534084577823 L 645.9993686707646 408.87436867076457 L 644.9903408457782 409.80710439800055 L 643.9112419151182 410.6577974015616 L 642.7687248825291 411.4212028761966 L 641.5698337454421 412.09261417329645 L 640.3219600663891 412.6678918189475 L 639.0327974015615 413.1434890351652 L 637.7102938674783 413.5164736069593 L 636.362603138204 413.7845459604149 L 634.9980341752373 413.94605334032974 L 633.625 414 L 632.2519658247627 413.94605334032974 L 630.887396861796 413.7845459604149 L 629.5397061325217 413.5164736069593 L 628.2172025984385 413.1434890351652 L 626.9280399336109 412.6678918189475 L 625.6801662545579 412.09261417329645 L 624.4812751174709 411.4212028761966 L 623.3387580848818 410.6577974015616 L 622.2596591542218 409.80710439800055 L 621.2506313292354 408.87436867076457 L 620.3178956019995 407.86534084577823 L 619.4672025984385 406.7862419151183 L 618.7037971238034 405.6437248825291 L 618.0323858267036 404.44483374544205 L 617.4571081810525 403.19696006638907 L 616.9815109648348 401.9077974015616 L 616.6085263930406 400.58529386747836 L 616.3404540395851 399.23760313820407 L 616.1789466596703 397.8730341752373 L 616.125 396.5 L 616.1789466596703 395.1269658247627 L 616.3404540395851 393.76239686179593 L 616.6085263930406 392.41470613252164 L 616.9815109648348 391.0922025984384 L 617.4571081810525 389.80303993361093 L 618.0323858267036 388.55516625455795 L 618.7037971238034 387.3562751174709 L 619.4672025984385 386.2137580848817 L 620.3178956019995 385.13465915422177 L 621.2506313292354 384.12563132923543 L 622.2596591542218 383.19289560199945 L 623.3387580848818 382.3422025984384 L 624.4812751174709 381.5787971238034 L 625.6801662545579 380.90738582670355 L 626.928039933611 380.3321081810525 L 628.2172025984385 379.8565109648348 L 629.5397061325217 379.4835263930407 L 630.887396861796 379.2154540395851 L 632.2519658247628 379.05394665967026 L 633.6250000000001 379 L 634.9980341752373 379.05394665967026 L 636.3626031382041 379.2154540395851 L 637.7102938674784 379.4835263930407 L 639.0327974015617 379.85651096483485 L 640.3219600663891 380.3321081810525 L 641.5698337454421 380.9073858267036 L 642.7687248825292 381.57879712380344 L 643.9112419151184 382.3422025984385 L 644.9903408457783 383.19289560199957 L 645.9993686707646 384.1256313292355 L 646.9321043980007 385.1346591542219 L 647.7827974015617 386.2137580848818 L 648.5462028761967 387.35627511747106 L 649.2176141732965 388.55516625455806 L 649.7928918189476 389.8030399336111 L 650.2684890351652 391.0922025984386 L 650.6414736069594 392.4147061325218 L 650.9095459604149 393.76239686179616 L 651.0710533403297 395.1269658247629 Z" fill-opacity="1" stroke-opacity="1" stroke-miterlimit="10" stroke-width="6"/><text fill="rgb(255,255,255)" stroke="none" font-family="times new roman" font-size="10px" font-style="normal" font-weight="normal" text-decoration="normal" x="633.625" y="401.5" text-anchor="middle" dominant-baseline="text-after-edge" fill-opacity="1">*1.58</text><path fill="rgb(176,190,197)" stroke="none" paint-order="stroke fill markers" d=" M 123.25000000000001 291.5 L 123.25 501.5 L 198.25 501.5 L 198.25 291.50000000000006 Z" fill-opacity="0.8"/><text fill="rgb(0,0,0)" stroke="none" font-family="times new roman" font-size="10px" font-style="normal" font-weight="normal" text-decoration="normal" x="128.25" y="306.5" text-anchor="start" dominant-baseline="text-after-edge" fill-opacity="0.8">42126390G&gt;A </text><text fill="rgb(0,0,0)" stroke="none" font-family="times new roman" font-size="10px" font-style="normal" font-weight="normal" text-decoration="normal" x="128.25" y="316.5" text-anchor="start" dominant-baseline="text-after-edge" fill-opacity="0.8">42126396_42126397del </text><text fill="rgb(0,0,0)" stroke="none" font-family="times new roman" font-size="10px" font-style="normal" font-weight="normal" text-decoration="normal" x="128.25" y="326.5" text-anchor="start" dominant-baseline="text-after-edge" fill-opacity="0.8">42127209T&gt;C </text><text fill="rgb(0,0,0)" stroke="none" font-family="times new roman" font-size="10px" font-style="normal" font-weight="normal" text-decoration="normal" x="128.25" y="336.5" text-anchor="start" dominant-baseline="text-after-edge" fill-opacity="0.8">42128694T&gt;C </text><text fill="rgb(0,0,0)" stroke="none" font-family="times new roman" font-size="10px" font-style="normal" font-weight="normal" text-decoration="normal" x="128.25" y="346.5" text-anchor="start" dominant-baseline="text-after-edge" fill-opacity="0.8">42129754G&gt;A </text><text fill="rgb(0,0,0)" stroke="none" font-family="times new roman" font-size="10px" font-style="normal" font-weight="normal" text-decoration="normal" x="128.25" y="356.5" text-anchor="start" dominant-baseline="text-after-edge" fill-opacity="0.8">42131791C&gt;T </text><text fill="rgb(0,0,0)" stroke="none" font-family="times new roman" font-size="10px" font-style="normal" font-weight="normal" text-decoration="normal" x="128.25" y="366.5" text-anchor="start" dominant-baseline="text-after-edge" fill-opacity="0.8">42132217G&gt;A </text><path fill="rgb(176,190,197)" stroke="none" paint-order="stroke fill markers" d=" M 804.25 291.5 L 871.25 291.5 L 871.25 291.5 A 8 8 0 0 1 879.25 299.5 L 879.25 493.5 L 879.25 493.5 A 8 8 0 0 1 871.25 501.5 L 737.25 501.5 L 737.25 501.5 A 8 8 0 0 1 729.25 493.5 L 729.25 299.5 L 729.25 299.5 A 8 8 0 0 1 737.25 291.5 L 804.25 291.5 Z" fill-opacity="0.8"/><text fill="rgb(0,0,0)" stroke="none" font-family="times new roman" font-size="10px" font-style="normal" font-weight="normal" text-decoration="normal" x="734.25" y="306.5" text-anchor="start" dominant-baseline="text-after-edge" fill-opacity="0.8">42125572G&gt;A </text><text fill="rgb(0,0,0)" stroke="none" font-family="times new roman" font-size="10px" font-style="normal" font-weight="normal" text-decoration="normal" x="734.25" y="316.5" text-anchor="start" dominant-baseline="text-after-edge" fill-opacity="0.8">42125924A&gt;G </text><text fill="rgb(0,0,0)" stroke="none" font-family="times new roman" font-size="10px" font-style="normal" font-weight="normal" text-decoration="normal" x="734.25" y="326.5" text-anchor="start" dominant-baseline="text-after-edge" fill-opacity="0.8">42125980T&gt;C </text><text fill="rgb(0,0,0)" stroke="none" font-family="times new roman" font-size="10px" font-style="normal" font-weight="normal" text-decoration="normal" x="734.25" y="336.5" text-anchor="start" dominant-baseline="text-after-edge" fill-opacity="0.8">42126069A&gt;C </text><text fill="rgb(0,0,0)" stroke="none" font-family="times new roman" font-size="10px" font-style="normal" font-weight="normal" text-decoration="normal" x="734.25" y="346.5" text-anchor="start" dominant-baseline="text-after-edge" fill-opacity="0.8">42132027C&gt;T </text><text fill="rgb(0,0,0)" stroke="none" font-family="times new roman" font-size="10px" font-style="normal" font-weight="normal" text-decoration="normal" x="734.25" y="356.5" text-anchor="start" dominant-baseline="text-after-edge" fill-opacity="0.8">42132844C&gt;A </text><text fill="rgb(0,0,0)" stroke="none" font-family="times new roman" font-size="10px" font-style="normal" font-weight="normal" text-decoration="normal" x="734.25" y="366.5" text-anchor="start" dominant-baseline="text-after-edge" fill-opacity="0.8">42132851T&gt;C </text><text fill="rgb(0,0,0)" stroke="none" font-family="times new roman" font-size="10px" font-style="normal" font-weight="normal" text-decoration="normal" x="734.25" y="376.5" text-anchor="start" dominant-baseline="text-after-edge" fill-opacity="0.8">42132969C&gt;T </text><text fill="rgb(0,0,0)" stroke="none" font-family="times new roman" font-size="10px" font-style="normal" font-weight="normal" text-decoration="normal" x="734.25" y="386.5" text-anchor="start" dominant-baseline="text-after-edge" fill-opacity="0.8">42133212A&gt;G </text><text fill="rgb(0,0,0)" stroke="none" font-family="times new roman" font-size="10px" font-style="normal" font-weight="normal" text-decoration="normal" x="734.25" y="396.5" text-anchor="start" dominant-baseline="text-after-edge" fill-opacity="0.8">42133314C&gt;T </text><text fill="rgb(0,0,0)" stroke="none" font-family="times new roman" font-size="10px" font-style="normal" font-weight="normal" text-decoration="normal" x="734.25" y="406.5" text-anchor="start" dominant-baseline="text-after-edge" fill-opacity="0.8">42133400T&gt;G </text><text fill="rgb(0,0,0)" stroke="none" font-family="times new roman" font-size="10px" font-style="normal" font-weight="normal" text-decoration="normal" x="734.25" y="416.5" text-anchor="start" dominant-baseline="text-after-edge" fill-opacity="0.8">42134096del </text><text fill="rgb(0,0,0)" stroke="none" font-family="times new roman" font-size="10px" font-style="normal" font-weight="normal" text-decoration="normal" x="734.25" y="426.5" text-anchor="start" dominant-baseline="text-after-edge" fill-opacity="0.8">42134820T&gt;G </text><text fill="rgb(0,0,0)" stroke="none" font-family="times new roman" font-size="10px" font-style="normal" font-weight="normal" text-decoration="normal" x="734.25" y="436.5" text-anchor="start" dominant-baseline="text-after-edge" fill-opacity="0.8">42135064_42135066dup </text><text fill="rgb(0,0,0)" stroke="none" font-family="times new roman" font-size="10px" font-style="normal" font-weight="normal" text-decoration="normal" x="734.25" y="446.5" text-anchor="start" dominant-baseline="text-after-edge" fill-opacity="0.8">42135201T&gt;C </text><g transform="scale(0.8672445255474452,0.8672445255474452) translate(69.48001052077859,53.45397159389796)"/></g></svg>