<svg version="1.1" xmlns="http://www.w3.org/2000/svg" xmlns:xlink="http://www.w3.org/1999/xlink" width="1017" height="608"><defs/><g transform="translate(-112.8708387096774,58.514064516129025) scale(0.9878709677419355,0.9878709677419355)"><path fill="none" stroke="rgb(55,71,79)" paint-order="fill stroke markers" d=" M 437.10109548347265 94.31356903160199 L 459.92901384531854 131.91249339228938" stroke-opacity="1" stroke-linejoin="round" stroke-miterlimit="10" stroke-width="2"/><path fill="none" stroke="rgb(120,144,156)" paint-order="fill stroke markers" d=" M 201.57431506849315 165 L 244.80176915107614 268.12431856302476" stroke-opacity="1" stroke-linejoin="round" stroke-miterlimit="10"/><path fill="rgb(120,144,156)" stroke="none" paint-order="stroke fill markers" d=" M 238.19983088713693 263.62688472147295 L 245.57494522653604 269.9688235796448 L 246.22342770943402 260.2635687932224 Z" fill-opacity="1"/><path fill="none" stroke="rgb(120,144,156)" paint-order="fill stroke markers" d=" M 272.83022453817097 295.7008639968793 L 596.2092076004475 409.89203407219026" stroke-opacity="1" stroke-linejoin="round" stroke-miterlimit="10"/><path fill="rgb(120,144,156)" stroke="none" paint-order="stroke fill markers" d=" M 588.4431094154636 411.7629212898465 L 598.0950831651471 410.5579720231053 L 591.3399395019441 403.5593625834032 Z" fill-opacity="1"/><path fill="none" stroke="rgb(120,144,156)" paint-order="fill stroke markers" d=" M 305.42568493150685 165 L 262.19823084892386 268.12431856302476" stroke-opacity="1" stroke-linejoin="round" stroke-miterlimit="10"/><path fill="rgb(120,144,156)" stroke="none" paint-order="stroke fill markers" d=" M 260.776572290566 260.2635687932224 L 261.42505477346396 269.9688235796448 L 268.80016911286305 263.62688472147295 Z" fill-opacity="1"/><path fill="none" stroke="rgb(55,71,79)" paint-order="fill stroke markers" d=" M 638.1581632653061 91.5 L 662.5704273259075 130.40084354372266" stroke-opacity="1" stroke-linejoin="round" stroke-miterlimit="10" stroke-width="2"/><path fill="none" stroke="rgb(120,144,156)" paint-order="fill stroke markers" d=" M 489.99512339936985 304.1363462607757 L 604.3440650544545 401.79201176183335" stroke-opacity="1" stroke-linejoin="round" stroke-miterlimit="10"/><path fill="rgb(120,144,156)" stroke="none" paint-order="stroke fill markers" d=" M 596.4242062029587 400.74877843587853 L 605.8649266203583 403.09084974147385 L 602.0741514143948 394.1330306241969 Z" fill-opacity="1"/><path fill="none" stroke="rgb(120,144,156)" paint-order="fill stroke markers" d=" M 774.2715753424658 163 L 809.5493263763206 269.4163564244379" stroke-opacity="1" stroke-linejoin="round" stroke-miterlimit="10"/><path fill="rgb(120,144,156)" stroke="none" paint-order="stroke fill markers" d=" M 803.3120281893767 264.425503658913 L 810.1786603883868 271.31476067571225 L 811.5700866824202 261.6879007064246 Z" fill-opacity="1"/><path fill="none" stroke="rgb(120,144,156)" paint-order="fill stroke markers" d=" M 652.125 366.75961538461536 L 636.0250386449532 400.1979966604818" stroke-opacity="1" stroke-linejoin="round" stroke-miterlimit="10"/><path fill="rgb(120,144,156)" stroke="none" paint-order="stroke fill markers" d=" M 635.0122460272795 392.2741875314337 L 635.1574074074074 402 L 642.8509605541836 396.04838341475795 Z" fill-opacity="1"/><path fill="none" stroke="rgb(120,144,156)" paint-order="fill stroke markers" d=" M 956.6154109589041 163 L 964.3811035609057 182.02334093778896" stroke-opacity="1" stroke-linejoin="round" stroke-miterlimit="10"/><path fill="rgb(120,144,156)" stroke="none" paint-order="stroke fill markers" d=" M 957.8215379200415 177.46432803989163 L 965.1369863013699 183.875 L 965.8762548406596 174.17623811887225 Z" fill-opacity="1"/><path fill="none" stroke="rgb(120,144,156)" paint-order="fill stroke markers" d=" M 800.7991842807802 299.41943936254177 L 650.2536794925752 403.84922628084206" stroke-opacity="1" stroke-linejoin="round" stroke-miterlimit="10"/><path fill="rgb(120,144,156)" stroke="none" paint-order="stroke fill markers" d=" M 653.279471605641 396.4561834642131 L 648.6103480634704 404.9891656713871 L 658.238207954512 403.60467518081913 Z" fill-opacity="1"/><path fill="none" stroke="rgb(55,71,79)" paint-order="fill stroke markers" d=" M 410.096117825765 168.44658514044804 L 461.36439086997416 267.98339184862004" stroke-opacity="1" stroke-linejoin="round" stroke-miterlimit="10" stroke-width="2"/><path fill="none" stroke="rgb(120,144,156)" paint-order="fill stroke markers" d=" M 1059.384589041096 163 L 1051.6188964390942 182.02334093778896" stroke-opacity="1" stroke-linejoin="round" stroke-miterlimit="10"/><path fill="rgb(120,144,156)" stroke="none" paint-order="stroke fill markers" d=" M 1050.1237451593406 174.17623811887225 L 1050.86301369863 183.875 L 1058.1784620799585 177.46432803989177 Z" fill-opacity="1"/><path fill="none" stroke="rgb(55,71,79)" paint-order="fill stroke markers" d=" M 711.6648448916085 95.82411613907041 L 689.7583636714138 130.4504896806685" stroke-opacity="1" stroke-linejoin="round" stroke-miterlimit="10" stroke-width="2"/><path fill="none" stroke="rgb(120,144,156)" paint-order="fill stroke markers" d=" M 472.125 175.5 L 472.125 263.375" stroke-opacity="1" stroke-linejoin="round" stroke-miterlimit="10"/><path fill="rgb(120,144,156)" stroke="none" paint-order="stroke fill markers" d=" M 467.775 256.675 L 472.125 265.375 L 476.475 256.675 Z" fill-opacity="1"/><path fill="none" stroke="rgb(120,144,156)" paint-order="fill stroke markers" d=" M 933 314.73452848722985 L 656.4751769391324 410.0785490121459" stroke-opacity="1" stroke-linejoin="round" stroke-miterlimit="10"/><path fill="rgb(120,144,156)" stroke="none" paint-order="stroke fill markers" d=" M 661.3913070598288 403.7821877902669 L 654.584411238875 410.730473138659 L 664.227177010161 412.0070185863869 Z" fill-opacity="1"/><path fill="none" stroke="rgb(55,71,79)" paint-order="fill stroke markers" d=" M 861.375 91.5 L 861.375 131.5" stroke-opacity="1" stroke-linejoin="round" stroke-miterlimit="10" stroke-width="2"/><path fill="none" stroke="rgb(55,71,79)" paint-order="fill stroke markers" d=" M 510.07142857142856 89.5 L 484.32098615468146 131.91249339228938" stroke-opacity="1" stroke-linejoin="round" stroke-miterlimit="10" stroke-width="2"/><path fill="none" stroke="rgb(120,144,156)" paint-order="fill stroke markers" d=" M 854.9243263763206 171.45864357556215 L 822.4506736236794 269.4163564244379" stroke-opacity="1" stroke-linejoin="round" stroke-miterlimit="10"/><path fill="rgb(120,144,156)" stroke="none" paint-order="stroke fill markers" d=" M 820.4299133175798 261.6879007064246 L 821.8213396116132 271.31476067571225 L 828.6879718106233 264.425503658913 Z" fill-opacity="1"/><path fill="none" stroke="rgb(120,144,156)" paint-order="fill stroke markers" d=" M 654.9497300373237 166.20767194186925 L 493.30026996267634 274.6673280581308" stroke-opacity="1" stroke-linejoin="round" stroke-miterlimit="10"/><path fill="rgb(120,144,156)" stroke="none" paint-order="stroke fill markers" d=" M 496.4403066608254 267.32207996604586 L 491.63946447540764 275.7816552692578 L 501.28763002922784 274.5465838356648 Z" fill-opacity="1"/><path fill="rgb(69,90,100)" stroke="rgb(76,175,80)" paint-order="fill stroke markers" d=" M 148.625 142 L 148.625 162 L 243.62499999999997 162 L 243.625 142 Z" fill-opacity="1" stroke-opacity="1" stroke-miterlimit="10" stroke-width="6"/><text fill="rgb(255,255,255)" stroke="none" font-family="times new roman" font-size="10px" font-style="normal" font-weight="normal" text-decoration="normal" x="196.125" y="157" text-anchor="middle" dominant-baseline="text-after-edge" fill-opacity="1">42130482C&gt;A</text><path fill="rgb(69,90,100)" stroke="rgb(255,193,7)" paint-order="fill stroke markers" d=" M 469.25 68.5 L 469.25 88.5 L 564.25 88.5 L 564.25 68.5 Z" fill-opacity="1" stroke-opacity="1" stroke-miterlimit="10" stroke-width="2"/><text fill="rgb(255,255,255)" stroke="none" font-family="times new roman" font-size="10px" font-style="normal" font-weight="normal" text-decoration="normal" x="516.75" y="83.5" text-anchor="middle" dominant-baseline="text-after-edge" fill-opacity="1">42127941G&gt;A</text><path fill="rgb(69,90,100)" stroke="rgb(76,175,80)" paint-order="fill stroke markers" d=" M 698.625 152 L 698.5556400089954 153.7653296538765 L 698.3479876633907 155.51977546340518 L 698.0033232089477 157.25252068675786 L 697.5237716166409 158.95288237343632 L 696.912289481504 160.61037722821453 L 696.1726467942383 162.21478624413982 L 695.3094036979671 163.75621770610886 L 694.3278823734363 165.22516817658064 L 693.2341342260007 166.61258108742913 L 692.0349025766973 167.9099025766973 L 690.7375810874291 169.1091342260007 L 689.3501681765806 170.20288237343632 L 687.8812177061088 171.18440369796707 L 686.3397862441398 172.0476467942383 L 684.7353772282145 172.78728948150396 L 683.0778823734363 173.39877161664094 L 681.3775206867579 173.87832320894773 L 679.6447754634052 174.2229876633906 L 677.8903296538765 174.43064000899537 L 676.125 174.5 L 674.3596703461235 174.43064000899537 L 672.6052245365948 174.2229876633906 L 670.8724793132421 173.87832320894773 L 669.1721176265637 173.39877161664094 L 667.5146227717855 172.78728948150396 L 665.9102137558602 172.0476467942383 L 664.3687822938912 171.18440369796707 L 662.8998318234194 170.20288237343632 L 661.5124189125709 169.1091342260007 L 660.2150974233027 167.90990257669733 L 659.0158657739993 166.61258108742913 L 657.9221176265637 165.22516817658064 L 656.9405963020329 163.75621770610886 L 656.0773532057617 162.21478624413982 L 655.337710518496 160.61037722821453 L 654.7262283833591 158.95288237343632 L 654.2466767910523 157.25252068675786 L 653.9020123366095 155.5197754634052 L 653.6943599910046 153.7653296538765 L 653.625 152 L 653.6943599910046 150.2346703461235 L 653.9020123366093 148.48022453659482 L 654.2466767910523 146.74747931324214 L 654.7262283833591 145.04711762656368 L 655.337710518496 143.38962277178547 L 656.0773532057617 141.7852137558602 L 656.9405963020329 140.24378229389114 L 657.9221176265637 138.77483182341936 L 659.0158657739993 137.38741891257087 L 660.2150974233027 136.0900974233027 L 661.5124189125709 134.8908657739993 L 662.8998318234194 133.79711762656368 L 664.3687822938912 132.81559630203293 L 665.9102137558602 131.9523532057617 L 667.5146227717855 131.21271051849604 L 669.1721176265637 130.60122838335903 L 670.8724793132421 130.12167679105227 L 672.6052245365948 129.7770123366094 L 674.3596703461236 129.5693599910046 L 676.1250000000001 129.5 L 677.8903296538766 129.56935999100463 L 679.6447754634053 129.7770123366094 L 681.377520686758 130.1216767910523 L 683.0778823734364 130.60122838335909 L 684.7353772282146 131.2127105184961 L 686.3397862441399 131.9523532057618 L 687.8812177061089 132.815596302033 L 689.3501681765807 133.79711762656376 L 690.7375810874292 134.89086577399942 L 692.0349025766974 136.0900974233028 L 693.2341342260008 137.387418912571 L 694.3278823734364 138.7748318234195 L 695.3094036979671 140.24378229389131 L 696.1726467942384 141.78521375586038 L 696.912289481504 143.3896227717857 L 697.523771616641 145.0471176265639 L 698.0033232089478 146.74747931324237 L 698.3479876633907 148.48022453659505 L 698.5556400089954 150.23467034612375 Z" fill-opacity="1" stroke-opacity="1" stroke-miterlimit="10" stroke-width="6"/><text fill="rgb(255,255,255)" stroke="none" font-family="times new roman" font-size="15px" font-style="normal" font-weight="normal" text-decoration="normal" x="676.125" y="159.5" text-anchor="middle" dominant-baseline="text-after-edge" fill-opacity="1">*39</text><path fill="rgb(69,90,100)" stroke="rgb(76,175,80)" paint-order="fill stroke markers" d=" M 833.5 288.875 L 833.4460533403297 290.2480341752373 L 833.2845459604149 291.61260313820407 L 833.0164736069594 292.96029386747836 L 832.6434890351652 294.2827974015616 L 832.1678918189475 295.57196006638907 L 831.5926141732964 296.81983374544205 L 830.9212028761966 298.0187248825291 L 830.1577974015615 299.1612419151183 L 829.3071043980005 300.24034084577823 L 828.3743686707646 301.24936867076457 L 827.3653408457782 302.18210439800055 L 826.2862419151182 303.0327974015616 L 825.1437248825291 303.7962028761966 L 823.9448337454421 304.46761417329645 L 822.6969600663891 305.0428918189475 L 821.4077974015615 305.5184890351652 L 820.0852938674783 305.8914736069593 L 818.737603138204 306.1595459604149 L 817.3730341752373 306.32105334032974 L 816 306.375 L 814.6269658247627 306.32105334032974 L 813.262396861796 306.1595459604149 L 811.9147061325217 305.8914736069593 L 810.5922025984385 305.5184890351652 L 809.3030399336109 305.0428918189475 L 808.0551662545579 304.46761417329645 L 806.8562751174709 303.7962028761966 L 805.7137580848818 303.0327974015616 L 804.6346591542218 302.18210439800055 L 803.6256313292354 301.24936867076457 L 802.6928956019995 300.24034084577823 L 801.8422025984385 299.1612419151183 L 801.0787971238034 298.0187248825291 L 800.4073858267036 296.81983374544205 L 799.8321081810525 295.57196006638907 L 799.3565109648348 294.2827974015616 L 798.9835263930406 292.96029386747836 L 798.7154540395851 291.61260313820407 L 798.5539466596703 290.2480341752373 L 798.5 288.875 L 798.5539466596703 287.5019658247627 L 798.7154540395851 286.13739686179593 L 798.9835263930406 284.78970613252164 L 799.3565109648348 283.4672025984384 L 799.8321081810525 282.17803993361093 L 800.4073858267036 280.93016625455795 L 801.0787971238034 279.7312751174709 L 801.8422025984385 278.5887580848817 L 802.6928956019995 277.50965915422177 L 803.6256313292354 276.50063132923543 L 804.6346591542218 275.56789560199945 L 805.7137580848818 274.7172025984384 L 806.8562751174709 273.9537971238034 L 808.0551662545579 273.28238582670355 L 809.303039933611 272.7071081810525 L 810.5922025984385 272.2315109648348 L 811.9147061325217 271.8585263930407 L 813.262396861796 271.5904540395851 L 814.6269658247628 271.42894665967026 L 816.0000000000001 271.375 L 817.3730341752373 271.42894665967026 L 818.7376031382041 271.5904540395851 L 820.0852938674784 271.8585263930407 L 821.4077974015617 272.23151096483485 L 822.6969600663891 272.7071081810525 L 823.9448337454421 273.2823858267036 L 825.1437248825292 273.95379712380344 L 826.2862419151184 274.7172025984385 L 827.3653408457783 275.56789560199957 L 828.3743686707646 276.5006313292355 L 829.3071043980007 277.5096591542219 L 830.1577974015617 278.5887580848818 L 830.9212028761967 279.73127511747106 L 831.5926141732965 280.93016625455806 L 832.1678918189476 282.1780399336111 L 832.6434890351652 283.4672025984386 L 833.0164736069594 284.7897061325218 L 833.2845459604149 286.13739686179616 L 833.4460533403297 287.5019658247629 Z" fill-opacity="1" stroke-opacity="1" stroke-miterlimit="10" stroke-width="2"/><text fill="rgb(255,255,255)" stroke="none" font-family="times new roman" font-size="10px" font-style="normal" font-weight="normal" text-decoration="normal" x="816" y="293.875" text-anchor="middle" dominant-baseline="text-after-edge" fill-opacity="1">*1.54</text><path fill="rgb(69,90,100)" stroke="rgb(76,175,80)" paint-order="fill stroke markers" d=" M 494.625 152 L 494.5556400089954 153.7653296538765 L 494.3479876633906 155.51977546340518 L 494.00332320894773 157.25252068675786 L 493.52377161664094 158.95288237343632 L 492.91228948150393 160.61037722821453 L 492.1726467942383 162.21478624413982 L 491.30940369796707 163.75621770610886 L 490.3278823734363 165.22516817658064 L 489.2341342260007 166.61258108742913 L 488.03490257669733 167.9099025766973 L 486.73758108742913 169.1091342260007 L 485.35016817658067 170.20288237343632 L 483.8812177061088 171.18440369796707 L 482.3397862441398 172.0476467942383 L 480.73537722821453 172.78728948150396 L 479.0778823734363 173.39877161664094 L 477.37752068675786 173.87832320894773 L 475.6447754634052 174.2229876633906 L 473.8903296538765 174.43064000899537 L 472.125 174.5 L 470.3596703461235 174.43064000899537 L 468.6052245365948 174.2229876633906 L 466.87247931324214 173.87832320894773 L 465.1721176265637 173.39877161664094 L 463.51462277178547 172.78728948150396 L 461.9102137558602 172.0476467942383 L 460.3687822938912 171.18440369796707 L 458.89983182341933 170.20288237343632 L 457.51241891257087 169.1091342260007 L 456.21509742330267 167.90990257669733 L 455.0158657739993 166.61258108742913 L 453.9221176265637 165.22516817658064 L 452.94059630203293 163.75621770610886 L 452.0773532057617 162.21478624413982 L 451.33771051849607 160.61037722821453 L 450.72622838335906 158.95288237343632 L 450.24667679105227 157.25252068675786 L 449.9020123366094 155.5197754634052 L 449.6943599910046 153.7653296538765 L 449.625 152 L 449.6943599910046 150.2346703461235 L 449.9020123366094 148.48022453659482 L 450.24667679105227 146.74747931324214 L 450.72622838335906 145.04711762656368 L 451.33771051849607 143.38962277178547 L 452.0773532057617 141.7852137558602 L 452.94059630203293 140.24378229389114 L 453.9221176265637 138.77483182341936 L 455.0158657739993 137.38741891257087 L 456.21509742330267 136.0900974233027 L 457.51241891257087 134.8908657739993 L 458.89983182341933 133.79711762656368 L 460.3687822938912 132.81559630203293 L 461.91021375586024 131.9523532057617 L 463.5146227717855 131.21271051849604 L 465.1721176265637 130.60122838335903 L 466.8724793132422 130.12167679105227 L 468.60522453659485 129.7770123366094 L 470.35967034612355 129.5693599910046 L 472.12500000000006 129.5 L 473.8903296538766 129.56935999100463 L 475.64477546340527 129.7770123366094 L 477.377520686758 130.1216767910523 L 479.0778823734364 130.60122838335909 L 480.73537722821465 131.2127105184961 L 482.33978624413993 131.9523532057618 L 483.881217706109 132.815596302033 L 485.3501681765808 133.79711762656376 L 486.73758108742925 134.89086577399942 L 488.03490257669745 136.0900974233028 L 489.23413422600083 137.387418912571 L 490.3278823734364 138.7748318234195 L 491.3094036979672 140.24378229389131 L 492.1726467942384 141.78521375586038 L 492.91228948150405 143.3896227717857 L 493.52377161664106 145.0471176265639 L 494.0033232089478 146.74747931324237 L 494.34798766339065 148.48022453659505 L 494.5556400089954 150.23467034612375 Z" fill-opacity="1" stroke-opacity="1" stroke-miterlimit="10" stroke-width="2"/><text fill="rgb(255,255,255)" stroke="none" font-family="times new roman" font-size="15px" font-style="normal" font-weight="normal" text-decoration="normal" x="472.125" y="159.5" text-anchor="middle" dominant-baseline="text-after-edge" fill-opacity="1">*34</text><path fill="rgb(69,90,100)" stroke="rgb(76,175,80)" paint-order="fill stroke markers" d=" M 419.125 152 L 419.07105334032974 153.37303417523728 L 418.9095459604149 154.73760313820404 L 418.6414736069593 156.08529386747836 L 418.2684890351652 157.40779740156157 L 417.7928918189475 158.69696006638907 L 417.21761417329645 159.94483374544205 L 416.5462028761966 161.1437248825291 L 415.7827974015616 162.28624191511827 L 414.93210439800055 163.3653408457782 L 413.99936867076457 164.37436867076457 L 412.99034084577823 165.30710439800055 L 411.9112419151183 166.1577974015616 L 410.7687248825291 166.92120287619662 L 409.56983374544205 167.59261417329643 L 408.32196006638907 168.1678918189475 L 407.0327974015616 168.64348903516517 L 405.71029386747836 169.01647360695935 L 404.36260313820407 169.2845459604149 L 402.9980341752373 169.44605334032974 L 401.625 169.5 L 400.2519658247627 169.44605334032974 L 398.88739686179593 169.2845459604149 L 397.53970613252164 169.01647360695935 L 396.2172025984384 168.6434890351652 L 394.92803993361093 168.1678918189475 L 393.68016625455795 167.59261417329643 L 392.4812751174709 166.92120287619662 L 391.3387580848817 166.1577974015616 L 390.25965915422177 165.30710439800055 L 389.25063132923543 164.37436867076457 L 388.31789560199945 163.3653408457782 L 387.4672025984384 162.2862419151183 L 386.7037971238034 161.1437248825291 L 386.03238582670355 159.94483374544208 L 385.4571081810525 158.69696006638907 L 384.9815109648348 157.4077974015616 L 384.6085263930407 156.08529386747836 L 384.3404540395851 154.73760313820404 L 384.17894665967026 153.37303417523728 L 384.125 152 L 384.17894665967026 150.62696582476272 L 384.3404540395851 149.26239686179596 L 384.6085263930407 147.91470613252164 L 384.9815109648348 146.59220259843843 L 385.4571081810525 145.30303993361093 L 386.03238582670355 144.05516625455795 L 386.7037971238034 142.8562751174709 L 387.4672025984384 141.71375808488173 L 388.31789560199945 140.6346591542218 L 389.25063132923543 139.62563132923543 L 390.25965915422177 138.69289560199945 L 391.3387580848817 137.84220259843843 L 392.4812751174709 137.07879712380338 L 393.68016625455795 136.40738582670355 L 394.92803993361093 135.8321081810525 L 396.21720259843846 135.3565109648348 L 397.5397061325217 134.98352639304065 L 398.887396861796 134.7154540395851 L 400.25196582476275 134.55394665967026 L 401.62500000000006 134.5 L 402.99803417523736 134.55394665967026 L 404.3626031382041 134.7154540395851 L 405.7102938674784 134.98352639304068 L 407.03279740156165 135.35651096483485 L 408.3219600663892 135.83210818105252 L 409.56983374544217 136.4073858267036 L 410.7687248825292 137.07879712380344 L 411.91124191511835 137.8422025984385 L 412.9903408457783 138.69289560199954 L 413.9993686707647 139.62563132923552 L 414.93210439800066 140.6346591542219 L 415.78279740156165 141.71375808488185 L 416.5462028761967 142.85627511747103 L 417.2176141732965 144.0551662545581 L 417.79289181894757 145.3030399336111 L 418.26848903516526 146.5922025984386 L 418.6414736069594 147.91470613252184 L 418.90954596041496 149.26239686179616 L 419.07105334032974 150.62696582476292 Z" fill-opacity="1" stroke-opacity="1" stroke-miterlimit="10" stroke-width="2"/><text fill="rgb(255,255,255)" stroke="none" font-family="times new roman" font-size="10px" font-style="normal" font-weight="normal" text-decoration="normal" x="401.625" y="157" text-anchor="middle" dominant-baseline="text-after-edge" fill-opacity="1">*2.4</text><path fill="rgb(69,90,100)" stroke="rgb(76,175,80)" paint-order="fill stroke markers" d=" M 263.375 142 L 263.375 162 L 358.375 162 L 358.375 142 Z" fill-opacity="1" stroke-opacity="1" stroke-miterlimit="10" stroke-width="6"/><text fill="rgb(255,255,255)" stroke="none" font-family="times new roman" font-size="10px" font-style="normal" font-weight="normal" text-decoration="normal" x="310.875" y="157" text-anchor="middle" dominant-baseline="text-after-edge" fill-opacity="1">42129950A&gt;C</text><path fill="rgb(69,90,100)" stroke="rgb(76,175,80)" paint-order="fill stroke markers" d=" M 494.625 288.875 L 494.5556400089954 290.6403296538765 L 494.3479876633906 292.3947754634052 L 494.00332320894773 294.12752068675786 L 493.52377161664094 295.8278823734363 L 492.91228948150393 297.48537722821453 L 492.1726467942383 299.0897862441398 L 491.30940369796707 300.6312177061088 L 490.3278823734363 302.10016817658067 L 489.2341342260007 303.48758108742913 L 488.03490257669733 304.78490257669733 L 486.73758108742913 305.9841342260007 L 485.35016817658067 307.0778823734363 L 483.8812177061088 308.05940369796707 L 482.3397862441398 308.9226467942383 L 480.73537722821453 309.66228948150393 L 479.0778823734363 310.27377161664094 L 477.37752068675786 310.75332320894773 L 475.6447754634052 311.0979876633906 L 473.8903296538765 311.3056400089954 L 472.125 311.375 L 470.3596703461235 311.3056400089954 L 468.6052245365948 311.0979876633906 L 466.87247931324214 310.75332320894773 L 465.1721176265637 310.27377161664094 L 463.51462277178547 309.66228948150393 L 461.9102137558602 308.9226467942383 L 460.3687822938912 308.05940369796707 L 458.89983182341933 307.0778823734363 L 457.51241891257087 305.9841342260007 L 456.21509742330267 304.78490257669733 L 455.0158657739993 303.48758108742913 L 453.9221176265637 302.10016817658067 L 452.94059630203293 300.6312177061088 L 452.0773532057617 299.0897862441398 L 451.33771051849607 297.48537722821453 L 450.72622838335906 295.8278823734363 L 450.24667679105227 294.12752068675786 L 449.9020123366094 292.3947754634052 L 449.6943599910046 290.6403296538765 L 449.625 288.875 L 449.6943599910046 287.1096703461235 L 449.9020123366094 285.3552245365948 L 450.24667679105227 283.62247931324214 L 450.72622838335906 281.9221176265637 L 451.33771051849607 280.26462277178547 L 452.0773532057617 278.6602137558602 L 452.94059630203293 277.1187822938912 L 453.9221176265637 275.64983182341933 L 455.0158657739993 274.26241891257087 L 456.21509742330267 272.96509742330267 L 457.51241891257087 271.76586577399934 L 458.89983182341933 270.6721176265637 L 460.3687822938912 269.69059630203293 L 461.91021375586024 268.8273532057617 L 463.5146227717855 268.087710518496 L 465.1721176265637 267.47622838335906 L 466.8724793132422 266.99667679105227 L 468.60522453659485 266.6520123366094 L 470.35967034612355 266.4443599910046 L 472.12500000000006 266.375 L 473.8903296538766 266.4443599910046 L 475.64477546340527 266.6520123366094 L 477.377520686758 266.9966767910523 L 479.0778823734364 267.47622838335906 L 480.73537722821465 268.0877105184961 L 482.33978624413993 268.82735320576177 L 483.881217706109 269.690596302033 L 485.3501681765808 270.67211762656376 L 486.73758108742925 271.7658657739994 L 488.03490257669745 272.9650974233028 L 489.23413422600083 274.262418912571 L 490.3278823734364 275.6498318234195 L 491.3094036979672 277.11878229389134 L 492.1726467942384 278.6602137558604 L 492.91228948150405 280.2646227717857 L 493.52377161664106 281.92211762656393 L 494.0033232089478 283.62247931324237 L 494.34798766339065 285.3552245365951 L 494.5556400089954 287.1096703461238 Z" fill-opacity="1" stroke-opacity="1" stroke-miterlimit="10" stroke-width="2"/><text fill="rgb(255,255,255)" stroke="none" font-family="times new roman" font-size="15px" font-style="normal" font-weight="normal" text-decoration="normal" x="472.125" y="296.375" text-anchor="middle" dominant-baseline="text-after-edge" fill-opacity="1">*2</text><path fill="rgb(3,169,244)" stroke="none" paint-order="stroke fill markers" d=" M 472.125 256.375 L 496.625 256.375 L 496.625 256.375 A 8 8 0 0 1 504.625 264.375 L 504.625 313.375 L 504.625 313.375 A 8 8 0 0 1 496.625 321.375 L 447.625 321.375 L 447.625 321.375 A 8 8 0 0 1 439.625 313.375 L 439.625 264.375 L 439.625 264.375 A 8 8 0 0 1 447.625 256.375 L 472.125 256.375 Z" fill-opacity="0.15"/><path fill="rgb(69,90,100)" stroke="rgb(76,175,80)" paint-order="fill stroke markers" d=" M 271 288.875 L 270.94605334032974 290.2480341752373 L 270.7845459604149 291.61260313820407 L 270.5164736069593 292.96029386747836 L 270.1434890351652 294.2827974015616 L 269.6678918189475 295.57196006638907 L 269.09261417329645 296.81983374544205 L 268.4212028761966 298.0187248825291 L 267.6577974015616 299.1612419151183 L 266.80710439800055 300.24034084577823 L 265.87436867076457 301.24936867076457 L 264.86534084577823 302.18210439800055 L 263.7862419151183 303.0327974015616 L 262.6437248825291 303.7962028761966 L 261.44483374544205 304.46761417329645 L 260.19696006638907 305.0428918189475 L 258.9077974015616 305.5184890351652 L 257.58529386747836 305.8914736069593 L 256.23760313820407 306.1595459604149 L 254.87303417523728 306.32105334032974 L 253.5 306.375 L 252.12696582476272 306.32105334032974 L 250.76239686179596 306.1595459604149 L 249.41470613252164 305.8914736069593 L 248.09220259843843 305.5184890351652 L 246.80303993361093 305.0428918189475 L 245.55516625455795 304.46761417329645 L 244.3562751174709 303.7962028761966 L 243.21375808488173 303.0327974015616 L 242.1346591542218 302.18210439800055 L 241.12563132923543 301.24936867076457 L 240.19289560199945 300.24034084577823 L 239.34220259843843 299.1612419151183 L 238.57879712380338 298.0187248825291 L 237.90738582670357 296.81983374544205 L 237.3321081810525 295.57196006638907 L 236.85651096483483 294.2827974015616 L 236.48352639304065 292.96029386747836 L 236.2154540395851 291.61260313820407 L 236.05394665967026 290.2480341752373 L 236 288.875 L 236.05394665967026 287.5019658247627 L 236.2154540395851 286.13739686179593 L 236.48352639304065 284.78970613252164 L 236.8565109648348 283.4672025984384 L 237.3321081810525 282.17803993361093 L 237.90738582670357 280.93016625455795 L 238.57879712380338 279.7312751174709 L 239.3422025984384 278.5887580848817 L 240.19289560199945 277.50965915422177 L 241.1256313292354 276.50063132923543 L 242.13465915422177 275.56789560199945 L 243.2137580848817 274.7172025984384 L 244.3562751174709 273.9537971238034 L 245.55516625455795 273.28238582670355 L 246.80303993361096 272.7071081810525 L 248.09220259843843 272.2315109648348 L 249.4147061325217 271.8585263930407 L 250.762396861796 271.5904540395851 L 252.12696582476278 271.42894665967026 L 253.50000000000006 271.375 L 254.87303417523736 271.42894665967026 L 256.2376031382041 271.5904540395851 L 257.5852938674784 271.8585263930407 L 258.90779740156165 272.23151096483485 L 260.1969600663892 272.7071081810525 L 261.44483374544217 273.2823858267036 L 262.6437248825292 273.95379712380344 L 263.78624191511835 274.7172025984385 L 264.8653408457783 275.56789560199957 L 265.8743686707647 276.5006313292355 L 266.80710439800066 277.5096591542219 L 267.65779740156165 278.5887580848818 L 268.4212028761967 279.73127511747106 L 269.0926141732965 280.93016625455806 L 269.66789181894757 282.1780399336111 L 270.14348903516526 283.4672025984386 L 270.5164736069594 284.7897061325218 L 270.78454596041496 286.13739686179616 L 270.94605334032974 287.5019658247629 Z" fill-opacity="1" stroke-opacity="1" stroke-miterlimit="10" stroke-width="6"/><text fill="rgb(255,255,255)" stroke="none" font-family="times new roman" font-size="10px" font-style="normal" font-weight="normal" text-decoration="normal" x="253.5" y="293.875" text-anchor="middle" dominant-baseline="text-after-edge" fill-opacity="1">*1.58</text><path fill="rgb(69,90,100)" stroke="rgb(76,175,80)" paint-order="fill stroke markers" d=" M 445 78.5 L 444.94605334032974 79.87303417523728 L 444.7845459604149 81.23760313820404 L 444.5164736069593 82.58529386747834 L 444.1434890351652 83.90779740156158 L 443.6678918189475 85.19696006638907 L 443.09261417329645 86.44483374544207 L 442.4212028761966 87.6437248825291 L 441.6577974015616 88.78624191511828 L 440.80710439800055 89.8653408457782 L 439.87436867076457 90.87436867076458 L 438.86534084577823 91.80710439800055 L 437.7862419151183 92.65779740156158 L 436.6437248825291 93.42120287619662 L 435.44483374544205 94.09261417329644 L 434.19696006638907 94.66789181894751 L 432.9077974015616 95.14348903516519 L 431.58529386747836 95.51647360695934 L 430.23760313820407 95.7845459604149 L 428.8730341752373 95.94605334032974 L 427.5 96 L 426.1269658247627 95.94605334032974 L 424.76239686179593 95.7845459604149 L 423.41470613252164 95.51647360695934 L 422.0922025984384 95.14348903516519 L 420.80303993361093 94.66789181894751 L 419.55516625455795 94.09261417329644 L 418.3562751174709 93.42120287619662 L 417.2137580848817 92.65779740156158 L 416.13465915422177 91.80710439800055 L 415.12563132923543 90.87436867076458 L 414.19289560199945 89.86534084577822 L 413.3422025984384 88.78624191511828 L 412.5787971238034 87.64372488252911 L 411.90738582670355 86.44483374544207 L 411.3321081810525 85.19696006638907 L 410.8565109648348 83.90779740156158 L 410.4835263930407 82.58529386747834 L 410.2154540395851 81.23760313820404 L 410.05394665967026 79.8730341752373 L 410 78.5 L 410.05394665967026 77.12696582476272 L 410.2154540395851 75.76239686179596 L 410.4835263930407 74.41470613252166 L 410.8565109648348 73.09220259843842 L 411.3321081810525 71.80303993361093 L 411.90738582670355 70.55516625455793 L 412.5787971238034 69.3562751174709 L 413.3422025984384 68.21375808488172 L 414.19289560199945 67.1346591542218 L 415.12563132923543 66.12563132923542 L 416.13465915422177 65.19289560199947 L 417.2137580848817 64.34220259843842 L 418.3562751174709 63.57879712380338 L 419.55516625455795 62.90738582670356 L 420.80303993361093 62.332108181052476 L 422.09220259843846 61.856510964834804 L 423.4147061325217 61.48352639304065 L 424.762396861796 61.21545403958508 L 426.12696582476275 61.05394665967026 L 427.50000000000006 61 L 428.87303417523736 61.05394665967027 L 430.2376031382041 61.2154540395851 L 431.5852938674784 61.48352639304068 L 432.90779740156165 61.85651096483484 L 434.1969600663892 62.33210818105252 L 435.44483374544217 62.90738582670361 L 436.6437248825292 63.57879712380345 L 437.78624191511835 64.34220259843849 L 438.8653408457783 65.19289560199954 L 439.8743686707647 66.12563132923552 L 440.80710439800066 67.1346591542219 L 441.65779740156165 68.21375808488185 L 442.4212028761967 69.35627511747103 L 443.0926141732965 70.55516625455807 L 443.66789181894757 71.80303993361109 L 444.14348903516526 73.09220259843859 L 444.5164736069594 74.41470613252184 L 444.78454596041496 75.76239686179616 L 444.94605334032974 77.12696582476292 Z" fill-opacity="1" stroke-opacity="1" stroke-miterlimit="10" stroke-width="2"/><text fill="rgb(255,255,255)" stroke="none" font-family="times new roman" font-size="10px" font-style="normal" font-weight="normal" text-decoration="normal" x="427.5" y="83.5" text-anchor="middle" dominant-baseline="text-after-edge" fill-opacity="1">*34.1</text><path fill="rgb(69,90,100)" stroke="rgb(76,175,80)" paint-order="fill stroke markers" d=" M 740.125 78.5 L 740.0710533403297 79.87303417523728 L 739.9095459604149 81.23760313820404 L 739.6414736069594 82.58529386747834 L 739.2684890351652 83.90779740156158 L 738.7928918189475 85.19696006638907 L 738.2176141732964 86.44483374544207 L 737.5462028761966 87.6437248825291 L 736.7827974015615 88.78624191511828 L 735.9321043980005 89.8653408457782 L 734.9993686707646 90.87436867076458 L 733.9903408457782 91.80710439800055 L 732.9112419151182 92.65779740156158 L 731.7687248825291 93.42120287619662 L 730.5698337454421 94.09261417329644 L 729.3219600663891 94.66789181894751 L 728.0327974015615 95.14348903516519 L 726.7102938674783 95.51647360695934 L 725.362603138204 95.7845459604149 L 723.9980341752373 95.94605334032974 L 722.625 96 L 721.2519658247627 95.94605334032974 L 719.887396861796 95.7845459604149 L 718.5397061325217 95.51647360695934 L 717.2172025984385 95.14348903516519 L 715.9280399336109 94.66789181894751 L 714.6801662545579 94.09261417329644 L 713.4812751174709 93.42120287619662 L 712.3387580848818 92.65779740156158 L 711.2596591542218 91.80710439800055 L 710.2506313292354 90.87436867076458 L 709.3178956019995 89.86534084577822 L 708.4672025984385 88.78624191511828 L 707.7037971238034 87.64372488252911 L 707.0323858267036 86.44483374544207 L 706.4571081810525 85.19696006638907 L 705.9815109648348 83.90779740156158 L 705.6085263930406 82.58529386747834 L 705.3404540395851 81.23760313820404 L 705.1789466596703 79.8730341752373 L 705.125 78.5 L 705.1789466596703 77.12696582476272 L 705.3404540395851 75.76239686179596 L 705.6085263930406 74.41470613252166 L 705.9815109648348 73.09220259843842 L 706.4571081810525 71.80303993361093 L 707.0323858267036 70.55516625455793 L 707.7037971238034 69.3562751174709 L 708.4672025984385 68.21375808488172 L 709.3178956019995 67.1346591542218 L 710.2506313292354 66.12563132923542 L 711.2596591542218 65.19289560199947 L 712.3387580848818 64.34220259843842 L 713.4812751174709 63.57879712380338 L 714.6801662545579 62.90738582670356 L 715.928039933611 62.332108181052476 L 717.2172025984385 61.856510964834804 L 718.5397061325217 61.48352639304065 L 719.887396861796 61.21545403958508 L 721.2519658247628 61.05394665967026 L 722.6250000000001 61 L 723.9980341752373 61.05394665967027 L 725.3626031382041 61.2154540395851 L 726.7102938674784 61.48352639304068 L 728.0327974015617 61.85651096483484 L 729.3219600663891 62.33210818105252 L 730.5698337454421 62.90738582670361 L 731.7687248825292 63.57879712380345 L 732.9112419151184 64.34220259843849 L 733.9903408457783 65.19289560199954 L 734.9993686707646 66.12563132923552 L 735.9321043980007 67.1346591542219 L 736.7827974015617 68.21375808488185 L 737.5462028761967 69.35627511747103 L 738.2176141732965 70.55516625455807 L 738.7928918189476 71.80303993361109 L 739.2684890351652 73.09220259843859 L 739.6414736069594 74.41470613252184 L 739.9095459604149 75.76239686179616 L 740.0710533403297 77.12696582476292 Z" fill-opacity="1" stroke-opacity="1" stroke-miterlimit="10" stroke-width="6"/><text fill="rgb(255,255,255)" stroke="none" font-family="times new roman" font-size="10px" font-style="normal" font-weight="normal" text-decoration="normal" x="722.625" y="83.5" text-anchor="middle" dominant-baseline="text-after-edge" fill-opacity="1">*39.2</text><path fill="rgb(69,90,100)" stroke="rgb(255,193,7)" paint-order="fill stroke markers" d=" M 582.5 68.5 L 582.5 88.5 L 677.5 88.5 L 677.5 68.5 Z" fill-opacity="1" stroke-opacity="1" stroke-miterlimit="10" stroke-width="6"/><text fill="rgb(255,255,255)" stroke="none" font-family="times new roman" font-size="10px" font-style="normal" font-weight="normal" text-decoration="normal" x="630" y="83.5" text-anchor="middle" dominant-baseline="text-after-edge" fill-opacity="1">42126611C&gt;G</text><path fill="rgb(69,90,100)" stroke="rgb(76,175,80)" paint-order="fill stroke markers" d=" M 723.125 142 L 723.125 162 L 818.125 162 L 818.125 142 Z" fill-opacity="1" stroke-opacity="1" stroke-miterlimit="10" stroke-width="2"/><text fill="rgb(255,255,255)" stroke="none" font-family="times new roman" font-size="10px" font-style="normal" font-weight="normal" text-decoration="normal" x="770.625" y="157" text-anchor="middle" dominant-baseline="text-after-edge" fill-opacity="1">42130047G&gt;C</text><path fill="rgb(69,90,100)" stroke="rgb(69,90,100)" paint-order="fill stroke markers" d=" M 607.5 403 L 588.75 420.5 L 607.5 438 L 645 438 L 663.75 420.5 L 645 403 Z" fill-opacity="1" stroke-opacity="1" stroke-miterlimit="10" stroke-width="2"/><text fill="rgb(255,255,255)" stroke="none" font-family="times new roman" font-size="10px" font-style="normal" font-weight="normal" text-decoration="normal" x="626.25" y="425.5" text-anchor="middle" dominant-baseline="text-after-edge" fill-opacity="1">NA18564-A</text><path fill="rgb(69,90,100)" stroke="rgb(76,175,80)" paint-order="fill stroke markers" d=" M 1063.875 142 L 1106.375 142 L 1106.375 142 A 5 5 0 0 1 1111.375 147 L 1111.375 157 L 1111.375 157 A 5 5 0 0 1 1106.375 162 L 1021.375 162 L 1021.375 162 A 5 5 0 0 1 1016.375 157 L 1016.375 147 L 1016.375 147 A 5 5 0 0 1 1021.375 142 L 1063.875 142 Z" fill-opacity="1" stroke-opacity="1" stroke-miterlimit="10" stroke-width="2"/><text fill="rgb(255,255,255)" stroke="none" font-family="times new roman" font-size="10px" font-style="normal" font-weight="normal" text-decoration="normal" x="1063.875" y="157" text-anchor="middle" dominant-baseline="text-after-edge" fill-opacity="1">42132025_4213202…</text><path fill="rgb(69,90,100)" stroke="rgb(76,175,80)" paint-order="fill stroke markers" d=" M 813.875 68.5 L 813.875 88.5 L 908.875 88.5 L 908.875 68.5 Z" fill-opacity="1" stroke-opacity="1" stroke-miterlimit="10" stroke-width="6"/><text fill="rgb(255,255,255)" stroke="none" font-family="times new roman" font-size="10px" font-style="normal" font-weight="normal" text-decoration="normal" x="861.375" y="83.5" text-anchor="middle" dominant-baseline="text-after-edge" fill-opacity="1">42127407T&gt;G</text><path fill="rgb(69,90,100)" stroke="rgb(76,175,80)" paint-order="fill stroke markers" d=" M 952.125 142 L 994.625 142 L 994.625 142 A 5 5 0 0 1 999.625 147 L 999.625 157 L 999.625 157 A 5 5 0 0 1 994.625 162 L 909.625 162 L 909.625 162 A 5 5 0 0 1 904.625 157 L 904.625 147 L 904.625 147 A 5 5 0 0 1 909.625 142 L 952.125 142 Z" fill-opacity="1" stroke-opacity="1" stroke-miterlimit="10" stroke-width="2"/><text fill="rgb(255,255,255)" stroke="none" font-family="times new roman" font-size="10px" font-style="normal" font-weight="normal" text-decoration="normal" x="952.125" y="157" text-anchor="middle" dominant-baseline="text-after-edge" fill-opacity="1">42132049dup</text><path fill="rgb(69,90,100)" stroke="rgb(76,175,80)" paint-order="fill stroke markers" d=" M 878.875 152 L 878.8210533403297 153.37303417523728 L 878.6595459604149 154.73760313820404 L 878.3914736069594 156.08529386747836 L 878.0184890351652 157.40779740156157 L 877.5428918189475 158.69696006638907 L 876.9676141732964 159.94483374544205 L 876.2962028761966 161.1437248825291 L 875.5327974015615 162.28624191511827 L 874.6821043980005 163.3653408457782 L 873.7493686707646 164.37436867076457 L 872.7403408457782 165.30710439800055 L 871.6612419151182 166.1577974015616 L 870.5187248825291 166.92120287619662 L 869.3198337454421 167.59261417329643 L 868.0719600663891 168.1678918189475 L 866.7827974015615 168.64348903516517 L 865.4602938674783 169.01647360695935 L 864.112603138204 169.2845459604149 L 862.7480341752373 169.44605334032974 L 861.375 169.5 L 860.0019658247627 169.44605334032974 L 858.637396861796 169.2845459604149 L 857.2897061325217 169.01647360695935 L 855.9672025984385 168.6434890351652 L 854.6780399336109 168.1678918189475 L 853.4301662545579 167.59261417329643 L 852.2312751174709 166.92120287619662 L 851.0887580848818 166.1577974015616 L 850.0096591542218 165.30710439800055 L 849.0006313292354 164.37436867076457 L 848.0678956019995 163.3653408457782 L 847.2172025984385 162.2862419151183 L 846.4537971238034 161.1437248825291 L 845.7823858267036 159.94483374544208 L 845.2071081810525 158.69696006638907 L 844.7315109648348 157.4077974015616 L 844.3585263930406 156.08529386747836 L 844.0904540395851 154.73760313820404 L 843.9289466596703 153.37303417523728 L 843.875 152 L 843.9289466596703 150.62696582476272 L 844.0904540395851 149.26239686179596 L 844.3585263930406 147.91470613252164 L 844.7315109648348 146.59220259843843 L 845.2071081810525 145.30303993361093 L 845.7823858267036 144.05516625455795 L 846.4537971238034 142.8562751174709 L 847.2172025984385 141.71375808488173 L 848.0678956019995 140.6346591542218 L 849.0006313292354 139.62563132923543 L 850.0096591542218 138.69289560199945 L 851.0887580848818 137.84220259843843 L 852.2312751174709 137.07879712380338 L 853.4301662545579 136.40738582670355 L 854.678039933611 135.8321081810525 L 855.9672025984385 135.3565109648348 L 857.2897061325217 134.98352639304065 L 858.637396861796 134.7154540395851 L 860.0019658247628 134.55394665967026 L 861.3750000000001 134.5 L 862.7480341752373 134.55394665967026 L 864.1126031382041 134.7154540395851 L 865.4602938674784 134.98352639304068 L 866.7827974015617 135.35651096483485 L 868.0719600663891 135.83210818105252 L 869.3198337454421 136.4073858267036 L 870.5187248825292 137.07879712380344 L 871.6612419151184 137.8422025984385 L 872.7403408457783 138.69289560199954 L 873.7493686707646 139.62563132923552 L 874.6821043980007 140.6346591542219 L 875.5327974015617 141.71375808488185 L 876.2962028761967 142.85627511747103 L 876.9676141732965 144.0551662545581 L 877.5428918189476 145.3030399336111 L 878.0184890351652 146.5922025984386 L 878.3914736069594 147.91470613252184 L 878.6595459604149 149.26239686179616 L 878.8210533403297 150.62696582476292 Z" fill-opacity="1" stroke-opacity="1" stroke-miterlimit="10" stroke-width="6"/><text fill="rgb(255,255,255)" stroke="none" font-family="times new roman" font-size="10px" font-style="normal" font-weight="normal" text-decoration="normal" x="861.375" y="157" text-anchor="middle" dominant-baseline="text-after-edge" fill-opacity="1">*1.41</text><path fill="rgb(176,190,197)" stroke="none" paint-order="stroke fill markers" d=" M 652.125 183.87500000000003 L 652.125 393.875 L 727.125 393.875 L 727.125 183.87500000000006 Z" fill-opacity="0.8"/><text fill="rgb(0,0,0)" stroke="none" font-family="times new roman" font-size="10px" font-style="normal" font-weight="normal" text-decoration="normal" x="657.125" y="198.875" text-anchor="start" dominant-baseline="text-after-edge" fill-opacity="0.8">42126310C&gt;T </text><text fill="rgb(0,0,0)" stroke="none" font-family="times new roman" font-size="10px" font-style="normal" font-weight="normal" text-decoration="normal" x="657.125" y="208.875" text-anchor="start" dominant-baseline="text-after-edge" fill-opacity="0.8">42127001G&gt;A </text><text fill="rgb(0,0,0)" stroke="none" font-family="times new roman" font-size="10px" font-style="normal" font-weight="normal" text-decoration="normal" x="657.125" y="218.875" text-anchor="start" dominant-baseline="text-after-edge" fill-opacity="0.8">42127207C&gt;T </text><text fill="rgb(0,0,0)" stroke="none" font-family="times new roman" font-size="10px" font-style="normal" font-weight="normal" text-decoration="normal" x="657.125" y="228.875" text-anchor="start" dominant-baseline="text-after-edge" fill-opacity="0.8">42129130C&gt;G </text><text fill="rgb(0,0,0)" stroke="none" font-family="times new roman" font-size="10px" font-style="normal" font-weight="normal" text-decoration="normal" x="657.125" y="238.875" text-anchor="start" dominant-baseline="text-after-edge" fill-opacity="0.8">42131469C&gt;T </text><text fill="rgb(0,0,0)" stroke="none" font-family="times new roman" font-size="10px" font-style="normal" font-weight="normal" text-decoration="normal" x="657.125" y="248.875" text-anchor="start" dominant-baseline="text-after-edge" fill-opacity="0.8">42131531G&gt;A </text><text fill="rgb(0,0,0)" stroke="none" font-family="times new roman" font-size="10px" font-style="normal" font-weight="normal" text-decoration="normal" x="657.125" y="258.875" text-anchor="start" dominant-baseline="text-after-edge" fill-opacity="0.8">42132026T&gt;C </text><text fill="rgb(0,0,0)" stroke="none" font-family="times new roman" font-size="10px" font-style="normal" font-weight="normal" text-decoration="normal" x="657.125" y="268.875" text-anchor="start" dominant-baseline="text-after-edge" fill-opacity="0.8">42132375G&gt;C </text><path fill="rgb(176,190,197)" stroke="none" paint-order="stroke fill markers" d=" M 1008 183.875 L 1075 183.875 L 1075 183.875 A 8 8 0 0 1 1083 191.875 L 1083 385.875 L 1083 385.875 A 8 8 0 0 1 1075 393.875 L 941 393.875 L 941 393.875 A 8 8 0 0 1 933 385.875 L 933 191.875 L 933 191.875 A 8 8 0 0 1 941 183.875 L 1008 183.875 Z" fill-opacity="0.8"/><text fill="rgb(0,0,0)" stroke="none" font-family="times new roman" font-size="10px" font-style="normal" font-weight="normal" text-decoration="normal" x="938" y="198.875" text-anchor="start" dominant-baseline="text-after-edge" fill-opacity="0.8">42125648_42125657dup </text><text fill="rgb(0,0,0)" stroke="none" font-family="times new roman" font-size="10px" font-style="normal" font-weight="normal" text-decoration="normal" x="938" y="208.875" text-anchor="start" dominant-baseline="text-after-edge" fill-opacity="0.8">42125924A&gt;G </text><text fill="rgb(0,0,0)" stroke="none" font-family="times new roman" font-size="10px" font-style="normal" font-weight="normal" text-decoration="normal" x="938" y="218.875" text-anchor="start" dominant-baseline="text-after-edge" fill-opacity="0.8">42126069A&gt;C </text><text fill="rgb(0,0,0)" stroke="none" font-family="times new roman" font-size="10px" font-style="normal" font-weight="normal" text-decoration="normal" x="938" y="228.875" text-anchor="start" dominant-baseline="text-after-edge" fill-opacity="0.8">42126136_42126138del </text><text fill="rgb(0,0,0)" stroke="none" font-family="times new roman" font-size="10px" font-style="normal" font-weight="normal" text-decoration="normal" x="938" y="238.875" text-anchor="start" dominant-baseline="text-after-edge" fill-opacity="0.8">42132025_42132026insCCTTTT </text><text fill="rgb(0,0,0)" stroke="none" font-family="times new roman" font-size="10px" font-style="normal" font-weight="normal" text-decoration="normal" x="938" y="248.875" text-anchor="start" dominant-baseline="text-after-edge" fill-opacity="0.8">42132027C&gt;T </text><text fill="rgb(0,0,0)" stroke="none" font-family="times new roman" font-size="10px" font-style="normal" font-weight="normal" text-decoration="normal" x="938" y="258.875" text-anchor="start" dominant-baseline="text-after-edge" fill-opacity="0.8">42132561C&gt;T </text><text fill="rgb(0,0,0)" stroke="none" font-family="times new roman" font-size="10px" font-style="normal" font-weight="normal" text-decoration="normal" x="938" y="268.875" text-anchor="start" dominant-baseline="text-after-edge" fill-opacity="0.8">42132844C&gt;A </text><text fill="rgb(0,0,0)" stroke="none" font-family="times new roman" font-size="10px" font-style="normal" font-weight="normal" text-decoration="normal" x="938" y="278.875" text-anchor="start" dominant-baseline="text-after-edge" fill-opacity="0.8">42132851T&gt;C </text><text fill="rgb(0,0,0)" stroke="none" font-family="times new roman" font-size="10px" font-style="normal" font-weight="normal" text-decoration="normal" x="938" y="288.875" text-anchor="start" dominant-baseline="text-after-edge" fill-opacity="0.8">42133400T&gt;G </text><text fill="rgb(0,0,0)" stroke="none" font-family="times new roman" font-size="10px" font-style="normal" font-weight="normal" text-decoration="normal" x="938" y="298.875" text-anchor="start" dominant-baseline="text-after-edge" fill-opacity="0.8">42133533A&gt;C </text><text fill="rgb(0,0,0)" stroke="none" font-family="times new roman" font-size="10px" font-style="normal" font-weight="normal" text-decoration="normal" x="938" y="308.875" text-anchor="start" dominant-baseline="text-after-edge" fill-opacity="0.8">42134096del </text><text fill="rgb(0,0,0)" stroke="none" font-family="times new roman" font-size="10px" font-style="normal" font-weight="normal" text-decoration="normal" x="938" y="318.875" text-anchor="start" dominant-baseline="text-after-edge" fill-opacity="0.8">42134820T&gt;G </text><text fill="rgb(0,0,0)" stroke="none" font-family="times new roman" font-size="10px" font-style="normal" font-weight="normal" text-decoration="normal" x="938" y="328.875" text-anchor="start" dominant-baseline="text-after-edge" fill-opacity="0.8">42135064_42135066dup </text><text fill="rgb(0,0,0)" stroke="none" font-family="times new roman" font-size="10px" font-style="normal" font-weight="normal" text-decoration="normal" x="938" y="338.875" text-anchor="start" dominant-baseline="text-after-edge" fill-opacity="0.8">42135201T&gt;C </text><text fill="rgb(0,0,0)" stroke="none" font-family="times new roman" font-size="10px" font-style="normal" font-weight="normal" text-decoration="normal" x="938" y="348.875" text-anchor="start" dominant-baseline="text-after-edge" fill-opacity="0.8">42135691T&gt;C </text><g transform="scale(1.0122779519331244,1.0122779519331244) translate(112.8708387096774,-58.514064516129025)"/></g></svg>