<svg version="1.1" xmlns="http://www.w3.org/2000/svg" xmlns:xlink="http://www.w3.org/1999/xlink" width="1017" height="608"><defs/><g transform="translate(-118.05816238791306,70.3043852106621) scale(0.9404250092126274,0.9404250092126274)"><path fill="none" stroke="rgb(120,144,156)" paint-order="fill stroke markers" d=" M 456.4853445619404 296.20812099336274 L 839.187066940008 411.1168502959306" stroke-opacity="1" stroke-linejoin="round" stroke-miterlimit="10"/><path fill="rgb(120,144,156)" stroke="none" paint-order="stroke fill markers" d=" M 831.5191400817284 413.35635865628 L 841.1025841605524 411.69199704050806 L 834.0210284206405 405.0238587469121 Z" fill-opacity="1"/><path fill="none" stroke="rgb(120,144,156)" paint-order="fill stroke markers" d=" M 1014.2618150684932 165 L 1057.4892691510763 268.12431856302476" stroke-opacity="1" stroke-linejoin="round" stroke-miterlimit="10"/><path fill="rgb(120,144,156)" stroke="none" paint-order="stroke fill markers" d=" M 1050.887330887137 263.62688472147295 L 1058.262445226536 269.9688235796448 L 1058.9109277094342 260.2635687932224 Z" fill-opacity="1"/><path fill="none" stroke="rgb(120,144,156)" paint-order="fill stroke markers" d=" M 246.33298562831993 166.064723286842 L 409.12374098906673 273.70716116124885" stroke-opacity="1" stroke-linejoin="round" stroke-miterlimit="10"/><path fill="rgb(120,144,156)" stroke="none" paint-order="stroke fill markers" d=" M 401.1357488319096 273.6402186695371 L 410.79201437168007 274.81027671315803 L 405.93430148271455 266.38322945516916 Z" fill-opacity="1"/><path fill="none" stroke="rgb(55,71,79)" paint-order="fill stroke markers" d=" M 394.09566326530614 91.5 L 418.5079273259076 130.40084354372266" stroke-opacity="1" stroke-linejoin="round" stroke-miterlimit="10" stroke-width="2"/><path fill="none" stroke="rgb(120,144,156)" paint-order="fill stroke markers" d=" M 828.6933219178082 165 L 863.2523142600123 267.553107356947" stroke-opacity="1" stroke-linejoin="round" stroke-miterlimit="10"/><path fill="rgb(120,144,156)" stroke="none" paint-order="stroke fill markers" d=" M 856.9904930397813 262.5930574574133 L 863.8909974369001 269.4483867029962 L 865.234958195095 259.8147856379514 Z" fill-opacity="1"/><path fill="none" stroke="rgb(120,144,156)" paint-order="fill stroke markers" d=" M 727.9375 334.2629310344828 L 845.102544407416 405.16798377069483" stroke-opacity="1" stroke-linejoin="round" stroke-miterlimit="10"/><path fill="rgb(120,144,156)" stroke="none" paint-order="stroke fill markers" d=" M 837.1182689869354 405.420661450573 L 846.8136133429597 406.2034754885842 L 841.6226579597541 397.97751158095804 Z" fill-opacity="1"/><path fill="none" stroke="rgb(55,71,79)" paint-order="fill stroke markers" d=" M 916.5625 91.5 L 916.5625 131.5" stroke-opacity="1" stroke-linejoin="round" stroke-miterlimit="10" stroke-width="2"/><path fill="none" stroke="rgb(120,144,156)" paint-order="fill stroke markers" d=" M 600.8631849315068 163 L 608.7345893236898 182.02690465660112" stroke-opacity="1" stroke-linejoin="round" stroke-miterlimit="10"/><path fill="rgb(120,144,156)" stroke="none" paint-order="stroke fill markers" d=" M 602.153724336843 177.49869131965542 L 609.4991438356165 183.875 L 610.192939080628 174.17287919277442 Z" fill-opacity="1"/><path fill="none" stroke="rgb(120,144,156)" paint-order="fill stroke markers" d=" M 870.4375 309.375 L 870.4375 400" stroke-opacity="1" stroke-linejoin="round" stroke-miterlimit="10"/><path fill="rgb(120,144,156)" stroke="none" paint-order="stroke fill markers" d=" M 866.0875 393.3 L 870.4375 402 L 874.7875 393.3 Z" fill-opacity="1"/><path fill="none" stroke="rgb(120,144,156)" paint-order="fill stroke markers" d=" M 432.0625 177.5 L 432.0625 261.375" stroke-opacity="1" stroke-linejoin="round" stroke-miterlimit="10"/><path fill="rgb(120,144,156)" stroke="none" paint-order="stroke fill markers" d=" M 427.7125 254.675 L 432.0625 263.375 L 436.4125 254.675 Z" fill-opacity="1"/><path fill="none" stroke="rgb(120,144,156)" paint-order="fill stroke markers" d=" M 910.0159974369001 171.42661329700383 L 877.6226857399877 267.553107356947" stroke-opacity="1" stroke-linejoin="round" stroke-miterlimit="10"/><path fill="rgb(120,144,156)" stroke="none" paint-order="stroke fill markers" d=" M 875.640041804905 259.8147856379514 L 876.9840025630999 269.4483867029962 L 883.8845069602188 262.5930574574133 Z" fill-opacity="1"/><path fill="none" stroke="rgb(120,144,156)" paint-order="fill stroke markers" d=" M 925.1875 342.3810975609756 L 884.551175951988 400.362194068505" stroke-opacity="1" stroke-linejoin="round" stroke-miterlimit="10"/><path fill="rgb(120,144,156)" stroke="none" paint-order="stroke fill markers" d=" M 884.8342924046759 392.378940028064 L 883.403311965812 402 L 891.9587482066792 397.3721483679295 Z" fill-opacity="1"/><path fill="none" stroke="rgb(55,71,79)" paint-order="fill stroke markers" d=" M 189.83431332623115 95.86402773936021 L 211.5079273259076 130.40084354372266" stroke-opacity="1" stroke-linejoin="round" stroke-miterlimit="10" stroke-width="2"/><path fill="none" stroke="rgb(120,144,156)" paint-order="fill stroke markers" d=" M 1049.1757273288001 300.31395058925506 L 894.7485902106208 404.1528876169964" stroke-opacity="1" stroke-linejoin="round" stroke-miterlimit="10"/><path fill="rgb(120,144,156)" stroke="none" paint-order="stroke fill markers" d=" M 897.8812459098295 396.80448858930237 L 893.0889050719671 405.26888279643595 L 902.7358249403915 404.0241189424457 Z" fill-opacity="1"/><path fill="none" stroke="rgb(55,71,79)" paint-order="fill stroke markers" d=" M 495.86411513621783 170.06076773102296 L 444.12634458665593 266.4091669687275" stroke-opacity="1" stroke-linejoin="round" stroke-miterlimit="10" stroke-width="2"/><path fill="none" stroke="rgb(55,71,79)" paint-order="fill stroke markers" d=" M 263.02933673469386 91.5 L 238.6170726740924 130.40084354372266" stroke-opacity="1" stroke-linejoin="round" stroke-miterlimit="10" stroke-width="2"/><path fill="none" stroke="rgb(55,71,79)" paint-order="fill stroke markers" d=" M 608.9912438926908 85.6940080249189 L 455.9407697920186 143.05135587144235" stroke-opacity="1" stroke-linejoin="round" stroke-miterlimit="10" stroke-width="2"/><path fill="none" stroke="rgb(120,144,156)" paint-order="fill stroke markers" d=" M 1118.1131849315068 165 L 1074.8857308489237 268.12431856302476" stroke-opacity="1" stroke-linejoin="round" stroke-miterlimit="10"/><path fill="rgb(120,144,156)" stroke="none" paint-order="stroke fill markers" d=" M 1073.4640722905658 260.2635687932224 L 1074.112554773464 269.9688235796448 L 1081.487669112863 263.62688472147295 Z" fill-opacity="1"/><path fill="none" stroke="rgb(120,144,156)" paint-order="fill stroke markers" d=" M 704.1844178082192 165 L 697.1404106763102 182.02690465660112" stroke-opacity="1" stroke-linejoin="round" stroke-miterlimit="10"/><path fill="rgb(120,144,156)" stroke="none" paint-order="stroke fill markers" d=" M 695.682060919372 174.17287919277442 L 696.3758561643835 183.875 L 703.721275663157 177.49869131965542 Z" fill-opacity="1"/><path fill="rgb(69,90,100)" stroke="rgb(255,193,7)" paint-order="fill stroke markers" d=" M 223.6875 68.5 L 223.6875 88.5 L 318.6875 88.5 L 318.6875 68.5 Z" fill-opacity="1" stroke-opacity="1" stroke-miterlimit="10" stroke-width="6"/><text fill="rgb(255,255,255)" stroke="none" font-family="times new roman" font-size="10px" font-style="normal" font-weight="normal" text-decoration="normal" x="271.1875" y="83.5" text-anchor="middle" dominant-baseline="text-after-edge" fill-opacity="1">42126611C&gt;G</text><path fill="rgb(69,90,100)" stroke="rgb(76,175,80)" paint-order="fill stroke markers" d=" M 523.0625 152 L 523.0085533403297 153.37303417523728 L 522.8470459604149 154.73760313820404 L 522.5789736069594 156.08529386747836 L 522.2059890351652 157.40779740156157 L 521.7303918189475 158.69696006638907 L 521.1551141732964 159.94483374544205 L 520.4837028761966 161.1437248825291 L 519.7202974015615 162.28624191511827 L 518.8696043980005 163.3653408457782 L 517.9368686707646 164.37436867076457 L 516.9278408457782 165.30710439800055 L 515.8487419151182 166.1577974015616 L 514.7062248825291 166.92120287619662 L 513.5073337454421 167.59261417329643 L 512.2594600663891 168.1678918189475 L 510.9702974015616 168.64348903516517 L 509.64779386747836 169.01647360695935 L 508.30010313820407 169.2845459604149 L 506.9355341752373 169.44605334032974 L 505.5625 169.5 L 504.1894658247627 169.44605334032974 L 502.82489686179593 169.2845459604149 L 501.47720613252164 169.01647360695935 L 500.1547025984384 168.6434890351652 L 498.86553993361093 168.1678918189475 L 497.61766625455795 167.59261417329643 L 496.4187751174709 166.92120287619662 L 495.2762580848817 166.1577974015616 L 494.19715915422177 165.30710439800055 L 493.18813132923543 164.37436867076457 L 492.25539560199945 163.3653408457782 L 491.4047025984384 162.2862419151183 L 490.6412971238034 161.1437248825291 L 489.96988582670355 159.94483374544208 L 489.3946081810525 158.69696006638907 L 488.9190109648348 157.4077974015616 L 488.5460263930407 156.08529386747836 L 488.2779540395851 154.73760313820404 L 488.11644665967026 153.37303417523728 L 488.0625 152 L 488.11644665967026 150.62696582476272 L 488.2779540395851 149.26239686179596 L 488.5460263930407 147.91470613252164 L 488.9190109648348 146.59220259843843 L 489.3946081810525 145.30303993361093 L 489.96988582670355 144.05516625455795 L 490.6412971238034 142.8562751174709 L 491.4047025984384 141.71375808488173 L 492.25539560199945 140.6346591542218 L 493.18813132923543 139.62563132923543 L 494.19715915422177 138.69289560199945 L 495.2762580848817 137.84220259843843 L 496.4187751174709 137.07879712380338 L 497.61766625455795 136.40738582670355 L 498.86553993361093 135.8321081810525 L 500.15470259843846 135.3565109648348 L 501.4772061325217 134.98352639304065 L 502.824896861796 134.7154540395851 L 504.18946582476275 134.55394665967026 L 505.56250000000006 134.5 L 506.93553417523736 134.55394665967026 L 508.3001031382041 134.7154540395851 L 509.6477938674784 134.98352639304068 L 510.97029740156165 135.35651096483485 L 512.2594600663891 135.83210818105252 L 513.5073337454421 136.4073858267036 L 514.7062248825292 137.07879712380344 L 515.8487419151184 137.8422025984385 L 516.9278408457783 138.69289560199954 L 517.9368686707646 139.62563132923552 L 518.8696043980007 140.6346591542219 L 519.7202974015617 141.71375808488185 L 520.4837028761967 142.85627511747103 L 521.1551141732965 144.0551662545581 L 521.7303918189476 145.3030399336111 L 522.2059890351652 146.5922025984386 L 522.5789736069594 147.91470613252184 L 522.8470459604149 149.26239686179616 L 523.0085533403297 150.62696582476292 Z" fill-opacity="1" stroke-opacity="1" stroke-miterlimit="10" stroke-width="6"/><text fill="rgb(255,255,255)" stroke="none" font-family="times new roman" font-size="10px" font-style="normal" font-weight="normal" text-decoration="normal" x="505.5625" y="157" text-anchor="middle" dominant-baseline="text-after-edge" fill-opacity="1">*2.4</text><path fill="rgb(69,90,100)" stroke="rgb(69,90,100)" paint-order="fill stroke markers" d=" M 851.6875 403 L 832.9375 420.5 L 851.6875 438 L 889.1875 438 L 907.9375 420.5 L 889.1875 403 Z" fill-opacity="1" stroke-opacity="1" stroke-miterlimit="10" stroke-width="2"/><text fill="rgb(255,255,255)" stroke="none" font-family="times new roman" font-size="10px" font-style="normal" font-weight="normal" text-decoration="normal" x="870.4375" y="425.5" text-anchor="middle" dominant-baseline="text-after-edge" fill-opacity="1">NA18952-A</text><path fill="rgb(69,90,100)" stroke="rgb(76,175,80)" paint-order="fill stroke markers" d=" M 247.5625 152 L 247.49314000899537 153.7653296538765 L 247.2854876633906 155.51977546340518 L 246.94082320894773 157.25252068675786 L 246.46127161664094 158.95288237343632 L 245.84978948150396 160.61037722821453 L 245.1101467942383 162.21478624413982 L 244.24690369796707 163.75621770610886 L 243.26538237343632 165.22516817658064 L 242.1716342260007 166.61258108742913 L 240.97240257669733 167.9099025766973 L 239.67508108742913 169.1091342260007 L 238.28766817658064 170.20288237343632 L 236.81871770610886 171.18440369796707 L 235.27728624413982 172.0476467942383 L 233.67287722821453 172.78728948150396 L 232.01538237343632 173.39877161664094 L 230.31502068675786 173.87832320894773 L 228.58227546340518 174.2229876633906 L 226.8278296538765 174.43064000899537 L 225.0625 174.5 L 223.2971703461235 174.43064000899537 L 221.54272453659482 174.2229876633906 L 219.80997931324214 173.87832320894773 L 218.10961762656368 173.39877161664094 L 216.45212277178547 172.78728948150396 L 214.8477137558602 172.0476467942383 L 213.30628229389114 171.18440369796707 L 211.83733182341936 170.20288237343632 L 210.44991891257087 169.1091342260007 L 209.1525974233027 167.90990257669733 L 207.9533657739993 166.61258108742913 L 206.85961762656368 165.22516817658064 L 205.87809630203293 163.75621770610886 L 205.0148532057617 162.21478624413982 L 204.27521051849604 160.61037722821453 L 203.66372838335906 158.95288237343632 L 203.18417679105227 157.25252068675786 L 202.8395123366094 155.5197754634052 L 202.63185999100463 153.7653296538765 L 202.5625 152 L 202.63185999100463 150.2346703461235 L 202.8395123366094 148.48022453659482 L 203.18417679105227 146.74747931324214 L 203.66372838335906 145.04711762656368 L 204.27521051849604 143.38962277178547 L 205.0148532057617 141.7852137558602 L 205.87809630203293 140.24378229389114 L 206.85961762656368 138.77483182341936 L 207.9533657739993 137.38741891257087 L 209.15259742330267 136.0900974233027 L 210.44991891257087 134.8908657739993 L 211.83733182341936 133.79711762656368 L 213.30628229389114 132.81559630203293 L 214.8477137558602 131.9523532057617 L 216.4521227717855 131.21271051849604 L 218.1096176265637 130.60122838335903 L 219.80997931324217 130.12167679105227 L 221.54272453659485 129.7770123366094 L 223.29717034612355 129.5693599910046 L 225.06250000000009 129.5 L 226.8278296538766 129.56935999100463 L 228.5822754634053 129.7770123366094 L 230.31502068675798 130.1216767910523 L 232.01538237343644 130.60122838335909 L 233.67287722821465 131.2127105184961 L 235.27728624413993 131.9523532057618 L 236.81871770610897 132.815596302033 L 238.28766817658078 133.79711762656376 L 239.67508108742925 134.89086577399942 L 240.97240257669745 136.0900974233028 L 242.1716342260008 137.387418912571 L 243.26538237343644 138.7748318234195 L 244.24690369796718 140.24378229389131 L 245.11014679423837 141.78521375586038 L 245.84978948150405 143.3896227717857 L 246.46127161664103 145.0471176265639 L 246.9408232089478 146.74747931324237 L 247.28548766339065 148.48022453659505 L 247.4931400089954 150.23467034612375 Z" fill-opacity="1" stroke-opacity="1" stroke-miterlimit="10" stroke-width="6"/><text fill="rgb(255,255,255)" stroke="none" font-family="times new roman" font-size="15px" font-style="normal" font-weight="normal" text-decoration="normal" x="225.0625" y="159.5" text-anchor="middle" dominant-baseline="text-after-edge" fill-opacity="1">*39</text><path fill="rgb(69,90,100)" stroke="rgb(76,175,80)" paint-order="fill stroke markers" d=" M 196.4375 78.5 L 196.38355334032974 79.87303417523728 L 196.2220459604149 81.23760313820404 L 195.95397360695935 82.58529386747834 L 195.58098903516517 83.90779740156158 L 195.1053918189475 85.19696006638907 L 194.53011417329643 86.44483374544207 L 193.85870287619662 87.6437248825291 L 193.0952974015616 88.78624191511828 L 192.24460439800055 89.8653408457782 L 191.31186867076457 90.87436867076458 L 190.3028408457782 91.80710439800055 L 189.22374191511827 92.65779740156158 L 188.0812248825291 93.42120287619662 L 186.88233374544208 94.09261417329644 L 185.63446006638907 94.66789181894751 L 184.3452974015616 95.14348903516519 L 183.02279386747836 95.51647360695934 L 181.67510313820404 95.7845459604149 L 180.31053417523728 95.94605334032974 L 178.9375 96 L 177.56446582476272 95.94605334032974 L 176.19989686179596 95.7845459604149 L 174.85220613252164 95.51647360695934 L 173.52970259843843 95.14348903516519 L 172.24053993361093 94.66789181894751 L 170.99266625455795 94.09261417329644 L 169.7937751174709 93.42120287619662 L 168.65125808488173 92.65779740156158 L 167.5721591542218 91.80710439800055 L 166.56313132923543 90.87436867076458 L 165.63039560199945 89.86534084577822 L 164.77970259843843 88.78624191511828 L 164.01629712380338 87.64372488252911 L 163.34488582670357 86.44483374544207 L 162.7696081810525 85.19696006638907 L 162.29401096483483 83.90779740156158 L 161.92102639304065 82.58529386747834 L 161.6529540395851 81.23760313820404 L 161.49144665967026 79.8730341752373 L 161.4375 78.5 L 161.49144665967026 77.12696582476272 L 161.6529540395851 75.76239686179596 L 161.92102639304065 74.41470613252166 L 162.2940109648348 73.09220259843842 L 162.7696081810525 71.80303993361093 L 163.34488582670357 70.55516625455793 L 164.01629712380338 69.3562751174709 L 164.7797025984384 68.21375808488172 L 165.63039560199945 67.1346591542218 L 166.5631313292354 66.12563132923542 L 167.57215915422177 65.19289560199947 L 168.6512580848817 64.34220259843842 L 169.7937751174709 63.57879712380338 L 170.99266625455795 62.90738582670356 L 172.24053993361096 62.332108181052476 L 173.52970259843843 61.856510964834804 L 174.8522061325217 61.48352639304065 L 176.199896861796 61.21545403958508 L 177.56446582476278 61.05394665967026 L 178.93750000000006 61 L 180.31053417523736 61.05394665967027 L 181.67510313820412 61.2154540395851 L 183.0227938674784 61.48352639304068 L 184.34529740156165 61.85651096483484 L 185.63446006638915 62.33210818105252 L 186.88233374544217 62.90738582670361 L 188.0812248825292 63.57879712380345 L 189.22374191511838 64.34220259843849 L 190.30284084577832 65.19289560199954 L 191.31186867076468 66.12563132923552 L 192.24460439800063 67.1346591542219 L 193.09529740156168 68.21375808488185 L 193.8587028761967 69.35627511747103 L 194.5301141732965 70.55516625455807 L 195.1053918189476 71.80303993361109 L 195.58098903516523 73.09220259843859 L 195.95397360695938 74.41470613252184 L 196.22204596041493 75.76239686179616 L 196.38355334032974 77.12696582476292 Z" fill-opacity="1" stroke-opacity="1" stroke-miterlimit="10" stroke-width="6"/><text fill="rgb(255,255,255)" stroke="none" font-family="times new roman" font-size="10px" font-style="normal" font-weight="normal" text-decoration="normal" x="178.9375" y="83.5" text-anchor="middle" dominant-baseline="text-after-edge" fill-opacity="1">*39.2</text><path fill="rgb(69,90,100)" stroke="rgb(76,175,80)" paint-order="fill stroke markers" d=" M 1083.6875 288.875 L 1083.6335533403299 290.2480341752373 L 1083.472045960415 291.61260313820407 L 1083.2039736069594 292.96029386747836 L 1082.8309890351652 294.2827974015616 L 1082.3553918189475 295.57196006638907 L 1081.7801141732964 296.81983374544205 L 1081.1087028761965 298.0187248825291 L 1080.3452974015615 299.1612419151183 L 1079.4946043980005 300.24034084577823 L 1078.5618686707646 301.24936867076457 L 1077.5528408457783 302.18210439800055 L 1076.4737419151184 303.0327974015616 L 1075.331224882529 303.7962028761966 L 1074.132333745442 304.46761417329645 L 1072.884460066389 305.0428918189475 L 1071.5952974015615 305.5184890351652 L 1070.2727938674784 305.8914736069593 L 1068.9251031382041 306.1595459604149 L 1067.5605341752373 306.32105334032974 L 1066.1875 306.375 L 1064.8144658247627 306.32105334032974 L 1063.4498968617959 306.1595459604149 L 1062.1022061325216 305.8914736069593 L 1060.7797025984385 305.5184890351652 L 1059.490539933611 305.0428918189475 L 1058.242666254558 304.46761417329645 L 1057.043775117471 303.7962028761966 L 1055.9012580848816 303.0327974015616 L 1054.8221591542217 302.18210439800055 L 1053.8131313292354 301.24936867076457 L 1052.8803956019995 300.24034084577823 L 1052.0297025984385 299.1612419151183 L 1051.2662971238035 298.0187248825291 L 1050.5948858267036 296.81983374544205 L 1050.0196081810525 295.57196006638907 L 1049.5440109648348 294.2827974015616 L 1049.1710263930406 292.96029386747836 L 1048.902954039585 291.61260313820407 L 1048.7414466596701 290.2480341752373 L 1048.6875 288.875 L 1048.7414466596701 287.5019658247627 L 1048.902954039585 286.13739686179593 L 1049.1710263930406 284.78970613252164 L 1049.5440109648348 283.4672025984384 L 1050.0196081810525 282.17803993361093 L 1050.5948858267036 280.93016625455795 L 1051.2662971238035 279.7312751174709 L 1052.0297025984385 278.5887580848817 L 1052.8803956019995 277.50965915422177 L 1053.8131313292354 276.50063132923543 L 1054.8221591542217 275.56789560199945 L 1055.9012580848816 274.7172025984384 L 1057.043775117471 273.9537971238034 L 1058.242666254558 273.28238582670355 L 1059.490539933611 272.7071081810525 L 1060.7797025984385 272.2315109648348 L 1062.1022061325216 271.8585263930407 L 1063.449896861796 271.5904540395851 L 1064.8144658247627 271.42894665967026 L 1066.1875 271.375 L 1067.5605341752373 271.42894665967026 L 1068.9251031382041 271.5904540395851 L 1070.2727938674784 271.8585263930407 L 1071.5952974015618 272.23151096483485 L 1072.8844600663892 272.7071081810525 L 1074.132333745442 273.2823858267036 L 1075.331224882529 273.95379712380344 L 1076.4737419151184 274.7172025984385 L 1077.5528408457783 275.56789560199957 L 1078.5618686707646 276.5006313292355 L 1079.4946043980005 277.5096591542219 L 1080.3452974015618 278.5887580848818 L 1081.1087028761967 279.73127511747106 L 1081.7801141732966 280.93016625455806 L 1082.3553918189475 282.1780399336111 L 1082.8309890351652 283.4672025984386 L 1083.2039736069594 284.7897061325218 L 1083.472045960415 286.13739686179616 L 1083.6335533403299 287.5019658247629 Z" fill-opacity="1" stroke-opacity="1" stroke-miterlimit="10" stroke-width="6"/><text fill="rgb(255,255,255)" stroke="none" font-family="times new roman" font-size="10px" font-style="normal" font-weight="normal" text-decoration="normal" x="1066.1875" y="293.875" text-anchor="middle" dominant-baseline="text-after-edge" fill-opacity="1">*1.58</text><path fill="rgb(69,90,100)" stroke="rgb(76,175,80)" paint-order="fill stroke markers" d=" M 596.3125 142 L 638.8125 142 L 638.8125 142 A 5 5 0 0 1 643.8125 147 L 643.8125 157 L 643.8125 157 A 5 5 0 0 1 638.8125 162 L 553.8125 162 L 553.8125 162 A 5 5 0 0 1 548.8125 157 L 548.8125 147 L 548.8125 147 A 5 5 0 0 1 553.8125 142 L 596.3125 142 Z" fill-opacity="1" stroke-opacity="1" stroke-miterlimit="10" stroke-width="2"/><text fill="rgb(255,255,255)" stroke="none" font-family="times new roman" font-size="10px" font-style="normal" font-weight="normal" text-decoration="normal" x="596.3125" y="157" text-anchor="middle" dominant-baseline="text-after-edge" fill-opacity="1">42132049dup</text><path fill="rgb(69,90,100)" stroke="rgb(76,175,80)" paint-order="fill stroke markers" d=" M 454.5625 288.875 L 454.4931400089954 290.6403296538765 L 454.2854876633906 292.3947754634052 L 453.94082320894773 294.12752068675786 L 453.46127161664094 295.8278823734363 L 452.84978948150393 297.48537722821453 L 452.1101467942383 299.0897862441398 L 451.24690369796707 300.6312177061088 L 450.2653823734363 302.10016817658067 L 449.1716342260007 303.48758108742913 L 447.97240257669733 304.78490257669733 L 446.67508108742913 305.9841342260007 L 445.28766817658067 307.0778823734363 L 443.8187177061088 308.05940369796707 L 442.2772862441398 308.9226467942383 L 440.67287722821453 309.66228948150393 L 439.0153823734363 310.27377161664094 L 437.31502068675786 310.75332320894773 L 435.5822754634052 311.0979876633906 L 433.8278296538765 311.3056400089954 L 432.0625 311.375 L 430.2971703461235 311.3056400089954 L 428.5427245365948 311.0979876633906 L 426.80997931324214 310.75332320894773 L 425.1096176265637 310.27377161664094 L 423.45212277178547 309.66228948150393 L 421.8477137558602 308.9226467942383 L 420.3062822938912 308.05940369796707 L 418.83733182341933 307.0778823734363 L 417.44991891257087 305.9841342260007 L 416.15259742330267 304.78490257669733 L 414.9533657739993 303.48758108742913 L 413.8596176265637 302.10016817658067 L 412.87809630203293 300.6312177061088 L 412.0148532057617 299.0897862441398 L 411.27521051849607 297.48537722821453 L 410.66372838335906 295.8278823734363 L 410.18417679105227 294.12752068675786 L 409.8395123366094 292.3947754634052 L 409.6318599910046 290.6403296538765 L 409.5625 288.875 L 409.6318599910046 287.1096703461235 L 409.8395123366094 285.3552245365948 L 410.18417679105227 283.62247931324214 L 410.66372838335906 281.9221176265637 L 411.27521051849607 280.26462277178547 L 412.0148532057617 278.6602137558602 L 412.87809630203293 277.1187822938912 L 413.8596176265637 275.64983182341933 L 414.9533657739993 274.26241891257087 L 416.15259742330267 272.96509742330267 L 417.44991891257087 271.76586577399934 L 418.83733182341933 270.6721176265637 L 420.3062822938912 269.69059630203293 L 421.84771375586024 268.8273532057617 L 423.4521227717855 268.087710518496 L 425.1096176265637 267.47622838335906 L 426.8099793132422 266.99667679105227 L 428.54272453659485 266.6520123366094 L 430.29717034612355 266.4443599910046 L 432.06250000000006 266.375 L 433.8278296538766 266.4443599910046 L 435.58227546340527 266.6520123366094 L 437.315020686758 266.9966767910523 L 439.0153823734364 267.47622838335906 L 440.67287722821465 268.0877105184961 L 442.27728624413993 268.82735320576177 L 443.818717706109 269.690596302033 L 445.2876681765808 270.67211762656376 L 446.67508108742925 271.7658657739994 L 447.97240257669745 272.9650974233028 L 449.17163422600083 274.262418912571 L 450.2653823734364 275.6498318234195 L 451.2469036979672 277.11878229389134 L 452.1101467942384 278.6602137558604 L 452.84978948150405 280.2646227717857 L 453.46127161664106 281.92211762656393 L 453.9408232089478 283.62247931324237 L 454.28548766339065 285.3552245365951 L 454.4931400089954 287.1096703461238 Z" fill-opacity="1" stroke-opacity="1" stroke-miterlimit="10" stroke-width="6"/><text fill="rgb(255,255,255)" stroke="none" font-family="times new roman" font-size="15px" font-style="normal" font-weight="normal" text-decoration="normal" x="432.0625" y="296.375" text-anchor="middle" dominant-baseline="text-after-edge" fill-opacity="1">*2</text><path fill="rgb(3,169,244)" stroke="none" paint-order="stroke fill markers" d=" M 432.0625 256.375 L 456.5625 256.375 L 456.5625 256.375 A 8 8 0 0 1 464.5625 264.375 L 464.5625 313.375 L 464.5625 313.375 A 8 8 0 0 1 456.5625 321.375 L 407.5625 321.375 L 407.5625 321.375 A 8 8 0 0 1 399.5625 313.375 L 399.5625 264.375 L 399.5625 264.375 A 8 8 0 0 1 407.5625 256.375 L 432.0625 256.375 Z" fill-opacity="0.15"/><path fill="rgb(69,90,100)" stroke="rgb(255,193,7)" paint-order="fill stroke markers" d=" M 338.4375 68.5 L 338.4375 88.5 L 433.4375 88.5 L 433.4375 68.5 Z" fill-opacity="1" stroke-opacity="1" stroke-miterlimit="10" stroke-width="6"/><text fill="rgb(255,255,255)" stroke="none" font-family="times new roman" font-size="10px" font-style="normal" font-weight="normal" text-decoration="normal" x="385.9375" y="83.5" text-anchor="middle" dominant-baseline="text-after-edge" fill-opacity="1">42127941G&gt;A</text><path fill="rgb(69,90,100)" stroke="rgb(76,175,80)" paint-order="fill stroke markers" d=" M 645.6875 78.5 L 645.6335533403297 79.87303417523728 L 645.4720459604149 81.23760313820404 L 645.2039736069594 82.58529386747834 L 644.8309890351652 83.90779740156158 L 644.3553918189475 85.19696006638907 L 643.7801141732964 86.44483374544207 L 643.1087028761966 87.6437248825291 L 642.3452974015615 88.78624191511828 L 641.4946043980005 89.8653408457782 L 640.5618686707646 90.87436867076458 L 639.5528408457782 91.80710439800055 L 638.4737419151182 92.65779740156158 L 637.3312248825291 93.42120287619662 L 636.1323337454421 94.09261417329644 L 634.8844600663891 94.66789181894751 L 633.5952974015615 95.14348903516519 L 632.2727938674783 95.51647360695934 L 630.925103138204 95.7845459604149 L 629.5605341752373 95.94605334032974 L 628.1875 96 L 626.8144658247627 95.94605334032974 L 625.449896861796 95.7845459604149 L 624.1022061325217 95.51647360695934 L 622.7797025984385 95.14348903516519 L 621.4905399336109 94.66789181894751 L 620.2426662545579 94.09261417329644 L 619.0437751174709 93.42120287619662 L 617.9012580848818 92.65779740156158 L 616.8221591542218 91.80710439800055 L 615.8131313292354 90.87436867076458 L 614.8803956019995 89.86534084577822 L 614.0297025984385 88.78624191511828 L 613.2662971238034 87.64372488252911 L 612.5948858267036 86.44483374544207 L 612.0196081810525 85.19696006638907 L 611.5440109648348 83.90779740156158 L 611.1710263930406 82.58529386747834 L 610.9029540395851 81.23760313820404 L 610.7414466596703 79.8730341752373 L 610.6875 78.5 L 610.7414466596703 77.12696582476272 L 610.9029540395851 75.76239686179596 L 611.1710263930406 74.41470613252166 L 611.5440109648348 73.09220259843842 L 612.0196081810525 71.80303993361093 L 612.5948858267036 70.55516625455793 L 613.2662971238034 69.3562751174709 L 614.0297025984385 68.21375808488172 L 614.8803956019995 67.1346591542218 L 615.8131313292354 66.12563132923542 L 616.8221591542218 65.19289560199947 L 617.9012580848818 64.34220259843842 L 619.0437751174709 63.57879712380338 L 620.2426662545579 62.90738582670356 L 621.490539933611 62.332108181052476 L 622.7797025984385 61.856510964834804 L 624.1022061325217 61.48352639304065 L 625.449896861796 61.21545403958508 L 626.8144658247628 61.05394665967026 L 628.1875000000001 61 L 629.5605341752373 61.05394665967027 L 630.9251031382041 61.2154540395851 L 632.2727938674784 61.48352639304068 L 633.5952974015617 61.85651096483484 L 634.8844600663891 62.33210818105252 L 636.1323337454421 62.90738582670361 L 637.3312248825292 63.57879712380345 L 638.4737419151184 64.34220259843849 L 639.5528408457783 65.19289560199954 L 640.5618686707646 66.12563132923552 L 641.4946043980007 67.1346591542219 L 642.3452974015617 68.21375808488185 L 643.1087028761967 69.35627511747103 L 643.7801141732965 70.55516625455807 L 644.3553918189476 71.80303993361109 L 644.8309890351652 73.09220259843859 L 645.2039736069594 74.41470613252184 L 645.4720459604149 75.76239686179616 L 645.6335533403297 77.12696582476292 Z" fill-opacity="1" stroke-opacity="1" stroke-miterlimit="10" stroke-width="6"/><text fill="rgb(255,255,255)" stroke="none" font-family="times new roman" font-size="10px" font-style="normal" font-weight="normal" text-decoration="normal" x="628.1875" y="83.5" text-anchor="middle" dominant-baseline="text-after-edge" fill-opacity="1">*34.1</text><path fill="rgb(69,90,100)" stroke="rgb(76,175,80)" paint-order="fill stroke markers" d=" M 934.0625 152 L 934.0085533403297 153.37303417523728 L 933.8470459604149 154.73760313820404 L 933.5789736069594 156.08529386747836 L 933.2059890351652 157.40779740156157 L 932.7303918189475 158.69696006638907 L 932.1551141732964 159.94483374544205 L 931.4837028761966 161.1437248825291 L 930.7202974015615 162.28624191511827 L 929.8696043980005 163.3653408457782 L 928.9368686707646 164.37436867076457 L 927.9278408457782 165.30710439800055 L 926.8487419151182 166.1577974015616 L 925.7062248825291 166.92120287619662 L 924.5073337454421 167.59261417329643 L 923.2594600663891 168.1678918189475 L 921.9702974015615 168.64348903516517 L 920.6477938674783 169.01647360695935 L 919.300103138204 169.2845459604149 L 917.9355341752373 169.44605334032974 L 916.5625 169.5 L 915.1894658247627 169.44605334032974 L 913.824896861796 169.2845459604149 L 912.4772061325217 169.01647360695935 L 911.1547025984385 168.6434890351652 L 909.8655399336109 168.1678918189475 L 908.6176662545579 167.59261417329643 L 907.4187751174709 166.92120287619662 L 906.2762580848818 166.1577974015616 L 905.1971591542218 165.30710439800055 L 904.1881313292354 164.37436867076457 L 903.2553956019995 163.3653408457782 L 902.4047025984385 162.2862419151183 L 901.6412971238034 161.1437248825291 L 900.9698858267036 159.94483374544208 L 900.3946081810525 158.69696006638907 L 899.9190109648348 157.4077974015616 L 899.5460263930406 156.08529386747836 L 899.2779540395851 154.73760313820404 L 899.1164466596703 153.37303417523728 L 899.0625 152 L 899.1164466596703 150.62696582476272 L 899.2779540395851 149.26239686179596 L 899.5460263930406 147.91470613252164 L 899.9190109648348 146.59220259843843 L 900.3946081810525 145.30303993361093 L 900.9698858267036 144.05516625455795 L 901.6412971238034 142.8562751174709 L 902.4047025984385 141.71375808488173 L 903.2553956019995 140.6346591542218 L 904.1881313292354 139.62563132923543 L 905.1971591542218 138.69289560199945 L 906.2762580848818 137.84220259843843 L 907.4187751174709 137.07879712380338 L 908.6176662545579 136.40738582670355 L 909.865539933611 135.8321081810525 L 911.1547025984385 135.3565109648348 L 912.4772061325217 134.98352639304065 L 913.824896861796 134.7154540395851 L 915.1894658247628 134.55394665967026 L 916.5625000000001 134.5 L 917.9355341752373 134.55394665967026 L 919.3001031382041 134.7154540395851 L 920.6477938674784 134.98352639304068 L 921.9702974015617 135.35651096483485 L 923.2594600663891 135.83210818105252 L 924.5073337454421 136.4073858267036 L 925.7062248825292 137.07879712380344 L 926.8487419151184 137.8422025984385 L 927.9278408457783 138.69289560199954 L 928.9368686707646 139.62563132923552 L 929.8696043980007 140.6346591542219 L 930.7202974015617 141.71375808488185 L 931.4837028761967 142.85627511747103 L 932.1551141732965 144.0551662545581 L 932.7303918189476 145.3030399336111 L 933.2059890351652 146.5922025984386 L 933.5789736069594 147.91470613252184 L 933.8470459604149 149.26239686179616 L 934.0085533403297 150.62696582476292 Z" fill-opacity="1" stroke-opacity="1" stroke-miterlimit="10" stroke-width="6"/><text fill="rgb(255,255,255)" stroke="none" font-family="times new roman" font-size="10px" font-style="normal" font-weight="normal" text-decoration="normal" x="916.5625" y="157" text-anchor="middle" dominant-baseline="text-after-edge" fill-opacity="1">*1.41</text><path fill="rgb(69,90,100)" stroke="rgb(76,175,80)" paint-order="fill stroke markers" d=" M 869.0625 68.5 L 869.0625 88.5 L 964.0625 88.5 L 964.0625 68.5 Z" fill-opacity="1" stroke-opacity="1" stroke-miterlimit="10" stroke-width="6"/><text fill="rgb(255,255,255)" stroke="none" font-family="times new roman" font-size="10px" font-style="normal" font-weight="normal" text-decoration="normal" x="916.5625" y="83.5" text-anchor="middle" dominant-baseline="text-after-edge" fill-opacity="1">42127407T&gt;G</text><path fill="rgb(69,90,100)" stroke="rgb(76,175,80)" paint-order="fill stroke markers" d=" M 1076.0625 142 L 1076.0625 162 L 1171.0625 162 L 1171.0625 142 Z" fill-opacity="1" stroke-opacity="1" stroke-miterlimit="10" stroke-width="6"/><text fill="rgb(255,255,255)" stroke="none" font-family="times new roman" font-size="10px" font-style="normal" font-weight="normal" text-decoration="normal" x="1123.5625" y="157" text-anchor="middle" dominant-baseline="text-after-edge" fill-opacity="1">42129950A&gt;C</text><path fill="rgb(69,90,100)" stroke="rgb(76,175,80)" paint-order="fill stroke markers" d=" M 454.5625 152 L 454.4931400089954 153.7653296538765 L 454.2854876633906 155.51977546340518 L 453.94082320894773 157.25252068675786 L 453.46127161664094 158.95288237343632 L 452.84978948150393 160.61037722821453 L 452.1101467942383 162.21478624413982 L 451.24690369796707 163.75621770610886 L 450.2653823734363 165.22516817658064 L 449.1716342260007 166.61258108742913 L 447.97240257669733 167.9099025766973 L 446.67508108742913 169.1091342260007 L 445.28766817658067 170.20288237343632 L 443.8187177061088 171.18440369796707 L 442.2772862441398 172.0476467942383 L 440.67287722821453 172.78728948150396 L 439.0153823734363 173.39877161664094 L 437.31502068675786 173.87832320894773 L 435.5822754634052 174.2229876633906 L 433.8278296538765 174.43064000899537 L 432.0625 174.5 L 430.2971703461235 174.43064000899537 L 428.5427245365948 174.2229876633906 L 426.80997931324214 173.87832320894773 L 425.1096176265637 173.39877161664094 L 423.45212277178547 172.78728948150396 L 421.8477137558602 172.0476467942383 L 420.3062822938912 171.18440369796707 L 418.83733182341933 170.20288237343632 L 417.44991891257087 169.1091342260007 L 416.15259742330267 167.90990257669733 L 414.9533657739993 166.61258108742913 L 413.8596176265637 165.22516817658064 L 412.87809630203293 163.75621770610886 L 412.0148532057617 162.21478624413982 L 411.27521051849607 160.61037722821453 L 410.66372838335906 158.95288237343632 L 410.18417679105227 157.25252068675786 L 409.8395123366094 155.5197754634052 L 409.6318599910046 153.7653296538765 L 409.5625 152 L 409.6318599910046 150.2346703461235 L 409.8395123366094 148.48022453659482 L 410.18417679105227 146.74747931324214 L 410.66372838335906 145.04711762656368 L 411.27521051849607 143.38962277178547 L 412.0148532057617 141.7852137558602 L 412.87809630203293 140.24378229389114 L 413.8596176265637 138.77483182341936 L 414.9533657739993 137.38741891257087 L 416.15259742330267 136.0900974233027 L 417.44991891257087 134.8908657739993 L 418.83733182341933 133.79711762656368 L 420.3062822938912 132.81559630203293 L 421.84771375586024 131.9523532057617 L 423.4521227717855 131.21271051849604 L 425.1096176265637 130.60122838335903 L 426.8099793132422 130.12167679105227 L 428.54272453659485 129.7770123366094 L 430.29717034612355 129.5693599910046 L 432.06250000000006 129.5 L 433.8278296538766 129.56935999100463 L 435.58227546340527 129.7770123366094 L 437.315020686758 130.1216767910523 L 439.0153823734364 130.60122838335909 L 440.67287722821465 131.2127105184961 L 442.27728624413993 131.9523532057618 L 443.818717706109 132.815596302033 L 445.2876681765808 133.79711762656376 L 446.67508108742925 134.89086577399942 L 447.97240257669745 136.0900974233028 L 449.17163422600083 137.387418912571 L 450.2653823734364 138.7748318234195 L 451.2469036979672 140.24378229389131 L 452.1101467942384 141.78521375586038 L 452.84978948150405 143.3896227717857 L 453.46127161664106 145.0471176265639 L 453.9408232089478 146.74747931324237 L 454.28548766339065 148.48022453659505 L 454.4931400089954 150.23467034612375 Z" fill-opacity="1" stroke-opacity="1" stroke-miterlimit="10" stroke-width="6"/><text fill="rgb(255,255,255)" stroke="none" font-family="times new roman" font-size="15px" font-style="normal" font-weight="normal" text-decoration="normal" x="432.0625" y="159.5" text-anchor="middle" dominant-baseline="text-after-edge" fill-opacity="1">*34</text><path fill="rgb(69,90,100)" stroke="rgb(76,175,80)" paint-order="fill stroke markers" d=" M 709.5625 142 L 752.0625 142 L 752.0625 142 A 5 5 0 0 1 757.0625 147 L 757.0625 157 L 757.0625 157 A 5 5 0 0 1 752.0625 162 L 667.0625 162 L 667.0625 162 A 5 5 0 0 1 662.0625 157 L 662.0625 147 L 662.0625 147 A 5 5 0 0 1 667.0625 142 L 709.5625 142 Z" fill-opacity="1" stroke-opacity="1" stroke-miterlimit="10" stroke-width="6"/><text fill="rgb(255,255,255)" stroke="none" font-family="times new roman" font-size="10px" font-style="normal" font-weight="normal" text-decoration="normal" x="709.5625" y="157" text-anchor="middle" dominant-baseline="text-after-edge" fill-opacity="1">42132025_4213202…</text><path fill="rgb(69,90,100)" stroke="rgb(76,175,80)" paint-order="fill stroke markers" d=" M 887.9375 288.875 L 887.8835533403297 290.2480341752373 L 887.7220459604149 291.61260313820407 L 887.4539736069594 292.96029386747836 L 887.0809890351652 294.2827974015616 L 886.6053918189475 295.57196006638907 L 886.0301141732964 296.81983374544205 L 885.3587028761966 298.0187248825291 L 884.5952974015615 299.1612419151183 L 883.7446043980005 300.24034084577823 L 882.8118686707646 301.24936867076457 L 881.8028408457782 302.18210439800055 L 880.7237419151182 303.0327974015616 L 879.5812248825291 303.7962028761966 L 878.3823337454421 304.46761417329645 L 877.1344600663891 305.0428918189475 L 875.8452974015615 305.5184890351652 L 874.5227938674783 305.8914736069593 L 873.175103138204 306.1595459604149 L 871.8105341752373 306.32105334032974 L 870.4375 306.375 L 869.0644658247627 306.32105334032974 L 867.699896861796 306.1595459604149 L 866.3522061325217 305.8914736069593 L 865.0297025984385 305.5184890351652 L 863.7405399336109 305.0428918189475 L 862.4926662545579 304.46761417329645 L 861.2937751174709 303.7962028761966 L 860.1512580848818 303.0327974015616 L 859.0721591542218 302.18210439800055 L 858.0631313292354 301.24936867076457 L 857.1303956019995 300.24034084577823 L 856.2797025984385 299.1612419151183 L 855.5162971238034 298.0187248825291 L 854.8448858267036 296.81983374544205 L 854.2696081810525 295.57196006638907 L 853.7940109648348 294.2827974015616 L 853.4210263930406 292.96029386747836 L 853.1529540395851 291.61260313820407 L 852.9914466596703 290.2480341752373 L 852.9375 288.875 L 852.9914466596703 287.5019658247627 L 853.1529540395851 286.13739686179593 L 853.4210263930406 284.78970613252164 L 853.7940109648348 283.4672025984384 L 854.2696081810525 282.17803993361093 L 854.8448858267036 280.93016625455795 L 855.5162971238034 279.7312751174709 L 856.2797025984385 278.5887580848817 L 857.1303956019995 277.50965915422177 L 858.0631313292354 276.50063132923543 L 859.0721591542218 275.56789560199945 L 860.1512580848818 274.7172025984384 L 861.2937751174709 273.9537971238034 L 862.4926662545579 273.28238582670355 L 863.740539933611 272.7071081810525 L 865.0297025984385 272.2315109648348 L 866.3522061325217 271.8585263930407 L 867.699896861796 271.5904540395851 L 869.0644658247628 271.42894665967026 L 870.4375000000001 271.375 L 871.8105341752373 271.42894665967026 L 873.1751031382041 271.5904540395851 L 874.5227938674784 271.8585263930407 L 875.8452974015617 272.23151096483485 L 877.1344600663891 272.7071081810525 L 878.3823337454421 273.2823858267036 L 879.5812248825292 273.95379712380344 L 880.7237419151184 274.7172025984385 L 881.8028408457783 275.56789560199957 L 882.8118686707646 276.5006313292355 L 883.7446043980007 277.5096591542219 L 884.5952974015617 278.5887580848818 L 885.3587028761967 279.73127511747106 L 886.0301141732965 280.93016625455806 L 886.6053918189476 282.1780399336111 L 887.0809890351652 283.4672025984386 L 887.4539736069594 284.7897061325218 L 887.7220459604149 286.13739686179616 L 887.8835533403297 287.5019658247629 Z" fill-opacity="1" stroke-opacity="1" stroke-miterlimit="10" stroke-width="6"/><text fill="rgb(255,255,255)" stroke="none" font-family="times new roman" font-size="10px" font-style="normal" font-weight="normal" text-decoration="normal" x="870.4375" y="293.875" text-anchor="middle" dominant-baseline="text-after-edge" fill-opacity="1">*1.54</text><path fill="rgb(69,90,100)" stroke="rgb(76,175,80)" paint-order="fill stroke markers" d=" M 776.8125 142 L 776.8125 162 L 871.8125 162 L 871.8125 142 Z" fill-opacity="1" stroke-opacity="1" stroke-miterlimit="10" stroke-width="6"/><text fill="rgb(255,255,255)" stroke="none" font-family="times new roman" font-size="10px" font-style="normal" font-weight="normal" text-decoration="normal" x="824.3125" y="157" text-anchor="middle" dominant-baseline="text-after-edge" fill-opacity="1">42130047G&gt;C</text><path fill="rgb(69,90,100)" stroke="rgb(76,175,80)" paint-order="fill stroke markers" d=" M 961.3125 142 L 961.3125 162 L 1056.3125 162 L 1056.3125 142 Z" fill-opacity="1" stroke-opacity="1" stroke-miterlimit="10" stroke-width="6"/><text fill="rgb(255,255,255)" stroke="none" font-family="times new roman" font-size="10px" font-style="normal" font-weight="normal" text-decoration="normal" x="1008.8125" y="157" text-anchor="middle" dominant-baseline="text-after-edge" fill-opacity="1">42130482C&gt;A</text><path fill="rgb(176,190,197)" stroke="none" paint-order="stroke fill markers" d=" M 925.1875 183.87500000000003 L 925.1875 393.875 L 1000.1875 393.875 L 1000.1875 183.87500000000006 Z" fill-opacity="0.8"/><text fill="rgb(0,0,0)" stroke="none" font-family="times new roman" font-size="10px" font-style="normal" font-weight="normal" text-decoration="normal" x="930.1875" y="198.875" text-anchor="start" dominant-baseline="text-after-edge" fill-opacity="0.8">42126310C&gt;T </text><text fill="rgb(0,0,0)" stroke="none" font-family="times new roman" font-size="10px" font-style="normal" font-weight="normal" text-decoration="normal" x="930.1875" y="208.875" text-anchor="start" dominant-baseline="text-after-edge" fill-opacity="0.8">42127001G&gt;A </text><text fill="rgb(0,0,0)" stroke="none" font-family="times new roman" font-size="10px" font-style="normal" font-weight="normal" text-decoration="normal" x="930.1875" y="218.875" text-anchor="start" dominant-baseline="text-after-edge" fill-opacity="0.8">42127207C&gt;T </text><text fill="rgb(0,0,0)" stroke="none" font-family="times new roman" font-size="10px" font-style="normal" font-weight="normal" text-decoration="normal" x="930.1875" y="228.875" text-anchor="start" dominant-baseline="text-after-edge" fill-opacity="0.8">42129130C&gt;G </text><text fill="rgb(0,0,0)" stroke="none" font-family="times new roman" font-size="10px" font-style="normal" font-weight="normal" text-decoration="normal" x="930.1875" y="238.875" text-anchor="start" dominant-baseline="text-after-edge" fill-opacity="0.8">42131469C&gt;T </text><text fill="rgb(0,0,0)" stroke="none" font-family="times new roman" font-size="10px" font-style="normal" font-weight="normal" text-decoration="normal" x="930.1875" y="248.875" text-anchor="start" dominant-baseline="text-after-edge" fill-opacity="0.8">42131531G&gt;A </text><text fill="rgb(0,0,0)" stroke="none" font-family="times new roman" font-size="10px" font-style="normal" font-weight="normal" text-decoration="normal" x="930.1875" y="258.875" text-anchor="start" dominant-baseline="text-after-edge" fill-opacity="0.8">42132026T&gt;C </text><text fill="rgb(0,0,0)" stroke="none" font-family="times new roman" font-size="10px" font-style="normal" font-weight="normal" text-decoration="normal" x="930.1875" y="268.875" text-anchor="start" dominant-baseline="text-after-edge" fill-opacity="0.8">42132375G&gt;C </text><path fill="rgb(176,190,197)" stroke="none" paint-order="stroke fill markers" d=" M 652.9375 183.875 L 719.9375 183.875 L 719.9375 183.875 A 8 8 0 0 1 727.9375 191.875 L 727.9375 385.875 L 727.9375 385.875 A 8 8 0 0 1 719.9375 393.875 L 585.9375 393.875 L 585.9375 393.875 A 8 8 0 0 1 577.9375 385.875 L 577.9375 191.875 L 577.9375 191.875 A 8 8 0 0 1 585.9375 183.875 L 652.9375 183.875 Z" fill-opacity="0.8"/><text fill="rgb(0,0,0)" stroke="none" font-family="times new roman" font-size="10px" font-style="normal" font-weight="normal" text-decoration="normal" x="582.9375" y="198.875" text-anchor="start" dominant-baseline="text-after-edge" fill-opacity="0.8">42125648_42125657dup </text><text fill="rgb(0,0,0)" stroke="none" font-family="times new roman" font-size="10px" font-style="normal" font-weight="normal" text-decoration="normal" x="582.9375" y="208.875" text-anchor="start" dominant-baseline="text-after-edge" fill-opacity="0.8">42125924A&gt;G </text><text fill="rgb(0,0,0)" stroke="none" font-family="times new roman" font-size="10px" font-style="normal" font-weight="normal" text-decoration="normal" x="582.9375" y="218.875" text-anchor="start" dominant-baseline="text-after-edge" fill-opacity="0.8">42126069A&gt;C </text><text fill="rgb(0,0,0)" stroke="none" font-family="times new roman" font-size="10px" font-style="normal" font-weight="normal" text-decoration="normal" x="582.9375" y="228.875" text-anchor="start" dominant-baseline="text-after-edge" fill-opacity="0.8">42126136_42126138del </text><text fill="rgb(0,0,0)" stroke="none" font-family="times new roman" font-size="10px" font-style="normal" font-weight="normal" text-decoration="normal" x="582.9375" y="238.875" text-anchor="start" dominant-baseline="text-after-edge" fill-opacity="0.8">42132025_42132026insCCTTTT </text><text fill="rgb(0,0,0)" stroke="none" font-family="times new roman" font-size="10px" font-style="normal" font-weight="normal" text-decoration="normal" x="582.9375" y="248.875" text-anchor="start" dominant-baseline="text-after-edge" fill-opacity="0.8">42132027C&gt;T </text><text fill="rgb(0,0,0)" stroke="none" font-family="times new roman" font-size="10px" font-style="normal" font-weight="normal" text-decoration="normal" x="582.9375" y="258.875" text-anchor="start" dominant-baseline="text-after-edge" fill-opacity="0.8">42132561C&gt;T </text><text fill="rgb(0,0,0)" stroke="none" font-family="times new roman" font-size="10px" font-style="normal" font-weight="normal" text-decoration="normal" x="582.9375" y="268.875" text-anchor="start" dominant-baseline="text-after-edge" fill-opacity="0.8">42132844C&gt;A </text><text fill="rgb(0,0,0)" stroke="none" font-family="times new roman" font-size="10px" font-style="normal" font-weight="normal" text-decoration="normal" x="582.9375" y="278.875" text-anchor="start" dominant-baseline="text-after-edge" fill-opacity="0.8">42132851T&gt;C </text><text fill="rgb(0,0,0)" stroke="none" font-family="times new roman" font-size="10px" font-style="normal" font-weight="normal" text-decoration="normal" x="582.9375" y="288.875" text-anchor="start" dominant-baseline="text-after-edge" fill-opacity="0.8">42133400T&gt;G </text><text fill="rgb(0,0,0)" stroke="none" font-family="times new roman" font-size="10px" font-style="normal" font-weight="normal" text-decoration="normal" x="582.9375" y="298.875" text-anchor="start" dominant-baseline="text-after-edge" fill-opacity="0.8">42133533A&gt;C </text><text fill="rgb(0,0,0)" stroke="none" font-family="times new roman" font-size="10px" font-style="normal" font-weight="normal" text-decoration="normal" x="582.9375" y="308.875" text-anchor="start" dominant-baseline="text-after-edge" fill-opacity="0.8">42134096del </text><text fill="rgb(0,0,0)" stroke="none" font-family="times new roman" font-size="10px" font-style="normal" font-weight="normal" text-decoration="normal" x="582.9375" y="318.875" text-anchor="start" dominant-baseline="text-after-edge" fill-opacity="0.8">42134820T&gt;G </text><text fill="rgb(0,0,0)" stroke="none" font-family="times new roman" font-size="10px" font-style="normal" font-weight="normal" text-decoration="normal" x="582.9375" y="328.875" text-anchor="start" dominant-baseline="text-after-edge" fill-opacity="0.8">42135064_42135066dup </text><text fill="rgb(0,0,0)" stroke="none" font-family="times new roman" font-size="10px" font-style="normal" font-weight="normal" text-decoration="normal" x="582.9375" y="338.875" text-anchor="start" dominant-baseline="text-after-edge" fill-opacity="0.8">42135201T&gt;C </text><text fill="rgb(0,0,0)" stroke="none" font-family="times new roman" font-size="10px" font-style="normal" font-weight="normal" text-decoration="normal" x="582.9375" y="348.875" text-anchor="start" dominant-baseline="text-after-edge" fill-opacity="0.8">42135691T&gt;C </text><g transform="scale(1.0633490073145246,1.0633490073145246) translate(118.05816238791306,-70.3043852106621)"/></g></svg>