<svg version="1.1" xmlns="http://www.w3.org/2000/svg" xmlns:xlink="http://www.w3.org/1999/xlink" width="1017" height="608"><defs/><g transform="translate(-109.5404858299595,24.09716599190284) scale(0.9392712550607287,0.9392712550607287)"><path fill="none" stroke="rgb(55,71,79)" paint-order="fill stroke markers" d=" M 208.22066326530614 103.875 L 232.6329273259076 142.77584354372266" stroke-opacity="1" stroke-linejoin="round" stroke-miterlimit="10" stroke-width="2"/><path fill="none" stroke="rgb(120,144,156)" paint-order="fill stroke markers" d=" M 527.9966654598393 387.10581242136504 L 713.3746013240828 492.393280849115" stroke-opacity="1" stroke-linejoin="round" stroke-miterlimit="10"/><path fill="rgb(120,144,156)" stroke="none" paint-order="stroke fill markers" d=" M 705.4003803617909 492.8668841055897 L 715.1136792355585 493.3810095658269 L 709.6970002794877 485.30189519067045 Z" fill-opacity="1"/><path fill="none" stroke="rgb(120,144,156)" paint-order="fill stroke markers" d=" M 269.7202034889352 174.19650021645646 L 404.1547965110648 230.30349978354354" stroke-opacity="1" stroke-linejoin="round" stroke-miterlimit="10"/><path fill="rgb(120,144,156)" stroke="none" paint-order="stroke fill markers" d=" M 396.29626163587056 231.7373511061557 L 406.00049874549103 231.07381352601072 L 399.64712641560277 223.70854638640134 Z" fill-opacity="1"/><path fill="none" stroke="rgb(120,144,156)" paint-order="fill stroke markers" d=" M 895.4524658752929 259.5622122395103 L 927.7975341247071 356.06278776048975" stroke-opacity="1" stroke-linejoin="round" stroke-miterlimit="10"/><path fill="rgb(120,144,156)" stroke="none" paint-order="stroke fill markers" d=" M 921.5437709731788 351.09258188501684 L 928.433140551565 357.95910114971025 L 929.792734216288 348.32769392818517 Z" fill-opacity="1"/><path fill="none" stroke="rgb(120,144,156)" paint-order="fill stroke markers" d=" M 677.0625 424.98308270676694 L 724.0845793183887 487.03101443892655" stroke-opacity="1" stroke-linejoin="round" stroke-miterlimit="10"/><path fill="rgb(120,144,156)" stroke="none" paint-order="stroke fill markers" d=" M 716.5709355564655 484.3185142234588 L 725.2925569800569 488.625 L 723.504772747135 479.06381139520215 Z" fill-opacity="1"/><path fill="none" stroke="rgb(120,144,156)" paint-order="fill stroke markers" d=" M 687.4471952908588 253.125 L 730.532497585478 354.78378515266394" stroke-opacity="1" stroke-linejoin="round" stroke-miterlimit="10"/><path fill="rgb(120,144,156)" stroke="none" paint-order="stroke fill markers" d=" M 723.9128731071132 350.3124238649314 L 731.3129422445467 356.62522647242713 L 731.9231428480832 346.9174895979829 Z" fill-opacity="1"/><path fill="none" stroke="rgb(55,71,79)" paint-order="fill stroke markers" d=" M 389.74107142857144 101.875 L 415.49151384531854 144.28749339228938" stroke-opacity="1" stroke-linejoin="round" stroke-miterlimit="10" stroke-width="2"/><path fill="none" stroke="rgb(120,144,156)" paint-order="fill stroke markers" d=" M 439.62941413798774 260.3645821775285 L 494.60425274388564 353.5379001903414" stroke-opacity="1" stroke-linejoin="round" stroke-miterlimit="10"/><path fill="rgb(120,144,156)" stroke="none" paint-order="stroke fill markers" d=" M 487.45306094827856 349.977990654631 L 495.62058586201226 355.2604178224715 L 494.9460126480444 345.55694159078024 Z" fill-opacity="1"/><path fill="none" stroke="rgb(55,71,79)" paint-order="fill stroke markers" d=" M 888.9375 177.375 L 888.9375 219.625" stroke-opacity="1" stroke-linejoin="round" stroke-miterlimit="10" stroke-width="2"/><path fill="none" stroke="rgb(120,144,156)" paint-order="fill stroke markers" d=" M 427.6875 187.875 L 427.6875 214.625" stroke-opacity="1" stroke-linejoin="round" stroke-miterlimit="10"/><path fill="rgb(120,144,156)" stroke="none" paint-order="stroke fill markers" d=" M 423.3375 207.925 L 427.6875 216.625 L 432.0375 207.925 Z" fill-opacity="1"/><path fill="none" stroke="rgb(120,144,156)" paint-order="fill stroke markers" d=" M 575.4955858620123 260.3645821775285 L 520.5207472561143 353.5379001903414" stroke-opacity="1" stroke-linejoin="round" stroke-miterlimit="10"/><path fill="rgb(120,144,156)" stroke="none" paint-order="stroke fill markers" d=" M 520.1789873519556 345.55694159078024 L 519.5044141379877 355.2604178224715 L 527.6719390517214 349.977990654631 Z" fill-opacity="1"/><path fill="none" stroke="rgb(120,144,156)" paint-order="fill stroke markers" d=" M 976.0005193905818 251.125 L 940.8274658752929 356.06278776048975" stroke-opacity="1" stroke-linejoin="round" stroke-miterlimit="10"/><path fill="rgb(120,144,156)" stroke="none" paint-order="stroke fill markers" d=" M 938.832265783712 348.32769392818517 L 940.191859448435 357.95910114971025 L 947.0812290268212 351.09258188501684 Z" fill-opacity="1"/><path fill="none" stroke="rgb(55,71,79)" paint-order="fill stroke markers" d=" M 587.4375 175.375 L 587.4375 216.625" stroke-opacity="1" stroke-linejoin="round" stroke-miterlimit="10" stroke-width="2"/><path fill="none" stroke="rgb(120,144,156)" paint-order="fill stroke markers" d=" M 791.1778047091412 253.125 L 748.092502414522 354.78378515266394" stroke-opacity="1" stroke-linejoin="round" stroke-miterlimit="10"/><path fill="rgb(120,144,156)" stroke="none" paint-order="stroke fill markers" d=" M 746.7018571519169 346.9174895979829 L 747.3120577554533 356.62522647242713 L 754.7121268928868 350.3124238649314 Z" fill-opacity="1"/><path fill="none" stroke="rgb(55,71,79)" paint-order="fill stroke markers" d=" M 281.41568667376885 108.23902773936021 L 259.7420726740924 142.77584354372266" stroke-opacity="1" stroke-linejoin="round" stroke-miterlimit="10" stroke-width="2"/><path fill="none" stroke="rgb(120,144,156)" paint-order="fill stroke markers" d=" M 1091.4375 251.125 L 1091.4375 268.5" stroke-opacity="1" stroke-linejoin="round" stroke-miterlimit="10"/><path fill="rgb(120,144,156)" stroke="none" paint-order="stroke fill markers" d=" M 1087.0875 261.8 L 1091.4375 270.5 L 1095.7875 261.8 Z" fill-opacity="1"/><path fill="none" stroke="rgb(120,144,156)" paint-order="fill stroke markers" d=" M 739.3125 396 L 739.3125 486.625" stroke-opacity="1" stroke-linejoin="round" stroke-miterlimit="10"/><path fill="rgb(120,144,156)" stroke="none" paint-order="stroke fill markers" d=" M 734.9625 479.925 L 739.3125 488.625 L 743.6625 479.925 Z" fill-opacity="1"/><path fill="none" stroke="rgb(120,144,156)" paint-order="fill stroke markers" d=" M 918.9787995296006 385.85024781751963 L 763.5857956811539 490.7405254152211" stroke-opacity="1" stroke-linejoin="round" stroke-miterlimit="10"/><path fill="rgb(120,144,156)" stroke="none" paint-order="stroke fill markers" d=" M 766.7053748782062 483.38656555448495 L 761.9280983330026 491.85947112522325 L 771.5727887167153 490.5975490189431 Z" fill-opacity="1"/><path fill="none" stroke="rgb(120,144,156)" paint-order="fill stroke markers" d=" M 1016.4375 403.53514376996804 L 768.9045548959691 496.0634331539029" stroke-opacity="1" stroke-linejoin="round" stroke-miterlimit="10"/><path fill="rgb(120,144,156)" stroke="none" paint-order="stroke fill markers" d=" M 773.6573226917311 489.6428647772272 L 767.0311596624289 496.7637118833732 L 776.7035351649271 497.7921340431274 Z" fill-opacity="1"/><path fill="none" stroke="rgb(55,71,79)" paint-order="fill stroke markers" d=" M 485.5837341296492 177.91734417984497 L 443.6976890785537 222.9225627985753" stroke-opacity="1" stroke-linejoin="round" stroke-miterlimit="10" stroke-width="2"/><path fill="none" stroke="rgb(55,71,79)" paint-order="fill stroke markers" d=" M 462.71140451652735 106.68856903160199 L 439.88348615468146 144.28749339228938" stroke-opacity="1" stroke-linejoin="round" stroke-miterlimit="10" stroke-width="2"/><path fill="rgb(69,90,100)" stroke="rgb(76,175,80)" paint-order="fill stroke markers" d=" M 489.8125 90.875 L 489.75855334032974 92.24803417523728 L 489.5970459604149 93.61260313820404 L 489.3289736069593 94.96029386747834 L 488.9559890351652 96.28279740156158 L 488.4803918189475 97.57196006638907 L 487.90511417329645 98.81983374544207 L 487.2337028761966 100.0187248825291 L 486.4702974015616 101.16124191511828 L 485.61960439800055 102.2403408457782 L 484.68686867076457 103.24936867076458 L 483.67784084577823 104.18210439800055 L 482.5987419151183 105.03279740156158 L 481.4562248825291 105.79620287619662 L 480.25733374544205 106.46761417329644 L 479.00946006638907 107.04289181894751 L 477.7202974015616 107.51848903516519 L 476.39779386747836 107.89147360695934 L 475.05010313820407 108.1595459604149 L 473.6855341752373 108.32105334032974 L 472.3125 108.375 L 470.9394658247627 108.32105334032974 L 469.57489686179593 108.1595459604149 L 468.22720613252164 107.89147360695934 L 466.9047025984384 107.51848903516519 L 465.61553993361093 107.04289181894751 L 464.36766625455795 106.46761417329644 L 463.1687751174709 105.79620287619662 L 462.0262580848817 105.03279740156158 L 460.94715915422177 104.18210439800055 L 459.93813132923543 103.24936867076458 L 459.00539560199945 102.24034084577822 L 458.1547025984384 101.16124191511828 L 457.3912971238034 100.01872488252911 L 456.71988582670355 98.81983374544207 L 456.1446081810525 97.57196006638907 L 455.6690109648348 96.28279740156158 L 455.2960263930407 94.96029386747834 L 455.0279540395851 93.61260313820404 L 454.86644665967026 92.2480341752373 L 454.8125 90.875 L 454.86644665967026 89.50196582476272 L 455.0279540395851 88.13739686179596 L 455.2960263930407 86.78970613252166 L 455.6690109648348 85.46720259843842 L 456.1446081810525 84.17803993361093 L 456.71988582670355 82.93016625455793 L 457.3912971238034 81.7312751174709 L 458.1547025984384 80.58875808488172 L 459.00539560199945 79.5096591542218 L 459.93813132923543 78.50063132923542 L 460.94715915422177 77.56789560199947 L 462.0262580848817 76.71720259843842 L 463.1687751174709 75.95379712380338 L 464.36766625455795 75.28238582670356 L 465.61553993361093 74.70710818105248 L 466.90470259843846 74.2315109648348 L 468.2272061325217 73.85852639304065 L 469.574896861796 73.59045403958508 L 470.93946582476275 73.42894665967026 L 472.31250000000006 73.375 L 473.68553417523736 73.42894665967026 L 475.0501031382041 73.5904540395851 L 476.3977938674784 73.85852639304068 L 477.72029740156165 74.23151096483484 L 479.0094600663892 74.70710818105252 L 480.25733374544217 75.2823858267036 L 481.4562248825292 75.95379712380344 L 482.59874191511835 76.71720259843849 L 483.6778408457783 77.56789560199954 L 484.6868686707647 78.50063132923552 L 485.61960439800066 79.5096591542219 L 486.47029740156165 80.58875808488185 L 487.2337028761967 81.73127511747103 L 487.9051141732965 82.93016625455807 L 488.48039181894757 84.17803993361109 L 488.95598903516526 85.46720259843859 L 489.3289736069594 86.78970613252184 L 489.59704596041496 88.13739686179616 L 489.75855334032974 89.50196582476292 Z" fill-opacity="1" stroke-opacity="1" stroke-miterlimit="10" stroke-width="2"/><text fill="rgb(255,255,255)" stroke="none" font-family="times new roman" font-size="10px" font-style="normal" font-weight="normal" text-decoration="normal" x="472.3125" y="95.875" text-anchor="middle" dominant-baseline="text-after-edge" fill-opacity="1">*34.1</text><path fill="rgb(69,90,100)" stroke="rgb(76,175,80)" paint-order="fill stroke markers" d=" M 756.8125 375.5 L 756.7585533403297 376.8730341752373 L 756.5970459604149 378.23760313820407 L 756.3289736069594 379.58529386747836 L 755.9559890351652 380.9077974015616 L 755.4803918189475 382.19696006638907 L 754.9051141732964 383.44483374544205 L 754.2337028761966 384.6437248825291 L 753.4702974015615 385.7862419151183 L 752.6196043980005 386.86534084577823 L 751.6868686707646 387.87436867076457 L 750.6778408457782 388.80710439800055 L 749.5987419151182 389.6577974015616 L 748.4562248825291 390.4212028761966 L 747.2573337454421 391.09261417329645 L 746.0094600663891 391.6678918189475 L 744.7202974015615 392.1434890351652 L 743.3977938674783 392.5164736069593 L 742.050103138204 392.7845459604149 L 740.6855341752373 392.94605334032974 L 739.3125 393 L 737.9394658247627 392.94605334032974 L 736.574896861796 392.7845459604149 L 735.2272061325217 392.5164736069593 L 733.9047025984385 392.1434890351652 L 732.6155399336109 391.6678918189475 L 731.3676662545579 391.09261417329645 L 730.1687751174709 390.4212028761966 L 729.0262580848818 389.6577974015616 L 727.9471591542218 388.80710439800055 L 726.9381313292354 387.87436867076457 L 726.0053956019995 386.86534084577823 L 725.1547025984385 385.7862419151183 L 724.3912971238034 384.6437248825291 L 723.7198858267036 383.44483374544205 L 723.1446081810525 382.19696006638907 L 722.6690109648348 380.9077974015616 L 722.2960263930406 379.58529386747836 L 722.0279540395851 378.23760313820407 L 721.8664466596703 376.8730341752373 L 721.8125 375.5 L 721.8664466596703 374.1269658247627 L 722.0279540395851 372.76239686179593 L 722.2960263930406 371.41470613252164 L 722.6690109648348 370.0922025984384 L 723.1446081810525 368.80303993361093 L 723.7198858267036 367.55516625455795 L 724.3912971238034 366.3562751174709 L 725.1547025984385 365.2137580848817 L 726.0053956019995 364.13465915422177 L 726.9381313292354 363.12563132923543 L 727.9471591542218 362.19289560199945 L 729.0262580848818 361.3422025984384 L 730.1687751174709 360.5787971238034 L 731.3676662545579 359.90738582670355 L 732.615539933611 359.3321081810525 L 733.9047025984385 358.8565109648348 L 735.2272061325217 358.4835263930407 L 736.574896861796 358.2154540395851 L 737.9394658247628 358.05394665967026 L 739.3125000000001 358 L 740.6855341752373 358.05394665967026 L 742.0501031382041 358.2154540395851 L 743.3977938674784 358.4835263930407 L 744.7202974015617 358.85651096483485 L 746.0094600663891 359.3321081810525 L 747.2573337454421 359.9073858267036 L 748.4562248825292 360.57879712380344 L 749.5987419151184 361.3422025984385 L 750.6778408457783 362.19289560199957 L 751.6868686707646 363.1256313292355 L 752.6196043980007 364.1346591542219 L 753.4702974015617 365.2137580848818 L 754.2337028761967 366.35627511747106 L 754.9051141732965 367.55516625455806 L 755.4803918189476 368.8030399336111 L 755.9559890351652 370.0922025984386 L 756.3289736069594 371.4147061325218 L 756.5970459604149 372.76239686179616 L 756.7585533403297 374.1269658247629 Z" fill-opacity="1" stroke-opacity="1" stroke-miterlimit="10" stroke-width="6"/><text fill="rgb(255,255,255)" stroke="none" font-family="times new roman" font-size="10px" font-style="normal" font-weight="normal" text-decoration="normal" x="739.3125" y="380.5" text-anchor="middle" dominant-baseline="text-after-edge" fill-opacity="1">*1.58</text><path fill="rgb(69,90,100)" stroke="rgb(76,175,80)" paint-order="fill stroke markers" d=" M 749.1875 230.125 L 749.1875 250.125 L 844.1875 250.125 L 844.1875 230.125 Z" fill-opacity="1" stroke-opacity="1" stroke-miterlimit="10" stroke-width="6"/><text fill="rgb(255,255,255)" stroke="none" font-family="times new roman" font-size="10px" font-style="normal" font-weight="normal" text-decoration="normal" x="796.6875" y="245.125" text-anchor="middle" dominant-baseline="text-after-edge" fill-opacity="1">42130482C&gt;A</text><path fill="rgb(69,90,100)" stroke="rgb(76,175,80)" paint-order="fill stroke markers" d=" M 309.8125 90.875 L 309.75855334032974 92.24803417523728 L 309.5970459604149 93.61260313820404 L 309.3289736069593 94.96029386747834 L 308.9559890351652 96.28279740156158 L 308.4803918189475 97.57196006638907 L 307.90511417329645 98.81983374544207 L 307.2337028761966 100.0187248825291 L 306.4702974015616 101.16124191511828 L 305.61960439800055 102.2403408457782 L 304.68686867076457 103.24936867076458 L 303.67784084577823 104.18210439800055 L 302.5987419151183 105.03279740156158 L 301.4562248825291 105.79620287619662 L 300.25733374544205 106.46761417329644 L 299.00946006638907 107.04289181894751 L 297.7202974015616 107.51848903516519 L 296.39779386747836 107.89147360695934 L 295.05010313820407 108.1595459604149 L 293.6855341752373 108.32105334032974 L 292.3125 108.375 L 290.9394658247627 108.32105334032974 L 289.57489686179593 108.1595459604149 L 288.22720613252164 107.89147360695934 L 286.9047025984384 107.51848903516519 L 285.61553993361093 107.04289181894751 L 284.36766625455795 106.46761417329644 L 283.1687751174709 105.79620287619662 L 282.0262580848817 105.03279740156158 L 280.94715915422177 104.18210439800055 L 279.93813132923543 103.24936867076458 L 279.00539560199945 102.24034084577822 L 278.1547025984384 101.16124191511828 L 277.3912971238034 100.01872488252911 L 276.71988582670355 98.81983374544207 L 276.1446081810525 97.57196006638907 L 275.6690109648348 96.28279740156158 L 275.2960263930407 94.96029386747834 L 275.0279540395851 93.61260313820404 L 274.86644665967026 92.2480341752373 L 274.8125 90.875 L 274.86644665967026 89.50196582476272 L 275.0279540395851 88.13739686179596 L 275.2960263930407 86.78970613252166 L 275.6690109648348 85.46720259843842 L 276.1446081810525 84.17803993361093 L 276.71988582670355 82.93016625455793 L 277.3912971238034 81.7312751174709 L 278.1547025984384 80.58875808488172 L 279.00539560199945 79.5096591542218 L 279.93813132923543 78.50063132923542 L 280.94715915422177 77.56789560199947 L 282.0262580848817 76.71720259843842 L 283.1687751174709 75.95379712380338 L 284.36766625455795 75.28238582670356 L 285.61553993361093 74.70710818105248 L 286.90470259843846 74.2315109648348 L 288.2272061325217 73.85852639304065 L 289.574896861796 73.59045403958508 L 290.93946582476275 73.42894665967026 L 292.31250000000006 73.375 L 293.68553417523736 73.42894665967026 L 295.0501031382041 73.5904540395851 L 296.3977938674784 73.85852639304068 L 297.72029740156165 74.23151096483484 L 299.0094600663892 74.70710818105252 L 300.25733374544217 75.2823858267036 L 301.4562248825292 75.95379712380344 L 302.59874191511835 76.71720259843849 L 303.6778408457783 77.56789560199954 L 304.6868686707647 78.50063132923552 L 305.61960439800066 79.5096591542219 L 306.47029740156165 80.58875808488185 L 307.2337028761967 81.73127511747103 L 307.9051141732965 82.93016625455807 L 308.48039181894757 84.17803993361109 L 308.95598903516526 85.46720259843859 L 309.3289736069594 86.78970613252184 L 309.59704596041496 88.13739686179616 L 309.75855334032974 89.50196582476292 Z" fill-opacity="1" stroke-opacity="1" stroke-miterlimit="10" stroke-width="6"/><text fill="rgb(255,255,255)" stroke="none" font-family="times new roman" font-size="10px" font-style="normal" font-weight="normal" text-decoration="normal" x="292.3125" y="95.875" text-anchor="middle" dominant-baseline="text-after-edge" fill-opacity="1">*39.2</text><path fill="rgb(69,90,100)" stroke="rgb(76,175,80)" paint-order="fill stroke markers" d=" M 932.1875 230.125 L 932.1875 250.125 L 1027.1875 250.125 L 1027.1875 230.125 Z" fill-opacity="1" stroke-opacity="1" stroke-miterlimit="10" stroke-width="2"/><text fill="rgb(255,255,255)" stroke="none" font-family="times new roman" font-size="10px" font-style="normal" font-weight="normal" text-decoration="normal" x="979.6875" y="245.125" text-anchor="middle" dominant-baseline="text-after-edge" fill-opacity="1">42130047G&gt;C</text><path fill="rgb(69,90,100)" stroke="rgb(76,175,80)" paint-order="fill stroke markers" d=" M 450.1875 164.375 L 450.1181400089954 166.1403296538765 L 449.9104876633906 167.89477546340518 L 449.56582320894773 169.62752068675786 L 449.08627161664094 171.32788237343632 L 448.47478948150393 172.98537722821453 L 447.7351467942383 174.58978624413982 L 446.87190369796707 176.13121770610886 L 445.8903823734363 177.60016817658064 L 444.7966342260007 178.98758108742913 L 443.59740257669733 180.2849025766973 L 442.30008108742913 181.4841342260007 L 440.91266817658067 182.57788237343632 L 439.4437177061088 183.55940369796707 L 437.9022862441398 184.4226467942383 L 436.29787722821453 185.16228948150396 L 434.6403823734363 185.77377161664094 L 432.94002068675786 186.25332320894773 L 431.2072754634052 186.5979876633906 L 429.4528296538765 186.80564000899537 L 427.6875 186.875 L 425.9221703461235 186.80564000899537 L 424.1677245365948 186.5979876633906 L 422.43497931324214 186.25332320894773 L 420.7346176265637 185.77377161664094 L 419.07712277178547 185.16228948150396 L 417.4727137558602 184.4226467942383 L 415.9312822938912 183.55940369796707 L 414.46233182341933 182.57788237343632 L 413.07491891257087 181.4841342260007 L 411.77759742330267 180.28490257669733 L 410.5783657739993 178.98758108742913 L 409.4846176265637 177.60016817658064 L 408.50309630203293 176.13121770610886 L 407.6398532057617 174.58978624413982 L 406.90021051849607 172.98537722821453 L 406.28872838335906 171.32788237343632 L 405.80917679105227 169.62752068675786 L 405.4645123366094 167.8947754634052 L 405.2568599910046 166.1403296538765 L 405.1875 164.375 L 405.2568599910046 162.6096703461235 L 405.4645123366094 160.85522453659482 L 405.80917679105227 159.12247931324214 L 406.28872838335906 157.42211762656368 L 406.90021051849607 155.76462277178547 L 407.6398532057617 154.1602137558602 L 408.50309630203293 152.61878229389114 L 409.4846176265637 151.14983182341936 L 410.5783657739993 149.76241891257087 L 411.77759742330267 148.4650974233027 L 413.07491891257087 147.2658657739993 L 414.46233182341933 146.17211762656368 L 415.9312822938912 145.19059630203293 L 417.47271375586024 144.3273532057617 L 419.0771227717855 143.58771051849604 L 420.7346176265637 142.97622838335903 L 422.4349793132422 142.49667679105227 L 424.16772453659485 142.1520123366094 L 425.92217034612355 141.9443599910046 L 427.68750000000006 141.875 L 429.4528296538766 141.94435999100463 L 431.20727546340527 142.1520123366094 L 432.940020686758 142.4966767910523 L 434.6403823734364 142.97622838335909 L 436.29787722821465 143.5877105184961 L 437.90228624413993 144.3273532057618 L 439.443717706109 145.190596302033 L 440.9126681765808 146.17211762656376 L 442.30008108742925 147.26586577399942 L 443.59740257669745 148.4650974233028 L 444.79663422600083 149.762418912571 L 445.8903823734364 151.1498318234195 L 446.8719036979672 152.61878229389131 L 447.7351467942384 154.16021375586038 L 448.47478948150405 155.7646227717857 L 449.08627161664106 157.4221176265639 L 449.5658232089478 159.12247931324237 L 449.91048766339065 160.85522453659505 L 450.1181400089954 162.60967034612375 Z" fill-opacity="1" stroke-opacity="1" stroke-miterlimit="10" stroke-width="2"/><text fill="rgb(255,255,255)" stroke="none" font-family="times new roman" font-size="15px" font-style="normal" font-weight="normal" text-decoration="normal" x="427.6875" y="171.875" text-anchor="middle" dominant-baseline="text-after-edge" fill-opacity="1">*34</text><path fill="rgb(69,90,100)" stroke="rgb(76,175,80)" paint-order="fill stroke markers" d=" M 1091.4375 230.125 L 1133.9375 230.125 L 1133.9375 230.125 A 5 5 0 0 1 1138.9375 235.125 L 1138.9375 245.125 L 1138.9375 245.125 A 5 5 0 0 1 1133.9375 250.125 L 1048.9375 250.125 L 1048.9375 250.125 A 5 5 0 0 1 1043.9375 245.125 L 1043.9375 235.125 L 1043.9375 235.125 A 5 5 0 0 1 1048.9375 230.125 L 1091.4375 230.125 Z" fill-opacity="1" stroke-opacity="1" stroke-miterlimit="10" stroke-width="2"/><text fill="rgb(255,255,255)" stroke="none" font-family="times new roman" font-size="10px" font-style="normal" font-weight="normal" text-decoration="normal" x="1091.4375" y="245.125" text-anchor="middle" dominant-baseline="text-after-edge" fill-opacity="1">42132049dup</text><path fill="rgb(69,90,100)" stroke="rgb(76,175,80)" paint-order="fill stroke markers" d=" M 450.1875 240.125 L 450.1181400089954 241.8903296538765 L 449.9104876633906 243.64477546340518 L 449.56582320894773 245.37752068675786 L 449.08627161664094 247.07788237343632 L 448.47478948150393 248.73537722821453 L 447.7351467942383 250.33978624413982 L 446.87190369796707 251.88121770610886 L 445.8903823734363 253.35016817658064 L 444.7966342260007 254.73758108742913 L 443.59740257669733 256.03490257669733 L 442.30008108742913 257.2341342260007 L 440.91266817658067 258.3278823734363 L 439.4437177061088 259.30940369796707 L 437.9022862441398 260.1726467942383 L 436.29787722821453 260.91228948150393 L 434.6403823734363 261.52377161664094 L 432.94002068675786 262.00332320894773 L 431.2072754634052 262.3479876633906 L 429.4528296538765 262.5556400089954 L 427.6875 262.625 L 425.9221703461235 262.5556400089954 L 424.1677245365948 262.3479876633906 L 422.43497931324214 262.00332320894773 L 420.7346176265637 261.52377161664094 L 419.07712277178547 260.91228948150393 L 417.4727137558602 260.1726467942383 L 415.9312822938912 259.30940369796707 L 414.46233182341933 258.3278823734363 L 413.07491891257087 257.2341342260007 L 411.77759742330267 256.03490257669733 L 410.5783657739993 254.73758108742913 L 409.4846176265637 253.35016817658064 L 408.50309630203293 251.88121770610886 L 407.6398532057617 250.33978624413982 L 406.90021051849607 248.73537722821453 L 406.28872838335906 247.07788237343632 L 405.80917679105227 245.37752068675786 L 405.4645123366094 243.6447754634052 L 405.2568599910046 241.8903296538765 L 405.1875 240.125 L 405.2568599910046 238.3596703461235 L 405.4645123366094 236.60522453659482 L 405.80917679105227 234.87247931324214 L 406.28872838335906 233.17211762656368 L 406.90021051849607 231.51462277178547 L 407.6398532057617 229.9102137558602 L 408.50309630203293 228.36878229389114 L 409.4846176265637 226.89983182341936 L 410.5783657739993 225.51241891257087 L 411.77759742330267 224.2150974233027 L 413.07491891257087 223.0158657739993 L 414.46233182341933 221.92211762656368 L 415.9312822938912 220.94059630203293 L 417.47271375586024 220.0773532057617 L 419.0771227717855 219.33771051849604 L 420.7346176265637 218.72622838335903 L 422.4349793132422 218.24667679105227 L 424.16772453659485 217.9020123366094 L 425.92217034612355 217.6943599910046 L 427.68750000000006 217.625 L 429.4528296538766 217.69435999100463 L 431.20727546340527 217.9020123366094 L 432.940020686758 218.2466767910523 L 434.6403823734364 218.72622838335909 L 436.29787722821465 219.3377105184961 L 437.90228624413993 220.0773532057618 L 439.443717706109 220.940596302033 L 440.9126681765808 221.92211762656376 L 442.30008108742925 223.01586577399942 L 443.59740257669745 224.2150974233028 L 444.79663422600083 225.512418912571 L 445.8903823734364 226.8998318234195 L 446.8719036979672 228.36878229389131 L 447.7351467942384 229.91021375586038 L 448.47478948150405 231.5146227717857 L 449.08627161664106 233.1721176265639 L 449.5658232089478 234.87247931324237 L 449.91048766339065 236.60522453659505 L 450.1181400089954 238.35967034612375 Z" fill-opacity="1" stroke-opacity="1" stroke-miterlimit="10" stroke-width="2"/><text fill="rgb(255,255,255)" stroke="none" font-family="times new roman" font-size="15px" font-style="normal" font-weight="normal" text-decoration="normal" x="427.6875" y="247.625" text-anchor="middle" dominant-baseline="text-after-edge" fill-opacity="1">*2</text><path fill="rgb(69,90,100)" stroke="rgb(255,193,7)" paint-order="fill stroke markers" d=" M 609.9375 240.125 L 609.8681400089954 241.8903296538765 L 609.6604876633907 243.64477546340518 L 609.3158232089477 245.37752068675786 L 608.8362716166409 247.07788237343632 L 608.224789481504 248.73537722821453 L 607.4851467942383 250.33978624413982 L 606.6219036979671 251.88121770610886 L 605.6403823734363 253.35016817658064 L 604.5466342260007 254.73758108742913 L 603.3474025766973 256.03490257669733 L 602.0500810874291 257.2341342260007 L 600.6626681765806 258.3278823734363 L 599.1937177061088 259.30940369796707 L 597.6522862441398 260.1726467942383 L 596.0478772282145 260.91228948150393 L 594.3903823734363 261.52377161664094 L 592.6900206867579 262.00332320894773 L 590.9572754634052 262.3479876633906 L 589.2028296538765 262.5556400089954 L 587.4375 262.625 L 585.6721703461235 262.5556400089954 L 583.9177245365948 262.3479876633906 L 582.1849793132421 262.00332320894773 L 580.4846176265637 261.52377161664094 L 578.8271227717855 260.91228948150393 L 577.2227137558602 260.1726467942383 L 575.6812822938912 259.30940369796707 L 574.2123318234194 258.3278823734363 L 572.8249189125709 257.2341342260007 L 571.5275974233027 256.03490257669733 L 570.3283657739993 254.73758108742913 L 569.2346176265637 253.35016817658064 L 568.2530963020329 251.88121770610886 L 567.3898532057617 250.33978624413982 L 566.650210518496 248.73537722821453 L 566.0387283833591 247.07788237343632 L 565.5591767910523 245.37752068675786 L 565.2145123366095 243.6447754634052 L 565.0068599910046 241.8903296538765 L 564.9375 240.125 L 565.0068599910046 238.3596703461235 L 565.2145123366093 236.60522453659482 L 565.5591767910523 234.87247931324214 L 566.0387283833591 233.17211762656368 L 566.650210518496 231.51462277178547 L 567.3898532057617 229.9102137558602 L 568.2530963020329 228.36878229389114 L 569.2346176265637 226.89983182341936 L 570.3283657739993 225.51241891257087 L 571.5275974233027 224.2150974233027 L 572.8249189125709 223.0158657739993 L 574.2123318234194 221.92211762656368 L 575.6812822938912 220.94059630203293 L 577.2227137558602 220.0773532057617 L 578.8271227717855 219.33771051849604 L 580.4846176265637 218.72622838335903 L 582.1849793132421 218.24667679105227 L 583.9177245365948 217.9020123366094 L 585.6721703461236 217.6943599910046 L 587.4375000000001 217.625 L 589.2028296538766 217.69435999100463 L 590.9572754634053 217.9020123366094 L 592.690020686758 218.2466767910523 L 594.3903823734364 218.72622838335909 L 596.0478772282146 219.3377105184961 L 597.6522862441399 220.0773532057618 L 599.1937177061089 220.940596302033 L 600.6626681765807 221.92211762656376 L 602.0500810874292 223.01586577399942 L 603.3474025766974 224.2150974233028 L 604.5466342260008 225.512418912571 L 605.6403823734364 226.8998318234195 L 606.6219036979671 228.36878229389131 L 607.4851467942384 229.91021375586038 L 608.224789481504 231.5146227717857 L 608.836271616641 233.1721176265639 L 609.3158232089478 234.87247931324237 L 609.6604876633907 236.60522453659505 L 609.8681400089954 238.35967034612375 Z" fill-opacity="1" stroke-opacity="1" stroke-miterlimit="10" stroke-width="2"/><text fill="rgb(255,255,255)" stroke="none" font-family="times new roman" font-size="15px" font-style="normal" font-weight="normal" text-decoration="normal" x="587.4375" y="247.625" text-anchor="middle" dominant-baseline="text-after-edge" fill-opacity="1">*119</text><path fill="rgb(69,90,100)" stroke="rgb(76,175,80)" paint-order="fill stroke markers" d=" M 268.6875 164.375 L 268.6181400089954 166.1403296538765 L 268.4104876633906 167.89477546340518 L 268.06582320894773 169.62752068675786 L 267.58627161664094 171.32788237343632 L 266.97478948150393 172.98537722821453 L 266.2351467942383 174.58978624413982 L 265.37190369796707 176.13121770610886 L 264.3903823734363 177.60016817658064 L 263.2966342260007 178.98758108742913 L 262.09740257669733 180.2849025766973 L 260.80008108742913 181.4841342260007 L 259.41266817658067 182.57788237343632 L 257.9437177061088 183.55940369796707 L 256.4022862441398 184.4226467942383 L 254.79787722821453 185.16228948150396 L 253.14038237343632 185.77377161664094 L 251.44002068675786 186.25332320894773 L 249.70727546340518 186.5979876633906 L 247.9528296538765 186.80564000899537 L 246.1875 186.875 L 244.4221703461235 186.80564000899537 L 242.66772453659482 186.5979876633906 L 240.93497931324214 186.25332320894773 L 239.23461762656368 185.77377161664094 L 237.57712277178547 185.16228948150396 L 235.9727137558602 184.4226467942383 L 234.43128229389114 183.55940369796707 L 232.96233182341936 182.57788237343632 L 231.57491891257087 181.4841342260007 L 230.2775974233027 180.28490257669733 L 229.0783657739993 178.98758108742913 L 227.98461762656368 177.60016817658064 L 227.00309630203293 176.13121770610886 L 226.1398532057617 174.58978624413982 L 225.40021051849604 172.98537722821453 L 224.78872838335906 171.32788237343632 L 224.30917679105227 169.62752068675786 L 223.9645123366094 167.8947754634052 L 223.75685999100463 166.1403296538765 L 223.6875 164.375 L 223.75685999100463 162.6096703461235 L 223.9645123366094 160.85522453659482 L 224.30917679105227 159.12247931324214 L 224.78872838335906 157.42211762656368 L 225.40021051849604 155.76462277178547 L 226.1398532057617 154.1602137558602 L 227.00309630203293 152.61878229389114 L 227.98461762656368 151.14983182341936 L 229.0783657739993 149.76241891257087 L 230.27759742330267 148.4650974233027 L 231.57491891257087 147.2658657739993 L 232.96233182341936 146.17211762656368 L 234.43128229389114 145.19059630203293 L 235.9727137558602 144.3273532057617 L 237.5771227717855 143.58771051849604 L 239.2346176265637 142.97622838335903 L 240.93497931324217 142.49667679105227 L 242.66772453659485 142.1520123366094 L 244.42217034612355 141.9443599910046 L 246.18750000000009 141.875 L 247.9528296538766 141.94435999100463 L 249.7072754634053 142.1520123366094 L 251.44002068675798 142.4966767910523 L 253.14038237343644 142.97622838335909 L 254.79787722821465 143.5877105184961 L 256.40228624413993 144.3273532057618 L 257.943717706109 145.190596302033 L 259.4126681765808 146.17211762656376 L 260.80008108742925 147.26586577399942 L 262.09740257669745 148.4650974233028 L 263.29663422600083 149.762418912571 L 264.3903823734364 151.1498318234195 L 265.3719036979672 152.61878229389131 L 266.2351467942384 154.16021375586038 L 266.97478948150405 155.7646227717857 L 267.58627161664106 157.4221176265639 L 268.0658232089478 159.12247931324237 L 268.41048766339065 160.85522453659505 L 268.6181400089954 162.60967034612375 Z" fill-opacity="1" stroke-opacity="1" stroke-miterlimit="10" stroke-width="6"/><text fill="rgb(255,255,255)" stroke="none" font-family="times new roman" font-size="15px" font-style="normal" font-weight="normal" text-decoration="normal" x="246.1875" y="171.875" text-anchor="middle" dominant-baseline="text-after-edge" fill-opacity="1">*39</text><path fill="rgb(69,90,100)" stroke="rgb(76,175,80)" paint-order="fill stroke markers" d=" M 515.6875 164.375 L 515.6335533403297 165.74803417523728 L 515.4720459604149 167.11260313820404 L 515.2039736069594 168.46029386747836 L 514.8309890351652 169.78279740156157 L 514.3553918189475 171.07196006638907 L 513.7801141732964 172.31983374544205 L 513.1087028761966 173.5187248825291 L 512.3452974015615 174.66124191511827 L 511.49460439800055 175.7403408457782 L 510.56186867076457 176.74936867076457 L 509.55284084577823 177.68210439800055 L 508.4737419151183 178.5327974015616 L 507.3312248825291 179.29620287619662 L 506.13233374544205 179.96761417329643 L 504.88446006638907 180.5428918189475 L 503.5952974015616 181.01848903516517 L 502.27279386747836 181.39147360695935 L 500.92510313820407 181.6595459604149 L 499.5605341752373 181.82105334032974 L 498.1875 181.875 L 496.8144658247627 181.82105334032974 L 495.44989686179593 181.6595459604149 L 494.10220613252164 181.39147360695935 L 492.7797025984384 181.0184890351652 L 491.49053993361093 180.5428918189475 L 490.24266625455795 179.96761417329643 L 489.0437751174709 179.29620287619662 L 487.9012580848817 178.5327974015616 L 486.82215915422177 177.68210439800055 L 485.81313132923543 176.74936867076457 L 484.88039560199945 175.7403408457782 L 484.0297025984384 174.6612419151183 L 483.2662971238034 173.5187248825291 L 482.59488582670355 172.31983374544208 L 482.0196081810525 171.07196006638907 L 481.5440109648348 169.7827974015616 L 481.1710263930407 168.46029386747836 L 480.9029540395851 167.11260313820404 L 480.74144665967026 165.74803417523728 L 480.6875 164.375 L 480.74144665967026 163.00196582476272 L 480.9029540395851 161.63739686179596 L 481.1710263930407 160.28970613252164 L 481.5440109648348 158.96720259843843 L 482.0196081810525 157.67803993361093 L 482.59488582670355 156.43016625455795 L 483.2662971238034 155.2312751174709 L 484.0297025984384 154.08875808488173 L 484.88039560199945 153.0096591542218 L 485.81313132923543 152.00063132923543 L 486.82215915422177 151.06789560199945 L 487.9012580848817 150.21720259843843 L 489.0437751174709 149.45379712380338 L 490.24266625455795 148.78238582670355 L 491.49053993361093 148.2071081810525 L 492.77970259843846 147.7315109648348 L 494.1022061325217 147.35852639304065 L 495.449896861796 147.0904540395851 L 496.81446582476275 146.92894665967026 L 498.18750000000006 146.875 L 499.56053417523736 146.92894665967026 L 500.9251031382041 147.0904540395851 L 502.2727938674784 147.35852639304068 L 503.59529740156165 147.73151096483485 L 504.8844600663892 148.20710818105252 L 506.13233374544217 148.7823858267036 L 507.3312248825292 149.45379712380344 L 508.47374191511835 150.2172025984385 L 509.5528408457783 151.06789560199954 L 510.5618686707647 152.00063132923552 L 511.49460439800066 153.0096591542219 L 512.3452974015617 154.08875808488185 L 513.1087028761967 155.23127511747103 L 513.7801141732965 156.4301662545581 L 514.3553918189476 157.6780399336111 L 514.8309890351652 158.9672025984386 L 515.2039736069594 160.28970613252184 L 515.4720459604149 161.63739686179616 L 515.6335533403297 163.00196582476292 Z" fill-opacity="1" stroke-opacity="1" stroke-miterlimit="10" stroke-width="2"/><text fill="rgb(255,255,255)" stroke="none" font-family="times new roman" font-size="10px" font-style="normal" font-weight="normal" text-decoration="normal" x="498.1875" y="169.375" text-anchor="middle" dominant-baseline="text-after-edge" fill-opacity="1">*2.4</text><path fill="rgb(69,90,100)" stroke="rgb(76,175,80)" paint-order="fill stroke markers" d=" M 634.4375 230.125 L 634.4375 250.125 L 729.4375 250.125 L 729.4375 230.125 Z" fill-opacity="1" stroke-opacity="1" stroke-miterlimit="10" stroke-width="6"/><text fill="rgb(255,255,255)" stroke="none" font-family="times new roman" font-size="10px" font-style="normal" font-weight="normal" text-decoration="normal" x="681.9375" y="245.125" text-anchor="middle" dominant-baseline="text-after-edge" fill-opacity="1">42129950A&gt;C</text><path fill="rgb(69,90,100)" stroke="rgb(76,175,80)" paint-order="fill stroke markers" d=" M 906.4375 240.125 L 906.3835533403297 241.49803417523728 L 906.2220459604149 242.86260313820404 L 905.9539736069594 244.21029386747836 L 905.5809890351652 245.53279740156157 L 905.1053918189475 246.82196006638907 L 904.5301141732964 248.06983374544205 L 903.8587028761966 249.2687248825291 L 903.0952974015615 250.41124191511827 L 902.2446043980005 251.4903408457782 L 901.3118686707646 252.49936867076457 L 900.3028408457782 253.43210439800055 L 899.2237419151182 254.2827974015616 L 898.0812248825291 255.04620287619662 L 896.8823337454421 255.71761417329643 L 895.6344600663891 256.2928918189475 L 894.3452974015615 256.7684890351652 L 893.0227938674783 257.1414736069593 L 891.675103138204 257.4095459604149 L 890.3105341752373 257.57105334032974 L 888.9375 257.625 L 887.5644658247627 257.57105334032974 L 886.199896861796 257.4095459604149 L 884.8522061325217 257.1414736069593 L 883.5297025984385 256.7684890351652 L 882.2405399336109 256.2928918189475 L 880.9926662545579 255.71761417329643 L 879.7937751174709 255.04620287619662 L 878.6512580848818 254.2827974015616 L 877.5721591542218 253.43210439800055 L 876.5631313292354 252.49936867076457 L 875.6303956019995 251.4903408457782 L 874.7797025984385 250.4112419151183 L 874.0162971238034 249.2687248825291 L 873.3448858267036 248.06983374544208 L 872.7696081810525 246.82196006638907 L 872.2940109648348 245.5327974015616 L 871.9210263930406 244.21029386747836 L 871.6529540395851 242.86260313820404 L 871.4914466596703 241.49803417523728 L 871.4375 240.125 L 871.4914466596703 238.75196582476272 L 871.6529540395851 237.38739686179596 L 871.9210263930406 236.03970613252164 L 872.2940109648348 234.71720259843843 L 872.7696081810525 233.42803993361093 L 873.3448858267036 232.18016625455795 L 874.0162971238034 230.9812751174709 L 874.7797025984385 229.83875808488173 L 875.6303956019995 228.7596591542218 L 876.5631313292354 227.75063132923543 L 877.5721591542218 226.81789560199945 L 878.6512580848818 225.96720259843843 L 879.7937751174709 225.20379712380338 L 880.9926662545579 224.53238582670355 L 882.240539933611 223.9571081810525 L 883.5297025984385 223.4815109648348 L 884.8522061325217 223.10852639304065 L 886.199896861796 222.8404540395851 L 887.5644658247628 222.67894665967026 L 888.9375000000001 222.625 L 890.3105341752373 222.67894665967026 L 891.6751031382041 222.8404540395851 L 893.0227938674784 223.10852639304068 L 894.3452974015617 223.48151096483485 L 895.6344600663891 223.95710818105252 L 896.8823337454421 224.5323858267036 L 898.0812248825292 225.20379712380344 L 899.2237419151184 225.9672025984385 L 900.3028408457783 226.81789560199954 L 901.3118686707646 227.75063132923552 L 902.2446043980007 228.7596591542219 L 903.0952974015617 229.83875808488185 L 903.8587028761967 230.98127511747103 L 904.5301141732965 232.1801662545581 L 905.1053918189476 233.4280399336111 L 905.5809890351652 234.7172025984386 L 905.9539736069594 236.03970613252184 L 906.2220459604149 237.38739686179616 L 906.3835533403297 238.75196582476292 Z" fill-opacity="1" stroke-opacity="1" stroke-miterlimit="10" stroke-width="6"/><text fill="rgb(255,255,255)" stroke="none" font-family="times new roman" font-size="10px" font-style="normal" font-weight="normal" text-decoration="normal" x="888.9375" y="245.125" text-anchor="middle" dominant-baseline="text-after-edge" fill-opacity="1">*1.41</text><path fill="rgb(69,90,100)" stroke="rgb(76,175,80)" paint-order="fill stroke markers" d=" M 841.4375 154.375 L 841.4375 174.375 L 936.4375 174.375 L 936.4375 154.375 Z" fill-opacity="1" stroke-opacity="1" stroke-miterlimit="10" stroke-width="6"/><text fill="rgb(255,255,255)" stroke="none" font-family="times new roman" font-size="10px" font-style="normal" font-weight="normal" text-decoration="normal" x="888.9375" y="169.375" text-anchor="middle" dominant-baseline="text-after-edge" fill-opacity="1">42127407T&gt;G</text><path fill="rgb(69,90,100)" stroke="rgb(255,193,7)" paint-order="fill stroke markers" d=" M 335.5625 80.875 L 335.5625 100.875 L 430.5625 100.875 L 430.5625 80.875 Z" fill-opacity="1" stroke-opacity="1" stroke-miterlimit="10" stroke-width="2"/><text fill="rgb(255,255,255)" stroke="none" font-family="times new roman" font-size="10px" font-style="normal" font-weight="normal" text-decoration="normal" x="383.0625" y="95.875" text-anchor="middle" dominant-baseline="text-after-edge" fill-opacity="1">42127941G&gt;A</text><path fill="rgb(69,90,100)" stroke="rgb(255,193,7)" paint-order="fill stroke markers" d=" M 530.0625 375.5 L 529.9931400089954 377.2653296538765 L 529.7854876633907 379.0197754634052 L 529.4408232089477 380.75252068675786 L 528.9612716166409 382.4528823734363 L 528.349789481504 384.11037722821453 L 527.6101467942383 385.7147862441398 L 526.7469036979671 387.2562177061088 L 525.7653823734363 388.72516817658067 L 524.6716342260007 390.11258108742913 L 523.4724025766973 391.40990257669733 L 522.1750810874291 392.6091342260007 L 520.7876681765806 393.7028823734363 L 519.3187177061088 394.68440369796707 L 517.7772862441398 395.5476467942383 L 516.1728772282145 396.28728948150393 L 514.5153823734363 396.89877161664094 L 512.8150206867579 397.37832320894773 L 511.0822754634052 397.7229876633906 L 509.3278296538765 397.9306400089954 L 507.5625 398 L 505.7971703461235 397.9306400089954 L 504.0427245365948 397.7229876633906 L 502.30997931324214 397.37832320894773 L 500.6096176265637 396.89877161664094 L 498.95212277178547 396.28728948150393 L 497.3477137558602 395.5476467942383 L 495.8062822938912 394.68440369796707 L 494.33733182341933 393.7028823734363 L 492.94991891257087 392.6091342260007 L 491.65259742330267 391.40990257669733 L 490.4533657739993 390.11258108742913 L 489.3596176265637 388.72516817658067 L 488.37809630203293 387.2562177061088 L 487.5148532057617 385.7147862441398 L 486.77521051849607 384.11037722821453 L 486.16372838335906 382.4528823734363 L 485.68417679105227 380.75252068675786 L 485.3395123366094 379.0197754634052 L 485.1318599910046 377.2653296538765 L 485.0625 375.5 L 485.1318599910046 373.7346703461235 L 485.3395123366094 371.9802245365948 L 485.68417679105227 370.24747931324214 L 486.16372838335906 368.5471176265637 L 486.77521051849607 366.88962277178547 L 487.5148532057617 365.2852137558602 L 488.37809630203293 363.7437822938912 L 489.3596176265637 362.27483182341933 L 490.4533657739993 360.88741891257087 L 491.65259742330267 359.59009742330267 L 492.94991891257087 358.39086577399934 L 494.33733182341933 357.2971176265637 L 495.8062822938912 356.31559630203293 L 497.34771375586024 355.4523532057617 L 498.9521227717855 354.712710518496 L 500.6096176265637 354.10122838335906 L 502.3099793132422 353.62167679105227 L 504.04272453659485 353.2770123366094 L 505.79717034612355 353.0693599910046 L 507.56250000000006 353 L 509.3278296538766 353.0693599910046 L 511.08227546340527 353.2770123366094 L 512.815020686758 353.6216767910523 L 514.5153823734364 354.10122838335906 L 516.1728772282146 354.7127105184961 L 517.7772862441399 355.45235320576177 L 519.3187177061089 356.315596302033 L 520.7876681765807 357.29711762656376 L 522.1750810874292 358.3908657739994 L 523.4724025766974 359.5900974233028 L 524.6716342260008 360.887418912571 L 525.7653823734364 362.2748318234195 L 526.7469036979671 363.74378229389134 L 527.6101467942384 365.2852137558604 L 528.349789481504 366.8896227717857 L 528.961271616641 368.54711762656393 L 529.4408232089478 370.24747931324237 L 529.7854876633907 371.9802245365951 L 529.9931400089954 373.7346703461238 Z" fill-opacity="1" stroke-opacity="1" stroke-miterlimit="10" stroke-width="2"/><text fill="rgb(255,255,255)" stroke="none" font-family="times new roman" font-size="15px" font-style="normal" font-weight="normal" text-decoration="normal" x="507.5625" y="383" text-anchor="middle" dominant-baseline="text-after-edge" fill-opacity="1">*41</text><path fill="rgb(3,169,244)" stroke="none" paint-order="stroke fill markers" d=" M 507.5625 343 L 532.0625 343 L 532.0625 343 A 8 8 0 0 1 540.0625 351 L 540.0625 400 L 540.0625 400 A 8 8 0 0 1 532.0625 408 L 483.0625 408 L 483.0625 408 A 8 8 0 0 1 475.0625 400 L 475.0625 351 L 475.0625 351 A 8 8 0 0 1 483.0625 343 L 507.5625 343 Z" fill-opacity="0.15"/><path fill="rgb(69,90,100)" stroke="rgb(255,193,7)" paint-order="fill stroke markers" d=" M 152.5625 80.875 L 152.5625 100.875 L 247.56249999999997 100.875 L 247.5625 80.875 Z" fill-opacity="1" stroke-opacity="1" stroke-miterlimit="10" stroke-width="6"/><text fill="rgb(255,255,255)" stroke="none" font-family="times new roman" font-size="10px" font-style="normal" font-weight="normal" text-decoration="normal" x="200.0625" y="95.875" text-anchor="middle" dominant-baseline="text-after-edge" fill-opacity="1">42126611C&gt;G</text><path fill="rgb(69,90,100)" stroke="rgb(76,175,80)" paint-order="fill stroke markers" d=" M 951.8125 375.5 L 951.7585533403297 376.8730341752373 L 951.5970459604149 378.23760313820407 L 951.3289736069594 379.58529386747836 L 950.9559890351652 380.9077974015616 L 950.4803918189475 382.19696006638907 L 949.9051141732964 383.44483374544205 L 949.2337028761966 384.6437248825291 L 948.4702974015615 385.7862419151183 L 947.6196043980005 386.86534084577823 L 946.6868686707646 387.87436867076457 L 945.6778408457782 388.80710439800055 L 944.5987419151182 389.6577974015616 L 943.4562248825291 390.4212028761966 L 942.2573337454421 391.09261417329645 L 941.0094600663891 391.6678918189475 L 939.7202974015615 392.1434890351652 L 938.3977938674783 392.5164736069593 L 937.050103138204 392.7845459604149 L 935.6855341752373 392.94605334032974 L 934.3125 393 L 932.9394658247627 392.94605334032974 L 931.574896861796 392.7845459604149 L 930.2272061325217 392.5164736069593 L 928.9047025984385 392.1434890351652 L 927.6155399336109 391.6678918189475 L 926.3676662545579 391.09261417329645 L 925.1687751174709 390.4212028761966 L 924.0262580848818 389.6577974015616 L 922.9471591542218 388.80710439800055 L 921.9381313292354 387.87436867076457 L 921.0053956019995 386.86534084577823 L 920.1547025984385 385.7862419151183 L 919.3912971238034 384.6437248825291 L 918.7198858267036 383.44483374544205 L 918.1446081810525 382.19696006638907 L 917.6690109648348 380.9077974015616 L 917.2960263930406 379.58529386747836 L 917.0279540395851 378.23760313820407 L 916.8664466596703 376.8730341752373 L 916.8125 375.5 L 916.8664466596703 374.1269658247627 L 917.0279540395851 372.76239686179593 L 917.2960263930406 371.41470613252164 L 917.6690109648348 370.0922025984384 L 918.1446081810525 368.80303993361093 L 918.7198858267036 367.55516625455795 L 919.3912971238034 366.3562751174709 L 920.1547025984385 365.2137580848817 L 921.0053956019995 364.13465915422177 L 921.9381313292354 363.12563132923543 L 922.9471591542218 362.19289560199945 L 924.0262580848818 361.3422025984384 L 925.1687751174709 360.5787971238034 L 926.3676662545579 359.90738582670355 L 927.615539933611 359.3321081810525 L 928.9047025984385 358.8565109648348 L 930.2272061325217 358.4835263930407 L 931.574896861796 358.2154540395851 L 932.9394658247628 358.05394665967026 L 934.3125000000001 358 L 935.6855341752373 358.05394665967026 L 937.0501031382041 358.2154540395851 L 938.3977938674784 358.4835263930407 L 939.7202974015617 358.85651096483485 L 941.0094600663891 359.3321081810525 L 942.2573337454421 359.9073858267036 L 943.4562248825292 360.57879712380344 L 944.5987419151184 361.3422025984385 L 945.6778408457783 362.19289560199957 L 946.6868686707646 363.1256313292355 L 947.6196043980007 364.1346591542219 L 948.4702974015617 365.2137580848818 L 949.2337028761967 366.35627511747106 L 949.9051141732965 367.55516625455806 L 950.4803918189476 368.8030399336111 L 950.9559890351652 370.0922025984386 L 951.3289736069594 371.4147061325218 L 951.5970459604149 372.76239686179616 L 951.7585533403297 374.1269658247629 Z" fill-opacity="1" stroke-opacity="1" stroke-miterlimit="10" stroke-width="2"/><text fill="rgb(255,255,255)" stroke="none" font-family="times new roman" font-size="10px" font-style="normal" font-weight="normal" text-decoration="normal" x="934.3125" y="380.5" text-anchor="middle" dominant-baseline="text-after-edge" fill-opacity="1">*1.54</text><path fill="rgb(69,90,100)" stroke="rgb(69,90,100)" paint-order="fill stroke markers" d=" M 720.5625 489.625 L 701.8125 507.125 L 720.5625 524.625 L 758.0625 524.625 L 776.8125 507.125 L 758.0625 489.625 Z" fill-opacity="1" stroke-opacity="1" stroke-miterlimit="10" stroke-width="2"/><text fill="rgb(255,255,255)" stroke="none" font-family="times new roman" font-size="10px" font-style="normal" font-weight="normal" text-decoration="normal" x="739.3125" y="512.125" text-anchor="middle" dominant-baseline="text-after-edge" fill-opacity="1">NA18544-B</text><path fill="rgb(69,90,100)" stroke="rgb(244,67,54)" paint-order="fill stroke markers" d=" M 539.9375 154.375 L 539.9375 174.375 L 634.9375 174.375 L 634.9375 154.375 Z" fill-opacity="1" stroke-opacity="1" stroke-miterlimit="10" stroke-width="2"/><text fill="rgb(255,255,255)" stroke="none" font-family="times new roman" font-size="10px" font-style="normal" font-weight="normal" text-decoration="normal" x="587.4375" y="169.375" text-anchor="middle" dominant-baseline="text-after-edge" fill-opacity="1">42127803C&gt;T</text><path fill="rgb(176,190,197)" stroke="none" paint-order="stroke fill markers" d=" M 602.0625 270.5 L 602.0625 480.5 L 677.0625 480.5 L 677.0625 270.50000000000006 Z" fill-opacity="0.8"/><text fill="rgb(0,0,0)" stroke="none" font-family="times new roman" font-size="10px" font-style="normal" font-weight="normal" text-decoration="normal" x="607.0625" y="285.5" text-anchor="start" dominant-baseline="text-after-edge" fill-opacity="0.8">42126310C&gt;T </text><text fill="rgb(0,0,0)" stroke="none" font-family="times new roman" font-size="10px" font-style="normal" font-weight="normal" text-decoration="normal" x="607.0625" y="295.5" text-anchor="start" dominant-baseline="text-after-edge" fill-opacity="0.8">42127001G&gt;A </text><text fill="rgb(0,0,0)" stroke="none" font-family="times new roman" font-size="10px" font-style="normal" font-weight="normal" text-decoration="normal" x="607.0625" y="305.5" text-anchor="start" dominant-baseline="text-after-edge" fill-opacity="0.8">42127207C&gt;T </text><text fill="rgb(0,0,0)" stroke="none" font-family="times new roman" font-size="10px" font-style="normal" font-weight="normal" text-decoration="normal" x="607.0625" y="315.5" text-anchor="start" dominant-baseline="text-after-edge" fill-opacity="0.8">42129130C&gt;G </text><text fill="rgb(0,0,0)" stroke="none" font-family="times new roman" font-size="10px" font-style="normal" font-weight="normal" text-decoration="normal" x="607.0625" y="325.5" text-anchor="start" dominant-baseline="text-after-edge" fill-opacity="0.8">42131469C&gt;T </text><text fill="rgb(0,0,0)" stroke="none" font-family="times new roman" font-size="10px" font-style="normal" font-weight="normal" text-decoration="normal" x="607.0625" y="335.5" text-anchor="start" dominant-baseline="text-after-edge" fill-opacity="0.8">42131531G&gt;A </text><path fill="rgb(176,190,197)" stroke="none" paint-order="stroke fill markers" d=" M 1091.4375 270.5 L 1158.4375 270.5 L 1158.4375 270.5 A 8 8 0 0 1 1166.4375 278.5 L 1166.4375 472.5 L 1166.4375 472.5 A 8 8 0 0 1 1158.4375 480.5 L 1024.4375 480.5 L 1024.4375 480.5 A 8 8 0 0 1 1016.4375 472.5 L 1016.4375 278.5 L 1016.4375 278.5 A 8 8 0 0 1 1024.4375 270.5 L 1091.4375 270.5 Z" fill-opacity="0.8"/><text fill="rgb(0,0,0)" stroke="none" font-family="times new roman" font-size="10px" font-style="normal" font-weight="normal" text-decoration="normal" x="1021.4375" y="285.5" text-anchor="start" dominant-baseline="text-after-edge" fill-opacity="0.8">42125924A&gt;G </text><text fill="rgb(0,0,0)" stroke="none" font-family="times new roman" font-size="10px" font-style="normal" font-weight="normal" text-decoration="normal" x="1021.4375" y="295.5" text-anchor="start" dominant-baseline="text-after-edge" fill-opacity="0.8">42126069A&gt;C </text><text fill="rgb(0,0,0)" stroke="none" font-family="times new roman" font-size="10px" font-style="normal" font-weight="normal" text-decoration="normal" x="1021.4375" y="305.5" text-anchor="start" dominant-baseline="text-after-edge" fill-opacity="0.8">42126136_42126138del </text><text fill="rgb(0,0,0)" stroke="none" font-family="times new roman" font-size="10px" font-style="normal" font-weight="normal" text-decoration="normal" x="1021.4375" y="315.5" text-anchor="start" dominant-baseline="text-after-edge" fill-opacity="0.8">42132027C&gt;T </text><text fill="rgb(0,0,0)" stroke="none" font-family="times new roman" font-size="10px" font-style="normal" font-weight="normal" text-decoration="normal" x="1021.4375" y="325.5" text-anchor="start" dominant-baseline="text-after-edge" fill-opacity="0.8">42132561C&gt;T </text><text fill="rgb(0,0,0)" stroke="none" font-family="times new roman" font-size="10px" font-style="normal" font-weight="normal" text-decoration="normal" x="1021.4375" y="335.5" text-anchor="start" dominant-baseline="text-after-edge" fill-opacity="0.8">42132844C&gt;A </text><text fill="rgb(0,0,0)" stroke="none" font-family="times new roman" font-size="10px" font-style="normal" font-weight="normal" text-decoration="normal" x="1021.4375" y="345.5" text-anchor="start" dominant-baseline="text-after-edge" fill-opacity="0.8">42132851T&gt;C </text><text fill="rgb(0,0,0)" stroke="none" font-family="times new roman" font-size="10px" font-style="normal" font-weight="normal" text-decoration="normal" x="1021.4375" y="355.5" text-anchor="start" dominant-baseline="text-after-edge" fill-opacity="0.8">42133400T&gt;G </text><text fill="rgb(0,0,0)" stroke="none" font-family="times new roman" font-size="10px" font-style="normal" font-weight="normal" text-decoration="normal" x="1021.4375" y="365.5" text-anchor="start" dominant-baseline="text-after-edge" fill-opacity="0.8">42133533A&gt;C </text><text fill="rgb(0,0,0)" stroke="none" font-family="times new roman" font-size="10px" font-style="normal" font-weight="normal" text-decoration="normal" x="1021.4375" y="375.5" text-anchor="start" dominant-baseline="text-after-edge" fill-opacity="0.8">42134096del </text><text fill="rgb(0,0,0)" stroke="none" font-family="times new roman" font-size="10px" font-style="normal" font-weight="normal" text-decoration="normal" x="1021.4375" y="385.5" text-anchor="start" dominant-baseline="text-after-edge" fill-opacity="0.8">42134820T&gt;G </text><text fill="rgb(0,0,0)" stroke="none" font-family="times new roman" font-size="10px" font-style="normal" font-weight="normal" text-decoration="normal" x="1021.4375" y="395.5" text-anchor="start" dominant-baseline="text-after-edge" fill-opacity="0.8">42135064_42135066dup </text><text fill="rgb(0,0,0)" stroke="none" font-family="times new roman" font-size="10px" font-style="normal" font-weight="normal" text-decoration="normal" x="1021.4375" y="405.5" text-anchor="start" dominant-baseline="text-after-edge" fill-opacity="0.8">42135201T&gt;C </text><text fill="rgb(0,0,0)" stroke="none" font-family="times new roman" font-size="10px" font-style="normal" font-weight="normal" text-decoration="normal" x="1021.4375" y="415.5" text-anchor="start" dominant-baseline="text-after-edge" fill-opacity="0.8">42135691T&gt;C </text><g transform="scale(1.0646551724137931,1.0646551724137931) translate(109.5404858299595,-24.09716599190284)"/></g></svg>