<svg version="1.1" xmlns="http://www.w3.org/2000/svg" xmlns:xlink="http://www.w3.org/1999/xlink" width="1017" height="608"><defs/><g transform="translate(-115.85791519863926,76.58024541367999) scale(0.9301421455473211,0.9301421455473211)"><path fill="none" stroke="rgb(120,144,156)" paint-order="fill stroke markers" d=" M 656.9385387811634 157.25 L 691.5195851604063 262.1555272513167" stroke-opacity="1" stroke-linejoin="round" stroke-miterlimit="10"/><path fill="rgb(120,144,156)" stroke="none" paint-order="stroke fill markers" d=" M 685.2906956051843 257.1541839408803 L 692.1457231935374 264.0549880072858 L 693.55334989365 254.43048349676005 Z" fill-opacity="1"/><path fill="none" stroke="rgb(120,144,156)" paint-order="fill stroke markers" d=" M 268.68410138190404 286.8507190310808 L 666.5486660329891 404.00714704494897" stroke-opacity="1" stroke-linejoin="round" stroke-miterlimit="10"/><path fill="rgb(120,144,156)" stroke="none" paint-order="stroke fill markers" d=" M 658.8927683549373 406.28743885592417 L 668.4672175337355 404.5720896429036 L 661.3502686560402 397.94173982767734 Z" fill-opacity="1"/><path fill="none" stroke="rgb(120,144,156)" paint-order="fill stroke markers" d=" M 209.93853878116343 157.25 L 244.5195851604063 262.1555272513167" stroke-opacity="1" stroke-linejoin="round" stroke-miterlimit="10"/><path fill="rgb(120,144,156)" stroke="none" paint-order="stroke fill markers" d=" M 238.29069560518434 257.1541839408803 L 245.1457231935374 264.0549880072858 L 246.55334989364997 254.43048349676005 Z" fill-opacity="1"/><path fill="none" stroke="rgb(120,144,156)" paint-order="fill stroke markers" d=" M 549.4375 325.79446308724835 L 672.3426474336204 398.1765213912764" stroke-opacity="1" stroke-linejoin="round" stroke-miterlimit="10"/><path fill="rgb(120,144,156)" stroke="none" paint-order="stroke fill markers" d=" M 664.3619708789979 398.5248053709521 L 674.0659953114675 399.1914460643039 L 668.7768932066672 391.0282421023171 Z" fill-opacity="1"/><path fill="none" stroke="rgb(55,71,79)" paint-order="fill stroke markers" d=" M 1020.2070069381315 91.38165801990523 L 1042.3688019975086 126.39356954228255" stroke-opacity="1" stroke-linejoin="round" stroke-miterlimit="10" stroke-width="2"/><path fill="none" stroke="rgb(120,144,156)" paint-order="fill stroke markers" d=" M 697.9375 300.125 L 697.9375 392.75" stroke-opacity="1" stroke-linejoin="round" stroke-miterlimit="10"/><path fill="rgb(120,144,156)" stroke="none" paint-order="stroke fill markers" d=" M 693.5875 386.05 L 697.9375 394.75 L 702.2875 386.05 Z" fill-opacity="1"/><path fill="none" stroke="rgb(120,144,156)" paint-order="fill stroke markers" d=" M 895.1617040942137 160.4504993235529 L 1034.6197466211722 266.2159475425277" stroke-opacity="1" stroke-linejoin="round" stroke-miterlimit="10"/><path fill="rgb(120,144,156)" stroke="none" paint-order="stroke fill markers" d=" M 1026.652753451441 265.6332642379331 L 1036.2132959057863 267.4245006764471 L 1031.9099595839903 258.70132484986243 Z" fill-opacity="1"/><path fill="none" stroke="rgb(55,71,79)" paint-order="fill stroke markers" d=" M 841.7070069381315 91.38165801990523 L 863.8688019975086 126.39356954228255" stroke-opacity="1" stroke-linejoin="round" stroke-miterlimit="10" stroke-width="2"/><path fill="none" stroke="rgb(120,144,156)" paint-order="fill stroke markers" d=" M 1032.8884145496277 289.75444221962255 L 727.6390807472947 402.2991020564071" stroke-opacity="1" stroke-linejoin="round" stroke-miterlimit="10"/><path fill="rgb(120,144,156)" stroke="none" paint-order="stroke fill markers" d=" M 732.4206041031302 395.89991973382877 L 725.7625628366247 402.9909694793537 L 735.430227392948 404.0627726452432 Z" fill-opacity="1"/><path fill="none" stroke="rgb(55,71,79)" paint-order="fill stroke markers" d=" M 1092.599734042553 86.75 L 1067.5061980024914 126.39356954228255" stroke-opacity="1" stroke-linejoin="round" stroke-miterlimit="10" stroke-width="2"/><path fill="none" stroke="rgb(55,71,79)" paint-order="fill stroke markers" d=" M 742.5625 86.75 L 742.5625 127.75" stroke-opacity="1" stroke-linejoin="round" stroke-miterlimit="10" stroke-width="2"/><path fill="none" stroke="rgb(120,144,156)" paint-order="fill stroke markers" d=" M 1054.9375 169.75 L 1054.9375 256.125" stroke-opacity="1" stroke-linejoin="round" stroke-miterlimit="10"/><path fill="rgb(120,144,156)" stroke="none" paint-order="stroke fill markers" d=" M 1050.5875 249.425 L 1054.9375 258.125 L 1059.2875 249.425 Z" fill-opacity="1"/><path fill="none" stroke="rgb(120,144,156)" paint-order="fill stroke markers" d=" M 1109.6875 292.61206176961605 L 729.3617571180764 404.04305989278396" stroke-opacity="1" stroke-linejoin="round" stroke-miterlimit="10"/><path fill="rgb(120,144,156)" stroke="none" paint-order="stroke fill markers" d=" M 734.5683843585549 397.98471583036013 L 727.4424403954044 404.60539726311606 L 737.0145519194995 406.3337435739829 Z" fill-opacity="1"/><path fill="none" stroke="rgb(120,144,156)" paint-order="fill stroke markers" d=" M 312.60820637119116 157.25 L 260.0442768703821 263.2588187139222" stroke-opacity="1" stroke-linejoin="round" stroke-miterlimit="10"/><path fill="rgb(120,144,156)" stroke="none" paint-order="stroke fill markers" d=" M 259.1234240136563 255.3237994942694 L 259.15581083424723 265.05064127841763 L 266.91785216921124 259.18862675145596 Z" fill-opacity="1"/><path fill="none" stroke="rgb(120,144,156)" paint-order="fill stroke markers" d=" M 736.7707231935374 163.82001199271423 L 704.3554148395937 262.1555272513167" stroke-opacity="1" stroke-linejoin="round" stroke-miterlimit="10"/><path fill="rgb(120,144,156)" stroke="none" paint-order="stroke fill markers" d=" M 702.32165010635 254.43048349676005 L 703.7292768064626 264.0549880072858 L 710.5843043948157 257.1541839408803 Z" fill-opacity="1"/><path fill="none" stroke="rgb(120,144,156)" paint-order="fill stroke markers" d=" M 433.43853878116346 157.25 L 439.1991736012179 174.7255392440309" stroke-opacity="1" stroke-linejoin="round" stroke-miterlimit="10"/><path fill="rgb(120,144,156)" stroke="none" paint-order="stroke fill markers" d=" M 432.970284045996 169.7241959335945 L 439.825311634349 176.625 L 441.2329383344616 167.00049548947428 Z" fill-opacity="1"/><path fill="none" stroke="rgb(120,144,156)" paint-order="fill stroke markers" d=" M 536.1082063711912 157.25 L 527.3896779474921 174.8331774355046" stroke-opacity="1" stroke-linejoin="round" stroke-miterlimit="10"/><path fill="rgb(120,144,156)" stroke="none" paint-order="stroke fill markers" d=" M 526.4688250907664 166.89815821585177 L 526.5012119113574 176.625 L 534.2632532463214 170.7629854730383 Z" fill-opacity="1"/><path fill="none" stroke="rgb(55,71,79)" paint-order="fill stroke markers" d=" M 914.0997340425532 86.75 L 889.0061980024914 126.39356954228255" stroke-opacity="1" stroke-linejoin="round" stroke-miterlimit="10" stroke-width="2"/><path fill="none" stroke="rgb(55,71,79)" paint-order="fill stroke markers" d=" M 1116.892458126426 162.65829849127772 L 1065.7920126502156 260.7820262408094" stroke-opacity="1" stroke-linejoin="round" stroke-miterlimit="10" stroke-width="2"/><path fill="rgb(69,90,100)" stroke="rgb(76,175,80)" paint-order="fill stroke markers" d=" M 1027.8125 75.75 L 1027.7585533403299 77.12303417523728 L 1027.597045960415 78.48760313820404 L 1027.3289736069594 79.83529386747834 L 1026.9559890351652 81.15779740156158 L 1026.4803918189475 82.44696006638907 L 1025.9051141732964 83.69483374544207 L 1025.2337028761965 84.8937248825291 L 1024.4702974015615 86.03624191511828 L 1023.6196043980005 87.1153408457782 L 1022.6868686707646 88.12436867076458 L 1021.6778408457782 89.05710439800055 L 1020.5987419151182 89.90779740156158 L 1019.4562248825291 90.67120287619662 L 1018.2573337454421 91.34261417329644 L 1017.0094600663891 91.91789181894751 L 1015.7202974015615 92.39348903516519 L 1014.3977938674783 92.76647360695934 L 1013.050103138204 93.0345459604149 L 1011.6855341752373 93.19605334032974 L 1010.3125 93.25 L 1008.9394658247627 93.19605334032974 L 1007.574896861796 93.0345459604149 L 1006.2272061325217 92.76647360695934 L 1004.9047025984385 92.39348903516519 L 1003.6155399336109 91.91789181894751 L 1002.3676662545579 91.34261417329644 L 1001.1687751174709 90.67120287619662 L 1000.0262580848818 89.90779740156158 L 998.9471591542218 89.05710439800055 L 997.9381313292354 88.12436867076458 L 997.0053956019995 87.11534084577822 L 996.1547025984385 86.03624191511828 L 995.3912971238034 84.89372488252911 L 994.7198858267036 83.69483374544207 L 994.1446081810525 82.44696006638907 L 993.6690109648348 81.15779740156158 L 993.2960263930406 79.83529386747834 L 993.0279540395851 78.48760313820404 L 992.8664466596703 77.1230341752373 L 992.8125 75.75 L 992.8664466596703 74.37696582476272 L 993.0279540395851 73.01239686179596 L 993.2960263930406 71.66470613252166 L 993.6690109648348 70.34220259843842 L 994.1446081810525 69.05303993361093 L 994.7198858267036 67.80516625455793 L 995.3912971238034 66.6062751174709 L 996.1547025984385 65.46375808488172 L 997.0053956019995 64.3846591542218 L 997.9381313292354 63.37563132923542 L 998.9471591542218 62.44289560199947 L 1000.0262580848818 61.59220259843842 L 1001.1687751174709 60.82879712380338 L 1002.3676662545579 60.15738582670356 L 1003.615539933611 59.582108181052476 L 1004.9047025984385 59.106510964834804 L 1006.2272061325217 58.73352639304065 L 1007.574896861796 58.46545403958508 L 1008.9394658247628 58.30394665967026 L 1010.3125000000001 58.25 L 1011.6855341752373 58.30394665967027 L 1013.0501031382041 58.4654540395851 L 1014.3977938674784 58.73352639304068 L 1015.7202974015617 59.10651096483484 L 1017.0094600663891 59.58210818105252 L 1018.2573337454421 60.15738582670361 L 1019.4562248825292 60.82879712380345 L 1020.5987419151184 61.59220259843849 L 1021.6778408457783 62.44289560199954 L 1022.6868686707646 63.37563132923552 L 1023.6196043980007 64.3846591542219 L 1024.4702974015618 65.46375808488185 L 1025.2337028761967 66.60627511747103 L 1025.9051141732966 67.80516625455807 L 1026.4803918189475 69.05303993361109 L 1026.9559890351652 70.34220259843859 L 1027.3289736069594 71.66470613252184 L 1027.597045960415 73.01239686179616 L 1027.7585533403299 74.37696582476292 Z" fill-opacity="1" stroke-opacity="1" stroke-miterlimit="10" stroke-width="2"/><text fill="rgb(255,255,255)" stroke="none" font-family="times new roman" font-size="10px" font-style="normal" font-weight="normal" text-decoration="normal" x="1010.3125" y="80.75" text-anchor="middle" dominant-baseline="text-after-edge" fill-opacity="1">*34.1</text><path fill="rgb(69,90,100)" stroke="rgb(69,90,100)" paint-order="fill stroke markers" d=" M 679.1875 395.75 L 660.4375 413.25 L 679.1875 430.75 L 716.6875 430.75 L 735.4375 413.25 L 716.6875 395.75 Z" fill-opacity="1" stroke-opacity="1" stroke-miterlimit="10" stroke-width="2"/><text fill="rgb(255,255,255)" stroke="none" font-family="times new roman" font-size="10px" font-style="normal" font-weight="normal" text-decoration="normal" x="697.9375" y="418.25" text-anchor="middle" dominant-baseline="text-after-edge" fill-opacity="1">NA18966-all</text><path fill="rgb(69,90,100)" stroke="rgb(76,175,80)" paint-order="fill stroke markers" d=" M 715.4375 281.625 L 715.3835533403297 282.9980341752373 L 715.2220459604149 284.36260313820407 L 714.9539736069594 285.71029386747836 L 714.5809890351652 287.0327974015616 L 714.1053918189475 288.32196006638907 L 713.5301141732964 289.56983374544205 L 712.8587028761966 290.7687248825291 L 712.0952974015615 291.9112419151183 L 711.2446043980005 292.99034084577823 L 710.3118686707646 293.99936867076457 L 709.3028408457782 294.93210439800055 L 708.2237419151182 295.7827974015616 L 707.0812248825291 296.5462028761966 L 705.8823337454421 297.21761417329645 L 704.6344600663891 297.7928918189475 L 703.3452974015615 298.2684890351652 L 702.0227938674783 298.6414736069593 L 700.675103138204 298.9095459604149 L 699.3105341752373 299.07105334032974 L 697.9375 299.125 L 696.5644658247627 299.07105334032974 L 695.199896861796 298.9095459604149 L 693.8522061325217 298.6414736069593 L 692.5297025984385 298.2684890351652 L 691.2405399336109 297.7928918189475 L 689.9926662545579 297.21761417329645 L 688.7937751174709 296.5462028761966 L 687.6512580848818 295.7827974015616 L 686.5721591542218 294.93210439800055 L 685.5631313292354 293.99936867076457 L 684.6303956019995 292.99034084577823 L 683.7797025984385 291.9112419151183 L 683.0162971238034 290.7687248825291 L 682.3448858267036 289.56983374544205 L 681.7696081810525 288.32196006638907 L 681.2940109648348 287.0327974015616 L 680.9210263930406 285.71029386747836 L 680.6529540395851 284.36260313820407 L 680.4914466596703 282.9980341752373 L 680.4375 281.625 L 680.4914466596703 280.2519658247627 L 680.6529540395851 278.88739686179593 L 680.9210263930406 277.53970613252164 L 681.2940109648348 276.2172025984384 L 681.7696081810525 274.92803993361093 L 682.3448858267036 273.68016625455795 L 683.0162971238034 272.4812751174709 L 683.7797025984385 271.3387580848817 L 684.6303956019995 270.25965915422177 L 685.5631313292354 269.25063132923543 L 686.5721591542218 268.31789560199945 L 687.6512580848818 267.4672025984384 L 688.7937751174709 266.7037971238034 L 689.9926662545579 266.03238582670355 L 691.240539933611 265.4571081810525 L 692.5297025984385 264.9815109648348 L 693.8522061325217 264.6085263930407 L 695.199896861796 264.3404540395851 L 696.5644658247628 264.17894665967026 L 697.9375000000001 264.125 L 699.3105341752373 264.17894665967026 L 700.6751031382041 264.3404540395851 L 702.0227938674784 264.6085263930407 L 703.3452974015617 264.98151096483485 L 704.6344600663891 265.4571081810525 L 705.8823337454421 266.0323858267036 L 707.0812248825292 266.70379712380344 L 708.2237419151184 267.4672025984385 L 709.3028408457783 268.31789560199957 L 710.3118686707646 269.2506313292355 L 711.2446043980007 270.2596591542219 L 712.0952974015617 271.3387580848818 L 712.8587028761967 272.48127511747106 L 713.5301141732965 273.68016625455806 L 714.1053918189476 274.9280399336111 L 714.5809890351652 276.2172025984386 L 714.9539736069594 277.5397061325218 L 715.2220459604149 278.88739686179616 L 715.3835533403297 280.2519658247629 Z" fill-opacity="1" stroke-opacity="1" stroke-miterlimit="10" stroke-width="2"/><text fill="rgb(255,255,255)" stroke="none" font-family="times new roman" font-size="10px" font-style="normal" font-weight="normal" text-decoration="normal" x="697.9375" y="286.625" text-anchor="middle" dominant-baseline="text-after-edge" fill-opacity="1">*1.54</text><path fill="rgb(69,90,100)" stroke="rgb(76,175,80)" paint-order="fill stroke markers" d=" M 760.0625 146.25 L 760.0085533403297 147.62303417523728 L 759.8470459604149 148.98760313820404 L 759.5789736069594 150.33529386747836 L 759.2059890351652 151.65779740156157 L 758.7303918189475 152.94696006638907 L 758.1551141732964 154.19483374544205 L 757.4837028761966 155.3937248825291 L 756.7202974015615 156.53624191511827 L 755.8696043980005 157.6153408457782 L 754.9368686707646 158.62436867076457 L 753.9278408457782 159.55710439800055 L 752.8487419151182 160.4077974015616 L 751.7062248825291 161.17120287619662 L 750.5073337454421 161.84261417329643 L 749.2594600663891 162.4178918189475 L 747.9702974015615 162.89348903516517 L 746.6477938674783 163.26647360695935 L 745.300103138204 163.5345459604149 L 743.9355341752373 163.69605334032974 L 742.5625 163.75 L 741.1894658247627 163.69605334032974 L 739.824896861796 163.5345459604149 L 738.4772061325217 163.26647360695935 L 737.1547025984385 162.8934890351652 L 735.8655399336109 162.4178918189475 L 734.6176662545579 161.84261417329643 L 733.4187751174709 161.17120287619662 L 732.2762580848818 160.4077974015616 L 731.1971591542218 159.55710439800055 L 730.1881313292354 158.62436867076457 L 729.2553956019995 157.6153408457782 L 728.4047025984385 156.5362419151183 L 727.6412971238034 155.3937248825291 L 726.9698858267036 154.19483374544208 L 726.3946081810525 152.94696006638907 L 725.9190109648348 151.6577974015616 L 725.5460263930406 150.33529386747836 L 725.2779540395851 148.98760313820404 L 725.1164466596703 147.62303417523728 L 725.0625 146.25 L 725.1164466596703 144.87696582476272 L 725.2779540395851 143.51239686179596 L 725.5460263930406 142.16470613252164 L 725.9190109648348 140.84220259843843 L 726.3946081810525 139.55303993361093 L 726.9698858267036 138.30516625455795 L 727.6412971238034 137.1062751174709 L 728.4047025984385 135.96375808488173 L 729.2553956019995 134.8846591542218 L 730.1881313292354 133.87563132923543 L 731.1971591542218 132.94289560199945 L 732.2762580848818 132.09220259843843 L 733.4187751174709 131.32879712380338 L 734.6176662545579 130.65738582670355 L 735.865539933611 130.0821081810525 L 737.1547025984385 129.6065109648348 L 738.4772061325217 129.23352639304065 L 739.824896861796 128.9654540395851 L 741.1894658247628 128.80394665967026 L 742.5625000000001 128.75 L 743.9355341752373 128.80394665967026 L 745.3001031382041 128.9654540395851 L 746.6477938674784 129.23352639304068 L 747.9702974015617 129.60651096483485 L 749.2594600663891 130.08210818105252 L 750.5073337454421 130.6573858267036 L 751.7062248825292 131.32879712380344 L 752.8487419151184 132.0922025984385 L 753.9278408457783 132.94289560199954 L 754.9368686707646 133.87563132923552 L 755.8696043980007 134.8846591542219 L 756.7202974015617 135.96375808488185 L 757.4837028761967 137.10627511747103 L 758.1551141732965 138.3051662545581 L 758.7303918189476 139.5530399336111 L 759.2059890351652 140.8422025984386 L 759.5789736069594 142.16470613252184 L 759.8470459604149 143.51239686179616 L 760.0085533403297 144.87696582476292 Z" fill-opacity="1" stroke-opacity="1" stroke-miterlimit="10" stroke-width="2"/><text fill="rgb(255,255,255)" stroke="none" font-family="times new roman" font-size="10px" font-style="normal" font-weight="normal" text-decoration="normal" x="742.5625" y="151.25" text-anchor="middle" dominant-baseline="text-after-edge" fill-opacity="1">*1.41</text><path fill="rgb(69,90,100)" stroke="rgb(76,175,80)" paint-order="fill stroke markers" d=" M 1142.9375 146.25 L 1142.8835533403299 147.62303417523728 L 1142.722045960415 148.98760313820404 L 1142.4539736069594 150.33529386747836 L 1142.0809890351652 151.65779740156157 L 1141.6053918189475 152.94696006638907 L 1141.0301141732964 154.19483374544205 L 1140.3587028761965 155.3937248825291 L 1139.5952974015615 156.53624191511827 L 1138.7446043980005 157.6153408457782 L 1137.8118686707646 158.62436867076457 L 1136.8028408457783 159.55710439800055 L 1135.7237419151184 160.4077974015616 L 1134.581224882529 161.17120287619662 L 1133.382333745442 161.84261417329643 L 1132.134460066389 162.4178918189475 L 1130.8452974015615 162.89348903516517 L 1129.5227938674784 163.26647360695935 L 1128.1751031382041 163.5345459604149 L 1126.8105341752373 163.69605334032974 L 1125.4375 163.75 L 1124.0644658247627 163.69605334032974 L 1122.6998968617959 163.5345459604149 L 1121.3522061325216 163.26647360695935 L 1120.0297025984385 162.8934890351652 L 1118.740539933611 162.4178918189475 L 1117.492666254558 161.84261417329643 L 1116.293775117471 161.17120287619662 L 1115.1512580848816 160.4077974015616 L 1114.0721591542217 159.55710439800055 L 1113.0631313292354 158.62436867076457 L 1112.1303956019995 157.6153408457782 L 1111.2797025984385 156.5362419151183 L 1110.5162971238035 155.3937248825291 L 1109.8448858267036 154.19483374544208 L 1109.2696081810525 152.94696006638907 L 1108.7940109648348 151.6577974015616 L 1108.4210263930406 150.33529386747836 L 1108.152954039585 148.98760313820404 L 1107.9914466596701 147.62303417523728 L 1107.9375 146.25 L 1107.9914466596701 144.87696582476272 L 1108.152954039585 143.51239686179596 L 1108.4210263930406 142.16470613252164 L 1108.7940109648348 140.84220259843843 L 1109.2696081810525 139.55303993361093 L 1109.8448858267036 138.30516625455795 L 1110.5162971238035 137.1062751174709 L 1111.2797025984385 135.96375808488173 L 1112.1303956019995 134.8846591542218 L 1113.0631313292354 133.87563132923543 L 1114.0721591542217 132.94289560199945 L 1115.1512580848816 132.09220259843843 L 1116.293775117471 131.32879712380338 L 1117.492666254558 130.65738582670355 L 1118.740539933611 130.0821081810525 L 1120.0297025984385 129.6065109648348 L 1121.3522061325216 129.23352639304065 L 1122.699896861796 128.9654540395851 L 1124.0644658247627 128.80394665967026 L 1125.4375 128.75 L 1126.8105341752373 128.80394665967026 L 1128.1751031382041 128.9654540395851 L 1129.5227938674784 129.23352639304068 L 1130.8452974015618 129.60651096483485 L 1132.1344600663892 130.08210818105252 L 1133.382333745442 130.6573858267036 L 1134.581224882529 131.32879712380344 L 1135.7237419151184 132.0922025984385 L 1136.8028408457783 132.94289560199954 L 1137.8118686707646 133.87563132923552 L 1138.7446043980005 134.8846591542219 L 1139.5952974015618 135.96375808488185 L 1140.3587028761967 137.10627511747103 L 1141.0301141732966 138.3051662545581 L 1141.6053918189475 139.5530399336111 L 1142.0809890351652 140.8422025984386 L 1142.4539736069594 142.16470613252184 L 1142.722045960415 143.51239686179616 L 1142.8835533403299 144.87696582476292 Z" fill-opacity="1" stroke-opacity="1" stroke-miterlimit="10" stroke-width="2"/><text fill="rgb(255,255,255)" stroke="none" font-family="times new roman" font-size="10px" font-style="normal" font-weight="normal" text-decoration="normal" x="1125.4375" y="151.25" text-anchor="middle" dominant-baseline="text-after-edge" fill-opacity="1">*2.4</text><path fill="rgb(69,90,100)" stroke="rgb(158,158,158)" paint-order="fill stroke markers" d=" M 873.5625 65.75 L 873.5625 85.75 L 968.5625 85.75 L 968.5625 65.75 Z" fill-opacity="1" stroke-opacity="1" stroke-miterlimit="10" stroke-width="2"/><text fill="rgb(255,255,255)" stroke="none" font-family="times new roman" font-size="10px" font-style="normal" font-weight="normal" text-decoration="normal" x="921.0625" y="80.75" text-anchor="middle" dominant-baseline="text-after-edge" fill-opacity="1">42126611C&gt;G</text><path fill="rgb(69,90,100)" stroke="rgb(76,175,80)" paint-order="fill stroke markers" d=" M 849.3125 75.75 L 849.2585533403297 77.12303417523728 L 849.0970459604149 78.48760313820404 L 848.8289736069594 79.83529386747834 L 848.4559890351652 81.15779740156158 L 847.9803918189475 82.44696006638907 L 847.4051141732964 83.69483374544207 L 846.7337028761966 84.8937248825291 L 845.9702974015615 86.03624191511828 L 845.1196043980005 87.1153408457782 L 844.1868686707646 88.12436867076458 L 843.1778408457782 89.05710439800055 L 842.0987419151182 89.90779740156158 L 840.9562248825291 90.67120287619662 L 839.7573337454421 91.34261417329644 L 838.5094600663891 91.91789181894751 L 837.2202974015615 92.39348903516519 L 835.8977938674783 92.76647360695934 L 834.550103138204 93.0345459604149 L 833.1855341752373 93.19605334032974 L 831.8125 93.25 L 830.4394658247627 93.19605334032974 L 829.074896861796 93.0345459604149 L 827.7272061325217 92.76647360695934 L 826.4047025984385 92.39348903516519 L 825.1155399336109 91.91789181894751 L 823.8676662545579 91.34261417329644 L 822.6687751174709 90.67120287619662 L 821.5262580848818 89.90779740156158 L 820.4471591542218 89.05710439800055 L 819.4381313292354 88.12436867076458 L 818.5053956019995 87.11534084577822 L 817.6547025984385 86.03624191511828 L 816.8912971238034 84.89372488252911 L 816.2198858267036 83.69483374544207 L 815.6446081810525 82.44696006638907 L 815.1690109648348 81.15779740156158 L 814.7960263930406 79.83529386747834 L 814.5279540395851 78.48760313820404 L 814.3664466596703 77.1230341752373 L 814.3125 75.75 L 814.3664466596703 74.37696582476272 L 814.5279540395851 73.01239686179596 L 814.7960263930406 71.66470613252166 L 815.1690109648348 70.34220259843842 L 815.6446081810525 69.05303993361093 L 816.2198858267036 67.80516625455793 L 816.8912971238034 66.6062751174709 L 817.6547025984385 65.46375808488172 L 818.5053956019995 64.3846591542218 L 819.4381313292354 63.37563132923542 L 820.4471591542218 62.44289560199947 L 821.5262580848818 61.59220259843842 L 822.6687751174709 60.82879712380338 L 823.8676662545579 60.15738582670356 L 825.115539933611 59.582108181052476 L 826.4047025984385 59.106510964834804 L 827.7272061325217 58.73352639304065 L 829.074896861796 58.46545403958508 L 830.4394658247628 58.30394665967026 L 831.8125000000001 58.25 L 833.1855341752373 58.30394665967027 L 834.5501031382041 58.4654540395851 L 835.8977938674784 58.73352639304068 L 837.2202974015617 59.10651096483484 L 838.5094600663891 59.58210818105252 L 839.7573337454421 60.15738582670361 L 840.9562248825292 60.82879712380345 L 842.0987419151184 61.59220259843849 L 843.1778408457783 62.44289560199954 L 844.1868686707646 63.37563132923552 L 845.1196043980007 64.3846591542219 L 845.9702974015617 65.46375808488185 L 846.7337028761967 66.60627511747103 L 847.4051141732965 67.80516625455807 L 847.9803918189476 69.05303993361109 L 848.4559890351652 70.34220259843859 L 848.8289736069594 71.66470613252184 L 849.0970459604149 73.01239686179616 L 849.2585533403297 74.37696582476292 Z" fill-opacity="1" stroke-opacity="1" stroke-miterlimit="10" stroke-width="2"/><text fill="rgb(255,255,255)" stroke="none" font-family="times new roman" font-size="10px" font-style="normal" font-weight="normal" text-decoration="normal" x="831.8125" y="80.75" text-anchor="middle" dominant-baseline="text-after-edge" fill-opacity="1">*39.2</text><path fill="rgb(69,90,100)" stroke="rgb(76,175,80)" paint-order="fill stroke markers" d=" M 268.4375 281.625 L 268.38355334032974 282.9980341752373 L 268.2220459604149 284.36260313820407 L 267.9539736069593 285.71029386747836 L 267.5809890351652 287.0327974015616 L 267.1053918189475 288.32196006638907 L 266.53011417329645 289.56983374544205 L 265.8587028761966 290.7687248825291 L 265.0952974015616 291.9112419151183 L 264.24460439800055 292.99034084577823 L 263.31186867076457 293.99936867076457 L 262.30284084577823 294.93210439800055 L 261.2237419151183 295.7827974015616 L 260.0812248825291 296.5462028761966 L 258.88233374544205 297.21761417329645 L 257.63446006638907 297.7928918189475 L 256.3452974015616 298.2684890351652 L 255.02279386747836 298.6414736069593 L 253.67510313820404 298.9095459604149 L 252.31053417523728 299.07105334032974 L 250.9375 299.125 L 249.56446582476272 299.07105334032974 L 248.19989686179596 298.9095459604149 L 246.85220613252164 298.6414736069593 L 245.52970259843843 298.2684890351652 L 244.24053993361093 297.7928918189475 L 242.99266625455795 297.21761417329645 L 241.7937751174709 296.5462028761966 L 240.65125808488173 295.7827974015616 L 239.5721591542218 294.93210439800055 L 238.56313132923543 293.99936867076457 L 237.63039560199945 292.99034084577823 L 236.77970259843843 291.9112419151183 L 236.01629712380338 290.7687248825291 L 235.34488582670357 289.56983374544205 L 234.7696081810525 288.32196006638907 L 234.29401096483483 287.0327974015616 L 233.92102639304065 285.71029386747836 L 233.6529540395851 284.36260313820407 L 233.49144665967026 282.9980341752373 L 233.4375 281.625 L 233.49144665967026 280.2519658247627 L 233.6529540395851 278.88739686179593 L 233.92102639304065 277.53970613252164 L 234.2940109648348 276.2172025984384 L 234.7696081810525 274.92803993361093 L 235.34488582670357 273.68016625455795 L 236.01629712380338 272.4812751174709 L 236.7797025984384 271.3387580848817 L 237.63039560199945 270.25965915422177 L 238.5631313292354 269.25063132923543 L 239.57215915422177 268.31789560199945 L 240.6512580848817 267.4672025984384 L 241.7937751174709 266.7037971238034 L 242.99266625455795 266.03238582670355 L 244.24053993361096 265.4571081810525 L 245.52970259843843 264.9815109648348 L 246.8522061325217 264.6085263930407 L 248.199896861796 264.3404540395851 L 249.56446582476278 264.17894665967026 L 250.93750000000006 264.125 L 252.31053417523736 264.17894665967026 L 253.67510313820412 264.3404540395851 L 255.0227938674784 264.6085263930407 L 256.34529740156165 264.98151096483485 L 257.6344600663892 265.4571081810525 L 258.88233374544217 266.0323858267036 L 260.0812248825292 266.70379712380344 L 261.22374191511835 267.4672025984385 L 262.3028408457783 268.31789560199957 L 263.3118686707647 269.2506313292355 L 264.24460439800066 270.2596591542219 L 265.09529740156165 271.3387580848818 L 265.8587028761967 272.48127511747106 L 266.5301141732965 273.68016625455806 L 267.10539181894757 274.9280399336111 L 267.58098903516526 276.2172025984386 L 267.9539736069594 277.5397061325218 L 268.22204596041496 278.88739686179616 L 268.38355334032974 280.2519658247629 Z" fill-opacity="1" stroke-opacity="1" stroke-miterlimit="10" stroke-width="2"/><text fill="rgb(255,255,255)" stroke="none" font-family="times new roman" font-size="10px" font-style="normal" font-weight="normal" text-decoration="normal" x="250.9375" y="286.625" text-anchor="middle" dominant-baseline="text-after-edge" fill-opacity="1">*1.58</text><path fill="rgb(69,90,100)" stroke="rgb(76,175,80)" paint-order="fill stroke markers" d=" M 605.8125 136.25 L 605.8125 156.25 L 700.8125 156.25 L 700.8125 136.25 Z" fill-opacity="1" stroke-opacity="1" stroke-miterlimit="10" stroke-width="2"/><text fill="rgb(255,255,255)" stroke="none" font-family="times new roman" font-size="10px" font-style="normal" font-weight="normal" text-decoration="normal" x="653.3125" y="151.25" text-anchor="middle" dominant-baseline="text-after-edge" fill-opacity="1">42130047G&gt;C</text><path fill="rgb(69,90,100)" stroke="rgb(76,175,80)" paint-order="fill stroke markers" d=" M 429.8125 136.25 L 472.3125 136.25 L 472.3125 136.25 A 5 5 0 0 1 477.3125 141.25 L 477.3125 151.25 L 477.3125 151.25 A 5 5 0 0 1 472.3125 156.25 L 387.3125 156.25 L 387.3125 156.25 A 5 5 0 0 1 382.3125 151.25 L 382.3125 141.25 L 382.3125 141.25 A 5 5 0 0 1 387.3125 136.25 L 429.8125 136.25 Z" fill-opacity="1" stroke-opacity="1" stroke-miterlimit="10" stroke-width="2"/><text fill="rgb(255,255,255)" stroke="none" font-family="times new roman" font-size="10px" font-style="normal" font-weight="normal" text-decoration="normal" x="429.8125" y="151.25" text-anchor="middle" dominant-baseline="text-after-edge" fill-opacity="1">42132049dup</text><path fill="rgb(69,90,100)" stroke="rgb(76,175,80)" paint-order="fill stroke markers" d=" M 158.8125 136.25 L 158.8125 156.25 L 253.81249999999997 156.25 L 253.8125 136.25 Z" fill-opacity="1" stroke-opacity="1" stroke-miterlimit="10" stroke-width="2"/><text fill="rgb(255,255,255)" stroke="none" font-family="times new roman" font-size="10px" font-style="normal" font-weight="normal" text-decoration="normal" x="206.3125" y="151.25" text-anchor="middle" dominant-baseline="text-after-edge" fill-opacity="1">42129950A&gt;C</text><path fill="rgb(69,90,100)" stroke="rgb(76,175,80)" paint-order="fill stroke markers" d=" M 1077.4375 281.625 L 1077.3681400089954 283.3903296538765 L 1077.1604876633905 285.1447754634052 L 1076.8158232089477 286.87752068675786 L 1076.336271616641 288.5778823734363 L 1075.7247894815039 290.23537722821453 L 1074.9851467942383 291.8397862441398 L 1074.1219036979671 293.3812177061088 L 1073.1403823734363 294.85016817658067 L 1072.0466342260006 296.23758108742913 L 1070.8474025766973 297.53490257669733 L 1069.5500810874291 298.7341342260007 L 1068.1626681765806 299.8278823734363 L 1066.6937177061088 300.80940369796707 L 1065.1522862441398 301.6726467942383 L 1063.5478772282145 302.41228948150393 L 1061.8903823734363 303.02377161664094 L 1060.1900206867579 303.50332320894773 L 1058.4572754634053 303.8479876633906 L 1056.7028296538765 304.0556400089954 L 1054.9375 304.125 L 1053.1721703461235 304.0556400089954 L 1051.4177245365947 303.8479876633906 L 1049.6849793132421 303.50332320894773 L 1047.9846176265637 303.02377161664094 L 1046.3271227717855 302.41228948150393 L 1044.7227137558602 301.6726467942383 L 1043.1812822938912 300.80940369796707 L 1041.7123318234194 299.8278823734363 L 1040.3249189125709 298.7341342260007 L 1039.0275974233027 297.53490257669733 L 1037.8283657739994 296.23758108742913 L 1036.7346176265637 294.85016817658067 L 1035.7530963020329 293.3812177061088 L 1034.8898532057617 291.8397862441398 L 1034.1502105184961 290.23537722821453 L 1033.538728383359 288.5778823734363 L 1033.0591767910523 286.87752068675786 L 1032.7145123366095 285.1447754634052 L 1032.5068599910046 283.3903296538765 L 1032.4375 281.625 L 1032.5068599910046 279.8596703461235 L 1032.7145123366095 278.1052245365948 L 1033.0591767910523 276.37247931324214 L 1033.538728383359 274.6721176265637 L 1034.1502105184961 273.01462277178547 L 1034.8898532057617 271.4102137558602 L 1035.7530963020329 269.8687822938912 L 1036.7346176265637 268.39983182341933 L 1037.8283657739994 267.01241891257087 L 1039.0275974233027 265.71509742330267 L 1040.3249189125709 264.51586577399934 L 1041.7123318234194 263.4221176265637 L 1043.1812822938912 262.44059630203293 L 1044.7227137558602 261.5773532057617 L 1046.3271227717855 260.837710518496 L 1047.9846176265637 260.22622838335906 L 1049.6849793132421 259.74667679105227 L 1051.417724536595 259.4020123366094 L 1053.1721703461235 259.1943599910046 L 1054.9375 259.125 L 1056.7028296538765 259.1943599910046 L 1058.4572754634053 259.4020123366094 L 1060.1900206867579 259.7466767910523 L 1061.8903823734365 260.22622838335906 L 1063.5478772282147 260.8377105184961 L 1065.15228624414 261.57735320576177 L 1066.693717706109 262.440596302033 L 1068.1626681765808 263.42211762656376 L 1069.5500810874294 264.5158657739994 L 1070.8474025766975 265.7150974233028 L 1072.0466342260008 267.012418912571 L 1073.1403823734365 268.3998318234195 L 1074.1219036979671 269.86878229389134 L 1074.9851467942383 271.4102137558604 L 1075.724789481504 273.0146227717857 L 1076.336271616641 274.67211762656393 L 1076.8158232089477 276.37247931324237 L 1077.1604876633905 278.1052245365951 L 1077.3681400089954 279.8596703461238 Z" fill-opacity="1" stroke-opacity="1" stroke-miterlimit="10" stroke-width="2"/><text fill="rgb(255,255,255)" stroke="none" font-family="times new roman" font-size="15px" font-style="normal" font-weight="normal" text-decoration="normal" x="1054.9375" y="289.125" text-anchor="middle" dominant-baseline="text-after-edge" fill-opacity="1">*2</text><path fill="rgb(3,169,244)" stroke="none" paint-order="stroke fill markers" d=" M 1054.9375 249.125 L 1079.4375 249.125 L 1079.4375 249.125 A 8 8 0 0 1 1087.4375 257.125 L 1087.4375 306.125 L 1087.4375 306.125 A 8 8 0 0 1 1079.4375 314.125 L 1030.4375 314.125 L 1030.4375 314.125 A 8 8 0 0 1 1022.4375 306.125 L 1022.4375 257.125 L 1022.4375 257.125 A 8 8 0 0 1 1030.4375 249.125 L 1054.9375 249.125 Z" fill-opacity="0.15"/><path fill="rgb(69,90,100)" stroke="rgb(158,158,158)" paint-order="fill stroke markers" d=" M 1052.0625 65.75 L 1052.0625 85.75 L 1147.0625 85.75 L 1147.0625 65.75 Z" fill-opacity="1" stroke-opacity="1" stroke-miterlimit="10" stroke-width="2"/><text fill="rgb(255,255,255)" stroke="none" font-family="times new roman" font-size="10px" font-style="normal" font-weight="normal" text-decoration="normal" x="1099.5625" y="80.75" text-anchor="middle" dominant-baseline="text-after-edge" fill-opacity="1">42127941G&gt;A</text><path fill="rgb(69,90,100)" stroke="rgb(76,175,80)" paint-order="fill stroke markers" d=" M 270.5625 136.25 L 270.5625 156.25 L 365.5625 156.25 L 365.5625 136.25 Z" fill-opacity="1" stroke-opacity="1" stroke-miterlimit="10" stroke-width="2"/><text fill="rgb(255,255,255)" stroke="none" font-family="times new roman" font-size="10px" font-style="normal" font-weight="normal" text-decoration="normal" x="318.0625" y="151.25" text-anchor="middle" dominant-baseline="text-after-edge" fill-opacity="1">42130482C&gt;A</text><path fill="rgb(69,90,100)" stroke="rgb(76,175,80)" paint-order="fill stroke markers" d=" M 695.0625 65.75 L 695.0625 85.75 L 790.0625 85.75 L 790.0625 65.75 Z" fill-opacity="1" stroke-opacity="1" stroke-miterlimit="10" stroke-width="2"/><text fill="rgb(255,255,255)" stroke="none" font-family="times new roman" font-size="10px" font-style="normal" font-weight="normal" text-decoration="normal" x="742.5625" y="80.75" text-anchor="middle" dominant-baseline="text-after-edge" fill-opacity="1">42127407T&gt;G</text><path fill="rgb(69,90,100)" stroke="rgb(76,175,80)" paint-order="fill stroke markers" d=" M 1077.4375 146.25 L 1077.3681400089954 148.0153296538765 L 1077.1604876633905 149.76977546340518 L 1076.8158232089477 151.50252068675786 L 1076.336271616641 153.20288237343632 L 1075.7247894815039 154.86037722821453 L 1074.9851467942383 156.46478624413982 L 1074.1219036979671 158.00621770610886 L 1073.1403823734363 159.47516817658064 L 1072.0466342260006 160.86258108742913 L 1070.8474025766973 162.1599025766973 L 1069.5500810874291 163.3591342260007 L 1068.1626681765806 164.45288237343632 L 1066.6937177061088 165.43440369796707 L 1065.1522862441398 166.2976467942383 L 1063.5478772282145 167.03728948150396 L 1061.8903823734363 167.64877161664094 L 1060.1900206867579 168.12832320894773 L 1058.4572754634053 168.4729876633906 L 1056.7028296538765 168.68064000899537 L 1054.9375 168.75 L 1053.1721703461235 168.68064000899537 L 1051.4177245365947 168.4729876633906 L 1049.6849793132421 168.12832320894773 L 1047.9846176265637 167.64877161664094 L 1046.3271227717855 167.03728948150396 L 1044.7227137558602 166.2976467942383 L 1043.1812822938912 165.43440369796707 L 1041.7123318234194 164.45288237343632 L 1040.3249189125709 163.3591342260007 L 1039.0275974233027 162.15990257669733 L 1037.8283657739994 160.86258108742913 L 1036.7346176265637 159.47516817658064 L 1035.7530963020329 158.00621770610886 L 1034.8898532057617 156.46478624413982 L 1034.1502105184961 154.86037722821453 L 1033.538728383359 153.20288237343632 L 1033.0591767910523 151.50252068675786 L 1032.7145123366095 149.7697754634052 L 1032.5068599910046 148.0153296538765 L 1032.4375 146.25 L 1032.5068599910046 144.4846703461235 L 1032.7145123366095 142.73022453659482 L 1033.0591767910523 140.99747931324214 L 1033.538728383359 139.29711762656368 L 1034.1502105184961 137.63962277178547 L 1034.8898532057617 136.0352137558602 L 1035.7530963020329 134.49378229389114 L 1036.7346176265637 133.02483182341936 L 1037.8283657739994 131.63741891257087 L 1039.0275974233027 130.3400974233027 L 1040.3249189125709 129.1408657739993 L 1041.7123318234194 128.04711762656368 L 1043.1812822938912 127.06559630203293 L 1044.7227137558602 126.20235320576171 L 1046.3271227717855 125.46271051849604 L 1047.9846176265637 124.85122838335903 L 1049.6849793132421 124.37167679105227 L 1051.417724536595 124.02701233660939 L 1053.1721703461235 123.81935999100462 L 1054.9375 123.75 L 1056.7028296538765 123.81935999100463 L 1058.4572754634053 124.02701233660942 L 1060.1900206867579 124.3716767910523 L 1061.8903823734365 124.85122838335909 L 1063.5478772282147 125.4627105184961 L 1065.15228624414 126.20235320576178 L 1066.693717706109 127.065596302033 L 1068.1626681765808 128.04711762656376 L 1069.5500810874294 129.14086577399942 L 1070.8474025766975 130.3400974233028 L 1072.0466342260008 131.637418912571 L 1073.1403823734365 133.0248318234195 L 1074.1219036979671 134.49378229389131 L 1074.9851467942383 136.03521375586038 L 1075.724789481504 137.6396227717857 L 1076.336271616641 139.2971176265639 L 1076.8158232089477 140.99747931324237 L 1077.1604876633905 142.73022453659505 L 1077.3681400089954 144.48467034612375 Z" fill-opacity="1" stroke-opacity="1" stroke-miterlimit="10" stroke-width="2"/><text fill="rgb(255,255,255)" stroke="none" font-family="times new roman" font-size="15px" font-style="normal" font-weight="normal" text-decoration="normal" x="1054.9375" y="153.75" text-anchor="middle" dominant-baseline="text-after-edge" fill-opacity="1">*34</text><path fill="rgb(69,90,100)" stroke="rgb(76,175,80)" paint-order="fill stroke markers" d=" M 541.5625 136.25 L 584.0625 136.25 L 584.0625 136.25 A 5 5 0 0 1 589.0625 141.25 L 589.0625 151.25 L 589.0625 151.25 A 5 5 0 0 1 584.0625 156.25 L 499.0625 156.25 L 499.0625 156.25 A 5 5 0 0 1 494.0625 151.25 L 494.0625 141.25 L 494.0625 141.25 A 5 5 0 0 1 499.0625 136.25 L 541.5625 136.25 Z" fill-opacity="1" stroke-opacity="1" stroke-miterlimit="10" stroke-width="2"/><text fill="rgb(255,255,255)" stroke="none" font-family="times new roman" font-size="10px" font-style="normal" font-weight="normal" text-decoration="normal" x="541.5625" y="151.25" text-anchor="middle" dominant-baseline="text-after-edge" fill-opacity="1">42132025_4213202…</text><path fill="rgb(69,90,100)" stroke="rgb(76,175,80)" paint-order="fill stroke markers" d=" M 898.9375 146.25 L 898.8681400089954 148.0153296538765 L 898.6604876633907 149.76977546340518 L 898.3158232089477 151.50252068675786 L 897.8362716166409 153.20288237343632 L 897.224789481504 154.86037722821453 L 896.4851467942383 156.46478624413982 L 895.6219036979671 158.00621770610886 L 894.6403823734363 159.47516817658064 L 893.5466342260007 160.86258108742913 L 892.3474025766973 162.1599025766973 L 891.0500810874291 163.3591342260007 L 889.6626681765806 164.45288237343632 L 888.1937177061088 165.43440369796707 L 886.6522862441398 166.2976467942383 L 885.0478772282145 167.03728948150396 L 883.3903823734363 167.64877161664094 L 881.6900206867579 168.12832320894773 L 879.9572754634052 168.4729876633906 L 878.2028296538765 168.68064000899537 L 876.4375 168.75 L 874.6721703461235 168.68064000899537 L 872.9177245365948 168.4729876633906 L 871.1849793132421 168.12832320894773 L 869.4846176265637 167.64877161664094 L 867.8271227717855 167.03728948150396 L 866.2227137558602 166.2976467942383 L 864.6812822938912 165.43440369796707 L 863.2123318234194 164.45288237343632 L 861.8249189125709 163.3591342260007 L 860.5275974233027 162.15990257669733 L 859.3283657739993 160.86258108742913 L 858.2346176265637 159.47516817658064 L 857.2530963020329 158.00621770610886 L 856.3898532057617 156.46478624413982 L 855.650210518496 154.86037722821453 L 855.0387283833591 153.20288237343632 L 854.5591767910523 151.50252068675786 L 854.2145123366095 149.7697754634052 L 854.0068599910046 148.0153296538765 L 853.9375 146.25 L 854.0068599910046 144.4846703461235 L 854.2145123366093 142.73022453659482 L 854.5591767910523 140.99747931324214 L 855.0387283833591 139.29711762656368 L 855.650210518496 137.63962277178547 L 856.3898532057617 136.0352137558602 L 857.2530963020329 134.49378229389114 L 858.2346176265637 133.02483182341936 L 859.3283657739993 131.63741891257087 L 860.5275974233027 130.3400974233027 L 861.8249189125709 129.1408657739993 L 863.2123318234194 128.04711762656368 L 864.6812822938912 127.06559630203293 L 866.2227137558602 126.20235320576171 L 867.8271227717855 125.46271051849604 L 869.4846176265637 124.85122838335903 L 871.1849793132421 124.37167679105227 L 872.9177245365948 124.02701233660939 L 874.6721703461236 123.81935999100462 L 876.4375000000001 123.75 L 878.2028296538766 123.81935999100463 L 879.9572754634053 124.02701233660942 L 881.690020686758 124.3716767910523 L 883.3903823734364 124.85122838335909 L 885.0478772282146 125.4627105184961 L 886.6522862441399 126.20235320576178 L 888.1937177061089 127.065596302033 L 889.6626681765807 128.04711762656376 L 891.0500810874292 129.14086577399942 L 892.3474025766974 130.3400974233028 L 893.5466342260008 131.637418912571 L 894.6403823734364 133.0248318234195 L 895.6219036979671 134.49378229389131 L 896.4851467942384 136.03521375586038 L 897.224789481504 137.6396227717857 L 897.836271616641 139.2971176265639 L 898.3158232089478 140.99747931324237 L 898.6604876633907 142.73022453659505 L 898.8681400089954 144.48467034612375 Z" fill-opacity="1" stroke-opacity="1" stroke-miterlimit="10" stroke-width="2"/><text fill="rgb(255,255,255)" stroke="none" font-family="times new roman" font-size="15px" font-style="normal" font-weight="normal" text-decoration="normal" x="876.4375" y="153.75" text-anchor="middle" dominant-baseline="text-after-edge" fill-opacity="1">*39</text><path fill="rgb(176,190,197)" stroke="none" paint-order="stroke fill markers" d=" M 1109.6875 176.62500000000003 L 1109.6875 386.625 L 1184.6875 386.625 L 1184.6875 176.62500000000006 Z" fill-opacity="0.8"/><text fill="rgb(0,0,0)" stroke="none" font-family="times new roman" font-size="10px" font-style="normal" font-weight="normal" text-decoration="normal" x="1114.6875" y="191.625" text-anchor="start" dominant-baseline="text-after-edge" fill-opacity="0.8">42126310C&gt;T </text><text fill="rgb(0,0,0)" stroke="none" font-family="times new roman" font-size="10px" font-style="normal" font-weight="normal" text-decoration="normal" x="1114.6875" y="201.625" text-anchor="start" dominant-baseline="text-after-edge" fill-opacity="0.8">42127001G&gt;A </text><text fill="rgb(0,0,0)" stroke="none" font-family="times new roman" font-size="10px" font-style="normal" font-weight="normal" text-decoration="normal" x="1114.6875" y="211.625" text-anchor="start" dominant-baseline="text-after-edge" fill-opacity="0.8">42127207C&gt;T </text><text fill="rgb(0,0,0)" stroke="none" font-family="times new roman" font-size="10px" font-style="normal" font-weight="normal" text-decoration="normal" x="1114.6875" y="221.625" text-anchor="start" dominant-baseline="text-after-edge" fill-opacity="0.8">42129130C&gt;G </text><text fill="rgb(0,0,0)" stroke="none" font-family="times new roman" font-size="10px" font-style="normal" font-weight="normal" text-decoration="normal" x="1114.6875" y="231.625" text-anchor="start" dominant-baseline="text-after-edge" fill-opacity="0.8">42131469C&gt;T </text><text fill="rgb(0,0,0)" stroke="none" font-family="times new roman" font-size="10px" font-style="normal" font-weight="normal" text-decoration="normal" x="1114.6875" y="241.625" text-anchor="start" dominant-baseline="text-after-edge" fill-opacity="0.8">42131531G&gt;A </text><text fill="rgb(0,0,0)" stroke="none" font-family="times new roman" font-size="10px" font-style="normal" font-weight="normal" text-decoration="normal" x="1114.6875" y="251.625" text-anchor="start" dominant-baseline="text-after-edge" fill-opacity="0.8">42132026T&gt;C </text><text fill="rgb(0,0,0)" stroke="none" font-family="times new roman" font-size="10px" font-style="normal" font-weight="normal" text-decoration="normal" x="1114.6875" y="261.625" text-anchor="start" dominant-baseline="text-after-edge" fill-opacity="0.8">42132375G&gt;C </text><path fill="rgb(176,190,197)" stroke="none" paint-order="stroke fill markers" d=" M 474.4375 176.625 L 541.4375 176.625 L 541.4375 176.625 A 8 8 0 0 1 549.4375 184.625 L 549.4375 378.625 L 549.4375 378.625 A 8 8 0 0 1 541.4375 386.625 L 407.4375 386.625 L 407.4375 386.625 A 8 8 0 0 1 399.4375 378.625 L 399.4375 184.625 L 399.4375 184.625 A 8 8 0 0 1 407.4375 176.625 L 474.4375 176.625 Z" fill-opacity="0.8"/><text fill="rgb(0,0,0)" stroke="none" font-family="times new roman" font-size="10px" font-style="normal" font-weight="normal" text-decoration="normal" x="404.4375" y="191.625" text-anchor="start" dominant-baseline="text-after-edge" fill-opacity="0.8">42125634T&gt;A </text><text fill="rgb(0,0,0)" stroke="none" font-family="times new roman" font-size="10px" font-style="normal" font-weight="normal" text-decoration="normal" x="404.4375" y="201.625" text-anchor="start" dominant-baseline="text-after-edge" fill-opacity="0.8">42125924A&gt;G </text><text fill="rgb(0,0,0)" stroke="none" font-family="times new roman" font-size="10px" font-style="normal" font-weight="normal" text-decoration="normal" x="404.4375" y="211.625" text-anchor="start" dominant-baseline="text-after-edge" fill-opacity="0.8">42126022C&gt;T </text><text fill="rgb(0,0,0)" stroke="none" font-family="times new roman" font-size="10px" font-style="normal" font-weight="normal" text-decoration="normal" x="404.4375" y="221.625" text-anchor="start" dominant-baseline="text-after-edge" fill-opacity="0.8">42126069A&gt;C </text><text fill="rgb(0,0,0)" stroke="none" font-family="times new roman" font-size="10px" font-style="normal" font-weight="normal" text-decoration="normal" x="404.4375" y="231.625" text-anchor="start" dominant-baseline="text-after-edge" fill-opacity="0.8">42126136_42126138del </text><text fill="rgb(0,0,0)" stroke="none" font-family="times new roman" font-size="10px" font-style="normal" font-weight="normal" text-decoration="normal" x="404.4375" y="241.625" text-anchor="start" dominant-baseline="text-after-edge" fill-opacity="0.8">42132025_42132026insCCTTTT </text><text fill="rgb(0,0,0)" stroke="none" font-family="times new roman" font-size="10px" font-style="normal" font-weight="normal" text-decoration="normal" x="404.4375" y="251.625" text-anchor="start" dominant-baseline="text-after-edge" fill-opacity="0.8">42132027C&gt;T </text><text fill="rgb(0,0,0)" stroke="none" font-family="times new roman" font-size="10px" font-style="normal" font-weight="normal" text-decoration="normal" x="404.4375" y="261.625" text-anchor="start" dominant-baseline="text-after-edge" fill-opacity="0.8">42132561C&gt;T </text><text fill="rgb(0,0,0)" stroke="none" font-family="times new roman" font-size="10px" font-style="normal" font-weight="normal" text-decoration="normal" x="404.4375" y="271.625" text-anchor="start" dominant-baseline="text-after-edge" fill-opacity="0.8">42132844C&gt;A </text><text fill="rgb(0,0,0)" stroke="none" font-family="times new roman" font-size="10px" font-style="normal" font-weight="normal" text-decoration="normal" x="404.4375" y="281.625" text-anchor="start" dominant-baseline="text-after-edge" fill-opacity="0.8">42132851T&gt;C </text><text fill="rgb(0,0,0)" stroke="none" font-family="times new roman" font-size="10px" font-style="normal" font-weight="normal" text-decoration="normal" x="404.4375" y="291.625" text-anchor="start" dominant-baseline="text-after-edge" fill-opacity="0.8">42133400T&gt;G </text><text fill="rgb(0,0,0)" stroke="none" font-family="times new roman" font-size="10px" font-style="normal" font-weight="normal" text-decoration="normal" x="404.4375" y="301.625" text-anchor="start" dominant-baseline="text-after-edge" fill-opacity="0.8">42133533A&gt;C </text><text fill="rgb(0,0,0)" stroke="none" font-family="times new roman" font-size="10px" font-style="normal" font-weight="normal" text-decoration="normal" x="404.4375" y="311.625" text-anchor="start" dominant-baseline="text-after-edge" fill-opacity="0.8">42134096del </text><text fill="rgb(0,0,0)" stroke="none" font-family="times new roman" font-size="10px" font-style="normal" font-weight="normal" text-decoration="normal" x="404.4375" y="321.625" text-anchor="start" dominant-baseline="text-after-edge" fill-opacity="0.8">42134820T&gt;G </text><text fill="rgb(0,0,0)" stroke="none" font-family="times new roman" font-size="10px" font-style="normal" font-weight="normal" text-decoration="normal" x="404.4375" y="331.625" text-anchor="start" dominant-baseline="text-after-edge" fill-opacity="0.8">42135064_42135066dup </text><text fill="rgb(0,0,0)" stroke="none" font-family="times new roman" font-size="10px" font-style="normal" font-weight="normal" text-decoration="normal" x="404.4375" y="341.625" text-anchor="start" dominant-baseline="text-after-edge" fill-opacity="0.8">42135201T&gt;C </text><text fill="rgb(0,0,0)" stroke="none" font-family="times new roman" font-size="10px" font-style="normal" font-weight="normal" text-decoration="normal" x="404.4375" y="351.625" text-anchor="start" dominant-baseline="text-after-edge" fill-opacity="0.8">42135383A&gt;G </text><text fill="rgb(0,0,0)" stroke="none" font-family="times new roman" font-size="10px" font-style="normal" font-weight="normal" text-decoration="normal" x="404.4375" y="361.625" text-anchor="start" dominant-baseline="text-after-edge" fill-opacity="0.8">42135691T&gt;C </text><g transform="scale(1.0751044932079414,1.0751044932079414) translate(115.85791519863926,-76.58024541367999)"/></g></svg>