<svg version="1.1" xmlns="http://www.w3.org/2000/svg" xmlns:xlink="http://www.w3.org/1999/xlink" width="1017" height="608"><defs/><g transform="translate(-53.48106259863232,-53.45397159389796) scale(1.1530773277222515,1.1530773277222515)"><path fill="none" stroke="rgb(120,144,156)" paint-order="fill stroke markers" d=" M 179.60610988617356 403.8492487090229 L 473.8437306835649 516.8442212471896" stroke-opacity="1" stroke-linejoin="round" stroke-miterlimit="10"/><path fill="rgb(120,144,156)" stroke="none" paint-order="stroke fill markers" d=" M 466.0296066288521 518.5031260839896 L 475.710790184655 517.5612211212406 L 469.148556080974 510.3814172542477 Z" fill-opacity="1"/><path fill="none" stroke="rgb(120,144,156)" paint-order="fill stroke markers" d=" M 348.82528623905114 409.02147081298233 L 480.2783638996676 510.42813072260077" stroke-opacity="1" stroke-linejoin="round" stroke-miterlimit="10"/><path fill="rgb(120,144,156)" stroke="none" paint-order="stroke fill markers" d=" M 472.31642776122294 509.78000039054666 L 481.8619284107946 511.6497376311844 L 477.6304178135618 502.8914947671444 Z" fill-opacity="1"/><path fill="none" stroke="rgb(120,144,156)" paint-order="fill stroke markers" d=" M 667.4409902597403 265.125 L 706.9392906467377 375.31953368836247" stroke-opacity="1" stroke-linejoin="round" stroke-miterlimit="10"/><path fill="rgb(120,144,156)" stroke="none" paint-order="stroke fill markers" d=" M 700.5836837079607 370.4802403060833 L 707.6141314781388 377.20224180495245 L 708.7734640151273 367.5446826894886 Z" fill-opacity="1"/><path fill="none" stroke="rgb(55,71,79)" paint-order="fill stroke markers" d=" M 683.0530633262312 111.23902773936021 L 704.7266773259075 145.77584354372266" stroke-opacity="1" stroke-linejoin="round" stroke-miterlimit="10" stroke-width="2"/><path fill="none" stroke="rgb(120,144,156)" paint-order="fill stroke markers" d=" M 280.38498376623374 265.125 L 324.28429984676774 375.59059928761826" stroke-opacity="1" stroke-linejoin="round" stroke-miterlimit="10"/><path fill="rgb(120,144,156)" stroke="none" paint-order="stroke fill markers" d=" M 317.7674461078559 370.9707381051117 L 325.0229176381662 377.4492126842744 L 325.8524143833102 367.7577507125286 Z" fill-opacity="1"/><path fill="none" stroke="rgb(120,144,156)" paint-order="fill stroke markers" d=" M 503.21875 501.5 L 503.21875 507.625" stroke-opacity="1" stroke-linejoin="round" stroke-miterlimit="10"/><path fill="rgb(120,144,156)" stroke="none" paint-order="stroke fill markers" d=" M 498.86875 500.925 L 503.21875 509.625 L 507.56875 500.925 Z" fill-opacity="1"/><path fill="none" stroke="rgb(120,144,156)" paint-order="fill stroke markers" d=" M 589.09375 436.50759878419456 L 521.9269498042916 508.1657959534763" stroke-opacity="1" stroke-linejoin="round" stroke-miterlimit="10"/><path fill="rgb(120,144,156)" stroke="none" paint-order="stroke fill markers" d=" M 523.3351232819517 500.3026192762793 L 520.5592058404559 509.625 L 529.68266088433 506.2523055189643 Z" fill-opacity="1"/><path fill="none" stroke="rgb(120,144,156)" paint-order="fill stroke markers" d=" M 730.8481159251915 189.5633726491661 L 752.7287475316563 228.19636282933067" stroke-opacity="1" stroke-linejoin="round" stroke-miterlimit="10"/><path fill="rgb(120,144,156)" stroke="none" paint-order="stroke fill markers" d=" M 745.6417897778267 224.51023616365106 L 753.7143840748085 229.9366273508339 L 753.2119404463657 220.2227172009387 Z" fill-opacity="1"/><path fill="none" stroke="rgb(55,71,79)" paint-order="fill stroke markers" d=" M 756.2480867346939 106.875 L 731.8358226740925 145.77584354372266" stroke-opacity="1" stroke-linejoin="round" stroke-miterlimit="10" stroke-width="2"/><path fill="none" stroke="rgb(120,144,156)" paint-order="fill stroke markers" d=" M 384.80251623376626 265.125 L 340.90320015323226 375.59059928761826" stroke-opacity="1" stroke-linejoin="round" stroke-miterlimit="10"/><path fill="rgb(120,144,156)" stroke="none" paint-order="stroke fill markers" d=" M 339.3350856166898 367.7577507125286 L 340.1645823618338 377.4492126842744 L 347.4200538921441 370.9707381051117 Z" fill-opacity="1"/><path fill="none" stroke="rgb(120,144,156)" paint-order="fill stroke markers" d=" M 503.21875 263.125 L 503.21875 289.5" stroke-opacity="1" stroke-linejoin="round" stroke-miterlimit="10"/><path fill="rgb(120,144,156)" stroke="none" paint-order="stroke fill markers" d=" M 498.86875 282.8 L 503.21875 291.5 L 507.56875 282.8 Z" fill-opacity="1"/><path fill="none" stroke="rgb(55,71,79)" paint-order="fill stroke markers" d=" M 160.46875 265.125 L 160.46875 376" stroke-opacity="1" stroke-linejoin="round" stroke-miterlimit="10" stroke-width="2"/><path fill="none" stroke="rgb(120,144,156)" paint-order="fill stroke markers" d=" M 806.918418141593 180.375 L 779.8337524683437 228.19636282933067" stroke-opacity="1" stroke-linejoin="round" stroke-miterlimit="10"/><path fill="rgb(120,144,156)" stroke="none" paint-order="stroke fill markers" d=" M 779.3505595536343 220.2227172009387 L 778.8481159251915 229.9366273508339 L 786.9207102221733 224.51023616365106 Z" fill-opacity="1"/><path fill="none" stroke="rgb(120,144,156)" paint-order="fill stroke markers" d=" M 757.6770293996361 276.12952848652253 L 722.1232093532623 375.31953368836247" stroke-opacity="1" stroke-linejoin="round" stroke-miterlimit="10"/><path fill="rgb(120,144,156)" stroke="none" paint-order="stroke fill markers" d=" M 720.2890359848727 367.5446826894886 L 721.4483685218612 377.20224180495245 L 728.4788162920393 370.4802403060833 Z" fill-opacity="1"/><path fill="none" stroke="rgb(120,144,156)" paint-order="fill stroke markers" d=" M 697.1308242979396 407.3385970211591 L 528.2759471296406 512.5170564463108" stroke-opacity="1" stroke-linejoin="round" stroke-miterlimit="10"/><path fill="rgb(120,144,156)" stroke="none" paint-order="stroke fill markers" d=" M 531.6630181131412 505.28240025871423 L 526.5783446221226 513.574480545936 L 536.2628129465112 512.6669711664179 Z" fill-opacity="1"/><path fill="rgb(69,90,100)" stroke="rgb(76,175,80)" paint-order="fill stroke markers" d=" M 177.96875 396.5 L 177.91480334032974 397.8730341752373 L 177.7532959604149 399.23760313820407 L 177.48522360695935 400.58529386747836 L 177.11223903516517 401.9077974015616 L 176.6366418189475 403.19696006638907 L 176.06136417329643 404.44483374544205 L 175.38995287619662 405.6437248825291 L 174.6265474015616 406.7862419151183 L 173.77585439800055 407.86534084577823 L 172.84311867076457 408.87436867076457 L 171.8340908457782 409.80710439800055 L 170.75499191511827 410.6577974015616 L 169.6124748825291 411.4212028761966 L 168.41358374544208 412.09261417329645 L 167.16571006638907 412.6678918189475 L 165.8765474015616 413.1434890351652 L 164.55404386747836 413.5164736069593 L 163.20635313820404 413.7845459604149 L 161.84178417523728 413.94605334032974 L 160.46875 414 L 159.09571582476272 413.94605334032974 L 157.73114686179596 413.7845459604149 L 156.38345613252164 413.5164736069593 L 155.06095259843843 413.1434890351652 L 153.77178993361093 412.6678918189475 L 152.52391625455795 412.09261417329645 L 151.3250251174709 411.4212028761966 L 150.18250808488173 410.6577974015616 L 149.1034091542218 409.80710439800055 L 148.09438132923543 408.87436867076457 L 147.16164560199945 407.86534084577823 L 146.31095259843843 406.7862419151183 L 145.54754712380338 405.6437248825291 L 144.87613582670357 404.44483374544205 L 144.3008581810525 403.19696006638907 L 143.82526096483483 401.9077974015616 L 143.45227639304065 400.58529386747836 L 143.1842040395851 399.23760313820407 L 143.02269665967026 397.8730341752373 L 142.96875 396.5 L 143.02269665967026 395.1269658247627 L 143.1842040395851 393.76239686179593 L 143.45227639304065 392.41470613252164 L 143.8252609648348 391.0922025984384 L 144.3008581810525 389.80303993361093 L 144.87613582670357 388.55516625455795 L 145.54754712380338 387.3562751174709 L 146.3109525984384 386.2137580848817 L 147.16164560199945 385.13465915422177 L 148.0943813292354 384.12563132923543 L 149.10340915422177 383.19289560199945 L 150.1825080848817 382.3422025984384 L 151.3250251174709 381.5787971238034 L 152.52391625455795 380.90738582670355 L 153.77178993361096 380.3321081810525 L 155.06095259843843 379.8565109648348 L 156.3834561325217 379.4835263930407 L 157.731146861796 379.2154540395851 L 159.09571582476278 379.05394665967026 L 160.46875000000006 379 L 161.84178417523736 379.05394665967026 L 163.20635313820412 379.2154540395851 L 164.5540438674784 379.4835263930407 L 165.87654740156165 379.85651096483485 L 167.16571006638915 380.3321081810525 L 168.41358374544217 380.9073858267036 L 169.6124748825292 381.57879712380344 L 170.75499191511838 382.3422025984385 L 171.83409084577832 383.19289560199957 L 172.84311867076468 384.1256313292355 L 173.77585439800063 385.1346591542219 L 174.62654740156168 386.2137580848818 L 175.3899528761967 387.35627511747106 L 176.0613641732965 388.55516625455806 L 176.6366418189476 389.8030399336111 L 177.11223903516523 391.0922025984386 L 177.48522360695938 392.4147061325218 L 177.75329596041493 393.76239686179616 L 177.91480334032974 395.1269658247629 Z" fill-opacity="1" stroke-opacity="1" stroke-miterlimit="10" stroke-width="6"/><text fill="rgb(255,255,255)" stroke="none" font-family="times new roman" font-size="10px" font-style="normal" font-weight="normal" text-decoration="normal" x="160.46875" y="401.5" text-anchor="middle" dominant-baseline="text-after-edge" fill-opacity="1">*1.41</text><path fill="rgb(69,90,100)" stroke="rgb(76,175,80)" paint-order="fill stroke markers" d=" M 740.78125 167.375 L 740.7118900089954 169.1403296538765 L 740.5042376633907 170.89477546340518 L 740.1595732089477 172.62752068675786 L 739.6800216166409 174.32788237343632 L 739.068539481504 175.98537722821453 L 738.3288967942383 177.58978624413982 L 737.4656536979671 179.13121770610886 L 736.4841323734363 180.60016817658064 L 735.3903842260007 181.98758108742913 L 734.1911525766973 183.2849025766973 L 732.8938310874291 184.4841342260007 L 731.5064181765806 185.57788237343632 L 730.0374677061088 186.55940369796707 L 728.4960362441398 187.4226467942383 L 726.8916272282145 188.16228948150396 L 725.2341323734363 188.77377161664094 L 723.5337706867579 189.25332320894773 L 721.8010254634052 189.5979876633906 L 720.0465796538765 189.80564000899537 L 718.28125 189.875 L 716.5159203461235 189.80564000899537 L 714.7614745365948 189.5979876633906 L 713.0287293132421 189.25332320894773 L 711.3283676265637 188.77377161664094 L 709.6708727717855 188.16228948150396 L 708.0664637558602 187.4226467942383 L 706.5250322938912 186.55940369796707 L 705.0560818234194 185.57788237343632 L 703.6686689125709 184.4841342260007 L 702.3713474233027 183.28490257669733 L 701.1721157739993 181.98758108742913 L 700.0783676265637 180.60016817658064 L 699.0968463020329 179.13121770610886 L 698.2336032057617 177.58978624413982 L 697.493960518496 175.98537722821453 L 696.8824783833591 174.32788237343632 L 696.4029267910523 172.62752068675786 L 696.0582623366095 170.8947754634052 L 695.8506099910046 169.1403296538765 L 695.78125 167.375 L 695.8506099910046 165.6096703461235 L 696.0582623366093 163.85522453659482 L 696.4029267910523 162.12247931324214 L 696.8824783833591 160.42211762656368 L 697.493960518496 158.76462277178547 L 698.2336032057617 157.1602137558602 L 699.0968463020329 155.61878229389114 L 700.0783676265637 154.14983182341936 L 701.1721157739993 152.76241891257087 L 702.3713474233027 151.4650974233027 L 703.6686689125709 150.2658657739993 L 705.0560818234194 149.17211762656368 L 706.5250322938912 148.19059630203293 L 708.0664637558602 147.3273532057617 L 709.6708727717855 146.58771051849604 L 711.3283676265637 145.97622838335903 L 713.0287293132421 145.49667679105227 L 714.7614745365948 145.1520123366094 L 716.5159203461236 144.9443599910046 L 718.2812500000001 144.875 L 720.0465796538766 144.94435999100463 L 721.8010254634053 145.1520123366094 L 723.533770686758 145.4966767910523 L 725.2341323734364 145.97622838335909 L 726.8916272282146 146.5877105184961 L 728.4960362441399 147.3273532057618 L 730.0374677061089 148.190596302033 L 731.5064181765807 149.17211762656376 L 732.8938310874292 150.26586577399942 L 734.1911525766974 151.4650974233028 L 735.3903842260008 152.762418912571 L 736.4841323734364 154.1498318234195 L 737.4656536979671 155.61878229389131 L 738.3288967942384 157.16021375586038 L 739.068539481504 158.7646227717857 L 739.680021616641 160.4221176265639 L 740.1595732089478 162.12247931324237 L 740.5042376633907 163.85522453659505 L 740.7118900089954 165.60967034612375 Z" fill-opacity="1" stroke-opacity="1" stroke-miterlimit="10" stroke-width="6"/><text fill="rgb(255,255,255)" stroke="none" font-family="times new roman" font-size="15px" font-style="normal" font-weight="normal" text-decoration="normal" x="718.28125" y="174.875" text-anchor="middle" dominant-baseline="text-after-edge" fill-opacity="1">*39</text><path fill="rgb(69,90,100)" stroke="rgb(76,175,80)" paint-order="fill stroke markers" d=" M 342.46875 242.125 L 342.46875 262.125 L 437.46875 262.125 L 437.46875 242.125 Z" fill-opacity="1" stroke-opacity="1" stroke-miterlimit="10" stroke-width="6"/><text fill="rgb(255,255,255)" stroke="none" font-family="times new roman" font-size="10px" font-style="normal" font-weight="normal" text-decoration="normal" x="389.96875" y="257.125" text-anchor="middle" dominant-baseline="text-after-edge" fill-opacity="1">42130482C&gt;A</text><path fill="rgb(69,90,100)" stroke="rgb(76,175,80)" paint-order="fill stroke markers" d=" M 112.96875000000001 242.125 L 112.96875 262.125 L 207.96874999999997 262.125 L 207.96875 242.125 Z" fill-opacity="1" stroke-opacity="1" stroke-miterlimit="10" stroke-width="6"/><text fill="rgb(255,255,255)" stroke="none" font-family="times new roman" font-size="10px" font-style="normal" font-weight="normal" text-decoration="normal" x="160.46875" y="257.125" text-anchor="middle" dominant-baseline="text-after-edge" fill-opacity="1">42127407T&gt;G</text><path fill="rgb(69,90,100)" stroke="rgb(158,158,158)" paint-order="fill stroke markers" d=" M 766.78125 157.375 L 766.78125 177.375 L 861.78125 177.375 L 861.78125 157.375 Z" fill-opacity="1" stroke-opacity="1" stroke-miterlimit="10" stroke-width="6"/><text fill="rgb(255,255,255)" stroke="none" font-family="times new roman" font-size="10px" font-style="normal" font-weight="normal" text-decoration="normal" x="814.28125" y="172.375" text-anchor="middle" dominant-baseline="text-after-edge" fill-opacity="1">42130692G&gt;A</text><path fill="rgb(69,90,100)" stroke="rgb(76,175,80)" paint-order="fill stroke markers" d=" M 227.71875 242.125 L 227.71875 262.125 L 322.71875 262.125 L 322.71875 242.125 Z" fill-opacity="1" stroke-opacity="1" stroke-miterlimit="10" stroke-width="6"/><text fill="rgb(255,255,255)" stroke="none" font-family="times new roman" font-size="10px" font-style="normal" font-weight="normal" text-decoration="normal" x="275.21875" y="257.125" text-anchor="middle" dominant-baseline="text-after-edge" fill-opacity="1">42129950A&gt;C</text><path fill="rgb(69,90,100)" stroke="rgb(76,175,80)" paint-order="fill stroke markers" d=" M 503.21875 242.125 L 545.71875 242.125 L 545.71875 242.125 A 5 5 0 0 1 550.71875 247.125 L 550.71875 257.125 L 550.71875 257.125 A 5 5 0 0 1 545.71875 262.125 L 460.71875 262.125 L 460.71875 262.125 A 5 5 0 0 1 455.71875 257.125 L 455.71875 247.125 L 455.71875 247.125 A 5 5 0 0 1 460.71875 242.125 L 503.21875 242.125 Z" fill-opacity="1" stroke-opacity="1" stroke-miterlimit="10" stroke-width="2"/><text fill="rgb(255,255,255)" stroke="none" font-family="times new roman" font-size="10px" font-style="normal" font-weight="normal" text-decoration="normal" x="503.21875" y="257.125" text-anchor="middle" dominant-baseline="text-after-edge" fill-opacity="1">42132049dup</text><path fill="rgb(69,90,100)" stroke="rgb(69,90,100)" paint-order="fill stroke markers" d=" M 484.46875 510.625 L 465.71875 528.125 L 484.46875 545.625 L 521.96875 545.625 L 540.71875 528.125 L 521.96875 510.625 Z" fill-opacity="1" stroke-opacity="1" stroke-miterlimit="10" stroke-width="2"/><text fill="rgb(255,255,255)" stroke="none" font-family="times new roman" font-size="10px" font-style="normal" font-weight="normal" text-decoration="normal" x="503.21875" y="533.125" text-anchor="middle" dominant-baseline="text-after-edge" fill-opacity="1">NA18617-all</text><path fill="rgb(69,90,100)" stroke="rgb(76,175,80)" paint-order="fill stroke markers" d=" M 615.28125 242.125 L 615.28125 262.125 L 710.28125 262.125 L 710.28125 242.125 Z" fill-opacity="1" stroke-opacity="1" stroke-miterlimit="10" stroke-width="6"/><text fill="rgb(255,255,255)" stroke="none" font-family="times new roman" font-size="10px" font-style="normal" font-weight="normal" text-decoration="normal" x="662.78125" y="257.125" text-anchor="middle" dominant-baseline="text-after-edge" fill-opacity="1">42129130C&gt;G</text><path fill="rgb(69,90,100)" stroke="rgb(76,175,80)" paint-order="fill stroke markers" d=" M 350.09375 396.5 L 350.03980334032974 397.8730341752373 L 349.8782959604149 399.23760313820407 L 349.6102236069593 400.58529386747836 L 349.2372390351652 401.9077974015616 L 348.7616418189475 403.19696006638907 L 348.18636417329645 404.44483374544205 L 347.5149528761966 405.6437248825291 L 346.7515474015616 406.7862419151183 L 345.90085439800055 407.86534084577823 L 344.96811867076457 408.87436867076457 L 343.95909084577823 409.80710439800055 L 342.8799919151183 410.6577974015616 L 341.7374748825291 411.4212028761966 L 340.53858374544205 412.09261417329645 L 339.29071006638907 412.6678918189475 L 338.0015474015616 413.1434890351652 L 336.67904386747836 413.5164736069593 L 335.33135313820407 413.7845459604149 L 333.9667841752373 413.94605334032974 L 332.59375 414 L 331.2207158247627 413.94605334032974 L 329.85614686179593 413.7845459604149 L 328.50845613252164 413.5164736069593 L 327.1859525984384 413.1434890351652 L 325.89678993361093 412.6678918189475 L 324.64891625455795 412.09261417329645 L 323.4500251174709 411.4212028761966 L 322.3075080848817 410.6577974015616 L 321.22840915422177 409.80710439800055 L 320.21938132923543 408.87436867076457 L 319.28664560199945 407.86534084577823 L 318.4359525984384 406.7862419151183 L 317.6725471238034 405.6437248825291 L 317.00113582670355 404.44483374544205 L 316.4258581810525 403.19696006638907 L 315.9502609648348 401.9077974015616 L 315.5772763930407 400.58529386747836 L 315.3092040395851 399.23760313820407 L 315.14769665967026 397.8730341752373 L 315.09375 396.5 L 315.14769665967026 395.1269658247627 L 315.3092040395851 393.76239686179593 L 315.5772763930407 392.41470613252164 L 315.9502609648348 391.0922025984384 L 316.4258581810525 389.80303993361093 L 317.00113582670355 388.55516625455795 L 317.6725471238034 387.3562751174709 L 318.4359525984384 386.2137580848817 L 319.28664560199945 385.13465915422177 L 320.21938132923543 384.12563132923543 L 321.22840915422177 383.19289560199945 L 322.3075080848817 382.3422025984384 L 323.4500251174709 381.5787971238034 L 324.64891625455795 380.90738582670355 L 325.89678993361093 380.3321081810525 L 327.18595259843846 379.8565109648348 L 328.5084561325217 379.4835263930407 L 329.856146861796 379.2154540395851 L 331.22071582476275 379.05394665967026 L 332.59375000000006 379 L 333.96678417523736 379.05394665967026 L 335.3313531382041 379.2154540395851 L 336.6790438674784 379.4835263930407 L 338.00154740156165 379.85651096483485 L 339.2907100663892 380.3321081810525 L 340.53858374544217 380.9073858267036 L 341.7374748825292 381.57879712380344 L 342.87999191511835 382.3422025984385 L 343.9590908457783 383.19289560199957 L 344.9681186707647 384.1256313292355 L 345.90085439800066 385.1346591542219 L 346.75154740156165 386.2137580848818 L 347.5149528761967 387.35627511747106 L 348.1863641732965 388.55516625455806 L 348.76164181894757 389.8030399336111 L 349.23723903516526 391.0922025984386 L 349.6102236069594 392.4147061325218 L 349.87829596041496 393.76239686179616 L 350.03980334032974 395.1269658247629 Z" fill-opacity="1" stroke-opacity="1" stroke-miterlimit="10" stroke-width="6"/><text fill="rgb(255,255,255)" stroke="none" font-family="times new roman" font-size="10px" font-style="normal" font-weight="normal" text-decoration="normal" x="332.59375" y="401.5" text-anchor="middle" dominant-baseline="text-after-edge" fill-opacity="1">*1.58</text><path fill="rgb(69,90,100)" stroke="rgb(76,175,80)" paint-order="fill stroke markers" d=" M 689.65625 93.875 L 689.6023033403297 95.24803417523728 L 689.4407959604149 96.61260313820404 L 689.1727236069594 97.96029386747834 L 688.7997390351652 99.28279740156158 L 688.3241418189475 100.57196006638907 L 687.7488641732964 101.81983374544207 L 687.0774528761966 103.0187248825291 L 686.3140474015615 104.16124191511828 L 685.4633543980005 105.2403408457782 L 684.5306186707646 106.24936867076458 L 683.5215908457782 107.18210439800055 L 682.4424919151182 108.03279740156158 L 681.2999748825291 108.79620287619662 L 680.1010837454421 109.46761417329644 L 678.8532100663891 110.04289181894751 L 677.5640474015615 110.51848903516519 L 676.2415438674783 110.89147360695934 L 674.893853138204 111.1595459604149 L 673.5292841752373 111.32105334032974 L 672.15625 111.375 L 670.7832158247627 111.32105334032974 L 669.418646861796 111.1595459604149 L 668.0709561325217 110.89147360695934 L 666.7484525984385 110.51848903516519 L 665.4592899336109 110.04289181894751 L 664.2114162545579 109.46761417329644 L 663.0125251174709 108.79620287619662 L 661.8700080848818 108.03279740156158 L 660.7909091542218 107.18210439800055 L 659.7818813292354 106.24936867076458 L 658.8491456019995 105.24034084577822 L 657.9984525984385 104.16124191511828 L 657.2350471238034 103.01872488252911 L 656.5636358267036 101.81983374544207 L 655.9883581810525 100.57196006638907 L 655.5127609648348 99.28279740156158 L 655.1397763930406 97.96029386747834 L 654.8717040395851 96.61260313820404 L 654.7101966596703 95.2480341752373 L 654.65625 93.875 L 654.7101966596703 92.50196582476272 L 654.8717040395851 91.13739686179596 L 655.1397763930406 89.78970613252166 L 655.5127609648348 88.46720259843842 L 655.9883581810525 87.17803993361093 L 656.5636358267036 85.93016625455793 L 657.2350471238034 84.7312751174709 L 657.9984525984385 83.58875808488172 L 658.8491456019995 82.5096591542218 L 659.7818813292354 81.50063132923542 L 660.7909091542218 80.56789560199947 L 661.8700080848818 79.71720259843842 L 663.0125251174709 78.95379712380338 L 664.2114162545579 78.28238582670356 L 665.459289933611 77.70710818105248 L 666.7484525984385 77.2315109648348 L 668.0709561325217 76.85852639304065 L 669.418646861796 76.59045403958508 L 670.7832158247628 76.42894665967026 L 672.1562500000001 76.375 L 673.5292841752373 76.42894665967026 L 674.8938531382041 76.5904540395851 L 676.2415438674784 76.85852639304068 L 677.5640474015617 77.23151096483484 L 678.8532100663891 77.70710818105252 L 680.1010837454421 78.2823858267036 L 681.2999748825292 78.95379712380344 L 682.4424919151184 79.71720259843849 L 683.5215908457783 80.56789560199954 L 684.5306186707646 81.50063132923552 L 685.4633543980007 82.5096591542219 L 686.3140474015617 83.58875808488185 L 687.0774528761967 84.73127511747103 L 687.7488641732965 85.93016625455807 L 688.3241418189476 87.17803993361109 L 688.7997390351652 88.46720259843859 L 689.1727236069594 89.78970613252184 L 689.4407959604149 91.13739686179616 L 689.6023033403297 92.50196582476292 Z" fill-opacity="1" stroke-opacity="1" stroke-miterlimit="10" stroke-width="6"/><text fill="rgb(255,255,255)" stroke="none" font-family="times new roman" font-size="10px" font-style="normal" font-weight="normal" text-decoration="normal" x="672.15625" y="98.875" text-anchor="middle" dominant-baseline="text-after-edge" fill-opacity="1">*39.2</text><path fill="rgb(69,90,100)" stroke="rgb(255,193,7)" paint-order="fill stroke markers" d=" M 788.78125 252.125 L 788.7118900089954 253.8903296538765 L 788.5042376633907 255.64477546340518 L 788.1595732089477 257.37752068675786 L 787.6800216166409 259.0778823734363 L 787.068539481504 260.73537722821453 L 786.3288967942383 262.3397862441398 L 785.4656536979671 263.8812177061088 L 784.4841323734363 265.35016817658067 L 783.3903842260007 266.73758108742913 L 782.1911525766973 268.03490257669733 L 780.8938310874291 269.2341342260007 L 779.5064181765806 270.3278823734363 L 778.0374677061088 271.30940369796707 L 776.4960362441398 272.1726467942383 L 774.8916272282145 272.91228948150393 L 773.2341323734363 273.52377161664094 L 771.5337706867579 274.00332320894773 L 769.8010254634052 274.3479876633906 L 768.0465796538765 274.5556400089954 L 766.28125 274.625 L 764.5159203461235 274.5556400089954 L 762.7614745365948 274.3479876633906 L 761.0287293132421 274.00332320894773 L 759.3283676265637 273.52377161664094 L 757.6708727717855 272.91228948150393 L 756.0664637558602 272.1726467942383 L 754.5250322938912 271.30940369796707 L 753.0560818234194 270.3278823734363 L 751.6686689125709 269.2341342260007 L 750.3713474233027 268.03490257669733 L 749.1721157739993 266.73758108742913 L 748.0783676265637 265.35016817658067 L 747.0968463020329 263.8812177061088 L 746.2336032057617 262.3397862441398 L 745.493960518496 260.73537722821453 L 744.8824783833591 259.0778823734363 L 744.4029267910523 257.37752068675786 L 744.0582623366095 255.6447754634052 L 743.8506099910046 253.8903296538765 L 743.78125 252.125 L 743.8506099910046 250.3596703461235 L 744.0582623366093 248.60522453659482 L 744.4029267910523 246.87247931324214 L 744.8824783833591 245.17211762656368 L 745.493960518496 243.51462277178547 L 746.2336032057617 241.9102137558602 L 747.0968463020329 240.36878229389114 L 748.0783676265637 238.89983182341936 L 749.1721157739993 237.51241891257087 L 750.3713474233027 236.2150974233027 L 751.6686689125709 235.0158657739993 L 753.0560818234194 233.92211762656368 L 754.5250322938912 232.94059630203293 L 756.0664637558602 232.0773532057617 L 757.6708727717855 231.33771051849604 L 759.3283676265637 230.72622838335903 L 761.0287293132421 230.24667679105227 L 762.7614745365948 229.9020123366094 L 764.5159203461236 229.6943599910046 L 766.2812500000001 229.625 L 768.0465796538766 229.69435999100463 L 769.8010254634053 229.9020123366094 L 771.533770686758 230.2466767910523 L 773.2341323734364 230.72622838335909 L 774.8916272282146 231.3377105184961 L 776.4960362441399 232.0773532057618 L 778.0374677061089 232.940596302033 L 779.5064181765807 233.92211762656376 L 780.8938310874292 235.01586577399942 L 782.1911525766974 236.2150974233028 L 783.3903842260008 237.512418912571 L 784.4841323734364 238.8998318234195 L 785.4656536979671 240.36878229389131 L 786.3288967942384 241.91021375586038 L 787.068539481504 243.5146227717857 L 787.680021616641 245.1721176265639 L 788.1595732089478 246.87247931324237 L 788.5042376633907 248.60522453659505 L 788.7118900089954 250.35967034612375 Z" fill-opacity="1" stroke-opacity="1" stroke-miterlimit="10" stroke-width="6"/><text fill="rgb(255,255,255)" stroke="none" font-family="times new roman" font-size="15px" font-style="normal" font-weight="normal" text-decoration="normal" x="766.28125" y="259.625" text-anchor="middle" dominant-baseline="text-after-edge" fill-opacity="1">*10</text><path fill="rgb(3,169,244)" stroke="none" paint-order="stroke fill markers" d=" M 766.28125 219.625 L 790.78125 219.625 L 790.78125 219.625 A 8 8 0 0 1 798.78125 227.625 L 798.78125 276.625 L 798.78125 276.625 A 8 8 0 0 1 790.78125 284.625 L 741.78125 284.625 L 741.78125 284.625 A 8 8 0 0 1 733.78125 276.625 L 733.78125 227.625 L 733.78125 227.625 A 8 8 0 0 1 741.78125 219.625 L 766.28125 219.625 Z" fill-opacity="0.15"/><path fill="rgb(69,90,100)" stroke="rgb(158,158,158)" paint-order="fill stroke markers" d=" M 716.90625 83.875 L 716.90625 103.875 L 811.90625 103.875 L 811.90625 83.875 Z" fill-opacity="1" stroke-opacity="1" stroke-miterlimit="10" stroke-width="6"/><text fill="rgb(255,255,255)" stroke="none" font-family="times new roman" font-size="10px" font-style="normal" font-weight="normal" text-decoration="normal" x="764.40625" y="98.875" text-anchor="middle" dominant-baseline="text-after-edge" fill-opacity="1">42126611C&gt;G</text><path fill="rgb(69,90,100)" stroke="rgb(255,193,7)" paint-order="fill stroke markers" d=" M 732.03125 396.5 L 731.9773033403297 397.8730341752373 L 731.8157959604149 399.23760313820407 L 731.5477236069594 400.58529386747836 L 731.1747390351652 401.9077974015616 L 730.6991418189475 403.19696006638907 L 730.1238641732964 404.44483374544205 L 729.4524528761966 405.6437248825291 L 728.6890474015615 406.7862419151183 L 727.8383543980005 407.86534084577823 L 726.9056186707646 408.87436867076457 L 725.8965908457782 409.80710439800055 L 724.8174919151182 410.6577974015616 L 723.6749748825291 411.4212028761966 L 722.4760837454421 412.09261417329645 L 721.2282100663891 412.6678918189475 L 719.9390474015615 413.1434890351652 L 718.6165438674783 413.5164736069593 L 717.268853138204 413.7845459604149 L 715.9042841752373 413.94605334032974 L 714.53125 414 L 713.1582158247627 413.94605334032974 L 711.793646861796 413.7845459604149 L 710.4459561325217 413.5164736069593 L 709.1234525984385 413.1434890351652 L 707.8342899336109 412.6678918189475 L 706.5864162545579 412.09261417329645 L 705.3875251174709 411.4212028761966 L 704.2450080848818 410.6577974015616 L 703.1659091542218 409.80710439800055 L 702.1568813292354 408.87436867076457 L 701.2241456019995 407.86534084577823 L 700.3734525984385 406.7862419151183 L 699.6100471238034 405.6437248825291 L 698.9386358267036 404.44483374544205 L 698.3633581810525 403.19696006638907 L 697.8877609648348 401.9077974015616 L 697.5147763930406 400.58529386747836 L 697.2467040395851 399.23760313820407 L 697.0851966596703 397.8730341752373 L 697.03125 396.5 L 697.0851966596703 395.1269658247627 L 697.2467040395851 393.76239686179593 L 697.5147763930406 392.41470613252164 L 697.8877609648348 391.0922025984384 L 698.3633581810525 389.80303993361093 L 698.9386358267036 388.55516625455795 L 699.6100471238034 387.3562751174709 L 700.3734525984385 386.2137580848817 L 701.2241456019995 385.13465915422177 L 702.1568813292354 384.12563132923543 L 703.1659091542218 383.19289560199945 L 704.2450080848818 382.3422025984384 L 705.3875251174709 381.5787971238034 L 706.5864162545579 380.90738582670355 L 707.834289933611 380.3321081810525 L 709.1234525984385 379.8565109648348 L 710.4459561325217 379.4835263930407 L 711.793646861796 379.2154540395851 L 713.1582158247628 379.05394665967026 L 714.5312500000001 379 L 715.9042841752373 379.05394665967026 L 717.2688531382041 379.2154540395851 L 718.6165438674784 379.4835263930407 L 719.9390474015617 379.85651096483485 L 721.2282100663891 380.3321081810525 L 722.4760837454421 380.9073858267036 L 723.6749748825292 381.57879712380344 L 724.8174919151184 382.3422025984385 L 725.8965908457783 383.19289560199957 L 726.9056186707646 384.1256313292355 L 727.8383543980007 385.1346591542219 L 728.6890474015617 386.2137580848818 L 729.4524528761967 387.35627511747106 L 730.1238641732965 388.55516625455806 L 730.6991418189476 389.8030399336111 L 731.1747390351652 391.0922025984386 L 731.5477236069594 392.4147061325218 L 731.8157959604149 393.76239686179616 L 731.9773033403297 395.1269658247629 Z" fill-opacity="1" stroke-opacity="1" stroke-miterlimit="10" stroke-width="6"/><text fill="rgb(255,255,255)" stroke="none" font-family="times new roman" font-size="10px" font-style="normal" font-weight="normal" text-decoration="normal" x="714.53125" y="401.5" text-anchor="middle" dominant-baseline="text-after-edge" fill-opacity="1">*10.1</text><path fill="rgb(176,190,197)" stroke="none" paint-order="stroke fill markers" d=" M 589.09375 291.5 L 589.09375 501.5 L 664.09375 501.5 L 664.09375 291.50000000000006 Z" fill-opacity="0.8"/><text fill="rgb(0,0,0)" stroke="none" font-family="times new roman" font-size="10px" font-style="normal" font-weight="normal" text-decoration="normal" x="594.09375" y="306.5" text-anchor="start" dominant-baseline="text-after-edge" fill-opacity="0.8">42126390G&gt;A </text><text fill="rgb(0,0,0)" stroke="none" font-family="times new roman" font-size="10px" font-style="normal" font-weight="normal" text-decoration="normal" x="594.09375" y="316.5" text-anchor="start" dominant-baseline="text-after-edge" fill-opacity="0.8">42127209T&gt;C </text><text fill="rgb(0,0,0)" stroke="none" font-family="times new roman" font-size="10px" font-style="normal" font-weight="normal" text-decoration="normal" x="594.09375" y="326.5" text-anchor="start" dominant-baseline="text-after-edge" fill-opacity="0.8">42128694T&gt;C </text><text fill="rgb(0,0,0)" stroke="none" font-family="times new roman" font-size="10px" font-style="normal" font-weight="normal" text-decoration="normal" x="594.09375" y="336.5" text-anchor="start" dominant-baseline="text-after-edge" fill-opacity="0.8">42129754G&gt;A </text><text fill="rgb(0,0,0)" stroke="none" font-family="times new roman" font-size="10px" font-style="normal" font-weight="normal" text-decoration="normal" x="594.09375" y="346.5" text-anchor="start" dominant-baseline="text-after-edge" fill-opacity="0.8">42131791C&gt;T </text><text fill="rgb(0,0,0)" stroke="none" font-family="times new roman" font-size="10px" font-style="normal" font-weight="normal" text-decoration="normal" x="594.09375" y="356.5" text-anchor="start" dominant-baseline="text-after-edge" fill-opacity="0.8">42132217G&gt;A </text><path fill="rgb(176,190,197)" stroke="none" paint-order="stroke fill markers" d=" M 503.21875 291.5 L 570.21875 291.5 L 570.21875 291.5 A 8 8 0 0 1 578.21875 299.5 L 578.21875 493.5 L 578.21875 493.5 A 8 8 0 0 1 570.21875 501.5 L 436.21875 501.5 L 436.21875 501.5 A 8 8 0 0 1 428.21875 493.5 L 428.21875 299.5 L 428.21875 299.5 A 8 8 0 0 1 436.21875 291.5 L 503.21875 291.5 Z" fill-opacity="0.8"/><text fill="rgb(0,0,0)" stroke="none" font-family="times new roman" font-size="10px" font-style="normal" font-weight="normal" text-decoration="normal" x="433.21875" y="306.5" text-anchor="start" dominant-baseline="text-after-edge" fill-opacity="0.8">42125572G&gt;A </text><text fill="rgb(0,0,0)" stroke="none" font-family="times new roman" font-size="10px" font-style="normal" font-weight="normal" text-decoration="normal" x="433.21875" y="316.5" text-anchor="start" dominant-baseline="text-after-edge" fill-opacity="0.8">42125924A&gt;G </text><text fill="rgb(0,0,0)" stroke="none" font-family="times new roman" font-size="10px" font-style="normal" font-weight="normal" text-decoration="normal" x="433.21875" y="326.5" text-anchor="start" dominant-baseline="text-after-edge" fill-opacity="0.8">42125980T&gt;C </text><text fill="rgb(0,0,0)" stroke="none" font-family="times new roman" font-size="10px" font-style="normal" font-weight="normal" text-decoration="normal" x="433.21875" y="336.5" text-anchor="start" dominant-baseline="text-after-edge" fill-opacity="0.8">42126069A&gt;C </text><text fill="rgb(0,0,0)" stroke="none" font-family="times new roman" font-size="10px" font-style="normal" font-weight="normal" text-decoration="normal" x="433.21875" y="346.5" text-anchor="start" dominant-baseline="text-after-edge" fill-opacity="0.8">42132027C&gt;T </text><text fill="rgb(0,0,0)" stroke="none" font-family="times new roman" font-size="10px" font-style="normal" font-weight="normal" text-decoration="normal" x="433.21875" y="356.5" text-anchor="start" dominant-baseline="text-after-edge" fill-opacity="0.8">42132844C&gt;A </text><text fill="rgb(0,0,0)" stroke="none" font-family="times new roman" font-size="10px" font-style="normal" font-weight="normal" text-decoration="normal" x="433.21875" y="366.5" text-anchor="start" dominant-baseline="text-after-edge" fill-opacity="0.8">42132851T&gt;C </text><text fill="rgb(0,0,0)" stroke="none" font-family="times new roman" font-size="10px" font-style="normal" font-weight="normal" text-decoration="normal" x="433.21875" y="376.5" text-anchor="start" dominant-baseline="text-after-edge" fill-opacity="0.8">42132969C&gt;T </text><text fill="rgb(0,0,0)" stroke="none" font-family="times new roman" font-size="10px" font-style="normal" font-weight="normal" text-decoration="normal" x="433.21875" y="386.5" text-anchor="start" dominant-baseline="text-after-edge" fill-opacity="0.8">42133212A&gt;G </text><text fill="rgb(0,0,0)" stroke="none" font-family="times new roman" font-size="10px" font-style="normal" font-weight="normal" text-decoration="normal" x="433.21875" y="396.5" text-anchor="start" dominant-baseline="text-after-edge" fill-opacity="0.8">42133314C&gt;T </text><text fill="rgb(0,0,0)" stroke="none" font-family="times new roman" font-size="10px" font-style="normal" font-weight="normal" text-decoration="normal" x="433.21875" y="406.5" text-anchor="start" dominant-baseline="text-after-edge" fill-opacity="0.8">42133400T&gt;G </text><text fill="rgb(0,0,0)" stroke="none" font-family="times new roman" font-size="10px" font-style="normal" font-weight="normal" text-decoration="normal" x="433.21875" y="416.5" text-anchor="start" dominant-baseline="text-after-edge" fill-opacity="0.8">42134096del </text><text fill="rgb(0,0,0)" stroke="none" font-family="times new roman" font-size="10px" font-style="normal" font-weight="normal" text-decoration="normal" x="433.21875" y="426.5" text-anchor="start" dominant-baseline="text-after-edge" fill-opacity="0.8">42134820T&gt;G </text><text fill="rgb(0,0,0)" stroke="none" font-family="times new roman" font-size="10px" font-style="normal" font-weight="normal" text-decoration="normal" x="433.21875" y="436.5" text-anchor="start" dominant-baseline="text-after-edge" fill-opacity="0.8">42135064_42135066dup </text><text fill="rgb(0,0,0)" stroke="none" font-family="times new roman" font-size="10px" font-style="normal" font-weight="normal" text-decoration="normal" x="433.21875" y="446.5" text-anchor="start" dominant-baseline="text-after-edge" fill-opacity="0.8">42135201T&gt;C </text><g transform="scale(0.8672445255474452,0.8672445255474452) translate(53.48106259863232,53.45397159389796)"/></g></svg>