<svg version="1.1" xmlns="http://www.w3.org/2000/svg" xmlns:xlink="http://www.w3.org/1999/xlink" width="1017" height="608"><defs/><g transform="translate(-112.97001859808893,59.97819534406463) scale(0.9819790931828385,0.9819790931828385)"><path fill="none" stroke="rgb(120,144,156)" paint-order="fill stroke markers" d=" M 202.54306506849315 165 L 245.77051915107614 268.12431856302476" stroke-opacity="1" stroke-linejoin="round" stroke-miterlimit="10"/><path fill="rgb(120,144,156)" stroke="none" paint-order="stroke fill markers" d=" M 239.16858088713693 263.62688472147295 L 246.54369522653604 269.9688235796448 L 247.19217770943402 260.2635687932224 Z" fill-opacity="1"/><path fill="none" stroke="rgb(55,71,79)" paint-order="fill stroke markers" d=" M 372.61556332623115 95.86402773936021 L 394.2891773259076 130.40084354372266" stroke-opacity="1" stroke-linejoin="round" stroke-miterlimit="10" stroke-width="2"/><path fill="none" stroke="rgb(120,144,156)" paint-order="fill stroke markers" d=" M 759.7652525630999 171.42661329700383 L 792.1585642600123 267.553107356947" stroke-opacity="1" stroke-linejoin="round" stroke-miterlimit="10"/><path fill="rgb(120,144,156)" stroke="none" paint-order="stroke fill markers" d=" M 785.8967430397812 262.5930574574133 L 792.7972474369001 269.4483867029962 L 794.141208195095 259.8147856379514 Z" fill-opacity="1"/><path fill="none" stroke="rgb(120,144,156)" paint-order="fill stroke markers" d=" M 274.3955720352576 293.6887058048007 L 766.633205539348 412.59814101466696" stroke-opacity="1" stroke-linejoin="round" stroke-miterlimit="10"/><path fill="rgb(120,144,156)" stroke="none" paint-order="stroke fill markers" d=" M 759.0990919838791 415.2532555005794 L 768.5772857379096 413.06777084928166 L 761.1419817644531 406.79650663683594 Z" fill-opacity="1"/><path fill="none" stroke="rgb(120,144,156)" paint-order="fill stroke markers" d=" M 523.4355770604607 299.1418938574207 L 771.1012107078565 408.07752970984666" stroke-opacity="1" stroke-linejoin="round" stroke-miterlimit="10"/><path fill="rgb(120,144,156)" stroke="none" paint-order="stroke fill markers" d=" M 763.2168487633519 409.36179476350486 L 772.9319422420102 408.88277628689923 L 766.7196713735307 401.3981125899359 Z" fill-opacity="1"/><path fill="none" stroke="rgb(120,144,156)" paint-order="fill stroke markers" d=" M 963.3966609589041 163 L 971.1623535609057 182.02334093778896" stroke-opacity="1" stroke-linejoin="round" stroke-miterlimit="10"/><path fill="rgb(120,144,156)" stroke="none" paint-order="stroke fill markers" d=" M 964.6027879200415 177.46432803989163 L 971.9182363013699 183.875 L 972.6575048406596 174.17623811887225 Z" fill-opacity="1"/><path fill="none" stroke="rgb(55,71,79)" paint-order="fill stroke markers" d=" M 557.1155633262312 95.86402773936021 L 578.7891773259075 130.40084354372266" stroke-opacity="1" stroke-linejoin="round" stroke-miterlimit="10" stroke-width="2"/><path fill="none" stroke="rgb(55,71,79)" paint-order="fill stroke markers" d=" M 753.21875 91.5 L 753.21875 131.5" stroke-opacity="1" stroke-linejoin="round" stroke-miterlimit="10" stroke-width="2"/><path fill="none" stroke="rgb(120,144,156)" paint-order="fill stroke markers" d=" M 799.34375 309.375 L 799.34375 400" stroke-opacity="1" stroke-linejoin="round" stroke-miterlimit="10"/><path fill="rgb(120,144,156)" stroke="none" paint-order="stroke fill markers" d=" M 794.99375 393.3 L 799.34375 402 L 803.69375 393.3 Z" fill-opacity="1"/><path fill="none" stroke="rgb(120,144,156)" paint-order="fill stroke markers" d=" M 844.34375 348.70454545454544 L 812.0013585096417 400.30536096870793" stroke-opacity="1" stroke-linejoin="round" stroke-miterlimit="10"/><path fill="rgb(120,144,156)" stroke="none" paint-order="stroke fill markers" d=" M 811.873777779152 392.31810717549416 L 810.9391915954416 402 L 819.2454575652725 396.93853325226485 Z" fill-opacity="1"/><path fill="none" stroke="rgb(120,144,156)" paint-order="fill stroke markers" d=" M 939.78125 334.697454308094 L 824.5872443427095 405.0770817853942" stroke-opacity="1" stroke-linejoin="round" stroke-miterlimit="10"/><path fill="rgb(120,144,156)" stroke="none" paint-order="stroke fill markers" d=" M 828.0366861040444 397.87195503181397 L 822.8805705349439 406.119801553063 L 832.5725170934033 405.29598609559395 Z" fill-opacity="1"/><path fill="none" stroke="rgb(55,71,79)" paint-order="fill stroke markers" d=" M 630.3105867346939 91.5 L 605.8983226740925 130.40084354372266" stroke-opacity="1" stroke-linejoin="round" stroke-miterlimit="10" stroke-width="2"/><path fill="none" stroke="rgb(120,144,156)" paint-order="fill stroke markers" d=" M 1066.165839041096 163 L 1058.4001464390942 182.02334093778896" stroke-opacity="1" stroke-linejoin="round" stroke-miterlimit="10"/><path fill="rgb(120,144,156)" stroke="none" paint-order="stroke fill markers" d=" M 1056.9049951593406 174.17623811887225 L 1057.64426369863 183.875 L 1064.9597120799585 177.46432803989177 Z" fill-opacity="1"/><path fill="none" stroke="rgb(120,144,156)" paint-order="fill stroke markers" d=" M 306.39443493150685 165 L 263.16698084892386 268.12431856302476" stroke-opacity="1" stroke-linejoin="round" stroke-miterlimit="10"/><path fill="rgb(120,144,156)" stroke="none" paint-order="stroke fill markers" d=" M 261.745322290566 260.2635687932224 L 262.39380477346396 269.9688235796448 L 269.76891911286305 263.62688472147295 Z" fill-opacity="1"/><path fill="none" stroke="rgb(55,71,79)" paint-order="fill stroke markers" d=" M 445.81058673469386 91.5 L 421.3983226740924 130.40084354372266" stroke-opacity="1" stroke-linejoin="round" stroke-miterlimit="10" stroke-width="2"/><path fill="none" stroke="rgb(120,144,156)" paint-order="fill stroke markers" d=" M 422.0953793543564 173.1457102208946 L 484.72434579432155 266.0708027029568" stroke-opacity="1" stroke-linejoin="round" stroke-miterlimit="10"/><path fill="rgb(120,144,156)" stroke="none" paint-order="stroke fill markers" d=" M 477.3725906517694 262.9460312994845 L 485.8421206456436 267.7292897791054 L 484.5870094330158 258.0837106962335 Z" fill-opacity="1"/><path fill="none" stroke="rgb(55,71,79)" paint-order="fill stroke markers" d=" M 500.09375 172.5 L 500.09375 263.375" stroke-opacity="1" stroke-linejoin="round" stroke-miterlimit="10" stroke-width="2"/><path fill="none" stroke="rgb(120,144,156)" paint-order="fill stroke markers" d=" M 841.2576198630137 165 L 806.5551488797521 267.5619587764413" stroke-opacity="1" stroke-linejoin="round" stroke-miterlimit="10"/><path fill="rgb(120,144,156)" stroke="none" paint-order="stroke fill markers" d=" M 804.5820219096124 259.8212049397851 L 805.9141356459963 269.45645132964654 L 812.8230645160552 262.60961250662257 Z" fill-opacity="1"/><path fill="none" stroke="rgb(120,144,156)" paint-order="fill stroke markers" d=" M 578.0921206456436 173.1457102208946 L 515.4631542056785 266.0708027029568" stroke-opacity="1" stroke-linejoin="round" stroke-miterlimit="10"/><path fill="rgb(120,144,156)" stroke="none" paint-order="stroke fill markers" d=" M 515.6004905669841 258.0837106962335 L 514.3453793543564 267.7292897791054 L 522.8149093482306 262.9460312994845 Z" fill-opacity="1"/><path fill="rgb(69,90,100)" stroke="rgb(76,175,80)" paint-order="fill stroke markers" d=" M 522.59375 288.875 L 522.5243900089954 290.6403296538765 L 522.3167376633907 292.3947754634052 L 521.9720732089477 294.12752068675786 L 521.4925216166409 295.8278823734363 L 520.881039481504 297.48537722821453 L 520.1413967942383 299.0897862441398 L 519.2781536979671 300.6312177061088 L 518.2966323734363 302.10016817658067 L 517.2028842260007 303.48758108742913 L 516.0036525766973 304.78490257669733 L 514.7063310874291 305.9841342260007 L 513.3189181765806 307.0778823734363 L 511.8499677061088 308.05940369796707 L 510.3085362441398 308.9226467942383 L 508.70412722821453 309.66228948150393 L 507.0466323734363 310.27377161664094 L 505.34627068675786 310.75332320894773 L 503.6135254634052 311.0979876633906 L 501.8590796538765 311.3056400089954 L 500.09375 311.375 L 498.3284203461235 311.3056400089954 L 496.5739745365948 311.0979876633906 L 494.84122931324214 310.75332320894773 L 493.1408676265637 310.27377161664094 L 491.48337277178547 309.66228948150393 L 489.8789637558602 308.9226467942383 L 488.3375322938912 308.05940369796707 L 486.86858182341933 307.0778823734363 L 485.48116891257087 305.9841342260007 L 484.18384742330267 304.78490257669733 L 482.9846157739993 303.48758108742913 L 481.8908676265637 302.10016817658067 L 480.90934630203293 300.6312177061088 L 480.0461032057617 299.0897862441398 L 479.30646051849607 297.48537722821453 L 478.69497838335906 295.8278823734363 L 478.21542679105227 294.12752068675786 L 477.8707623366094 292.3947754634052 L 477.6631099910046 290.6403296538765 L 477.59375 288.875 L 477.6631099910046 287.1096703461235 L 477.8707623366094 285.3552245365948 L 478.21542679105227 283.62247931324214 L 478.69497838335906 281.9221176265637 L 479.30646051849607 280.26462277178547 L 480.0461032057617 278.6602137558602 L 480.90934630203293 277.1187822938912 L 481.8908676265637 275.64983182341933 L 482.9846157739993 274.26241891257087 L 484.18384742330267 272.96509742330267 L 485.48116891257087 271.76586577399934 L 486.86858182341933 270.6721176265637 L 488.3375322938912 269.69059630203293 L 489.87896375586024 268.8273532057617 L 491.4833727717855 268.087710518496 L 493.1408676265637 267.47622838335906 L 494.8412293132422 266.99667679105227 L 496.57397453659485 266.6520123366094 L 498.32842034612355 266.4443599910046 L 500.09375000000006 266.375 L 501.8590796538766 266.4443599910046 L 503.61352546340527 266.6520123366094 L 505.346270686758 266.9966767910523 L 507.0466323734364 267.47622838335906 L 508.70412722821465 268.0877105184961 L 510.30853624413993 268.82735320576177 L 511.849967706109 269.690596302033 L 513.3189181765807 270.67211762656376 L 514.7063310874292 271.7658657739994 L 516.0036525766974 272.9650974233028 L 517.2028842260008 274.262418912571 L 518.2966323734364 275.6498318234195 L 519.2781536979671 277.11878229389134 L 520.1413967942384 278.6602137558604 L 520.881039481504 280.2646227717857 L 521.492521616641 281.92211762656393 L 521.9720732089478 283.62247931324237 L 522.3167376633907 285.3552245365951 L 522.5243900089954 287.1096703461238 Z" fill-opacity="1" stroke-opacity="1" stroke-miterlimit="10" stroke-width="6"/><text fill="rgb(255,255,255)" stroke="none" font-family="times new roman" font-size="15px" font-style="normal" font-weight="normal" text-decoration="normal" x="500.09375" y="296.375" text-anchor="middle" dominant-baseline="text-after-edge" fill-opacity="1">*2</text><path fill="rgb(3,169,244)" stroke="none" paint-order="stroke fill markers" d=" M 500.09375 256.375 L 524.59375 256.375 L 524.59375 256.375 A 8 8 0 0 1 532.59375 264.375 L 532.59375 313.375 L 532.59375 313.375 A 8 8 0 0 1 524.59375 321.375 L 475.59375 321.375 L 475.59375 321.375 A 8 8 0 0 1 467.59375 313.375 L 467.59375 264.375 L 467.59375 264.375 A 8 8 0 0 1 475.59375 256.375 L 500.09375 256.375 Z" fill-opacity="0.15"/><path fill="rgb(69,90,100)" stroke="rgb(76,175,80)" paint-order="fill stroke markers" d=" M 816.84375 288.875 L 816.7898033403297 290.2480341752373 L 816.6282959604149 291.61260313820407 L 816.3602236069594 292.96029386747836 L 815.9872390351652 294.2827974015616 L 815.5116418189475 295.57196006638907 L 814.9363641732964 296.81983374544205 L 814.2649528761966 298.0187248825291 L 813.5015474015615 299.1612419151183 L 812.6508543980005 300.24034084577823 L 811.7181186707646 301.24936867076457 L 810.7090908457782 302.18210439800055 L 809.6299919151182 303.0327974015616 L 808.4874748825291 303.7962028761966 L 807.2885837454421 304.46761417329645 L 806.0407100663891 305.0428918189475 L 804.7515474015615 305.5184890351652 L 803.4290438674783 305.8914736069593 L 802.081353138204 306.1595459604149 L 800.7167841752373 306.32105334032974 L 799.34375 306.375 L 797.9707158247627 306.32105334032974 L 796.606146861796 306.1595459604149 L 795.2584561325217 305.8914736069593 L 793.9359525984385 305.5184890351652 L 792.6467899336109 305.0428918189475 L 791.3989162545579 304.46761417329645 L 790.2000251174709 303.7962028761966 L 789.0575080848818 303.0327974015616 L 787.9784091542218 302.18210439800055 L 786.9693813292354 301.24936867076457 L 786.0366456019995 300.24034084577823 L 785.1859525984385 299.1612419151183 L 784.4225471238034 298.0187248825291 L 783.7511358267036 296.81983374544205 L 783.1758581810525 295.57196006638907 L 782.7002609648348 294.2827974015616 L 782.3272763930406 292.96029386747836 L 782.0592040395851 291.61260313820407 L 781.8976966596703 290.2480341752373 L 781.84375 288.875 L 781.8976966596703 287.5019658247627 L 782.0592040395851 286.13739686179593 L 782.3272763930406 284.78970613252164 L 782.7002609648348 283.4672025984384 L 783.1758581810525 282.17803993361093 L 783.7511358267036 280.93016625455795 L 784.4225471238034 279.7312751174709 L 785.1859525984385 278.5887580848817 L 786.0366456019995 277.50965915422177 L 786.9693813292354 276.50063132923543 L 787.9784091542218 275.56789560199945 L 789.0575080848818 274.7172025984384 L 790.2000251174709 273.9537971238034 L 791.3989162545579 273.28238582670355 L 792.646789933611 272.7071081810525 L 793.9359525984385 272.2315109648348 L 795.2584561325217 271.8585263930407 L 796.606146861796 271.5904540395851 L 797.9707158247628 271.42894665967026 L 799.3437500000001 271.375 L 800.7167841752373 271.42894665967026 L 802.0813531382041 271.5904540395851 L 803.4290438674784 271.8585263930407 L 804.7515474015617 272.23151096483485 L 806.0407100663891 272.7071081810525 L 807.2885837454421 273.2823858267036 L 808.4874748825292 273.95379712380344 L 809.6299919151184 274.7172025984385 L 810.7090908457783 275.56789560199957 L 811.7181186707646 276.5006313292355 L 812.6508543980007 277.5096591542219 L 813.5015474015617 278.5887580848818 L 814.2649528761967 279.73127511747106 L 814.9363641732965 280.93016625455806 L 815.5116418189476 282.1780399336111 L 815.9872390351652 283.4672025984386 L 816.3602236069594 284.7897061325218 L 816.6282959604149 286.13739686179616 L 816.7898033403297 287.5019658247629 Z" fill-opacity="1" stroke-opacity="1" stroke-miterlimit="10" stroke-width="6"/><text fill="rgb(255,255,255)" stroke="none" font-family="times new roman" font-size="10px" font-style="normal" font-weight="normal" text-decoration="normal" x="799.34375" y="293.875" text-anchor="middle" dominant-baseline="text-after-edge" fill-opacity="1">*1.54</text><path fill="rgb(69,90,100)" stroke="rgb(76,175,80)" paint-order="fill stroke markers" d=" M 614.84375 152 L 614.7743900089954 153.7653296538765 L 614.5667376633907 155.51977546340518 L 614.2220732089477 157.25252068675786 L 613.7425216166409 158.95288237343632 L 613.131039481504 160.61037722821453 L 612.3913967942383 162.21478624413982 L 611.5281536979671 163.75621770610886 L 610.5466323734363 165.22516817658064 L 609.4528842260007 166.61258108742913 L 608.2536525766973 167.9099025766973 L 606.9563310874291 169.1091342260007 L 605.5689181765806 170.20288237343632 L 604.0999677061088 171.18440369796707 L 602.5585362441398 172.0476467942383 L 600.9541272282145 172.78728948150396 L 599.2966323734363 173.39877161664094 L 597.5962706867579 173.87832320894773 L 595.8635254634052 174.2229876633906 L 594.1090796538765 174.43064000899537 L 592.34375 174.5 L 590.5784203461235 174.43064000899537 L 588.8239745365948 174.2229876633906 L 587.0912293132421 173.87832320894773 L 585.3908676265637 173.39877161664094 L 583.7333727717855 172.78728948150396 L 582.1289637558602 172.0476467942383 L 580.5875322938912 171.18440369796707 L 579.1185818234194 170.20288237343632 L 577.7311689125709 169.1091342260007 L 576.4338474233027 167.90990257669733 L 575.2346157739993 166.61258108742913 L 574.1408676265637 165.22516817658064 L 573.1593463020329 163.75621770610886 L 572.2961032057617 162.21478624413982 L 571.556460518496 160.61037722821453 L 570.9449783833591 158.95288237343632 L 570.4654267910523 157.25252068675786 L 570.1207623366095 155.5197754634052 L 569.9131099910046 153.7653296538765 L 569.84375 152 L 569.9131099910046 150.2346703461235 L 570.1207623366093 148.48022453659482 L 570.4654267910523 146.74747931324214 L 570.9449783833591 145.04711762656368 L 571.556460518496 143.38962277178547 L 572.2961032057617 141.7852137558602 L 573.1593463020329 140.24378229389114 L 574.1408676265637 138.77483182341936 L 575.2346157739993 137.38741891257087 L 576.4338474233027 136.0900974233027 L 577.7311689125709 134.8908657739993 L 579.1185818234194 133.79711762656368 L 580.5875322938912 132.81559630203293 L 582.1289637558602 131.9523532057617 L 583.7333727717855 131.21271051849604 L 585.3908676265637 130.60122838335903 L 587.0912293132421 130.12167679105227 L 588.8239745365948 129.7770123366094 L 590.5784203461236 129.5693599910046 L 592.3437500000001 129.5 L 594.1090796538766 129.56935999100463 L 595.8635254634053 129.7770123366094 L 597.596270686758 130.1216767910523 L 599.2966323734364 130.60122838335909 L 600.9541272282146 131.2127105184961 L 602.5585362441399 131.9523532057618 L 604.0999677061089 132.815596302033 L 605.5689181765807 133.79711762656376 L 606.9563310874292 134.89086577399942 L 608.2536525766974 136.0900974233028 L 609.4528842260008 137.387418912571 L 610.5466323734364 138.7748318234195 L 611.5281536979671 140.24378229389131 L 612.3913967942384 141.78521375586038 L 613.131039481504 143.3896227717857 L 613.742521616641 145.0471176265639 L 614.2220732089478 146.74747931324237 L 614.5667376633907 148.48022453659505 L 614.7743900089954 150.23467034612375 Z" fill-opacity="1" stroke-opacity="1" stroke-miterlimit="10" stroke-width="6"/><text fill="rgb(255,255,255)" stroke="none" font-family="times new roman" font-size="15px" font-style="normal" font-weight="normal" text-decoration="normal" x="592.34375" y="159.5" text-anchor="middle" dominant-baseline="text-after-edge" fill-opacity="1">*39</text><path fill="rgb(69,90,100)" stroke="rgb(76,175,80)" paint-order="fill stroke markers" d=" M 264.34375 142 L 264.34375 162 L 359.34375 162 L 359.34375 142 Z" fill-opacity="1" stroke-opacity="1" stroke-miterlimit="10" stroke-width="6"/><text fill="rgb(255,255,255)" stroke="none" font-family="times new roman" font-size="10px" font-style="normal" font-weight="normal" text-decoration="normal" x="311.84375" y="157" text-anchor="middle" dominant-baseline="text-after-edge" fill-opacity="1">42130482C&gt;A</text><path fill="rgb(69,90,100)" stroke="rgb(255,193,7)" paint-order="fill stroke markers" d=" M 406.46875 68.5 L 406.46875 88.5 L 501.46875 88.5 L 501.46875 68.5 Z" fill-opacity="1" stroke-opacity="1" stroke-miterlimit="10" stroke-width="6"/><text fill="rgb(255,255,255)" stroke="none" font-family="times new roman" font-size="10px" font-style="normal" font-weight="normal" text-decoration="normal" x="453.96875" y="83.5" text-anchor="middle" dominant-baseline="text-after-edge" fill-opacity="1">42127941G&gt;A</text><path fill="rgb(69,90,100)" stroke="rgb(76,175,80)" paint-order="fill stroke markers" d=" M 379.21875 78.5 L 379.16480334032974 79.87303417523728 L 379.0032959604149 81.23760313820404 L 378.7352236069593 82.58529386747834 L 378.3622390351652 83.90779740156158 L 377.8866418189475 85.19696006638907 L 377.31136417329645 86.44483374544207 L 376.6399528761966 87.6437248825291 L 375.8765474015616 88.78624191511828 L 375.02585439800055 89.8653408457782 L 374.09311867076457 90.87436867076458 L 373.08409084577823 91.80710439800055 L 372.0049919151183 92.65779740156158 L 370.8624748825291 93.42120287619662 L 369.66358374544205 94.09261417329644 L 368.41571006638907 94.66789181894751 L 367.1265474015616 95.14348903516519 L 365.80404386747836 95.51647360695934 L 364.45635313820407 95.7845459604149 L 363.0917841752373 95.94605334032974 L 361.71875 96 L 360.3457158247627 95.94605334032974 L 358.98114686179593 95.7845459604149 L 357.63345613252164 95.51647360695934 L 356.3109525984384 95.14348903516519 L 355.02178993361093 94.66789181894751 L 353.77391625455795 94.09261417329644 L 352.5750251174709 93.42120287619662 L 351.4325080848817 92.65779740156158 L 350.35340915422177 91.80710439800055 L 349.34438132923543 90.87436867076458 L 348.41164560199945 89.86534084577822 L 347.5609525984384 88.78624191511828 L 346.7975471238034 87.64372488252911 L 346.12613582670355 86.44483374544207 L 345.5508581810525 85.19696006638907 L 345.0752609648348 83.90779740156158 L 344.7022763930407 82.58529386747834 L 344.4342040395851 81.23760313820404 L 344.27269665967026 79.8730341752373 L 344.21875 78.5 L 344.27269665967026 77.12696582476272 L 344.4342040395851 75.76239686179596 L 344.7022763930407 74.41470613252166 L 345.0752609648348 73.09220259843842 L 345.5508581810525 71.80303993361093 L 346.12613582670355 70.55516625455793 L 346.7975471238034 69.3562751174709 L 347.5609525984384 68.21375808488172 L 348.41164560199945 67.1346591542218 L 349.34438132923543 66.12563132923542 L 350.35340915422177 65.19289560199947 L 351.4325080848817 64.34220259843842 L 352.5750251174709 63.57879712380338 L 353.77391625455795 62.90738582670356 L 355.02178993361093 62.332108181052476 L 356.31095259843846 61.856510964834804 L 357.6334561325217 61.48352639304065 L 358.981146861796 61.21545403958508 L 360.34571582476275 61.05394665967026 L 361.71875000000006 61 L 363.09178417523736 61.05394665967027 L 364.4563531382041 61.2154540395851 L 365.8040438674784 61.48352639304068 L 367.12654740156165 61.85651096483484 L 368.4157100663892 62.33210818105252 L 369.66358374544217 62.90738582670361 L 370.8624748825292 63.57879712380345 L 372.00499191511835 64.34220259843849 L 373.0840908457783 65.19289560199954 L 374.0931186707647 66.12563132923552 L 375.02585439800066 67.1346591542219 L 375.87654740156165 68.21375808488185 L 376.6399528761967 69.35627511747103 L 377.3113641732965 70.55516625455807 L 377.88664181894757 71.80303993361109 L 378.36223903516526 73.09220259843859 L 378.7352236069594 74.41470613252184 L 379.00329596041496 75.76239686179616 L 379.16480334032974 77.12696582476292 Z" fill-opacity="1" stroke-opacity="1" stroke-miterlimit="10" stroke-width="6"/><text fill="rgb(255,255,255)" stroke="none" font-family="times new roman" font-size="10px" font-style="normal" font-weight="normal" text-decoration="normal" x="361.71875" y="83.5" text-anchor="middle" dominant-baseline="text-after-edge" fill-opacity="1">*34.1</text><path fill="rgb(69,90,100)" stroke="rgb(76,175,80)" paint-order="fill stroke markers" d=" M 430.34375 152 L 430.2743900089954 153.7653296538765 L 430.0667376633906 155.51977546340518 L 429.72207320894773 157.25252068675786 L 429.24252161664094 158.95288237343632 L 428.63103948150393 160.61037722821453 L 427.8913967942383 162.21478624413982 L 427.02815369796707 163.75621770610886 L 426.0466323734363 165.22516817658064 L 424.9528842260007 166.61258108742913 L 423.75365257669733 167.9099025766973 L 422.45633108742913 169.1091342260007 L 421.06891817658067 170.20288237343632 L 419.5999677061088 171.18440369796707 L 418.0585362441398 172.0476467942383 L 416.45412722821453 172.78728948150396 L 414.7966323734363 173.39877161664094 L 413.09627068675786 173.87832320894773 L 411.3635254634052 174.2229876633906 L 409.6090796538765 174.43064000899537 L 407.84375 174.5 L 406.0784203461235 174.43064000899537 L 404.3239745365948 174.2229876633906 L 402.59122931324214 173.87832320894773 L 400.8908676265637 173.39877161664094 L 399.23337277178547 172.78728948150396 L 397.6289637558602 172.0476467942383 L 396.0875322938912 171.18440369796707 L 394.61858182341933 170.20288237343632 L 393.23116891257087 169.1091342260007 L 391.93384742330267 167.90990257669733 L 390.7346157739993 166.61258108742913 L 389.6408676265637 165.22516817658064 L 388.65934630203293 163.75621770610886 L 387.7961032057617 162.21478624413982 L 387.05646051849607 160.61037722821453 L 386.44497838335906 158.95288237343632 L 385.96542679105227 157.25252068675786 L 385.6207623366094 155.5197754634052 L 385.4131099910046 153.7653296538765 L 385.34375 152 L 385.4131099910046 150.2346703461235 L 385.6207623366094 148.48022453659482 L 385.96542679105227 146.74747931324214 L 386.44497838335906 145.04711762656368 L 387.05646051849607 143.38962277178547 L 387.7961032057617 141.7852137558602 L 388.65934630203293 140.24378229389114 L 389.6408676265637 138.77483182341936 L 390.7346157739993 137.38741891257087 L 391.93384742330267 136.0900974233027 L 393.23116891257087 134.8908657739993 L 394.61858182341933 133.79711762656368 L 396.0875322938912 132.81559630203293 L 397.62896375586024 131.9523532057617 L 399.2333727717855 131.21271051849604 L 400.8908676265637 130.60122838335903 L 402.5912293132422 130.12167679105227 L 404.32397453659485 129.7770123366094 L 406.07842034612355 129.5693599910046 L 407.84375000000006 129.5 L 409.6090796538766 129.56935999100463 L 411.36352546340527 129.7770123366094 L 413.096270686758 130.1216767910523 L 414.7966323734364 130.60122838335909 L 416.45412722821465 131.2127105184961 L 418.05853624413993 131.9523532057618 L 419.599967706109 132.815596302033 L 421.0689181765808 133.79711762656376 L 422.45633108742925 134.89086577399942 L 423.75365257669745 136.0900974233028 L 424.95288422600083 137.387418912571 L 426.0466323734364 138.7748318234195 L 427.0281536979672 140.24378229389131 L 427.8913967942384 141.78521375586038 L 428.63103948150405 143.3896227717857 L 429.24252161664106 145.0471176265639 L 429.7220732089478 146.74747931324237 L 430.06673766339065 148.48022453659505 L 430.2743900089954 150.23467034612375 Z" fill-opacity="1" stroke-opacity="1" stroke-miterlimit="10" stroke-width="6"/><text fill="rgb(255,255,255)" stroke="none" font-family="times new roman" font-size="15px" font-style="normal" font-weight="normal" text-decoration="normal" x="407.84375" y="159.5" text-anchor="middle" dominant-baseline="text-after-edge" fill-opacity="1">*34</text><path fill="rgb(69,90,100)" stroke="rgb(76,175,80)" paint-order="fill stroke markers" d=" M 798.15625 142 L 798.15625 162 L 893.15625 162 L 893.15625 142 Z" fill-opacity="1" stroke-opacity="1" stroke-miterlimit="10" stroke-width="6"/><text fill="rgb(255,255,255)" stroke="none" font-family="times new roman" font-size="10px" font-style="normal" font-weight="normal" text-decoration="normal" x="845.65625" y="157" text-anchor="middle" dominant-baseline="text-after-edge" fill-opacity="1">42130047G&gt;C</text><path fill="rgb(69,90,100)" stroke="rgb(76,175,80)" paint-order="fill stroke markers" d=" M 958.90625 142 L 1001.40625 142 L 1001.40625 142 A 5 5 0 0 1 1006.40625 147 L 1006.40625 157 L 1006.40625 157 A 5 5 0 0 1 1001.40625 162 L 916.40625 162 L 916.40625 162 A 5 5 0 0 1 911.40625 157 L 911.40625 147 L 911.40625 147 A 5 5 0 0 1 916.40625 142 L 958.90625 142 Z" fill-opacity="1" stroke-opacity="1" stroke-miterlimit="10" stroke-width="2"/><text fill="rgb(255,255,255)" stroke="none" font-family="times new roman" font-size="10px" font-style="normal" font-weight="normal" text-decoration="normal" x="958.90625" y="157" text-anchor="middle" dominant-baseline="text-after-edge" fill-opacity="1">42132049dup</text><path fill="rgb(69,90,100)" stroke="rgb(76,175,80)" paint-order="fill stroke markers" d=" M 271.96875 288.875 L 271.91480334032974 290.2480341752373 L 271.7532959604149 291.61260313820407 L 271.4852236069593 292.96029386747836 L 271.1122390351652 294.2827974015616 L 270.6366418189475 295.57196006638907 L 270.06136417329645 296.81983374544205 L 269.3899528761966 298.0187248825291 L 268.6265474015616 299.1612419151183 L 267.77585439800055 300.24034084577823 L 266.84311867076457 301.24936867076457 L 265.83409084577823 302.18210439800055 L 264.7549919151183 303.0327974015616 L 263.6124748825291 303.7962028761966 L 262.41358374544205 304.46761417329645 L 261.16571006638907 305.0428918189475 L 259.8765474015616 305.5184890351652 L 258.55404386747836 305.8914736069593 L 257.20635313820407 306.1595459604149 L 255.84178417523728 306.32105334032974 L 254.46875 306.375 L 253.09571582476272 306.32105334032974 L 251.73114686179596 306.1595459604149 L 250.38345613252164 305.8914736069593 L 249.06095259843843 305.5184890351652 L 247.77178993361093 305.0428918189475 L 246.52391625455795 304.46761417329645 L 245.3250251174709 303.7962028761966 L 244.18250808488173 303.0327974015616 L 243.1034091542218 302.18210439800055 L 242.09438132923543 301.24936867076457 L 241.16164560199945 300.24034084577823 L 240.31095259843843 299.1612419151183 L 239.54754712380338 298.0187248825291 L 238.87613582670357 296.81983374544205 L 238.3008581810525 295.57196006638907 L 237.82526096483483 294.2827974015616 L 237.45227639304065 292.96029386747836 L 237.1842040395851 291.61260313820407 L 237.02269665967026 290.2480341752373 L 236.96875 288.875 L 237.02269665967026 287.5019658247627 L 237.1842040395851 286.13739686179593 L 237.45227639304065 284.78970613252164 L 237.8252609648348 283.4672025984384 L 238.3008581810525 282.17803993361093 L 238.87613582670357 280.93016625455795 L 239.54754712380338 279.7312751174709 L 240.3109525984384 278.5887580848817 L 241.16164560199945 277.50965915422177 L 242.0943813292354 276.50063132923543 L 243.10340915422177 275.56789560199945 L 244.1825080848817 274.7172025984384 L 245.3250251174709 273.9537971238034 L 246.52391625455795 273.28238582670355 L 247.77178993361096 272.7071081810525 L 249.06095259843843 272.2315109648348 L 250.3834561325217 271.8585263930407 L 251.731146861796 271.5904540395851 L 253.09571582476278 271.42894665967026 L 254.46875000000006 271.375 L 255.84178417523736 271.42894665967026 L 257.2063531382041 271.5904540395851 L 258.5540438674784 271.8585263930407 L 259.87654740156165 272.23151096483485 L 261.1657100663892 272.7071081810525 L 262.41358374544217 273.2823858267036 L 263.6124748825292 273.95379712380344 L 264.75499191511835 274.7172025984385 L 265.8340908457783 275.56789560199957 L 266.8431186707647 276.5006313292355 L 267.77585439800066 277.5096591542219 L 268.62654740156165 278.5887580848818 L 269.3899528761967 279.73127511747106 L 270.0613641732965 280.93016625455806 L 270.63664181894757 282.1780399336111 L 271.11223903516526 283.4672025984386 L 271.4852236069594 284.7897061325218 L 271.75329596041496 286.13739686179616 L 271.91480334032974 287.5019658247629 Z" fill-opacity="1" stroke-opacity="1" stroke-miterlimit="10" stroke-width="6"/><text fill="rgb(255,255,255)" stroke="none" font-family="times new roman" font-size="10px" font-style="normal" font-weight="normal" text-decoration="normal" x="254.46875" y="293.875" text-anchor="middle" dominant-baseline="text-after-edge" fill-opacity="1">*1.58</text><path fill="rgb(69,90,100)" stroke="rgb(255,193,7)" paint-order="fill stroke markers" d=" M 590.96875 68.5 L 590.96875 88.5 L 685.96875 88.5 L 685.96875 68.5 Z" fill-opacity="1" stroke-opacity="1" stroke-miterlimit="10" stroke-width="6"/><text fill="rgb(255,255,255)" stroke="none" font-family="times new roman" font-size="10px" font-style="normal" font-weight="normal" text-decoration="normal" x="638.46875" y="83.5" text-anchor="middle" dominant-baseline="text-after-edge" fill-opacity="1">42126611C&gt;G</text><path fill="rgb(69,90,100)" stroke="rgb(76,175,80)" paint-order="fill stroke markers" d=" M 517.59375 152 L 517.5398033403297 153.37303417523728 L 517.3782959604149 154.73760313820404 L 517.1102236069594 156.08529386747836 L 516.7372390351652 157.40779740156157 L 516.2616418189475 158.69696006638907 L 515.6863641732964 159.94483374544205 L 515.0149528761966 161.1437248825291 L 514.2515474015615 162.28624191511827 L 513.4008543980005 163.3653408457782 L 512.4681186707646 164.37436867076457 L 511.45909084577823 165.30710439800055 L 510.3799919151183 166.1577974015616 L 509.2374748825291 166.92120287619662 L 508.03858374544205 167.59261417329643 L 506.79071006638907 168.1678918189475 L 505.5015474015616 168.64348903516517 L 504.17904386747836 169.01647360695935 L 502.83135313820407 169.2845459604149 L 501.4667841752373 169.44605334032974 L 500.09375 169.5 L 498.7207158247627 169.44605334032974 L 497.35614686179593 169.2845459604149 L 496.00845613252164 169.01647360695935 L 494.6859525984384 168.6434890351652 L 493.39678993361093 168.1678918189475 L 492.14891625455795 167.59261417329643 L 490.9500251174709 166.92120287619662 L 489.8075080848817 166.1577974015616 L 488.72840915422177 165.30710439800055 L 487.71938132923543 164.37436867076457 L 486.78664560199945 163.3653408457782 L 485.9359525984384 162.2862419151183 L 485.1725471238034 161.1437248825291 L 484.50113582670355 159.94483374544208 L 483.9258581810525 158.69696006638907 L 483.4502609648348 157.4077974015616 L 483.0772763930407 156.08529386747836 L 482.8092040395851 154.73760313820404 L 482.64769665967026 153.37303417523728 L 482.59375 152 L 482.64769665967026 150.62696582476272 L 482.8092040395851 149.26239686179596 L 483.0772763930407 147.91470613252164 L 483.4502609648348 146.59220259843843 L 483.9258581810525 145.30303993361093 L 484.50113582670355 144.05516625455795 L 485.1725471238034 142.8562751174709 L 485.9359525984384 141.71375808488173 L 486.78664560199945 140.6346591542218 L 487.71938132923543 139.62563132923543 L 488.72840915422177 138.69289560199945 L 489.8075080848817 137.84220259843843 L 490.9500251174709 137.07879712380338 L 492.14891625455795 136.40738582670355 L 493.39678993361093 135.8321081810525 L 494.68595259843846 135.3565109648348 L 496.0084561325217 134.98352639304065 L 497.356146861796 134.7154540395851 L 498.72071582476275 134.55394665967026 L 500.09375000000006 134.5 L 501.46678417523736 134.55394665967026 L 502.8313531382041 134.7154540395851 L 504.1790438674784 134.98352639304068 L 505.50154740156165 135.35651096483485 L 506.7907100663892 135.83210818105252 L 508.03858374544217 136.4073858267036 L 509.2374748825292 137.07879712380344 L 510.37999191511835 137.8422025984385 L 511.4590908457783 138.69289560199954 L 512.4681186707646 139.62563132923552 L 513.4008543980007 140.6346591542219 L 514.2515474015617 141.71375808488185 L 515.0149528761967 142.85627511747103 L 515.6863641732965 144.0551662545581 L 516.2616418189476 145.3030399336111 L 516.7372390351652 146.5922025984386 L 517.1102236069594 147.91470613252184 L 517.3782959604149 149.26239686179616 L 517.5398033403297 150.62696582476292 Z" fill-opacity="1" stroke-opacity="1" stroke-miterlimit="10" stroke-width="6"/><text fill="rgb(255,255,255)" stroke="none" font-family="times new roman" font-size="10px" font-style="normal" font-weight="normal" text-decoration="normal" x="500.09375" y="157" text-anchor="middle" dominant-baseline="text-after-edge" fill-opacity="1">*2.4</text><path fill="rgb(69,90,100)" stroke="rgb(76,175,80)" paint-order="fill stroke markers" d=" M 705.71875 68.5 L 705.71875 88.5 L 800.71875 88.5 L 800.71875 68.5 Z" fill-opacity="1" stroke-opacity="1" stroke-miterlimit="10" stroke-width="6"/><text fill="rgb(255,255,255)" stroke="none" font-family="times new roman" font-size="10px" font-style="normal" font-weight="normal" text-decoration="normal" x="753.21875" y="83.5" text-anchor="middle" dominant-baseline="text-after-edge" fill-opacity="1">42127407T&gt;G</text><path fill="rgb(69,90,100)" stroke="rgb(76,175,80)" paint-order="fill stroke markers" d=" M 1070.65625 142 L 1113.15625 142 L 1113.15625 142 A 5 5 0 0 1 1118.15625 147 L 1118.15625 157 L 1118.15625 157 A 5 5 0 0 1 1113.15625 162 L 1028.15625 162 L 1028.15625 162 A 5 5 0 0 1 1023.15625 157 L 1023.15625 147 L 1023.15625 147 A 5 5 0 0 1 1028.15625 142 L 1070.65625 142 Z" fill-opacity="1" stroke-opacity="1" stroke-miterlimit="10" stroke-width="2"/><text fill="rgb(255,255,255)" stroke="none" font-family="times new roman" font-size="10px" font-style="normal" font-weight="normal" text-decoration="normal" x="1070.65625" y="157" text-anchor="middle" dominant-baseline="text-after-edge" fill-opacity="1">42132025_4213202…</text><path fill="rgb(69,90,100)" stroke="rgb(76,175,80)" paint-order="fill stroke markers" d=" M 770.71875 152 L 770.6648033403297 153.37303417523728 L 770.5032959604149 154.73760313820404 L 770.2352236069594 156.08529386747836 L 769.8622390351652 157.40779740156157 L 769.3866418189475 158.69696006638907 L 768.8113641732964 159.94483374544205 L 768.1399528761966 161.1437248825291 L 767.3765474015615 162.28624191511827 L 766.5258543980005 163.3653408457782 L 765.5931186707646 164.37436867076457 L 764.5840908457782 165.30710439800055 L 763.5049919151182 166.1577974015616 L 762.3624748825291 166.92120287619662 L 761.1635837454421 167.59261417329643 L 759.9157100663891 168.1678918189475 L 758.6265474015615 168.64348903516517 L 757.3040438674783 169.01647360695935 L 755.956353138204 169.2845459604149 L 754.5917841752373 169.44605334032974 L 753.21875 169.5 L 751.8457158247627 169.44605334032974 L 750.481146861796 169.2845459604149 L 749.1334561325217 169.01647360695935 L 747.8109525984385 168.6434890351652 L 746.5217899336109 168.1678918189475 L 745.2739162545579 167.59261417329643 L 744.0750251174709 166.92120287619662 L 742.9325080848818 166.1577974015616 L 741.8534091542218 165.30710439800055 L 740.8443813292354 164.37436867076457 L 739.9116456019995 163.3653408457782 L 739.0609525984385 162.2862419151183 L 738.2975471238034 161.1437248825291 L 737.6261358267036 159.94483374544208 L 737.0508581810525 158.69696006638907 L 736.5752609648348 157.4077974015616 L 736.2022763930406 156.08529386747836 L 735.9342040395851 154.73760313820404 L 735.7726966596703 153.37303417523728 L 735.71875 152 L 735.7726966596703 150.62696582476272 L 735.9342040395851 149.26239686179596 L 736.2022763930406 147.91470613252164 L 736.5752609648348 146.59220259843843 L 737.0508581810525 145.30303993361093 L 737.6261358267036 144.05516625455795 L 738.2975471238034 142.8562751174709 L 739.0609525984385 141.71375808488173 L 739.9116456019995 140.6346591542218 L 740.8443813292354 139.62563132923543 L 741.8534091542218 138.69289560199945 L 742.9325080848818 137.84220259843843 L 744.0750251174709 137.07879712380338 L 745.2739162545579 136.40738582670355 L 746.521789933611 135.8321081810525 L 747.8109525984385 135.3565109648348 L 749.1334561325217 134.98352639304065 L 750.481146861796 134.7154540395851 L 751.8457158247628 134.55394665967026 L 753.2187500000001 134.5 L 754.5917841752373 134.55394665967026 L 755.9563531382041 134.7154540395851 L 757.3040438674784 134.98352639304068 L 758.6265474015617 135.35651096483485 L 759.9157100663891 135.83210818105252 L 761.1635837454421 136.4073858267036 L 762.3624748825292 137.07879712380344 L 763.5049919151184 137.8422025984385 L 764.5840908457783 138.69289560199954 L 765.5931186707646 139.62563132923552 L 766.5258543980007 140.6346591542219 L 767.3765474015617 141.71375808488185 L 768.1399528761967 142.85627511747103 L 768.8113641732965 144.0551662545581 L 769.3866418189476 145.3030399336111 L 769.8622390351652 146.5922025984386 L 770.2352236069594 147.91470613252184 L 770.5032959604149 149.26239686179616 L 770.6648033403297 150.62696582476292 Z" fill-opacity="1" stroke-opacity="1" stroke-miterlimit="10" stroke-width="6"/><text fill="rgb(255,255,255)" stroke="none" font-family="times new roman" font-size="10px" font-style="normal" font-weight="normal" text-decoration="normal" x="753.21875" y="157" text-anchor="middle" dominant-baseline="text-after-edge" fill-opacity="1">*1.41</text><path fill="rgb(69,90,100)" stroke="rgb(69,90,100)" paint-order="fill stroke markers" d=" M 780.59375 403 L 761.84375 420.5 L 780.59375 438 L 818.09375 438 L 836.84375 420.5 L 818.09375 403 Z" fill-opacity="1" stroke-opacity="1" stroke-miterlimit="10" stroke-width="2"/><text fill="rgb(255,255,255)" stroke="none" font-family="times new roman" font-size="10px" font-style="normal" font-weight="normal" text-decoration="normal" x="799.34375" y="425.5" text-anchor="middle" dominant-baseline="text-after-edge" fill-opacity="1">NA19109-B</text><path fill="rgb(69,90,100)" stroke="rgb(76,175,80)" paint-order="fill stroke markers" d=" M 149.59375 142 L 149.59375 162 L 244.59374999999997 162 L 244.59375 142 Z" fill-opacity="1" stroke-opacity="1" stroke-miterlimit="10" stroke-width="6"/><text fill="rgb(255,255,255)" stroke="none" font-family="times new roman" font-size="10px" font-style="normal" font-weight="normal" text-decoration="normal" x="197.09375" y="157" text-anchor="middle" dominant-baseline="text-after-edge" fill-opacity="1">42129950A&gt;C</text><path fill="rgb(69,90,100)" stroke="rgb(76,175,80)" paint-order="fill stroke markers" d=" M 563.71875 78.5 L 563.6648033403297 79.87303417523728 L 563.5032959604149 81.23760313820404 L 563.2352236069594 82.58529386747834 L 562.8622390351652 83.90779740156158 L 562.3866418189475 85.19696006638907 L 561.8113641732964 86.44483374544207 L 561.1399528761966 87.6437248825291 L 560.3765474015615 88.78624191511828 L 559.5258543980005 89.8653408457782 L 558.5931186707646 90.87436867076458 L 557.5840908457782 91.80710439800055 L 556.5049919151182 92.65779740156158 L 555.3624748825291 93.42120287619662 L 554.1635837454421 94.09261417329644 L 552.9157100663891 94.66789181894751 L 551.6265474015615 95.14348903516519 L 550.3040438674783 95.51647360695934 L 548.956353138204 95.7845459604149 L 547.5917841752373 95.94605334032974 L 546.21875 96 L 544.8457158247627 95.94605334032974 L 543.481146861796 95.7845459604149 L 542.1334561325217 95.51647360695934 L 540.8109525984385 95.14348903516519 L 539.5217899336109 94.66789181894751 L 538.2739162545579 94.09261417329644 L 537.0750251174709 93.42120287619662 L 535.9325080848818 92.65779740156158 L 534.8534091542218 91.80710439800055 L 533.8443813292354 90.87436867076458 L 532.9116456019995 89.86534084577822 L 532.0609525984385 88.78624191511828 L 531.2975471238034 87.64372488252911 L 530.6261358267036 86.44483374544207 L 530.0508581810525 85.19696006638907 L 529.5752609648348 83.90779740156158 L 529.2022763930406 82.58529386747834 L 528.9342040395851 81.23760313820404 L 528.7726966596703 79.8730341752373 L 528.71875 78.5 L 528.7726966596703 77.12696582476272 L 528.9342040395851 75.76239686179596 L 529.2022763930406 74.41470613252166 L 529.5752609648348 73.09220259843842 L 530.0508581810525 71.80303993361093 L 530.6261358267036 70.55516625455793 L 531.2975471238034 69.3562751174709 L 532.0609525984385 68.21375808488172 L 532.9116456019995 67.1346591542218 L 533.8443813292354 66.12563132923542 L 534.8534091542218 65.19289560199947 L 535.9325080848818 64.34220259843842 L 537.0750251174709 63.57879712380338 L 538.2739162545579 62.90738582670356 L 539.521789933611 62.332108181052476 L 540.8109525984385 61.856510964834804 L 542.1334561325217 61.48352639304065 L 543.481146861796 61.21545403958508 L 544.8457158247628 61.05394665967026 L 546.2187500000001 61 L 547.5917841752373 61.05394665967027 L 548.9563531382041 61.2154540395851 L 550.3040438674784 61.48352639304068 L 551.6265474015617 61.85651096483484 L 552.9157100663891 62.33210818105252 L 554.1635837454421 62.90738582670361 L 555.3624748825292 63.57879712380345 L 556.5049919151184 64.34220259843849 L 557.5840908457783 65.19289560199954 L 558.5931186707646 66.12563132923552 L 559.5258543980007 67.1346591542219 L 560.3765474015617 68.21375808488185 L 561.1399528761967 69.35627511747103 L 561.8113641732965 70.55516625455807 L 562.3866418189476 71.80303993361109 L 562.8622390351652 73.09220259843859 L 563.2352236069594 74.41470613252184 L 563.5032959604149 75.76239686179616 L 563.6648033403297 77.12696582476292 Z" fill-opacity="1" stroke-opacity="1" stroke-miterlimit="10" stroke-width="6"/><text fill="rgb(255,255,255)" stroke="none" font-family="times new roman" font-size="10px" font-style="normal" font-weight="normal" text-decoration="normal" x="546.21875" y="83.5" text-anchor="middle" dominant-baseline="text-after-edge" fill-opacity="1">*39.2</text><path fill="rgb(176,190,197)" stroke="none" paint-order="stroke fill markers" d=" M 844.34375 183.87500000000003 L 844.34375 393.875 L 919.34375 393.875 L 919.34375 183.87500000000006 Z" fill-opacity="0.8"/><text fill="rgb(0,0,0)" stroke="none" font-family="times new roman" font-size="10px" font-style="normal" font-weight="normal" text-decoration="normal" x="849.34375" y="198.875" text-anchor="start" dominant-baseline="text-after-edge" fill-opacity="0.8">42126310C&gt;T </text><text fill="rgb(0,0,0)" stroke="none" font-family="times new roman" font-size="10px" font-style="normal" font-weight="normal" text-decoration="normal" x="849.34375" y="208.875" text-anchor="start" dominant-baseline="text-after-edge" fill-opacity="0.8">42127001G&gt;A </text><text fill="rgb(0,0,0)" stroke="none" font-family="times new roman" font-size="10px" font-style="normal" font-weight="normal" text-decoration="normal" x="849.34375" y="218.875" text-anchor="start" dominant-baseline="text-after-edge" fill-opacity="0.8">42127207C&gt;T </text><text fill="rgb(0,0,0)" stroke="none" font-family="times new roman" font-size="10px" font-style="normal" font-weight="normal" text-decoration="normal" x="849.34375" y="228.875" text-anchor="start" dominant-baseline="text-after-edge" fill-opacity="0.8">42129130C&gt;G </text><text fill="rgb(0,0,0)" stroke="none" font-family="times new roman" font-size="10px" font-style="normal" font-weight="normal" text-decoration="normal" x="849.34375" y="238.875" text-anchor="start" dominant-baseline="text-after-edge" fill-opacity="0.8">42131469C&gt;T </text><text fill="rgb(0,0,0)" stroke="none" font-family="times new roman" font-size="10px" font-style="normal" font-weight="normal" text-decoration="normal" x="849.34375" y="248.875" text-anchor="start" dominant-baseline="text-after-edge" fill-opacity="0.8">42131531G&gt;A </text><text fill="rgb(0,0,0)" stroke="none" font-family="times new roman" font-size="10px" font-style="normal" font-weight="normal" text-decoration="normal" x="849.34375" y="258.875" text-anchor="start" dominant-baseline="text-after-edge" fill-opacity="0.8">42132026T&gt;C </text><text fill="rgb(0,0,0)" stroke="none" font-family="times new roman" font-size="10px" font-style="normal" font-weight="normal" text-decoration="normal" x="849.34375" y="268.875" text-anchor="start" dominant-baseline="text-after-edge" fill-opacity="0.8">42132375G&gt;C </text><path fill="rgb(176,190,197)" stroke="none" paint-order="stroke fill markers" d=" M 1014.78125 183.875 L 1081.78125 183.875 L 1081.78125 183.875 A 8 8 0 0 1 1089.78125 191.875 L 1089.78125 385.875 L 1089.78125 385.875 A 8 8 0 0 1 1081.78125 393.875 L 947.78125 393.875 L 947.78125 393.875 A 8 8 0 0 1 939.78125 385.875 L 939.78125 191.875 L 939.78125 191.875 A 8 8 0 0 1 947.78125 183.875 L 1014.78125 183.875 Z" fill-opacity="0.8"/><text fill="rgb(0,0,0)" stroke="none" font-family="times new roman" font-size="10px" font-style="normal" font-weight="normal" text-decoration="normal" x="944.78125" y="198.875" text-anchor="start" dominant-baseline="text-after-edge" fill-opacity="0.8">42125924A&gt;G </text><text fill="rgb(0,0,0)" stroke="none" font-family="times new roman" font-size="10px" font-style="normal" font-weight="normal" text-decoration="normal" x="944.78125" y="208.875" text-anchor="start" dominant-baseline="text-after-edge" fill-opacity="0.8">42126069A&gt;C </text><text fill="rgb(0,0,0)" stroke="none" font-family="times new roman" font-size="10px" font-style="normal" font-weight="normal" text-decoration="normal" x="944.78125" y="218.875" text-anchor="start" dominant-baseline="text-after-edge" fill-opacity="0.8">42126136_42126138del </text><text fill="rgb(0,0,0)" stroke="none" font-family="times new roman" font-size="10px" font-style="normal" font-weight="normal" text-decoration="normal" x="944.78125" y="228.875" text-anchor="start" dominant-baseline="text-after-edge" fill-opacity="0.8">42132025_42132026insCCTTTT </text><text fill="rgb(0,0,0)" stroke="none" font-family="times new roman" font-size="10px" font-style="normal" font-weight="normal" text-decoration="normal" x="944.78125" y="238.875" text-anchor="start" dominant-baseline="text-after-edge" fill-opacity="0.8">42132027C&gt;T </text><text fill="rgb(0,0,0)" stroke="none" font-family="times new roman" font-size="10px" font-style="normal" font-weight="normal" text-decoration="normal" x="944.78125" y="248.875" text-anchor="start" dominant-baseline="text-after-edge" fill-opacity="0.8">42132561C&gt;T </text><text fill="rgb(0,0,0)" stroke="none" font-family="times new roman" font-size="10px" font-style="normal" font-weight="normal" text-decoration="normal" x="944.78125" y="258.875" text-anchor="start" dominant-baseline="text-after-edge" fill-opacity="0.8">42132844C&gt;A </text><text fill="rgb(0,0,0)" stroke="none" font-family="times new roman" font-size="10px" font-style="normal" font-weight="normal" text-decoration="normal" x="944.78125" y="268.875" text-anchor="start" dominant-baseline="text-after-edge" fill-opacity="0.8">42132851T&gt;C </text><text fill="rgb(0,0,0)" stroke="none" font-family="times new roman" font-size="10px" font-style="normal" font-weight="normal" text-decoration="normal" x="944.78125" y="278.875" text-anchor="start" dominant-baseline="text-after-edge" fill-opacity="0.8">42133330C&gt;T </text><text fill="rgb(0,0,0)" stroke="none" font-family="times new roman" font-size="10px" font-style="normal" font-weight="normal" text-decoration="normal" x="944.78125" y="288.875" text-anchor="start" dominant-baseline="text-after-edge" fill-opacity="0.8">42133400T&gt;G </text><text fill="rgb(0,0,0)" stroke="none" font-family="times new roman" font-size="10px" font-style="normal" font-weight="normal" text-decoration="normal" x="944.78125" y="298.875" text-anchor="start" dominant-baseline="text-after-edge" fill-opacity="0.8">42133533A&gt;C </text><text fill="rgb(0,0,0)" stroke="none" font-family="times new roman" font-size="10px" font-style="normal" font-weight="normal" text-decoration="normal" x="944.78125" y="308.875" text-anchor="start" dominant-baseline="text-after-edge" fill-opacity="0.8">42134096del </text><text fill="rgb(0,0,0)" stroke="none" font-family="times new roman" font-size="10px" font-style="normal" font-weight="normal" text-decoration="normal" x="944.78125" y="318.875" text-anchor="start" dominant-baseline="text-after-edge" fill-opacity="0.8">42134820T&gt;G </text><text fill="rgb(0,0,0)" stroke="none" font-family="times new roman" font-size="10px" font-style="normal" font-weight="normal" text-decoration="normal" x="944.78125" y="328.875" text-anchor="start" dominant-baseline="text-after-edge" fill-opacity="0.8">42135064_42135066dup </text><text fill="rgb(0,0,0)" stroke="none" font-family="times new roman" font-size="10px" font-style="normal" font-weight="normal" text-decoration="normal" x="944.78125" y="338.875" text-anchor="start" dominant-baseline="text-after-edge" fill-opacity="0.8">42135201T&gt;C </text><text fill="rgb(0,0,0)" stroke="none" font-family="times new roman" font-size="10px" font-style="normal" font-weight="normal" text-decoration="normal" x="944.78125" y="348.875" text-anchor="start" dominant-baseline="text-after-edge" fill-opacity="0.8">42135691T&gt;C </text><g transform="scale(1.018351619644723,1.018351619644723) translate(112.97001859808893,-59.97819534406463)"/></g></svg>