<svg version="1.1" xmlns="http://www.w3.org/2000/svg" xmlns:xlink="http://www.w3.org/1999/xlink" width="1017" height="608"><defs/><g transform="translate(-51.27388402169379,-55.38923654568214) scale(0.9144764288694202,0.9144764288694202)"><path fill="none" stroke="rgb(120,144,156)" paint-order="fill stroke markers" d=" M 351.31250526696226 550.7714472155398 L 607.8323743874732 660.9102534067316" stroke-opacity="1" stroke-linejoin="round" stroke-miterlimit="10"/><path fill="rgb(120,144,156)" stroke="none" paint-order="stroke fill markers" d=" M 599.9596528693351 662.264046558526 L 609.6701407931721 661.6993127442244 L 603.3920609874285 654.2697626937357 Z" fill-opacity="1"/><path fill="none" stroke="rgb(120,144,156)" paint-order="fill stroke markers" d=" M 498.0262731921745 553.599145666141 L 614.500642973095 654.2949678166412" stroke-opacity="1" stroke-linejoin="round" stroke-miterlimit="10"/><path fill="rgb(120,144,156)" stroke="none" paint-order="stroke fill markers" d=" M 606.5872408630797 653.2038367313879 L 616.0136184533301 655.6029835643321 L 612.2771093655352 646.6223933923653 Z" fill-opacity="1"/><path fill="none" stroke="rgb(120,144,156)" paint-order="fill stroke markers" d=" M 202.75978185595568 417.125 L 311.5031104817124 523.6550994135636" stroke-opacity="1" stroke-linejoin="round" stroke-miterlimit="10"/><path fill="rgb(120,144,156)" stroke="none" paint-order="stroke fill markers" d=" M 303.67291039059376 522.0738130596587 L 312.93178809098987 525.0546994595586 L 309.76117059067207 515.8590654593019 Z" fill-opacity="1"/><path fill="none" stroke="rgb(120,144,156)" paint-order="fill stroke markers" d=" M 381.3359298329162 427.53179254016675 L 340.239203798325 518.2713527755637" stroke-opacity="1" stroke-linejoin="round" stroke-miterlimit="10"/><path fill="rgb(120,144,156)" stroke="none" paint-order="stroke fill markers" d=" M 339.04086752469675 510.3734739353113 L 339.4140701670838 520.0932074598333 L 346.9659354012691 513.9628052312105 Z" fill-opacity="1"/><path fill="none" stroke="rgb(120,144,156)" paint-order="fill stroke markers" d=" M 474.9898830346196 273.82780933103214 L 517.4990098986042 314.2932281727098" stroke-opacity="1" stroke-linejoin="round" stroke-miterlimit="10"/><path fill="rgb(120,144,156)" stroke="none" paint-order="stroke fill markers" d=" M 509.6469327955429 312.82442418048345 L 518.9476169653803 315.67219066896786 L 515.6454196542654 306.52298344000724 Z" fill-opacity="1"/><path fill="none" stroke="rgb(120,144,156)" paint-order="fill stroke markers" d=" M 628.0889423076923 646.5 L 630.0007706100172 652.7134419825561" stroke-opacity="1" stroke-linejoin="round" stroke-miterlimit="10"/><path fill="rgb(120,144,156)" stroke="none" paint-order="stroke fill markers" d=" M 623.8727567348653 647.5889960665622 L 630.5889423076923 654.625 L 632.1880341107462 645.0304491816757 Z" fill-opacity="1"/><path fill="none" stroke="rgb(120,144,156)" paint-order="fill stroke markers" d=" M 712.0714162049861 417.125 L 755.5850411373248 522.5506281917735" stroke-opacity="1" stroke-linejoin="round" stroke-miterlimit="10"/><path fill="rgb(120,144,156)" stroke="none" paint-order="stroke fill markers" d=" M 749.0078769058267 518.0170412375061 L 756.348085904415 524.399347392576 L 757.049805429318 514.6977965006635 Z" fill-opacity="1"/><path fill="none" stroke="rgb(55,71,79)" paint-order="fill stroke markers" d=" M 484.03125 417.125 L 484.03125 523" stroke-opacity="1" stroke-linejoin="round" stroke-miterlimit="10" stroke-width="2"/><path fill="none" stroke="rgb(120,144,156)" paint-order="fill stroke markers" d=" M 814.7410837950139 417.125 L 771.2274588626752 522.5506281917735" stroke-opacity="1" stroke-linejoin="round" stroke-miterlimit="10"/><path fill="rgb(120,144,156)" stroke="none" paint-order="stroke fill markers" d=" M 769.762694570682 514.6977965006635 L 770.464414095585 524.399347392576 L 777.8046230941733 518.0170412375061 Z" fill-opacity="1"/><path fill="none" stroke="rgb(120,144,156)" paint-order="fill stroke markers" d=" M 595.78125 417.125 L 595.78125 434.5" stroke-opacity="1" stroke-linejoin="round" stroke-miterlimit="10"/><path fill="rgb(120,144,156)" stroke="none" paint-order="stroke fill markers" d=" M 591.43125 427.8 L 595.78125 436.5 L 600.13125 427.8 Z" fill-opacity="1"/><path fill="none" stroke="rgb(120,144,156)" paint-order="fill stroke markers" d=" M 750.55422191794 554.8069671292126 L 655.5381798088251 653.1864089590041" stroke-opacity="1" stroke-linejoin="round" stroke-miterlimit="10"/><path fill="rgb(120,144,156)" stroke="none" paint-order="stroke fill markers" d=" M 657.0637625730267 645.3451656118319 L 654.1487713675214 654.625 L 663.3216336013589 651.3890923315033 Z" fill-opacity="1"/><path fill="none" stroke="rgb(120,144,156)" paint-order="fill stroke markers" d=" M 933.6060422437673 417.125 L 958.0465607526622 521.539522860486" stroke-opacity="1" stroke-linejoin="round" stroke-miterlimit="10"/><path fill="rgb(120,144,156)" stroke="none" paint-order="stroke fill markers" d=" M 952.2840366788062 516.0072704893239 L 958.5023840938659 523.4868864838533 L 960.7550684404536 514.0244389550878 Z" fill-opacity="1"/><path fill="none" stroke="rgb(120,144,156)" paint-order="fill stroke markers" d=" M 945.5610276376244 548.4182774832784 L 665.2571583257632 661.4414344372856" stroke-opacity="1" stroke-linejoin="round" stroke-miterlimit="10"/><path fill="rgb(120,144,156)" stroke="none" paint-order="stroke fill markers" d=" M 669.8443060433663 654.9015127392154 L 663.4022694217226 662.1893563273698 L 673.0977662652323 662.970279471792 Z" fill-opacity="1"/><path fill="none" stroke="rgb(120,144,156)" paint-order="fill stroke markers" d=" M 457.96875 281.125 L 457.96875 306.375" stroke-opacity="1" stroke-linejoin="round" stroke-miterlimit="10"/><path fill="rgb(120,144,156)" stroke="none" paint-order="stroke fill markers" d=" M 453.61875 299.675 L 457.96875 308.375 L 462.31875 299.675 Z" fill-opacity="1"/><path fill="none" stroke="rgb(120,144,156)" paint-order="fill stroke markers" d=" M 313.70982864635903 274.828616977047 L 203.12982250291034 393.66086238493216" stroke-opacity="1" stroke-linejoin="round" stroke-miterlimit="10"/><path fill="rgb(120,144,156)" stroke="none" paint-order="stroke fill markers" d=" M 204.50956885266524 385.7926478472916 L 201.76736111111111 395.125 L 210.8785674782103 391.71935490161826 Z" fill-opacity="1"/><path fill="none" stroke="rgb(120,144,156)" paint-order="fill stroke markers" d=" M 1006.21875 553.6145881270133 L 666.9984783844425 663.2016247925087" stroke-opacity="1" stroke-linejoin="round" stroke-miterlimit="10"/><path fill="rgb(120,144,156)" stroke="none" paint-order="stroke fill markers" d=" M 672.0367976430803 657.0026055920191 L 665.0953254738057 663.8164491566445 L 674.7112836270708 665.2813207532888 Z" fill-opacity="1"/><path fill="none" stroke="rgb(55,71,79)" paint-order="fill stroke markers" d=" M 623.71875 123.875 L 623.71875 159.875" stroke-opacity="1" stroke-linejoin="round" stroke-miterlimit="10" stroke-width="2"/><path fill="none" stroke="rgb(55,71,79)" paint-order="fill stroke markers" d=" M 329.71875 194.375 L 329.71875 234.125" stroke-opacity="1" stroke-linejoin="round" stroke-miterlimit="10" stroke-width="2"/><path fill="none" stroke="rgb(55,71,79)" paint-order="fill stroke markers" d=" M 422.71875 131.375 L 422.71875 159.875" stroke-opacity="1" stroke-linejoin="round" stroke-miterlimit="10" stroke-width="2"/><path fill="none" stroke="rgb(120,144,156)" paint-order="fill stroke markers" d=" M 350.05626770880644 269.39935235773004 L 435.9003797202313 319.09857510118655" stroke-opacity="1" stroke-linejoin="round" stroke-miterlimit="10"/><path fill="rgb(120,144,156)" stroke="none" paint-order="stroke fill markers" d=" M 427.9225158306513 319.5062364304 L 437.63123229119356 320.10064764226996 L 432.2815313843642 311.9770277467142 Z" fill-opacity="1"/><path fill="none" stroke="rgb(55,71,79)" paint-order="fill stroke markers" d=" M 498.0432180851064 123.875 L 441.15952763714404 168.80833531183583" stroke-opacity="1" stroke-linejoin="round" stroke-miterlimit="10" stroke-width="2"/><path fill="none" stroke="rgb(120,144,156)" paint-order="fill stroke markers" d=" M 548.7465277777778 268.625 L 541.018254950495 306.8799504950495" stroke-opacity="1" stroke-linejoin="round" stroke-miterlimit="10"/><path fill="rgb(120,144,156)" stroke="none" paint-order="stroke fill markers" d=" M 538.0811262376237 299.4512376237624 L 540.6222153465346 308.84034653465346 L 546.608849009901 301.1740099009901 Z" fill-opacity="1"/><path fill="none" stroke="rgb(120,144,156)" paint-order="fill stroke markers" d=" M 442.23347334355685 349.32925645924786 L 408.1056991378426 387.18527490592254" stroke-opacity="1" stroke-linejoin="round" stroke-miterlimit="10"/><path fill="rgb(120,144,156)" stroke="none" paint-order="stroke fill markers" d=" M 409.3610326697762 379.2962548321996 L 406.76652665644315 388.67074354075214 L 415.822821231285 385.12165512628707 Z" fill-opacity="1"/><path fill="none" stroke="rgb(120,144,156)" paint-order="fill stroke markers" d=" M 515.0535342850969 342.5896512588637 L 413.7264840736183 394.498463527616" stroke-opacity="1" stroke-linejoin="round" stroke-miterlimit="10"/><path fill="rgb(120,144,156)" stroke="none" paint-order="stroke fill markers" d=" M 417.7061952359074 387.5721081321175 L 411.9464657149031 395.4103487411363 L 421.67289591472075 395.3151879925284 Z" fill-opacity="1"/><path fill="none" stroke="rgb(120,144,156)" paint-order="fill stroke markers" d=" M 479.6715379243085 340.8882677932306 L 943.7865307468797 533.63736213782" stroke-opacity="1" stroke-linejoin="round" stroke-miterlimit="10"/><path fill="rgb(120,144,156)" stroke="none" paint-order="stroke fill markers" d=" M 935.9305139812022 535.0849465316965 L 945.633576527672 534.4044487585205 L 939.2673407812493 527.0502973852504 Z" fill-opacity="1"/><path fill="none" stroke="rgb(120,144,156)" paint-order="fill stroke markers" d=" M 432.79721092852276 204.60409855156925 L 447.0325477158583 234.58916965680783" stroke-opacity="1" stroke-linejoin="round" stroke-miterlimit="10"/><path fill="rgb(120,144,156)" stroke="none" paint-order="stroke fill markers" d=" M 440.2294725277549 230.4022056033423 L 447.89028907147724 236.39590144843075 L 448.0887558213146 226.67103070639982 Z" fill-opacity="1"/><path fill="none" stroke="rgb(55,71,79)" paint-order="fill stroke markers" d=" M 698.4515420728866 124.34237432898031 L 642.159527637144 168.80833531183583" stroke-opacity="1" stroke-linejoin="round" stroke-miterlimit="10" stroke-width="2"/><path fill="none" stroke="rgb(55,71,79)" paint-order="fill stroke markers" d=" M 511.0066297570194 197.27155062132272 L 473.48144328162397 239.97262488642792" stroke-opacity="1" stroke-linejoin="round" stroke-miterlimit="10" stroke-width="2"/><path fill="none" stroke="rgb(120,144,156)" paint-order="fill stroke markers" d=" M 602.2722834656233 192.98224066472073 L 481.24044772879165 247.20012183189877" stroke-opacity="1" stroke-linejoin="round" stroke-miterlimit="10"/><path fill="rgb(120,144,156)" stroke="none" paint-order="stroke fill markers" d=" M 485.57661066022945 240.49115834772144 L 479.4152165343766 248.01775933527927 L 489.1333337999346 248.43091404342684 Z" fill-opacity="1"/><path fill="rgb(69,90,100)" stroke="rgb(69,90,100)" paint-order="fill stroke markers" d=" M 617.53125 655.625 L 598.78125 673.125 L 617.53125 690.625 L 655.03125 690.625 L 673.78125 673.125 L 655.03125 655.625 Z" fill-opacity="1" stroke-opacity="1" stroke-miterlimit="10" stroke-width="2"/><text fill="rgb(255,255,255)" stroke="none" font-family="times new roman" font-size="10px" font-style="normal" font-weight="normal" text-decoration="normal" x="636.28125" y="678.125" text-anchor="middle" dominant-baseline="text-after-edge" fill-opacity="1">NA19917-B</text><path fill="rgb(69,90,100)" stroke="rgb(255,193,7)" paint-order="fill stroke markers" d=" M 503.46875 247.625 L 503.46875 267.625 L 598.46875 267.625 L 598.46875 247.625 Z" fill-opacity="1" stroke-opacity="1" stroke-miterlimit="10" stroke-width="2"/><text fill="rgb(255,255,255)" stroke="none" font-family="times new roman" font-size="10px" font-style="normal" font-weight="normal" text-decoration="normal" x="550.96875" y="262.625" text-anchor="middle" dominant-baseline="text-after-edge" fill-opacity="1">42129770G&gt;A</text><path fill="rgb(69,90,100)" stroke="rgb(158,158,158)" paint-order="fill stroke markers" d=" M 980.21875 541.5 L 980.1648033403297 542.8730341752373 L 980.0032959604149 544.237603138204 L 979.7352236069594 545.5852938674783 L 979.3622390351652 546.9077974015615 L 978.8866418189475 548.1969600663891 L 978.3113641732964 549.4448337454421 L 977.6399528761966 550.6437248825291 L 976.8765474015615 551.7862419151182 L 976.0258543980005 552.8653408457782 L 975.0931186707646 553.8743686707646 L 974.0840908457782 554.8071043980005 L 973.0049919151182 555.6577974015615 L 971.8624748825291 556.4212028761966 L 970.6635837454421 557.0926141732964 L 969.4157100663891 557.6678918189475 L 968.1265474015615 558.1434890351652 L 966.8040438674783 558.5164736069594 L 965.456353138204 558.7845459604149 L 964.0917841752373 558.9460533403297 L 962.71875 559 L 961.3457158247627 558.9460533403297 L 959.981146861796 558.7845459604149 L 958.6334561325217 558.5164736069594 L 957.3109525984385 558.1434890351652 L 956.0217899336109 557.6678918189475 L 954.7739162545579 557.0926141732964 L 953.5750251174709 556.4212028761966 L 952.4325080848818 555.6577974015615 L 951.3534091542218 554.8071043980005 L 950.3443813292354 553.8743686707646 L 949.4116456019995 552.8653408457782 L 948.5609525984385 551.7862419151182 L 947.7975471238034 550.6437248825291 L 947.1261358267036 549.4448337454421 L 946.5508581810525 548.1969600663891 L 946.0752609648348 546.9077974015615 L 945.7022763930406 545.5852938674783 L 945.4342040395851 544.237603138204 L 945.2726966596703 542.8730341752373 L 945.21875 541.5 L 945.2726966596703 540.1269658247627 L 945.4342040395851 538.762396861796 L 945.7022763930406 537.4147061325217 L 946.0752609648348 536.0922025984385 L 946.5508581810525 534.8030399336109 L 947.1261358267036 533.5551662545579 L 947.7975471238034 532.3562751174709 L 948.5609525984385 531.2137580848818 L 949.4116456019995 530.1346591542218 L 950.3443813292354 529.1256313292354 L 951.3534091542218 528.1928956019995 L 952.4325080848818 527.3422025984385 L 953.5750251174709 526.5787971238034 L 954.7739162545579 525.9073858267036 L 956.021789933611 525.3321081810525 L 957.3109525984385 524.8565109648348 L 958.6334561325217 524.4835263930406 L 959.981146861796 524.2154540395851 L 961.3457158247628 524.0539466596703 L 962.7187500000001 524 L 964.0917841752373 524.0539466596703 L 965.4563531382041 524.2154540395851 L 966.8040438674784 524.4835263930406 L 968.1265474015617 524.8565109648348 L 969.4157100663891 525.3321081810525 L 970.6635837454421 525.9073858267036 L 971.8624748825292 526.5787971238035 L 973.0049919151184 527.3422025984385 L 974.0840908457783 528.1928956019996 L 975.0931186707646 529.1256313292355 L 976.0258543980007 530.1346591542219 L 976.8765474015617 531.2137580848819 L 977.6399528761967 532.356275117471 L 978.3113641732965 533.5551662545581 L 978.8866418189476 534.8030399336111 L 979.3622390351652 536.0922025984386 L 979.7352236069594 537.4147061325218 L 980.0032959604149 538.7623968617961 L 980.1648033403297 540.1269658247629 Z" fill-opacity="1" stroke-opacity="1" stroke-miterlimit="10" stroke-width="2"/><text fill="rgb(255,255,255)" stroke="none" font-family="times new roman" font-size="10px" font-style="normal" font-weight="normal" text-decoration="normal" x="962.71875" y="546.5" text-anchor="middle" dominant-baseline="text-after-edge" fill-opacity="1">*30.1</text><path fill="rgb(69,90,100)" stroke="rgb(76,175,80)" paint-order="fill stroke markers" d=" M 595.78125 396.125 L 638.28125 396.125 L 638.28125 396.125 A 5 5 0 0 1 643.28125 401.125 L 643.28125 411.125 L 643.28125 411.125 A 5 5 0 0 1 638.28125 416.125 L 553.28125 416.125 L 553.28125 416.125 A 5 5 0 0 1 548.28125 411.125 L 548.28125 401.125 L 548.28125 401.125 A 5 5 0 0 1 553.28125 396.125 L 595.78125 396.125 Z" fill-opacity="1" stroke-opacity="1" stroke-miterlimit="10" stroke-width="2"/><text fill="rgb(255,255,255)" stroke="none" font-family="times new roman" font-size="10px" font-style="normal" font-weight="normal" text-decoration="normal" x="595.78125" y="411.125" text-anchor="middle" dominant-baseline="text-after-edge" fill-opacity="1">42132049dup</text><path fill="rgb(69,90,100)" stroke="rgb(76,175,80)" paint-order="fill stroke markers" d=" M 780.90625 541.5 L 780.8523033403297 542.8730341752373 L 780.6907959604149 544.237603138204 L 780.4227236069594 545.5852938674783 L 780.0497390351652 546.9077974015615 L 779.5741418189475 548.1969600663891 L 778.9988641732964 549.4448337454421 L 778.3274528761966 550.6437248825291 L 777.5640474015615 551.7862419151182 L 776.7133543980005 552.8653408457782 L 775.7806186707646 553.8743686707646 L 774.7715908457782 554.8071043980005 L 773.6924919151182 555.6577974015615 L 772.5499748825291 556.4212028761966 L 771.3510837454421 557.0926141732964 L 770.1032100663891 557.6678918189475 L 768.8140474015615 558.1434890351652 L 767.4915438674783 558.5164736069594 L 766.143853138204 558.7845459604149 L 764.7792841752373 558.9460533403297 L 763.40625 559 L 762.0332158247627 558.9460533403297 L 760.668646861796 558.7845459604149 L 759.3209561325217 558.5164736069594 L 757.9984525984385 558.1434890351652 L 756.7092899336109 557.6678918189475 L 755.4614162545579 557.0926141732964 L 754.2625251174709 556.4212028761966 L 753.1200080848818 555.6577974015615 L 752.0409091542218 554.8071043980005 L 751.0318813292354 553.8743686707646 L 750.0991456019995 552.8653408457782 L 749.2484525984385 551.7862419151182 L 748.4850471238034 550.6437248825291 L 747.8136358267036 549.4448337454421 L 747.2383581810525 548.1969600663891 L 746.7627609648348 546.9077974015615 L 746.3897763930406 545.5852938674783 L 746.1217040395851 544.237603138204 L 745.9601966596703 542.8730341752373 L 745.90625 541.5 L 745.9601966596703 540.1269658247627 L 746.1217040395851 538.762396861796 L 746.3897763930406 537.4147061325217 L 746.7627609648348 536.0922025984385 L 747.2383581810525 534.8030399336109 L 747.8136358267036 533.5551662545579 L 748.4850471238034 532.3562751174709 L 749.2484525984385 531.2137580848818 L 750.0991456019995 530.1346591542218 L 751.0318813292354 529.1256313292354 L 752.0409091542218 528.1928956019995 L 753.1200080848818 527.3422025984385 L 754.2625251174709 526.5787971238034 L 755.4614162545579 525.9073858267036 L 756.709289933611 525.3321081810525 L 757.9984525984385 524.8565109648348 L 759.3209561325217 524.4835263930406 L 760.668646861796 524.2154540395851 L 762.0332158247628 524.0539466596703 L 763.4062500000001 524 L 764.7792841752373 524.0539466596703 L 766.1438531382041 524.2154540395851 L 767.4915438674784 524.4835263930406 L 768.8140474015617 524.8565109648348 L 770.1032100663891 525.3321081810525 L 771.3510837454421 525.9073858267036 L 772.5499748825292 526.5787971238035 L 773.6924919151184 527.3422025984385 L 774.7715908457783 528.1928956019996 L 775.7806186707646 529.1256313292355 L 776.7133543980007 530.1346591542219 L 777.5640474015617 531.2137580848819 L 778.3274528761967 532.356275117471 L 778.9988641732965 533.5551662545581 L 779.5741418189476 534.8030399336111 L 780.0497390351652 536.0922025984386 L 780.4227236069594 537.4147061325218 L 780.6907959604149 538.7623968617961 L 780.8523033403297 540.1269658247629 Z" fill-opacity="1" stroke-opacity="1" stroke-miterlimit="10" stroke-width="2"/><text fill="rgb(255,255,255)" stroke="none" font-family="times new roman" font-size="10px" font-style="normal" font-weight="normal" text-decoration="normal" x="763.40625" y="546.5" text-anchor="middle" dominant-baseline="text-after-edge" fill-opacity="1">*1.58</text><path fill="rgb(69,90,100)" stroke="rgb(158,158,158)" paint-order="fill stroke markers" d=" M 480.46875 331.875 L 480.3993900089954 333.6403296538765 L 480.1917376633906 335.3947754634052 L 479.84707320894773 337.12752068675786 L 479.36752161664094 338.8278823734363 L 478.75603948150393 340.48537722821453 L 478.0163967942383 342.0897862441398 L 477.15315369796707 343.6312177061088 L 476.1716323734363 345.10016817658067 L 475.0778842260007 346.48758108742913 L 473.87865257669733 347.78490257669733 L 472.58133108742913 348.9841342260007 L 471.19391817658067 350.0778823734363 L 469.7249677061088 351.05940369796707 L 468.1835362441398 351.9226467942383 L 466.57912722821453 352.66228948150393 L 464.9216323734363 353.27377161664094 L 463.22127068675786 353.75332320894773 L 461.4885254634052 354.0979876633906 L 459.7340796538765 354.3056400089954 L 457.96875 354.375 L 456.2034203461235 354.3056400089954 L 454.4489745365948 354.0979876633906 L 452.71622931324214 353.75332320894773 L 451.0158676265637 353.27377161664094 L 449.35837277178547 352.66228948150393 L 447.7539637558602 351.9226467942383 L 446.2125322938912 351.05940369796707 L 444.74358182341933 350.0778823734363 L 443.35616891257087 348.9841342260007 L 442.05884742330267 347.78490257669733 L 440.8596157739993 346.48758108742913 L 439.7658676265637 345.10016817658067 L 438.78434630203293 343.6312177061088 L 437.9211032057617 342.0897862441398 L 437.18146051849607 340.48537722821453 L 436.56997838335906 338.8278823734363 L 436.09042679105227 337.12752068675786 L 435.7457623366094 335.3947754634052 L 435.5381099910046 333.6403296538765 L 435.46875 331.875 L 435.5381099910046 330.1096703461235 L 435.7457623366094 328.3552245365948 L 436.09042679105227 326.62247931324214 L 436.56997838335906 324.9221176265637 L 437.18146051849607 323.26462277178547 L 437.9211032057617 321.6602137558602 L 438.78434630203293 320.1187822938912 L 439.7658676265637 318.64983182341933 L 440.8596157739993 317.26241891257087 L 442.05884742330267 315.96509742330267 L 443.35616891257087 314.76586577399934 L 444.74358182341933 313.6721176265637 L 446.2125322938912 312.69059630203293 L 447.75396375586024 311.8273532057617 L 449.3583727717855 311.087710518496 L 451.0158676265637 310.47622838335906 L 452.7162293132422 309.99667679105227 L 454.44897453659485 309.6520123366094 L 456.20342034612355 309.4443599910046 L 457.96875000000006 309.375 L 459.7340796538766 309.4443599910046 L 461.48852546340527 309.6520123366094 L 463.221270686758 309.9966767910523 L 464.9216323734364 310.47622838335906 L 466.57912722821465 311.0877105184961 L 468.18353624413993 311.82735320576177 L 469.724967706109 312.690596302033 L 471.1939181765808 313.67211762656376 L 472.58133108742925 314.7658657739994 L 473.87865257669745 315.9650974233028 L 475.07788422600083 317.262418912571 L 476.1716323734364 318.6498318234195 L 477.1531536979672 320.11878229389134 L 478.0163967942384 321.6602137558604 L 478.75603948150405 323.2646227717857 L 479.36752161664106 324.92211762656393 L 479.8470732089478 326.62247931324237 L 480.19173766339065 328.3552245365951 L 480.3993900089954 330.1096703461238 Z" fill-opacity="1" stroke-opacity="1" stroke-miterlimit="10" stroke-width="2"/><text fill="rgb(255,255,255)" stroke="none" font-family="times new roman" font-size="15px" font-style="normal" font-weight="normal" text-decoration="normal" x="457.96875" y="339.375" text-anchor="middle" dominant-baseline="text-after-edge" fill-opacity="1">*30</text><path fill="rgb(69,90,100)" stroke="rgb(76,175,80)" paint-order="fill stroke markers" d=" M 480.46875 257.625 L 480.3993900089954 259.3903296538765 L 480.1917376633906 261.1447754634052 L 479.84707320894773 262.87752068675786 L 479.36752161664094 264.5778823734363 L 478.75603948150393 266.23537722821453 L 478.0163967942383 267.8397862441398 L 477.15315369796707 269.3812177061088 L 476.1716323734363 270.85016817658067 L 475.0778842260007 272.23758108742913 L 473.87865257669733 273.53490257669733 L 472.58133108742913 274.7341342260007 L 471.19391817658067 275.8278823734363 L 469.7249677061088 276.80940369796707 L 468.1835362441398 277.6726467942383 L 466.57912722821453 278.41228948150393 L 464.9216323734363 279.02377161664094 L 463.22127068675786 279.50332320894773 L 461.4885254634052 279.8479876633906 L 459.7340796538765 280.0556400089954 L 457.96875 280.125 L 456.2034203461235 280.0556400089954 L 454.4489745365948 279.8479876633906 L 452.71622931324214 279.50332320894773 L 451.0158676265637 279.02377161664094 L 449.35837277178547 278.41228948150393 L 447.7539637558602 277.6726467942383 L 446.2125322938912 276.80940369796707 L 444.74358182341933 275.8278823734363 L 443.35616891257087 274.7341342260007 L 442.05884742330267 273.53490257669733 L 440.8596157739993 272.23758108742913 L 439.7658676265637 270.85016817658067 L 438.78434630203293 269.3812177061088 L 437.9211032057617 267.8397862441398 L 437.18146051849607 266.23537722821453 L 436.56997838335906 264.5778823734363 L 436.09042679105227 262.87752068675786 L 435.7457623366094 261.1447754634052 L 435.5381099910046 259.3903296538765 L 435.46875 257.625 L 435.5381099910046 255.8596703461235 L 435.7457623366094 254.10522453659482 L 436.09042679105227 252.37247931324214 L 436.56997838335906 250.67211762656368 L 437.18146051849607 249.01462277178547 L 437.9211032057617 247.4102137558602 L 438.78434630203293 245.86878229389114 L 439.7658676265637 244.39983182341936 L 440.8596157739993 243.01241891257087 L 442.05884742330267 241.7150974233027 L 443.35616891257087 240.5158657739993 L 444.74358182341933 239.42211762656368 L 446.2125322938912 238.44059630203293 L 447.75396375586024 237.5773532057617 L 449.3583727717855 236.83771051849604 L 451.0158676265637 236.22622838335903 L 452.7162293132422 235.74667679105227 L 454.44897453659485 235.4020123366094 L 456.20342034612355 235.1943599910046 L 457.96875000000006 235.125 L 459.7340796538766 235.19435999100463 L 461.48852546340527 235.4020123366094 L 463.221270686758 235.7466767910523 L 464.9216323734364 236.22622838335909 L 466.57912722821465 236.8377105184961 L 468.18353624413993 237.5773532057618 L 469.724967706109 238.440596302033 L 471.1939181765808 239.42211762656376 L 472.58133108742925 240.51586577399942 L 473.87865257669745 241.7150974233028 L 475.07788422600083 243.012418912571 L 476.1716323734364 244.3998318234195 L 477.1531536979672 245.86878229389131 L 478.0163967942384 247.41021375586038 L 478.75603948150405 249.0146227717857 L 479.36752161664106 250.6721176265639 L 479.8470732089478 252.37247931324237 L 480.19173766339065 254.10522453659505 L 480.3993900089954 255.85967034612375 Z" fill-opacity="1" stroke-opacity="1" stroke-miterlimit="10" stroke-width="2"/><text fill="rgb(255,255,255)" stroke="none" font-family="times new roman" font-size="15px" font-style="normal" font-weight="normal" text-decoration="normal" x="457.96875" y="265.125" text-anchor="middle" dominant-baseline="text-after-edge" fill-opacity="1">*2</text><path fill="rgb(69,90,100)" stroke="rgb(76,175,80)" paint-order="fill stroke markers" d=" M 540.71875 183.375 L 540.6648033403297 184.74803417523728 L 540.5032959604149 186.11260313820404 L 540.2352236069594 187.46029386747836 L 539.8622390351652 188.78279740156157 L 539.3866418189475 190.07196006638907 L 538.8113641732964 191.31983374544205 L 538.1399528761966 192.5187248825291 L 537.3765474015615 193.66124191511827 L 536.5258543980005 194.7403408457782 L 535.5931186707646 195.74936867076457 L 534.5840908457782 196.68210439800055 L 533.5049919151182 197.5327974015616 L 532.3624748825291 198.29620287619662 L 531.1635837454421 198.96761417329643 L 529.9157100663891 199.5428918189475 L 528.6265474015615 200.01848903516517 L 527.3040438674783 200.39147360695935 L 525.956353138204 200.6595459604149 L 524.5917841752373 200.82105334032974 L 523.21875 200.875 L 521.8457158247627 200.82105334032974 L 520.481146861796 200.6595459604149 L 519.1334561325217 200.39147360695935 L 517.8109525984385 200.0184890351652 L 516.5217899336109 199.5428918189475 L 515.2739162545579 198.96761417329643 L 514.0750251174709 198.29620287619662 L 512.9325080848818 197.5327974015616 L 511.85340915422177 196.68210439800055 L 510.84438132923543 195.74936867076457 L 509.91164560199945 194.7403408457782 L 509.0609525984384 193.6612419151183 L 508.2975471238034 192.5187248825291 L 507.62613582670355 191.31983374544208 L 507.0508581810525 190.07196006638907 L 506.5752609648348 188.7827974015616 L 506.2022763930407 187.46029386747836 L 505.9342040395851 186.11260313820404 L 505.77269665967026 184.74803417523728 L 505.71875 183.375 L 505.77269665967026 182.00196582476272 L 505.9342040395851 180.63739686179596 L 506.2022763930407 179.28970613252164 L 506.5752609648348 177.96720259843843 L 507.0508581810525 176.67803993361093 L 507.62613582670355 175.43016625455795 L 508.2975471238034 174.2312751174709 L 509.0609525984384 173.08875808488173 L 509.91164560199945 172.0096591542218 L 510.84438132923543 171.00063132923543 L 511.85340915422177 170.06789560199945 L 512.9325080848818 169.21720259843843 L 514.0750251174709 168.45379712380338 L 515.2739162545579 167.78238582670355 L 516.521789933611 167.2071081810525 L 517.8109525984385 166.7315109648348 L 519.1334561325217 166.35852639304065 L 520.481146861796 166.0904540395851 L 521.8457158247628 165.92894665967026 L 523.2187500000001 165.875 L 524.5917841752373 165.92894665967026 L 525.9563531382041 166.0904540395851 L 527.3040438674784 166.35852639304068 L 528.6265474015617 166.73151096483485 L 529.9157100663891 167.20710818105252 L 531.1635837454421 167.7823858267036 L 532.3624748825292 168.45379712380344 L 533.5049919151184 169.2172025984385 L 534.5840908457783 170.06789560199954 L 535.5931186707646 171.00063132923552 L 536.5258543980007 172.0096591542219 L 537.3765474015617 173.08875808488185 L 538.1399528761967 174.23127511747103 L 538.8113641732965 175.4301662545581 L 539.3866418189476 176.6780399336111 L 539.8622390351652 177.9672025984386 L 540.2352236069594 179.28970613252184 L 540.5032959604149 180.63739686179616 L 540.6648033403297 182.00196582476292 Z" fill-opacity="1" stroke-opacity="1" stroke-miterlimit="10" stroke-width="2"/><text fill="rgb(255,255,255)" stroke="none" font-family="times new roman" font-size="10px" font-style="normal" font-weight="normal" text-decoration="normal" x="523.21875" y="188.375" text-anchor="middle" dominant-baseline="text-after-edge" fill-opacity="1">*2.4</text><path fill="rgb(69,90,100)" stroke="rgb(76,175,80)" paint-order="fill stroke markers" d=" M 883.53125 396.125 L 883.53125 416.125 L 978.53125 416.125 L 978.53125 396.125 Z" fill-opacity="1" stroke-opacity="1" stroke-miterlimit="10" stroke-width="2"/><text fill="rgb(255,255,255)" stroke="none" font-family="times new roman" font-size="10px" font-style="normal" font-weight="normal" text-decoration="normal" x="931.03125" y="411.125" text-anchor="middle" dominant-baseline="text-after-edge" fill-opacity="1">42129130C&gt;G</text><path fill="rgb(69,90,100)" stroke="rgb(76,175,80)" paint-order="fill stroke markers" d=" M 660.03125 396.125 L 660.03125 416.125 L 755.03125 416.125 L 755.03125 396.125 Z" fill-opacity="1" stroke-opacity="1" stroke-miterlimit="10" stroke-width="2"/><text fill="rgb(255,255,255)" stroke="none" font-family="times new roman" font-size="10px" font-style="normal" font-weight="normal" text-decoration="normal" x="707.53125" y="411.125" text-anchor="middle" dominant-baseline="text-after-edge" fill-opacity="1">42129950A&gt;C</text><path fill="rgb(69,90,100)" stroke="rgb(76,175,80)" paint-order="fill stroke markers" d=" M 445.21875 183.375 L 445.1493900089954 185.1403296538765 L 444.9417376633906 186.89477546340518 L 444.59707320894773 188.62752068675786 L 444.11752161664094 190.32788237343632 L 443.50603948150393 191.98537722821453 L 442.7663967942383 193.58978624413982 L 441.90315369796707 195.13121770610886 L 440.9216323734363 196.60016817658064 L 439.8278842260007 197.98758108742913 L 438.62865257669733 199.2849025766973 L 437.33133108742913 200.4841342260007 L 435.94391817658067 201.57788237343632 L 434.4749677061088 202.55940369796707 L 432.9335362441398 203.4226467942383 L 431.32912722821453 204.16228948150396 L 429.6716323734363 204.77377161664094 L 427.97127068675786 205.25332320894773 L 426.2385254634052 205.5979876633906 L 424.4840796538765 205.80564000899537 L 422.71875 205.875 L 420.9534203461235 205.80564000899537 L 419.1989745365948 205.5979876633906 L 417.46622931324214 205.25332320894773 L 415.7658676265637 204.77377161664094 L 414.10837277178547 204.16228948150396 L 412.5039637558602 203.4226467942383 L 410.9625322938912 202.55940369796707 L 409.49358182341933 201.57788237343632 L 408.10616891257087 200.4841342260007 L 406.80884742330267 199.28490257669733 L 405.6096157739993 197.98758108742913 L 404.5158676265637 196.60016817658064 L 403.53434630203293 195.13121770610886 L 402.6711032057617 193.58978624413982 L 401.93146051849607 191.98537722821453 L 401.31997838335906 190.32788237343632 L 400.84042679105227 188.62752068675786 L 400.4957623366094 186.8947754634052 L 400.2881099910046 185.1403296538765 L 400.21875 183.375 L 400.2881099910046 181.6096703461235 L 400.4957623366094 179.85522453659482 L 400.84042679105227 178.12247931324214 L 401.31997838335906 176.42211762656368 L 401.93146051849607 174.76462277178547 L 402.6711032057617 173.1602137558602 L 403.53434630203293 171.61878229389114 L 404.5158676265637 170.14983182341936 L 405.6096157739993 168.76241891257087 L 406.80884742330267 167.4650974233027 L 408.10616891257087 166.2658657739993 L 409.49358182341933 165.17211762656368 L 410.9625322938912 164.19059630203293 L 412.50396375586024 163.3273532057617 L 414.1083727717855 162.58771051849604 L 415.7658676265637 161.97622838335903 L 417.4662293132422 161.49667679105227 L 419.19897453659485 161.1520123366094 L 420.95342034612355 160.9443599910046 L 422.71875000000006 160.875 L 424.4840796538766 160.94435999100463 L 426.23852546340527 161.1520123366094 L 427.971270686758 161.4966767910523 L 429.6716323734364 161.97622838335909 L 431.32912722821465 162.5877105184961 L 432.93353624413993 163.3273532057618 L 434.474967706109 164.190596302033 L 435.9439181765808 165.17211762656376 L 437.33133108742925 166.26586577399942 L 438.62865257669745 167.4650974233028 L 439.82788422600083 168.762418912571 L 440.9216323734364 170.1498318234195 L 441.9031536979672 171.61878229389131 L 442.7663967942384 173.16021375586038 L 443.50603948150405 174.7646227717857 L 444.11752161664106 176.4221176265639 L 444.5970732089478 178.12247931324237 L 444.94173766339065 179.85522453659505 L 445.1493900089954 181.60967034612375 Z" fill-opacity="1" stroke-opacity="1" stroke-miterlimit="10" stroke-width="2"/><text fill="rgb(255,255,255)" stroke="none" font-family="times new roman" font-size="15px" font-style="normal" font-weight="normal" text-decoration="normal" x="422.71875" y="190.875" text-anchor="middle" dominant-baseline="text-after-edge" fill-opacity="1">*34</text><path fill="rgb(69,90,100)" stroke="rgb(76,175,80)" paint-order="fill stroke markers" d=" M 646.21875 183.375 L 646.1493900089954 185.1403296538765 L 645.9417376633907 186.89477546340518 L 645.5970732089477 188.62752068675786 L 645.1175216166409 190.32788237343632 L 644.506039481504 191.98537722821453 L 643.7663967942383 193.58978624413982 L 642.9031536979671 195.13121770610886 L 641.9216323734363 196.60016817658064 L 640.8278842260007 197.98758108742913 L 639.6286525766973 199.2849025766973 L 638.3313310874291 200.4841342260007 L 636.9439181765806 201.57788237343632 L 635.4749677061088 202.55940369796707 L 633.9335362441398 203.4226467942383 L 632.3291272282145 204.16228948150396 L 630.6716323734363 204.77377161664094 L 628.9712706867579 205.25332320894773 L 627.2385254634052 205.5979876633906 L 625.4840796538765 205.80564000899537 L 623.71875 205.875 L 621.9534203461235 205.80564000899537 L 620.1989745365948 205.5979876633906 L 618.4662293132421 205.25332320894773 L 616.7658676265637 204.77377161664094 L 615.1083727717855 204.16228948150396 L 613.5039637558602 203.4226467942383 L 611.9625322938912 202.55940369796707 L 610.4935818234194 201.57788237343632 L 609.1061689125709 200.4841342260007 L 607.8088474233027 199.28490257669733 L 606.6096157739993 197.98758108742913 L 605.5158676265637 196.60016817658064 L 604.5343463020329 195.13121770610886 L 603.6711032057617 193.58978624413982 L 602.931460518496 191.98537722821453 L 602.3199783833591 190.32788237343632 L 601.8404267910523 188.62752068675786 L 601.4957623366095 186.8947754634052 L 601.2881099910046 185.1403296538765 L 601.21875 183.375 L 601.2881099910046 181.6096703461235 L 601.4957623366093 179.85522453659482 L 601.8404267910523 178.12247931324214 L 602.3199783833591 176.42211762656368 L 602.931460518496 174.76462277178547 L 603.6711032057617 173.1602137558602 L 604.5343463020329 171.61878229389114 L 605.5158676265637 170.14983182341936 L 606.6096157739993 168.76241891257087 L 607.8088474233027 167.4650974233027 L 609.1061689125709 166.2658657739993 L 610.4935818234194 165.17211762656368 L 611.9625322938912 164.19059630203293 L 613.5039637558602 163.3273532057617 L 615.1083727717855 162.58771051849604 L 616.7658676265637 161.97622838335903 L 618.4662293132421 161.49667679105227 L 620.1989745365948 161.1520123366094 L 621.9534203461236 160.9443599910046 L 623.7187500000001 160.875 L 625.4840796538766 160.94435999100463 L 627.2385254634053 161.1520123366094 L 628.971270686758 161.4966767910523 L 630.6716323734364 161.97622838335909 L 632.3291272282146 162.5877105184961 L 633.9335362441399 163.3273532057618 L 635.4749677061089 164.190596302033 L 636.9439181765807 165.17211762656376 L 638.3313310874292 166.26586577399942 L 639.6286525766974 167.4650974233028 L 640.8278842260008 168.762418912571 L 641.9216323734364 170.1498318234195 L 642.9031536979671 171.61878229389131 L 643.7663967942384 173.16021375586038 L 644.506039481504 174.7646227717857 L 645.117521616641 176.4221176265639 L 645.5970732089478 178.12247931324237 L 645.9417376633907 179.85522453659505 L 646.1493900089954 181.60967034612375 Z" fill-opacity="1" stroke-opacity="1" stroke-miterlimit="10" stroke-width="2"/><text fill="rgb(255,255,255)" stroke="none" font-family="times new roman" font-size="15px" font-style="normal" font-weight="normal" text-decoration="normal" x="623.71875" y="190.875" text-anchor="middle" dominant-baseline="text-after-edge" fill-opacity="1">*39</text><path fill="rgb(69,90,100)" stroke="rgb(76,175,80)" paint-order="fill stroke markers" d=" M 771.78125 396.125 L 771.78125 416.125 L 866.78125 416.125 L 866.78125 396.125 Z" fill-opacity="1" stroke-opacity="1" stroke-miterlimit="10" stroke-width="2"/><text fill="rgb(255,255,255)" stroke="none" font-family="times new roman" font-size="10px" font-style="normal" font-weight="normal" text-decoration="normal" x="819.28125" y="411.125" text-anchor="middle" dominant-baseline="text-after-edge" fill-opacity="1">42130482C&gt;A</text><path fill="rgb(69,90,100)" stroke="rgb(158,158,158)" paint-order="fill stroke markers" d=" M 352.21875 257.625 L 352.1493900089954 259.3903296538765 L 351.9417376633906 261.1447754634052 L 351.59707320894773 262.87752068675786 L 351.11752161664094 264.5778823734363 L 350.50603948150393 266.23537722821453 L 349.7663967942383 267.8397862441398 L 348.90315369796707 269.3812177061088 L 347.9216323734363 270.85016817658067 L 346.8278842260007 272.23758108742913 L 345.62865257669733 273.53490257669733 L 344.33133108742913 274.7341342260007 L 342.94391817658067 275.8278823734363 L 341.4749677061088 276.80940369796707 L 339.9335362441398 277.6726467942383 L 338.32912722821453 278.41228948150393 L 336.6716323734363 279.02377161664094 L 334.97127068675786 279.50332320894773 L 333.2385254634052 279.8479876633906 L 331.4840796538765 280.0556400089954 L 329.71875 280.125 L 327.9534203461235 280.0556400089954 L 326.1989745365948 279.8479876633906 L 324.46622931324214 279.50332320894773 L 322.7658676265637 279.02377161664094 L 321.10837277178547 278.41228948150393 L 319.5039637558602 277.6726467942383 L 317.9625322938912 276.80940369796707 L 316.49358182341933 275.8278823734363 L 315.10616891257087 274.7341342260007 L 313.80884742330267 273.53490257669733 L 312.6096157739993 272.23758108742913 L 311.5158676265637 270.85016817658067 L 310.53434630203293 269.3812177061088 L 309.6711032057617 267.8397862441398 L 308.93146051849607 266.23537722821453 L 308.31997838335906 264.5778823734363 L 307.84042679105227 262.87752068675786 L 307.4957623366094 261.1447754634052 L 307.2881099910046 259.3903296538765 L 307.21875 257.625 L 307.2881099910046 255.8596703461235 L 307.4957623366094 254.10522453659482 L 307.84042679105227 252.37247931324214 L 308.31997838335906 250.67211762656368 L 308.93146051849607 249.01462277178547 L 309.6711032057617 247.4102137558602 L 310.53434630203293 245.86878229389114 L 311.5158676265637 244.39983182341936 L 312.6096157739993 243.01241891257087 L 313.80884742330267 241.7150974233027 L 315.10616891257087 240.5158657739993 L 316.49358182341933 239.42211762656368 L 317.9625322938912 238.44059630203293 L 319.50396375586024 237.5773532057617 L 321.1083727717855 236.83771051849604 L 322.7658676265637 236.22622838335903 L 324.4662293132422 235.74667679105227 L 326.19897453659485 235.4020123366094 L 327.95342034612355 235.1943599910046 L 329.71875000000006 235.125 L 331.4840796538766 235.19435999100463 L 333.23852546340527 235.4020123366094 L 334.971270686758 235.7466767910523 L 336.6716323734364 236.22622838335909 L 338.32912722821465 236.8377105184961 L 339.93353624413993 237.5773532057618 L 341.474967706109 238.440596302033 L 342.9439181765808 239.42211762656376 L 344.33133108742925 240.51586577399942 L 345.62865257669745 241.7150974233028 L 346.82788422600083 243.012418912571 L 347.9216323734364 244.3998318234195 L 348.9031536979672 245.86878229389131 L 349.7663967942384 247.41021375586038 L 350.50603948150405 249.0146227717857 L 351.11752161664106 250.6721176265639 L 351.5970732089478 252.37247931324237 L 351.94173766339065 254.10522453659505 L 352.1493900089954 255.85967034612375 Z" fill-opacity="1" stroke-opacity="1" stroke-miterlimit="10" stroke-width="2"/><text fill="rgb(255,255,255)" stroke="none" font-family="times new roman" font-size="15px" font-style="normal" font-weight="normal" text-decoration="normal" x="329.71875" y="265.125" text-anchor="middle" dominant-baseline="text-after-edge" fill-opacity="1">*145</text><path fill="rgb(69,90,100)" stroke="rgb(255,193,7)" paint-order="fill stroke markers" d=" M 576.21875 102.875 L 576.21875 122.875 L 671.21875 122.875 L 671.21875 102.875 Z" fill-opacity="1" stroke-opacity="1" stroke-miterlimit="10" stroke-width="2"/><text fill="rgb(255,255,255)" stroke="none" font-family="times new roman" font-size="10px" font-style="normal" font-weight="normal" text-decoration="normal" x="623.71875" y="117.875" text-anchor="middle" dominant-baseline="text-after-edge" fill-opacity="1">42126611C&gt;G</text><path fill="rgb(69,90,100)" stroke="rgb(255,193,7)" paint-order="fill stroke markers" d=" M 144.03125 396.125 L 144.03125 416.125 L 239.03124999999997 416.125 L 239.03125 396.125 Z" fill-opacity="1" stroke-opacity="1" stroke-miterlimit="10" stroke-width="2"/><text fill="rgb(255,255,255)" stroke="none" font-family="times new roman" font-size="10px" font-style="normal" font-weight="normal" text-decoration="normal" x="191.53125" y="411.125" text-anchor="middle" dominant-baseline="text-after-edge" fill-opacity="1">42128934AAAGG…</text><path fill="rgb(69,90,100)" stroke="rgb(255,193,7)" paint-order="fill stroke markers" d=" M 282.21875 173.375 L 282.21875 193.375 L 377.21875 193.375 L 377.21875 173.375 Z" fill-opacity="1" stroke-opacity="1" stroke-miterlimit="10" stroke-width="2"/><text fill="rgb(255,255,255)" stroke="none" font-family="times new roman" font-size="10px" font-style="normal" font-weight="normal" text-decoration="normal" x="329.71875" y="188.375" text-anchor="middle" dominant-baseline="text-after-edge" fill-opacity="1">42128934_4212894…</text><path fill="rgb(69,90,100)" stroke="rgb(76,175,80)" paint-order="fill stroke markers" d=" M 436.53125 396.125 L 436.53125 416.125 L 531.53125 416.125 L 531.53125 396.125 Z" fill-opacity="1" stroke-opacity="1" stroke-miterlimit="10" stroke-width="2"/><text fill="rgb(255,255,255)" stroke="none" font-family="times new roman" font-size="10px" font-style="normal" font-weight="normal" text-decoration="normal" x="484.03125" y="411.125" text-anchor="middle" dominant-baseline="text-after-edge" fill-opacity="1">42127407T&gt;G</text><path fill="rgb(69,90,100)" stroke="rgb(76,175,80)" paint-order="fill stroke markers" d=" M 730.46875 112.875 L 730.4148033403297 114.24803417523728 L 730.2532959604149 115.61260313820404 L 729.9852236069594 116.96029386747834 L 729.6122390351652 118.28279740156158 L 729.1366418189475 119.57196006638907 L 728.5613641732964 120.81983374544207 L 727.8899528761966 122.0187248825291 L 727.1265474015615 123.16124191511828 L 726.2758543980005 124.2403408457782 L 725.3431186707646 125.24936867076458 L 724.3340908457782 126.18210439800055 L 723.2549919151182 127.03279740156158 L 722.1124748825291 127.79620287619662 L 720.9135837454421 128.46761417329643 L 719.6657100663891 129.0428918189475 L 718.3765474015615 129.51848903516517 L 717.0540438674783 129.89147360695935 L 715.706353138204 130.1595459604149 L 714.3417841752373 130.32105334032974 L 712.96875 130.375 L 711.5957158247627 130.32105334032974 L 710.231146861796 130.1595459604149 L 708.8834561325217 129.89147360695935 L 707.5609525984385 129.5184890351652 L 706.2717899336109 129.0428918189475 L 705.0239162545579 128.46761417329643 L 703.8250251174709 127.79620287619662 L 702.6825080848818 127.03279740156158 L 701.6034091542218 126.18210439800055 L 700.5943813292354 125.24936867076458 L 699.6616456019995 124.24034084577822 L 698.8109525984385 123.16124191511828 L 698.0475471238034 122.01872488252911 L 697.3761358267036 120.81983374544207 L 696.8008581810525 119.57196006638907 L 696.3252609648348 118.28279740156158 L 695.9522763930406 116.96029386747834 L 695.6842040395851 115.61260313820404 L 695.5226966596703 114.2480341752373 L 695.46875 112.875 L 695.5226966596703 111.50196582476272 L 695.6842040395851 110.13739686179596 L 695.9522763930406 108.78970613252166 L 696.3252609648348 107.46720259843842 L 696.8008581810525 106.17803993361093 L 697.3761358267036 104.93016625455793 L 698.0475471238034 103.7312751174709 L 698.8109525984385 102.58875808488172 L 699.6616456019995 101.5096591542218 L 700.5943813292354 100.50063132923542 L 701.6034091542218 99.56789560199947 L 702.6825080848818 98.71720259843842 L 703.8250251174709 97.95379712380338 L 705.0239162545579 97.28238582670356 L 706.271789933611 96.70710818105248 L 707.5609525984385 96.2315109648348 L 708.8834561325217 95.85852639304065 L 710.231146861796 95.59045403958508 L 711.5957158247628 95.42894665967026 L 712.9687500000001 95.375 L 714.3417841752373 95.42894665967026 L 715.7063531382041 95.5904540395851 L 717.0540438674784 95.85852639304068 L 718.3765474015617 96.23151096483484 L 719.6657100663891 96.70710818105252 L 720.9135837454421 97.2823858267036 L 722.1124748825292 97.95379712380344 L 723.2549919151184 98.71720259843849 L 724.3340908457783 99.56789560199954 L 725.3431186707646 100.50063132923552 L 726.2758543980007 101.5096591542219 L 727.1265474015617 102.58875808488185 L 727.8899528761967 103.73127511747103 L 728.5613641732965 104.93016625455807 L 729.1366418189476 106.17803993361109 L 729.6122390351652 107.46720259843859 L 729.9852236069594 108.78970613252184 L 730.2532959604149 110.13739686179616 L 730.4148033403297 111.50196582476292 Z" fill-opacity="1" stroke-opacity="1" stroke-miterlimit="10" stroke-width="2"/><text fill="rgb(255,255,255)" stroke="none" font-family="times new roman" font-size="10px" font-style="normal" font-weight="normal" text-decoration="normal" x="712.96875" y="117.875" text-anchor="middle" dominant-baseline="text-after-edge" fill-opacity="1">*39.2</text><path fill="rgb(69,90,100)" stroke="rgb(76,175,80)" paint-order="fill stroke markers" d=" M 440.21875 112.875 L 440.16480334032974 114.24803417523728 L 440.0032959604149 115.61260313820404 L 439.7352236069593 116.96029386747834 L 439.3622390351652 118.28279740156158 L 438.8866418189475 119.57196006638907 L 438.31136417329645 120.81983374544207 L 437.6399528761966 122.0187248825291 L 436.8765474015616 123.16124191511828 L 436.02585439800055 124.2403408457782 L 435.09311867076457 125.24936867076458 L 434.08409084577823 126.18210439800055 L 433.0049919151183 127.03279740156158 L 431.8624748825291 127.79620287619662 L 430.66358374544205 128.46761417329643 L 429.41571006638907 129.0428918189475 L 428.1265474015616 129.51848903516517 L 426.80404386747836 129.89147360695935 L 425.45635313820407 130.1595459604149 L 424.0917841752373 130.32105334032974 L 422.71875 130.375 L 421.3457158247627 130.32105334032974 L 419.98114686179593 130.1595459604149 L 418.63345613252164 129.89147360695935 L 417.3109525984384 129.5184890351652 L 416.02178993361093 129.0428918189475 L 414.77391625455795 128.46761417329643 L 413.5750251174709 127.79620287619662 L 412.4325080848817 127.03279740156158 L 411.35340915422177 126.18210439800055 L 410.34438132923543 125.24936867076458 L 409.41164560199945 124.24034084577822 L 408.5609525984384 123.16124191511828 L 407.7975471238034 122.01872488252911 L 407.12613582670355 120.81983374544207 L 406.5508581810525 119.57196006638907 L 406.0752609648348 118.28279740156158 L 405.7022763930407 116.96029386747834 L 405.4342040395851 115.61260313820404 L 405.27269665967026 114.2480341752373 L 405.21875 112.875 L 405.27269665967026 111.50196582476272 L 405.4342040395851 110.13739686179596 L 405.7022763930407 108.78970613252166 L 406.0752609648348 107.46720259843842 L 406.5508581810525 106.17803993361093 L 407.12613582670355 104.93016625455793 L 407.7975471238034 103.7312751174709 L 408.5609525984384 102.58875808488172 L 409.41164560199945 101.5096591542218 L 410.34438132923543 100.50063132923542 L 411.35340915422177 99.56789560199947 L 412.4325080848817 98.71720259843842 L 413.5750251174709 97.95379712380338 L 414.77391625455795 97.28238582670356 L 416.02178993361093 96.70710818105248 L 417.31095259843846 96.2315109648348 L 418.6334561325217 95.85852639304065 L 419.981146861796 95.59045403958508 L 421.34571582476275 95.42894665967026 L 422.71875000000006 95.375 L 424.09178417523736 95.42894665967026 L 425.4563531382041 95.5904540395851 L 426.8040438674784 95.85852639304068 L 428.12654740156165 96.23151096483484 L 429.4157100663892 96.70710818105252 L 430.66358374544217 97.2823858267036 L 431.8624748825292 97.95379712380344 L 433.00499191511835 98.71720259843849 L 434.0840908457783 99.56789560199954 L 435.0931186707647 100.50063132923552 L 436.02585439800066 101.5096591542219 L 436.87654740156165 102.58875808488185 L 437.6399528761967 103.73127511747103 L 438.3113641732965 104.93016625455807 L 438.88664181894757 106.17803993361109 L 439.36223903516526 107.46720259843859 L 439.7352236069594 108.78970613252184 L 440.00329596041496 110.13739686179616 L 440.16480334032974 111.50196582476292 Z" fill-opacity="1" stroke-opacity="1" stroke-miterlimit="10" stroke-width="2"/><text fill="rgb(255,255,255)" stroke="none" font-family="times new roman" font-size="10px" font-style="normal" font-weight="normal" text-decoration="normal" x="422.71875" y="117.875" text-anchor="middle" dominant-baseline="text-after-edge" fill-opacity="1">*34.1</text><path fill="rgb(69,90,100)" stroke="rgb(255,193,7)" paint-order="fill stroke markers" d=" M 558.46875 331.875 L 558.3993900089954 333.6403296538765 L 558.1917376633907 335.3947754634052 L 557.8470732089477 337.12752068675786 L 557.3675216166409 338.8278823734363 L 556.756039481504 340.48537722821453 L 556.0163967942383 342.0897862441398 L 555.1531536979671 343.6312177061088 L 554.1716323734363 345.10016817658067 L 553.0778842260007 346.48758108742913 L 551.8786525766973 347.78490257669733 L 550.5813310874291 348.9841342260007 L 549.1939181765806 350.0778823734363 L 547.7249677061088 351.05940369796707 L 546.1835362441398 351.9226467942383 L 544.5791272282145 352.66228948150393 L 542.9216323734363 353.27377161664094 L 541.2212706867579 353.75332320894773 L 539.4885254634052 354.0979876633906 L 537.7340796538765 354.3056400089954 L 535.96875 354.375 L 534.2034203461235 354.3056400089954 L 532.4489745365948 354.0979876633906 L 530.7162293132421 353.75332320894773 L 529.0158676265637 353.27377161664094 L 527.3583727717855 352.66228948150393 L 525.7539637558602 351.9226467942383 L 524.2125322938912 351.05940369796707 L 522.7435818234194 350.0778823734363 L 521.3561689125709 348.9841342260007 L 520.0588474233027 347.78490257669733 L 518.8596157739993 346.48758108742913 L 517.7658676265637 345.10016817658067 L 516.7843463020329 343.6312177061088 L 515.9211032057617 342.0897862441398 L 515.181460518496 340.48537722821453 L 514.5699783833591 338.8278823734363 L 514.0904267910523 337.12752068675786 L 513.7457623366095 335.3947754634052 L 513.5381099910046 333.6403296538765 L 513.46875 331.875 L 513.5381099910046 330.1096703461235 L 513.7457623366093 328.3552245365948 L 514.0904267910523 326.62247931324214 L 514.5699783833591 324.9221176265637 L 515.181460518496 323.26462277178547 L 515.9211032057617 321.6602137558602 L 516.7843463020329 320.1187822938912 L 517.7658676265637 318.64983182341933 L 518.8596157739993 317.26241891257087 L 520.0588474233027 315.96509742330267 L 521.3561689125709 314.76586577399934 L 522.7435818234194 313.6721176265637 L 524.2125322938912 312.69059630203293 L 525.7539637558602 311.8273532057617 L 527.3583727717855 311.087710518496 L 529.0158676265637 310.47622838335906 L 530.7162293132421 309.99667679105227 L 532.4489745365948 309.6520123366094 L 534.2034203461236 309.4443599910046 L 535.9687500000001 309.375 L 537.7340796538766 309.4443599910046 L 539.4885254634053 309.6520123366094 L 541.221270686758 309.9966767910523 L 542.9216323734364 310.47622838335906 L 544.5791272282146 311.0877105184961 L 546.1835362441399 311.82735320576177 L 547.7249677061089 312.690596302033 L 549.1939181765807 313.67211762656376 L 550.5813310874292 314.7658657739994 L 551.8786525766974 315.9650974233028 L 553.0778842260008 317.262418912571 L 554.1716323734364 318.6498318234195 L 555.1531536979671 320.11878229389134 L 556.0163967942384 321.6602137558604 L 556.756039481504 323.2646227717857 L 557.367521616641 324.92211762656393 L 557.8470732089478 326.62247931324237 L 558.1917376633907 328.3552245365951 L 558.3993900089954 330.1096703461238 Z" fill-opacity="1" stroke-opacity="1" stroke-miterlimit="10" stroke-width="2"/><text fill="rgb(255,255,255)" stroke="none" font-family="times new roman" font-size="15px" font-style="normal" font-weight="normal" text-decoration="normal" x="535.96875" y="339.375" text-anchor="middle" dominant-baseline="text-after-edge" fill-opacity="1">*17</text><path fill="rgb(69,90,100)" stroke="rgb(244,67,54)" paint-order="fill stroke markers" d=" M 352.21875 541.5 L 352.1493900089954 543.2653296538765 L 351.9417376633906 545.0197754634052 L 351.59707320894773 546.7525206867579 L 351.11752161664094 548.4528823734363 L 350.50603948150393 550.1103772282145 L 349.7663967942383 551.7147862441398 L 348.90315369796707 553.2562177061088 L 347.9216323734363 554.7251681765806 L 346.8278842260007 556.1125810874291 L 345.62865257669733 557.4099025766973 L 344.33133108742913 558.6091342260007 L 342.94391817658067 559.7028823734363 L 341.4749677061088 560.6844036979671 L 339.9335362441398 561.5476467942383 L 338.32912722821453 562.287289481504 L 336.6716323734363 562.8987716166409 L 334.97127068675786 563.3783232089477 L 333.2385254634052 563.7229876633907 L 331.4840796538765 563.9306400089954 L 329.71875 564 L 327.9534203461235 563.9306400089954 L 326.1989745365948 563.7229876633907 L 324.46622931324214 563.3783232089477 L 322.7658676265637 562.8987716166409 L 321.10837277178547 562.287289481504 L 319.5039637558602 561.5476467942383 L 317.9625322938912 560.6844036979671 L 316.49358182341933 559.7028823734363 L 315.10616891257087 558.6091342260007 L 313.80884742330267 557.4099025766973 L 312.6096157739993 556.1125810874291 L 311.5158676265637 554.7251681765806 L 310.53434630203293 553.2562177061088 L 309.6711032057617 551.7147862441398 L 308.93146051849607 550.1103772282145 L 308.31997838335906 548.4528823734363 L 307.84042679105227 546.7525206867579 L 307.4957623366094 545.0197754634052 L 307.2881099910046 543.2653296538765 L 307.21875 541.5 L 307.2881099910046 539.7346703461235 L 307.4957623366094 537.9802245365948 L 307.84042679105227 536.2474793132421 L 308.31997838335906 534.5471176265637 L 308.93146051849607 532.8896227717855 L 309.6711032057617 531.2852137558602 L 310.53434630203293 529.7437822938912 L 311.5158676265637 528.2748318234194 L 312.6096157739993 526.8874189125709 L 313.80884742330267 525.5900974233027 L 315.10616891257087 524.3908657739993 L 316.49358182341933 523.2971176265637 L 317.9625322938912 522.3155963020329 L 319.50396375586024 521.4523532057617 L 321.1083727717855 520.712710518496 L 322.7658676265637 520.1012283833591 L 324.4662293132422 519.6216767910523 L 326.19897453659485 519.2770123366093 L 327.95342034612355 519.0693599910046 L 329.71875000000006 519 L 331.4840796538766 519.0693599910046 L 333.23852546340527 519.2770123366095 L 334.971270686758 519.6216767910523 L 336.6716323734364 520.1012283833591 L 338.32912722821465 520.7127105184961 L 339.93353624413993 521.4523532057618 L 341.474967706109 522.315596302033 L 342.9439181765808 523.2971176265638 L 344.33133108742925 524.3908657739994 L 345.62865257669745 525.5900974233028 L 346.82788422600083 526.887418912571 L 347.9216323734364 528.2748318234195 L 348.9031536979672 529.7437822938913 L 349.7663967942384 531.2852137558604 L 350.50603948150405 532.8896227717856 L 351.11752161664106 534.5471176265639 L 351.5970732089478 536.2474793132424 L 351.94173766339065 537.9802245365951 L 352.1493900089954 539.7346703461237 Z" fill-opacity="1" stroke-opacity="1" stroke-miterlimit="10" stroke-width="2"/><text fill="rgb(255,255,255)" stroke="none" font-family="times new roman" font-size="15px" font-style="normal" font-weight="normal" text-decoration="normal" x="329.71875" y="549" text-anchor="middle" dominant-baseline="text-after-edge" fill-opacity="1">*40</text><path fill="rgb(3,169,244)" stroke="none" paint-order="stroke fill markers" d=" M 329.71875 509 L 354.21875 509 L 354.21875 509 A 8 8 0 0 1 362.21875 517 L 362.21875 566 L 362.21875 566 A 8 8 0 0 1 354.21875 574 L 305.21875 574 L 305.21875 574 A 8 8 0 0 1 297.21875 566 L 297.21875 517 L 297.21875 517 A 8 8 0 0 1 305.21875 509 L 329.71875 509 Z" fill-opacity="0.15"/><path fill="rgb(69,90,100)" stroke="rgb(255,193,7)" paint-order="fill stroke markers" d=" M 464.46875 102.875 L 464.46875 122.875 L 559.46875 122.875 L 559.46875 102.875 Z" fill-opacity="1" stroke-opacity="1" stroke-miterlimit="10" stroke-width="2"/><text fill="rgb(255,255,255)" stroke="none" font-family="times new roman" font-size="10px" font-style="normal" font-weight="normal" text-decoration="normal" x="511.96875" y="117.875" text-anchor="middle" dominant-baseline="text-after-edge" fill-opacity="1">42127941G&gt;A</text><path fill="rgb(69,90,100)" stroke="rgb(189,189,189)" paint-order="fill stroke markers" d=" M 413.53125 406.125 L 413.4618900089954 407.8903296538765 L 413.2542376633906 409.6447754634052 L 412.90957320894773 411.37752068675786 L 412.43002161664094 413.0778823734363 L 411.81853948150393 414.73537722821453 L 411.0788967942383 416.3397862441398 L 410.21565369796707 417.8812177061088 L 409.2341323734363 419.35016817658067 L 408.1403842260007 420.73758108742913 L 406.94115257669733 422.03490257669733 L 405.64383108742913 423.2341342260007 L 404.25641817658067 424.3278823734363 L 402.7874677061088 425.30940369796707 L 401.2460362441398 426.1726467942383 L 399.64162722821453 426.91228948150393 L 397.9841323734363 427.52377161664094 L 396.28377068675786 428.00332320894773 L 394.5510254634052 428.3479876633906 L 392.7965796538765 428.5556400089954 L 391.03125 428.625 L 389.2659203461235 428.5556400089954 L 387.5114745365948 428.3479876633906 L 385.77872931324214 428.00332320894773 L 384.0783676265637 427.52377161664094 L 382.42087277178547 426.91228948150393 L 380.8164637558602 426.1726467942383 L 379.2750322938912 425.30940369796707 L 377.80608182341933 424.3278823734363 L 376.41866891257087 423.2341342260007 L 375.12134742330267 422.03490257669733 L 373.9221157739993 420.73758108742913 L 372.8283676265637 419.35016817658067 L 371.84684630203293 417.8812177061088 L 370.9836032057617 416.3397862441398 L 370.24396051849607 414.73537722821453 L 369.63247838335906 413.0778823734363 L 369.15292679105227 411.37752068675786 L 368.8082623366094 409.6447754634052 L 368.6006099910046 407.8903296538765 L 368.53125 406.125 L 368.6006099910046 404.3596703461235 L 368.8082623366094 402.6052245365948 L 369.15292679105227 400.87247931324214 L 369.63247838335906 399.1721176265637 L 370.24396051849607 397.51462277178547 L 370.9836032057617 395.9102137558602 L 371.84684630203293 394.3687822938912 L 372.8283676265637 392.89983182341933 L 373.9221157739993 391.51241891257087 L 375.12134742330267 390.21509742330267 L 376.41866891257087 389.01586577399934 L 377.80608182341933 387.9221176265637 L 379.2750322938912 386.94059630203293 L 380.81646375586024 386.0773532057617 L 382.4208727717855 385.337710518496 L 384.0783676265637 384.72622838335906 L 385.7787293132422 384.24667679105227 L 387.51147453659485 383.9020123366094 L 389.26592034612355 383.6943599910046 L 391.03125000000006 383.625 L 392.7965796538766 383.6943599910046 L 394.55102546340527 383.9020123366094 L 396.283770686758 384.2466767910523 L 397.9841323734364 384.72622838335906 L 399.64162722821465 385.3377105184961 L 401.24603624413993 386.07735320576177 L 402.787467706109 386.940596302033 L 404.2564181765808 387.92211762656376 L 405.64383108742925 389.0158657739994 L 406.94115257669745 390.2150974233028 L 408.14038422600083 391.512418912571 L 409.2341323734364 392.8998318234195 L 410.2156536979672 394.36878229389134 L 411.0788967942384 395.9102137558604 L 411.81853948150405 397.5146227717857 L 412.43002161664106 399.17211762656393 L 412.9095732089478 400.87247931324237 L 413.25423766339065 402.6052245365951 L 413.4618900089954 404.3596703461238 Z" fill-opacity="1" stroke-opacity="1" stroke-miterlimit="10" stroke-width="2"/><text fill="rgb(255,255,255)" stroke="none" font-family="times new roman" font-size="15px" font-style="normal" font-weight="normal" text-decoration="normal" x="391.03125" y="413.625" text-anchor="middle" dominant-baseline="text-after-edge" fill-opacity="1">*58</text><path fill="rgb(69,90,100)" stroke="rgb(76,175,80)" paint-order="fill stroke markers" d=" M 501.53125 541.5 L 501.47730334032974 542.8730341752373 L 501.3157959604149 544.237603138204 L 501.0477236069593 545.5852938674783 L 500.6747390351652 546.9077974015615 L 500.1991418189475 548.1969600663891 L 499.62386417329645 549.4448337454421 L 498.9524528761966 550.6437248825291 L 498.1890474015616 551.7862419151182 L 497.33835439800055 552.8653408457782 L 496.40561867076457 553.8743686707646 L 495.39659084577823 554.8071043980005 L 494.3174919151183 555.6577974015615 L 493.1749748825291 556.4212028761966 L 491.97608374544205 557.0926141732964 L 490.72821006638907 557.6678918189475 L 489.4390474015616 558.1434890351652 L 488.11654386747836 558.5164736069594 L 486.76885313820407 558.7845459604149 L 485.4042841752373 558.9460533403297 L 484.03125 559 L 482.6582158247627 558.9460533403297 L 481.29364686179593 558.7845459604149 L 479.94595613252164 558.5164736069594 L 478.6234525984384 558.1434890351652 L 477.33428993361093 557.6678918189475 L 476.08641625455795 557.0926141732964 L 474.8875251174709 556.4212028761966 L 473.7450080848817 555.6577974015615 L 472.66590915422177 554.8071043980005 L 471.65688132923543 553.8743686707646 L 470.72414560199945 552.8653408457782 L 469.8734525984384 551.7862419151182 L 469.1100471238034 550.6437248825291 L 468.43863582670355 549.4448337454421 L 467.8633581810525 548.1969600663891 L 467.3877609648348 546.9077974015615 L 467.0147763930407 545.5852938674783 L 466.7467040395851 544.237603138204 L 466.58519665967026 542.8730341752373 L 466.53125 541.5 L 466.58519665967026 540.1269658247627 L 466.7467040395851 538.762396861796 L 467.0147763930407 537.4147061325217 L 467.3877609648348 536.0922025984385 L 467.8633581810525 534.8030399336109 L 468.43863582670355 533.5551662545579 L 469.1100471238034 532.3562751174709 L 469.8734525984384 531.2137580848818 L 470.72414560199945 530.1346591542218 L 471.65688132923543 529.1256313292354 L 472.66590915422177 528.1928956019995 L 473.7450080848817 527.3422025984385 L 474.8875251174709 526.5787971238034 L 476.08641625455795 525.9073858267036 L 477.33428993361093 525.3321081810525 L 478.62345259843846 524.8565109648348 L 479.9459561325217 524.4835263930406 L 481.293646861796 524.2154540395851 L 482.65821582476275 524.0539466596703 L 484.03125000000006 524 L 485.40428417523736 524.0539466596703 L 486.7688531382041 524.2154540395851 L 488.1165438674784 524.4835263930406 L 489.43904740156165 524.8565109648348 L 490.7282100663892 525.3321081810525 L 491.97608374544217 525.9073858267036 L 493.1749748825292 526.5787971238035 L 494.31749191511835 527.3422025984385 L 495.3965908457783 528.1928956019996 L 496.4056186707647 529.1256313292355 L 497.33835439800066 530.1346591542219 L 498.18904740156165 531.2137580848819 L 498.9524528761967 532.356275117471 L 499.6238641732965 533.5551662545581 L 500.19914181894757 534.8030399336111 L 500.67473903516526 536.0922025984386 L 501.0477236069594 537.4147061325218 L 501.31579596041496 538.7623968617961 L 501.47730334032974 540.1269658247629 Z" fill-opacity="1" stroke-opacity="1" stroke-miterlimit="10" stroke-width="2"/><text fill="rgb(255,255,255)" stroke="none" font-family="times new roman" font-size="10px" font-style="normal" font-weight="normal" text-decoration="normal" x="484.03125" y="546.5" text-anchor="middle" dominant-baseline="text-after-edge" fill-opacity="1">*1.41</text><path fill="rgb(176,190,197)" stroke="none" paint-order="stroke fill markers" d=" M 1006.21875 436.5 L 1006.21875 646.5 L 1081.21875 646.5 L 1081.21875 436.50000000000006 Z" fill-opacity="0.8"/><text fill="rgb(0,0,0)" stroke="none" font-family="times new roman" font-size="10px" font-style="normal" font-weight="normal" text-decoration="normal" x="1011.21875" y="451.5" text-anchor="start" dominant-baseline="text-after-edge" fill-opacity="0.8">42127001G&gt;A </text><text fill="rgb(0,0,0)" stroke="none" font-family="times new roman" font-size="10px" font-style="normal" font-weight="normal" text-decoration="normal" x="1011.21875" y="461.5" text-anchor="start" dominant-baseline="text-after-edge" fill-opacity="0.8">42127207C&gt;T </text><text fill="rgb(0,0,0)" stroke="none" font-family="times new roman" font-size="10px" font-style="normal" font-weight="normal" text-decoration="normal" x="1011.21875" y="471.5" text-anchor="start" dominant-baseline="text-after-edge" fill-opacity="0.8">42127239G&gt;A </text><text fill="rgb(0,0,0)" stroke="none" font-family="times new roman" font-size="10px" font-style="normal" font-weight="normal" text-decoration="normal" x="1011.21875" y="481.5" text-anchor="start" dominant-baseline="text-after-edge" fill-opacity="0.8">42127313T&gt;C </text><text fill="rgb(0,0,0)" stroke="none" font-family="times new roman" font-size="10px" font-style="normal" font-weight="normal" text-decoration="normal" x="1011.21875" y="491.5" text-anchor="start" dominant-baseline="text-after-edge" fill-opacity="0.8">42127537A&gt;G </text><text fill="rgb(0,0,0)" stroke="none" font-family="times new roman" font-size="10px" font-style="normal" font-weight="normal" text-decoration="normal" x="1011.21875" y="501.5" text-anchor="start" dominant-baseline="text-after-edge" fill-opacity="0.8">42131531G&gt;A </text><path fill="rgb(176,190,197)" stroke="none" paint-order="stroke fill markers" d=" M 595.78125 436.5 L 662.78125 436.5 L 662.78125 436.5 A 8 8 0 0 1 670.78125 444.5 L 670.78125 638.5 L 670.78125 638.5 A 8 8 0 0 1 662.78125 646.5 L 528.78125 646.5 L 528.78125 646.5 A 8 8 0 0 1 520.78125 638.5 L 520.78125 444.5 L 520.78125 444.5 A 8 8 0 0 1 528.78125 436.5 L 595.78125 436.5 Z" fill-opacity="0.8"/><text fill="rgb(0,0,0)" stroke="none" font-family="times new roman" font-size="10px" font-style="normal" font-weight="normal" text-decoration="normal" x="525.78125" y="451.5" text-anchor="start" dominant-baseline="text-after-edge" fill-opacity="0.8">42125924A&gt;G </text><text fill="rgb(0,0,0)" stroke="none" font-family="times new roman" font-size="10px" font-style="normal" font-weight="normal" text-decoration="normal" x="525.78125" y="461.5" text-anchor="start" dominant-baseline="text-after-edge" fill-opacity="0.8">42126022C&gt;T </text><text fill="rgb(0,0,0)" stroke="none" font-family="times new roman" font-size="10px" font-style="normal" font-weight="normal" text-decoration="normal" x="525.78125" y="471.5" text-anchor="start" dominant-baseline="text-after-edge" fill-opacity="0.8">42126069A&gt;C </text><text fill="rgb(0,0,0)" stroke="none" font-family="times new roman" font-size="10px" font-style="normal" font-weight="normal" text-decoration="normal" x="525.78125" y="481.5" text-anchor="start" dominant-baseline="text-after-edge" fill-opacity="0.8">42126079C&gt;T </text><text fill="rgb(0,0,0)" stroke="none" font-family="times new roman" font-size="10px" font-style="normal" font-weight="normal" text-decoration="normal" x="525.78125" y="491.5" text-anchor="start" dominant-baseline="text-after-edge" fill-opacity="0.8">42127275_42127300del </text><text fill="rgb(0,0,0)" stroke="none" font-family="times new roman" font-size="10px" font-style="normal" font-weight="normal" text-decoration="normal" x="525.78125" y="501.5" text-anchor="start" dominant-baseline="text-after-edge" fill-opacity="0.8">42132027C&gt;T </text><text fill="rgb(0,0,0)" stroke="none" font-family="times new roman" font-size="10px" font-style="normal" font-weight="normal" text-decoration="normal" x="525.78125" y="511.5" text-anchor="start" dominant-baseline="text-after-edge" fill-opacity="0.8">42132844C&gt;A </text><text fill="rgb(0,0,0)" stroke="none" font-family="times new roman" font-size="10px" font-style="normal" font-weight="normal" text-decoration="normal" x="525.78125" y="521.5" text-anchor="start" dominant-baseline="text-after-edge" fill-opacity="0.8">42132851T&gt;C </text><text fill="rgb(0,0,0)" stroke="none" font-family="times new roman" font-size="10px" font-style="normal" font-weight="normal" text-decoration="normal" x="525.78125" y="531.5" text-anchor="start" dominant-baseline="text-after-edge" fill-opacity="0.8">42133212A&gt;G </text><text fill="rgb(0,0,0)" stroke="none" font-family="times new roman" font-size="10px" font-style="normal" font-weight="normal" text-decoration="normal" x="525.78125" y="541.5" text-anchor="start" dominant-baseline="text-after-edge" fill-opacity="0.8">42133400T&gt;G </text><text fill="rgb(0,0,0)" stroke="none" font-family="times new roman" font-size="10px" font-style="normal" font-weight="normal" text-decoration="normal" x="525.78125" y="551.5" text-anchor="start" dominant-baseline="text-after-edge" fill-opacity="0.8">42134096del </text><text fill="rgb(0,0,0)" stroke="none" font-family="times new roman" font-size="10px" font-style="normal" font-weight="normal" text-decoration="normal" x="525.78125" y="561.5" text-anchor="start" dominant-baseline="text-after-edge" fill-opacity="0.8">42134820T&gt;G </text><text fill="rgb(0,0,0)" stroke="none" font-family="times new roman" font-size="10px" font-style="normal" font-weight="normal" text-decoration="normal" x="525.78125" y="571.5" text-anchor="start" dominant-baseline="text-after-edge" fill-opacity="0.8">42135064_42135066dup </text><text fill="rgb(0,0,0)" stroke="none" font-family="times new roman" font-size="10px" font-style="normal" font-weight="normal" text-decoration="normal" x="525.78125" y="581.5" text-anchor="start" dominant-baseline="text-after-edge" fill-opacity="0.8">42135201T&gt;C </text><g transform="scale(1.093521897810219,1.093521897810219) translate(51.27388402169379,55.38923654568214)"/></g></svg>