<svg version="1.1" xmlns="http://www.w3.org/2000/svg" xmlns:xlink="http://www.w3.org/1999/xlink" width="1017" height="608"><defs/><g transform="translate(-106.30496150556041,32.75449101796403) scale(1.0915312232677503,1.0915312232677503)"><path fill="none" stroke="rgb(55,71,79)" paint-order="fill stroke markers" d=" M 444.64681332623115 95.86402773936021 L 466.3204273259076 130.40084354372266" stroke-opacity="1" stroke-linejoin="round" stroke-miterlimit="10" stroke-width="2"/><path fill="none" stroke="rgb(120,144,156)" paint-order="fill stroke markers" d=" M 275.875 315.3589034205231 L 543.5842076004475 409.89203407219026" stroke-opacity="1" stroke-linejoin="round" stroke-miterlimit="10"/><path fill="rgb(120,144,156)" stroke="none" paint-order="stroke fill markers" d=" M 535.8181094154636 411.7629212898465 L 545.4700831651471 410.5579720231053 L 538.7149395019441 403.5593625834032 Z" fill-opacity="1"/><path fill="none" stroke="rgb(55,71,79)" paint-order="fill stroke markers" d=" M 260.14681332623115 95.86402773936021 L 281.8204273259076 130.40084354372266" stroke-opacity="1" stroke-linejoin="round" stroke-miterlimit="10" stroke-width="2"/><path fill="none" stroke="rgb(120,144,156)" paint-order="fill stroke markers" d=" M 494.66857261761766 309.64517595513513 L 559.2880816180584 400.3709665917541" stroke-opacity="1" stroke-linejoin="round" stroke-miterlimit="10"/><path fill="rgb(120,144,156)" stroke="none" paint-order="stroke fill markers" d=" M 551.8579952673574 397.4373141206651 L 560.4483618233618 402 L 558.944290593227 392.39009522759557 Z" fill-opacity="1"/><path fill="none" stroke="rgb(120,144,156)" paint-order="fill stroke markers" d=" M 841.6256849315068 165 L 891.4375074302612 268.5972376754722" stroke-opacity="1" stroke-linejoin="round" stroke-miterlimit="10"/><path fill="rgb(120,144,156)" stroke="none" paint-order="stroke fill markers" d=" M 884.6138089267525 264.44396923565114 L 892.3041734364602 270.3997054376524 L 892.4545436922366 260.6739721086855 Z" fill-opacity="1"/><path fill="none" stroke="rgb(120,144,156)" paint-order="fill stroke markers" d=" M 200.875 163 L 200.875 181.875" stroke-opacity="1" stroke-linejoin="round" stroke-miterlimit="10"/><path fill="rgb(120,144,156)" stroke="none" paint-order="stroke fill markers" d=" M 196.525 175.175 L 200.875 183.875 L 205.225 175.175 Z" fill-opacity="1"/><path fill="none" stroke="rgb(55,71,79)" paint-order="fill stroke markers" d=" M 333.34183673469386 91.5 L 308.9295726740924 130.40084354372266" stroke-opacity="1" stroke-linejoin="round" stroke-miterlimit="10" stroke-width="2"/><path fill="none" stroke="rgb(120,144,156)" paint-order="fill stroke markers" d=" M 656.0571917808219 165 L 697.1058974561006 267.97441629880905" stroke-opacity="1" stroke-linejoin="round" stroke-miterlimit="10"/><path fill="rgb(120,144,156)" stroke="none" paint-order="stroke fill markers" d=" M 690.5841518496869 263.3614634218305 L 697.8464843488916 269.8322459611371 L 698.6657108808141 260.1399104381894 Z" fill-opacity="1"/><path fill="none" stroke="rgb(120,144,156)" paint-order="fill stroke markers" d=" M 315.85464223967006 167.1932305233325 L 457.78911131015974 272.4901435532689" stroke-opacity="1" stroke-linejoin="round" stroke-miterlimit="10"/><path fill="rgb(120,144,156)" stroke="none" paint-order="stroke fill markers" d=" M 449.81639931869756 271.99178273900367 L 459.39535776032994 273.6817694766675 L 454.9999720854816 265.00461068076334 Z" fill-opacity="1"/><path fill="none" stroke="rgb(120,144,156)" paint-order="fill stroke markers" d=" M 479.875 177.5 L 479.875 261.375" stroke-opacity="1" stroke-linejoin="round" stroke-miterlimit="10"/><path fill="rgb(120,144,156)" stroke="none" paint-order="stroke fill markers" d=" M 475.525 254.675 L 479.875 263.375 L 484.225 254.675 Z" fill-opacity="1"/><path fill="none" stroke="rgb(55,71,79)" paint-order="fill stroke markers" d=" M 548.4017690592918 169.7689490159927 L 492.5917019018565 266.7721609801066" stroke-opacity="1" stroke-linejoin="round" stroke-miterlimit="10" stroke-width="2"/><path fill="none" stroke="rgb(120,144,156)" paint-order="fill stroke markers" d=" M 575.3317307692307 393.875 L 574.9388399667841 400.00409651816767" stroke-opacity="1" stroke-linejoin="round" stroke-miterlimit="10"/><path fill="rgb(120,144,156)" stroke="none" paint-order="stroke fill markers" d=" M 571.0263573722692 393.039544849351 L 574.8108974358975 402 L 579.7085375182397 393.596094858708 Z" fill-opacity="1"/><path fill="none" stroke="rgb(120,144,156)" paint-order="fill stroke markers" d=" M 690.9314974435146 303.36036812895134 L 593.5665730379616 400.58679335327304" stroke-opacity="1" stroke-linejoin="round" stroke-miterlimit="10"/><path fill="rgb(120,144,156)" stroke="none" paint-order="stroke fill markers" d=" M 595.2338347827184 392.7744481052396 L 592.1513532763532 402 L 601.3812836959806 398.93065406823587 Z" fill-opacity="1"/><path fill="none" stroke="rgb(55,71,79)" paint-order="fill stroke markers" d=" M 543.1530612244898 91.5 L 498.3062721175806 134.37790568270344" stroke-opacity="1" stroke-linejoin="round" stroke-miterlimit="10" stroke-width="2"/><path fill="none" stroke="rgb(120,144,156)" paint-order="fill stroke markers" d=" M 945.4770547945205 165 L 908.7624226429975 267.68843475330175" stroke-opacity="1" stroke-linejoin="round" stroke-miterlimit="10"/><path fill="rgb(120,144,156)" stroke="none" paint-order="stroke fill markers" d=" M 906.9219969934396 259.9150613910832 L 908.0890961858422 269.57168499745273 L 915.1141355554963 262.8440314797089 Z" fill-opacity="1"/><path fill="none" stroke="rgb(55,71,79)" paint-order="fill stroke markers" d=" M 743.125 91.5 L 743.125 131.5" stroke-opacity="1" stroke-linejoin="round" stroke-miterlimit="10" stroke-width="2"/><path fill="none" stroke="rgb(120,144,156)" paint-order="fill stroke markers" d=" M 882.1657661327333 296.51853587568473 L 602.6293563580793 408.8451298435194" stroke-opacity="1" stroke-linejoin="round" stroke-miterlimit="10"/><path fill="rgb(120,144,156)" stroke="none" paint-order="stroke fill markers" d=" M 607.2242946922968 402.31067946841216 L 600.7735774441996 409.59084066065935 L 610.4681367468556 410.3833177437888 Z" fill-opacity="1"/><path fill="none" stroke="rgb(120,144,156)" paint-order="fill stroke markers" d=" M 737.6829996068091 171.76447903994716 L 711.4104272608193 267.18227910249703" stroke-opacity="1" stroke-linejoin="round" stroke-miterlimit="10"/><path fill="rgb(120,144,156)" stroke="none" paint-order="stroke fill markers" d=" M 708.9951062271905 259.5679029425933 L 710.8795003931909 269.11052096005284 L 717.3829583075583 261.87743481677677 Z" fill-opacity="1"/><path fill="rgb(69,90,100)" stroke="rgb(76,175,80)" paint-order="fill stroke markers" d=" M 266.75 78.5 L 266.69605334032974 79.87303417523728 L 266.5345459604149 81.23760313820404 L 266.2664736069593 82.58529386747834 L 265.8934890351652 83.90779740156158 L 265.4178918189475 85.19696006638907 L 264.84261417329645 86.44483374544207 L 264.1712028761966 87.6437248825291 L 263.4077974015616 88.78624191511828 L 262.55710439800055 89.8653408457782 L 261.62436867076457 90.87436867076458 L 260.61534084577823 91.80710439800055 L 259.5362419151183 92.65779740156158 L 258.3937248825291 93.42120287619662 L 257.19483374544205 94.09261417329644 L 255.94696006638907 94.66789181894751 L 254.6577974015616 95.14348903516519 L 253.33529386747836 95.51647360695934 L 251.98760313820404 95.7845459604149 L 250.62303417523728 95.94605334032974 L 249.25 96 L 247.87696582476272 95.94605334032974 L 246.51239686179596 95.7845459604149 L 245.16470613252164 95.51647360695934 L 243.84220259843843 95.14348903516519 L 242.55303993361093 94.66789181894751 L 241.30516625455795 94.09261417329644 L 240.1062751174709 93.42120287619662 L 238.96375808488173 92.65779740156158 L 237.8846591542218 91.80710439800055 L 236.87563132923543 90.87436867076458 L 235.94289560199945 89.86534084577822 L 235.09220259843843 88.78624191511828 L 234.32879712380338 87.64372488252911 L 233.65738582670357 86.44483374544207 L 233.0821081810525 85.19696006638907 L 232.60651096483483 83.90779740156158 L 232.23352639304065 82.58529386747834 L 231.9654540395851 81.23760313820404 L 231.80394665967026 79.8730341752373 L 231.75 78.5 L 231.80394665967026 77.12696582476272 L 231.9654540395851 75.76239686179596 L 232.23352639304065 74.41470613252166 L 232.6065109648348 73.09220259843842 L 233.0821081810525 71.80303993361093 L 233.65738582670357 70.55516625455793 L 234.32879712380338 69.3562751174709 L 235.0922025984384 68.21375808488172 L 235.94289560199945 67.1346591542218 L 236.8756313292354 66.12563132923542 L 237.88465915422177 65.19289560199947 L 238.9637580848817 64.34220259843842 L 240.1062751174709 63.57879712380338 L 241.30516625455795 62.90738582670356 L 242.55303993361096 62.332108181052476 L 243.84220259843843 61.856510964834804 L 245.1647061325217 61.48352639304065 L 246.512396861796 61.21545403958508 L 247.87696582476278 61.05394665967026 L 249.25000000000006 61 L 250.62303417523736 61.05394665967027 L 251.98760313820412 61.2154540395851 L 253.3352938674784 61.48352639304068 L 254.65779740156165 61.85651096483484 L 255.94696006638915 62.33210818105252 L 257.19483374544217 62.90738582670361 L 258.3937248825292 63.57879712380345 L 259.53624191511835 64.34220259843849 L 260.6153408457783 65.19289560199954 L 261.6243686707647 66.12563132923552 L 262.55710439800066 67.1346591542219 L 263.40779740156165 68.21375808488185 L 264.1712028761967 69.35627511747103 L 264.8426141732965 70.55516625455807 L 265.41789181894757 71.80303993361109 L 265.89348903516526 73.09220259843859 L 266.2664736069594 74.41470613252184 L 266.53454596041496 75.76239686179616 L 266.69605334032974 77.12696582476292 Z" fill-opacity="1" stroke-opacity="1" stroke-miterlimit="10" stroke-width="6"/><text fill="rgb(255,255,255)" stroke="none" font-family="times new roman" font-size="10px" font-style="normal" font-weight="normal" text-decoration="normal" x="249.25" y="83.5" text-anchor="middle" dominant-baseline="text-after-edge" fill-opacity="1">*34.1</text><path fill="rgb(69,90,100)" stroke="rgb(76,175,80)" paint-order="fill stroke markers" d=" M 317.875 152 L 317.8056400089954 153.7653296538765 L 317.5979876633906 155.51977546340518 L 317.25332320894773 157.25252068675786 L 316.77377161664094 158.95288237343632 L 316.16228948150393 160.61037722821453 L 315.4226467942383 162.21478624413982 L 314.55940369796707 163.75621770610886 L 313.5778823734363 165.22516817658064 L 312.4841342260007 166.61258108742913 L 311.28490257669733 167.9099025766973 L 309.98758108742913 169.1091342260007 L 308.60016817658067 170.20288237343632 L 307.1312177061088 171.18440369796707 L 305.5897862441398 172.0476467942383 L 303.98537722821453 172.78728948150396 L 302.3278823734363 173.39877161664094 L 300.62752068675786 173.87832320894773 L 298.8947754634052 174.2229876633906 L 297.1403296538765 174.43064000899537 L 295.375 174.5 L 293.6096703461235 174.43064000899537 L 291.8552245365948 174.2229876633906 L 290.12247931324214 173.87832320894773 L 288.4221176265637 173.39877161664094 L 286.76462277178547 172.78728948150396 L 285.1602137558602 172.0476467942383 L 283.6187822938912 171.18440369796707 L 282.14983182341933 170.20288237343632 L 280.76241891257087 169.1091342260007 L 279.46509742330267 167.90990257669733 L 278.2658657739993 166.61258108742913 L 277.1721176265637 165.22516817658064 L 276.19059630203293 163.75621770610886 L 275.3273532057617 162.21478624413982 L 274.58771051849607 160.61037722821453 L 273.97622838335906 158.95288237343632 L 273.49667679105227 157.25252068675786 L 273.1520123366094 155.5197754634052 L 272.9443599910046 153.7653296538765 L 272.875 152 L 272.9443599910046 150.2346703461235 L 273.1520123366094 148.48022453659482 L 273.49667679105227 146.74747931324214 L 273.97622838335906 145.04711762656368 L 274.58771051849607 143.38962277178547 L 275.3273532057617 141.7852137558602 L 276.19059630203293 140.24378229389114 L 277.1721176265637 138.77483182341936 L 278.2658657739993 137.38741891257087 L 279.46509742330267 136.0900974233027 L 280.76241891257087 134.8908657739993 L 282.14983182341933 133.79711762656368 L 283.6187822938912 132.81559630203293 L 285.16021375586024 131.9523532057617 L 286.7646227717855 131.21271051849604 L 288.4221176265637 130.60122838335903 L 290.1224793132422 130.12167679105227 L 291.85522453659485 129.7770123366094 L 293.60967034612355 129.5693599910046 L 295.37500000000006 129.5 L 297.1403296538766 129.56935999100463 L 298.89477546340527 129.7770123366094 L 300.627520686758 130.1216767910523 L 302.3278823734364 130.60122838335909 L 303.98537722821465 131.2127105184961 L 305.58978624413993 131.9523532057618 L 307.131217706109 132.815596302033 L 308.6001681765808 133.79711762656376 L 309.98758108742925 134.89086577399942 L 311.28490257669745 136.0900974233028 L 312.48413422600083 137.387418912571 L 313.5778823734364 138.7748318234195 L 314.5594036979672 140.24378229389131 L 315.4226467942384 141.78521375586038 L 316.16228948150405 143.3896227717857 L 316.77377161664106 145.0471176265639 L 317.2533232089478 146.74747931324237 L 317.59798766339065 148.48022453659505 L 317.8056400089954 150.23467034612375 Z" fill-opacity="1" stroke-opacity="1" stroke-miterlimit="10" stroke-width="6"/><text fill="rgb(255,255,255)" stroke="none" font-family="times new roman" font-size="15px" font-style="normal" font-weight="normal" text-decoration="normal" x="295.375" y="159.5" text-anchor="middle" dominant-baseline="text-after-edge" fill-opacity="1">*34</text><path fill="rgb(69,90,100)" stroke="rgb(76,175,80)" paint-order="fill stroke markers" d=" M 603.375 142 L 603.375 162 L 698.375 162 L 698.375 142 Z" fill-opacity="1" stroke-opacity="1" stroke-miterlimit="10" stroke-width="6"/><text fill="rgb(255,255,255)" stroke="none" font-family="times new roman" font-size="10px" font-style="normal" font-weight="normal" text-decoration="normal" x="650.875" y="157" text-anchor="middle" dominant-baseline="text-after-edge" fill-opacity="1">42130047G&gt;C</text><path fill="rgb(69,90,100)" stroke="rgb(76,175,80)" paint-order="fill stroke markers" d=" M 918.6875 288.875 L 918.6335533403297 290.2480341752373 L 918.4720459604149 291.61260313820407 L 918.2039736069594 292.96029386747836 L 917.8309890351652 294.2827974015616 L 917.3553918189475 295.57196006638907 L 916.7801141732964 296.81983374544205 L 916.1087028761966 298.0187248825291 L 915.3452974015615 299.1612419151183 L 914.4946043980005 300.24034084577823 L 913.5618686707646 301.24936867076457 L 912.5528408457782 302.18210439800055 L 911.4737419151182 303.0327974015616 L 910.3312248825291 303.7962028761966 L 909.1323337454421 304.46761417329645 L 907.8844600663891 305.0428918189475 L 906.5952974015615 305.5184890351652 L 905.2727938674783 305.8914736069593 L 903.925103138204 306.1595459604149 L 902.5605341752373 306.32105334032974 L 901.1875 306.375 L 899.8144658247627 306.32105334032974 L 898.449896861796 306.1595459604149 L 897.1022061325217 305.8914736069593 L 895.7797025984385 305.5184890351652 L 894.4905399336109 305.0428918189475 L 893.2426662545579 304.46761417329645 L 892.0437751174709 303.7962028761966 L 890.9012580848818 303.0327974015616 L 889.8221591542218 302.18210439800055 L 888.8131313292354 301.24936867076457 L 887.8803956019995 300.24034084577823 L 887.0297025984385 299.1612419151183 L 886.2662971238034 298.0187248825291 L 885.5948858267036 296.81983374544205 L 885.0196081810525 295.57196006638907 L 884.5440109648348 294.2827974015616 L 884.1710263930406 292.96029386747836 L 883.9029540395851 291.61260313820407 L 883.7414466596703 290.2480341752373 L 883.6875 288.875 L 883.7414466596703 287.5019658247627 L 883.9029540395851 286.13739686179593 L 884.1710263930406 284.78970613252164 L 884.5440109648348 283.4672025984384 L 885.0196081810525 282.17803993361093 L 885.5948858267036 280.93016625455795 L 886.2662971238034 279.7312751174709 L 887.0297025984385 278.5887580848817 L 887.8803956019995 277.50965915422177 L 888.8131313292354 276.50063132923543 L 889.8221591542218 275.56789560199945 L 890.9012580848818 274.7172025984384 L 892.0437751174709 273.9537971238034 L 893.2426662545579 273.28238582670355 L 894.490539933611 272.7071081810525 L 895.7797025984385 272.2315109648348 L 897.1022061325217 271.8585263930407 L 898.449896861796 271.5904540395851 L 899.8144658247628 271.42894665967026 L 901.1875000000001 271.375 L 902.5605341752373 271.42894665967026 L 903.9251031382041 271.5904540395851 L 905.2727938674784 271.8585263930407 L 906.5952974015617 272.23151096483485 L 907.8844600663891 272.7071081810525 L 909.1323337454421 273.2823858267036 L 910.3312248825292 273.95379712380344 L 911.4737419151184 274.7172025984385 L 912.5528408457783 275.56789560199957 L 913.5618686707646 276.5006313292355 L 914.4946043980007 277.5096591542219 L 915.3452974015617 278.5887580848818 L 916.1087028761967 279.73127511747106 L 916.7801141732965 280.93016625455806 L 917.3553918189476 282.1780399336111 L 917.8309890351652 283.4672025984386 L 918.2039736069594 284.7897061325218 L 918.4720459604149 286.13739686179616 L 918.6335533403297 287.5019658247629 Z" fill-opacity="1" stroke-opacity="1" stroke-miterlimit="10" stroke-width="6"/><text fill="rgb(255,255,255)" stroke="none" font-family="times new roman" font-size="10px" font-style="normal" font-weight="normal" text-decoration="normal" x="901.1875" y="293.875" text-anchor="middle" dominant-baseline="text-after-edge" fill-opacity="1">*1.58</text><path fill="rgb(69,90,100)" stroke="rgb(76,175,80)" paint-order="fill stroke markers" d=" M 576.125 152 L 576.0710533403297 153.37303417523728 L 575.9095459604149 154.73760313820404 L 575.6414736069594 156.08529386747836 L 575.2684890351652 157.40779740156157 L 574.7928918189475 158.69696006638907 L 574.2176141732964 159.94483374544205 L 573.5462028761966 161.1437248825291 L 572.7827974015615 162.28624191511827 L 571.9321043980005 163.3653408457782 L 570.9993686707646 164.37436867076457 L 569.9903408457782 165.30710439800055 L 568.9112419151182 166.1577974015616 L 567.7687248825291 166.92120287619662 L 566.5698337454421 167.59261417329643 L 565.3219600663891 168.1678918189475 L 564.0327974015615 168.64348903516517 L 562.7102938674783 169.01647360695935 L 561.362603138204 169.2845459604149 L 559.9980341752373 169.44605334032974 L 558.625 169.5 L 557.2519658247627 169.44605334032974 L 555.887396861796 169.2845459604149 L 554.5397061325217 169.01647360695935 L 553.2172025984385 168.6434890351652 L 551.9280399336109 168.1678918189475 L 550.6801662545579 167.59261417329643 L 549.4812751174709 166.92120287619662 L 548.3387580848818 166.1577974015616 L 547.2596591542218 165.30710439800055 L 546.2506313292354 164.37436867076457 L 545.3178956019995 163.3653408457782 L 544.4672025984385 162.2862419151183 L 543.7037971238034 161.1437248825291 L 543.0323858267036 159.94483374544208 L 542.4571081810525 158.69696006638907 L 541.9815109648348 157.4077974015616 L 541.6085263930406 156.08529386747836 L 541.3404540395851 154.73760313820404 L 541.1789466596703 153.37303417523728 L 541.125 152 L 541.1789466596703 150.62696582476272 L 541.3404540395851 149.26239686179596 L 541.6085263930406 147.91470613252164 L 541.9815109648348 146.59220259843843 L 542.4571081810525 145.30303993361093 L 543.0323858267036 144.05516625455795 L 543.7037971238034 142.8562751174709 L 544.4672025984385 141.71375808488173 L 545.3178956019995 140.6346591542218 L 546.2506313292354 139.62563132923543 L 547.2596591542218 138.69289560199945 L 548.3387580848818 137.84220259843843 L 549.4812751174709 137.07879712380338 L 550.6801662545579 136.40738582670355 L 551.928039933611 135.8321081810525 L 553.2172025984385 135.3565109648348 L 554.5397061325217 134.98352639304065 L 555.887396861796 134.7154540395851 L 557.2519658247628 134.55394665967026 L 558.6250000000001 134.5 L 559.9980341752373 134.55394665967026 L 561.3626031382041 134.7154540395851 L 562.7102938674784 134.98352639304068 L 564.0327974015617 135.35651096483485 L 565.3219600663891 135.83210818105252 L 566.5698337454421 136.4073858267036 L 567.7687248825292 137.07879712380344 L 568.9112419151184 137.8422025984385 L 569.9903408457783 138.69289560199954 L 570.9993686707646 139.62563132923552 L 571.9321043980007 140.6346591542219 L 572.7827974015617 141.71375808488185 L 573.5462028761967 142.85627511747103 L 574.2176141732965 144.0551662545581 L 574.7928918189476 145.3030399336111 L 575.2684890351652 146.5922025984386 L 575.6414736069594 147.91470613252184 L 575.9095459604149 149.26239686179616 L 576.0710533403297 150.62696582476292 Z" fill-opacity="1" stroke-opacity="1" stroke-miterlimit="10" stroke-width="6"/><text fill="rgb(255,255,255)" stroke="none" font-family="times new roman" font-size="10px" font-style="normal" font-weight="normal" text-decoration="normal" x="558.625" y="157" text-anchor="middle" dominant-baseline="text-after-edge" fill-opacity="1">*2.4</text><path fill="rgb(69,90,100)" stroke="rgb(158,158,158)" paint-order="fill stroke markers" d=" M 294 68.5 L 294 88.5 L 389 88.5 L 389 68.5 Z" fill-opacity="1" stroke-opacity="1" stroke-miterlimit="10" stroke-width="6"/><text fill="rgb(255,255,255)" stroke="none" font-family="times new roman" font-size="10px" font-style="normal" font-weight="normal" text-decoration="normal" x="341.5" y="83.5" text-anchor="middle" dominant-baseline="text-after-edge" fill-opacity="1">42127941G&gt;A</text><path fill="rgb(69,90,100)" stroke="rgb(76,175,80)" paint-order="fill stroke markers" d=" M 200.875 142 L 243.375 142 L 243.375 142 A 5 5 0 0 1 248.375 147 L 248.375 157 L 248.375 157 A 5 5 0 0 1 243.375 162 L 158.375 162 L 158.375 162 A 5 5 0 0 1 153.375 157 L 153.375 147 L 153.375 147 A 5 5 0 0 1 158.375 142 L 200.875 142 Z" fill-opacity="1" stroke-opacity="1" stroke-miterlimit="10" stroke-width="2"/><text fill="rgb(255,255,255)" stroke="none" font-family="times new roman" font-size="10px" font-style="normal" font-weight="normal" text-decoration="normal" x="200.875" y="157" text-anchor="middle" dominant-baseline="text-after-edge" fill-opacity="1">42132049dup</text><path fill="rgb(69,90,100)" stroke="rgb(76,175,80)" paint-order="fill stroke markers" d=" M 722.9375 288.875 L 722.8835533403297 290.2480341752373 L 722.7220459604149 291.61260313820407 L 722.4539736069594 292.96029386747836 L 722.0809890351652 294.2827974015616 L 721.6053918189475 295.57196006638907 L 721.0301141732964 296.81983374544205 L 720.3587028761966 298.0187248825291 L 719.5952974015615 299.1612419151183 L 718.7446043980005 300.24034084577823 L 717.8118686707646 301.24936867076457 L 716.8028408457782 302.18210439800055 L 715.7237419151182 303.0327974015616 L 714.5812248825291 303.7962028761966 L 713.3823337454421 304.46761417329645 L 712.1344600663891 305.0428918189475 L 710.8452974015615 305.5184890351652 L 709.5227938674783 305.8914736069593 L 708.175103138204 306.1595459604149 L 706.8105341752373 306.32105334032974 L 705.4375 306.375 L 704.0644658247627 306.32105334032974 L 702.699896861796 306.1595459604149 L 701.3522061325217 305.8914736069593 L 700.0297025984385 305.5184890351652 L 698.7405399336109 305.0428918189475 L 697.4926662545579 304.46761417329645 L 696.2937751174709 303.7962028761966 L 695.1512580848818 303.0327974015616 L 694.0721591542218 302.18210439800055 L 693.0631313292354 301.24936867076457 L 692.1303956019995 300.24034084577823 L 691.2797025984385 299.1612419151183 L 690.5162971238034 298.0187248825291 L 689.8448858267036 296.81983374544205 L 689.2696081810525 295.57196006638907 L 688.7940109648348 294.2827974015616 L 688.4210263930406 292.96029386747836 L 688.1529540395851 291.61260313820407 L 687.9914466596703 290.2480341752373 L 687.9375 288.875 L 687.9914466596703 287.5019658247627 L 688.1529540395851 286.13739686179593 L 688.4210263930406 284.78970613252164 L 688.7940109648348 283.4672025984384 L 689.2696081810525 282.17803993361093 L 689.8448858267036 280.93016625455795 L 690.5162971238034 279.7312751174709 L 691.2797025984385 278.5887580848817 L 692.1303956019995 277.50965915422177 L 693.0631313292354 276.50063132923543 L 694.0721591542218 275.56789560199945 L 695.1512580848818 274.7172025984384 L 696.2937751174709 273.9537971238034 L 697.4926662545579 273.28238582670355 L 698.740539933611 272.7071081810525 L 700.0297025984385 272.2315109648348 L 701.3522061325217 271.8585263930407 L 702.699896861796 271.5904540395851 L 704.0644658247628 271.42894665967026 L 705.4375000000001 271.375 L 706.8105341752373 271.42894665967026 L 708.1751031382041 271.5904540395851 L 709.5227938674784 271.8585263930407 L 710.8452974015617 272.23151096483485 L 712.1344600663891 272.7071081810525 L 713.3823337454421 273.2823858267036 L 714.5812248825292 273.95379712380344 L 715.7237419151184 274.7172025984385 L 716.8028408457783 275.56789560199957 L 717.8118686707646 276.5006313292355 L 718.7446043980007 277.5096591542219 L 719.5952974015617 278.5887580848818 L 720.3587028761967 279.73127511747106 L 721.0301141732965 280.93016625455806 L 721.6053918189476 282.1780399336111 L 722.0809890351652 283.4672025984386 L 722.4539736069594 284.7897061325218 L 722.7220459604149 286.13739686179616 L 722.8835533403297 287.5019658247629 Z" fill-opacity="1" stroke-opacity="1" stroke-miterlimit="10" stroke-width="6"/><text fill="rgb(255,255,255)" stroke="none" font-family="times new roman" font-size="10px" font-style="normal" font-weight="normal" text-decoration="normal" x="705.4375" y="293.875" text-anchor="middle" dominant-baseline="text-after-edge" fill-opacity="1">*1.54</text><path fill="rgb(69,90,100)" stroke="rgb(76,175,80)" paint-order="fill stroke markers" d=" M 451.25 78.5 L 451.19605334032974 79.87303417523728 L 451.0345459604149 81.23760313820404 L 450.7664736069593 82.58529386747834 L 450.3934890351652 83.90779740156158 L 449.9178918189475 85.19696006638907 L 449.34261417329645 86.44483374544207 L 448.6712028761966 87.6437248825291 L 447.9077974015616 88.78624191511828 L 447.05710439800055 89.8653408457782 L 446.12436867076457 90.87436867076458 L 445.11534084577823 91.80710439800055 L 444.0362419151183 92.65779740156158 L 442.8937248825291 93.42120287619662 L 441.69483374544205 94.09261417329644 L 440.44696006638907 94.66789181894751 L 439.1577974015616 95.14348903516519 L 437.83529386747836 95.51647360695934 L 436.48760313820407 95.7845459604149 L 435.1230341752373 95.94605334032974 L 433.75 96 L 432.3769658247627 95.94605334032974 L 431.01239686179593 95.7845459604149 L 429.66470613252164 95.51647360695934 L 428.3422025984384 95.14348903516519 L 427.05303993361093 94.66789181894751 L 425.80516625455795 94.09261417329644 L 424.6062751174709 93.42120287619662 L 423.4637580848817 92.65779740156158 L 422.38465915422177 91.80710439800055 L 421.37563132923543 90.87436867076458 L 420.44289560199945 89.86534084577822 L 419.5922025984384 88.78624191511828 L 418.8287971238034 87.64372488252911 L 418.15738582670355 86.44483374544207 L 417.5821081810525 85.19696006638907 L 417.1065109648348 83.90779740156158 L 416.7335263930407 82.58529386747834 L 416.4654540395851 81.23760313820404 L 416.30394665967026 79.8730341752373 L 416.25 78.5 L 416.30394665967026 77.12696582476272 L 416.4654540395851 75.76239686179596 L 416.7335263930407 74.41470613252166 L 417.1065109648348 73.09220259843842 L 417.5821081810525 71.80303993361093 L 418.15738582670355 70.55516625455793 L 418.8287971238034 69.3562751174709 L 419.5922025984384 68.21375808488172 L 420.44289560199945 67.1346591542218 L 421.37563132923543 66.12563132923542 L 422.38465915422177 65.19289560199947 L 423.4637580848817 64.34220259843842 L 424.6062751174709 63.57879712380338 L 425.80516625455795 62.90738582670356 L 427.05303993361093 62.332108181052476 L 428.34220259843846 61.856510964834804 L 429.6647061325217 61.48352639304065 L 431.012396861796 61.21545403958508 L 432.37696582476275 61.05394665967026 L 433.75000000000006 61 L 435.12303417523736 61.05394665967027 L 436.4876031382041 61.2154540395851 L 437.8352938674784 61.48352639304068 L 439.15779740156165 61.85651096483484 L 440.4469600663892 62.33210818105252 L 441.69483374544217 62.90738582670361 L 442.8937248825292 63.57879712380345 L 444.03624191511835 64.34220259843849 L 445.1153408457783 65.19289560199954 L 446.1243686707647 66.12563132923552 L 447.05710439800066 67.1346591542219 L 447.90779740156165 68.21375808488185 L 448.6712028761967 69.35627511747103 L 449.3426141732965 70.55516625455807 L 449.91789181894757 71.80303993361109 L 450.39348903516526 73.09220259843859 L 450.7664736069594 74.41470613252184 L 451.03454596041496 75.76239686179616 L 451.19605334032974 77.12696582476292 Z" fill-opacity="1" stroke-opacity="1" stroke-miterlimit="10" stroke-width="6"/><text fill="rgb(255,255,255)" stroke="none" font-family="times new roman" font-size="10px" font-style="normal" font-weight="normal" text-decoration="normal" x="433.75" y="83.5" text-anchor="middle" dominant-baseline="text-after-edge" fill-opacity="1">*39.2</text><path fill="rgb(69,90,100)" stroke="rgb(76,175,80)" paint-order="fill stroke markers" d=" M 695.625 68.5 L 695.625 88.5 L 790.625 88.5 L 790.625 68.5 Z" fill-opacity="1" stroke-opacity="1" stroke-miterlimit="10" stroke-width="6"/><text fill="rgb(255,255,255)" stroke="none" font-family="times new roman" font-size="10px" font-style="normal" font-weight="normal" text-decoration="normal" x="743.125" y="83.5" text-anchor="middle" dominant-baseline="text-after-edge" fill-opacity="1">42127407T&gt;G</text><path fill="rgb(69,90,100)" stroke="rgb(76,175,80)" paint-order="fill stroke markers" d=" M 502.375 288.875 L 502.3056400089954 290.6403296538765 L 502.0979876633906 292.3947754634052 L 501.75332320894773 294.12752068675786 L 501.27377161664094 295.8278823734363 L 500.66228948150393 297.48537722821453 L 499.9226467942383 299.0897862441398 L 499.05940369796707 300.6312177061088 L 498.0778823734363 302.10016817658067 L 496.9841342260007 303.48758108742913 L 495.78490257669733 304.78490257669733 L 494.48758108742913 305.9841342260007 L 493.10016817658067 307.0778823734363 L 491.6312177061088 308.05940369796707 L 490.0897862441398 308.9226467942383 L 488.48537722821453 309.66228948150393 L 486.8278823734363 310.27377161664094 L 485.12752068675786 310.75332320894773 L 483.3947754634052 311.0979876633906 L 481.6403296538765 311.3056400089954 L 479.875 311.375 L 478.1096703461235 311.3056400089954 L 476.3552245365948 311.0979876633906 L 474.62247931324214 310.75332320894773 L 472.9221176265637 310.27377161664094 L 471.26462277178547 309.66228948150393 L 469.6602137558602 308.9226467942383 L 468.1187822938912 308.05940369796707 L 466.64983182341933 307.0778823734363 L 465.26241891257087 305.9841342260007 L 463.96509742330267 304.78490257669733 L 462.7658657739993 303.48758108742913 L 461.6721176265637 302.10016817658067 L 460.69059630203293 300.6312177061088 L 459.8273532057617 299.0897862441398 L 459.08771051849607 297.48537722821453 L 458.47622838335906 295.8278823734363 L 457.99667679105227 294.12752068675786 L 457.6520123366094 292.3947754634052 L 457.4443599910046 290.6403296538765 L 457.375 288.875 L 457.4443599910046 287.1096703461235 L 457.6520123366094 285.3552245365948 L 457.99667679105227 283.62247931324214 L 458.47622838335906 281.9221176265637 L 459.08771051849607 280.26462277178547 L 459.8273532057617 278.6602137558602 L 460.69059630203293 277.1187822938912 L 461.6721176265637 275.64983182341933 L 462.7658657739993 274.26241891257087 L 463.96509742330267 272.96509742330267 L 465.26241891257087 271.76586577399934 L 466.64983182341933 270.6721176265637 L 468.1187822938912 269.69059630203293 L 469.66021375586024 268.8273532057617 L 471.2646227717855 268.087710518496 L 472.9221176265637 267.47622838335906 L 474.6224793132422 266.99667679105227 L 476.35522453659485 266.6520123366094 L 478.10967034612355 266.4443599910046 L 479.87500000000006 266.375 L 481.6403296538766 266.4443599910046 L 483.39477546340527 266.6520123366094 L 485.127520686758 266.9966767910523 L 486.8278823734364 267.47622838335906 L 488.48537722821465 268.0877105184961 L 490.08978624413993 268.82735320576177 L 491.631217706109 269.690596302033 L 493.1001681765808 270.67211762656376 L 494.48758108742925 271.7658657739994 L 495.78490257669745 272.9650974233028 L 496.98413422600083 274.262418912571 L 498.0778823734364 275.6498318234195 L 499.0594036979672 277.11878229389134 L 499.9226467942384 278.6602137558604 L 500.66228948150405 280.2646227717857 L 501.27377161664106 281.92211762656393 L 501.7533232089478 283.62247931324237 L 502.09798766339065 285.3552245365951 L 502.3056400089954 287.1096703461238 Z" fill-opacity="1" stroke-opacity="1" stroke-miterlimit="10" stroke-width="6"/><text fill="rgb(255,255,255)" stroke="none" font-family="times new roman" font-size="15px" font-style="normal" font-weight="normal" text-decoration="normal" x="479.875" y="296.375" text-anchor="middle" dominant-baseline="text-after-edge" fill-opacity="1">*2</text><path fill="rgb(3,169,244)" stroke="none" paint-order="stroke fill markers" d=" M 479.875 256.375 L 504.375 256.375 L 504.375 256.375 A 8 8 0 0 1 512.375 264.375 L 512.375 313.375 L 512.375 313.375 A 8 8 0 0 1 504.375 321.375 L 455.375 321.375 L 455.375 321.375 A 8 8 0 0 1 447.375 313.375 L 447.375 264.375 L 447.375 264.375 A 8 8 0 0 1 455.375 256.375 L 479.875 256.375 Z" fill-opacity="0.15"/><path fill="rgb(69,90,100)" stroke="rgb(76,175,80)" paint-order="fill stroke markers" d=" M 502.375 152 L 502.3056400089954 153.7653296538765 L 502.0979876633906 155.51977546340518 L 501.75332320894773 157.25252068675786 L 501.27377161664094 158.95288237343632 L 500.66228948150393 160.61037722821453 L 499.9226467942383 162.21478624413982 L 499.05940369796707 163.75621770610886 L 498.0778823734363 165.22516817658064 L 496.9841342260007 166.61258108742913 L 495.78490257669733 167.9099025766973 L 494.48758108742913 169.1091342260007 L 493.10016817658067 170.20288237343632 L 491.6312177061088 171.18440369796707 L 490.0897862441398 172.0476467942383 L 488.48537722821453 172.78728948150396 L 486.8278823734363 173.39877161664094 L 485.12752068675786 173.87832320894773 L 483.3947754634052 174.2229876633906 L 481.6403296538765 174.43064000899537 L 479.875 174.5 L 478.1096703461235 174.43064000899537 L 476.3552245365948 174.2229876633906 L 474.62247931324214 173.87832320894773 L 472.9221176265637 173.39877161664094 L 471.26462277178547 172.78728948150396 L 469.6602137558602 172.0476467942383 L 468.1187822938912 171.18440369796707 L 466.64983182341933 170.20288237343632 L 465.26241891257087 169.1091342260007 L 463.96509742330267 167.90990257669733 L 462.7658657739993 166.61258108742913 L 461.6721176265637 165.22516817658064 L 460.69059630203293 163.75621770610886 L 459.8273532057617 162.21478624413982 L 459.08771051849607 160.61037722821453 L 458.47622838335906 158.95288237343632 L 457.99667679105227 157.25252068675786 L 457.6520123366094 155.5197754634052 L 457.4443599910046 153.7653296538765 L 457.375 152 L 457.4443599910046 150.2346703461235 L 457.6520123366094 148.48022453659482 L 457.99667679105227 146.74747931324214 L 458.47622838335906 145.04711762656368 L 459.08771051849607 143.38962277178547 L 459.8273532057617 141.7852137558602 L 460.69059630203293 140.24378229389114 L 461.6721176265637 138.77483182341936 L 462.7658657739993 137.38741891257087 L 463.96509742330267 136.0900974233027 L 465.26241891257087 134.8908657739993 L 466.64983182341933 133.79711762656368 L 468.1187822938912 132.81559630203293 L 469.66021375586024 131.9523532057617 L 471.2646227717855 131.21271051849604 L 472.9221176265637 130.60122838335903 L 474.6224793132422 130.12167679105227 L 476.35522453659485 129.7770123366094 L 478.10967034612355 129.5693599910046 L 479.87500000000006 129.5 L 481.6403296538766 129.56935999100463 L 483.39477546340527 129.7770123366094 L 485.127520686758 130.1216767910523 L 486.8278823734364 130.60122838335909 L 488.48537722821465 131.2127105184961 L 490.08978624413993 131.9523532057618 L 491.631217706109 132.815596302033 L 493.1001681765808 133.79711762656376 L 494.48758108742925 134.89086577399942 L 495.78490257669745 136.0900974233028 L 496.98413422600083 137.387418912571 L 498.0778823734364 138.7748318234195 L 499.0594036979672 140.24378229389131 L 499.9226467942384 141.78521375586038 L 500.66228948150405 143.3896227717857 L 501.27377161664106 145.0471176265639 L 501.7533232089478 146.74747931324237 L 502.09798766339065 148.48022453659505 L 502.3056400089954 150.23467034612375 Z" fill-opacity="1" stroke-opacity="1" stroke-miterlimit="10" stroke-width="6"/><text fill="rgb(255,255,255)" stroke="none" font-family="times new roman" font-size="15px" font-style="normal" font-weight="normal" text-decoration="normal" x="479.875" y="159.5" text-anchor="middle" dominant-baseline="text-after-edge" fill-opacity="1">*39</text><path fill="rgb(69,90,100)" stroke="rgb(76,175,80)" paint-order="fill stroke markers" d=" M 787.875 142 L 787.875 162 L 882.875 162 L 882.875 142 Z" fill-opacity="1" stroke-opacity="1" stroke-miterlimit="10" stroke-width="6"/><text fill="rgb(255,255,255)" stroke="none" font-family="times new roman" font-size="10px" font-style="normal" font-weight="normal" text-decoration="normal" x="835.375" y="157" text-anchor="middle" dominant-baseline="text-after-edge" fill-opacity="1">42130482C&gt;A</text><path fill="rgb(69,90,100)" stroke="rgb(69,90,100)" paint-order="fill stroke markers" d=" M 554.875 403 L 536.125 420.5 L 554.875 438 L 592.375 438 L 611.125 420.5 L 592.375 403 Z" fill-opacity="1" stroke-opacity="1" stroke-miterlimit="10" stroke-width="2"/><text fill="rgb(255,255,255)" stroke="none" font-family="times new roman" font-size="10px" font-style="normal" font-weight="normal" text-decoration="normal" x="573.625" y="425.5" text-anchor="middle" dominant-baseline="text-after-edge" fill-opacity="1">NA19035-A</text><path fill="rgb(69,90,100)" stroke="rgb(158,158,158)" paint-order="fill stroke markers" d=" M 509.25 68.5 L 509.25 88.5 L 604.25 88.5 L 604.25 68.5 Z" fill-opacity="1" stroke-opacity="1" stroke-miterlimit="10" stroke-width="6"/><text fill="rgb(255,255,255)" stroke="none" font-family="times new roman" font-size="10px" font-style="normal" font-weight="normal" text-decoration="normal" x="556.75" y="83.5" text-anchor="middle" dominant-baseline="text-after-edge" fill-opacity="1">42126611C&gt;G</text><path fill="rgb(69,90,100)" stroke="rgb(76,175,80)" paint-order="fill stroke markers" d=" M 902.625 142 L 902.625 162 L 997.625 162 L 997.625 142 Z" fill-opacity="1" stroke-opacity="1" stroke-miterlimit="10" stroke-width="6"/><text fill="rgb(255,255,255)" stroke="none" font-family="times new roman" font-size="10px" font-style="normal" font-weight="normal" text-decoration="normal" x="950.125" y="157" text-anchor="middle" dominant-baseline="text-after-edge" fill-opacity="1">42129950A&gt;C</text><path fill="rgb(69,90,100)" stroke="rgb(76,175,80)" paint-order="fill stroke markers" d=" M 760.625 152 L 760.5710533403297 153.37303417523728 L 760.4095459604149 154.73760313820404 L 760.1414736069594 156.08529386747836 L 759.7684890351652 157.40779740156157 L 759.2928918189475 158.69696006638907 L 758.7176141732964 159.94483374544205 L 758.0462028761966 161.1437248825291 L 757.2827974015615 162.28624191511827 L 756.4321043980005 163.3653408457782 L 755.4993686707646 164.37436867076457 L 754.4903408457782 165.30710439800055 L 753.4112419151182 166.1577974015616 L 752.2687248825291 166.92120287619662 L 751.0698337454421 167.59261417329643 L 749.8219600663891 168.1678918189475 L 748.5327974015615 168.64348903516517 L 747.2102938674783 169.01647360695935 L 745.862603138204 169.2845459604149 L 744.4980341752373 169.44605334032974 L 743.125 169.5 L 741.7519658247627 169.44605334032974 L 740.387396861796 169.2845459604149 L 739.0397061325217 169.01647360695935 L 737.7172025984385 168.6434890351652 L 736.4280399336109 168.1678918189475 L 735.1801662545579 167.59261417329643 L 733.9812751174709 166.92120287619662 L 732.8387580848818 166.1577974015616 L 731.7596591542218 165.30710439800055 L 730.7506313292354 164.37436867076457 L 729.8178956019995 163.3653408457782 L 728.9672025984385 162.2862419151183 L 728.2037971238034 161.1437248825291 L 727.5323858267036 159.94483374544208 L 726.9571081810525 158.69696006638907 L 726.4815109648348 157.4077974015616 L 726.1085263930406 156.08529386747836 L 725.8404540395851 154.73760313820404 L 725.6789466596703 153.37303417523728 L 725.625 152 L 725.6789466596703 150.62696582476272 L 725.8404540395851 149.26239686179596 L 726.1085263930406 147.91470613252164 L 726.4815109648348 146.59220259843843 L 726.9571081810525 145.30303993361093 L 727.5323858267036 144.05516625455795 L 728.2037971238034 142.8562751174709 L 728.9672025984385 141.71375808488173 L 729.8178956019995 140.6346591542218 L 730.7506313292354 139.62563132923543 L 731.7596591542218 138.69289560199945 L 732.8387580848818 137.84220259843843 L 733.9812751174709 137.07879712380338 L 735.1801662545579 136.40738582670355 L 736.428039933611 135.8321081810525 L 737.7172025984385 135.3565109648348 L 739.0397061325217 134.98352639304065 L 740.387396861796 134.7154540395851 L 741.7519658247628 134.55394665967026 L 743.1250000000001 134.5 L 744.4980341752373 134.55394665967026 L 745.8626031382041 134.7154540395851 L 747.2102938674784 134.98352639304068 L 748.5327974015617 135.35651096483485 L 749.8219600663891 135.83210818105252 L 751.0698337454421 136.4073858267036 L 752.2687248825292 137.07879712380344 L 753.4112419151184 137.8422025984385 L 754.4903408457783 138.69289560199954 L 755.4993686707646 139.62563132923552 L 756.4321043980007 140.6346591542219 L 757.2827974015617 141.71375808488185 L 758.0462028761967 142.85627511747103 L 758.7176141732965 144.0551662545581 L 759.2928918189476 145.3030399336111 L 759.7684890351652 146.5922025984386 L 760.1414736069594 147.91470613252184 L 760.4095459604149 149.26239686179616 L 760.5710533403297 150.62696582476292 Z" fill-opacity="1" stroke-opacity="1" stroke-miterlimit="10" stroke-width="6"/><text fill="rgb(255,255,255)" stroke="none" font-family="times new roman" font-size="10px" font-style="normal" font-weight="normal" text-decoration="normal" x="743.125" y="157" text-anchor="middle" dominant-baseline="text-after-edge" fill-opacity="1">*1.41</text><path fill="rgb(176,190,197)" stroke="none" paint-order="stroke fill markers" d=" M 544.5625 183.87500000000003 L 544.5625 393.875 L 619.5625 393.875 L 619.5625 183.87500000000006 Z" fill-opacity="0.8"/><text fill="rgb(0,0,0)" stroke="none" font-family="times new roman" font-size="10px" font-style="normal" font-weight="normal" text-decoration="normal" x="549.5625" y="198.875" text-anchor="start" dominant-baseline="text-after-edge" fill-opacity="0.8">42126310C&gt;T </text><text fill="rgb(0,0,0)" stroke="none" font-family="times new roman" font-size="10px" font-style="normal" font-weight="normal" text-decoration="normal" x="549.5625" y="208.875" text-anchor="start" dominant-baseline="text-after-edge" fill-opacity="0.8">42127001G&gt;A </text><text fill="rgb(0,0,0)" stroke="none" font-family="times new roman" font-size="10px" font-style="normal" font-weight="normal" text-decoration="normal" x="549.5625" y="218.875" text-anchor="start" dominant-baseline="text-after-edge" fill-opacity="0.8">42127207C&gt;T </text><text fill="rgb(0,0,0)" stroke="none" font-family="times new roman" font-size="10px" font-style="normal" font-weight="normal" text-decoration="normal" x="549.5625" y="228.875" text-anchor="start" dominant-baseline="text-after-edge" fill-opacity="0.8">42129130C&gt;G </text><text fill="rgb(0,0,0)" stroke="none" font-family="times new roman" font-size="10px" font-style="normal" font-weight="normal" text-decoration="normal" x="549.5625" y="238.875" text-anchor="start" dominant-baseline="text-after-edge" fill-opacity="0.8">42129614C&gt;G </text><text fill="rgb(0,0,0)" stroke="none" font-family="times new roman" font-size="10px" font-style="normal" font-weight="normal" text-decoration="normal" x="549.5625" y="248.875" text-anchor="start" dominant-baseline="text-after-edge" fill-opacity="0.8">42129643G&gt;C </text><text fill="rgb(0,0,0)" stroke="none" font-family="times new roman" font-size="10px" font-style="normal" font-weight="normal" text-decoration="normal" x="549.5625" y="258.875" text-anchor="start" dominant-baseline="text-after-edge" fill-opacity="0.8">42131469C&gt;T </text><text fill="rgb(0,0,0)" stroke="none" font-family="times new roman" font-size="10px" font-style="normal" font-weight="normal" text-decoration="normal" x="549.5625" y="268.875" text-anchor="start" dominant-baseline="text-after-edge" fill-opacity="0.8">42131531G&gt;A </text><text fill="rgb(0,0,0)" stroke="none" font-family="times new roman" font-size="10px" font-style="normal" font-weight="normal" text-decoration="normal" x="549.5625" y="278.875" text-anchor="start" dominant-baseline="text-after-edge" fill-opacity="0.8">42132375G&gt;C </text><path fill="rgb(176,190,197)" stroke="none" paint-order="stroke fill markers" d=" M 200.875 183.875 L 267.875 183.875 L 267.875 183.875 A 8 8 0 0 1 275.875 191.875 L 275.875 385.875 L 275.875 385.875 A 8 8 0 0 1 267.875 393.875 L 133.875 393.875 L 133.875 393.875 A 8 8 0 0 1 125.875 385.875 L 125.875 191.875 L 125.875 191.875 A 8 8 0 0 1 133.875 183.875 L 200.875 183.875 Z" fill-opacity="0.8"/><text fill="rgb(0,0,0)" stroke="none" font-family="times new roman" font-size="10px" font-style="normal" font-weight="normal" text-decoration="normal" x="130.875" y="198.875" text-anchor="start" dominant-baseline="text-after-edge" fill-opacity="0.8">42125924A&gt;G </text><text fill="rgb(0,0,0)" stroke="none" font-family="times new roman" font-size="10px" font-style="normal" font-weight="normal" text-decoration="normal" x="130.875" y="208.875" text-anchor="start" dominant-baseline="text-after-edge" fill-opacity="0.8">42126069A&gt;C </text><text fill="rgb(0,0,0)" stroke="none" font-family="times new roman" font-size="10px" font-style="normal" font-weight="normal" text-decoration="normal" x="130.875" y="218.875" text-anchor="start" dominant-baseline="text-after-edge" fill-opacity="0.8">42126136_42126138del </text><text fill="rgb(0,0,0)" stroke="none" font-family="times new roman" font-size="10px" font-style="normal" font-weight="normal" text-decoration="normal" x="130.875" y="228.875" text-anchor="start" dominant-baseline="text-after-edge" fill-opacity="0.8">42132027C&gt;T </text><text fill="rgb(0,0,0)" stroke="none" font-family="times new roman" font-size="10px" font-style="normal" font-weight="normal" text-decoration="normal" x="130.875" y="238.875" text-anchor="start" dominant-baseline="text-after-edge" fill-opacity="0.8">42132561C&gt;T </text><text fill="rgb(0,0,0)" stroke="none" font-family="times new roman" font-size="10px" font-style="normal" font-weight="normal" text-decoration="normal" x="130.875" y="248.875" text-anchor="start" dominant-baseline="text-after-edge" fill-opacity="0.8">42132844C&gt;A </text><text fill="rgb(0,0,0)" stroke="none" font-family="times new roman" font-size="10px" font-style="normal" font-weight="normal" text-decoration="normal" x="130.875" y="258.875" text-anchor="start" dominant-baseline="text-after-edge" fill-opacity="0.8">42132851T&gt;C </text><text fill="rgb(0,0,0)" stroke="none" font-family="times new roman" font-size="10px" font-style="normal" font-weight="normal" text-decoration="normal" x="130.875" y="268.875" text-anchor="start" dominant-baseline="text-after-edge" fill-opacity="0.8">42133400T&gt;G </text><text fill="rgb(0,0,0)" stroke="none" font-family="times new roman" font-size="10px" font-style="normal" font-weight="normal" text-decoration="normal" x="130.875" y="278.875" text-anchor="start" dominant-baseline="text-after-edge" fill-opacity="0.8">42133533A&gt;C </text><text fill="rgb(0,0,0)" stroke="none" font-family="times new roman" font-size="10px" font-style="normal" font-weight="normal" text-decoration="normal" x="130.875" y="288.875" text-anchor="start" dominant-baseline="text-after-edge" fill-opacity="0.8">42134096del </text><text fill="rgb(0,0,0)" stroke="none" font-family="times new roman" font-size="10px" font-style="normal" font-weight="normal" text-decoration="normal" x="130.875" y="298.875" text-anchor="start" dominant-baseline="text-after-edge" fill-opacity="0.8">42134820T&gt;G </text><text fill="rgb(0,0,0)" stroke="none" font-family="times new roman" font-size="10px" font-style="normal" font-weight="normal" text-decoration="normal" x="130.875" y="308.875" text-anchor="start" dominant-baseline="text-after-edge" fill-opacity="0.8">42135064_42135066dup </text><text fill="rgb(0,0,0)" stroke="none" font-family="times new roman" font-size="10px" font-style="normal" font-weight="normal" text-decoration="normal" x="130.875" y="318.875" text-anchor="start" dominant-baseline="text-after-edge" fill-opacity="0.8">42135201T&gt;C </text><text fill="rgb(0,0,0)" stroke="none" font-family="times new roman" font-size="10px" font-style="normal" font-weight="normal" text-decoration="normal" x="130.875" y="328.875" text-anchor="start" dominant-baseline="text-after-edge" fill-opacity="0.8">42135691T&gt;C </text><g transform="scale(0.9161442006269591,0.9161442006269591) translate(106.30496150556041,-32.75449101796403)"/></g></svg>