<svg version="1.1" xmlns="http://www.w3.org/2000/svg" xmlns:xlink="http://www.w3.org/1999/xlink" width="1017" height="608"><defs/><g transform="translate(-115.27013907110995,64.60351613749671) scale(0.6696405143007085,0.6696405143007085)"><path fill="none" stroke="rgb(120,144,156)" paint-order="fill stroke markers" d=" M 367.9375 493.6500399573788 L 962.6177215879135 604.8555582191569" stroke-opacity="1" stroke-linejoin="round" stroke-miterlimit="10"/><path fill="rgb(120,144,156)" stroke="none" paint-order="stroke fill markers" d=" M 955.232290980451 607.8998832251898 L 964.583643588971 605.2231866807292 L 956.8314747882905 599.3481225205896 Z" fill-opacity="1"/><path fill="none" stroke="rgb(120,144,156)" paint-order="fill stroke markers" d=" M 716.7716584158416 192.25 L 712.6984016622766 229.6499029190964" stroke-opacity="1" stroke-linejoin="round" stroke-miterlimit="10"/><path fill="rgb(120,144,156)" stroke="none" paint-order="stroke fill markers" d=" M 709.0993867146422 222.5183118338824 L 712.4818603554314 231.63814582740255 L 717.748243365774 223.46026651865907 Z" fill-opacity="1"/><path fill="none" stroke="rgb(120,144,156)" paint-order="fill stroke markers" d=" M 450.27542650918633 347.75 L 976.8844177364695 474.8165140326756" stroke-opacity="1" stroke-linejoin="round" stroke-miterlimit="10"/><path fill="rgb(120,144,156)" stroke="none" paint-order="stroke fill markers" d=" M 969.3509999255662 477.4736019285432 L 978.8286208841309 475.2856346148536 L 971.3916744580404 469.01631823621557 Z" fill-opacity="1"/><path fill="none" stroke="rgb(120,144,156)" paint-order="fill stroke markers" d=" M 553.4217519685039 347.75 L 977.1631842767822 473.78082412916" stroke-opacity="1" stroke-linejoin="round" stroke-miterlimit="10"/><path fill="rgb(120,144,156)" stroke="none" paint-order="stroke fill markers" d=" M 969.5011071848937 476.0402653516659 L 979.0801906888034 474.3509876287542 L 971.9813184081283 467.7012874593735 Z" fill-opacity="1"/><path fill="none" stroke="rgb(55,71,79)" paint-order="fill stroke markers" d=" M 574.1125 122.15 L 601.6375 158.85" stroke-opacity="1" stroke-linejoin="round" stroke-miterlimit="10" stroke-width="2"/><path fill="none" stroke="rgb(120,144,156)" paint-order="fill stroke markers" d=" M 636.7088836720634 195.35411089418062 L 690.1661163279367 238.89588910581938" stroke-opacity="1" stroke-linejoin="round" stroke-miterlimit="10"/><path fill="rgb(120,144,156)" stroke="none" paint-order="stroke fill markers" d=" M 682.2241103282304 238.0373783600337 L 691.7168130865299 240.15895662693157 L 687.7184540450685 231.29184746015326 Z" fill-opacity="1"/><path fill="none" stroke="rgb(120,144,156)" paint-order="fill stroke markers" d=" M 1463.84057409044 267.93608265565643 L 1530.9829064861024 322.5518604998893" stroke-opacity="1" stroke-linejoin="round" stroke-miterlimit="10"/><path fill="rgb(120,144,156)" stroke="none" paint-order="stroke fill markers" d=" M 1523.0403427808315 321.69852481698763 L 1532.53442590956 323.81391734434357 L 1528.5302900542076 314.9494153249472 Z" fill-opacity="1"/><path fill="none" stroke="rgb(120,144,156)" paint-order="fill stroke markers" d=" M 638.9331942600263 345.02281294478774 L 977.6247667093387 472.4082908353979" stroke-opacity="1" stroke-linejoin="round" stroke-miterlimit="10"/><path fill="rgb(120,144,156)" stroke="none" paint-order="stroke fill markers" d=" M 969.8223033964875 474.1212024652292 L 979.4967406889155 473.11236002218834 L 972.885004359026 465.97811565407056 Z" fill-opacity="1"/><path fill="none" stroke="rgb(120,144,156)" paint-order="fill stroke markers" d=" M 738.946686351706 347.75 L 978.5607957721572 470.2909069653583" stroke-opacity="1" stroke-linejoin="round" stroke-miterlimit="10"/><path fill="rgb(120,144,156)" stroke="none" paint-order="stroke fill markers" d=" M 970.6149556244872 471.1131747731152 L 980.3414498431663 471.20155018825017 L 974.5762536440668 463.3673295642258 Z" fill-opacity="1"/><path fill="none" stroke="rgb(120,144,156)" paint-order="fill stroke markers" d=" M 842.0930118110236 347.75 L 981.2108432131337 466.32694354408034" stroke-opacity="1" stroke-linejoin="round" stroke-miterlimit="10"/><path fill="rgb(120,144,156)" stroke="none" paint-order="stroke fill markers" d=" M 973.2899824299504 465.2913449474075 L 982.7329560703889 467.62431490563347 L 978.9335478527066 458.67015401834715 Z" fill-opacity="1"/><path fill="none" stroke="rgb(55,71,79)" paint-order="fill stroke markers" d=" M 662.3125 118.75 L 632.2375 158.85" stroke-opacity="1" stroke-linejoin="round" stroke-miterlimit="10" stroke-width="2"/><path fill="none" stroke="rgb(120,144,156)" paint-order="fill stroke markers" d=" M 1065.6519495412845 268 L 1234.0359894208523 329.0777382591443" stroke-opacity="1" stroke-linejoin="round" stroke-miterlimit="10"/><path fill="rgb(120,144,156)" stroke="none" paint-order="stroke fill markers" d=" M 1226.254235667385 330.88240125272483 L 1235.9161236945542 329.75971708055374 L 1229.220843540516 322.70381716212097 Z" fill-opacity="1"/><path fill="none" stroke="rgb(120,144,156)" paint-order="fill stroke markers" d=" M 945.2393372703413 347.75 L 989.3460922962887 460.53304473077833" stroke-opacity="1" stroke-linejoin="round" stroke-miterlimit="10"/><path fill="rgb(120,144,156)" stroke="none" paint-order="stroke fill markers" d=" M 982.8546319530701 455.87757025308855 L 990.074522316163 462.39567451314144 L 990.9570715063496 452.7088996666355 Z" fill-opacity="1"/><path fill="none" stroke="rgb(120,144,156)" paint-order="fill stroke markers" d=" M 1048.3856627296589 347.75 L 1004.2789077037113 460.53304473077833" stroke-opacity="1" stroke-linejoin="round" stroke-miterlimit="10"/><path fill="rgb(120,144,156)" stroke="none" paint-order="stroke fill markers" d=" M 1002.6679284936504 452.7088996666355 L 1003.550477683837 462.39567451314144 L 1010.7703680469299 455.87757025308855 Z" fill-opacity="1"/><path fill="none" stroke="rgb(120,144,156)" paint-order="fill stroke markers" d=" M 541.5877361490008 270.5151269374281 L 597.7851160936375 319.91443672747164" stroke-opacity="1" stroke-linejoin="round" stroke-miterlimit="10"/><path fill="rgb(120,144,156)" stroke="none" paint-order="stroke fill markers" d=" M 589.8809720776325 318.7581463771476 L 599.2872638509992 321.2348730625719 L 595.6248701353186 312.2238036326239 Z" fill-opacity="1"/><path fill="none" stroke="rgb(120,144,156)" paint-order="fill stroke markers" d=" M 444.99496099807976 193.6677196985081 L 503.8006806191049 239.3552403271508" stroke-opacity="1" stroke-linejoin="round" stroke-miterlimit="10"/><path fill="rgb(120,144,156)" stroke="none" paint-order="stroke fill markers" d=" M 495.84101809248176 238.6797608957313 L 505.38003900192024 240.5822803014919 L 501.1786419808656 231.80955193048476 Z" fill-opacity="1"/><path fill="none" stroke="rgb(120,144,156)" paint-order="fill stroke markers" d=" M 292.9375 347.75 L 292.9375 372.625" stroke-opacity="1" stroke-linejoin="round" stroke-miterlimit="10"/><path fill="rgb(120,144,156)" stroke="none" paint-order="stroke fill markers" d=" M 288.5875 365.925 L 292.9375 374.625 L 297.2875 365.925 Z" fill-opacity="1"/><path fill="none" stroke="rgb(120,144,156)" paint-order="fill stroke markers" d=" M 1151.5319881889764 347.75 L 1012.4141567868663 466.32694354408034" stroke-opacity="1" stroke-linejoin="round" stroke-miterlimit="10"/><path fill="rgb(120,144,156)" stroke="none" paint-order="stroke fill markers" d=" M 1014.6914521472934 458.67015401834715 L 1010.8920439296111 467.62431490563347 L 1020.3350175700496 465.2913449474075 Z" fill-opacity="1"/><path fill="none" stroke="rgb(120,144,156)" paint-order="fill stroke markers" d=" M 1339.7058486238532 268 L 1272.6420935138976 322.5518604998893" stroke-opacity="1" stroke-linejoin="round" stroke-miterlimit="10"/><path fill="rgb(120,144,156)" stroke="none" paint-order="stroke fill markers" d=" M 1275.0947099457924 314.9494153249472 L 1271.09057409044 323.81391734434357 L 1280.5846572191685 321.69852481698763 Z" fill-opacity="1"/><path fill="none" stroke="rgb(55,71,79)" paint-order="fill stroke markers" d=" M 1447.9375 192.25 L 1447.9375 234.5" stroke-opacity="1" stroke-linejoin="round" stroke-miterlimit="10" stroke-width="2"/><path fill="none" stroke="rgb(120,144,156)" paint-order="fill stroke markers" d=" M 1237.2476598022804 346.6702889917724 L 1014.7523401977196 469.7047110082276" stroke-opacity="1" stroke-linejoin="round" stroke-miterlimit="10"/><path fill="rgb(120,144,156)" stroke="none" paint-order="stroke fill markers" d=" M 1018.5105681104276 462.65572363725414 L 1013.002111885747 470.6725440805956 L 1022.7206419752285 470.26921679433514 Z" fill-opacity="1"/><path fill="none" stroke="rgb(120,144,156)" paint-order="fill stroke markers" d=" M 996.8125 498.125 L 996.8125 590.75" stroke-opacity="1" stroke-linejoin="round" stroke-miterlimit="10"/><path fill="rgb(120,144,156)" stroke="none" paint-order="stroke fill markers" d=" M 992.4625 584.05 L 996.8125 592.75 L 1001.1625 584.05 Z" fill-opacity="1"/><path fill="none" stroke="rgb(120,144,156)" paint-order="fill stroke markers" d=" M 1319.0582349081365 347.75 L 1015.785238594829 471.8606461819228" stroke-opacity="1" stroke-linejoin="round" stroke-miterlimit="10"/><path fill="rgb(120,144,156)" stroke="none" paint-order="stroke fill markers" d=" M 1020.338526861986 465.29710552491684 L 1013.9342397075286 472.61814411539376 L 1023.6336428725846 473.3489506846735 Z" fill-opacity="1"/><path fill="none" stroke="rgb(120,144,156)" paint-order="fill stroke markers" d=" M 1422.2045603674542 347.75 L 1016.3931801264291 473.5548298387555" stroke-opacity="1" stroke-linejoin="round" stroke-miterlimit="10"/><path fill="rgb(120,144,156)" stroke="none" paint-order="stroke fill markers" d=" M 1021.5046589871931 467.41599575922845 L 1014.4828698701922 474.14704156180375 L 1024.0807799824531 475.72584537385933 Z" fill-opacity="1"/><path fill="none" stroke="rgb(55,71,79)" paint-order="fill stroke markers" d=" M 773.2002762392394 121.05830182624753 L 799.4922166690743 159.80431930179367" stroke-opacity="1" stroke-linejoin="round" stroke-miterlimit="10" stroke-width="2"/><path fill="none" stroke="rgb(120,144,156)" paint-order="fill stroke markers" d=" M 793.7721587039 193.19488664894965 L 730.4626575766191 239.86831448730996" stroke-opacity="1" stroke-linejoin="round" stroke-miterlimit="10"/><path fill="rgb(120,144,156)" stroke="none" paint-order="stroke fill markers" d=" M 733.2742545877229 232.3911878836505 L 728.8528412961 241.05511335105035 L 738.4368296449936 239.3938887039088 Z" fill-opacity="1"/><path fill="none" stroke="rgb(55,71,79)" paint-order="fill stroke markers" d=" M 391.41359548347265 121.56356903160199 L 414.24151384531854 159.16249339228938" stroke-opacity="1" stroke-linejoin="round" stroke-miterlimit="10" stroke-width="2"/><path fill="none" stroke="rgb(120,144,156)" paint-order="fill stroke markers" d=" M 1040.3125 540.5625 L 1009.2453102359441 591.046683366591" stroke-opacity="1" stroke-linejoin="round" stroke-miterlimit="10"/><path fill="rgb(120,144,156)" stroke="none" paint-order="stroke fill markers" d=" M 1009.0520493102304 583.0607488430306 L 1008.1971153846154 592.75 L 1016.4614766655599 587.6203964463103 Z" fill-opacity="1"/><path fill="none" stroke="rgb(120,144,156)" paint-order="fill stroke markers" d=" M 1587.227637614679 268 L 1559.4939751465715 317.1539708784344" stroke-opacity="1" stroke-linejoin="round" stroke-miterlimit="10"/><path fill="rgb(120,144,156)" stroke="none" paint-order="stroke fill markers" d=" M 1558.9977821156033 309.18112367834215 L 1558.511177355765 318.89584013368466 L 1566.574913375942 313.45629406834973 Z" fill-opacity="1"/><path fill="none" stroke="rgb(55,71,79)" paint-order="fill stroke markers" d=" M 850.6339285714286 116.75 L 824.8834861546815 159.16249339228938" stroke-opacity="1" stroke-linejoin="round" stroke-miterlimit="10" stroke-width="2"/><path fill="none" stroke="rgb(120,144,156)" paint-order="fill stroke markers" d=" M 1528.5923503035453 341.89004217154945 L 1016.6576496964547 474.4849578284506" stroke-opacity="1" stroke-linejoin="round" stroke-miterlimit="10"/><path fill="rgb(120,144,156)" stroke="none" paint-order="stroke fill markers" d=" M 1022.0529335754793 468.5939976465502 L 1014.7215375309469 474.98642535738225 L 1024.234317326332 477.01608556650893 Z" fill-opacity="1"/><path fill="none" stroke="rgb(120,144,156)" paint-order="fill stroke markers" d=" M 597.1661163279366 195.35411089418062 L 543.7088836720633 238.89588910581938" stroke-opacity="1" stroke-linejoin="round" stroke-miterlimit="10"/><path fill="rgb(120,144,156)" stroke="none" paint-order="stroke fill markers" d=" M 546.1565459549315 231.29184746015326 L 542.1581869134701 240.15895662693157 L 551.6508896717696 238.0373783600337 Z" fill-opacity="1"/><path fill="none" stroke="rgb(120,144,156)" paint-order="fill stroke markers" d=" M 616.9375 266 L 616.9375 311.25" stroke-opacity="1" stroke-linejoin="round" stroke-miterlimit="10"/><path fill="rgb(120,144,156)" stroke="none" paint-order="stroke fill markers" d=" M 612.5875 304.55 L 616.9375 313.25 L 621.2875 304.55 Z" fill-opacity="1"/><path fill="none" stroke="rgb(120,144,156)" paint-order="fill stroke markers" d=" M 692.2872638509992 270.5151269374281 L 636.0898839063625 319.91443672747164" stroke-opacity="1" stroke-linejoin="round" stroke-miterlimit="10"/><path fill="rgb(120,144,156)" stroke="none" paint-order="stroke fill markers" d=" M 638.2501298646814 312.2238036326239 L 634.5877361490008 321.2348730625719 L 643.9940279223675 318.7581463771476 Z" fill-opacity="1"/><path fill="none" stroke="rgb(55,71,79)" paint-order="fill stroke markers" d=" M 464.38392857142856 116.75 L 438.63348615468146 159.16249339228938" stroke-opacity="1" stroke-linejoin="round" stroke-miterlimit="10" stroke-width="2"/><path fill="none" stroke="rgb(55,71,79)" paint-order="fill stroke markers" d=" M 517.6905070883183 197.64124690183203 L 521.3931396445686 231.63814582740255" stroke-opacity="1" stroke-linejoin="round" stroke-miterlimit="10" stroke-width="2"/><path fill="rgb(69,90,100)" stroke="rgb(255,193,7)" paint-order="fill stroke markers" d=" M 639.4375 336.75 L 639.3681400089954 338.5153296538765 L 639.1604876633907 340.2697754634052 L 638.8158232089477 342.00252068675786 L 638.3362716166409 343.7028823734363 L 637.724789481504 345.36037722821453 L 636.9851467942383 346.9647862441398 L 636.1219036979671 348.5062177061088 L 635.1403823734363 349.97516817658067 L 634.0466342260007 351.36258108742913 L 632.8474025766973 352.65990257669733 L 631.5500810874291 353.8591342260007 L 630.1626681765806 354.9528823734363 L 628.6937177061088 355.93440369796707 L 627.1522862441398 356.7976467942383 L 625.5478772282145 357.53728948150393 L 623.8903823734363 358.14877161664094 L 622.1900206867579 358.62832320894773 L 620.4572754634052 358.9729876633906 L 618.7028296538765 359.1806400089954 L 616.9375 359.25 L 615.1721703461235 359.1806400089954 L 613.4177245365948 358.9729876633906 L 611.6849793132421 358.62832320894773 L 609.9846176265637 358.14877161664094 L 608.3271227717855 357.53728948150393 L 606.7227137558602 356.7976467942383 L 605.1812822938912 355.93440369796707 L 603.7123318234194 354.9528823734363 L 602.3249189125709 353.8591342260007 L 601.0275974233027 352.65990257669733 L 599.8283657739993 351.36258108742913 L 598.7346176265637 349.97516817658067 L 597.7530963020329 348.5062177061088 L 596.8898532057617 346.9647862441398 L 596.150210518496 345.36037722821453 L 595.5387283833591 343.7028823734363 L 595.0591767910523 342.00252068675786 L 594.7145123366095 340.2697754634052 L 594.5068599910046 338.5153296538765 L 594.4375 336.75 L 594.5068599910046 334.9846703461235 L 594.7145123366093 333.2302245365948 L 595.0591767910523 331.49747931324214 L 595.5387283833591 329.7971176265637 L 596.150210518496 328.13962277178547 L 596.8898532057617 326.5352137558602 L 597.7530963020329 324.9937822938912 L 598.7346176265637 323.52483182341933 L 599.8283657739993 322.13741891257087 L 601.0275974233027 320.84009742330267 L 602.3249189125709 319.64086577399934 L 603.7123318234194 318.5471176265637 L 605.1812822938912 317.56559630203293 L 606.7227137558602 316.7023532057617 L 608.3271227717855 315.962710518496 L 609.9846176265637 315.35122838335906 L 611.6849793132421 314.87167679105227 L 613.4177245365948 314.5270123366094 L 615.1721703461236 314.3193599910046 L 616.9375000000001 314.25 L 618.7028296538766 314.3193599910046 L 620.4572754634053 314.5270123366094 L 622.190020686758 314.8716767910523 L 623.8903823734364 315.35122838335906 L 625.5478772282146 315.9627105184961 L 627.1522862441399 316.70235320576177 L 628.6937177061089 317.565596302033 L 630.1626681765807 318.54711762656376 L 631.5500810874292 319.6408657739994 L 632.8474025766974 320.8400974233028 L 634.0466342260008 322.137418912571 L 635.1403823734364 323.5248318234195 L 636.1219036979671 324.99378229389134 L 636.9851467942384 326.5352137558604 L 637.724789481504 328.1396227717857 L 638.336271616641 329.79711762656393 L 638.8158232089478 331.49747931324237 L 639.1604876633907 333.2302245365951 L 639.3681400089954 334.9846703461238 Z" fill-opacity="1" stroke-opacity="1" stroke-miterlimit="10" stroke-width="2"/><text fill="rgb(255,255,255)" stroke="none" font-family="times new roman" font-size="15px" font-style="normal" font-weight="normal" text-decoration="normal" x="616.9375" y="344.25" text-anchor="middle" dominant-baseline="text-after-edge" fill-opacity="1">*29</text><path fill="rgb(3,169,244)" stroke="none" paint-order="stroke fill markers" d=" M 616.9375 304.25 L 641.4375 304.25 L 641.4375 304.25 A 8 8 0 0 1 649.4375 312.25 L 649.4375 361.25 L 649.4375 361.25 A 8 8 0 0 1 641.4375 369.25 L 592.4375 369.25 L 592.4375 369.25 A 8 8 0 0 1 584.4375 361.25 L 584.4375 312.25 L 584.4375 312.25 A 8 8 0 0 1 592.4375 304.25 L 616.9375 304.25 Z" fill-opacity="0.15"/><path fill="rgb(69,90,100)" stroke="rgb(76,175,80)" paint-order="fill stroke markers" d=" M 670.6875 169.25 L 670.6875 189.25 L 765.6875 189.25 L 765.6875 169.25 Z" fill-opacity="1" stroke-opacity="1" stroke-miterlimit="10" stroke-width="6"/><text fill="rgb(255,255,255)" stroke="none" font-family="times new roman" font-size="10px" font-style="normal" font-weight="normal" text-decoration="normal" x="718.1875" y="184.25" text-anchor="middle" dominant-baseline="text-after-edge" fill-opacity="1">42129130C&gt;G</text><path fill="rgb(69,90,100)" stroke="rgb(76,175,80)" paint-order="fill stroke markers" d=" M 1410.1875 326.75 L 1410.1875 346.75 L 1505.1875 346.75 L 1505.1875 326.75 Z" fill-opacity="1" stroke-opacity="1" stroke-miterlimit="10" stroke-width="2"/><text fill="rgb(255,255,255)" stroke="none" font-family="times new roman" font-size="10px" font-style="normal" font-weight="normal" text-decoration="normal" x="1457.6875" y="341.75" text-anchor="middle" dominant-baseline="text-after-edge" fill-opacity="1">42131531G&gt;A</text><path fill="rgb(69,90,100)" stroke="rgb(76,175,80)" paint-order="fill stroke markers" d=" M 893.4375 326.75 L 893.4375 346.75 L 988.4375 346.75 L 988.4375 326.75 Z" fill-opacity="1" stroke-opacity="1" stroke-miterlimit="10" stroke-width="2"/><text fill="rgb(255,255,255)" stroke="none" font-family="times new roman" font-size="10px" font-style="normal" font-weight="normal" text-decoration="normal" x="940.9375" y="341.75" text-anchor="middle" dominant-baseline="text-after-edge" fill-opacity="1">42132209A&gt;T</text><path fill="rgb(69,90,100)" stroke="rgb(76,175,80)" paint-order="fill stroke markers" d=" M 468.9375 326.75 L 468.9375 346.75 L 563.9375 346.75 L 563.9375 326.75 Z" fill-opacity="1" stroke-opacity="1" stroke-miterlimit="10" stroke-width="2"/><text fill="rgb(255,255,255)" stroke="none" font-family="times new roman" font-size="10px" font-style="normal" font-weight="normal" text-decoration="normal" x="516.4375" y="341.75" text-anchor="middle" dominant-baseline="text-after-edge" fill-opacity="1">42128668G&gt;A</text><path fill="rgb(69,90,100)" stroke="rgb(255,193,7)" paint-order="fill stroke markers" d=" M 1014.3125 479.625 L 1014.2585533403297 480.9980341752373 L 1014.0970459604149 482.36260313820407 L 1013.8289736069594 483.71029386747836 L 1013.4559890351652 485.0327974015616 L 1012.9803918189475 486.32196006638907 L 1012.4051141732964 487.56983374544205 L 1011.7337028761966 488.7687248825291 L 1010.9702974015615 489.9112419151183 L 1010.1196043980005 490.99034084577823 L 1009.1868686707646 491.99936867076457 L 1008.1778408457782 492.93210439800055 L 1007.0987419151182 493.7827974015616 L 1005.9562248825291 494.5462028761966 L 1004.7573337454421 495.21761417329645 L 1003.5094600663891 495.7928918189475 L 1002.2202974015615 496.2684890351652 L 1000.8977938674783 496.6414736069593 L 999.550103138204 496.9095459604149 L 998.1855341752373 497.07105334032974 L 996.8125 497.125 L 995.4394658247627 497.07105334032974 L 994.074896861796 496.9095459604149 L 992.7272061325217 496.6414736069593 L 991.4047025984385 496.2684890351652 L 990.1155399336109 495.7928918189475 L 988.8676662545579 495.21761417329645 L 987.6687751174709 494.5462028761966 L 986.5262580848818 493.7827974015616 L 985.4471591542218 492.93210439800055 L 984.4381313292354 491.99936867076457 L 983.5053956019995 490.99034084577823 L 982.6547025984385 489.9112419151183 L 981.8912971238034 488.7687248825291 L 981.2198858267036 487.56983374544205 L 980.6446081810525 486.32196006638907 L 980.1690109648348 485.0327974015616 L 979.7960263930406 483.71029386747836 L 979.5279540395851 482.36260313820407 L 979.3664466596703 480.9980341752373 L 979.3125 479.625 L 979.3664466596703 478.2519658247627 L 979.5279540395851 476.88739686179593 L 979.7960263930406 475.53970613252164 L 980.1690109648348 474.2172025984384 L 980.6446081810525 472.92803993361093 L 981.2198858267036 471.68016625455795 L 981.8912971238034 470.4812751174709 L 982.6547025984385 469.3387580848817 L 983.5053956019995 468.25965915422177 L 984.4381313292354 467.25063132923543 L 985.4471591542218 466.31789560199945 L 986.5262580848818 465.4672025984384 L 987.6687751174709 464.7037971238034 L 988.8676662545579 464.03238582670355 L 990.115539933611 463.4571081810525 L 991.4047025984385 462.9815109648348 L 992.7272061325217 462.6085263930407 L 994.074896861796 462.3404540395851 L 995.4394658247628 462.17894665967026 L 996.8125000000001 462.125 L 998.1855341752373 462.17894665967026 L 999.5501031382041 462.3404540395851 L 1000.8977938674784 462.6085263930407 L 1002.2202974015617 462.98151096483485 L 1003.5094600663891 463.4571081810525 L 1004.7573337454421 464.0323858267036 L 1005.9562248825292 464.70379712380344 L 1007.0987419151184 465.4672025984385 L 1008.1778408457783 466.31789560199957 L 1009.1868686707646 467.2506313292355 L 1010.1196043980007 468.2596591542219 L 1010.9702974015617 469.3387580848818 L 1011.7337028761967 470.48127511747106 L 1012.4051141732965 471.68016625455806 L 1012.9803918189476 472.9280399336111 L 1013.4559890351652 474.2172025984386 L 1013.8289736069594 475.5397061325218 L 1014.0970459604149 476.88739686179616 L 1014.2585533403297 478.2519658247629 Z" fill-opacity="1" stroke-opacity="1" stroke-miterlimit="10" stroke-width="2"/><text fill="rgb(255,255,255)" stroke="none" font-family="times new roman" font-size="10px" font-style="normal" font-weight="normal" text-decoration="normal" x="996.8125" y="484.625" text-anchor="middle" dominant-baseline="text-after-edge" fill-opacity="1">*29.1</text><path fill="rgb(69,90,100)" stroke="rgb(76,175,80)" paint-order="fill stroke markers" d=" M 781.6875 326.75 L 781.6875 346.75 L 876.6875 346.75 L 876.6875 326.75 Z" fill-opacity="1" stroke-opacity="1" stroke-miterlimit="10" stroke-width="2"/><text fill="rgb(255,255,255)" stroke="none" font-family="times new roman" font-size="10px" font-style="normal" font-weight="normal" text-decoration="normal" x="829.1875" y="341.75" text-anchor="middle" dominant-baseline="text-after-edge" fill-opacity="1">42130052del</text><path fill="rgb(69,90,100)" stroke="rgb(76,175,80)" paint-order="fill stroke markers" d=" M 639.4375 179.25 L 639.3681400089954 181.0153296538765 L 639.1604876633907 182.76977546340518 L 638.8158232089477 184.50252068675786 L 638.3362716166409 186.20288237343632 L 637.724789481504 187.86037722821453 L 636.9851467942383 189.46478624413982 L 636.1219036979671 191.00621770610886 L 635.1403823734363 192.47516817658064 L 634.0466342260007 193.86258108742913 L 632.8474025766973 195.1599025766973 L 631.5500810874291 196.3591342260007 L 630.1626681765806 197.45288237343632 L 628.6937177061088 198.43440369796707 L 627.1522862441398 199.2976467942383 L 625.5478772282145 200.03728948150396 L 623.8903823734363 200.64877161664094 L 622.1900206867579 201.12832320894773 L 620.4572754634052 201.4729876633906 L 618.7028296538765 201.68064000899537 L 616.9375 201.75 L 615.1721703461235 201.68064000899537 L 613.4177245365948 201.4729876633906 L 611.6849793132421 201.12832320894773 L 609.9846176265637 200.64877161664094 L 608.3271227717855 200.03728948150396 L 606.7227137558602 199.2976467942383 L 605.1812822938912 198.43440369796707 L 603.7123318234194 197.45288237343632 L 602.3249189125709 196.3591342260007 L 601.0275974233027 195.15990257669733 L 599.8283657739993 193.86258108742913 L 598.7346176265637 192.47516817658064 L 597.7530963020329 191.00621770610886 L 596.8898532057617 189.46478624413982 L 596.150210518496 187.86037722821453 L 595.5387283833591 186.20288237343632 L 595.0591767910523 184.50252068675786 L 594.7145123366095 182.7697754634052 L 594.5068599910046 181.0153296538765 L 594.4375 179.25 L 594.5068599910046 177.4846703461235 L 594.7145123366093 175.73022453659482 L 595.0591767910523 173.99747931324214 L 595.5387283833591 172.29711762656368 L 596.150210518496 170.63962277178547 L 596.8898532057617 169.0352137558602 L 597.7530963020329 167.49378229389114 L 598.7346176265637 166.02483182341936 L 599.8283657739993 164.63741891257087 L 601.0275974233027 163.3400974233027 L 602.3249189125709 162.1408657739993 L 603.7123318234194 161.04711762656368 L 605.1812822938912 160.06559630203293 L 606.7227137558602 159.2023532057617 L 608.3271227717855 158.46271051849604 L 609.9846176265637 157.85122838335903 L 611.6849793132421 157.37167679105227 L 613.4177245365948 157.0270123366094 L 615.1721703461236 156.8193599910046 L 616.9375000000001 156.75 L 618.7028296538766 156.81935999100463 L 620.4572754634053 157.0270123366094 L 622.190020686758 157.3716767910523 L 623.8903823734364 157.85122838335909 L 625.5478772282146 158.4627105184961 L 627.1522862441399 159.2023532057618 L 628.6937177061089 160.065596302033 L 630.1626681765807 161.04711762656376 L 631.5500810874292 162.14086577399942 L 632.8474025766974 163.3400974233028 L 634.0466342260008 164.637418912571 L 635.1403823734364 166.0248318234195 L 636.1219036979671 167.49378229389131 L 636.9851467942384 169.03521375586038 L 637.724789481504 170.6396227717857 L 638.336271616641 172.2971176265639 L 638.8158232089478 173.99747931324237 L 639.1604876633907 175.73022453659505 L 639.3681400089954 177.48467034612375 Z" fill-opacity="1" stroke-opacity="1" stroke-miterlimit="10" stroke-width="6"/><text fill="rgb(255,255,255)" stroke="none" font-family="times new roman" font-size="15px" font-style="normal" font-weight="normal" text-decoration="normal" x="616.9375" y="186.75" text-anchor="middle" dominant-baseline="text-after-edge" fill-opacity="1">*39</text><path fill="rgb(69,90,100)" stroke="rgb(76,175,80)" paint-order="fill stroke markers" d=" M 1400.4375 169.25 L 1400.4375 189.25 L 1495.4375 189.25 L 1495.4375 169.25 Z" fill-opacity="1" stroke-opacity="1" stroke-miterlimit="10" stroke-width="6"/><text fill="rgb(255,255,255)" stroke="none" font-family="times new roman" font-size="10px" font-style="normal" font-weight="normal" text-decoration="normal" x="1447.9375" y="184.25" text-anchor="middle" dominant-baseline="text-after-edge" fill-opacity="1">42127407T&gt;G</text><path fill="rgb(69,90,100)" stroke="rgb(255,193,7)" paint-order="fill stroke markers" d=" M 624.5625 95.75 L 624.5625 115.75 L 719.5625 115.75 L 719.5625 95.75 Z" fill-opacity="1" stroke-opacity="1" stroke-miterlimit="10" stroke-width="6"/><text fill="rgb(255,255,255)" stroke="none" font-family="times new roman" font-size="10px" font-style="normal" font-weight="normal" text-decoration="normal" x="672.0625" y="110.75" text-anchor="middle" dominant-baseline="text-after-edge" fill-opacity="1">42126611C&gt;G</text><path fill="rgb(69,90,100)" stroke="rgb(224,224,224)" paint-order="fill stroke markers" d=" M 732.4375 255 L 732.3681400089954 256.7653296538765 L 732.1604876633907 258.5197754634052 L 731.8158232089477 260.25252068675786 L 731.3362716166409 261.9528823734363 L 730.724789481504 263.61037722821453 L 729.9851467942383 265.2147862441398 L 729.1219036979671 266.7562177061088 L 728.1403823734363 268.22516817658067 L 727.0466342260007 269.61258108742913 L 725.8474025766973 270.90990257669733 L 724.5500810874291 272.1091342260007 L 723.1626681765806 273.2028823734363 L 721.6937177061088 274.18440369796707 L 720.1522862441398 275.0476467942383 L 718.5478772282145 275.78728948150393 L 716.8903823734363 276.39877161664094 L 715.1900206867579 276.87832320894773 L 713.4572754634052 277.2229876633906 L 711.7028296538765 277.4306400089954 L 709.9375 277.5 L 708.1721703461235 277.4306400089954 L 706.4177245365948 277.2229876633906 L 704.6849793132421 276.87832320894773 L 702.9846176265637 276.39877161664094 L 701.3271227717855 275.78728948150393 L 699.7227137558602 275.0476467942383 L 698.1812822938912 274.18440369796707 L 696.7123318234194 273.2028823734363 L 695.3249189125709 272.1091342260007 L 694.0275974233027 270.90990257669733 L 692.8283657739993 269.61258108742913 L 691.7346176265637 268.22516817658067 L 690.7530963020329 266.7562177061088 L 689.8898532057617 265.2147862441398 L 689.150210518496 263.61037722821453 L 688.5387283833591 261.9528823734363 L 688.0591767910523 260.25252068675786 L 687.7145123366095 258.5197754634052 L 687.5068599910046 256.7653296538765 L 687.4375 255 L 687.5068599910046 253.2346703461235 L 687.7145123366093 251.48022453659482 L 688.0591767910523 249.74747931324214 L 688.5387283833591 248.04711762656368 L 689.150210518496 246.38962277178547 L 689.8898532057617 244.7852137558602 L 690.7530963020329 243.24378229389114 L 691.7346176265637 241.77483182341936 L 692.8283657739993 240.38741891257087 L 694.0275974233027 239.0900974233027 L 695.3249189125709 237.8908657739993 L 696.7123318234194 236.79711762656368 L 698.1812822938912 235.81559630203293 L 699.7227137558602 234.9523532057617 L 701.3271227717855 234.21271051849604 L 702.9846176265637 233.60122838335903 L 704.6849793132421 233.12167679105227 L 706.4177245365948 232.7770123366094 L 708.1721703461236 232.5693599910046 L 709.9375000000001 232.5 L 711.7028296538766 232.56935999100463 L 713.4572754634053 232.7770123366094 L 715.190020686758 233.1216767910523 L 716.8903823734364 233.60122838335909 L 718.5478772282146 234.2127105184961 L 720.1522862441399 234.9523532057618 L 721.6937177061089 235.815596302033 L 723.1626681765807 236.79711762656376 L 724.5500810874292 237.89086577399942 L 725.8474025766974 239.0900974233028 L 727.0466342260008 240.387418912571 L 728.1403823734364 241.7748318234195 L 729.1219036979671 243.24378229389131 L 729.9851467942384 244.78521375586038 L 730.724789481504 246.3896227717857 L 731.336271616641 248.0471176265639 L 731.8158232089478 249.74747931324237 L 732.1604876633907 251.48022453659505 L 732.3681400089954 253.23467034612375 Z" fill-opacity="1" stroke-opacity="1" stroke-miterlimit="10" stroke-width="2"/><text fill="rgb(255,255,255)" stroke="none" font-family="times new roman" font-size="15px" font-style="normal" font-weight="normal" text-decoration="normal" x="709.9375" y="262.5" text-anchor="middle" dominant-baseline="text-after-edge" fill-opacity="1">*164</text><path fill="rgb(69,90,100)" stroke="rgb(255,193,7)" paint-order="fill stroke markers" d=" M 569.4375 245 L 569.4375 265 L 664.4375 265 L 664.4375 245 Z" fill-opacity="1" stroke-opacity="1" stroke-miterlimit="10" stroke-width="2"/><text fill="rgb(255,255,255)" stroke="none" font-family="times new roman" font-size="10px" font-style="normal" font-weight="normal" text-decoration="normal" x="616.9375" y="260" text-anchor="middle" dominant-baseline="text-after-edge" fill-opacity="1">42127608C&gt;T</text><path fill="rgb(69,90,100)" stroke="rgb(189,189,189)" paint-order="fill stroke markers" d=" M 835.1875 179.25 L 835.1181400089954 181.0153296538765 L 834.9104876633907 182.76977546340518 L 834.5658232089477 184.50252068675786 L 834.0862716166409 186.20288237343632 L 833.474789481504 187.86037722821453 L 832.7351467942383 189.46478624413982 L 831.8719036979671 191.00621770610886 L 830.8903823734363 192.47516817658064 L 829.7966342260007 193.86258108742913 L 828.5974025766973 195.1599025766973 L 827.3000810874291 196.3591342260007 L 825.9126681765806 197.45288237343632 L 824.4437177061088 198.43440369796707 L 822.9022862441398 199.2976467942383 L 821.2978772282145 200.03728948150396 L 819.6403823734363 200.64877161664094 L 817.9400206867579 201.12832320894773 L 816.2072754634052 201.4729876633906 L 814.4528296538765 201.68064000899537 L 812.6875 201.75 L 810.9221703461235 201.68064000899537 L 809.1677245365948 201.4729876633906 L 807.4349793132421 201.12832320894773 L 805.7346176265637 200.64877161664094 L 804.0771227717855 200.03728948150396 L 802.4727137558602 199.2976467942383 L 800.9312822938912 198.43440369796707 L 799.4623318234194 197.45288237343632 L 798.0749189125709 196.3591342260007 L 796.7775974233027 195.15990257669733 L 795.5783657739993 193.86258108742913 L 794.4846176265637 192.47516817658064 L 793.5030963020329 191.00621770610886 L 792.6398532057617 189.46478624413982 L 791.900210518496 187.86037722821453 L 791.2887283833591 186.20288237343632 L 790.8091767910523 184.50252068675786 L 790.4645123366095 182.7697754634052 L 790.2568599910046 181.0153296538765 L 790.1875 179.25 L 790.2568599910046 177.4846703461235 L 790.4645123366093 175.73022453659482 L 790.8091767910523 173.99747931324214 L 791.2887283833591 172.29711762656368 L 791.900210518496 170.63962277178547 L 792.6398532057617 169.0352137558602 L 793.5030963020329 167.49378229389114 L 794.4846176265637 166.02483182341936 L 795.5783657739993 164.63741891257087 L 796.7775974233027 163.3400974233027 L 798.0749189125709 162.1408657739993 L 799.4623318234194 161.04711762656368 L 800.9312822938912 160.06559630203293 L 802.4727137558602 159.2023532057617 L 804.0771227717855 158.46271051849604 L 805.7346176265637 157.85122838335903 L 807.4349793132421 157.37167679105227 L 809.1677245365948 157.0270123366094 L 810.9221703461236 156.8193599910046 L 812.6875000000001 156.75 L 814.4528296538766 156.81935999100463 L 816.2072754634053 157.0270123366094 L 817.940020686758 157.3716767910523 L 819.6403823734364 157.85122838335909 L 821.2978772282146 158.4627105184961 L 822.9022862441399 159.2023532057618 L 824.4437177061089 160.065596302033 L 825.9126681765807 161.04711762656376 L 827.3000810874292 162.14086577399942 L 828.5974025766974 163.3400974233028 L 829.7966342260008 164.637418912571 L 830.8903823734364 166.0248318234195 L 831.8719036979671 167.49378229389131 L 832.7351467942384 169.03521375586038 L 833.474789481504 170.6396227717857 L 834.086271616641 172.2971176265639 L 834.5658232089478 173.99747931324237 L 834.9104876633907 175.73022453659505 L 835.1181400089954 177.48467034612375 Z" fill-opacity="1" stroke-opacity="1" stroke-miterlimit="10" stroke-width="2"/><text fill="rgb(255,255,255)" stroke="none" font-family="times new roman" font-size="15px" font-style="normal" font-weight="normal" text-decoration="normal" x="812.6875" y="186.75" text-anchor="middle" dominant-baseline="text-after-edge" fill-opacity="1">*107</text><path fill="rgb(69,90,100)" stroke="rgb(76,175,80)" paint-order="fill stroke markers" d=" M 1116.9375 326.75 L 1116.9375 346.75 L 1211.9375 346.75 L 1211.9375 326.75 Z" fill-opacity="1" stroke-opacity="1" stroke-miterlimit="10" stroke-width="2"/><text fill="rgb(255,255,255)" stroke="none" font-family="times new roman" font-size="10px" font-style="normal" font-weight="normal" text-decoration="normal" x="1164.4375" y="341.75" text-anchor="middle" dominant-baseline="text-after-edge" fill-opacity="1">42128499C&gt;T</text><path fill="rgb(69,90,100)" stroke="rgb(69,90,100)" paint-order="fill stroke markers" d=" M 978.0625 593.75 L 959.3125 611.25 L 978.0625 628.75 L 1015.5625 628.75 L 1034.3125 611.25 L 1015.5625 593.75 Z" fill-opacity="1" stroke-opacity="1" stroke-miterlimit="10" stroke-width="2"/><text fill="rgb(255,255,255)" stroke="none" font-family="times new roman" font-size="10px" font-style="normal" font-weight="normal" text-decoration="normal" x="996.8125" y="616.25" text-anchor="middle" dominant-baseline="text-after-edge" fill-opacity="1">NA19700-A</text><path fill="rgb(69,90,100)" stroke="rgb(76,175,80)" paint-order="fill stroke markers" d=" M 1547.0625 245 L 1547.0625 265 L 1642.0625 265 L 1642.0625 245 Z" fill-opacity="1" stroke-opacity="1" stroke-miterlimit="10" stroke-width="6"/><text fill="rgb(255,255,255)" stroke="none" font-family="times new roman" font-size="10px" font-style="normal" font-weight="normal" text-decoration="normal" x="1594.5625" y="260" text-anchor="middle" dominant-baseline="text-after-edge" fill-opacity="1">42130047G&gt;C</text><path fill="rgb(69,90,100)" stroke="rgb(76,175,80)" paint-order="fill stroke markers" d=" M 579.3125 105.75 L 579.2585533403297 107.12303417523728 L 579.0970459604149 108.48760313820404 L 578.8289736069594 109.83529386747834 L 578.4559890351652 111.15779740156158 L 577.9803918189475 112.44696006638907 L 577.4051141732964 113.69483374544207 L 576.7337028761966 114.8937248825291 L 575.9702974015615 116.03624191511828 L 575.1196043980005 117.1153408457782 L 574.1868686707646 118.12436867076458 L 573.1778408457782 119.05710439800055 L 572.0987419151182 119.90779740156158 L 570.9562248825291 120.67120287619662 L 569.7573337454421 121.34261417329644 L 568.5094600663891 121.91789181894751 L 567.2202974015615 122.39348903516519 L 565.8977938674783 122.76647360695934 L 564.550103138204 123.0345459604149 L 563.1855341752373 123.19605334032974 L 561.8125 123.25 L 560.4394658247627 123.19605334032974 L 559.074896861796 123.0345459604149 L 557.7272061325217 122.76647360695934 L 556.4047025984385 122.39348903516519 L 555.1155399336109 121.91789181894751 L 553.8676662545579 121.34261417329644 L 552.6687751174709 120.67120287619662 L 551.5262580848818 119.90779740156158 L 550.4471591542218 119.05710439800055 L 549.4381313292354 118.12436867076458 L 548.5053956019995 117.11534084577822 L 547.6547025984385 116.03624191511828 L 546.8912971238034 114.89372488252911 L 546.2198858267036 113.69483374544207 L 545.6446081810525 112.44696006638907 L 545.1690109648348 111.15779740156158 L 544.7960263930406 109.83529386747834 L 544.5279540395851 108.48760313820404 L 544.3664466596703 107.1230341752373 L 544.3125 105.75 L 544.3664466596703 104.37696582476272 L 544.5279540395851 103.01239686179596 L 544.7960263930406 101.66470613252166 L 545.1690109648348 100.34220259843842 L 545.6446081810525 99.05303993361093 L 546.2198858267036 97.80516625455793 L 546.8912971238034 96.6062751174709 L 547.6547025984385 95.46375808488172 L 548.5053956019995 94.3846591542218 L 549.4381313292354 93.37563132923542 L 550.4471591542218 92.44289560199947 L 551.5262580848818 91.59220259843842 L 552.6687751174709 90.82879712380338 L 553.8676662545579 90.15738582670356 L 555.115539933611 89.58210818105248 L 556.4047025984385 89.1065109648348 L 557.7272061325217 88.73352639304065 L 559.074896861796 88.46545403958508 L 560.4394658247628 88.30394665967026 L 561.8125000000001 88.25 L 563.1855341752373 88.30394665967026 L 564.5501031382041 88.4654540395851 L 565.8977938674784 88.73352639304068 L 567.2202974015617 89.10651096483484 L 568.5094600663891 89.58210818105252 L 569.7573337454421 90.1573858267036 L 570.9562248825292 90.82879712380344 L 572.0987419151184 91.59220259843849 L 573.1778408457783 92.44289560199954 L 574.1868686707646 93.37563132923552 L 575.1196043980007 94.3846591542219 L 575.9702974015617 95.46375808488185 L 576.7337028761967 96.60627511747103 L 577.4051141732965 97.80516625455807 L 577.9803918189476 99.05303993361109 L 578.4559890351652 100.34220259843859 L 578.8289736069594 101.66470613252184 L 579.0970459604149 103.01239686179616 L 579.2585533403297 104.37696582476292 Z" fill-opacity="1" stroke-opacity="1" stroke-miterlimit="10" stroke-width="6"/><text fill="rgb(255,255,255)" stroke="none" font-family="times new roman" font-size="10px" font-style="normal" font-weight="normal" text-decoration="normal" x="561.8125" y="110.75" text-anchor="middle" dominant-baseline="text-after-edge" fill-opacity="1">*39.2</text><path fill="rgb(69,90,100)" stroke="rgb(76,175,80)" paint-order="fill stroke markers" d=" M 448.9375 179.25 L 448.8681400089954 181.0153296538765 L 448.6604876633906 182.76977546340518 L 448.31582320894773 184.50252068675786 L 447.83627161664094 186.20288237343632 L 447.22478948150393 187.86037722821453 L 446.4851467942383 189.46478624413982 L 445.62190369796707 191.00621770610886 L 444.6403823734363 192.47516817658064 L 443.5466342260007 193.86258108742913 L 442.34740257669733 195.1599025766973 L 441.05008108742913 196.3591342260007 L 439.66266817658067 197.45288237343632 L 438.1937177061088 198.43440369796707 L 436.6522862441398 199.2976467942383 L 435.04787722821453 200.03728948150396 L 433.3903823734363 200.64877161664094 L 431.69002068675786 201.12832320894773 L 429.9572754634052 201.4729876633906 L 428.2028296538765 201.68064000899537 L 426.4375 201.75 L 424.6721703461235 201.68064000899537 L 422.9177245365948 201.4729876633906 L 421.18497931324214 201.12832320894773 L 419.4846176265637 200.64877161664094 L 417.82712277178547 200.03728948150396 L 416.2227137558602 199.2976467942383 L 414.6812822938912 198.43440369796707 L 413.21233182341933 197.45288237343632 L 411.82491891257087 196.3591342260007 L 410.52759742330267 195.15990257669733 L 409.3283657739993 193.86258108742913 L 408.2346176265637 192.47516817658064 L 407.25309630203293 191.00621770610886 L 406.3898532057617 189.46478624413982 L 405.65021051849607 187.86037722821453 L 405.03872838335906 186.20288237343632 L 404.55917679105227 184.50252068675786 L 404.2145123366094 182.7697754634052 L 404.0068599910046 181.0153296538765 L 403.9375 179.25 L 404.0068599910046 177.4846703461235 L 404.2145123366094 175.73022453659482 L 404.55917679105227 173.99747931324214 L 405.03872838335906 172.29711762656368 L 405.65021051849607 170.63962277178547 L 406.3898532057617 169.0352137558602 L 407.25309630203293 167.49378229389114 L 408.2346176265637 166.02483182341936 L 409.3283657739993 164.63741891257087 L 410.52759742330267 163.3400974233027 L 411.82491891257087 162.1408657739993 L 413.21233182341933 161.04711762656368 L 414.6812822938912 160.06559630203293 L 416.22271375586024 159.2023532057617 L 417.8271227717855 158.46271051849604 L 419.4846176265637 157.85122838335903 L 421.1849793132422 157.37167679105227 L 422.91772453659485 157.0270123366094 L 424.67217034612355 156.8193599910046 L 426.43750000000006 156.75 L 428.2028296538766 156.81935999100463 L 429.95727546340527 157.0270123366094 L 431.690020686758 157.3716767910523 L 433.3903823734364 157.85122838335909 L 435.04787722821465 158.4627105184961 L 436.65228624413993 159.2023532057618 L 438.193717706109 160.065596302033 L 439.6626681765808 161.04711762656376 L 441.05008108742925 162.14086577399942 L 442.34740257669745 163.3400974233028 L 443.54663422600083 164.637418912571 L 444.6403823734364 166.0248318234195 L 445.6219036979672 167.49378229389131 L 446.4851467942384 169.03521375586038 L 447.22478948150405 170.6396227717857 L 447.83627161664106 172.2971176265639 L 448.3158232089478 173.99747931324237 L 448.66048766339065 175.73022453659505 L 448.8681400089954 177.48467034612375 Z" fill-opacity="1" stroke-opacity="1" stroke-miterlimit="10" stroke-width="2"/><text fill="rgb(255,255,255)" stroke="none" font-family="times new roman" font-size="15px" font-style="normal" font-weight="normal" text-decoration="normal" x="426.4375" y="186.75" text-anchor="middle" dominant-baseline="text-after-edge" fill-opacity="1">*34</text><path fill="rgb(69,90,100)" stroke="rgb(76,175,80)" paint-order="fill stroke markers" d=" M 1298.4375 326.75 L 1298.4375 346.75 L 1393.4375 346.75 L 1393.4375 326.75 Z" fill-opacity="1" stroke-opacity="1" stroke-miterlimit="10" stroke-width="2"/><text fill="rgb(255,255,255)" stroke="none" font-family="times new roman" font-size="10px" font-style="normal" font-weight="normal" text-decoration="normal" x="1345.9375" y="341.75" text-anchor="middle" dominant-baseline="text-after-edge" fill-opacity="1">42128576T&gt;C</text><path fill="rgb(69,90,100)" stroke="rgb(189,189,189)" paint-order="fill stroke markers" d=" M 780.3125 105.75 L 780.2585533403297 107.12303417523728 L 780.0970459604149 108.48760313820404 L 779.8289736069594 109.83529386747834 L 779.4559890351652 111.15779740156158 L 778.9803918189475 112.44696006638907 L 778.4051141732964 113.69483374544207 L 777.7337028761966 114.8937248825291 L 776.9702974015615 116.03624191511828 L 776.1196043980005 117.1153408457782 L 775.1868686707646 118.12436867076458 L 774.1778408457782 119.05710439800055 L 773.0987419151182 119.90779740156158 L 771.9562248825291 120.67120287619662 L 770.7573337454421 121.34261417329644 L 769.5094600663891 121.91789181894751 L 768.2202974015615 122.39348903516519 L 766.8977938674783 122.76647360695934 L 765.550103138204 123.0345459604149 L 764.1855341752373 123.19605334032974 L 762.8125 123.25 L 761.4394658247627 123.19605334032974 L 760.074896861796 123.0345459604149 L 758.7272061325217 122.76647360695934 L 757.4047025984385 122.39348903516519 L 756.1155399336109 121.91789181894751 L 754.8676662545579 121.34261417329644 L 753.6687751174709 120.67120287619662 L 752.5262580848818 119.90779740156158 L 751.4471591542218 119.05710439800055 L 750.4381313292354 118.12436867076458 L 749.5053956019995 117.11534084577822 L 748.6547025984385 116.03624191511828 L 747.8912971238034 114.89372488252911 L 747.2198858267036 113.69483374544207 L 746.6446081810525 112.44696006638907 L 746.1690109648348 111.15779740156158 L 745.7960263930406 109.83529386747834 L 745.5279540395851 108.48760313820404 L 745.3664466596703 107.1230341752373 L 745.3125 105.75 L 745.3664466596703 104.37696582476272 L 745.5279540395851 103.01239686179596 L 745.7960263930406 101.66470613252166 L 746.1690109648348 100.34220259843842 L 746.6446081810525 99.05303993361093 L 747.2198858267036 97.80516625455793 L 747.8912971238034 96.6062751174709 L 748.6547025984385 95.46375808488172 L 749.5053956019995 94.3846591542218 L 750.4381313292354 93.37563132923542 L 751.4471591542218 92.44289560199947 L 752.5262580848818 91.59220259843842 L 753.6687751174709 90.82879712380338 L 754.8676662545579 90.15738582670356 L 756.115539933611 89.58210818105248 L 757.4047025984385 89.1065109648348 L 758.7272061325217 88.73352639304065 L 760.074896861796 88.46545403958508 L 761.4394658247628 88.30394665967026 L 762.8125000000001 88.25 L 764.1855341752373 88.30394665967026 L 765.5501031382041 88.4654540395851 L 766.8977938674784 88.73352639304068 L 768.2202974015617 89.10651096483484 L 769.5094600663891 89.58210818105252 L 770.7573337454421 90.1573858267036 L 771.9562248825292 90.82879712380344 L 773.0987419151184 91.59220259843849 L 774.1778408457783 92.44289560199954 L 775.1868686707646 93.37563132923552 L 776.1196043980007 94.3846591542219 L 776.9702974015617 95.46375808488185 L 777.7337028761967 96.60627511747103 L 778.4051141732965 97.80516625455807 L 778.9803918189476 99.05303993361109 L 779.4559890351652 100.34220259843859 L 779.8289736069594 101.66470613252184 L 780.0970459604149 103.01239686179616 L 780.2585533403297 104.37696582476292 Z" fill-opacity="1" stroke-opacity="1" stroke-miterlimit="10" stroke-width="2"/><text fill="rgb(255,255,255)" stroke="none" font-family="times new roman" font-size="10px" font-style="normal" font-weight="normal" text-decoration="normal" x="762.8125" y="110.75" text-anchor="middle" dominant-baseline="text-after-edge" fill-opacity="1">*107.1</text><path fill="rgb(69,90,100)" stroke="rgb(76,175,80)" paint-order="fill stroke markers" d=" M 1308.1875 245 L 1308.1875 265 L 1403.1875 265 L 1403.1875 245 Z" fill-opacity="1" stroke-opacity="1" stroke-miterlimit="10" stroke-width="6"/><text fill="rgb(255,255,255)" stroke="none" font-family="times new roman" font-size="10px" font-style="normal" font-weight="normal" text-decoration="normal" x="1355.6875" y="260" text-anchor="middle" dominant-baseline="text-after-edge" fill-opacity="1">42129950A&gt;C</text><path fill="rgb(69,90,100)" stroke="rgb(76,175,80)" paint-order="fill stroke markers" d=" M 982.3125 245 L 982.3125 265 L 1077.3125 265 L 1077.3125 245 Z" fill-opacity="1" stroke-opacity="1" stroke-miterlimit="10" stroke-width="6"/><text fill="rgb(255,255,255)" stroke="none" font-family="times new roman" font-size="10px" font-style="normal" font-weight="normal" text-decoration="normal" x="1029.8125" y="260" text-anchor="middle" dominant-baseline="text-after-edge" fill-opacity="1">42130482C&gt;A</text><path fill="rgb(69,90,100)" stroke="rgb(76,175,80)" paint-order="fill stroke markers" d=" M 669.9375 326.75 L 669.9375 346.75 L 764.9375 346.75 L 764.9375 326.75 Z" fill-opacity="1" stroke-opacity="1" stroke-miterlimit="10" stroke-width="2"/><text fill="rgb(255,255,255)" stroke="none" font-family="times new roman" font-size="10px" font-style="normal" font-weight="normal" text-decoration="normal" x="717.4375" y="341.75" text-anchor="middle" dominant-baseline="text-after-edge" fill-opacity="1">42132199C&gt;T</text><path fill="rgb(69,90,100)" stroke="rgb(255,193,7)" paint-order="fill stroke markers" d=" M 809.8125 95.75 L 809.8125 115.75 L 904.8125 115.75 L 904.8125 95.75 Z" fill-opacity="1" stroke-opacity="1" stroke-miterlimit="10" stroke-width="2"/><text fill="rgb(255,255,255)" stroke="none" font-family="times new roman" font-size="10px" font-style="normal" font-weight="normal" text-decoration="normal" x="857.3125" y="110.75" text-anchor="middle" dominant-baseline="text-after-edge" fill-opacity="1">42129132C&gt;T</text><path fill="rgb(69,90,100)" stroke="rgb(76,175,80)" paint-order="fill stroke markers" d=" M 533.1875 179.25 L 533.1335533403297 180.62303417523728 L 532.9720459604149 181.98760313820404 L 532.7039736069594 183.33529386747836 L 532.3309890351652 184.65779740156157 L 531.8553918189475 185.94696006638907 L 531.2801141732964 187.19483374544205 L 530.6087028761966 188.3937248825291 L 529.8452974015615 189.53624191511827 L 528.9946043980005 190.6153408457782 L 528.0618686707646 191.62436867076457 L 527.0528408457782 192.55710439800055 L 525.9737419151182 193.4077974015616 L 524.8312248825291 194.17120287619662 L 523.6323337454421 194.84261417329643 L 522.3844600663891 195.4178918189475 L 521.0952974015615 195.89348903516517 L 519.7727938674783 196.26647360695935 L 518.425103138204 196.5345459604149 L 517.0605341752373 196.69605334032974 L 515.6875 196.75 L 514.3144658247627 196.69605334032974 L 512.949896861796 196.5345459604149 L 511.60220613252164 196.26647360695935 L 510.2797025984384 195.8934890351652 L 508.99053993361093 195.4178918189475 L 507.74266625455795 194.84261417329643 L 506.5437751174709 194.17120287619662 L 505.4012580848817 193.4077974015616 L 504.32215915422177 192.55710439800055 L 503.31313132923543 191.62436867076457 L 502.38039560199945 190.6153408457782 L 501.5297025984384 189.5362419151183 L 500.7662971238034 188.3937248825291 L 500.09488582670355 187.19483374544208 L 499.5196081810525 185.94696006638907 L 499.0440109648348 184.6577974015616 L 498.6710263930407 183.33529386747836 L 498.4029540395851 181.98760313820404 L 498.24144665967026 180.62303417523728 L 498.1875 179.25 L 498.24144665967026 177.87696582476272 L 498.4029540395851 176.51239686179596 L 498.6710263930407 175.16470613252164 L 499.0440109648348 173.84220259843843 L 499.5196081810525 172.55303993361093 L 500.09488582670355 171.30516625455795 L 500.7662971238034 170.1062751174709 L 501.5297025984384 168.96375808488173 L 502.38039560199945 167.8846591542218 L 503.31313132923543 166.87563132923543 L 504.32215915422177 165.94289560199945 L 505.4012580848817 165.09220259843843 L 506.5437751174709 164.32879712380338 L 507.74266625455795 163.65738582670355 L 508.99053993361093 163.0821081810525 L 510.27970259843846 162.6065109648348 L 511.6022061325217 162.23352639304065 L 512.949896861796 161.9654540395851 L 514.3144658247628 161.80394665967026 L 515.6875000000001 161.75 L 517.0605341752373 161.80394665967026 L 518.4251031382041 161.9654540395851 L 519.7727938674784 162.23352639304068 L 521.0952974015617 162.60651096483485 L 522.3844600663891 163.08210818105252 L 523.6323337454421 163.6573858267036 L 524.8312248825292 164.32879712380344 L 525.9737419151184 165.0922025984385 L 527.0528408457783 165.94289560199954 L 528.0618686707646 166.87563132923552 L 528.9946043980007 167.8846591542219 L 529.8452974015617 168.96375808488185 L 530.6087028761967 170.10627511747103 L 531.2801141732965 171.3051662545581 L 531.8553918189476 172.5530399336111 L 532.3309890351652 173.8422025984386 L 532.7039736069594 175.16470613252184 L 532.9720459604149 176.51239686179616 L 533.1335533403297 177.87696582476292 Z" fill-opacity="1" stroke-opacity="1" stroke-miterlimit="10" stroke-width="2"/><text fill="rgb(255,255,255)" stroke="none" font-family="times new roman" font-size="10px" font-style="normal" font-weight="normal" text-decoration="normal" x="515.6875" y="184.25" text-anchor="middle" dominant-baseline="text-after-edge" fill-opacity="1">*2.4</text><path fill="rgb(69,90,100)" stroke="rgb(255,193,7)" paint-order="fill stroke markers" d=" M 423.5625 95.75 L 423.5625 115.75 L 518.5625 115.75 L 518.5625 95.75 Z" fill-opacity="1" stroke-opacity="1" stroke-miterlimit="10" stroke-width="2"/><text fill="rgb(255,255,255)" stroke="none" font-family="times new roman" font-size="10px" font-style="normal" font-weight="normal" text-decoration="normal" x="471.0625" y="110.75" text-anchor="middle" dominant-baseline="text-after-edge" fill-opacity="1">42127941G&gt;A</text><path fill="rgb(69,90,100)" stroke="rgb(76,175,80)" paint-order="fill stroke markers" d=" M 399.3125 105.75 L 399.25855334032974 107.12303417523728 L 399.0970459604149 108.48760313820404 L 398.8289736069593 109.83529386747834 L 398.4559890351652 111.15779740156158 L 397.9803918189475 112.44696006638907 L 397.40511417329645 113.69483374544207 L 396.7337028761966 114.8937248825291 L 395.9702974015616 116.03624191511828 L 395.11960439800055 117.1153408457782 L 394.18686867076457 118.12436867076458 L 393.17784084577823 119.05710439800055 L 392.0987419151183 119.90779740156158 L 390.9562248825291 120.67120287619662 L 389.75733374544205 121.34261417329644 L 388.50946006638907 121.91789181894751 L 387.2202974015616 122.39348903516519 L 385.89779386747836 122.76647360695934 L 384.55010313820407 123.0345459604149 L 383.1855341752373 123.19605334032974 L 381.8125 123.25 L 380.4394658247627 123.19605334032974 L 379.07489686179593 123.0345459604149 L 377.72720613252164 122.76647360695934 L 376.4047025984384 122.39348903516519 L 375.11553993361093 121.91789181894751 L 373.86766625455795 121.34261417329644 L 372.6687751174709 120.67120287619662 L 371.5262580848817 119.90779740156158 L 370.44715915422177 119.05710439800055 L 369.43813132923543 118.12436867076458 L 368.50539560199945 117.11534084577822 L 367.6547025984384 116.03624191511828 L 366.8912971238034 114.89372488252911 L 366.21988582670355 113.69483374544207 L 365.6446081810525 112.44696006638907 L 365.1690109648348 111.15779740156158 L 364.7960263930407 109.83529386747834 L 364.5279540395851 108.48760313820404 L 364.36644665967026 107.1230341752373 L 364.3125 105.75 L 364.36644665967026 104.37696582476272 L 364.5279540395851 103.01239686179596 L 364.7960263930407 101.66470613252166 L 365.1690109648348 100.34220259843842 L 365.6446081810525 99.05303993361093 L 366.21988582670355 97.80516625455793 L 366.8912971238034 96.6062751174709 L 367.6547025984384 95.46375808488172 L 368.50539560199945 94.3846591542218 L 369.43813132923543 93.37563132923542 L 370.44715915422177 92.44289560199947 L 371.5262580848817 91.59220259843842 L 372.6687751174709 90.82879712380338 L 373.86766625455795 90.15738582670356 L 375.11553993361093 89.58210818105248 L 376.40470259843846 89.1065109648348 L 377.7272061325217 88.73352639304065 L 379.074896861796 88.46545403958508 L 380.43946582476275 88.30394665967026 L 381.81250000000006 88.25 L 383.18553417523736 88.30394665967026 L 384.5501031382041 88.4654540395851 L 385.8977938674784 88.73352639304068 L 387.22029740156165 89.10651096483484 L 388.5094600663892 89.58210818105252 L 389.75733374544217 90.1573858267036 L 390.9562248825292 90.82879712380344 L 392.09874191511835 91.59220259843849 L 393.1778408457783 92.44289560199954 L 394.1868686707647 93.37563132923552 L 395.11960439800066 94.3846591542219 L 395.97029740156165 95.46375808488185 L 396.7337028761967 96.60627511747103 L 397.4051141732965 97.80516625455807 L 397.98039181894757 99.05303993361109 L 398.45598903516526 100.34220259843859 L 398.8289736069594 101.66470613252184 L 399.09704596041496 103.01239686179616 L 399.25855334032974 104.37696582476292 Z" fill-opacity="1" stroke-opacity="1" stroke-miterlimit="10" stroke-width="2"/><text fill="rgb(255,255,255)" stroke="none" font-family="times new roman" font-size="10px" font-style="normal" font-weight="normal" text-decoration="normal" x="381.8125" y="110.75" text-anchor="middle" dominant-baseline="text-after-edge" fill-opacity="1">*34.1</text><path fill="rgb(69,90,100)" stroke="rgb(76,175,80)" paint-order="fill stroke markers" d=" M 546.4375 255 L 546.3681400089954 256.7653296538765 L 546.1604876633907 258.5197754634052 L 545.8158232089477 260.25252068675786 L 545.3362716166409 261.9528823734363 L 544.724789481504 263.61037722821453 L 543.9851467942383 265.2147862441398 L 543.1219036979671 266.7562177061088 L 542.1403823734363 268.22516817658067 L 541.0466342260007 269.61258108742913 L 539.8474025766973 270.90990257669733 L 538.5500810874291 272.1091342260007 L 537.1626681765806 273.2028823734363 L 535.6937177061088 274.18440369796707 L 534.1522862441398 275.0476467942383 L 532.5478772282145 275.78728948150393 L 530.8903823734363 276.39877161664094 L 529.1900206867579 276.87832320894773 L 527.4572754634052 277.2229876633906 L 525.7028296538765 277.4306400089954 L 523.9375 277.5 L 522.1721703461235 277.4306400089954 L 520.4177245365948 277.2229876633906 L 518.6849793132421 276.87832320894773 L 516.9846176265637 276.39877161664094 L 515.3271227717855 275.78728948150393 L 513.7227137558602 275.0476467942383 L 512.1812822938912 274.18440369796707 L 510.71233182341933 273.2028823734363 L 509.32491891257087 272.1091342260007 L 508.02759742330267 270.90990257669733 L 506.8283657739993 269.61258108742913 L 505.7346176265637 268.22516817658067 L 504.75309630203293 266.7562177061088 L 503.8898532057617 265.2147862441398 L 503.15021051849607 263.61037722821453 L 502.53872838335906 261.9528823734363 L 502.05917679105227 260.25252068675786 L 501.7145123366094 258.5197754634052 L 501.5068599910046 256.7653296538765 L 501.4375 255 L 501.5068599910046 253.2346703461235 L 501.7145123366094 251.48022453659482 L 502.05917679105227 249.74747931324214 L 502.53872838335906 248.04711762656368 L 503.15021051849607 246.38962277178547 L 503.8898532057617 244.7852137558602 L 504.75309630203293 243.24378229389114 L 505.7346176265637 241.77483182341936 L 506.8283657739993 240.38741891257087 L 508.02759742330267 239.0900974233027 L 509.32491891257087 237.8908657739993 L 510.71233182341933 236.79711762656368 L 512.1812822938912 235.81559630203293 L 513.7227137558602 234.9523532057617 L 515.3271227717855 234.21271051849604 L 516.9846176265637 233.60122838335903 L 518.6849793132421 233.12167679105227 L 520.4177245365948 232.7770123366094 L 522.1721703461236 232.5693599910046 L 523.9375000000001 232.5 L 525.7028296538766 232.56935999100463 L 527.4572754634053 232.7770123366094 L 529.190020686758 233.1216767910523 L 530.8903823734364 233.60122838335909 L 532.5478772282146 234.2127105184961 L 534.1522862441399 234.9523532057618 L 535.6937177061089 235.815596302033 L 537.1626681765807 236.79711762656376 L 538.5500810874292 237.89086577399942 L 539.8474025766974 239.0900974233028 L 541.0466342260008 240.387418912571 L 542.1403823734364 241.7748318234195 L 543.1219036979671 243.24378229389131 L 543.9851467942384 244.78521375586038 L 544.724789481504 246.3896227717857 L 545.336271616641 248.0471176265639 L 545.8158232089478 249.74747931324237 L 546.1604876633907 251.48022453659505 L 546.3681400089954 253.23467034612375 Z" fill-opacity="1" stroke-opacity="1" stroke-miterlimit="10" stroke-width="2"/><text fill="rgb(255,255,255)" stroke="none" font-family="times new roman" font-size="15px" font-style="normal" font-weight="normal" text-decoration="normal" x="523.9375" y="262.5" text-anchor="middle" dominant-baseline="text-after-edge" fill-opacity="1">*2</text><path fill="rgb(69,90,100)" stroke="rgb(76,175,80)" paint-order="fill stroke markers" d=" M 357.1875 326.75 L 357.1875 346.75 L 452.1875 346.75 L 452.1875 326.75 Z" fill-opacity="1" stroke-opacity="1" stroke-miterlimit="10" stroke-width="2"/><text fill="rgb(255,255,255)" stroke="none" font-family="times new roman" font-size="10px" font-style="normal" font-weight="normal" text-decoration="normal" x="404.6875" y="341.75" text-anchor="middle" dominant-baseline="text-after-edge" fill-opacity="1">42130967C&gt;T</text><path fill="rgb(69,90,100)" stroke="rgb(76,175,80)" paint-order="fill stroke markers" d=" M 1465.4375 255 L 1465.3835533403299 256.3730341752373 L 1465.222045960415 257.73760313820407 L 1464.9539736069594 259.08529386747836 L 1464.5809890351652 260.4077974015616 L 1464.1053918189475 261.69696006638907 L 1463.5301141732964 262.94483374544205 L 1462.8587028761965 264.1437248825291 L 1462.0952974015615 265.2862419151183 L 1461.2446043980005 266.36534084577823 L 1460.3118686707646 267.37436867076457 L 1459.3028408457783 268.30710439800055 L 1458.2237419151184 269.1577974015616 L 1457.081224882529 269.9212028761966 L 1455.882333745442 270.59261417329645 L 1454.634460066389 271.1678918189475 L 1453.3452974015615 271.6434890351652 L 1452.0227938674784 272.0164736069593 L 1450.6751031382041 272.2845459604149 L 1449.3105341752373 272.44605334032974 L 1447.9375 272.5 L 1446.5644658247627 272.44605334032974 L 1445.1998968617959 272.2845459604149 L 1443.8522061325216 272.0164736069593 L 1442.5297025984385 271.6434890351652 L 1441.240539933611 271.1678918189475 L 1439.992666254558 270.59261417329645 L 1438.793775117471 269.9212028761966 L 1437.6512580848816 269.1577974015616 L 1436.5721591542217 268.30710439800055 L 1435.5631313292354 267.37436867076457 L 1434.6303956019995 266.36534084577823 L 1433.7797025984385 265.2862419151183 L 1433.0162971238035 264.1437248825291 L 1432.3448858267036 262.94483374544205 L 1431.7696081810525 261.69696006638907 L 1431.2940109648348 260.4077974015616 L 1430.9210263930406 259.08529386747836 L 1430.652954039585 257.73760313820407 L 1430.4914466596701 256.3730341752373 L 1430.4375 255 L 1430.4914466596701 253.62696582476272 L 1430.652954039585 252.26239686179596 L 1430.9210263930406 250.91470613252164 L 1431.2940109648348 249.59220259843843 L 1431.7696081810525 248.30303993361093 L 1432.3448858267036 247.05516625455795 L 1433.0162971238035 245.8562751174709 L 1433.7797025984385 244.71375808488173 L 1434.6303956019995 243.6346591542218 L 1435.5631313292354 242.62563132923543 L 1436.5721591542217 241.69289560199945 L 1437.6512580848816 240.84220259843843 L 1438.793775117471 240.07879712380338 L 1439.992666254558 239.40738582670355 L 1441.240539933611 238.8321081810525 L 1442.5297025984385 238.3565109648348 L 1443.8522061325216 237.98352639304065 L 1445.199896861796 237.7154540395851 L 1446.5644658247627 237.55394665967026 L 1447.9375 237.5 L 1449.3105341752373 237.55394665967026 L 1450.6751031382041 237.7154540395851 L 1452.0227938674784 237.98352639304068 L 1453.3452974015618 238.35651096483485 L 1454.6344600663892 238.83210818105252 L 1455.882333745442 239.4073858267036 L 1457.081224882529 240.07879712380344 L 1458.2237419151184 240.8422025984385 L 1459.3028408457783 241.69289560199954 L 1460.3118686707646 242.62563132923552 L 1461.2446043980005 243.6346591542219 L 1462.0952974015618 244.71375808488185 L 1462.8587028761967 245.85627511747103 L 1463.5301141732966 247.0551662545581 L 1464.1053918189475 248.3030399336111 L 1464.5809890351652 249.5922025984386 L 1464.9539736069594 250.91470613252184 L 1465.222045960415 252.26239686179616 L 1465.3835533403299 253.62696582476292 Z" fill-opacity="1" stroke-opacity="1" stroke-miterlimit="10" stroke-width="6"/><text fill="rgb(255,255,255)" stroke="none" font-family="times new roman" font-size="10px" font-style="normal" font-weight="normal" text-decoration="normal" x="1447.9375" y="260" text-anchor="middle" dominant-baseline="text-after-edge" fill-opacity="1">*1.41</text><path fill="rgb(69,90,100)" stroke="rgb(76,175,80)" paint-order="fill stroke markers" d=" M 1565.9375 336.75 L 1565.8835533403299 338.1230341752373 L 1565.722045960415 339.48760313820407 L 1565.4539736069594 340.83529386747836 L 1565.0809890351652 342.1577974015616 L 1564.6053918189475 343.44696006638907 L 1564.0301141732964 344.69483374544205 L 1563.3587028761965 345.8937248825291 L 1562.5952974015615 347.0362419151183 L 1561.7446043980005 348.11534084577823 L 1560.8118686707646 349.12436867076457 L 1559.8028408457783 350.05710439800055 L 1558.7237419151184 350.9077974015616 L 1557.581224882529 351.6712028761966 L 1556.382333745442 352.34261417329645 L 1555.134460066389 352.9178918189475 L 1553.8452974015615 353.3934890351652 L 1552.5227938674784 353.7664736069593 L 1551.1751031382041 354.0345459604149 L 1549.8105341752373 354.19605334032974 L 1548.4375 354.25 L 1547.0644658247627 354.19605334032974 L 1545.6998968617959 354.0345459604149 L 1544.3522061325216 353.7664736069593 L 1543.0297025984385 353.3934890351652 L 1541.740539933611 352.9178918189475 L 1540.492666254558 352.34261417329645 L 1539.293775117471 351.6712028761966 L 1538.1512580848816 350.9077974015616 L 1537.0721591542217 350.05710439800055 L 1536.0631313292354 349.12436867076457 L 1535.1303956019995 348.11534084577823 L 1534.2797025984385 347.0362419151183 L 1533.5162971238035 345.8937248825291 L 1532.8448858267036 344.69483374544205 L 1532.2696081810525 343.44696006638907 L 1531.7940109648348 342.1577974015616 L 1531.4210263930406 340.83529386747836 L 1531.152954039585 339.48760313820407 L 1530.9914466596701 338.1230341752373 L 1530.9375 336.75 L 1530.9914466596701 335.3769658247627 L 1531.152954039585 334.01239686179593 L 1531.4210263930406 332.66470613252164 L 1531.7940109648348 331.3422025984384 L 1532.2696081810525 330.05303993361093 L 1532.8448858267036 328.80516625455795 L 1533.5162971238035 327.6062751174709 L 1534.2797025984385 326.4637580848817 L 1535.1303956019995 325.38465915422177 L 1536.0631313292354 324.37563132923543 L 1537.0721591542217 323.44289560199945 L 1538.1512580848816 322.5922025984384 L 1539.293775117471 321.8287971238034 L 1540.492666254558 321.15738582670355 L 1541.740539933611 320.5821081810525 L 1543.0297025984385 320.1065109648348 L 1544.3522061325216 319.7335263930407 L 1545.699896861796 319.4654540395851 L 1547.0644658247627 319.30394665967026 L 1548.4375 319.25 L 1549.8105341752373 319.30394665967026 L 1551.1751031382041 319.4654540395851 L 1552.5227938674784 319.7335263930407 L 1553.8452974015618 320.10651096483485 L 1555.1344600663892 320.5821081810525 L 1556.382333745442 321.1573858267036 L 1557.581224882529 321.82879712380344 L 1558.7237419151184 322.5922025984385 L 1559.8028408457783 323.44289560199957 L 1560.8118686707646 324.3756313292355 L 1561.7446043980005 325.3846591542219 L 1562.5952974015618 326.4637580848818 L 1563.3587028761967 327.60627511747106 L 1564.0301141732966 328.80516625455806 L 1564.6053918189475 330.0530399336111 L 1565.0809890351652 331.3422025984386 L 1565.4539736069594 332.6647061325218 L 1565.722045960415 334.01239686179616 L 1565.8835533403299 335.3769658247629 Z" fill-opacity="1" stroke-opacity="1" stroke-miterlimit="10" stroke-width="6"/><text fill="rgb(255,255,255)" stroke="none" font-family="times new roman" font-size="10px" font-style="normal" font-weight="normal" text-decoration="normal" x="1548.4375" y="341.75" text-anchor="middle" dominant-baseline="text-after-edge" fill-opacity="1">*1.54</text><path fill="rgb(69,90,100)" stroke="rgb(76,175,80)" paint-order="fill stroke markers" d=" M 1005.1875 326.75 L 1005.1875 346.75 L 1100.1875 346.75 L 1100.1875 326.75 Z" fill-opacity="1" stroke-opacity="1" stroke-miterlimit="10" stroke-width="2"/><text fill="rgb(255,255,255)" stroke="none" font-family="times new roman" font-size="10px" font-style="normal" font-weight="normal" text-decoration="normal" x="1052.6875" y="341.75" text-anchor="middle" dominant-baseline="text-after-edge" fill-opacity="1">42132385A&gt;G</text><path fill="rgb(69,90,100)" stroke="rgb(76,175,80)" paint-order="fill stroke markers" d=" M 292.9375 326.75 L 335.4375 326.75 L 335.4375 326.75 A 5 5 0 0 1 340.4375 331.75 L 340.4375 341.75 L 340.4375 341.75 A 5 5 0 0 1 335.4375 346.75 L 250.4375 346.75 L 250.4375 346.75 A 5 5 0 0 1 245.4375 341.75 L 245.4375 331.75 L 245.4375 331.75 A 5 5 0 0 1 250.4375 326.75 L 292.9375 326.75 Z" fill-opacity="1" stroke-opacity="1" stroke-miterlimit="10" stroke-width="2"/><text fill="rgb(255,255,255)" stroke="none" font-family="times new roman" font-size="10px" font-style="normal" font-weight="normal" text-decoration="normal" x="292.9375" y="341.75" text-anchor="middle" dominant-baseline="text-after-edge" fill-opacity="1">42132049dup</text><path fill="rgb(69,90,100)" stroke="rgb(76,175,80)" paint-order="fill stroke markers" d=" M 1272.6875 336.75 L 1272.6335533403299 338.1230341752373 L 1272.472045960415 339.48760313820407 L 1272.2039736069594 340.83529386747836 L 1271.8309890351652 342.1577974015616 L 1271.3553918189475 343.44696006638907 L 1270.7801141732964 344.69483374544205 L 1270.1087028761965 345.8937248825291 L 1269.3452974015615 347.0362419151183 L 1268.4946043980005 348.11534084577823 L 1267.5618686707646 349.12436867076457 L 1266.5528408457783 350.05710439800055 L 1265.4737419151184 350.9077974015616 L 1264.331224882529 351.6712028761966 L 1263.132333745442 352.34261417329645 L 1261.884460066389 352.9178918189475 L 1260.5952974015615 353.3934890351652 L 1259.2727938674784 353.7664736069593 L 1257.9251031382041 354.0345459604149 L 1256.5605341752373 354.19605334032974 L 1255.1875 354.25 L 1253.8144658247627 354.19605334032974 L 1252.4498968617959 354.0345459604149 L 1251.1022061325216 353.7664736069593 L 1249.7797025984385 353.3934890351652 L 1248.490539933611 352.9178918189475 L 1247.242666254558 352.34261417329645 L 1246.043775117471 351.6712028761966 L 1244.9012580848816 350.9077974015616 L 1243.8221591542217 350.05710439800055 L 1242.8131313292354 349.12436867076457 L 1241.8803956019995 348.11534084577823 L 1241.0297025984385 347.0362419151183 L 1240.2662971238035 345.8937248825291 L 1239.5948858267036 344.69483374544205 L 1239.0196081810525 343.44696006638907 L 1238.5440109648348 342.1577974015616 L 1238.1710263930406 340.83529386747836 L 1237.902954039585 339.48760313820407 L 1237.7414466596701 338.1230341752373 L 1237.6875 336.75 L 1237.7414466596701 335.3769658247627 L 1237.902954039585 334.01239686179593 L 1238.1710263930406 332.66470613252164 L 1238.5440109648348 331.3422025984384 L 1239.0196081810525 330.05303993361093 L 1239.5948858267036 328.80516625455795 L 1240.2662971238035 327.6062751174709 L 1241.0297025984385 326.4637580848817 L 1241.8803956019995 325.38465915422177 L 1242.8131313292354 324.37563132923543 L 1243.8221591542217 323.44289560199945 L 1244.9012580848816 322.5922025984384 L 1246.043775117471 321.8287971238034 L 1247.242666254558 321.15738582670355 L 1248.490539933611 320.5821081810525 L 1249.7797025984385 320.1065109648348 L 1251.1022061325216 319.7335263930407 L 1252.449896861796 319.4654540395851 L 1253.8144658247627 319.30394665967026 L 1255.1875 319.25 L 1256.5605341752373 319.30394665967026 L 1257.9251031382041 319.4654540395851 L 1259.2727938674784 319.7335263930407 L 1260.5952974015618 320.10651096483485 L 1261.8844600663892 320.5821081810525 L 1263.132333745442 321.1573858267036 L 1264.331224882529 321.82879712380344 L 1265.4737419151184 322.5922025984385 L 1266.5528408457783 323.44289560199957 L 1267.5618686707646 324.3756313292355 L 1268.4946043980005 325.3846591542219 L 1269.3452974015618 326.4637580848818 L 1270.1087028761967 327.60627511747106 L 1270.7801141732966 328.80516625455806 L 1271.3553918189475 330.0530399336111 L 1271.8309890351652 331.3422025984386 L 1272.2039736069594 332.6647061325218 L 1272.472045960415 334.01239686179616 L 1272.6335533403299 335.3769658247629 Z" fill-opacity="1" stroke-opacity="1" stroke-miterlimit="10" stroke-width="6"/><text fill="rgb(255,255,255)" stroke="none" font-family="times new roman" font-size="10px" font-style="normal" font-weight="normal" text-decoration="normal" x="1255.1875" y="341.75" text-anchor="middle" dominant-baseline="text-after-edge" fill-opacity="1">*1.58</text><path fill="rgb(176,190,197)" stroke="none" paint-order="stroke fill markers" d=" M 1040.3125 374.625 L 1040.3125 584.625 L 1115.3125 584.625 L 1115.3125 374.62500000000006 Z" fill-opacity="0.8"/><text fill="rgb(0,0,0)" stroke="none" font-family="times new roman" font-size="10px" font-style="normal" font-weight="normal" text-decoration="normal" x="1045.3125" y="389.625" text-anchor="start" dominant-baseline="text-after-edge" fill-opacity="0.8">42126548G&gt;A </text><path fill="rgb(176,190,197)" stroke="none" paint-order="stroke fill markers" d=" M 292.9375 374.625 L 359.9375 374.625 L 359.9375 374.625 A 8 8 0 0 1 367.9375 382.625 L 367.9375 576.625 L 367.9375 576.625 A 8 8 0 0 1 359.9375 584.625 L 225.9375 584.625 L 225.9375 584.625 A 8 8 0 0 1 217.9375 576.625 L 217.9375 382.625 L 217.9375 382.625 A 8 8 0 0 1 225.9375 374.625 L 292.9375 374.625 Z" fill-opacity="0.8"/><text fill="rgb(0,0,0)" stroke="none" font-family="times new roman" font-size="10px" font-style="normal" font-weight="normal" text-decoration="normal" x="222.9375" y="389.625" text-anchor="start" dominant-baseline="text-after-edge" fill-opacity="0.8">42125924A&gt;G </text><text fill="rgb(0,0,0)" stroke="none" font-family="times new roman" font-size="10px" font-style="normal" font-weight="normal" text-decoration="normal" x="222.9375" y="399.625" text-anchor="start" dominant-baseline="text-after-edge" fill-opacity="0.8">42126069A&gt;C </text><text fill="rgb(0,0,0)" stroke="none" font-family="times new roman" font-size="10px" font-style="normal" font-weight="normal" text-decoration="normal" x="222.9375" y="409.625" text-anchor="start" dominant-baseline="text-after-edge" fill-opacity="0.8">42132027C&gt;T </text><text fill="rgb(0,0,0)" stroke="none" font-family="times new roman" font-size="10px" font-style="normal" font-weight="normal" text-decoration="normal" x="222.9375" y="419.625" text-anchor="start" dominant-baseline="text-after-edge" fill-opacity="0.8">42132844C&gt;A </text><text fill="rgb(0,0,0)" stroke="none" font-family="times new roman" font-size="10px" font-style="normal" font-weight="normal" text-decoration="normal" x="222.9375" y="429.625" text-anchor="start" dominant-baseline="text-after-edge" fill-opacity="0.8">42132851T&gt;C </text><text fill="rgb(0,0,0)" stroke="none" font-family="times new roman" font-size="10px" font-style="normal" font-weight="normal" text-decoration="normal" x="222.9375" y="439.625" text-anchor="start" dominant-baseline="text-after-edge" fill-opacity="0.8">42132969C&gt;T </text><text fill="rgb(0,0,0)" stroke="none" font-family="times new roman" font-size="10px" font-style="normal" font-weight="normal" text-decoration="normal" x="222.9375" y="449.625" text-anchor="start" dominant-baseline="text-after-edge" fill-opacity="0.8">42133400T&gt;G </text><text fill="rgb(0,0,0)" stroke="none" font-family="times new roman" font-size="10px" font-style="normal" font-weight="normal" text-decoration="normal" x="222.9375" y="459.625" text-anchor="start" dominant-baseline="text-after-edge" fill-opacity="0.8">42133533A&gt;C </text><text fill="rgb(0,0,0)" stroke="none" font-family="times new roman" font-size="10px" font-style="normal" font-weight="normal" text-decoration="normal" x="222.9375" y="469.625" text-anchor="start" dominant-baseline="text-after-edge" fill-opacity="0.8">42134096del </text><text fill="rgb(0,0,0)" stroke="none" font-family="times new roman" font-size="10px" font-style="normal" font-weight="normal" text-decoration="normal" x="222.9375" y="479.625" text-anchor="start" dominant-baseline="text-after-edge" fill-opacity="0.8">42134820T&gt;G </text><text fill="rgb(0,0,0)" stroke="none" font-family="times new roman" font-size="10px" font-style="normal" font-weight="normal" text-decoration="normal" x="222.9375" y="489.625" text-anchor="start" dominant-baseline="text-after-edge" fill-opacity="0.8">42135064_42135066dup </text><text fill="rgb(0,0,0)" stroke="none" font-family="times new roman" font-size="10px" font-style="normal" font-weight="normal" text-decoration="normal" x="222.9375" y="499.625" text-anchor="start" dominant-baseline="text-after-edge" fill-opacity="0.8">42135083G&gt;A </text><text fill="rgb(0,0,0)" stroke="none" font-family="times new roman" font-size="10px" font-style="normal" font-weight="normal" text-decoration="normal" x="222.9375" y="509.625" text-anchor="start" dominant-baseline="text-after-edge" fill-opacity="0.8">42135201T&gt;C </text><text fill="rgb(0,0,0)" stroke="none" font-family="times new roman" font-size="10px" font-style="normal" font-weight="normal" text-decoration="normal" x="222.9375" y="519.625" text-anchor="start" dominant-baseline="text-after-edge" fill-opacity="0.8">42135691T&gt;C </text><g transform="scale(1.4933385579937304,1.4933385579937304) translate(115.27013907110995,-64.60351613749671)"/></g></svg>