<svg version="1.1" xmlns="http://www.w3.org/2000/svg" xmlns:xlink="http://www.w3.org/1999/xlink" width="1017" height="608"><defs/><g transform="translate(-112.00891668884753,50.803832845355316) scale(1.0188980569603407,1.0188980569603407)"><path fill="none" stroke="rgb(55,71,79)" paint-order="fill stroke markers" d=" M 200.69132653061226 91.5 L 231.00863200844162 131.64994509226054" stroke-opacity="1" stroke-linejoin="round" stroke-miterlimit="10" stroke-width="2"/><path fill="none" stroke="rgb(120,144,156)" paint-order="fill stroke markers" d=" M 512.9585616438357 165 L 582.3524672249706 270.0986536809721" stroke-opacity="1" stroke-linejoin="round" stroke-miterlimit="10"/><path fill="rgb(120,144,156)" stroke="none" paint-order="stroke fill markers" d=" M 575.0306638436165 266.9043313358117 L 583.4544701383065 271.7676622426635 L 582.2908510869739 262.1106186628004 Z" fill-opacity="1"/><path fill="none" stroke="rgb(55,71,79)" paint-order="fill stroke markers" d=" M 365.22835465988027 94.85984806308466 L 393.0086320084416 131.64994509226054" stroke-opacity="1" stroke-linejoin="round" stroke-miterlimit="10" stroke-width="2"/><path fill="none" stroke="rgb(120,144,156)" paint-order="fill stroke markers" d=" M 695.4215753424658 163 L 712.411349983177 186.22572188711476" stroke-opacity="1" stroke-linejoin="round" stroke-miterlimit="10"/><path fill="rgb(120,144,156)" stroke="none" paint-order="stroke fill markers" d=" M 704.9447217947902 183.38636218880484 L 713.5921592031432 187.8399367383793 L 711.9665563977909 178.24984208195224 Z" fill-opacity="1"/><path fill="none" stroke="rgb(120,144,156)" paint-order="fill stroke markers" d=" M 269.25 304.3602941176471 L 521.7223457401171 408.61652159386017" stroke-opacity="1" stroke-linejoin="round" stroke-miterlimit="10"/><path fill="rgb(120,144,156)" stroke="none" paint-order="stroke fill markers" d=" M 513.8692653780085 410.0799520931541 L 523.5709353141992 409.3798803473929 L 517.1898759558759 402.038587445897 Z" fill-opacity="1"/><path fill="none" stroke="rgb(55,71,79)" paint-order="fill stroke markers" d=" M 596.625 91.5 L 596.625 131.5" stroke-opacity="1" stroke-linejoin="round" stroke-miterlimit="10" stroke-width="2"/><path fill="none" stroke="rgb(120,144,156)" paint-order="fill stroke markers" d=" M 798.1907534246575 163 L 796.5870618858751 181.8821745695346" stroke-opacity="1" stroke-linejoin="round" stroke-miterlimit="10"/><path fill="rgb(120,144,156)" stroke="none" paint-order="stroke fill markers" d=" M 792.819666358048 174.8380826524094 L 796.417808219178 183.875 L 801.4884569805726 175.57433610254165 Z" fill-opacity="1"/><path fill="none" stroke="rgb(120,144,156)" paint-order="fill stroke markers" d=" M 347.51037888942403 301.75107165031307 L 524.8415692665953 405.4898180209583" stroke-opacity="1" stroke-linejoin="round" stroke-miterlimit="10"/><path fill="rgb(120,144,156)" stroke="none" paint-order="stroke fill markers" d=" M 516.8619437670659 405.86140500573856 L 526.5678734932169 406.49970599353185 L 521.254956447761 398.35198161993503 Z" fill-opacity="1"/><path fill="none" stroke="rgb(120,144,156)" paint-order="fill stroke markers" d=" M 588.2175281327476 308.30633580852214 L 557.3566875478856 400.1042599211198" stroke-opacity="1" stroke-linejoin="round" stroke-miterlimit="10"/><path fill="rgb(120,144,156)" stroke="none" paint-order="stroke fill markers" d=" M 555.3684558768379 392.36737199235654 L 556.7193732193732 402 L 563.6149252199667 395.1396893213856 Z" fill-opacity="1"/><path fill="none" stroke="rgb(120,144,156)" paint-order="fill stroke markers" d=" M 922.0270547945206 165 L 1000.587266608901 270.80987938099224" stroke-opacity="1" stroke-linejoin="round" stroke-miterlimit="10"/><path fill="rgb(120,144,156)" stroke="none" paint-order="stroke fill markers" d=" M 993.1006626794323 268.023616363389 L 1001.7795095769987 272.4156678804596 L 1000.0858426521154 262.8373594521641 Z" fill-opacity="1"/><path fill="none" stroke="rgb(120,144,156)" paint-order="fill stroke markers" d=" M 259.1371168780737 174.0766476800801 L 311.73693277854795 265.0668505410901" stroke-opacity="1" stroke-linejoin="round" stroke-miterlimit="10"/><path fill="rgb(120,144,156)" stroke="none" paint-order="stroke fill markers" d=" M 304.6177327592757 261.4433865788581 L 312.7378831219263 266.7983523199199 L 312.1497654971854 257.08925258516234 Z" fill-opacity="1"/><path fill="none" stroke="rgb(120,144,156)" paint-order="fill stroke markers" d=" M 712.5 330.52848101265823 L 576.64803850141 405.97790899684344" stroke-opacity="1" stroke-linejoin="round" stroke-miterlimit="10"/><path fill="rgb(120,144,156)" stroke="none" paint-order="stroke fill markers" d=" M 580.3932935244698 398.92202033472256 L 574.8995934683921 406.9489599566366 L 584.6173651995699 406.52775622835026 Z" fill-opacity="1"/><path fill="none" stroke="rgb(120,144,156)" paint-order="fill stroke markers" d=" M 1025.8784246575342 165 L 1016.147682899572 266.47773547589156" stroke-opacity="1" stroke-linejoin="round" stroke-miterlimit="10"/><path fill="rgb(120,144,156)" stroke="none" paint-order="stroke fill markers" d=" M 1012.4570773327836 259.3931091236842 L 1015.9567777529434 268.4686034335901 L 1021.1173529487721 260.22354651151875 Z" fill-opacity="1"/><path fill="none" stroke="rgb(120,144,156)" paint-order="fill stroke markers" d=" M 994.2797533461073 294.47516713229476 L 582.142335495907 411.51419113344394" stroke-opacity="1" stroke-linejoin="round" stroke-miterlimit="10"/><path fill="rgb(120,144,156)" stroke="none" paint-order="stroke fill markers" d=" M 587.3991611327654 405.49935246364845 L 580.2184089930881 412.0605489024483 L 589.7758174279344 413.8684327509102 Z" fill-opacity="1"/><path fill="none" stroke="rgb(55,71,79)" paint-order="fill stroke markers" d=" M 327.094204426947 172.49807683286787 L 325.84928229818786 263.3773922322863" stroke-opacity="1" stroke-linejoin="round" stroke-miterlimit="10" stroke-width="2"/><path fill="none" stroke="rgb(120,144,156)" paint-order="fill stroke markers" d=" M 596.344204426947 172.49807683286787 L 595.0581902631069 266.3771107931938" stroke-opacity="1" stroke-linejoin="round" stroke-miterlimit="10"/><path fill="rgb(120,144,156)" stroke="none" paint-order="stroke fill markers" d=" M 590.8003705614718 259.61815588963304 L 595.030795573053 268.37692316713213 L 599.4995543881035 259.7373227913678 Z" fill-opacity="1"/><path fill="none" stroke="rgb(55,71,79)" paint-order="fill stroke markers" d=" M 273.95712129225086 96.83575741549828 L 257.7789466852489 129.19210662950215" stroke-opacity="1" stroke-linejoin="round" stroke-miterlimit="10" stroke-width="2"/><path fill="none" stroke="rgb(120,144,156)" paint-order="fill stroke markers" d=" M 395.1675787853615 173.81316173458396 L 339.74329738833563 265.35100205093886" stroke-opacity="1" stroke-linejoin="round" stroke-miterlimit="10"/><path fill="rgb(120,144,156)" stroke="none" paint-order="stroke fill markers" d=" M 339.4924138037332 257.3666700546491 L 338.7074212146385 267.06183826541604 L 346.93455133670886 261.8727314102316 Z" fill-opacity="1"/><path fill="none" stroke="rgb(55,71,79)" paint-order="fill stroke markers" d=" M 438.625 91.5 L 419.7789466852489 129.19210662950215" stroke-opacity="1" stroke-linejoin="round" stroke-miterlimit="10" stroke-width="2"/><path fill="rgb(69,90,100)" stroke="rgb(76,175,80)" paint-order="fill stroke markers" d=" M 370.375 78.5 L 370.32105334032974 79.87303417523728 L 370.1595459604149 81.23760313820404 L 369.8914736069593 82.58529386747834 L 369.5184890351652 83.90779740156158 L 369.0428918189475 85.19696006638907 L 368.46761417329645 86.44483374544207 L 367.7962028761966 87.6437248825291 L 367.0327974015616 88.78624191511828 L 366.18210439800055 89.8653408457782 L 365.24936867076457 90.87436867076458 L 364.24034084577823 91.80710439800055 L 363.1612419151183 92.65779740156158 L 362.0187248825291 93.42120287619662 L 360.81983374544205 94.09261417329644 L 359.57196006638907 94.66789181894751 L 358.2827974015616 95.14348903516519 L 356.96029386747836 95.51647360695934 L 355.61260313820407 95.7845459604149 L 354.2480341752373 95.94605334032974 L 352.875 96 L 351.5019658247627 95.94605334032974 L 350.13739686179593 95.7845459604149 L 348.78970613252164 95.51647360695934 L 347.4672025984384 95.14348903516519 L 346.17803993361093 94.66789181894751 L 344.93016625455795 94.09261417329644 L 343.7312751174709 93.42120287619662 L 342.5887580848817 92.65779740156158 L 341.50965915422177 91.80710439800055 L 340.50063132923543 90.87436867076458 L 339.56789560199945 89.86534084577822 L 338.7172025984384 88.78624191511828 L 337.9537971238034 87.64372488252911 L 337.28238582670355 86.44483374544207 L 336.7071081810525 85.19696006638907 L 336.2315109648348 83.90779740156158 L 335.8585263930407 82.58529386747834 L 335.5904540395851 81.23760313820404 L 335.42894665967026 79.8730341752373 L 335.375 78.5 L 335.42894665967026 77.12696582476272 L 335.5904540395851 75.76239686179596 L 335.8585263930407 74.41470613252166 L 336.2315109648348 73.09220259843842 L 336.7071081810525 71.80303993361093 L 337.28238582670355 70.55516625455793 L 337.9537971238034 69.3562751174709 L 338.7172025984384 68.21375808488172 L 339.56789560199945 67.1346591542218 L 340.50063132923543 66.12563132923542 L 341.50965915422177 65.19289560199947 L 342.5887580848817 64.34220259843842 L 343.7312751174709 63.57879712380338 L 344.93016625455795 62.90738582670356 L 346.17803993361093 62.332108181052476 L 347.46720259843846 61.856510964834804 L 348.7897061325217 61.48352639304065 L 350.137396861796 61.21545403958508 L 351.50196582476275 61.05394665967026 L 352.87500000000006 61 L 354.24803417523736 61.05394665967027 L 355.6126031382041 61.2154540395851 L 356.9602938674784 61.48352639304068 L 358.28279740156165 61.85651096483484 L 359.5719600663892 62.33210818105252 L 360.81983374544217 62.90738582670361 L 362.0187248825292 63.57879712380345 L 363.16124191511835 64.34220259843849 L 364.2403408457783 65.19289560199954 L 365.2493686707647 66.12563132923552 L 366.18210439800066 67.1346591542219 L 367.03279740156165 68.21375808488185 L 367.7962028761967 69.35627511747103 L 368.4676141732965 70.55516625455807 L 369.04289181894757 71.80303993361109 L 369.51848903516526 73.09220259843859 L 369.8914736069594 74.41470613252184 L 370.15954596041496 75.76239686179616 L 370.32105334032974 77.12696582476292 Z" fill-opacity="1" stroke-opacity="1" stroke-miterlimit="10" stroke-width="6"/><text fill="rgb(255,255,255)" stroke="none" font-family="times new roman" font-size="10px" font-style="normal" font-weight="normal" text-decoration="normal" x="352.875" y="83.5" text-anchor="middle" dominant-baseline="text-after-edge" fill-opacity="1">*39.2</text><path fill="rgb(69,90,100)" stroke="rgb(76,175,80)" paint-order="fill stroke markers" d=" M 864.875 142 L 864.875 162 L 959.875 162 L 959.875 142 Z" fill-opacity="1" stroke-opacity="1" stroke-miterlimit="10" stroke-width="6"/><text fill="rgb(255,255,255)" stroke="none" font-family="times new roman" font-size="10px" font-style="normal" font-weight="normal" text-decoration="normal" x="912.375" y="157" text-anchor="middle" dominant-baseline="text-after-edge" fill-opacity="1">42130482C&gt;A</text><path fill="rgb(69,90,100)" stroke="rgb(76,175,80)" paint-order="fill stroke markers" d=" M 549.125 68.5 L 549.125 88.5 L 644.125 88.5 L 644.125 68.5 Z" fill-opacity="1" stroke-opacity="1" stroke-miterlimit="10" stroke-width="6"/><text fill="rgb(255,255,255)" stroke="none" font-family="times new roman" font-size="10px" font-style="normal" font-weight="normal" text-decoration="normal" x="596.625" y="83.5" text-anchor="middle" dominant-baseline="text-after-edge" fill-opacity="1">42127407T&gt;G</text><path fill="rgb(69,90,100)" stroke="rgb(76,175,80)" paint-order="fill stroke markers" d=" M 348 288.875 L 347.9306400089954 290.6403296538765 L 347.7229876633906 292.3947754634052 L 347.37832320894773 294.12752068675786 L 346.89877161664094 295.8278823734363 L 346.28728948150393 297.48537722821453 L 345.5476467942383 299.0897862441398 L 344.68440369796707 300.6312177061088 L 343.7028823734363 302.10016817658067 L 342.6091342260007 303.48758108742913 L 341.40990257669733 304.78490257669733 L 340.11258108742913 305.9841342260007 L 338.72516817658067 307.0778823734363 L 337.2562177061088 308.05940369796707 L 335.7147862441398 308.9226467942383 L 334.11037722821453 309.66228948150393 L 332.4528823734363 310.27377161664094 L 330.75252068675786 310.75332320894773 L 329.0197754634052 311.0979876633906 L 327.2653296538765 311.3056400089954 L 325.5 311.375 L 323.7346703461235 311.3056400089954 L 321.9802245365948 311.0979876633906 L 320.24747931324214 310.75332320894773 L 318.5471176265637 310.27377161664094 L 316.88962277178547 309.66228948150393 L 315.2852137558602 308.9226467942383 L 313.7437822938912 308.05940369796707 L 312.27483182341933 307.0778823734363 L 310.88741891257087 305.9841342260007 L 309.59009742330267 304.78490257669733 L 308.3908657739993 303.48758108742913 L 307.2971176265637 302.10016817658067 L 306.31559630203293 300.6312177061088 L 305.4523532057617 299.0897862441398 L 304.71271051849607 297.48537722821453 L 304.10122838335906 295.8278823734363 L 303.62167679105227 294.12752068675786 L 303.2770123366094 292.3947754634052 L 303.0693599910046 290.6403296538765 L 303 288.875 L 303.0693599910046 287.1096703461235 L 303.2770123366094 285.3552245365948 L 303.62167679105227 283.62247931324214 L 304.10122838335906 281.9221176265637 L 304.71271051849607 280.26462277178547 L 305.4523532057617 278.6602137558602 L 306.31559630203293 277.1187822938912 L 307.2971176265637 275.64983182341933 L 308.3908657739993 274.26241891257087 L 309.59009742330267 272.96509742330267 L 310.88741891257087 271.76586577399934 L 312.27483182341933 270.6721176265637 L 313.7437822938912 269.69059630203293 L 315.28521375586024 268.8273532057617 L 316.8896227717855 268.087710518496 L 318.5471176265637 267.47622838335906 L 320.2474793132422 266.99667679105227 L 321.98022453659485 266.6520123366094 L 323.73467034612355 266.4443599910046 L 325.50000000000006 266.375 L 327.2653296538766 266.4443599910046 L 329.01977546340527 266.6520123366094 L 330.752520686758 266.9966767910523 L 332.4528823734364 267.47622838335906 L 334.11037722821465 268.0877105184961 L 335.71478624413993 268.82735320576177 L 337.256217706109 269.690596302033 L 338.7251681765808 270.67211762656376 L 340.11258108742925 271.7658657739994 L 341.40990257669745 272.9650974233028 L 342.60913422600083 274.262418912571 L 343.7028823734364 275.6498318234195 L 344.6844036979672 277.11878229389134 L 345.5476467942384 278.6602137558604 L 346.28728948150405 280.2646227717857 L 346.89877161664106 281.92211762656393 L 347.3783232089478 283.62247931324237 L 347.72298766339065 285.3552245365951 L 347.9306400089954 287.1096703461238 Z" fill-opacity="1" stroke-opacity="1" stroke-miterlimit="10" stroke-width="6"/><text fill="rgb(255,255,255)" stroke="none" font-family="times new roman" font-size="15px" font-style="normal" font-weight="normal" text-decoration="normal" x="325.5" y="296.375" text-anchor="middle" dominant-baseline="text-after-edge" fill-opacity="1">*2</text><path fill="rgb(3,169,244)" stroke="none" paint-order="stroke fill markers" d=" M 325.5 256.375 L 350 256.375 L 350 256.375 A 8 8 0 0 1 358 264.375 L 358 313.375 L 358 313.375 A 8 8 0 0 1 350 321.375 L 301 321.375 L 301 321.375 A 8 8 0 0 1 293 313.375 L 293 264.375 L 293 264.375 A 8 8 0 0 1 301 256.375 L 325.5 256.375 Z" fill-opacity="0.15"/><path fill="rgb(69,90,100)" stroke="rgb(76,175,80)" paint-order="fill stroke markers" d=" M 979.625 142 L 979.625 162 L 1074.625 162 L 1074.625 142 Z" fill-opacity="1" stroke-opacity="1" stroke-miterlimit="10" stroke-width="6"/><text fill="rgb(255,255,255)" stroke="none" font-family="times new roman" font-size="10px" font-style="normal" font-weight="normal" text-decoration="normal" x="1027.125" y="157" text-anchor="middle" dominant-baseline="text-after-edge" fill-opacity="1">42129950A&gt;C</text><path fill="rgb(69,90,100)" stroke="rgb(76,175,80)" paint-order="fill stroke markers" d=" M 612.25 288.875 L 612.1960533403297 290.2480341752373 L 612.0345459604149 291.61260313820407 L 611.7664736069594 292.96029386747836 L 611.3934890351652 294.2827974015616 L 610.9178918189475 295.57196006638907 L 610.3426141732964 296.81983374544205 L 609.6712028761966 298.0187248825291 L 608.9077974015615 299.1612419151183 L 608.0571043980005 300.24034084577823 L 607.1243686707646 301.24936867076457 L 606.1153408457782 302.18210439800055 L 605.0362419151182 303.0327974015616 L 603.8937248825291 303.7962028761966 L 602.6948337454421 304.46761417329645 L 601.4469600663891 305.0428918189475 L 600.1577974015615 305.5184890351652 L 598.8352938674783 305.8914736069593 L 597.487603138204 306.1595459604149 L 596.1230341752373 306.32105334032974 L 594.75 306.375 L 593.3769658247627 306.32105334032974 L 592.012396861796 306.1595459604149 L 590.6647061325217 305.8914736069593 L 589.3422025984385 305.5184890351652 L 588.0530399336109 305.0428918189475 L 586.8051662545579 304.46761417329645 L 585.6062751174709 303.7962028761966 L 584.4637580848818 303.0327974015616 L 583.3846591542218 302.18210439800055 L 582.3756313292354 301.24936867076457 L 581.4428956019995 300.24034084577823 L 580.5922025984385 299.1612419151183 L 579.8287971238034 298.0187248825291 L 579.1573858267036 296.81983374544205 L 578.5821081810525 295.57196006638907 L 578.1065109648348 294.2827974015616 L 577.7335263930406 292.96029386747836 L 577.4654540395851 291.61260313820407 L 577.3039466596703 290.2480341752373 L 577.25 288.875 L 577.3039466596703 287.5019658247627 L 577.4654540395851 286.13739686179593 L 577.7335263930406 284.78970613252164 L 578.1065109648348 283.4672025984384 L 578.5821081810525 282.17803993361093 L 579.1573858267036 280.93016625455795 L 579.8287971238034 279.7312751174709 L 580.5922025984385 278.5887580848817 L 581.4428956019995 277.50965915422177 L 582.3756313292354 276.50063132923543 L 583.3846591542218 275.56789560199945 L 584.4637580848818 274.7172025984384 L 585.6062751174709 273.9537971238034 L 586.8051662545579 273.28238582670355 L 588.053039933611 272.7071081810525 L 589.3422025984385 272.2315109648348 L 590.6647061325217 271.8585263930407 L 592.012396861796 271.5904540395851 L 593.3769658247628 271.42894665967026 L 594.7500000000001 271.375 L 596.1230341752373 271.42894665967026 L 597.4876031382041 271.5904540395851 L 598.8352938674784 271.8585263930407 L 600.1577974015617 272.23151096483485 L 601.4469600663891 272.7071081810525 L 602.6948337454421 273.2823858267036 L 603.8937248825292 273.95379712380344 L 605.0362419151184 274.7172025984385 L 606.1153408457783 275.56789560199957 L 607.1243686707646 276.5006313292355 L 608.0571043980007 277.5096591542219 L 608.9077974015617 278.5887580848818 L 609.6712028761967 279.73127511747106 L 610.3426141732965 280.93016625455806 L 610.9178918189476 282.1780399336111 L 611.3934890351652 283.4672025984386 L 611.7664736069594 284.7897061325218 L 612.0345459604149 286.13739686179616 L 612.1960533403297 287.5019658247629 Z" fill-opacity="1" stroke-opacity="1" stroke-miterlimit="10" stroke-width="6"/><text fill="rgb(255,255,255)" stroke="none" font-family="times new roman" font-size="10px" font-style="normal" font-weight="normal" text-decoration="normal" x="594.75" y="293.875" text-anchor="middle" dominant-baseline="text-after-edge" fill-opacity="1">*1.54</text><path fill="rgb(69,90,100)" stroke="rgb(69,90,100)" paint-order="fill stroke markers" d=" M 531.75 403 L 513 420.5 L 531.75 438 L 569.25 438 L 588 420.5 L 569.25 403 Z" fill-opacity="1" stroke-opacity="1" stroke-miterlimit="10" stroke-width="2"/><text fill="rgb(255,255,255)" stroke="none" font-family="times new roman" font-size="10px" font-style="normal" font-weight="normal" text-decoration="normal" x="550.5" y="425.5" text-anchor="middle" dominant-baseline="text-after-edge" fill-opacity="1">NA19035-B</text><path fill="rgb(69,90,100)" stroke="rgb(76,175,80)" paint-order="fill stroke markers" d=" M 687.375 142 L 729.875 142 L 729.875 142 A 5 5 0 0 1 734.875 147 L 734.875 157 L 734.875 157 A 5 5 0 0 1 729.875 162 L 644.875 162 L 644.875 162 A 5 5 0 0 1 639.875 157 L 639.875 147 L 639.875 147 A 5 5 0 0 1 644.875 142 L 687.375 142 Z" fill-opacity="1" stroke-opacity="1" stroke-miterlimit="10" stroke-width="2"/><text fill="rgb(255,255,255)" stroke="none" font-family="times new roman" font-size="10px" font-style="normal" font-weight="normal" text-decoration="normal" x="687.375" y="157" text-anchor="middle" dominant-baseline="text-after-edge" fill-opacity="1">42132025_4213202…</text><path fill="rgb(69,90,100)" stroke="rgb(76,175,80)" paint-order="fill stroke markers" d=" M 300.625 78.5 L 300.57105334032974 79.87303417523728 L 300.4095459604149 81.23760313820404 L 300.1414736069593 82.58529386747834 L 299.7684890351652 83.90779740156158 L 299.2928918189475 85.19696006638907 L 298.71761417329645 86.44483374544207 L 298.0462028761966 87.6437248825291 L 297.2827974015616 88.78624191511828 L 296.43210439800055 89.8653408457782 L 295.49936867076457 90.87436867076458 L 294.49034084577823 91.80710439800055 L 293.4112419151183 92.65779740156158 L 292.2687248825291 93.42120287619662 L 291.06983374544205 94.09261417329644 L 289.82196006638907 94.66789181894751 L 288.5327974015616 95.14348903516519 L 287.21029386747836 95.51647360695934 L 285.86260313820407 95.7845459604149 L 284.4980341752373 95.94605334032974 L 283.125 96 L 281.7519658247627 95.94605334032974 L 280.38739686179593 95.7845459604149 L 279.03970613252164 95.51647360695934 L 277.7172025984384 95.14348903516519 L 276.42803993361093 94.66789181894751 L 275.18016625455795 94.09261417329644 L 273.9812751174709 93.42120287619662 L 272.8387580848817 92.65779740156158 L 271.75965915422177 91.80710439800055 L 270.75063132923543 90.87436867076458 L 269.81789560199945 89.86534084577822 L 268.9672025984384 88.78624191511828 L 268.2037971238034 87.64372488252911 L 267.53238582670355 86.44483374544207 L 266.9571081810525 85.19696006638907 L 266.4815109648348 83.90779740156158 L 266.1085263930407 82.58529386747834 L 265.8404540395851 81.23760313820404 L 265.67894665967026 79.8730341752373 L 265.625 78.5 L 265.67894665967026 77.12696582476272 L 265.8404540395851 75.76239686179596 L 266.1085263930407 74.41470613252166 L 266.4815109648348 73.09220259843842 L 266.9571081810525 71.80303993361093 L 267.53238582670355 70.55516625455793 L 268.2037971238034 69.3562751174709 L 268.9672025984384 68.21375808488172 L 269.81789560199945 67.1346591542218 L 270.75063132923543 66.12563132923542 L 271.75965915422177 65.19289560199947 L 272.8387580848817 64.34220259843842 L 273.9812751174709 63.57879712380338 L 275.18016625455795 62.90738582670356 L 276.42803993361093 62.332108181052476 L 277.71720259843846 61.856510964834804 L 279.0397061325217 61.48352639304065 L 280.387396861796 61.21545403958508 L 281.75196582476275 61.05394665967026 L 283.12500000000006 61 L 284.49803417523736 61.05394665967027 L 285.8626031382041 61.2154540395851 L 287.2102938674784 61.48352639304068 L 288.53279740156165 61.85651096483484 L 289.8219600663892 62.33210818105252 L 291.06983374544217 62.90738582670361 L 292.2687248825292 63.57879712380345 L 293.41124191511835 64.34220259843849 L 294.4903408457783 65.19289560199954 L 295.4993686707647 66.12563132923552 L 296.43210439800066 67.1346591542219 L 297.28279740156165 68.21375808488185 L 298.0462028761967 69.35627511747103 L 298.7176141732965 70.55516625455807 L 299.29289181894757 71.80303993361109 L 299.76848903516526 73.09220259843859 L 300.1414736069594 74.41470613252184 L 300.40954596041496 75.76239686179616 L 300.57105334032974 77.12696582476292 Z" fill-opacity="1" stroke-opacity="1" stroke-miterlimit="10" stroke-width="6"/><text fill="rgb(255,255,255)" stroke="none" font-family="times new roman" font-size="10px" font-style="normal" font-weight="normal" text-decoration="normal" x="283.125" y="83.5" text-anchor="middle" dominant-baseline="text-after-edge" fill-opacity="1">*34.1</text><path fill="rgb(69,90,100)" stroke="rgb(76,175,80)" paint-order="fill stroke markers" d=" M 614.125 152 L 614.0710533403297 153.37303417523728 L 613.9095459604149 154.73760313820404 L 613.6414736069594 156.08529386747836 L 613.2684890351652 157.40779740156157 L 612.7928918189475 158.69696006638907 L 612.2176141732964 159.94483374544205 L 611.5462028761966 161.1437248825291 L 610.7827974015615 162.28624191511827 L 609.9321043980005 163.3653408457782 L 608.9993686707646 164.37436867076457 L 607.9903408457782 165.30710439800055 L 606.9112419151182 166.1577974015616 L 605.7687248825291 166.92120287619662 L 604.5698337454421 167.59261417329643 L 603.3219600663891 168.1678918189475 L 602.0327974015615 168.64348903516517 L 600.7102938674783 169.01647360695935 L 599.362603138204 169.2845459604149 L 597.9980341752373 169.44605334032974 L 596.625 169.5 L 595.2519658247627 169.44605334032974 L 593.887396861796 169.2845459604149 L 592.5397061325217 169.01647360695935 L 591.2172025984385 168.6434890351652 L 589.9280399336109 168.1678918189475 L 588.6801662545579 167.59261417329643 L 587.4812751174709 166.92120287619662 L 586.3387580848818 166.1577974015616 L 585.2596591542218 165.30710439800055 L 584.2506313292354 164.37436867076457 L 583.3178956019995 163.3653408457782 L 582.4672025984385 162.2862419151183 L 581.7037971238034 161.1437248825291 L 581.0323858267036 159.94483374544208 L 580.4571081810525 158.69696006638907 L 579.9815109648348 157.4077974015616 L 579.6085263930406 156.08529386747836 L 579.3404540395851 154.73760313820404 L 579.1789466596703 153.37303417523728 L 579.125 152 L 579.1789466596703 150.62696582476272 L 579.3404540395851 149.26239686179596 L 579.6085263930406 147.91470613252164 L 579.9815109648348 146.59220259843843 L 580.4571081810525 145.30303993361093 L 581.0323858267036 144.05516625455795 L 581.7037971238034 142.8562751174709 L 582.4672025984385 141.71375808488173 L 583.3178956019995 140.6346591542218 L 584.2506313292354 139.62563132923543 L 585.2596591542218 138.69289560199945 L 586.3387580848818 137.84220259843843 L 587.4812751174709 137.07879712380338 L 588.6801662545579 136.40738582670355 L 589.928039933611 135.8321081810525 L 591.2172025984385 135.3565109648348 L 592.5397061325217 134.98352639304065 L 593.887396861796 134.7154540395851 L 595.2519658247628 134.55394665967026 L 596.6250000000001 134.5 L 597.9980341752373 134.55394665967026 L 599.3626031382041 134.7154540395851 L 600.7102938674784 134.98352639304068 L 602.0327974015617 135.35651096483485 L 603.3219600663891 135.83210818105252 L 604.5698337454421 136.4073858267036 L 605.7687248825292 137.07879712380344 L 606.9112419151184 137.8422025984385 L 607.9903408457783 138.69289560199954 L 608.9993686707646 139.62563132923552 L 609.9321043980007 140.6346591542219 L 610.7827974015617 141.71375808488185 L 611.5462028761967 142.85627511747103 L 612.2176141732965 144.0551662545581 L 612.7928918189476 145.3030399336111 L 613.2684890351652 146.5922025984386 L 613.6414736069594 147.91470613252184 L 613.9095459604149 149.26239686179616 L 614.0710533403297 150.62696582476292 Z" fill-opacity="1" stroke-opacity="1" stroke-miterlimit="10" stroke-width="6"/><text fill="rgb(255,255,255)" stroke="none" font-family="times new roman" font-size="10px" font-style="normal" font-weight="normal" text-decoration="normal" x="596.625" y="157" text-anchor="middle" dominant-baseline="text-after-edge" fill-opacity="1">*1.41</text><path fill="rgb(69,90,100)" stroke="rgb(158,158,158)" paint-order="fill stroke markers" d=" M 397.625 68.5 L 397.625 88.5 L 492.625 88.5 L 492.625 68.5 Z" fill-opacity="1" stroke-opacity="1" stroke-miterlimit="10" stroke-width="6"/><text fill="rgb(255,255,255)" stroke="none" font-family="times new roman" font-size="10px" font-style="normal" font-weight="normal" text-decoration="normal" x="445.125" y="83.5" text-anchor="middle" dominant-baseline="text-after-edge" fill-opacity="1">42126611C&gt;G</text><path fill="rgb(69,90,100)" stroke="rgb(158,158,158)" paint-order="fill stroke markers" d=" M 143.375 68.5 L 143.375 88.5 L 238.37499999999997 88.5 L 238.375 68.5 Z" fill-opacity="1" stroke-opacity="1" stroke-miterlimit="10" stroke-width="6"/><text fill="rgb(255,255,255)" stroke="none" font-family="times new roman" font-size="10px" font-style="normal" font-weight="normal" text-decoration="normal" x="190.875" y="83.5" text-anchor="middle" dominant-baseline="text-after-edge" fill-opacity="1">42127941G&gt;A</text><path fill="rgb(69,90,100)" stroke="rgb(76,175,80)" paint-order="fill stroke markers" d=" M 268.875 152 L 268.8056400089954 153.7653296538765 L 268.5979876633906 155.51977546340518 L 268.25332320894773 157.25252068675786 L 267.77377161664094 158.95288237343632 L 267.16228948150393 160.61037722821453 L 266.4226467942383 162.21478624413982 L 265.55940369796707 163.75621770610886 L 264.5778823734363 165.22516817658064 L 263.4841342260007 166.61258108742913 L 262.28490257669733 167.9099025766973 L 260.98758108742913 169.1091342260007 L 259.60016817658067 170.20288237343632 L 258.1312177061088 171.18440369796707 L 256.5897862441398 172.0476467942383 L 254.98537722821453 172.78728948150396 L 253.32788237343632 173.39877161664094 L 251.62752068675786 173.87832320894773 L 249.89477546340518 174.2229876633906 L 248.1403296538765 174.43064000899537 L 246.375 174.5 L 244.6096703461235 174.43064000899537 L 242.85522453659482 174.2229876633906 L 241.12247931324214 173.87832320894773 L 239.42211762656368 173.39877161664094 L 237.76462277178547 172.78728948150396 L 236.1602137558602 172.0476467942383 L 234.61878229389114 171.18440369796707 L 233.14983182341936 170.20288237343632 L 231.76241891257087 169.1091342260007 L 230.4650974233027 167.90990257669733 L 229.2658657739993 166.61258108742913 L 228.17211762656368 165.22516817658064 L 227.19059630203293 163.75621770610886 L 226.3273532057617 162.21478624413982 L 225.58771051849604 160.61037722821453 L 224.97622838335906 158.95288237343632 L 224.49667679105227 157.25252068675786 L 224.1520123366094 155.5197754634052 L 223.94435999100463 153.7653296538765 L 223.875 152 L 223.94435999100463 150.2346703461235 L 224.1520123366094 148.48022453659482 L 224.49667679105227 146.74747931324214 L 224.97622838335906 145.04711762656368 L 225.58771051849604 143.38962277178547 L 226.3273532057617 141.7852137558602 L 227.19059630203293 140.24378229389114 L 228.17211762656368 138.77483182341936 L 229.2658657739993 137.38741891257087 L 230.46509742330267 136.0900974233027 L 231.76241891257087 134.8908657739993 L 233.14983182341936 133.79711762656368 L 234.61878229389114 132.81559630203293 L 236.1602137558602 131.9523532057617 L 237.7646227717855 131.21271051849604 L 239.4221176265637 130.60122838335903 L 241.12247931324217 130.12167679105227 L 242.85522453659485 129.7770123366094 L 244.60967034612355 129.5693599910046 L 246.37500000000009 129.5 L 248.1403296538766 129.56935999100463 L 249.8947754634053 129.7770123366094 L 251.62752068675798 130.1216767910523 L 253.32788237343644 130.60122838335909 L 254.98537722821465 131.2127105184961 L 256.58978624413993 131.9523532057618 L 258.131217706109 132.815596302033 L 259.6001681765808 133.79711762656376 L 260.98758108742925 134.89086577399942 L 262.28490257669745 136.0900974233028 L 263.48413422600083 137.387418912571 L 264.5778823734364 138.7748318234195 L 265.5594036979672 140.24378229389131 L 266.4226467942384 141.78521375586038 L 267.16228948150405 143.3896227717857 L 267.77377161664106 145.0471176265639 L 268.2533232089478 146.74747931324237 L 268.59798766339065 148.48022453659505 L 268.8056400089954 150.23467034612375 Z" fill-opacity="1" stroke-opacity="1" stroke-miterlimit="10" stroke-width="6"/><text fill="rgb(255,255,255)" stroke="none" font-family="times new roman" font-size="15px" font-style="normal" font-weight="normal" text-decoration="normal" x="246.375" y="159.5" text-anchor="middle" dominant-baseline="text-after-edge" fill-opacity="1">*34</text><path fill="rgb(69,90,100)" stroke="rgb(76,175,80)" paint-order="fill stroke markers" d=" M 1031.5 288.875 L 1031.4460533403299 290.2480341752373 L 1031.284545960415 291.61260313820407 L 1031.0164736069594 292.96029386747836 L 1030.6434890351652 294.2827974015616 L 1030.1678918189475 295.57196006638907 L 1029.5926141732964 296.81983374544205 L 1028.9212028761965 298.0187248825291 L 1028.1577974015615 299.1612419151183 L 1027.3071043980005 300.24034084577823 L 1026.3743686707646 301.24936867076457 L 1025.3653408457783 302.18210439800055 L 1024.2862419151184 303.0327974015616 L 1023.1437248825291 303.7962028761966 L 1021.9448337454421 304.46761417329645 L 1020.6969600663891 305.0428918189475 L 1019.4077974015615 305.5184890351652 L 1018.0852938674783 305.8914736069593 L 1016.737603138204 306.1595459604149 L 1015.3730341752373 306.32105334032974 L 1014 306.375 L 1012.6269658247627 306.32105334032974 L 1011.262396861796 306.1595459604149 L 1009.9147061325217 305.8914736069593 L 1008.5922025984385 305.5184890351652 L 1007.3030399336109 305.0428918189475 L 1006.0551662545579 304.46761417329645 L 1004.8562751174709 303.7962028761966 L 1003.7137580848818 303.0327974015616 L 1002.6346591542218 302.18210439800055 L 1001.6256313292354 301.24936867076457 L 1000.6928956019995 300.24034084577823 L 999.8422025984385 299.1612419151183 L 999.0787971238034 298.0187248825291 L 998.4073858267036 296.81983374544205 L 997.8321081810525 295.57196006638907 L 997.3565109648348 294.2827974015616 L 996.9835263930406 292.96029386747836 L 996.7154540395851 291.61260313820407 L 996.5539466596703 290.2480341752373 L 996.5 288.875 L 996.5539466596703 287.5019658247627 L 996.7154540395851 286.13739686179593 L 996.9835263930406 284.78970613252164 L 997.3565109648348 283.4672025984384 L 997.8321081810525 282.17803993361093 L 998.4073858267036 280.93016625455795 L 999.0787971238034 279.7312751174709 L 999.8422025984385 278.5887580848817 L 1000.6928956019995 277.50965915422177 L 1001.6256313292354 276.50063132923543 L 1002.6346591542218 275.56789560199945 L 1003.7137580848818 274.7172025984384 L 1004.8562751174709 273.9537971238034 L 1006.0551662545579 273.28238582670355 L 1007.303039933611 272.7071081810525 L 1008.5922025984385 272.2315109648348 L 1009.9147061325217 271.8585263930407 L 1011.262396861796 271.5904540395851 L 1012.6269658247628 271.42894665967026 L 1014.0000000000001 271.375 L 1015.3730341752373 271.42894665967026 L 1016.7376031382041 271.5904540395851 L 1018.0852938674784 271.8585263930407 L 1019.4077974015617 272.23151096483485 L 1020.6969600663891 272.7071081810525 L 1021.9448337454421 273.2823858267036 L 1023.1437248825292 273.95379712380344 L 1024.2862419151184 274.7172025984385 L 1025.3653408457783 275.56789560199957 L 1026.3743686707646 276.5006313292355 L 1027.3071043980005 277.5096591542219 L 1028.1577974015618 278.5887580848818 L 1028.9212028761967 279.73127511747106 L 1029.5926141732966 280.93016625455806 L 1030.1678918189475 282.1780399336111 L 1030.6434890351652 283.4672025984386 L 1031.0164736069594 284.7897061325218 L 1031.284545960415 286.13739686179616 L 1031.4460533403299 287.5019658247629 Z" fill-opacity="1" stroke-opacity="1" stroke-miterlimit="10" stroke-width="6"/><text fill="rgb(255,255,255)" stroke="none" font-family="times new roman" font-size="10px" font-style="normal" font-weight="normal" text-decoration="normal" x="1014" y="293.875" text-anchor="middle" dominant-baseline="text-after-edge" fill-opacity="1">*1.58</text><path fill="rgb(69,90,100)" stroke="rgb(76,175,80)" paint-order="fill stroke markers" d=" M 456.875 142 L 456.875 162 L 551.875 162 L 551.875 142 Z" fill-opacity="1" stroke-opacity="1" stroke-miterlimit="10" stroke-width="6"/><text fill="rgb(255,255,255)" stroke="none" font-family="times new roman" font-size="10px" font-style="normal" font-weight="normal" text-decoration="normal" x="504.375" y="157" text-anchor="middle" dominant-baseline="text-after-edge" fill-opacity="1">42130047G&gt;C</text><path fill="rgb(69,90,100)" stroke="rgb(76,175,80)" paint-order="fill stroke markers" d=" M 430.875 152 L 430.8056400089954 153.7653296538765 L 430.5979876633906 155.51977546340518 L 430.25332320894773 157.25252068675786 L 429.77377161664094 158.95288237343632 L 429.16228948150393 160.61037722821453 L 428.4226467942383 162.21478624413982 L 427.55940369796707 163.75621770610886 L 426.5778823734363 165.22516817658064 L 425.4841342260007 166.61258108742913 L 424.28490257669733 167.9099025766973 L 422.98758108742913 169.1091342260007 L 421.60016817658067 170.20288237343632 L 420.1312177061088 171.18440369796707 L 418.5897862441398 172.0476467942383 L 416.98537722821453 172.78728948150396 L 415.3278823734363 173.39877161664094 L 413.62752068675786 173.87832320894773 L 411.8947754634052 174.2229876633906 L 410.1403296538765 174.43064000899537 L 408.375 174.5 L 406.6096703461235 174.43064000899537 L 404.8552245365948 174.2229876633906 L 403.12247931324214 173.87832320894773 L 401.4221176265637 173.39877161664094 L 399.76462277178547 172.78728948150396 L 398.1602137558602 172.0476467942383 L 396.6187822938912 171.18440369796707 L 395.14983182341933 170.20288237343632 L 393.76241891257087 169.1091342260007 L 392.46509742330267 167.90990257669733 L 391.2658657739993 166.61258108742913 L 390.1721176265637 165.22516817658064 L 389.19059630203293 163.75621770610886 L 388.3273532057617 162.21478624413982 L 387.58771051849607 160.61037722821453 L 386.97622838335906 158.95288237343632 L 386.49667679105227 157.25252068675786 L 386.1520123366094 155.5197754634052 L 385.9443599910046 153.7653296538765 L 385.875 152 L 385.9443599910046 150.2346703461235 L 386.1520123366094 148.48022453659482 L 386.49667679105227 146.74747931324214 L 386.97622838335906 145.04711762656368 L 387.58771051849607 143.38962277178547 L 388.3273532057617 141.7852137558602 L 389.19059630203293 140.24378229389114 L 390.1721176265637 138.77483182341936 L 391.2658657739993 137.38741891257087 L 392.46509742330267 136.0900974233027 L 393.76241891257087 134.8908657739993 L 395.14983182341933 133.79711762656368 L 396.6187822938912 132.81559630203293 L 398.16021375586024 131.9523532057617 L 399.7646227717855 131.21271051849604 L 401.4221176265637 130.60122838335903 L 403.1224793132422 130.12167679105227 L 404.85522453659485 129.7770123366094 L 406.60967034612355 129.5693599910046 L 408.37500000000006 129.5 L 410.1403296538766 129.56935999100463 L 411.89477546340527 129.7770123366094 L 413.627520686758 130.1216767910523 L 415.3278823734364 130.60122838335909 L 416.98537722821465 131.2127105184961 L 418.58978624413993 131.9523532057618 L 420.131217706109 132.815596302033 L 421.6001681765808 133.79711762656376 L 422.98758108742925 134.89086577399942 L 424.28490257669745 136.0900974233028 L 425.48413422600083 137.387418912571 L 426.5778823734364 138.7748318234195 L 427.5594036979672 140.24378229389131 L 428.4226467942384 141.78521375586038 L 429.16228948150405 143.3896227717857 L 429.77377161664106 145.0471176265639 L 430.2533232089478 146.74747931324237 L 430.59798766339065 148.48022453659505 L 430.8056400089954 150.23467034612375 Z" fill-opacity="1" stroke-opacity="1" stroke-miterlimit="10" stroke-width="6"/><text fill="rgb(255,255,255)" stroke="none" font-family="times new roman" font-size="15px" font-style="normal" font-weight="normal" text-decoration="normal" x="408.375" y="159.5" text-anchor="middle" dominant-baseline="text-after-edge" fill-opacity="1">*39</text><path fill="rgb(69,90,100)" stroke="rgb(76,175,80)" paint-order="fill stroke markers" d=" M 344.875 152 L 344.82105334032974 153.37303417523728 L 344.6595459604149 154.73760313820404 L 344.3914736069593 156.08529386747836 L 344.0184890351652 157.40779740156157 L 343.5428918189475 158.69696006638907 L 342.96761417329645 159.94483374544205 L 342.2962028761966 161.1437248825291 L 341.5327974015616 162.28624191511827 L 340.68210439800055 163.3653408457782 L 339.74936867076457 164.37436867076457 L 338.74034084577823 165.30710439800055 L 337.6612419151183 166.1577974015616 L 336.5187248825291 166.92120287619662 L 335.31983374544205 167.59261417329643 L 334.07196006638907 168.1678918189475 L 332.7827974015616 168.64348903516517 L 331.46029386747836 169.01647360695935 L 330.11260313820407 169.2845459604149 L 328.7480341752373 169.44605334032974 L 327.375 169.5 L 326.0019658247627 169.44605334032974 L 324.63739686179593 169.2845459604149 L 323.28970613252164 169.01647360695935 L 321.9672025984384 168.6434890351652 L 320.67803993361093 168.1678918189475 L 319.43016625455795 167.59261417329643 L 318.2312751174709 166.92120287619662 L 317.0887580848817 166.1577974015616 L 316.00965915422177 165.30710439800055 L 315.00063132923543 164.37436867076457 L 314.06789560199945 163.3653408457782 L 313.2172025984384 162.2862419151183 L 312.4537971238034 161.1437248825291 L 311.78238582670355 159.94483374544208 L 311.2071081810525 158.69696006638907 L 310.7315109648348 157.4077974015616 L 310.3585263930407 156.08529386747836 L 310.0904540395851 154.73760313820404 L 309.92894665967026 153.37303417523728 L 309.875 152 L 309.92894665967026 150.62696582476272 L 310.0904540395851 149.26239686179596 L 310.3585263930407 147.91470613252164 L 310.7315109648348 146.59220259843843 L 311.2071081810525 145.30303993361093 L 311.78238582670355 144.05516625455795 L 312.4537971238034 142.8562751174709 L 313.2172025984384 141.71375808488173 L 314.06789560199945 140.6346591542218 L 315.00063132923543 139.62563132923543 L 316.00965915422177 138.69289560199945 L 317.0887580848817 137.84220259843843 L 318.2312751174709 137.07879712380338 L 319.43016625455795 136.40738582670355 L 320.67803993361093 135.8321081810525 L 321.96720259843846 135.3565109648348 L 323.2897061325217 134.98352639304065 L 324.637396861796 134.7154540395851 L 326.00196582476275 134.55394665967026 L 327.37500000000006 134.5 L 328.74803417523736 134.55394665967026 L 330.1126031382041 134.7154540395851 L 331.4602938674784 134.98352639304068 L 332.78279740156165 135.35651096483485 L 334.0719600663892 135.83210818105252 L 335.31983374544217 136.4073858267036 L 336.5187248825292 137.07879712380344 L 337.66124191511835 137.8422025984385 L 338.7403408457783 138.69289560199954 L 339.7493686707647 139.62563132923552 L 340.68210439800066 140.6346591542219 L 341.53279740156165 141.71375808488185 L 342.2962028761967 142.85627511747103 L 342.9676141732965 144.0551662545581 L 343.54289181894757 145.3030399336111 L 344.01848903516526 146.5922025984386 L 344.3914736069594 147.91470613252184 L 344.65954596041496 149.26239686179616 L 344.82105334032974 150.62696582476292 Z" fill-opacity="1" stroke-opacity="1" stroke-miterlimit="10" stroke-width="6"/><text fill="rgb(255,255,255)" stroke="none" font-family="times new roman" font-size="10px" font-style="normal" font-weight="normal" text-decoration="normal" x="327.375" y="157" text-anchor="middle" dominant-baseline="text-after-edge" fill-opacity="1">*2.4</text><path fill="rgb(69,90,100)" stroke="rgb(76,175,80)" paint-order="fill stroke markers" d=" M 799.125 142 L 841.625 142 L 841.625 142 A 5 5 0 0 1 846.625 147 L 846.625 157 L 846.625 157 A 5 5 0 0 1 841.625 162 L 756.625 162 L 756.625 162 A 5 5 0 0 1 751.625 157 L 751.625 147 L 751.625 147 A 5 5 0 0 1 756.625 142 L 799.125 142 Z" fill-opacity="1" stroke-opacity="1" stroke-miterlimit="10" stroke-width="2"/><text fill="rgb(255,255,255)" stroke="none" font-family="times new roman" font-size="10px" font-style="normal" font-weight="normal" text-decoration="normal" x="799.125" y="157" text-anchor="middle" dominant-baseline="text-after-edge" fill-opacity="1">42132049dup</text><path fill="rgb(176,190,197)" stroke="none" paint-order="stroke fill markers" d=" M 194.25 183.87500000000003 L 194.25 393.875 L 269.25 393.875 L 269.25 183.87500000000006 Z" fill-opacity="0.8"/><text fill="rgb(0,0,0)" stroke="none" font-family="times new roman" font-size="10px" font-style="normal" font-weight="normal" text-decoration="normal" x="199.25" y="198.875" text-anchor="start" dominant-baseline="text-after-edge" fill-opacity="0.8">42126310C&gt;T </text><text fill="rgb(0,0,0)" stroke="none" font-family="times new roman" font-size="10px" font-style="normal" font-weight="normal" text-decoration="normal" x="199.25" y="208.875" text-anchor="start" dominant-baseline="text-after-edge" fill-opacity="0.8">42127001G&gt;A </text><text fill="rgb(0,0,0)" stroke="none" font-family="times new roman" font-size="10px" font-style="normal" font-weight="normal" text-decoration="normal" x="199.25" y="218.875" text-anchor="start" dominant-baseline="text-after-edge" fill-opacity="0.8">42127207C&gt;T </text><text fill="rgb(0,0,0)" stroke="none" font-family="times new roman" font-size="10px" font-style="normal" font-weight="normal" text-decoration="normal" x="199.25" y="228.875" text-anchor="start" dominant-baseline="text-after-edge" fill-opacity="0.8">42129130C&gt;G </text><text fill="rgb(0,0,0)" stroke="none" font-family="times new roman" font-size="10px" font-style="normal" font-weight="normal" text-decoration="normal" x="199.25" y="238.875" text-anchor="start" dominant-baseline="text-after-edge" fill-opacity="0.8">42129614C&gt;G </text><text fill="rgb(0,0,0)" stroke="none" font-family="times new roman" font-size="10px" font-style="normal" font-weight="normal" text-decoration="normal" x="199.25" y="248.875" text-anchor="start" dominant-baseline="text-after-edge" fill-opacity="0.8">42129643G&gt;C </text><text fill="rgb(0,0,0)" stroke="none" font-family="times new roman" font-size="10px" font-style="normal" font-weight="normal" text-decoration="normal" x="199.25" y="258.875" text-anchor="start" dominant-baseline="text-after-edge" fill-opacity="0.8">42131469C&gt;T </text><text fill="rgb(0,0,0)" stroke="none" font-family="times new roman" font-size="10px" font-style="normal" font-weight="normal" text-decoration="normal" x="199.25" y="268.875" text-anchor="start" dominant-baseline="text-after-edge" fill-opacity="0.8">42131531G&gt;A </text><text fill="rgb(0,0,0)" stroke="none" font-family="times new roman" font-size="10px" font-style="normal" font-weight="normal" text-decoration="normal" x="199.25" y="278.875" text-anchor="start" dominant-baseline="text-after-edge" fill-opacity="0.8">42132026T&gt;C </text><text fill="rgb(0,0,0)" stroke="none" font-family="times new roman" font-size="10px" font-style="normal" font-weight="normal" text-decoration="normal" x="199.25" y="288.875" text-anchor="start" dominant-baseline="text-after-edge" fill-opacity="0.8">42132375G&gt;C </text><path fill="rgb(176,190,197)" stroke="none" paint-order="stroke fill markers" d=" M 787.5 183.875 L 854.5 183.875 L 854.5 183.875 A 8 8 0 0 1 862.5 191.875 L 862.5 385.875 L 862.5 385.875 A 8 8 0 0 1 854.5 393.875 L 720.5 393.875 L 720.5 393.875 A 8 8 0 0 1 712.5 385.875 L 712.5 191.875 L 712.5 191.875 A 8 8 0 0 1 720.5 183.875 L 787.5 183.875 Z" fill-opacity="0.8"/><text fill="rgb(0,0,0)" stroke="none" font-family="times new roman" font-size="10px" font-style="normal" font-weight="normal" text-decoration="normal" x="717.5" y="198.875" text-anchor="start" dominant-baseline="text-after-edge" fill-opacity="0.8">42125924A&gt;G </text><text fill="rgb(0,0,0)" stroke="none" font-family="times new roman" font-size="10px" font-style="normal" font-weight="normal" text-decoration="normal" x="717.5" y="208.875" text-anchor="start" dominant-baseline="text-after-edge" fill-opacity="0.8">42126069A&gt;C </text><text fill="rgb(0,0,0)" stroke="none" font-family="times new roman" font-size="10px" font-style="normal" font-weight="normal" text-decoration="normal" x="717.5" y="218.875" text-anchor="start" dominant-baseline="text-after-edge" fill-opacity="0.8">42126136_42126138del </text><text fill="rgb(0,0,0)" stroke="none" font-family="times new roman" font-size="10px" font-style="normal" font-weight="normal" text-decoration="normal" x="717.5" y="228.875" text-anchor="start" dominant-baseline="text-after-edge" fill-opacity="0.8">42132025_42132026insCCTTTT </text><text fill="rgb(0,0,0)" stroke="none" font-family="times new roman" font-size="10px" font-style="normal" font-weight="normal" text-decoration="normal" x="717.5" y="238.875" text-anchor="start" dominant-baseline="text-after-edge" fill-opacity="0.8">42132027C&gt;T </text><text fill="rgb(0,0,0)" stroke="none" font-family="times new roman" font-size="10px" font-style="normal" font-weight="normal" text-decoration="normal" x="717.5" y="248.875" text-anchor="start" dominant-baseline="text-after-edge" fill-opacity="0.8">42132561C&gt;T </text><text fill="rgb(0,0,0)" stroke="none" font-family="times new roman" font-size="10px" font-style="normal" font-weight="normal" text-decoration="normal" x="717.5" y="258.875" text-anchor="start" dominant-baseline="text-after-edge" fill-opacity="0.8">42132844C&gt;A </text><text fill="rgb(0,0,0)" stroke="none" font-family="times new roman" font-size="10px" font-style="normal" font-weight="normal" text-decoration="normal" x="717.5" y="268.875" text-anchor="start" dominant-baseline="text-after-edge" fill-opacity="0.8">42132851T&gt;C </text><text fill="rgb(0,0,0)" stroke="none" font-family="times new roman" font-size="10px" font-style="normal" font-weight="normal" text-decoration="normal" x="717.5" y="278.875" text-anchor="start" dominant-baseline="text-after-edge" fill-opacity="0.8">42133400T&gt;G </text><text fill="rgb(0,0,0)" stroke="none" font-family="times new roman" font-size="10px" font-style="normal" font-weight="normal" text-decoration="normal" x="717.5" y="288.875" text-anchor="start" dominant-baseline="text-after-edge" fill-opacity="0.8">42133533A&gt;C </text><text fill="rgb(0,0,0)" stroke="none" font-family="times new roman" font-size="10px" font-style="normal" font-weight="normal" text-decoration="normal" x="717.5" y="298.875" text-anchor="start" dominant-baseline="text-after-edge" fill-opacity="0.8">42134096del </text><text fill="rgb(0,0,0)" stroke="none" font-family="times new roman" font-size="10px" font-style="normal" font-weight="normal" text-decoration="normal" x="717.5" y="308.875" text-anchor="start" dominant-baseline="text-after-edge" fill-opacity="0.8">42134820T&gt;G </text><text fill="rgb(0,0,0)" stroke="none" font-family="times new roman" font-size="10px" font-style="normal" font-weight="normal" text-decoration="normal" x="717.5" y="318.875" text-anchor="start" dominant-baseline="text-after-edge" fill-opacity="0.8">42135064_42135066dup </text><text fill="rgb(0,0,0)" stroke="none" font-family="times new roman" font-size="10px" font-style="normal" font-weight="normal" text-decoration="normal" x="717.5" y="328.875" text-anchor="start" dominant-baseline="text-after-edge" fill-opacity="0.8">42135201T&gt;C </text><text fill="rgb(0,0,0)" stroke="none" font-family="times new roman" font-size="10px" font-style="normal" font-weight="normal" text-decoration="normal" x="717.5" y="338.875" text-anchor="start" dominant-baseline="text-after-edge" fill-opacity="0.8">42135691T&gt;C </text><g transform="scale(0.9814524555903866,0.9814524555903866) translate(112.00891668884753,-50.803832845355316)"/></g></svg>