<svg version="1.1" xmlns="http://www.w3.org/2000/svg" xmlns:xlink="http://www.w3.org/1999/xlink" width="1017" height="608"><defs/><g transform="translate(-115.98510422820482,43.60941851633049) scale(0.6461304751455819,0.6461304751455819)"><path fill="none" stroke="rgb(120,144,156)" paint-order="fill stroke markers" d=" M 462.1875 426.9374634289058 L 1034.5537001919738 554.5392903880293" stroke-opacity="1" stroke-linejoin="round" stroke-miterlimit="10"/><path fill="rgb(120,144,156)" stroke="none" paint-order="stroke fill markers" d=" M 1027.0676979712007 557.3271696448444 L 1036.5057782220251 554.9744815696849 L 1028.9607796114028 548.835630214121 Z" fill-opacity="1"/><path fill="none" stroke="rgb(120,144,156)" paint-order="fill stroke markers" d=" M 376.9375 587.3980582524272 L 620.0735488054813 679.4592806156677" stroke-opacity="1" stroke-linejoin="round" stroke-miterlimit="10"/><path fill="rgb(120,144,156)" stroke="none" paint-order="stroke fill markers" d=" M 612.2673108782157 681.1549071732912 L 621.9439588235293 680.167494117647 L 615.3480396118257 673.0186235947826 Z" fill-opacity="1"/><path fill="none" stroke="rgb(55,71,79)" paint-order="fill stroke markers" d=" M 1348.400265957447 126.375 L 1373.4938019975086 166.01856954228253" stroke-opacity="1" stroke-linejoin="round" stroke-miterlimit="10" stroke-width="2"/><path fill="none" stroke="rgb(120,144,156)" paint-order="fill stroke markers" d=" M 1283.284752583665 268.6228080539974 L 1429.0380876219804 325.1539742392794" stroke-opacity="1" stroke-linejoin="round" stroke-miterlimit="10"/><path fill="rgb(120,144,156)" stroke="none" paint-order="stroke fill markers" d=" M 1421.21847879877 326.7868299744777 L 1430.902747416335 325.8771919460026 L 1424.364475823016 318.6755598690358 Z" fill-opacity="1"/><path fill="none" stroke="rgb(55,71,79)" paint-order="fill stroke markers" d=" M 1526.900265957447 126.375 L 1551.9938019975086 166.01856954228253" stroke-opacity="1" stroke-linejoin="round" stroke-miterlimit="10" stroke-width="2"/><path fill="none" stroke="rgb(120,144,156)" paint-order="fill stroke markers" d=" M 566.175032808399 427.125 L 1034.7713097052736 553.6559578297018" stroke-opacity="1" stroke-linejoin="round" stroke-miterlimit="10"/><path fill="rgb(120,144,156)" stroke="none" paint-order="stroke fill markers" d=" M 1027.168989782568 556.1089624756073 L 1036.7021575389053 554.1773277975358 L 1029.4369491426457 547.7097743993087 Z" fill-opacity="1"/><path fill="none" stroke="rgb(120,144,156)" paint-order="fill stroke markers" d=" M 1091.8531486248032 342.0052936660584 L 1236.8873893617044 407.66980972139476" stroke-opacity="1" stroke-linejoin="round" stroke-miterlimit="10"/><path fill="rgb(120,144,156)" stroke="none" paint-order="stroke fill markers" d=" M 1228.989666484216 408.86917344870847 L 1238.7093513751968 408.4947063339416 L 1232.577966748795 400.94363869001717 Z" fill-opacity="1"/><path fill="none" stroke="rgb(120,144,156)" paint-order="fill stroke markers" d=" M 635.678422988452 422.4774736172799 L 1035.071577011548 552.6475263827201" stroke-opacity="1" stroke-linejoin="round" stroke-miterlimit="10"/><path fill="rgb(120,144,156)" stroke="none" paint-order="stroke fill markers" d=" M 1027.3534089989728 554.7072308590124 L 1036.9731304738361 553.2672799063572 L 1030.049336826794 546.4354732980596 Z" fill-opacity="1"/><path fill="none" stroke="rgb(120,144,156)" paint-order="fill stroke markers" d=" M 803.1341306629947 424.8344415722703 L 1036.4763687247896 549.3489971766735" stroke-opacity="1" stroke-linejoin="round" stroke-miterlimit="10"/><path fill="rgb(120,144,156)" stroke="none" paint-order="stroke fill markers" d=" M 1028.51739595282 550.0325558172041 L 1038.2408693370053 550.2905584277297 L 1032.6131873949146 542.356978154066 Z" fill-opacity="1"/><path fill="none" stroke="rgb(120,144,156)" paint-order="fill stroke markers" d=" M 1471.3048219670377 348.87617334105823 L 1536.9963633974698 400.3896842469368" stroke-opacity="1" stroke-linejoin="round" stroke-miterlimit="10"/><path fill="rgb(120,144,156)" stroke="none" paint-order="stroke fill markers" d=" M 1529.0398246224588 399.6783539989165 L 1538.5701780329623 401.62382665894177 L 1534.4083441146804 392.8322603345239 Z" fill-opacity="1"/><path fill="none" stroke="rgb(120,144,156)" paint-order="fill stroke markers" d=" M 301.9375 427.125 L 301.9375 452" stroke-opacity="1" stroke-linejoin="round" stroke-miterlimit="10"/><path fill="rgb(120,144,156)" stroke="none" paint-order="stroke fill markers" d=" M 297.5875 445.3 L 301.9375 454 L 306.2875 445.3 Z" fill-opacity="1"/><path fill="none" stroke="rgb(55,71,79)" paint-order="fill stroke markers" d=" M 1599.2929930618684 131.00665801990522 L 1577.1311980024914 166.01856954228253" stroke-opacity="1" stroke-linejoin="round" stroke-miterlimit="10" stroke-width="2"/><path fill="none" stroke="rgb(120,144,156)" paint-order="fill stroke markers" d=" M 868.6412399882349 426.8432834617864 L 1037.853625958983 547.1229831909934" stroke-opacity="1" stroke-linejoin="round" stroke-miterlimit="10"/><path fill="rgb(120,144,156)" stroke="none" paint-order="stroke fill markers" d=" M 1029.872431851959 546.786768042607 L 1039.483760011765 548.2817165382136 L 1034.9129219123665 539.6956849130047 Z" fill-opacity="1"/><path fill="none" stroke="rgb(120,144,156)" paint-order="fill stroke markers" d=" M 951.4161745406824 427.125 L 1041.9327522054998 542.8525707728036" stroke-opacity="1" stroke-linejoin="round" stroke-miterlimit="10"/><path fill="rgb(120,144,156)" stroke="none" paint-order="stroke fill markers" d=" M 1034.3785752610386 540.2550891671382 L 1043.1649227220364 544.4279297217984 L 1041.231386689166 534.895147420204 Z" fill-opacity="1"/><path fill="none" stroke="rgb(120,144,156)" paint-order="fill stroke markers" d=" M 703.605504587156 347.375 L 834.927598983701 407.58155431850014" stroke-opacity="1" stroke-linejoin="round" stroke-miterlimit="10"/><path fill="rgb(120,144,156)" stroke="none" paint-order="stroke fill markers" d=" M 827.0242904215679 408.74354131141973 L 836.7456381072424 408.41506121425624 L 830.650045418107 400.8350711240148 Z" fill-opacity="1"/><path fill="none" stroke="rgb(120,144,156)" paint-order="fill stroke markers" d=" M 1544.9891316001667 273.130123970359 L 1474.051686987053 320.26305696833384" stroke-opacity="1" stroke-linejoin="round" stroke-miterlimit="10"/><path fill="rgb(120,144,156)" stroke="none" paint-order="stroke fill markers" d=" M 1477.2248477958965 312.9320576857517 L 1472.3858683998333 321.369876029641 L 1482.0395107125828 320.1783685401581 Z" fill-opacity="1"/><path fill="none" stroke="rgb(55,71,79)" paint-order="fill stroke markers" d=" M 788.2729357798165 345.375 L 787.1942994001511 397.62894017045676" stroke-opacity="1" stroke-linejoin="round" stroke-miterlimit="10" stroke-width="2"/><path fill="none" stroke="rgb(120,144,156)" paint-order="fill stroke markers" d=" M 569.355504587156 347.375 L 603.5203631358277 397.52947248222506" stroke-opacity="1" stroke-linejoin="round" stroke-miterlimit="10"/><path fill="rgb(120,144,156)" stroke="none" paint-order="stroke fill markers" d=" M 596.1532359495043 394.44111741511654 L 604.6463308570874 399.18240826158285 L 603.3435065897105 389.54315782763655 Z" fill-opacity="1"/><path fill="none" stroke="rgb(120,144,156)" paint-order="fill stroke markers" d=" M 1054.5625 427.125 L 1054.5625 538.5" stroke-opacity="1" stroke-linejoin="round" stroke-miterlimit="10"/><path fill="rgb(120,144,156)" stroke="none" paint-order="stroke fill markers" d=" M 1050.2125 531.8 L 1054.5625 540.5 L 1058.9125 531.8 Z" fill-opacity="1"/><path fill="none" stroke="rgb(120,144,156)" paint-order="fill stroke markers" d=" M 1157.7088254593175 427.125 L 1067.1922477945002 542.8525707728036" stroke-opacity="1" stroke-linejoin="round" stroke-miterlimit="10"/><path fill="rgb(120,144,156)" stroke="none" paint-order="stroke fill markers" d=" M 1067.893613310834 534.895147420204 L 1065.9600772779636 544.4279297217984 L 1074.7464247389614 540.2550891671382 Z" fill-opacity="1"/><path fill="none" stroke="rgb(120,144,156)" paint-order="fill stroke markers" d=" M 1584.4705263469846 355.77197228643814 L 1567.6064501341232 392.9070087955671" stroke-opacity="1" stroke-linejoin="round" stroke-miterlimit="10"/><path fill="rgb(120,144,156)" stroke="none" paint-order="stroke fill markers" d=" M 1566.4161051991955 385.0079215738755 L 1566.7794736530154 394.72802771356186 L 1574.3375374924726 388.6052692666941 Z" fill-opacity="1"/><path fill="none" stroke="rgb(120,144,156)" paint-order="fill stroke markers" d=" M 1345.7849770642201 345.375 L 1271.6941000137986 403.47504027694913" stroke-opacity="1" stroke-linejoin="round" stroke-miterlimit="10"/><path fill="rgb(120,144,156)" stroke="none" paint-order="stroke fill markers" d=" M 1274.282119296588 395.91761636453623 L 1270.120285378306 404.7091826889541 L 1279.6506387888096 402.76371002892887 Z" fill-opacity="1"/><path fill="none" stroke="rgb(120,144,156)" paint-order="fill stroke markers" d=" M 1407.7601983139411 194.90051316420244 L 1541.0181890635959 250.33135805586545" stroke-opacity="1" stroke-linejoin="round" stroke-miterlimit="10"/><path fill="rgb(120,144,156)" stroke="none" paint-order="stroke fill markers" d=" M 1533.1613566819922 251.77450909695003 L 1542.8648016860589 251.09948683579756 L 1536.5027168746967 243.74174418923562 Z" fill-opacity="1"/><path fill="none" stroke="rgb(120,144,156)" paint-order="fill stroke markers" d=" M 665.8577981651376 347.375 L 629.3640918329875 397.8869236851348" stroke-opacity="1" stroke-linejoin="round" stroke-miterlimit="10"/><path fill="rgb(120,144,156)" stroke="none" paint-order="stroke fill markers" d=" M 629.7617599801587 389.9085554281084 L 628.1928392256108 399.5080860242339 L 636.8138161552399 395.0035042701969 Z" fill-opacity="1"/><path fill="none" stroke="rgb(120,144,156)" paint-order="fill stroke markers" d=" M 1240.483760011765 426.8432834617864 L 1071.271374041017 547.1229831909934" stroke-opacity="1" stroke-linejoin="round" stroke-miterlimit="10"/><path fill="rgb(120,144,156)" stroke="none" paint-order="stroke fill markers" d=" M 1074.2120780876335 539.6956849130047 L 1069.641239988235 548.2817165382136 L 1079.252568148041 546.786768042607 Z" fill-opacity="1"/><path fill="none" stroke="rgb(120,144,156)" paint-order="fill stroke markers" d=" M 1322.4660433070867 427.125 L 1072.9549334408177 549.9463602830083" stroke-opacity="1" stroke-linejoin="round" stroke-miterlimit="10"/><path fill="rgb(120,144,156)" stroke="none" paint-order="stroke fill markers" d=" M 1077.0449808205526 543.0845811819643 L 1071.160549690494 550.8296422066172 L 1080.8872571882514 550.8901504958724 Z" fill-opacity="1"/><path fill="none" stroke="rgb(55,71,79)" paint-order="fill stroke markers" d=" M 1420.7929930618684 131.00665801990522 L 1398.6311980024914 166.01856954228253" stroke-opacity="1" stroke-linejoin="round" stroke-miterlimit="10" stroke-width="2"/><path fill="none" stroke="rgb(55,71,79)" paint-order="fill stroke markers" d=" M 1223.361111111111 196.875 L 1249.2693931103254 239.9828977802052" stroke-opacity="1" stroke-linejoin="round" stroke-miterlimit="10" stroke-width="2"/><path fill="none" stroke="rgb(55,71,79)" paint-order="fill stroke markers" d=" M 1304.6566567000175 200.81864687471656 L 1275.228368516194 241.1425296456303" stroke-opacity="1" stroke-linejoin="round" stroke-miterlimit="10" stroke-width="2"/><path fill="none" stroke="rgb(120,144,156)" paint-order="fill stroke markers" d=" M 1425.6123687664042 427.125 L 1073.8787857424782 552.1347902351827" stroke-opacity="1" stroke-linejoin="round" stroke-miterlimit="10"/><path fill="rgb(120,144,156)" stroke="none" paint-order="stroke fill markers" d=" M 1078.7351492545583 545.792217142302 L 1071.994270060285 552.8045667976039 L 1081.6486773010906 553.9898603598414 Z" fill-opacity="1"/><path fill="none" stroke="rgb(120,144,156)" paint-order="fill stroke markers" d=" M 1564.5625 209.375 L 1564.5625 234.625" stroke-opacity="1" stroke-linejoin="round" stroke-miterlimit="10"/><path fill="rgb(120,144,156)" stroke="none" paint-order="stroke fill markers" d=" M 1560.2125 227.925 L 1564.5625 236.625 L 1568.9125 227.925 Z" fill-opacity="1"/><path fill="none" stroke="rgb(120,144,156)" paint-order="fill stroke markers" d=" M 1534.4584305774579 422.5519779477526 L 1074.2809435388135 553.3934873221732" stroke-opacity="1" stroke-linejoin="round" stroke-miterlimit="10"/><path fill="rgb(120,144,156)" stroke="none" paint-order="stroke fill markers" d=" M 1079.535833371082 547.3769573545986 L 1072.3571929496609 553.9404641687904 L 1081.9151826538669 555.7452724174121 Z" fill-opacity="1"/><path fill="none" stroke="rgb(120,144,156)" paint-order="fill stroke markers" d=" M 1462.8958333333333 271.125 L 1571.2143855139493 323.30766017460337" stroke-opacity="1" stroke-linejoin="round" stroke-miterlimit="10"/><path fill="rgb(120,144,156)" stroke="none" paint-order="stroke fill markers" d=" M 1563.290354325831 324.3187139465313 L 1573.016198414816 324.17568682757565 L 1567.0662702662605 316.4808278277611 Z" fill-opacity="1"/><path fill="none" stroke="rgb(120,144,156)" paint-order="fill stroke markers" d=" M 1239.426069276606 268.5210967180982 L 872.7094395672159 408.8007454161271" stroke-opacity="1" stroke-linejoin="round" stroke-miterlimit="10"/><path fill="rgb(120,144,156)" stroke="none" paint-order="stroke fill markers" d=" M 877.4130487213865 402.3440774732326 L 870.8414454630972 409.51530683894396 L 880.5213909106399 410.46985182614856 Z" fill-opacity="1"/><path fill="none" stroke="rgb(120,144,156)" paint-order="fill stroke markers" d=" M 1573.271171316612 281.95179646442 L 1584.7376651670806 310.6906038364804" stroke-opacity="1" stroke-linejoin="round" stroke-miterlimit="10"/><path fill="rgb(120,144,156)" stroke="none" paint-order="stroke fill markers" d=" M 1578.2144880419091 306.0796754924654 L 1585.478828683388 312.54820353558 L 1586.2950467329924 302.8556141965282 Z" fill-opacity="1"/><path fill="none" stroke="rgb(120,144,156)" paint-order="fill stroke markers" d=" M 1611.1373031496064 427.125 L 1074.5102065380347 554.2735844583389" stroke-opacity="1" stroke-linejoin="round" stroke-miterlimit="10"/><path fill="rgb(120,144,156)" stroke="none" paint-order="stroke fill markers" d=" M 1080.0267785477226 548.4960475037252 L 1072.5640888270068 554.7346981697204 L 1082.0326231922324 556.961659546696 Z" fill-opacity="1"/><path fill="none" stroke="rgb(55,71,79)" paint-order="fill stroke markers" d=" M 1622.3241968719296 199.29087244339314 L 1580.7435877572784 243.08321608541954" stroke-opacity="1" stroke-linejoin="round" stroke-miterlimit="10" stroke-width="2"/><path fill="none" stroke="rgb(55,71,79)" paint-order="fill stroke markers" d=" M 1017.9791666666666 271.125 L 1062.6126545470554 320.6344151278262" stroke-opacity="1" stroke-linejoin="round" stroke-miterlimit="10" stroke-width="2"/><path fill="none" stroke="rgb(120,144,156)" paint-order="fill stroke markers" d=" M 1036.9683697284775 564.7180923382448 L 680.2350806343061 680.6564112938505" stroke-opacity="1" stroke-linejoin="round" stroke-miterlimit="10"/><path fill="rgb(120,144,156)" stroke="none" paint-order="stroke fill markers" d=" M 685.2624844801352 674.4485364102093 L 678.3330124968443 681.2745834385256 L 687.9515333094719 682.7225328081685 Z" fill-opacity="1"/><path fill="rgb(69,90,100)" stroke="rgb(76,175,80)" paint-order="fill stroke markers" d=" M 1408.5625 185.875 L 1408.4931400089954 187.6403296538765 L 1408.2854876633905 189.39477546340518 L 1407.9408232089477 191.12752068675786 L 1407.461271616641 192.82788237343632 L 1406.8497894815039 194.48537722821453 L 1406.1101467942383 196.08978624413982 L 1405.2469036979671 197.63121770610886 L 1404.2653823734363 199.10016817658064 L 1403.1716342260006 200.48758108742913 L 1401.9724025766973 201.7849025766973 L 1400.6750810874291 202.9841342260007 L 1399.2876681765806 204.07788237343632 L 1397.8187177061088 205.05940369796707 L 1396.2772862441398 205.9226467942383 L 1394.6728772282145 206.66228948150396 L 1393.0153823734363 207.27377161664094 L 1391.3150206867579 207.75332320894773 L 1389.5822754634053 208.0979876633906 L 1387.8278296538765 208.30564000899537 L 1386.0625 208.375 L 1384.2971703461235 208.30564000899537 L 1382.5427245365947 208.0979876633906 L 1380.8099793132421 207.75332320894773 L 1379.1096176265637 207.27377161664094 L 1377.4521227717855 206.66228948150396 L 1375.8477137558602 205.9226467942383 L 1374.3062822938912 205.05940369796707 L 1372.8373318234194 204.07788237343632 L 1371.4499189125709 202.9841342260007 L 1370.1525974233027 201.78490257669733 L 1368.9533657739994 200.48758108742913 L 1367.8596176265637 199.10016817658064 L 1366.8780963020329 197.63121770610886 L 1366.0148532057617 196.08978624413982 L 1365.2752105184961 194.48537722821453 L 1364.663728383359 192.82788237343632 L 1364.1841767910523 191.12752068675786 L 1363.8395123366095 189.3947754634052 L 1363.6318599910046 187.6403296538765 L 1363.5625 185.875 L 1363.6318599910046 184.1096703461235 L 1363.8395123366095 182.35522453659482 L 1364.1841767910523 180.62247931324214 L 1364.663728383359 178.92211762656368 L 1365.2752105184961 177.26462277178547 L 1366.0148532057617 175.6602137558602 L 1366.8780963020329 174.11878229389114 L 1367.8596176265637 172.64983182341936 L 1368.9533657739994 171.26241891257087 L 1370.1525974233027 169.9650974233027 L 1371.4499189125709 168.7658657739993 L 1372.8373318234194 167.67211762656368 L 1374.3062822938912 166.69059630203293 L 1375.8477137558602 165.8273532057617 L 1377.4521227717855 165.08771051849604 L 1379.1096176265637 164.47622838335903 L 1380.8099793132421 163.99667679105227 L 1382.542724536595 163.6520123366094 L 1384.2971703461235 163.4443599910046 L 1386.0625 163.375 L 1387.8278296538765 163.44435999100463 L 1389.5822754634053 163.6520123366094 L 1391.3150206867579 163.9966767910523 L 1393.0153823734365 164.47622838335909 L 1394.6728772282147 165.0877105184961 L 1396.27728624414 165.8273532057618 L 1397.818717706109 166.690596302033 L 1399.2876681765808 167.67211762656376 L 1400.6750810874294 168.76586577399942 L 1401.9724025766975 169.9650974233028 L 1403.1716342260008 171.262418912571 L 1404.2653823734365 172.6498318234195 L 1405.2469036979671 174.11878229389131 L 1406.1101467942383 175.66021375586038 L 1406.849789481504 177.2646227717857 L 1407.461271616641 178.9221176265639 L 1407.9408232089477 180.62247931324237 L 1408.2854876633905 182.35522453659505 L 1408.4931400089954 184.10967034612375 Z" fill-opacity="1" stroke-opacity="1" stroke-miterlimit="10" stroke-width="2"/><text fill="rgb(255,255,255)" stroke="none" font-family="times new roman" font-size="15px" font-style="normal" font-weight="normal" text-decoration="normal" x="1386.0625" y="193.375" text-anchor="middle" dominant-baseline="text-after-edge" fill-opacity="1">*34</text><path fill="rgb(69,90,100)" stroke="rgb(76,175,80)" paint-order="fill stroke markers" d=" M 513 324.375 L 513 344.375 L 608 344.375 L 608 324.375 Z" fill-opacity="1" stroke-opacity="1" stroke-miterlimit="10" stroke-width="6"/><text fill="rgb(255,255,255)" stroke="none" font-family="times new roman" font-size="10px" font-style="normal" font-weight="normal" text-decoration="normal" x="560.5" y="339.375" text-anchor="middle" dominant-baseline="text-after-edge" fill-opacity="1">42129950A&gt;C</text><path fill="rgb(69,90,100)" stroke="rgb(244,67,54)" paint-order="fill stroke markers" d=" M 1072.0625 559 L 1072.0085533403299 560.3730341752373 L 1071.847045960415 561.737603138204 L 1071.5789736069594 563.0852938674783 L 1071.2059890351652 564.4077974015615 L 1070.7303918189475 565.6969600663891 L 1070.1551141732964 566.9448337454421 L 1069.4837028761965 568.1437248825291 L 1068.7202974015615 569.2862419151182 L 1067.8696043980005 570.3653408457782 L 1066.9368686707646 571.3743686707646 L 1065.9278408457783 572.3071043980005 L 1064.8487419151184 573.1577974015615 L 1063.706224882529 573.9212028761966 L 1062.507333745442 574.5926141732964 L 1061.259460066389 575.1678918189475 L 1059.9702974015615 575.6434890351652 L 1058.6477938674784 576.0164736069594 L 1057.3001031382041 576.2845459604149 L 1055.9355341752373 576.4460533403297 L 1054.5625 576.5 L 1053.1894658247627 576.4460533403297 L 1051.8248968617959 576.2845459604149 L 1050.4772061325216 576.0164736069594 L 1049.1547025984385 575.6434890351652 L 1047.865539933611 575.1678918189475 L 1046.617666254558 574.5926141732964 L 1045.418775117471 573.9212028761966 L 1044.2762580848816 573.1577974015615 L 1043.1971591542217 572.3071043980005 L 1042.1881313292354 571.3743686707646 L 1041.2553956019995 570.3653408457782 L 1040.4047025984385 569.2862419151182 L 1039.6412971238035 568.1437248825291 L 1038.9698858267036 566.9448337454421 L 1038.3946081810525 565.6969600663891 L 1037.9190109648348 564.4077974015615 L 1037.5460263930406 563.0852938674783 L 1037.277954039585 561.737603138204 L 1037.1164466596701 560.3730341752373 L 1037.0625 559 L 1037.1164466596701 557.6269658247627 L 1037.277954039585 556.262396861796 L 1037.5460263930406 554.9147061325217 L 1037.9190109648348 553.5922025984385 L 1038.3946081810525 552.3030399336109 L 1038.9698858267036 551.0551662545579 L 1039.6412971238035 549.8562751174709 L 1040.4047025984385 548.7137580848818 L 1041.2553956019995 547.6346591542218 L 1042.1881313292354 546.6256313292354 L 1043.1971591542217 545.6928956019995 L 1044.2762580848816 544.8422025984385 L 1045.418775117471 544.0787971238034 L 1046.617666254558 543.4073858267036 L 1047.865539933611 542.8321081810525 L 1049.1547025984385 542.3565109648348 L 1050.4772061325216 541.9835263930406 L 1051.824896861796 541.7154540395851 L 1053.1894658247627 541.5539466596703 L 1054.5625 541.5 L 1055.9355341752373 541.5539466596703 L 1057.3001031382041 541.7154540395851 L 1058.6477938674784 541.9835263930406 L 1059.9702974015618 542.3565109648348 L 1061.2594600663892 542.8321081810525 L 1062.507333745442 543.4073858267036 L 1063.706224882529 544.0787971238035 L 1064.8487419151184 544.8422025984385 L 1065.9278408457783 545.6928956019996 L 1066.9368686707646 546.6256313292355 L 1067.8696043980005 547.6346591542219 L 1068.7202974015618 548.7137580848819 L 1069.4837028761967 549.856275117471 L 1070.1551141732966 551.0551662545581 L 1070.7303918189475 552.3030399336111 L 1071.2059890351652 553.5922025984386 L 1071.5789736069594 554.9147061325218 L 1071.847045960415 556.2623968617961 L 1072.0085533403299 557.6269658247629 Z" fill-opacity="1" stroke-opacity="1" stroke-miterlimit="10" stroke-width="2"/><text fill="rgb(255,255,255)" stroke="none" font-family="times new roman" font-size="10px" font-style="normal" font-weight="normal" text-decoration="normal" x="1054.5625" y="564" text-anchor="middle" dominant-baseline="text-after-edge" fill-opacity="1">*46.3</text><path fill="rgb(69,90,100)" stroke="rgb(76,175,80)" paint-order="fill stroke markers" d=" M 1273.0625 416.125 L 1273.0085533403299 417.4980341752373 L 1272.847045960415 418.86260313820407 L 1272.5789736069594 420.21029386747836 L 1272.2059890351652 421.5327974015616 L 1271.7303918189475 422.82196006638907 L 1271.1551141732964 424.06983374544205 L 1270.4837028761965 425.2687248825291 L 1269.7202974015615 426.4112419151183 L 1268.8696043980005 427.49034084577823 L 1267.9368686707646 428.49936867076457 L 1266.9278408457783 429.43210439800055 L 1265.8487419151184 430.2827974015616 L 1264.706224882529 431.0462028761966 L 1263.507333745442 431.71761417329645 L 1262.259460066389 432.2928918189475 L 1260.9702974015615 432.7684890351652 L 1259.6477938674784 433.1414736069593 L 1258.3001031382041 433.4095459604149 L 1256.9355341752373 433.57105334032974 L 1255.5625 433.625 L 1254.1894658247627 433.57105334032974 L 1252.8248968617959 433.4095459604149 L 1251.4772061325216 433.1414736069593 L 1250.1547025984385 432.7684890351652 L 1248.865539933611 432.2928918189475 L 1247.617666254558 431.71761417329645 L 1246.418775117471 431.0462028761966 L 1245.2762580848816 430.2827974015616 L 1244.1971591542217 429.43210439800055 L 1243.1881313292354 428.49936867076457 L 1242.2553956019995 427.49034084577823 L 1241.4047025984385 426.4112419151183 L 1240.6412971238035 425.2687248825291 L 1239.9698858267036 424.06983374544205 L 1239.3946081810525 422.82196006638907 L 1238.9190109648348 421.5327974015616 L 1238.5460263930406 420.21029386747836 L 1238.277954039585 418.86260313820407 L 1238.1164466596701 417.4980341752373 L 1238.0625 416.125 L 1238.1164466596701 414.7519658247627 L 1238.277954039585 413.38739686179593 L 1238.5460263930406 412.03970613252164 L 1238.9190109648348 410.7172025984384 L 1239.3946081810525 409.42803993361093 L 1239.9698858267036 408.18016625455795 L 1240.6412971238035 406.9812751174709 L 1241.4047025984385 405.8387580848817 L 1242.2553956019995 404.75965915422177 L 1243.1881313292354 403.75063132923543 L 1244.1971591542217 402.81789560199945 L 1245.2762580848816 401.9672025984384 L 1246.418775117471 401.2037971238034 L 1247.617666254558 400.53238582670355 L 1248.865539933611 399.9571081810525 L 1250.1547025984385 399.4815109648348 L 1251.4772061325216 399.1085263930407 L 1252.824896861796 398.8404540395851 L 1254.1894658247627 398.67894665967026 L 1255.5625 398.625 L 1256.9355341752373 398.67894665967026 L 1258.3001031382041 398.8404540395851 L 1259.6477938674784 399.1085263930407 L 1260.9702974015618 399.48151096483485 L 1262.2594600663892 399.9571081810525 L 1263.507333745442 400.5323858267036 L 1264.706224882529 401.20379712380344 L 1265.8487419151184 401.9672025984385 L 1266.9278408457783 402.81789560199957 L 1267.9368686707646 403.7506313292355 L 1268.8696043980005 404.7596591542219 L 1269.7202974015618 405.8387580848818 L 1270.4837028761967 406.98127511747106 L 1271.1551141732966 408.18016625455806 L 1271.7303918189475 409.4280399336111 L 1272.2059890351652 410.7172025984386 L 1272.5789736069594 412.0397061325218 L 1272.847045960415 413.38739686179616 L 1273.0085533403299 414.7519658247629 Z" fill-opacity="1" stroke-opacity="1" stroke-miterlimit="10" stroke-width="2"/><text fill="rgb(255,255,255)" stroke="none" font-family="times new roman" font-size="10px" font-style="normal" font-weight="normal" text-decoration="normal" x="1255.5625" y="421.125" text-anchor="middle" dominant-baseline="text-after-edge" fill-opacity="1">*1.54</text><path fill="rgb(69,90,100)" stroke="rgb(76,175,80)" paint-order="fill stroke markers" d=" M 895.3125 406.125 L 895.3125 426.125 L 990.3125 426.125 L 990.3125 406.125 Z" fill-opacity="1" stroke-opacity="1" stroke-miterlimit="10" stroke-width="2"/><text fill="rgb(255,255,255)" stroke="none" font-family="times new roman" font-size="10px" font-style="normal" font-weight="normal" text-decoration="normal" x="942.8125" y="421.125" text-anchor="middle" dominant-baseline="text-after-edge" fill-opacity="1">42132334C&gt;T</text><path fill="rgb(69,90,100)" stroke="rgb(76,175,80)" paint-order="fill stroke markers" d=" M 1626.6875 115.375 L 1626.6335533403299 116.74803417523728 L 1626.472045960415 118.11260313820404 L 1626.2039736069594 119.46029386747834 L 1625.8309890351652 120.78279740156158 L 1625.3553918189475 122.07196006638907 L 1624.7801141732964 123.31983374544207 L 1624.1087028761965 124.5187248825291 L 1623.3452974015615 125.66124191511828 L 1622.4946043980005 126.7403408457782 L 1621.5618686707646 127.74936867076458 L 1620.5528408457783 128.68210439800055 L 1619.4737419151184 129.5327974015616 L 1618.331224882529 130.29620287619662 L 1617.132333745442 130.96761417329643 L 1615.884460066389 131.5428918189475 L 1614.5952974015615 132.01848903516517 L 1613.2727938674784 132.39147360695935 L 1611.9251031382041 132.6595459604149 L 1610.5605341752373 132.82105334032974 L 1609.1875 132.875 L 1607.8144658247627 132.82105334032974 L 1606.4498968617959 132.6595459604149 L 1605.1022061325216 132.39147360695935 L 1603.7797025984385 132.0184890351652 L 1602.490539933611 131.5428918189475 L 1601.242666254558 130.96761417329643 L 1600.043775117471 130.29620287619662 L 1598.9012580848816 129.5327974015616 L 1597.8221591542217 128.68210439800055 L 1596.8131313292354 127.74936867076458 L 1595.8803956019995 126.74034084577822 L 1595.0297025984385 125.66124191511828 L 1594.2662971238035 124.51872488252911 L 1593.5948858267036 123.31983374544207 L 1593.0196081810525 122.07196006638907 L 1592.5440109648348 120.78279740156158 L 1592.1710263930406 119.46029386747834 L 1591.902954039585 118.11260313820404 L 1591.7414466596701 116.7480341752373 L 1591.6875 115.375 L 1591.7414466596701 114.00196582476272 L 1591.902954039585 112.63739686179596 L 1592.1710263930406 111.28970613252166 L 1592.5440109648348 109.96720259843842 L 1593.0196081810525 108.67803993361093 L 1593.5948858267036 107.43016625455793 L 1594.2662971238035 106.2312751174709 L 1595.0297025984385 105.08875808488172 L 1595.8803956019995 104.0096591542218 L 1596.8131313292354 103.00063132923542 L 1597.8221591542217 102.06789560199947 L 1598.9012580848816 101.21720259843842 L 1600.043775117471 100.45379712380338 L 1601.242666254558 99.78238582670356 L 1602.490539933611 99.20710818105248 L 1603.7797025984385 98.7315109648348 L 1605.1022061325216 98.35852639304065 L 1606.449896861796 98.09045403958508 L 1607.8144658247627 97.92894665967026 L 1609.1875 97.875 L 1610.5605341752373 97.92894665967026 L 1611.9251031382041 98.0904540395851 L 1613.2727938674784 98.35852639304068 L 1614.5952974015618 98.73151096483484 L 1615.8844600663892 99.20710818105252 L 1617.132333745442 99.7823858267036 L 1618.331224882529 100.45379712380344 L 1619.4737419151184 101.21720259843849 L 1620.5528408457783 102.06789560199954 L 1621.5618686707646 103.00063132923552 L 1622.4946043980005 104.0096591542219 L 1623.3452974015618 105.08875808488185 L 1624.1087028761967 106.23127511747103 L 1624.7801141732966 107.43016625455807 L 1625.3553918189475 108.67803993361109 L 1625.8309890351652 109.96720259843859 L 1626.2039736069594 111.28970613252184 L 1626.472045960415 112.63739686179616 L 1626.6335533403299 114.00196582476292 Z" fill-opacity="1" stroke-opacity="1" stroke-miterlimit="10" stroke-width="2"/><text fill="rgb(255,255,255)" stroke="none" font-family="times new roman" font-size="10px" font-style="normal" font-weight="normal" text-decoration="normal" x="1609.1875" y="120.375" text-anchor="middle" dominant-baseline="text-after-edge" fill-opacity="1">*39.2</text><path fill="rgb(69,90,100)" stroke="rgb(76,175,80)" paint-order="fill stroke markers" d=" M 1448.1875 115.375 L 1448.1335533403299 116.74803417523728 L 1447.972045960415 118.11260313820404 L 1447.7039736069594 119.46029386747834 L 1447.3309890351652 120.78279740156158 L 1446.8553918189475 122.07196006638907 L 1446.2801141732964 123.31983374544207 L 1445.6087028761965 124.5187248825291 L 1444.8452974015615 125.66124191511828 L 1443.9946043980005 126.7403408457782 L 1443.0618686707646 127.74936867076458 L 1442.0528408457783 128.68210439800055 L 1440.9737419151184 129.5327974015616 L 1439.831224882529 130.29620287619662 L 1438.632333745442 130.96761417329643 L 1437.384460066389 131.5428918189475 L 1436.0952974015615 132.01848903516517 L 1434.7727938674784 132.39147360695935 L 1433.4251031382041 132.6595459604149 L 1432.0605341752373 132.82105334032974 L 1430.6875 132.875 L 1429.3144658247627 132.82105334032974 L 1427.9498968617959 132.6595459604149 L 1426.6022061325216 132.39147360695935 L 1425.2797025984385 132.0184890351652 L 1423.990539933611 131.5428918189475 L 1422.742666254558 130.96761417329643 L 1421.543775117471 130.29620287619662 L 1420.4012580848816 129.5327974015616 L 1419.3221591542217 128.68210439800055 L 1418.3131313292354 127.74936867076458 L 1417.3803956019995 126.74034084577822 L 1416.5297025984385 125.66124191511828 L 1415.7662971238035 124.51872488252911 L 1415.0948858267036 123.31983374544207 L 1414.5196081810525 122.07196006638907 L 1414.0440109648348 120.78279740156158 L 1413.6710263930406 119.46029386747834 L 1413.402954039585 118.11260313820404 L 1413.2414466596701 116.7480341752373 L 1413.1875 115.375 L 1413.2414466596701 114.00196582476272 L 1413.402954039585 112.63739686179596 L 1413.6710263930406 111.28970613252166 L 1414.0440109648348 109.96720259843842 L 1414.5196081810525 108.67803993361093 L 1415.0948858267036 107.43016625455793 L 1415.7662971238035 106.2312751174709 L 1416.5297025984385 105.08875808488172 L 1417.3803956019995 104.0096591542218 L 1418.3131313292354 103.00063132923542 L 1419.3221591542217 102.06789560199947 L 1420.4012580848816 101.21720259843842 L 1421.543775117471 100.45379712380338 L 1422.742666254558 99.78238582670356 L 1423.990539933611 99.20710818105248 L 1425.2797025984385 98.7315109648348 L 1426.6022061325216 98.35852639304065 L 1427.949896861796 98.09045403958508 L 1429.3144658247627 97.92894665967026 L 1430.6875 97.875 L 1432.0605341752373 97.92894665967026 L 1433.4251031382041 98.0904540395851 L 1434.7727938674784 98.35852639304068 L 1436.0952974015618 98.73151096483484 L 1437.3844600663892 99.20710818105252 L 1438.632333745442 99.7823858267036 L 1439.831224882529 100.45379712380344 L 1440.9737419151184 101.21720259843849 L 1442.0528408457783 102.06789560199954 L 1443.0618686707646 103.00063132923552 L 1443.9946043980005 104.0096591542219 L 1444.8452974015618 105.08875808488185 L 1445.6087028761967 106.23127511747103 L 1446.2801141732966 107.43016625455807 L 1446.8553918189475 108.67803993361109 L 1447.3309890351652 109.96720259843859 L 1447.7039736069594 111.28970613252184 L 1447.972045960415 112.63739686179616 L 1448.1335533403299 114.00196582476292 Z" fill-opacity="1" stroke-opacity="1" stroke-miterlimit="10" stroke-width="2"/><text fill="rgb(255,255,255)" stroke="none" font-family="times new roman" font-size="10px" font-style="normal" font-weight="normal" text-decoration="normal" x="1430.6875" y="120.375" text-anchor="middle" dominant-baseline="text-after-edge" fill-opacity="1">*34.1</text><path fill="rgb(69,90,100)" stroke="rgb(255,193,7)" paint-order="fill stroke markers" d=" M 1293.9375 105.375 L 1293.9375 125.375 L 1388.9375 125.375 L 1388.9375 105.375 Z" fill-opacity="1" stroke-opacity="1" stroke-miterlimit="10" stroke-width="2"/><text fill="rgb(255,255,255)" stroke="none" font-family="times new roman" font-size="10px" font-style="normal" font-weight="normal" text-decoration="normal" x="1341.4375" y="120.375" text-anchor="middle" dominant-baseline="text-after-edge" fill-opacity="1">42127941G&gt;A</text><path fill="rgb(69,90,100)" stroke="rgb(255,193,7)" paint-order="fill stroke markers" d=" M 1392.5625 250.125 L 1392.5625 270.125 L 1487.5625 270.125 L 1487.5625 250.125 Z" fill-opacity="1" stroke-opacity="1" stroke-miterlimit="10" stroke-width="2"/><text fill="rgb(255,255,255)" stroke="none" font-family="times new roman" font-size="10px" font-style="normal" font-weight="normal" text-decoration="normal" x="1440.0625" y="265.125" text-anchor="middle" dominant-baseline="text-after-edge" fill-opacity="1">42129075C&gt;T</text><path fill="rgb(69,90,100)" stroke="rgb(158,158,158)" paint-order="fill stroke markers" d=" M 871.0625 416.125 L 871.0085533403297 417.4980341752373 L 870.8470459604149 418.86260313820407 L 870.5789736069594 420.21029386747836 L 870.2059890351652 421.5327974015616 L 869.7303918189475 422.82196006638907 L 869.1551141732964 424.06983374544205 L 868.4837028761966 425.2687248825291 L 867.7202974015615 426.4112419151183 L 866.8696043980005 427.49034084577823 L 865.9368686707646 428.49936867076457 L 864.9278408457782 429.43210439800055 L 863.8487419151182 430.2827974015616 L 862.7062248825291 431.0462028761966 L 861.5073337454421 431.71761417329645 L 860.2594600663891 432.2928918189475 L 858.9702974015615 432.7684890351652 L 857.6477938674783 433.1414736069593 L 856.300103138204 433.4095459604149 L 854.9355341752373 433.57105334032974 L 853.5625 433.625 L 852.1894658247627 433.57105334032974 L 850.824896861796 433.4095459604149 L 849.4772061325217 433.1414736069593 L 848.1547025984385 432.7684890351652 L 846.8655399336109 432.2928918189475 L 845.6176662545579 431.71761417329645 L 844.4187751174709 431.0462028761966 L 843.2762580848818 430.2827974015616 L 842.1971591542218 429.43210439800055 L 841.1881313292354 428.49936867076457 L 840.2553956019995 427.49034084577823 L 839.4047025984385 426.4112419151183 L 838.6412971238034 425.2687248825291 L 837.9698858267036 424.06983374544205 L 837.3946081810525 422.82196006638907 L 836.9190109648348 421.5327974015616 L 836.5460263930406 420.21029386747836 L 836.2779540395851 418.86260313820407 L 836.1164466596703 417.4980341752373 L 836.0625 416.125 L 836.1164466596703 414.7519658247627 L 836.2779540395851 413.38739686179593 L 836.5460263930406 412.03970613252164 L 836.9190109648348 410.7172025984384 L 837.3946081810525 409.42803993361093 L 837.9698858267036 408.18016625455795 L 838.6412971238034 406.9812751174709 L 839.4047025984385 405.8387580848817 L 840.2553956019995 404.75965915422177 L 841.1881313292354 403.75063132923543 L 842.1971591542218 402.81789560199945 L 843.2762580848818 401.9672025984384 L 844.4187751174709 401.2037971238034 L 845.6176662545579 400.53238582670355 L 846.865539933611 399.9571081810525 L 848.1547025984385 399.4815109648348 L 849.4772061325217 399.1085263930407 L 850.824896861796 398.8404540395851 L 852.1894658247628 398.67894665967026 L 853.5625000000001 398.625 L 854.9355341752373 398.67894665967026 L 856.3001031382041 398.8404540395851 L 857.6477938674784 399.1085263930407 L 858.9702974015617 399.48151096483485 L 860.2594600663891 399.9571081810525 L 861.5073337454421 400.5323858267036 L 862.7062248825292 401.20379712380344 L 863.8487419151184 401.9672025984385 L 864.9278408457783 402.81789560199957 L 865.9368686707646 403.7506313292355 L 866.8696043980007 404.7596591542219 L 867.7202974015617 405.8387580848818 L 868.4837028761967 406.98127511747106 L 869.1551141732965 408.18016625455806 L 869.7303918189476 409.4280399336111 L 870.2059890351652 410.7172025984386 L 870.5789736069594 412.0397061325218 L 870.8470459604149 413.38739686179616 L 871.0085533403297 414.7519658247629 Z" fill-opacity="1" stroke-opacity="1" stroke-miterlimit="10" stroke-width="2"/><text fill="rgb(255,255,255)" stroke="none" font-family="times new roman" font-size="10px" font-style="normal" font-weight="normal" text-decoration="normal" x="853.5625" y="421.125" text-anchor="middle" dominant-baseline="text-after-edge" fill-opacity="1">*43.2</text><path fill="rgb(69,90,100)" stroke="rgb(76,175,80)" paint-order="fill stroke markers" d=" M 960.5625 250.125 L 960.5625 270.125 L 1055.5625 270.125 L 1055.5625 250.125 Z" fill-opacity="1" stroke-opacity="1" stroke-miterlimit="10" stroke-width="2"/><text fill="rgb(255,255,255)" stroke="none" font-family="times new roman" font-size="10px" font-style="normal" font-weight="normal" text-decoration="normal" x="1008.0625" y="265.125" text-anchor="middle" dominant-baseline="text-after-edge" fill-opacity="1">42127407T&gt;G</text><path fill="rgb(69,90,100)" stroke="rgb(158,158,158)" paint-order="fill stroke markers" d=" M 1475.3125 334.375 L 1475.2431400089954 336.1403296538765 L 1475.0354876633905 337.8947754634052 L 1474.6908232089477 339.62752068675786 L 1474.211271616641 341.3278823734363 L 1473.5997894815039 342.98537722821453 L 1472.8601467942383 344.5897862441398 L 1471.9969036979671 346.1312177061088 L 1471.0153823734363 347.60016817658067 L 1469.9216342260006 348.98758108742913 L 1468.7224025766973 350.28490257669733 L 1467.4250810874291 351.4841342260007 L 1466.0376681765806 352.5778823734363 L 1464.5687177061088 353.55940369796707 L 1463.0272862441398 354.4226467942383 L 1461.4228772282145 355.16228948150393 L 1459.7653823734363 355.77377161664094 L 1458.0650206867579 356.25332320894773 L 1456.3322754634053 356.5979876633906 L 1454.5778296538765 356.8056400089954 L 1452.8125 356.875 L 1451.0471703461235 356.8056400089954 L 1449.2927245365947 356.5979876633906 L 1447.5599793132421 356.25332320894773 L 1445.8596176265637 355.77377161664094 L 1444.2021227717855 355.16228948150393 L 1442.5977137558602 354.4226467942383 L 1441.0562822938912 353.55940369796707 L 1439.5873318234194 352.5778823734363 L 1438.1999189125709 351.4841342260007 L 1436.9025974233027 350.28490257669733 L 1435.7033657739994 348.98758108742913 L 1434.6096176265637 347.60016817658067 L 1433.6280963020329 346.1312177061088 L 1432.7648532057617 344.5897862441398 L 1432.0252105184961 342.98537722821453 L 1431.413728383359 341.3278823734363 L 1430.9341767910523 339.62752068675786 L 1430.5895123366095 337.8947754634052 L 1430.3818599910046 336.1403296538765 L 1430.3125 334.375 L 1430.3818599910046 332.6096703461235 L 1430.5895123366095 330.8552245365948 L 1430.9341767910523 329.12247931324214 L 1431.413728383359 327.4221176265637 L 1432.0252105184961 325.76462277178547 L 1432.7648532057617 324.1602137558602 L 1433.6280963020329 322.6187822938912 L 1434.6096176265637 321.14983182341933 L 1435.7033657739994 319.76241891257087 L 1436.9025974233027 318.46509742330267 L 1438.1999189125709 317.26586577399934 L 1439.5873318234194 316.1721176265637 L 1441.0562822938912 315.19059630203293 L 1442.5977137558602 314.3273532057617 L 1444.2021227717855 313.587710518496 L 1445.8596176265637 312.97622838335906 L 1447.5599793132421 312.49667679105227 L 1449.292724536595 312.1520123366094 L 1451.0471703461235 311.9443599910046 L 1452.8125 311.875 L 1454.5778296538765 311.9443599910046 L 1456.3322754634053 312.1520123366094 L 1458.0650206867579 312.4966767910523 L 1459.7653823734365 312.97622838335906 L 1461.4228772282147 313.5877105184961 L 1463.02728624414 314.32735320576177 L 1464.568717706109 315.190596302033 L 1466.0376681765808 316.17211762656376 L 1467.4250810874294 317.2658657739994 L 1468.7224025766975 318.4650974233028 L 1469.9216342260008 319.762418912571 L 1471.0153823734365 321.1498318234195 L 1471.9969036979671 322.61878229389134 L 1472.8601467942383 324.1602137558604 L 1473.599789481504 325.7646227717857 L 1474.211271616641 327.42211762656393 L 1474.6908232089477 329.12247931324237 L 1475.0354876633905 330.8552245365951 L 1475.2431400089954 332.6096703461238 Z" fill-opacity="1" stroke-opacity="1" stroke-miterlimit="10" stroke-width="2"/><text fill="rgb(255,255,255)" stroke="none" font-family="times new roman" font-size="15px" font-style="normal" font-weight="normal" text-decoration="normal" x="1452.8125" y="341.875" text-anchor="middle" dominant-baseline="text-after-edge" fill-opacity="1">*146</text><path fill="rgb(69,90,100)" stroke="rgb(76,175,80)" paint-order="fill stroke markers" d=" M 477.9375 406.125 L 477.9375 426.125 L 572.9375 426.125 L 572.9375 406.125 Z" fill-opacity="1" stroke-opacity="1" stroke-miterlimit="10" stroke-width="2"/><text fill="rgb(255,255,255)" stroke="none" font-family="times new roman" font-size="10px" font-style="normal" font-weight="normal" text-decoration="normal" x="525.4375" y="421.125" text-anchor="middle" dominant-baseline="text-after-edge" fill-opacity="1">42129130C&gt;G</text><path fill="rgb(69,90,100)" stroke="rgb(76,175,80)" paint-order="fill stroke markers" d=" M 627.75 324.375 L 627.75 344.375 L 722.75 344.375 L 722.75 324.375 Z" fill-opacity="1" stroke-opacity="1" stroke-miterlimit="10" stroke-width="6"/><text fill="rgb(255,255,255)" stroke="none" font-family="times new roman" font-size="10px" font-style="normal" font-weight="normal" text-decoration="normal" x="675.25" y="339.375" text-anchor="middle" dominant-baseline="text-after-edge" fill-opacity="1">42130482C&gt;A</text><path fill="rgb(69,90,100)" stroke="rgb(76,175,80)" paint-order="fill stroke markers" d=" M 1118.8125 406.125 L 1118.8125 426.125 L 1213.8125 426.125 L 1213.8125 406.125 Z" fill-opacity="1" stroke-opacity="1" stroke-miterlimit="10" stroke-width="2"/><text fill="rgb(255,255,255)" stroke="none" font-family="times new roman" font-size="10px" font-style="normal" font-weight="normal" text-decoration="normal" x="1166.3125" y="421.125" text-anchor="middle" dominant-baseline="text-after-edge" fill-opacity="1">42131531G&gt;A</text><path fill="rgb(69,90,100)" stroke="rgb(76,175,80)" paint-order="fill stroke markers" d=" M 1092.5 334.375 L 1092.4460533403299 335.7480341752373 L 1092.284545960415 337.11260313820407 L 1092.0164736069594 338.46029386747836 L 1091.6434890351652 339.7827974015616 L 1091.1678918189475 341.07196006638907 L 1090.5926141732964 342.31983374544205 L 1089.9212028761965 343.5187248825291 L 1089.1577974015615 344.6612419151183 L 1088.3071043980005 345.74034084577823 L 1087.3743686707646 346.74936867076457 L 1086.3653408457783 347.68210439800055 L 1085.2862419151184 348.5327974015616 L 1084.143724882529 349.2962028761966 L 1082.944833745442 349.96761417329645 L 1081.696960066389 350.5428918189475 L 1080.4077974015615 351.0184890351652 L 1079.0852938674784 351.3914736069593 L 1077.7376031382041 351.6595459604149 L 1076.3730341752373 351.82105334032974 L 1075 351.875 L 1073.6269658247627 351.82105334032974 L 1072.2623968617959 351.6595459604149 L 1070.9147061325216 351.3914736069593 L 1069.5922025984385 351.0184890351652 L 1068.303039933611 350.5428918189475 L 1067.055166254558 349.96761417329645 L 1065.856275117471 349.2962028761966 L 1064.7137580848816 348.5327974015616 L 1063.6346591542217 347.68210439800055 L 1062.6256313292354 346.74936867076457 L 1061.6928956019995 345.74034084577823 L 1060.8422025984385 344.6612419151183 L 1060.0787971238035 343.5187248825291 L 1059.4073858267036 342.31983374544205 L 1058.8321081810525 341.07196006638907 L 1058.3565109648348 339.7827974015616 L 1057.9835263930406 338.46029386747836 L 1057.715454039585 337.11260313820407 L 1057.5539466596701 335.7480341752373 L 1057.5 334.375 L 1057.5539466596701 333.0019658247627 L 1057.715454039585 331.63739686179593 L 1057.9835263930406 330.28970613252164 L 1058.3565109648348 328.9672025984384 L 1058.8321081810525 327.67803993361093 L 1059.4073858267036 326.43016625455795 L 1060.0787971238035 325.2312751174709 L 1060.8422025984385 324.0887580848817 L 1061.6928956019995 323.00965915422177 L 1062.6256313292354 322.00063132923543 L 1063.6346591542217 321.06789560199945 L 1064.7137580848816 320.2172025984384 L 1065.856275117471 319.4537971238034 L 1067.055166254558 318.78238582670355 L 1068.303039933611 318.2071081810525 L 1069.5922025984385 317.7315109648348 L 1070.9147061325216 317.3585263930407 L 1072.262396861796 317.0904540395851 L 1073.6269658247627 316.92894665967026 L 1075 316.875 L 1076.3730341752373 316.92894665967026 L 1077.7376031382041 317.0904540395851 L 1079.0852938674784 317.3585263930407 L 1080.4077974015618 317.73151096483485 L 1081.6969600663892 318.2071081810525 L 1082.944833745442 318.7823858267036 L 1084.143724882529 319.45379712380344 L 1085.2862419151184 320.2172025984385 L 1086.3653408457783 321.06789560199957 L 1087.3743686707646 322.0006313292355 L 1088.3071043980005 323.0096591542219 L 1089.1577974015618 324.0887580848818 L 1089.9212028761967 325.23127511747106 L 1090.5926141732966 326.43016625455806 L 1091.1678918189475 327.6780399336111 L 1091.6434890351652 328.9672025984386 L 1092.0164736069594 330.2897061325218 L 1092.284545960415 331.63739686179616 L 1092.4460533403299 333.0019658247629 Z" fill-opacity="1" stroke-opacity="1" stroke-miterlimit="10" stroke-width="2"/><text fill="rgb(255,255,255)" stroke="none" font-family="times new roman" font-size="10px" font-style="normal" font-weight="normal" text-decoration="normal" x="1075" y="339.375" text-anchor="middle" dominant-baseline="text-after-edge" fill-opacity="1">*1.41</text><path fill="rgb(69,90,100)" stroke="rgb(69,90,100)" paint-order="fill stroke markers" d=" M 630.8125 673.125 L 612.0625 690.625 L 630.8125 708.125 L 668.3125 708.125 L 687.0625 690.625 L 668.3125 673.125 Z" fill-opacity="1" stroke-opacity="1" stroke-miterlimit="10" stroke-width="2"/><text fill="rgb(255,255,255)" stroke="none" font-family="times new roman" font-size="10px" font-style="normal" font-weight="normal" text-decoration="normal" x="649.5625" y="695.625" text-anchor="middle" dominant-baseline="text-after-edge" fill-opacity="1">NA19908-B</text><path fill="rgb(69,90,100)" stroke="rgb(76,175,80)" paint-order="fill stroke markers" d=" M 1587.0625 260.125 L 1586.9931400089954 261.8903296538765 L 1586.7854876633905 263.6447754634052 L 1586.4408232089477 265.37752068675786 L 1585.961271616641 267.0778823734363 L 1585.3497894815039 268.73537722821453 L 1584.6101467942383 270.3397862441398 L 1583.7469036979671 271.8812177061088 L 1582.7653823734363 273.35016817658067 L 1581.6716342260006 274.73758108742913 L 1580.4724025766973 276.03490257669733 L 1579.1750810874291 277.2341342260007 L 1577.7876681765806 278.3278823734363 L 1576.3187177061088 279.30940369796707 L 1574.7772862441398 280.1726467942383 L 1573.1728772282145 280.91228948150393 L 1571.5153823734363 281.52377161664094 L 1569.8150206867579 282.00332320894773 L 1568.0822754634053 282.3479876633906 L 1566.3278296538765 282.5556400089954 L 1564.5625 282.625 L 1562.7971703461235 282.5556400089954 L 1561.0427245365947 282.3479876633906 L 1559.3099793132421 282.00332320894773 L 1557.6096176265637 281.52377161664094 L 1555.9521227717855 280.91228948150393 L 1554.3477137558602 280.1726467942383 L 1552.8062822938912 279.30940369796707 L 1551.3373318234194 278.3278823734363 L 1549.9499189125709 277.2341342260007 L 1548.6525974233027 276.03490257669733 L 1547.4533657739994 274.73758108742913 L 1546.3596176265637 273.35016817658067 L 1545.3780963020329 271.8812177061088 L 1544.5148532057617 270.3397862441398 L 1543.7752105184961 268.73537722821453 L 1543.163728383359 267.0778823734363 L 1542.6841767910523 265.37752068675786 L 1542.3395123366095 263.6447754634052 L 1542.1318599910046 261.8903296538765 L 1542.0625 260.125 L 1542.1318599910046 258.3596703461235 L 1542.3395123366095 256.6052245365948 L 1542.6841767910523 254.87247931324214 L 1543.163728383359 253.17211762656368 L 1543.7752105184961 251.51462277178547 L 1544.5148532057617 249.9102137558602 L 1545.3780963020329 248.36878229389114 L 1546.3596176265637 246.89983182341936 L 1547.4533657739994 245.51241891257087 L 1548.6525974233027 244.2150974233027 L 1549.9499189125709 243.0158657739993 L 1551.3373318234194 241.92211762656368 L 1552.8062822938912 240.94059630203293 L 1554.3477137558602 240.0773532057617 L 1555.9521227717855 239.33771051849604 L 1557.6096176265637 238.72622838335903 L 1559.3099793132421 238.24667679105227 L 1561.042724536595 237.9020123366094 L 1562.7971703461235 237.6943599910046 L 1564.5625 237.625 L 1566.3278296538765 237.69435999100463 L 1568.0822754634053 237.9020123366094 L 1569.8150206867579 238.2466767910523 L 1571.5153823734365 238.72622838335909 L 1573.1728772282147 239.3377105184961 L 1574.77728624414 240.0773532057618 L 1576.318717706109 240.940596302033 L 1577.7876681765808 241.92211762656376 L 1579.1750810874294 243.01586577399942 L 1580.4724025766975 244.2150974233028 L 1581.6716342260008 245.512418912571 L 1582.7653823734365 246.8998318234195 L 1583.7469036979671 248.36878229389131 L 1584.6101467942383 249.91021375586038 L 1585.349789481504 251.5146227717857 L 1585.961271616641 253.1721176265639 L 1586.4408232089477 254.87247931324237 L 1586.7854876633905 256.6052245365951 L 1586.9931400089954 258.3596703461238 Z" fill-opacity="1" stroke-opacity="1" stroke-miterlimit="10" stroke-width="2"/><text fill="rgb(255,255,255)" stroke="none" font-family="times new roman" font-size="15px" font-style="normal" font-weight="normal" text-decoration="normal" x="1564.5625" y="267.625" text-anchor="middle" dominant-baseline="text-after-edge" fill-opacity="1">*2</text><path fill="rgb(69,90,100)" stroke="rgb(76,175,80)" paint-order="fill stroke markers" d=" M 366.1875 406.125 L 366.1875 426.125 L 461.1875 426.125 L 461.1875 406.125 Z" fill-opacity="1" stroke-opacity="1" stroke-miterlimit="10" stroke-width="2"/><text fill="rgb(255,255,255)" stroke="none" font-family="times new roman" font-size="10px" font-style="normal" font-weight="normal" text-decoration="normal" x="413.6875" y="421.125" text-anchor="middle" dominant-baseline="text-after-edge" fill-opacity="1">42127207C&gt;T</text><path fill="rgb(69,90,100)" stroke="rgb(76,175,80)" paint-order="fill stroke markers" d=" M 1312.3125 324.375 L 1312.3125 344.375 L 1407.3125 344.375 L 1407.3125 324.375 Z" fill-opacity="1" stroke-opacity="1" stroke-miterlimit="10" stroke-width="2"/><text fill="rgb(255,255,255)" stroke="none" font-family="times new roman" font-size="10px" font-style="normal" font-weight="normal" text-decoration="normal" x="1359.8125" y="339.375" text-anchor="middle" dominant-baseline="text-after-edge" fill-opacity="1">42130047G&gt;C</text><path fill="rgb(69,90,100)" stroke="rgb(76,175,80)" paint-order="fill stroke markers" d=" M 301.9375 406.125 L 344.4375 406.125 L 344.4375 406.125 A 5 5 0 0 1 349.4375 411.125 L 349.4375 421.125 L 349.4375 421.125 A 5 5 0 0 1 344.4375 426.125 L 259.4375 426.125 L 259.4375 426.125 A 5 5 0 0 1 254.4375 421.125 L 254.4375 411.125 L 254.4375 411.125 A 5 5 0 0 1 259.4375 406.125 L 301.9375 406.125 Z" fill-opacity="1" stroke-opacity="1" stroke-miterlimit="10" stroke-width="2"/><text fill="rgb(255,255,255)" stroke="none" font-family="times new roman" font-size="10px" font-style="normal" font-weight="normal" text-decoration="normal" x="301.9375" y="421.125" text-anchor="middle" dominant-baseline="text-after-edge" fill-opacity="1">42132049dup</text><path fill="rgb(69,90,100)" stroke="rgb(158,158,158)" paint-order="fill stroke markers" d=" M 1283.875 260.125 L 1283.8056400089954 261.8903296538765 L 1283.5979876633905 263.6447754634052 L 1283.2533232089477 265.37752068675786 L 1282.773771616641 267.0778823734363 L 1282.1622894815039 268.73537722821453 L 1281.4226467942383 270.3397862441398 L 1280.5594036979671 271.8812177061088 L 1279.5778823734363 273.35016817658067 L 1278.4841342260006 274.73758108742913 L 1277.2849025766973 276.03490257669733 L 1275.9875810874291 277.2341342260007 L 1274.6001681765806 278.3278823734363 L 1273.1312177061088 279.30940369796707 L 1271.5897862441398 280.1726467942383 L 1269.9853772282145 280.91228948150393 L 1268.3278823734363 281.52377161664094 L 1266.6275206867579 282.00332320894773 L 1264.8947754634053 282.3479876633906 L 1263.1403296538765 282.5556400089954 L 1261.375 282.625 L 1259.6096703461235 282.5556400089954 L 1257.8552245365947 282.3479876633906 L 1256.1224793132421 282.00332320894773 L 1254.4221176265637 281.52377161664094 L 1252.7646227717855 280.91228948150393 L 1251.1602137558602 280.1726467942383 L 1249.6187822938912 279.30940369796707 L 1248.1498318234194 278.3278823734363 L 1246.7624189125709 277.2341342260007 L 1245.4650974233027 276.03490257669733 L 1244.2658657739994 274.73758108742913 L 1243.1721176265637 273.35016817658067 L 1242.1905963020329 271.8812177061088 L 1241.3273532057617 270.3397862441398 L 1240.5877105184961 268.73537722821453 L 1239.976228383359 267.0778823734363 L 1239.4966767910523 265.37752068675786 L 1239.1520123366095 263.6447754634052 L 1238.9443599910046 261.8903296538765 L 1238.875 260.125 L 1238.9443599910046 258.3596703461235 L 1239.1520123366095 256.6052245365948 L 1239.4966767910523 254.87247931324214 L 1239.976228383359 253.17211762656368 L 1240.5877105184961 251.51462277178547 L 1241.3273532057617 249.9102137558602 L 1242.1905963020329 248.36878229389114 L 1243.1721176265637 246.89983182341936 L 1244.2658657739994 245.51241891257087 L 1245.4650974233027 244.2150974233027 L 1246.7624189125709 243.0158657739993 L 1248.1498318234194 241.92211762656368 L 1249.6187822938912 240.94059630203293 L 1251.1602137558602 240.0773532057617 L 1252.7646227717855 239.33771051849604 L 1254.4221176265637 238.72622838335903 L 1256.1224793132421 238.24667679105227 L 1257.855224536595 237.9020123366094 L 1259.6096703461235 237.6943599910046 L 1261.375 237.625 L 1263.1403296538765 237.69435999100463 L 1264.8947754634053 237.9020123366094 L 1266.6275206867579 238.2466767910523 L 1268.3278823734365 238.72622838335909 L 1269.9853772282147 239.3377105184961 L 1271.58978624414 240.0773532057618 L 1273.131217706109 240.940596302033 L 1274.6001681765808 241.92211762656376 L 1275.9875810874294 243.01586577399942 L 1277.2849025766975 244.2150974233028 L 1278.4841342260008 245.512418912571 L 1279.5778823734365 246.8998318234195 L 1280.5594036979671 248.36878229389131 L 1281.4226467942383 249.91021375586038 L 1282.162289481504 251.5146227717857 L 1282.773771616641 253.1721176265639 L 1283.2533232089477 254.87247931324237 L 1283.5979876633905 256.6052245365951 L 1283.8056400089954 258.3596703461238 Z" fill-opacity="1" stroke-opacity="1" stroke-miterlimit="10" stroke-width="2"/><text fill="rgb(255,255,255)" stroke="none" font-family="times new roman" font-size="15px" font-style="normal" font-weight="normal" text-decoration="normal" x="1261.375" y="267.625" text-anchor="middle" dominant-baseline="text-after-edge" fill-opacity="1">*43</text><path fill="rgb(69,90,100)" stroke="rgb(255,193,7)" paint-order="fill stroke markers" d=" M 1472.4375 105.375 L 1472.4375 125.375 L 1567.4375 125.375 L 1567.4375 105.375 Z" fill-opacity="1" stroke-opacity="1" stroke-miterlimit="10" stroke-width="2"/><text fill="rgb(255,255,255)" stroke="none" font-family="times new roman" font-size="10px" font-style="normal" font-weight="normal" text-decoration="normal" x="1519.9375" y="120.375" text-anchor="middle" dominant-baseline="text-after-edge" fill-opacity="1">42126611C&gt;G</text><path fill="rgb(69,90,100)" stroke="rgb(76,175,80)" paint-order="fill stroke markers" d=" M 1652.5625 185.875 L 1652.5085533403299 187.24803417523728 L 1652.347045960415 188.61260313820404 L 1652.0789736069594 189.96029386747836 L 1651.7059890351652 191.28279740156157 L 1651.2303918189475 192.57196006638907 L 1650.6551141732964 193.81983374544205 L 1649.9837028761965 195.0187248825291 L 1649.2202974015615 196.16124191511827 L 1648.3696043980005 197.2403408457782 L 1647.4368686707646 198.24936867076457 L 1646.4278408457783 199.18210439800055 L 1645.3487419151184 200.0327974015616 L 1644.206224882529 200.79620287619662 L 1643.007333745442 201.46761417329643 L 1641.759460066389 202.0428918189475 L 1640.4702974015615 202.51848903516517 L 1639.1477938674784 202.89147360695935 L 1637.8001031382041 203.1595459604149 L 1636.4355341752373 203.32105334032974 L 1635.0625 203.375 L 1633.6894658247627 203.32105334032974 L 1632.3248968617959 203.1595459604149 L 1630.9772061325216 202.89147360695935 L 1629.6547025984385 202.5184890351652 L 1628.365539933611 202.0428918189475 L 1627.117666254558 201.46761417329643 L 1625.918775117471 200.79620287619662 L 1624.7762580848816 200.0327974015616 L 1623.6971591542217 199.18210439800055 L 1622.6881313292354 198.24936867076457 L 1621.7553956019995 197.2403408457782 L 1620.9047025984385 196.1612419151183 L 1620.1412971238035 195.0187248825291 L 1619.4698858267036 193.81983374544208 L 1618.8946081810525 192.57196006638907 L 1618.4190109648348 191.2827974015616 L 1618.0460263930406 189.96029386747836 L 1617.777954039585 188.61260313820404 L 1617.6164466596701 187.24803417523728 L 1617.5625 185.875 L 1617.6164466596701 184.50196582476272 L 1617.777954039585 183.13739686179596 L 1618.0460263930406 181.78970613252164 L 1618.4190109648348 180.46720259843843 L 1618.8946081810525 179.17803993361093 L 1619.4698858267036 177.93016625455795 L 1620.1412971238035 176.7312751174709 L 1620.9047025984385 175.58875808488173 L 1621.7553956019995 174.5096591542218 L 1622.6881313292354 173.50063132923543 L 1623.6971591542217 172.56789560199945 L 1624.7762580848816 171.71720259843843 L 1625.918775117471 170.95379712380338 L 1627.117666254558 170.28238582670355 L 1628.365539933611 169.7071081810525 L 1629.6547025984385 169.2315109648348 L 1630.9772061325216 168.85852639304065 L 1632.324896861796 168.5904540395851 L 1633.6894658247627 168.42894665967026 L 1635.0625 168.375 L 1636.4355341752373 168.42894665967026 L 1637.8001031382041 168.5904540395851 L 1639.1477938674784 168.85852639304068 L 1640.4702974015618 169.23151096483485 L 1641.7594600663892 169.70710818105252 L 1643.007333745442 170.2823858267036 L 1644.206224882529 170.95379712380344 L 1645.3487419151184 171.7172025984385 L 1646.4278408457783 172.56789560199954 L 1647.4368686707646 173.50063132923552 L 1648.3696043980005 174.5096591542219 L 1649.2202974015618 175.58875808488185 L 1649.9837028761967 176.73127511747103 L 1650.6551141732966 177.9301662545581 L 1651.2303918189475 179.1780399336111 L 1651.7059890351652 180.4672025984386 L 1652.0789736069594 181.78970613252184 L 1652.347045960415 183.13739686179616 L 1652.5085533403299 184.50196582476292 Z" fill-opacity="1" stroke-opacity="1" stroke-miterlimit="10" stroke-width="2"/><text fill="rgb(255,255,255)" stroke="none" font-family="times new roman" font-size="10px" font-style="normal" font-weight="normal" text-decoration="normal" x="1635.0625" y="190.875" text-anchor="middle" dominant-baseline="text-after-edge" fill-opacity="1">*2.4</text><path fill="rgb(69,90,100)" stroke="rgb(76,175,80)" paint-order="fill stroke markers" d=" M 1616.6875 334.375 L 1616.6181400089954 336.1403296538765 L 1616.4104876633905 337.8947754634052 L 1616.0658232089477 339.62752068675786 L 1615.586271616641 341.3278823734363 L 1614.9747894815039 342.98537722821453 L 1614.2351467942383 344.5897862441398 L 1613.3719036979671 346.1312177061088 L 1612.3903823734363 347.60016817658067 L 1611.2966342260006 348.98758108742913 L 1610.0974025766973 350.28490257669733 L 1608.8000810874291 351.4841342260007 L 1607.4126681765806 352.5778823734363 L 1605.9437177061088 353.55940369796707 L 1604.4022862441398 354.4226467942383 L 1602.7978772282145 355.16228948150393 L 1601.1403823734363 355.77377161664094 L 1599.4400206867579 356.25332320894773 L 1597.7072754634053 356.5979876633906 L 1595.9528296538765 356.8056400089954 L 1594.1875 356.875 L 1592.4221703461235 356.8056400089954 L 1590.6677245365947 356.5979876633906 L 1588.9349793132421 356.25332320894773 L 1587.2346176265637 355.77377161664094 L 1585.5771227717855 355.16228948150393 L 1583.9727137558602 354.4226467942383 L 1582.4312822938912 353.55940369796707 L 1580.9623318234194 352.5778823734363 L 1579.5749189125709 351.4841342260007 L 1578.2775974233027 350.28490257669733 L 1577.0783657739994 348.98758108742913 L 1575.9846176265637 347.60016817658067 L 1575.0030963020329 346.1312177061088 L 1574.1398532057617 344.5897862441398 L 1573.4002105184961 342.98537722821453 L 1572.788728383359 341.3278823734363 L 1572.3091767910523 339.62752068675786 L 1571.9645123366095 337.8947754634052 L 1571.7568599910046 336.1403296538765 L 1571.6875 334.375 L 1571.7568599910046 332.6096703461235 L 1571.9645123366095 330.8552245365948 L 1572.3091767910523 329.12247931324214 L 1572.788728383359 327.4221176265637 L 1573.4002105184961 325.76462277178547 L 1574.1398532057617 324.1602137558602 L 1575.0030963020329 322.6187822938912 L 1575.9846176265637 321.14983182341933 L 1577.0783657739994 319.76241891257087 L 1578.2775974233027 318.46509742330267 L 1579.5749189125709 317.26586577399934 L 1580.9623318234194 316.1721176265637 L 1582.4312822938912 315.19059630203293 L 1583.9727137558602 314.3273532057617 L 1585.5771227717855 313.587710518496 L 1587.2346176265637 312.97622838335906 L 1588.9349793132421 312.49667679105227 L 1590.667724536595 312.1520123366094 L 1592.4221703461235 311.9443599910046 L 1594.1875 311.875 L 1595.9528296538765 311.9443599910046 L 1597.7072754634053 312.1520123366094 L 1599.4400206867579 312.4966767910523 L 1601.1403823734365 312.97622838335906 L 1602.7978772282147 313.5877105184961 L 1604.40228624414 314.32735320576177 L 1605.943717706109 315.190596302033 L 1607.4126681765808 316.17211762656376 L 1608.8000810874294 317.2658657739994 L 1610.0974025766975 318.4650974233028 L 1611.2966342260008 319.762418912571 L 1612.3903823734365 321.1498318234195 L 1613.3719036979671 322.61878229389134 L 1614.2351467942383 324.1602137558604 L 1614.974789481504 325.7646227717857 L 1615.586271616641 327.42211762656393 L 1616.0658232089477 329.12247931324237 L 1616.4104876633905 330.8552245365951 L 1616.6181400089954 332.6096703461238 Z" fill-opacity="1" stroke-opacity="1" stroke-miterlimit="10" stroke-width="2"/><text fill="rgb(255,255,255)" stroke="none" font-family="times new roman" font-size="15px" font-style="normal" font-weight="normal" text-decoration="normal" x="1594.1875" y="341.875" text-anchor="middle" dominant-baseline="text-after-edge" fill-opacity="1">*45</text><path fill="rgb(69,90,100)" stroke="rgb(76,175,80)" paint-order="fill stroke markers" d=" M 1297.3125 406.125 L 1297.3125 426.125 L 1392.3125 426.125 L 1392.3125 406.125 Z" fill-opacity="1" stroke-opacity="1" stroke-miterlimit="10" stroke-width="2"/><text fill="rgb(255,255,255)" stroke="none" font-family="times new roman" font-size="10px" font-style="normal" font-weight="normal" text-decoration="normal" x="1344.8125" y="421.125" text-anchor="middle" dominant-baseline="text-after-edge" fill-opacity="1">42128130C&gt;T</text><path fill="rgb(69,90,100)" stroke="rgb(76,175,80)" paint-order="fill stroke markers" d=" M 1587.0625 185.875 L 1586.9931400089954 187.6403296538765 L 1586.7854876633905 189.39477546340518 L 1586.4408232089477 191.12752068675786 L 1585.961271616641 192.82788237343632 L 1585.3497894815039 194.48537722821453 L 1584.6101467942383 196.08978624413982 L 1583.7469036979671 197.63121770610886 L 1582.7653823734363 199.10016817658064 L 1581.6716342260006 200.48758108742913 L 1580.4724025766973 201.7849025766973 L 1579.1750810874291 202.9841342260007 L 1577.7876681765806 204.07788237343632 L 1576.3187177061088 205.05940369796707 L 1574.7772862441398 205.9226467942383 L 1573.1728772282145 206.66228948150396 L 1571.5153823734363 207.27377161664094 L 1569.8150206867579 207.75332320894773 L 1568.0822754634053 208.0979876633906 L 1566.3278296538765 208.30564000899537 L 1564.5625 208.375 L 1562.7971703461235 208.30564000899537 L 1561.0427245365947 208.0979876633906 L 1559.3099793132421 207.75332320894773 L 1557.6096176265637 207.27377161664094 L 1555.9521227717855 206.66228948150396 L 1554.3477137558602 205.9226467942383 L 1552.8062822938912 205.05940369796707 L 1551.3373318234194 204.07788237343632 L 1549.9499189125709 202.9841342260007 L 1548.6525974233027 201.78490257669733 L 1547.4533657739994 200.48758108742913 L 1546.3596176265637 199.10016817658064 L 1545.3780963020329 197.63121770610886 L 1544.5148532057617 196.08978624413982 L 1543.7752105184961 194.48537722821453 L 1543.163728383359 192.82788237343632 L 1542.6841767910523 191.12752068675786 L 1542.3395123366095 189.3947754634052 L 1542.1318599910046 187.6403296538765 L 1542.0625 185.875 L 1542.1318599910046 184.1096703461235 L 1542.3395123366095 182.35522453659482 L 1542.6841767910523 180.62247931324214 L 1543.163728383359 178.92211762656368 L 1543.7752105184961 177.26462277178547 L 1544.5148532057617 175.6602137558602 L 1545.3780963020329 174.11878229389114 L 1546.3596176265637 172.64983182341936 L 1547.4533657739994 171.26241891257087 L 1548.6525974233027 169.9650974233027 L 1549.9499189125709 168.7658657739993 L 1551.3373318234194 167.67211762656368 L 1552.8062822938912 166.69059630203293 L 1554.3477137558602 165.8273532057617 L 1555.9521227717855 165.08771051849604 L 1557.6096176265637 164.47622838335903 L 1559.3099793132421 163.99667679105227 L 1561.042724536595 163.6520123366094 L 1562.7971703461235 163.4443599910046 L 1564.5625 163.375 L 1566.3278296538765 163.44435999100463 L 1568.0822754634053 163.6520123366094 L 1569.8150206867579 163.9966767910523 L 1571.5153823734365 164.47622838335909 L 1573.1728772282147 165.0877105184961 L 1574.77728624414 165.8273532057618 L 1576.318717706109 166.690596302033 L 1577.7876681765808 167.67211762656376 L 1579.1750810874294 168.76586577399942 L 1580.4724025766975 169.9650974233028 L 1581.6716342260008 171.262418912571 L 1582.7653823734365 172.6498318234195 L 1583.7469036979671 174.11878229389131 L 1584.6101467942383 175.66021375586038 L 1585.349789481504 177.2646227717857 L 1585.961271616641 178.9221176265639 L 1586.4408232089477 180.62247931324237 L 1586.7854876633905 182.35522453659505 L 1586.9931400089954 184.10967034612375 Z" fill-opacity="1" stroke-opacity="1" stroke-miterlimit="10" stroke-width="2"/><text fill="rgb(255,255,255)" stroke="none" font-family="times new roman" font-size="15px" font-style="normal" font-weight="normal" text-decoration="normal" x="1564.5625" y="193.375" text-anchor="middle" dominant-baseline="text-after-edge" fill-opacity="1">*39</text><path fill="rgb(69,90,100)" stroke="rgb(76,175,80)" paint-order="fill stroke markers" d=" M 633.6875 416.125 L 633.6335533403297 417.4980341752373 L 633.4720459604149 418.86260313820407 L 633.2039736069594 420.21029386747836 L 632.8309890351652 421.5327974015616 L 632.3553918189475 422.82196006638907 L 631.7801141732964 424.06983374544205 L 631.1087028761966 425.2687248825291 L 630.3452974015615 426.4112419151183 L 629.4946043980005 427.49034084577823 L 628.5618686707646 428.49936867076457 L 627.5528408457782 429.43210439800055 L 626.4737419151182 430.2827974015616 L 625.3312248825291 431.0462028761966 L 624.1323337454421 431.71761417329645 L 622.8844600663891 432.2928918189475 L 621.5952974015615 432.7684890351652 L 620.2727938674783 433.1414736069593 L 618.925103138204 433.4095459604149 L 617.5605341752373 433.57105334032974 L 616.1875 433.625 L 614.8144658247627 433.57105334032974 L 613.449896861796 433.4095459604149 L 612.1022061325217 433.1414736069593 L 610.7797025984385 432.7684890351652 L 609.4905399336109 432.2928918189475 L 608.2426662545579 431.71761417329645 L 607.0437751174709 431.0462028761966 L 605.9012580848818 430.2827974015616 L 604.8221591542218 429.43210439800055 L 603.8131313292354 428.49936867076457 L 602.8803956019995 427.49034084577823 L 602.0297025984385 426.4112419151183 L 601.2662971238034 425.2687248825291 L 600.5948858267036 424.06983374544205 L 600.0196081810525 422.82196006638907 L 599.5440109648348 421.5327974015616 L 599.1710263930406 420.21029386747836 L 598.9029540395851 418.86260313820407 L 598.7414466596703 417.4980341752373 L 598.6875 416.125 L 598.7414466596703 414.7519658247627 L 598.9029540395851 413.38739686179593 L 599.1710263930406 412.03970613252164 L 599.5440109648348 410.7172025984384 L 600.0196081810525 409.42803993361093 L 600.5948858267036 408.18016625455795 L 601.2662971238034 406.9812751174709 L 602.0297025984385 405.8387580848817 L 602.8803956019995 404.75965915422177 L 603.8131313292354 403.75063132923543 L 604.8221591542218 402.81789560199945 L 605.9012580848818 401.9672025984384 L 607.0437751174709 401.2037971238034 L 608.2426662545579 400.53238582670355 L 609.490539933611 399.9571081810525 L 610.7797025984385 399.4815109648348 L 612.1022061325217 399.1085263930407 L 613.449896861796 398.8404540395851 L 614.8144658247628 398.67894665967026 L 616.1875000000001 398.625 L 617.5605341752373 398.67894665967026 L 618.9251031382041 398.8404540395851 L 620.2727938674784 399.1085263930407 L 621.5952974015617 399.48151096483485 L 622.8844600663891 399.9571081810525 L 624.1323337454421 400.5323858267036 L 625.3312248825292 401.20379712380344 L 626.4737419151184 401.9672025984385 L 627.5528408457783 402.81789560199957 L 628.5618686707646 403.7506313292355 L 629.4946043980007 404.7596591542219 L 630.3452974015617 405.8387580848818 L 631.1087028761967 406.98127511747106 L 631.7801141732965 408.18016625455806 L 632.3553918189476 409.4280399336111 L 632.8309890351652 410.7172025984386 L 633.2039736069594 412.0397061325218 L 633.4720459604149 413.38739686179616 L 633.6335533403297 414.7519658247629 Z" fill-opacity="1" stroke-opacity="1" stroke-miterlimit="10" stroke-width="6"/><text fill="rgb(255,255,255)" stroke="none" font-family="times new roman" font-size="10px" font-style="normal" font-weight="normal" text-decoration="normal" x="616.1875" y="421.125" text-anchor="middle" dominant-baseline="text-after-edge" fill-opacity="1">*1.58</text><path fill="rgb(69,90,100)" stroke="rgb(255,193,7)" paint-order="fill stroke markers" d=" M 1169.25 175.875 L 1169.25 195.875 L 1264.25 195.875 L 1264.25 175.875 Z" fill-opacity="1" stroke-opacity="1" stroke-miterlimit="10" stroke-width="2"/><text fill="rgb(255,255,255)" stroke="none" font-family="times new roman" font-size="10px" font-style="normal" font-weight="normal" text-decoration="normal" x="1216.75" y="190.875" text-anchor="middle" dominant-baseline="text-after-edge" fill-opacity="1">42130715C&gt;T</text><path fill="rgb(69,90,100)" stroke="rgb(76,175,80)" paint-order="fill stroke markers" d=" M 1409.0625 406.125 L 1409.0625 426.125 L 1504.0625 426.125 L 1504.0625 406.125 Z" fill-opacity="1" stroke-opacity="1" stroke-miterlimit="10" stroke-width="2"/><text fill="rgb(255,255,255)" stroke="none" font-family="times new roman" font-size="10px" font-style="normal" font-weight="normal" text-decoration="normal" x="1456.5625" y="421.125" text-anchor="middle" dominant-baseline="text-after-edge" fill-opacity="1">42127537A&gt;G</text><path fill="rgb(69,90,100)" stroke="rgb(158,158,158)" paint-order="fill stroke markers" d=" M 1333.0625 185.875 L 1333.0085533403299 187.24803417523728 L 1332.847045960415 188.61260313820404 L 1332.5789736069594 189.96029386747836 L 1332.2059890351652 191.28279740156157 L 1331.7303918189475 192.57196006638907 L 1331.1551141732964 193.81983374544205 L 1330.4837028761965 195.0187248825291 L 1329.7202974015615 196.16124191511827 L 1328.8696043980005 197.2403408457782 L 1327.9368686707646 198.24936867076457 L 1326.9278408457783 199.18210439800055 L 1325.8487419151184 200.0327974015616 L 1324.706224882529 200.79620287619662 L 1323.507333745442 201.46761417329643 L 1322.259460066389 202.0428918189475 L 1320.9702974015615 202.51848903516517 L 1319.6477938674784 202.89147360695935 L 1318.3001031382041 203.1595459604149 L 1316.9355341752373 203.32105334032974 L 1315.5625 203.375 L 1314.1894658247627 203.32105334032974 L 1312.8248968617959 203.1595459604149 L 1311.4772061325216 202.89147360695935 L 1310.1547025984385 202.5184890351652 L 1308.865539933611 202.0428918189475 L 1307.617666254558 201.46761417329643 L 1306.418775117471 200.79620287619662 L 1305.2762580848816 200.0327974015616 L 1304.1971591542217 199.18210439800055 L 1303.1881313292354 198.24936867076457 L 1302.2553956019995 197.2403408457782 L 1301.4047025984385 196.1612419151183 L 1300.6412971238035 195.0187248825291 L 1299.9698858267036 193.81983374544208 L 1299.3946081810525 192.57196006638907 L 1298.9190109648348 191.2827974015616 L 1298.5460263930406 189.96029386747836 L 1298.277954039585 188.61260313820404 L 1298.1164466596701 187.24803417523728 L 1298.0625 185.875 L 1298.1164466596701 184.50196582476272 L 1298.277954039585 183.13739686179596 L 1298.5460263930406 181.78970613252164 L 1298.9190109648348 180.46720259843843 L 1299.3946081810525 179.17803993361093 L 1299.9698858267036 177.93016625455795 L 1300.6412971238035 176.7312751174709 L 1301.4047025984385 175.58875808488173 L 1302.2553956019995 174.5096591542218 L 1303.1881313292354 173.50063132923543 L 1304.1971591542217 172.56789560199945 L 1305.2762580848816 171.71720259843843 L 1306.418775117471 170.95379712380338 L 1307.617666254558 170.28238582670355 L 1308.865539933611 169.7071081810525 L 1310.1547025984385 169.2315109648348 L 1311.4772061325216 168.85852639304065 L 1312.824896861796 168.5904540395851 L 1314.1894658247627 168.42894665967026 L 1315.5625 168.375 L 1316.9355341752373 168.42894665967026 L 1318.3001031382041 168.5904540395851 L 1319.6477938674784 168.85852639304068 L 1320.9702974015618 169.23151096483485 L 1322.2594600663892 169.70710818105252 L 1323.507333745442 170.2823858267036 L 1324.706224882529 170.95379712380344 L 1325.8487419151184 171.7172025984385 L 1326.9278408457783 172.56789560199954 L 1327.9368686707646 173.50063132923552 L 1328.8696043980005 174.5096591542219 L 1329.7202974015618 175.58875808488185 L 1330.4837028761967 176.73127511747103 L 1331.1551141732966 177.9301662545581 L 1331.7303918189475 179.1780399336111 L 1332.2059890351652 180.4672025984386 L 1332.5789736069594 181.78970613252184 L 1332.847045960415 183.13739686179616 L 1333.0085533403299 184.50196582476292 Z" fill-opacity="1" stroke-opacity="1" stroke-miterlimit="10" stroke-width="2"/><text fill="rgb(255,255,255)" stroke="none" font-family="times new roman" font-size="10px" font-style="normal" font-weight="normal" text-decoration="normal" x="1315.5625" y="190.875" text-anchor="middle" dominant-baseline="text-after-edge" fill-opacity="1">*43.1</text><path fill="rgb(69,90,100)" stroke="rgb(76,175,80)" paint-order="fill stroke markers" d=" M 1007.0625 406.125 L 1007.0625 426.125 L 1102.0625 426.125 L 1102.0625 406.125 Z" fill-opacity="1" stroke-opacity="1" stroke-miterlimit="10" stroke-width="2"/><text fill="rgb(255,255,255)" stroke="none" font-family="times new roman" font-size="10px" font-style="normal" font-weight="normal" text-decoration="normal" x="1054.5625" y="421.125" text-anchor="middle" dominant-baseline="text-after-edge" fill-opacity="1">42127001G&gt;A</text><path fill="rgb(69,90,100)" stroke="rgb(76,175,80)" paint-order="fill stroke markers" d=" M 1579.5625 416.125 L 1579.4931400089954 417.8903296538765 L 1579.2854876633905 419.6447754634052 L 1578.9408232089477 421.37752068675786 L 1578.461271616641 423.0778823734363 L 1577.8497894815039 424.73537722821453 L 1577.1101467942383 426.3397862441398 L 1576.2469036979671 427.8812177061088 L 1575.2653823734363 429.35016817658067 L 1574.1716342260006 430.73758108742913 L 1572.9724025766973 432.03490257669733 L 1571.6750810874291 433.2341342260007 L 1570.2876681765806 434.3278823734363 L 1568.8187177061088 435.30940369796707 L 1567.2772862441398 436.1726467942383 L 1565.6728772282145 436.91228948150393 L 1564.0153823734363 437.52377161664094 L 1562.3150206867579 438.00332320894773 L 1560.5822754634053 438.3479876633906 L 1558.8278296538765 438.5556400089954 L 1557.0625 438.625 L 1555.2971703461235 438.5556400089954 L 1553.5427245365947 438.3479876633906 L 1551.8099793132421 438.00332320894773 L 1550.1096176265637 437.52377161664094 L 1548.4521227717855 436.91228948150393 L 1546.8477137558602 436.1726467942383 L 1545.3062822938912 435.30940369796707 L 1543.8373318234194 434.3278823734363 L 1542.4499189125709 433.2341342260007 L 1541.1525974233027 432.03490257669733 L 1539.9533657739994 430.73758108742913 L 1538.8596176265637 429.35016817658067 L 1537.8780963020329 427.8812177061088 L 1537.0148532057617 426.3397862441398 L 1536.2752105184961 424.73537722821453 L 1535.663728383359 423.0778823734363 L 1535.1841767910523 421.37752068675786 L 1534.8395123366095 419.6447754634052 L 1534.6318599910046 417.8903296538765 L 1534.5625 416.125 L 1534.6318599910046 414.3596703461235 L 1534.8395123366095 412.6052245365948 L 1535.1841767910523 410.87247931324214 L 1535.663728383359 409.1721176265637 L 1536.2752105184961 407.51462277178547 L 1537.0148532057617 405.9102137558602 L 1537.8780963020329 404.3687822938912 L 1538.8596176265637 402.89983182341933 L 1539.9533657739994 401.51241891257087 L 1541.1525974233027 400.21509742330267 L 1542.4499189125709 399.01586577399934 L 1543.8373318234194 397.9221176265637 L 1545.3062822938912 396.94059630203293 L 1546.8477137558602 396.0773532057617 L 1548.4521227717855 395.337710518496 L 1550.1096176265637 394.72622838335906 L 1551.8099793132421 394.24667679105227 L 1553.542724536595 393.9020123366094 L 1555.2971703461235 393.6943599910046 L 1557.0625 393.625 L 1558.8278296538765 393.6943599910046 L 1560.5822754634053 393.9020123366094 L 1562.3150206867579 394.2466767910523 L 1564.0153823734365 394.72622838335906 L 1565.6728772282147 395.3377105184961 L 1567.27728624414 396.07735320576177 L 1568.818717706109 396.940596302033 L 1570.2876681765808 397.92211762656376 L 1571.6750810874294 399.0158657739994 L 1572.9724025766975 400.2150974233028 L 1574.1716342260008 401.512418912571 L 1575.2653823734365 402.8998318234195 L 1576.2469036979671 404.36878229389134 L 1577.1101467942383 405.9102137558604 L 1577.849789481504 407.5146227717857 L 1578.461271616641 409.17211762656393 L 1578.9408232089477 410.87247931324237 L 1579.2854876633905 412.6052245365951 L 1579.4931400089954 414.3596703461238 Z" fill-opacity="1" stroke-opacity="1" stroke-miterlimit="10" stroke-width="2"/><text fill="rgb(255,255,255)" stroke="none" font-family="times new roman" font-size="15px" font-style="normal" font-weight="normal" text-decoration="normal" x="1557.0625" y="423.625" text-anchor="middle" dominant-baseline="text-after-edge" fill-opacity="1">*46</text><path fill="rgb(3,169,244)" stroke="none" paint-order="stroke fill markers" d=" M 1557.0625 383.625 L 1581.5625 383.625 L 1581.5625 383.625 A 8 8 0 0 1 1589.5625 391.625 L 1589.5625 440.625 L 1589.5625 440.625 A 8 8 0 0 1 1581.5625 448.625 L 1532.5625 448.625 L 1532.5625 448.625 A 8 8 0 0 1 1524.5625 440.625 L 1524.5625 391.625 L 1524.5625 391.625 A 8 8 0 0 1 1532.5625 383.625 L 1557.0625 383.625 Z" fill-opacity="0.15"/><path fill="rgb(69,90,100)" stroke="rgb(76,175,80)" paint-order="fill stroke markers" d=" M 1610.0625 406.125 L 1610.0625 426.125 L 1705.0625 426.125 L 1705.0625 406.125 Z" fill-opacity="1" stroke-opacity="1" stroke-miterlimit="10" stroke-width="2"/><text fill="rgb(255,255,255)" stroke="none" font-family="times new roman" font-size="10px" font-style="normal" font-weight="normal" text-decoration="normal" x="1657.5625" y="421.125" text-anchor="middle" dominant-baseline="text-after-edge" fill-opacity="1">42132089C&gt;T</text><path fill="rgb(69,90,100)" stroke="rgb(76,175,80)" paint-order="fill stroke markers" d=" M 741 324.375 L 741 344.375 L 836 344.375 L 836 324.375 Z" fill-opacity="1" stroke-opacity="1" stroke-miterlimit="10" stroke-width="2"/><text fill="rgb(255,255,255)" stroke="none" font-family="times new roman" font-size="10px" font-style="normal" font-weight="normal" text-decoration="normal" x="788.5" y="339.375" text-anchor="middle" dominant-baseline="text-after-edge" fill-opacity="1">42128216G&gt;T</text><path fill="rgb(69,90,100)" stroke="rgb(76,175,80)" paint-order="fill stroke markers" d=" M 804.3125 416.125 L 804.2585533403297 417.4980341752373 L 804.0970459604149 418.86260313820407 L 803.8289736069594 420.21029386747836 L 803.4559890351652 421.5327974015616 L 802.9803918189475 422.82196006638907 L 802.4051141732964 424.06983374544205 L 801.7337028761966 425.2687248825291 L 800.9702974015615 426.4112419151183 L 800.1196043980005 427.49034084577823 L 799.1868686707646 428.49936867076457 L 798.1778408457782 429.43210439800055 L 797.0987419151182 430.2827974015616 L 795.9562248825291 431.0462028761966 L 794.7573337454421 431.71761417329645 L 793.5094600663891 432.2928918189475 L 792.2202974015615 432.7684890351652 L 790.8977938674783 433.1414736069593 L 789.550103138204 433.4095459604149 L 788.1855341752373 433.57105334032974 L 786.8125 433.625 L 785.4394658247627 433.57105334032974 L 784.074896861796 433.4095459604149 L 782.7272061325217 433.1414736069593 L 781.4047025984385 432.7684890351652 L 780.1155399336109 432.2928918189475 L 778.8676662545579 431.71761417329645 L 777.6687751174709 431.0462028761966 L 776.5262580848818 430.2827974015616 L 775.4471591542218 429.43210439800055 L 774.4381313292354 428.49936867076457 L 773.5053956019995 427.49034084577823 L 772.6547025984385 426.4112419151183 L 771.8912971238034 425.2687248825291 L 771.2198858267036 424.06983374544205 L 770.6446081810525 422.82196006638907 L 770.1690109648348 421.5327974015616 L 769.7960263930406 420.21029386747836 L 769.5279540395851 418.86260313820407 L 769.3664466596703 417.4980341752373 L 769.3125 416.125 L 769.3664466596703 414.7519658247627 L 769.5279540395851 413.38739686179593 L 769.7960263930406 412.03970613252164 L 770.1690109648348 410.7172025984384 L 770.6446081810525 409.42803993361093 L 771.2198858267036 408.18016625455795 L 771.8912971238034 406.9812751174709 L 772.6547025984385 405.8387580848817 L 773.5053956019995 404.75965915422177 L 774.4381313292354 403.75063132923543 L 775.4471591542218 402.81789560199945 L 776.5262580848818 401.9672025984384 L 777.6687751174709 401.2037971238034 L 778.8676662545579 400.53238582670355 L 780.115539933611 399.9571081810525 L 781.4047025984385 399.4815109648348 L 782.7272061325217 399.1085263930407 L 784.074896861796 398.8404540395851 L 785.4394658247628 398.67894665967026 L 786.8125000000001 398.625 L 788.1855341752373 398.67894665967026 L 789.5501031382041 398.8404540395851 L 790.8977938674784 399.1085263930407 L 792.2202974015617 399.48151096483485 L 793.5094600663891 399.9571081810525 L 794.7573337454421 400.5323858267036 L 795.9562248825292 401.20379712380344 L 797.0987419151184 401.9672025984385 L 798.1778408457783 402.81789560199957 L 799.1868686707646 403.7506313292355 L 800.1196043980007 404.7596591542219 L 800.9702974015617 405.8387580848818 L 801.7337028761967 406.98127511747106 L 802.4051141732965 408.18016625455806 L 802.9803918189476 409.4280399336111 L 803.4559890351652 410.7172025984386 L 803.8289736069594 412.0397061325218 L 804.0970459604149 413.38739686179616 L 804.2585533403297 414.7519658247629 Z" fill-opacity="1" stroke-opacity="1" stroke-miterlimit="10" stroke-width="2"/><text fill="rgb(255,255,255)" stroke="none" font-family="times new roman" font-size="10px" font-style="normal" font-weight="normal" text-decoration="normal" x="786.8125" y="421.125" text-anchor="middle" dominant-baseline="text-after-edge" fill-opacity="1">*1.4</text><path fill="rgb(176,190,197)" stroke="none" paint-order="stroke fill markers" d=" M 301.9375 454 L 368.9375 454 L 368.9375 454 A 8 8 0 0 1 376.9375 462 L 376.9375 656 L 376.9375 656 A 8 8 0 0 1 368.9375 664 L 234.9375 664 L 234.9375 664 A 8 8 0 0 1 226.9375 656 L 226.9375 462 L 226.9375 462 A 8 8 0 0 1 234.9375 454 L 301.9375 454 Z" fill-opacity="0.8"/><text fill="rgb(0,0,0)" stroke="none" font-family="times new roman" font-size="10px" font-style="normal" font-weight="normal" text-decoration="normal" x="231.9375" y="469" text-anchor="start" dominant-baseline="text-after-edge" fill-opacity="0.8">42125924A&gt;G </text><text fill="rgb(0,0,0)" stroke="none" font-family="times new roman" font-size="10px" font-style="normal" font-weight="normal" text-decoration="normal" x="231.9375" y="479" text-anchor="start" dominant-baseline="text-after-edge" fill-opacity="0.8">42126069A&gt;C </text><text fill="rgb(0,0,0)" stroke="none" font-family="times new roman" font-size="10px" font-style="normal" font-weight="normal" text-decoration="normal" x="231.9375" y="489" text-anchor="start" dominant-baseline="text-after-edge" fill-opacity="0.8">42126136_42126138del </text><text fill="rgb(0,0,0)" stroke="none" font-family="times new roman" font-size="10px" font-style="normal" font-weight="normal" text-decoration="normal" x="231.9375" y="499" text-anchor="start" dominant-baseline="text-after-edge" fill-opacity="0.8">42132027C&gt;T </text><text fill="rgb(0,0,0)" stroke="none" font-family="times new roman" font-size="10px" font-style="normal" font-weight="normal" text-decoration="normal" x="231.9375" y="509" text-anchor="start" dominant-baseline="text-after-edge" fill-opacity="0.8">42132531G&gt;A </text><text fill="rgb(0,0,0)" stroke="none" font-family="times new roman" font-size="10px" font-style="normal" font-weight="normal" text-decoration="normal" x="231.9375" y="519" text-anchor="start" dominant-baseline="text-after-edge" fill-opacity="0.8">42132844C&gt;A </text><text fill="rgb(0,0,0)" stroke="none" font-family="times new roman" font-size="10px" font-style="normal" font-weight="normal" text-decoration="normal" x="231.9375" y="529" text-anchor="start" dominant-baseline="text-after-edge" fill-opacity="0.8">42132851T&gt;C </text><text fill="rgb(0,0,0)" stroke="none" font-family="times new roman" font-size="10px" font-style="normal" font-weight="normal" text-decoration="normal" x="231.9375" y="539" text-anchor="start" dominant-baseline="text-after-edge" fill-opacity="0.8">42133400T&gt;G </text><text fill="rgb(0,0,0)" stroke="none" font-family="times new roman" font-size="10px" font-style="normal" font-weight="normal" text-decoration="normal" x="231.9375" y="549" text-anchor="start" dominant-baseline="text-after-edge" fill-opacity="0.8">42133533A&gt;C </text><text fill="rgb(0,0,0)" stroke="none" font-family="times new roman" font-size="10px" font-style="normal" font-weight="normal" text-decoration="normal" x="231.9375" y="559" text-anchor="start" dominant-baseline="text-after-edge" fill-opacity="0.8">42134096del </text><text fill="rgb(0,0,0)" stroke="none" font-family="times new roman" font-size="10px" font-style="normal" font-weight="normal" text-decoration="normal" x="231.9375" y="569" text-anchor="start" dominant-baseline="text-after-edge" fill-opacity="0.8">42134820T&gt;G </text><text fill="rgb(0,0,0)" stroke="none" font-family="times new roman" font-size="10px" font-style="normal" font-weight="normal" text-decoration="normal" x="231.9375" y="579" text-anchor="start" dominant-baseline="text-after-edge" fill-opacity="0.8">42135064_42135066dup </text><text fill="rgb(0,0,0)" stroke="none" font-family="times new roman" font-size="10px" font-style="normal" font-weight="normal" text-decoration="normal" x="231.9375" y="589" text-anchor="start" dominant-baseline="text-after-edge" fill-opacity="0.8">42135201T&gt;C </text><text fill="rgb(0,0,0)" stroke="none" font-family="times new roman" font-size="10px" font-style="normal" font-weight="normal" text-decoration="normal" x="231.9375" y="599" text-anchor="start" dominant-baseline="text-after-edge" fill-opacity="0.8">42135691T&gt;C </text><g transform="scale(1.547675026123302,1.547675026123302) translate(115.98510422820482,-43.60941851633049)"/></g></svg>