<svg version="1.1" xmlns="http://www.w3.org/2000/svg" xmlns:xlink="http://www.w3.org/1999/xlink" width="1017" height="608"><defs/><g transform="translate(-110.69181256436661,59.08290422245108) scale(0.9855818743563337,0.9855818743563337)"><path fill="none" stroke="rgb(55,71,79)" paint-order="fill stroke markers" d=" M 451.64681332623115 95.86402773936021 L 473.3204273259076 130.40084354372266" stroke-opacity="1" stroke-linejoin="round" stroke-miterlimit="10" stroke-width="2"/><path fill="none" stroke="rgb(120,144,156)" paint-order="fill stroke markers" d=" M 218.75 305.0253067484663 L 458.4521859980311 408.2590089390294" stroke-opacity="1" stroke-linejoin="round" stroke-miterlimit="10"/><path fill="rgb(120,144,156)" stroke="none" paint-order="stroke fill markers" d=" M 450.5779645835509 409.604050617098 L 460.289074218258 409.0501104915443 L 454.0192563369908 401.6135868591108 Z" fill-opacity="1"/><path fill="none" stroke="rgb(120,144,156)" paint-order="fill stroke markers" d=" M 1037.75 163 L 1037.75 181.875" stroke-opacity="1" stroke-linejoin="round" stroke-miterlimit="10"/><path fill="rgb(120,144,156)" stroke="none" paint-order="stroke fill markers" d=" M 1033.4 175.175 L 1037.75 183.875 L 1042.1 175.175 Z" fill-opacity="1"/><path fill="none" stroke="rgb(120,144,156)" paint-order="fill stroke markers" d=" M 838.7965025630999 171.42661329700383 L 871.1898142600123 267.553107356947" stroke-opacity="1" stroke-linejoin="round" stroke-miterlimit="10"/><path fill="rgb(120,144,156)" stroke="none" paint-order="stroke fill markers" d=" M 864.9279930397812 262.5930574574133 L 871.8284974369001 269.4483867029962 L 873.172458195095 259.8147856379514 Z" fill-opacity="1"/><path fill="none" stroke="rgb(55,71,79)" paint-order="fill stroke markers" d=" M 655.9081632653061 91.5 L 680.3204273259075 130.40084354372266" stroke-opacity="1" stroke-linejoin="round" stroke-miterlimit="10" stroke-width="2"/><path fill="none" stroke="rgb(55,71,79)" paint-order="fill stroke markers" d=" M 423.52482080459356 169.8109836234454 L 478.7496131455056 266.7198740293728" stroke-opacity="1" stroke-linejoin="round" stroke-miterlimit="10" stroke-width="2"/><path fill="none" stroke="rgb(120,144,156)" paint-order="fill stroke markers" d=" M 281.4066691155475 299.2909510244658 L 461.2961278168733 405.41061489701264" stroke-opacity="1" stroke-linejoin="round" stroke-miterlimit="10"/><path fill="rgb(120,144,156)" stroke="none" paint-order="stroke fill markers" d=" M 453.31519757147845 405.75303630134 L 463.01872968180476 406.42680524086296 L 457.7356255672274 398.2597181888881 Z" fill-opacity="1"/><path fill="none" stroke="rgb(120,144,156)" paint-order="fill stroke markers" d=" M 490.5037141683897 314.3601105746009 L 487.57581477613434 400.0011677980705" stroke-opacity="1" stroke-linejoin="round" stroke-miterlimit="10"/><path fill="rgb(120,144,156)" stroke="none" paint-order="stroke fill markers" d=" M 483.45728081818436 393.15644880915556 L 487.50747863247864 402 L 492.1522008965776 393.4537110340579 Z" fill-opacity="1"/><path fill="none" stroke="rgb(55,71,79)" paint-order="fill stroke markers" d=" M 832.25 91.5 L 832.25 131.5" stroke-opacity="1" stroke-linejoin="round" stroke-miterlimit="10" stroke-width="2"/><path fill="none" stroke="rgb(55,71,79)" paint-order="fill stroke markers" d=" M 729.1031866737688 95.86402773936021 L 707.4295726740925 130.40084354372266" stroke-opacity="1" stroke-linejoin="round" stroke-miterlimit="10" stroke-width="2"/><path fill="none" stroke="rgb(120,144,156)" paint-order="fill stroke markers" d=" M 920.1191780821918 165 L 885.5601857399877 267.553107356947" stroke-opacity="1" stroke-linejoin="round" stroke-miterlimit="10"/><path fill="rgb(120,144,156)" stroke="none" paint-order="stroke fill markers" d=" M 883.577541804905 259.8147856379514 L 884.9215025630999 269.4483867029962 L 891.8220069602187 262.5930574574133 Z" fill-opacity="1"/><path fill="none" stroke="rgb(55,71,79)" paint-order="fill stroke markers" d=" M 524.8418367346939 91.5 L 500.4295726740924 130.40084354372266" stroke-opacity="1" stroke-linejoin="round" stroke-miterlimit="10" stroke-width="2"/><path fill="none" stroke="rgb(120,144,156)" paint-order="fill stroke markers" d=" M 211.82431506849315 165 L 255.05176915107614 268.12431856302476" stroke-opacity="1" stroke-linejoin="round" stroke-miterlimit="10"/><path fill="rgb(120,144,156)" stroke="none" paint-order="stroke fill markers" d=" M 248.44983088713693 263.62688472147295 L 255.82494522653604 269.9688235796448 L 256.473427709434 260.2635687932224 Z" fill-opacity="1"/><path fill="none" stroke="rgb(120,144,156)" paint-order="fill stroke markers" d=" M 858.9438083436085 295.40790064309715 L 517.2926902855606 410.27336274882015" stroke-opacity="1" stroke-linejoin="round" stroke-miterlimit="10"/><path fill="rgb(120,144,156)" stroke="none" paint-order="stroke fill markers" d=" M 522.2571227880169 404.01501552862237 L 515.396964270303 410.9107189091223 L 525.0296220853312 412.2614236949934 Z" fill-opacity="1"/><path fill="none" stroke="rgb(120,144,156)" paint-order="fill stroke markers" d=" M 315.67568493150685 165 L 272.44823084892386 268.12431856302476" stroke-opacity="1" stroke-linejoin="round" stroke-miterlimit="10"/><path fill="rgb(120,144,156)" stroke="none" paint-order="stroke fill markers" d=" M 271.026572290566 260.2635687932224 L 271.67505477346396 269.9688235796448 L 279.05016911286305 263.62688472147295 Z" fill-opacity="1"/><path fill="none" stroke="rgb(120,144,156)" paint-order="fill stroke markers" d=" M 487.71290345089 177.48622996457078 L 490.4713786313931 261.389850038208" stroke-opacity="1" stroke-linejoin="round" stroke-miterlimit="10"/><path fill="rgb(120,144,156)" stroke="none" paint-order="stroke fill markers" d=" M 485.90357261308543 254.836404518551 L 490.53709654911 263.3887700354292 L 494.5988746009978 254.55053157648265 Z" fill-opacity="1"/><path fill="none" stroke="rgb(120,144,156)" paint-order="fill stroke markers" d=" M 672.7484341722175 166.279993568779 L 514.1585513829027 273.4750069356305" stroke-opacity="1" stroke-linejoin="round" stroke-miterlimit="10"/><path fill="rgb(120,144,156)" stroke="none" paint-order="stroke fill markers" d=" M 517.2734540896461 266.11906504301584 L 512.5015658277825 274.595006431221 L 522.1454518954648 273.32695220778874 Z" fill-opacity="1"/><path fill="none" stroke="rgb(120,144,156)" paint-order="fill stroke markers" d=" M 962.75 306.79535398230087 L 519.654166353773 412.66780980927547" stroke-opacity="1" stroke-linejoin="round" stroke-miterlimit="10"/><path fill="rgb(120,144,156)" stroke="none" paint-order="stroke fill markers" d=" M 525.1598048548453 406.8798529421668 L 517.7089239536443 413.13260224116465 L 527.1816519335632 415.34165738272674 Z" fill-opacity="1"/><path fill="rgb(69,90,100)" stroke="rgb(76,175,80)" paint-order="fill stroke markers" d=" M 273.625 142 L 273.625 162 L 368.625 162 L 368.625 142 Z" fill-opacity="1" stroke-opacity="1" stroke-miterlimit="10" stroke-width="6"/><text fill="rgb(255,255,255)" stroke="none" font-family="times new roman" font-size="10px" font-style="normal" font-weight="normal" text-decoration="normal" x="321.125" y="157" text-anchor="middle" dominant-baseline="text-after-edge" fill-opacity="1">42129950A&gt;C</text><path fill="rgb(69,90,100)" stroke="rgb(255,193,7)" paint-order="fill stroke markers" d=" M 485.5 68.5 L 485.5 88.5 L 580.5 88.5 L 580.5 68.5 Z" fill-opacity="1" stroke-opacity="1" stroke-miterlimit="10" stroke-width="6"/><text fill="rgb(255,255,255)" stroke="none" font-family="times new roman" font-size="10px" font-style="normal" font-weight="normal" text-decoration="normal" x="533" y="83.5" text-anchor="middle" dominant-baseline="text-after-edge" fill-opacity="1">42126611C&gt;G</text><path fill="rgb(69,90,100)" stroke="rgb(76,175,80)" paint-order="fill stroke markers" d=" M 458.25 78.5 L 458.19605334032974 79.87303417523728 L 458.0345459604149 81.23760313820404 L 457.7664736069593 82.58529386747834 L 457.3934890351652 83.90779740156158 L 456.9178918189475 85.19696006638907 L 456.34261417329645 86.44483374544207 L 455.6712028761966 87.6437248825291 L 454.9077974015616 88.78624191511828 L 454.05710439800055 89.8653408457782 L 453.12436867076457 90.87436867076458 L 452.11534084577823 91.80710439800055 L 451.0362419151183 92.65779740156158 L 449.8937248825291 93.42120287619662 L 448.69483374544205 94.09261417329644 L 447.44696006638907 94.66789181894751 L 446.1577974015616 95.14348903516519 L 444.83529386747836 95.51647360695934 L 443.48760313820407 95.7845459604149 L 442.1230341752373 95.94605334032974 L 440.75 96 L 439.3769658247627 95.94605334032974 L 438.01239686179593 95.7845459604149 L 436.66470613252164 95.51647360695934 L 435.3422025984384 95.14348903516519 L 434.05303993361093 94.66789181894751 L 432.80516625455795 94.09261417329644 L 431.6062751174709 93.42120287619662 L 430.4637580848817 92.65779740156158 L 429.38465915422177 91.80710439800055 L 428.37563132923543 90.87436867076458 L 427.44289560199945 89.86534084577822 L 426.5922025984384 88.78624191511828 L 425.8287971238034 87.64372488252911 L 425.15738582670355 86.44483374544207 L 424.5821081810525 85.19696006638907 L 424.1065109648348 83.90779740156158 L 423.7335263930407 82.58529386747834 L 423.4654540395851 81.23760313820404 L 423.30394665967026 79.8730341752373 L 423.25 78.5 L 423.30394665967026 77.12696582476272 L 423.4654540395851 75.76239686179596 L 423.7335263930407 74.41470613252166 L 424.1065109648348 73.09220259843842 L 424.5821081810525 71.80303993361093 L 425.15738582670355 70.55516625455793 L 425.8287971238034 69.3562751174709 L 426.5922025984384 68.21375808488172 L 427.44289560199945 67.1346591542218 L 428.37563132923543 66.12563132923542 L 429.38465915422177 65.19289560199947 L 430.4637580848817 64.34220259843842 L 431.6062751174709 63.57879712380338 L 432.80516625455795 62.90738582670356 L 434.05303993361093 62.332108181052476 L 435.34220259843846 61.856510964834804 L 436.6647061325217 61.48352639304065 L 438.012396861796 61.21545403958508 L 439.37696582476275 61.05394665967026 L 440.75000000000006 61 L 442.12303417523736 61.05394665967027 L 443.4876031382041 61.2154540395851 L 444.8352938674784 61.48352639304068 L 446.15779740156165 61.85651096483484 L 447.4469600663892 62.33210818105252 L 448.69483374544217 62.90738582670361 L 449.8937248825292 63.57879712380345 L 451.03624191511835 64.34220259843849 L 452.1153408457783 65.19289560199954 L 453.1243686707647 66.12563132923552 L 454.05710439800066 67.1346591542219 L 454.90779740156165 68.21375808488185 L 455.6712028761967 69.35627511747103 L 456.3426141732965 70.55516625455807 L 456.91789181894757 71.80303993361109 L 457.39348903516526 73.09220259843859 L 457.7664736069594 74.41470613252184 L 458.03454596041496 75.76239686179616 L 458.19605334032974 77.12696582476292 Z" fill-opacity="1" stroke-opacity="1" stroke-miterlimit="10" stroke-width="6"/><text fill="rgb(255,255,255)" stroke="none" font-family="times new roman" font-size="10px" font-style="normal" font-weight="normal" text-decoration="normal" x="440.75" y="83.5" text-anchor="middle" dominant-baseline="text-after-edge" fill-opacity="1">*39.2</text><path fill="rgb(69,90,100)" stroke="rgb(76,175,80)" paint-order="fill stroke markers" d=" M 849.75 152 L 849.6960533403297 153.37303417523728 L 849.5345459604149 154.73760313820404 L 849.2664736069594 156.08529386747836 L 848.8934890351652 157.40779740156157 L 848.4178918189475 158.69696006638907 L 847.8426141732964 159.94483374544205 L 847.1712028761966 161.1437248825291 L 846.4077974015615 162.28624191511827 L 845.5571043980005 163.3653408457782 L 844.6243686707646 164.37436867076457 L 843.6153408457782 165.30710439800055 L 842.5362419151182 166.1577974015616 L 841.3937248825291 166.92120287619662 L 840.1948337454421 167.59261417329643 L 838.9469600663891 168.1678918189475 L 837.6577974015615 168.64348903516517 L 836.3352938674783 169.01647360695935 L 834.987603138204 169.2845459604149 L 833.6230341752373 169.44605334032974 L 832.25 169.5 L 830.8769658247627 169.44605334032974 L 829.512396861796 169.2845459604149 L 828.1647061325217 169.01647360695935 L 826.8422025984385 168.6434890351652 L 825.5530399336109 168.1678918189475 L 824.3051662545579 167.59261417329643 L 823.1062751174709 166.92120287619662 L 821.9637580848818 166.1577974015616 L 820.8846591542218 165.30710439800055 L 819.8756313292354 164.37436867076457 L 818.9428956019995 163.3653408457782 L 818.0922025984385 162.2862419151183 L 817.3287971238034 161.1437248825291 L 816.6573858267036 159.94483374544208 L 816.0821081810525 158.69696006638907 L 815.6065109648348 157.4077974015616 L 815.2335263930406 156.08529386747836 L 814.9654540395851 154.73760313820404 L 814.8039466596703 153.37303417523728 L 814.75 152 L 814.8039466596703 150.62696582476272 L 814.9654540395851 149.26239686179596 L 815.2335263930406 147.91470613252164 L 815.6065109648348 146.59220259843843 L 816.0821081810525 145.30303993361093 L 816.6573858267036 144.05516625455795 L 817.3287971238034 142.8562751174709 L 818.0922025984385 141.71375808488173 L 818.9428956019995 140.6346591542218 L 819.8756313292354 139.62563132923543 L 820.8846591542218 138.69289560199945 L 821.9637580848818 137.84220259843843 L 823.1062751174709 137.07879712380338 L 824.3051662545579 136.40738582670355 L 825.553039933611 135.8321081810525 L 826.8422025984385 135.3565109648348 L 828.1647061325217 134.98352639304065 L 829.512396861796 134.7154540395851 L 830.8769658247628 134.55394665967026 L 832.2500000000001 134.5 L 833.6230341752373 134.55394665967026 L 834.9876031382041 134.7154540395851 L 836.3352938674784 134.98352639304068 L 837.6577974015617 135.35651096483485 L 838.9469600663891 135.83210818105252 L 840.1948337454421 136.4073858267036 L 841.3937248825292 137.07879712380344 L 842.5362419151184 137.8422025984385 L 843.6153408457783 138.69289560199954 L 844.6243686707646 139.62563132923552 L 845.5571043980007 140.6346591542219 L 846.4077974015617 141.71375808488185 L 847.1712028761967 142.85627511747103 L 847.8426141732965 144.0551662545581 L 848.4178918189476 145.3030399336111 L 848.8934890351652 146.5922025984386 L 849.2664736069594 147.91470613252184 L 849.5345459604149 149.26239686179616 L 849.6960533403297 150.62696582476292 Z" fill-opacity="1" stroke-opacity="1" stroke-miterlimit="10" stroke-width="6"/><text fill="rgb(255,255,255)" stroke="none" font-family="times new roman" font-size="10px" font-style="normal" font-weight="normal" text-decoration="normal" x="832.25" y="157" text-anchor="middle" dominant-baseline="text-after-edge" fill-opacity="1">*1.41</text><path fill="rgb(69,90,100)" stroke="rgb(76,175,80)" paint-order="fill stroke markers" d=" M 716.375 152 L 716.3056400089954 153.7653296538765 L 716.0979876633907 155.51977546340518 L 715.7533232089477 157.25252068675786 L 715.2737716166409 158.95288237343632 L 714.662289481504 160.61037722821453 L 713.9226467942383 162.21478624413982 L 713.0594036979671 163.75621770610886 L 712.0778823734363 165.22516817658064 L 710.9841342260007 166.61258108742913 L 709.7849025766973 167.9099025766973 L 708.4875810874291 169.1091342260007 L 707.1001681765806 170.20288237343632 L 705.6312177061088 171.18440369796707 L 704.0897862441398 172.0476467942383 L 702.4853772282145 172.78728948150396 L 700.8278823734363 173.39877161664094 L 699.1275206867579 173.87832320894773 L 697.3947754634052 174.2229876633906 L 695.6403296538765 174.43064000899537 L 693.875 174.5 L 692.1096703461235 174.43064000899537 L 690.3552245365948 174.2229876633906 L 688.6224793132421 173.87832320894773 L 686.9221176265637 173.39877161664094 L 685.2646227717855 172.78728948150396 L 683.6602137558602 172.0476467942383 L 682.1187822938912 171.18440369796707 L 680.6498318234194 170.20288237343632 L 679.2624189125709 169.1091342260007 L 677.9650974233027 167.90990257669733 L 676.7658657739993 166.61258108742913 L 675.6721176265637 165.22516817658064 L 674.6905963020329 163.75621770610886 L 673.8273532057617 162.21478624413982 L 673.087710518496 160.61037722821453 L 672.4762283833591 158.95288237343632 L 671.9966767910523 157.25252068675786 L 671.6520123366095 155.5197754634052 L 671.4443599910046 153.7653296538765 L 671.375 152 L 671.4443599910046 150.2346703461235 L 671.6520123366093 148.48022453659482 L 671.9966767910523 146.74747931324214 L 672.4762283833591 145.04711762656368 L 673.087710518496 143.38962277178547 L 673.8273532057617 141.7852137558602 L 674.6905963020329 140.24378229389114 L 675.6721176265637 138.77483182341936 L 676.7658657739993 137.38741891257087 L 677.9650974233027 136.0900974233027 L 679.2624189125709 134.8908657739993 L 680.6498318234194 133.79711762656368 L 682.1187822938912 132.81559630203293 L 683.6602137558602 131.9523532057617 L 685.2646227717855 131.21271051849604 L 686.9221176265637 130.60122838335903 L 688.6224793132421 130.12167679105227 L 690.3552245365948 129.7770123366094 L 692.1096703461236 129.5693599910046 L 693.8750000000001 129.5 L 695.6403296538766 129.56935999100463 L 697.3947754634053 129.7770123366094 L 699.127520686758 130.1216767910523 L 700.8278823734364 130.60122838335909 L 702.4853772282146 131.2127105184961 L 704.0897862441399 131.9523532057618 L 705.6312177061089 132.815596302033 L 707.1001681765807 133.79711762656376 L 708.4875810874292 134.89086577399942 L 709.7849025766974 136.0900974233028 L 710.9841342260008 137.387418912571 L 712.0778823734364 138.7748318234195 L 713.0594036979671 140.24378229389131 L 713.9226467942384 141.78521375586038 L 714.662289481504 143.3896227717857 L 715.273771616641 145.0471176265639 L 715.7533232089478 146.74747931324237 L 716.0979876633907 148.48022453659505 L 716.3056400089954 150.23467034612375 Z" fill-opacity="1" stroke-opacity="1" stroke-miterlimit="10" stroke-width="6"/><text fill="rgb(255,255,255)" stroke="none" font-family="times new roman" font-size="15px" font-style="normal" font-weight="normal" text-decoration="normal" x="693.875" y="159.5" text-anchor="middle" dominant-baseline="text-after-edge" fill-opacity="1">*34</text><path fill="rgb(69,90,100)" stroke="rgb(76,175,80)" paint-order="fill stroke markers" d=" M 513.875 288.875 L 513.8056400089954 290.6403296538765 L 513.5979876633907 292.3947754634052 L 513.2533232089477 294.12752068675786 L 512.7737716166409 295.8278823734363 L 512.162289481504 297.48537722821453 L 511.4226467942383 299.0897862441398 L 510.55940369796707 300.6312177061088 L 509.5778823734363 302.10016817658067 L 508.4841342260007 303.48758108742913 L 507.28490257669733 304.78490257669733 L 505.98758108742913 305.9841342260007 L 504.60016817658067 307.0778823734363 L 503.1312177061088 308.05940369796707 L 501.5897862441398 308.9226467942383 L 499.98537722821453 309.66228948150393 L 498.3278823734363 310.27377161664094 L 496.62752068675786 310.75332320894773 L 494.8947754634052 311.0979876633906 L 493.1403296538765 311.3056400089954 L 491.375 311.375 L 489.6096703461235 311.3056400089954 L 487.8552245365948 311.0979876633906 L 486.12247931324214 310.75332320894773 L 484.4221176265637 310.27377161664094 L 482.76462277178547 309.66228948150393 L 481.1602137558602 308.9226467942383 L 479.6187822938912 308.05940369796707 L 478.14983182341933 307.0778823734363 L 476.76241891257087 305.9841342260007 L 475.46509742330267 304.78490257669733 L 474.2658657739993 303.48758108742913 L 473.1721176265637 302.10016817658067 L 472.19059630203293 300.6312177061088 L 471.3273532057617 299.0897862441398 L 470.58771051849607 297.48537722821453 L 469.97622838335906 295.8278823734363 L 469.49667679105227 294.12752068675786 L 469.1520123366094 292.3947754634052 L 468.9443599910046 290.6403296538765 L 468.875 288.875 L 468.9443599910046 287.1096703461235 L 469.1520123366094 285.3552245365948 L 469.49667679105227 283.62247931324214 L 469.97622838335906 281.9221176265637 L 470.58771051849607 280.26462277178547 L 471.3273532057617 278.6602137558602 L 472.19059630203293 277.1187822938912 L 473.1721176265637 275.64983182341933 L 474.2658657739993 274.26241891257087 L 475.46509742330267 272.96509742330267 L 476.76241891257087 271.76586577399934 L 478.14983182341933 270.6721176265637 L 479.6187822938912 269.69059630203293 L 481.16021375586024 268.8273532057617 L 482.7646227717855 268.087710518496 L 484.4221176265637 267.47622838335906 L 486.1224793132422 266.99667679105227 L 487.85522453659485 266.6520123366094 L 489.60967034612355 266.4443599910046 L 491.37500000000006 266.375 L 493.1403296538766 266.4443599910046 L 494.89477546340527 266.6520123366094 L 496.627520686758 266.9966767910523 L 498.3278823734364 267.47622838335906 L 499.98537722821465 268.0877105184961 L 501.58978624413993 268.82735320576177 L 503.131217706109 269.690596302033 L 504.6001681765808 270.67211762656376 L 505.98758108742925 271.7658657739994 L 507.28490257669745 272.9650974233028 L 508.48413422600083 274.262418912571 L 509.5778823734364 275.6498318234195 L 510.5594036979672 277.11878229389134 L 511.4226467942384 278.6602137558604 L 512.162289481504 280.2646227717857 L 512.773771616641 281.92211762656393 L 513.2533232089478 283.62247931324237 L 513.5979876633907 285.3552245365951 L 513.8056400089954 287.1096703461238 Z" fill-opacity="1" stroke-opacity="1" stroke-miterlimit="10" stroke-width="6"/><text fill="rgb(255,255,255)" stroke="none" font-family="times new roman" font-size="15px" font-style="normal" font-weight="normal" text-decoration="normal" x="491.375" y="296.375" text-anchor="middle" dominant-baseline="text-after-edge" fill-opacity="1">*2</text><path fill="rgb(3,169,244)" stroke="none" paint-order="stroke fill markers" d=" M 491.375 256.375 L 515.875 256.375 L 515.875 256.375 A 8 8 0 0 1 523.875 264.375 L 523.875 313.375 L 523.875 313.375 A 8 8 0 0 1 515.875 321.375 L 466.875 321.375 L 466.875 321.375 A 8 8 0 0 1 458.875 313.375 L 458.875 264.375 L 458.875 264.375 A 8 8 0 0 1 466.875 256.375 L 491.375 256.375 Z" fill-opacity="0.15"/><path fill="rgb(69,90,100)" stroke="rgb(76,175,80)" paint-order="fill stroke markers" d=" M 784.75 68.5 L 784.75 88.5 L 879.75 88.5 L 879.75 68.5 Z" fill-opacity="1" stroke-opacity="1" stroke-miterlimit="10" stroke-width="6"/><text fill="rgb(255,255,255)" stroke="none" font-family="times new roman" font-size="10px" font-style="normal" font-weight="normal" text-decoration="normal" x="832.25" y="83.5" text-anchor="middle" dominant-baseline="text-after-edge" fill-opacity="1">42127407T&gt;G</text><path fill="rgb(69,90,100)" stroke="rgb(76,175,80)" paint-order="fill stroke markers" d=" M 158.875 142 L 158.875 162 L 253.87499999999997 162 L 253.875 142 Z" fill-opacity="1" stroke-opacity="1" stroke-miterlimit="10" stroke-width="6"/><text fill="rgb(255,255,255)" stroke="none" font-family="times new roman" font-size="10px" font-style="normal" font-weight="normal" text-decoration="normal" x="206.375" y="157" text-anchor="middle" dominant-baseline="text-after-edge" fill-opacity="1">42130482C&gt;A</text><path fill="rgb(69,90,100)" stroke="rgb(76,175,80)" paint-order="fill stroke markers" d=" M 1037.75 142 L 1080.25 142 L 1080.25 142 A 5 5 0 0 1 1085.25 147 L 1085.25 157 L 1085.25 157 A 5 5 0 0 1 1080.25 162 L 995.25 162 L 995.25 162 A 5 5 0 0 1 990.25 157 L 990.25 147 L 990.25 147 A 5 5 0 0 1 995.25 142 L 1037.75 142 Z" fill-opacity="1" stroke-opacity="1" stroke-miterlimit="10" stroke-width="2"/><text fill="rgb(255,255,255)" stroke="none" font-family="times new roman" font-size="10px" font-style="normal" font-weight="normal" text-decoration="normal" x="1037.75" y="157" text-anchor="middle" dominant-baseline="text-after-edge" fill-opacity="1">42132049dup</text><path fill="rgb(69,90,100)" stroke="rgb(76,175,80)" paint-order="fill stroke markers" d=" M 509.375 152 L 509.3056400089954 153.7653296538765 L 509.0979876633906 155.51977546340518 L 508.75332320894773 157.25252068675786 L 508.27377161664094 158.95288237343632 L 507.66228948150393 160.61037722821453 L 506.9226467942383 162.21478624413982 L 506.05940369796707 163.75621770610886 L 505.0778823734363 165.22516817658064 L 503.9841342260007 166.61258108742913 L 502.78490257669733 167.9099025766973 L 501.48758108742913 169.1091342260007 L 500.10016817658067 170.20288237343632 L 498.6312177061088 171.18440369796707 L 497.0897862441398 172.0476467942383 L 495.48537722821453 172.78728948150396 L 493.8278823734363 173.39877161664094 L 492.12752068675786 173.87832320894773 L 490.3947754634052 174.2229876633906 L 488.6403296538765 174.43064000899537 L 486.875 174.5 L 485.1096703461235 174.43064000899537 L 483.3552245365948 174.2229876633906 L 481.62247931324214 173.87832320894773 L 479.9221176265637 173.39877161664094 L 478.26462277178547 172.78728948150396 L 476.6602137558602 172.0476467942383 L 475.1187822938912 171.18440369796707 L 473.64983182341933 170.20288237343632 L 472.26241891257087 169.1091342260007 L 470.96509742330267 167.90990257669733 L 469.7658657739993 166.61258108742913 L 468.6721176265637 165.22516817658064 L 467.69059630203293 163.75621770610886 L 466.8273532057617 162.21478624413982 L 466.08771051849607 160.61037722821453 L 465.47622838335906 158.95288237343632 L 464.99667679105227 157.25252068675786 L 464.6520123366094 155.5197754634052 L 464.4443599910046 153.7653296538765 L 464.375 152 L 464.4443599910046 150.2346703461235 L 464.6520123366094 148.48022453659482 L 464.99667679105227 146.74747931324214 L 465.47622838335906 145.04711762656368 L 466.08771051849607 143.38962277178547 L 466.8273532057617 141.7852137558602 L 467.69059630203293 140.24378229389114 L 468.6721176265637 138.77483182341936 L 469.7658657739993 137.38741891257087 L 470.96509742330267 136.0900974233027 L 472.26241891257087 134.8908657739993 L 473.64983182341933 133.79711762656368 L 475.1187822938912 132.81559630203293 L 476.66021375586024 131.9523532057617 L 478.2646227717855 131.21271051849604 L 479.9221176265637 130.60122838335903 L 481.6224793132422 130.12167679105227 L 483.35522453659485 129.7770123366094 L 485.10967034612355 129.5693599910046 L 486.87500000000006 129.5 L 488.6403296538766 129.56935999100463 L 490.39477546340527 129.7770123366094 L 492.127520686758 130.1216767910523 L 493.8278823734364 130.60122838335909 L 495.48537722821465 131.2127105184961 L 497.08978624413993 131.9523532057618 L 498.631217706109 132.815596302033 L 500.1001681765808 133.79711762656376 L 501.48758108742925 134.89086577399942 L 502.78490257669745 136.0900974233028 L 503.98413422600083 137.387418912571 L 505.0778823734364 138.7748318234195 L 506.0594036979672 140.24378229389131 L 506.9226467942384 141.78521375586038 L 507.66228948150405 143.3896227717857 L 508.27377161664106 145.0471176265639 L 508.7533232089478 146.74747931324237 L 509.09798766339065 148.48022453659505 L 509.3056400089954 150.23467034612375 Z" fill-opacity="1" stroke-opacity="1" stroke-miterlimit="10" stroke-width="6"/><text fill="rgb(255,255,255)" stroke="none" font-family="times new roman" font-size="15px" font-style="normal" font-weight="normal" text-decoration="normal" x="486.875" y="159.5" text-anchor="middle" dominant-baseline="text-after-edge" fill-opacity="1">*39</text><path fill="rgb(69,90,100)" stroke="rgb(76,175,80)" paint-order="fill stroke markers" d=" M 281.25 288.875 L 281.19605334032974 290.2480341752373 L 281.0345459604149 291.61260313820407 L 280.7664736069593 292.96029386747836 L 280.3934890351652 294.2827974015616 L 279.9178918189475 295.57196006638907 L 279.34261417329645 296.81983374544205 L 278.6712028761966 298.0187248825291 L 277.9077974015616 299.1612419151183 L 277.05710439800055 300.24034084577823 L 276.12436867076457 301.24936867076457 L 275.11534084577823 302.18210439800055 L 274.0362419151183 303.0327974015616 L 272.8937248825291 303.7962028761966 L 271.69483374544205 304.46761417329645 L 270.44696006638907 305.0428918189475 L 269.1577974015616 305.5184890351652 L 267.83529386747836 305.8914736069593 L 266.48760313820407 306.1595459604149 L 265.1230341752373 306.32105334032974 L 263.75 306.375 L 262.3769658247627 306.32105334032974 L 261.01239686179593 306.1595459604149 L 259.66470613252164 305.8914736069593 L 258.3422025984384 305.5184890351652 L 257.05303993361093 305.0428918189475 L 255.80516625455795 304.46761417329645 L 254.6062751174709 303.7962028761966 L 253.46375808488173 303.0327974015616 L 252.3846591542218 302.18210439800055 L 251.37563132923543 301.24936867076457 L 250.44289560199945 300.24034084577823 L 249.59220259843843 299.1612419151183 L 248.82879712380338 298.0187248825291 L 248.15738582670357 296.81983374544205 L 247.5821081810525 295.57196006638907 L 247.10651096483483 294.2827974015616 L 246.73352639304065 292.96029386747836 L 246.4654540395851 291.61260313820407 L 246.30394665967026 290.2480341752373 L 246.25 288.875 L 246.30394665967026 287.5019658247627 L 246.4654540395851 286.13739686179593 L 246.73352639304065 284.78970613252164 L 247.1065109648348 283.4672025984384 L 247.5821081810525 282.17803993361093 L 248.15738582670357 280.93016625455795 L 248.82879712380338 279.7312751174709 L 249.5922025984384 278.5887580848817 L 250.44289560199945 277.50965915422177 L 251.3756313292354 276.50063132923543 L 252.38465915422177 275.56789560199945 L 253.4637580848817 274.7172025984384 L 254.6062751174709 273.9537971238034 L 255.80516625455795 273.28238582670355 L 257.05303993361093 272.7071081810525 L 258.34220259843846 272.2315109648348 L 259.6647061325217 271.8585263930407 L 261.012396861796 271.5904540395851 L 262.37696582476275 271.42894665967026 L 263.75000000000006 271.375 L 265.12303417523736 271.42894665967026 L 266.4876031382041 271.5904540395851 L 267.8352938674784 271.8585263930407 L 269.15779740156165 272.23151096483485 L 270.4469600663892 272.7071081810525 L 271.69483374544217 273.2823858267036 L 272.8937248825292 273.95379712380344 L 274.03624191511835 274.7172025984385 L 275.1153408457783 275.56789560199957 L 276.1243686707647 276.5006313292355 L 277.05710439800066 277.5096591542219 L 277.90779740156165 278.5887580848818 L 278.6712028761967 279.73127511747106 L 279.3426141732965 280.93016625455806 L 279.91789181894757 282.1780399336111 L 280.39348903516526 283.4672025984386 L 280.7664736069594 284.7897061325218 L 281.03454596041496 286.13739686179616 L 281.19605334032974 287.5019658247629 Z" fill-opacity="1" stroke-opacity="1" stroke-miterlimit="10" stroke-width="6"/><text fill="rgb(255,255,255)" stroke="none" font-family="times new roman" font-size="10px" font-style="normal" font-weight="normal" text-decoration="normal" x="263.75" y="293.875" text-anchor="middle" dominant-baseline="text-after-edge" fill-opacity="1">*1.58</text><path fill="rgb(69,90,100)" stroke="rgb(76,175,80)" paint-order="fill stroke markers" d=" M 757.5 78.5 L 757.4460533403297 79.87303417523728 L 757.2845459604149 81.23760313820404 L 757.0164736069594 82.58529386747834 L 756.6434890351652 83.90779740156158 L 756.1678918189475 85.19696006638907 L 755.5926141732964 86.44483374544207 L 754.9212028761966 87.6437248825291 L 754.1577974015615 88.78624191511828 L 753.3071043980005 89.8653408457782 L 752.3743686707646 90.87436867076458 L 751.3653408457782 91.80710439800055 L 750.2862419151182 92.65779740156158 L 749.1437248825291 93.42120287619662 L 747.9448337454421 94.09261417329644 L 746.6969600663891 94.66789181894751 L 745.4077974015615 95.14348903516519 L 744.0852938674783 95.51647360695934 L 742.737603138204 95.7845459604149 L 741.3730341752373 95.94605334032974 L 740 96 L 738.6269658247627 95.94605334032974 L 737.262396861796 95.7845459604149 L 735.9147061325217 95.51647360695934 L 734.5922025984385 95.14348903516519 L 733.3030399336109 94.66789181894751 L 732.0551662545579 94.09261417329644 L 730.8562751174709 93.42120287619662 L 729.7137580848818 92.65779740156158 L 728.6346591542218 91.80710439800055 L 727.6256313292354 90.87436867076458 L 726.6928956019995 89.86534084577822 L 725.8422025984385 88.78624191511828 L 725.0787971238034 87.64372488252911 L 724.4073858267036 86.44483374544207 L 723.8321081810525 85.19696006638907 L 723.3565109648348 83.90779740156158 L 722.9835263930406 82.58529386747834 L 722.7154540395851 81.23760313820404 L 722.5539466596703 79.8730341752373 L 722.5 78.5 L 722.5539466596703 77.12696582476272 L 722.7154540395851 75.76239686179596 L 722.9835263930406 74.41470613252166 L 723.3565109648348 73.09220259843842 L 723.8321081810525 71.80303993361093 L 724.4073858267036 70.55516625455793 L 725.0787971238034 69.3562751174709 L 725.8422025984385 68.21375808488172 L 726.6928956019995 67.1346591542218 L 727.6256313292354 66.12563132923542 L 728.6346591542218 65.19289560199947 L 729.7137580848818 64.34220259843842 L 730.8562751174709 63.57879712380338 L 732.0551662545579 62.90738582670356 L 733.303039933611 62.332108181052476 L 734.5922025984385 61.856510964834804 L 735.9147061325217 61.48352639304065 L 737.262396861796 61.21545403958508 L 738.6269658247628 61.05394665967026 L 740.0000000000001 61 L 741.3730341752373 61.05394665967027 L 742.7376031382041 61.2154540395851 L 744.0852938674784 61.48352639304068 L 745.4077974015617 61.85651096483484 L 746.6969600663891 62.33210818105252 L 747.9448337454421 62.90738582670361 L 749.1437248825292 63.57879712380345 L 750.2862419151184 64.34220259843849 L 751.3653408457783 65.19289560199954 L 752.3743686707646 66.12563132923552 L 753.3071043980007 67.1346591542219 L 754.1577974015617 68.21375808488185 L 754.9212028761967 69.35627511747103 L 755.5926141732965 70.55516625455807 L 756.1678918189476 71.80303993361109 L 756.6434890351652 73.09220259843859 L 757.0164736069594 74.41470613252184 L 757.2845459604149 75.76239686179616 L 757.4460533403297 77.12696582476292 Z" fill-opacity="1" stroke-opacity="1" stroke-miterlimit="10" stroke-width="6"/><text fill="rgb(255,255,255)" stroke="none" font-family="times new roman" font-size="10px" font-style="normal" font-weight="normal" text-decoration="normal" x="740" y="83.5" text-anchor="middle" dominant-baseline="text-after-edge" fill-opacity="1">*34.1</text><path fill="rgb(69,90,100)" stroke="rgb(76,175,80)" paint-order="fill stroke markers" d=" M 877 142 L 877 162 L 972 162 L 972 142 Z" fill-opacity="1" stroke-opacity="1" stroke-miterlimit="10" stroke-width="6"/><text fill="rgb(255,255,255)" stroke="none" font-family="times new roman" font-size="10px" font-style="normal" font-weight="normal" text-decoration="normal" x="924.5" y="157" text-anchor="middle" dominant-baseline="text-after-edge" fill-opacity="1">42130047G&gt;C</text><path fill="rgb(69,90,100)" stroke="rgb(69,90,100)" paint-order="fill stroke markers" d=" M 468.125 403 L 449.375 420.5 L 468.125 438 L 505.625 438 L 524.375 420.5 L 505.62500000000006 403 Z" fill-opacity="1" stroke-opacity="1" stroke-miterlimit="10" stroke-width="2"/><text fill="rgb(255,255,255)" stroke="none" font-family="times new roman" font-size="10px" font-style="normal" font-weight="normal" text-decoration="normal" x="486.875" y="425.5" text-anchor="middle" dominant-baseline="text-after-edge" fill-opacity="1">NA19035-A</text><path fill="rgb(69,90,100)" stroke="rgb(76,175,80)" paint-order="fill stroke markers" d=" M 430.875 152 L 430.82105334032974 153.37303417523728 L 430.6595459604149 154.73760313820404 L 430.3914736069593 156.08529386747836 L 430.0184890351652 157.40779740156157 L 429.5428918189475 158.69696006638907 L 428.96761417329645 159.94483374544205 L 428.2962028761966 161.1437248825291 L 427.5327974015616 162.28624191511827 L 426.68210439800055 163.3653408457782 L 425.74936867076457 164.37436867076457 L 424.74034084577823 165.30710439800055 L 423.6612419151183 166.1577974015616 L 422.5187248825291 166.92120287619662 L 421.31983374544205 167.59261417329643 L 420.07196006638907 168.1678918189475 L 418.7827974015616 168.64348903516517 L 417.46029386747836 169.01647360695935 L 416.11260313820407 169.2845459604149 L 414.7480341752373 169.44605334032974 L 413.375 169.5 L 412.0019658247627 169.44605334032974 L 410.63739686179593 169.2845459604149 L 409.28970613252164 169.01647360695935 L 407.9672025984384 168.6434890351652 L 406.67803993361093 168.1678918189475 L 405.43016625455795 167.59261417329643 L 404.2312751174709 166.92120287619662 L 403.0887580848817 166.1577974015616 L 402.00965915422177 165.30710439800055 L 401.00063132923543 164.37436867076457 L 400.06789560199945 163.3653408457782 L 399.2172025984384 162.2862419151183 L 398.4537971238034 161.1437248825291 L 397.78238582670355 159.94483374544208 L 397.2071081810525 158.69696006638907 L 396.7315109648348 157.4077974015616 L 396.3585263930407 156.08529386747836 L 396.0904540395851 154.73760313820404 L 395.92894665967026 153.37303417523728 L 395.875 152 L 395.92894665967026 150.62696582476272 L 396.0904540395851 149.26239686179596 L 396.3585263930407 147.91470613252164 L 396.7315109648348 146.59220259843843 L 397.2071081810525 145.30303993361093 L 397.78238582670355 144.05516625455795 L 398.4537971238034 142.8562751174709 L 399.2172025984384 141.71375808488173 L 400.06789560199945 140.6346591542218 L 401.00063132923543 139.62563132923543 L 402.00965915422177 138.69289560199945 L 403.0887580848817 137.84220259843843 L 404.2312751174709 137.07879712380338 L 405.43016625455795 136.40738582670355 L 406.67803993361093 135.8321081810525 L 407.96720259843846 135.3565109648348 L 409.2897061325217 134.98352639304065 L 410.637396861796 134.7154540395851 L 412.00196582476275 134.55394665967026 L 413.37500000000006 134.5 L 414.74803417523736 134.55394665967026 L 416.1126031382041 134.7154540395851 L 417.4602938674784 134.98352639304068 L 418.78279740156165 135.35651096483485 L 420.0719600663892 135.83210818105252 L 421.31983374544217 136.4073858267036 L 422.5187248825292 137.07879712380344 L 423.66124191511835 137.8422025984385 L 424.7403408457783 138.69289560199954 L 425.7493686707647 139.62563132923552 L 426.68210439800066 140.6346591542219 L 427.53279740156165 141.71375808488185 L 428.2962028761967 142.85627511747103 L 428.9676141732965 144.0551662545581 L 429.54289181894757 145.3030399336111 L 430.01848903516526 146.5922025984386 L 430.3914736069594 147.91470613252184 L 430.65954596041496 149.26239686179616 L 430.82105334032974 150.62696582476292 Z" fill-opacity="1" stroke-opacity="1" stroke-miterlimit="10" stroke-width="6"/><text fill="rgb(255,255,255)" stroke="none" font-family="times new roman" font-size="10px" font-style="normal" font-weight="normal" text-decoration="normal" x="413.375" y="157" text-anchor="middle" dominant-baseline="text-after-edge" fill-opacity="1">*2.4</text><path fill="rgb(69,90,100)" stroke="rgb(76,175,80)" paint-order="fill stroke markers" d=" M 895.875 288.875 L 895.8210533403297 290.2480341752373 L 895.6595459604149 291.61260313820407 L 895.3914736069594 292.96029386747836 L 895.0184890351652 294.2827974015616 L 894.5428918189475 295.57196006638907 L 893.9676141732964 296.81983374544205 L 893.2962028761966 298.0187248825291 L 892.5327974015615 299.1612419151183 L 891.6821043980005 300.24034084577823 L 890.7493686707646 301.24936867076457 L 889.7403408457782 302.18210439800055 L 888.6612419151182 303.0327974015616 L 887.5187248825291 303.7962028761966 L 886.3198337454421 304.46761417329645 L 885.0719600663891 305.0428918189475 L 883.7827974015615 305.5184890351652 L 882.4602938674783 305.8914736069593 L 881.112603138204 306.1595459604149 L 879.7480341752373 306.32105334032974 L 878.375 306.375 L 877.0019658247627 306.32105334032974 L 875.637396861796 306.1595459604149 L 874.2897061325217 305.8914736069593 L 872.9672025984385 305.5184890351652 L 871.6780399336109 305.0428918189475 L 870.4301662545579 304.46761417329645 L 869.2312751174709 303.7962028761966 L 868.0887580848818 303.0327974015616 L 867.0096591542218 302.18210439800055 L 866.0006313292354 301.24936867076457 L 865.0678956019995 300.24034084577823 L 864.2172025984385 299.1612419151183 L 863.4537971238034 298.0187248825291 L 862.7823858267036 296.81983374544205 L 862.2071081810525 295.57196006638907 L 861.7315109648348 294.2827974015616 L 861.3585263930406 292.96029386747836 L 861.0904540395851 291.61260313820407 L 860.9289466596703 290.2480341752373 L 860.875 288.875 L 860.9289466596703 287.5019658247627 L 861.0904540395851 286.13739686179593 L 861.3585263930406 284.78970613252164 L 861.7315109648348 283.4672025984384 L 862.2071081810525 282.17803993361093 L 862.7823858267036 280.93016625455795 L 863.4537971238034 279.7312751174709 L 864.2172025984385 278.5887580848817 L 865.0678956019995 277.50965915422177 L 866.0006313292354 276.50063132923543 L 867.0096591542218 275.56789560199945 L 868.0887580848818 274.7172025984384 L 869.2312751174709 273.9537971238034 L 870.4301662545579 273.28238582670355 L 871.678039933611 272.7071081810525 L 872.9672025984385 272.2315109648348 L 874.2897061325217 271.8585263930407 L 875.637396861796 271.5904540395851 L 877.0019658247628 271.42894665967026 L 878.3750000000001 271.375 L 879.7480341752373 271.42894665967026 L 881.1126031382041 271.5904540395851 L 882.4602938674784 271.8585263930407 L 883.7827974015617 272.23151096483485 L 885.0719600663891 272.7071081810525 L 886.3198337454421 273.2823858267036 L 887.5187248825292 273.95379712380344 L 888.6612419151184 274.7172025984385 L 889.7403408457783 275.56789560199957 L 890.7493686707646 276.5006313292355 L 891.6821043980007 277.5096591542219 L 892.5327974015617 278.5887580848818 L 893.2962028761967 279.73127511747106 L 893.9676141732965 280.93016625455806 L 894.5428918189476 282.1780399336111 L 895.0184890351652 283.4672025984386 L 895.3914736069594 284.7897061325218 L 895.6595459604149 286.13739686179616 L 895.8210533403297 287.5019658247629 Z" fill-opacity="1" stroke-opacity="1" stroke-miterlimit="10" stroke-width="6"/><text fill="rgb(255,255,255)" stroke="none" font-family="times new roman" font-size="10px" font-style="normal" font-weight="normal" text-decoration="normal" x="878.375" y="293.875" text-anchor="middle" dominant-baseline="text-after-edge" fill-opacity="1">*1.54</text><path fill="rgb(69,90,100)" stroke="rgb(255,193,7)" paint-order="fill stroke markers" d=" M 600.25 68.5 L 600.25 88.5 L 695.25 88.5 L 695.25 68.5 Z" fill-opacity="1" stroke-opacity="1" stroke-miterlimit="10" stroke-width="6"/><text fill="rgb(255,255,255)" stroke="none" font-family="times new roman" font-size="10px" font-style="normal" font-weight="normal" text-decoration="normal" x="647.75" y="83.5" text-anchor="middle" dominant-baseline="text-after-edge" fill-opacity="1">42127941G&gt;A</text><path fill="rgb(176,190,197)" stroke="none" paint-order="stroke fill markers" d=" M 143.75 183.87500000000003 L 143.75 393.875 L 218.75 393.875 L 218.75 183.87500000000006 Z" fill-opacity="0.8"/><text fill="rgb(0,0,0)" stroke="none" font-family="times new roman" font-size="10px" font-style="normal" font-weight="normal" text-decoration="normal" x="148.75" y="198.875" text-anchor="start" dominant-baseline="text-after-edge" fill-opacity="0.8">42126310C&gt;T </text><text fill="rgb(0,0,0)" stroke="none" font-family="times new roman" font-size="10px" font-style="normal" font-weight="normal" text-decoration="normal" x="148.75" y="208.875" text-anchor="start" dominant-baseline="text-after-edge" fill-opacity="0.8">42127001G&gt;A </text><text fill="rgb(0,0,0)" stroke="none" font-family="times new roman" font-size="10px" font-style="normal" font-weight="normal" text-decoration="normal" x="148.75" y="218.875" text-anchor="start" dominant-baseline="text-after-edge" fill-opacity="0.8">42127207C&gt;T </text><text fill="rgb(0,0,0)" stroke="none" font-family="times new roman" font-size="10px" font-style="normal" font-weight="normal" text-decoration="normal" x="148.75" y="228.875" text-anchor="start" dominant-baseline="text-after-edge" fill-opacity="0.8">42129130C&gt;G </text><text fill="rgb(0,0,0)" stroke="none" font-family="times new roman" font-size="10px" font-style="normal" font-weight="normal" text-decoration="normal" x="148.75" y="238.875" text-anchor="start" dominant-baseline="text-after-edge" fill-opacity="0.8">42129614C&gt;G </text><text fill="rgb(0,0,0)" stroke="none" font-family="times new roman" font-size="10px" font-style="normal" font-weight="normal" text-decoration="normal" x="148.75" y="248.875" text-anchor="start" dominant-baseline="text-after-edge" fill-opacity="0.8">42129643G&gt;C </text><text fill="rgb(0,0,0)" stroke="none" font-family="times new roman" font-size="10px" font-style="normal" font-weight="normal" text-decoration="normal" x="148.75" y="258.875" text-anchor="start" dominant-baseline="text-after-edge" fill-opacity="0.8">42131469C&gt;T </text><text fill="rgb(0,0,0)" stroke="none" font-family="times new roman" font-size="10px" font-style="normal" font-weight="normal" text-decoration="normal" x="148.75" y="268.875" text-anchor="start" dominant-baseline="text-after-edge" fill-opacity="0.8">42131531G&gt;A </text><text fill="rgb(0,0,0)" stroke="none" font-family="times new roman" font-size="10px" font-style="normal" font-weight="normal" text-decoration="normal" x="148.75" y="278.875" text-anchor="start" dominant-baseline="text-after-edge" fill-opacity="0.8">42132375G&gt;C </text><path fill="rgb(176,190,197)" stroke="none" paint-order="stroke fill markers" d=" M 1037.75 183.875 L 1104.75 183.875 L 1104.75 183.875 A 8 8 0 0 1 1112.75 191.875 L 1112.75 385.875 L 1112.75 385.875 A 8 8 0 0 1 1104.75 393.875 L 970.75 393.875 L 970.75 393.875 A 8 8 0 0 1 962.75 385.875 L 962.75 191.875 L 962.75 191.875 A 8 8 0 0 1 970.75 183.875 L 1037.75 183.875 Z" fill-opacity="0.8"/><text fill="rgb(0,0,0)" stroke="none" font-family="times new roman" font-size="10px" font-style="normal" font-weight="normal" text-decoration="normal" x="967.75" y="198.875" text-anchor="start" dominant-baseline="text-after-edge" fill-opacity="0.8">42125924A&gt;G </text><text fill="rgb(0,0,0)" stroke="none" font-family="times new roman" font-size="10px" font-style="normal" font-weight="normal" text-decoration="normal" x="967.75" y="208.875" text-anchor="start" dominant-baseline="text-after-edge" fill-opacity="0.8">42126069A&gt;C </text><text fill="rgb(0,0,0)" stroke="none" font-family="times new roman" font-size="10px" font-style="normal" font-weight="normal" text-decoration="normal" x="967.75" y="218.875" text-anchor="start" dominant-baseline="text-after-edge" fill-opacity="0.8">42126136_42126138del </text><text fill="rgb(0,0,0)" stroke="none" font-family="times new roman" font-size="10px" font-style="normal" font-weight="normal" text-decoration="normal" x="967.75" y="228.875" text-anchor="start" dominant-baseline="text-after-edge" fill-opacity="0.8">42132027C&gt;T </text><text fill="rgb(0,0,0)" stroke="none" font-family="times new roman" font-size="10px" font-style="normal" font-weight="normal" text-decoration="normal" x="967.75" y="238.875" text-anchor="start" dominant-baseline="text-after-edge" fill-opacity="0.8">42132561C&gt;T </text><text fill="rgb(0,0,0)" stroke="none" font-family="times new roman" font-size="10px" font-style="normal" font-weight="normal" text-decoration="normal" x="967.75" y="248.875" text-anchor="start" dominant-baseline="text-after-edge" fill-opacity="0.8">42132844C&gt;A </text><text fill="rgb(0,0,0)" stroke="none" font-family="times new roman" font-size="10px" font-style="normal" font-weight="normal" text-decoration="normal" x="967.75" y="258.875" text-anchor="start" dominant-baseline="text-after-edge" fill-opacity="0.8">42132851T&gt;C </text><text fill="rgb(0,0,0)" stroke="none" font-family="times new roman" font-size="10px" font-style="normal" font-weight="normal" text-decoration="normal" x="967.75" y="268.875" text-anchor="start" dominant-baseline="text-after-edge" fill-opacity="0.8">42133400T&gt;G </text><text fill="rgb(0,0,0)" stroke="none" font-family="times new roman" font-size="10px" font-style="normal" font-weight="normal" text-decoration="normal" x="967.75" y="278.875" text-anchor="start" dominant-baseline="text-after-edge" fill-opacity="0.8">42133533A&gt;C </text><text fill="rgb(0,0,0)" stroke="none" font-family="times new roman" font-size="10px" font-style="normal" font-weight="normal" text-decoration="normal" x="967.75" y="288.875" text-anchor="start" dominant-baseline="text-after-edge" fill-opacity="0.8">42134096del </text><text fill="rgb(0,0,0)" stroke="none" font-family="times new roman" font-size="10px" font-style="normal" font-weight="normal" text-decoration="normal" x="967.75" y="298.875" text-anchor="start" dominant-baseline="text-after-edge" fill-opacity="0.8">42134820T&gt;G </text><text fill="rgb(0,0,0)" stroke="none" font-family="times new roman" font-size="10px" font-style="normal" font-weight="normal" text-decoration="normal" x="967.75" y="308.875" text-anchor="start" dominant-baseline="text-after-edge" fill-opacity="0.8">42135064_42135066dup </text><text fill="rgb(0,0,0)" stroke="none" font-family="times new roman" font-size="10px" font-style="normal" font-weight="normal" text-decoration="normal" x="967.75" y="318.875" text-anchor="start" dominant-baseline="text-after-edge" fill-opacity="0.8">42135201T&gt;C </text><text fill="rgb(0,0,0)" stroke="none" font-family="times new roman" font-size="10px" font-style="normal" font-weight="normal" text-decoration="normal" x="967.75" y="328.875" text-anchor="start" dominant-baseline="text-after-edge" fill-opacity="0.8">42135691T&gt;C </text><g transform="scale(1.0146290491118077,1.0146290491118077) translate(110.69181256436661,-59.08290422245108)"/></g></svg>