<svg version="1.1" xmlns="http://www.w3.org/2000/svg" xmlns:xlink="http://www.w3.org/1999/xlink" width="1017" height="608"><defs/><g transform="translate(-64.72684414864113,-53.43094841930116) scale(1.2157515252357183,1.2157515252357183)"><path fill="none" stroke="rgb(120,144,156)" paint-order="fill stroke markers" d=" M 479.13421246918824 255.10040888207214 L 509.71606732066806 344.1330669577515" stroke-opacity="1" stroke-linejoin="round" stroke-miterlimit="10"/><path fill="rgb(120,144,156)" stroke="none" paint-order="stroke fill markers" d=" M 503.4254395683032 339.20960247822325 L 510.36578753081176 346.02459111792786 L 511.65356966507034 336.3833195640982 Z" fill-opacity="1"/><path fill="none" stroke="rgb(120,144,156)" paint-order="fill stroke markers" d=" M 292.54403333828213 166.76813171824602 L 447.57987871803425 224.03883579509474" stroke-opacity="1" stroke-linejoin="round" stroke-miterlimit="10"/><path fill="rgb(120,144,156)" stroke="none" paint-order="stroke fill markers" d=" M 439.78763844821043 225.7976682422981 L 449.45596666171787 224.73186828175398 L 442.8023297651781 217.6366856872745 Z" fill-opacity="1"/><path fill="none" stroke="rgb(55,71,79)" paint-order="fill stroke markers" d=" M 235.76950693813149 103.75665801990523 L 257.9313019975086 138.76856954228253" stroke-opacity="1" stroke-linejoin="round" stroke-miterlimit="10" stroke-width="2"/><path fill="none" stroke="rgb(120,144,156)" paint-order="fill stroke markers" d=" M 172.08170950099156 375.3538862972133 L 442.78167710396787 487.9317164259392" stroke-opacity="1" stroke-linejoin="round" stroke-miterlimit="10"/><path fill="rgb(120,144,156)" stroke="none" paint-order="stroke fill markers" d=" M 434.92495499318295 489.37546767664105 L 444.62834840137236 488.6997041337461 L 438.2657015221427 481.34244753293154 Z" fill-opacity="1"/><path fill="none" stroke="rgb(55,71,79)" paint-order="fill stroke markers" d=" M 308.1622340425532 99.125 L 283.0686980024914 138.76856954228253" stroke-opacity="1" stroke-linejoin="round" stroke-miterlimit="10" stroke-width="2"/><path fill="none" stroke="rgb(120,144,156)" paint-order="fill stroke markers" d=" M 341.75 416.4642857142857 L 446.7488171383157 483.963525303203" stroke-opacity="1" stroke-linejoin="round" stroke-miterlimit="10"/><path fill="rgb(120,144,156)" stroke="none" paint-order="stroke fill markers" d=" M 438.7606258310791 483.99957580929055 L 448.4311740890688 485.04504048583 L 443.4652168755065 476.68132307351453 Z" fill-opacity="1"/><path fill="none" stroke="rgb(120,144,156)" paint-order="fill stroke markers" d=" M 471.5 182.125 L 471.5 207.375" stroke-opacity="1" stroke-linejoin="round" stroke-miterlimit="10"/><path fill="rgb(120,144,156)" stroke="none" paint-order="stroke fill markers" d=" M 467.15 200.675 L 471.5 209.375 L 475.85 200.675 Z" fill-opacity="1"/><path fill="none" stroke="rgb(55,71,79)" paint-order="fill stroke markers" d=" M 155 243.875 L 155 349.75" stroke-opacity="1" stroke-linejoin="round" stroke-miterlimit="10" stroke-width="2"/><path fill="none" stroke="rgb(55,71,79)" paint-order="fill stroke markers" d=" M 433.8377659574468 99.125 L 458.9313019975086 138.76856954228253" stroke-opacity="1" stroke-linejoin="round" stroke-miterlimit="10" stroke-width="2"/><path fill="none" stroke="rgb(55,71,79)" paint-order="fill stroke markers" d=" M 506.2304930618685 103.75665801990523 L 484.0686980024914 138.76856954228253" stroke-opacity="1" stroke-linejoin="round" stroke-miterlimit="10" stroke-width="2"/><path fill="none" stroke="rgb(120,144,156)" paint-order="fill stroke markers" d=" M 389.1753981930522 383.35913212000537 L 457.27467782682334 479.7415803113508" stroke-opacity="1" stroke-linejoin="round" stroke-miterlimit="10"/><path fill="rgb(120,144,156)" stroke="none" paint-order="stroke fill markers" d=" M 449.85576471247344 476.7797855511206 L 458.42877492877494 481.375 L 456.96114035809757 471.75946315763116 Z" fill-opacity="1"/><path fill="none" stroke="rgb(55,71,79)" paint-order="fill stroke markers" d=" M 378.5 243.875 L 378.5 349.75" stroke-opacity="1" stroke-linejoin="round" stroke-miterlimit="10" stroke-width="2"/><path fill="none" stroke="rgb(120,144,156)" paint-order="fill stroke markers" d=" M 560.7216066481994 243.875 L 526.2839326793319 344.1330669577515" stroke-opacity="1" stroke-linejoin="round" stroke-miterlimit="10"/><path fill="rgb(120,144,156)" stroke="none" paint-order="stroke fill markers" d=" M 524.3464303349297 336.3833195640982 L 525.6342124691882 346.02459111792786 L 532.5745604316968 339.20960247822325 Z" fill-opacity="1"/><path fill="none" stroke="rgb(120,144,156)" paint-order="fill stroke markers" d=" M 680.7901662049861 243.875 L 724.3037911373248 349.30062819177346" stroke-opacity="1" stroke-linejoin="round" stroke-miterlimit="10"/><path fill="rgb(120,144,156)" stroke="none" paint-order="stroke fill markers" d=" M 717.7266269058267 344.7670412375061 L 725.066835904415 351.14934739257603 L 725.768555429318 341.44779650066346 Z" fill-opacity="1"/><path fill="none" stroke="rgb(120,144,156)" paint-order="fill stroke markers" d=" M 510.17212341667994 390.4079409737527 L 478.7018147980227 479.48921778946783" stroke-opacity="1" stroke-linejoin="round" stroke-miterlimit="10"/><path fill="rgb(120,144,156)" stroke="none" paint-order="stroke fill markers" d=" M 476.83201606918954 471.72285746344295 L 478.03561253561253 481.375 L 485.0351686850044 474.62083730492736 Z" fill-opacity="1"/><path fill="none" stroke="rgb(120,144,156)" paint-order="fill stroke markers" d=" M 266.75 243.875 L 266.75 261.25" stroke-opacity="1" stroke-linejoin="round" stroke-miterlimit="10"/><path fill="rgb(120,144,156)" stroke="none" paint-order="stroke fill markers" d=" M 262.4 254.55 L 266.75 263.25 L 271.1 254.55 Z" fill-opacity="1"/><path fill="none" stroke="rgb(120,144,156)" paint-order="fill stroke markers" d=" M 588.5 400.1978155339806 L 493.4307993222611 481.19123649972414" stroke-opacity="1" stroke-linejoin="round" stroke-miterlimit="10"/><path fill="rgb(120,144,156)" stroke="none" paint-order="stroke fill markers" d=" M 495.7099010623123 473.5349844624349 L 491.9083804224985 482.4882487177258 L 501.3519042106195 480.1575066764023 Z" fill-opacity="1"/><path fill="none" stroke="rgb(120,144,156)" paint-order="fill stroke markers" d=" M 783.4598337950139 243.875 L 739.9462088626752 349.30062819177346" stroke-opacity="1" stroke-linejoin="round" stroke-miterlimit="10"/><path fill="rgb(120,144,156)" stroke="none" paint-order="stroke fill markers" d=" M 738.481444570682 341.44779650066346 L 739.183164095585 351.14934739257603 L 746.5233730941733 344.7670412375061 Z" fill-opacity="1"/><path fill="none" stroke="rgb(55,71,79)" paint-order="fill stroke markers" d=" M 529.2616968719298 172.04087244339314 L 487.6810877572784 215.83321608541954" stroke-opacity="1" stroke-linejoin="round" stroke-miterlimit="10" stroke-width="2"/><path fill="none" stroke="rgb(120,144,156)" paint-order="fill stroke markers" d=" M 715.6114953259859 376.58991387133665 L 498.5226986601497 486.22756513710425" stroke-opacity="1" stroke-linejoin="round" stroke-miterlimit="10"/><path fill="rgb(120,144,156)" stroke="none" paint-order="stroke fill markers" d=" M 502.5422584426135 479.32425874413576 L 496.73745491160764 487.129177447519 L 506.46427199291776 487.0900690502937 Z" fill-opacity="1"/><path fill="rgb(69,90,100)" stroke="rgb(76,175,80)" paint-order="fill stroke markers" d=" M 396 368.25 L 395.94605334032974 369.6230341752373 L 395.7845459604149 370.98760313820407 L 395.5164736069593 372.33529386747836 L 395.1434890351652 373.6577974015616 L 394.6678918189475 374.94696006638907 L 394.09261417329645 376.19483374544205 L 393.4212028761966 377.3937248825291 L 392.6577974015616 378.5362419151183 L 391.80710439800055 379.61534084577823 L 390.87436867076457 380.62436867076457 L 389.86534084577823 381.55710439800055 L 388.7862419151183 382.4077974015616 L 387.6437248825291 383.1712028761966 L 386.44483374544205 383.84261417329645 L 385.19696006638907 384.4178918189475 L 383.9077974015616 384.8934890351652 L 382.58529386747836 385.2664736069593 L 381.23760313820407 385.5345459604149 L 379.8730341752373 385.69605334032974 L 378.5 385.75 L 377.1269658247627 385.69605334032974 L 375.76239686179593 385.5345459604149 L 374.41470613252164 385.2664736069593 L 373.0922025984384 384.8934890351652 L 371.80303993361093 384.4178918189475 L 370.55516625455795 383.84261417329645 L 369.3562751174709 383.1712028761966 L 368.2137580848817 382.4077974015616 L 367.13465915422177 381.55710439800055 L 366.12563132923543 380.62436867076457 L 365.19289560199945 379.61534084577823 L 364.3422025984384 378.5362419151183 L 363.5787971238034 377.3937248825291 L 362.90738582670355 376.19483374544205 L 362.3321081810525 374.94696006638907 L 361.8565109648348 373.6577974015616 L 361.4835263930407 372.33529386747836 L 361.2154540395851 370.98760313820407 L 361.05394665967026 369.6230341752373 L 361 368.25 L 361.05394665967026 366.8769658247627 L 361.2154540395851 365.51239686179593 L 361.4835263930407 364.16470613252164 L 361.8565109648348 362.8422025984384 L 362.3321081810525 361.55303993361093 L 362.90738582670355 360.30516625455795 L 363.5787971238034 359.1062751174709 L 364.3422025984384 357.9637580848817 L 365.19289560199945 356.88465915422177 L 366.12563132923543 355.87563132923543 L 367.13465915422177 354.94289560199945 L 368.2137580848817 354.0922025984384 L 369.3562751174709 353.3287971238034 L 370.55516625455795 352.65738582670355 L 371.80303993361093 352.0821081810525 L 373.09220259843846 351.6065109648348 L 374.4147061325217 351.2335263930407 L 375.762396861796 350.9654540395851 L 377.12696582476275 350.80394665967026 L 378.50000000000006 350.75 L 379.87303417523736 350.80394665967026 L 381.2376031382041 350.9654540395851 L 382.5852938674784 351.2335263930407 L 383.90779740156165 351.60651096483485 L 385.1969600663892 352.0821081810525 L 386.44483374544217 352.6573858267036 L 387.6437248825292 353.32879712380344 L 388.78624191511835 354.0922025984385 L 389.8653408457783 354.94289560199957 L 390.8743686707647 355.8756313292355 L 391.80710439800066 356.8846591542219 L 392.65779740156165 357.9637580848818 L 393.4212028761967 359.10627511747106 L 394.0926141732965 360.30516625455806 L 394.66789181894757 361.5530399336111 L 395.14348903516526 362.8422025984386 L 395.5164736069594 364.1647061325218 L 395.78454596041496 365.51239686179616 L 395.94605334032974 366.8769658247629 Z" fill-opacity="1" stroke-opacity="1" stroke-miterlimit="10" stroke-width="2"/><text fill="rgb(255,255,255)" stroke="none" font-family="times new roman" font-size="10px" font-style="normal" font-weight="normal" text-decoration="normal" x="378.5" y="373.25" text-anchor="middle" dominant-baseline="text-after-edge" fill-opacity="1">*1.24</text><path fill="rgb(69,90,100)" stroke="rgb(76,175,80)" paint-order="fill stroke markers" d=" M 293 158.625 L 292.9306400089954 160.3903296538765 L 292.7229876633906 162.14477546340518 L 292.37832320894773 163.87752068675786 L 291.89877161664094 165.57788237343632 L 291.28728948150393 167.23537722821453 L 290.5476467942383 168.83978624413982 L 289.68440369796707 170.38121770610886 L 288.7028823734363 171.85016817658064 L 287.6091342260007 173.23758108742913 L 286.40990257669733 174.5349025766973 L 285.11258108742913 175.7341342260007 L 283.72516817658067 176.82788237343632 L 282.2562177061088 177.80940369796707 L 280.7147862441398 178.6726467942383 L 279.11037722821453 179.41228948150396 L 277.4528823734363 180.02377161664094 L 275.75252068675786 180.50332320894773 L 274.0197754634052 180.8479876633906 L 272.2653296538765 181.05564000899537 L 270.5 181.125 L 268.7346703461235 181.05564000899537 L 266.9802245365948 180.8479876633906 L 265.24747931324214 180.50332320894773 L 263.5471176265637 180.02377161664094 L 261.88962277178547 179.41228948150396 L 260.2852137558602 178.6726467942383 L 258.7437822938912 177.80940369796707 L 257.27483182341933 176.82788237343632 L 255.88741891257087 175.7341342260007 L 254.5900974233027 174.53490257669733 L 253.3908657739993 173.23758108742913 L 252.29711762656368 171.85016817658064 L 251.31559630203293 170.38121770610886 L 250.4523532057617 168.83978624413982 L 249.71271051849604 167.23537722821453 L 249.10122838335906 165.57788237343632 L 248.62167679105227 163.87752068675786 L 248.2770123366094 162.1447754634052 L 248.06935999100463 160.3903296538765 L 248 158.625 L 248.06935999100463 156.8596703461235 L 248.2770123366094 155.10522453659482 L 248.62167679105227 153.37247931324214 L 249.10122838335906 151.67211762656368 L 249.71271051849604 150.01462277178547 L 250.4523532057617 148.4102137558602 L 251.31559630203293 146.86878229389114 L 252.29711762656368 145.39983182341936 L 253.3908657739993 144.01241891257087 L 254.59009742330267 142.7150974233027 L 255.88741891257087 141.5158657739993 L 257.27483182341933 140.42211762656368 L 258.7437822938912 139.44059630203293 L 260.28521375586024 138.5773532057617 L 261.8896227717855 137.83771051849604 L 263.5471176265637 137.22622838335903 L 265.2474793132422 136.74667679105227 L 266.98022453659485 136.4020123366094 L 268.73467034612355 136.1943599910046 L 270.50000000000006 136.125 L 272.2653296538766 136.19435999100463 L 274.01977546340527 136.4020123366094 L 275.752520686758 136.7466767910523 L 277.4528823734364 137.22622838335909 L 279.11037722821465 137.8377105184961 L 280.71478624413993 138.5773532057618 L 282.256217706109 139.440596302033 L 283.7251681765808 140.42211762656376 L 285.11258108742925 141.51586577399942 L 286.40990257669745 142.7150974233028 L 287.60913422600083 144.012418912571 L 288.7028823734364 145.3998318234195 L 289.6844036979672 146.86878229389131 L 290.5476467942384 148.41021375586038 L 291.28728948150405 150.0146227717857 L 291.89877161664106 151.6721176265639 L 292.3783232089478 153.37247931324237 L 292.72298766339065 155.10522453659505 L 292.9306400089954 156.85967034612375 Z" fill-opacity="1" stroke-opacity="1" stroke-miterlimit="10" stroke-width="2"/><text fill="rgb(255,255,255)" stroke="none" font-family="times new roman" font-size="15px" font-style="normal" font-weight="normal" text-decoration="normal" x="270.5" y="166.125" text-anchor="middle" dominant-baseline="text-after-edge" fill-opacity="1">*39</text><path fill="rgb(69,90,100)" stroke="rgb(76,175,80)" paint-order="fill stroke markers" d=" M 494 232.875 L 493.9306400089954 234.6403296538765 L 493.7229876633906 236.39477546340518 L 493.37832320894773 238.12752068675786 L 492.89877161664094 239.82788237343632 L 492.28728948150393 241.48537722821453 L 491.5476467942383 243.08978624413982 L 490.68440369796707 244.63121770610886 L 489.7028823734363 246.10016817658064 L 488.6091342260007 247.48758108742913 L 487.40990257669733 248.7849025766973 L 486.11258108742913 249.9841342260007 L 484.72516817658067 251.07788237343632 L 483.2562177061088 252.05940369796707 L 481.7147862441398 252.9226467942383 L 480.11037722821453 253.66228948150396 L 478.4528823734363 254.27377161664094 L 476.75252068675786 254.75332320894773 L 475.0197754634052 255.0979876633906 L 473.2653296538765 255.30564000899537 L 471.5 255.375 L 469.7346703461235 255.30564000899537 L 467.9802245365948 255.0979876633906 L 466.24747931324214 254.75332320894773 L 464.5471176265637 254.27377161664094 L 462.88962277178547 253.66228948150396 L 461.2852137558602 252.9226467942383 L 459.7437822938912 252.05940369796707 L 458.27483182341933 251.07788237343632 L 456.88741891257087 249.9841342260007 L 455.59009742330267 248.78490257669733 L 454.3908657739993 247.48758108742913 L 453.2971176265637 246.10016817658064 L 452.31559630203293 244.63121770610886 L 451.4523532057617 243.08978624413982 L 450.71271051849607 241.48537722821453 L 450.10122838335906 239.82788237343632 L 449.62167679105227 238.12752068675786 L 449.2770123366094 236.3947754634052 L 449.0693599910046 234.6403296538765 L 449 232.875 L 449.0693599910046 231.1096703461235 L 449.2770123366094 229.35522453659482 L 449.62167679105227 227.62247931324214 L 450.10122838335906 225.92211762656368 L 450.71271051849607 224.26462277178547 L 451.4523532057617 222.6602137558602 L 452.31559630203293 221.11878229389114 L 453.2971176265637 219.64983182341936 L 454.3908657739993 218.26241891257087 L 455.59009742330267 216.9650974233027 L 456.88741891257087 215.7658657739993 L 458.27483182341933 214.67211762656368 L 459.7437822938912 213.69059630203293 L 461.28521375586024 212.8273532057617 L 462.8896227717855 212.08771051849604 L 464.5471176265637 211.47622838335903 L 466.2474793132422 210.99667679105227 L 467.98022453659485 210.6520123366094 L 469.73467034612355 210.4443599910046 L 471.50000000000006 210.375 L 473.2653296538766 210.44435999100463 L 475.01977546340527 210.6520123366094 L 476.752520686758 210.9966767910523 L 478.4528823734364 211.47622838335909 L 480.11037722821465 212.0877105184961 L 481.71478624413993 212.8273532057618 L 483.256217706109 213.690596302033 L 484.7251681765808 214.67211762656376 L 486.11258108742925 215.76586577399942 L 487.40990257669745 216.9650974233028 L 488.60913422600083 218.262418912571 L 489.7028823734364 219.6498318234195 L 490.6844036979672 221.11878229389131 L 491.5476467942384 222.66021375586038 L 492.28728948150405 224.2646227717857 L 492.89877161664106 225.9221176265639 L 493.3783232089478 227.62247931324237 L 493.72298766339065 229.35522453659505 L 493.9306400089954 231.10967034612375 Z" fill-opacity="1" stroke-opacity="1" stroke-miterlimit="10" stroke-width="2"/><text fill="rgb(255,255,255)" stroke="none" font-family="times new roman" font-size="15px" font-style="normal" font-weight="normal" text-decoration="normal" x="471.5" y="240.375" text-anchor="middle" dominant-baseline="text-after-edge" fill-opacity="1">*2</text><path fill="rgb(69,90,100)" stroke="rgb(76,175,80)" paint-order="fill stroke markers" d=" M 740.5 222.875 L 740.5 242.875 L 835.5 242.875 L 835.5 222.875 Z" fill-opacity="1" stroke-opacity="1" stroke-miterlimit="10" stroke-width="2"/><text fill="rgb(255,255,255)" stroke="none" font-family="times new roman" font-size="10px" font-style="normal" font-weight="normal" text-decoration="normal" x="788" y="237.875" text-anchor="middle" dominant-baseline="text-after-edge" fill-opacity="1">42130482C&gt;A</text><path fill="rgb(69,90,100)" stroke="rgb(76,175,80)" paint-order="fill stroke markers" d=" M 628.75 222.875 L 628.75 242.875 L 723.75 242.875 L 723.75 222.875 Z" fill-opacity="1" stroke-opacity="1" stroke-miterlimit="10" stroke-width="2"/><text fill="rgb(255,255,255)" stroke="none" font-family="times new roman" font-size="10px" font-style="normal" font-weight="normal" text-decoration="normal" x="676.25" y="237.875" text-anchor="middle" dominant-baseline="text-after-edge" fill-opacity="1">42129950A&gt;C</text><path fill="rgb(69,90,100)" stroke="rgb(69,90,100)" paint-order="fill stroke markers" d=" M 452.75 482.375 L 434 499.875 L 452.75 517.375 L 490.25 517.375 L 509 499.875 L 490.25000000000006 482.375 Z" fill-opacity="1" stroke-opacity="1" stroke-miterlimit="10" stroke-width="2"/><text fill="rgb(255,255,255)" stroke="none" font-family="times new roman" font-size="10px" font-style="normal" font-weight="normal" text-decoration="normal" x="471.5" y="504.875" text-anchor="middle" dominant-baseline="text-after-edge" fill-opacity="1">NA19238-all</text><path fill="rgb(69,90,100)" stroke="rgb(76,175,80)" paint-order="fill stroke markers" d=" M 243.375 88.125 L 243.32105334032974 89.49803417523728 L 243.1595459604149 90.86260313820404 L 242.89147360695935 92.21029386747834 L 242.51848903516517 93.53279740156158 L 242.0428918189475 94.82196006638907 L 241.46761417329643 96.06983374544207 L 240.79620287619662 97.2687248825291 L 240.0327974015616 98.41124191511828 L 239.18210439800055 99.4903408457782 L 238.24936867076457 100.49936867076458 L 237.2403408457782 101.43210439800055 L 236.16124191511827 102.28279740156158 L 235.0187248825291 103.04620287619662 L 233.81983374544208 103.71761417329644 L 232.57196006638907 104.29289181894751 L 231.2827974015616 104.76848903516519 L 229.96029386747836 105.14147360695934 L 228.61260313820404 105.4095459604149 L 227.24803417523728 105.57105334032974 L 225.875 105.625 L 224.50196582476272 105.57105334032974 L 223.13739686179596 105.4095459604149 L 221.78970613252164 105.14147360695934 L 220.46720259843843 104.76848903516519 L 219.17803993361093 104.29289181894751 L 217.93016625455795 103.71761417329644 L 216.7312751174709 103.04620287619662 L 215.58875808488173 102.28279740156158 L 214.5096591542218 101.43210439800055 L 213.50063132923543 100.49936867076458 L 212.56789560199945 99.49034084577822 L 211.71720259843843 98.41124191511828 L 210.95379712380338 97.26872488252911 L 210.28238582670357 96.06983374544207 L 209.7071081810525 94.82196006638907 L 209.23151096483483 93.53279740156158 L 208.85852639304065 92.21029386747834 L 208.5904540395851 90.86260313820404 L 208.42894665967026 89.4980341752373 L 208.375 88.125 L 208.42894665967026 86.75196582476272 L 208.5904540395851 85.38739686179596 L 208.85852639304065 84.03970613252166 L 209.2315109648348 82.71720259843842 L 209.7071081810525 81.42803993361093 L 210.28238582670357 80.18016625455793 L 210.95379712380338 78.9812751174709 L 211.7172025984384 77.83875808488172 L 212.56789560199945 76.7596591542218 L 213.5006313292354 75.75063132923542 L 214.50965915422177 74.81789560199947 L 215.5887580848817 73.96720259843842 L 216.7312751174709 73.20379712380338 L 217.93016625455795 72.53238582670356 L 219.17803993361096 71.95710818105248 L 220.46720259843843 71.4815109648348 L 221.7897061325217 71.10852639304065 L 223.137396861796 70.84045403958508 L 224.50196582476278 70.67894665967026 L 225.87500000000006 70.625 L 227.24803417523736 70.67894665967026 L 228.61260313820412 70.8404540395851 L 229.9602938674784 71.10852639304068 L 231.28279740156165 71.48151096483484 L 232.57196006638915 71.95710818105252 L 233.81983374544217 72.5323858267036 L 235.0187248825292 73.20379712380344 L 236.16124191511838 73.96720259843849 L 237.24034084577832 74.81789560199954 L 238.24936867076468 75.75063132923552 L 239.18210439800063 76.7596591542219 L 240.03279740156168 77.83875808488185 L 240.7962028761967 78.98127511747103 L 241.4676141732965 80.18016625455807 L 242.0428918189476 81.42803993361109 L 242.51848903516523 82.71720259843859 L 242.89147360695938 84.03970613252184 L 243.15954596041493 85.38739686179616 L 243.32105334032974 86.75196582476292 Z" fill-opacity="1" stroke-opacity="1" stroke-miterlimit="10" stroke-width="2"/><text fill="rgb(255,255,255)" stroke="none" font-family="times new roman" font-size="10px" font-style="normal" font-weight="normal" text-decoration="normal" x="225.875" y="93.125" text-anchor="middle" dominant-baseline="text-after-edge" fill-opacity="1">*39.2</text><path fill="rgb(69,90,100)" stroke="rgb(76,175,80)" paint-order="fill stroke markers" d=" M 559.5 158.625 L 559.4460533403297 159.99803417523728 L 559.2845459604149 161.36260313820404 L 559.0164736069594 162.71029386747836 L 558.6434890351652 164.03279740156157 L 558.1678918189475 165.32196006638907 L 557.5926141732964 166.56983374544205 L 556.9212028761966 167.7687248825291 L 556.1577974015615 168.91124191511827 L 555.3071043980005 169.9903408457782 L 554.3743686707646 170.99936867076457 L 553.3653408457782 171.93210439800055 L 552.2862419151182 172.7827974015616 L 551.1437248825291 173.54620287619662 L 549.9448337454421 174.21761417329643 L 548.6969600663891 174.7928918189475 L 547.4077974015615 175.26848903516517 L 546.0852938674783 175.64147360695935 L 544.737603138204 175.9095459604149 L 543.3730341752373 176.07105334032974 L 542 176.125 L 540.6269658247627 176.07105334032974 L 539.262396861796 175.9095459604149 L 537.9147061325217 175.64147360695935 L 536.5922025984385 175.2684890351652 L 535.3030399336109 174.7928918189475 L 534.0551662545579 174.21761417329643 L 532.8562751174709 173.54620287619662 L 531.7137580848818 172.7827974015616 L 530.6346591542218 171.93210439800055 L 529.6256313292354 170.99936867076457 L 528.6928956019995 169.9903408457782 L 527.8422025984385 168.9112419151183 L 527.0787971238034 167.7687248825291 L 526.4073858267036 166.56983374544208 L 525.8321081810525 165.32196006638907 L 525.3565109648348 164.0327974015616 L 524.9835263930406 162.71029386747836 L 524.7154540395851 161.36260313820404 L 524.5539466596703 159.99803417523728 L 524.5 158.625 L 524.5539466596703 157.25196582476272 L 524.7154540395851 155.88739686179596 L 524.9835263930406 154.53970613252164 L 525.3565109648348 153.21720259843843 L 525.8321081810525 151.92803993361093 L 526.4073858267036 150.68016625455795 L 527.0787971238034 149.4812751174709 L 527.8422025984385 148.33875808488173 L 528.6928956019995 147.2596591542218 L 529.6256313292354 146.25063132923543 L 530.6346591542218 145.31789560199945 L 531.7137580848818 144.46720259843843 L 532.8562751174709 143.70379712380338 L 534.0551662545579 143.03238582670355 L 535.303039933611 142.4571081810525 L 536.5922025984385 141.9815109648348 L 537.9147061325217 141.60852639304065 L 539.262396861796 141.3404540395851 L 540.6269658247628 141.17894665967026 L 542.0000000000001 141.125 L 543.3730341752373 141.17894665967026 L 544.7376031382041 141.3404540395851 L 546.0852938674784 141.60852639304068 L 547.4077974015617 141.98151096483485 L 548.6969600663891 142.45710818105252 L 549.9448337454421 143.0323858267036 L 551.1437248825292 143.70379712380344 L 552.2862419151184 144.4672025984385 L 553.3653408457783 145.31789560199954 L 554.3743686707646 146.25063132923552 L 555.3071043980007 147.2596591542219 L 556.1577974015617 148.33875808488185 L 556.9212028761967 149.48127511747103 L 557.5926141732965 150.6801662545581 L 558.1678918189476 151.9280399336111 L 558.6434890351652 153.2172025984386 L 559.0164736069594 154.53970613252184 L 559.2845459604149 155.88739686179616 L 559.4460533403297 157.25196582476292 Z" fill-opacity="1" stroke-opacity="1" stroke-miterlimit="10" stroke-width="2"/><text fill="rgb(255,255,255)" stroke="none" font-family="times new roman" font-size="10px" font-style="normal" font-weight="normal" text-decoration="normal" x="542" y="163.625" text-anchor="middle" dominant-baseline="text-after-edge" fill-opacity="1">*2.4</text><path fill="rgb(69,90,100)" stroke="rgb(76,175,80)" paint-order="fill stroke markers" d=" M 107.50000000000001 222.875 L 107.5 242.875 L 202.49999999999997 242.875 L 202.5 222.875 Z" fill-opacity="1" stroke-opacity="1" stroke-miterlimit="10" stroke-width="2"/><text fill="rgb(255,255,255)" stroke="none" font-family="times new roman" font-size="10px" font-style="normal" font-weight="normal" text-decoration="normal" x="155" y="237.875" text-anchor="middle" dominant-baseline="text-after-edge" fill-opacity="1">42127407T&gt;G</text><path fill="rgb(69,90,100)" stroke="rgb(76,175,80)" paint-order="fill stroke markers" d=" M 749.625 368.25 L 749.5710533403297 369.6230341752373 L 749.4095459604149 370.98760313820407 L 749.1414736069594 372.33529386747836 L 748.7684890351652 373.6577974015616 L 748.2928918189475 374.94696006638907 L 747.7176141732964 376.19483374544205 L 747.0462028761966 377.3937248825291 L 746.2827974015615 378.5362419151183 L 745.4321043980005 379.61534084577823 L 744.4993686707646 380.62436867076457 L 743.4903408457782 381.55710439800055 L 742.4112419151182 382.4077974015616 L 741.2687248825291 383.1712028761966 L 740.0698337454421 383.84261417329645 L 738.8219600663891 384.4178918189475 L 737.5327974015615 384.8934890351652 L 736.2102938674783 385.2664736069593 L 734.862603138204 385.5345459604149 L 733.4980341752373 385.69605334032974 L 732.125 385.75 L 730.7519658247627 385.69605334032974 L 729.387396861796 385.5345459604149 L 728.0397061325217 385.2664736069593 L 726.7172025984385 384.8934890351652 L 725.4280399336109 384.4178918189475 L 724.1801662545579 383.84261417329645 L 722.9812751174709 383.1712028761966 L 721.8387580848818 382.4077974015616 L 720.7596591542218 381.55710439800055 L 719.7506313292354 380.62436867076457 L 718.8178956019995 379.61534084577823 L 717.9672025984385 378.5362419151183 L 717.2037971238034 377.3937248825291 L 716.5323858267036 376.19483374544205 L 715.9571081810525 374.94696006638907 L 715.4815109648348 373.6577974015616 L 715.1085263930406 372.33529386747836 L 714.8404540395851 370.98760313820407 L 714.6789466596703 369.6230341752373 L 714.625 368.25 L 714.6789466596703 366.8769658247627 L 714.8404540395851 365.51239686179593 L 715.1085263930406 364.16470613252164 L 715.4815109648348 362.8422025984384 L 715.9571081810525 361.55303993361093 L 716.5323858267036 360.30516625455795 L 717.2037971238034 359.1062751174709 L 717.9672025984385 357.9637580848817 L 718.8178956019995 356.88465915422177 L 719.7506313292354 355.87563132923543 L 720.7596591542218 354.94289560199945 L 721.8387580848818 354.0922025984384 L 722.9812751174709 353.3287971238034 L 724.1801662545579 352.65738582670355 L 725.428039933611 352.0821081810525 L 726.7172025984385 351.6065109648348 L 728.0397061325217 351.2335263930407 L 729.387396861796 350.9654540395851 L 730.7519658247628 350.80394665967026 L 732.1250000000001 350.75 L 733.4980341752373 350.80394665967026 L 734.8626031382041 350.9654540395851 L 736.2102938674784 351.2335263930407 L 737.5327974015617 351.60651096483485 L 738.8219600663891 352.0821081810525 L 740.0698337454421 352.6573858267036 L 741.2687248825292 353.32879712380344 L 742.4112419151184 354.0922025984385 L 743.4903408457783 354.94289560199957 L 744.4993686707646 355.8756313292355 L 745.4321043980007 356.8846591542219 L 746.2827974015617 357.9637580848818 L 747.0462028761967 359.10627511747106 L 747.7176141732965 360.30516625455806 L 748.2928918189476 361.5530399336111 L 748.7684890351652 362.8422025984386 L 749.1414736069594 364.1647061325218 L 749.4095459604149 365.51239686179616 L 749.5710533403297 366.8769658247629 Z" fill-opacity="1" stroke-opacity="1" stroke-miterlimit="10" stroke-width="2"/><text fill="rgb(255,255,255)" stroke="none" font-family="times new roman" font-size="10px" font-style="normal" font-weight="normal" text-decoration="normal" x="732.125" y="373.25" text-anchor="middle" dominant-baseline="text-after-edge" fill-opacity="1">*1.58</text><path fill="rgb(69,90,100)" stroke="rgb(158,158,158)" paint-order="fill stroke markers" d=" M 379.375 78.125 L 379.375 98.125 L 474.375 98.125 L 474.375 78.125 Z" fill-opacity="1" stroke-opacity="1" stroke-miterlimit="10" stroke-width="2"/><text fill="rgb(255,255,255)" stroke="none" font-family="times new roman" font-size="10px" font-style="normal" font-weight="normal" text-decoration="normal" x="426.875" y="93.125" text-anchor="middle" dominant-baseline="text-after-edge" fill-opacity="1">42127941G&gt;A</text><path fill="rgb(69,90,100)" stroke="rgb(255,193,7)" paint-order="fill stroke markers" d=" M 540.5 368.25 L 540.4306400089954 370.0153296538765 L 540.2229876633907 371.7697754634052 L 539.8783232089477 373.50252068675786 L 539.3987716166409 375.2028823734363 L 538.787289481504 376.86037722821453 L 538.0476467942383 378.4647862441398 L 537.1844036979671 380.0062177061088 L 536.2028823734363 381.47516817658067 L 535.1091342260007 382.86258108742913 L 533.9099025766973 384.15990257669733 L 532.6125810874291 385.3591342260007 L 531.2251681765806 386.4528823734363 L 529.7562177061088 387.43440369796707 L 528.2147862441398 388.2976467942383 L 526.6103772282145 389.03728948150393 L 524.9528823734363 389.64877161664094 L 523.2525206867579 390.12832320894773 L 521.5197754634052 390.4729876633906 L 519.7653296538765 390.6806400089954 L 518 390.75 L 516.2346703461235 390.6806400089954 L 514.4802245365948 390.4729876633906 L 512.7474793132421 390.12832320894773 L 511.0471176265637 389.64877161664094 L 509.38962277178547 389.03728948150393 L 507.7852137558602 388.2976467942383 L 506.2437822938912 387.43440369796707 L 504.77483182341933 386.4528823734363 L 503.38741891257087 385.3591342260007 L 502.09009742330267 384.15990257669733 L 500.8908657739993 382.86258108742913 L 499.7971176265637 381.47516817658067 L 498.81559630203293 380.0062177061088 L 497.9523532057617 378.4647862441398 L 497.21271051849607 376.86037722821453 L 496.60122838335906 375.2028823734363 L 496.12167679105227 373.50252068675786 L 495.7770123366094 371.7697754634052 L 495.5693599910046 370.0153296538765 L 495.5 368.25 L 495.5693599910046 366.4846703461235 L 495.7770123366094 364.7302245365948 L 496.12167679105227 362.99747931324214 L 496.60122838335906 361.2971176265637 L 497.21271051849607 359.63962277178547 L 497.9523532057617 358.0352137558602 L 498.81559630203293 356.4937822938912 L 499.7971176265637 355.02483182341933 L 500.8908657739993 353.63741891257087 L 502.09009742330267 352.34009742330267 L 503.38741891257087 351.14086577399934 L 504.77483182341933 350.0471176265637 L 506.2437822938912 349.06559630203293 L 507.78521375586024 348.2023532057617 L 509.3896227717855 347.462710518496 L 511.0471176265637 346.85122838335906 L 512.7474793132421 346.37167679105227 L 514.4802245365948 346.0270123366094 L 516.2346703461236 345.8193599910046 L 518.0000000000001 345.75 L 519.7653296538766 345.8193599910046 L 521.5197754634053 346.0270123366094 L 523.252520686758 346.3716767910523 L 524.9528823734364 346.85122838335906 L 526.6103772282146 347.4627105184961 L 528.2147862441399 348.20235320576177 L 529.7562177061089 349.065596302033 L 531.2251681765807 350.04711762656376 L 532.6125810874292 351.1408657739994 L 533.9099025766974 352.3400974233028 L 535.1091342260008 353.637418912571 L 536.2028823734364 355.0248318234195 L 537.1844036979671 356.49378229389134 L 538.0476467942384 358.0352137558604 L 538.787289481504 359.6396227717857 L 539.398771616641 361.29711762656393 L 539.8783232089478 362.99747931324237 L 540.2229876633907 364.7302245365951 L 540.4306400089954 366.4846703461238 Z" fill-opacity="1" stroke-opacity="1" stroke-miterlimit="10" stroke-width="2"/><text fill="rgb(255,255,255)" stroke="none" font-family="times new roman" font-size="15px" font-style="normal" font-weight="normal" text-decoration="normal" x="518" y="375.75" text-anchor="middle" dominant-baseline="text-after-edge" fill-opacity="1">*17</text><path fill="rgb(3,169,244)" stroke="none" paint-order="stroke fill markers" d=" M 518 335.75 L 542.5 335.75 L 542.5 335.75 A 8 8 0 0 1 550.5 343.75 L 550.5 392.75 L 550.5 392.75 A 8 8 0 0 1 542.5 400.75 L 493.5 400.75 L 493.5 400.75 A 8 8 0 0 1 485.5 392.75 L 485.5 343.75 L 485.5 343.75 A 8 8 0 0 1 493.5 335.75 L 518 335.75 Z" fill-opacity="0.15"/><path fill="rgb(69,90,100)" stroke="rgb(158,158,158)" paint-order="fill stroke markers" d=" M 267.625 78.125 L 267.625 98.125 L 362.625 98.125 L 362.625 78.125 Z" fill-opacity="1" stroke-opacity="1" stroke-miterlimit="10" stroke-width="2"/><text fill="rgb(255,255,255)" stroke="none" font-family="times new roman" font-size="10px" font-style="normal" font-weight="normal" text-decoration="normal" x="315.125" y="93.125" text-anchor="middle" dominant-baseline="text-after-edge" fill-opacity="1">42126611C&gt;G</text><path fill="rgb(69,90,100)" stroke="rgb(76,175,80)" paint-order="fill stroke markers" d=" M 266.75 222.875 L 309.25 222.875 L 309.25 222.875 A 5 5 0 0 1 314.25 227.875 L 314.25 237.875 L 314.25 237.875 A 5 5 0 0 1 309.25 242.875 L 224.25 242.875 L 224.25 242.875 A 5 5 0 0 1 219.25 237.875 L 219.25 227.875 L 219.25 227.875 A 5 5 0 0 1 224.25 222.875 L 266.75 222.875 Z" fill-opacity="1" stroke-opacity="1" stroke-miterlimit="10" stroke-width="2"/><text fill="rgb(255,255,255)" stroke="none" font-family="times new roman" font-size="10px" font-style="normal" font-weight="normal" text-decoration="normal" x="266.75" y="237.875" text-anchor="middle" dominant-baseline="text-after-edge" fill-opacity="1">42132049dup</text><path fill="rgb(69,90,100)" stroke="rgb(76,175,80)" paint-order="fill stroke markers" d=" M 494 158.625 L 493.9306400089954 160.3903296538765 L 493.7229876633906 162.14477546340518 L 493.37832320894773 163.87752068675786 L 492.89877161664094 165.57788237343632 L 492.28728948150393 167.23537722821453 L 491.5476467942383 168.83978624413982 L 490.68440369796707 170.38121770610886 L 489.7028823734363 171.85016817658064 L 488.6091342260007 173.23758108742913 L 487.40990257669733 174.5349025766973 L 486.11258108742913 175.7341342260007 L 484.72516817658067 176.82788237343632 L 483.2562177061088 177.80940369796707 L 481.7147862441398 178.6726467942383 L 480.11037722821453 179.41228948150396 L 478.4528823734363 180.02377161664094 L 476.75252068675786 180.50332320894773 L 475.0197754634052 180.8479876633906 L 473.2653296538765 181.05564000899537 L 471.5 181.125 L 469.7346703461235 181.05564000899537 L 467.9802245365948 180.8479876633906 L 466.24747931324214 180.50332320894773 L 464.5471176265637 180.02377161664094 L 462.88962277178547 179.41228948150396 L 461.2852137558602 178.6726467942383 L 459.7437822938912 177.80940369796707 L 458.27483182341933 176.82788237343632 L 456.88741891257087 175.7341342260007 L 455.59009742330267 174.53490257669733 L 454.3908657739993 173.23758108742913 L 453.2971176265637 171.85016817658064 L 452.31559630203293 170.38121770610886 L 451.4523532057617 168.83978624413982 L 450.71271051849607 167.23537722821453 L 450.10122838335906 165.57788237343632 L 449.62167679105227 163.87752068675786 L 449.2770123366094 162.1447754634052 L 449.0693599910046 160.3903296538765 L 449 158.625 L 449.0693599910046 156.8596703461235 L 449.2770123366094 155.10522453659482 L 449.62167679105227 153.37247931324214 L 450.10122838335906 151.67211762656368 L 450.71271051849607 150.01462277178547 L 451.4523532057617 148.4102137558602 L 452.31559630203293 146.86878229389114 L 453.2971176265637 145.39983182341936 L 454.3908657739993 144.01241891257087 L 455.59009742330267 142.7150974233027 L 456.88741891257087 141.5158657739993 L 458.27483182341933 140.42211762656368 L 459.7437822938912 139.44059630203293 L 461.28521375586024 138.5773532057617 L 462.8896227717855 137.83771051849604 L 464.5471176265637 137.22622838335903 L 466.2474793132422 136.74667679105227 L 467.98022453659485 136.4020123366094 L 469.73467034612355 136.1943599910046 L 471.50000000000006 136.125 L 473.2653296538766 136.19435999100463 L 475.01977546340527 136.4020123366094 L 476.752520686758 136.7466767910523 L 478.4528823734364 137.22622838335909 L 480.11037722821465 137.8377105184961 L 481.71478624413993 138.5773532057618 L 483.256217706109 139.440596302033 L 484.7251681765808 140.42211762656376 L 486.11258108742925 141.51586577399942 L 487.40990257669745 142.7150974233028 L 488.60913422600083 144.012418912571 L 489.7028823734364 145.3998318234195 L 490.6844036979672 146.86878229389131 L 491.5476467942384 148.41021375586038 L 492.28728948150405 150.0146227717857 L 492.89877161664106 151.6721176265639 L 493.3783232089478 153.37247931324237 L 493.72298766339065 155.10522453659505 L 493.9306400089954 156.85967034612375 Z" fill-opacity="1" stroke-opacity="1" stroke-miterlimit="10" stroke-width="2"/><text fill="rgb(255,255,255)" stroke="none" font-family="times new roman" font-size="15px" font-style="normal" font-weight="normal" text-decoration="normal" x="471.5" y="166.125" text-anchor="middle" dominant-baseline="text-after-edge" fill-opacity="1">*34</text><path fill="rgb(69,90,100)" stroke="rgb(76,175,80)" paint-order="fill stroke markers" d=" M 172.5 368.25 L 172.44605334032974 369.6230341752373 L 172.2845459604149 370.98760313820407 L 172.01647360695935 372.33529386747836 L 171.64348903516517 373.6577974015616 L 171.1678918189475 374.94696006638907 L 170.59261417329643 376.19483374544205 L 169.92120287619662 377.3937248825291 L 169.1577974015616 378.5362419151183 L 168.30710439800055 379.61534084577823 L 167.37436867076457 380.62436867076457 L 166.3653408457782 381.55710439800055 L 165.28624191511827 382.4077974015616 L 164.1437248825291 383.1712028761966 L 162.94483374544208 383.84261417329645 L 161.69696006638907 384.4178918189475 L 160.4077974015616 384.8934890351652 L 159.08529386747836 385.2664736069593 L 157.73760313820404 385.5345459604149 L 156.37303417523728 385.69605334032974 L 155 385.75 L 153.62696582476272 385.69605334032974 L 152.26239686179596 385.5345459604149 L 150.91470613252164 385.2664736069593 L 149.59220259843843 384.8934890351652 L 148.30303993361093 384.4178918189475 L 147.05516625455795 383.84261417329645 L 145.8562751174709 383.1712028761966 L 144.71375808488173 382.4077974015616 L 143.6346591542218 381.55710439800055 L 142.62563132923543 380.62436867076457 L 141.69289560199945 379.61534084577823 L 140.84220259843843 378.5362419151183 L 140.07879712380338 377.3937248825291 L 139.40738582670357 376.19483374544205 L 138.8321081810525 374.94696006638907 L 138.35651096483483 373.6577974015616 L 137.98352639304065 372.33529386747836 L 137.7154540395851 370.98760313820407 L 137.55394665967026 369.6230341752373 L 137.5 368.25 L 137.55394665967026 366.8769658247627 L 137.7154540395851 365.51239686179593 L 137.98352639304065 364.16470613252164 L 138.3565109648348 362.8422025984384 L 138.8321081810525 361.55303993361093 L 139.40738582670357 360.30516625455795 L 140.07879712380338 359.1062751174709 L 140.8422025984384 357.9637580848817 L 141.69289560199945 356.88465915422177 L 142.6256313292354 355.87563132923543 L 143.63465915422177 354.94289560199945 L 144.7137580848817 354.0922025984384 L 145.8562751174709 353.3287971238034 L 147.05516625455795 352.65738582670355 L 148.30303993361096 352.0821081810525 L 149.59220259843843 351.6065109648348 L 150.9147061325217 351.2335263930407 L 152.262396861796 350.9654540395851 L 153.62696582476278 350.80394665967026 L 155.00000000000006 350.75 L 156.37303417523736 350.80394665967026 L 157.73760313820412 350.9654540395851 L 159.0852938674784 351.2335263930407 L 160.40779740156165 351.60651096483485 L 161.69696006638915 352.0821081810525 L 162.94483374544217 352.6573858267036 L 164.1437248825292 353.32879712380344 L 165.28624191511838 354.0922025984385 L 166.36534084577832 354.94289560199957 L 167.37436867076468 355.8756313292355 L 168.30710439800063 356.8846591542219 L 169.15779740156168 357.9637580848818 L 169.9212028761967 359.10627511747106 L 170.5926141732965 360.30516625455806 L 171.1678918189476 361.5530399336111 L 171.64348903516523 362.8422025984386 L 172.01647360695938 364.1647061325218 L 172.28454596041493 365.51239686179616 L 172.44605334032974 366.8769658247629 Z" fill-opacity="1" stroke-opacity="1" stroke-miterlimit="10" stroke-width="2"/><text fill="rgb(255,255,255)" stroke="none" font-family="times new roman" font-size="10px" font-style="normal" font-weight="normal" text-decoration="normal" x="155" y="373.25" text-anchor="middle" dominant-baseline="text-after-edge" fill-opacity="1">*1.41</text><path fill="rgb(69,90,100)" stroke="rgb(158,158,158)" paint-order="fill stroke markers" d=" M 517 222.875 L 517 242.875 L 612 242.875 L 612 222.875 Z" fill-opacity="1" stroke-opacity="1" stroke-miterlimit="10" stroke-width="2"/><text fill="rgb(255,255,255)" stroke="none" font-family="times new roman" font-size="10px" font-style="normal" font-weight="normal" text-decoration="normal" x="564.5" y="237.875" text-anchor="middle" dominant-baseline="text-after-edge" fill-opacity="1">42129770G&gt;A</text><path fill="rgb(69,90,100)" stroke="rgb(76,175,80)" paint-order="fill stroke markers" d=" M 331 222.875 L 331 242.875 L 426 242.875 L 426 222.875 Z" fill-opacity="1" stroke-opacity="1" stroke-miterlimit="10" stroke-width="2"/><text fill="rgb(255,255,255)" stroke="none" font-family="times new roman" font-size="10px" font-style="normal" font-weight="normal" text-decoration="normal" x="378.5" y="237.875" text-anchor="middle" dominant-baseline="text-after-edge" fill-opacity="1">42130839dup</text><path fill="rgb(69,90,100)" stroke="rgb(76,175,80)" paint-order="fill stroke markers" d=" M 533.625 88.125 L 533.5710533403297 89.49803417523728 L 533.4095459604149 90.86260313820404 L 533.1414736069594 92.21029386747834 L 532.7684890351652 93.53279740156158 L 532.2928918189475 94.82196006638907 L 531.7176141732964 96.06983374544207 L 531.0462028761966 97.2687248825291 L 530.2827974015615 98.41124191511828 L 529.4321043980005 99.4903408457782 L 528.4993686707646 100.49936867076458 L 527.4903408457782 101.43210439800055 L 526.4112419151182 102.28279740156158 L 525.2687248825291 103.04620287619662 L 524.0698337454421 103.71761417329644 L 522.8219600663891 104.29289181894751 L 521.5327974015615 104.76848903516519 L 520.2102938674783 105.14147360695934 L 518.862603138204 105.4095459604149 L 517.4980341752373 105.57105334032974 L 516.125 105.625 L 514.7519658247627 105.57105334032974 L 513.387396861796 105.4095459604149 L 512.0397061325217 105.14147360695934 L 510.7172025984384 104.76848903516519 L 509.42803993361093 104.29289181894751 L 508.18016625455795 103.71761417329644 L 506.9812751174709 103.04620287619662 L 505.8387580848817 102.28279740156158 L 504.75965915422177 101.43210439800055 L 503.75063132923543 100.49936867076458 L 502.81789560199945 99.49034084577822 L 501.9672025984384 98.41124191511828 L 501.2037971238034 97.26872488252911 L 500.53238582670355 96.06983374544207 L 499.9571081810525 94.82196006638907 L 499.4815109648348 93.53279740156158 L 499.1085263930407 92.21029386747834 L 498.8404540395851 90.86260313820404 L 498.67894665967026 89.4980341752373 L 498.625 88.125 L 498.67894665967026 86.75196582476272 L 498.8404540395851 85.38739686179596 L 499.1085263930407 84.03970613252166 L 499.4815109648348 82.71720259843842 L 499.9571081810525 81.42803993361093 L 500.53238582670355 80.18016625455793 L 501.2037971238034 78.9812751174709 L 501.9672025984384 77.83875808488172 L 502.81789560199945 76.7596591542218 L 503.75063132923543 75.75063132923542 L 504.75965915422177 74.81789560199947 L 505.8387580848817 73.96720259843842 L 506.9812751174709 73.20379712380338 L 508.18016625455795 72.53238582670356 L 509.42803993361093 71.95710818105248 L 510.71720259843846 71.4815109648348 L 512.0397061325217 71.10852639304065 L 513.387396861796 70.84045403958508 L 514.7519658247628 70.67894665967026 L 516.1250000000001 70.625 L 517.4980341752373 70.67894665967026 L 518.8626031382041 70.8404540395851 L 520.2102938674784 71.10852639304068 L 521.5327974015617 71.48151096483484 L 522.8219600663891 71.95710818105252 L 524.0698337454421 72.5323858267036 L 525.2687248825292 73.20379712380344 L 526.4112419151184 73.96720259843849 L 527.4903408457783 74.81789560199954 L 528.4993686707646 75.75063132923552 L 529.4321043980007 76.7596591542219 L 530.2827974015617 77.83875808488185 L 531.0462028761967 78.98127511747103 L 531.7176141732965 80.18016625455807 L 532.2928918189476 81.42803993361109 L 532.7684890351652 82.71720259843859 L 533.1414736069594 84.03970613252184 L 533.4095459604149 85.38739686179616 L 533.5710533403297 86.75196582476292 Z" fill-opacity="1" stroke-opacity="1" stroke-miterlimit="10" stroke-width="2"/><text fill="rgb(255,255,255)" stroke="none" font-family="times new roman" font-size="10px" font-style="normal" font-weight="normal" text-decoration="normal" x="516.125" y="93.125" text-anchor="middle" dominant-baseline="text-after-edge" fill-opacity="1">*34.1</text><path fill="rgb(176,190,197)" stroke="none" paint-order="stroke fill markers" d=" M 588.5 263.25 L 588.5 473.25 L 663.5 473.25 L 663.5 263.25000000000006 Z" fill-opacity="0.8"/><text fill="rgb(0,0,0)" stroke="none" font-family="times new roman" font-size="10px" font-style="normal" font-weight="normal" text-decoration="normal" x="593.5" y="278.25" text-anchor="start" dominant-baseline="text-after-edge" fill-opacity="0.8">42127001G&gt;A </text><text fill="rgb(0,0,0)" stroke="none" font-family="times new roman" font-size="10px" font-style="normal" font-weight="normal" text-decoration="normal" x="593.5" y="288.25" text-anchor="start" dominant-baseline="text-after-edge" fill-opacity="0.8">42127207C&gt;T </text><text fill="rgb(0,0,0)" stroke="none" font-family="times new roman" font-size="10px" font-style="normal" font-weight="normal" text-decoration="normal" x="593.5" y="298.25" text-anchor="start" dominant-baseline="text-after-edge" fill-opacity="0.8">42127412G&gt;A </text><text fill="rgb(0,0,0)" stroke="none" font-family="times new roman" font-size="10px" font-style="normal" font-weight="normal" text-decoration="normal" x="593.5" y="308.25" text-anchor="start" dominant-baseline="text-after-edge" fill-opacity="0.8">42129130C&gt;G </text><text fill="rgb(0,0,0)" stroke="none" font-family="times new roman" font-size="10px" font-style="normal" font-weight="normal" text-decoration="normal" x="593.5" y="318.25" text-anchor="start" dominant-baseline="text-after-edge" fill-opacity="0.8">42131531G&gt;A </text><path fill="rgb(176,190,197)" stroke="none" paint-order="stroke fill markers" d=" M 266.75 263.25 L 333.75 263.25 L 333.75 263.25 A 8 8 0 0 1 341.75 271.25 L 341.75 465.25 L 341.75 465.25 A 8 8 0 0 1 333.75 473.25 L 199.75 473.25 L 199.75 473.25 A 8 8 0 0 1 191.75 465.25 L 191.75 271.25 L 191.75 271.25 A 8 8 0 0 1 199.75 263.25 L 266.75 263.25 Z" fill-opacity="0.8"/><text fill="rgb(0,0,0)" stroke="none" font-family="times new roman" font-size="10px" font-style="normal" font-weight="normal" text-decoration="normal" x="196.75" y="278.25" text-anchor="start" dominant-baseline="text-after-edge" fill-opacity="0.8">42125860C&gt;T </text><text fill="rgb(0,0,0)" stroke="none" font-family="times new roman" font-size="10px" font-style="normal" font-weight="normal" text-decoration="normal" x="196.75" y="288.25" text-anchor="start" dominant-baseline="text-after-edge" fill-opacity="0.8">42125924A&gt;G </text><text fill="rgb(0,0,0)" stroke="none" font-family="times new roman" font-size="10px" font-style="normal" font-weight="normal" text-decoration="normal" x="196.75" y="298.25" text-anchor="start" dominant-baseline="text-after-edge" fill-opacity="0.8">42126022C&gt;T </text><text fill="rgb(0,0,0)" stroke="none" font-family="times new roman" font-size="10px" font-style="normal" font-weight="normal" text-decoration="normal" x="196.75" y="308.25" text-anchor="start" dominant-baseline="text-after-edge" fill-opacity="0.8">42126069A&gt;C </text><text fill="rgb(0,0,0)" stroke="none" font-family="times new roman" font-size="10px" font-style="normal" font-weight="normal" text-decoration="normal" x="196.75" y="318.25" text-anchor="start" dominant-baseline="text-after-edge" fill-opacity="0.8">42126079C&gt;T </text><text fill="rgb(0,0,0)" stroke="none" font-family="times new roman" font-size="10px" font-style="normal" font-weight="normal" text-decoration="normal" x="196.75" y="328.25" text-anchor="start" dominant-baseline="text-after-edge" fill-opacity="0.8">42127399T&gt;C </text><text fill="rgb(0,0,0)" stroke="none" font-family="times new roman" font-size="10px" font-style="normal" font-weight="normal" text-decoration="normal" x="196.75" y="338.25" text-anchor="start" dominant-baseline="text-after-edge" fill-opacity="0.8">42127404del </text><text fill="rgb(0,0,0)" stroke="none" font-family="times new roman" font-size="10px" font-style="normal" font-weight="normal" text-decoration="normal" x="196.75" y="348.25" text-anchor="start" dominant-baseline="text-after-edge" fill-opacity="0.8">42132027C&gt;T </text><text fill="rgb(0,0,0)" stroke="none" font-family="times new roman" font-size="10px" font-style="normal" font-weight="normal" text-decoration="normal" x="196.75" y="358.25" text-anchor="start" dominant-baseline="text-after-edge" fill-opacity="0.8">42132844C&gt;A </text><text fill="rgb(0,0,0)" stroke="none" font-family="times new roman" font-size="10px" font-style="normal" font-weight="normal" text-decoration="normal" x="196.75" y="368.25" text-anchor="start" dominant-baseline="text-after-edge" fill-opacity="0.8">42132851T&gt;C </text><text fill="rgb(0,0,0)" stroke="none" font-family="times new roman" font-size="10px" font-style="normal" font-weight="normal" text-decoration="normal" x="196.75" y="378.25" text-anchor="start" dominant-baseline="text-after-edge" fill-opacity="0.8">42133212A&gt;G </text><text fill="rgb(0,0,0)" stroke="none" font-family="times new roman" font-size="10px" font-style="normal" font-weight="normal" text-decoration="normal" x="196.75" y="388.25" text-anchor="start" dominant-baseline="text-after-edge" fill-opacity="0.8">42133400T&gt;G </text><text fill="rgb(0,0,0)" stroke="none" font-family="times new roman" font-size="10px" font-style="normal" font-weight="normal" text-decoration="normal" x="196.75" y="398.25" text-anchor="start" dominant-baseline="text-after-edge" fill-opacity="0.8">42134096del </text><text fill="rgb(0,0,0)" stroke="none" font-family="times new roman" font-size="10px" font-style="normal" font-weight="normal" text-decoration="normal" x="196.75" y="408.25" text-anchor="start" dominant-baseline="text-after-edge" fill-opacity="0.8">42135064_42135066dup </text><text fill="rgb(0,0,0)" stroke="none" font-family="times new roman" font-size="10px" font-style="normal" font-weight="normal" text-decoration="normal" x="196.75" y="418.25" text-anchor="start" dominant-baseline="text-after-edge" fill-opacity="0.8">42135201T&gt;C </text><g transform="scale(0.822536496350365,0.822536496350365) translate(64.72684414864113,53.43094841930116)"/></g></svg>