<svg version="1.1" xmlns="http://www.w3.org/2000/svg" xmlns:xlink="http://www.w3.org/1999/xlink" width="1017" height="608"><defs/><g transform="translate(-1.7778473091364617,-55.38923654568214) scale(0.9144764288694202,0.9144764288694202)"><path fill="none" stroke="rgb(55,71,79)" paint-order="fill stroke markers" d=" M 883.3377659574468 123.875 L 908.4313019975086 163.51856954228253" stroke-opacity="1" stroke-linejoin="round" stroke-miterlimit="10" stroke-width="2"/><path fill="none" stroke="rgb(120,144,156)" paint-order="fill stroke markers" d=" M 403.875 417.125 L 403.875 434.5" stroke-opacity="1" stroke-linejoin="round" stroke-miterlimit="10"/><path fill="rgb(120,144,156)" stroke="none" paint-order="stroke fill markers" d=" M 399.525 427.8 L 403.875 436.5 L 408.225 427.8 Z" fill-opacity="1"/><path fill="none" stroke="rgb(120,144,156)" paint-order="fill stroke markers" d=" M 673.8353856114614 355.3245114562032 L 672.170645400329 380.67978544114123" stroke-opacity="1" stroke-linejoin="round" stroke-miterlimit="10"/><path fill="rgb(120,144,156)" stroke="none" paint-order="stroke fill markers" d=" M 668.2689450415514 373.7091875966006 L 672.0396143885386 382.6754885437968 L 676.9502535381032 374.27917249788936 Z" fill-opacity="1"/><path fill="none" stroke="rgb(120,144,156)" paint-order="fill stroke markers" d=" M 184.91516620498615 417.125 L 228.42879113732477 522.5506281917735" stroke-opacity="1" stroke-linejoin="round" stroke-miterlimit="10"/><path fill="rgb(120,144,156)" stroke="none" paint-order="stroke fill markers" d=" M 221.85162690582675 518.0170412375061 L 229.19183590441503 524.399347392576 L 229.893555429318 514.6977965006635 Z" fill-opacity="1"/><path fill="none" stroke="rgb(120,144,156)" paint-order="fill stroke markers" d=" M 690.0413091536392 350.2366278093714 L 830.0184856319318 525.4824097833143" stroke-opacity="1" stroke-linejoin="round" stroke-miterlimit="10"/><path fill="rgb(120,144,156)" stroke="none" paint-order="stroke fill markers" d=" M 822.4381727680957 522.9622199320609 L 831.2666821556458 527.0451015117715 L 829.2358817868842 517.532565053905 Z" fill-opacity="1"/><path fill="none" stroke="rgb(55,71,79)" paint-order="fill stroke markers" d=" M 768.375 417.125 L 768.375 523" stroke-opacity="1" stroke-linejoin="round" stroke-miterlimit="10" stroke-width="2"/><path fill="none" stroke="rgb(120,144,156)" paint-order="fill stroke markers" d=" M 525.0109072022161 417.125 L 571.6951182943478 518.3442204460036" stroke-opacity="1" stroke-linejoin="round" stroke-miterlimit="10"/><path fill="rgb(120,144,156)" stroke="none" paint-order="stroke fill markers" d=" M 564.9389281575733 514.0820150502315 L 572.5327560751833 520.1603600188661 L 572.839135299525 510.43829070359726 Z" fill-opacity="1"/><path fill="none" stroke="rgb(120,144,156)" paint-order="fill stroke markers" d=" M 253.71260007592963 547.6079946453924 L 582.4479319544809 662.59165332937" stroke-opacity="1" stroke-linejoin="round" stroke-miterlimit="10"/><path fill="rgb(120,144,156)" stroke="none" paint-order="stroke fill markers" d=" M 574.68743480766 664.4856396107843 L 584.3357806113381 663.2519770748179 L 577.5598431003581 656.2734979534553 Z" fill-opacity="1"/><path fill="none" stroke="rgb(120,144,156)" paint-order="fill stroke markers" d=" M 720.5 268.625 L 751.5016217092864 311.2522298502687" stroke-opacity="1" stroke-linejoin="round" stroke-miterlimit="10"/><path fill="rgb(120,144,156)" stroke="none" paint-order="stroke fill markers" d=" M 744.0428693681447 308.39224497032376 L 752.6779651046364 312.86970201887505 L 751.0788733015823 303.27515120055085 Z" fill-opacity="1"/><path fill="none" stroke="rgb(120,144,156)" paint-order="fill stroke markers" d=" M 287.5848337950139 417.125 L 244.07120886267523 522.5506281917735" stroke-opacity="1" stroke-linejoin="round" stroke-miterlimit="10"/><path fill="rgb(120,144,156)" stroke="none" paint-order="stroke fill markers" d=" M 242.606444570682 514.6977965006635 L 243.30816409558497 524.399347392576 L 250.64837309417325 518.0170412375061 Z" fill-opacity="1"/><path fill="none" stroke="rgb(120,144,156)" paint-order="fill stroke markers" d=" M 478.875 588.8045822102426 L 587.6262603505186 657.3970213531572" stroke-opacity="1" stroke-linejoin="round" stroke-miterlimit="10"/><path fill="rgb(120,144,156)" stroke="none" paint-order="stroke fill markers" d=" M 579.6386776131928 657.50200713494 L 589.3178879310345 658.4639778325123 L 584.2799382983875 650.1434271596956 Z" fill-opacity="1"/><path fill="none" stroke="rgb(120,144,156)" paint-order="fill stroke markers" d=" M 587.6282146727774 564.4053211198122 L 607.8725404073117 652.6756109685266" stroke-opacity="1" stroke-linejoin="round" stroke-miterlimit="10"/><path fill="rgb(120,144,156)" stroke="none" paint-order="stroke fill markers" d=" M 602.1348942294908 647.1175612801794 L 608.3196225071225 654.625 L 610.6147365164 645.1727541460023 Z" fill-opacity="1"/><path fill="none" stroke="rgb(120,144,156)" paint-order="fill stroke markers" d=" M 893.9750692520776 417.125 L 850.611267071461 522.5413810586031" stroke-opacity="1" stroke-linejoin="round" stroke-miterlimit="10"/><path fill="rgb(120,144,156)" stroke="none" paint-order="stroke fill markers" d=" M 849.1372059487153 514.6902891723487 L 849.850411747416 524.3910024187394 L 857.1830588653081 518.0000098319443 Z" fill-opacity="1"/><path fill="none" stroke="rgb(120,144,156)" paint-order="fill stroke markers" d=" M 737.7432782822272 198.7836364029867 L 786.2466554809876 240.9049902861208" stroke-opacity="1" stroke-linejoin="round" stroke-miterlimit="10"/><path fill="rgb(120,144,156)" stroke="none" paint-order="stroke fill markers" d=" M 778.3356966365657 239.79628375963898 L 787.7567217177728 242.2163635970133 L 784.040170538948 233.22749562962298 Z" fill-opacity="1"/><path fill="none" stroke="rgb(120,144,156)" paint-order="fill stroke markers" d=" M 548.4405428194342 268.16645114891753 L 652.5844641746565 320.4364040724512" stroke-opacity="1" stroke-linejoin="round" stroke-miterlimit="10"/><path fill="rgb(120,144,156)" stroke="none" paint-order="stroke fill markers" d=" M 644.6450727113373 321.3187663518891 L 654.3719571805658 321.33354885108247 L 648.5476524983834 313.54317177618367 Z" fill-opacity="1"/><path fill="none" stroke="rgb(120,144,156)" paint-order="fill stroke markers" d=" M 526.2521421321032 281.0950857843557 L 520.5939370762276 393.1275458906931" stroke-opacity="1" stroke-linejoin="round" stroke-miterlimit="10"/><path fill="rgb(120,144,156)" stroke="none" paint-order="stroke fill markers" d=" M 516.5874274827366 386.2166573170534 L 520.4930555555555 395.125 L 525.2763528582215 386.6554919319769 Z" fill-opacity="1"/><path fill="none" stroke="rgb(120,144,156)" paint-order="fill stroke markers" d=" M 649.875 607.4774436090225 L 624.0657313977829 652.8862319768331" stroke-opacity="1" stroke-linejoin="round" stroke-miterlimit="10"/><path fill="rgb(120,144,156)" stroke="none" paint-order="stroke fill markers" d=" M 623.5946292923608 644.9118628603283 L 623.0774572649573 654.625 L 631.1582701931368 649.2108553381197 Z" fill-opacity="1"/><path fill="none" stroke="rgb(120,144,156)" paint-order="fill stroke markers" d=" M 754.2426822956658 553.4384922123256 L 634.5798030195949 654.5255454635914" stroke-opacity="1" stroke-linejoin="round" stroke-miterlimit="10"/><path fill="rgb(120,144,156)" stroke="none" paint-order="stroke fill markers" d=" M 636.8908347761043 646.878870877838 L 633.0519848893966 655.8161932703292 L 642.5051527354142 653.5248797442006 Z" fill-opacity="1"/><path fill="none" stroke="rgb(55,71,79)" paint-order="fill stroke markers" d=" M 825.5836129817324 200.81706613738578 L 813.332978104286 235.46886193359103" stroke-opacity="1" stroke-linejoin="round" stroke-miterlimit="10" stroke-width="2"/><path fill="none" stroke="rgb(120,144,156)" paint-order="fill stroke markers" d=" M 794.5722850504603 278.4296880770082 L 778.3577332431175 309.299700171757" stroke-opacity="1" stroke-linejoin="round" stroke-miterlimit="10"/><path fill="rgb(120,144,156)" stroke="none" paint-order="stroke fill markers" d=" M 777.6222139676678 301.34536101658887 L 777.4277149495397 311.0703119229918 L 785.3243750855389 305.3909405936525 Z" fill-opacity="1"/><path fill="none" stroke="rgb(55,71,79)" paint-order="fill stroke markers" d=" M 527.4375 194.375 L 527.4375 234.125" stroke-opacity="1" stroke-linejoin="round" stroke-miterlimit="10" stroke-width="2"/><path fill="none" stroke="rgb(120,144,156)" paint-order="fill stroke markers" d=" M 747.911191952965 346.2522812238785 L 690.6708342638038 390.52412037408925" stroke-opacity="1" stroke-linejoin="round" stroke-miterlimit="10"/><path fill="rgb(120,144,156)" stroke="none" paint-order="stroke fill markers" d=" M 693.3092955655598 382.9841587058089 L 689.088808047035 391.7477187761215 L 698.6319486143999 389.86597274875373 Z" fill-opacity="1"/><path fill="none" stroke="rgb(120,144,156)" paint-order="fill stroke markers" d=" M 657.6793534782853 425.81969529505966 L 596.2867653746266 520.1291604245097" stroke-opacity="1" stroke-linejoin="round" stroke-miterlimit="10"/><path fill="rgb(120,144,156)" stroke="none" paint-order="stroke fill markers" d=" M 596.2963997219449 512.1408935799839 L 595.1956465217147 521.8053047049403 L 603.587627341818 516.8872605901505 Z" fill-opacity="1"/><path fill="none" stroke="rgb(120,144,156)" paint-order="fill stroke markers" d=" M 901.232305828651 196.08280339586722 L 826.9500511221022 243.8356814215058" stroke-opacity="1" stroke-linejoin="round" stroke-miterlimit="10"/><path fill="rgb(120,144,156)" stroke="none" paint-order="stroke fill markers" d=" M 830.2336513849114 236.55347919181733 L 825.267694171349 244.91719660413278 L 834.9382424293387 243.87173192759334 Z" fill-opacity="1"/><path fill="none" stroke="rgb(55,71,79)" paint-order="fill stroke markers" d=" M 955.7304930618685 128.50665801990522 L 933.5686980024914 163.51856954228253" stroke-opacity="1" stroke-linejoin="round" stroke-miterlimit="10" stroke-width="2"/><path fill="none" stroke="rgb(120,144,156)" paint-order="fill stroke markers" d=" M 785.0890505635426 269.27159362656647 L 697.5230515161559 319.2372069158534" stroke-opacity="1" stroke-linejoin="round" stroke-miterlimit="10"/><path fill="rgb(120,144,156)" stroke="none" paint-order="stroke fill markers" d=" M 701.186484662909 312.1384917096157 L 695.7859494364574 320.22840637343353 L 705.4982023033826 319.69488575630425 Z" fill-opacity="1"/><path fill="none" stroke="rgb(120,144,156)" paint-order="fill stroke markers" d=" M 826.7516118283817 550.681387212114 L 638.4392149230381 658.3322851172861" stroke-opacity="1" stroke-linejoin="round" stroke-miterlimit="10"/><path fill="rgb(120,144,156)" stroke="none" paint-order="stroke fill markers" d=" M 642.0969941866676 651.2306549622751 L 636.7029026882685 659.3248675185957 L 646.4147276323645 658.7836131835227 Z" fill-opacity="1"/><path fill="none" stroke="rgb(55,71,79)" paint-order="fill stroke markers" d=" M 685.2695069381315 128.50665801990522 L 707.4313019975086 163.51856954228253" stroke-opacity="1" stroke-linejoin="round" stroke-miterlimit="10" stroke-width="2"/><path fill="none" stroke="rgb(55,71,79)" paint-order="fill stroke markers" d=" M 757.6622340425532 123.875 L 732.5686980024914 163.51856954228253" stroke-opacity="1" stroke-linejoin="round" stroke-miterlimit="10" stroke-width="2"/><path fill="rgb(69,90,100)" stroke="rgb(76,175,80)" paint-order="fill stroke markers" d=" M 785.875 541.5 L 785.8210533403297 542.8730341752373 L 785.6595459604149 544.237603138204 L 785.3914736069594 545.5852938674783 L 785.0184890351652 546.9077974015615 L 784.5428918189475 548.1969600663891 L 783.9676141732964 549.4448337454421 L 783.2962028761966 550.6437248825291 L 782.5327974015615 551.7862419151182 L 781.6821043980005 552.8653408457782 L 780.7493686707646 553.8743686707646 L 779.7403408457782 554.8071043980005 L 778.6612419151182 555.6577974015615 L 777.5187248825291 556.4212028761966 L 776.3198337454421 557.0926141732964 L 775.0719600663891 557.6678918189475 L 773.7827974015615 558.1434890351652 L 772.4602938674783 558.5164736069594 L 771.112603138204 558.7845459604149 L 769.7480341752373 558.9460533403297 L 768.375 559 L 767.0019658247627 558.9460533403297 L 765.637396861796 558.7845459604149 L 764.2897061325217 558.5164736069594 L 762.9672025984385 558.1434890351652 L 761.6780399336109 557.6678918189475 L 760.4301662545579 557.0926141732964 L 759.2312751174709 556.4212028761966 L 758.0887580848818 555.6577974015615 L 757.0096591542218 554.8071043980005 L 756.0006313292354 553.8743686707646 L 755.0678956019995 552.8653408457782 L 754.2172025984385 551.7862419151182 L 753.4537971238034 550.6437248825291 L 752.7823858267036 549.4448337454421 L 752.2071081810525 548.1969600663891 L 751.7315109648348 546.9077974015615 L 751.3585263930406 545.5852938674783 L 751.0904540395851 544.237603138204 L 750.9289466596703 542.8730341752373 L 750.875 541.5 L 750.9289466596703 540.1269658247627 L 751.0904540395851 538.762396861796 L 751.3585263930406 537.4147061325217 L 751.7315109648348 536.0922025984385 L 752.2071081810525 534.8030399336109 L 752.7823858267036 533.5551662545579 L 753.4537971238034 532.3562751174709 L 754.2172025984385 531.2137580848818 L 755.0678956019995 530.1346591542218 L 756.0006313292354 529.1256313292354 L 757.0096591542218 528.1928956019995 L 758.0887580848818 527.3422025984385 L 759.2312751174709 526.5787971238034 L 760.4301662545579 525.9073858267036 L 761.678039933611 525.3321081810525 L 762.9672025984385 524.8565109648348 L 764.2897061325217 524.4835263930406 L 765.637396861796 524.2154540395851 L 767.0019658247628 524.0539466596703 L 768.3750000000001 524 L 769.7480341752373 524.0539466596703 L 771.1126031382041 524.2154540395851 L 772.4602938674784 524.4835263930406 L 773.7827974015617 524.8565109648348 L 775.0719600663891 525.3321081810525 L 776.3198337454421 525.9073858267036 L 777.5187248825292 526.5787971238035 L 778.6612419151184 527.3422025984385 L 779.7403408457783 528.1928956019996 L 780.7493686707646 529.1256313292355 L 781.6821043980007 530.1346591542219 L 782.5327974015617 531.2137580848819 L 783.2962028761967 532.356275117471 L 783.9676141732965 533.5551662545581 L 784.5428918189476 534.8030399336111 L 785.0184890351652 536.0922025984386 L 785.3914736069594 537.4147061325218 L 785.6595459604149 538.7623968617961 L 785.8210533403297 540.1269658247629 Z" fill-opacity="1" stroke-opacity="1" stroke-miterlimit="10" stroke-width="2"/><text fill="rgb(255,255,255)" stroke="none" font-family="times new roman" font-size="10px" font-style="normal" font-weight="normal" text-decoration="normal" x="768.375" y="546.5" text-anchor="middle" dominant-baseline="text-after-edge" fill-opacity="1">*1.41</text><path fill="rgb(69,90,100)" stroke="rgb(117,117,117)" paint-order="fill stroke markers" d=" M 697.875 331.875 L 697.8056400089954 333.6403296538765 L 697.5979876633907 335.3947754634052 L 697.2533232089477 337.12752068675786 L 696.7737716166409 338.8278823734363 L 696.162289481504 340.48537722821453 L 695.4226467942383 342.0897862441398 L 694.5594036979671 343.6312177061088 L 693.5778823734363 345.10016817658067 L 692.4841342260007 346.48758108742913 L 691.2849025766973 347.78490257669733 L 689.9875810874291 348.9841342260007 L 688.6001681765806 350.0778823734363 L 687.1312177061088 351.05940369796707 L 685.5897862441398 351.9226467942383 L 683.9853772282145 352.66228948150393 L 682.3278823734363 353.27377161664094 L 680.6275206867579 353.75332320894773 L 678.8947754634052 354.0979876633906 L 677.1403296538765 354.3056400089954 L 675.375 354.375 L 673.6096703461235 354.3056400089954 L 671.8552245365948 354.0979876633906 L 670.1224793132421 353.75332320894773 L 668.4221176265637 353.27377161664094 L 666.7646227717855 352.66228948150393 L 665.1602137558602 351.9226467942383 L 663.6187822938912 351.05940369796707 L 662.1498318234194 350.0778823734363 L 660.7624189125709 348.9841342260007 L 659.4650974233027 347.78490257669733 L 658.2658657739993 346.48758108742913 L 657.1721176265637 345.10016817658067 L 656.1905963020329 343.6312177061088 L 655.3273532057617 342.0897862441398 L 654.587710518496 340.48537722821453 L 653.9762283833591 338.8278823734363 L 653.4966767910523 337.12752068675786 L 653.1520123366095 335.3947754634052 L 652.9443599910046 333.6403296538765 L 652.875 331.875 L 652.9443599910046 330.1096703461235 L 653.1520123366093 328.3552245365948 L 653.4966767910523 326.62247931324214 L 653.9762283833591 324.9221176265637 L 654.587710518496 323.26462277178547 L 655.3273532057617 321.6602137558602 L 656.1905963020329 320.1187822938912 L 657.1721176265637 318.64983182341933 L 658.2658657739993 317.26241891257087 L 659.4650974233027 315.96509742330267 L 660.7624189125709 314.76586577399934 L 662.1498318234194 313.6721176265637 L 663.6187822938912 312.69059630203293 L 665.1602137558602 311.8273532057617 L 666.7646227717855 311.087710518496 L 668.4221176265637 310.47622838335906 L 670.1224793132421 309.99667679105227 L 671.8552245365948 309.6520123366094 L 673.6096703461236 309.4443599910046 L 675.3750000000001 309.375 L 677.1403296538766 309.4443599910046 L 678.8947754634053 309.6520123366094 L 680.627520686758 309.9966767910523 L 682.3278823734364 310.47622838335906 L 683.9853772282146 311.0877105184961 L 685.5897862441399 311.82735320576177 L 687.1312177061089 312.690596302033 L 688.6001681765807 313.67211762656376 L 689.9875810874292 314.7658657739994 L 691.2849025766974 315.9650974233028 L 692.4841342260008 317.262418912571 L 693.5778823734364 318.6498318234195 L 694.5594036979671 320.11878229389134 L 695.4226467942384 321.6602137558604 L 696.162289481504 323.2646227717857 L 696.773771616641 324.92211762656393 L 697.2533232089478 326.62247931324237 L 697.5979876633907 328.3552245365951 L 697.8056400089954 330.1096703461238 Z" fill-opacity="1" stroke-opacity="1" stroke-miterlimit="10" stroke-width="2"/><text fill="rgb(255,255,255)" stroke="none" font-family="times new roman" font-size="15px" font-style="normal" font-weight="normal" text-decoration="normal" x="675.375" y="339.375" text-anchor="middle" dominant-baseline="text-after-edge" fill-opacity="1">*30</text><path fill="rgb(69,90,100)" stroke="rgb(158,158,158)" paint-order="fill stroke markers" d=" M 665 247.625 L 665 267.625 L 760 267.625 L 760 247.625 Z" fill-opacity="1" stroke-opacity="1" stroke-miterlimit="10" stroke-width="2"/><text fill="rgb(255,255,255)" stroke="none" font-family="times new roman" font-size="10px" font-style="normal" font-weight="normal" text-decoration="normal" x="712.5" y="262.625" text-anchor="middle" dominant-baseline="text-after-edge" fill-opacity="1">42129770G&gt;A</text><path fill="rgb(69,90,100)" stroke="rgb(76,175,80)" paint-order="fill stroke markers" d=" M 851 396.125 L 851 416.125 L 946 416.125 L 946 396.125 Z" fill-opacity="1" stroke-opacity="1" stroke-miterlimit="10" stroke-width="2"/><text fill="rgb(255,255,255)" stroke="none" font-family="times new roman" font-size="10px" font-style="normal" font-weight="normal" text-decoration="normal" x="898.5" y="411.125" text-anchor="middle" dominant-baseline="text-after-edge" fill-opacity="1">42129130C&gt;G</text><path fill="rgb(69,90,100)" stroke="rgb(76,175,80)" paint-order="fill stroke markers" d=" M 692.875 112.875 L 692.8210533403297 114.24803417523728 L 692.6595459604149 115.61260313820404 L 692.3914736069594 116.96029386747834 L 692.0184890351652 118.28279740156158 L 691.5428918189475 119.57196006638907 L 690.9676141732964 120.81983374544207 L 690.2962028761966 122.0187248825291 L 689.5327974015615 123.16124191511828 L 688.6821043980005 124.2403408457782 L 687.7493686707646 125.24936867076458 L 686.7403408457782 126.18210439800055 L 685.6612419151182 127.03279740156158 L 684.5187248825291 127.79620287619662 L 683.3198337454421 128.46761417329643 L 682.0719600663891 129.0428918189475 L 680.7827974015615 129.51848903516517 L 679.4602938674783 129.89147360695935 L 678.112603138204 130.1595459604149 L 676.7480341752373 130.32105334032974 L 675.375 130.375 L 674.0019658247627 130.32105334032974 L 672.637396861796 130.1595459604149 L 671.2897061325217 129.89147360695935 L 669.9672025984385 129.5184890351652 L 668.6780399336109 129.0428918189475 L 667.4301662545579 128.46761417329643 L 666.2312751174709 127.79620287619662 L 665.0887580848818 127.03279740156158 L 664.0096591542218 126.18210439800055 L 663.0006313292354 125.24936867076458 L 662.0678956019995 124.24034084577822 L 661.2172025984385 123.16124191511828 L 660.4537971238034 122.01872488252911 L 659.7823858267036 120.81983374544207 L 659.2071081810525 119.57196006638907 L 658.7315109648348 118.28279740156158 L 658.3585263930406 116.96029386747834 L 658.0904540395851 115.61260313820404 L 657.9289466596703 114.2480341752373 L 657.875 112.875 L 657.9289466596703 111.50196582476272 L 658.0904540395851 110.13739686179596 L 658.3585263930406 108.78970613252166 L 658.7315109648348 107.46720259843842 L 659.2071081810525 106.17803993361093 L 659.7823858267036 104.93016625455793 L 660.4537971238034 103.7312751174709 L 661.2172025984385 102.58875808488172 L 662.0678956019995 101.5096591542218 L 663.0006313292354 100.50063132923542 L 664.0096591542218 99.56789560199947 L 665.0887580848818 98.71720259843842 L 666.2312751174709 97.95379712380338 L 667.4301662545579 97.28238582670356 L 668.678039933611 96.70710818105248 L 669.9672025984385 96.2315109648348 L 671.2897061325217 95.85852639304065 L 672.637396861796 95.59045403958508 L 674.0019658247628 95.42894665967026 L 675.3750000000001 95.375 L 676.7480341752373 95.42894665967026 L 678.1126031382041 95.5904540395851 L 679.4602938674784 95.85852639304068 L 680.7827974015617 96.23151096483484 L 682.0719600663891 96.70710818105252 L 683.3198337454421 97.2823858267036 L 684.5187248825292 97.95379712380344 L 685.6612419151184 98.71720259843849 L 686.7403408457783 99.56789560199954 L 687.7493686707646 100.50063132923552 L 688.6821043980007 101.5096591542219 L 689.5327974015617 102.58875808488185 L 690.2962028761967 103.73127511747103 L 690.9676141732965 104.93016625455807 L 691.5428918189476 106.17803993361109 L 692.0184890351652 107.46720259843859 L 692.3914736069594 108.78970613252184 L 692.6595459604149 110.13739686179616 L 692.8210533403297 111.50196582476292 Z" fill-opacity="1" stroke-opacity="1" stroke-miterlimit="10" stroke-width="2"/><text fill="rgb(255,255,255)" stroke="none" font-family="times new roman" font-size="10px" font-style="normal" font-weight="normal" text-decoration="normal" x="675.375" y="117.875" text-anchor="middle" dominant-baseline="text-after-edge" fill-opacity="1">*34.1</text><path fill="rgb(69,90,100)" stroke="rgb(76,175,80)" paint-order="fill stroke markers" d=" M 742.5 183.375 L 742.4306400089954 185.1403296538765 L 742.2229876633907 186.89477546340518 L 741.8783232089477 188.62752068675786 L 741.3987716166409 190.32788237343632 L 740.787289481504 191.98537722821453 L 740.0476467942383 193.58978624413982 L 739.1844036979671 195.13121770610886 L 738.2028823734363 196.60016817658064 L 737.1091342260007 197.98758108742913 L 735.9099025766973 199.2849025766973 L 734.6125810874291 200.4841342260007 L 733.2251681765806 201.57788237343632 L 731.7562177061088 202.55940369796707 L 730.2147862441398 203.4226467942383 L 728.6103772282145 204.16228948150396 L 726.9528823734363 204.77377161664094 L 725.2525206867579 205.25332320894773 L 723.5197754634052 205.5979876633906 L 721.7653296538765 205.80564000899537 L 720 205.875 L 718.2346703461235 205.80564000899537 L 716.4802245365948 205.5979876633906 L 714.7474793132421 205.25332320894773 L 713.0471176265637 204.77377161664094 L 711.3896227717855 204.16228948150396 L 709.7852137558602 203.4226467942383 L 708.2437822938912 202.55940369796707 L 706.7748318234194 201.57788237343632 L 705.3874189125709 200.4841342260007 L 704.0900974233027 199.28490257669733 L 702.8908657739993 197.98758108742913 L 701.7971176265637 196.60016817658064 L 700.8155963020329 195.13121770610886 L 699.9523532057617 193.58978624413982 L 699.212710518496 191.98537722821453 L 698.6012283833591 190.32788237343632 L 698.1216767910523 188.62752068675786 L 697.7770123366095 186.8947754634052 L 697.5693599910046 185.1403296538765 L 697.5 183.375 L 697.5693599910046 181.6096703461235 L 697.7770123366093 179.85522453659482 L 698.1216767910523 178.12247931324214 L 698.6012283833591 176.42211762656368 L 699.212710518496 174.76462277178547 L 699.9523532057617 173.1602137558602 L 700.8155963020329 171.61878229389114 L 701.7971176265637 170.14983182341936 L 702.8908657739993 168.76241891257087 L 704.0900974233027 167.4650974233027 L 705.3874189125709 166.2658657739993 L 706.7748318234194 165.17211762656368 L 708.2437822938912 164.19059630203293 L 709.7852137558602 163.3273532057617 L 711.3896227717855 162.58771051849604 L 713.0471176265637 161.97622838335903 L 714.7474793132421 161.49667679105227 L 716.4802245365948 161.1520123366094 L 718.2346703461236 160.9443599910046 L 720.0000000000001 160.875 L 721.7653296538766 160.94435999100463 L 723.5197754634053 161.1520123366094 L 725.252520686758 161.4966767910523 L 726.9528823734364 161.97622838335909 L 728.6103772282146 162.5877105184961 L 730.2147862441399 163.3273532057618 L 731.7562177061089 164.190596302033 L 733.2251681765807 165.17211762656376 L 734.6125810874292 166.26586577399942 L 735.9099025766974 167.4650974233028 L 737.1091342260008 168.762418912571 L 738.2028823734364 170.1498318234195 L 739.1844036979671 171.61878229389131 L 740.0476467942384 173.16021375586038 L 740.787289481504 174.7646227717857 L 741.398771616641 176.4221176265639 L 741.8783232089478 178.12247931324237 L 742.2229876633907 179.85522453659505 L 742.4306400089954 181.60967034612375 Z" fill-opacity="1" stroke-opacity="1" stroke-miterlimit="10" stroke-width="2"/><text fill="rgb(255,255,255)" stroke="none" font-family="times new roman" font-size="15px" font-style="normal" font-weight="normal" text-decoration="normal" x="720" y="190.875" text-anchor="middle" dominant-baseline="text-after-edge" fill-opacity="1">*34</text><path fill="rgb(69,90,100)" stroke="rgb(117,117,117)" paint-order="fill stroke markers" d=" M 549.9375 257.625 L 549.8681400089954 259.3903296538765 L 549.6604876633907 261.1447754634052 L 549.3158232089477 262.87752068675786 L 548.8362716166409 264.5778823734363 L 548.224789481504 266.23537722821453 L 547.4851467942383 267.8397862441398 L 546.6219036979671 269.3812177061088 L 545.6403823734363 270.85016817658067 L 544.5466342260007 272.23758108742913 L 543.3474025766973 273.53490257669733 L 542.0500810874291 274.7341342260007 L 540.6626681765806 275.8278823734363 L 539.1937177061088 276.80940369796707 L 537.6522862441398 277.6726467942383 L 536.0478772282145 278.41228948150393 L 534.3903823734363 279.02377161664094 L 532.6900206867579 279.50332320894773 L 530.9572754634052 279.8479876633906 L 529.2028296538765 280.0556400089954 L 527.4375 280.125 L 525.6721703461235 280.0556400089954 L 523.9177245365948 279.8479876633906 L 522.1849793132421 279.50332320894773 L 520.4846176265637 279.02377161664094 L 518.8271227717855 278.41228948150393 L 517.2227137558602 277.6726467942383 L 515.6812822938912 276.80940369796707 L 514.2123318234194 275.8278823734363 L 512.8249189125709 274.7341342260007 L 511.52759742330267 273.53490257669733 L 510.3283657739993 272.23758108742913 L 509.2346176265637 270.85016817658067 L 508.25309630203293 269.3812177061088 L 507.3898532057617 267.8397862441398 L 506.65021051849607 266.23537722821453 L 506.03872838335906 264.5778823734363 L 505.55917679105227 262.87752068675786 L 505.2145123366094 261.1447754634052 L 505.0068599910046 259.3903296538765 L 504.9375 257.625 L 505.0068599910046 255.8596703461235 L 505.2145123366094 254.10522453659482 L 505.55917679105227 252.37247931324214 L 506.03872838335906 250.67211762656368 L 506.65021051849607 249.01462277178547 L 507.3898532057617 247.4102137558602 L 508.25309630203293 245.86878229389114 L 509.2346176265637 244.39983182341936 L 510.3283657739993 243.01241891257087 L 511.52759742330267 241.7150974233027 L 512.8249189125709 240.5158657739993 L 514.2123318234194 239.42211762656368 L 515.6812822938912 238.44059630203293 L 517.2227137558602 237.5773532057617 L 518.8271227717855 236.83771051849604 L 520.4846176265637 236.22622838335903 L 522.1849793132421 235.74667679105227 L 523.9177245365948 235.4020123366094 L 525.6721703461236 235.1943599910046 L 527.4375000000001 235.125 L 529.2028296538766 235.19435999100463 L 530.9572754634053 235.4020123366094 L 532.690020686758 235.7466767910523 L 534.3903823734364 236.22622838335909 L 536.0478772282146 236.8377105184961 L 537.6522862441399 237.5773532057618 L 539.1937177061089 238.440596302033 L 540.6626681765807 239.42211762656376 L 542.0500810874292 240.51586577399942 L 543.3474025766974 241.7150974233028 L 544.5466342260008 243.012418912571 L 545.6403823734364 244.3998318234195 L 546.6219036979671 245.86878229389131 L 547.4851467942384 247.41021375586038 L 548.224789481504 249.0146227717857 L 548.836271616641 250.6721176265639 L 549.3158232089478 252.37247931324237 L 549.6604876633907 254.10522453659505 L 549.8681400089954 255.85967034612375 Z" fill-opacity="1" stroke-opacity="1" stroke-miterlimit="10" stroke-width="2"/><text fill="rgb(255,255,255)" stroke="none" font-family="times new roman" font-size="15px" font-style="normal" font-weight="normal" text-decoration="normal" x="527.4375" y="265.125" text-anchor="middle" dominant-baseline="text-after-edge" fill-opacity="1">*145</text><path fill="rgb(69,90,100)" stroke="rgb(158,158,158)" paint-order="fill stroke markers" d=" M 693 406.125 L 692.9306400089954 407.8903296538765 L 692.7229876633907 409.6447754634052 L 692.3783232089477 411.37752068675786 L 691.8987716166409 413.0778823734363 L 691.287289481504 414.73537722821453 L 690.5476467942383 416.3397862441398 L 689.6844036979671 417.8812177061088 L 688.7028823734363 419.35016817658067 L 687.6091342260007 420.73758108742913 L 686.4099025766973 422.03490257669733 L 685.1125810874291 423.2341342260007 L 683.7251681765806 424.3278823734363 L 682.2562177061088 425.30940369796707 L 680.7147862441398 426.1726467942383 L 679.1103772282145 426.91228948150393 L 677.4528823734363 427.52377161664094 L 675.7525206867579 428.00332320894773 L 674.0197754634052 428.3479876633906 L 672.2653296538765 428.5556400089954 L 670.5 428.625 L 668.7346703461235 428.5556400089954 L 666.9802245365948 428.3479876633906 L 665.2474793132421 428.00332320894773 L 663.5471176265637 427.52377161664094 L 661.8896227717855 426.91228948150393 L 660.2852137558602 426.1726467942383 L 658.7437822938912 425.30940369796707 L 657.2748318234194 424.3278823734363 L 655.8874189125709 423.2341342260007 L 654.5900974233027 422.03490257669733 L 653.3908657739993 420.73758108742913 L 652.2971176265637 419.35016817658067 L 651.3155963020329 417.8812177061088 L 650.4523532057617 416.3397862441398 L 649.712710518496 414.73537722821453 L 649.1012283833591 413.0778823734363 L 648.6216767910523 411.37752068675786 L 648.2770123366095 409.6447754634052 L 648.0693599910046 407.8903296538765 L 648 406.125 L 648.0693599910046 404.3596703461235 L 648.2770123366093 402.6052245365948 L 648.6216767910523 400.87247931324214 L 649.1012283833591 399.1721176265637 L 649.712710518496 397.51462277178547 L 650.4523532057617 395.9102137558602 L 651.3155963020329 394.3687822938912 L 652.2971176265637 392.89983182341933 L 653.3908657739993 391.51241891257087 L 654.5900974233027 390.21509742330267 L 655.8874189125709 389.01586577399934 L 657.2748318234194 387.9221176265637 L 658.7437822938912 386.94059630203293 L 660.2852137558602 386.0773532057617 L 661.8896227717855 385.337710518496 L 663.5471176265637 384.72622838335906 L 665.2474793132421 384.24667679105227 L 666.9802245365948 383.9020123366094 L 668.7346703461236 383.6943599910046 L 670.5000000000001 383.625 L 672.2653296538766 383.6943599910046 L 674.0197754634053 383.9020123366094 L 675.752520686758 384.2466767910523 L 677.4528823734364 384.72622838335906 L 679.1103772282146 385.3377105184961 L 680.7147862441399 386.07735320576177 L 682.2562177061089 386.940596302033 L 683.7251681765807 387.92211762656376 L 685.1125810874292 389.0158657739994 L 686.4099025766974 390.2150974233028 L 687.6091342260008 391.512418912571 L 688.7028823734364 392.8998318234195 L 689.6844036979671 394.36878229389134 L 690.5476467942384 395.9102137558604 L 691.287289481504 397.5146227717857 L 691.898771616641 399.17211762656393 L 692.3783232089478 400.87247931324237 L 692.7229876633907 402.6052245365951 L 692.9306400089954 404.3596703461238 Z" fill-opacity="1" stroke-opacity="1" stroke-miterlimit="10" stroke-width="2"/><text fill="rgb(255,255,255)" stroke="none" font-family="times new roman" font-size="15px" font-style="normal" font-weight="normal" text-decoration="normal" x="670.5" y="413.625" text-anchor="middle" dominant-baseline="text-after-edge" fill-opacity="1">*58</text><path fill="rgb(69,90,100)" stroke="rgb(117,117,117)" paint-order="fill stroke markers" d=" M 860.3125 541.5 L 860.2585533403297 542.8730341752373 L 860.0970459604149 544.237603138204 L 859.8289736069594 545.5852938674783 L 859.4559890351652 546.9077974015615 L 858.9803918189475 548.1969600663891 L 858.4051141732964 549.4448337454421 L 857.7337028761966 550.6437248825291 L 856.9702974015615 551.7862419151182 L 856.1196043980005 552.8653408457782 L 855.1868686707646 553.8743686707646 L 854.1778408457782 554.8071043980005 L 853.0987419151182 555.6577974015615 L 851.9562248825291 556.4212028761966 L 850.7573337454421 557.0926141732964 L 849.5094600663891 557.6678918189475 L 848.2202974015615 558.1434890351652 L 846.8977938674783 558.5164736069594 L 845.550103138204 558.7845459604149 L 844.1855341752373 558.9460533403297 L 842.8125 559 L 841.4394658247627 558.9460533403297 L 840.074896861796 558.7845459604149 L 838.7272061325217 558.5164736069594 L 837.4047025984385 558.1434890351652 L 836.1155399336109 557.6678918189475 L 834.8676662545579 557.0926141732964 L 833.6687751174709 556.4212028761966 L 832.5262580848818 555.6577974015615 L 831.4471591542218 554.8071043980005 L 830.4381313292354 553.8743686707646 L 829.5053956019995 552.8653408457782 L 828.6547025984385 551.7862419151182 L 827.8912971238034 550.6437248825291 L 827.2198858267036 549.4448337454421 L 826.6446081810525 548.1969600663891 L 826.1690109648348 546.9077974015615 L 825.7960263930406 545.5852938674783 L 825.5279540395851 544.237603138204 L 825.3664466596703 542.8730341752373 L 825.3125 541.5 L 825.3664466596703 540.1269658247627 L 825.5279540395851 538.762396861796 L 825.7960263930406 537.4147061325217 L 826.1690109648348 536.0922025984385 L 826.6446081810525 534.8030399336109 L 827.2198858267036 533.5551662545579 L 827.8912971238034 532.3562751174709 L 828.6547025984385 531.2137580848818 L 829.5053956019995 530.1346591542218 L 830.4381313292354 529.1256313292354 L 831.4471591542218 528.1928956019995 L 832.5262580848818 527.3422025984385 L 833.6687751174709 526.5787971238034 L 834.8676662545579 525.9073858267036 L 836.115539933611 525.3321081810525 L 837.4047025984385 524.8565109648348 L 838.7272061325217 524.4835263930406 L 840.074896861796 524.2154540395851 L 841.4394658247628 524.0539466596703 L 842.8125000000001 524 L 844.1855341752373 524.0539466596703 L 845.5501031382041 524.2154540395851 L 846.8977938674784 524.4835263930406 L 848.2202974015617 524.8565109648348 L 849.5094600663891 525.3321081810525 L 850.7573337454421 525.9073858267036 L 851.9562248825292 526.5787971238035 L 853.0987419151184 527.3422025984385 L 854.1778408457783 528.1928956019996 L 855.1868686707646 529.1256313292355 L 856.1196043980007 530.1346591542219 L 856.9702974015617 531.2137580848819 L 857.7337028761967 532.356275117471 L 858.4051141732965 533.5551662545581 L 858.9803918189476 534.8030399336111 L 859.4559890351652 536.0922025984386 L 859.8289736069594 537.4147061325218 L 860.0970459604149 538.7623968617961 L 860.2585533403297 540.1269658247629 Z" fill-opacity="1" stroke-opacity="1" stroke-miterlimit="10" stroke-width="2"/><text fill="rgb(255,255,255)" stroke="none" font-family="times new roman" font-size="10px" font-style="normal" font-weight="normal" text-decoration="normal" x="842.8125" y="546.5" text-anchor="middle" dominant-baseline="text-after-edge" fill-opacity="1">*30.1</text><path fill="rgb(69,90,100)" stroke="rgb(76,175,80)" paint-order="fill stroke markers" d=" M 244.625 396.125 L 244.625 416.125 L 339.625 416.125 L 339.625 396.125 Z" fill-opacity="1" stroke-opacity="1" stroke-miterlimit="10" stroke-width="2"/><text fill="rgb(255,255,255)" stroke="none" font-family="times new roman" font-size="10px" font-style="normal" font-weight="normal" text-decoration="normal" x="292.125" y="411.125" text-anchor="middle" dominant-baseline="text-after-edge" fill-opacity="1">42129950A&gt;C</text><path fill="rgb(69,90,100)" stroke="rgb(76,175,80)" paint-order="fill stroke markers" d=" M 132.875 396.125 L 132.875 416.125 L 227.87499999999997 416.125 L 227.875 396.125 Z" fill-opacity="1" stroke-opacity="1" stroke-miterlimit="10" stroke-width="2"/><text fill="rgb(255,255,255)" stroke="none" font-family="times new roman" font-size="10px" font-style="normal" font-weight="normal" text-decoration="normal" x="180.375" y="411.125" text-anchor="middle" dominant-baseline="text-after-edge" fill-opacity="1">42130482C&gt;A</text><path fill="rgb(69,90,100)" stroke="rgb(69,90,100)" paint-order="fill stroke markers" d=" M 593.8125 655.625 L 575.0625 673.125 L 593.8125 690.625 L 631.3125 690.625 L 650.0625 673.125 L 631.3125 655.625 Z" fill-opacity="1" stroke-opacity="1" stroke-miterlimit="10" stroke-width="2"/><text fill="rgb(255,255,255)" stroke="none" font-family="times new roman" font-size="10px" font-style="normal" font-weight="normal" text-decoration="normal" x="612.5625" y="678.125" text-anchor="middle" dominant-baseline="text-after-edge" fill-opacity="1">NA19917-B</text><path fill="rgb(69,90,100)" stroke="rgb(76,175,80)" paint-order="fill stroke markers" d=" M 943.5 183.375 L 943.4306400089954 185.1403296538765 L 943.2229876633907 186.89477546340518 L 942.8783232089477 188.62752068675786 L 942.3987716166409 190.32788237343632 L 941.787289481504 191.98537722821453 L 941.0476467942383 193.58978624413982 L 940.1844036979671 195.13121770610886 L 939.2028823734363 196.60016817658064 L 938.1091342260007 197.98758108742913 L 936.9099025766973 199.2849025766973 L 935.6125810874291 200.4841342260007 L 934.2251681765806 201.57788237343632 L 932.7562177061088 202.55940369796707 L 931.2147862441398 203.4226467942383 L 929.6103772282145 204.16228948150396 L 927.9528823734363 204.77377161664094 L 926.2525206867579 205.25332320894773 L 924.5197754634052 205.5979876633906 L 922.7653296538765 205.80564000899537 L 921 205.875 L 919.2346703461235 205.80564000899537 L 917.4802245365948 205.5979876633906 L 915.7474793132421 205.25332320894773 L 914.0471176265637 204.77377161664094 L 912.3896227717855 204.16228948150396 L 910.7852137558602 203.4226467942383 L 909.2437822938912 202.55940369796707 L 907.7748318234194 201.57788237343632 L 906.3874189125709 200.4841342260007 L 905.0900974233027 199.28490257669733 L 903.8908657739993 197.98758108742913 L 902.7971176265637 196.60016817658064 L 901.8155963020329 195.13121770610886 L 900.9523532057617 193.58978624413982 L 900.212710518496 191.98537722821453 L 899.6012283833591 190.32788237343632 L 899.1216767910523 188.62752068675786 L 898.7770123366095 186.8947754634052 L 898.5693599910046 185.1403296538765 L 898.5 183.375 L 898.5693599910046 181.6096703461235 L 898.7770123366093 179.85522453659482 L 899.1216767910523 178.12247931324214 L 899.6012283833591 176.42211762656368 L 900.212710518496 174.76462277178547 L 900.9523532057617 173.1602137558602 L 901.8155963020329 171.61878229389114 L 902.7971176265637 170.14983182341936 L 903.8908657739993 168.76241891257087 L 905.0900974233027 167.4650974233027 L 906.3874189125709 166.2658657739993 L 907.7748318234194 165.17211762656368 L 909.2437822938912 164.19059630203293 L 910.7852137558602 163.3273532057617 L 912.3896227717855 162.58771051849604 L 914.0471176265637 161.97622838335903 L 915.7474793132421 161.49667679105227 L 917.4802245365948 161.1520123366094 L 919.2346703461236 160.9443599910046 L 921.0000000000001 160.875 L 922.7653296538766 160.94435999100463 L 924.5197754634053 161.1520123366094 L 926.252520686758 161.4966767910523 L 927.9528823734364 161.97622838335909 L 929.6103772282146 162.5877105184961 L 931.2147862441399 163.3273532057618 L 932.7562177061089 164.190596302033 L 934.2251681765807 165.17211762656376 L 935.6125810874292 166.26586577399942 L 936.9099025766974 167.4650974233028 L 938.1091342260008 168.762418912571 L 939.2028823734364 170.1498318234195 L 940.1844036979671 171.61878229389131 L 941.0476467942384 173.16021375586038 L 941.787289481504 174.7646227717857 L 942.398771616641 176.4221176265639 L 942.8783232089478 178.12247931324237 L 943.2229876633907 179.85522453659505 L 943.4306400089954 181.60967034612375 Z" fill-opacity="1" stroke-opacity="1" stroke-miterlimit="10" stroke-width="2"/><text fill="rgb(255,255,255)" stroke="none" font-family="times new roman" font-size="15px" font-style="normal" font-weight="normal" text-decoration="normal" x="921" y="190.875" text-anchor="middle" dominant-baseline="text-after-edge" fill-opacity="1">*39</text><path fill="rgb(69,90,100)" stroke="rgb(76,175,80)" paint-order="fill stroke markers" d=" M 253.75 541.5 L 253.69605334032974 542.8730341752373 L 253.5345459604149 544.237603138204 L 253.26647360695935 545.5852938674783 L 252.89348903516517 546.9077974015615 L 252.4178918189475 548.1969600663891 L 251.84261417329643 549.4448337454421 L 251.17120287619662 550.6437248825291 L 250.4077974015616 551.7862419151182 L 249.55710439800055 552.8653408457782 L 248.62436867076457 553.8743686707646 L 247.6153408457782 554.8071043980005 L 246.53624191511827 555.6577974015615 L 245.3937248825291 556.4212028761966 L 244.19483374544208 557.0926141732964 L 242.94696006638907 557.6678918189475 L 241.6577974015616 558.1434890351652 L 240.33529386747836 558.5164736069594 L 238.98760313820404 558.7845459604149 L 237.62303417523728 558.9460533403297 L 236.25 559 L 234.87696582476272 558.9460533403297 L 233.51239686179596 558.7845459604149 L 232.16470613252164 558.5164736069594 L 230.84220259843843 558.1434890351652 L 229.55303993361093 557.6678918189475 L 228.30516625455795 557.0926141732964 L 227.1062751174709 556.4212028761966 L 225.96375808488173 555.6577974015615 L 224.8846591542218 554.8071043980005 L 223.87563132923543 553.8743686707646 L 222.94289560199945 552.8653408457782 L 222.09220259843843 551.7862419151182 L 221.32879712380338 550.6437248825291 L 220.65738582670357 549.4448337454421 L 220.0821081810525 548.1969600663891 L 219.60651096483483 546.9077974015615 L 219.23352639304065 545.5852938674783 L 218.9654540395851 544.237603138204 L 218.80394665967026 542.8730341752373 L 218.75 541.5 L 218.80394665967026 540.1269658247627 L 218.9654540395851 538.762396861796 L 219.23352639304065 537.4147061325217 L 219.6065109648348 536.0922025984385 L 220.0821081810525 534.8030399336109 L 220.65738582670357 533.5551662545579 L 221.32879712380338 532.3562751174709 L 222.0922025984384 531.2137580848818 L 222.94289560199945 530.1346591542218 L 223.8756313292354 529.1256313292354 L 224.88465915422177 528.1928956019995 L 225.9637580848817 527.3422025984385 L 227.1062751174709 526.5787971238034 L 228.30516625455795 525.9073858267036 L 229.55303993361096 525.3321081810525 L 230.84220259843843 524.8565109648348 L 232.1647061325217 524.4835263930406 L 233.512396861796 524.2154540395851 L 234.87696582476278 524.0539466596703 L 236.25000000000006 524 L 237.62303417523736 524.0539466596703 L 238.98760313820412 524.2154540395851 L 240.3352938674784 524.4835263930406 L 241.65779740156165 524.8565109648348 L 242.94696006638915 525.3321081810525 L 244.19483374544217 525.9073858267036 L 245.3937248825292 526.5787971238035 L 246.53624191511838 527.3422025984385 L 247.61534084577832 528.1928956019996 L 248.62436867076468 529.1256313292355 L 249.55710439800063 530.1346591542219 L 250.40779740156168 531.2137580848819 L 251.1712028761967 532.356275117471 L 251.8426141732965 533.5551662545581 L 252.4178918189476 534.8030399336111 L 252.89348903516523 536.0922025984386 L 253.26647360695938 537.4147061325218 L 253.53454596041493 538.7623968617961 L 253.69605334032974 540.1269658247629 Z" fill-opacity="1" stroke-opacity="1" stroke-miterlimit="10" stroke-width="2"/><text fill="rgb(255,255,255)" stroke="none" font-family="times new roman" font-size="10px" font-style="normal" font-weight="normal" text-decoration="normal" x="236.25" y="546.5" text-anchor="middle" dominant-baseline="text-after-edge" fill-opacity="1">*1.58</text><path fill="rgb(69,90,100)" stroke="rgb(76,175,80)" paint-order="fill stroke markers" d=" M 403.875 396.125 L 446.375 396.125 L 446.375 396.125 A 5 5 0 0 1 451.375 401.125 L 451.375 411.125 L 451.375 411.125 A 5 5 0 0 1 446.375 416.125 L 361.375 416.125 L 361.375 416.125 A 5 5 0 0 1 356.375 411.125 L 356.375 401.125 L 356.375 401.125 A 5 5 0 0 1 361.375 396.125 L 403.875 396.125 Z" fill-opacity="1" stroke-opacity="1" stroke-miterlimit="10" stroke-width="2"/><text fill="rgb(255,255,255)" stroke="none" font-family="times new roman" font-size="10px" font-style="normal" font-weight="normal" text-decoration="normal" x="403.875" y="411.125" text-anchor="middle" dominant-baseline="text-after-edge" fill-opacity="1">42132049dup</text><path fill="rgb(69,90,100)" stroke="rgb(255,193,7)" paint-order="fill stroke markers" d=" M 789 331.875 L 788.9306400089954 333.6403296538765 L 788.7229876633907 335.3947754634052 L 788.3783232089477 337.12752068675786 L 787.8987716166409 338.8278823734363 L 787.287289481504 340.48537722821453 L 786.5476467942383 342.0897862441398 L 785.6844036979671 343.6312177061088 L 784.7028823734363 345.10016817658067 L 783.6091342260007 346.48758108742913 L 782.4099025766973 347.78490257669733 L 781.1125810874291 348.9841342260007 L 779.7251681765806 350.0778823734363 L 778.2562177061088 351.05940369796707 L 776.7147862441398 351.9226467942383 L 775.1103772282145 352.66228948150393 L 773.4528823734363 353.27377161664094 L 771.7525206867579 353.75332320894773 L 770.0197754634052 354.0979876633906 L 768.2653296538765 354.3056400089954 L 766.5 354.375 L 764.7346703461235 354.3056400089954 L 762.9802245365948 354.0979876633906 L 761.2474793132421 353.75332320894773 L 759.5471176265637 353.27377161664094 L 757.8896227717855 352.66228948150393 L 756.2852137558602 351.9226467942383 L 754.7437822938912 351.05940369796707 L 753.2748318234194 350.0778823734363 L 751.8874189125709 348.9841342260007 L 750.5900974233027 347.78490257669733 L 749.3908657739993 346.48758108742913 L 748.2971176265637 345.10016817658067 L 747.3155963020329 343.6312177061088 L 746.4523532057617 342.0897862441398 L 745.712710518496 340.48537722821453 L 745.1012283833591 338.8278823734363 L 744.6216767910523 337.12752068675786 L 744.2770123366095 335.3947754634052 L 744.0693599910046 333.6403296538765 L 744 331.875 L 744.0693599910046 330.1096703461235 L 744.2770123366093 328.3552245365948 L 744.6216767910523 326.62247931324214 L 745.1012283833591 324.9221176265637 L 745.712710518496 323.26462277178547 L 746.4523532057617 321.6602137558602 L 747.3155963020329 320.1187822938912 L 748.2971176265637 318.64983182341933 L 749.3908657739993 317.26241891257087 L 750.5900974233027 315.96509742330267 L 751.8874189125709 314.76586577399934 L 753.2748318234194 313.6721176265637 L 754.7437822938912 312.69059630203293 L 756.2852137558602 311.8273532057617 L 757.8896227717855 311.087710518496 L 759.5471176265637 310.47622838335906 L 761.2474793132421 309.99667679105227 L 762.9802245365948 309.6520123366094 L 764.7346703461236 309.4443599910046 L 766.5000000000001 309.375 L 768.2653296538766 309.4443599910046 L 770.0197754634053 309.6520123366094 L 771.752520686758 309.9966767910523 L 773.4528823734364 310.47622838335906 L 775.1103772282146 311.0877105184961 L 776.7147862441399 311.82735320576177 L 778.2562177061089 312.690596302033 L 779.7251681765807 313.67211762656376 L 781.1125810874292 314.7658657739994 L 782.4099025766974 315.9650974233028 L 783.6091342260008 317.262418912571 L 784.7028823734364 318.6498318234195 L 785.6844036979671 320.11878229389134 L 786.5476467942384 321.6602137558604 L 787.287289481504 323.2646227717857 L 787.898771616641 324.92211762656393 L 788.3783232089478 326.62247931324237 L 788.7229876633907 328.3552245365951 L 788.9306400089954 330.1096703461238 Z" fill-opacity="1" stroke-opacity="1" stroke-miterlimit="10" stroke-width="2"/><text fill="rgb(255,255,255)" stroke="none" font-family="times new roman" font-size="15px" font-style="normal" font-weight="normal" text-decoration="normal" x="766.5" y="339.375" text-anchor="middle" dominant-baseline="text-after-edge" fill-opacity="1">*17</text><path fill="rgb(69,90,100)" stroke="rgb(76,175,80)" paint-order="fill stroke markers" d=" M 849.25 183.375 L 849.1960533403297 184.74803417523728 L 849.0345459604149 186.11260313820404 L 848.7664736069594 187.46029386747836 L 848.3934890351652 188.78279740156157 L 847.9178918189475 190.07196006638907 L 847.3426141732964 191.31983374544205 L 846.6712028761966 192.5187248825291 L 845.9077974015615 193.66124191511827 L 845.0571043980005 194.7403408457782 L 844.1243686707646 195.74936867076457 L 843.1153408457782 196.68210439800055 L 842.0362419151182 197.5327974015616 L 840.8937248825291 198.29620287619662 L 839.6948337454421 198.96761417329643 L 838.4469600663891 199.5428918189475 L 837.1577974015615 200.01848903516517 L 835.8352938674783 200.39147360695935 L 834.487603138204 200.6595459604149 L 833.1230341752373 200.82105334032974 L 831.75 200.875 L 830.3769658247627 200.82105334032974 L 829.012396861796 200.6595459604149 L 827.6647061325217 200.39147360695935 L 826.3422025984385 200.0184890351652 L 825.0530399336109 199.5428918189475 L 823.8051662545579 198.96761417329643 L 822.6062751174709 198.29620287619662 L 821.4637580848818 197.5327974015616 L 820.3846591542218 196.68210439800055 L 819.3756313292354 195.74936867076457 L 818.4428956019995 194.7403408457782 L 817.5922025984385 193.6612419151183 L 816.8287971238034 192.5187248825291 L 816.1573858267036 191.31983374544208 L 815.5821081810525 190.07196006638907 L 815.1065109648348 188.7827974015616 L 814.7335263930406 187.46029386747836 L 814.4654540395851 186.11260313820404 L 814.3039466596703 184.74803417523728 L 814.25 183.375 L 814.3039466596703 182.00196582476272 L 814.4654540395851 180.63739686179596 L 814.7335263930406 179.28970613252164 L 815.1065109648348 177.96720259843843 L 815.5821081810525 176.67803993361093 L 816.1573858267036 175.43016625455795 L 816.8287971238034 174.2312751174709 L 817.5922025984385 173.08875808488173 L 818.4428956019995 172.0096591542218 L 819.3756313292354 171.00063132923543 L 820.3846591542218 170.06789560199945 L 821.4637580848818 169.21720259843843 L 822.6062751174709 168.45379712380338 L 823.8051662545579 167.78238582670355 L 825.053039933611 167.2071081810525 L 826.3422025984385 166.7315109648348 L 827.6647061325217 166.35852639304065 L 829.012396861796 166.0904540395851 L 830.3769658247628 165.92894665967026 L 831.7500000000001 165.875 L 833.1230341752373 165.92894665967026 L 834.4876031382041 166.0904540395851 L 835.8352938674784 166.35852639304068 L 837.1577974015617 166.73151096483485 L 838.4469600663891 167.20710818105252 L 839.6948337454421 167.7823858267036 L 840.8937248825292 168.45379712380344 L 842.0362419151184 169.2172025984385 L 843.1153408457783 170.06789560199954 L 844.1243686707646 171.00063132923552 L 845.0571043980007 172.0096591542219 L 845.9077974015617 173.08875808488185 L 846.6712028761967 174.23127511747103 L 847.3426141732965 175.4301662545581 L 847.9178918189476 176.6780399336111 L 848.3934890351652 177.9672025984386 L 848.7664736069594 179.28970613252184 L 849.0345459604149 180.63739686179616 L 849.1960533403297 182.00196582476292 Z" fill-opacity="1" stroke-opacity="1" stroke-miterlimit="10" stroke-width="2"/><text fill="rgb(255,255,255)" stroke="none" font-family="times new roman" font-size="10px" font-style="normal" font-weight="normal" text-decoration="normal" x="831.75" y="188.375" text-anchor="middle" dominant-baseline="text-after-edge" fill-opacity="1">*2.4</text><path fill="rgb(69,90,100)" stroke="rgb(76,175,80)" paint-order="fill stroke markers" d=" M 983.125 112.875 L 983.0710533403297 114.24803417523728 L 982.9095459604149 115.61260313820404 L 982.6414736069594 116.96029386747834 L 982.2684890351652 118.28279740156158 L 981.7928918189475 119.57196006638907 L 981.2176141732964 120.81983374544207 L 980.5462028761966 122.0187248825291 L 979.7827974015615 123.16124191511828 L 978.9321043980005 124.2403408457782 L 977.9993686707646 125.24936867076458 L 976.9903408457782 126.18210439800055 L 975.9112419151182 127.03279740156158 L 974.7687248825291 127.79620287619662 L 973.5698337454421 128.46761417329643 L 972.3219600663891 129.0428918189475 L 971.0327974015615 129.51848903516517 L 969.7102938674783 129.89147360695935 L 968.362603138204 130.1595459604149 L 966.9980341752373 130.32105334032974 L 965.625 130.375 L 964.2519658247627 130.32105334032974 L 962.887396861796 130.1595459604149 L 961.5397061325217 129.89147360695935 L 960.2172025984385 129.5184890351652 L 958.9280399336109 129.0428918189475 L 957.6801662545579 128.46761417329643 L 956.4812751174709 127.79620287619662 L 955.3387580848818 127.03279740156158 L 954.2596591542218 126.18210439800055 L 953.2506313292354 125.24936867076458 L 952.3178956019995 124.24034084577822 L 951.4672025984385 123.16124191511828 L 950.7037971238034 122.01872488252911 L 950.0323858267036 120.81983374544207 L 949.4571081810525 119.57196006638907 L 948.9815109648348 118.28279740156158 L 948.6085263930406 116.96029386747834 L 948.3404540395851 115.61260313820404 L 948.1789466596703 114.2480341752373 L 948.125 112.875 L 948.1789466596703 111.50196582476272 L 948.3404540395851 110.13739686179596 L 948.6085263930406 108.78970613252166 L 948.9815109648348 107.46720259843842 L 949.4571081810525 106.17803993361093 L 950.0323858267036 104.93016625455793 L 950.7037971238034 103.7312751174709 L 951.4672025984385 102.58875808488172 L 952.3178956019995 101.5096591542218 L 953.2506313292354 100.50063132923542 L 954.2596591542218 99.56789560199947 L 955.3387580848818 98.71720259843842 L 956.4812751174709 97.95379712380338 L 957.6801662545579 97.28238582670356 L 958.928039933611 96.70710818105248 L 960.2172025984385 96.2315109648348 L 961.5397061325217 95.85852639304065 L 962.887396861796 95.59045403958508 L 964.2519658247628 95.42894665967026 L 965.6250000000001 95.375 L 966.9980341752373 95.42894665967026 L 968.3626031382041 95.5904540395851 L 969.7102938674784 95.85852639304068 L 971.0327974015617 96.23151096483484 L 972.3219600663891 96.70710818105252 L 973.5698337454421 97.2823858267036 L 974.7687248825292 97.95379712380344 L 975.9112419151184 98.71720259843849 L 976.9903408457783 99.56789560199954 L 977.9993686707646 100.50063132923552 L 978.9321043980007 101.5096591542219 L 979.7827974015617 102.58875808488185 L 980.5462028761967 103.73127511747103 L 981.2176141732965 104.93016625455807 L 981.7928918189476 106.17803993361109 L 982.2684890351652 107.46720259843859 L 982.6414736069594 108.78970613252184 L 982.9095459604149 110.13739686179616 L 983.0710533403297 111.50196582476292 Z" fill-opacity="1" stroke-opacity="1" stroke-miterlimit="10" stroke-width="2"/><text fill="rgb(255,255,255)" stroke="none" font-family="times new roman" font-size="10px" font-style="normal" font-weight="normal" text-decoration="normal" x="965.625" y="117.875" text-anchor="middle" dominant-baseline="text-after-edge" fill-opacity="1">*39.2</text><path fill="rgb(69,90,100)" stroke="rgb(255,193,7)" paint-order="fill stroke markers" d=" M 479.9375 173.375 L 479.9375 193.375 L 574.9375 193.375 L 574.9375 173.375 Z" fill-opacity="1" stroke-opacity="1" stroke-miterlimit="10" stroke-width="2"/><text fill="rgb(255,255,255)" stroke="none" font-family="times new roman" font-size="10px" font-style="normal" font-weight="normal" text-decoration="normal" x="527.4375" y="188.375" text-anchor="middle" dominant-baseline="text-after-edge" fill-opacity="1">42128934_4212894</text><path fill="rgb(69,90,100)" stroke="rgb(244,67,54)" paint-order="fill stroke markers" d=" M 604.875 541.5 L 604.8056400089954 543.2653296538765 L 604.5979876633907 545.0197754634052 L 604.2533232089477 546.7525206867579 L 603.7737716166409 548.4528823734363 L 603.162289481504 550.1103772282145 L 602.4226467942383 551.7147862441398 L 601.5594036979671 553.2562177061088 L 600.5778823734363 554.7251681765806 L 599.4841342260007 556.1125810874291 L 598.2849025766973 557.4099025766973 L 596.9875810874291 558.6091342260007 L 595.6001681765806 559.7028823734363 L 594.1312177061088 560.6844036979671 L 592.5897862441398 561.5476467942383 L 590.9853772282145 562.287289481504 L 589.3278823734363 562.8987716166409 L 587.6275206867579 563.3783232089477 L 585.8947754634052 563.7229876633907 L 584.1403296538765 563.9306400089954 L 582.375 564 L 580.6096703461235 563.9306400089954 L 578.8552245365948 563.7229876633907 L 577.1224793132421 563.3783232089477 L 575.4221176265637 562.8987716166409 L 573.7646227717855 562.287289481504 L 572.1602137558602 561.5476467942383 L 570.6187822938912 560.6844036979671 L 569.1498318234194 559.7028823734363 L 567.7624189125709 558.6091342260007 L 566.4650974233027 557.4099025766973 L 565.2658657739993 556.1125810874291 L 564.1721176265637 554.7251681765806 L 563.1905963020329 553.2562177061088 L 562.3273532057617 551.7147862441398 L 561.587710518496 550.1103772282145 L 560.9762283833591 548.4528823734363 L 560.4966767910523 546.7525206867579 L 560.1520123366095 545.0197754634052 L 559.9443599910046 543.2653296538765 L 559.875 541.5 L 559.9443599910046 539.7346703461235 L 560.1520123366093 537.9802245365948 L 560.4966767910523 536.2474793132421 L 560.9762283833591 534.5471176265637 L 561.587710518496 532.8896227717855 L 562.3273532057617 531.2852137558602 L 563.1905963020329 529.7437822938912 L 564.1721176265637 528.2748318234194 L 565.2658657739993 526.8874189125709 L 566.4650974233027 525.5900974233027 L 567.7624189125709 524.3908657739993 L 569.1498318234194 523.2971176265637 L 570.6187822938912 522.3155963020329 L 572.1602137558602 521.4523532057617 L 573.7646227717855 520.712710518496 L 575.4221176265637 520.1012283833591 L 577.1224793132421 519.6216767910523 L 578.8552245365948 519.2770123366093 L 580.6096703461236 519.0693599910046 L 582.3750000000001 519 L 584.1403296538766 519.0693599910046 L 585.8947754634053 519.2770123366095 L 587.627520686758 519.6216767910523 L 589.3278823734364 520.1012283833591 L 590.9853772282146 520.7127105184961 L 592.5897862441399 521.4523532057618 L 594.1312177061089 522.315596302033 L 595.6001681765807 523.2971176265638 L 596.9875810874292 524.3908657739994 L 598.2849025766974 525.5900974233028 L 599.4841342260008 526.887418912571 L 600.5778823734364 528.2748318234195 L 601.5594036979671 529.7437822938913 L 602.4226467942384 531.2852137558604 L 603.162289481504 532.8896227717856 L 603.773771616641 534.5471176265639 L 604.2533232089478 536.2474793132424 L 604.5979876633907 537.9802245365951 L 604.8056400089954 539.7346703461237 Z" fill-opacity="1" stroke-opacity="1" stroke-miterlimit="10" stroke-width="2"/><text fill="rgb(255,255,255)" stroke="none" font-family="times new roman" font-size="15px" font-style="normal" font-weight="normal" text-decoration="normal" x="582.375" y="549" text-anchor="middle" dominant-baseline="text-after-edge" fill-opacity="1">*40</text><path fill="rgb(3,169,244)" stroke="none" paint-order="stroke fill markers" d=" M 582.375 509 L 606.875 509 L 606.875 509 A 8 8 0 0 1 614.875 517 L 614.875 566 L 614.875 566 A 8 8 0 0 1 606.875 574 L 557.875 574 L 557.875 574 A 8 8 0 0 1 549.875 566 L 549.875 517 L 549.875 517 A 8 8 0 0 1 557.875 509 L 582.375 509 Z" fill-opacity="0.15"/><path fill="rgb(69,90,100)" stroke="rgb(76,175,80)" paint-order="fill stroke markers" d=" M 828 257.625 L 827.9306400089954 259.3903296538765 L 827.7229876633907 261.1447754634052 L 827.3783232089477 262.87752068675786 L 826.8987716166409 264.5778823734363 L 826.287289481504 266.23537722821453 L 825.5476467942383 267.8397862441398 L 824.6844036979671 269.3812177061088 L 823.7028823734363 270.85016817658067 L 822.6091342260007 272.23758108742913 L 821.4099025766973 273.53490257669733 L 820.1125810874291 274.7341342260007 L 818.7251681765806 275.8278823734363 L 817.2562177061088 276.80940369796707 L 815.7147862441398 277.6726467942383 L 814.1103772282145 278.41228948150393 L 812.4528823734363 279.02377161664094 L 810.7525206867579 279.50332320894773 L 809.0197754634052 279.8479876633906 L 807.2653296538765 280.0556400089954 L 805.5 280.125 L 803.7346703461235 280.0556400089954 L 801.9802245365948 279.8479876633906 L 800.2474793132421 279.50332320894773 L 798.5471176265637 279.02377161664094 L 796.8896227717855 278.41228948150393 L 795.2852137558602 277.6726467942383 L 793.7437822938912 276.80940369796707 L 792.2748318234194 275.8278823734363 L 790.8874189125709 274.7341342260007 L 789.5900974233027 273.53490257669733 L 788.3908657739993 272.23758108742913 L 787.2971176265637 270.85016817658067 L 786.3155963020329 269.3812177061088 L 785.4523532057617 267.8397862441398 L 784.712710518496 266.23537722821453 L 784.1012283833591 264.5778823734363 L 783.6216767910523 262.87752068675786 L 783.2770123366095 261.1447754634052 L 783.0693599910046 259.3903296538765 L 783 257.625 L 783.0693599910046 255.8596703461235 L 783.2770123366093 254.10522453659482 L 783.6216767910523 252.37247931324214 L 784.1012283833591 250.67211762656368 L 784.712710518496 249.01462277178547 L 785.4523532057617 247.4102137558602 L 786.3155963020329 245.86878229389114 L 787.2971176265637 244.39983182341936 L 788.3908657739993 243.01241891257087 L 789.5900974233027 241.7150974233027 L 790.8874189125709 240.5158657739993 L 792.2748318234194 239.42211762656368 L 793.7437822938912 238.44059630203293 L 795.2852137558602 237.5773532057617 L 796.8896227717855 236.83771051849604 L 798.5471176265637 236.22622838335903 L 800.2474793132421 235.74667679105227 L 801.9802245365948 235.4020123366094 L 803.7346703461236 235.1943599910046 L 805.5000000000001 235.125 L 807.2653296538766 235.19435999100463 L 809.0197754634053 235.4020123366094 L 810.752520686758 235.7466767910523 L 812.4528823734364 236.22622838335909 L 814.1103772282146 236.8377105184961 L 815.7147862441399 237.5773532057618 L 817.2562177061089 238.440596302033 L 818.7251681765807 239.42211762656376 L 820.1125810874292 240.51586577399942 L 821.4099025766974 241.7150974233028 L 822.6091342260008 243.012418912571 L 823.7028823734364 244.3998318234195 L 824.6844036979671 245.86878229389131 L 825.5476467942384 247.41021375586038 L 826.287289481504 249.0146227717857 L 826.898771616641 250.6721176265639 L 827.3783232089478 252.37247931324237 L 827.7229876633907 254.10522453659505 L 827.9306400089954 255.85967034612375 Z" fill-opacity="1" stroke-opacity="1" stroke-miterlimit="10" stroke-width="2"/><text fill="rgb(255,255,255)" stroke="none" font-family="times new roman" font-size="15px" font-style="normal" font-weight="normal" text-decoration="normal" x="805.5" y="265.125" text-anchor="middle" dominant-baseline="text-after-edge" fill-opacity="1">*2</text><path fill="rgb(69,90,100)" stroke="rgb(255,193,7)" paint-order="fill stroke markers" d=" M 472.4375 396.125 L 472.4375 416.125 L 567.4375 416.125 L 567.4375 396.125 Z" fill-opacity="1" stroke-opacity="1" stroke-miterlimit="10" stroke-width="2"/><text fill="rgb(255,255,255)" stroke="none" font-family="times new roman" font-size="10px" font-style="normal" font-weight="normal" text-decoration="normal" x="519.9375" y="411.125" text-anchor="middle" dominant-baseline="text-after-edge" fill-opacity="1">42128934AAAGG</text><path fill="rgb(69,90,100)" stroke="rgb(158,158,158)" paint-order="fill stroke markers" d=" M 717.125 102.875 L 717.125 122.875 L 812.125 122.875 L 812.125 102.875 Z" fill-opacity="1" stroke-opacity="1" stroke-miterlimit="10" stroke-width="2"/><text fill="rgb(255,255,255)" stroke="none" font-family="times new roman" font-size="10px" font-style="normal" font-weight="normal" text-decoration="normal" x="764.625" y="117.875" text-anchor="middle" dominant-baseline="text-after-edge" fill-opacity="1">42127941G&gt;A</text><path fill="rgb(69,90,100)" stroke="rgb(158,158,158)" paint-order="fill stroke markers" d=" M 828.875 102.875 L 828.875 122.875 L 923.875 122.875 L 923.875 102.875 Z" fill-opacity="1" stroke-opacity="1" stroke-miterlimit="10" stroke-width="2"/><text fill="rgb(255,255,255)" stroke="none" font-family="times new roman" font-size="10px" font-style="normal" font-weight="normal" text-decoration="normal" x="876.375" y="117.875" text-anchor="middle" dominant-baseline="text-after-edge" fill-opacity="1">42126611C&gt;G</text><path fill="rgb(69,90,100)" stroke="rgb(76,175,80)" paint-order="fill stroke markers" d=" M 720.875 396.125 L 720.875 416.125 L 815.875 416.125 L 815.875 396.125 Z" fill-opacity="1" stroke-opacity="1" stroke-miterlimit="10" stroke-width="2"/><text fill="rgb(255,255,255)" stroke="none" font-family="times new roman" font-size="10px" font-style="normal" font-weight="normal" text-decoration="normal" x="768.375" y="411.125" text-anchor="middle" dominant-baseline="text-after-edge" fill-opacity="1">42127407T&gt;G</text><path fill="rgb(176,190,197)" stroke="none" paint-order="stroke fill markers" d=" M 649.875 436.5 L 649.875 646.5 L 724.875 646.5 L 724.875 436.50000000000006 Z" fill-opacity="0.8"/><text fill="rgb(0,0,0)" stroke="none" font-family="times new roman" font-size="10px" font-style="normal" font-weight="normal" text-decoration="normal" x="654.875" y="451.5" text-anchor="start" dominant-baseline="text-after-edge" fill-opacity="0.8">42127001G&gt;A </text><text fill="rgb(0,0,0)" stroke="none" font-family="times new roman" font-size="10px" font-style="normal" font-weight="normal" text-decoration="normal" x="654.875" y="461.5" text-anchor="start" dominant-baseline="text-after-edge" fill-opacity="0.8">42127207C&gt;T </text><text fill="rgb(0,0,0)" stroke="none" font-family="times new roman" font-size="10px" font-style="normal" font-weight="normal" text-decoration="normal" x="654.875" y="471.5" text-anchor="start" dominant-baseline="text-after-edge" fill-opacity="0.8">42127239G&gt;A </text><text fill="rgb(0,0,0)" stroke="none" font-family="times new roman" font-size="10px" font-style="normal" font-weight="normal" text-decoration="normal" x="654.875" y="481.5" text-anchor="start" dominant-baseline="text-after-edge" fill-opacity="0.8">42127313T&gt;C </text><text fill="rgb(0,0,0)" stroke="none" font-family="times new roman" font-size="10px" font-style="normal" font-weight="normal" text-decoration="normal" x="654.875" y="491.5" text-anchor="start" dominant-baseline="text-after-edge" fill-opacity="0.8">42127537A&gt;G </text><text fill="rgb(0,0,0)" stroke="none" font-family="times new roman" font-size="10px" font-style="normal" font-weight="normal" text-decoration="normal" x="654.875" y="501.5" text-anchor="start" dominant-baseline="text-after-edge" fill-opacity="0.8">42131531G&gt;A </text><path fill="rgb(176,190,197)" stroke="none" paint-order="stroke fill markers" d=" M 403.875 436.5 L 470.875 436.5 L 470.875 436.5 A 8 8 0 0 1 478.875 444.5 L 478.875 638.5 L 478.875 638.5 A 8 8 0 0 1 470.875 646.5 L 336.875 646.5 L 336.875 646.5 A 8 8 0 0 1 328.875 638.5 L 328.875 444.5 L 328.875 444.5 A 8 8 0 0 1 336.875 436.5 L 403.875 436.5 Z" fill-opacity="0.8"/><text fill="rgb(0,0,0)" stroke="none" font-family="times new roman" font-size="10px" font-style="normal" font-weight="normal" text-decoration="normal" x="333.875" y="451.5" text-anchor="start" dominant-baseline="text-after-edge" fill-opacity="0.8">42125924A&gt;G </text><text fill="rgb(0,0,0)" stroke="none" font-family="times new roman" font-size="10px" font-style="normal" font-weight="normal" text-decoration="normal" x="333.875" y="461.5" text-anchor="start" dominant-baseline="text-after-edge" fill-opacity="0.8">42126022C&gt;T </text><text fill="rgb(0,0,0)" stroke="none" font-family="times new roman" font-size="10px" font-style="normal" font-weight="normal" text-decoration="normal" x="333.875" y="471.5" text-anchor="start" dominant-baseline="text-after-edge" fill-opacity="0.8">42126069A&gt;C </text><text fill="rgb(0,0,0)" stroke="none" font-family="times new roman" font-size="10px" font-style="normal" font-weight="normal" text-decoration="normal" x="333.875" y="481.5" text-anchor="start" dominant-baseline="text-after-edge" fill-opacity="0.8">42126079C&gt;T </text><text fill="rgb(0,0,0)" stroke="none" font-family="times new roman" font-size="10px" font-style="normal" font-weight="normal" text-decoration="normal" x="333.875" y="491.5" text-anchor="start" dominant-baseline="text-after-edge" fill-opacity="0.8">42127275_42127300del </text><text fill="rgb(0,0,0)" stroke="none" font-family="times new roman" font-size="10px" font-style="normal" font-weight="normal" text-decoration="normal" x="333.875" y="501.5" text-anchor="start" dominant-baseline="text-after-edge" fill-opacity="0.8">42132027C&gt;T </text><text fill="rgb(0,0,0)" stroke="none" font-family="times new roman" font-size="10px" font-style="normal" font-weight="normal" text-decoration="normal" x="333.875" y="511.5" text-anchor="start" dominant-baseline="text-after-edge" fill-opacity="0.8">42132844C&gt;A </text><text fill="rgb(0,0,0)" stroke="none" font-family="times new roman" font-size="10px" font-style="normal" font-weight="normal" text-decoration="normal" x="333.875" y="521.5" text-anchor="start" dominant-baseline="text-after-edge" fill-opacity="0.8">42132851T&gt;C </text><text fill="rgb(0,0,0)" stroke="none" font-family="times new roman" font-size="10px" font-style="normal" font-weight="normal" text-decoration="normal" x="333.875" y="531.5" text-anchor="start" dominant-baseline="text-after-edge" fill-opacity="0.8">42133212A&gt;G </text><text fill="rgb(0,0,0)" stroke="none" font-family="times new roman" font-size="10px" font-style="normal" font-weight="normal" text-decoration="normal" x="333.875" y="541.5" text-anchor="start" dominant-baseline="text-after-edge" fill-opacity="0.8">42133400T&gt;G </text><text fill="rgb(0,0,0)" stroke="none" font-family="times new roman" font-size="10px" font-style="normal" font-weight="normal" text-decoration="normal" x="333.875" y="551.5" text-anchor="start" dominant-baseline="text-after-edge" fill-opacity="0.8">42134096del </text><text fill="rgb(0,0,0)" stroke="none" font-family="times new roman" font-size="10px" font-style="normal" font-weight="normal" text-decoration="normal" x="333.875" y="561.5" text-anchor="start" dominant-baseline="text-after-edge" fill-opacity="0.8">42134820T&gt;G </text><text fill="rgb(0,0,0)" stroke="none" font-family="times new roman" font-size="10px" font-style="normal" font-weight="normal" text-decoration="normal" x="333.875" y="571.5" text-anchor="start" dominant-baseline="text-after-edge" fill-opacity="0.8">42135064_42135066dup </text><text fill="rgb(0,0,0)" stroke="none" font-family="times new roman" font-size="10px" font-style="normal" font-weight="normal" text-decoration="normal" x="333.875" y="581.5" text-anchor="start" dominant-baseline="text-after-edge" fill-opacity="0.8">42135201T&gt;C </text><g transform="scale(1.093521897810219,1.093521897810219) translate(1.7778473091364617,55.38923654568214)"/></g></svg>