<svg version="1.1" xmlns="http://www.w3.org/2000/svg" xmlns:xlink="http://www.w3.org/1999/xlink" width="1017" height="608"><defs/><g transform="translate(-39.946496469310205,-53.19717544812602) scale(1.1906572514937535,1.1906572514937535)"><path fill="none" stroke="rgb(55,71,79)" paint-order="fill stroke markers" d=" M 686.1155633262312 108.73902773936021 L 707.7891773259075 143.27584354372266" stroke-opacity="1" stroke-linejoin="round" stroke-miterlimit="10" stroke-width="2"/><path fill="none" stroke="rgb(120,144,156)" paint-order="fill stroke markers" d=" M 228.68251326495417 389.63391254278116 L 402.7836286615452 495.26829716543193" stroke-opacity="1" stroke-linejoin="round" stroke-miterlimit="10"/><path fill="rgb(120,144,156)" stroke="none" paint-order="stroke fill markers" d=" M 394.79906849392125 495.5118108808425 L 404.49350800446757 496.3057520476545 L 399.3119972315894 488.0738357391303 Z" fill-opacity="1"/><path fill="none" stroke="rgb(120,144,156)" paint-order="fill stroke markers" d=" M 342.21875 419.0075987841945 L 409.38555019570856 490.6657959534763" stroke-opacity="1" stroke-linejoin="round" stroke-miterlimit="10"/><path fill="rgb(120,144,156)" stroke="none" paint-order="stroke fill markers" d=" M 401.6298391156701 488.7523055189643 L 410.75329415954417 492.125 L 407.9773767180483 482.8026192762793 Z" fill-opacity="1"/><path fill="none" stroke="rgb(120,144,156)" paint-order="fill stroke markers" d=" M 428.09375 484 L 428.09375 490.125" stroke-opacity="1" stroke-linejoin="round" stroke-miterlimit="10"/><path fill="rgb(120,144,156)" stroke="none" paint-order="stroke fill markers" d=" M 423.74375 483.425 L 428.09375 492.125 L 432.44375 483.425 Z" fill-opacity="1"/><path fill="none" stroke="rgb(120,144,156)" paint-order="fill stroke markers" d=" M 557.0612692177168 180.41533193600617 L 615.5405430005014 225.3658185003855" stroke-opacity="1" stroke-linejoin="round" stroke-miterlimit="10"/><path fill="rgb(120,144,156)" stroke="none" paint-order="stroke fill markers" d=" M 607.5774911306846 224.73154338767282 L 617.1262307822832 226.58466806399383 L 612.8794867323809 217.8338015369224 Z" fill-opacity="1"/><path fill="none" stroke="rgb(55,71,79)" paint-order="fill stroke markers" d=" M 637.34375 185.375 L 637.34375 216.625" stroke-opacity="1" stroke-linejoin="round" stroke-miterlimit="10" stroke-width="2"/><path fill="none" stroke="rgb(120,144,156)" paint-order="fill stroke markers" d=" M 645.6646527728312 266.22920247685227 L 676.2728472271688 354.89579752314773" stroke-opacity="1" stroke-linejoin="round" stroke-miterlimit="10"/><path fill="rgb(120,144,156)" stroke="none" paint-order="stroke fill markers" d=" M 669.9746774486482 349.9819846002813 L 676.9254670524889 356.78632320760676 L 678.1984641760448 347.1430883601389 Z" fill-opacity="1"/><path fill="none" stroke="rgb(120,144,156)" paint-order="fill stroke markers" d=" M 728.0464897260274 253.125 L 692.9146527728312 354.89579752314773" stroke-opacity="1" stroke-linejoin="round" stroke-miterlimit="10"/><path fill="rgb(120,144,156)" stroke="none" paint-order="stroke fill markers" d=" M 690.9890358239552 347.1430883601389 L 692.2620329475111 356.78632320760676 L 699.2128225513518 349.9819846002813 Z" fill-opacity="1"/><path fill="none" stroke="rgb(55,71,79)" paint-order="fill stroke markers" d=" M 759.3105867346939 104.375 L 734.8983226740925 143.27584354372266" stroke-opacity="1" stroke-linejoin="round" stroke-miterlimit="10" stroke-width="2"/><path fill="none" stroke="rgb(120,144,156)" paint-order="fill stroke markers" d=" M 527.9733823466291 394.5397319415006 L 445.3155550299029 490.6089285910731" stroke-opacity="1" stroke-linejoin="round" stroke-miterlimit="10"/><path fill="rgb(120,144,156)" stroke="none" paint-order="stroke fill markers" d=" M 446.3879271924423 482.6929625764284 L 444.0111289173789 492.125 L 452.98283782127425 488.36721616590773 Z" fill-opacity="1"/><path fill="none" stroke="rgb(55,71,79)" paint-order="fill stroke markers" d=" M 541.34375 255.125 L 541.34375 358.5" stroke-opacity="1" stroke-linejoin="round" stroke-miterlimit="10" stroke-width="2"/><path fill="none" stroke="rgb(120,144,156)" paint-order="fill stroke markers" d=" M 428.09375 253.125 L 428.09375 272" stroke-opacity="1" stroke-linejoin="round" stroke-miterlimit="10"/><path fill="rgb(120,144,156)" stroke="none" paint-order="stroke fill markers" d=" M 423.74375 265.3 L 428.09375 274 L 432.44375 265.3 Z" fill-opacity="1"/><path fill="none" stroke="rgb(55,71,79)" paint-order="fill stroke markers" d=" M 501.61556332623115 108.73902773936021 L 523.2891773259075 143.27584354372266" stroke-opacity="1" stroke-linejoin="round" stroke-miterlimit="10" stroke-width="2"/><path fill="none" stroke="rgb(120,144,156)" paint-order="fill stroke markers" d=" M 663.6859045366674 389.72902596144695 L 454.97155306570585 496.83244316365096" stroke-opacity="1" stroke-linejoin="round" stroke-miterlimit="10"/><path fill="rgb(120,144,156)" stroke="none" paint-order="stroke fill markers" d=" M 458.9465020730264 489.9033537293024 L 453.1921619624435 497.74555175611454 L 462.91852445024296 497.64370502849357 Z" fill-opacity="1"/><path fill="none" stroke="rgb(120,144,156)" paint-order="fill stroke markers" d=" M 702.574169458161 182.13631067686978 L 657.5854545059047 223.50986103474827" stroke-opacity="1" stroke-linejoin="round" stroke-miterlimit="10"/><path fill="rgb(120,144,156)" stroke="none" paint-order="stroke fill markers" d=" M 659.5724932582945 215.77266664682563 L 656.113330541839 224.86368932313022 L 665.461646312756 222.1764058905119 Z" fill-opacity="1"/><path fill="none" stroke="rgb(120,144,156)" paint-order="fill stroke markers" d=" M 159.23056506849315 255.125 L 202.45801915107614 358.24931856302476" stroke-opacity="1" stroke-linejoin="round" stroke-miterlimit="10"/><path fill="rgb(120,144,156)" stroke="none" paint-order="stroke fill markers" d=" M 195.85608088713693 353.75188472147295 L 203.23119522653604 360.0938235796448 L 203.87967770943405 350.3885687932224 Z" fill-opacity="1"/><path fill="none" stroke="rgb(120,144,156)" paint-order="fill stroke markers" d=" M 263.08193493150685 255.125 L 219.85448084892386 358.24931856302476" stroke-opacity="1" stroke-linejoin="round" stroke-miterlimit="10"/><path fill="rgb(120,144,156)" stroke="none" paint-order="stroke fill markers" d=" M 218.43282229056598 350.3885687932224 L 219.08130477346396 360.0938235796448 L 226.45641911286307 353.75188472147295 Z" fill-opacity="1"/><path fill="none" stroke="rgb(55,71,79)" paint-order="fill stroke markers" d=" M 574.8105867346939 104.375 L 550.3983226740925 143.27584354372266" stroke-opacity="1" stroke-linejoin="round" stroke-miterlimit="10" stroke-width="2"/><path fill="rgb(69,90,100)" stroke="rgb(69,90,100)" paint-order="fill stroke markers" d=" M 409.34375 493.125 L 390.59375 510.625 L 409.34375 528.125 L 446.84375 528.125 L 465.59375 510.625 L 446.84375000000006 493.125 Z" fill-opacity="1" stroke-opacity="1" stroke-miterlimit="10" stroke-width="2"/><text fill="rgb(255,255,255)" stroke="none" font-family="times new roman" font-size="10px" font-style="normal" font-weight="normal" text-decoration="normal" x="428.09375" y="515.625" text-anchor="middle" dominant-baseline="text-after-edge" fill-opacity="1">NA19147-A</text><path fill="rgb(69,90,100)" stroke="rgb(158,158,158)" paint-order="fill stroke markers" d=" M 719.96875 81.375 L 719.96875 101.375 L 814.96875 101.375 L 814.96875 81.375 Z" fill-opacity="1" stroke-opacity="1" stroke-miterlimit="10" stroke-width="6"/><text fill="rgb(255,255,255)" stroke="none" font-family="times new roman" font-size="10px" font-style="normal" font-weight="normal" text-decoration="normal" x="767.46875" y="96.375" text-anchor="middle" dominant-baseline="text-after-edge" fill-opacity="1">42127941G&gt;A</text><path fill="rgb(69,90,100)" stroke="rgb(255,193,7)" paint-order="fill stroke markers" d=" M 707.09375 379 L 707.0243900089954 380.7653296538765 L 706.8167376633907 382.5197754634052 L 706.4720732089477 384.25252068675786 L 705.9925216166409 385.9528823734363 L 705.381039481504 387.61037722821453 L 704.6413967942383 389.2147862441398 L 703.7781536979671 390.7562177061088 L 702.7966323734363 392.22516817658067 L 701.7028842260007 393.61258108742913 L 700.5036525766973 394.90990257669733 L 699.2063310874291 396.1091342260007 L 697.8189181765806 397.2028823734363 L 696.3499677061088 398.18440369796707 L 694.8085362441398 399.0476467942383 L 693.2041272282145 399.78728948150393 L 691.5466323734363 400.39877161664094 L 689.8462706867579 400.87832320894773 L 688.1135254634052 401.2229876633906 L 686.3590796538765 401.4306400089954 L 684.59375 401.5 L 682.8284203461235 401.4306400089954 L 681.0739745365948 401.2229876633906 L 679.3412293132421 400.87832320894773 L 677.6408676265637 400.39877161664094 L 675.9833727717855 399.78728948150393 L 674.3789637558602 399.0476467942383 L 672.8375322938912 398.18440369796707 L 671.3685818234194 397.2028823734363 L 669.9811689125709 396.1091342260007 L 668.6838474233027 394.90990257669733 L 667.4846157739993 393.61258108742913 L 666.3908676265637 392.22516817658067 L 665.4093463020329 390.7562177061088 L 664.5461032057617 389.2147862441398 L 663.806460518496 387.61037722821453 L 663.1949783833591 385.9528823734363 L 662.7154267910523 384.25252068675786 L 662.3707623366095 382.5197754634052 L 662.1631099910046 380.7653296538765 L 662.09375 379 L 662.1631099910046 377.2346703461235 L 662.3707623366093 375.4802245365948 L 662.7154267910523 373.74747931324214 L 663.1949783833591 372.0471176265637 L 663.806460518496 370.38962277178547 L 664.5461032057617 368.7852137558602 L 665.4093463020329 367.2437822938912 L 666.3908676265637 365.77483182341933 L 667.4846157739993 364.38741891257087 L 668.6838474233027 363.09009742330267 L 669.9811689125709 361.89086577399934 L 671.3685818234194 360.7971176265637 L 672.8375322938912 359.81559630203293 L 674.3789637558602 358.9523532057617 L 675.9833727717855 358.212710518496 L 677.6408676265637 357.60122838335906 L 679.3412293132421 357.12167679105227 L 681.0739745365948 356.7770123366094 L 682.8284203461236 356.5693599910046 L 684.5937500000001 356.5 L 686.3590796538766 356.5693599910046 L 688.1135254634053 356.7770123366094 L 689.846270686758 357.1216767910523 L 691.5466323734364 357.60122838335906 L 693.2041272282146 358.2127105184961 L 694.8085362441399 358.95235320576177 L 696.3499677061089 359.815596302033 L 697.8189181765807 360.79711762656376 L 699.2063310874292 361.8908657739994 L 700.5036525766974 363.0900974233028 L 701.7028842260008 364.387418912571 L 702.7966323734364 365.7748318234195 L 703.7781536979671 367.24378229389134 L 704.6413967942384 368.7852137558604 L 705.381039481504 370.3896227717857 L 705.992521616641 372.04711762656393 L 706.4720732089478 373.74747931324237 L 706.8167376633907 375.4802245365951 L 707.0243900089954 377.2346703461238 Z" fill-opacity="1" stroke-opacity="1" stroke-miterlimit="10" stroke-width="2"/><text fill="rgb(255,255,255)" stroke="none" font-family="times new roman" font-size="15px" font-style="normal" font-weight="normal" text-decoration="normal" x="684.59375" y="386.5" text-anchor="middle" dominant-baseline="text-after-edge" fill-opacity="1">*17</text><path fill="rgb(3,169,244)" stroke="none" paint-order="stroke fill markers" d=" M 684.59375 346.5 L 709.09375 346.5 L 709.09375 346.5 A 8 8 0 0 1 717.09375 354.5 L 717.09375 403.5 L 717.09375 403.5 A 8 8 0 0 1 709.09375 411.5 L 660.09375 411.5 L 660.09375 411.5 A 8 8 0 0 1 652.09375 403.5 L 652.09375 354.5 L 652.09375 354.5 A 8 8 0 0 1 660.09375 346.5 L 684.59375 346.5 Z" fill-opacity="0.15"/><path fill="rgb(69,90,100)" stroke="rgb(76,175,80)" paint-order="fill stroke markers" d=" M 559.34375 164.875 L 559.2743900089954 166.6403296538765 L 559.0667376633907 168.39477546340518 L 558.7220732089477 170.12752068675786 L 558.2425216166409 171.82788237343632 L 557.631039481504 173.48537722821453 L 556.8913967942383 175.08978624413982 L 556.0281536979671 176.63121770610886 L 555.0466323734363 178.10016817658064 L 553.9528842260007 179.48758108742913 L 552.7536525766973 180.7849025766973 L 551.4563310874291 181.9841342260007 L 550.0689181765806 183.07788237343632 L 548.5999677061088 184.05940369796707 L 547.0585362441398 184.9226467942383 L 545.4541272282145 185.66228948150396 L 543.7966323734363 186.27377161664094 L 542.0962706867579 186.75332320894773 L 540.3635254634052 187.0979876633906 L 538.6090796538765 187.30564000899537 L 536.84375 187.375 L 535.0784203461235 187.30564000899537 L 533.3239745365948 187.0979876633906 L 531.5912293132421 186.75332320894773 L 529.8908676265637 186.27377161664094 L 528.2333727717855 185.66228948150396 L 526.6289637558602 184.9226467942383 L 525.0875322938912 184.05940369796707 L 523.6185818234194 183.07788237343632 L 522.2311689125709 181.9841342260007 L 520.9338474233027 180.78490257669733 L 519.7346157739993 179.48758108742913 L 518.6408676265637 178.10016817658064 L 517.6593463020329 176.63121770610886 L 516.7961032057617 175.08978624413982 L 516.056460518496 173.48537722821453 L 515.4449783833591 171.82788237343632 L 514.9654267910523 170.12752068675786 L 514.6207623366095 168.3947754634052 L 514.4131099910046 166.6403296538765 L 514.34375 164.875 L 514.4131099910046 163.1096703461235 L 514.6207623366093 161.35522453659482 L 514.9654267910523 159.62247931324214 L 515.4449783833591 157.92211762656368 L 516.056460518496 156.26462277178547 L 516.7961032057617 154.6602137558602 L 517.6593463020329 153.11878229389114 L 518.6408676265637 151.64983182341936 L 519.7346157739993 150.26241891257087 L 520.9338474233027 148.9650974233027 L 522.2311689125709 147.7658657739993 L 523.6185818234194 146.67211762656368 L 525.0875322938912 145.69059630203293 L 526.6289637558602 144.8273532057617 L 528.2333727717855 144.08771051849604 L 529.8908676265637 143.47622838335903 L 531.5912293132421 142.99667679105227 L 533.3239745365948 142.6520123366094 L 535.0784203461236 142.4443599910046 L 536.8437500000001 142.375 L 538.6090796538766 142.44435999100463 L 540.3635254634053 142.6520123366094 L 542.096270686758 142.9966767910523 L 543.7966323734364 143.47622838335909 L 545.4541272282146 144.0877105184961 L 547.0585362441399 144.8273532057618 L 548.5999677061089 145.690596302033 L 550.0689181765807 146.67211762656376 L 551.4563310874292 147.76586577399942 L 552.7536525766974 148.9650974233028 L 553.9528842260008 150.262418912571 L 555.0466323734364 151.6498318234195 L 556.0281536979671 153.11878229389131 L 556.8913967942384 154.66021375586038 L 557.631039481504 156.2646227717857 L 558.242521616641 157.9221176265639 L 558.7220732089478 159.62247931324237 L 559.0667376633907 161.35522453659505 L 559.2743900089954 163.10967034612375 Z" fill-opacity="1" stroke-opacity="1" stroke-miterlimit="10" stroke-width="6"/><text fill="rgb(255,255,255)" stroke="none" font-family="times new roman" font-size="15px" font-style="normal" font-weight="normal" text-decoration="normal" x="536.84375" y="172.375" text-anchor="middle" dominant-baseline="text-after-edge" fill-opacity="1">*39</text><path fill="rgb(69,90,100)" stroke="rgb(158,158,158)" paint-order="fill stroke markers" d=" M 535.46875 81.375 L 535.46875 101.375 L 630.46875 101.375 L 630.46875 81.375 Z" fill-opacity="1" stroke-opacity="1" stroke-miterlimit="10" stroke-width="6"/><text fill="rgb(255,255,255)" stroke="none" font-family="times new roman" font-size="10px" font-style="normal" font-weight="normal" text-decoration="normal" x="582.96875" y="96.375" text-anchor="middle" dominant-baseline="text-after-edge" fill-opacity="1">42126611C&gt;G</text><path fill="rgb(69,90,100)" stroke="rgb(76,175,80)" paint-order="fill stroke markers" d=" M 508.21875 91.375 L 508.16480334032974 92.74803417523728 L 508.0032959604149 94.11260313820404 L 507.7352236069593 95.46029386747834 L 507.3622390351652 96.78279740156158 L 506.8866418189475 98.07196006638907 L 506.31136417329645 99.31983374544207 L 505.6399528761966 100.5187248825291 L 504.8765474015616 101.66124191511828 L 504.02585439800055 102.7403408457782 L 503.09311867076457 103.74936867076458 L 502.08409084577823 104.68210439800055 L 501.0049919151183 105.53279740156158 L 499.8624748825291 106.29620287619662 L 498.66358374544205 106.96761417329644 L 497.41571006638907 107.54289181894751 L 496.1265474015616 108.01848903516519 L 494.80404386747836 108.39147360695934 L 493.45635313820407 108.6595459604149 L 492.0917841752373 108.82105334032974 L 490.71875 108.875 L 489.3457158247627 108.82105334032974 L 487.98114686179593 108.6595459604149 L 486.63345613252164 108.39147360695934 L 485.3109525984384 108.01848903516519 L 484.02178993361093 107.54289181894751 L 482.77391625455795 106.96761417329644 L 481.5750251174709 106.29620287619662 L 480.4325080848817 105.53279740156158 L 479.35340915422177 104.68210439800055 L 478.34438132923543 103.74936867076458 L 477.41164560199945 102.74034084577822 L 476.5609525984384 101.66124191511828 L 475.7975471238034 100.51872488252911 L 475.12613582670355 99.31983374544207 L 474.5508581810525 98.07196006638907 L 474.0752609648348 96.78279740156158 L 473.7022763930407 95.46029386747834 L 473.4342040395851 94.11260313820404 L 473.27269665967026 92.7480341752373 L 473.21875 91.375 L 473.27269665967026 90.00196582476272 L 473.4342040395851 88.63739686179596 L 473.7022763930407 87.28970613252166 L 474.0752609648348 85.96720259843842 L 474.5508581810525 84.67803993361093 L 475.12613582670355 83.43016625455793 L 475.7975471238034 82.2312751174709 L 476.5609525984384 81.08875808488172 L 477.41164560199945 80.0096591542218 L 478.34438132923543 79.00063132923542 L 479.35340915422177 78.06789560199947 L 480.4325080848817 77.21720259843842 L 481.5750251174709 76.45379712380338 L 482.77391625455795 75.78238582670356 L 484.02178993361093 75.20710818105248 L 485.31095259843846 74.7315109648348 L 486.6334561325217 74.35852639304065 L 487.981146861796 74.09045403958508 L 489.34571582476275 73.92894665967026 L 490.71875000000006 73.875 L 492.09178417523736 73.92894665967026 L 493.4563531382041 74.0904540395851 L 494.8040438674784 74.35852639304068 L 496.12654740156165 74.73151096483484 L 497.4157100663892 75.20710818105252 L 498.66358374544217 75.7823858267036 L 499.8624748825292 76.45379712380344 L 501.00499191511835 77.21720259843849 L 502.0840908457783 78.06789560199954 L 503.0931186707647 79.00063132923552 L 504.02585439800066 80.0096591542219 L 504.87654740156165 81.08875808488185 L 505.6399528761967 82.23127511747103 L 506.3113641732965 83.43016625455807 L 506.88664181894757 84.67803993361109 L 507.36223903516526 85.96720259843859 L 507.7352236069594 87.28970613252184 L 508.00329596041496 88.63739686179616 L 508.16480334032974 90.00196582476292 Z" fill-opacity="1" stroke-opacity="1" stroke-miterlimit="10" stroke-width="6"/><text fill="rgb(255,255,255)" stroke="none" font-family="times new roman" font-size="10px" font-style="normal" font-weight="normal" text-decoration="normal" x="490.71875" y="96.375" text-anchor="middle" dominant-baseline="text-after-edge" fill-opacity="1">*39.2</text><path fill="rgb(69,90,100)" stroke="rgb(76,175,80)" paint-order="fill stroke markers" d=" M 558.84375 379 L 558.7898033403297 380.3730341752373 L 558.6282959604149 381.73760313820407 L 558.3602236069594 383.08529386747836 L 557.9872390351652 384.4077974015616 L 557.5116418189475 385.69696006638907 L 556.9363641732964 386.94483374544205 L 556.2649528761966 388.1437248825291 L 555.5015474015615 389.2862419151183 L 554.6508543980005 390.36534084577823 L 553.7181186707646 391.37436867076457 L 552.7090908457782 392.30710439800055 L 551.6299919151182 393.1577974015616 L 550.4874748825291 393.9212028761966 L 549.2885837454421 394.59261417329645 L 548.0407100663891 395.1678918189475 L 546.7515474015615 395.6434890351652 L 545.4290438674783 396.0164736069593 L 544.081353138204 396.2845459604149 L 542.7167841752373 396.44605334032974 L 541.34375 396.5 L 539.9707158247627 396.44605334032974 L 538.606146861796 396.2845459604149 L 537.2584561325217 396.0164736069593 L 535.9359525984385 395.6434890351652 L 534.6467899336109 395.1678918189475 L 533.3989162545579 394.59261417329645 L 532.2000251174709 393.9212028761966 L 531.0575080848818 393.1577974015616 L 529.9784091542218 392.30710439800055 L 528.9693813292354 391.37436867076457 L 528.0366456019995 390.36534084577823 L 527.1859525984385 389.2862419151183 L 526.4225471238034 388.1437248825291 L 525.7511358267036 386.94483374544205 L 525.1758581810525 385.69696006638907 L 524.7002609648348 384.4077974015616 L 524.3272763930406 383.08529386747836 L 524.0592040395851 381.73760313820407 L 523.8976966596703 380.3730341752373 L 523.84375 379 L 523.8976966596703 377.6269658247627 L 524.0592040395851 376.26239686179593 L 524.3272763930406 374.91470613252164 L 524.7002609648348 373.5922025984384 L 525.1758581810525 372.30303993361093 L 525.7511358267036 371.05516625455795 L 526.4225471238034 369.8562751174709 L 527.1859525984385 368.7137580848817 L 528.0366456019995 367.63465915422177 L 528.9693813292354 366.62563132923543 L 529.9784091542218 365.69289560199945 L 531.0575080848818 364.8422025984384 L 532.2000251174709 364.0787971238034 L 533.3989162545579 363.40738582670355 L 534.646789933611 362.8321081810525 L 535.9359525984385 362.3565109648348 L 537.2584561325217 361.9835263930407 L 538.606146861796 361.7154540395851 L 539.9707158247628 361.55394665967026 L 541.3437500000001 361.5 L 542.7167841752373 361.55394665967026 L 544.0813531382041 361.7154540395851 L 545.4290438674784 361.9835263930407 L 546.7515474015617 362.35651096483485 L 548.0407100663891 362.8321081810525 L 549.2885837454421 363.4073858267036 L 550.4874748825292 364.07879712380344 L 551.6299919151184 364.8422025984385 L 552.7090908457783 365.69289560199957 L 553.7181186707646 366.6256313292355 L 554.6508543980007 367.6346591542219 L 555.5015474015617 368.7137580848818 L 556.2649528761967 369.85627511747106 L 556.9363641732965 371.05516625455806 L 557.5116418189476 372.3030399336111 L 557.9872390351652 373.5922025984386 L 558.3602236069594 374.9147061325218 L 558.6282959604149 376.26239686179616 L 558.7898033403297 377.6269658247629 Z" fill-opacity="1" stroke-opacity="1" stroke-miterlimit="10" stroke-width="6"/><text fill="rgb(255,255,255)" stroke="none" font-family="times new roman" font-size="10px" font-style="normal" font-weight="normal" text-decoration="normal" x="541.34375" y="384" text-anchor="middle" dominant-baseline="text-after-edge" fill-opacity="1">*1.41</text><path fill="rgb(69,90,100)" stroke="rgb(76,175,80)" paint-order="fill stroke markers" d=" M 493.84375 232.125 L 493.84375 252.125 L 588.84375 252.125 L 588.84375 232.125 Z" fill-opacity="1" stroke-opacity="1" stroke-miterlimit="10" stroke-width="6"/><text fill="rgb(255,255,255)" stroke="none" font-family="times new roman" font-size="10px" font-style="normal" font-weight="normal" text-decoration="normal" x="541.34375" y="247.125" text-anchor="middle" dominant-baseline="text-after-edge" fill-opacity="1">42127407T&gt;G</text><path fill="rgb(69,90,100)" stroke="rgb(158,158,158)" paint-order="fill stroke markers" d=" M 684.34375 232.125 L 684.34375 252.125 L 779.34375 252.125 L 779.34375 232.125 Z" fill-opacity="1" stroke-opacity="1" stroke-miterlimit="10" stroke-width="2"/><text fill="rgb(255,255,255)" stroke="none" font-family="times new roman" font-size="10px" font-style="normal" font-weight="normal" text-decoration="normal" x="731.84375" y="247.125" text-anchor="middle" dominant-baseline="text-after-edge" fill-opacity="1">42129770G&gt;A</text><path fill="rgb(69,90,100)" stroke="rgb(76,175,80)" paint-order="fill stroke markers" d=" M 228.65625 379 L 228.60230334032974 380.3730341752373 L 228.4407959604149 381.73760313820407 L 228.17272360695935 383.08529386747836 L 227.79973903516517 384.4077974015616 L 227.3241418189475 385.69696006638907 L 226.74886417329643 386.94483374544205 L 226.07745287619662 388.1437248825291 L 225.3140474015616 389.2862419151183 L 224.46335439800055 390.36534084577823 L 223.53061867076457 391.37436867076457 L 222.5215908457782 392.30710439800055 L 221.44249191511827 393.1577974015616 L 220.2999748825291 393.9212028761966 L 219.10108374544208 394.59261417329645 L 217.85321006638907 395.1678918189475 L 216.5640474015616 395.6434890351652 L 215.24154386747836 396.0164736069593 L 213.89385313820404 396.2845459604149 L 212.52928417523728 396.44605334032974 L 211.15625 396.5 L 209.78321582476272 396.44605334032974 L 208.41864686179596 396.2845459604149 L 207.07095613252164 396.0164736069593 L 205.74845259843843 395.6434890351652 L 204.45928993361093 395.1678918189475 L 203.21141625455795 394.59261417329645 L 202.0125251174709 393.9212028761966 L 200.87000808488173 393.1577974015616 L 199.7909091542218 392.30710439800055 L 198.78188132923543 391.37436867076457 L 197.84914560199945 390.36534084577823 L 196.99845259843843 389.2862419151183 L 196.23504712380338 388.1437248825291 L 195.56363582670357 386.94483374544205 L 194.9883581810525 385.69696006638907 L 194.51276096483483 384.4077974015616 L 194.13977639304065 383.08529386747836 L 193.8717040395851 381.73760313820407 L 193.71019665967026 380.3730341752373 L 193.65625 379 L 193.71019665967026 377.6269658247627 L 193.8717040395851 376.26239686179593 L 194.13977639304065 374.91470613252164 L 194.5127609648348 373.5922025984384 L 194.9883581810525 372.30303993361093 L 195.56363582670357 371.05516625455795 L 196.23504712380338 369.8562751174709 L 196.9984525984384 368.7137580848817 L 197.84914560199945 367.63465915422177 L 198.7818813292354 366.62563132923543 L 199.79090915422177 365.69289560199945 L 200.8700080848817 364.8422025984384 L 202.0125251174709 364.0787971238034 L 203.21141625455795 363.40738582670355 L 204.45928993361096 362.8321081810525 L 205.74845259843843 362.3565109648348 L 207.0709561325217 361.9835263930407 L 208.418646861796 361.7154540395851 L 209.78321582476278 361.55394665967026 L 211.15625000000006 361.5 L 212.52928417523736 361.55394665967026 L 213.89385313820412 361.7154540395851 L 215.2415438674784 361.9835263930407 L 216.56404740156165 362.35651096483485 L 217.85321006638915 362.8321081810525 L 219.10108374544217 363.4073858267036 L 220.2999748825292 364.07879712380344 L 221.44249191511838 364.8422025984385 L 222.52159084577832 365.69289560199957 L 223.53061867076468 366.6256313292355 L 224.46335439800063 367.6346591542219 L 225.31404740156168 368.7137580848818 L 226.0774528761967 369.85627511747106 L 226.7488641732965 371.05516625455806 L 227.3241418189476 372.3030399336111 L 227.79973903516523 373.5922025984386 L 228.17272360695938 374.9147061325218 L 228.44079596041493 376.26239686179616 L 228.60230334032974 377.6269658247629 Z" fill-opacity="1" stroke-opacity="1" stroke-miterlimit="10" stroke-width="6"/><text fill="rgb(255,255,255)" stroke="none" font-family="times new roman" font-size="10px" font-style="normal" font-weight="normal" text-decoration="normal" x="211.15625" y="384" text-anchor="middle" dominant-baseline="text-after-edge" fill-opacity="1">*1.58</text><path fill="rgb(69,90,100)" stroke="rgb(76,175,80)" paint-order="fill stroke markers" d=" M 659.84375 242.125 L 659.7743900089954 243.8903296538765 L 659.5667376633907 245.64477546340518 L 659.2220732089477 247.37752068675786 L 658.7425216166409 249.07788237343632 L 658.131039481504 250.73537722821453 L 657.3913967942383 252.33978624413982 L 656.5281536979671 253.88121770610886 L 655.5466323734363 255.35016817658064 L 654.4528842260007 256.73758108742913 L 653.2536525766973 258.03490257669733 L 651.9563310874291 259.2341342260007 L 650.5689181765806 260.3278823734363 L 649.0999677061088 261.30940369796707 L 647.5585362441398 262.1726467942383 L 645.9541272282145 262.91228948150393 L 644.2966323734363 263.52377161664094 L 642.5962706867579 264.00332320894773 L 640.8635254634052 264.3479876633906 L 639.1090796538765 264.5556400089954 L 637.34375 264.625 L 635.5784203461235 264.5556400089954 L 633.8239745365948 264.3479876633906 L 632.0912293132421 264.00332320894773 L 630.3908676265637 263.52377161664094 L 628.7333727717855 262.91228948150393 L 627.1289637558602 262.1726467942383 L 625.5875322938912 261.30940369796707 L 624.1185818234194 260.3278823734363 L 622.7311689125709 259.2341342260007 L 621.4338474233027 258.03490257669733 L 620.2346157739993 256.73758108742913 L 619.1408676265637 255.35016817658064 L 618.1593463020329 253.88121770610886 L 617.2961032057617 252.33978624413982 L 616.556460518496 250.73537722821453 L 615.9449783833591 249.07788237343632 L 615.4654267910523 247.37752068675786 L 615.1207623366095 245.6447754634052 L 614.9131099910046 243.8903296538765 L 614.84375 242.125 L 614.9131099910046 240.3596703461235 L 615.1207623366093 238.60522453659482 L 615.4654267910523 236.87247931324214 L 615.9449783833591 235.17211762656368 L 616.556460518496 233.51462277178547 L 617.2961032057617 231.9102137558602 L 618.1593463020329 230.36878229389114 L 619.1408676265637 228.89983182341936 L 620.2346157739993 227.51241891257087 L 621.4338474233027 226.2150974233027 L 622.7311689125709 225.0158657739993 L 624.1185818234194 223.92211762656368 L 625.5875322938912 222.94059630203293 L 627.1289637558602 222.0773532057617 L 628.7333727717855 221.33771051849604 L 630.3908676265637 220.72622838335903 L 632.0912293132421 220.24667679105227 L 633.8239745365948 219.9020123366094 L 635.5784203461236 219.6943599910046 L 637.3437500000001 219.625 L 639.1090796538766 219.69435999100463 L 640.8635254634053 219.9020123366094 L 642.596270686758 220.2466767910523 L 644.2966323734364 220.72622838335909 L 645.9541272282146 221.3377105184961 L 647.5585362441399 222.0773532057618 L 649.0999677061089 222.940596302033 L 650.5689181765807 223.92211762656376 L 651.9563310874292 225.01586577399942 L 653.2536525766974 226.2150974233028 L 654.4528842260008 227.512418912571 L 655.5466323734364 228.8998318234195 L 656.5281536979671 230.36878229389131 L 657.3913967942384 231.91021375586038 L 658.131039481504 233.5146227717857 L 658.742521616641 235.1721176265639 L 659.2220732089478 236.87247931324237 L 659.5667376633907 238.60522453659505 L 659.7743900089954 240.35967034612375 Z" fill-opacity="1" stroke-opacity="1" stroke-miterlimit="10" stroke-width="6"/><text fill="rgb(255,255,255)" stroke="none" font-family="times new roman" font-size="15px" font-style="normal" font-weight="normal" text-decoration="normal" x="637.34375" y="249.625" text-anchor="middle" dominant-baseline="text-after-edge" fill-opacity="1">*2</text><path fill="rgb(69,90,100)" stroke="rgb(76,175,80)" paint-order="fill stroke markers" d=" M 428.09375 232.125 L 470.59375 232.125 L 470.59375 232.125 A 5 5 0 0 1 475.59375 237.125 L 475.59375 247.125 L 475.59375 247.125 A 5 5 0 0 1 470.59375 252.125 L 385.59375 252.125 L 385.59375 252.125 A 5 5 0 0 1 380.59375 247.125 L 380.59375 237.125 L 380.59375 237.125 A 5 5 0 0 1 385.59375 232.125 L 428.09375 232.125 Z" fill-opacity="1" stroke-opacity="1" stroke-miterlimit="10" stroke-width="2"/><text fill="rgb(255,255,255)" stroke="none" font-family="times new roman" font-size="10px" font-style="normal" font-weight="normal" text-decoration="normal" x="428.09375" y="247.125" text-anchor="middle" dominant-baseline="text-after-edge" fill-opacity="1">42132049dup</text><path fill="rgb(69,90,100)" stroke="rgb(76,175,80)" paint-order="fill stroke markers" d=" M 106.28125000000001 232.125 L 106.28125 252.125 L 201.28124999999997 252.125 L 201.28125 232.125 Z" fill-opacity="1" stroke-opacity="1" stroke-miterlimit="10" stroke-width="6"/><text fill="rgb(255,255,255)" stroke="none" font-family="times new roman" font-size="10px" font-style="normal" font-weight="normal" text-decoration="normal" x="153.78125" y="247.125" text-anchor="middle" dominant-baseline="text-after-edge" fill-opacity="1">42129950A&gt;C</text><path fill="rgb(69,90,100)" stroke="rgb(76,175,80)" paint-order="fill stroke markers" d=" M 221.03125 232.125 L 221.03125 252.125 L 316.03125 252.125 L 316.03125 232.125 Z" fill-opacity="1" stroke-opacity="1" stroke-miterlimit="10" stroke-width="6"/><text fill="rgb(255,255,255)" stroke="none" font-family="times new roman" font-size="10px" font-style="normal" font-weight="normal" text-decoration="normal" x="268.53125" y="247.125" text-anchor="middle" dominant-baseline="text-after-edge" fill-opacity="1">42130482C&gt;A</text><path fill="rgb(69,90,100)" stroke="rgb(76,175,80)" paint-order="fill stroke markers" d=" M 654.84375 164.875 L 654.7898033403297 166.24803417523728 L 654.6282959604149 167.61260313820404 L 654.3602236069594 168.96029386747836 L 653.9872390351652 170.28279740156157 L 653.5116418189475 171.57196006638907 L 652.9363641732964 172.81983374544205 L 652.2649528761966 174.0187248825291 L 651.5015474015615 175.16124191511827 L 650.6508543980005 176.2403408457782 L 649.7181186707646 177.24936867076457 L 648.7090908457782 178.18210439800055 L 647.6299919151182 179.0327974015616 L 646.4874748825291 179.79620287619662 L 645.2885837454421 180.46761417329643 L 644.0407100663891 181.0428918189475 L 642.7515474015615 181.51848903516517 L 641.4290438674783 181.89147360695935 L 640.081353138204 182.1595459604149 L 638.7167841752373 182.32105334032974 L 637.34375 182.375 L 635.9707158247627 182.32105334032974 L 634.606146861796 182.1595459604149 L 633.2584561325217 181.89147360695935 L 631.9359525984385 181.5184890351652 L 630.6467899336109 181.0428918189475 L 629.3989162545579 180.46761417329643 L 628.2000251174709 179.79620287619662 L 627.0575080848818 179.0327974015616 L 625.9784091542218 178.18210439800055 L 624.9693813292354 177.24936867076457 L 624.0366456019995 176.2403408457782 L 623.1859525984385 175.1612419151183 L 622.4225471238034 174.0187248825291 L 621.7511358267036 172.81983374544208 L 621.1758581810525 171.57196006638907 L 620.7002609648348 170.2827974015616 L 620.3272763930406 168.96029386747836 L 620.0592040395851 167.61260313820404 L 619.8976966596703 166.24803417523728 L 619.84375 164.875 L 619.8976966596703 163.50196582476272 L 620.0592040395851 162.13739686179596 L 620.3272763930406 160.78970613252164 L 620.7002609648348 159.46720259843843 L 621.1758581810525 158.17803993361093 L 621.7511358267036 156.93016625455795 L 622.4225471238034 155.7312751174709 L 623.1859525984385 154.58875808488173 L 624.0366456019995 153.5096591542218 L 624.9693813292354 152.50063132923543 L 625.9784091542218 151.56789560199945 L 627.0575080848818 150.71720259843843 L 628.2000251174709 149.95379712380338 L 629.3989162545579 149.28238582670355 L 630.646789933611 148.7071081810525 L 631.9359525984385 148.2315109648348 L 633.2584561325217 147.85852639304065 L 634.606146861796 147.5904540395851 L 635.9707158247628 147.42894665967026 L 637.3437500000001 147.375 L 638.7167841752373 147.42894665967026 L 640.0813531382041 147.5904540395851 L 641.4290438674784 147.85852639304068 L 642.7515474015617 148.23151096483485 L 644.0407100663891 148.70710818105252 L 645.2885837454421 149.2823858267036 L 646.4874748825292 149.95379712380344 L 647.6299919151184 150.7172025984385 L 648.7090908457783 151.56789560199954 L 649.7181186707646 152.50063132923552 L 650.6508543980007 153.5096591542219 L 651.5015474015617 154.58875808488185 L 652.2649528761967 155.73127511747103 L 652.9363641732965 156.9301662545581 L 653.5116418189476 158.1780399336111 L 653.9872390351652 159.4672025984386 L 654.3602236069594 160.78970613252184 L 654.6282959604149 162.13739686179616 L 654.7898033403297 163.50196582476292 Z" fill-opacity="1" stroke-opacity="1" stroke-miterlimit="10" stroke-width="6"/><text fill="rgb(255,255,255)" stroke="none" font-family="times new roman" font-size="10px" font-style="normal" font-weight="normal" text-decoration="normal" x="637.34375" y="169.875" text-anchor="middle" dominant-baseline="text-after-edge" fill-opacity="1">*2.4</text><path fill="rgb(69,90,100)" stroke="rgb(76,175,80)" paint-order="fill stroke markers" d=" M 743.84375 164.875 L 743.7743900089954 166.6403296538765 L 743.5667376633907 168.39477546340518 L 743.2220732089477 170.12752068675786 L 742.7425216166409 171.82788237343632 L 742.131039481504 173.48537722821453 L 741.3913967942383 175.08978624413982 L 740.5281536979671 176.63121770610886 L 739.5466323734363 178.10016817658064 L 738.4528842260007 179.48758108742913 L 737.2536525766973 180.7849025766973 L 735.9563310874291 181.9841342260007 L 734.5689181765806 183.07788237343632 L 733.0999677061088 184.05940369796707 L 731.5585362441398 184.9226467942383 L 729.9541272282145 185.66228948150396 L 728.2966323734363 186.27377161664094 L 726.5962706867579 186.75332320894773 L 724.8635254634052 187.0979876633906 L 723.1090796538765 187.30564000899537 L 721.34375 187.375 L 719.5784203461235 187.30564000899537 L 717.8239745365948 187.0979876633906 L 716.0912293132421 186.75332320894773 L 714.3908676265637 186.27377161664094 L 712.7333727717855 185.66228948150396 L 711.1289637558602 184.9226467942383 L 709.5875322938912 184.05940369796707 L 708.1185818234194 183.07788237343632 L 706.7311689125709 181.9841342260007 L 705.4338474233027 180.78490257669733 L 704.2346157739993 179.48758108742913 L 703.1408676265637 178.10016817658064 L 702.1593463020329 176.63121770610886 L 701.2961032057617 175.08978624413982 L 700.556460518496 173.48537722821453 L 699.9449783833591 171.82788237343632 L 699.4654267910523 170.12752068675786 L 699.1207623366095 168.3947754634052 L 698.9131099910046 166.6403296538765 L 698.84375 164.875 L 698.9131099910046 163.1096703461235 L 699.1207623366093 161.35522453659482 L 699.4654267910523 159.62247931324214 L 699.9449783833591 157.92211762656368 L 700.556460518496 156.26462277178547 L 701.2961032057617 154.6602137558602 L 702.1593463020329 153.11878229389114 L 703.1408676265637 151.64983182341936 L 704.2346157739993 150.26241891257087 L 705.4338474233027 148.9650974233027 L 706.7311689125709 147.7658657739993 L 708.1185818234194 146.67211762656368 L 709.5875322938912 145.69059630203293 L 711.1289637558602 144.8273532057617 L 712.7333727717855 144.08771051849604 L 714.3908676265637 143.47622838335903 L 716.0912293132421 142.99667679105227 L 717.8239745365948 142.6520123366094 L 719.5784203461236 142.4443599910046 L 721.3437500000001 142.375 L 723.1090796538766 142.44435999100463 L 724.8635254634053 142.6520123366094 L 726.596270686758 142.9966767910523 L 728.2966323734364 143.47622838335909 L 729.9541272282146 144.0877105184961 L 731.5585362441399 144.8273532057618 L 733.0999677061089 145.690596302033 L 734.5689181765807 146.67211762656376 L 735.9563310874292 147.76586577399942 L 737.2536525766974 148.9650974233028 L 738.4528842260008 150.262418912571 L 739.5466323734364 151.6498318234195 L 740.5281536979671 153.11878229389131 L 741.3913967942384 154.66021375586038 L 742.131039481504 156.2646227717857 L 742.742521616641 157.9221176265639 L 743.2220732089478 159.62247931324237 L 743.5667376633907 161.35522453659505 L 743.7743900089954 163.10967034612375 Z" fill-opacity="1" stroke-opacity="1" stroke-miterlimit="10" stroke-width="6"/><text fill="rgb(255,255,255)" stroke="none" font-family="times new roman" font-size="15px" font-style="normal" font-weight="normal" text-decoration="normal" x="721.34375" y="172.375" text-anchor="middle" dominant-baseline="text-after-edge" fill-opacity="1">*34</text><path fill="rgb(69,90,100)" stroke="rgb(76,175,80)" paint-order="fill stroke markers" d=" M 692.71875 91.375 L 692.6648033403297 92.74803417523728 L 692.5032959604149 94.11260313820404 L 692.2352236069594 95.46029386747834 L 691.8622390351652 96.78279740156158 L 691.3866418189475 98.07196006638907 L 690.8113641732964 99.31983374544207 L 690.1399528761966 100.5187248825291 L 689.3765474015615 101.66124191511828 L 688.5258543980005 102.7403408457782 L 687.5931186707646 103.74936867076458 L 686.5840908457782 104.68210439800055 L 685.5049919151182 105.53279740156158 L 684.3624748825291 106.29620287619662 L 683.1635837454421 106.96761417329644 L 681.9157100663891 107.54289181894751 L 680.6265474015615 108.01848903516519 L 679.3040438674783 108.39147360695934 L 677.956353138204 108.6595459604149 L 676.5917841752373 108.82105334032974 L 675.21875 108.875 L 673.8457158247627 108.82105334032974 L 672.481146861796 108.6595459604149 L 671.1334561325217 108.39147360695934 L 669.8109525984385 108.01848903516519 L 668.5217899336109 107.54289181894751 L 667.2739162545579 106.96761417329644 L 666.0750251174709 106.29620287619662 L 664.9325080848818 105.53279740156158 L 663.8534091542218 104.68210439800055 L 662.8443813292354 103.74936867076458 L 661.9116456019995 102.74034084577822 L 661.0609525984385 101.66124191511828 L 660.2975471238034 100.51872488252911 L 659.6261358267036 99.31983374544207 L 659.0508581810525 98.07196006638907 L 658.5752609648348 96.78279740156158 L 658.2022763930406 95.46029386747834 L 657.9342040395851 94.11260313820404 L 657.7726966596703 92.7480341752373 L 657.71875 91.375 L 657.7726966596703 90.00196582476272 L 657.9342040395851 88.63739686179596 L 658.2022763930406 87.28970613252166 L 658.5752609648348 85.96720259843842 L 659.0508581810525 84.67803993361093 L 659.6261358267036 83.43016625455793 L 660.2975471238034 82.2312751174709 L 661.0609525984385 81.08875808488172 L 661.9116456019995 80.0096591542218 L 662.8443813292354 79.00063132923542 L 663.8534091542218 78.06789560199947 L 664.9325080848818 77.21720259843842 L 666.0750251174709 76.45379712380338 L 667.2739162545579 75.78238582670356 L 668.521789933611 75.20710818105248 L 669.8109525984385 74.7315109648348 L 671.1334561325217 74.35852639304065 L 672.481146861796 74.09045403958508 L 673.8457158247628 73.92894665967026 L 675.2187500000001 73.875 L 676.5917841752373 73.92894665967026 L 677.9563531382041 74.0904540395851 L 679.3040438674784 74.35852639304068 L 680.6265474015617 74.73151096483484 L 681.9157100663891 75.20710818105252 L 683.1635837454421 75.7823858267036 L 684.3624748825292 76.45379712380344 L 685.5049919151184 77.21720259843849 L 686.5840908457783 78.06789560199954 L 687.5931186707646 79.00063132923552 L 688.5258543980007 80.0096591542219 L 689.3765474015617 81.08875808488185 L 690.1399528761967 82.23127511747103 L 690.8113641732965 83.43016625455807 L 691.3866418189476 84.67803993361109 L 691.8622390351652 85.96720259843859 L 692.2352236069594 87.28970613252184 L 692.5032959604149 88.63739686179616 L 692.6648033403297 90.00196582476292 Z" fill-opacity="1" stroke-opacity="1" stroke-miterlimit="10" stroke-width="6"/><text fill="rgb(255,255,255)" stroke="none" font-family="times new roman" font-size="10px" font-style="normal" font-weight="normal" text-decoration="normal" x="675.21875" y="96.375" text-anchor="middle" dominant-baseline="text-after-edge" fill-opacity="1">*34.1</text><path fill="rgb(176,190,197)" stroke="none" paint-order="stroke fill markers" d=" M 267.21875 274 L 267.21875 484 L 342.21875 484 L 342.21875 274.00000000000006 Z" fill-opacity="0.8"/><text fill="rgb(0,0,0)" stroke="none" font-family="times new roman" font-size="10px" font-style="normal" font-weight="normal" text-decoration="normal" x="272.21875" y="289" text-anchor="start" dominant-baseline="text-after-edge" fill-opacity="0.8">42127001G&gt;A </text><text fill="rgb(0,0,0)" stroke="none" font-family="times new roman" font-size="10px" font-style="normal" font-weight="normal" text-decoration="normal" x="272.21875" y="299" text-anchor="start" dominant-baseline="text-after-edge" fill-opacity="0.8">42127207C&gt;T </text><text fill="rgb(0,0,0)" stroke="none" font-family="times new roman" font-size="10px" font-style="normal" font-weight="normal" text-decoration="normal" x="272.21875" y="309" text-anchor="start" dominant-baseline="text-after-edge" fill-opacity="0.8">42127412G&gt;A </text><text fill="rgb(0,0,0)" stroke="none" font-family="times new roman" font-size="10px" font-style="normal" font-weight="normal" text-decoration="normal" x="272.21875" y="319" text-anchor="start" dominant-baseline="text-after-edge" fill-opacity="0.8">42129130C&gt;G </text><text fill="rgb(0,0,0)" stroke="none" font-family="times new roman" font-size="10px" font-style="normal" font-weight="normal" text-decoration="normal" x="272.21875" y="329" text-anchor="start" dominant-baseline="text-after-edge" fill-opacity="0.8">42130139G&gt;A </text><text fill="rgb(0,0,0)" stroke="none" font-family="times new roman" font-size="10px" font-style="normal" font-weight="normal" text-decoration="normal" x="272.21875" y="339" text-anchor="start" dominant-baseline="text-after-edge" fill-opacity="0.8">42131531G&gt;A </text><path fill="rgb(176,190,197)" stroke="none" paint-order="stroke fill markers" d=" M 428.09375 274 L 495.09375 274 L 495.09375 274 A 8 8 0 0 1 503.09375 282 L 503.09375 476 L 503.09375 476 A 8 8 0 0 1 495.09375 484 L 361.09375 484 L 361.09375 484 A 8 8 0 0 1 353.09375 476 L 353.09375 282 L 353.09375 282 A 8 8 0 0 1 361.09375 274 L 428.09375 274 Z" fill-opacity="0.8"/><text fill="rgb(0,0,0)" stroke="none" font-family="times new roman" font-size="10px" font-style="normal" font-weight="normal" text-decoration="normal" x="358.09375" y="289" text-anchor="start" dominant-baseline="text-after-edge" fill-opacity="0.8">42125924A&gt;G </text><text fill="rgb(0,0,0)" stroke="none" font-family="times new roman" font-size="10px" font-style="normal" font-weight="normal" text-decoration="normal" x="358.09375" y="299" text-anchor="start" dominant-baseline="text-after-edge" fill-opacity="0.8">42126022C&gt;T </text><text fill="rgb(0,0,0)" stroke="none" font-family="times new roman" font-size="10px" font-style="normal" font-weight="normal" text-decoration="normal" x="358.09375" y="309" text-anchor="start" dominant-baseline="text-after-edge" fill-opacity="0.8">42126069A&gt;C </text><text fill="rgb(0,0,0)" stroke="none" font-family="times new roman" font-size="10px" font-style="normal" font-weight="normal" text-decoration="normal" x="358.09375" y="319" text-anchor="start" dominant-baseline="text-after-edge" fill-opacity="0.8">42126079C&gt;T </text><text fill="rgb(0,0,0)" stroke="none" font-family="times new roman" font-size="10px" font-style="normal" font-weight="normal" text-decoration="normal" x="358.09375" y="329" text-anchor="start" dominant-baseline="text-after-edge" fill-opacity="0.8">42127399T&gt;C </text><text fill="rgb(0,0,0)" stroke="none" font-family="times new roman" font-size="10px" font-style="normal" font-weight="normal" text-decoration="normal" x="358.09375" y="339" text-anchor="start" dominant-baseline="text-after-edge" fill-opacity="0.8">42127404del </text><text fill="rgb(0,0,0)" stroke="none" font-family="times new roman" font-size="10px" font-style="normal" font-weight="normal" text-decoration="normal" x="358.09375" y="349" text-anchor="start" dominant-baseline="text-after-edge" fill-opacity="0.8">42127477G&gt;A </text><text fill="rgb(0,0,0)" stroke="none" font-family="times new roman" font-size="10px" font-style="normal" font-weight="normal" text-decoration="normal" x="358.09375" y="359" text-anchor="start" dominant-baseline="text-after-edge" fill-opacity="0.8">42132027C&gt;T </text><text fill="rgb(0,0,0)" stroke="none" font-family="times new roman" font-size="10px" font-style="normal" font-weight="normal" text-decoration="normal" x="358.09375" y="369" text-anchor="start" dominant-baseline="text-after-edge" fill-opacity="0.8">42132844C&gt;A </text><text fill="rgb(0,0,0)" stroke="none" font-family="times new roman" font-size="10px" font-style="normal" font-weight="normal" text-decoration="normal" x="358.09375" y="379" text-anchor="start" dominant-baseline="text-after-edge" fill-opacity="0.8">42132851T&gt;C </text><text fill="rgb(0,0,0)" stroke="none" font-family="times new roman" font-size="10px" font-style="normal" font-weight="normal" text-decoration="normal" x="358.09375" y="389" text-anchor="start" dominant-baseline="text-after-edge" fill-opacity="0.8">42133212A&gt;G </text><text fill="rgb(0,0,0)" stroke="none" font-family="times new roman" font-size="10px" font-style="normal" font-weight="normal" text-decoration="normal" x="358.09375" y="399" text-anchor="start" dominant-baseline="text-after-edge" fill-opacity="0.8">42133400T&gt;G </text><text fill="rgb(0,0,0)" stroke="none" font-family="times new roman" font-size="10px" font-style="normal" font-weight="normal" text-decoration="normal" x="358.09375" y="409" text-anchor="start" dominant-baseline="text-after-edge" fill-opacity="0.8">42134096del </text><text fill="rgb(0,0,0)" stroke="none" font-family="times new roman" font-size="10px" font-style="normal" font-weight="normal" text-decoration="normal" x="358.09375" y="419" text-anchor="start" dominant-baseline="text-after-edge" fill-opacity="0.8">42134820T&gt;G </text><text fill="rgb(0,0,0)" stroke="none" font-family="times new roman" font-size="10px" font-style="normal" font-weight="normal" text-decoration="normal" x="358.09375" y="429" text-anchor="start" dominant-baseline="text-after-edge" fill-opacity="0.8">42135064_42135066dup </text><text fill="rgb(0,0,0)" stroke="none" font-family="times new roman" font-size="10px" font-style="normal" font-weight="normal" text-decoration="normal" x="358.09375" y="439" text-anchor="start" dominant-baseline="text-after-edge" fill-opacity="0.8">42135201T&gt;C </text><g transform="scale(0.8398722627737226,0.8398722627737226) translate(39.946496469310205,53.19717544812602)"/></g></svg>