<svg version="1.1" xmlns="http://www.w3.org/2000/svg" xmlns:xlink="http://www.w3.org/1999/xlink" width="1017" height="608"><defs/><g transform="translate(-114.83333333333326,61.02222222222224) scale(0.9777777777777777,0.9777777777777777)"><path fill="none" stroke="rgb(120,144,156)" paint-order="fill stroke markers" d=" M 224.125 302.19736842105266 L 527.1313483196182 409.8443605872328" stroke-opacity="1" stroke-linejoin="round" stroke-miterlimit="10"/><path fill="rgb(120,144,156)" stroke="none" paint-order="stroke fill markers" d=" M 519.3616994286248 411.70044682194396 L 529.0159515773075 410.51389069193823 L 522.2741553840933 403.5024226509954 Z" fill-opacity="1"/><path fill="none" stroke="rgb(120,144,156)" paint-order="fill stroke markers" d=" M 489.11177406264756 173.9452432077146 L 543.119655422635 265.2085612465823" stroke-opacity="1" stroke-linejoin="round" stroke-miterlimit="10"/><path fill="rgb(120,144,156)" stroke="none" paint-order="stroke fill markers" d=" M 535.9638438864273 261.65794703798736 L 544.1382259373524 266.9297567922854 L 543.4510445102358 257.2271652989664 Z" fill-opacity="1"/><path fill="none" stroke="rgb(120,144,156)" paint-order="fill stroke markers" d=" M 227.38082191780822 165 L 261.93981426001227 267.553107356947" stroke-opacity="1" stroke-linejoin="round" stroke-miterlimit="10"/><path fill="rgb(120,144,156)" stroke="none" paint-order="stroke fill markers" d=" M 255.67799303978126 262.5930574574133 L 262.5784974369001 269.4483867029962 L 263.9224581950951 259.8147856379514 Z" fill-opacity="1"/><path fill="none" stroke="rgb(120,144,156)" paint-order="fill stroke markers" d=" M 287.77001351228955 297.3963538317886 L 529.2141773466122 407.74388183419387" stroke-opacity="1" stroke-linejoin="round" stroke-miterlimit="10"/><path fill="rgb(120,144,156)" stroke="none" paint-order="stroke fill markers" d=" M 521.3122515075576 408.9152349125098 L 531.0332030551283 408.5752334275391 L 524.9286309386093 401.00247308046494 Z" fill-opacity="1"/><path fill="none" stroke="rgb(120,144,156)" paint-order="fill stroke markers" d=" M 557.125 314.375 L 557.125 400" stroke-opacity="1" stroke-linejoin="round" stroke-miterlimit="10"/><path fill="rgb(120,144,156)" stroke="none" paint-order="stroke fill markers" d=" M 552.775 393.3 L 557.125 402 L 561.475 393.3 Z" fill-opacity="1"/><path fill="none" stroke="rgb(55,71,79)" paint-order="fill stroke markers" d=" M 602.8968133262312 95.86402773936021 L 624.5704273259075 130.40084354372266" stroke-opacity="1" stroke-linejoin="round" stroke-miterlimit="10" stroke-width="2"/><path fill="none" stroke="rgb(55,71,79)" paint-order="fill stroke markers" d=" M 315.25 91.5 L 315.25 131.5" stroke-opacity="1" stroke-linejoin="round" stroke-miterlimit="10" stroke-width="2"/><path fill="none" stroke="rgb(55,71,79)" paint-order="fill stroke markers" d=" M 438.15816326530614 91.5 L 462.5704273259076 130.40084354372266" stroke-opacity="1" stroke-linejoin="round" stroke-miterlimit="10" stroke-width="2"/><path fill="none" stroke="rgb(120,144,156)" paint-order="fill stroke markers" d=" M 739.5030821917808 165 L 746.5470893236898 182.02690465660112" stroke-opacity="1" stroke-linejoin="round" stroke-miterlimit="10"/><path fill="rgb(120,144,156)" stroke="none" paint-order="stroke fill markers" d=" M 739.966224336843 177.49869131965542 L 747.3116438356165 183.875 L 748.005439080628 174.17287919277442 Z" fill-opacity="1"/><path fill="none" stroke="rgb(55,71,79)" paint-order="fill stroke markers" d=" M 557.125 172.5 L 557.125 263.375" stroke-opacity="1" stroke-linejoin="round" stroke-miterlimit="10" stroke-width="2"/><path fill="none" stroke="rgb(55,71,79)" paint-order="fill stroke markers" d=" M 511.35318667376885 95.86402773936021 L 489.6795726740924 130.40084354372266" stroke-opacity="1" stroke-linejoin="round" stroke-miterlimit="10" stroke-width="2"/><path fill="none" stroke="rgb(120,144,156)" paint-order="fill stroke markers" d=" M 625.1382259373524 173.9452432077146 L 571.130344577365 265.2085612465823" stroke-opacity="1" stroke-linejoin="round" stroke-miterlimit="10"/><path fill="rgb(120,144,156)" stroke="none" paint-order="stroke fill markers" d=" M 570.7989554897642 257.2271652989664 L 570.1117740626476 266.9297567922854 L 578.2861561135727 261.65794703798736 Z" fill-opacity="1"/><path fill="none" stroke="rgb(120,144,156)" paint-order="fill stroke markers" d=" M 715.75 331.13021669341896 L 583.138656737588 405.8438306342" stroke-opacity="1" stroke-linejoin="round" stroke-miterlimit="10"/><path fill="rgb(120,144,156)" stroke="none" paint-order="stroke fill markers" d=" M 586.8407241275646 398.765186905344 L 581.3961783287068 406.8255480042117 L 591.1111946871157 406.34496798397737 Z" fill-opacity="1"/><path fill="none" stroke="rgb(120,144,156)" paint-order="fill stroke markers" d=" M 998.2881539445168 294.5046647400119 L 588.7279574065033 411.47425707918416" stroke-opacity="1" stroke-linejoin="round" stroke-miterlimit="10"/><path fill="rgb(120,144,156)" stroke="none" paint-order="stroke fill markers" d=" M 593.9757782334635 405.45156029384606 L 586.804850474261 412.02349266357555 L 596.3649530255661 413.8170754490999 Z" fill-opacity="1"/><path fill="none" stroke="rgb(120,144,156)" paint-order="fill stroke markers" d=" M 966.0743150684932 165 L 1009.3017691510761 268.12431856302476" stroke-opacity="1" stroke-linejoin="round" stroke-miterlimit="10"/><path fill="rgb(120,144,156)" stroke="none" paint-order="stroke fill markers" d=" M 1002.6998308871368 263.62688472147295 L 1010.074945226536 269.9688235796448 L 1010.723427709434 260.2635687932224 Z" fill-opacity="1"/><path fill="none" stroke="rgb(120,144,156)" paint-order="fill stroke markers" d=" M 1069.9256849315068 165 L 1026.6982308489237 268.12431856302476" stroke-opacity="1" stroke-linejoin="round" stroke-miterlimit="10"/><path fill="rgb(120,144,156)" stroke="none" paint-order="stroke fill markers" d=" M 1025.2765722905658 260.2635687932224 L 1025.925054773464 269.9688235796448 L 1033.300169112863 263.62688472147295 Z" fill-opacity="1"/><path fill="none" stroke="rgb(120,144,156)" paint-order="fill stroke markers" d=" M 308.7034974369001 171.42661329700383 L 276.31018573998773 267.553107356947" stroke-opacity="1" stroke-linejoin="round" stroke-miterlimit="10"/><path fill="rgb(120,144,156)" stroke="none" paint-order="stroke fill markers" d=" M 274.3275418049049 259.8147856379514 L 275.6715025630999 269.4483867029962 L 282.57200696021874 262.5930574574133 Z" fill-opacity="1"/><path fill="none" stroke="rgb(120,144,156)" paint-order="fill stroke markers" d=" M 842.8243150684932 163 L 834.9529106763102 182.02690465660112" stroke-opacity="1" stroke-linejoin="round" stroke-miterlimit="10"/><path fill="rgb(120,144,156)" stroke="none" paint-order="stroke fill markers" d=" M 833.494560919372 174.17287919277442 L 834.1883561643835 183.875 L 841.533775663157 177.49869131965542 Z" fill-opacity="1"/><path fill="none" stroke="rgb(55,71,79)" paint-order="fill stroke markers" d=" M 676.0918367346939 91.5 L 651.6795726740925 130.40084354372266" stroke-opacity="1" stroke-linejoin="round" stroke-miterlimit="10" stroke-width="2"/><path fill="rgb(69,90,100)" stroke="rgb(255,193,7)" paint-order="fill stroke markers" d=" M 636.75 68.5 L 636.75 88.5 L 731.75 88.5 L 731.75 68.5 Z" fill-opacity="1" stroke-opacity="1" stroke-miterlimit="10" stroke-width="6"/><text fill="rgb(255,255,255)" stroke="none" font-family="times new roman" font-size="10px" font-style="normal" font-weight="normal" text-decoration="normal" x="684.25" y="83.5" text-anchor="middle" dominant-baseline="text-after-edge" fill-opacity="1">42127941G&gt;A</text><path fill="rgb(69,90,100)" stroke="rgb(76,175,80)" paint-order="fill stroke markers" d=" M 286.625 288.875 L 286.57105334032974 290.2480341752373 L 286.4095459604149 291.61260313820407 L 286.1414736069593 292.96029386747836 L 285.7684890351652 294.2827974015616 L 285.2928918189475 295.57196006638907 L 284.71761417329645 296.81983374544205 L 284.0462028761966 298.0187248825291 L 283.2827974015616 299.1612419151183 L 282.43210439800055 300.24034084577823 L 281.49936867076457 301.24936867076457 L 280.49034084577823 302.18210439800055 L 279.4112419151183 303.0327974015616 L 278.2687248825291 303.7962028761966 L 277.06983374544205 304.46761417329645 L 275.82196006638907 305.0428918189475 L 274.5327974015616 305.5184890351652 L 273.21029386747836 305.8914736069593 L 271.86260313820407 306.1595459604149 L 270.4980341752373 306.32105334032974 L 269.125 306.375 L 267.7519658247627 306.32105334032974 L 266.38739686179593 306.1595459604149 L 265.03970613252164 305.8914736069593 L 263.7172025984384 305.5184890351652 L 262.42803993361093 305.0428918189475 L 261.18016625455795 304.46761417329645 L 259.9812751174709 303.7962028761966 L 258.8387580848817 303.0327974015616 L 257.75965915422177 302.18210439800055 L 256.75063132923543 301.24936867076457 L 255.81789560199945 300.24034084577823 L 254.96720259843843 299.1612419151183 L 254.20379712380338 298.0187248825291 L 253.53238582670357 296.81983374544205 L 252.9571081810525 295.57196006638907 L 252.48151096483483 294.2827974015616 L 252.10852639304065 292.96029386747836 L 251.8404540395851 291.61260313820407 L 251.67894665967026 290.2480341752373 L 251.625 288.875 L 251.67894665967026 287.5019658247627 L 251.8404540395851 286.13739686179593 L 252.10852639304065 284.78970613252164 L 252.4815109648348 283.4672025984384 L 252.9571081810525 282.17803993361093 L 253.53238582670357 280.93016625455795 L 254.20379712380338 279.7312751174709 L 254.9672025984384 278.5887580848817 L 255.81789560199945 277.50965915422177 L 256.75063132923543 276.50063132923543 L 257.75965915422177 275.56789560199945 L 258.8387580848817 274.7172025984384 L 259.9812751174709 273.9537971238034 L 261.18016625455795 273.28238582670355 L 262.42803993361093 272.7071081810525 L 263.71720259843846 272.2315109648348 L 265.0397061325217 271.8585263930407 L 266.387396861796 271.5904540395851 L 267.75196582476275 271.42894665967026 L 269.12500000000006 271.375 L 270.49803417523736 271.42894665967026 L 271.8626031382041 271.5904540395851 L 273.2102938674784 271.8585263930407 L 274.53279740156165 272.23151096483485 L 275.8219600663892 272.7071081810525 L 277.06983374544217 273.2823858267036 L 278.2687248825292 273.95379712380344 L 279.41124191511835 274.7172025984385 L 280.4903408457783 275.56789560199957 L 281.4993686707647 276.5006313292355 L 282.43210439800066 277.5096591542219 L 283.28279740156165 278.5887580848818 L 284.0462028761967 279.73127511747106 L 284.7176141732965 280.93016625455806 L 285.29289181894757 282.1780399336111 L 285.76848903516526 283.4672025984386 L 286.1414736069594 284.7897061325218 L 286.40954596041496 286.13739686179616 L 286.57105334032974 287.5019658247629 Z" fill-opacity="1" stroke-opacity="1" stroke-miterlimit="10" stroke-width="6"/><text fill="rgb(255,255,255)" stroke="none" font-family="times new roman" font-size="10px" font-style="normal" font-weight="normal" text-decoration="normal" x="269.125" y="293.875" text-anchor="middle" dominant-baseline="text-after-edge" fill-opacity="1">*1.54</text><path fill="rgb(69,90,100)" stroke="rgb(76,175,80)" paint-order="fill stroke markers" d=" M 660.625 152 L 660.5556400089954 153.7653296538765 L 660.3479876633907 155.51977546340518 L 660.0033232089477 157.25252068675786 L 659.5237716166409 158.95288237343632 L 658.912289481504 160.61037722821453 L 658.1726467942383 162.21478624413982 L 657.3094036979671 163.75621770610886 L 656.3278823734363 165.22516817658064 L 655.2341342260007 166.61258108742913 L 654.0349025766973 167.9099025766973 L 652.7375810874291 169.1091342260007 L 651.3501681765806 170.20288237343632 L 649.8812177061088 171.18440369796707 L 648.3397862441398 172.0476467942383 L 646.7353772282145 172.78728948150396 L 645.0778823734363 173.39877161664094 L 643.3775206867579 173.87832320894773 L 641.6447754634052 174.2229876633906 L 639.8903296538765 174.43064000899537 L 638.125 174.5 L 636.3596703461235 174.43064000899537 L 634.6052245365948 174.2229876633906 L 632.8724793132421 173.87832320894773 L 631.1721176265637 173.39877161664094 L 629.5146227717855 172.78728948150396 L 627.9102137558602 172.0476467942383 L 626.3687822938912 171.18440369796707 L 624.8998318234194 170.20288237343632 L 623.5124189125709 169.1091342260007 L 622.2150974233027 167.90990257669733 L 621.0158657739993 166.61258108742913 L 619.9221176265637 165.22516817658064 L 618.9405963020329 163.75621770610886 L 618.0773532057617 162.21478624413982 L 617.337710518496 160.61037722821453 L 616.7262283833591 158.95288237343632 L 616.2466767910523 157.25252068675786 L 615.9020123366095 155.5197754634052 L 615.6943599910046 153.7653296538765 L 615.625 152 L 615.6943599910046 150.2346703461235 L 615.9020123366093 148.48022453659482 L 616.2466767910523 146.74747931324214 L 616.7262283833591 145.04711762656368 L 617.337710518496 143.38962277178547 L 618.0773532057617 141.7852137558602 L 618.9405963020329 140.24378229389114 L 619.9221176265637 138.77483182341936 L 621.0158657739993 137.38741891257087 L 622.2150974233027 136.0900974233027 L 623.5124189125709 134.8908657739993 L 624.8998318234194 133.79711762656368 L 626.3687822938912 132.81559630203293 L 627.9102137558602 131.9523532057617 L 629.5146227717855 131.21271051849604 L 631.1721176265637 130.60122838335903 L 632.8724793132421 130.12167679105227 L 634.6052245365948 129.7770123366094 L 636.3596703461236 129.5693599910046 L 638.1250000000001 129.5 L 639.8903296538766 129.56935999100463 L 641.6447754634053 129.7770123366094 L 643.377520686758 130.1216767910523 L 645.0778823734364 130.60122838335909 L 646.7353772282146 131.2127105184961 L 648.3397862441399 131.9523532057618 L 649.8812177061089 132.815596302033 L 651.3501681765807 133.79711762656376 L 652.7375810874292 134.89086577399942 L 654.0349025766974 136.0900974233028 L 655.2341342260008 137.387418912571 L 656.3278823734364 138.7748318234195 L 657.3094036979671 140.24378229389131 L 658.1726467942384 141.78521375586038 L 658.912289481504 143.3896227717857 L 659.523771616641 145.0471176265639 L 660.0033232089478 146.74747931324237 L 660.3479876633907 148.48022453659505 L 660.5556400089954 150.23467034612375 Z" fill-opacity="1" stroke-opacity="1" stroke-miterlimit="10" stroke-width="6"/><text fill="rgb(255,255,255)" stroke="none" font-family="times new roman" font-size="15px" font-style="normal" font-weight="normal" text-decoration="normal" x="638.125" y="159.5" text-anchor="middle" dominant-baseline="text-after-edge" fill-opacity="1">*34</text><path fill="rgb(69,90,100)" stroke="rgb(76,175,80)" paint-order="fill stroke markers" d=" M 332.75 152 L 332.69605334032974 153.37303417523728 L 332.5345459604149 154.73760313820404 L 332.2664736069593 156.08529386747836 L 331.8934890351652 157.40779740156157 L 331.4178918189475 158.69696006638907 L 330.84261417329645 159.94483374544205 L 330.1712028761966 161.1437248825291 L 329.4077974015616 162.28624191511827 L 328.55710439800055 163.3653408457782 L 327.62436867076457 164.37436867076457 L 326.61534084577823 165.30710439800055 L 325.5362419151183 166.1577974015616 L 324.3937248825291 166.92120287619662 L 323.19483374544205 167.59261417329643 L 321.94696006638907 168.1678918189475 L 320.6577974015616 168.64348903516517 L 319.33529386747836 169.01647360695935 L 317.98760313820407 169.2845459604149 L 316.6230341752373 169.44605334032974 L 315.25 169.5 L 313.8769658247627 169.44605334032974 L 312.51239686179593 169.2845459604149 L 311.16470613252164 169.01647360695935 L 309.8422025984384 168.6434890351652 L 308.55303993361093 168.1678918189475 L 307.30516625455795 167.59261417329643 L 306.1062751174709 166.92120287619662 L 304.9637580848817 166.1577974015616 L 303.88465915422177 165.30710439800055 L 302.87563132923543 164.37436867076457 L 301.94289560199945 163.3653408457782 L 301.0922025984384 162.2862419151183 L 300.3287971238034 161.1437248825291 L 299.65738582670355 159.94483374544208 L 299.0821081810525 158.69696006638907 L 298.6065109648348 157.4077974015616 L 298.2335263930407 156.08529386747836 L 297.9654540395851 154.73760313820404 L 297.80394665967026 153.37303417523728 L 297.75 152 L 297.80394665967026 150.62696582476272 L 297.9654540395851 149.26239686179596 L 298.2335263930407 147.91470613252164 L 298.6065109648348 146.59220259843843 L 299.0821081810525 145.30303993361093 L 299.65738582670355 144.05516625455795 L 300.3287971238034 142.8562751174709 L 301.0922025984384 141.71375808488173 L 301.94289560199945 140.6346591542218 L 302.87563132923543 139.62563132923543 L 303.88465915422177 138.69289560199945 L 304.9637580848817 137.84220259843843 L 306.1062751174709 137.07879712380338 L 307.30516625455795 136.40738582670355 L 308.55303993361093 135.8321081810525 L 309.84220259843846 135.3565109648348 L 311.1647061325217 134.98352639304065 L 312.512396861796 134.7154540395851 L 313.87696582476275 134.55394665967026 L 315.25000000000006 134.5 L 316.62303417523736 134.55394665967026 L 317.9876031382041 134.7154540395851 L 319.3352938674784 134.98352639304068 L 320.65779740156165 135.35651096483485 L 321.9469600663892 135.83210818105252 L 323.19483374544217 136.4073858267036 L 324.3937248825292 137.07879712380344 L 325.53624191511835 137.8422025984385 L 326.6153408457783 138.69289560199954 L 327.6243686707647 139.62563132923552 L 328.55710439800066 140.6346591542219 L 329.40779740156165 141.71375808488185 L 330.1712028761967 142.85627511747103 L 330.8426141732965 144.0551662545581 L 331.41789181894757 145.3030399336111 L 331.89348903516526 146.5922025984386 L 332.2664736069594 147.91470613252184 L 332.53454596041496 149.26239686179616 L 332.69605334032974 150.62696582476292 Z" fill-opacity="1" stroke-opacity="1" stroke-miterlimit="10" stroke-width="6"/><text fill="rgb(255,255,255)" stroke="none" font-family="times new roman" font-size="10px" font-style="normal" font-weight="normal" text-decoration="normal" x="315.25" y="157" text-anchor="middle" dominant-baseline="text-after-edge" fill-opacity="1">*1.41</text><path fill="rgb(69,90,100)" stroke="rgb(69,90,100)" paint-order="fill stroke markers" d=" M 538.375 403 L 519.625 420.5 L 538.375 438 L 575.875 438 L 594.625 420.5 L 575.875 403 Z" fill-opacity="1" stroke-opacity="1" stroke-miterlimit="10" stroke-width="2"/><text fill="rgb(255,255,255)" stroke="none" font-family="times new roman" font-size="10px" font-style="normal" font-weight="normal" text-decoration="normal" x="557.125" y="425.5" text-anchor="middle" dominant-baseline="text-after-edge" fill-opacity="1">NA19226-B</text><path fill="rgb(69,90,100)" stroke="rgb(76,175,80)" paint-order="fill stroke markers" d=" M 579.625 288.875 L 579.5556400089954 290.6403296538765 L 579.3479876633907 292.3947754634052 L 579.0033232089477 294.12752068675786 L 578.5237716166409 295.8278823734363 L 577.912289481504 297.48537722821453 L 577.1726467942383 299.0897862441398 L 576.3094036979671 300.6312177061088 L 575.3278823734363 302.10016817658067 L 574.2341342260007 303.48758108742913 L 573.0349025766973 304.78490257669733 L 571.7375810874291 305.9841342260007 L 570.3501681765806 307.0778823734363 L 568.8812177061088 308.05940369796707 L 567.3397862441398 308.9226467942383 L 565.7353772282145 309.66228948150393 L 564.0778823734363 310.27377161664094 L 562.3775206867579 310.75332320894773 L 560.6447754634052 311.0979876633906 L 558.8903296538765 311.3056400089954 L 557.125 311.375 L 555.3596703461235 311.3056400089954 L 553.6052245365948 311.0979876633906 L 551.8724793132421 310.75332320894773 L 550.1721176265637 310.27377161664094 L 548.5146227717855 309.66228948150393 L 546.9102137558602 308.9226467942383 L 545.3687822938912 308.05940369796707 L 543.8998318234194 307.0778823734363 L 542.5124189125709 305.9841342260007 L 541.2150974233027 304.78490257669733 L 540.0158657739993 303.48758108742913 L 538.9221176265637 302.10016817658067 L 537.9405963020329 300.6312177061088 L 537.0773532057617 299.0897862441398 L 536.337710518496 297.48537722821453 L 535.7262283833591 295.8278823734363 L 535.2466767910523 294.12752068675786 L 534.9020123366095 292.3947754634052 L 534.6943599910046 290.6403296538765 L 534.625 288.875 L 534.6943599910046 287.1096703461235 L 534.9020123366093 285.3552245365948 L 535.2466767910523 283.62247931324214 L 535.7262283833591 281.9221176265637 L 536.337710518496 280.26462277178547 L 537.0773532057617 278.6602137558602 L 537.9405963020329 277.1187822938912 L 538.9221176265637 275.64983182341933 L 540.0158657739993 274.26241891257087 L 541.2150974233027 272.96509742330267 L 542.5124189125709 271.76586577399934 L 543.8998318234194 270.6721176265637 L 545.3687822938912 269.69059630203293 L 546.9102137558602 268.8273532057617 L 548.5146227717855 268.087710518496 L 550.1721176265637 267.47622838335906 L 551.8724793132421 266.99667679105227 L 553.6052245365948 266.6520123366094 L 555.3596703461236 266.4443599910046 L 557.1250000000001 266.375 L 558.8903296538766 266.4443599910046 L 560.6447754634053 266.6520123366094 L 562.377520686758 266.9966767910523 L 564.0778823734364 267.47622838335906 L 565.7353772282146 268.0877105184961 L 567.3397862441399 268.82735320576177 L 568.8812177061089 269.690596302033 L 570.3501681765807 270.67211762656376 L 571.7375810874292 271.7658657739994 L 573.0349025766974 272.9650974233028 L 574.2341342260008 274.262418912571 L 575.3278823734364 275.6498318234195 L 576.3094036979671 277.11878229389134 L 577.1726467942384 278.6602137558604 L 577.912289481504 280.2646227717857 L 578.523771616641 281.92211762656393 L 579.0033232089478 283.62247931324237 L 579.3479876633907 285.3552245365951 L 579.5556400089954 287.1096703461238 Z" fill-opacity="1" stroke-opacity="1" stroke-miterlimit="10" stroke-width="6"/><text fill="rgb(255,255,255)" stroke="none" font-family="times new roman" font-size="15px" font-style="normal" font-weight="normal" text-decoration="normal" x="557.125" y="296.375" text-anchor="middle" dominant-baseline="text-after-edge" fill-opacity="1">*2</text><path fill="rgb(3,169,244)" stroke="none" paint-order="stroke fill markers" d=" M 557.125 256.375 L 581.625 256.375 L 581.625 256.375 A 8 8 0 0 1 589.625 264.375 L 589.625 313.375 L 589.625 313.375 A 8 8 0 0 1 581.625 321.375 L 532.625 321.375 L 532.625 321.375 A 8 8 0 0 1 524.625 313.375 L 524.625 264.375 L 524.625 264.375 A 8 8 0 0 1 532.625 256.375 L 557.125 256.375 Z" fill-opacity="0.15"/><path fill="rgb(69,90,100)" stroke="rgb(76,175,80)" paint-order="fill stroke markers" d=" M 609.5 78.5 L 609.4460533403297 79.87303417523728 L 609.2845459604149 81.23760313820404 L 609.0164736069594 82.58529386747834 L 608.6434890351652 83.90779740156158 L 608.1678918189475 85.19696006638907 L 607.5926141732964 86.44483374544207 L 606.9212028761966 87.6437248825291 L 606.1577974015615 88.78624191511828 L 605.3071043980005 89.8653408457782 L 604.3743686707646 90.87436867076458 L 603.3653408457782 91.80710439800055 L 602.2862419151182 92.65779740156158 L 601.1437248825291 93.42120287619662 L 599.9448337454421 94.09261417329644 L 598.6969600663891 94.66789181894751 L 597.4077974015615 95.14348903516519 L 596.0852938674783 95.51647360695934 L 594.737603138204 95.7845459604149 L 593.3730341752373 95.94605334032974 L 592 96 L 590.6269658247627 95.94605334032974 L 589.262396861796 95.7845459604149 L 587.9147061325217 95.51647360695934 L 586.5922025984385 95.14348903516519 L 585.3030399336109 94.66789181894751 L 584.0551662545579 94.09261417329644 L 582.8562751174709 93.42120287619662 L 581.7137580848818 92.65779740156158 L 580.6346591542218 91.80710439800055 L 579.6256313292354 90.87436867076458 L 578.6928956019995 89.86534084577822 L 577.8422025984385 88.78624191511828 L 577.0787971238034 87.64372488252911 L 576.4073858267036 86.44483374544207 L 575.8321081810525 85.19696006638907 L 575.3565109648348 83.90779740156158 L 574.9835263930406 82.58529386747834 L 574.7154540395851 81.23760313820404 L 574.5539466596703 79.8730341752373 L 574.5 78.5 L 574.5539466596703 77.12696582476272 L 574.7154540395851 75.76239686179596 L 574.9835263930406 74.41470613252166 L 575.3565109648348 73.09220259843842 L 575.8321081810525 71.80303993361093 L 576.4073858267036 70.55516625455793 L 577.0787971238034 69.3562751174709 L 577.8422025984385 68.21375808488172 L 578.6928956019995 67.1346591542218 L 579.6256313292354 66.12563132923542 L 580.6346591542218 65.19289560199947 L 581.7137580848818 64.34220259843842 L 582.8562751174709 63.57879712380338 L 584.0551662545579 62.90738582670356 L 585.303039933611 62.332108181052476 L 586.5922025984385 61.856510964834804 L 587.9147061325217 61.48352639304065 L 589.262396861796 61.21545403958508 L 590.6269658247628 61.05394665967026 L 592.0000000000001 61 L 593.3730341752373 61.05394665967027 L 594.7376031382041 61.2154540395851 L 596.0852938674784 61.48352639304068 L 597.4077974015617 61.85651096483484 L 598.6969600663891 62.33210818105252 L 599.9448337454421 62.90738582670361 L 601.1437248825292 63.57879712380345 L 602.2862419151184 64.34220259843849 L 603.3653408457783 65.19289560199954 L 604.3743686707646 66.12563132923552 L 605.3071043980007 67.1346591542219 L 606.1577974015617 68.21375808488185 L 606.9212028761967 69.35627511747103 L 607.5926141732965 70.55516625455807 L 608.1678918189476 71.80303993361109 L 608.6434890351652 73.09220259843859 L 609.0164736069594 74.41470613252184 L 609.2845459604149 75.76239686179616 L 609.4460533403297 77.12696582476292 Z" fill-opacity="1" stroke-opacity="1" stroke-miterlimit="10" stroke-width="6"/><text fill="rgb(255,255,255)" stroke="none" font-family="times new roman" font-size="10px" font-style="normal" font-weight="normal" text-decoration="normal" x="592" y="83.5" text-anchor="middle" dominant-baseline="text-after-edge" fill-opacity="1">*34.1</text><path fill="rgb(69,90,100)" stroke="rgb(76,175,80)" paint-order="fill stroke markers" d=" M 498.625 152 L 498.5556400089954 153.7653296538765 L 498.3479876633906 155.51977546340518 L 498.00332320894773 157.25252068675786 L 497.52377161664094 158.95288237343632 L 496.91228948150393 160.61037722821453 L 496.1726467942383 162.21478624413982 L 495.30940369796707 163.75621770610886 L 494.3278823734363 165.22516817658064 L 493.2341342260007 166.61258108742913 L 492.03490257669733 167.9099025766973 L 490.73758108742913 169.1091342260007 L 489.35016817658067 170.20288237343632 L 487.8812177061088 171.18440369796707 L 486.3397862441398 172.0476467942383 L 484.73537722821453 172.78728948150396 L 483.0778823734363 173.39877161664094 L 481.37752068675786 173.87832320894773 L 479.6447754634052 174.2229876633906 L 477.8903296538765 174.43064000899537 L 476.125 174.5 L 474.3596703461235 174.43064000899537 L 472.6052245365948 174.2229876633906 L 470.87247931324214 173.87832320894773 L 469.1721176265637 173.39877161664094 L 467.51462277178547 172.78728948150396 L 465.9102137558602 172.0476467942383 L 464.3687822938912 171.18440369796707 L 462.89983182341933 170.20288237343632 L 461.51241891257087 169.1091342260007 L 460.21509742330267 167.90990257669733 L 459.0158657739993 166.61258108742913 L 457.9221176265637 165.22516817658064 L 456.94059630203293 163.75621770610886 L 456.0773532057617 162.21478624413982 L 455.33771051849607 160.61037722821453 L 454.72622838335906 158.95288237343632 L 454.24667679105227 157.25252068675786 L 453.9020123366094 155.5197754634052 L 453.6943599910046 153.7653296538765 L 453.625 152 L 453.6943599910046 150.2346703461235 L 453.9020123366094 148.48022453659482 L 454.24667679105227 146.74747931324214 L 454.72622838335906 145.04711762656368 L 455.33771051849607 143.38962277178547 L 456.0773532057617 141.7852137558602 L 456.94059630203293 140.24378229389114 L 457.9221176265637 138.77483182341936 L 459.0158657739993 137.38741891257087 L 460.21509742330267 136.0900974233027 L 461.51241891257087 134.8908657739993 L 462.89983182341933 133.79711762656368 L 464.3687822938912 132.81559630203293 L 465.91021375586024 131.9523532057617 L 467.5146227717855 131.21271051849604 L 469.1721176265637 130.60122838335903 L 470.8724793132422 130.12167679105227 L 472.60522453659485 129.7770123366094 L 474.35967034612355 129.5693599910046 L 476.12500000000006 129.5 L 477.8903296538766 129.56935999100463 L 479.64477546340527 129.7770123366094 L 481.377520686758 130.1216767910523 L 483.0778823734364 130.60122838335909 L 484.73537722821465 131.2127105184961 L 486.33978624413993 131.9523532057618 L 487.881217706109 132.815596302033 L 489.3501681765808 133.79711762656376 L 490.73758108742925 134.89086577399942 L 492.03490257669745 136.0900974233028 L 493.23413422600083 137.387418912571 L 494.3278823734364 138.7748318234195 L 495.3094036979672 140.24378229389131 L 496.1726467942384 141.78521375586038 L 496.91228948150405 143.3896227717857 L 497.52377161664106 145.0471176265639 L 498.0033232089478 146.74747931324237 L 498.34798766339065 148.48022453659505 L 498.5556400089954 150.23467034612375 Z" fill-opacity="1" stroke-opacity="1" stroke-miterlimit="10" stroke-width="6"/><text fill="rgb(255,255,255)" stroke="none" font-family="times new roman" font-size="15px" font-style="normal" font-weight="normal" text-decoration="normal" x="476.125" y="159.5" text-anchor="middle" dominant-baseline="text-after-edge" fill-opacity="1">*39</text><path fill="rgb(69,90,100)" stroke="rgb(76,175,80)" paint-order="fill stroke markers" d=" M 574.625 152 L 574.5710533403297 153.37303417523728 L 574.4095459604149 154.73760313820404 L 574.1414736069594 156.08529386747836 L 573.7684890351652 157.40779740156157 L 573.2928918189475 158.69696006638907 L 572.7176141732964 159.94483374544205 L 572.0462028761966 161.1437248825291 L 571.2827974015615 162.28624191511827 L 570.4321043980005 163.3653408457782 L 569.4993686707646 164.37436867076457 L 568.4903408457782 165.30710439800055 L 567.4112419151182 166.1577974015616 L 566.2687248825291 166.92120287619662 L 565.0698337454421 167.59261417329643 L 563.8219600663891 168.1678918189475 L 562.5327974015615 168.64348903516517 L 561.2102938674783 169.01647360695935 L 559.862603138204 169.2845459604149 L 558.4980341752373 169.44605334032974 L 557.125 169.5 L 555.7519658247627 169.44605334032974 L 554.387396861796 169.2845459604149 L 553.0397061325217 169.01647360695935 L 551.7172025984385 168.6434890351652 L 550.4280399336109 168.1678918189475 L 549.1801662545579 167.59261417329643 L 547.9812751174709 166.92120287619662 L 546.8387580848818 166.1577974015616 L 545.7596591542218 165.30710439800055 L 544.7506313292354 164.37436867076457 L 543.8178956019995 163.3653408457782 L 542.9672025984385 162.2862419151183 L 542.2037971238034 161.1437248825291 L 541.5323858267036 159.94483374544208 L 540.9571081810525 158.69696006638907 L 540.4815109648348 157.4077974015616 L 540.1085263930406 156.08529386747836 L 539.8404540395851 154.73760313820404 L 539.6789466596703 153.37303417523728 L 539.625 152 L 539.6789466596703 150.62696582476272 L 539.8404540395851 149.26239686179596 L 540.1085263930406 147.91470613252164 L 540.4815109648348 146.59220259843843 L 540.9571081810525 145.30303993361093 L 541.5323858267036 144.05516625455795 L 542.2037971238034 142.8562751174709 L 542.9672025984385 141.71375808488173 L 543.8178956019995 140.6346591542218 L 544.7506313292354 139.62563132923543 L 545.7596591542218 138.69289560199945 L 546.8387580848818 137.84220259843843 L 547.9812751174709 137.07879712380338 L 549.1801662545579 136.40738582670355 L 550.428039933611 135.8321081810525 L 551.7172025984385 135.3565109648348 L 553.0397061325217 134.98352639304065 L 554.387396861796 134.7154540395851 L 555.7519658247628 134.55394665967026 L 557.1250000000001 134.5 L 558.4980341752373 134.55394665967026 L 559.8626031382041 134.7154540395851 L 561.2102938674784 134.98352639304068 L 562.5327974015617 135.35651096483485 L 563.8219600663891 135.83210818105252 L 565.0698337454421 136.4073858267036 L 566.2687248825292 137.07879712380344 L 567.4112419151184 137.8422025984385 L 568.4903408457783 138.69289560199954 L 569.4993686707646 139.62563132923552 L 570.4321043980007 140.6346591542219 L 571.2827974015617 141.71375808488185 L 572.0462028761967 142.85627511747103 L 572.7176141732965 144.0551662545581 L 573.2928918189476 145.3030399336111 L 573.7684890351652 146.5922025984386 L 574.1414736069594 147.91470613252184 L 574.4095459604149 149.26239686179616 L 574.5710533403297 150.62696582476292 Z" fill-opacity="1" stroke-opacity="1" stroke-miterlimit="10" stroke-width="6"/><text fill="rgb(255,255,255)" stroke="none" font-family="times new roman" font-size="10px" font-style="normal" font-weight="normal" text-decoration="normal" x="557.125" y="157" text-anchor="middle" dominant-baseline="text-after-edge" fill-opacity="1">*2.4</text><path fill="rgb(69,90,100)" stroke="rgb(255,193,7)" paint-order="fill stroke markers" d=" M 382.5 68.5 L 382.5 88.5 L 477.5 88.5 L 477.5 68.5 Z" fill-opacity="1" stroke-opacity="1" stroke-miterlimit="10" stroke-width="6"/><text fill="rgb(255,255,255)" stroke="none" font-family="times new roman" font-size="10px" font-style="normal" font-weight="normal" text-decoration="normal" x="430" y="83.5" text-anchor="middle" dominant-baseline="text-after-edge" fill-opacity="1">42126611C&gt;G</text><path fill="rgb(69,90,100)" stroke="rgb(76,175,80)" paint-order="fill stroke markers" d=" M 267.75 68.5 L 267.75 88.5 L 362.75 88.5 L 362.75 68.5 Z" fill-opacity="1" stroke-opacity="1" stroke-miterlimit="10" stroke-width="6"/><text fill="rgb(255,255,255)" stroke="none" font-family="times new roman" font-size="10px" font-style="normal" font-weight="normal" text-decoration="normal" x="315.25" y="83.5" text-anchor="middle" dominant-baseline="text-after-edge" fill-opacity="1">42127407T&gt;G</text><path fill="rgb(69,90,100)" stroke="rgb(76,175,80)" paint-order="fill stroke markers" d=" M 1035.5 288.875 L 1035.4460533403299 290.2480341752373 L 1035.284545960415 291.61260313820407 L 1035.0164736069594 292.96029386747836 L 1034.6434890351652 294.2827974015616 L 1034.1678918189475 295.57196006638907 L 1033.5926141732964 296.81983374544205 L 1032.9212028761965 298.0187248825291 L 1032.1577974015615 299.1612419151183 L 1031.3071043980005 300.24034084577823 L 1030.3743686707646 301.24936867076457 L 1029.3653408457783 302.18210439800055 L 1028.2862419151184 303.0327974015616 L 1027.143724882529 303.7962028761966 L 1025.944833745442 304.46761417329645 L 1024.696960066389 305.0428918189475 L 1023.4077974015615 305.5184890351652 L 1022.0852938674783 305.8914736069593 L 1020.737603138204 306.1595459604149 L 1019.3730341752373 306.32105334032974 L 1018 306.375 L 1016.6269658247627 306.32105334032974 L 1015.262396861796 306.1595459604149 L 1013.9147061325217 305.8914736069593 L 1012.5922025984385 305.5184890351652 L 1011.3030399336109 305.0428918189475 L 1010.0551662545579 304.46761417329645 L 1008.8562751174709 303.7962028761966 L 1007.7137580848818 303.0327974015616 L 1006.6346591542218 302.18210439800055 L 1005.6256313292354 301.24936867076457 L 1004.6928956019995 300.24034084577823 L 1003.8422025984385 299.1612419151183 L 1003.0787971238034 298.0187248825291 L 1002.4073858267036 296.81983374544205 L 1001.8321081810525 295.57196006638907 L 1001.3565109648348 294.2827974015616 L 1000.9835263930406 292.96029386747836 L 1000.7154540395851 291.61260313820407 L 1000.5539466596703 290.2480341752373 L 1000.5 288.875 L 1000.5539466596703 287.5019658247627 L 1000.7154540395851 286.13739686179593 L 1000.9835263930406 284.78970613252164 L 1001.3565109648348 283.4672025984384 L 1001.8321081810525 282.17803993361093 L 1002.4073858267036 280.93016625455795 L 1003.0787971238034 279.7312751174709 L 1003.8422025984385 278.5887580848817 L 1004.6928956019995 277.50965915422177 L 1005.6256313292354 276.50063132923543 L 1006.6346591542218 275.56789560199945 L 1007.7137580848818 274.7172025984384 L 1008.8562751174709 273.9537971238034 L 1010.0551662545579 273.28238582670355 L 1011.303039933611 272.7071081810525 L 1012.5922025984385 272.2315109648348 L 1013.9147061325217 271.8585263930407 L 1015.262396861796 271.5904540395851 L 1016.6269658247628 271.42894665967026 L 1018.0000000000001 271.375 L 1019.3730341752373 271.42894665967026 L 1020.7376031382041 271.5904540395851 L 1022.0852938674784 271.8585263930407 L 1023.4077974015617 272.23151096483485 L 1024.6969600663892 272.7071081810525 L 1025.944833745442 273.2823858267036 L 1027.143724882529 273.95379712380344 L 1028.2862419151184 274.7172025984385 L 1029.3653408457783 275.56789560199957 L 1030.3743686707646 276.5006313292355 L 1031.3071043980005 277.5096591542219 L 1032.1577974015618 278.5887580848818 L 1032.9212028761967 279.73127511747106 L 1033.5926141732966 280.93016625455806 L 1034.1678918189475 282.1780399336111 L 1034.6434890351652 283.4672025984386 L 1035.0164736069594 284.7897061325218 L 1035.284545960415 286.13739686179616 L 1035.4460533403299 287.5019658247629 Z" fill-opacity="1" stroke-opacity="1" stroke-miterlimit="10" stroke-width="6"/><text fill="rgb(255,255,255)" stroke="none" font-family="times new roman" font-size="10px" font-style="normal" font-weight="normal" text-decoration="normal" x="1018" y="293.875" text-anchor="middle" dominant-baseline="text-after-edge" fill-opacity="1">*1.58</text><path fill="rgb(69,90,100)" stroke="rgb(76,175,80)" paint-order="fill stroke markers" d=" M 175.5 142 L 175.5 162 L 270.5 162 L 270.5 142 Z" fill-opacity="1" stroke-opacity="1" stroke-miterlimit="10" stroke-width="6"/><text fill="rgb(255,255,255)" stroke="none" font-family="times new roman" font-size="10px" font-style="normal" font-weight="normal" text-decoration="normal" x="223" y="157" text-anchor="middle" dominant-baseline="text-after-edge" fill-opacity="1">42130047G&gt;C</text><path fill="rgb(69,90,100)" stroke="rgb(76,175,80)" paint-order="fill stroke markers" d=" M 734.125 142 L 776.625 142 L 776.625 142 A 5 5 0 0 1 781.625 147 L 781.625 157 L 781.625 157 A 5 5 0 0 1 776.625 162 L 691.625 162 L 691.625 162 A 5 5 0 0 1 686.625 157 L 686.625 147 L 686.625 147 A 5 5 0 0 1 691.625 142 L 734.125 142 Z" fill-opacity="1" stroke-opacity="1" stroke-miterlimit="10" stroke-width="6"/><text fill="rgb(255,255,255)" stroke="none" font-family="times new roman" font-size="10px" font-style="normal" font-weight="normal" text-decoration="normal" x="734.125" y="157" text-anchor="middle" dominant-baseline="text-after-edge" fill-opacity="1">42132025_4213202…</text><path fill="rgb(69,90,100)" stroke="rgb(76,175,80)" paint-order="fill stroke markers" d=" M 539.75 78.5 L 539.6960533403297 79.87303417523728 L 539.5345459604149 81.23760313820404 L 539.2664736069594 82.58529386747834 L 538.8934890351652 83.90779740156158 L 538.4178918189475 85.19696006638907 L 537.8426141732964 86.44483374544207 L 537.1712028761966 87.6437248825291 L 536.4077974015615 88.78624191511828 L 535.5571043980005 89.8653408457782 L 534.6243686707646 90.87436867076458 L 533.6153408457782 91.80710439800055 L 532.5362419151182 92.65779740156158 L 531.3937248825291 93.42120287619662 L 530.1948337454421 94.09261417329644 L 528.9469600663891 94.66789181894751 L 527.6577974015615 95.14348903516519 L 526.3352938674783 95.51647360695934 L 524.987603138204 95.7845459604149 L 523.6230341752373 95.94605334032974 L 522.25 96 L 520.8769658247627 95.94605334032974 L 519.512396861796 95.7845459604149 L 518.1647061325217 95.51647360695934 L 516.8422025984385 95.14348903516519 L 515.5530399336109 94.66789181894751 L 514.3051662545579 94.09261417329644 L 513.1062751174709 93.42120287619662 L 511.9637580848817 92.65779740156158 L 510.88465915422177 91.80710439800055 L 509.87563132923543 90.87436867076458 L 508.94289560199945 89.86534084577822 L 508.0922025984384 88.78624191511828 L 507.3287971238034 87.64372488252911 L 506.65738582670355 86.44483374544207 L 506.0821081810525 85.19696006638907 L 505.6065109648348 83.90779740156158 L 505.2335263930407 82.58529386747834 L 504.9654540395851 81.23760313820404 L 504.80394665967026 79.8730341752373 L 504.75 78.5 L 504.80394665967026 77.12696582476272 L 504.9654540395851 75.76239686179596 L 505.2335263930407 74.41470613252166 L 505.6065109648348 73.09220259843842 L 506.0821081810525 71.80303993361093 L 506.65738582670355 70.55516625455793 L 507.3287971238034 69.3562751174709 L 508.0922025984384 68.21375808488172 L 508.94289560199945 67.1346591542218 L 509.87563132923543 66.12563132923542 L 510.88465915422177 65.19289560199947 L 511.9637580848817 64.34220259843842 L 513.1062751174709 63.57879712380338 L 514.3051662545579 62.90738582670356 L 515.553039933611 62.332108181052476 L 516.8422025984385 61.856510964834804 L 518.1647061325217 61.48352639304065 L 519.512396861796 61.21545403958508 L 520.8769658247628 61.05394665967026 L 522.2500000000001 61 L 523.6230341752373 61.05394665967027 L 524.9876031382041 61.2154540395851 L 526.3352938674784 61.48352639304068 L 527.6577974015617 61.85651096483484 L 528.9469600663891 62.33210818105252 L 530.1948337454421 62.90738582670361 L 531.3937248825292 63.57879712380345 L 532.5362419151184 64.34220259843849 L 533.6153408457783 65.19289560199954 L 534.6243686707646 66.12563132923552 L 535.5571043980007 67.1346591542219 L 536.4077974015617 68.21375808488185 L 537.1712028761967 69.35627511747103 L 537.8426141732965 70.55516625455807 L 538.4178918189476 71.80303993361109 L 538.8934890351652 73.09220259843859 L 539.2664736069594 74.41470613252184 L 539.5345459604149 75.76239686179616 L 539.6960533403297 77.12696582476292 Z" fill-opacity="1" stroke-opacity="1" stroke-miterlimit="10" stroke-width="6"/><text fill="rgb(255,255,255)" stroke="none" font-family="times new roman" font-size="10px" font-style="normal" font-weight="normal" text-decoration="normal" x="522.25" y="83.5" text-anchor="middle" dominant-baseline="text-after-edge" fill-opacity="1">*39.2</text><path fill="rgb(69,90,100)" stroke="rgb(76,175,80)" paint-order="fill stroke markers" d=" M 913.125 142 L 913.125 162 L 1008.125 162 L 1008.125 142 Z" fill-opacity="1" stroke-opacity="1" stroke-miterlimit="10" stroke-width="6"/><text fill="rgb(255,255,255)" stroke="none" font-family="times new roman" font-size="10px" font-style="normal" font-weight="normal" text-decoration="normal" x="960.625" y="157" text-anchor="middle" dominant-baseline="text-after-edge" fill-opacity="1">42130482C&gt;A</text><path fill="rgb(69,90,100)" stroke="rgb(76,175,80)" paint-order="fill stroke markers" d=" M 847.375 142 L 889.875 142 L 889.875 142 A 5 5 0 0 1 894.875 147 L 894.875 157 L 894.875 157 A 5 5 0 0 1 889.875 162 L 804.875 162 L 804.875 162 A 5 5 0 0 1 799.875 157 L 799.875 147 L 799.875 147 A 5 5 0 0 1 804.875 142 L 847.375 142 Z" fill-opacity="1" stroke-opacity="1" stroke-miterlimit="10" stroke-width="2"/><text fill="rgb(255,255,255)" stroke="none" font-family="times new roman" font-size="10px" font-style="normal" font-weight="normal" text-decoration="normal" x="847.375" y="157" text-anchor="middle" dominant-baseline="text-after-edge" fill-opacity="1">42132049dup</text><path fill="rgb(69,90,100)" stroke="rgb(76,175,80)" paint-order="fill stroke markers" d=" M 1027.875 142 L 1027.875 162 L 1122.875 162 L 1122.875 142 Z" fill-opacity="1" stroke-opacity="1" stroke-miterlimit="10" stroke-width="6"/><text fill="rgb(255,255,255)" stroke="none" font-family="times new roman" font-size="10px" font-style="normal" font-weight="normal" text-decoration="normal" x="1075.375" y="157" text-anchor="middle" dominant-baseline="text-after-edge" fill-opacity="1">42129950A&gt;C</text><path fill="rgb(176,190,197)" stroke="none" paint-order="stroke fill markers" d=" M 149.125 183.87500000000003 L 149.125 393.875 L 224.125 393.875 L 224.125 183.87500000000006 Z" fill-opacity="0.8"/><text fill="rgb(0,0,0)" stroke="none" font-family="times new roman" font-size="10px" font-style="normal" font-weight="normal" text-decoration="normal" x="154.125" y="198.875" text-anchor="start" dominant-baseline="text-after-edge" fill-opacity="0.8">42126310C&gt;T </text><text fill="rgb(0,0,0)" stroke="none" font-family="times new roman" font-size="10px" font-style="normal" font-weight="normal" text-decoration="normal" x="154.125" y="208.875" text-anchor="start" dominant-baseline="text-after-edge" fill-opacity="0.8">42127001G&gt;A </text><text fill="rgb(0,0,0)" stroke="none" font-family="times new roman" font-size="10px" font-style="normal" font-weight="normal" text-decoration="normal" x="154.125" y="218.875" text-anchor="start" dominant-baseline="text-after-edge" fill-opacity="0.8">42127207C&gt;T </text><text fill="rgb(0,0,0)" stroke="none" font-family="times new roman" font-size="10px" font-style="normal" font-weight="normal" text-decoration="normal" x="154.125" y="228.875" text-anchor="start" dominant-baseline="text-after-edge" fill-opacity="0.8">42129130C&gt;G </text><text fill="rgb(0,0,0)" stroke="none" font-family="times new roman" font-size="10px" font-style="normal" font-weight="normal" text-decoration="normal" x="154.125" y="238.875" text-anchor="start" dominant-baseline="text-after-edge" fill-opacity="0.8">42131469C&gt;T </text><text fill="rgb(0,0,0)" stroke="none" font-family="times new roman" font-size="10px" font-style="normal" font-weight="normal" text-decoration="normal" x="154.125" y="248.875" text-anchor="start" dominant-baseline="text-after-edge" fill-opacity="0.8">42131531G&gt;A </text><text fill="rgb(0,0,0)" stroke="none" font-family="times new roman" font-size="10px" font-style="normal" font-weight="normal" text-decoration="normal" x="154.125" y="258.875" text-anchor="start" dominant-baseline="text-after-edge" fill-opacity="0.8">42132026T&gt;C </text><text fill="rgb(0,0,0)" stroke="none" font-family="times new roman" font-size="10px" font-style="normal" font-weight="normal" text-decoration="normal" x="154.125" y="268.875" text-anchor="start" dominant-baseline="text-after-edge" fill-opacity="0.8">42132375G&gt;C </text><path fill="rgb(176,190,197)" stroke="none" paint-order="stroke fill markers" d=" M 790.75 183.875 L 857.75 183.875 L 857.75 183.875 A 8 8 0 0 1 865.75 191.875 L 865.75 385.875 L 865.75 385.875 A 8 8 0 0 1 857.75 393.875 L 723.75 393.875 L 723.75 393.875 A 8 8 0 0 1 715.75 385.875 L 715.75 191.875 L 715.75 191.875 A 8 8 0 0 1 723.75 183.875 L 790.75 183.875 Z" fill-opacity="0.8"/><text fill="rgb(0,0,0)" stroke="none" font-family="times new roman" font-size="10px" font-style="normal" font-weight="normal" text-decoration="normal" x="720.75" y="198.875" text-anchor="start" dominant-baseline="text-after-edge" fill-opacity="0.8">42125924A&gt;G </text><text fill="rgb(0,0,0)" stroke="none" font-family="times new roman" font-size="10px" font-style="normal" font-weight="normal" text-decoration="normal" x="720.75" y="208.875" text-anchor="start" dominant-baseline="text-after-edge" fill-opacity="0.8">42126069A&gt;C </text><text fill="rgb(0,0,0)" stroke="none" font-family="times new roman" font-size="10px" font-style="normal" font-weight="normal" text-decoration="normal" x="720.75" y="218.875" text-anchor="start" dominant-baseline="text-after-edge" fill-opacity="0.8">42126136_42126138del </text><text fill="rgb(0,0,0)" stroke="none" font-family="times new roman" font-size="10px" font-style="normal" font-weight="normal" text-decoration="normal" x="720.75" y="228.875" text-anchor="start" dominant-baseline="text-after-edge" fill-opacity="0.8">42132025_42132026insCCTTTT </text><text fill="rgb(0,0,0)" stroke="none" font-family="times new roman" font-size="10px" font-style="normal" font-weight="normal" text-decoration="normal" x="720.75" y="238.875" text-anchor="start" dominant-baseline="text-after-edge" fill-opacity="0.8">42132027C&gt;T </text><text fill="rgb(0,0,0)" stroke="none" font-family="times new roman" font-size="10px" font-style="normal" font-weight="normal" text-decoration="normal" x="720.75" y="248.875" text-anchor="start" dominant-baseline="text-after-edge" fill-opacity="0.8">42132561C&gt;T </text><text fill="rgb(0,0,0)" stroke="none" font-family="times new roman" font-size="10px" font-style="normal" font-weight="normal" text-decoration="normal" x="720.75" y="258.875" text-anchor="start" dominant-baseline="text-after-edge" fill-opacity="0.8">42132844C&gt;A </text><text fill="rgb(0,0,0)" stroke="none" font-family="times new roman" font-size="10px" font-style="normal" font-weight="normal" text-decoration="normal" x="720.75" y="268.875" text-anchor="start" dominant-baseline="text-after-edge" fill-opacity="0.8">42132851T&gt;C </text><text fill="rgb(0,0,0)" stroke="none" font-family="times new roman" font-size="10px" font-style="normal" font-weight="normal" text-decoration="normal" x="720.75" y="278.875" text-anchor="start" dominant-baseline="text-after-edge" fill-opacity="0.8">42133330C&gt;T </text><text fill="rgb(0,0,0)" stroke="none" font-family="times new roman" font-size="10px" font-style="normal" font-weight="normal" text-decoration="normal" x="720.75" y="288.875" text-anchor="start" dominant-baseline="text-after-edge" fill-opacity="0.8">42133400T&gt;G </text><text fill="rgb(0,0,0)" stroke="none" font-family="times new roman" font-size="10px" font-style="normal" font-weight="normal" text-decoration="normal" x="720.75" y="298.875" text-anchor="start" dominant-baseline="text-after-edge" fill-opacity="0.8">42133533A&gt;C </text><text fill="rgb(0,0,0)" stroke="none" font-family="times new roman" font-size="10px" font-style="normal" font-weight="normal" text-decoration="normal" x="720.75" y="308.875" text-anchor="start" dominant-baseline="text-after-edge" fill-opacity="0.8">42134096del </text><text fill="rgb(0,0,0)" stroke="none" font-family="times new roman" font-size="10px" font-style="normal" font-weight="normal" text-decoration="normal" x="720.75" y="318.875" text-anchor="start" dominant-baseline="text-after-edge" fill-opacity="0.8">42134820T&gt;G </text><text fill="rgb(0,0,0)" stroke="none" font-family="times new roman" font-size="10px" font-style="normal" font-weight="normal" text-decoration="normal" x="720.75" y="328.875" text-anchor="start" dominant-baseline="text-after-edge" fill-opacity="0.8">42135064_42135066dup </text><text fill="rgb(0,0,0)" stroke="none" font-family="times new roman" font-size="10px" font-style="normal" font-weight="normal" text-decoration="normal" x="720.75" y="338.875" text-anchor="start" dominant-baseline="text-after-edge" fill-opacity="0.8">42135201T&gt;C </text><text fill="rgb(0,0,0)" stroke="none" font-family="times new roman" font-size="10px" font-style="normal" font-weight="normal" text-decoration="normal" x="720.75" y="348.875" text-anchor="start" dominant-baseline="text-after-edge" fill-opacity="0.8">42135691T&gt;C </text><g transform="scale(1.0227272727272727,1.0227272727272727) translate(114.83333333333326,-61.02222222222224)"/></g></svg>