<svg version="1.1" xmlns="http://www.w3.org/2000/svg" xmlns:xlink="http://www.w3.org/1999/xlink" width="1017" height="608"><defs/><g transform="translate(308.53804582792907,-51.38261997405965) scale(1.8953739731949848,1.8953739731949848)"><path fill="none" stroke="rgb(55,71,79)" paint-order="fill stroke markers" d=" M 64.875 65.9375 L 64.875 157.4375" stroke-opacity="1" stroke-linejoin="round" stroke-miterlimit="10" stroke-width="2"/><path fill="none" stroke="rgb(120,144,156)" paint-order="fill stroke markers" d=" M 72.64667776458293 203.11521459649276 L 103.8556746328742 292.17503492795805" stroke-opacity="1" stroke-linejoin="round" stroke-miterlimit="10"/><path fill="rgb(120,144,156)" stroke="none" paint-order="stroke fill markers" d=" M 97.53468316404658 287.2906140972957 L 104.51709401709402 294.0625 L 105.74515622742899 284.4134397759395 Z" fill-opacity="1"/><path fill="none" stroke="rgb(120,144,156)" paint-order="fill stroke markers" d=" M 120.3301282051282 285.9375 L 118.1443253671258 292.17503492795805" stroke-opacity="1" stroke-linejoin="round" stroke-miterlimit="10"/><path fill="rgb(120,144,156)" stroke="none" paint-order="stroke fill markers" d=" M 116.254843772571 284.4134397759395 L 117.48290598290598 294.0625 L 124.46531683595342 287.2906140972957 Z" fill-opacity="1"/><path fill="rgb(69,90,100)" stroke="rgb(69,90,100)" paint-order="fill stroke markers" d=" M 92.25 295.0625 L 73.5 312.5625 L 92.24999999999999 330.0625 L 129.74999999999997 330.0625 L 148.5 312.5625 L 129.75000000000006 295.0625 Z" fill-opacity="1" stroke-opacity="1" stroke-miterlimit="10" stroke-width="2"/><text fill="rgb(255,255,255)" stroke="none" font-family="times new roman" font-size="10px" font-style="normal" font-weight="normal" text-decoration="normal" x="111" y="317.5625" text-anchor="middle" dominant-baseline="text-after-edge" fill-opacity="1">NA19777-A</text><path fill="rgb(69,90,100)" stroke="rgb(158,158,158)" paint-order="fill stroke markers" d=" M 17.375000000000014 44.9375 L 17.375 64.9375 L 112.37499999999997 64.9375 L 112.375 44.9375 Z" fill-opacity="1" stroke-opacity="1" stroke-miterlimit="10" stroke-width="2"/><text fill="rgb(255,255,255)" stroke="none" font-family="times new roman" font-size="10px" font-style="normal" font-weight="normal" text-decoration="normal" x="64.875" y="59.9375" text-anchor="middle" dominant-baseline="text-after-edge" fill-opacity="1">42129819G&gt;T</text><path fill="rgb(69,90,100)" stroke="rgb(158,158,158)" paint-order="fill stroke markers" d=" M 87.375 180.9375 L 87.30564000899538 182.7028296538765 L 87.0979876633906 184.45727546340518 L 86.75332320894772 186.19002068675786 L 86.27377161664096 187.89038237343632 L 85.66228948150395 189.54787722821453 L 84.92264679423828 191.15228624413982 L 84.05940369796707 192.69371770610886 L 83.07788237343632 194.16266817658064 L 81.98413422600069 195.55008108742913 L 80.78490257669732 196.8474025766973 L 79.48758108742913 198.0466342260007 L 78.10016817658064 199.14038237343632 L 76.63121770610886 200.12190369796707 L 75.0897862441398 200.9851467942383 L 73.48537722821452 201.72478948150396 L 71.82788237343632 202.33627161664094 L 70.12752068675788 202.81582320894773 L 68.3947754634052 203.1604876633906 L 66.6403296538765 203.36814000899537 L 64.875 203.4375 L 63.109670346123494 203.36814000899537 L 61.355224536594804 203.1604876633906 L 59.62247931324213 202.81582320894773 L 57.92211762656368 202.33627161664094 L 56.26462277178548 201.72478948150396 L 54.6602137558602 200.9851467942383 L 53.11878229389115 200.12190369796707 L 51.649831823419355 199.14038237343632 L 50.26241891257087 198.0466342260007 L 48.96509742330268 196.84740257669733 L 47.76586577399931 195.55008108742913 L 46.67211762656369 194.16266817658064 L 45.69059630203293 192.69371770610886 L 44.827353205761725 191.15228624413982 L 44.08771051849605 189.54787722821453 L 43.47622838335904 187.89038237343632 L 42.99667679105228 186.19002068675786 L 42.6520123366094 184.4572754634052 L 42.44435999100462 182.7028296538765 L 42.375 180.9375 L 42.44435999100462 179.1721703461235 L 42.6520123366094 177.41772453659482 L 42.99667679105227 175.68497931324214 L 43.47622838335904 173.98461762656368 L 44.087710518496046 172.32712277178547 L 44.827353205761725 170.7227137558602 L 45.69059630203292 169.18128229389114 L 46.672117626563676 167.71233182341936 L 47.7658657739993 166.32491891257087 L 48.96509742330268 165.0275974233027 L 50.26241891257086 163.8283657739993 L 51.64983182341935 162.73461762656368 L 53.11878229389116 161.75309630203293 L 54.66021375586021 160.8898532057617 L 56.264622771785504 160.15021051849604 L 57.92211762656372 159.53872838335903 L 59.622479313242174 159.05917679105227 L 61.35522453659486 158.7145123366094 L 63.10967034612356 158.5068599910046 L 64.87500000000007 158.4375 L 66.64032965387659 158.50685999100463 L 68.3947754634053 158.7145123366094 L 70.12752068675798 159.0591767910523 L 71.82788237343642 159.53872838335909 L 73.48537722821463 160.1502105184961 L 75.08978624413993 160.8898532057618 L 76.63121770610897 161.753096302033 L 78.10016817658077 162.73461762656376 L 79.48758108742926 163.82836577399942 L 80.78490257669745 165.0275974233028 L 81.98413422600082 166.324918912571 L 83.07788237343644 167.7123318234195 L 84.05940369796718 169.18128229389131 L 84.92264679423837 170.72271375586038 L 85.66228948150405 172.3271227717857 L 86.27377161664103 173.9846176265639 L 86.75332320894778 175.68497931324237 L 87.09798766339064 177.41772453659505 L 87.3056400089954 179.17217034612375 Z" fill-opacity="1" stroke-opacity="1" stroke-miterlimit="10" stroke-width="2"/><text fill="rgb(255,255,255)" stroke="none" font-family="times new roman" font-size="15px" font-style="normal" font-weight="normal" text-decoration="normal" x="64.875" y="188.4375" text-anchor="middle" dominant-baseline="text-after-edge" fill-opacity="1">*74</text><path fill="rgb(3,169,244)" stroke="none" paint-order="stroke fill markers" d=" M 64.875 148.4375 L 89.375 148.4375 L 89.375 148.4375 A 8 8 0 0 1 97.375 156.4375 L 97.375 205.4375 L 97.375 205.4375 A 8 8 0 0 1 89.375 213.4375 L 40.375 213.4375 L 40.375 213.4375 A 8 8 0 0 1 32.375 205.4375 L 32.375 156.4375 L 32.375 156.4375 A 8 8 0 0 1 40.375 148.4375 L 64.875 148.4375 Z" fill-opacity="0.15"/><path fill="rgb(176,190,197)" stroke="none" paint-order="stroke fill markers" d=" M 119.62500000000001 75.93750000000003 L 119.625 285.9375 L 194.625 285.9375 L 194.625 75.93750000000004 Z" fill-opacity="0.8"/><text fill="rgb(0,0,0)" stroke="none" font-family="times new roman" font-size="10px" font-style="normal" font-weight="normal" text-decoration="normal" x="124.625" y="90.9375" text-anchor="start" dominant-baseline="text-after-edge" fill-opacity="0.8">42129757A&gt;G </text><text fill="rgb(0,0,0)" stroke="none" font-family="times new roman" font-size="10px" font-style="normal" font-weight="normal" text-decoration="normal" x="124.625" y="100.9375" text-anchor="start" dominant-baseline="text-after-edge" fill-opacity="0.8">42129765T&gt;C </text><text fill="rgb(0,0,0)" stroke="none" font-family="times new roman" font-size="10px" font-style="normal" font-weight="normal" text-decoration="normal" x="124.625" y="110.9375" text-anchor="start" dominant-baseline="text-after-edge" fill-opacity="0.8">42129771T&gt;A </text><text fill="rgb(0,0,0)" stroke="none" font-family="times new roman" font-size="10px" font-style="normal" font-weight="normal" text-decoration="normal" x="124.625" y="120.9375" text-anchor="start" dominant-baseline="text-after-edge" fill-opacity="0.8">42129779A&gt;G </text><text fill="rgb(0,0,0)" stroke="none" font-family="times new roman" font-size="10px" font-style="normal" font-weight="normal" text-decoration="normal" x="124.625" y="130.9375" text-anchor="start" dominant-baseline="text-after-edge" fill-opacity="0.8">42129796G&gt;C </text><text fill="rgb(0,0,0)" stroke="none" font-family="times new roman" font-size="10px" font-style="normal" font-weight="normal" text-decoration="normal" x="124.625" y="140.9375" text-anchor="start" dominant-baseline="text-after-edge" fill-opacity="0.8">42129809T&gt;C </text><g transform="scale(0.5276003649635037,0.5276003649635037) translate(-308.53804582792907,51.38261997405965)"/></g></svg>