<svg version="1.1" xmlns="http://www.w3.org/2000/svg" xmlns:xlink="http://www.w3.org/1999/xlink" width="1017" height="608"><defs/><g transform="translate(21.939919557566554,-49.761689291101106) scale(2.20412267471091,2.20412267471091)"><path fill="none" stroke="rgb(120,144,156)" paint-order="fill stroke markers" d=" M 101.52036516853931 209.5625 L 131.41778943430091 245.2788860356078" stroke-opacity="1" stroke-linejoin="round" stroke-miterlimit="10"/><path fill="rgb(120,144,156)" stroke="none" paint-order="stroke fill markers" d=" M 123.78159810485813 242.9334474880984 L 132.70154494382024 246.8125 L 130.45281884996425 237.34911102168937 Z" fill-opacity="1"/><path fill="none" stroke="rgb(120,144,156)" paint-order="fill stroke markers" d=" M 168.65384615384616 131.5625 L 275.2553566435176 188.8573686869552" stroke-opacity="1" stroke-linejoin="round" stroke-miterlimit="10"/><path fill="rgb(120,144,156)" stroke="none" paint-order="stroke fill markers" d=" M 267.2943721703382 189.5170854578478 L 277.0170291661012 189.80421076627664 L 271.4131352153865 181.85380998460892 Z" fill-opacity="1"/><path fill="none" stroke="rgb(120,144,156)" paint-order="fill stroke markers" d=" M 248.21091552571264 135.6018988546861 L 281.37439090394 181.89722018805054" stroke-opacity="1" stroke-linejoin="round" stroke-miterlimit="10"/><path fill="rgb(120,144,156)" stroke="none" paint-order="stroke fill markers" d=" M 273.9363763612287 178.98372749672367 L 282.53908447428734 183.5231011453139 L 281.0089585253243 173.91731046571286 Z" fill-opacity="1"/><path fill="none" stroke="rgb(120,144,156)" paint-order="fill stroke markers" d=" M 194.8546348314607 209.5625 L 164.95721056569909 245.27888603560783" stroke-opacity="1" stroke-linejoin="round" stroke-miterlimit="10"/><path fill="rgb(120,144,156)" stroke="none" paint-order="stroke fill markers" d=" M 165.92218115003575 237.3491110216894 L 163.67345505617976 246.81250000000003 L 172.59340189514185 242.93344748809844 Z" fill-opacity="1"/><path fill="none" stroke="rgb(120,144,156)" paint-order="fill stroke markers" d=" M 335.5023505484191 139.6666012478445 L 305.25060909606 181.89722018805054" stroke-opacity="1" stroke-linejoin="round" stroke-miterlimit="10"/><path fill="rgb(120,144,156)" stroke="none" paint-order="stroke fill markers" d=" M 305.6160414746756 173.91731046571286 L 304.08591552571266 183.5231011453139 L 312.6886236387713 178.98372749672365 Z" fill-opacity="1"/><path fill="none" stroke="rgb(55,71,79)" paint-order="fill stroke markers" d=" M 349.1875 59.18749999999999 L 349.1875 97.0625" stroke-opacity="1" stroke-linejoin="round" stroke-miterlimit="10" stroke-width="2"/><path fill="none" stroke="rgb(120,144,156)" paint-order="fill stroke markers" d=" M 276.5050968653673 206.29303684228586 L 176.04275101570377 252.50052408063237" stroke-opacity="1" stroke-linejoin="round" stroke-miterlimit="10"/><path fill="rgb(120,144,156)" stroke="none" paint-order="stroke fill markers" d=" M 180.31203565019544 245.74880513582332 L 174.22573446060835 253.33625779331192 L 183.94747730035147 253.65282715048843 Z" fill-opacity="1"/><path fill="none" stroke="rgb(55,71,79)" paint-order="fill stroke markers" d=" M 237.4375 59.18749999999999 L 237.4375 102.0625" stroke-opacity="1" stroke-linejoin="round" stroke-miterlimit="10" stroke-width="2"/><path fill="rgb(69,90,100)" stroke="rgb(76,175,80)" paint-order="fill stroke markers" d=" M 100.68750000000001 110.5625 L 100.6875 130.5625 L 195.68749999999997 130.5625 L 195.6875 110.5625 Z" fill-opacity="1" stroke-opacity="1" stroke-miterlimit="10" stroke-width="2"/><text fill="rgb(255,255,255)" stroke="none" font-family="times new roman" font-size="10px" font-style="normal" font-weight="normal" text-decoration="normal" x="148.1875" y="125.5625" text-anchor="middle" dominant-baseline="text-after-edge" fill-opacity="1">42128433T&gt;A</text><path fill="rgb(69,90,100)" stroke="rgb(76,175,80)" paint-order="fill stroke markers" d=" M 254.9375 120.5625 L 254.88355334032974 121.93553417523728 L 254.7220459604149 123.30010313820404 L 254.45397360695935 124.64779386747834 L 254.08098903516517 125.97029740156158 L 253.6053918189475 127.25946006638907 L 253.03011417329643 128.50733374544205 L 252.35870287619662 129.7062248825291 L 251.5952974015616 130.84874191511827 L 250.74460439800055 131.9278408457782 L 249.81186867076457 132.93686867076457 L 248.8028408457782 133.86960439800055 L 247.72374191511827 134.7202974015616 L 246.5812248825291 135.48370287619662 L 245.38233374544208 136.15511417329643 L 244.13446006638907 136.7303918189475 L 242.8452974015616 137.20598903516517 L 241.52279386747836 137.57897360695935 L 240.17510313820404 137.8470459604149 L 238.81053417523728 138.00855334032974 L 237.4375 138.0625 L 236.06446582476272 138.00855334032974 L 234.69989686179596 137.8470459604149 L 233.35220613252164 137.57897360695935 L 232.02970259843843 137.2059890351652 L 230.74053993361093 136.7303918189475 L 229.49266625455795 136.15511417329643 L 228.2937751174709 135.48370287619662 L 227.15125808488173 134.7202974015616 L 226.0721591542218 133.86960439800055 L 225.06313132923543 132.93686867076457 L 224.13039560199945 131.9278408457782 L 223.27970259843843 130.8487419151183 L 222.51629712380338 129.7062248825291 L 221.84488582670357 128.50733374544208 L 221.2696081810525 127.25946006638907 L 220.79401096483483 125.97029740156158 L 220.42102639304065 124.64779386747834 L 220.1529540395851 123.30010313820404 L 219.99144665967026 121.9355341752373 L 219.9375 120.5625 L 219.99144665967026 119.18946582476272 L 220.1529540395851 117.82489686179596 L 220.42102639304065 116.47720613252166 L 220.7940109648348 115.15470259843842 L 221.2696081810525 113.86553993361093 L 221.84488582670357 112.61766625455793 L 222.51629712380338 111.4187751174709 L 223.2797025984384 110.27625808488172 L 224.13039560199945 109.1971591542218 L 225.0631313292354 108.18813132923542 L 226.07215915422177 107.25539560199947 L 227.1512580848817 106.40470259843842 L 228.2937751174709 105.64129712380338 L 229.49266625455795 104.96988582670356 L 230.74053993361096 104.39460818105248 L 232.02970259843843 103.9190109648348 L 233.3522061325217 103.54602639304065 L 234.699896861796 103.27795403958508 L 236.06446582476278 103.11644665967026 L 237.43750000000006 103.0625 L 238.81053417523736 103.11644665967026 L 240.17510313820412 103.2779540395851 L 241.5227938674784 103.54602639304068 L 242.84529740156165 103.91901096483484 L 244.13446006638915 104.39460818105252 L 245.38233374544217 104.9698858267036 L 246.5812248825292 105.64129712380344 L 247.72374191511838 106.40470259843849 L 248.80284084577832 107.25539560199954 L 249.81186867076468 108.18813132923552 L 250.74460439800063 109.1971591542219 L 251.59529740156168 110.27625808488185 L 252.3587028761967 111.41877511747103 L 253.0301141732965 112.61766625455807 L 253.6053918189476 113.86553993361109 L 254.08098903516523 115.15470259843859 L 254.45397360695938 116.47720613252184 L 254.72204596041493 117.82489686179616 L 254.88355334032974 119.18946582476292 Z" fill-opacity="1" stroke-opacity="1" stroke-miterlimit="10" stroke-width="2"/><text fill="rgb(255,255,255)" stroke="none" font-family="times new roman" font-size="10px" font-style="normal" font-weight="normal" text-decoration="normal" x="237.4375" y="125.5625" text-anchor="middle" dominant-baseline="text-after-edge" fill-opacity="1">*1.24</text><path fill="rgb(69,90,100)" stroke="rgb(244,67,54)" paint-order="fill stroke markers" d=" M 310.8125 198.5625 L 310.75855334032974 199.93553417523728 L 310.5970459604149 201.30010313820404 L 310.3289736069593 202.64779386747836 L 309.9559890351652 203.97029740156157 L 309.4803918189475 205.25946006638907 L 308.90511417329645 206.50733374544205 L 308.2337028761966 207.7062248825291 L 307.4702974015616 208.84874191511827 L 306.61960439800055 209.9278408457782 L 305.68686867076457 210.93686867076457 L 304.67784084577823 211.86960439800055 L 303.5987419151183 212.7202974015616 L 302.4562248825291 213.48370287619662 L 301.25733374544205 214.15511417329643 L 300.00946006638907 214.7303918189475 L 298.7202974015616 215.20598903516517 L 297.39779386747836 215.57897360695935 L 296.05010313820407 215.8470459604149 L 294.6855341752373 216.00855334032974 L 293.3125 216.0625 L 291.9394658247627 216.00855334032974 L 290.57489686179593 215.8470459604149 L 289.22720613252164 215.57897360695935 L 287.9047025984384 215.2059890351652 L 286.61553993361093 214.7303918189475 L 285.36766625455795 214.15511417329643 L 284.1687751174709 213.48370287619662 L 283.0262580848817 212.7202974015616 L 281.94715915422177 211.86960439800055 L 280.93813132923543 210.93686867076457 L 280.00539560199945 209.9278408457782 L 279.1547025984384 208.8487419151183 L 278.3912971238034 207.7062248825291 L 277.71988582670355 206.50733374544208 L 277.1446081810525 205.25946006638907 L 276.6690109648348 203.9702974015616 L 276.2960263930407 202.64779386747836 L 276.0279540395851 201.30010313820404 L 275.86644665967026 199.93553417523728 L 275.8125 198.5625 L 275.86644665967026 197.18946582476272 L 276.0279540395851 195.82489686179596 L 276.2960263930407 194.47720613252164 L 276.6690109648348 193.15470259843843 L 277.1446081810525 191.86553993361093 L 277.71988582670355 190.61766625455795 L 278.3912971238034 189.4187751174709 L 279.1547025984384 188.27625808488173 L 280.00539560199945 187.1971591542218 L 280.93813132923543 186.18813132923543 L 281.94715915422177 185.25539560199945 L 283.0262580848817 184.40470259843843 L 284.1687751174709 183.64129712380338 L 285.36766625455795 182.96988582670355 L 286.61553993361093 182.3946081810525 L 287.90470259843846 181.9190109648348 L 289.2272061325217 181.54602639304065 L 290.574896861796 181.2779540395851 L 291.93946582476275 181.11644665967026 L 293.31250000000006 181.0625 L 294.68553417523736 181.11644665967026 L 296.0501031382041 181.2779540395851 L 297.3977938674784 181.54602639304068 L 298.72029740156165 181.91901096483485 L 300.0094600663892 182.39460818105252 L 301.25733374544217 182.9698858267036 L 302.4562248825292 183.64129712380344 L 303.59874191511835 184.4047025984385 L 304.6778408457783 185.25539560199954 L 305.6868686707647 186.18813132923552 L 306.61960439800066 187.1971591542219 L 307.47029740156165 188.27625808488185 L 308.2337028761967 189.41877511747103 L 308.9051141732965 190.6176662545581 L 309.48039181894757 191.8655399336111 L 309.95598903516526 193.1547025984386 L 310.3289736069594 194.47720613252184 L 310.59704596041496 195.82489686179616 L 310.75855334032974 197.18946582476292 Z" fill-opacity="1" stroke-opacity="1" stroke-miterlimit="10" stroke-width="2"/><text fill="rgb(255,255,255)" stroke="none" font-family="times new roman" font-size="10px" font-style="normal" font-weight="normal" text-decoration="normal" x="293.3125" y="203.5625" text-anchor="middle" dominant-baseline="text-after-edge" fill-opacity="1">*15.2</text><path fill="rgb(69,90,100)" stroke="rgb(244,67,54)" paint-order="fill stroke markers" d=" M 301.6875 38.1875 L 301.6875 58.1875 L 396.6875 58.1875 L 396.6875 38.1875 Z" fill-opacity="1" stroke-opacity="1" stroke-miterlimit="10" stroke-width="2"/><text fill="rgb(255,255,255)" stroke="none" font-family="times new roman" font-size="10px" font-style="normal" font-weight="normal" text-decoration="normal" x="349.1875" y="53.1875" text-anchor="middle" dominant-baseline="text-after-edge" fill-opacity="1">42130655dup</text><path fill="rgb(69,90,100)" stroke="rgb(244,67,54)" paint-order="fill stroke markers" d=" M 371.6875 120.5625 L 371.6181400089954 122.3278296538765 L 371.4104876633906 124.0822754634052 L 371.06582320894773 125.81502068675788 L 370.58627161664094 127.51538237343631 L 369.97478948150393 129.17287722821453 L 369.2351467942383 130.77728624413982 L 368.37190369796707 132.31871770610886 L 367.3903823734363 133.78766817658064 L 366.2966342260007 135.17508108742913 L 365.09740257669733 136.4724025766973 L 363.80008108742913 137.6716342260007 L 362.41266817658067 138.76538237343632 L 360.9437177061088 139.74690369796707 L 359.4022862441398 140.6101467942383 L 357.79787722821453 141.34978948150396 L 356.1403823734363 141.96127161664094 L 354.44002068675786 142.44082320894773 L 352.7072754634052 142.7854876633906 L 350.9528296538765 142.99314000899537 L 349.1875 143.0625 L 347.4221703461235 142.99314000899537 L 345.6677245365948 142.7854876633906 L 343.93497931324214 142.44082320894773 L 342.2346176265637 141.96127161664094 L 340.57712277178547 141.34978948150396 L 338.9727137558602 140.6101467942383 L 337.4312822938912 139.74690369796707 L 335.96233182341933 138.76538237343632 L 334.57491891257087 137.6716342260007 L 333.27759742330267 136.47240257669733 L 332.0783657739993 135.17508108742913 L 330.9846176265637 133.78766817658064 L 330.00309630203293 132.31871770610886 L 329.1398532057617 130.77728624413982 L 328.40021051849607 129.17287722821453 L 327.78872838335906 127.51538237343632 L 327.30917679105227 125.81502068675788 L 326.9645123366094 124.0822754634052 L 326.7568599910046 122.32782965387652 L 326.6875 120.5625 L 326.7568599910046 118.7971703461235 L 326.9645123366094 117.0427245365948 L 327.30917679105227 115.30997931324214 L 327.78872838335906 113.60961762656369 L 328.40021051849607 111.95212277178548 L 329.1398532057617 110.3477137558602 L 330.00309630203293 108.80628229389116 L 330.9846176265637 107.33733182341936 L 332.0783657739993 105.94991891257087 L 333.27759742330267 104.65259742330268 L 334.57491891257087 103.45336577399931 L 335.96233182341933 102.35961762656369 L 337.4312822938912 101.37809630203293 L 338.97271375586024 100.51485320576171 L 340.5771227717855 99.77521051849604 L 342.2346176265637 99.16372838335903 L 343.9349793132422 98.68417679105227 L 345.66772453659485 98.33951233660939 L 347.42217034612355 98.13185999100462 L 349.18750000000006 98.0625 L 350.9528296538766 98.13185999100463 L 352.70727546340527 98.33951233660942 L 354.440020686758 98.6841767910523 L 356.1403823734364 99.16372838335909 L 357.79787722821465 99.7752105184961 L 359.40228624413993 100.51485320576178 L 360.943717706109 101.378096302033 L 362.4126681765808 102.35961762656378 L 363.80008108742925 103.45336577399941 L 365.09740257669745 104.65259742330281 L 366.29663422600083 105.94991891257101 L 367.3903823734364 107.3373318234195 L 368.3719036979672 108.80628229389133 L 369.2351467942384 110.34771375586038 L 369.97478948150405 111.95212277178568 L 370.58627161664106 113.6096176265639 L 371.0658232089478 115.30997931324237 L 371.41048766339065 117.04272453659506 L 371.6181400089954 118.79717034612375 Z" fill-opacity="1" stroke-opacity="1" stroke-miterlimit="10" stroke-width="2"/><text fill="rgb(255,255,255)" stroke="none" font-family="times new roman" font-size="15px" font-style="normal" font-weight="normal" text-decoration="normal" x="349.1875" y="128.0625" text-anchor="middle" dominant-baseline="text-after-edge" fill-opacity="1">*15</text><path fill="rgb(3,169,244)" stroke="none" paint-order="stroke fill markers" d=" M 349.1875 88.0625 L 373.6875 88.0625 L 373.6875 88.0625 A 8 8 0 0 1 381.6875 96.0625 L 381.6875 145.0625 L 381.6875 145.0625 A 8 8 0 0 1 373.6875 153.0625 L 324.6875 153.0625 L 324.6875 153.0625 A 8 8 0 0 1 316.6875 145.0625 L 316.6875 96.0625 L 316.6875 96.0625 A 8 8 0 0 1 324.6875 88.0625 L 349.1875 88.0625 Z" fill-opacity="0.15"/><path fill="rgb(69,90,100)" stroke="rgb(224,224,224)" paint-order="fill stroke markers" d=" M 92.3125 188.5625 L 134.8125 188.5625 L 134.8125 188.5625 A 5 5 0 0 1 139.8125 193.5625 L 139.8125 203.5625 L 139.8125 203.5625 A 5 5 0 0 1 134.8125 208.5625 L 49.8125 208.5625 L 49.8125 208.5625 A 5 5 0 0 1 44.8125 203.5625 L 44.8125 193.5625 L 44.8125 193.5625 A 5 5 0 0 1 49.8125 188.5625 L 92.3125 188.5625 Z" fill-opacity="1" stroke-opacity="1" stroke-miterlimit="10" stroke-width="2"/><text fill="rgb(255,255,255)" stroke="none" font-family="times new roman" font-size="10px" font-style="normal" font-weight="normal" text-decoration="normal" x="92.3125" y="203.5625" text-anchor="middle" dominant-baseline="text-after-edge" fill-opacity="1">42125860C&gt;T</text><path fill="rgb(69,90,100)" stroke="rgb(76,175,80)" paint-order="fill stroke markers" d=" M 189.9375 38.1875 L 189.9375 58.1875 L 284.9375 58.1875 L 284.9375 38.1875 Z" fill-opacity="1" stroke-opacity="1" stroke-miterlimit="10" stroke-width="2"/><text fill="rgb(255,255,255)" stroke="none" font-family="times new roman" font-size="10px" font-style="normal" font-weight="normal" text-decoration="normal" x="237.4375" y="53.1875" text-anchor="middle" dominant-baseline="text-after-edge" fill-opacity="1">42130839dup</text><path fill="rgb(69,90,100)" stroke="rgb(69,90,100)" paint-order="fill stroke markers" d=" M 129.4375 247.8125 L 110.6875 265.3125 L 129.43749999999997 282.8125 L 166.93749999999997 282.8125 L 185.6875 265.3125 L 166.93750000000006 247.81250000000003 Z" fill-opacity="1" stroke-opacity="1" stroke-miterlimit="10" stroke-width="2"/><text fill="rgb(255,255,255)" stroke="none" font-family="times new roman" font-size="10px" font-style="normal" font-weight="normal" text-decoration="normal" x="148.1875" y="270.3125" text-anchor="middle" dominant-baseline="text-after-edge" fill-opacity="1">NA19239-A</text><path fill="rgb(69,90,100)" stroke="rgb(224,224,224)" paint-order="fill stroke markers" d=" M 204.0625 188.5625 L 246.5625 188.5625 L 246.5625 188.5625 A 5 5 0 0 1 251.5625 193.5625 L 251.5625 203.5625 L 251.5625 203.5625 A 5 5 0 0 1 246.5625 208.5625 L 161.5625 208.5625 L 161.5625 208.5625 A 5 5 0 0 1 156.5625 203.5625 L 156.5625 193.5625 L 156.5625 193.5625 A 5 5 0 0 1 161.5625 188.5625 L 204.0625 188.5625 Z" fill-opacity="1" stroke-opacity="1" stroke-miterlimit="10" stroke-width="2"/><text fill="rgb(255,255,255)" stroke="none" font-family="times new roman" font-size="10px" font-style="normal" font-weight="normal" text-decoration="normal" x="204.0625" y="203.5625" text-anchor="middle" dominant-baseline="text-after-edge" fill-opacity="1">42135176A&gt;G</text><g transform="scale(0.4536952554744525,0.4536952554744525) translate(-21.939919557566554,49.761689291101106)"/></g></svg>