<svg version="1.1" xmlns="http://www.w3.org/2000/svg" xmlns:xlink="http://www.w3.org/1999/xlink" width="1017" height="608"><defs/><g transform="translate(-113.27278507842311,35.16913946587533) scale(1.0818143281051293,1.0818143281051293)"><path fill="none" stroke="rgb(55,71,79)" paint-order="fill stroke markers" d=" M 535.3456632653061 91.5 L 559.7579273259075 130.40084354372266" stroke-opacity="1" stroke-linejoin="round" stroke-miterlimit="10" stroke-width="2"/><path fill="none" stroke="rgb(120,144,156)" paint-order="fill stroke markers" d=" M 208.4375 304.79096130592507 L 452.5156147133611 408.38397008995133" stroke-opacity="1" stroke-linejoin="round" stroke-miterlimit="10"/><path fill="rgb(120,144,156)" stroke="none" paint-order="stroke fill markers" d=" M 444.6486095650869 409.7705954889061 L 454.3566569849816 409.1653556248229 L 448.0476366417782 401.76206160735705 Z" fill-opacity="1"/><path fill="none" stroke="rgb(55,71,79)" paint-order="fill stroke markers" d=" M 350.84566326530614 91.5 L 375.2579273259076 130.40084354372266" stroke-opacity="1" stroke-linejoin="round" stroke-miterlimit="10" stroke-width="2"/><path fill="none" stroke="rgb(120,144,156)" paint-order="fill stroke markers" d=" M 672.5590753424658 163 L 718.7530010029473 270.05258962587754" stroke-opacity="1" stroke-linejoin="round" stroke-miterlimit="10"/><path fill="rgb(120,144,156)" stroke="none" paint-order="stroke fill markers" d=" M 712.1044703489138 265.6243235834658 L 719.5453911490011 271.88892234530414 L 720.0925176784193 262.1774264481312 Z" fill-opacity="1"/><path fill="none" stroke="rgb(120,144,156)" paint-order="fill stroke markers" d=" M 857.5618150684932 165 L 911.5074851148943 268.90590800494147" stroke-opacity="1" stroke-linejoin="round" stroke-miterlimit="10"/><path fill="rgb(120,144,156)" stroke="none" paint-order="stroke fill markers" d=" M 904.5595784522848 264.9639423775334 L 912.4290419935703 270.68093840450223 L 912.2809606903741 260.9551699552925 Z" fill-opacity="1"/><path fill="none" stroke="rgb(120,144,156)" paint-order="fill stroke markers" d=" M 369.3125 341.7364457831325 L 457.2169724271507 403.6932124938352" stroke-opacity="1" stroke-linejoin="round" stroke-miterlimit="10"/><path fill="rgb(120,144,156)" stroke="none" paint-order="stroke fill markers" d=" M 449.2344978021029 403.3889118851143 L 458.85172650636355 404.84541868219605 L 454.2465947214726 396.2777316405385 Z" fill-opacity="1"/><path fill="none" stroke="rgb(120,144,156)" paint-order="fill stroke markers" d=" M 753.9388945364675 171.97178691348353 L 731.4986054635325 268.9032130865164" stroke-opacity="1" stroke-linejoin="round" stroke-miterlimit="10"/><path fill="rgb(120,144,156)" stroke="none" paint-order="stroke fill markers" d=" M 728.7718192943624 261.3947420578966 L 731.0475220036757 270.85168010246605 L 737.2476508137433 263.35695510827384 Z" fill-opacity="1"/><path fill="none" stroke="rgb(55,71,79)" paint-order="fill stroke markers" d=" M 758.5625 91.5 L 758.5625 131.5" stroke-opacity="1" stroke-linejoin="round" stroke-miterlimit="10" stroke-width="2"/><path fill="none" stroke="rgb(120,144,156)" paint-order="fill stroke markers" d=" M 481.0625 314.375 L 481.0625 400" stroke-opacity="1" stroke-linejoin="round" stroke-miterlimit="10"/><path fill="rgb(120,144,156)" stroke="none" paint-order="stroke fill markers" d=" M 476.7125 393.3 L 481.0625 402 L 485.4125 393.3 Z" fill-opacity="1"/><path fill="none" stroke="rgb(120,144,156)" paint-order="fill stroke markers" d=" M 294.3125 163 L 294.3125 181.875" stroke-opacity="1" stroke-linejoin="round" stroke-miterlimit="10"/><path fill="rgb(120,144,156)" stroke="none" paint-order="stroke fill markers" d=" M 289.9625 175.175 L 294.3125 183.875 L 298.6625 175.175 Z" fill-opacity="1"/><path fill="none" stroke="rgb(120,144,156)" paint-order="fill stroke markers" d=" M 403.0641293543564 173.1457102208946 L 465.69309579432155 266.0708027029568" stroke-opacity="1" stroke-linejoin="round" stroke-miterlimit="10"/><path fill="rgb(120,144,156)" stroke="none" paint-order="stroke fill markers" d=" M 458.3413406517694 262.9460312994845 L 466.8108706456436 267.7292897791054 L 465.5557594330158 258.0837106962335 Z" fill-opacity="1"/><path fill="none" stroke="rgb(120,144,156)" paint-order="fill stroke markers" d=" M 710.5659564094476 297.6079890164514 L 507.5498633761046 406.31683517160536" stroke-opacity="1" stroke-linejoin="round" stroke-miterlimit="10"/><path fill="rgb(120,144,156)" stroke="none" paint-order="stroke fill markers" d=" M 511.40294931313906 399.3192478186795 L 505.7867235284773 407.2609420923028 L 515.5098144181729 406.9889061558583 Z" fill-opacity="1"/><path fill="none" stroke="rgb(120,144,156)" paint-order="fill stroke markers" d=" M 902.231988803338 294.74033128883735 L 512.3524726508351 411.15692862573957" stroke-opacity="1" stroke-linejoin="round" stroke-miterlimit="10"/><path fill="rgb(120,144,156)" stroke="none" paint-order="stroke fill markers" d=" M 517.527788939186 405.07181553594984 L 510.43608131457546 411.729156068553 L 520.0169783154244 413.4081178486795 Z" fill-opacity="1"/><path fill="none" stroke="rgb(55,71,79)" paint-order="fill stroke markers" d=" M 481.0625 172.5 L 481.0625 263.375" stroke-opacity="1" stroke-linejoin="round" stroke-miterlimit="10" stroke-width="2"/><path fill="none" stroke="rgb(120,144,156)" paint-order="fill stroke markers" d=" M 559.0608706456436 173.1457102208946 L 496.43190420567845 266.0708027029568" stroke-opacity="1" stroke-linejoin="round" stroke-miterlimit="10"/><path fill="rgb(120,144,156)" stroke="none" paint-order="stroke fill markers" d=" M 496.5692405669842 258.0837106962335 L 495.3141293543564 267.7292897791054 L 503.7836593482306 262.9460312994845 Z" fill-opacity="1"/><path fill="none" stroke="rgb(120,144,156)" paint-order="fill stroke markers" d=" M 961.4131849315069 165 L 928.71647089201 267.4403487074368" stroke-opacity="1" stroke-linejoin="round" stroke-miterlimit="10"/><path fill="rgb(120,144,156)" stroke="none" paint-order="stroke fill markers" d=" M 926.6096763077351 259.7349015056405 L 928.1083401460535 269.3456510445535 L 934.8977414741929 262.380270250551 Z" fill-opacity="1"/><path fill="none" stroke="rgb(55,71,79)" paint-order="fill stroke markers" d=" M 608.8523448916085 95.82411613907041 L 586.9458636714138 130.4504896806685" stroke-opacity="1" stroke-linejoin="round" stroke-miterlimit="10" stroke-width="2"/><path fill="none" stroke="rgb(55,71,79)" paint-order="fill stroke markers" d=" M 424.04068667376885 95.86402773936021 L 402.3670726740924 130.40084354372266" stroke-opacity="1" stroke-linejoin="round" stroke-miterlimit="10" stroke-width="2"/><path fill="rgb(69,90,100)" stroke="rgb(76,175,80)" paint-order="fill stroke markers" d=" M 776.0625 152 L 776.0085533403297 153.37303417523728 L 775.8470459604149 154.73760313820404 L 775.5789736069594 156.08529386747836 L 775.2059890351652 157.40779740156157 L 774.7303918189475 158.69696006638907 L 774.1551141732964 159.94483374544205 L 773.4837028761966 161.1437248825291 L 772.7202974015615 162.28624191511827 L 771.8696043980005 163.3653408457782 L 770.9368686707646 164.37436867076457 L 769.9278408457782 165.30710439800055 L 768.8487419151182 166.1577974015616 L 767.7062248825291 166.92120287619662 L 766.5073337454421 167.59261417329643 L 765.2594600663891 168.1678918189475 L 763.9702974015615 168.64348903516517 L 762.6477938674783 169.01647360695935 L 761.300103138204 169.2845459604149 L 759.9355341752373 169.44605334032974 L 758.5625 169.5 L 757.1894658247627 169.44605334032974 L 755.824896861796 169.2845459604149 L 754.4772061325217 169.01647360695935 L 753.1547025984385 168.6434890351652 L 751.8655399336109 168.1678918189475 L 750.6176662545579 167.59261417329643 L 749.4187751174709 166.92120287619662 L 748.2762580848818 166.1577974015616 L 747.1971591542218 165.30710439800055 L 746.1881313292354 164.37436867076457 L 745.2553956019995 163.3653408457782 L 744.4047025984385 162.2862419151183 L 743.6412971238034 161.1437248825291 L 742.9698858267036 159.94483374544208 L 742.3946081810525 158.69696006638907 L 741.9190109648348 157.4077974015616 L 741.5460263930406 156.08529386747836 L 741.2779540395851 154.73760313820404 L 741.1164466596703 153.37303417523728 L 741.0625 152 L 741.1164466596703 150.62696582476272 L 741.2779540395851 149.26239686179596 L 741.5460263930406 147.91470613252164 L 741.9190109648348 146.59220259843843 L 742.3946081810525 145.30303993361093 L 742.9698858267036 144.05516625455795 L 743.6412971238034 142.8562751174709 L 744.4047025984385 141.71375808488173 L 745.2553956019995 140.6346591542218 L 746.1881313292354 139.62563132923543 L 747.1971591542218 138.69289560199945 L 748.2762580848818 137.84220259843843 L 749.4187751174709 137.07879712380338 L 750.6176662545579 136.40738582670355 L 751.865539933611 135.8321081810525 L 753.1547025984385 135.3565109648348 L 754.4772061325217 134.98352639304065 L 755.824896861796 134.7154540395851 L 757.1894658247628 134.55394665967026 L 758.5625000000001 134.5 L 759.9355341752373 134.55394665967026 L 761.3001031382041 134.7154540395851 L 762.6477938674784 134.98352639304068 L 763.9702974015617 135.35651096483485 L 765.2594600663891 135.83210818105252 L 766.5073337454421 136.4073858267036 L 767.7062248825292 137.07879712380344 L 768.8487419151184 137.8422025984385 L 769.9278408457783 138.69289560199954 L 770.9368686707646 139.62563132923552 L 771.8696043980007 140.6346591542219 L 772.7202974015617 141.71375808488185 L 773.4837028761967 142.85627511747103 L 774.1551141732965 144.0551662545581 L 774.7303918189476 145.3030399336111 L 775.2059890351652 146.5922025984386 L 775.5789736069594 147.91470613252184 L 775.8470459604149 149.26239686179616 L 776.0085533403297 150.62696582476292 Z" fill-opacity="1" stroke-opacity="1" stroke-miterlimit="10" stroke-width="6"/><text fill="rgb(255,255,255)" stroke="none" font-family="times new roman" font-size="10px" font-style="normal" font-weight="normal" text-decoration="normal" x="758.5625" y="157" text-anchor="middle" dominant-baseline="text-after-edge" fill-opacity="1">*1.41</text><path fill="rgb(69,90,100)" stroke="rgb(76,175,80)" paint-order="fill stroke markers" d=" M 411.3125 152 L 411.2431400089954 153.7653296538765 L 411.0354876633906 155.51977546340518 L 410.69082320894773 157.25252068675786 L 410.21127161664094 158.95288237343632 L 409.59978948150393 160.61037722821453 L 408.8601467942383 162.21478624413982 L 407.99690369796707 163.75621770610886 L 407.0153823734363 165.22516817658064 L 405.9216342260007 166.61258108742913 L 404.72240257669733 167.9099025766973 L 403.42508108742913 169.1091342260007 L 402.03766817658067 170.20288237343632 L 400.5687177061088 171.18440369796707 L 399.0272862441398 172.0476467942383 L 397.42287722821453 172.78728948150396 L 395.7653823734363 173.39877161664094 L 394.06502068675786 173.87832320894773 L 392.3322754634052 174.2229876633906 L 390.5778296538765 174.43064000899537 L 388.8125 174.5 L 387.0471703461235 174.43064000899537 L 385.2927245365948 174.2229876633906 L 383.55997931324214 173.87832320894773 L 381.8596176265637 173.39877161664094 L 380.20212277178547 172.78728948150396 L 378.5977137558602 172.0476467942383 L 377.0562822938912 171.18440369796707 L 375.58733182341933 170.20288237343632 L 374.19991891257087 169.1091342260007 L 372.90259742330267 167.90990257669733 L 371.7033657739993 166.61258108742913 L 370.6096176265637 165.22516817658064 L 369.62809630203293 163.75621770610886 L 368.7648532057617 162.21478624413982 L 368.02521051849607 160.61037722821453 L 367.41372838335906 158.95288237343632 L 366.93417679105227 157.25252068675786 L 366.5895123366094 155.5197754634052 L 366.3818599910046 153.7653296538765 L 366.3125 152 L 366.3818599910046 150.2346703461235 L 366.5895123366094 148.48022453659482 L 366.93417679105227 146.74747931324214 L 367.41372838335906 145.04711762656368 L 368.02521051849607 143.38962277178547 L 368.7648532057617 141.7852137558602 L 369.62809630203293 140.24378229389114 L 370.6096176265637 138.77483182341936 L 371.7033657739993 137.38741891257087 L 372.90259742330267 136.0900974233027 L 374.19991891257087 134.8908657739993 L 375.58733182341933 133.79711762656368 L 377.0562822938912 132.81559630203293 L 378.59771375586024 131.9523532057617 L 380.2021227717855 131.21271051849604 L 381.8596176265637 130.60122838335903 L 383.5599793132422 130.12167679105227 L 385.29272453659485 129.7770123366094 L 387.04717034612355 129.5693599910046 L 388.81250000000006 129.5 L 390.5778296538766 129.56935999100463 L 392.33227546340527 129.7770123366094 L 394.065020686758 130.1216767910523 L 395.7653823734364 130.60122838335909 L 397.42287722821465 131.2127105184961 L 399.02728624413993 131.9523532057618 L 400.568717706109 132.815596302033 L 402.0376681765808 133.79711762656376 L 403.42508108742925 134.89086577399942 L 404.72240257669745 136.0900974233028 L 405.92163422600083 137.387418912571 L 407.0153823734364 138.7748318234195 L 407.9969036979672 140.24378229389131 L 408.8601467942384 141.78521375586038 L 409.59978948150405 143.3896227717857 L 410.21127161664106 145.0471176265639 L 410.6908232089478 146.74747931324237 L 411.03548766339065 148.48022453659505 L 411.2431400089954 150.23467034612375 Z" fill-opacity="1" stroke-opacity="1" stroke-miterlimit="10" stroke-width="6"/><text fill="rgb(255,255,255)" stroke="none" font-family="times new roman" font-size="15px" font-style="normal" font-weight="normal" text-decoration="normal" x="388.8125" y="159.5" text-anchor="middle" dominant-baseline="text-after-edge" fill-opacity="1">*39</text><path fill="rgb(69,90,100)" stroke="rgb(76,175,80)" paint-order="fill stroke markers" d=" M 711.0625 68.5 L 711.0625 88.5 L 806.0625 88.5 L 806.0625 68.5 Z" fill-opacity="1" stroke-opacity="1" stroke-miterlimit="10" stroke-width="6"/><text fill="rgb(255,255,255)" stroke="none" font-family="times new roman" font-size="10px" font-style="normal" font-weight="normal" text-decoration="normal" x="758.5625" y="83.5" text-anchor="middle" dominant-baseline="text-after-edge" fill-opacity="1">42127407T&gt;G</text><path fill="rgb(69,90,100)" stroke="rgb(76,175,80)" paint-order="fill stroke markers" d=" M 744.375 288.875 L 744.3210533403297 290.2480341752373 L 744.1595459604149 291.61260313820407 L 743.8914736069594 292.96029386747836 L 743.5184890351652 294.2827974015616 L 743.0428918189475 295.57196006638907 L 742.4676141732964 296.81983374544205 L 741.7962028761966 298.0187248825291 L 741.0327974015615 299.1612419151183 L 740.1821043980005 300.24034084577823 L 739.2493686707646 301.24936867076457 L 738.2403408457782 302.18210439800055 L 737.1612419151182 303.0327974015616 L 736.0187248825291 303.7962028761966 L 734.8198337454421 304.46761417329645 L 733.5719600663891 305.0428918189475 L 732.2827974015615 305.5184890351652 L 730.9602938674783 305.8914736069593 L 729.612603138204 306.1595459604149 L 728.2480341752373 306.32105334032974 L 726.875 306.375 L 725.5019658247627 306.32105334032974 L 724.137396861796 306.1595459604149 L 722.7897061325217 305.8914736069593 L 721.4672025984385 305.5184890351652 L 720.1780399336109 305.0428918189475 L 718.9301662545579 304.46761417329645 L 717.7312751174709 303.7962028761966 L 716.5887580848818 303.0327974015616 L 715.5096591542218 302.18210439800055 L 714.5006313292354 301.24936867076457 L 713.5678956019995 300.24034084577823 L 712.7172025984385 299.1612419151183 L 711.9537971238034 298.0187248825291 L 711.2823858267036 296.81983374544205 L 710.7071081810525 295.57196006638907 L 710.2315109648348 294.2827974015616 L 709.8585263930406 292.96029386747836 L 709.5904540395851 291.61260313820407 L 709.4289466596703 290.2480341752373 L 709.375 288.875 L 709.4289466596703 287.5019658247627 L 709.5904540395851 286.13739686179593 L 709.8585263930406 284.78970613252164 L 710.2315109648348 283.4672025984384 L 710.7071081810525 282.17803993361093 L 711.2823858267036 280.93016625455795 L 711.9537971238034 279.7312751174709 L 712.7172025984385 278.5887580848817 L 713.5678956019995 277.50965915422177 L 714.5006313292354 276.50063132923543 L 715.5096591542218 275.56789560199945 L 716.5887580848818 274.7172025984384 L 717.7312751174709 273.9537971238034 L 718.9301662545579 273.28238582670355 L 720.178039933611 272.7071081810525 L 721.4672025984385 272.2315109648348 L 722.7897061325217 271.8585263930407 L 724.137396861796 271.5904540395851 L 725.5019658247628 271.42894665967026 L 726.8750000000001 271.375 L 728.2480341752373 271.42894665967026 L 729.6126031382041 271.5904540395851 L 730.9602938674784 271.8585263930407 L 732.2827974015617 272.23151096483485 L 733.5719600663891 272.7071081810525 L 734.8198337454421 273.2823858267036 L 736.0187248825292 273.95379712380344 L 737.1612419151184 274.7172025984385 L 738.2403408457783 275.56789560199957 L 739.2493686707646 276.5006313292355 L 740.1821043980007 277.5096591542219 L 741.0327974015617 278.5887580848818 L 741.7962028761967 279.73127511747106 L 742.4676141732965 280.93016625455806 L 743.0428918189476 282.1780399336111 L 743.5184890351652 283.4672025984386 L 743.8914736069594 284.7897061325218 L 744.1595459604149 286.13739686179616 L 744.3210533403297 287.5019658247629 Z" fill-opacity="1" stroke-opacity="1" stroke-miterlimit="10" stroke-width="2"/><text fill="rgb(255,255,255)" stroke="none" font-family="times new roman" font-size="10px" font-style="normal" font-weight="normal" text-decoration="normal" x="726.875" y="293.875" text-anchor="middle" dominant-baseline="text-after-edge" fill-opacity="1">*1.54</text><path fill="rgb(69,90,100)" stroke="rgb(76,175,80)" paint-order="fill stroke markers" d=" M 637.3125 78.5 L 637.2585533403297 79.87303417523728 L 637.0970459604149 81.23760313820404 L 636.8289736069594 82.58529386747834 L 636.4559890351652 83.90779740156158 L 635.9803918189475 85.19696006638907 L 635.4051141732964 86.44483374544207 L 634.7337028761966 87.6437248825291 L 633.9702974015615 88.78624191511828 L 633.1196043980005 89.8653408457782 L 632.1868686707646 90.87436867076458 L 631.1778408457782 91.80710439800055 L 630.0987419151182 92.65779740156158 L 628.9562248825291 93.42120287619662 L 627.7573337454421 94.09261417329644 L 626.5094600663891 94.66789181894751 L 625.2202974015615 95.14348903516519 L 623.8977938674783 95.51647360695934 L 622.550103138204 95.7845459604149 L 621.1855341752373 95.94605334032974 L 619.8125 96 L 618.4394658247627 95.94605334032974 L 617.074896861796 95.7845459604149 L 615.7272061325217 95.51647360695934 L 614.4047025984385 95.14348903516519 L 613.1155399336109 94.66789181894751 L 611.8676662545579 94.09261417329644 L 610.6687751174709 93.42120287619662 L 609.5262580848818 92.65779740156158 L 608.4471591542218 91.80710439800055 L 607.4381313292354 90.87436867076458 L 606.5053956019995 89.86534084577822 L 605.6547025984385 88.78624191511828 L 604.8912971238034 87.64372488252911 L 604.2198858267036 86.44483374544207 L 603.6446081810525 85.19696006638907 L 603.1690109648348 83.90779740156158 L 602.7960263930406 82.58529386747834 L 602.5279540395851 81.23760313820404 L 602.3664466596703 79.8730341752373 L 602.3125 78.5 L 602.3664466596703 77.12696582476272 L 602.5279540395851 75.76239686179596 L 602.7960263930406 74.41470613252166 L 603.1690109648348 73.09220259843842 L 603.6446081810525 71.80303993361093 L 604.2198858267036 70.55516625455793 L 604.8912971238034 69.3562751174709 L 605.6547025984385 68.21375808488172 L 606.5053956019995 67.1346591542218 L 607.4381313292354 66.12563132923542 L 608.4471591542218 65.19289560199947 L 609.5262580848818 64.34220259843842 L 610.6687751174709 63.57879712380338 L 611.8676662545579 62.90738582670356 L 613.115539933611 62.332108181052476 L 614.4047025984385 61.856510964834804 L 615.7272061325217 61.48352639304065 L 617.074896861796 61.21545403958508 L 618.4394658247628 61.05394665967026 L 619.8125000000001 61 L 621.1855341752373 61.05394665967027 L 622.5501031382041 61.2154540395851 L 623.8977938674784 61.48352639304068 L 625.2202974015617 61.85651096483484 L 626.5094600663891 62.33210818105252 L 627.7573337454421 62.90738582670361 L 628.9562248825292 63.57879712380345 L 630.0987419151184 64.34220259843849 L 631.1778408457783 65.19289560199954 L 632.1868686707646 66.12563132923552 L 633.1196043980007 67.1346591542219 L 633.9702974015617 68.21375808488185 L 634.7337028761967 69.35627511747103 L 635.4051141732965 70.55516625455807 L 635.9803918189476 71.80303993361109 L 636.4559890351652 73.09220259843859 L 636.8289736069594 74.41470613252184 L 637.0970459604149 75.76239686179616 L 637.2585533403297 77.12696582476292 Z" fill-opacity="1" stroke-opacity="1" stroke-miterlimit="10" stroke-width="6"/><text fill="rgb(255,255,255)" stroke="none" font-family="times new roman" font-size="10px" font-style="normal" font-weight="normal" text-decoration="normal" x="619.8125" y="83.5" text-anchor="middle" dominant-baseline="text-after-edge" fill-opacity="1">*34.1</text><path fill="rgb(69,90,100)" stroke="rgb(76,175,80)" paint-order="fill stroke markers" d=" M 918.0625 142 L 918.0625 162 L 1013.0625 162 L 1013.0625 142 Z" fill-opacity="1" stroke-opacity="1" stroke-miterlimit="10" stroke-width="6"/><text fill="rgb(255,255,255)" stroke="none" font-family="times new roman" font-size="10px" font-style="normal" font-weight="normal" text-decoration="normal" x="965.5625" y="157" text-anchor="middle" dominant-baseline="text-after-edge" fill-opacity="1">42130482C&gt;A</text><path fill="rgb(69,90,100)" stroke="rgb(69,90,100)" paint-order="fill stroke markers" d=" M 462.3125 403 L 443.5625 420.5 L 462.3125 438 L 499.8125 438 L 518.5625 420.5 L 499.81250000000006 403 Z" fill-opacity="1" stroke-opacity="1" stroke-miterlimit="10" stroke-width="2"/><text fill="rgb(255,255,255)" stroke="none" font-family="times new roman" font-size="10px" font-style="normal" font-weight="normal" text-decoration="normal" x="481.0625" y="425.5" text-anchor="middle" dominant-baseline="text-after-edge" fill-opacity="1">NA19122-A</text><path fill="rgb(69,90,100)" stroke="rgb(76,175,80)" paint-order="fill stroke markers" d=" M 503.5625 288.875 L 503.4931400089954 290.6403296538765 L 503.2854876633906 292.3947754634052 L 502.94082320894773 294.12752068675786 L 502.46127161664094 295.8278823734363 L 501.84978948150393 297.48537722821453 L 501.1101467942383 299.0897862441398 L 500.24690369796707 300.6312177061088 L 499.2653823734363 302.10016817658067 L 498.1716342260007 303.48758108742913 L 496.97240257669733 304.78490257669733 L 495.67508108742913 305.9841342260007 L 494.28766817658067 307.0778823734363 L 492.8187177061088 308.05940369796707 L 491.2772862441398 308.9226467942383 L 489.67287722821453 309.66228948150393 L 488.0153823734363 310.27377161664094 L 486.31502068675786 310.75332320894773 L 484.5822754634052 311.0979876633906 L 482.8278296538765 311.3056400089954 L 481.0625 311.375 L 479.2971703461235 311.3056400089954 L 477.5427245365948 311.0979876633906 L 475.80997931324214 310.75332320894773 L 474.1096176265637 310.27377161664094 L 472.45212277178547 309.66228948150393 L 470.8477137558602 308.9226467942383 L 469.3062822938912 308.05940369796707 L 467.83733182341933 307.0778823734363 L 466.44991891257087 305.9841342260007 L 465.15259742330267 304.78490257669733 L 463.9533657739993 303.48758108742913 L 462.8596176265637 302.10016817658067 L 461.87809630203293 300.6312177061088 L 461.0148532057617 299.0897862441398 L 460.27521051849607 297.48537722821453 L 459.66372838335906 295.8278823734363 L 459.18417679105227 294.12752068675786 L 458.8395123366094 292.3947754634052 L 458.6318599910046 290.6403296538765 L 458.5625 288.875 L 458.6318599910046 287.1096703461235 L 458.8395123366094 285.3552245365948 L 459.18417679105227 283.62247931324214 L 459.66372838335906 281.9221176265637 L 460.27521051849607 280.26462277178547 L 461.0148532057617 278.6602137558602 L 461.87809630203293 277.1187822938912 L 462.8596176265637 275.64983182341933 L 463.9533657739993 274.26241891257087 L 465.15259742330267 272.96509742330267 L 466.44991891257087 271.76586577399934 L 467.83733182341933 270.6721176265637 L 469.3062822938912 269.69059630203293 L 470.84771375586024 268.8273532057617 L 472.4521227717855 268.087710518496 L 474.1096176265637 267.47622838335906 L 475.8099793132422 266.99667679105227 L 477.54272453659485 266.6520123366094 L 479.29717034612355 266.4443599910046 L 481.06250000000006 266.375 L 482.8278296538766 266.4443599910046 L 484.58227546340527 266.6520123366094 L 486.315020686758 266.9966767910523 L 488.0153823734364 267.47622838335906 L 489.67287722821465 268.0877105184961 L 491.27728624413993 268.82735320576177 L 492.818717706109 269.690596302033 L 494.2876681765808 270.67211762656376 L 495.67508108742925 271.7658657739994 L 496.97240257669745 272.9650974233028 L 498.17163422600083 274.262418912571 L 499.2653823734364 275.6498318234195 L 500.2469036979672 277.11878229389134 L 501.1101467942384 278.6602137558604 L 501.84978948150405 280.2646227717857 L 502.46127161664106 281.92211762656393 L 502.9408232089478 283.62247931324237 L 503.28548766339065 285.3552245365951 L 503.4931400089954 287.1096703461238 Z" fill-opacity="1" stroke-opacity="1" stroke-miterlimit="10" stroke-width="6"/><text fill="rgb(255,255,255)" stroke="none" font-family="times new roman" font-size="15px" font-style="normal" font-weight="normal" text-decoration="normal" x="481.0625" y="296.375" text-anchor="middle" dominant-baseline="text-after-edge" fill-opacity="1">*2</text><path fill="rgb(3,169,244)" stroke="none" paint-order="stroke fill markers" d=" M 481.0625 256.375 L 505.5625 256.375 L 505.5625 256.375 A 8 8 0 0 1 513.5625 264.375 L 513.5625 313.375 L 513.5625 313.375 A 8 8 0 0 1 505.5625 321.375 L 456.5625 321.375 L 456.5625 321.375 A 8 8 0 0 1 448.5625 313.375 L 448.5625 264.375 L 448.5625 264.375 A 8 8 0 0 1 456.5625 256.375 L 481.0625 256.375 Z" fill-opacity="0.15"/><path fill="rgb(69,90,100)" stroke="rgb(76,175,80)" paint-order="fill stroke markers" d=" M 294.3125 142 L 336.8125 142 L 336.8125 142 A 5 5 0 0 1 341.8125 147 L 341.8125 157 L 341.8125 157 A 5 5 0 0 1 336.8125 162 L 251.8125 162 L 251.8125 162 A 5 5 0 0 1 246.8125 157 L 246.8125 147 L 246.8125 147 A 5 5 0 0 1 251.8125 142 L 294.3125 142 Z" fill-opacity="1" stroke-opacity="1" stroke-miterlimit="10" stroke-width="2"/><text fill="rgb(255,255,255)" stroke="none" font-family="times new roman" font-size="10px" font-style="normal" font-weight="normal" text-decoration="normal" x="294.3125" y="157" text-anchor="middle" dominant-baseline="text-after-edge" fill-opacity="1">42132049dup</text><path fill="rgb(69,90,100)" stroke="rgb(76,175,80)" paint-order="fill stroke markers" d=" M 595.8125 152 L 595.7431400089954 153.7653296538765 L 595.5354876633907 155.51977546340518 L 595.1908232089477 157.25252068675786 L 594.7112716166409 158.95288237343632 L 594.099789481504 160.61037722821453 L 593.3601467942383 162.21478624413982 L 592.4969036979671 163.75621770610886 L 591.5153823734363 165.22516817658064 L 590.4216342260007 166.61258108742913 L 589.2224025766973 167.9099025766973 L 587.9250810874291 169.1091342260007 L 586.5376681765806 170.20288237343632 L 585.0687177061088 171.18440369796707 L 583.5272862441398 172.0476467942383 L 581.9228772282145 172.78728948150396 L 580.2653823734363 173.39877161664094 L 578.5650206867579 173.87832320894773 L 576.8322754634052 174.2229876633906 L 575.0778296538765 174.43064000899537 L 573.3125 174.5 L 571.5471703461235 174.43064000899537 L 569.7927245365948 174.2229876633906 L 568.0599793132421 173.87832320894773 L 566.3596176265637 173.39877161664094 L 564.7021227717855 172.78728948150396 L 563.0977137558602 172.0476467942383 L 561.5562822938912 171.18440369796707 L 560.0873318234194 170.20288237343632 L 558.6999189125709 169.1091342260007 L 557.4025974233027 167.90990257669733 L 556.2033657739993 166.61258108742913 L 555.1096176265637 165.22516817658064 L 554.1280963020329 163.75621770610886 L 553.2648532057617 162.21478624413982 L 552.525210518496 160.61037722821453 L 551.9137283833591 158.95288237343632 L 551.4341767910523 157.25252068675786 L 551.0895123366095 155.5197754634052 L 550.8818599910046 153.7653296538765 L 550.8125 152 L 550.8818599910046 150.2346703461235 L 551.0895123366093 148.48022453659482 L 551.4341767910523 146.74747931324214 L 551.9137283833591 145.04711762656368 L 552.525210518496 143.38962277178547 L 553.2648532057617 141.7852137558602 L 554.1280963020329 140.24378229389114 L 555.1096176265637 138.77483182341936 L 556.2033657739993 137.38741891257087 L 557.4025974233027 136.0900974233027 L 558.6999189125709 134.8908657739993 L 560.0873318234194 133.79711762656368 L 561.5562822938912 132.81559630203293 L 563.0977137558602 131.9523532057617 L 564.7021227717855 131.21271051849604 L 566.3596176265637 130.60122838335903 L 568.0599793132421 130.12167679105227 L 569.7927245365948 129.7770123366094 L 571.5471703461236 129.5693599910046 L 573.3125000000001 129.5 L 575.0778296538766 129.56935999100463 L 576.8322754634053 129.7770123366094 L 578.565020686758 130.1216767910523 L 580.2653823734364 130.60122838335909 L 581.9228772282146 131.2127105184961 L 583.5272862441399 131.9523532057618 L 585.0687177061089 132.815596302033 L 586.5376681765807 133.79711762656376 L 587.9250810874292 134.89086577399942 L 589.2224025766974 136.0900974233028 L 590.4216342260008 137.387418912571 L 591.5153823734364 138.7748318234195 L 592.4969036979671 140.24378229389131 L 593.3601467942384 141.78521375586038 L 594.099789481504 143.3896227717857 L 594.711271616641 145.0471176265639 L 595.1908232089478 146.74747931324237 L 595.5354876633907 148.48022453659505 L 595.7431400089954 150.23467034612375 Z" fill-opacity="1" stroke-opacity="1" stroke-miterlimit="10" stroke-width="6"/><text fill="rgb(255,255,255)" stroke="none" font-family="times new roman" font-size="15px" font-style="normal" font-weight="normal" text-decoration="normal" x="573.3125" y="159.5" text-anchor="middle" dominant-baseline="text-after-edge" fill-opacity="1">*34</text><path fill="rgb(69,90,100)" stroke="rgb(76,175,80)" paint-order="fill stroke markers" d=" M 803.3125 142 L 803.3125 162 L 898.3125 162 L 898.3125 142 Z" fill-opacity="1" stroke-opacity="1" stroke-miterlimit="10" stroke-width="6"/><text fill="rgb(255,255,255)" stroke="none" font-family="times new roman" font-size="10px" font-style="normal" font-weight="normal" text-decoration="normal" x="850.8125" y="157" text-anchor="middle" dominant-baseline="text-after-edge" fill-opacity="1">42129950A&gt;C</text><path fill="rgb(69,90,100)" stroke="rgb(158,158,158)" paint-order="fill stroke markers" d=" M 295.1875 68.5 L 295.1875 88.5 L 390.1875 88.5 L 390.1875 68.5 Z" fill-opacity="1" stroke-opacity="1" stroke-miterlimit="10" stroke-width="6"/><text fill="rgb(255,255,255)" stroke="none" font-family="times new roman" font-size="10px" font-style="normal" font-weight="normal" text-decoration="normal" x="342.6875" y="83.5" text-anchor="middle" dominant-baseline="text-after-edge" fill-opacity="1">42126611C&gt;G</text><path fill="rgb(69,90,100)" stroke="rgb(76,175,80)" paint-order="fill stroke markers" d=" M 498.5625 152 L 498.50855334032974 153.37303417523728 L 498.3470459604149 154.73760313820404 L 498.0789736069593 156.08529386747836 L 497.7059890351652 157.40779740156157 L 497.2303918189475 158.69696006638907 L 496.65511417329645 159.94483374544205 L 495.9837028761966 161.1437248825291 L 495.2202974015616 162.28624191511827 L 494.36960439800055 163.3653408457782 L 493.43686867076457 164.37436867076457 L 492.42784084577823 165.30710439800055 L 491.3487419151183 166.1577974015616 L 490.2062248825291 166.92120287619662 L 489.00733374544205 167.59261417329643 L 487.75946006638907 168.1678918189475 L 486.4702974015616 168.64348903516517 L 485.14779386747836 169.01647360695935 L 483.80010313820407 169.2845459604149 L 482.4355341752373 169.44605334032974 L 481.0625 169.5 L 479.6894658247627 169.44605334032974 L 478.32489686179593 169.2845459604149 L 476.97720613252164 169.01647360695935 L 475.6547025984384 168.6434890351652 L 474.36553993361093 168.1678918189475 L 473.11766625455795 167.59261417329643 L 471.9187751174709 166.92120287619662 L 470.7762580848817 166.1577974015616 L 469.69715915422177 165.30710439800055 L 468.68813132923543 164.37436867076457 L 467.75539560199945 163.3653408457782 L 466.9047025984384 162.2862419151183 L 466.1412971238034 161.1437248825291 L 465.46988582670355 159.94483374544208 L 464.8946081810525 158.69696006638907 L 464.4190109648348 157.4077974015616 L 464.0460263930407 156.08529386747836 L 463.7779540395851 154.73760313820404 L 463.61644665967026 153.37303417523728 L 463.5625 152 L 463.61644665967026 150.62696582476272 L 463.7779540395851 149.26239686179596 L 464.0460263930407 147.91470613252164 L 464.4190109648348 146.59220259843843 L 464.8946081810525 145.30303993361093 L 465.46988582670355 144.05516625455795 L 466.1412971238034 142.8562751174709 L 466.9047025984384 141.71375808488173 L 467.75539560199945 140.6346591542218 L 468.68813132923543 139.62563132923543 L 469.69715915422177 138.69289560199945 L 470.7762580848817 137.84220259843843 L 471.9187751174709 137.07879712380338 L 473.11766625455795 136.40738582670355 L 474.36553993361093 135.8321081810525 L 475.65470259843846 135.3565109648348 L 476.9772061325217 134.98352639304065 L 478.324896861796 134.7154540395851 L 479.68946582476275 134.55394665967026 L 481.06250000000006 134.5 L 482.43553417523736 134.55394665967026 L 483.8001031382041 134.7154540395851 L 485.1477938674784 134.98352639304068 L 486.47029740156165 135.35651096483485 L 487.7594600663892 135.83210818105252 L 489.00733374544217 136.4073858267036 L 490.2062248825292 137.07879712380344 L 491.34874191511835 137.8422025984385 L 492.4278408457783 138.69289560199954 L 493.4368686707647 139.62563132923552 L 494.36960439800066 140.6346591542219 L 495.22029740156165 141.71375808488185 L 495.9837028761967 142.85627511747103 L 496.6551141732965 144.0551662545581 L 497.23039181894757 145.3030399336111 L 497.70598903516526 146.5922025984386 L 498.0789736069594 147.91470613252184 L 498.34704596041496 149.26239686179616 L 498.50855334032974 150.62696582476292 Z" fill-opacity="1" stroke-opacity="1" stroke-miterlimit="10" stroke-width="6"/><text fill="rgb(255,255,255)" stroke="none" font-family="times new roman" font-size="10px" font-style="normal" font-weight="normal" text-decoration="normal" x="481.0625" y="157" text-anchor="middle" dominant-baseline="text-after-edge" fill-opacity="1">*2.4</text><path fill="rgb(69,90,100)" stroke="rgb(76,175,80)" paint-order="fill stroke markers" d=" M 452.4375 78.5 L 452.38355334032974 79.87303417523728 L 452.2220459604149 81.23760313820404 L 451.9539736069593 82.58529386747834 L 451.5809890351652 83.90779740156158 L 451.1053918189475 85.19696006638907 L 450.53011417329645 86.44483374544207 L 449.8587028761966 87.6437248825291 L 449.0952974015616 88.78624191511828 L 448.24460439800055 89.8653408457782 L 447.31186867076457 90.87436867076458 L 446.30284084577823 91.80710439800055 L 445.2237419151183 92.65779740156158 L 444.0812248825291 93.42120287619662 L 442.88233374544205 94.09261417329644 L 441.63446006638907 94.66789181894751 L 440.3452974015616 95.14348903516519 L 439.02279386747836 95.51647360695934 L 437.67510313820407 95.7845459604149 L 436.3105341752373 95.94605334032974 L 434.9375 96 L 433.5644658247627 95.94605334032974 L 432.19989686179593 95.7845459604149 L 430.85220613252164 95.51647360695934 L 429.5297025984384 95.14348903516519 L 428.24053993361093 94.66789181894751 L 426.99266625455795 94.09261417329644 L 425.7937751174709 93.42120287619662 L 424.6512580848817 92.65779740156158 L 423.57215915422177 91.80710439800055 L 422.56313132923543 90.87436867076458 L 421.63039560199945 89.86534084577822 L 420.7797025984384 88.78624191511828 L 420.0162971238034 87.64372488252911 L 419.34488582670355 86.44483374544207 L 418.7696081810525 85.19696006638907 L 418.2940109648348 83.90779740156158 L 417.9210263930407 82.58529386747834 L 417.6529540395851 81.23760313820404 L 417.49144665967026 79.8730341752373 L 417.4375 78.5 L 417.49144665967026 77.12696582476272 L 417.6529540395851 75.76239686179596 L 417.9210263930407 74.41470613252166 L 418.2940109648348 73.09220259843842 L 418.7696081810525 71.80303993361093 L 419.34488582670355 70.55516625455793 L 420.0162971238034 69.3562751174709 L 420.7797025984384 68.21375808488172 L 421.63039560199945 67.1346591542218 L 422.56313132923543 66.12563132923542 L 423.57215915422177 65.19289560199947 L 424.6512580848817 64.34220259843842 L 425.7937751174709 63.57879712380338 L 426.99266625455795 62.90738582670356 L 428.24053993361093 62.332108181052476 L 429.52970259843846 61.856510964834804 L 430.8522061325217 61.48352639304065 L 432.199896861796 61.21545403958508 L 433.56446582476275 61.05394665967026 L 434.93750000000006 61 L 436.31053417523736 61.05394665967027 L 437.6751031382041 61.2154540395851 L 439.0227938674784 61.48352639304068 L 440.34529740156165 61.85651096483484 L 441.6344600663892 62.33210818105252 L 442.88233374544217 62.90738582670361 L 444.0812248825292 63.57879712380345 L 445.22374191511835 64.34220259843849 L 446.3028408457783 65.19289560199954 L 447.3118686707647 66.12563132923552 L 448.24460439800066 67.1346591542219 L 449.09529740156165 68.21375808488185 L 449.8587028761967 69.35627511747103 L 450.5301141732965 70.55516625455807 L 451.10539181894757 71.80303993361109 L 451.58098903516526 73.09220259843859 L 451.9539736069594 74.41470613252184 L 452.22204596041496 75.76239686179616 L 452.38355334032974 77.12696582476292 Z" fill-opacity="1" stroke-opacity="1" stroke-miterlimit="10" stroke-width="6"/><text fill="rgb(255,255,255)" stroke="none" font-family="times new roman" font-size="10px" font-style="normal" font-weight="normal" text-decoration="normal" x="434.9375" y="83.5" text-anchor="middle" dominant-baseline="text-after-edge" fill-opacity="1">*39.2</text><path fill="rgb(69,90,100)" stroke="rgb(158,158,158)" paint-order="fill stroke markers" d=" M 479.6875 68.5 L 479.6875 88.5 L 574.6875 88.5 L 574.6875 68.5 Z" fill-opacity="1" stroke-opacity="1" stroke-miterlimit="10" stroke-width="6"/><text fill="rgb(255,255,255)" stroke="none" font-family="times new roman" font-size="10px" font-style="normal" font-weight="normal" text-decoration="normal" x="527.1875" y="83.5" text-anchor="middle" dominant-baseline="text-after-edge" fill-opacity="1">42127941G&gt;A</text><path fill="rgb(69,90,100)" stroke="rgb(76,175,80)" paint-order="fill stroke markers" d=" M 939.375 288.875 L 939.3210533403297 290.2480341752373 L 939.1595459604149 291.61260313820407 L 938.8914736069594 292.96029386747836 L 938.5184890351652 294.2827974015616 L 938.0428918189475 295.57196006638907 L 937.4676141732964 296.81983374544205 L 936.7962028761966 298.0187248825291 L 936.0327974015615 299.1612419151183 L 935.1821043980005 300.24034084577823 L 934.2493686707646 301.24936867076457 L 933.2403408457782 302.18210439800055 L 932.1612419151182 303.0327974015616 L 931.0187248825291 303.7962028761966 L 929.8198337454421 304.46761417329645 L 928.5719600663891 305.0428918189475 L 927.2827974015615 305.5184890351652 L 925.9602938674783 305.8914736069593 L 924.612603138204 306.1595459604149 L 923.2480341752373 306.32105334032974 L 921.875 306.375 L 920.5019658247627 306.32105334032974 L 919.137396861796 306.1595459604149 L 917.7897061325217 305.8914736069593 L 916.4672025984385 305.5184890351652 L 915.1780399336109 305.0428918189475 L 913.9301662545579 304.46761417329645 L 912.7312751174709 303.7962028761966 L 911.5887580848818 303.0327974015616 L 910.5096591542218 302.18210439800055 L 909.5006313292354 301.24936867076457 L 908.5678956019995 300.24034084577823 L 907.7172025984385 299.1612419151183 L 906.9537971238034 298.0187248825291 L 906.2823858267036 296.81983374544205 L 905.7071081810525 295.57196006638907 L 905.2315109648348 294.2827974015616 L 904.8585263930406 292.96029386747836 L 904.5904540395851 291.61260313820407 L 904.4289466596703 290.2480341752373 L 904.375 288.875 L 904.4289466596703 287.5019658247627 L 904.5904540395851 286.13739686179593 L 904.8585263930406 284.78970613252164 L 905.2315109648348 283.4672025984384 L 905.7071081810525 282.17803993361093 L 906.2823858267036 280.93016625455795 L 906.9537971238034 279.7312751174709 L 907.7172025984385 278.5887580848817 L 908.5678956019995 277.50965915422177 L 909.5006313292354 276.50063132923543 L 910.5096591542218 275.56789560199945 L 911.5887580848818 274.7172025984384 L 912.7312751174709 273.9537971238034 L 913.9301662545579 273.28238582670355 L 915.178039933611 272.7071081810525 L 916.4672025984385 272.2315109648348 L 917.7897061325217 271.8585263930407 L 919.137396861796 271.5904540395851 L 920.5019658247628 271.42894665967026 L 921.8750000000001 271.375 L 923.2480341752373 271.42894665967026 L 924.6126031382041 271.5904540395851 L 925.9602938674784 271.8585263930407 L 927.2827974015617 272.23151096483485 L 928.5719600663891 272.7071081810525 L 929.8198337454421 273.2823858267036 L 931.0187248825292 273.95379712380344 L 932.1612419151184 274.7172025984385 L 933.2403408457783 275.56789560199957 L 934.2493686707646 276.5006313292355 L 935.1821043980007 277.5096591542219 L 936.0327974015617 278.5887580848818 L 936.7962028761967 279.73127511747106 L 937.4676141732965 280.93016625455806 L 938.0428918189476 282.1780399336111 L 938.5184890351652 283.4672025984386 L 938.8914736069594 284.7897061325218 L 939.1595459604149 286.13739686179616 L 939.3210533403297 287.5019658247629 Z" fill-opacity="1" stroke-opacity="1" stroke-miterlimit="10" stroke-width="6"/><text fill="rgb(255,255,255)" stroke="none" font-family="times new roman" font-size="10px" font-style="normal" font-weight="normal" text-decoration="normal" x="921.875" y="293.875" text-anchor="middle" dominant-baseline="text-after-edge" fill-opacity="1">*1.58</text><path fill="rgb(69,90,100)" stroke="rgb(76,175,80)" paint-order="fill stroke markers" d=" M 620.3125 142 L 620.3125 162 L 715.3125 162 L 715.3125 142 Z" fill-opacity="1" stroke-opacity="1" stroke-miterlimit="10" stroke-width="2"/><text fill="rgb(255,255,255)" stroke="none" font-family="times new roman" font-size="10px" font-style="normal" font-weight="normal" text-decoration="normal" x="667.8125" y="157" text-anchor="middle" dominant-baseline="text-after-edge" fill-opacity="1">42130047G&gt;C</text><path fill="rgb(176,190,197)" stroke="none" paint-order="stroke fill markers" d=" M 133.4375 183.87500000000003 L 133.4375 393.875 L 208.4375 393.875 L 208.4375 183.87500000000006 Z" fill-opacity="0.8"/><text fill="rgb(0,0,0)" stroke="none" font-family="times new roman" font-size="10px" font-style="normal" font-weight="normal" text-decoration="normal" x="138.4375" y="198.875" text-anchor="start" dominant-baseline="text-after-edge" fill-opacity="0.8">42126310C&gt;T </text><text fill="rgb(0,0,0)" stroke="none" font-family="times new roman" font-size="10px" font-style="normal" font-weight="normal" text-decoration="normal" x="138.4375" y="208.875" text-anchor="start" dominant-baseline="text-after-edge" fill-opacity="0.8">42127001G&gt;A </text><text fill="rgb(0,0,0)" stroke="none" font-family="times new roman" font-size="10px" font-style="normal" font-weight="normal" text-decoration="normal" x="138.4375" y="218.875" text-anchor="start" dominant-baseline="text-after-edge" fill-opacity="0.8">42127207C&gt;T </text><text fill="rgb(0,0,0)" stroke="none" font-family="times new roman" font-size="10px" font-style="normal" font-weight="normal" text-decoration="normal" x="138.4375" y="228.875" text-anchor="start" dominant-baseline="text-after-edge" fill-opacity="0.8">42127412G&gt;A </text><text fill="rgb(0,0,0)" stroke="none" font-family="times new roman" font-size="10px" font-style="normal" font-weight="normal" text-decoration="normal" x="138.4375" y="238.875" text-anchor="start" dominant-baseline="text-after-edge" fill-opacity="0.8">42129130C&gt;G </text><text fill="rgb(0,0,0)" stroke="none" font-family="times new roman" font-size="10px" font-style="normal" font-weight="normal" text-decoration="normal" x="138.4375" y="248.875" text-anchor="start" dominant-baseline="text-after-edge" fill-opacity="0.8">42130994G&gt;A </text><text fill="rgb(0,0,0)" stroke="none" font-family="times new roman" font-size="10px" font-style="normal" font-weight="normal" text-decoration="normal" x="138.4375" y="258.875" text-anchor="start" dominant-baseline="text-after-edge" fill-opacity="0.8">42131469C&gt;T </text><text fill="rgb(0,0,0)" stroke="none" font-family="times new roman" font-size="10px" font-style="normal" font-weight="normal" text-decoration="normal" x="138.4375" y="268.875" text-anchor="start" dominant-baseline="text-after-edge" fill-opacity="0.8">42131531G&gt;A </text><text fill="rgb(0,0,0)" stroke="none" font-family="times new roman" font-size="10px" font-style="normal" font-weight="normal" text-decoration="normal" x="138.4375" y="278.875" text-anchor="start" dominant-baseline="text-after-edge" fill-opacity="0.8">42131540TC[3] </text><path fill="rgb(176,190,197)" stroke="none" paint-order="stroke fill markers" d=" M 294.3125 183.875 L 361.3125 183.875 L 361.3125 183.875 A 8 8 0 0 1 369.3125 191.875 L 369.3125 385.875 L 369.3125 385.875 A 8 8 0 0 1 361.3125 393.875 L 227.3125 393.875 L 227.3125 393.875 A 8 8 0 0 1 219.3125 385.875 L 219.3125 191.875 L 219.3125 191.875 A 8 8 0 0 1 227.3125 183.875 L 294.3125 183.875 Z" fill-opacity="0.8"/><text fill="rgb(0,0,0)" stroke="none" font-family="times new roman" font-size="10px" font-style="normal" font-weight="normal" text-decoration="normal" x="224.3125" y="198.875" text-anchor="start" dominant-baseline="text-after-edge" fill-opacity="0.8">42125924A&gt;G </text><text fill="rgb(0,0,0)" stroke="none" font-family="times new roman" font-size="10px" font-style="normal" font-weight="normal" text-decoration="normal" x="224.3125" y="208.875" text-anchor="start" dominant-baseline="text-after-edge" fill-opacity="0.8">42126069A&gt;C </text><text fill="rgb(0,0,0)" stroke="none" font-family="times new roman" font-size="10px" font-style="normal" font-weight="normal" text-decoration="normal" x="224.3125" y="218.875" text-anchor="start" dominant-baseline="text-after-edge" fill-opacity="0.8">42126136_42126138del </text><text fill="rgb(0,0,0)" stroke="none" font-family="times new roman" font-size="10px" font-style="normal" font-weight="normal" text-decoration="normal" x="224.3125" y="228.875" text-anchor="start" dominant-baseline="text-after-edge" fill-opacity="0.8">42127399T&gt;C </text><text fill="rgb(0,0,0)" stroke="none" font-family="times new roman" font-size="10px" font-style="normal" font-weight="normal" text-decoration="normal" x="224.3125" y="238.875" text-anchor="start" dominant-baseline="text-after-edge" fill-opacity="0.8">42127404del </text><text fill="rgb(0,0,0)" stroke="none" font-family="times new roman" font-size="10px" font-style="normal" font-weight="normal" text-decoration="normal" x="224.3125" y="248.875" text-anchor="start" dominant-baseline="text-after-edge" fill-opacity="0.8">42131688A&gt;G </text><text fill="rgb(0,0,0)" stroke="none" font-family="times new roman" font-size="10px" font-style="normal" font-weight="normal" text-decoration="normal" x="224.3125" y="258.875" text-anchor="start" dominant-baseline="text-after-edge" fill-opacity="0.8">42132027C&gt;T </text><text fill="rgb(0,0,0)" stroke="none" font-family="times new roman" font-size="10px" font-style="normal" font-weight="normal" text-decoration="normal" x="224.3125" y="268.875" text-anchor="start" dominant-baseline="text-after-edge" fill-opacity="0.8">42132561C&gt;T </text><text fill="rgb(0,0,0)" stroke="none" font-family="times new roman" font-size="10px" font-style="normal" font-weight="normal" text-decoration="normal" x="224.3125" y="278.875" text-anchor="start" dominant-baseline="text-after-edge" fill-opacity="0.8">42132844C&gt;A </text><text fill="rgb(0,0,0)" stroke="none" font-family="times new roman" font-size="10px" font-style="normal" font-weight="normal" text-decoration="normal" x="224.3125" y="288.875" text-anchor="start" dominant-baseline="text-after-edge" fill-opacity="0.8">42132851T&gt;C </text><text fill="rgb(0,0,0)" stroke="none" font-family="times new roman" font-size="10px" font-style="normal" font-weight="normal" text-decoration="normal" x="224.3125" y="298.875" text-anchor="start" dominant-baseline="text-after-edge" fill-opacity="0.8">42133400T&gt;G </text><text fill="rgb(0,0,0)" stroke="none" font-family="times new roman" font-size="10px" font-style="normal" font-weight="normal" text-decoration="normal" x="224.3125" y="308.875" text-anchor="start" dominant-baseline="text-after-edge" fill-opacity="0.8">42133533A&gt;C </text><text fill="rgb(0,0,0)" stroke="none" font-family="times new roman" font-size="10px" font-style="normal" font-weight="normal" text-decoration="normal" x="224.3125" y="318.875" text-anchor="start" dominant-baseline="text-after-edge" fill-opacity="0.8">42134096del </text><text fill="rgb(0,0,0)" stroke="none" font-family="times new roman" font-size="10px" font-style="normal" font-weight="normal" text-decoration="normal" x="224.3125" y="328.875" text-anchor="start" dominant-baseline="text-after-edge" fill-opacity="0.8">42134424C&gt;T </text><text fill="rgb(0,0,0)" stroke="none" font-family="times new roman" font-size="10px" font-style="normal" font-weight="normal" text-decoration="normal" x="224.3125" y="338.875" text-anchor="start" dominant-baseline="text-after-edge" fill-opacity="0.8">42134820T&gt;G </text><text fill="rgb(0,0,0)" stroke="none" font-family="times new roman" font-size="10px" font-style="normal" font-weight="normal" text-decoration="normal" x="224.3125" y="348.875" text-anchor="start" dominant-baseline="text-after-edge" fill-opacity="0.8">42135064_42135066dup </text><text fill="rgb(0,0,0)" stroke="none" font-family="times new roman" font-size="10px" font-style="normal" font-weight="normal" text-decoration="normal" x="224.3125" y="358.875" text-anchor="start" dominant-baseline="text-after-edge" fill-opacity="0.8">42135201T&gt;C </text><text fill="rgb(0,0,0)" stroke="none" font-family="times new roman" font-size="10px" font-style="normal" font-weight="normal" text-decoration="normal" x="224.3125" y="368.875" text-anchor="start" dominant-baseline="text-after-edge" fill-opacity="0.8">42135691T&gt;C </text><g transform="scale(0.924373040752351,0.924373040752351) translate(113.27278507842311,-35.16913946587533)"/></g></svg>