<svg version="1.1" xmlns="http://www.w3.org/2000/svg" xmlns:xlink="http://www.w3.org/1999/xlink" width="1017" height="608"><defs/><g transform="translate(-110.8655292076345,28.910931174089058) scale(1.1069982648930017,1.1069982648930017)"><path fill="none" stroke="rgb(55,71,79)" paint-order="fill stroke markers" d=" M 345.03316326530614 91.5 L 369.4454273259076 130.40084354372266" stroke-opacity="1" stroke-linejoin="round" stroke-miterlimit="10" stroke-width="2"/><path fill="none" stroke="rgb(120,144,156)" paint-order="fill stroke markers" d=" M 290.5625 327.44642857142856 L 444.642199043251 406.6874166508148" stroke-opacity="1" stroke-linejoin="round" stroke-miterlimit="10"/><path fill="rgb(120,144,156)" stroke="none" paint-order="stroke fill markers" d=" M 436.6945069128192 407.49158690633965 L 446.42077464788736 407.6021126760563 L 440.67343462261977 399.75478302617176 Z" fill-opacity="1"/><path fill="none" stroke="rgb(55,71,79)" paint-order="fill stroke markers" d=" M 418.22818667376885 95.86402773936021 L 396.5545726740924 130.40084354372266" stroke-opacity="1" stroke-linejoin="round" stroke-miterlimit="10" stroke-width="2"/><path fill="none" stroke="rgb(55,71,79)" paint-order="fill stroke markers" d=" M 509.77181332623115 95.86402773936021 L 531.4454273259075 130.40084354372266" stroke-opacity="1" stroke-linejoin="round" stroke-miterlimit="10" stroke-width="2"/><path fill="none" stroke="rgb(120,144,156)" paint-order="fill stroke markers" d=" M 415.25 341.525 L 457.1630816180585 400.3709665917541" stroke-opacity="1" stroke-linejoin="round" stroke-miterlimit="10"/><path fill="rgb(120,144,156)" stroke="none" paint-order="stroke fill markers" d=" M 449.73299526735747 397.4373141206651 L 458.32336182336184 402 L 456.8192905932271 392.39009522759557 Z" fill-opacity="1"/><path fill="none" stroke="rgb(120,144,156)" paint-order="fill stroke markers" d=" M 471.5 314.375 L 471.5 400" stroke-opacity="1" stroke-linejoin="round" stroke-miterlimit="10"/><path fill="rgb(120,144,156)" stroke="none" paint-order="stroke fill markers" d=" M 467.15 393.3 L 471.5 402 L 475.85 393.3 Z" fill-opacity="1"/><path fill="none" stroke="rgb(120,144,156)" paint-order="fill stroke markers" d=" M 855.2268217403663 171.1839268016996 L 891.6306224800858 267.81947058350045" stroke-opacity="1" stroke-linejoin="round" stroke-miterlimit="10"/><path fill="rgb(120,144,156)" stroke="none" paint-order="stroke fill markers" d=" M 885.1979499314103 263.0830981444373 L 892.3356782596337 269.6910731983004 L 893.3394213057901 260.0161055034038 Z" fill-opacity="1"/><path fill="none" stroke="rgb(120,144,156)" paint-order="fill stroke markers" d=" M 646.9657534246576 165 L 694.428124238736 268.4254647590367" stroke-opacity="1" stroke-linejoin="round" stroke-miterlimit="10"/><path fill="rgb(120,144,156)" stroke="none" paint-order="stroke fill markers" d=" M 687.6800888654623 264.15036024557196 L 695.2622909730705 270.2432012249001 L 695.587242491968 260.52173495121656 Z" fill-opacity="1"/><path fill="none" stroke="rgb(55,71,79)" paint-order="fill stroke markers" d=" M 622.4770408163265 91.5 L 565.098262867398 136.30573895613537" stroke-opacity="1" stroke-linejoin="round" stroke-miterlimit="10" stroke-width="2"/><path fill="none" stroke="rgb(120,144,156)" paint-order="fill stroke markers" d=" M 396.84560908189144 173.41375980885758 L 456.56846079403863 265.7817296178987" stroke-opacity="1" stroke-linejoin="round" stroke-miterlimit="10"/><path fill="rgb(120,144,156)" stroke="none" paint-order="stroke fill markers" d=" M 449.2776593815993 262.5172672173843 L 457.65439091810856 267.46124019114245 L 456.58353037520953 257.79347117768015 Z" fill-opacity="1"/><path fill="none" stroke="rgb(120,144,156)" paint-order="fill stroke markers" d=" M 750.8171232876713 165 L 711.7948263233653 267.838544346366" stroke-opacity="1" stroke-linejoin="round" stroke-miterlimit="10"/><path fill="rgb(120,144,156)" stroke="none" paint-order="stroke fill markers" d=" M 710.1047376243981 260.03110557365545 L 711.0852862057328 269.7084515155779 L 718.2388338104699 263.11760508535673 Z" fill-opacity="1"/><path fill="none" stroke="rgb(120,144,156)" paint-order="fill stroke markers" d=" M 179.86917808219178 163 L 185.2429156089703 181.95086180941206" stroke-opacity="1" stroke-linejoin="round" stroke-miterlimit="10"/><path fill="rgb(120,144,156)" stroke="none" paint-order="stroke fill markers" d=" M 179.23011555367003 176.69170451047327 L 185.78852739726028 183.875 L 187.6001166827275 174.31829323141176 Z" fill-opacity="1"/><path fill="none" stroke="rgb(55,71,79)" paint-order="fill stroke markers" d=" M 471.5 172.5 L 471.5 263.375" stroke-opacity="1" stroke-linejoin="round" stroke-miterlimit="10" stroke-width="2"/><path fill="none" stroke="rgb(120,144,156)" paint-order="fill stroke markers" d=" M 532.9361554133441 174.46583303127247 L 484.5100284758054 264.6471408486277" stroke-opacity="1" stroke-linejoin="round" stroke-miterlimit="10"/><path fill="rgb(120,144,156)" stroke="none" paint-order="stroke fill markers" d=" M 483.8473376932391 256.6864033873932 L 483.56384458665593 266.4091669687275 L 491.51215131567324 260.8023033051935 Z" fill-opacity="1"/><path fill="none" stroke="rgb(120,144,156)" paint-order="fill stroke markers" d=" M 685.9764277528552 298.98066805286174 L 497.46070979679746 405.79102641053123" stroke-opacity="1" stroke-linejoin="round" stroke-miterlimit="10"/><path fill="rgb(120,144,156)" stroke="none" paint-order="stroke fill markers" d=" M 501.1456867736717 398.7034707895921 L 495.7206051873199 406.7769452449568 L 505.43443370342277 406.27292584081937 Z" fill-opacity="1"/><path fill="none" stroke="rgb(120,144,156)" paint-order="fill stroke markers" d=" M 879.9679172081801 294.900141094988 L 502.5793063921281 410.94341958507493" stroke-opacity="1" stroke-linejoin="round" stroke-miterlimit="10"/><path fill="rgb(120,144,156)" stroke="none" paint-order="stroke fill markers" d=" M 507.70488399905474 404.81635224454635 L 500.667639778292 411.5312382284884 L 510.26189509790333 413.13210201473333 Z" fill-opacity="1"/><path fill="none" stroke="rgb(120,144,156)" paint-order="fill stroke markers" d=" M 936.3856164383561 165 L 905.9735973795531 267.30771388445254" stroke-opacity="1" stroke-linejoin="round" stroke-miterlimit="10"/><path fill="rgb(120,144,156)" stroke="none" paint-order="stroke fill markers" d=" M 903.7130043946809 259.6459765255537 L 905.4037220569262 269.2248059836123 L 912.0523550260259 262.12493417898094 Z" fill-opacity="1"/><path fill="none" stroke="rgb(120,144,156)" paint-order="fill stroke markers" d=" M 282.63835616438354 163 L 272.45510373236203 182.10995957680134" stroke-opacity="1" stroke-linejoin="round" stroke-miterlimit="10"/><path fill="rgb(120,144,156)" stroke="none" paint-order="stroke fill markers" d=" M 271.7669797536739 174.15138021928067 L 271.51455479452056 183.875 L 279.444905594588 178.24276809889108 Z" fill-opacity="1"/><path fill="none" stroke="rgb(55,71,79)" paint-order="fill stroke markers" d=" M 848 91.5 L 848 131.5" stroke-opacity="1" stroke-linejoin="round" stroke-miterlimit="10" stroke-width="2"/><path fill="rgb(69,90,100)" stroke="rgb(76,175,80)" paint-order="fill stroke markers" d=" M 494 288.875 L 493.9306400089954 290.6403296538765 L 493.7229876633906 292.3947754634052 L 493.37832320894773 294.12752068675786 L 492.89877161664094 295.8278823734363 L 492.28728948150393 297.48537722821453 L 491.5476467942383 299.0897862441398 L 490.68440369796707 300.6312177061088 L 489.7028823734363 302.10016817658067 L 488.6091342260007 303.48758108742913 L 487.40990257669733 304.78490257669733 L 486.11258108742913 305.9841342260007 L 484.72516817658067 307.0778823734363 L 483.2562177061088 308.05940369796707 L 481.7147862441398 308.9226467942383 L 480.11037722821453 309.66228948150393 L 478.4528823734363 310.27377161664094 L 476.75252068675786 310.75332320894773 L 475.0197754634052 311.0979876633906 L 473.2653296538765 311.3056400089954 L 471.5 311.375 L 469.7346703461235 311.3056400089954 L 467.9802245365948 311.0979876633906 L 466.24747931324214 310.75332320894773 L 464.5471176265637 310.27377161664094 L 462.88962277178547 309.66228948150393 L 461.2852137558602 308.9226467942383 L 459.7437822938912 308.05940369796707 L 458.27483182341933 307.0778823734363 L 456.88741891257087 305.9841342260007 L 455.59009742330267 304.78490257669733 L 454.3908657739993 303.48758108742913 L 453.2971176265637 302.10016817658067 L 452.31559630203293 300.6312177061088 L 451.4523532057617 299.0897862441398 L 450.71271051849607 297.48537722821453 L 450.10122838335906 295.8278823734363 L 449.62167679105227 294.12752068675786 L 449.2770123366094 292.3947754634052 L 449.0693599910046 290.6403296538765 L 449 288.875 L 449.0693599910046 287.1096703461235 L 449.2770123366094 285.3552245365948 L 449.62167679105227 283.62247931324214 L 450.10122838335906 281.9221176265637 L 450.71271051849607 280.26462277178547 L 451.4523532057617 278.6602137558602 L 452.31559630203293 277.1187822938912 L 453.2971176265637 275.64983182341933 L 454.3908657739993 274.26241891257087 L 455.59009742330267 272.96509742330267 L 456.88741891257087 271.76586577399934 L 458.27483182341933 270.6721176265637 L 459.7437822938912 269.69059630203293 L 461.28521375586024 268.8273532057617 L 462.8896227717855 268.087710518496 L 464.5471176265637 267.47622838335906 L 466.2474793132422 266.99667679105227 L 467.98022453659485 266.6520123366094 L 469.73467034612355 266.4443599910046 L 471.50000000000006 266.375 L 473.2653296538766 266.4443599910046 L 475.01977546340527 266.6520123366094 L 476.752520686758 266.9966767910523 L 478.4528823734364 267.47622838335906 L 480.11037722821465 268.0877105184961 L 481.71478624413993 268.82735320576177 L 483.256217706109 269.690596302033 L 484.7251681765808 270.67211762656376 L 486.11258108742925 271.7658657739994 L 487.40990257669745 272.9650974233028 L 488.60913422600083 274.262418912571 L 489.7028823734364 275.6498318234195 L 490.6844036979672 277.11878229389134 L 491.5476467942384 278.6602137558604 L 492.28728948150405 280.2646227717857 L 492.89877161664106 281.92211762656393 L 493.3783232089478 283.62247931324237 L 493.72298766339065 285.3552245365951 L 493.9306400089954 287.1096703461238 Z" fill-opacity="1" stroke-opacity="1" stroke-miterlimit="10" stroke-width="6"/><text fill="rgb(255,255,255)" stroke="none" font-family="times new roman" font-size="15px" font-style="normal" font-weight="normal" text-decoration="normal" x="471.5" y="296.375" text-anchor="middle" dominant-baseline="text-after-edge" fill-opacity="1">*2</text><path fill="rgb(3,169,244)" stroke="none" paint-order="stroke fill markers" d=" M 471.5 256.375 L 496 256.375 L 496 256.375 A 8 8 0 0 1 504 264.375 L 504 313.375 L 504 313.375 A 8 8 0 0 1 496 321.375 L 447 321.375 L 447 321.375 A 8 8 0 0 1 439 313.375 L 439 264.375 L 439 264.375 A 8 8 0 0 1 447 256.375 L 471.5 256.375 Z" fill-opacity="0.15"/><path fill="rgb(69,90,100)" stroke="rgb(76,175,80)" paint-order="fill stroke markers" d=" M 865.5 152 L 865.4460533403297 153.37303417523728 L 865.2845459604149 154.73760313820404 L 865.0164736069594 156.08529386747836 L 864.6434890351652 157.40779740156157 L 864.1678918189475 158.69696006638907 L 863.5926141732964 159.94483374544205 L 862.9212028761966 161.1437248825291 L 862.1577974015615 162.28624191511827 L 861.3071043980005 163.3653408457782 L 860.3743686707646 164.37436867076457 L 859.3653408457782 165.30710439800055 L 858.2862419151182 166.1577974015616 L 857.1437248825291 166.92120287619662 L 855.9448337454421 167.59261417329643 L 854.6969600663891 168.1678918189475 L 853.4077974015615 168.64348903516517 L 852.0852938674783 169.01647360695935 L 850.737603138204 169.2845459604149 L 849.3730341752373 169.44605334032974 L 848 169.5 L 846.6269658247627 169.44605334032974 L 845.262396861796 169.2845459604149 L 843.9147061325217 169.01647360695935 L 842.5922025984385 168.6434890351652 L 841.3030399336109 168.1678918189475 L 840.0551662545579 167.59261417329643 L 838.8562751174709 166.92120287619662 L 837.7137580848818 166.1577974015616 L 836.6346591542218 165.30710439800055 L 835.6256313292354 164.37436867076457 L 834.6928956019995 163.3653408457782 L 833.8422025984385 162.2862419151183 L 833.0787971238034 161.1437248825291 L 832.4073858267036 159.94483374544208 L 831.8321081810525 158.69696006638907 L 831.3565109648348 157.4077974015616 L 830.9835263930406 156.08529386747836 L 830.7154540395851 154.73760313820404 L 830.5539466596703 153.37303417523728 L 830.5 152 L 830.5539466596703 150.62696582476272 L 830.7154540395851 149.26239686179596 L 830.9835263930406 147.91470613252164 L 831.3565109648348 146.59220259843843 L 831.8321081810525 145.30303993361093 L 832.4073858267036 144.05516625455795 L 833.0787971238034 142.8562751174709 L 833.8422025984385 141.71375808488173 L 834.6928956019995 140.6346591542218 L 835.6256313292354 139.62563132923543 L 836.6346591542218 138.69289560199945 L 837.7137580848818 137.84220259843843 L 838.8562751174709 137.07879712380338 L 840.0551662545579 136.40738582670355 L 841.303039933611 135.8321081810525 L 842.5922025984385 135.3565109648348 L 843.9147061325217 134.98352639304065 L 845.262396861796 134.7154540395851 L 846.6269658247628 134.55394665967026 L 848.0000000000001 134.5 L 849.3730341752373 134.55394665967026 L 850.7376031382041 134.7154540395851 L 852.0852938674784 134.98352639304068 L 853.4077974015617 135.35651096483485 L 854.6969600663891 135.83210818105252 L 855.9448337454421 136.4073858267036 L 857.1437248825292 137.07879712380344 L 858.2862419151184 137.8422025984385 L 859.3653408457783 138.69289560199954 L 860.3743686707646 139.62563132923552 L 861.3071043980007 140.6346591542219 L 862.1577974015617 141.71375808488185 L 862.9212028761967 142.85627511747103 L 863.5926141732965 144.0551662545581 L 864.1678918189476 145.3030399336111 L 864.6434890351652 146.5922025984386 L 865.0164736069594 147.91470613252184 L 865.2845459604149 149.26239686179616 L 865.4460533403297 150.62696582476292 Z" fill-opacity="1" stroke-opacity="1" stroke-miterlimit="10" stroke-width="6"/><text fill="rgb(255,255,255)" stroke="none" font-family="times new roman" font-size="10px" font-style="normal" font-weight="normal" text-decoration="normal" x="848" y="157" text-anchor="middle" dominant-baseline="text-after-edge" fill-opacity="1">*1.41</text><path fill="rgb(69,90,100)" stroke="rgb(76,175,80)" paint-order="fill stroke markers" d=" M 800.5 68.5 L 800.5 88.5 L 895.5 88.5 L 895.5 68.5 Z" fill-opacity="1" stroke-opacity="1" stroke-miterlimit="10" stroke-width="6"/><text fill="rgb(255,255,255)" stroke="none" font-family="times new roman" font-size="10px" font-style="normal" font-weight="normal" text-decoration="normal" x="848" y="83.5" text-anchor="middle" dominant-baseline="text-after-edge" fill-opacity="1">42127407T&gt;G</text><path fill="rgb(69,90,100)" stroke="rgb(76,175,80)" paint-order="fill stroke markers" d=" M 489 152 L 488.94605334032974 153.37303417523728 L 488.7845459604149 154.73760313820404 L 488.5164736069593 156.08529386747836 L 488.1434890351652 157.40779740156157 L 487.6678918189475 158.69696006638907 L 487.09261417329645 159.94483374544205 L 486.4212028761966 161.1437248825291 L 485.6577974015616 162.28624191511827 L 484.80710439800055 163.3653408457782 L 483.87436867076457 164.37436867076457 L 482.86534084577823 165.30710439800055 L 481.7862419151183 166.1577974015616 L 480.6437248825291 166.92120287619662 L 479.44483374544205 167.59261417329643 L 478.19696006638907 168.1678918189475 L 476.9077974015616 168.64348903516517 L 475.58529386747836 169.01647360695935 L 474.23760313820407 169.2845459604149 L 472.8730341752373 169.44605334032974 L 471.5 169.5 L 470.1269658247627 169.44605334032974 L 468.76239686179593 169.2845459604149 L 467.41470613252164 169.01647360695935 L 466.0922025984384 168.6434890351652 L 464.80303993361093 168.1678918189475 L 463.55516625455795 167.59261417329643 L 462.3562751174709 166.92120287619662 L 461.2137580848817 166.1577974015616 L 460.13465915422177 165.30710439800055 L 459.12563132923543 164.37436867076457 L 458.19289560199945 163.3653408457782 L 457.3422025984384 162.2862419151183 L 456.5787971238034 161.1437248825291 L 455.90738582670355 159.94483374544208 L 455.3321081810525 158.69696006638907 L 454.8565109648348 157.4077974015616 L 454.4835263930407 156.08529386747836 L 454.2154540395851 154.73760313820404 L 454.05394665967026 153.37303417523728 L 454 152 L 454.05394665967026 150.62696582476272 L 454.2154540395851 149.26239686179596 L 454.4835263930407 147.91470613252164 L 454.8565109648348 146.59220259843843 L 455.3321081810525 145.30303993361093 L 455.90738582670355 144.05516625455795 L 456.5787971238034 142.8562751174709 L 457.3422025984384 141.71375808488173 L 458.19289560199945 140.6346591542218 L 459.12563132923543 139.62563132923543 L 460.13465915422177 138.69289560199945 L 461.2137580848817 137.84220259843843 L 462.3562751174709 137.07879712380338 L 463.55516625455795 136.40738582670355 L 464.80303993361093 135.8321081810525 L 466.09220259843846 135.3565109648348 L 467.4147061325217 134.98352639304065 L 468.762396861796 134.7154540395851 L 470.12696582476275 134.55394665967026 L 471.50000000000006 134.5 L 472.87303417523736 134.55394665967026 L 474.2376031382041 134.7154540395851 L 475.5852938674784 134.98352639304068 L 476.90779740156165 135.35651096483485 L 478.1969600663892 135.83210818105252 L 479.44483374544217 136.4073858267036 L 480.6437248825292 137.07879712380344 L 481.78624191511835 137.8422025984385 L 482.8653408457783 138.69289560199954 L 483.8743686707647 139.62563132923552 L 484.80710439800066 140.6346591542219 L 485.65779740156165 141.71375808488185 L 486.4212028761967 142.85627511747103 L 487.0926141732965 144.0551662545581 L 487.66789181894757 145.3030399336111 L 488.14348903516526 146.5922025984386 L 488.5164736069594 147.91470613252184 L 488.78454596041496 149.26239686179616 L 488.94605334032974 150.62696582476292 Z" fill-opacity="1" stroke-opacity="1" stroke-miterlimit="10" stroke-width="6"/><text fill="rgb(255,255,255)" stroke="none" font-family="times new roman" font-size="10px" font-style="normal" font-weight="normal" text-decoration="normal" x="471.5" y="157" text-anchor="middle" dominant-baseline="text-after-edge" fill-opacity="1">*2.4</text><path fill="rgb(69,90,100)" stroke="rgb(76,175,80)" paint-order="fill stroke markers" d=" M 288.5 142 L 331 142 L 331 142 A 5 5 0 0 1 336 147 L 336 157 L 336 157 A 5 5 0 0 1 331 162 L 246 162 L 246 162 A 5 5 0 0 1 241 157 L 241 147 L 241 147 A 5 5 0 0 1 246 142 L 288.5 142 Z" fill-opacity="1" stroke-opacity="1" stroke-miterlimit="10" stroke-width="2"/><text fill="rgb(255,255,255)" stroke="none" font-family="times new roman" font-size="10px" font-style="normal" font-weight="normal" text-decoration="normal" x="288.5" y="157" text-anchor="middle" dominant-baseline="text-after-edge" fill-opacity="1">42132025_4213202…</text><path fill="rgb(69,90,100)" stroke="rgb(76,175,80)" paint-order="fill stroke markers" d=" M 405.5 152 L 405.4306400089954 153.7653296538765 L 405.2229876633906 155.51977546340518 L 404.87832320894773 157.25252068675786 L 404.39877161664094 158.95288237343632 L 403.78728948150393 160.61037722821453 L 403.0476467942383 162.21478624413982 L 402.18440369796707 163.75621770610886 L 401.2028823734363 165.22516817658064 L 400.1091342260007 166.61258108742913 L 398.90990257669733 167.9099025766973 L 397.61258108742913 169.1091342260007 L 396.22516817658067 170.20288237343632 L 394.7562177061088 171.18440369796707 L 393.2147862441398 172.0476467942383 L 391.61037722821453 172.78728948150396 L 389.9528823734363 173.39877161664094 L 388.25252068675786 173.87832320894773 L 386.5197754634052 174.2229876633906 L 384.7653296538765 174.43064000899537 L 383 174.5 L 381.2346703461235 174.43064000899537 L 379.4802245365948 174.2229876633906 L 377.74747931324214 173.87832320894773 L 376.0471176265637 173.39877161664094 L 374.38962277178547 172.78728948150396 L 372.7852137558602 172.0476467942383 L 371.2437822938912 171.18440369796707 L 369.77483182341933 170.20288237343632 L 368.38741891257087 169.1091342260007 L 367.09009742330267 167.90990257669733 L 365.8908657739993 166.61258108742913 L 364.7971176265637 165.22516817658064 L 363.81559630203293 163.75621770610886 L 362.9523532057617 162.21478624413982 L 362.21271051849607 160.61037722821453 L 361.60122838335906 158.95288237343632 L 361.12167679105227 157.25252068675786 L 360.7770123366094 155.5197754634052 L 360.5693599910046 153.7653296538765 L 360.5 152 L 360.5693599910046 150.2346703461235 L 360.7770123366094 148.48022453659482 L 361.12167679105227 146.74747931324214 L 361.60122838335906 145.04711762656368 L 362.21271051849607 143.38962277178547 L 362.9523532057617 141.7852137558602 L 363.81559630203293 140.24378229389114 L 364.7971176265637 138.77483182341936 L 365.8908657739993 137.38741891257087 L 367.09009742330267 136.0900974233027 L 368.38741891257087 134.8908657739993 L 369.77483182341933 133.79711762656368 L 371.2437822938912 132.81559630203293 L 372.78521375586024 131.9523532057617 L 374.3896227717855 131.21271051849604 L 376.0471176265637 130.60122838335903 L 377.7474793132422 130.12167679105227 L 379.48022453659485 129.7770123366094 L 381.23467034612355 129.5693599910046 L 383.00000000000006 129.5 L 384.7653296538766 129.56935999100463 L 386.51977546340527 129.7770123366094 L 388.252520686758 130.1216767910523 L 389.9528823734364 130.60122838335909 L 391.61037722821465 131.2127105184961 L 393.21478624413993 131.9523532057618 L 394.756217706109 132.815596302033 L 396.2251681765808 133.79711762656376 L 397.61258108742925 134.89086577399942 L 398.90990257669745 136.0900974233028 L 400.10913422600083 137.387418912571 L 401.2028823734364 138.7748318234195 L 402.1844036979672 140.24378229389131 L 403.0476467942384 141.78521375586038 L 403.78728948150405 143.3896227717857 L 404.39877161664106 145.0471176265639 L 404.8783232089478 146.74747931324237 L 405.22298766339065 148.48022453659505 L 405.4306400089954 150.23467034612375 Z" fill-opacity="1" stroke-opacity="1" stroke-miterlimit="10" stroke-width="6"/><text fill="rgb(255,255,255)" stroke="none" font-family="times new roman" font-size="15px" font-style="normal" font-weight="normal" text-decoration="normal" x="383" y="159.5" text-anchor="middle" dominant-baseline="text-after-edge" fill-opacity="1">*34</text><path fill="rgb(69,90,100)" stroke="rgb(76,175,80)" paint-order="fill stroke markers" d=" M 176.75 142 L 219.25 142 L 219.25 142 A 5 5 0 0 1 224.25 147 L 224.25 157 L 224.25 157 A 5 5 0 0 1 219.25 162 L 134.25 162 L 134.25 162 A 5 5 0 0 1 129.25 157 L 129.25 147 L 129.25 147 A 5 5 0 0 1 134.25 142 L 176.75 142 Z" fill-opacity="1" stroke-opacity="1" stroke-miterlimit="10" stroke-width="2"/><text fill="rgb(255,255,255)" stroke="none" font-family="times new roman" font-size="10px" font-style="normal" font-weight="normal" text-decoration="normal" x="176.75" y="157" text-anchor="middle" dominant-baseline="text-after-edge" fill-opacity="1">42132049dup</text><path fill="rgb(69,90,100)" stroke="rgb(76,175,80)" paint-order="fill stroke markers" d=" M 721.3125 288.875 L 721.2585533403297 290.2480341752373 L 721.0970459604149 291.61260313820407 L 720.8289736069594 292.96029386747836 L 720.4559890351652 294.2827974015616 L 719.9803918189475 295.57196006638907 L 719.4051141732964 296.81983374544205 L 718.7337028761966 298.0187248825291 L 717.9702974015615 299.1612419151183 L 717.1196043980005 300.24034084577823 L 716.1868686707646 301.24936867076457 L 715.1778408457782 302.18210439800055 L 714.0987419151182 303.0327974015616 L 712.9562248825291 303.7962028761966 L 711.7573337454421 304.46761417329645 L 710.5094600663891 305.0428918189475 L 709.2202974015615 305.5184890351652 L 707.8977938674783 305.8914736069593 L 706.550103138204 306.1595459604149 L 705.1855341752373 306.32105334032974 L 703.8125 306.375 L 702.4394658247627 306.32105334032974 L 701.074896861796 306.1595459604149 L 699.7272061325217 305.8914736069593 L 698.4047025984385 305.5184890351652 L 697.1155399336109 305.0428918189475 L 695.8676662545579 304.46761417329645 L 694.6687751174709 303.7962028761966 L 693.5262580848818 303.0327974015616 L 692.4471591542218 302.18210439800055 L 691.4381313292354 301.24936867076457 L 690.5053956019995 300.24034084577823 L 689.6547025984385 299.1612419151183 L 688.8912971238034 298.0187248825291 L 688.2198858267036 296.81983374544205 L 687.6446081810525 295.57196006638907 L 687.1690109648348 294.2827974015616 L 686.7960263930406 292.96029386747836 L 686.5279540395851 291.61260313820407 L 686.3664466596703 290.2480341752373 L 686.3125 288.875 L 686.3664466596703 287.5019658247627 L 686.5279540395851 286.13739686179593 L 686.7960263930406 284.78970613252164 L 687.1690109648348 283.4672025984384 L 687.6446081810525 282.17803993361093 L 688.2198858267036 280.93016625455795 L 688.8912971238034 279.7312751174709 L 689.6547025984385 278.5887580848817 L 690.5053956019995 277.50965915422177 L 691.4381313292354 276.50063132923543 L 692.4471591542218 275.56789560199945 L 693.5262580848818 274.7172025984384 L 694.6687751174709 273.9537971238034 L 695.8676662545579 273.28238582670355 L 697.115539933611 272.7071081810525 L 698.4047025984385 272.2315109648348 L 699.7272061325217 271.8585263930407 L 701.074896861796 271.5904540395851 L 702.4394658247628 271.42894665967026 L 703.8125000000001 271.375 L 705.1855341752373 271.42894665967026 L 706.5501031382041 271.5904540395851 L 707.8977938674784 271.8585263930407 L 709.2202974015617 272.23151096483485 L 710.5094600663891 272.7071081810525 L 711.7573337454421 273.2823858267036 L 712.9562248825292 273.95379712380344 L 714.0987419151184 274.7172025984385 L 715.1778408457783 275.56789560199957 L 716.1868686707646 276.5006313292355 L 717.1196043980007 277.5096591542219 L 717.9702974015617 278.5887580848818 L 718.7337028761967 279.73127511747106 L 719.4051141732965 280.93016625455806 L 719.9803918189476 282.1780399336111 L 720.4559890351652 283.4672025984386 L 720.8289736069594 284.7897061325218 L 721.0970459604149 286.13739686179616 L 721.2585533403297 287.5019658247629 Z" fill-opacity="1" stroke-opacity="1" stroke-miterlimit="10" stroke-width="6"/><text fill="rgb(255,255,255)" stroke="none" font-family="times new roman" font-size="10px" font-style="normal" font-weight="normal" text-decoration="normal" x="703.8125" y="293.875" text-anchor="middle" dominant-baseline="text-after-edge" fill-opacity="1">*1.58</text><path fill="rgb(69,90,100)" stroke="rgb(76,175,80)" paint-order="fill stroke markers" d=" M 516.375 78.5 L 516.3210533403297 79.87303417523728 L 516.1595459604149 81.23760313820404 L 515.8914736069594 82.58529386747834 L 515.5184890351652 83.90779740156158 L 515.0428918189475 85.19696006638907 L 514.4676141732964 86.44483374544207 L 513.7962028761966 87.6437248825291 L 513.0327974015615 88.78624191511828 L 512.1821043980005 89.8653408457782 L 511.24936867076457 90.87436867076458 L 510.24034084577823 91.80710439800055 L 509.1612419151183 92.65779740156158 L 508.0187248825291 93.42120287619662 L 506.81983374544205 94.09261417329644 L 505.57196006638907 94.66789181894751 L 504.2827974015616 95.14348903516519 L 502.96029386747836 95.51647360695934 L 501.61260313820407 95.7845459604149 L 500.2480341752373 95.94605334032974 L 498.875 96 L 497.5019658247627 95.94605334032974 L 496.13739686179593 95.7845459604149 L 494.78970613252164 95.51647360695934 L 493.4672025984384 95.14348903516519 L 492.17803993361093 94.66789181894751 L 490.93016625455795 94.09261417329644 L 489.7312751174709 93.42120287619662 L 488.5887580848817 92.65779740156158 L 487.50965915422177 91.80710439800055 L 486.50063132923543 90.87436867076458 L 485.56789560199945 89.86534084577822 L 484.7172025984384 88.78624191511828 L 483.9537971238034 87.64372488252911 L 483.28238582670355 86.44483374544207 L 482.7071081810525 85.19696006638907 L 482.2315109648348 83.90779740156158 L 481.8585263930407 82.58529386747834 L 481.5904540395851 81.23760313820404 L 481.42894665967026 79.8730341752373 L 481.375 78.5 L 481.42894665967026 77.12696582476272 L 481.5904540395851 75.76239686179596 L 481.8585263930407 74.41470613252166 L 482.2315109648348 73.09220259843842 L 482.7071081810525 71.80303993361093 L 483.28238582670355 70.55516625455793 L 483.9537971238034 69.3562751174709 L 484.7172025984384 68.21375808488172 L 485.56789560199945 67.1346591542218 L 486.50063132923543 66.12563132923542 L 487.50965915422177 65.19289560199947 L 488.5887580848817 64.34220259843842 L 489.7312751174709 63.57879712380338 L 490.93016625455795 62.90738582670356 L 492.17803993361093 62.332108181052476 L 493.46720259843846 61.856510964834804 L 494.7897061325217 61.48352639304065 L 496.137396861796 61.21545403958508 L 497.50196582476275 61.05394665967026 L 498.87500000000006 61 L 500.24803417523736 61.05394665967027 L 501.6126031382041 61.2154540395851 L 502.9602938674784 61.48352639304068 L 504.28279740156165 61.85651096483484 L 505.5719600663892 62.33210818105252 L 506.81983374544217 62.90738582670361 L 508.0187248825292 63.57879712380345 L 509.16124191511835 64.34220259843849 L 510.2403408457783 65.19289560199954 L 511.2493686707647 66.12563132923552 L 512.1821043980007 67.1346591542219 L 513.0327974015617 68.21375808488185 L 513.7962028761967 69.35627511747103 L 514.4676141732965 70.55516625455807 L 515.0428918189476 71.80303993361109 L 515.5184890351652 73.09220259843859 L 515.8914736069594 74.41470613252184 L 516.1595459604149 75.76239686179616 L 516.3210533403297 77.12696582476292 Z" fill-opacity="1" stroke-opacity="1" stroke-miterlimit="10" stroke-width="6"/><text fill="rgb(255,255,255)" stroke="none" font-family="times new roman" font-size="10px" font-style="normal" font-weight="normal" text-decoration="normal" x="498.875" y="83.5" text-anchor="middle" dominant-baseline="text-after-edge" fill-opacity="1">*39.2</text><path fill="rgb(69,90,100)" stroke="rgb(158,158,158)" paint-order="fill stroke markers" d=" M 289.375 68.5 L 289.375 88.5 L 384.375 88.5 L 384.375 68.5 Z" fill-opacity="1" stroke-opacity="1" stroke-miterlimit="10" stroke-width="6"/><text fill="rgb(255,255,255)" stroke="none" font-family="times new roman" font-size="10px" font-style="normal" font-weight="normal" text-decoration="normal" x="336.875" y="83.5" text-anchor="middle" dominant-baseline="text-after-edge" fill-opacity="1">42127941G&gt;A</text><path fill="rgb(69,90,100)" stroke="rgb(158,158,158)" paint-order="fill stroke markers" d=" M 591.625 68.5 L 591.625 88.5 L 686.625 88.5 L 686.625 68.5 Z" fill-opacity="1" stroke-opacity="1" stroke-miterlimit="10" stroke-width="6"/><text fill="rgb(255,255,255)" stroke="none" font-family="times new roman" font-size="10px" font-style="normal" font-weight="normal" text-decoration="normal" x="639.125" y="83.5" text-anchor="middle" dominant-baseline="text-after-edge" fill-opacity="1">42126611C&gt;G</text><path fill="rgb(69,90,100)" stroke="rgb(76,175,80)" paint-order="fill stroke markers" d=" M 593.5 142 L 593.5 162 L 688.5 162 L 688.5 142 Z" fill-opacity="1" stroke-opacity="1" stroke-miterlimit="10" stroke-width="6"/><text fill="rgb(255,255,255)" stroke="none" font-family="times new roman" font-size="10px" font-style="normal" font-weight="normal" text-decoration="normal" x="641" y="157" text-anchor="middle" dominant-baseline="text-after-edge" fill-opacity="1">42129950A&gt;C</text><path fill="rgb(69,90,100)" stroke="rgb(76,175,80)" paint-order="fill stroke markers" d=" M 892.75 142 L 892.75 162 L 987.75 162 L 987.75 142 Z" fill-opacity="1" stroke-opacity="1" stroke-miterlimit="10" stroke-width="6"/><text fill="rgb(255,255,255)" stroke="none" font-family="times new roman" font-size="10px" font-style="normal" font-weight="normal" text-decoration="normal" x="940.25" y="157" text-anchor="middle" dominant-baseline="text-after-edge" fill-opacity="1">42130047G&gt;C</text><path fill="rgb(69,90,100)" stroke="rgb(76,175,80)" paint-order="fill stroke markers" d=" M 567.5 152 L 567.4306400089954 153.7653296538765 L 567.2229876633907 155.51977546340518 L 566.8783232089477 157.25252068675786 L 566.3987716166409 158.95288237343632 L 565.787289481504 160.61037722821453 L 565.0476467942383 162.21478624413982 L 564.1844036979671 163.75621770610886 L 563.2028823734363 165.22516817658064 L 562.1091342260007 166.61258108742913 L 560.9099025766973 167.9099025766973 L 559.6125810874291 169.1091342260007 L 558.2251681765806 170.20288237343632 L 556.7562177061088 171.18440369796707 L 555.2147862441398 172.0476467942383 L 553.6103772282145 172.78728948150396 L 551.9528823734363 173.39877161664094 L 550.2525206867579 173.87832320894773 L 548.5197754634052 174.2229876633906 L 546.7653296538765 174.43064000899537 L 545 174.5 L 543.2346703461235 174.43064000899537 L 541.4802245365948 174.2229876633906 L 539.7474793132421 173.87832320894773 L 538.0471176265637 173.39877161664094 L 536.3896227717855 172.78728948150396 L 534.7852137558602 172.0476467942383 L 533.2437822938912 171.18440369796707 L 531.7748318234194 170.20288237343632 L 530.3874189125709 169.1091342260007 L 529.0900974233027 167.90990257669733 L 527.8908657739993 166.61258108742913 L 526.7971176265637 165.22516817658064 L 525.8155963020329 163.75621770610886 L 524.9523532057617 162.21478624413982 L 524.212710518496 160.61037722821453 L 523.6012283833591 158.95288237343632 L 523.1216767910523 157.25252068675786 L 522.7770123366095 155.5197754634052 L 522.5693599910046 153.7653296538765 L 522.5 152 L 522.5693599910046 150.2346703461235 L 522.7770123366093 148.48022453659482 L 523.1216767910523 146.74747931324214 L 523.6012283833591 145.04711762656368 L 524.212710518496 143.38962277178547 L 524.9523532057617 141.7852137558602 L 525.8155963020329 140.24378229389114 L 526.7971176265637 138.77483182341936 L 527.8908657739993 137.38741891257087 L 529.0900974233027 136.0900974233027 L 530.3874189125709 134.8908657739993 L 531.7748318234194 133.79711762656368 L 533.2437822938912 132.81559630203293 L 534.7852137558602 131.9523532057617 L 536.3896227717855 131.21271051849604 L 538.0471176265637 130.60122838335903 L 539.7474793132421 130.12167679105227 L 541.4802245365948 129.7770123366094 L 543.2346703461236 129.5693599910046 L 545.0000000000001 129.5 L 546.7653296538766 129.56935999100463 L 548.5197754634053 129.7770123366094 L 550.252520686758 130.1216767910523 L 551.9528823734364 130.60122838335909 L 553.6103772282146 131.2127105184961 L 555.2147862441399 131.9523532057618 L 556.7562177061089 132.815596302033 L 558.2251681765807 133.79711762656376 L 559.6125810874292 134.89086577399942 L 560.9099025766974 136.0900974233028 L 562.1091342260008 137.387418912571 L 563.2028823734364 138.7748318234195 L 564.1844036979671 140.24378229389131 L 565.0476467942384 141.78521375586038 L 565.787289481504 143.3896227717857 L 566.398771616641 145.0471176265639 L 566.8783232089478 146.74747931324237 L 567.2229876633907 148.48022453659505 L 567.4306400089954 150.23467034612375 Z" fill-opacity="1" stroke-opacity="1" stroke-miterlimit="10" stroke-width="6"/><text fill="rgb(255,255,255)" stroke="none" font-family="times new roman" font-size="15px" font-style="normal" font-weight="normal" text-decoration="normal" x="545" y="159.5" text-anchor="middle" dominant-baseline="text-after-edge" fill-opacity="1">*39</text><path fill="rgb(69,90,100)" stroke="rgb(76,175,80)" paint-order="fill stroke markers" d=" M 708.25 142 L 708.25 162 L 803.25 162 L 803.25 142 Z" fill-opacity="1" stroke-opacity="1" stroke-miterlimit="10" stroke-width="6"/><text fill="rgb(255,255,255)" stroke="none" font-family="times new roman" font-size="10px" font-style="normal" font-weight="normal" text-decoration="normal" x="755.75" y="157" text-anchor="middle" dominant-baseline="text-after-edge" fill-opacity="1">42130482C&gt;A</text><path fill="rgb(69,90,100)" stroke="rgb(69,90,100)" paint-order="fill stroke markers" d=" M 452.75 403 L 434 420.5 L 452.75 438 L 490.25 438 L 509 420.5 L 490.25000000000006 403 Z" fill-opacity="1" stroke-opacity="1" stroke-miterlimit="10" stroke-width="2"/><text fill="rgb(255,255,255)" stroke="none" font-family="times new roman" font-size="10px" font-style="normal" font-weight="normal" text-decoration="normal" x="471.5" y="425.5" text-anchor="middle" dominant-baseline="text-after-edge" fill-opacity="1">NA19109-B</text><path fill="rgb(69,90,100)" stroke="rgb(76,175,80)" paint-order="fill stroke markers" d=" M 446.625 78.5 L 446.57105334032974 79.87303417523728 L 446.4095459604149 81.23760313820404 L 446.1414736069593 82.58529386747834 L 445.7684890351652 83.90779740156158 L 445.2928918189475 85.19696006638907 L 444.71761417329645 86.44483374544207 L 444.0462028761966 87.6437248825291 L 443.2827974015616 88.78624191511828 L 442.43210439800055 89.8653408457782 L 441.49936867076457 90.87436867076458 L 440.49034084577823 91.80710439800055 L 439.4112419151183 92.65779740156158 L 438.2687248825291 93.42120287619662 L 437.06983374544205 94.09261417329644 L 435.82196006638907 94.66789181894751 L 434.5327974015616 95.14348903516519 L 433.21029386747836 95.51647360695934 L 431.86260313820407 95.7845459604149 L 430.4980341752373 95.94605334032974 L 429.125 96 L 427.7519658247627 95.94605334032974 L 426.38739686179593 95.7845459604149 L 425.03970613252164 95.51647360695934 L 423.7172025984384 95.14348903516519 L 422.42803993361093 94.66789181894751 L 421.18016625455795 94.09261417329644 L 419.9812751174709 93.42120287619662 L 418.8387580848817 92.65779740156158 L 417.75965915422177 91.80710439800055 L 416.75063132923543 90.87436867076458 L 415.81789560199945 89.86534084577822 L 414.9672025984384 88.78624191511828 L 414.2037971238034 87.64372488252911 L 413.53238582670355 86.44483374544207 L 412.9571081810525 85.19696006638907 L 412.4815109648348 83.90779740156158 L 412.1085263930407 82.58529386747834 L 411.8404540395851 81.23760313820404 L 411.67894665967026 79.8730341752373 L 411.625 78.5 L 411.67894665967026 77.12696582476272 L 411.8404540395851 75.76239686179596 L 412.1085263930407 74.41470613252166 L 412.4815109648348 73.09220259843842 L 412.9571081810525 71.80303993361093 L 413.53238582670355 70.55516625455793 L 414.2037971238034 69.3562751174709 L 414.9672025984384 68.21375808488172 L 415.81789560199945 67.1346591542218 L 416.75063132923543 66.12563132923542 L 417.75965915422177 65.19289560199947 L 418.8387580848817 64.34220259843842 L 419.9812751174709 63.57879712380338 L 421.18016625455795 62.90738582670356 L 422.42803993361093 62.332108181052476 L 423.71720259843846 61.856510964834804 L 425.0397061325217 61.48352639304065 L 426.387396861796 61.21545403958508 L 427.75196582476275 61.05394665967026 L 429.12500000000006 61 L 430.49803417523736 61.05394665967027 L 431.8626031382041 61.2154540395851 L 433.2102938674784 61.48352639304068 L 434.53279740156165 61.85651096483484 L 435.8219600663892 62.33210818105252 L 437.06983374544217 62.90738582670361 L 438.2687248825292 63.57879712380345 L 439.41124191511835 64.34220259843849 L 440.4903408457783 65.19289560199954 L 441.4993686707647 66.12563132923552 L 442.43210439800066 67.1346591542219 L 443.28279740156165 68.21375808488185 L 444.0462028761967 69.35627511747103 L 444.7176141732965 70.55516625455807 L 445.29289181894757 71.80303993361109 L 445.76848903516526 73.09220259843859 L 446.1414736069594 74.41470613252184 L 446.40954596041496 75.76239686179616 L 446.57105334032974 77.12696582476292 Z" fill-opacity="1" stroke-opacity="1" stroke-miterlimit="10" stroke-width="6"/><text fill="rgb(255,255,255)" stroke="none" font-family="times new roman" font-size="10px" font-style="normal" font-weight="normal" text-decoration="normal" x="429.125" y="83.5" text-anchor="middle" dominant-baseline="text-after-edge" fill-opacity="1">*34.1</text><path fill="rgb(69,90,100)" stroke="rgb(76,175,80)" paint-order="fill stroke markers" d=" M 917.0625 288.875 L 917.0085533403297 290.2480341752373 L 916.8470459604149 291.61260313820407 L 916.5789736069594 292.96029386747836 L 916.2059890351652 294.2827974015616 L 915.7303918189475 295.57196006638907 L 915.1551141732964 296.81983374544205 L 914.4837028761966 298.0187248825291 L 913.7202974015615 299.1612419151183 L 912.8696043980005 300.24034084577823 L 911.9368686707646 301.24936867076457 L 910.9278408457782 302.18210439800055 L 909.8487419151182 303.0327974015616 L 908.7062248825291 303.7962028761966 L 907.5073337454421 304.46761417329645 L 906.2594600663891 305.0428918189475 L 904.9702974015615 305.5184890351652 L 903.6477938674783 305.8914736069593 L 902.300103138204 306.1595459604149 L 900.9355341752373 306.32105334032974 L 899.5625 306.375 L 898.1894658247627 306.32105334032974 L 896.824896861796 306.1595459604149 L 895.4772061325217 305.8914736069593 L 894.1547025984385 305.5184890351652 L 892.8655399336109 305.0428918189475 L 891.6176662545579 304.46761417329645 L 890.4187751174709 303.7962028761966 L 889.2762580848818 303.0327974015616 L 888.1971591542218 302.18210439800055 L 887.1881313292354 301.24936867076457 L 886.2553956019995 300.24034084577823 L 885.4047025984385 299.1612419151183 L 884.6412971238034 298.0187248825291 L 883.9698858267036 296.81983374544205 L 883.3946081810525 295.57196006638907 L 882.9190109648348 294.2827974015616 L 882.5460263930406 292.96029386747836 L 882.2779540395851 291.61260313820407 L 882.1164466596703 290.2480341752373 L 882.0625 288.875 L 882.1164466596703 287.5019658247627 L 882.2779540395851 286.13739686179593 L 882.5460263930406 284.78970613252164 L 882.9190109648348 283.4672025984384 L 883.3946081810525 282.17803993361093 L 883.9698858267036 280.93016625455795 L 884.6412971238034 279.7312751174709 L 885.4047025984385 278.5887580848817 L 886.2553956019995 277.50965915422177 L 887.1881313292354 276.50063132923543 L 888.1971591542218 275.56789560199945 L 889.2762580848818 274.7172025984384 L 890.4187751174709 273.9537971238034 L 891.6176662545579 273.28238582670355 L 892.865539933611 272.7071081810525 L 894.1547025984385 272.2315109648348 L 895.4772061325217 271.8585263930407 L 896.824896861796 271.5904540395851 L 898.1894658247628 271.42894665967026 L 899.5625000000001 271.375 L 900.9355341752373 271.42894665967026 L 902.3001031382041 271.5904540395851 L 903.6477938674784 271.8585263930407 L 904.9702974015617 272.23151096483485 L 906.2594600663891 272.7071081810525 L 907.5073337454421 273.2823858267036 L 908.7062248825292 273.95379712380344 L 909.8487419151184 274.7172025984385 L 910.9278408457783 275.56789560199957 L 911.9368686707646 276.5006313292355 L 912.8696043980007 277.5096591542219 L 913.7202974015617 278.5887580848818 L 914.4837028761967 279.73127511747106 L 915.1551141732965 280.93016625455806 L 915.7303918189476 282.1780399336111 L 916.2059890351652 283.4672025984386 L 916.5789736069594 284.7897061325218 L 916.8470459604149 286.13739686179616 L 917.0085533403297 287.5019658247629 Z" fill-opacity="1" stroke-opacity="1" stroke-miterlimit="10" stroke-width="6"/><text fill="rgb(255,255,255)" stroke="none" font-family="times new roman" font-size="10px" font-style="normal" font-weight="normal" text-decoration="normal" x="899.5625" y="293.875" text-anchor="middle" dominant-baseline="text-after-edge" fill-opacity="1">*1.54</text><path fill="rgb(176,190,197)" stroke="none" paint-order="stroke fill markers" d=" M 340.25 183.87500000000003 L 340.25 393.875 L 415.25 393.875 L 415.25 183.87500000000006 Z" fill-opacity="0.8"/><text fill="rgb(0,0,0)" stroke="none" font-family="times new roman" font-size="10px" font-style="normal" font-weight="normal" text-decoration="normal" x="345.25" y="198.875" text-anchor="start" dominant-baseline="text-after-edge" fill-opacity="0.8">42126310C&gt;T </text><text fill="rgb(0,0,0)" stroke="none" font-family="times new roman" font-size="10px" font-style="normal" font-weight="normal" text-decoration="normal" x="345.25" y="208.875" text-anchor="start" dominant-baseline="text-after-edge" fill-opacity="0.8">42127001G&gt;A </text><text fill="rgb(0,0,0)" stroke="none" font-family="times new roman" font-size="10px" font-style="normal" font-weight="normal" text-decoration="normal" x="345.25" y="218.875" text-anchor="start" dominant-baseline="text-after-edge" fill-opacity="0.8">42127207C&gt;T </text><text fill="rgb(0,0,0)" stroke="none" font-family="times new roman" font-size="10px" font-style="normal" font-weight="normal" text-decoration="normal" x="345.25" y="228.875" text-anchor="start" dominant-baseline="text-after-edge" fill-opacity="0.8">42129130C&gt;G </text><text fill="rgb(0,0,0)" stroke="none" font-family="times new roman" font-size="10px" font-style="normal" font-weight="normal" text-decoration="normal" x="345.25" y="238.875" text-anchor="start" dominant-baseline="text-after-edge" fill-opacity="0.8">42131469C&gt;T </text><text fill="rgb(0,0,0)" stroke="none" font-family="times new roman" font-size="10px" font-style="normal" font-weight="normal" text-decoration="normal" x="345.25" y="248.875" text-anchor="start" dominant-baseline="text-after-edge" fill-opacity="0.8">42131531G&gt;A </text><text fill="rgb(0,0,0)" stroke="none" font-family="times new roman" font-size="10px" font-style="normal" font-weight="normal" text-decoration="normal" x="345.25" y="258.875" text-anchor="start" dominant-baseline="text-after-edge" fill-opacity="0.8">42132026T&gt;C </text><text fill="rgb(0,0,0)" stroke="none" font-family="times new roman" font-size="10px" font-style="normal" font-weight="normal" text-decoration="normal" x="345.25" y="268.875" text-anchor="start" dominant-baseline="text-after-edge" fill-opacity="0.8">42132375G&gt;C </text><path fill="rgb(176,190,197)" stroke="none" paint-order="stroke fill markers" d=" M 215.5625 183.875 L 282.5625 183.875 L 282.5625 183.875 A 8 8 0 0 1 290.5625 191.875 L 290.5625 385.875 L 290.5625 385.875 A 8 8 0 0 1 282.5625 393.875 L 148.5625 393.875 L 148.5625 393.875 A 8 8 0 0 1 140.5625 385.875 L 140.5625 191.875 L 140.5625 191.875 A 8 8 0 0 1 148.5625 183.875 L 215.5625 183.875 Z" fill-opacity="0.8"/><text fill="rgb(0,0,0)" stroke="none" font-family="times new roman" font-size="10px" font-style="normal" font-weight="normal" text-decoration="normal" x="145.5625" y="198.875" text-anchor="start" dominant-baseline="text-after-edge" fill-opacity="0.8">42125924A&gt;G </text><text fill="rgb(0,0,0)" stroke="none" font-family="times new roman" font-size="10px" font-style="normal" font-weight="normal" text-decoration="normal" x="145.5625" y="208.875" text-anchor="start" dominant-baseline="text-after-edge" fill-opacity="0.8">42126069A&gt;C </text><text fill="rgb(0,0,0)" stroke="none" font-family="times new roman" font-size="10px" font-style="normal" font-weight="normal" text-decoration="normal" x="145.5625" y="218.875" text-anchor="start" dominant-baseline="text-after-edge" fill-opacity="0.8">42126136_42126138del </text><text fill="rgb(0,0,0)" stroke="none" font-family="times new roman" font-size="10px" font-style="normal" font-weight="normal" text-decoration="normal" x="145.5625" y="228.875" text-anchor="start" dominant-baseline="text-after-edge" fill-opacity="0.8">42132025_42132026insCCTTTT </text><text fill="rgb(0,0,0)" stroke="none" font-family="times new roman" font-size="10px" font-style="normal" font-weight="normal" text-decoration="normal" x="145.5625" y="238.875" text-anchor="start" dominant-baseline="text-after-edge" fill-opacity="0.8">42132027C&gt;T </text><text fill="rgb(0,0,0)" stroke="none" font-family="times new roman" font-size="10px" font-style="normal" font-weight="normal" text-decoration="normal" x="145.5625" y="248.875" text-anchor="start" dominant-baseline="text-after-edge" fill-opacity="0.8">42132561C&gt;T </text><text fill="rgb(0,0,0)" stroke="none" font-family="times new roman" font-size="10px" font-style="normal" font-weight="normal" text-decoration="normal" x="145.5625" y="258.875" text-anchor="start" dominant-baseline="text-after-edge" fill-opacity="0.8">42132844C&gt;A </text><text fill="rgb(0,0,0)" stroke="none" font-family="times new roman" font-size="10px" font-style="normal" font-weight="normal" text-decoration="normal" x="145.5625" y="268.875" text-anchor="start" dominant-baseline="text-after-edge" fill-opacity="0.8">42132851T&gt;C </text><text fill="rgb(0,0,0)" stroke="none" font-family="times new roman" font-size="10px" font-style="normal" font-weight="normal" text-decoration="normal" x="145.5625" y="278.875" text-anchor="start" dominant-baseline="text-after-edge" fill-opacity="0.8">42133330C&gt;T </text><text fill="rgb(0,0,0)" stroke="none" font-family="times new roman" font-size="10px" font-style="normal" font-weight="normal" text-decoration="normal" x="145.5625" y="288.875" text-anchor="start" dominant-baseline="text-after-edge" fill-opacity="0.8">42133400T&gt;G </text><text fill="rgb(0,0,0)" stroke="none" font-family="times new roman" font-size="10px" font-style="normal" font-weight="normal" text-decoration="normal" x="145.5625" y="298.875" text-anchor="start" dominant-baseline="text-after-edge" fill-opacity="0.8">42133533A&gt;C </text><text fill="rgb(0,0,0)" stroke="none" font-family="times new roman" font-size="10px" font-style="normal" font-weight="normal" text-decoration="normal" x="145.5625" y="308.875" text-anchor="start" dominant-baseline="text-after-edge" fill-opacity="0.8">42134096del </text><text fill="rgb(0,0,0)" stroke="none" font-family="times new roman" font-size="10px" font-style="normal" font-weight="normal" text-decoration="normal" x="145.5625" y="318.875" text-anchor="start" dominant-baseline="text-after-edge" fill-opacity="0.8">42134820T&gt;G </text><text fill="rgb(0,0,0)" stroke="none" font-family="times new roman" font-size="10px" font-style="normal" font-weight="normal" text-decoration="normal" x="145.5625" y="328.875" text-anchor="start" dominant-baseline="text-after-edge" fill-opacity="0.8">42135064_42135066dup </text><text fill="rgb(0,0,0)" stroke="none" font-family="times new roman" font-size="10px" font-style="normal" font-weight="normal" text-decoration="normal" x="145.5625" y="338.875" text-anchor="start" dominant-baseline="text-after-edge" fill-opacity="0.8">42135201T&gt;C </text><text fill="rgb(0,0,0)" stroke="none" font-family="times new roman" font-size="10px" font-style="normal" font-weight="normal" text-decoration="normal" x="145.5625" y="348.875" text-anchor="start" dominant-baseline="text-after-edge" fill-opacity="0.8">42135691T&gt;C </text><g transform="scale(0.9033437826541275,0.9033437826541275) translate(110.8655292076345,-28.910931174089058)"/></g></svg>