<svg version="1.1" xmlns="http://www.w3.org/2000/svg" xmlns:xlink="http://www.w3.org/1999/xlink" width="1017" height="608"><defs/><g transform="translate(-109.76310256795307,-34.018321069229614) scale(1.1497221805075837,1.1497221805075837)"><path fill="none" stroke="rgb(120,144,156)" paint-order="fill stroke markers" d=" M 269.3539228377179 376.05382589372016 L 590.9982964098318 489.2907116748756" stroke-opacity="1" stroke-linejoin="round" stroke-miterlimit="10"/><path fill="rgb(120,144,156)" stroke="none" paint-order="stroke fill markers" d=" M 583.2339697864109 491.16893745598827 L 592.884800481127 489.9548670700858 L 586.1230457555753 482.9626447458544 Z" fill-opacity="1"/><path fill="none" stroke="rgb(120,144,156)" paint-order="fill stroke markers" d=" M 478.840997303259 380.16337542792303 L 599.0083704161343 481.31145207689" stroke-opacity="1" stroke-linejoin="round" stroke-miterlimit="10"/><path fill="rgb(120,144,156)" stroke="none" paint-order="stroke fill markers" d=" M 591.0812560894693 480.3248627743004 L 600.5384782327028 482.5993845555844 L 596.68376237179 473.66889377222725 Z" fill-opacity="1"/><path fill="none" stroke="rgb(120,144,156)" paint-order="fill stroke markers" d=" M 393.02545013850414 243.875 L 454.453130346462 350.4874642070807" stroke-opacity="1" stroke-linejoin="round" stroke-miterlimit="10"/><path fill="rgb(120,144,156)" stroke="none" paint-order="stroke fill markers" d=" M 447.3391153524179 346.85383094758464 L 455.451605434612 352.2203945283411 L 454.8773622499007 342.5104643141319 Z" fill-opacity="1"/><path fill="none" stroke="rgb(120,144,156)" paint-order="fill stroke markers" d=" M 232.7086330346196 174.8278093310321 L 275.2177598986043 215.29322817270983" stroke-opacity="1" stroke-linejoin="round" stroke-miterlimit="10"/><path fill="rgb(120,144,156)" stroke="none" paint-order="stroke fill markers" d=" M 267.36568279554297 213.82442418048345 L 276.6663669653804 216.6721906689679 L 273.3641696542655 207.52298344000727 Z" fill-opacity="1"/><path fill="none" stroke="rgb(55,71,79)" paint-order="fill stroke markers" d=" M 336.9570069381315 103.75665801990523 L 359.1188019975086 138.76856954228253" stroke-opacity="1" stroke-linejoin="round" stroke-miterlimit="10" stroke-width="2"/><path fill="none" stroke="rgb(120,144,156)" paint-order="fill stroke markers" d=" M 795.9395775623269 243.875 L 807.7881237723732 261.8469545454904" stroke-opacity="1" stroke-linejoin="round" stroke-miterlimit="10"/><path fill="rgb(120,144,156)" stroke="none" paint-order="stroke fill markers" d=" M 800.4685347611196 258.64756136766187 L 808.8889703479452 263.5167260319673 L 807.7320407272942 253.85887876392357 Z" fill-opacity="1"/><path fill="none" stroke="rgb(120,144,156)" paint-order="fill stroke markers" d=" M 572.4395775623269 243.875 L 643.1538226003865 351.13484226361163" stroke-opacity="1" stroke-linejoin="round" stroke-miterlimit="10"/><path fill="rgb(120,144,156)" stroke="none" paint-order="stroke fill markers" d=" M 635.834233589133 347.93544908578315 L 644.2546691759586 352.80461375008855 L 643.0977395553075 343.1467664820448 Z" fill-opacity="1"/><path fill="none" stroke="rgb(120,144,156)" paint-order="fill stroke markers" d=" M 649.8905104866373 386.1825092043855 L 626.2449496247602 479.4363503562827" stroke-opacity="1" stroke-linejoin="round" stroke-miterlimit="10"/><path fill="rgb(120,144,156)" stroke="none" paint-order="stroke fill markers" d=" M 623.6751342031631 471.87271705614694 L 625.7533831908831 481.375 L 632.1082601533335 474.0110310435121 Z" fill-opacity="1"/><path fill="none" stroke="rgb(120,144,156)" paint-order="fill stroke markers" d=" M 707.5 408.07602118003024 L 639.8530685343658 479.9189045217478" stroke-opacity="1" stroke-linejoin="round" stroke-miterlimit="10"/><path fill="rgb(120,144,156)" stroke="none" paint-order="stroke fill markers" d=" M 641.2790879664147 472.05894468855405 L 638.4820156695157 481.375 L 647.6131032968119 478.0230246506517 Z" fill-opacity="1"/><path fill="none" stroke="rgb(120,144,156)" paint-order="fill stroke markers" d=" M 802.9375 406.68065693430657 L 647.9536050018353 486.095762254534" stroke-opacity="1" stroke-linejoin="round" stroke-miterlimit="10"/><path fill="rgb(120,144,156)" stroke="none" paint-order="stroke fill markers" d=" M 651.9326634018965 479.169031839042 L 646.1736725877221 487.0078152141745 L 655.9000937763328 486.9117378404346 Z" fill-opacity="1"/><path fill="none" stroke="rgb(55,71,79)" paint-order="fill stroke markers" d=" M 178.0252659574468 99.125 L 203.11880199750863 138.76856954228253" stroke-opacity="1" stroke-linejoin="round" stroke-miterlimit="10" stroke-width="2"/><path fill="none" stroke="rgb(55,71,79)" paint-order="fill stroke markers" d=" M 475.9375 169.625 L 475.9375 214.375" stroke-opacity="1" stroke-linejoin="round" stroke-miterlimit="10" stroke-width="2"/><path fill="none" stroke="rgb(120,144,156)" paint-order="fill stroke markers" d=" M 898.6092451523546 243.875 L 895.7169352393186 261.27706464343294" stroke-opacity="1" stroke-linejoin="round" stroke-miterlimit="10"/><path fill="rgb(120,144,156)" stroke="none" paint-order="stroke fill markers" d=" M 892.5243050123863 253.95452326532669 L 895.3890235457063 263.25 L 901.106573813453 255.38093913254002 Z" fill-opacity="1"/><path fill="none" stroke="rgb(120,144,156)" paint-order="fill stroke markers" d=" M 675.1092451523546 243.875 L 657.7985948595256 348.02741259518774" stroke-opacity="1" stroke-linejoin="round" stroke-miterlimit="10"/><path fill="rgb(120,144,156)" stroke="none" paint-order="stroke fill markers" d=" M 654.6059646325933 340.7048712170815 L 657.4706831659133 350.0003479517548 L 663.18823343366 342.1312870842948 Z" fill-opacity="1"/><path fill="none" stroke="rgb(120,144,156)" paint-order="fill stroke markers" d=" M 204.46589335180056 243.875 L 238.90356732066812 344.1330669577515" stroke-opacity="1" stroke-linejoin="round" stroke-miterlimit="10"/><path fill="rgb(120,144,156)" stroke="none" paint-order="stroke fill markers" d=" M 232.61293956830323 339.20960247822325 L 239.5532875308118 346.02459111792786 L 240.84106966507036 336.3833195640982 Z" fill-opacity="1"/><path fill="none" stroke="rgb(55,71,79)" paint-order="fill stroke markers" d=" M 293.6875 177.125 L 293.6875 209.375" stroke-opacity="1" stroke-linejoin="round" stroke-miterlimit="10" stroke-width="2"/><path fill="none" stroke="rgb(55,71,79)" paint-order="fill stroke markers" d=" M 250.41799306186851 103.75665801990523 L 228.25619800249137 138.76856954228253" stroke-opacity="1" stroke-linejoin="round" stroke-miterlimit="10" stroke-width="2"/><path fill="none" stroke="rgb(120,144,156)" paint-order="fill stroke markers" d=" M 474.40538518670127 251.31144825336133 L 466.38524884716884 347.82042220573476" stroke-opacity="1" stroke-linejoin="round" stroke-miterlimit="10"/><path fill="rgb(120,144,156)" stroke="none" paint-order="stroke fill markers" d=" M 462.60506610916775 340.78318422003906 L 466.21961481329873 349.81355174663867 L 471.27517961209986 341.5036922673741 Z" fill-opacity="1"/><path fill="none" stroke="rgb(120,144,156)" paint-order="fill stroke markers" d=" M 354.6663669653804 174.8278093310321 L 312.1572401013957 215.29322817270983" stroke-opacity="1" stroke-linejoin="round" stroke-miterlimit="10"/><path fill="rgb(120,144,156)" stroke="none" paint-order="stroke fill markers" d=" M 314.0108303457345 207.52298344000727 L 310.7086330346196 216.6721906689679 L 320.00931720445703 213.82442418048345 Z" fill-opacity="1"/><path fill="none" stroke="rgb(120,144,156)" paint-order="fill stroke markers" d=" M 286.05328753081176 255.10040888207214 L 255.47143267933188 344.1330669577515" stroke-opacity="1" stroke-linejoin="round" stroke-miterlimit="10"/><path fill="rgb(120,144,156)" stroke="none" paint-order="stroke fill markers" d=" M 253.53393033492964 336.3833195640982 L 254.8217124691882 346.02459111792786 L 261.7620604316968 339.20960247822325 Z" fill-opacity="1"/><path fill="none" stroke="rgb(55,71,79)" paint-order="fill stroke markers" d=" M 409.3497340425532 99.125 L 384.2561980024914 138.76856954228253" stroke-opacity="1" stroke-linejoin="round" stroke-miterlimit="10" stroke-width="2"/><path fill="rgb(69,90,100)" stroke="rgb(76,175,80)" paint-order="fill stroke markers" d=" M 238.1875 158.625 L 238.11814000899537 160.3903296538765 L 237.9104876633906 162.14477546340518 L 237.56582320894773 163.87752068675786 L 237.08627161664094 165.57788237343632 L 236.47478948150396 167.23537722821453 L 235.7351467942383 168.83978624413982 L 234.87190369796707 170.38121770610886 L 233.89038237343632 171.85016817658064 L 232.7966342260007 173.23758108742913 L 231.59740257669733 174.5349025766973 L 230.30008108742913 175.7341342260007 L 228.91266817658064 176.82788237343632 L 227.44371770610886 177.80940369796707 L 225.90228624413982 178.6726467942383 L 224.29787722821453 179.41228948150396 L 222.64038237343632 180.02377161664094 L 220.94002068675786 180.50332320894773 L 219.20727546340518 180.8479876633906 L 217.4528296538765 181.05564000899537 L 215.6875 181.125 L 213.9221703461235 181.05564000899537 L 212.16772453659482 180.8479876633906 L 210.43497931324214 180.50332320894773 L 208.73461762656368 180.02377161664094 L 207.07712277178547 179.41228948150396 L 205.4727137558602 178.6726467942383 L 203.93128229389114 177.80940369796707 L 202.46233182341936 176.82788237343632 L 201.07491891257087 175.7341342260007 L 199.7775974233027 174.53490257669733 L 198.5783657739993 173.23758108742913 L 197.48461762656368 171.85016817658064 L 196.50309630203293 170.38121770610886 L 195.6398532057617 168.83978624413982 L 194.90021051849604 167.23537722821453 L 194.28872838335906 165.57788237343632 L 193.80917679105227 163.87752068675786 L 193.4645123366094 162.1447754634052 L 193.25685999100463 160.3903296538765 L 193.1875 158.625 L 193.25685999100463 156.8596703461235 L 193.4645123366094 155.10522453659482 L 193.80917679105227 153.37247931324214 L 194.28872838335906 151.67211762656368 L 194.90021051849604 150.01462277178547 L 195.6398532057617 148.4102137558602 L 196.50309630203293 146.86878229389114 L 197.48461762656368 145.39983182341936 L 198.5783657739993 144.01241891257087 L 199.77759742330267 142.7150974233027 L 201.07491891257087 141.5158657739993 L 202.46233182341936 140.42211762656368 L 203.93128229389114 139.44059630203293 L 205.4727137558602 138.5773532057617 L 207.0771227717855 137.83771051849604 L 208.7346176265637 137.22622838335903 L 210.43497931324217 136.74667679105227 L 212.16772453659485 136.4020123366094 L 213.92217034612355 136.1943599910046 L 215.68750000000009 136.125 L 217.4528296538766 136.19435999100463 L 219.2072754634053 136.4020123366094 L 220.94002068675798 136.7466767910523 L 222.64038237343644 137.22622838335909 L 224.29787722821465 137.8377105184961 L 225.90228624413993 138.5773532057618 L 227.44371770610897 139.440596302033 L 228.91266817658078 140.42211762656376 L 230.30008108742925 141.51586577399942 L 231.59740257669745 142.7150974233028 L 232.7966342260008 144.012418912571 L 233.89038237343644 145.3998318234195 L 234.87190369796718 146.86878229389131 L 235.73514679423837 148.41021375586038 L 236.47478948150405 150.0146227717857 L 237.08627161664103 151.6721176265639 L 237.5658232089478 153.37247931324237 L 237.91048766339065 155.10522453659505 L 238.1181400089954 156.85967034612375 Z" fill-opacity="1" stroke-opacity="1" stroke-miterlimit="10" stroke-width="2"/><text fill="rgb(255,255,255)" stroke="none" font-family="times new roman" font-size="15px" font-style="normal" font-weight="normal" text-decoration="normal" x="215.6875" y="166.125" text-anchor="middle" dominant-baseline="text-after-edge" fill-opacity="1">*39</text><path fill="rgb(69,90,100)" stroke="rgb(76,175,80)" paint-order="fill stroke markers" d=" M 671.9375 368.25 L 671.8835533403297 369.6230341752373 L 671.7220459604149 370.98760313820407 L 671.4539736069594 372.33529386747836 L 671.0809890351652 373.6577974015616 L 670.6053918189475 374.94696006638907 L 670.0301141732964 376.19483374544205 L 669.3587028761966 377.3937248825291 L 668.5952974015615 378.5362419151183 L 667.7446043980005 379.61534084577823 L 666.8118686707646 380.62436867076457 L 665.8028408457782 381.55710439800055 L 664.7237419151182 382.4077974015616 L 663.5812248825291 383.1712028761966 L 662.3823337454421 383.84261417329645 L 661.1344600663891 384.4178918189475 L 659.8452974015615 384.8934890351652 L 658.5227938674783 385.2664736069593 L 657.175103138204 385.5345459604149 L 655.8105341752373 385.69605334032974 L 654.4375 385.75 L 653.0644658247627 385.69605334032974 L 651.699896861796 385.5345459604149 L 650.3522061325217 385.2664736069593 L 649.0297025984385 384.8934890351652 L 647.7405399336109 384.4178918189475 L 646.4926662545579 383.84261417329645 L 645.2937751174709 383.1712028761966 L 644.1512580848818 382.4077974015616 L 643.0721591542218 381.55710439800055 L 642.0631313292354 380.62436867076457 L 641.1303956019995 379.61534084577823 L 640.2797025984385 378.5362419151183 L 639.5162971238034 377.3937248825291 L 638.8448858267036 376.19483374544205 L 638.2696081810525 374.94696006638907 L 637.7940109648348 373.6577974015616 L 637.4210263930406 372.33529386747836 L 637.1529540395851 370.98760313820407 L 636.9914466596703 369.6230341752373 L 636.9375 368.25 L 636.9914466596703 366.8769658247627 L 637.1529540395851 365.51239686179593 L 637.4210263930406 364.16470613252164 L 637.7940109648348 362.8422025984384 L 638.2696081810525 361.55303993361093 L 638.8448858267036 360.30516625455795 L 639.5162971238034 359.1062751174709 L 640.2797025984385 357.9637580848817 L 641.1303956019995 356.88465915422177 L 642.0631313292354 355.87563132923543 L 643.0721591542218 354.94289560199945 L 644.1512580848818 354.0922025984384 L 645.2937751174709 353.3287971238034 L 646.4926662545579 352.65738582670355 L 647.740539933611 352.0821081810525 L 649.0297025984385 351.6065109648348 L 650.3522061325217 351.2335263930407 L 651.699896861796 350.9654540395851 L 653.0644658247628 350.80394665967026 L 654.4375000000001 350.75 L 655.8105341752373 350.80394665967026 L 657.1751031382041 350.9654540395851 L 658.5227938674784 351.2335263930407 L 659.8452974015617 351.60651096483485 L 661.1344600663891 352.0821081810525 L 662.3823337454421 352.6573858267036 L 663.5812248825292 353.32879712380344 L 664.7237419151184 354.0922025984385 L 665.8028408457783 354.94289560199957 L 666.8118686707646 355.8756313292355 L 667.7446043980007 356.8846591542219 L 668.5952974015617 357.9637580848818 L 669.3587028761967 359.10627511747106 L 670.0301141732965 360.30516625455806 L 670.6053918189476 361.5530399336111 L 671.0809890351652 362.8422025984386 L 671.4539736069594 364.1647061325218 L 671.7220459604149 365.51239686179616 L 671.8835533403297 366.8769658247629 Z" fill-opacity="1" stroke-opacity="1" stroke-miterlimit="10" stroke-width="2"/><text fill="rgb(255,255,255)" stroke="none" font-family="times new roman" font-size="10px" font-style="normal" font-weight="normal" text-decoration="normal" x="654.4375" y="373.25" text-anchor="middle" dominant-baseline="text-after-edge" fill-opacity="1">*1.58</text><path fill="rgb(69,90,100)" stroke="rgb(76,175,80)" paint-order="fill stroke markers" d=" M 517.6875 222.875 L 517.6875 242.875 L 612.6875 242.875 L 612.6875 222.875 Z" fill-opacity="1" stroke-opacity="1" stroke-miterlimit="10" stroke-width="2"/><text fill="rgb(255,255,255)" stroke="none" font-family="times new roman" font-size="10px" font-style="normal" font-weight="normal" text-decoration="normal" x="565.1875" y="237.875" text-anchor="middle" dominant-baseline="text-after-edge" fill-opacity="1">42130482C&gt;A</text><path fill="rgb(69,90,100)" stroke="rgb(76,175,80)" paint-order="fill stroke markers" d=" M 788.6875 222.875 L 831.1875 222.875 L 831.1875 222.875 A 5 5 0 0 1 836.1875 227.875 L 836.1875 237.875 L 836.1875 237.875 A 5 5 0 0 1 831.1875 242.875 L 746.1875 242.875 L 746.1875 242.875 A 5 5 0 0 1 741.1875 237.875 L 741.1875 227.875 L 741.1875 227.875 A 5 5 0 0 1 746.1875 222.875 L 788.6875 222.875 Z" fill-opacity="1" stroke-opacity="1" stroke-miterlimit="10" stroke-width="2"/><text fill="rgb(255,255,255)" stroke="none" font-family="times new roman" font-size="10px" font-style="normal" font-weight="normal" text-decoration="normal" x="788.6875" y="237.875" text-anchor="middle" dominant-baseline="text-after-edge" fill-opacity="1">42132025_4213202…</text><path fill="rgb(69,90,100)" stroke="rgb(76,175,80)" paint-order="fill stroke markers" d=" M 316.1875 232.875 L 316.1181400089954 234.6403296538765 L 315.9104876633906 236.39477546340518 L 315.56582320894773 238.12752068675786 L 315.08627161664094 239.82788237343632 L 314.47478948150393 241.48537722821453 L 313.7351467942383 243.08978624413982 L 312.87190369796707 244.63121770610886 L 311.8903823734363 246.10016817658064 L 310.7966342260007 247.48758108742913 L 309.59740257669733 248.7849025766973 L 308.30008108742913 249.9841342260007 L 306.91266817658067 251.07788237343632 L 305.4437177061088 252.05940369796707 L 303.9022862441398 252.9226467942383 L 302.29787722821453 253.66228948150396 L 300.6403823734363 254.27377161664094 L 298.94002068675786 254.75332320894773 L 297.2072754634052 255.0979876633906 L 295.4528296538765 255.30564000899537 L 293.6875 255.375 L 291.9221703461235 255.30564000899537 L 290.1677245365948 255.0979876633906 L 288.43497931324214 254.75332320894773 L 286.7346176265637 254.27377161664094 L 285.07712277178547 253.66228948150396 L 283.4727137558602 252.9226467942383 L 281.9312822938912 252.05940369796707 L 280.46233182341933 251.07788237343632 L 279.07491891257087 249.9841342260007 L 277.77759742330267 248.78490257669733 L 276.5783657739993 247.48758108742913 L 275.4846176265637 246.10016817658064 L 274.50309630203293 244.63121770610886 L 273.6398532057617 243.08978624413982 L 272.90021051849607 241.48537722821453 L 272.28872838335906 239.82788237343632 L 271.80917679105227 238.12752068675786 L 271.4645123366094 236.3947754634052 L 271.2568599910046 234.6403296538765 L 271.1875 232.875 L 271.2568599910046 231.1096703461235 L 271.4645123366094 229.35522453659482 L 271.80917679105227 227.62247931324214 L 272.28872838335906 225.92211762656368 L 272.90021051849607 224.26462277178547 L 273.6398532057617 222.6602137558602 L 274.50309630203293 221.11878229389114 L 275.4846176265637 219.64983182341936 L 276.5783657739993 218.26241891257087 L 277.77759742330267 216.9650974233027 L 279.07491891257087 215.7658657739993 L 280.46233182341933 214.67211762656368 L 281.9312822938912 213.69059630203293 L 283.47271375586024 212.8273532057617 L 285.0771227717855 212.08771051849604 L 286.7346176265637 211.47622838335903 L 288.4349793132422 210.99667679105227 L 290.16772453659485 210.6520123366094 L 291.92217034612355 210.4443599910046 L 293.68750000000006 210.375 L 295.4528296538766 210.44435999100463 L 297.20727546340527 210.6520123366094 L 298.940020686758 210.9966767910523 L 300.6403823734364 211.47622838335909 L 302.29787722821465 212.0877105184961 L 303.90228624413993 212.8273532057618 L 305.443717706109 213.690596302033 L 306.9126681765808 214.67211762656376 L 308.30008108742925 215.76586577399942 L 309.59740257669745 216.9650974233028 L 310.79663422600083 218.262418912571 L 311.8903823734364 219.6498318234195 L 312.8719036979672 221.11878229389131 L 313.7351467942384 222.66021375586038 L 314.47478948150405 224.2646227717857 L 315.08627161664106 225.9221176265639 L 315.5658232089478 227.62247931324237 L 315.91048766339065 229.35522453659505 L 316.1181400089954 231.10967034612375 Z" fill-opacity="1" stroke-opacity="1" stroke-miterlimit="10" stroke-width="2"/><text fill="rgb(255,255,255)" stroke="none" font-family="times new roman" font-size="15px" font-style="normal" font-weight="normal" text-decoration="normal" x="293.6875" y="240.375" text-anchor="middle" dominant-baseline="text-after-edge" fill-opacity="1">*2</text><path fill="rgb(69,90,100)" stroke="rgb(76,175,80)" paint-order="fill stroke markers" d=" M 344.5625 88.125 L 344.50855334032974 89.49803417523728 L 344.3470459604149 90.86260313820404 L 344.0789736069593 92.21029386747834 L 343.7059890351652 93.53279740156158 L 343.2303918189475 94.82196006638907 L 342.65511417329645 96.06983374544207 L 341.9837028761966 97.2687248825291 L 341.2202974015616 98.41124191511828 L 340.36960439800055 99.4903408457782 L 339.43686867076457 100.49936867076458 L 338.42784084577823 101.43210439800055 L 337.3487419151183 102.28279740156158 L 336.2062248825291 103.04620287619662 L 335.00733374544205 103.71761417329644 L 333.75946006638907 104.29289181894751 L 332.4702974015616 104.76848903516519 L 331.14779386747836 105.14147360695934 L 329.80010313820407 105.4095459604149 L 328.4355341752373 105.57105334032974 L 327.0625 105.625 L 325.6894658247627 105.57105334032974 L 324.32489686179593 105.4095459604149 L 322.97720613252164 105.14147360695934 L 321.6547025984384 104.76848903516519 L 320.36553993361093 104.29289181894751 L 319.11766625455795 103.71761417329644 L 317.9187751174709 103.04620287619662 L 316.7762580848817 102.28279740156158 L 315.69715915422177 101.43210439800055 L 314.68813132923543 100.49936867076458 L 313.75539560199945 99.49034084577822 L 312.9047025984384 98.41124191511828 L 312.1412971238034 97.26872488252911 L 311.46988582670355 96.06983374544207 L 310.8946081810525 94.82196006638907 L 310.4190109648348 93.53279740156158 L 310.0460263930407 92.21029386747834 L 309.7779540395851 90.86260313820404 L 309.61644665967026 89.4980341752373 L 309.5625 88.125 L 309.61644665967026 86.75196582476272 L 309.7779540395851 85.38739686179596 L 310.0460263930407 84.03970613252166 L 310.4190109648348 82.71720259843842 L 310.8946081810525 81.42803993361093 L 311.46988582670355 80.18016625455793 L 312.1412971238034 78.9812751174709 L 312.9047025984384 77.83875808488172 L 313.75539560199945 76.7596591542218 L 314.68813132923543 75.75063132923542 L 315.69715915422177 74.81789560199947 L 316.7762580848817 73.96720259843842 L 317.9187751174709 73.20379712380338 L 319.11766625455795 72.53238582670356 L 320.36553993361093 71.95710818105248 L 321.65470259843846 71.4815109648348 L 322.9772061325217 71.10852639304065 L 324.324896861796 70.84045403958508 L 325.68946582476275 70.67894665967026 L 327.06250000000006 70.625 L 328.43553417523736 70.67894665967026 L 329.8001031382041 70.8404540395851 L 331.1477938674784 71.10852639304068 L 332.47029740156165 71.48151096483484 L 333.7594600663892 71.95710818105252 L 335.00733374544217 72.5323858267036 L 336.2062248825292 73.20379712380344 L 337.34874191511835 73.96720259843849 L 338.4278408457783 74.81789560199954 L 339.4368686707647 75.75063132923552 L 340.36960439800066 76.7596591542219 L 341.22029740156165 77.83875808488185 L 341.9837028761967 78.98127511747103 L 342.6551141732965 80.18016625455807 L 343.23039181894757 81.42803993361109 L 343.70598903516526 82.71720259843859 L 344.0789736069594 84.03970613252184 L 344.34704596041496 85.38739686179616 L 344.50855334032974 86.75196582476292 Z" fill-opacity="1" stroke-opacity="1" stroke-miterlimit="10" stroke-width="2"/><text fill="rgb(255,255,255)" stroke="none" font-family="times new roman" font-size="10px" font-style="normal" font-weight="normal" text-decoration="normal" x="327.0625" y="93.125" text-anchor="middle" dominant-baseline="text-after-edge" fill-opacity="1">*34.1</text><path fill="rgb(69,90,100)" stroke="rgb(255,193,7)" paint-order="fill stroke markers" d=" M 153.1875 222.875 L 153.1875 242.875 L 248.18749999999997 242.875 L 248.1875 222.875 Z" fill-opacity="1" stroke-opacity="1" stroke-miterlimit="10" stroke-width="2"/><text fill="rgb(255,255,255)" stroke="none" font-family="times new roman" font-size="10px" font-style="normal" font-weight="normal" text-decoration="normal" x="200.6875" y="237.875" text-anchor="middle" dominant-baseline="text-after-edge" fill-opacity="1">42129759C&gt;T</text><path fill="rgb(69,90,100)" stroke="rgb(76,175,80)" paint-order="fill stroke markers" d=" M 311.1875 158.625 L 311.13355334032974 159.99803417523728 L 310.9720459604149 161.36260313820404 L 310.7039736069593 162.71029386747836 L 310.3309890351652 164.03279740156157 L 309.8553918189475 165.32196006638907 L 309.28011417329645 166.56983374544205 L 308.6087028761966 167.7687248825291 L 307.8452974015616 168.91124191511827 L 306.99460439800055 169.9903408457782 L 306.06186867076457 170.99936867076457 L 305.05284084577823 171.93210439800055 L 303.9737419151183 172.7827974015616 L 302.8312248825291 173.54620287619662 L 301.63233374544205 174.21761417329643 L 300.38446006638907 174.7928918189475 L 299.0952974015616 175.26848903516517 L 297.77279386747836 175.64147360695935 L 296.42510313820407 175.9095459604149 L 295.0605341752373 176.07105334032974 L 293.6875 176.125 L 292.3144658247627 176.07105334032974 L 290.94989686179593 175.9095459604149 L 289.60220613252164 175.64147360695935 L 288.2797025984384 175.2684890351652 L 286.99053993361093 174.7928918189475 L 285.74266625455795 174.21761417329643 L 284.5437751174709 173.54620287619662 L 283.4012580848817 172.7827974015616 L 282.32215915422177 171.93210439800055 L 281.31313132923543 170.99936867076457 L 280.38039560199945 169.9903408457782 L 279.5297025984384 168.9112419151183 L 278.7662971238034 167.7687248825291 L 278.09488582670355 166.56983374544208 L 277.5196081810525 165.32196006638907 L 277.0440109648348 164.0327974015616 L 276.6710263930407 162.71029386747836 L 276.4029540395851 161.36260313820404 L 276.24144665967026 159.99803417523728 L 276.1875 158.625 L 276.24144665967026 157.25196582476272 L 276.4029540395851 155.88739686179596 L 276.6710263930407 154.53970613252164 L 277.0440109648348 153.21720259843843 L 277.5196081810525 151.92803993361093 L 278.09488582670355 150.68016625455795 L 278.7662971238034 149.4812751174709 L 279.5297025984384 148.33875808488173 L 280.38039560199945 147.2596591542218 L 281.31313132923543 146.25063132923543 L 282.32215915422177 145.31789560199945 L 283.4012580848817 144.46720259843843 L 284.5437751174709 143.70379712380338 L 285.74266625455795 143.03238582670355 L 286.99053993361093 142.4571081810525 L 288.27970259843846 141.9815109648348 L 289.6022061325217 141.60852639304065 L 290.949896861796 141.3404540395851 L 292.31446582476275 141.17894665967026 L 293.68750000000006 141.125 L 295.06053417523736 141.17894665967026 L 296.4251031382041 141.3404540395851 L 297.7727938674784 141.60852639304068 L 299.09529740156165 141.98151096483485 L 300.3844600663892 142.45710818105252 L 301.63233374544217 143.0323858267036 L 302.8312248825292 143.70379712380344 L 303.97374191511835 144.4672025984385 L 305.0528408457783 145.31789560199954 L 306.0618686707647 146.25063132923552 L 306.99460439800066 147.2596591542219 L 307.84529740156165 148.33875808488185 L 308.6087028761967 149.48127511747103 L 309.2801141732965 150.6801662545581 L 309.85539181894757 151.9280399336111 L 310.33098903516526 153.2172025984386 L 310.7039736069594 154.53970613252184 L 310.97204596041496 155.88739686179616 L 311.13355334032974 157.25196582476292 Z" fill-opacity="1" stroke-opacity="1" stroke-miterlimit="10" stroke-width="2"/><text fill="rgb(255,255,255)" stroke="none" font-family="times new roman" font-size="10px" font-style="normal" font-weight="normal" text-decoration="normal" x="293.6875" y="163.625" text-anchor="middle" dominant-baseline="text-after-edge" fill-opacity="1">*2.4</text><path fill="rgb(69,90,100)" stroke="rgb(76,175,80)" paint-order="fill stroke markers" d=" M 339.1875 222.875 L 339.1875 242.875 L 434.1875 242.875 L 434.1875 222.875 Z" fill-opacity="1" stroke-opacity="1" stroke-miterlimit="10" stroke-width="2"/><text fill="rgb(255,255,255)" stroke="none" font-family="times new roman" font-size="10px" font-style="normal" font-weight="normal" text-decoration="normal" x="386.6875" y="237.875" text-anchor="middle" dominant-baseline="text-after-edge" fill-opacity="1">42130047G&gt;C</text><path fill="rgb(69,90,100)" stroke="rgb(76,175,80)" paint-order="fill stroke markers" d=" M 629.4375 222.875 L 629.4375 242.875 L 724.4375 242.875 L 724.4375 222.875 Z" fill-opacity="1" stroke-opacity="1" stroke-miterlimit="10" stroke-width="2"/><text fill="rgb(255,255,255)" stroke="none" font-family="times new roman" font-size="10px" font-style="normal" font-weight="normal" text-decoration="normal" x="676.9375" y="237.875" text-anchor="middle" dominant-baseline="text-after-edge" fill-opacity="1">42129950A&gt;C</text><path fill="rgb(69,90,100)" stroke="rgb(76,175,80)" paint-order="fill stroke markers" d=" M 277.8125 88.125 L 277.75855334032974 89.49803417523728 L 277.5970459604149 90.86260313820404 L 277.3289736069593 92.21029386747834 L 276.9559890351652 93.53279740156158 L 276.4803918189475 94.82196006638907 L 275.90511417329645 96.06983374544207 L 275.2337028761966 97.2687248825291 L 274.4702974015616 98.41124191511828 L 273.61960439800055 99.4903408457782 L 272.68686867076457 100.49936867076458 L 271.67784084577823 101.43210439800055 L 270.5987419151183 102.28279740156158 L 269.4562248825291 103.04620287619662 L 268.25733374544205 103.71761417329644 L 267.00946006638907 104.29289181894751 L 265.7202974015616 104.76848903516519 L 264.39779386747836 105.14147360695934 L 263.05010313820407 105.4095459604149 L 261.6855341752373 105.57105334032974 L 260.3125 105.625 L 258.9394658247627 105.57105334032974 L 257.57489686179593 105.4095459604149 L 256.22720613252164 105.14147360695934 L 254.90470259843843 104.76848903516519 L 253.61553993361093 104.29289181894751 L 252.36766625455795 103.71761417329644 L 251.1687751174709 103.04620287619662 L 250.02625808488173 102.28279740156158 L 248.9471591542218 101.43210439800055 L 247.93813132923543 100.49936867076458 L 247.00539560199945 99.49034084577822 L 246.15470259843843 98.41124191511828 L 245.39129712380338 97.26872488252911 L 244.71988582670357 96.06983374544207 L 244.1446081810525 94.82196006638907 L 243.66901096483483 93.53279740156158 L 243.29602639304065 92.21029386747834 L 243.0279540395851 90.86260313820404 L 242.86644665967026 89.4980341752373 L 242.8125 88.125 L 242.86644665967026 86.75196582476272 L 243.0279540395851 85.38739686179596 L 243.29602639304065 84.03970613252166 L 243.6690109648348 82.71720259843842 L 244.1446081810525 81.42803993361093 L 244.71988582670357 80.18016625455793 L 245.39129712380338 78.9812751174709 L 246.1547025984384 77.83875808488172 L 247.00539560199945 76.7596591542218 L 247.9381313292354 75.75063132923542 L 248.94715915422177 74.81789560199947 L 250.0262580848817 73.96720259843842 L 251.1687751174709 73.20379712380338 L 252.36766625455795 72.53238582670356 L 253.61553993361096 71.95710818105248 L 254.90470259843843 71.4815109648348 L 256.2272061325217 71.10852639304065 L 257.574896861796 70.84045403958508 L 258.93946582476275 70.67894665967026 L 260.31250000000006 70.625 L 261.68553417523736 70.67894665967026 L 263.0501031382041 70.8404540395851 L 264.3977938674784 71.10852639304068 L 265.72029740156165 71.48151096483484 L 267.0094600663892 71.95710818105252 L 268.25733374544217 72.5323858267036 L 269.4562248825292 73.20379712380344 L 270.59874191511835 73.96720259843849 L 271.6778408457783 74.81789560199954 L 272.6868686707647 75.75063132923552 L 273.61960439800066 76.7596591542219 L 274.47029740156165 77.83875808488185 L 275.2337028761967 78.98127511747103 L 275.9051141732965 80.18016625455807 L 276.48039181894757 81.42803993361109 L 276.95598903516526 82.71720259843859 L 277.3289736069594 84.03970613252184 L 277.59704596041496 85.38739686179616 L 277.75855334032974 86.75196582476292 Z" fill-opacity="1" stroke-opacity="1" stroke-miterlimit="10" stroke-width="2"/><text fill="rgb(255,255,255)" stroke="none" font-family="times new roman" font-size="10px" font-style="normal" font-weight="normal" text-decoration="normal" x="260.3125" y="93.125" text-anchor="middle" dominant-baseline="text-after-edge" fill-opacity="1">*39.2</text><path fill="rgb(69,90,100)" stroke="rgb(255,193,7)" paint-order="fill stroke markers" d=" M 123.56250000000001 78.125 L 123.5625 98.125 L 218.56249999999997 98.125 L 218.5625 78.125 Z" fill-opacity="1" stroke-opacity="1" stroke-miterlimit="10" stroke-width="2"/><text fill="rgb(255,255,255)" stroke="none" font-family="times new roman" font-size="10px" font-style="normal" font-weight="normal" text-decoration="normal" x="171.0625" y="93.125" text-anchor="middle" dominant-baseline="text-after-edge" fill-opacity="1">42126611C&gt;G</text><path fill="rgb(69,90,100)" stroke="rgb(255,193,7)" paint-order="fill stroke markers" d=" M 368.8125 78.125 L 368.8125 98.125 L 463.8125 98.125 L 463.8125 78.125 Z" fill-opacity="1" stroke-opacity="1" stroke-miterlimit="10" stroke-width="2"/><text fill="rgb(255,255,255)" stroke="none" font-family="times new roman" font-size="10px" font-style="normal" font-weight="normal" text-decoration="normal" x="416.3125" y="93.125" text-anchor="middle" dominant-baseline="text-after-edge" fill-opacity="1">42127941G&gt;A</text><path fill="rgb(69,90,100)" stroke="rgb(69,90,100)" paint-order="fill stroke markers" d=" M 602.3125 482.375 L 583.5625 499.875 L 602.3125 517.375 L 639.8125 517.375 L 658.5625 499.875 L 639.8125 482.375 Z" fill-opacity="1" stroke-opacity="1" stroke-miterlimit="10" stroke-width="2"/><text fill="rgb(255,255,255)" stroke="none" font-family="times new roman" font-size="10px" font-style="normal" font-weight="normal" text-decoration="normal" x="621.0625" y="504.875" text-anchor="middle" dominant-baseline="text-after-edge" fill-opacity="1">NA20875-all</text><path fill="rgb(69,90,100)" stroke="rgb(76,175,80)" paint-order="fill stroke markers" d=" M 482.1875 368.25 L 482.13355334032974 369.6230341752373 L 481.9720459604149 370.98760313820407 L 481.7039736069593 372.33529386747836 L 481.3309890351652 373.6577974015616 L 480.8553918189475 374.94696006638907 L 480.28011417329645 376.19483374544205 L 479.6087028761966 377.3937248825291 L 478.8452974015616 378.5362419151183 L 477.99460439800055 379.61534084577823 L 477.06186867076457 380.62436867076457 L 476.05284084577823 381.55710439800055 L 474.9737419151183 382.4077974015616 L 473.8312248825291 383.1712028761966 L 472.63233374544205 383.84261417329645 L 471.38446006638907 384.4178918189475 L 470.0952974015616 384.8934890351652 L 468.77279386747836 385.2664736069593 L 467.42510313820407 385.5345459604149 L 466.0605341752373 385.69605334032974 L 464.6875 385.75 L 463.3144658247627 385.69605334032974 L 461.94989686179593 385.5345459604149 L 460.60220613252164 385.2664736069593 L 459.2797025984384 384.8934890351652 L 457.99053993361093 384.4178918189475 L 456.74266625455795 383.84261417329645 L 455.5437751174709 383.1712028761966 L 454.4012580848817 382.4077974015616 L 453.32215915422177 381.55710439800055 L 452.31313132923543 380.62436867076457 L 451.38039560199945 379.61534084577823 L 450.5297025984384 378.5362419151183 L 449.7662971238034 377.3937248825291 L 449.09488582670355 376.19483374544205 L 448.5196081810525 374.94696006638907 L 448.0440109648348 373.6577974015616 L 447.6710263930407 372.33529386747836 L 447.4029540395851 370.98760313820407 L 447.24144665967026 369.6230341752373 L 447.1875 368.25 L 447.24144665967026 366.8769658247627 L 447.4029540395851 365.51239686179593 L 447.6710263930407 364.16470613252164 L 448.0440109648348 362.8422025984384 L 448.5196081810525 361.55303993361093 L 449.09488582670355 360.30516625455795 L 449.7662971238034 359.1062751174709 L 450.5297025984384 357.9637580848817 L 451.38039560199945 356.88465915422177 L 452.31313132923543 355.87563132923543 L 453.32215915422177 354.94289560199945 L 454.4012580848817 354.0922025984384 L 455.5437751174709 353.3287971238034 L 456.74266625455795 352.65738582670355 L 457.99053993361093 352.0821081810525 L 459.27970259843846 351.6065109648348 L 460.6022061325217 351.2335263930407 L 461.949896861796 350.9654540395851 L 463.31446582476275 350.80394665967026 L 464.68750000000006 350.75 L 466.06053417523736 350.80394665967026 L 467.4251031382041 350.9654540395851 L 468.7727938674784 351.2335263930407 L 470.09529740156165 351.60651096483485 L 471.3844600663892 352.0821081810525 L 472.63233374544217 352.6573858267036 L 473.8312248825292 353.32879712380344 L 474.97374191511835 354.0922025984385 L 476.0528408457783 354.94289560199957 L 477.0618686707647 355.8756313292355 L 477.99460439800066 356.8846591542219 L 478.84529740156165 357.9637580848818 L 479.6087028761967 359.10627511747106 L 480.2801141732965 360.30516625455806 L 480.85539181894757 361.5530399336111 L 481.33098903516526 362.8422025984386 L 481.7039736069594 364.1647061325218 L 481.97204596041496 365.51239686179616 L 482.13355334032974 366.8769658247629 Z" fill-opacity="1" stroke-opacity="1" stroke-miterlimit="10" stroke-width="2"/><text fill="rgb(255,255,255)" stroke="none" font-family="times new roman" font-size="10px" font-style="normal" font-weight="normal" text-decoration="normal" x="464.6875" y="373.25" text-anchor="middle" dominant-baseline="text-after-edge" fill-opacity="1">*1.54</text><path fill="rgb(69,90,100)" stroke="rgb(76,175,80)" paint-order="fill stroke markers" d=" M 900.4375 222.875 L 942.9375 222.875 L 942.9375 222.875 A 5 5 0 0 1 947.9375 227.875 L 947.9375 237.875 L 947.9375 237.875 A 5 5 0 0 1 942.9375 242.875 L 857.9375 242.875 L 857.9375 242.875 A 5 5 0 0 1 852.9375 237.875 L 852.9375 227.875 L 852.9375 227.875 A 5 5 0 0 1 857.9375 222.875 L 900.4375 222.875 Z" fill-opacity="1" stroke-opacity="1" stroke-miterlimit="10" stroke-width="2"/><text fill="rgb(255,255,255)" stroke="none" font-family="times new roman" font-size="10px" font-style="normal" font-weight="normal" text-decoration="normal" x="900.4375" y="237.875" text-anchor="middle" dominant-baseline="text-after-edge" fill-opacity="1">42132049dup</text><path fill="rgb(69,90,100)" stroke="rgb(158,158,158)" paint-order="fill stroke markers" d=" M 269.6875 368.25 L 269.6181400089954 370.0153296538765 L 269.4104876633906 371.7697754634052 L 269.06582320894773 373.50252068675786 L 268.58627161664094 375.2028823734363 L 267.97478948150393 376.86037722821453 L 267.2351467942383 378.4647862441398 L 266.37190369796707 380.0062177061088 L 265.3903823734363 381.47516817658067 L 264.2966342260007 382.86258108742913 L 263.09740257669733 384.15990257669733 L 261.80008108742913 385.3591342260007 L 260.41266817658067 386.4528823734363 L 258.9437177061088 387.43440369796707 L 257.4022862441398 388.2976467942383 L 255.79787722821453 389.03728948150393 L 254.14038237343632 389.64877161664094 L 252.44002068675786 390.12832320894773 L 250.70727546340518 390.4729876633906 L 248.9528296538765 390.6806400089954 L 247.1875 390.75 L 245.4221703461235 390.6806400089954 L 243.66772453659482 390.4729876633906 L 241.93497931324214 390.12832320894773 L 240.23461762656368 389.64877161664094 L 238.57712277178547 389.03728948150393 L 236.9727137558602 388.2976467942383 L 235.43128229389114 387.43440369796707 L 233.96233182341936 386.4528823734363 L 232.57491891257087 385.3591342260007 L 231.2775974233027 384.15990257669733 L 230.0783657739993 382.86258108742913 L 228.98461762656368 381.47516817658067 L 228.00309630203293 380.0062177061088 L 227.1398532057617 378.4647862441398 L 226.40021051849604 376.86037722821453 L 225.78872838335906 375.2028823734363 L 225.30917679105227 373.50252068675786 L 224.9645123366094 371.7697754634052 L 224.75685999100463 370.0153296538765 L 224.6875 368.25 L 224.75685999100463 366.4846703461235 L 224.9645123366094 364.7302245365948 L 225.30917679105227 362.99747931324214 L 225.78872838335906 361.2971176265637 L 226.40021051849604 359.63962277178547 L 227.1398532057617 358.0352137558602 L 228.00309630203293 356.4937822938912 L 228.98461762656368 355.02483182341933 L 230.0783657739993 353.63741891257087 L 231.27759742330267 352.34009742330267 L 232.57491891257087 351.14086577399934 L 233.96233182341936 350.0471176265637 L 235.43128229389114 349.06559630203293 L 236.9727137558602 348.2023532057617 L 238.5771227717855 347.462710518496 L 240.2346176265637 346.85122838335906 L 241.93497931324217 346.37167679105227 L 243.66772453659485 346.0270123366094 L 245.42217034612355 345.8193599910046 L 247.18750000000009 345.75 L 248.9528296538766 345.8193599910046 L 250.7072754634053 346.0270123366094 L 252.44002068675798 346.3716767910523 L 254.14038237343644 346.85122838335906 L 255.79787722821465 347.4627105184961 L 257.40228624413993 348.20235320576177 L 258.943717706109 349.065596302033 L 260.4126681765808 350.04711762656376 L 261.80008108742925 351.1408657739994 L 263.09740257669745 352.3400974233028 L 264.29663422600083 353.637418912571 L 265.3903823734364 355.0248318234195 L 266.3719036979672 356.49378229389134 L 267.2351467942384 358.0352137558604 L 267.97478948150405 359.6396227717857 L 268.58627161664106 361.29711762656393 L 269.0658232089478 362.99747931324237 L 269.41048766339065 364.7302245365951 L 269.6181400089954 366.4846703461238 Z" fill-opacity="1" stroke-opacity="1" stroke-miterlimit="10" stroke-width="2"/><text fill="rgb(255,255,255)" stroke="none" font-family="times new roman" font-size="15px" font-style="normal" font-weight="normal" text-decoration="normal" x="247.1875" y="375.75" text-anchor="middle" dominant-baseline="text-after-edge" fill-opacity="1">*111</text><path fill="rgb(3,169,244)" stroke="none" paint-order="stroke fill markers" d=" M 247.1875 335.75 L 271.6875 335.75 L 271.6875 335.75 A 8 8 0 0 1 279.6875 343.75 L 279.6875 392.75 L 279.6875 392.75 A 8 8 0 0 1 271.6875 400.75 L 222.6875 400.75 L 222.6875 400.75 A 8 8 0 0 1 214.6875 392.75 L 214.6875 343.75 L 214.6875 343.75 A 8 8 0 0 1 222.6875 335.75 L 247.1875 335.75 Z" fill-opacity="0.15"/><path fill="rgb(69,90,100)" stroke="rgb(76,175,80)" paint-order="fill stroke markers" d=" M 394.1875 158.625 L 394.1181400089954 160.3903296538765 L 393.9104876633906 162.14477546340518 L 393.56582320894773 163.87752068675786 L 393.08627161664094 165.57788237343632 L 392.47478948150393 167.23537722821453 L 391.7351467942383 168.83978624413982 L 390.87190369796707 170.38121770610886 L 389.8903823734363 171.85016817658064 L 388.7966342260007 173.23758108742913 L 387.59740257669733 174.5349025766973 L 386.30008108742913 175.7341342260007 L 384.91266817658067 176.82788237343632 L 383.4437177061088 177.80940369796707 L 381.9022862441398 178.6726467942383 L 380.29787722821453 179.41228948150396 L 378.6403823734363 180.02377161664094 L 376.94002068675786 180.50332320894773 L 375.2072754634052 180.8479876633906 L 373.4528296538765 181.05564000899537 L 371.6875 181.125 L 369.9221703461235 181.05564000899537 L 368.1677245365948 180.8479876633906 L 366.43497931324214 180.50332320894773 L 364.7346176265637 180.02377161664094 L 363.07712277178547 179.41228948150396 L 361.4727137558602 178.6726467942383 L 359.9312822938912 177.80940369796707 L 358.46233182341933 176.82788237343632 L 357.07491891257087 175.7341342260007 L 355.77759742330267 174.53490257669733 L 354.5783657739993 173.23758108742913 L 353.4846176265637 171.85016817658064 L 352.50309630203293 170.38121770610886 L 351.6398532057617 168.83978624413982 L 350.90021051849607 167.23537722821453 L 350.28872838335906 165.57788237343632 L 349.80917679105227 163.87752068675786 L 349.4645123366094 162.1447754634052 L 349.2568599910046 160.3903296538765 L 349.1875 158.625 L 349.2568599910046 156.8596703461235 L 349.4645123366094 155.10522453659482 L 349.80917679105227 153.37247931324214 L 350.28872838335906 151.67211762656368 L 350.90021051849607 150.01462277178547 L 351.6398532057617 148.4102137558602 L 352.50309630203293 146.86878229389114 L 353.4846176265637 145.39983182341936 L 354.5783657739993 144.01241891257087 L 355.77759742330267 142.7150974233027 L 357.07491891257087 141.5158657739993 L 358.46233182341933 140.42211762656368 L 359.9312822938912 139.44059630203293 L 361.47271375586024 138.5773532057617 L 363.0771227717855 137.83771051849604 L 364.7346176265637 137.22622838335903 L 366.4349793132422 136.74667679105227 L 368.16772453659485 136.4020123366094 L 369.92217034612355 136.1943599910046 L 371.68750000000006 136.125 L 373.4528296538766 136.19435999100463 L 375.20727546340527 136.4020123366094 L 376.940020686758 136.7466767910523 L 378.6403823734364 137.22622838335909 L 380.29787722821465 137.8377105184961 L 381.90228624413993 138.5773532057618 L 383.443717706109 139.440596302033 L 384.9126681765808 140.42211762656376 L 386.30008108742925 141.51586577399942 L 387.59740257669745 142.7150974233028 L 388.79663422600083 144.012418912571 L 389.8903823734364 145.3998318234195 L 390.8719036979672 146.86878229389131 L 391.7351467942384 148.41021375586038 L 392.47478948150405 150.0146227717857 L 393.08627161664106 151.6721176265639 L 393.5658232089478 153.37247931324237 L 393.91048766339065 155.10522453659505 L 394.1181400089954 156.85967034612375 Z" fill-opacity="1" stroke-opacity="1" stroke-miterlimit="10" stroke-width="2"/><text fill="rgb(255,255,255)" stroke="none" font-family="times new roman" font-size="15px" font-style="normal" font-weight="normal" text-decoration="normal" x="371.6875" y="166.125" text-anchor="middle" dominant-baseline="text-after-edge" fill-opacity="1">*34</text><path fill="rgb(69,90,100)" stroke="rgb(76,175,80)" paint-order="fill stroke markers" d=" M 493.4375 232.875 L 493.38355334032974 234.24803417523728 L 493.2220459604149 235.61260313820404 L 492.9539736069593 236.96029386747836 L 492.5809890351652 238.28279740156157 L 492.1053918189475 239.57196006638907 L 491.53011417329645 240.81983374544205 L 490.8587028761966 242.0187248825291 L 490.0952974015616 243.16124191511827 L 489.24460439800055 244.2403408457782 L 488.31186867076457 245.24936867076457 L 487.30284084577823 246.18210439800055 L 486.2237419151183 247.0327974015616 L 485.0812248825291 247.79620287619662 L 483.88233374544205 248.46761417329643 L 482.63446006638907 249.0428918189475 L 481.3452974015616 249.51848903516517 L 480.02279386747836 249.89147360695935 L 478.67510313820407 250.1595459604149 L 477.3105341752373 250.32105334032974 L 475.9375 250.375 L 474.5644658247627 250.32105334032974 L 473.19989686179593 250.1595459604149 L 471.85220613252164 249.89147360695935 L 470.5297025984384 249.5184890351652 L 469.24053993361093 249.0428918189475 L 467.99266625455795 248.46761417329643 L 466.7937751174709 247.79620287619662 L 465.6512580848817 247.0327974015616 L 464.57215915422177 246.18210439800055 L 463.56313132923543 245.24936867076457 L 462.63039560199945 244.2403408457782 L 461.7797025984384 243.1612419151183 L 461.0162971238034 242.0187248825291 L 460.34488582670355 240.81983374544208 L 459.7696081810525 239.57196006638907 L 459.2940109648348 238.2827974015616 L 458.9210263930407 236.96029386747836 L 458.6529540395851 235.61260313820404 L 458.49144665967026 234.24803417523728 L 458.4375 232.875 L 458.49144665967026 231.50196582476272 L 458.6529540395851 230.13739686179596 L 458.9210263930407 228.78970613252164 L 459.2940109648348 227.46720259843843 L 459.7696081810525 226.17803993361093 L 460.34488582670355 224.93016625455795 L 461.0162971238034 223.7312751174709 L 461.7797025984384 222.58875808488173 L 462.63039560199945 221.5096591542218 L 463.56313132923543 220.50063132923543 L 464.57215915422177 219.56789560199945 L 465.6512580848817 218.71720259843843 L 466.7937751174709 217.95379712380338 L 467.99266625455795 217.28238582670355 L 469.24053993361093 216.7071081810525 L 470.52970259843846 216.2315109648348 L 471.8522061325217 215.85852639304065 L 473.199896861796 215.5904540395851 L 474.56446582476275 215.42894665967026 L 475.93750000000006 215.375 L 477.31053417523736 215.42894665967026 L 478.6751031382041 215.5904540395851 L 480.0227938674784 215.85852639304068 L 481.34529740156165 216.23151096483485 L 482.6344600663892 216.70710818105252 L 483.88233374544217 217.2823858267036 L 485.0812248825292 217.95379712380344 L 486.22374191511835 218.7172025984385 L 487.3028408457783 219.56789560199954 L 488.3118686707647 220.50063132923552 L 489.24460439800066 221.5096591542219 L 490.09529740156165 222.58875808488185 L 490.8587028761967 223.73127511747103 L 491.5301141732965 224.9301662545581 L 492.10539181894757 226.1780399336111 L 492.58098903516526 227.4672025984386 L 492.9539736069594 228.78970613252184 L 493.22204596041496 230.13739686179616 L 493.38355334032974 231.50196582476292 Z" fill-opacity="1" stroke-opacity="1" stroke-miterlimit="10" stroke-width="2"/><text fill="rgb(255,255,255)" stroke="none" font-family="times new roman" font-size="10px" font-style="normal" font-weight="normal" text-decoration="normal" x="475.9375" y="237.875" text-anchor="middle" dominant-baseline="text-after-edge" fill-opacity="1">*1.41</text><path fill="rgb(69,90,100)" stroke="rgb(76,175,80)" paint-order="fill stroke markers" d=" M 428.4375 148.625 L 428.4375 168.625 L 523.4375 168.625 L 523.4375 148.625 Z" fill-opacity="1" stroke-opacity="1" stroke-miterlimit="10" stroke-width="2"/><text fill="rgb(255,255,255)" stroke="none" font-family="times new roman" font-size="10px" font-style="normal" font-weight="normal" text-decoration="normal" x="475.9375" y="163.625" text-anchor="middle" dominant-baseline="text-after-edge" fill-opacity="1">42127407T&gt;G</text><path fill="rgb(176,190,197)" stroke="none" paint-order="stroke fill markers" d=" M 707.5 263.25 L 707.5 473.25 L 782.5 473.25 L 782.5 263.25000000000006 Z" fill-opacity="0.8"/><text fill="rgb(0,0,0)" stroke="none" font-family="times new roman" font-size="10px" font-style="normal" font-weight="normal" text-decoration="normal" x="712.5" y="278.25" text-anchor="start" dominant-baseline="text-after-edge" fill-opacity="0.8">42126310C&gt;T </text><text fill="rgb(0,0,0)" stroke="none" font-family="times new roman" font-size="10px" font-style="normal" font-weight="normal" text-decoration="normal" x="712.5" y="288.25" text-anchor="start" dominant-baseline="text-after-edge" fill-opacity="0.8">42127001G&gt;A </text><text fill="rgb(0,0,0)" stroke="none" font-family="times new roman" font-size="10px" font-style="normal" font-weight="normal" text-decoration="normal" x="712.5" y="298.25" text-anchor="start" dominant-baseline="text-after-edge" fill-opacity="0.8">42127207C&gt;T </text><text fill="rgb(0,0,0)" stroke="none" font-family="times new roman" font-size="10px" font-style="normal" font-weight="normal" text-decoration="normal" x="712.5" y="308.25" text-anchor="start" dominant-baseline="text-after-edge" fill-opacity="0.8">42129130C&gt;G </text><text fill="rgb(0,0,0)" stroke="none" font-family="times new roman" font-size="10px" font-style="normal" font-weight="normal" text-decoration="normal" x="712.5" y="318.25" text-anchor="start" dominant-baseline="text-after-edge" fill-opacity="0.8">42131469C&gt;T </text><text fill="rgb(0,0,0)" stroke="none" font-family="times new roman" font-size="10px" font-style="normal" font-weight="normal" text-decoration="normal" x="712.5" y="328.25" text-anchor="start" dominant-baseline="text-after-edge" fill-opacity="0.8">42131531G&gt;A </text><text fill="rgb(0,0,0)" stroke="none" font-family="times new roman" font-size="10px" font-style="normal" font-weight="normal" text-decoration="normal" x="712.5" y="338.25" text-anchor="start" dominant-baseline="text-after-edge" fill-opacity="0.8">42132026T&gt;C </text><text fill="rgb(0,0,0)" stroke="none" font-family="times new roman" font-size="10px" font-style="normal" font-weight="normal" text-decoration="normal" x="712.5" y="348.25" text-anchor="start" dominant-baseline="text-after-edge" fill-opacity="0.8">42132375G&gt;C </text><path fill="rgb(176,190,197)" stroke="none" paint-order="stroke fill markers" d=" M 877.9375 263.25 L 944.9375 263.25 L 944.9375 263.25 A 8 8 0 0 1 952.9375 271.25 L 952.9375 465.25 L 952.9375 465.25 A 8 8 0 0 1 944.9375 473.25 L 810.9375 473.25 L 810.9375 473.25 A 8 8 0 0 1 802.9375 465.25 L 802.9375 271.25 L 802.9375 271.25 A 8 8 0 0 1 810.9375 263.25 L 877.9375 263.25 Z" fill-opacity="0.8"/><text fill="rgb(0,0,0)" stroke="none" font-family="times new roman" font-size="10px" font-style="normal" font-weight="normal" text-decoration="normal" x="807.9375" y="278.25" text-anchor="start" dominant-baseline="text-after-edge" fill-opacity="0.8">42125924A&gt;G </text><text fill="rgb(0,0,0)" stroke="none" font-family="times new roman" font-size="10px" font-style="normal" font-weight="normal" text-decoration="normal" x="807.9375" y="288.25" text-anchor="start" dominant-baseline="text-after-edge" fill-opacity="0.8">42126069A&gt;C </text><text fill="rgb(0,0,0)" stroke="none" font-family="times new roman" font-size="10px" font-style="normal" font-weight="normal" text-decoration="normal" x="807.9375" y="298.25" text-anchor="start" dominant-baseline="text-after-edge" fill-opacity="0.8">42126136_42126138del </text><text fill="rgb(0,0,0)" stroke="none" font-family="times new roman" font-size="10px" font-style="normal" font-weight="normal" text-decoration="normal" x="807.9375" y="308.25" text-anchor="start" dominant-baseline="text-after-edge" fill-opacity="0.8">42132025_42132026insCCTTTT </text><text fill="rgb(0,0,0)" stroke="none" font-family="times new roman" font-size="10px" font-style="normal" font-weight="normal" text-decoration="normal" x="807.9375" y="318.25" text-anchor="start" dominant-baseline="text-after-edge" fill-opacity="0.8">42132027C&gt;T </text><text fill="rgb(0,0,0)" stroke="none" font-family="times new roman" font-size="10px" font-style="normal" font-weight="normal" text-decoration="normal" x="807.9375" y="328.25" text-anchor="start" dominant-baseline="text-after-edge" fill-opacity="0.8">42132561C&gt;T </text><text fill="rgb(0,0,0)" stroke="none" font-family="times new roman" font-size="10px" font-style="normal" font-weight="normal" text-decoration="normal" x="807.9375" y="338.25" text-anchor="start" dominant-baseline="text-after-edge" fill-opacity="0.8">42132844C&gt;A </text><text fill="rgb(0,0,0)" stroke="none" font-family="times new roman" font-size="10px" font-style="normal" font-weight="normal" text-decoration="normal" x="807.9375" y="348.25" text-anchor="start" dominant-baseline="text-after-edge" fill-opacity="0.8">42132851T&gt;C </text><text fill="rgb(0,0,0)" stroke="none" font-family="times new roman" font-size="10px" font-style="normal" font-weight="normal" text-decoration="normal" x="807.9375" y="358.25" text-anchor="start" dominant-baseline="text-after-edge" fill-opacity="0.8">42133400T&gt;G </text><text fill="rgb(0,0,0)" stroke="none" font-family="times new roman" font-size="10px" font-style="normal" font-weight="normal" text-decoration="normal" x="807.9375" y="368.25" text-anchor="start" dominant-baseline="text-after-edge" fill-opacity="0.8">42133533A&gt;C </text><text fill="rgb(0,0,0)" stroke="none" font-family="times new roman" font-size="10px" font-style="normal" font-weight="normal" text-decoration="normal" x="807.9375" y="378.25" text-anchor="start" dominant-baseline="text-after-edge" fill-opacity="0.8">42134096del </text><text fill="rgb(0,0,0)" stroke="none" font-family="times new roman" font-size="10px" font-style="normal" font-weight="normal" text-decoration="normal" x="807.9375" y="388.25" text-anchor="start" dominant-baseline="text-after-edge" fill-opacity="0.8">42134820T&gt;G </text><text fill="rgb(0,0,0)" stroke="none" font-family="times new roman" font-size="10px" font-style="normal" font-weight="normal" text-decoration="normal" x="807.9375" y="398.25" text-anchor="start" dominant-baseline="text-after-edge" fill-opacity="0.8">42135064_42135066dup </text><text fill="rgb(0,0,0)" stroke="none" font-family="times new roman" font-size="10px" font-style="normal" font-weight="normal" text-decoration="normal" x="807.9375" y="408.25" text-anchor="start" dominant-baseline="text-after-edge" fill-opacity="0.8">42135201T&gt;C </text><text fill="rgb(0,0,0)" stroke="none" font-family="times new roman" font-size="10px" font-style="normal" font-weight="normal" text-decoration="normal" x="807.9375" y="418.25" text-anchor="start" dominant-baseline="text-after-edge" fill-opacity="0.8">42135691T&gt;C </text><g transform="scale(0.8697753396029259,0.8697753396029259) translate(109.76310256795307,34.018321069229614)"/></g></svg>