<svg version="1.1" xmlns="http://www.w3.org/2000/svg" xmlns:xlink="http://www.w3.org/1999/xlink" width="1017" height="608"><defs/><g transform="translate(209.19599682917163,-52.21086008719777) scale(1.7376139516448672,1.7376139516448672)"><path fill="none" stroke="rgb(120,144,156)" paint-order="fill stroke markers" d=" M 87.54143258426967 287.4375 L 111.3329674412862 323.02483785335244" stroke-opacity="1" stroke-linejoin="round" stroke-miterlimit="10"/><path fill="rgb(120,144,156)" stroke="none" paint-order="stroke fill markers" d=" M 103.99296791973762 319.8725518536902 L 112.44452247191012 324.6875 L 111.22554825765447 315.0372874704761 Z" fill-opacity="1"/><path fill="none" stroke="rgb(120,144,156)" paint-order="fill stroke markers" d=" M 132.16643258426967 220.6875 L 158.04406093610478 259.3952129968626" stroke-opacity="1" stroke-linejoin="round" stroke-miterlimit="10"/><path fill="rgb(120,144,156)" stroke="none" paint-order="stroke fill markers" d=" M 150.7040614145562 256.24292699720036 L 159.1556159667287 261.05787514351016 L 157.93664175247307 251.40766261398628 Z" fill-opacity="1"/><path fill="none" stroke="rgb(120,144,156)" paint-order="fill stroke markers" d=" M 170.89903846153845 142.6875 L 202.96022458285725 192.4541172629426" stroke-opacity="1" stroke-linejoin="round" stroke-miterlimit="10"/><path fill="rgb(120,144,156)" stroke="none" paint-order="stroke fill markers" d=" M 195.67483628036672 189.17759207885902 L 204.04337340404192 194.13542289582625 L 202.98851578341058 184.46589470670574 Z" fill-opacity="1"/><path fill="none" stroke="rgb(120,144,156)" paint-order="fill stroke markers" d=" M 159.1556159667287 291.81712485648984 L 138.2920325587138 323.02483785335244" stroke-opacity="1" stroke-linejoin="round" stroke-miterlimit="10"/><path fill="rgb(120,144,156)" stroke="none" paint-order="stroke fill markers" d=" M 138.39945174234552 315.0372874704761 L 137.18047752808988 324.6875 L 145.63203208026238 319.8725518536902 Z" fill-opacity="1"/><path fill="none" stroke="rgb(120,144,156)" paint-order="fill stroke markers" d=" M 203.7806159667287 225.06712485648984 L 180.83093906389522 259.3952129968626" stroke-opacity="1" stroke-linejoin="round" stroke-miterlimit="10"/><path fill="rgb(120,144,156)" stroke="none" paint-order="stroke fill markers" d=" M 180.93835824752696 251.40766261398628 L 179.7193840332713 261.05787514351016 L 188.1709385854438 256.24292699720036 Z" fill-opacity="1"/><path fill="none" stroke="rgb(55,71,79)" paint-order="fill stroke markers" d=" M 264.3125 70.3125 L 264.3125 108.1875" stroke-opacity="1" stroke-linejoin="round" stroke-miterlimit="10" stroke-width="2"/><path fill="none" stroke="rgb(120,144,156)" paint-order="fill stroke markers" d=" M 251.58550135108027 151.44284118638285 L 225.16477541714275 192.4541172629426" stroke-opacity="1" stroke-linejoin="round" stroke-miterlimit="10"/><path fill="rgb(120,144,156)" stroke="none" paint-order="stroke fill markers" d=" M 225.13648421658942 184.46589470670574 L 224.08162659595808 194.13542289582625 L 232.45016371963328 189.17759207885902 Z" fill-opacity="1"/><path fill="rgb(69,90,100)" stroke="rgb(76,175,80)" paint-order="fill stroke markers" d=" M 80.1875 266.4375 L 122.6875 266.4375 L 122.6875 266.4375 A 5 5 0 0 1 127.6875 271.4375 L 127.6875 281.4375 L 127.6875 281.4375 A 5 5 0 0 1 122.6875 286.4375 L 37.6875 286.4375 L 37.6875 286.4375 A 5 5 0 0 1 32.6875 281.4375 L 32.6875 271.4375 L 32.6875 271.4375 A 5 5 0 0 1 37.6875 266.4375 L 80.1875 266.4375 Z" fill-opacity="1" stroke-opacity="1" stroke-miterlimit="10" stroke-width="2"/><text fill="rgb(255,255,255)" stroke="none" font-family="times new roman" font-size="10px" font-style="normal" font-weight="normal" text-decoration="normal" x="80.1875" y="281.4375" text-anchor="middle" dominant-baseline="text-after-edge" fill-opacity="1">42132049dup</text><path fill="rgb(69,90,100)" stroke="rgb(244,67,54)" paint-order="fill stroke markers" d=" M 286.8125 131.6875 L 286.7431400089954 133.4528296538765 L 286.5354876633906 135.20727546340518 L 286.19082320894773 136.94002068675786 L 285.71127161664094 138.64038237343632 L 285.09978948150393 140.29787722821453 L 284.3601467942383 141.90228624413982 L 283.49690369796707 143.44371770610886 L 282.5153823734363 144.91266817658064 L 281.4216342260007 146.30008108742913 L 280.22240257669733 147.5974025766973 L 278.92508108742913 148.7966342260007 L 277.53766817658067 149.89038237343632 L 276.0687177061088 150.87190369796707 L 274.5272862441398 151.7351467942383 L 272.92287722821453 152.47478948150396 L 271.2653823734363 153.08627161664094 L 269.56502068675786 153.56582320894773 L 267.8322754634052 153.9104876633906 L 266.0778296538765 154.11814000899537 L 264.3125 154.1875 L 262.5471703461235 154.11814000899537 L 260.7927245365948 153.9104876633906 L 259.05997931324214 153.56582320894773 L 257.3596176265637 153.08627161664094 L 255.70212277178547 152.47478948150396 L 254.0977137558602 151.7351467942383 L 252.55628229389114 150.87190369796707 L 251.08733182341936 149.89038237343632 L 249.69991891257087 148.7966342260007 L 248.4025974233027 147.59740257669733 L 247.2033657739993 146.30008108742913 L 246.10961762656368 144.91266817658064 L 245.12809630203293 143.44371770610886 L 244.2648532057617 141.90228624413982 L 243.52521051849604 140.29787722821453 L 242.91372838335906 138.64038237343632 L 242.43417679105227 136.94002068675786 L 242.0895123366094 135.2072754634052 L 241.88185999100463 133.4528296538765 L 241.8125 131.6875 L 241.88185999100463 129.9221703461235 L 242.0895123366094 128.16772453659482 L 242.43417679105227 126.43497931324214 L 242.91372838335906 124.73461762656369 L 243.52521051849604 123.07712277178548 L 244.2648532057617 121.4727137558602 L 245.12809630203293 119.93128229389116 L 246.10961762656368 118.46233182341936 L 247.2033657739993 117.07491891257087 L 248.40259742330267 115.77759742330268 L 249.69991891257087 114.57836577399931 L 251.08733182341936 113.48461762656369 L 252.55628229389114 112.50309630203293 L 254.0977137558602 111.63985320576171 L 255.7021227717855 110.90021051849604 L 257.3596176265637 110.28872838335903 L 259.0599793132422 109.80917679105227 L 260.79272453659485 109.46451233660939 L 262.54717034612355 109.25685999100462 L 264.31250000000006 109.1875 L 266.0778296538766 109.25685999100463 L 267.83227546340527 109.46451233660942 L 269.565020686758 109.8091767910523 L 271.2653823734364 110.28872838335909 L 272.92287722821465 110.9002105184961 L 274.52728624413993 111.63985320576178 L 276.068717706109 112.503096302033 L 277.5376681765808 113.48461762656378 L 278.92508108742925 114.57836577399941 L 280.22240257669745 115.77759742330281 L 281.42163422600083 117.07491891257101 L 282.5153823734364 118.4623318234195 L 283.4969036979672 119.93128229389133 L 284.3601467942384 121.47271375586038 L 285.09978948150405 123.07712277178568 L 285.71127161664106 124.7346176265639 L 286.1908232089478 126.43497931324237 L 286.53548766339065 128.16772453659505 L 286.7431400089954 129.92217034612375 Z" fill-opacity="1" stroke-opacity="1" stroke-miterlimit="10" stroke-width="2"/><text fill="rgb(255,255,255)" stroke="none" font-family="times new roman" font-size="15px" font-style="normal" font-weight="normal" text-decoration="normal" x="264.3125" y="139.1875" text-anchor="middle" dominant-baseline="text-after-edge" fill-opacity="1">*6</text><path fill="rgb(3,169,244)" stroke="none" paint-order="stroke fill markers" d=" M 264.3125 99.1875 L 288.8125 99.1875 L 288.8125 99.1875 A 8 8 0 0 1 296.8125 107.1875 L 296.8125 156.1875 L 296.8125 156.1875 A 8 8 0 0 1 288.8125 164.1875 L 239.8125 164.1875 L 239.8125 164.1875 A 8 8 0 0 1 231.8125 156.1875 L 231.8125 107.1875 L 231.8125 107.1875 A 8 8 0 0 1 239.8125 99.1875 L 264.3125 99.1875 Z" fill-opacity="0.15"/><path fill="rgb(69,90,100)" stroke="rgb(76,175,80)" paint-order="fill stroke markers" d=" M 77.31250000000001 199.6875 L 77.3125 219.6875 L 172.31249999999997 219.6875 L 172.3125 199.6875 Z" fill-opacity="1" stroke-opacity="1" stroke-miterlimit="10" stroke-width="2"/><text fill="rgb(255,255,255)" stroke="none" font-family="times new roman" font-size="10px" font-style="normal" font-weight="normal" text-decoration="normal" x="124.8125" y="214.6875" text-anchor="middle" dominant-baseline="text-after-edge" fill-opacity="1">42129545G&gt;A</text><path fill="rgb(69,90,100)" stroke="rgb(244,67,54)" paint-order="fill stroke markers" d=" M 231.5625 209.6875 L 231.50855334032974 211.06053417523728 L 231.3470459604149 212.42510313820404 L 231.07897360695935 213.77279386747836 L 230.70598903516517 215.09529740156157 L 230.2303918189475 216.38446006638907 L 229.65511417329643 217.63233374544205 L 228.98370287619662 218.8312248825291 L 228.2202974015616 219.97374191511827 L 227.36960439800055 221.0528408457782 L 226.43686867076457 222.06186867076457 L 225.4278408457782 222.99460439800055 L 224.34874191511827 223.8452974015616 L 223.2062248825291 224.60870287619662 L 222.00733374544208 225.28011417329643 L 220.75946006638907 225.8553918189475 L 219.4702974015616 226.33098903516517 L 218.14779386747836 226.70397360695935 L 216.80010313820404 226.9720459604149 L 215.43553417523728 227.13355334032974 L 214.0625 227.1875 L 212.68946582476272 227.13355334032974 L 211.32489686179596 226.9720459604149 L 209.97720613252164 226.70397360695935 L 208.65470259843843 226.3309890351652 L 207.36553993361093 225.8553918189475 L 206.11766625455795 225.28011417329643 L 204.9187751174709 224.60870287619662 L 203.77625808488173 223.8452974015616 L 202.6971591542218 222.99460439800055 L 201.68813132923543 222.06186867076457 L 200.75539560199945 221.0528408457782 L 199.90470259843843 219.9737419151183 L 199.14129712380338 218.8312248825291 L 198.46988582670357 217.63233374544208 L 197.8946081810525 216.38446006638907 L 197.41901096483483 215.0952974015616 L 197.04602639304065 213.77279386747836 L 196.7779540395851 212.42510313820404 L 196.61644665967026 211.06053417523728 L 196.5625 209.6875 L 196.61644665967026 208.31446582476272 L 196.7779540395851 206.94989686179596 L 197.04602639304065 205.60220613252164 L 197.4190109648348 204.27970259843843 L 197.8946081810525 202.99053993361093 L 198.46988582670357 201.74266625455795 L 199.14129712380338 200.5437751174709 L 199.9047025984384 199.40125808488173 L 200.75539560199945 198.3221591542218 L 201.6881313292354 197.31313132923543 L 202.69715915422177 196.38039560199945 L 203.7762580848817 195.52970259843843 L 204.9187751174709 194.76629712380338 L 206.11766625455795 194.09488582670355 L 207.36553993361096 193.5196081810525 L 208.65470259843843 193.0440109648348 L 209.9772061325217 192.67102639304065 L 211.324896861796 192.4029540395851 L 212.68946582476278 192.24144665967026 L 214.06250000000006 192.1875 L 215.43553417523736 192.24144665967026 L 216.80010313820412 192.4029540395851 L 218.1477938674784 192.67102639304068 L 219.47029740156165 193.04401096483485 L 220.75946006638915 193.51960818105252 L 222.00733374544217 194.0948858267036 L 223.2062248825292 194.76629712380344 L 224.34874191511838 195.5297025984385 L 225.42784084577832 196.38039560199954 L 226.43686867076468 197.31313132923552 L 227.36960439800063 198.3221591542219 L 228.22029740156168 199.40125808488185 L 228.9837028761967 200.54377511747103 L 229.6551141732965 201.7426662545581 L 230.2303918189476 202.9905399336111 L 230.70598903516523 204.2797025984386 L 231.07897360695938 205.60220613252184 L 231.34704596041493 206.94989686179616 L 231.50855334032974 208.31446582476292 Z" fill-opacity="1" stroke-opacity="1" stroke-miterlimit="10" stroke-width="2"/><text fill="rgb(255,255,255)" stroke="none" font-family="times new roman" font-size="10px" font-style="normal" font-weight="normal" text-decoration="normal" x="214.0625" y="214.6875" text-anchor="middle" dominant-baseline="text-after-edge" fill-opacity="1">*6.2</text><path fill="rgb(69,90,100)" stroke="rgb(69,90,100)" paint-order="fill stroke markers" d=" M 106.0625 325.6875 L 87.3125 343.1875 L 106.06249999999999 360.6875 L 143.56249999999997 360.6875 L 162.3125 343.1875 L 143.56250000000006 325.6875 Z" fill-opacity="1" stroke-opacity="1" stroke-miterlimit="10" stroke-width="2"/><text fill="rgb(255,255,255)" stroke="none" font-family="times new roman" font-size="10px" font-style="normal" font-weight="normal" text-decoration="normal" x="124.8125" y="348.1875" text-anchor="middle" dominant-baseline="text-after-edge" fill-opacity="1">NA20289-A</text><path fill="rgb(69,90,100)" stroke="rgb(244,67,54)" paint-order="fill stroke markers" d=" M 186.9375 276.4375 L 186.88355334032974 277.8105341752373 L 186.7220459604149 279.17510313820407 L 186.45397360695935 280.52279386747836 L 186.08098903516517 281.8452974015616 L 185.6053918189475 283.13446006638907 L 185.03011417329643 284.38233374544205 L 184.35870287619662 285.5812248825291 L 183.5952974015616 286.7237419151183 L 182.74460439800055 287.80284084577823 L 181.81186867076457 288.81186867076457 L 180.8028408457782 289.74460439800055 L 179.72374191511827 290.5952974015616 L 178.5812248825291 291.3587028761966 L 177.38233374544208 292.03011417329645 L 176.13446006638907 292.6053918189475 L 174.8452974015616 293.0809890351652 L 173.52279386747836 293.4539736069593 L 172.17510313820404 293.7220459604149 L 170.81053417523728 293.88355334032974 L 169.4375 293.9375 L 168.06446582476272 293.88355334032974 L 166.69989686179596 293.7220459604149 L 165.35220613252164 293.4539736069593 L 164.02970259843843 293.0809890351652 L 162.74053993361093 292.6053918189475 L 161.49266625455795 292.03011417329645 L 160.2937751174709 291.3587028761966 L 159.15125808488173 290.5952974015616 L 158.0721591542218 289.74460439800055 L 157.06313132923543 288.81186867076457 L 156.13039560199945 287.80284084577823 L 155.27970259843843 286.7237419151183 L 154.51629712380338 285.5812248825291 L 153.84488582670357 284.38233374544205 L 153.2696081810525 283.13446006638907 L 152.79401096483483 281.8452974015616 L 152.42102639304065 280.52279386747836 L 152.1529540395851 279.17510313820407 L 151.99144665967026 277.8105341752373 L 151.9375 276.4375 L 151.99144665967026 275.0644658247627 L 152.1529540395851 273.69989686179593 L 152.42102639304065 272.35220613252164 L 152.7940109648348 271.0297025984384 L 153.2696081810525 269.74053993361093 L 153.84488582670357 268.49266625455795 L 154.51629712380338 267.2937751174709 L 155.2797025984384 266.1512580848817 L 156.13039560199945 265.07215915422177 L 157.0631313292354 264.06313132923543 L 158.07215915422177 263.13039560199945 L 159.1512580848817 262.2797025984384 L 160.2937751174709 261.5162971238034 L 161.49266625455795 260.84488582670355 L 162.74053993361096 260.2696081810525 L 164.02970259843843 259.7940109648348 L 165.3522061325217 259.4210263930407 L 166.699896861796 259.1529540395851 L 168.06446582476278 258.99144665967026 L 169.43750000000006 258.9375 L 170.81053417523736 258.99144665967026 L 172.17510313820412 259.1529540395851 L 173.5227938674784 259.4210263930407 L 174.84529740156165 259.79401096483485 L 176.13446006638915 260.2696081810525 L 177.38233374544217 260.8448858267036 L 178.5812248825292 261.51629712380344 L 179.72374191511838 262.2797025984385 L 180.80284084577832 263.13039560199957 L 181.81186867076468 264.0631313292355 L 182.74460439800063 265.0721591542219 L 183.59529740156168 266.1512580848818 L 184.3587028761967 267.29377511747106 L 185.0301141732965 268.49266625455806 L 185.6053918189476 269.7405399336111 L 186.08098903516523 271.0297025984386 L 186.45397360695938 272.3522061325218 L 186.72204596041493 273.69989686179616 L 186.88355334032974 275.0644658247629 Z" fill-opacity="1" stroke-opacity="1" stroke-miterlimit="10" stroke-width="2"/><text fill="rgb(255,255,255)" stroke="none" font-family="times new roman" font-size="10px" font-style="normal" font-weight="normal" text-decoration="normal" x="169.4375" y="281.4375" text-anchor="middle" dominant-baseline="text-after-edge" fill-opacity="1">*6.5</text><path fill="rgb(69,90,100)" stroke="rgb(244,67,54)" paint-order="fill stroke markers" d=" M 216.8125 49.3125 L 216.8125 69.3125 L 311.8125 69.3125 L 311.8125 49.3125 Z" fill-opacity="1" stroke-opacity="1" stroke-miterlimit="10" stroke-width="2"/><text fill="rgb(255,255,255)" stroke="none" font-family="times new roman" font-size="10px" font-style="normal" font-weight="normal" text-decoration="normal" x="264.3125" y="64.3125" text-anchor="middle" dominant-baseline="text-after-edge" fill-opacity="1">42129084del</text><path fill="rgb(69,90,100)" stroke="rgb(158,158,158)" paint-order="fill stroke markers" d=" M 116.31250000000001 121.6875 L 116.3125 141.6875 L 211.31249999999997 141.6875 L 211.3125 121.6875 Z" fill-opacity="1" stroke-opacity="1" stroke-miterlimit="10" stroke-width="2"/><text fill="rgb(255,255,255)" stroke="none" font-family="times new roman" font-size="10px" font-style="normal" font-weight="normal" text-decoration="normal" x="163.8125" y="136.6875" text-anchor="middle" dominant-baseline="text-after-edge" fill-opacity="1">42128815C&gt;T</text><g transform="scale(0.5755018248175182,0.5755018248175182) translate(-209.19599682917163,52.21086008719777)"/></g></svg>