<svg version="1.1" xmlns="http://www.w3.org/2000/svg" xmlns:xlink="http://www.w3.org/1999/xlink" width="1017" height="608"><defs/><g transform="translate(-112.66016796640668,-33.56208758248346) scale(1.1481703659268145,1.1481703659268145)"><path fill="none" stroke="rgb(120,144,156)" paint-order="fill stroke markers" d=" M 709.3156375081556 173.65439591014626 L 760.8968614273205 216.56650656558597" stroke-opacity="1" stroke-linejoin="round" stroke-miterlimit="10"/><path fill="rgb(120,144,156)" stroke="none" paint-order="stroke fill markers" d=" M 752.9641957458831 215.6255946746284 L 762.4343624918444 217.84560408985374 L 758.5282699764479 208.93746504394952 Z" fill-opacity="1"/><path fill="none" stroke="rgb(120,144,156)" paint-order="fill stroke markers" d=" M 788.1342124691882 255.10040888207214 L 818.7160673206681 344.1330669577515" stroke-opacity="1" stroke-linejoin="round" stroke-miterlimit="10"/><path fill="rgb(120,144,156)" stroke="none" paint-order="stroke fill markers" d=" M 812.4254395683032 339.20960247822325 L 819.3657875308118 346.02459111792786 L 820.6535696650703 336.3833195640982 Z" fill-opacity="1"/><path fill="none" stroke="rgb(55,71,79)" paint-order="fill stroke markers" d=" M 832.0877659574468 99.125 L 857.1813019975086 138.76856954228253" stroke-opacity="1" stroke-linejoin="round" stroke-miterlimit="10" stroke-width="2"/><path fill="none" stroke="rgb(120,144,156)" paint-order="fill stroke markers" d=" M 178.29016620498615 243.875 L 221.80379113732477 349.30062819177346" stroke-opacity="1" stroke-linejoin="round" stroke-miterlimit="10"/><path fill="rgb(120,144,156)" stroke="none" paint-order="stroke fill markers" d=" M 215.22662690582675 344.7670412375061 L 222.56683590441503 351.14934739257603 L 223.268555429318 341.44779650066346 Z" fill-opacity="1"/><path fill="none" stroke="rgb(120,144,156)" paint-order="fill stroke markers" d=" M 247.206553374787 374.00664667402077 L 601.0079359255269 489.85019637113794" stroke-opacity="1" stroke-linejoin="round" stroke-miterlimit="10"/><path fill="rgb(120,144,156)" stroke="none" paint-order="stroke fill markers" d=" M 593.2869726475234 491.89939769353714 L 602.9086443984768 490.4725365521132 L 595.9941524347656 483.63131583620486 Z" fill-opacity="1"/><path fill="none" stroke="rgb(120,144,156)" paint-order="fill stroke markers" d=" M 869.7216066481994 243.875 L 835.2839326793319 344.1330669577515" stroke-opacity="1" stroke-linejoin="round" stroke-miterlimit="10"/><path fill="rgb(120,144,156)" stroke="none" paint-order="stroke fill markers" d=" M 833.3464303349297 336.3833195640982 L 834.6342124691882 346.02459111792786 L 841.5745604316968 339.20960247822325 Z" fill-opacity="1"/><path fill="none" stroke="rgb(120,144,156)" paint-order="fill stroke markers" d=" M 280.9598337950139 243.875 L 237.44620886267523 349.30062819177346" stroke-opacity="1" stroke-linejoin="round" stroke-miterlimit="10"/><path fill="rgb(120,144,156)" stroke="none" paint-order="stroke fill markers" d=" M 235.981444570682 341.44779650066346 L 236.68316409558497 351.14934739257603 L 244.02337309417325 344.7670412375061 Z" fill-opacity="1"/><path fill="none" stroke="rgb(55,71,79)" paint-order="fill stroke markers" d=" M 653.5877659574468 99.125 L 678.6813019975086 138.76856954228253" stroke-opacity="1" stroke-linejoin="round" stroke-miterlimit="10" stroke-width="2"/><path fill="none" stroke="rgb(120,144,156)" paint-order="fill stroke markers" d=" M 457.0758157192198 378.79443936254177 L 607.6213205074248 483.22422628084206" stroke-opacity="1" stroke-linejoin="round" stroke-miterlimit="10"/><path fill="rgb(120,144,156)" stroke="none" paint-order="stroke fill markers" d=" M 599.636792045488 482.97967518081913 L 609.2646519365296 484.3641656713871 L 604.595528394359 475.8311834642131 Z" fill-opacity="1"/><path fill="none" stroke="rgb(120,144,156)" paint-order="fill stroke markers" d=" M 580.2901662049861 243.875 L 587.5240050944055 261.4012807991974" stroke-opacity="1" stroke-linejoin="round" stroke-miterlimit="10"/><path fill="rgb(120,144,156)" stroke="none" paint-order="stroke fill markers" d=" M 580.9468408629075 256.8676938449301 L 588.2870498614958 263.25 L 588.9887693863988 253.54844910808742 Z" fill-opacity="1"/><path fill="none" stroke="rgb(120,144,156)" paint-order="fill stroke markers" d=" M 631.625 473.25 L 631.625 479.375" stroke-opacity="1" stroke-linejoin="round" stroke-miterlimit="10"/><path fill="rgb(120,144,156)" stroke="none" paint-order="stroke fill markers" d=" M 627.275 472.675 L 631.625 481.375 L 635.975 472.675 Z" fill-opacity="1"/><path fill="none" stroke="rgb(55,71,79)" paint-order="fill stroke markers" d=" M 780.5 177.125 L 780.5 209.375" stroke-opacity="1" stroke-linejoin="round" stroke-miterlimit="10" stroke-width="2"/><path fill="none" stroke="rgb(120,144,156)" paint-order="fill stroke markers" d=" M 400.87603878116346 243.875 L 435.45708516040634 348.7805272513167" stroke-opacity="1" stroke-linejoin="round" stroke-miterlimit="10"/><path fill="rgb(120,144,156)" stroke="none" paint-order="stroke fill markers" d=" M 429.2281956051844 343.7791839408803 L 436.08322319353744 350.6799880072858 L 437.49084989364997 341.05548349676 Z" fill-opacity="1"/><path fill="none" stroke="rgb(55,71,79)" paint-order="fill stroke markers" d=" M 725.9804930618685 103.75665801990523 L 703.8186980024914 138.76856954228253" stroke-opacity="1" stroke-linejoin="round" stroke-miterlimit="10" stroke-width="2"/><path fill="none" stroke="rgb(55,71,79)" paint-order="fill stroke markers" d=" M 904.4804930618685 103.75665801990523 L 882.3186980024914 138.76856954228253" stroke-opacity="1" stroke-linejoin="round" stroke-miterlimit="10" stroke-width="2"/><path fill="none" stroke="rgb(120,144,156)" paint-order="fill stroke markers" d=" M 851.6843624918444 173.65439591014626 L 800.1031385726795 216.56650656558597" stroke-opacity="1" stroke-linejoin="round" stroke-miterlimit="10"/><path fill="rgb(120,144,156)" stroke="none" paint-order="stroke fill markers" d=" M 802.4717300235521 208.93746504394952 L 798.5656375081556 217.84560408985374 L 808.0358042541169 215.6255946746284 Z" fill-opacity="1"/><path fill="none" stroke="rgb(120,144,156)" paint-order="fill stroke markers" d=" M 480.70822319353744 250.44501199271423 L 448.29291483959366 348.7805272513167" stroke-opacity="1" stroke-linejoin="round" stroke-miterlimit="10"/><path fill="rgb(120,144,156)" stroke="none" paint-order="stroke fill markers" d=" M 446.25915010635003 341.05548349676 L 447.66677680646256 350.6799880072858 L 454.5218043948156 343.7791839408803 Z" fill-opacity="1"/><path fill="none" stroke="rgb(55,71,79)" paint-order="fill stroke markers" d=" M 486.5 169.625 L 486.5 214.375" stroke-opacity="1" stroke-linejoin="round" stroke-miterlimit="10" stroke-width="2"/><path fill="none" stroke="rgb(120,144,156)" paint-order="fill stroke markers" d=" M 807.5103547638544 381.3802600343323 L 655.9172151157969 483.5092274363825" stroke-opacity="1" stroke-linejoin="round" stroke-miterlimit="10"/><path fill="rgb(120,144,156)" stroke="none" paint-order="stroke fill markers" d=" M 659.0433424320876 476.15804875522247 L 654.25852190421 484.6266963754746 L 663.9043323171383 483.3733642256253 Z" fill-opacity="1"/><path fill="none" stroke="rgb(120,144,156)" paint-order="fill stroke markers" d=" M 682.9598337950139 243.875 L 675.7259949055945 261.4012807991974" stroke-opacity="1" stroke-linejoin="round" stroke-miterlimit="10"/><path fill="rgb(120,144,156)" stroke="none" paint-order="stroke fill markers" d=" M 674.2612306136012 253.54844910808742 L 674.9629501385042 263.25 L 682.3031591370925 256.8676938449301 Z" fill-opacity="1"/><path fill="none" stroke="rgb(120,144,156)" paint-order="fill stroke markers" d=" M 881.75 385.41101694915255 L 659.5244536567208 487.1074534113312" stroke-opacity="1" stroke-linejoin="round" stroke-miterlimit="10"/><path fill="rgb(120,144,156)" stroke="none" paint-order="stroke fill markers" d=" M 663.8066773808802 480.36393356067106 L 657.7058378588054 487.9397013188518 L 667.4269557785948 488.2749122816032 Z" fill-opacity="1"/><path fill="rgb(69,90,100)" stroke="rgb(69,90,100)" paint-order="fill stroke markers" d=" M 612.875 482.375 L 594.125 499.875 L 612.875 517.375 L 650.375 517.375 L 669.125 499.875 L 650.375 482.375 Z" fill-opacity="1" stroke-opacity="1" stroke-miterlimit="10" stroke-width="2"/><text fill="rgb(255,255,255)" stroke="none" font-family="times new roman" font-size="10px" font-style="normal" font-weight="normal" text-decoration="normal" x="631.625" y="504.875" text-anchor="middle" dominant-baseline="text-after-edge" fill-opacity="1">NA20875-A</text><path fill="rgb(69,90,100)" stroke="rgb(76,175,80)" paint-order="fill stroke markers" d=" M 575.75 222.875 L 618.25 222.875 L 618.25 222.875 A 5 5 0 0 1 623.25 227.875 L 623.25 237.875 L 623.25 237.875 A 5 5 0 0 1 618.25 242.875 L 533.25 242.875 L 533.25 242.875 A 5 5 0 0 1 528.25 237.875 L 528.25 227.875 L 528.25 227.875 A 5 5 0 0 1 533.25 222.875 L 575.75 222.875 Z" fill-opacity="1" stroke-opacity="1" stroke-miterlimit="10" stroke-width="2"/><text fill="rgb(255,255,255)" stroke="none" font-family="times new roman" font-size="10px" font-style="normal" font-weight="normal" text-decoration="normal" x="575.75" y="237.875" text-anchor="middle" dominant-baseline="text-after-edge" fill-opacity="1">42132049dup</text><path fill="rgb(69,90,100)" stroke="rgb(76,175,80)" paint-order="fill stroke markers" d=" M 504 232.875 L 503.94605334032974 234.24803417523728 L 503.7845459604149 235.61260313820404 L 503.5164736069593 236.96029386747836 L 503.1434890351652 238.28279740156157 L 502.6678918189475 239.57196006638907 L 502.09261417329645 240.81983374544205 L 501.4212028761966 242.0187248825291 L 500.6577974015616 243.16124191511827 L 499.80710439800055 244.2403408457782 L 498.87436867076457 245.24936867076457 L 497.86534084577823 246.18210439800055 L 496.7862419151183 247.0327974015616 L 495.6437248825291 247.79620287619662 L 494.44483374544205 248.46761417329643 L 493.19696006638907 249.0428918189475 L 491.9077974015616 249.51848903516517 L 490.58529386747836 249.89147360695935 L 489.23760313820407 250.1595459604149 L 487.8730341752373 250.32105334032974 L 486.5 250.375 L 485.1269658247627 250.32105334032974 L 483.76239686179593 250.1595459604149 L 482.41470613252164 249.89147360695935 L 481.0922025984384 249.5184890351652 L 479.80303993361093 249.0428918189475 L 478.55516625455795 248.46761417329643 L 477.3562751174709 247.79620287619662 L 476.2137580848817 247.0327974015616 L 475.13465915422177 246.18210439800055 L 474.12563132923543 245.24936867076457 L 473.19289560199945 244.2403408457782 L 472.3422025984384 243.1612419151183 L 471.5787971238034 242.0187248825291 L 470.90738582670355 240.81983374544208 L 470.3321081810525 239.57196006638907 L 469.8565109648348 238.2827974015616 L 469.4835263930407 236.96029386747836 L 469.2154540395851 235.61260313820404 L 469.05394665967026 234.24803417523728 L 469 232.875 L 469.05394665967026 231.50196582476272 L 469.2154540395851 230.13739686179596 L 469.4835263930407 228.78970613252164 L 469.8565109648348 227.46720259843843 L 470.3321081810525 226.17803993361093 L 470.90738582670355 224.93016625455795 L 471.5787971238034 223.7312751174709 L 472.3422025984384 222.58875808488173 L 473.19289560199945 221.5096591542218 L 474.12563132923543 220.50063132923543 L 475.13465915422177 219.56789560199945 L 476.2137580848817 218.71720259843843 L 477.3562751174709 217.95379712380338 L 478.55516625455795 217.28238582670355 L 479.80303993361093 216.7071081810525 L 481.09220259843846 216.2315109648348 L 482.4147061325217 215.85852639304065 L 483.762396861796 215.5904540395851 L 485.12696582476275 215.42894665967026 L 486.50000000000006 215.375 L 487.87303417523736 215.42894665967026 L 489.2376031382041 215.5904540395851 L 490.5852938674784 215.85852639304068 L 491.90779740156165 216.23151096483485 L 493.1969600663892 216.70710818105252 L 494.44483374544217 217.2823858267036 L 495.6437248825292 217.95379712380344 L 496.78624191511835 218.7172025984385 L 497.8653408457783 219.56789560199954 L 498.8743686707647 220.50063132923552 L 499.80710439800066 221.5096591542219 L 500.65779740156165 222.58875808488185 L 501.4212028761967 223.73127511747103 L 502.0926141732965 224.9301662545581 L 502.66789181894757 226.1780399336111 L 503.14348903516526 227.4672025984386 L 503.5164736069594 228.78970613252184 L 503.78454596041496 230.13739686179616 L 503.94605334032974 231.50196582476292 Z" fill-opacity="1" stroke-opacity="1" stroke-miterlimit="10" stroke-width="2"/><text fill="rgb(255,255,255)" stroke="none" font-family="times new roman" font-size="10px" font-style="normal" font-weight="normal" text-decoration="normal" x="486.5" y="237.875" text-anchor="middle" dominant-baseline="text-after-edge" fill-opacity="1">*1.41</text><path fill="rgb(69,90,100)" stroke="rgb(76,175,80)" paint-order="fill stroke markers" d=" M 798 158.625 L 797.9460533403297 159.99803417523728 L 797.7845459604149 161.36260313820404 L 797.5164736069594 162.71029386747836 L 797.1434890351652 164.03279740156157 L 796.6678918189475 165.32196006638907 L 796.0926141732964 166.56983374544205 L 795.4212028761966 167.7687248825291 L 794.6577974015615 168.91124191511827 L 793.8071043980005 169.9903408457782 L 792.8743686707646 170.99936867076457 L 791.8653408457782 171.93210439800055 L 790.7862419151182 172.7827974015616 L 789.6437248825291 173.54620287619662 L 788.4448337454421 174.21761417329643 L 787.1969600663891 174.7928918189475 L 785.9077974015615 175.26848903516517 L 784.5852938674783 175.64147360695935 L 783.237603138204 175.9095459604149 L 781.8730341752373 176.07105334032974 L 780.5 176.125 L 779.1269658247627 176.07105334032974 L 777.762396861796 175.9095459604149 L 776.4147061325217 175.64147360695935 L 775.0922025984385 175.2684890351652 L 773.8030399336109 174.7928918189475 L 772.5551662545579 174.21761417329643 L 771.3562751174709 173.54620287619662 L 770.2137580848818 172.7827974015616 L 769.1346591542218 171.93210439800055 L 768.1256313292354 170.99936867076457 L 767.1928956019995 169.9903408457782 L 766.3422025984385 168.9112419151183 L 765.5787971238034 167.7687248825291 L 764.9073858267036 166.56983374544208 L 764.3321081810525 165.32196006638907 L 763.8565109648348 164.0327974015616 L 763.4835263930406 162.71029386747836 L 763.2154540395851 161.36260313820404 L 763.0539466596703 159.99803417523728 L 763 158.625 L 763.0539466596703 157.25196582476272 L 763.2154540395851 155.88739686179596 L 763.4835263930406 154.53970613252164 L 763.8565109648348 153.21720259843843 L 764.3321081810525 151.92803993361093 L 764.9073858267036 150.68016625455795 L 765.5787971238034 149.4812751174709 L 766.3422025984385 148.33875808488173 L 767.1928956019995 147.2596591542218 L 768.1256313292354 146.25063132923543 L 769.1346591542218 145.31789560199945 L 770.2137580848818 144.46720259843843 L 771.3562751174709 143.70379712380338 L 772.5551662545579 143.03238582670355 L 773.803039933611 142.4571081810525 L 775.0922025984385 141.9815109648348 L 776.4147061325217 141.60852639304065 L 777.762396861796 141.3404540395851 L 779.1269658247628 141.17894665967026 L 780.5000000000001 141.125 L 781.8730341752373 141.17894665967026 L 783.2376031382041 141.3404540395851 L 784.5852938674784 141.60852639304068 L 785.9077974015617 141.98151096483485 L 787.1969600663891 142.45710818105252 L 788.4448337454421 143.0323858267036 L 789.6437248825292 143.70379712380344 L 790.7862419151184 144.4672025984385 L 791.8653408457783 145.31789560199954 L 792.8743686707646 146.25063132923552 L 793.8071043980007 147.2596591542219 L 794.6577974015617 148.33875808488185 L 795.4212028761967 149.48127511747103 L 796.0926141732965 150.6801662545581 L 796.6678918189476 151.9280399336111 L 797.1434890351652 153.2172025984386 L 797.5164736069594 154.53970613252184 L 797.7845459604149 155.88739686179616 L 797.9460533403297 157.25196582476292 Z" fill-opacity="1" stroke-opacity="1" stroke-miterlimit="10" stroke-width="2"/><text fill="rgb(255,255,255)" stroke="none" font-family="times new roman" font-size="10px" font-style="normal" font-weight="normal" text-decoration="normal" x="780.5" y="163.625" text-anchor="middle" dominant-baseline="text-after-edge" fill-opacity="1">*2.4</text><path fill="rgb(69,90,100)" stroke="rgb(117,117,117)" paint-order="fill stroke markers" d=" M 849.5 368.25 L 849.4306400089954 370.0153296538765 L 849.2229876633907 371.7697754634052 L 848.8783232089477 373.50252068675786 L 848.3987716166409 375.2028823734363 L 847.787289481504 376.86037722821453 L 847.0476467942383 378.4647862441398 L 846.1844036979671 380.0062177061088 L 845.2028823734363 381.47516817658067 L 844.1091342260007 382.86258108742913 L 842.9099025766973 384.15990257669733 L 841.6125810874291 385.3591342260007 L 840.2251681765806 386.4528823734363 L 838.7562177061088 387.43440369796707 L 837.2147862441398 388.2976467942383 L 835.6103772282145 389.03728948150393 L 833.9528823734363 389.64877161664094 L 832.2525206867579 390.12832320894773 L 830.5197754634052 390.4729876633906 L 828.7653296538765 390.6806400089954 L 827 390.75 L 825.2346703461235 390.6806400089954 L 823.4802245365948 390.4729876633906 L 821.7474793132421 390.12832320894773 L 820.0471176265637 389.64877161664094 L 818.3896227717855 389.03728948150393 L 816.7852137558602 388.2976467942383 L 815.2437822938912 387.43440369796707 L 813.7748318234194 386.4528823734363 L 812.3874189125709 385.3591342260007 L 811.0900974233027 384.15990257669733 L 809.8908657739993 382.86258108742913 L 808.7971176265637 381.47516817658067 L 807.8155963020329 380.0062177061088 L 806.9523532057617 378.4647862441398 L 806.212710518496 376.86037722821453 L 805.6012283833591 375.2028823734363 L 805.1216767910523 373.50252068675786 L 804.7770123366095 371.7697754634052 L 804.5693599910046 370.0153296538765 L 804.5 368.25 L 804.5693599910046 366.4846703461235 L 804.7770123366093 364.7302245365948 L 805.1216767910523 362.99747931324214 L 805.6012283833591 361.2971176265637 L 806.212710518496 359.63962277178547 L 806.9523532057617 358.0352137558602 L 807.8155963020329 356.4937822938912 L 808.7971176265637 355.02483182341933 L 809.8908657739993 353.63741891257087 L 811.0900974233027 352.34009742330267 L 812.3874189125709 351.14086577399934 L 813.7748318234194 350.0471176265637 L 815.2437822938912 349.06559630203293 L 816.7852137558602 348.2023532057617 L 818.3896227717855 347.462710518496 L 820.0471176265637 346.85122838335906 L 821.7474793132421 346.37167679105227 L 823.4802245365948 346.0270123366094 L 825.2346703461236 345.8193599910046 L 827.0000000000001 345.75 L 828.7653296538766 345.8193599910046 L 830.5197754634053 346.0270123366094 L 832.252520686758 346.3716767910523 L 833.9528823734364 346.85122838335906 L 835.6103772282146 347.4627105184961 L 837.2147862441399 348.20235320576177 L 838.7562177061089 349.065596302033 L 840.2251681765807 350.04711762656376 L 841.6125810874292 351.1408657739994 L 842.9099025766974 352.3400974233028 L 844.1091342260008 353.637418912571 L 845.2028823734364 355.0248318234195 L 846.1844036979671 356.49378229389134 L 847.0476467942384 358.0352137558604 L 847.787289481504 359.6396227717857 L 848.398771616641 361.29711762656393 L 848.8783232089478 362.99747931324237 L 849.2229876633907 364.7302245365951 L 849.4306400089954 366.4846703461238 Z" fill-opacity="1" stroke-opacity="1" stroke-miterlimit="10" stroke-width="2"/><text fill="rgb(255,255,255)" stroke="none" font-family="times new roman" font-size="15px" font-style="normal" font-weight="normal" text-decoration="normal" x="827" y="375.75" text-anchor="middle" dominant-baseline="text-after-edge" fill-opacity="1">*111</text><path fill="rgb(3,169,244)" stroke="none" paint-order="stroke fill markers" d=" M 827 335.75 L 851.5 335.75 L 851.5 335.75 A 8 8 0 0 1 859.5 343.75 L 859.5 392.75 L 859.5 392.75 A 8 8 0 0 1 851.5 400.75 L 802.5 400.75 L 802.5 400.75 A 8 8 0 0 1 794.5 392.75 L 794.5 343.75 L 794.5 343.75 A 8 8 0 0 1 802.5 335.75 L 827 335.75 Z" fill-opacity="0.15"/><path fill="rgb(69,90,100)" stroke="rgb(76,175,80)" paint-order="fill stroke markers" d=" M 459.375 368.25 L 459.32105334032974 369.6230341752373 L 459.1595459604149 370.98760313820407 L 458.8914736069593 372.33529386747836 L 458.5184890351652 373.6577974015616 L 458.0428918189475 374.94696006638907 L 457.46761417329645 376.19483374544205 L 456.7962028761966 377.3937248825291 L 456.0327974015616 378.5362419151183 L 455.18210439800055 379.61534084577823 L 454.24936867076457 380.62436867076457 L 453.24034084577823 381.55710439800055 L 452.1612419151183 382.4077974015616 L 451.0187248825291 383.1712028761966 L 449.81983374544205 383.84261417329645 L 448.57196006638907 384.4178918189475 L 447.2827974015616 384.8934890351652 L 445.96029386747836 385.2664736069593 L 444.61260313820407 385.5345459604149 L 443.2480341752373 385.69605334032974 L 441.875 385.75 L 440.5019658247627 385.69605334032974 L 439.13739686179593 385.5345459604149 L 437.78970613252164 385.2664736069593 L 436.4672025984384 384.8934890351652 L 435.17803993361093 384.4178918189475 L 433.93016625455795 383.84261417329645 L 432.7312751174709 383.1712028761966 L 431.5887580848817 382.4077974015616 L 430.50965915422177 381.55710439800055 L 429.50063132923543 380.62436867076457 L 428.56789560199945 379.61534084577823 L 427.7172025984384 378.5362419151183 L 426.9537971238034 377.3937248825291 L 426.28238582670355 376.19483374544205 L 425.7071081810525 374.94696006638907 L 425.2315109648348 373.6577974015616 L 424.8585263930407 372.33529386747836 L 424.5904540395851 370.98760313820407 L 424.42894665967026 369.6230341752373 L 424.375 368.25 L 424.42894665967026 366.8769658247627 L 424.5904540395851 365.51239686179593 L 424.8585263930407 364.16470613252164 L 425.2315109648348 362.8422025984384 L 425.7071081810525 361.55303993361093 L 426.28238582670355 360.30516625455795 L 426.9537971238034 359.1062751174709 L 427.7172025984384 357.9637580848817 L 428.56789560199945 356.88465915422177 L 429.50063132923543 355.87563132923543 L 430.50965915422177 354.94289560199945 L 431.5887580848817 354.0922025984384 L 432.7312751174709 353.3287971238034 L 433.93016625455795 352.65738582670355 L 435.17803993361093 352.0821081810525 L 436.46720259843846 351.6065109648348 L 437.7897061325217 351.2335263930407 L 439.137396861796 350.9654540395851 L 440.50196582476275 350.80394665967026 L 441.87500000000006 350.75 L 443.24803417523736 350.80394665967026 L 444.6126031382041 350.9654540395851 L 445.9602938674784 351.2335263930407 L 447.28279740156165 351.60651096483485 L 448.5719600663892 352.0821081810525 L 449.81983374544217 352.6573858267036 L 451.0187248825292 353.32879712380344 L 452.16124191511835 354.0922025984385 L 453.2403408457783 354.94289560199957 L 454.2493686707647 355.8756313292355 L 455.18210439800066 356.8846591542219 L 456.03279740156165 357.9637580848818 L 456.7962028761967 359.10627511747106 L 457.4676141732965 360.30516625455806 L 458.04289181894757 361.5530399336111 L 458.51848903516526 362.8422025984386 L 458.8914736069594 364.1647061325218 L 459.15954596041496 365.51239686179616 L 459.32105334032974 366.8769658247629 Z" fill-opacity="1" stroke-opacity="1" stroke-miterlimit="10" stroke-width="2"/><text fill="rgb(255,255,255)" stroke="none" font-family="times new roman" font-size="10px" font-style="normal" font-weight="normal" text-decoration="normal" x="441.875" y="373.25" text-anchor="middle" dominant-baseline="text-after-edge" fill-opacity="1">*1.54</text><path fill="rgb(69,90,100)" stroke="rgb(76,175,80)" paint-order="fill stroke markers" d=" M 126.25000000000001 222.875 L 126.25 242.875 L 221.24999999999997 242.875 L 221.25 222.875 Z" fill-opacity="1" stroke-opacity="1" stroke-miterlimit="10" stroke-width="2"/><text fill="rgb(255,255,255)" stroke="none" font-family="times new roman" font-size="10px" font-style="normal" font-weight="normal" text-decoration="normal" x="173.75" y="237.875" text-anchor="middle" dominant-baseline="text-after-edge" fill-opacity="1">42130482C&gt;A</text><path fill="rgb(69,90,100)" stroke="rgb(158,158,158)" paint-order="fill stroke markers" d=" M 599.125 78.125 L 599.125 98.125 L 694.125 98.125 L 694.125 78.125 Z" fill-opacity="1" stroke-opacity="1" stroke-miterlimit="10" stroke-width="2"/><text fill="rgb(255,255,255)" stroke="none" font-family="times new roman" font-size="10px" font-style="normal" font-weight="normal" text-decoration="normal" x="646.625" y="93.125" text-anchor="middle" dominant-baseline="text-after-edge" fill-opacity="1">42127941G&gt;A</text><path fill="rgb(69,90,100)" stroke="rgb(76,175,80)" paint-order="fill stroke markers" d=" M 713.75 158.625 L 713.6806400089954 160.3903296538765 L 713.4729876633907 162.14477546340518 L 713.1283232089477 163.87752068675786 L 712.6487716166409 165.57788237343632 L 712.037289481504 167.23537722821453 L 711.2976467942383 168.83978624413982 L 710.4344036979671 170.38121770610886 L 709.4528823734363 171.85016817658064 L 708.3591342260007 173.23758108742913 L 707.1599025766973 174.5349025766973 L 705.8625810874291 175.7341342260007 L 704.4751681765806 176.82788237343632 L 703.0062177061088 177.80940369796707 L 701.4647862441398 178.6726467942383 L 699.8603772282145 179.41228948150396 L 698.2028823734363 180.02377161664094 L 696.5025206867579 180.50332320894773 L 694.7697754634052 180.8479876633906 L 693.0153296538765 181.05564000899537 L 691.25 181.125 L 689.4846703461235 181.05564000899537 L 687.7302245365948 180.8479876633906 L 685.9974793132421 180.50332320894773 L 684.2971176265637 180.02377161664094 L 682.6396227717855 179.41228948150396 L 681.0352137558602 178.6726467942383 L 679.4937822938912 177.80940369796707 L 678.0248318234194 176.82788237343632 L 676.6374189125709 175.7341342260007 L 675.3400974233027 174.53490257669733 L 674.1408657739993 173.23758108742913 L 673.0471176265637 171.85016817658064 L 672.0655963020329 170.38121770610886 L 671.2023532057617 168.83978624413982 L 670.462710518496 167.23537722821453 L 669.8512283833591 165.57788237343632 L 669.3716767910523 163.87752068675786 L 669.0270123366095 162.1447754634052 L 668.8193599910046 160.3903296538765 L 668.75 158.625 L 668.8193599910046 156.8596703461235 L 669.0270123366093 155.10522453659482 L 669.3716767910523 153.37247931324214 L 669.8512283833591 151.67211762656368 L 670.462710518496 150.01462277178547 L 671.2023532057617 148.4102137558602 L 672.0655963020329 146.86878229389114 L 673.0471176265637 145.39983182341936 L 674.1408657739993 144.01241891257087 L 675.3400974233027 142.7150974233027 L 676.6374189125709 141.5158657739993 L 678.0248318234194 140.42211762656368 L 679.4937822938912 139.44059630203293 L 681.0352137558602 138.5773532057617 L 682.6396227717855 137.83771051849604 L 684.2971176265637 137.22622838335903 L 685.9974793132421 136.74667679105227 L 687.7302245365948 136.4020123366094 L 689.4846703461236 136.1943599910046 L 691.2500000000001 136.125 L 693.0153296538766 136.19435999100463 L 694.7697754634053 136.4020123366094 L 696.502520686758 136.7466767910523 L 698.2028823734364 137.22622838335909 L 699.8603772282146 137.8377105184961 L 701.4647862441399 138.5773532057618 L 703.0062177061089 139.440596302033 L 704.4751681765807 140.42211762656376 L 705.8625810874292 141.51586577399942 L 707.1599025766974 142.7150974233028 L 708.3591342260008 144.012418912571 L 709.4528823734364 145.3998318234195 L 710.4344036979671 146.86878229389131 L 711.2976467942384 148.41021375586038 L 712.037289481504 150.0146227717857 L 712.648771616641 151.6721176265639 L 713.1283232089478 153.37247931324237 L 713.4729876633907 155.10522453659505 L 713.6806400089954 156.85967034612375 Z" fill-opacity="1" stroke-opacity="1" stroke-miterlimit="10" stroke-width="2"/><text fill="rgb(255,255,255)" stroke="none" font-family="times new roman" font-size="15px" font-style="normal" font-weight="normal" text-decoration="normal" x="691.25" y="166.125" text-anchor="middle" dominant-baseline="text-after-edge" fill-opacity="1">*34</text><path fill="rgb(69,90,100)" stroke="rgb(76,175,80)" paint-order="fill stroke markers" d=" M 687.5 222.875 L 730 222.875 L 730 222.875 A 5 5 0 0 1 735 227.875 L 735 237.875 L 735 237.875 A 5 5 0 0 1 730 242.875 L 645 242.875 L 645 242.875 A 5 5 0 0 1 640 237.875 L 640 227.875 L 640 227.875 A 5 5 0 0 1 645 222.875 L 687.5 222.875 Z" fill-opacity="1" stroke-opacity="1" stroke-miterlimit="10" stroke-width="2"/><text fill="rgb(255,255,255)" stroke="none" font-family="times new roman" font-size="10px" font-style="normal" font-weight="normal" text-decoration="normal" x="687.5" y="237.875" text-anchor="middle" dominant-baseline="text-after-edge" fill-opacity="1">42132025_4213202…</text><path fill="rgb(69,90,100)" stroke="rgb(76,175,80)" paint-order="fill stroke markers" d=" M 753.375 88.125 L 753.3210533403297 89.49803417523728 L 753.1595459604149 90.86260313820404 L 752.8914736069594 92.21029386747834 L 752.5184890351652 93.53279740156158 L 752.0428918189475 94.82196006638907 L 751.4676141732964 96.06983374544207 L 750.7962028761966 97.2687248825291 L 750.0327974015615 98.41124191511828 L 749.1821043980005 99.4903408457782 L 748.2493686707646 100.49936867076458 L 747.2403408457782 101.43210439800055 L 746.1612419151182 102.28279740156158 L 745.0187248825291 103.04620287619662 L 743.8198337454421 103.71761417329644 L 742.5719600663891 104.29289181894751 L 741.2827974015615 104.76848903516519 L 739.9602938674783 105.14147360695934 L 738.612603138204 105.4095459604149 L 737.2480341752373 105.57105334032974 L 735.875 105.625 L 734.5019658247627 105.57105334032974 L 733.137396861796 105.4095459604149 L 731.7897061325217 105.14147360695934 L 730.4672025984385 104.76848903516519 L 729.1780399336109 104.29289181894751 L 727.9301662545579 103.71761417329644 L 726.7312751174709 103.04620287619662 L 725.5887580848818 102.28279740156158 L 724.5096591542218 101.43210439800055 L 723.5006313292354 100.49936867076458 L 722.5678956019995 99.49034084577822 L 721.7172025984385 98.41124191511828 L 720.9537971238034 97.26872488252911 L 720.2823858267036 96.06983374544207 L 719.7071081810525 94.82196006638907 L 719.2315109648348 93.53279740156158 L 718.8585263930406 92.21029386747834 L 718.5904540395851 90.86260313820404 L 718.4289466596703 89.4980341752373 L 718.375 88.125 L 718.4289466596703 86.75196582476272 L 718.5904540395851 85.38739686179596 L 718.8585263930406 84.03970613252166 L 719.2315109648348 82.71720259843842 L 719.7071081810525 81.42803993361093 L 720.2823858267036 80.18016625455793 L 720.9537971238034 78.9812751174709 L 721.7172025984385 77.83875808488172 L 722.5678956019995 76.7596591542218 L 723.5006313292354 75.75063132923542 L 724.5096591542218 74.81789560199947 L 725.5887580848818 73.96720259843842 L 726.7312751174709 73.20379712380338 L 727.9301662545579 72.53238582670356 L 729.178039933611 71.95710818105248 L 730.4672025984385 71.4815109648348 L 731.7897061325217 71.10852639304065 L 733.137396861796 70.84045403958508 L 734.5019658247628 70.67894665967026 L 735.8750000000001 70.625 L 737.2480341752373 70.67894665967026 L 738.6126031382041 70.8404540395851 L 739.9602938674784 71.10852639304068 L 741.2827974015617 71.48151096483484 L 742.5719600663891 71.95710818105252 L 743.8198337454421 72.5323858267036 L 745.0187248825292 73.20379712380344 L 746.1612419151184 73.96720259843849 L 747.2403408457783 74.81789560199954 L 748.2493686707646 75.75063132923552 L 749.1821043980007 76.7596591542219 L 750.0327974015617 77.83875808488185 L 750.7962028761967 78.98127511747103 L 751.4676141732965 80.18016625455807 L 752.0428918189476 81.42803993361109 L 752.5184890351652 82.71720259843859 L 752.8914736069594 84.03970613252184 L 753.1595459604149 85.38739686179616 L 753.3210533403297 86.75196582476292 Z" fill-opacity="1" stroke-opacity="1" stroke-miterlimit="10" stroke-width="2"/><text fill="rgb(255,255,255)" stroke="none" font-family="times new roman" font-size="10px" font-style="normal" font-weight="normal" text-decoration="normal" x="735.875" y="93.125" text-anchor="middle" dominant-baseline="text-after-edge" fill-opacity="1">*34.1</text><path fill="rgb(69,90,100)" stroke="rgb(76,175,80)" paint-order="fill stroke markers" d=" M 931.875 88.125 L 931.8210533403297 89.49803417523728 L 931.6595459604149 90.86260313820404 L 931.3914736069594 92.21029386747834 L 931.0184890351652 93.53279740156158 L 930.5428918189475 94.82196006638907 L 929.9676141732964 96.06983374544207 L 929.2962028761966 97.2687248825291 L 928.5327974015615 98.41124191511828 L 927.6821043980005 99.4903408457782 L 926.7493686707646 100.49936867076458 L 925.7403408457782 101.43210439800055 L 924.6612419151182 102.28279740156158 L 923.5187248825291 103.04620287619662 L 922.3198337454421 103.71761417329644 L 921.0719600663891 104.29289181894751 L 919.7827974015615 104.76848903516519 L 918.4602938674783 105.14147360695934 L 917.112603138204 105.4095459604149 L 915.7480341752373 105.57105334032974 L 914.375 105.625 L 913.0019658247627 105.57105334032974 L 911.637396861796 105.4095459604149 L 910.2897061325217 105.14147360695934 L 908.9672025984385 104.76848903516519 L 907.6780399336109 104.29289181894751 L 906.4301662545579 103.71761417329644 L 905.2312751174709 103.04620287619662 L 904.0887580848818 102.28279740156158 L 903.0096591542218 101.43210439800055 L 902.0006313292354 100.49936867076458 L 901.0678956019995 99.49034084577822 L 900.2172025984385 98.41124191511828 L 899.4537971238034 97.26872488252911 L 898.7823858267036 96.06983374544207 L 898.2071081810525 94.82196006638907 L 897.7315109648348 93.53279740156158 L 897.3585263930406 92.21029386747834 L 897.0904540395851 90.86260313820404 L 896.9289466596703 89.4980341752373 L 896.875 88.125 L 896.9289466596703 86.75196582476272 L 897.0904540395851 85.38739686179596 L 897.3585263930406 84.03970613252166 L 897.7315109648348 82.71720259843842 L 898.2071081810525 81.42803993361093 L 898.7823858267036 80.18016625455793 L 899.4537971238034 78.9812751174709 L 900.2172025984385 77.83875808488172 L 901.0678956019995 76.7596591542218 L 902.0006313292354 75.75063132923542 L 903.0096591542218 74.81789560199947 L 904.0887580848818 73.96720259843842 L 905.2312751174709 73.20379712380338 L 906.4301662545579 72.53238582670356 L 907.678039933611 71.95710818105248 L 908.9672025984385 71.4815109648348 L 910.2897061325217 71.10852639304065 L 911.637396861796 70.84045403958508 L 913.0019658247628 70.67894665967026 L 914.3750000000001 70.625 L 915.7480341752373 70.67894665967026 L 917.1126031382041 70.8404540395851 L 918.4602938674784 71.10852639304068 L 919.7827974015617 71.48151096483484 L 921.0719600663891 71.95710818105252 L 922.3198337454421 72.5323858267036 L 923.5187248825292 73.20379712380344 L 924.6612419151184 73.96720259843849 L 925.7403408457783 74.81789560199954 L 926.7493686707646 75.75063132923552 L 927.6821043980007 76.7596591542219 L 928.5327974015617 77.83875808488185 L 929.2962028761967 78.98127511747103 L 929.9676141732965 80.18016625455807 L 930.5428918189476 81.42803993361109 L 931.0184890351652 82.71720259843859 L 931.3914736069594 84.03970613252184 L 931.6595459604149 85.38739686179616 L 931.8210533403297 86.75196582476292 Z" fill-opacity="1" stroke-opacity="1" stroke-miterlimit="10" stroke-width="2"/><text fill="rgb(255,255,255)" stroke="none" font-family="times new roman" font-size="10px" font-style="normal" font-weight="normal" text-decoration="normal" x="914.375" y="93.125" text-anchor="middle" dominant-baseline="text-after-edge" fill-opacity="1">*39.2</text><path fill="rgb(69,90,100)" stroke="rgb(76,175,80)" paint-order="fill stroke markers" d=" M 892.25 158.625 L 892.1806400089954 160.3903296538765 L 891.9729876633907 162.14477546340518 L 891.6283232089477 163.87752068675786 L 891.1487716166409 165.57788237343632 L 890.537289481504 167.23537722821453 L 889.7976467942383 168.83978624413982 L 888.9344036979671 170.38121770610886 L 887.9528823734363 171.85016817658064 L 886.8591342260007 173.23758108742913 L 885.6599025766973 174.5349025766973 L 884.3625810874291 175.7341342260007 L 882.9751681765806 176.82788237343632 L 881.5062177061088 177.80940369796707 L 879.9647862441398 178.6726467942383 L 878.3603772282145 179.41228948150396 L 876.7028823734363 180.02377161664094 L 875.0025206867579 180.50332320894773 L 873.2697754634052 180.8479876633906 L 871.5153296538765 181.05564000899537 L 869.75 181.125 L 867.9846703461235 181.05564000899537 L 866.2302245365948 180.8479876633906 L 864.4974793132421 180.50332320894773 L 862.7971176265637 180.02377161664094 L 861.1396227717855 179.41228948150396 L 859.5352137558602 178.6726467942383 L 857.9937822938912 177.80940369796707 L 856.5248318234194 176.82788237343632 L 855.1374189125709 175.7341342260007 L 853.8400974233027 174.53490257669733 L 852.6408657739993 173.23758108742913 L 851.5471176265637 171.85016817658064 L 850.5655963020329 170.38121770610886 L 849.7023532057617 168.83978624413982 L 848.962710518496 167.23537722821453 L 848.3512283833591 165.57788237343632 L 847.8716767910523 163.87752068675786 L 847.5270123366095 162.1447754634052 L 847.3193599910046 160.3903296538765 L 847.25 158.625 L 847.3193599910046 156.8596703461235 L 847.5270123366093 155.10522453659482 L 847.8716767910523 153.37247931324214 L 848.3512283833591 151.67211762656368 L 848.962710518496 150.01462277178547 L 849.7023532057617 148.4102137558602 L 850.5655963020329 146.86878229389114 L 851.5471176265637 145.39983182341936 L 852.6408657739993 144.01241891257087 L 853.8400974233027 142.7150974233027 L 855.1374189125709 141.5158657739993 L 856.5248318234194 140.42211762656368 L 857.9937822938912 139.44059630203293 L 859.5352137558602 138.5773532057617 L 861.1396227717855 137.83771051849604 L 862.7971176265637 137.22622838335903 L 864.4974793132421 136.74667679105227 L 866.2302245365948 136.4020123366094 L 867.9846703461236 136.1943599910046 L 869.7500000000001 136.125 L 871.5153296538766 136.19435999100463 L 873.2697754634053 136.4020123366094 L 875.002520686758 136.7466767910523 L 876.7028823734364 137.22622838335909 L 878.3603772282146 137.8377105184961 L 879.9647862441399 138.5773532057618 L 881.5062177061089 139.440596302033 L 882.9751681765807 140.42211762656376 L 884.3625810874292 141.51586577399942 L 885.6599025766974 142.7150974233028 L 886.8591342260008 144.012418912571 L 887.9528823734364 145.3998318234195 L 888.9344036979671 146.86878229389131 L 889.7976467942384 148.41021375586038 L 890.537289481504 150.0146227717857 L 891.148771616641 151.6721176265639 L 891.6283232089478 153.37247931324237 L 891.9729876633907 155.10522453659505 L 892.1806400089954 156.85967034612375 Z" fill-opacity="1" stroke-opacity="1" stroke-miterlimit="10" stroke-width="2"/><text fill="rgb(255,255,255)" stroke="none" font-family="times new roman" font-size="15px" font-style="normal" font-weight="normal" text-decoration="normal" x="869.75" y="166.125" text-anchor="middle" dominant-baseline="text-after-edge" fill-opacity="1">*39</text><path fill="rgb(69,90,100)" stroke="rgb(158,158,158)" paint-order="fill stroke markers" d=" M 777.625 78.125 L 777.625 98.125 L 872.625 98.125 L 872.625 78.125 Z" fill-opacity="1" stroke-opacity="1" stroke-miterlimit="10" stroke-width="2"/><text fill="rgb(255,255,255)" stroke="none" font-family="times new roman" font-size="10px" font-style="normal" font-weight="normal" text-decoration="normal" x="825.125" y="93.125" text-anchor="middle" dominant-baseline="text-after-edge" fill-opacity="1">42126611C&gt;G</text><path fill="rgb(69,90,100)" stroke="rgb(76,175,80)" paint-order="fill stroke markers" d=" M 238 222.875 L 238 242.875 L 333 242.875 L 333 222.875 Z" fill-opacity="1" stroke-opacity="1" stroke-miterlimit="10" stroke-width="2"/><text fill="rgb(255,255,255)" stroke="none" font-family="times new roman" font-size="10px" font-style="normal" font-weight="normal" text-decoration="normal" x="285.5" y="237.875" text-anchor="middle" dominant-baseline="text-after-edge" fill-opacity="1">42129950A&gt;C</text><path fill="rgb(69,90,100)" stroke="rgb(76,175,80)" paint-order="fill stroke markers" d=" M 349.75 222.875 L 349.75 242.875 L 444.75 242.875 L 444.75 222.875 Z" fill-opacity="1" stroke-opacity="1" stroke-miterlimit="10" stroke-width="2"/><text fill="rgb(255,255,255)" stroke="none" font-family="times new roman" font-size="10px" font-style="normal" font-weight="normal" text-decoration="normal" x="397.25" y="237.875" text-anchor="middle" dominant-baseline="text-after-edge" fill-opacity="1">42130047G&gt;C</text><path fill="rgb(69,90,100)" stroke="rgb(76,175,80)" paint-order="fill stroke markers" d=" M 439 148.625 L 439 168.625 L 534 168.625 L 534 148.625 Z" fill-opacity="1" stroke-opacity="1" stroke-miterlimit="10" stroke-width="2"/><text fill="rgb(255,255,255)" stroke="none" font-family="times new roman" font-size="10px" font-style="normal" font-weight="normal" text-decoration="normal" x="486.5" y="163.625" text-anchor="middle" dominant-baseline="text-after-edge" fill-opacity="1">42127407T&gt;G</text><path fill="rgb(69,90,100)" stroke="rgb(158,158,158)" paint-order="fill stroke markers" d=" M 826 222.875 L 826 242.875 L 921 242.875 L 921 222.875 Z" fill-opacity="1" stroke-opacity="1" stroke-miterlimit="10" stroke-width="2"/><text fill="rgb(255,255,255)" stroke="none" font-family="times new roman" font-size="10px" font-style="normal" font-weight="normal" text-decoration="normal" x="873.5" y="237.875" text-anchor="middle" dominant-baseline="text-after-edge" fill-opacity="1">42129759C&gt;T</text><path fill="rgb(69,90,100)" stroke="rgb(76,175,80)" paint-order="fill stroke markers" d=" M 803 232.875 L 802.9306400089954 234.6403296538765 L 802.7229876633907 236.39477546340518 L 802.3783232089477 238.12752068675786 L 801.8987716166409 239.82788237343632 L 801.287289481504 241.48537722821453 L 800.5476467942383 243.08978624413982 L 799.6844036979671 244.63121770610886 L 798.7028823734363 246.10016817658064 L 797.6091342260007 247.48758108742913 L 796.4099025766973 248.7849025766973 L 795.1125810874291 249.9841342260007 L 793.7251681765806 251.07788237343632 L 792.2562177061088 252.05940369796707 L 790.7147862441398 252.9226467942383 L 789.1103772282145 253.66228948150396 L 787.4528823734363 254.27377161664094 L 785.7525206867579 254.75332320894773 L 784.0197754634052 255.0979876633906 L 782.2653296538765 255.30564000899537 L 780.5 255.375 L 778.7346703461235 255.30564000899537 L 776.9802245365948 255.0979876633906 L 775.2474793132421 254.75332320894773 L 773.5471176265637 254.27377161664094 L 771.8896227717855 253.66228948150396 L 770.2852137558602 252.9226467942383 L 768.7437822938912 252.05940369796707 L 767.2748318234194 251.07788237343632 L 765.8874189125709 249.9841342260007 L 764.5900974233027 248.78490257669733 L 763.3908657739993 247.48758108742913 L 762.2971176265637 246.10016817658064 L 761.3155963020329 244.63121770610886 L 760.4523532057617 243.08978624413982 L 759.712710518496 241.48537722821453 L 759.1012283833591 239.82788237343632 L 758.6216767910523 238.12752068675786 L 758.2770123366095 236.3947754634052 L 758.0693599910046 234.6403296538765 L 758 232.875 L 758.0693599910046 231.1096703461235 L 758.2770123366093 229.35522453659482 L 758.6216767910523 227.62247931324214 L 759.1012283833591 225.92211762656368 L 759.712710518496 224.26462277178547 L 760.4523532057617 222.6602137558602 L 761.3155963020329 221.11878229389114 L 762.2971176265637 219.64983182341936 L 763.3908657739993 218.26241891257087 L 764.5900974233027 216.9650974233027 L 765.8874189125709 215.7658657739993 L 767.2748318234194 214.67211762656368 L 768.7437822938912 213.69059630203293 L 770.2852137558602 212.8273532057617 L 771.8896227717855 212.08771051849604 L 773.5471176265637 211.47622838335903 L 775.2474793132421 210.99667679105227 L 776.9802245365948 210.6520123366094 L 778.7346703461236 210.4443599910046 L 780.5000000000001 210.375 L 782.2653296538766 210.44435999100463 L 784.0197754634053 210.6520123366094 L 785.752520686758 210.9966767910523 L 787.4528823734364 211.47622838335909 L 789.1103772282146 212.0877105184961 L 790.7147862441399 212.8273532057618 L 792.2562177061089 213.690596302033 L 793.7251681765807 214.67211762656376 L 795.1125810874292 215.76586577399942 L 796.4099025766974 216.9650974233028 L 797.6091342260008 218.262418912571 L 798.7028823734364 219.6498318234195 L 799.6844036979671 221.11878229389131 L 800.5476467942384 222.66021375586038 L 801.287289481504 224.2646227717857 L 801.898771616641 225.9221176265639 L 802.3783232089478 227.62247931324237 L 802.7229876633907 229.35522453659505 L 802.9306400089954 231.10967034612375 Z" fill-opacity="1" stroke-opacity="1" stroke-miterlimit="10" stroke-width="2"/><text fill="rgb(255,255,255)" stroke="none" font-family="times new roman" font-size="15px" font-style="normal" font-weight="normal" text-decoration="normal" x="780.5" y="240.375" text-anchor="middle" dominant-baseline="text-after-edge" fill-opacity="1">*2</text><path fill="rgb(69,90,100)" stroke="rgb(76,175,80)" paint-order="fill stroke markers" d=" M 247.125 368.25 L 247.07105334032974 369.6230341752373 L 246.9095459604149 370.98760313820407 L 246.64147360695935 372.33529386747836 L 246.26848903516517 373.6577974015616 L 245.7928918189475 374.94696006638907 L 245.21761417329643 376.19483374544205 L 244.54620287619662 377.3937248825291 L 243.7827974015616 378.5362419151183 L 242.93210439800055 379.61534084577823 L 241.99936867076457 380.62436867076457 L 240.9903408457782 381.55710439800055 L 239.91124191511827 382.4077974015616 L 238.7687248825291 383.1712028761966 L 237.56983374544208 383.84261417329645 L 236.32196006638907 384.4178918189475 L 235.0327974015616 384.8934890351652 L 233.71029386747836 385.2664736069593 L 232.36260313820404 385.5345459604149 L 230.99803417523728 385.69605334032974 L 229.625 385.75 L 228.25196582476272 385.69605334032974 L 226.88739686179596 385.5345459604149 L 225.53970613252164 385.2664736069593 L 224.21720259843843 384.8934890351652 L 222.92803993361093 384.4178918189475 L 221.68016625455795 383.84261417329645 L 220.4812751174709 383.1712028761966 L 219.33875808488173 382.4077974015616 L 218.2596591542218 381.55710439800055 L 217.25063132923543 380.62436867076457 L 216.31789560199945 379.61534084577823 L 215.46720259843843 378.5362419151183 L 214.70379712380338 377.3937248825291 L 214.03238582670357 376.19483374544205 L 213.4571081810525 374.94696006638907 L 212.98151096483483 373.6577974015616 L 212.60852639304065 372.33529386747836 L 212.3404540395851 370.98760313820407 L 212.17894665967026 369.6230341752373 L 212.125 368.25 L 212.17894665967026 366.8769658247627 L 212.3404540395851 365.51239686179593 L 212.60852639304065 364.16470613252164 L 212.9815109648348 362.8422025984384 L 213.4571081810525 361.55303993361093 L 214.03238582670357 360.30516625455795 L 214.70379712380338 359.1062751174709 L 215.4672025984384 357.9637580848817 L 216.31789560199945 356.88465915422177 L 217.2506313292354 355.87563132923543 L 218.25965915422177 354.94289560199945 L 219.3387580848817 354.0922025984384 L 220.4812751174709 353.3287971238034 L 221.68016625455795 352.65738582670355 L 222.92803993361096 352.0821081810525 L 224.21720259843843 351.6065109648348 L 225.5397061325217 351.2335263930407 L 226.887396861796 350.9654540395851 L 228.25196582476278 350.80394665967026 L 229.62500000000006 350.75 L 230.99803417523736 350.80394665967026 L 232.36260313820412 350.9654540395851 L 233.7102938674784 351.2335263930407 L 235.03279740156165 351.60651096483485 L 236.32196006638915 352.0821081810525 L 237.56983374544217 352.6573858267036 L 238.7687248825292 353.32879712380344 L 239.91124191511838 354.0922025984385 L 240.99034084577832 354.94289560199957 L 241.99936867076468 355.8756313292355 L 242.93210439800063 356.8846591542219 L 243.78279740156168 357.9637580848818 L 244.5462028761967 359.10627511747106 L 245.2176141732965 360.30516625455806 L 245.7928918189476 361.5530399336111 L 246.26848903516523 362.8422025984386 L 246.64147360695938 364.1647061325218 L 246.90954596041493 365.51239686179616 L 247.07105334032974 366.8769658247629 Z" fill-opacity="1" stroke-opacity="1" stroke-miterlimit="10" stroke-width="2"/><text fill="rgb(255,255,255)" stroke="none" font-family="times new roman" font-size="10px" font-style="normal" font-weight="normal" text-decoration="normal" x="229.625" y="373.25" text-anchor="middle" dominant-baseline="text-after-edge" fill-opacity="1">*1.58</text><path fill="rgb(176,190,197)" stroke="none" paint-order="stroke fill markers" d=" M 881.75 263.25 L 881.75 473.25 L 956.75 473.25 L 956.75 263.25000000000006 Z" fill-opacity="0.8"/><text fill="rgb(0,0,0)" stroke="none" font-family="times new roman" font-size="10px" font-style="normal" font-weight="normal" text-decoration="normal" x="886.75" y="278.25" text-anchor="start" dominant-baseline="text-after-edge" fill-opacity="0.8">42126310C&gt;T </text><text fill="rgb(0,0,0)" stroke="none" font-family="times new roman" font-size="10px" font-style="normal" font-weight="normal" text-decoration="normal" x="886.75" y="288.25" text-anchor="start" dominant-baseline="text-after-edge" fill-opacity="0.8">42127001G&gt;A </text><text fill="rgb(0,0,0)" stroke="none" font-family="times new roman" font-size="10px" font-style="normal" font-weight="normal" text-decoration="normal" x="886.75" y="298.25" text-anchor="start" dominant-baseline="text-after-edge" fill-opacity="0.8">42127207C&gt;T </text><text fill="rgb(0,0,0)" stroke="none" font-family="times new roman" font-size="10px" font-style="normal" font-weight="normal" text-decoration="normal" x="886.75" y="308.25" text-anchor="start" dominant-baseline="text-after-edge" fill-opacity="0.8">42129130C&gt;G </text><text fill="rgb(0,0,0)" stroke="none" font-family="times new roman" font-size="10px" font-style="normal" font-weight="normal" text-decoration="normal" x="886.75" y="318.25" text-anchor="start" dominant-baseline="text-after-edge" fill-opacity="0.8">42131469C&gt;T </text><text fill="rgb(0,0,0)" stroke="none" font-family="times new roman" font-size="10px" font-style="normal" font-weight="normal" text-decoration="normal" x="886.75" y="328.25" text-anchor="start" dominant-baseline="text-after-edge" fill-opacity="0.8">42131531G&gt;A </text><text fill="rgb(0,0,0)" stroke="none" font-family="times new roman" font-size="10px" font-style="normal" font-weight="normal" text-decoration="normal" x="886.75" y="338.25" text-anchor="start" dominant-baseline="text-after-edge" fill-opacity="0.8">42132026T&gt;C </text><text fill="rgb(0,0,0)" stroke="none" font-family="times new roman" font-size="10px" font-style="normal" font-weight="normal" text-decoration="normal" x="886.75" y="348.25" text-anchor="start" dominant-baseline="text-after-edge" fill-opacity="0.8">42132375G&gt;C </text><path fill="rgb(176,190,197)" stroke="none" paint-order="stroke fill markers" d=" M 631.625 263.25 L 698.625 263.25 L 698.625 263.25 A 8 8 0 0 1 706.625 271.25 L 706.625 465.25 L 706.625 465.25 A 8 8 0 0 1 698.625 473.25 L 564.625 473.25 L 564.625 473.25 A 8 8 0 0 1 556.625 465.25 L 556.625 271.25 L 556.625 271.25 A 8 8 0 0 1 564.625 263.25 L 631.625 263.25 Z" fill-opacity="0.8"/><text fill="rgb(0,0,0)" stroke="none" font-family="times new roman" font-size="10px" font-style="normal" font-weight="normal" text-decoration="normal" x="561.625" y="278.25" text-anchor="start" dominant-baseline="text-after-edge" fill-opacity="0.8">42125924A&gt;G </text><text fill="rgb(0,0,0)" stroke="none" font-family="times new roman" font-size="10px" font-style="normal" font-weight="normal" text-decoration="normal" x="561.625" y="288.25" text-anchor="start" dominant-baseline="text-after-edge" fill-opacity="0.8">42126069A&gt;C </text><text fill="rgb(0,0,0)" stroke="none" font-family="times new roman" font-size="10px" font-style="normal" font-weight="normal" text-decoration="normal" x="561.625" y="298.25" text-anchor="start" dominant-baseline="text-after-edge" fill-opacity="0.8">42126136_42126138del </text><text fill="rgb(0,0,0)" stroke="none" font-family="times new roman" font-size="10px" font-style="normal" font-weight="normal" text-decoration="normal" x="561.625" y="308.25" text-anchor="start" dominant-baseline="text-after-edge" fill-opacity="0.8">42132025_42132026insCCTTTT </text><text fill="rgb(0,0,0)" stroke="none" font-family="times new roman" font-size="10px" font-style="normal" font-weight="normal" text-decoration="normal" x="561.625" y="318.25" text-anchor="start" dominant-baseline="text-after-edge" fill-opacity="0.8">42132027C&gt;T </text><text fill="rgb(0,0,0)" stroke="none" font-family="times new roman" font-size="10px" font-style="normal" font-weight="normal" text-decoration="normal" x="561.625" y="328.25" text-anchor="start" dominant-baseline="text-after-edge" fill-opacity="0.8">42132561C&gt;T </text><text fill="rgb(0,0,0)" stroke="none" font-family="times new roman" font-size="10px" font-style="normal" font-weight="normal" text-decoration="normal" x="561.625" y="338.25" text-anchor="start" dominant-baseline="text-after-edge" fill-opacity="0.8">42132844C&gt;A </text><text fill="rgb(0,0,0)" stroke="none" font-family="times new roman" font-size="10px" font-style="normal" font-weight="normal" text-decoration="normal" x="561.625" y="348.25" text-anchor="start" dominant-baseline="text-after-edge" fill-opacity="0.8">42132851T&gt;C </text><text fill="rgb(0,0,0)" stroke="none" font-family="times new roman" font-size="10px" font-style="normal" font-weight="normal" text-decoration="normal" x="561.625" y="358.25" text-anchor="start" dominant-baseline="text-after-edge" fill-opacity="0.8">42133400T&gt;G </text><text fill="rgb(0,0,0)" stroke="none" font-family="times new roman" font-size="10px" font-style="normal" font-weight="normal" text-decoration="normal" x="561.625" y="368.25" text-anchor="start" dominant-baseline="text-after-edge" fill-opacity="0.8">42133533A&gt;C </text><text fill="rgb(0,0,0)" stroke="none" font-family="times new roman" font-size="10px" font-style="normal" font-weight="normal" text-decoration="normal" x="561.625" y="378.25" text-anchor="start" dominant-baseline="text-after-edge" fill-opacity="0.8">42134096del </text><text fill="rgb(0,0,0)" stroke="none" font-family="times new roman" font-size="10px" font-style="normal" font-weight="normal" text-decoration="normal" x="561.625" y="388.25" text-anchor="start" dominant-baseline="text-after-edge" fill-opacity="0.8">42134820T&gt;G </text><text fill="rgb(0,0,0)" stroke="none" font-family="times new roman" font-size="10px" font-style="normal" font-weight="normal" text-decoration="normal" x="561.625" y="398.25" text-anchor="start" dominant-baseline="text-after-edge" fill-opacity="0.8">42135064_42135066dup </text><text fill="rgb(0,0,0)" stroke="none" font-family="times new roman" font-size="10px" font-style="normal" font-weight="normal" text-decoration="normal" x="561.625" y="408.25" text-anchor="start" dominant-baseline="text-after-edge" fill-opacity="0.8">42135201T&gt;C </text><text fill="rgb(0,0,0)" stroke="none" font-family="times new roman" font-size="10px" font-style="normal" font-weight="normal" text-decoration="normal" x="561.625" y="418.25" text-anchor="start" dominant-baseline="text-after-edge" fill-opacity="0.8">42135691T&gt;C </text><g transform="scale(0.8709508881922676,0.8709508881922676) translate(112.66016796640668,33.56208758248346)"/></g></svg>