<svg version="1.1" xmlns="http://www.w3.org/2000/svg" xmlns:xlink="http://www.w3.org/1999/xlink" width="1017" height="608"><defs/><g transform="translate(-113.50911421247508,-16.544574195385962) scale(1.0902876673312447,1.0902876673312447)"><path fill="none" stroke="rgb(120,144,156)" paint-order="fill stroke markers" d=" M 207.625 382.47972972972974 L 487.528423721937 488.69173159610796" stroke-opacity="1" stroke-linejoin="round" stroke-miterlimit="10"/><path fill="rgb(120,144,156)" stroke="none" paint-order="stroke fill markers" d=" M 479.7209740099789 490.3817697599508 L 489.3983262984803 489.40128381704494 L 482.80752617105475 482.2476935519873 Z" fill-opacity="1"/><path fill="none" stroke="rgb(55,71,79)" paint-order="fill stroke markers" d=" M 806.7127659574468 99.125 L 831.8063019975086 138.76856954228253" stroke-opacity="1" stroke-linejoin="round" stroke-miterlimit="10" stroke-width="2"/><path fill="none" stroke="rgb(120,144,156)" paint-order="fill stroke markers" d=" M 368.5 412.41946308724835 L 491.4051474336204 484.8015213912764" stroke-opacity="1" stroke-linejoin="round" stroke-miterlimit="10"/><path fill="rgb(120,144,156)" stroke="none" paint-order="stroke fill markers" d=" M 483.4244708789979 485.1498053709521 L 493.12849531146753 485.8164460643039 L 487.8393932066672 477.6532421023171 Z" fill-opacity="1"/><path fill="none" stroke="rgb(55,71,79)" paint-order="fill stroke markers" d=" M 608.1133031280702 172.04087244339314 L 649.6939122427216 215.83321608541954" stroke-opacity="1" stroke-linejoin="round" stroke-miterlimit="10" stroke-width="2"/><path fill="none" stroke="rgb(55,71,79)" paint-order="fill stroke markers" d=" M 879.1054930618685 103.75665801990523 L 856.9436980024914 138.76856954228253" stroke-opacity="1" stroke-linejoin="round" stroke-miterlimit="10" stroke-width="2"/><path fill="none" stroke="rgb(120,144,156)" paint-order="fill stroke markers" d=" M 242.16516620498615 243.875 L 249.3990050944056 261.4012807991974" stroke-opacity="1" stroke-linejoin="round" stroke-miterlimit="10"/><path fill="rgb(120,144,156)" stroke="none" paint-order="stroke fill markers" d=" M 242.82184086290758 256.8676938449301 L 250.16204986149586 263.25 L 250.86376938639881 253.54844910808742 Z" fill-opacity="1"/><path fill="none" stroke="rgb(120,144,156)" paint-order="fill stroke markers" d=" M 665.875 182.125 L 665.875 207.375" stroke-opacity="1" stroke-linejoin="round" stroke-miterlimit="10"/><path fill="rgb(120,144,156)" stroke="none" paint-order="stroke fill markers" d=" M 661.525 200.675 L 665.875 209.375 L 670.225 200.675 Z" fill-opacity="1"/><path fill="none" stroke="rgb(120,144,156)" paint-order="fill stroke markers" d=" M 673.5092124691882 255.10040888207214 L 704.0910673206681 344.1330669577515" stroke-opacity="1" stroke-linejoin="round" stroke-miterlimit="10"/><path fill="rgb(120,144,156)" stroke="none" paint-order="stroke fill markers" d=" M 697.8004395683032 339.20960247822325 L 704.7407875308118 346.02459111792786 L 706.0285696650703 336.3833195640982 Z" fill-opacity="1"/><path fill="none" stroke="rgb(120,144,156)" paint-order="fill stroke markers" d=" M 517 386.75 L 517 479.375" stroke-opacity="1" stroke-linejoin="round" stroke-miterlimit="10"/><path fill="rgb(120,144,156)" stroke="none" paint-order="stroke fill markers" d=" M 512.65 472.675 L 517 481.375 L 521.35 472.675 Z" fill-opacity="1"/><path fill="none" stroke="rgb(120,144,156)" paint-order="fill stroke markers" d=" M 822.6773016860587 167.65051316420244 L 689.4193109364044 223.08135805586545" stroke-opacity="1" stroke-linejoin="round" stroke-miterlimit="10"/><path fill="rgb(120,144,156)" stroke="none" paint-order="stroke fill markers" d=" M 693.9347831253033 216.49174418923562 L 687.5726983139413 223.84948683579756 L 697.276143318008 224.52450909695003 Z" fill-opacity="1"/><path fill="none" stroke="rgb(120,144,156)" paint-order="fill stroke markers" d=" M 874.2510387811634 243.875 L 908.8320851604063 348.7805272513167" stroke-opacity="1" stroke-linejoin="round" stroke-miterlimit="10"/><path fill="rgb(120,144,156)" stroke="none" paint-order="stroke fill markers" d=" M 902.6031956051843 343.7791839408803 L 909.4582231935374 350.6799880072858 L 910.86584989365 341.05548349676 Z" fill-opacity="1"/><path fill="none" stroke="rgb(55,71,79)" paint-order="fill stroke markers" d=" M 628.2127659574468 99.125 L 653.3063019975086 138.76856954228253" stroke-opacity="1" stroke-linejoin="round" stroke-miterlimit="10" stroke-width="2"/><path fill="none" stroke="rgb(120,144,156)" paint-order="fill stroke markers" d=" M 755.0966066481994 243.875 L 720.6589326793319 344.1330669577515" stroke-opacity="1" stroke-linejoin="round" stroke-miterlimit="10"/><path fill="rgb(120,144,156)" stroke="none" paint-order="stroke fill markers" d=" M 718.7214303349297 336.3833195640982 L 720.0092124691882 346.02459111792786 L 726.9495604316968 339.20960247822325 Z" fill-opacity="1"/><path fill="none" stroke="rgb(120,144,156)" paint-order="fill stroke markers" d=" M 692.8853547638544 381.3802600343323 L 541.2922151157969 483.5092274363825" stroke-opacity="1" stroke-linejoin="round" stroke-miterlimit="10"/><path fill="rgb(120,144,156)" stroke="none" paint-order="stroke fill markers" d=" M 544.4183424320876 476.15804875522247 L 539.63352190421 484.6266963754746 L 549.2793323171383 483.3733642256253 Z" fill-opacity="1"/><path fill="none" stroke="rgb(55,71,79)" paint-order="fill stroke markers" d=" M 700.6054930618685 103.75665801990523 L 678.4436980024914 138.76856954228253" stroke-opacity="1" stroke-linejoin="round" stroke-miterlimit="10" stroke-width="2"/><path fill="none" stroke="rgb(55,71,79)" paint-order="fill stroke markers" d=" M 959.875 169.625 L 959.875 214.375" stroke-opacity="1" stroke-linejoin="round" stroke-miterlimit="10" stroke-width="2"/><path fill="none" stroke="rgb(120,144,156)" paint-order="fill stroke markers" d=" M 465.6651662049861 243.875 L 509.17879113732477 349.30062819177346" stroke-opacity="1" stroke-linejoin="round" stroke-miterlimit="10"/><path fill="rgb(120,144,156)" stroke="none" paint-order="stroke fill markers" d=" M 502.6016269058267 344.7670412375061 L 509.94183590441503 351.14934739257603 L 510.643555429318 341.44779650066346 Z" fill-opacity="1"/><path fill="none" stroke="rgb(120,144,156)" paint-order="fill stroke markers" d=" M 344.8348337950139 243.875 L 337.6009949055944 261.4012807991974" stroke-opacity="1" stroke-linejoin="round" stroke-miterlimit="10"/><path fill="rgb(120,144,156)" stroke="none" paint-order="stroke fill markers" d=" M 336.1362306136012 253.54844910808742 L 336.83795013850414 263.25 L 344.17815913709245 256.8676938449301 Z" fill-opacity="1"/><path fill="none" stroke="rgb(120,144,156)" paint-order="fill stroke markers" d=" M 897.6845298110502 374.0555367573648 L 547.546775459573 489.77903183963264" stroke-opacity="1" stroke-linejoin="round" stroke-miterlimit="10"/><path fill="rgb(120,144,156)" stroke="none" paint-order="stroke fill markers" d=" M 552.5432384526231 483.5462268884826 L 545.6478057094163 490.4066574350234 L 555.273409792573 491.8067453016644 Z" fill-opacity="1"/><path fill="none" stroke="rgb(120,144,156)" paint-order="fill stroke markers" d=" M 954.0832231935374 250.44501199271423 L 921.6679148395937 348.7805272513167" stroke-opacity="1" stroke-linejoin="round" stroke-miterlimit="10"/><path fill="rgb(120,144,156)" stroke="none" paint-order="stroke fill markers" d=" M 919.63415010635 341.05548349676 L 921.0417768064626 350.6799880072858 L 927.8968043948157 343.7791839408803 Z" fill-opacity="1"/><path fill="none" stroke="rgb(120,144,156)" paint-order="fill stroke markers" d=" M 568.3348337950139 243.875 L 524.8212088626752 349.30062819177346" stroke-opacity="1" stroke-linejoin="round" stroke-miterlimit="10"/><path fill="rgb(120,144,156)" stroke="none" paint-order="stroke fill markers" d=" M 523.356444570682 341.44779650066346 L 524.058164095585 351.14934739257603 L 531.3983730941733 344.7670412375061 Z" fill-opacity="1"/><path fill="rgb(69,90,100)" stroke="rgb(76,175,80)" paint-order="fill stroke markers" d=" M 349.375 222.875 L 391.875 222.875 L 391.875 222.875 A 5 5 0 0 1 396.875 227.875 L 396.875 237.875 L 396.875 237.875 A 5 5 0 0 1 391.875 242.875 L 306.875 242.875 L 306.875 242.875 A 5 5 0 0 1 301.875 237.875 L 301.875 227.875 L 301.875 227.875 A 5 5 0 0 1 306.875 222.875 L 349.375 222.875 Z" fill-opacity="1" stroke-opacity="1" stroke-miterlimit="10" stroke-width="2"/><text fill="rgb(255,255,255)" stroke="none" font-family="times new roman" font-size="10px" font-style="normal" font-weight="normal" text-decoration="normal" x="349.375" y="237.875" text-anchor="middle" dominant-baseline="text-after-edge" fill-opacity="1">42132025_4213202…</text><path fill="rgb(69,90,100)" stroke="rgb(76,175,80)" paint-order="fill stroke markers" d=" M 688.375 232.875 L 688.3056400089954 234.6403296538765 L 688.0979876633907 236.39477546340518 L 687.7533232089477 238.12752068675786 L 687.2737716166409 239.82788237343632 L 686.662289481504 241.48537722821453 L 685.9226467942383 243.08978624413982 L 685.0594036979671 244.63121770610886 L 684.0778823734363 246.10016817658064 L 682.9841342260007 247.48758108742913 L 681.7849025766973 248.7849025766973 L 680.4875810874291 249.9841342260007 L 679.1001681765806 251.07788237343632 L 677.6312177061088 252.05940369796707 L 676.0897862441398 252.9226467942383 L 674.4853772282145 253.66228948150396 L 672.8278823734363 254.27377161664094 L 671.1275206867579 254.75332320894773 L 669.3947754634052 255.0979876633906 L 667.6403296538765 255.30564000899537 L 665.875 255.375 L 664.1096703461235 255.30564000899537 L 662.3552245365948 255.0979876633906 L 660.6224793132421 254.75332320894773 L 658.9221176265637 254.27377161664094 L 657.2646227717855 253.66228948150396 L 655.6602137558602 252.9226467942383 L 654.1187822938912 252.05940369796707 L 652.6498318234194 251.07788237343632 L 651.2624189125709 249.9841342260007 L 649.9650974233027 248.78490257669733 L 648.7658657739993 247.48758108742913 L 647.6721176265637 246.10016817658064 L 646.6905963020329 244.63121770610886 L 645.8273532057617 243.08978624413982 L 645.087710518496 241.48537722821453 L 644.4762283833591 239.82788237343632 L 643.9966767910523 238.12752068675786 L 643.6520123366095 236.3947754634052 L 643.4443599910046 234.6403296538765 L 643.375 232.875 L 643.4443599910046 231.1096703461235 L 643.6520123366093 229.35522453659482 L 643.9966767910523 227.62247931324214 L 644.4762283833591 225.92211762656368 L 645.087710518496 224.26462277178547 L 645.8273532057617 222.6602137558602 L 646.6905963020329 221.11878229389114 L 647.6721176265637 219.64983182341936 L 648.7658657739993 218.26241891257087 L 649.9650974233027 216.9650974233027 L 651.2624189125709 215.7658657739993 L 652.6498318234194 214.67211762656368 L 654.1187822938912 213.69059630203293 L 655.6602137558602 212.8273532057617 L 657.2646227717855 212.08771051849604 L 658.9221176265637 211.47622838335903 L 660.6224793132421 210.99667679105227 L 662.3552245365948 210.6520123366094 L 664.1096703461236 210.4443599910046 L 665.8750000000001 210.375 L 667.6403296538766 210.44435999100463 L 669.3947754634053 210.6520123366094 L 671.127520686758 210.9966767910523 L 672.8278823734364 211.47622838335909 L 674.4853772282146 212.0877105184961 L 676.0897862441399 212.8273532057618 L 677.6312177061089 213.690596302033 L 679.1001681765807 214.67211762656376 L 680.4875810874292 215.76586577399942 L 681.7849025766974 216.9650974233028 L 682.9841342260008 218.262418912571 L 684.0778823734364 219.6498318234195 L 685.0594036979671 221.11878229389131 L 685.9226467942384 222.66021375586038 L 686.662289481504 224.2646227717857 L 687.273771616641 225.9221176265639 L 687.7533232089478 227.62247931324237 L 688.0979876633907 229.35522453659505 L 688.3056400089954 231.10967034612375 Z" fill-opacity="1" stroke-opacity="1" stroke-miterlimit="10" stroke-width="2"/><text fill="rgb(255,255,255)" stroke="none" font-family="times new roman" font-size="15px" font-style="normal" font-weight="normal" text-decoration="normal" x="665.875" y="240.375" text-anchor="middle" dominant-baseline="text-after-edge" fill-opacity="1">*2</text><path fill="rgb(69,90,100)" stroke="rgb(76,175,80)" paint-order="fill stroke markers" d=" M 534.5 368.25 L 534.4460533403297 369.6230341752373 L 534.2845459604149 370.98760313820407 L 534.0164736069594 372.33529386747836 L 533.6434890351652 373.6577974015616 L 533.1678918189475 374.94696006638907 L 532.5926141732964 376.19483374544205 L 531.9212028761966 377.3937248825291 L 531.1577974015615 378.5362419151183 L 530.3071043980005 379.61534084577823 L 529.3743686707646 380.62436867076457 L 528.3653408457782 381.55710439800055 L 527.2862419151182 382.4077974015616 L 526.1437248825291 383.1712028761966 L 524.9448337454421 383.84261417329645 L 523.6969600663891 384.4178918189475 L 522.4077974015615 384.8934890351652 L 521.0852938674783 385.2664736069593 L 519.737603138204 385.5345459604149 L 518.3730341752373 385.69605334032974 L 517 385.75 L 515.6269658247627 385.69605334032974 L 514.262396861796 385.5345459604149 L 512.9147061325217 385.2664736069593 L 511.5922025984384 384.8934890351652 L 510.30303993361093 384.4178918189475 L 509.05516625455795 383.84261417329645 L 507.8562751174709 383.1712028761966 L 506.7137580848817 382.4077974015616 L 505.63465915422177 381.55710439800055 L 504.62563132923543 380.62436867076457 L 503.69289560199945 379.61534084577823 L 502.8422025984384 378.5362419151183 L 502.0787971238034 377.3937248825291 L 501.40738582670355 376.19483374544205 L 500.8321081810525 374.94696006638907 L 500.3565109648348 373.6577974015616 L 499.9835263930407 372.33529386747836 L 499.7154540395851 370.98760313820407 L 499.55394665967026 369.6230341752373 L 499.5 368.25 L 499.55394665967026 366.8769658247627 L 499.7154540395851 365.51239686179593 L 499.9835263930407 364.16470613252164 L 500.3565109648348 362.8422025984384 L 500.8321081810525 361.55303993361093 L 501.40738582670355 360.30516625455795 L 502.0787971238034 359.1062751174709 L 502.8422025984384 357.9637580848817 L 503.69289560199945 356.88465915422177 L 504.62563132923543 355.87563132923543 L 505.63465915422177 354.94289560199945 L 506.7137580848817 354.0922025984384 L 507.8562751174709 353.3287971238034 L 509.05516625455795 352.65738582670355 L 510.30303993361093 352.0821081810525 L 511.59220259843846 351.6065109648348 L 512.9147061325217 351.2335263930407 L 514.262396861796 350.9654540395851 L 515.6269658247628 350.80394665967026 L 517.0000000000001 350.75 L 518.3730341752373 350.80394665967026 L 519.7376031382041 350.9654540395851 L 521.0852938674784 351.2335263930407 L 522.4077974015617 351.60651096483485 L 523.6969600663891 352.0821081810525 L 524.9448337454421 352.6573858267036 L 526.1437248825292 353.32879712380344 L 527.2862419151184 354.0922025984385 L 528.3653408457783 354.94289560199957 L 529.3743686707646 355.8756313292355 L 530.3071043980007 356.8846591542219 L 531.1577974015617 357.9637580848818 L 531.9212028761967 359.10627511747106 L 532.5926141732965 360.30516625455806 L 533.1678918189476 361.5530399336111 L 533.6434890351652 362.8422025984386 L 534.0164736069594 364.1647061325218 L 534.2845459604149 365.51239686179616 L 534.4460533403297 366.8769658247629 Z" fill-opacity="1" stroke-opacity="1" stroke-miterlimit="10" stroke-width="2"/><text fill="rgb(255,255,255)" stroke="none" font-family="times new roman" font-size="10px" font-style="normal" font-weight="normal" text-decoration="normal" x="517" y="373.25" text-anchor="middle" dominant-baseline="text-after-edge" fill-opacity="1">*1.58</text><path fill="rgb(69,90,100)" stroke="rgb(76,175,80)" paint-order="fill stroke markers" d=" M 866.875 158.625 L 866.8056400089954 160.3903296538765 L 866.5979876633907 162.14477546340518 L 866.2533232089477 163.87752068675786 L 865.7737716166409 165.57788237343632 L 865.162289481504 167.23537722821453 L 864.4226467942383 168.83978624413982 L 863.5594036979671 170.38121770610886 L 862.5778823734363 171.85016817658064 L 861.4841342260007 173.23758108742913 L 860.2849025766973 174.5349025766973 L 858.9875810874291 175.7341342260007 L 857.6001681765806 176.82788237343632 L 856.1312177061088 177.80940369796707 L 854.5897862441398 178.6726467942383 L 852.9853772282145 179.41228948150396 L 851.3278823734363 180.02377161664094 L 849.6275206867579 180.50332320894773 L 847.8947754634052 180.8479876633906 L 846.1403296538765 181.05564000899537 L 844.375 181.125 L 842.6096703461235 181.05564000899537 L 840.8552245365948 180.8479876633906 L 839.1224793132421 180.50332320894773 L 837.4221176265637 180.02377161664094 L 835.7646227717855 179.41228948150396 L 834.1602137558602 178.6726467942383 L 832.6187822938912 177.80940369796707 L 831.1498318234194 176.82788237343632 L 829.7624189125709 175.7341342260007 L 828.4650974233027 174.53490257669733 L 827.2658657739993 173.23758108742913 L 826.1721176265637 171.85016817658064 L 825.1905963020329 170.38121770610886 L 824.3273532057617 168.83978624413982 L 823.587710518496 167.23537722821453 L 822.9762283833591 165.57788237343632 L 822.4966767910523 163.87752068675786 L 822.1520123366095 162.1447754634052 L 821.9443599910046 160.3903296538765 L 821.875 158.625 L 821.9443599910046 156.8596703461235 L 822.1520123366093 155.10522453659482 L 822.4966767910523 153.37247931324214 L 822.9762283833591 151.67211762656368 L 823.587710518496 150.01462277178547 L 824.3273532057617 148.4102137558602 L 825.1905963020329 146.86878229389114 L 826.1721176265637 145.39983182341936 L 827.2658657739993 144.01241891257087 L 828.4650974233027 142.7150974233027 L 829.7624189125709 141.5158657739993 L 831.1498318234194 140.42211762656368 L 832.6187822938912 139.44059630203293 L 834.1602137558602 138.5773532057617 L 835.7646227717855 137.83771051849604 L 837.4221176265637 137.22622838335903 L 839.1224793132421 136.74667679105227 L 840.8552245365948 136.4020123366094 L 842.6096703461236 136.1943599910046 L 844.3750000000001 136.125 L 846.1403296538766 136.19435999100463 L 847.8947754634053 136.4020123366094 L 849.627520686758 136.7466767910523 L 851.3278823734364 137.22622838335909 L 852.9853772282146 137.8377105184961 L 854.5897862441399 138.5773532057618 L 856.1312177061089 139.440596302033 L 857.6001681765807 140.42211762656376 L 858.9875810874292 141.51586577399942 L 860.2849025766974 142.7150974233028 L 861.4841342260008 144.012418912571 L 862.5778823734364 145.3998318234195 L 863.5594036979671 146.86878229389131 L 864.4226467942384 148.41021375586038 L 865.162289481504 150.0146227717857 L 865.773771616641 151.6721176265639 L 866.2533232089478 153.37247931324237 L 866.5979876633907 155.10522453659505 L 866.8056400089954 156.85967034612375 Z" fill-opacity="1" stroke-opacity="1" stroke-miterlimit="10" stroke-width="2"/><text fill="rgb(255,255,255)" stroke="none" font-family="times new roman" font-size="15px" font-style="normal" font-weight="normal" text-decoration="normal" x="844.375" y="166.125" text-anchor="middle" dominant-baseline="text-after-edge" fill-opacity="1">*34</text><path fill="rgb(69,90,100)" stroke="rgb(76,175,80)" paint-order="fill stroke markers" d=" M 912.375 148.625 L 912.375 168.625 L 1007.375 168.625 L 1007.375 148.625 Z" fill-opacity="1" stroke-opacity="1" stroke-miterlimit="10" stroke-width="2"/><text fill="rgb(255,255,255)" stroke="none" font-family="times new roman" font-size="10px" font-style="normal" font-weight="normal" text-decoration="normal" x="959.875" y="163.625" text-anchor="middle" dominant-baseline="text-after-edge" fill-opacity="1">42127407T&gt;G</text><path fill="rgb(69,90,100)" stroke="rgb(69,90,100)" paint-order="fill stroke markers" d=" M 498.25 482.375 L 479.5 499.875 L 498.25 517.375 L 535.75 517.375 L 554.5 499.875 L 535.75 482.375 Z" fill-opacity="1" stroke-opacity="1" stroke-miterlimit="10" stroke-width="2"/><text fill="rgb(255,255,255)" stroke="none" font-family="times new roman" font-size="10px" font-style="normal" font-weight="normal" text-decoration="normal" x="517" y="504.875" text-anchor="middle" dominant-baseline="text-after-edge" fill-opacity="1">NA20875-all</text><path fill="rgb(69,90,100)" stroke="rgb(158,158,158)" paint-order="fill stroke markers" d=" M 573.75 78.125 L 573.75 98.125 L 668.75 98.125 L 668.75 78.125 Z" fill-opacity="1" stroke-opacity="1" stroke-miterlimit="10" stroke-width="2"/><text fill="rgb(255,255,255)" stroke="none" font-family="times new roman" font-size="10px" font-style="normal" font-weight="normal" text-decoration="normal" x="621.25" y="93.125" text-anchor="middle" dominant-baseline="text-after-edge" fill-opacity="1">42126611C&gt;G</text><path fill="rgb(69,90,100)" stroke="rgb(158,158,158)" paint-order="fill stroke markers" d=" M 711.375 222.875 L 711.375 242.875 L 806.375 242.875 L 806.375 222.875 Z" fill-opacity="1" stroke-opacity="1" stroke-miterlimit="10" stroke-width="2"/><text fill="rgb(255,255,255)" stroke="none" font-family="times new roman" font-size="10px" font-style="normal" font-weight="normal" text-decoration="normal" x="758.875" y="237.875" text-anchor="middle" dominant-baseline="text-after-edge" fill-opacity="1">42129759C&gt;T</text><path fill="rgb(69,90,100)" stroke="rgb(76,175,80)" paint-order="fill stroke markers" d=" M 237.625 222.875 L 280.125 222.875 L 280.125 222.875 A 5 5 0 0 1 285.125 227.875 L 285.125 237.875 L 285.125 237.875 A 5 5 0 0 1 280.125 242.875 L 195.125 242.875 L 195.125 242.875 A 5 5 0 0 1 190.125 237.875 L 190.125 227.875 L 190.125 227.875 A 5 5 0 0 1 195.125 222.875 L 237.625 222.875 Z" fill-opacity="1" stroke-opacity="1" stroke-miterlimit="10" stroke-width="2"/><text fill="rgb(255,255,255)" stroke="none" font-family="times new roman" font-size="10px" font-style="normal" font-weight="normal" text-decoration="normal" x="237.625" y="237.875" text-anchor="middle" dominant-baseline="text-after-edge" fill-opacity="1">42132049dup</text><path fill="rgb(69,90,100)" stroke="rgb(76,175,80)" paint-order="fill stroke markers" d=" M 413.625 222.875 L 413.625 242.875 L 508.625 242.875 L 508.625 222.875 Z" fill-opacity="1" stroke-opacity="1" stroke-miterlimit="10" stroke-width="2"/><text fill="rgb(255,255,255)" stroke="none" font-family="times new roman" font-size="10px" font-style="normal" font-weight="normal" text-decoration="normal" x="461.125" y="237.875" text-anchor="middle" dominant-baseline="text-after-edge" fill-opacity="1">42129950A&gt;C</text><path fill="rgb(69,90,100)" stroke="rgb(76,175,80)" paint-order="fill stroke markers" d=" M 906.5 88.125 L 906.4460533403297 89.49803417523728 L 906.2845459604149 90.86260313820404 L 906.0164736069594 92.21029386747834 L 905.6434890351652 93.53279740156158 L 905.1678918189475 94.82196006638907 L 904.5926141732964 96.06983374544207 L 903.9212028761966 97.2687248825291 L 903.1577974015615 98.41124191511828 L 902.3071043980005 99.4903408457782 L 901.3743686707646 100.49936867076458 L 900.3653408457782 101.43210439800055 L 899.2862419151182 102.28279740156158 L 898.1437248825291 103.04620287619662 L 896.9448337454421 103.71761417329644 L 895.6969600663891 104.29289181894751 L 894.4077974015615 104.76848903516519 L 893.0852938674783 105.14147360695934 L 891.737603138204 105.4095459604149 L 890.3730341752373 105.57105334032974 L 889 105.625 L 887.6269658247627 105.57105334032974 L 886.262396861796 105.4095459604149 L 884.9147061325217 105.14147360695934 L 883.5922025984385 104.76848903516519 L 882.3030399336109 104.29289181894751 L 881.0551662545579 103.71761417329644 L 879.8562751174709 103.04620287619662 L 878.7137580848818 102.28279740156158 L 877.6346591542218 101.43210439800055 L 876.6256313292354 100.49936867076458 L 875.6928956019995 99.49034084577822 L 874.8422025984385 98.41124191511828 L 874.0787971238034 97.26872488252911 L 873.4073858267036 96.06983374544207 L 872.8321081810525 94.82196006638907 L 872.3565109648348 93.53279740156158 L 871.9835263930406 92.21029386747834 L 871.7154540395851 90.86260313820404 L 871.5539466596703 89.4980341752373 L 871.5 88.125 L 871.5539466596703 86.75196582476272 L 871.7154540395851 85.38739686179596 L 871.9835263930406 84.03970613252166 L 872.3565109648348 82.71720259843842 L 872.8321081810525 81.42803993361093 L 873.4073858267036 80.18016625455793 L 874.0787971238034 78.9812751174709 L 874.8422025984385 77.83875808488172 L 875.6928956019995 76.7596591542218 L 876.6256313292354 75.75063132923542 L 877.6346591542218 74.81789560199947 L 878.7137580848818 73.96720259843842 L 879.8562751174709 73.20379712380338 L 881.0551662545579 72.53238582670356 L 882.303039933611 71.95710818105248 L 883.5922025984385 71.4815109648348 L 884.9147061325217 71.10852639304065 L 886.262396861796 70.84045403958508 L 887.6269658247628 70.67894665967026 L 889.0000000000001 70.625 L 890.3730341752373 70.67894665967026 L 891.7376031382041 70.8404540395851 L 893.0852938674784 71.10852639304068 L 894.4077974015617 71.48151096483484 L 895.6969600663891 71.95710818105252 L 896.9448337454421 72.5323858267036 L 898.1437248825292 73.20379712380344 L 899.2862419151184 73.96720259843849 L 900.3653408457783 74.81789560199954 L 901.3743686707646 75.75063132923552 L 902.3071043980007 76.7596591542219 L 903.1577974015617 77.83875808488185 L 903.9212028761967 78.98127511747103 L 904.5926141732965 80.18016625455807 L 905.1678918189476 81.42803993361109 L 905.6434890351652 82.71720259843859 L 906.0164736069594 84.03970613252184 L 906.2845459604149 85.38739686179616 L 906.4460533403297 86.75196582476292 Z" fill-opacity="1" stroke-opacity="1" stroke-miterlimit="10" stroke-width="2"/><text fill="rgb(255,255,255)" stroke="none" font-family="times new roman" font-size="10px" font-style="normal" font-weight="normal" text-decoration="normal" x="889" y="93.125" text-anchor="middle" dominant-baseline="text-after-edge" fill-opacity="1">*34.1</text><path fill="rgb(69,90,100)" stroke="rgb(76,175,80)" paint-order="fill stroke markers" d=" M 977.375 232.875 L 977.3210533403297 234.24803417523728 L 977.1595459604149 235.61260313820404 L 976.8914736069594 236.96029386747836 L 976.5184890351652 238.28279740156157 L 976.0428918189475 239.57196006638907 L 975.4676141732964 240.81983374544205 L 974.7962028761966 242.0187248825291 L 974.0327974015615 243.16124191511827 L 973.1821043980005 244.2403408457782 L 972.2493686707646 245.24936867076457 L 971.2403408457782 246.18210439800055 L 970.1612419151182 247.0327974015616 L 969.0187248825291 247.79620287619662 L 967.8198337454421 248.46761417329643 L 966.5719600663891 249.0428918189475 L 965.2827974015615 249.51848903516517 L 963.9602938674783 249.89147360695935 L 962.612603138204 250.1595459604149 L 961.2480341752373 250.32105334032974 L 959.875 250.375 L 958.5019658247627 250.32105334032974 L 957.137396861796 250.1595459604149 L 955.7897061325217 249.89147360695935 L 954.4672025984385 249.5184890351652 L 953.1780399336109 249.0428918189475 L 951.9301662545579 248.46761417329643 L 950.7312751174709 247.79620287619662 L 949.5887580848818 247.0327974015616 L 948.5096591542218 246.18210439800055 L 947.5006313292354 245.24936867076457 L 946.5678956019995 244.2403408457782 L 945.7172025984385 243.1612419151183 L 944.9537971238034 242.0187248825291 L 944.2823858267036 240.81983374544208 L 943.7071081810525 239.57196006638907 L 943.2315109648348 238.2827974015616 L 942.8585263930406 236.96029386747836 L 942.5904540395851 235.61260313820404 L 942.4289466596703 234.24803417523728 L 942.375 232.875 L 942.4289466596703 231.50196582476272 L 942.5904540395851 230.13739686179596 L 942.8585263930406 228.78970613252164 L 943.2315109648348 227.46720259843843 L 943.7071081810525 226.17803993361093 L 944.2823858267036 224.93016625455795 L 944.9537971238034 223.7312751174709 L 945.7172025984385 222.58875808488173 L 946.5678956019995 221.5096591542218 L 947.5006313292354 220.50063132923543 L 948.5096591542218 219.56789560199945 L 949.5887580848818 218.71720259843843 L 950.7312751174709 217.95379712380338 L 951.9301662545579 217.28238582670355 L 953.178039933611 216.7071081810525 L 954.4672025984385 216.2315109648348 L 955.7897061325217 215.85852639304065 L 957.137396861796 215.5904540395851 L 958.5019658247628 215.42894665967026 L 959.8750000000001 215.375 L 961.2480341752373 215.42894665967026 L 962.6126031382041 215.5904540395851 L 963.9602938674784 215.85852639304068 L 965.2827974015617 216.23151096483485 L 966.5719600663891 216.70710818105252 L 967.8198337454421 217.2823858267036 L 969.0187248825292 217.95379712380344 L 970.1612419151184 218.7172025984385 L 971.2403408457783 219.56789560199954 L 972.2493686707646 220.50063132923552 L 973.1821043980007 221.5096591542219 L 974.0327974015617 222.58875808488185 L 974.7962028761967 223.73127511747103 L 975.4676141732965 224.9301662545581 L 976.0428918189476 226.1780399336111 L 976.5184890351652 227.4672025984386 L 976.8914736069594 228.78970613252184 L 977.1595459604149 230.13739686179616 L 977.3210533403297 231.50196582476292 Z" fill-opacity="1" stroke-opacity="1" stroke-miterlimit="10" stroke-width="2"/><text fill="rgb(255,255,255)" stroke="none" font-family="times new roman" font-size="10px" font-style="normal" font-weight="normal" text-decoration="normal" x="959.875" y="237.875" text-anchor="middle" dominant-baseline="text-after-edge" fill-opacity="1">*1.41</text><path fill="rgb(69,90,100)" stroke="rgb(158,158,158)" paint-order="fill stroke markers" d=" M 752.25 78.125 L 752.25 98.125 L 847.25 98.125 L 847.25 78.125 Z" fill-opacity="1" stroke-opacity="1" stroke-miterlimit="10" stroke-width="2"/><text fill="rgb(255,255,255)" stroke="none" font-family="times new roman" font-size="10px" font-style="normal" font-weight="normal" text-decoration="normal" x="799.75" y="93.125" text-anchor="middle" dominant-baseline="text-after-edge" fill-opacity="1">42127941G&gt;A</text><path fill="rgb(69,90,100)" stroke="rgb(117,117,117)" paint-order="fill stroke markers" d=" M 734.875 368.25 L 734.8056400089954 370.0153296538765 L 734.5979876633907 371.7697754634052 L 734.2533232089477 373.50252068675786 L 733.7737716166409 375.2028823734363 L 733.162289481504 376.86037722821453 L 732.4226467942383 378.4647862441398 L 731.5594036979671 380.0062177061088 L 730.5778823734363 381.47516817658067 L 729.4841342260007 382.86258108742913 L 728.2849025766973 384.15990257669733 L 726.9875810874291 385.3591342260007 L 725.6001681765806 386.4528823734363 L 724.1312177061088 387.43440369796707 L 722.5897862441398 388.2976467942383 L 720.9853772282145 389.03728948150393 L 719.3278823734363 389.64877161664094 L 717.6275206867579 390.12832320894773 L 715.8947754634052 390.4729876633906 L 714.1403296538765 390.6806400089954 L 712.375 390.75 L 710.6096703461235 390.6806400089954 L 708.8552245365948 390.4729876633906 L 707.1224793132421 390.12832320894773 L 705.4221176265637 389.64877161664094 L 703.7646227717855 389.03728948150393 L 702.1602137558602 388.2976467942383 L 700.6187822938912 387.43440369796707 L 699.1498318234194 386.4528823734363 L 697.7624189125709 385.3591342260007 L 696.4650974233027 384.15990257669733 L 695.2658657739993 382.86258108742913 L 694.1721176265637 381.47516817658067 L 693.1905963020329 380.0062177061088 L 692.3273532057617 378.4647862441398 L 691.587710518496 376.86037722821453 L 690.9762283833591 375.2028823734363 L 690.4966767910523 373.50252068675786 L 690.1520123366095 371.7697754634052 L 689.9443599910046 370.0153296538765 L 689.875 368.25 L 689.9443599910046 366.4846703461235 L 690.1520123366093 364.7302245365948 L 690.4966767910523 362.99747931324214 L 690.9762283833591 361.2971176265637 L 691.587710518496 359.63962277178547 L 692.3273532057617 358.0352137558602 L 693.1905963020329 356.4937822938912 L 694.1721176265637 355.02483182341933 L 695.2658657739993 353.63741891257087 L 696.4650974233027 352.34009742330267 L 697.7624189125709 351.14086577399934 L 699.1498318234194 350.0471176265637 L 700.6187822938912 349.06559630203293 L 702.1602137558602 348.2023532057617 L 703.7646227717855 347.462710518496 L 705.4221176265637 346.85122838335906 L 707.1224793132421 346.37167679105227 L 708.8552245365948 346.0270123366094 L 710.6096703461236 345.8193599910046 L 712.3750000000001 345.75 L 714.1403296538766 345.8193599910046 L 715.8947754634053 346.0270123366094 L 717.627520686758 346.3716767910523 L 719.3278823734364 346.85122838335906 L 720.9853772282146 347.4627105184961 L 722.5897862441399 348.20235320576177 L 724.1312177061089 349.065596302033 L 725.6001681765807 350.04711762656376 L 726.9875810874292 351.1408657739994 L 728.2849025766974 352.3400974233028 L 729.4841342260008 353.637418912571 L 730.5778823734364 355.0248318234195 L 731.5594036979671 356.49378229389134 L 732.4226467942384 358.0352137558604 L 733.162289481504 359.6396227717857 L 733.773771616641 361.29711762656393 L 734.2533232089478 362.99747931324237 L 734.5979876633907 364.7302245365951 L 734.8056400089954 366.4846703461238 Z" fill-opacity="1" stroke-opacity="1" stroke-miterlimit="10" stroke-width="2"/><text fill="rgb(255,255,255)" stroke="none" font-family="times new roman" font-size="15px" font-style="normal" font-weight="normal" text-decoration="normal" x="712.375" y="375.75" text-anchor="middle" dominant-baseline="text-after-edge" fill-opacity="1">*111</text><path fill="rgb(3,169,244)" stroke="none" paint-order="stroke fill markers" d=" M 712.375 335.75 L 736.875 335.75 L 736.875 335.75 A 8 8 0 0 1 744.875 343.75 L 744.875 392.75 L 744.875 392.75 A 8 8 0 0 1 736.875 400.75 L 687.875 400.75 L 687.875 400.75 A 8 8 0 0 1 679.875 392.75 L 679.875 343.75 L 679.875 343.75 A 8 8 0 0 1 687.875 335.75 L 712.375 335.75 Z" fill-opacity="0.15"/><path fill="rgb(69,90,100)" stroke="rgb(76,175,80)" paint-order="fill stroke markers" d=" M 823.125 222.875 L 823.125 242.875 L 918.125 242.875 L 918.125 222.875 Z" fill-opacity="1" stroke-opacity="1" stroke-miterlimit="10" stroke-width="2"/><text fill="rgb(255,255,255)" stroke="none" font-family="times new roman" font-size="10px" font-style="normal" font-weight="normal" text-decoration="normal" x="870.625" y="237.875" text-anchor="middle" dominant-baseline="text-after-edge" fill-opacity="1">42130047G&gt;C</text><path fill="rgb(69,90,100)" stroke="rgb(76,175,80)" paint-order="fill stroke markers" d=" M 525.375 222.875 L 525.375 242.875 L 620.375 242.875 L 620.375 222.875 Z" fill-opacity="1" stroke-opacity="1" stroke-miterlimit="10" stroke-width="2"/><text fill="rgb(255,255,255)" stroke="none" font-family="times new roman" font-size="10px" font-style="normal" font-weight="normal" text-decoration="normal" x="572.875" y="237.875" text-anchor="middle" dominant-baseline="text-after-edge" fill-opacity="1">42130482C&gt;A</text><path fill="rgb(69,90,100)" stroke="rgb(76,175,80)" paint-order="fill stroke markers" d=" M 612.875 158.625 L 612.8210533403297 159.99803417523728 L 612.6595459604149 161.36260313820404 L 612.3914736069594 162.71029386747836 L 612.0184890351652 164.03279740156157 L 611.5428918189475 165.32196006638907 L 610.9676141732964 166.56983374544205 L 610.2962028761966 167.7687248825291 L 609.5327974015615 168.91124191511827 L 608.6821043980005 169.9903408457782 L 607.7493686707646 170.99936867076457 L 606.7403408457782 171.93210439800055 L 605.6612419151182 172.7827974015616 L 604.5187248825291 173.54620287619662 L 603.3198337454421 174.21761417329643 L 602.0719600663891 174.7928918189475 L 600.7827974015615 175.26848903516517 L 599.4602938674783 175.64147360695935 L 598.112603138204 175.9095459604149 L 596.7480341752373 176.07105334032974 L 595.375 176.125 L 594.0019658247627 176.07105334032974 L 592.637396861796 175.9095459604149 L 591.2897061325217 175.64147360695935 L 589.9672025984385 175.2684890351652 L 588.6780399336109 174.7928918189475 L 587.4301662545579 174.21761417329643 L 586.2312751174709 173.54620287619662 L 585.0887580848818 172.7827974015616 L 584.0096591542218 171.93210439800055 L 583.0006313292354 170.99936867076457 L 582.0678956019995 169.9903408457782 L 581.2172025984385 168.9112419151183 L 580.4537971238034 167.7687248825291 L 579.7823858267036 166.56983374544208 L 579.2071081810525 165.32196006638907 L 578.7315109648348 164.0327974015616 L 578.3585263930406 162.71029386747836 L 578.0904540395851 161.36260313820404 L 577.9289466596703 159.99803417523728 L 577.875 158.625 L 577.9289466596703 157.25196582476272 L 578.0904540395851 155.88739686179596 L 578.3585263930406 154.53970613252164 L 578.7315109648348 153.21720259843843 L 579.2071081810525 151.92803993361093 L 579.7823858267036 150.68016625455795 L 580.4537971238034 149.4812751174709 L 581.2172025984385 148.33875808488173 L 582.0678956019995 147.2596591542218 L 583.0006313292354 146.25063132923543 L 584.0096591542218 145.31789560199945 L 585.0887580848818 144.46720259843843 L 586.2312751174709 143.70379712380338 L 587.4301662545579 143.03238582670355 L 588.678039933611 142.4571081810525 L 589.9672025984385 141.9815109648348 L 591.2897061325217 141.60852639304065 L 592.637396861796 141.3404540395851 L 594.0019658247628 141.17894665967026 L 595.3750000000001 141.125 L 596.7480341752373 141.17894665967026 L 598.1126031382041 141.3404540395851 L 599.4602938674784 141.60852639304068 L 600.7827974015617 141.98151096483485 L 602.0719600663891 142.45710818105252 L 603.3198337454421 143.0323858267036 L 604.5187248825292 143.70379712380344 L 605.6612419151184 144.4672025984385 L 606.7403408457783 145.31789560199954 L 607.7493686707646 146.25063132923552 L 608.6821043980007 147.2596591542219 L 609.5327974015617 148.33875808488185 L 610.2962028761967 149.48127511747103 L 610.9676141732965 150.6801662545581 L 611.5428918189476 151.9280399336111 L 612.0184890351652 153.2172025984386 L 612.3914736069594 154.53970613252184 L 612.6595459604149 155.88739686179616 L 612.8210533403297 157.25196582476292 Z" fill-opacity="1" stroke-opacity="1" stroke-miterlimit="10" stroke-width="2"/><text fill="rgb(255,255,255)" stroke="none" font-family="times new roman" font-size="10px" font-style="normal" font-weight="normal" text-decoration="normal" x="595.375" y="163.625" text-anchor="middle" dominant-baseline="text-after-edge" fill-opacity="1">*2.4</text><path fill="rgb(69,90,100)" stroke="rgb(76,175,80)" paint-order="fill stroke markers" d=" M 688.375 158.625 L 688.3056400089954 160.3903296538765 L 688.0979876633907 162.14477546340518 L 687.7533232089477 163.87752068675786 L 687.2737716166409 165.57788237343632 L 686.662289481504 167.23537722821453 L 685.9226467942383 168.83978624413982 L 685.0594036979671 170.38121770610886 L 684.0778823734363 171.85016817658064 L 682.9841342260007 173.23758108742913 L 681.7849025766973 174.5349025766973 L 680.4875810874291 175.7341342260007 L 679.1001681765806 176.82788237343632 L 677.6312177061088 177.80940369796707 L 676.0897862441398 178.6726467942383 L 674.4853772282145 179.41228948150396 L 672.8278823734363 180.02377161664094 L 671.1275206867579 180.50332320894773 L 669.3947754634052 180.8479876633906 L 667.6403296538765 181.05564000899537 L 665.875 181.125 L 664.1096703461235 181.05564000899537 L 662.3552245365948 180.8479876633906 L 660.6224793132421 180.50332320894773 L 658.9221176265637 180.02377161664094 L 657.2646227717855 179.41228948150396 L 655.6602137558602 178.6726467942383 L 654.1187822938912 177.80940369796707 L 652.6498318234194 176.82788237343632 L 651.2624189125709 175.7341342260007 L 649.9650974233027 174.53490257669733 L 648.7658657739993 173.23758108742913 L 647.6721176265637 171.85016817658064 L 646.6905963020329 170.38121770610886 L 645.8273532057617 168.83978624413982 L 645.087710518496 167.23537722821453 L 644.4762283833591 165.57788237343632 L 643.9966767910523 163.87752068675786 L 643.6520123366095 162.1447754634052 L 643.4443599910046 160.3903296538765 L 643.375 158.625 L 643.4443599910046 156.8596703461235 L 643.6520123366093 155.10522453659482 L 643.9966767910523 153.37247931324214 L 644.4762283833591 151.67211762656368 L 645.087710518496 150.01462277178547 L 645.8273532057617 148.4102137558602 L 646.6905963020329 146.86878229389114 L 647.6721176265637 145.39983182341936 L 648.7658657739993 144.01241891257087 L 649.9650974233027 142.7150974233027 L 651.2624189125709 141.5158657739993 L 652.6498318234194 140.42211762656368 L 654.1187822938912 139.44059630203293 L 655.6602137558602 138.5773532057617 L 657.2646227717855 137.83771051849604 L 658.9221176265637 137.22622838335903 L 660.6224793132421 136.74667679105227 L 662.3552245365948 136.4020123366094 L 664.1096703461236 136.1943599910046 L 665.8750000000001 136.125 L 667.6403296538766 136.19435999100463 L 669.3947754634053 136.4020123366094 L 671.127520686758 136.7466767910523 L 672.8278823734364 137.22622838335909 L 674.4853772282146 137.8377105184961 L 676.0897862441399 138.5773532057618 L 677.6312177061089 139.440596302033 L 679.1001681765807 140.42211762656376 L 680.4875810874292 141.51586577399942 L 681.7849025766974 142.7150974233028 L 682.9841342260008 144.012418912571 L 684.0778823734364 145.3998318234195 L 685.0594036979671 146.86878229389131 L 685.9226467942384 148.41021375586038 L 686.662289481504 150.0146227717857 L 687.273771616641 151.6721176265639 L 687.7533232089478 153.37247931324237 L 688.0979876633907 155.10522453659505 L 688.3056400089954 156.85967034612375 Z" fill-opacity="1" stroke-opacity="1" stroke-miterlimit="10" stroke-width="2"/><text fill="rgb(255,255,255)" stroke="none" font-family="times new roman" font-size="15px" font-style="normal" font-weight="normal" text-decoration="normal" x="665.875" y="166.125" text-anchor="middle" dominant-baseline="text-after-edge" fill-opacity="1">*39</text><path fill="rgb(69,90,100)" stroke="rgb(76,175,80)" paint-order="fill stroke markers" d=" M 728 88.125 L 727.9460533403297 89.49803417523728 L 727.7845459604149 90.86260313820404 L 727.5164736069594 92.21029386747834 L 727.1434890351652 93.53279740156158 L 726.6678918189475 94.82196006638907 L 726.0926141732964 96.06983374544207 L 725.4212028761966 97.2687248825291 L 724.6577974015615 98.41124191511828 L 723.8071043980005 99.4903408457782 L 722.8743686707646 100.49936867076458 L 721.8653408457782 101.43210439800055 L 720.7862419151182 102.28279740156158 L 719.6437248825291 103.04620287619662 L 718.4448337454421 103.71761417329644 L 717.1969600663891 104.29289181894751 L 715.9077974015615 104.76848903516519 L 714.5852938674783 105.14147360695934 L 713.237603138204 105.4095459604149 L 711.8730341752373 105.57105334032974 L 710.5 105.625 L 709.1269658247627 105.57105334032974 L 707.762396861796 105.4095459604149 L 706.4147061325217 105.14147360695934 L 705.0922025984385 104.76848903516519 L 703.8030399336109 104.29289181894751 L 702.5551662545579 103.71761417329644 L 701.3562751174709 103.04620287619662 L 700.2137580848818 102.28279740156158 L 699.1346591542218 101.43210439800055 L 698.1256313292354 100.49936867076458 L 697.1928956019995 99.49034084577822 L 696.3422025984385 98.41124191511828 L 695.5787971238034 97.26872488252911 L 694.9073858267036 96.06983374544207 L 694.3321081810525 94.82196006638907 L 693.8565109648348 93.53279740156158 L 693.4835263930406 92.21029386747834 L 693.2154540395851 90.86260313820404 L 693.0539466596703 89.4980341752373 L 693 88.125 L 693.0539466596703 86.75196582476272 L 693.2154540395851 85.38739686179596 L 693.4835263930406 84.03970613252166 L 693.8565109648348 82.71720259843842 L 694.3321081810525 81.42803993361093 L 694.9073858267036 80.18016625455793 L 695.5787971238034 78.9812751174709 L 696.3422025984385 77.83875808488172 L 697.1928956019995 76.7596591542218 L 698.1256313292354 75.75063132923542 L 699.1346591542218 74.81789560199947 L 700.2137580848818 73.96720259843842 L 701.3562751174709 73.20379712380338 L 702.5551662545579 72.53238582670356 L 703.803039933611 71.95710818105248 L 705.0922025984385 71.4815109648348 L 706.4147061325217 71.10852639304065 L 707.762396861796 70.84045403958508 L 709.1269658247628 70.67894665967026 L 710.5000000000001 70.625 L 711.8730341752373 70.67894665967026 L 713.2376031382041 70.8404540395851 L 714.5852938674784 71.10852639304068 L 715.9077974015617 71.48151096483484 L 717.1969600663891 71.95710818105252 L 718.4448337454421 72.5323858267036 L 719.6437248825292 73.20379712380344 L 720.7862419151184 73.96720259843849 L 721.8653408457783 74.81789560199954 L 722.8743686707646 75.75063132923552 L 723.8071043980007 76.7596591542219 L 724.6577974015617 77.83875808488185 L 725.4212028761967 78.98127511747103 L 726.0926141732965 80.18016625455807 L 726.6678918189476 81.42803993361109 L 727.1434890351652 82.71720259843859 L 727.5164736069594 84.03970613252184 L 727.7845459604149 85.38739686179616 L 727.9460533403297 86.75196582476292 Z" fill-opacity="1" stroke-opacity="1" stroke-miterlimit="10" stroke-width="2"/><text fill="rgb(255,255,255)" stroke="none" font-family="times new roman" font-size="10px" font-style="normal" font-weight="normal" text-decoration="normal" x="710.5" y="93.125" text-anchor="middle" dominant-baseline="text-after-edge" fill-opacity="1">*39.2</text><path fill="rgb(69,90,100)" stroke="rgb(76,175,80)" paint-order="fill stroke markers" d=" M 932.75 368.25 L 932.6960533403297 369.6230341752373 L 932.5345459604149 370.98760313820407 L 932.2664736069594 372.33529386747836 L 931.8934890351652 373.6577974015616 L 931.4178918189475 374.94696006638907 L 930.8426141732964 376.19483374544205 L 930.1712028761966 377.3937248825291 L 929.4077974015615 378.5362419151183 L 928.5571043980005 379.61534084577823 L 927.6243686707646 380.62436867076457 L 926.6153408457782 381.55710439800055 L 925.5362419151182 382.4077974015616 L 924.3937248825291 383.1712028761966 L 923.1948337454421 383.84261417329645 L 921.9469600663891 384.4178918189475 L 920.6577974015615 384.8934890351652 L 919.3352938674783 385.2664736069593 L 917.987603138204 385.5345459604149 L 916.6230341752373 385.69605334032974 L 915.25 385.75 L 913.8769658247627 385.69605334032974 L 912.512396861796 385.5345459604149 L 911.1647061325217 385.2664736069593 L 909.8422025984385 384.8934890351652 L 908.5530399336109 384.4178918189475 L 907.3051662545579 383.84261417329645 L 906.1062751174709 383.1712028761966 L 904.9637580848818 382.4077974015616 L 903.8846591542218 381.55710439800055 L 902.8756313292354 380.62436867076457 L 901.9428956019995 379.61534084577823 L 901.0922025984385 378.5362419151183 L 900.3287971238034 377.3937248825291 L 899.6573858267036 376.19483374544205 L 899.0821081810525 374.94696006638907 L 898.6065109648348 373.6577974015616 L 898.2335263930406 372.33529386747836 L 897.9654540395851 370.98760313820407 L 897.8039466596703 369.6230341752373 L 897.75 368.25 L 897.8039466596703 366.8769658247627 L 897.9654540395851 365.51239686179593 L 898.2335263930406 364.16470613252164 L 898.6065109648348 362.8422025984384 L 899.0821081810525 361.55303993361093 L 899.6573858267036 360.30516625455795 L 900.3287971238034 359.1062751174709 L 901.0922025984385 357.9637580848817 L 901.9428956019995 356.88465915422177 L 902.8756313292354 355.87563132923543 L 903.8846591542218 354.94289560199945 L 904.9637580848818 354.0922025984384 L 906.1062751174709 353.3287971238034 L 907.3051662545579 352.65738582670355 L 908.553039933611 352.0821081810525 L 909.8422025984385 351.6065109648348 L 911.1647061325217 351.2335263930407 L 912.512396861796 350.9654540395851 L 913.8769658247628 350.80394665967026 L 915.2500000000001 350.75 L 916.6230341752373 350.80394665967026 L 917.9876031382041 350.9654540395851 L 919.3352938674784 351.2335263930407 L 920.6577974015617 351.60651096483485 L 921.9469600663891 352.0821081810525 L 923.1948337454421 352.6573858267036 L 924.3937248825292 353.32879712380344 L 925.5362419151184 354.0922025984385 L 926.6153408457783 354.94289560199957 L 927.6243686707646 355.8756313292355 L 928.5571043980007 356.8846591542219 L 929.4077974015617 357.9637580848818 L 930.1712028761967 359.10627511747106 L 930.8426141732965 360.30516625455806 L 931.4178918189476 361.5530399336111 L 931.8934890351652 362.8422025984386 L 932.2664736069594 364.1647061325218 L 932.5345459604149 365.51239686179616 L 932.6960533403297 366.8769658247629 Z" fill-opacity="1" stroke-opacity="1" stroke-miterlimit="10" stroke-width="2"/><text fill="rgb(255,255,255)" stroke="none" font-family="times new roman" font-size="10px" font-style="normal" font-weight="normal" text-decoration="normal" x="915.25" y="373.25" text-anchor="middle" dominant-baseline="text-after-edge" fill-opacity="1">*1.54</text><path fill="rgb(176,190,197)" stroke="none" paint-order="stroke fill markers" d=" M 132.625 263.25 L 132.625 473.25 L 207.625 473.25 L 207.625 263.25000000000006 Z" fill-opacity="0.8"/><text fill="rgb(0,0,0)" stroke="none" font-family="times new roman" font-size="10px" font-style="normal" font-weight="normal" text-decoration="normal" x="137.625" y="278.25" text-anchor="start" dominant-baseline="text-after-edge" fill-opacity="0.8">42126310C&gt;T </text><text fill="rgb(0,0,0)" stroke="none" font-family="times new roman" font-size="10px" font-style="normal" font-weight="normal" text-decoration="normal" x="137.625" y="288.25" text-anchor="start" dominant-baseline="text-after-edge" fill-opacity="0.8">42127001G&gt;A </text><text fill="rgb(0,0,0)" stroke="none" font-family="times new roman" font-size="10px" font-style="normal" font-weight="normal" text-decoration="normal" x="137.625" y="298.25" text-anchor="start" dominant-baseline="text-after-edge" fill-opacity="0.8">42127207C&gt;T </text><text fill="rgb(0,0,0)" stroke="none" font-family="times new roman" font-size="10px" font-style="normal" font-weight="normal" text-decoration="normal" x="137.625" y="308.25" text-anchor="start" dominant-baseline="text-after-edge" fill-opacity="0.8">42129130C&gt;G </text><text fill="rgb(0,0,0)" stroke="none" font-family="times new roman" font-size="10px" font-style="normal" font-weight="normal" text-decoration="normal" x="137.625" y="318.25" text-anchor="start" dominant-baseline="text-after-edge" fill-opacity="0.8">42131469C&gt;T </text><text fill="rgb(0,0,0)" stroke="none" font-family="times new roman" font-size="10px" font-style="normal" font-weight="normal" text-decoration="normal" x="137.625" y="328.25" text-anchor="start" dominant-baseline="text-after-edge" fill-opacity="0.8">42131531G&gt;A </text><text fill="rgb(0,0,0)" stroke="none" font-family="times new roman" font-size="10px" font-style="normal" font-weight="normal" text-decoration="normal" x="137.625" y="338.25" text-anchor="start" dominant-baseline="text-after-edge" fill-opacity="0.8">42132026T&gt;C </text><text fill="rgb(0,0,0)" stroke="none" font-family="times new roman" font-size="10px" font-style="normal" font-weight="normal" text-decoration="normal" x="137.625" y="348.25" text-anchor="start" dominant-baseline="text-after-edge" fill-opacity="0.8">42132375G&gt;C </text><path fill="rgb(176,190,197)" stroke="none" paint-order="stroke fill markers" d=" M 293.5 263.25 L 360.5 263.25 L 360.5 263.25 A 8 8 0 0 1 368.5 271.25 L 368.5 465.25 L 368.5 465.25 A 8 8 0 0 1 360.5 473.25 L 226.5 473.25 L 226.5 473.25 A 8 8 0 0 1 218.5 465.25 L 218.5 271.25 L 218.5 271.25 A 8 8 0 0 1 226.5 263.25 L 293.5 263.25 Z" fill-opacity="0.8"/><text fill="rgb(0,0,0)" stroke="none" font-family="times new roman" font-size="10px" font-style="normal" font-weight="normal" text-decoration="normal" x="223.5" y="278.25" text-anchor="start" dominant-baseline="text-after-edge" fill-opacity="0.8">42125924A&gt;G </text><text fill="rgb(0,0,0)" stroke="none" font-family="times new roman" font-size="10px" font-style="normal" font-weight="normal" text-decoration="normal" x="223.5" y="288.25" text-anchor="start" dominant-baseline="text-after-edge" fill-opacity="0.8">42126069A&gt;C </text><text fill="rgb(0,0,0)" stroke="none" font-family="times new roman" font-size="10px" font-style="normal" font-weight="normal" text-decoration="normal" x="223.5" y="298.25" text-anchor="start" dominant-baseline="text-after-edge" fill-opacity="0.8">42126136_42126138del </text><text fill="rgb(0,0,0)" stroke="none" font-family="times new roman" font-size="10px" font-style="normal" font-weight="normal" text-decoration="normal" x="223.5" y="308.25" text-anchor="start" dominant-baseline="text-after-edge" fill-opacity="0.8">42132025_42132026insCCTTTT </text><text fill="rgb(0,0,0)" stroke="none" font-family="times new roman" font-size="10px" font-style="normal" font-weight="normal" text-decoration="normal" x="223.5" y="318.25" text-anchor="start" dominant-baseline="text-after-edge" fill-opacity="0.8">42132027C&gt;T </text><text fill="rgb(0,0,0)" stroke="none" font-family="times new roman" font-size="10px" font-style="normal" font-weight="normal" text-decoration="normal" x="223.5" y="328.25" text-anchor="start" dominant-baseline="text-after-edge" fill-opacity="0.8">42132561C&gt;T </text><text fill="rgb(0,0,0)" stroke="none" font-family="times new roman" font-size="10px" font-style="normal" font-weight="normal" text-decoration="normal" x="223.5" y="338.25" text-anchor="start" dominant-baseline="text-after-edge" fill-opacity="0.8">42132844C&gt;A </text><text fill="rgb(0,0,0)" stroke="none" font-family="times new roman" font-size="10px" font-style="normal" font-weight="normal" text-decoration="normal" x="223.5" y="348.25" text-anchor="start" dominant-baseline="text-after-edge" fill-opacity="0.8">42132851T&gt;C </text><text fill="rgb(0,0,0)" stroke="none" font-family="times new roman" font-size="10px" font-style="normal" font-weight="normal" text-decoration="normal" x="223.5" y="358.25" text-anchor="start" dominant-baseline="text-after-edge" fill-opacity="0.8">42133400T&gt;G </text><text fill="rgb(0,0,0)" stroke="none" font-family="times new roman" font-size="10px" font-style="normal" font-weight="normal" text-decoration="normal" x="223.5" y="368.25" text-anchor="start" dominant-baseline="text-after-edge" fill-opacity="0.8">42133533A&gt;C </text><text fill="rgb(0,0,0)" stroke="none" font-family="times new roman" font-size="10px" font-style="normal" font-weight="normal" text-decoration="normal" x="223.5" y="378.25" text-anchor="start" dominant-baseline="text-after-edge" fill-opacity="0.8">42134096del </text><text fill="rgb(0,0,0)" stroke="none" font-family="times new roman" font-size="10px" font-style="normal" font-weight="normal" text-decoration="normal" x="223.5" y="388.25" text-anchor="start" dominant-baseline="text-after-edge" fill-opacity="0.8">42134820T&gt;G </text><text fill="rgb(0,0,0)" stroke="none" font-family="times new roman" font-size="10px" font-style="normal" font-weight="normal" text-decoration="normal" x="223.5" y="398.25" text-anchor="start" dominant-baseline="text-after-edge" fill-opacity="0.8">42135064_42135066dup </text><text fill="rgb(0,0,0)" stroke="none" font-family="times new roman" font-size="10px" font-style="normal" font-weight="normal" text-decoration="normal" x="223.5" y="408.25" text-anchor="start" dominant-baseline="text-after-edge" fill-opacity="0.8">42135201T&gt;C </text><text fill="rgb(0,0,0)" stroke="none" font-family="times new roman" font-size="10px" font-style="normal" font-weight="normal" text-decoration="normal" x="223.5" y="418.25" text-anchor="start" dominant-baseline="text-after-edge" fill-opacity="0.8">42135691T&gt;C </text><g transform="scale(0.917189132706374,0.917189132706374) translate(113.50911421247508,16.544574195385962)"/></g></svg>