<svg version="1.1" xmlns="http://www.w3.org/2000/svg" xmlns:xlink="http://www.w3.org/1999/xlink" width="1017" height="608"><defs/><g transform="translate(-115.54709576138146,-30.869701726844596) scale(0.8288854003139717,0.8288854003139717)"><path fill="none" stroke="rgb(55,71,79)" paint-order="fill stroke markers" d=" M 738.40625 277.625 L 738.40625 324.875" stroke-opacity="1" stroke-linejoin="round" stroke-miterlimit="10" stroke-width="2"/><path fill="none" stroke="rgb(120,144,156)" paint-order="fill stroke markers" d=" M 1067.5666273584907 359.375 L 1108.1514871747859 411.6788922860462" stroke-opacity="1" stroke-linejoin="round" stroke-miterlimit="10"/><path fill="rgb(120,144,156)" stroke="none" paint-order="stroke fill markers" d=" M 1100.6074028096818 409.05224212049455 L 1109.377561596758 413.25900035570027 L 1107.480872912677 403.71881838491595 Z" fill-opacity="1"/><path fill="none" stroke="rgb(120,144,156)" paint-order="fill stroke markers" d=" M 281.3387424516768 564.9288552715096 L 901.3199890950417 685.9933434894908" stroke-opacity="1" stroke-linejoin="round" stroke-miterlimit="10"/><path fill="rgb(120,144,156)" stroke="none" paint-order="stroke fill markers" d=" M 893.9105027605392 688.9786428478167 L 903.2829151878882 686.3766464428088 L 895.5778706074725 680.4399143439343 Z" fill-opacity="1"/><path fill="none" stroke="rgb(120,144,156)" paint-order="fill stroke markers" d=" M 499.7246407283009 566.6938880936027 L 903.7638695520739 683.5124789643969" stroke-opacity="1" stroke-linejoin="round" stroke-miterlimit="10"/><path fill="rgb(120,144,156)" stroke="none" paint-order="stroke fill markers" d=" M 896.1192777917428 685.8303911322492 L 905.685175964591 684.0679802418216 L 898.53570834854 677.4727082377996 Z" fill-opacity="1"/><path fill="none" stroke="rgb(120,144,156)" paint-order="fill stroke markers" d=" M 701.40625 199.87545934772623 L 1036.0218171982642 261.9722389288464" stroke-opacity="1" stroke-linejoin="round" stroke-miterlimit="10"/><path fill="rgb(120,144,156)" stroke="none" paint-order="stroke fill markers" d=" M 1028.6405834558661 265.026725537114 L 1037.988243300361 262.33716136579966 L 1030.2279960566127 256.4727719929923 Z" fill-opacity="1"/><path fill="none" stroke="rgb(120,144,156)" paint-order="fill stroke markers" d=" M 816.8757817248386 445.6950380032093 L 843.5244716022058 541.2534714018492" stroke-opacity="1" stroke-linejoin="round" stroke-miterlimit="10"/><path fill="rgb(120,144,156)" stroke="none" paint-order="stroke fill markers" d=" M 837.534578203807 535.9682394224734 L 844.0617182751614 543.1799619967908 L 845.9148122918027 533.6312163951168 Z" fill-opacity="1"/><path fill="none" stroke="rgb(120,144,156)" paint-order="fill stroke markers" d=" M 458.8824823943662 440.875 L 476.12998252371784 538.8408007347174" stroke-opacity="1" stroke-linejoin="round" stroke-miterlimit="10"/><path fill="rgb(120,144,156)" stroke="none" paint-order="stroke fill markers" d=" M 470.6841599061592 532.9965286655811 L 476.47676185494294 540.8105073360758 L 479.25238362206846 531.488038574752 Z" fill-opacity="1"/><path fill="none" stroke="rgb(120,144,156)" paint-order="fill stroke markers" d=" M 719.0486029411069 361.6990947288485 L 639.7927080726514 416.2518535344088" stroke-opacity="1" stroke-linejoin="round" stroke-miterlimit="10"/><path fill="rgb(120,144,156)" stroke="none" paint-order="stroke fill markers" d=" M 642.8453218268681 408.8698450497505 L 638.1452487484903 417.38581904324695 L 647.7780717903141 416.03629310985133 Z" fill-opacity="1"/><path fill="none" stroke="rgb(120,144,156)" paint-order="fill stroke markers" d=" M 230.42614436619718 440.875 L 255.631781753935 539.2046843148014" stroke-opacity="1" stroke-linejoin="round" stroke-miterlimit="10"/><path fill="rgb(120,144,156)" stroke="none" paint-order="stroke fill markers" d=" M 249.75434573263504 533.7946708383371 L 256.12840115358523 541.1420457090413 L 258.1818677975785 531.6343764498587 Z" fill-opacity="1"/><path fill="none" stroke="rgb(120,144,156)" paint-order="fill stroke markers" d=" M 848.7472062269638 364.37676650311926 L 822.193974180932 410.14331279384083" stroke-opacity="1" stroke-linejoin="round" stroke-miterlimit="10"/><path fill="rgb(120,144,156)" stroke="none" paint-order="stroke fill markers" d=" M 821.7937260182711 402.1650735514837 L 821.1902937730362 411.87323349688074 L 829.3188810764947 406.5310833258305 Z" fill-opacity="1"/><path fill="none" stroke="rgb(120,144,156)" paint-order="fill stroke markers" d=" M 942.1983575837743 359.375 L 857.6302670232102 542.3906769001519" stroke-opacity="1" stroke-linejoin="round" stroke-miterlimit="10"/><path fill="rgb(120,144,156)" stroke="none" paint-order="stroke fill markers" d=" M 856.4918698803405 534.4839359821057 L 856.7913385331409 544.2062206172102 L 864.3894850495442 538.133274913907 Z" fill-opacity="1"/><path fill="none" stroke="rgb(120,144,156)" paint-order="fill stroke markers" d=" M 637.0192520547605 439.8363198687406 L 913.2974582571612 673.9928787869819" stroke-opacity="1" stroke-linejoin="round" stroke-miterlimit="10"/><path fill="rgb(120,144,156)" stroke="none" paint-order="stroke fill markers" d=" M 905.3737363546792 672.9794039663142 L 914.8231882090272 675.2859944484674 L 910.998789482141 666.3424786756971 Z" fill-opacity="1"/><path fill="none" stroke="rgb(120,144,156)" paint-order="fill stroke markers" d=" M 761.4140719116662 353.15936316358335 L 1100.6480968430146 423.70140660198047" stroke-opacity="1" stroke-linejoin="round" stroke-miterlimit="10"/><path fill="rgb(120,144,156)" stroke="none" paint-order="stroke fill markers" d=" M 1093.2028037974933 426.5962488198417 L 1102.606209346135 424.1085864456897 L 1094.9740361176284 418.07845943126745 Z" fill-opacity="1"/><path fill="none" stroke="rgb(120,144,156)" paint-order="fill stroke markers" d=" M 902.399174528302 359.375 L 642.8169763035162 422.99514569208617" stroke-opacity="1" stroke-linejoin="round" stroke-miterlimit="10"/><path fill="rgb(120,144,156)" stroke="none" paint-order="stroke fill markers" d=" M 648.2889031324984 417.1753074831438 L 640.8744664202463 423.4712290391997 L 650.3598656924423 425.6252254753678 Z" fill-opacity="1"/><path fill="none" stroke="rgb(120,144,156)" paint-order="fill stroke markers" d=" M 1209.96875 438.875 L 1209.96875 454" stroke-opacity="1" stroke-linejoin="round" stroke-miterlimit="10"/><path fill="rgb(120,144,156)" stroke="none" paint-order="stroke fill markers" d=" M 1205.61875 447.3 L 1209.96875 456 L 1214.31875 447.3 Z" fill-opacity="1"/><path fill="none" stroke="rgb(55,71,79)" paint-order="fill stroke markers" d=" M 1263.3489105504586 277.625 L 1171.8644345879597 335.7696523610051" stroke-opacity="1" stroke-linejoin="round" stroke-miterlimit="10" stroke-width="2"/><path fill="none" stroke="rgb(55,71,79)" paint-order="fill stroke markers" d=" M 1040.4905633262313 134.7390277393602 L 1062.1641773259075 169.27584354372266" stroke-opacity="1" stroke-linejoin="round" stroke-miterlimit="10" stroke-width="2"/><path fill="none" stroke="rgb(120,144,156)" paint-order="fill stroke markers" d=" M 1070.8847538067153 215.91262130880864 L 1065.9277461932847 241.58737869119136" stroke-opacity="1" stroke-linejoin="round" stroke-miterlimit="10"/><path fill="rgb(120,144,156)" stroke="none" paint-order="stroke fill markers" d=" M 1062.9267313619787 234.18424354570877 L 1065.5486092369488 243.55111369580382 L 1071.4689786320428 235.83348930577066 Z" fill-opacity="1"/><path fill="none" stroke="rgb(55,71,79)" paint-order="fill stroke markers" d=" M 548.84375 361.375 L 548.84375 407.375" stroke-opacity="1" stroke-linejoin="round" stroke-miterlimit="10" stroke-width="2"/><path fill="none" stroke="rgb(120,144,156)" paint-order="fill stroke markers" d=" M 833.2143895348837 279.625 L 639.6617000900433 416.06378108406795" stroke-opacity="1" stroke-linejoin="round" stroke-miterlimit="10"/><path fill="rgb(120,144,156)" stroke="none" paint-order="stroke fill markers" d=" M 642.6315885446279 408.6481042729249 L 638.027022032478 417.2160951246467 L 647.6441546211454 415.75895382333346 Z" fill-opacity="1"/><path fill="none" stroke="rgb(120,144,156)" paint-order="fill stroke markers" d=" M 1128.7920920388801 351.8666381911817 L 643.1787069448067 424.82910285450106" stroke-opacity="1" stroke-linejoin="round" stroke-miterlimit="10"/><path fill="rgb(120,144,156)" stroke="none" paint-order="stroke fill markers" d=" M 649.1580146983327 419.5318980454888 L 641.2009062672646 425.1262635516229 L 650.4506637308128 428.135330992797 Z" fill-opacity="1"/><path fill="none" stroke="rgb(120,144,156)" paint-order="fill stroke markers" d=" M 539.430464932956 446.0859874594039 L 490.36290434187754 541.0123308372396" stroke-opacity="1" stroke-linejoin="round" stroke-miterlimit="10"/><path fill="rgb(120,144,156)" stroke="none" paint-order="stroke fill markers" d=" M 489.5751587077697 533.0629939582325 L 489.444535067044 542.7890125405961 L 497.30372411737034 537.0579003037584 Z" fill-opacity="1"/><path fill="none" stroke="rgb(120,144,156)" paint-order="fill stroke markers" d=" M 971.278891509434 359.375 L 1102.0832390940536 419.3328847306797" stroke-opacity="1" stroke-linejoin="round" stroke-miterlimit="10"/><path fill="rgb(120,144,156)" stroke="none" paint-order="stroke fill markers" d=" M 1094.180013509108 420.4954359568466 L 1103.901337719024 420.1662618301256 L 1097.8052038916976 412.58670693822546 Z" fill-opacity="1"/><path fill="none" stroke="rgb(120,144,156)" paint-order="fill stroke markers" d=" M 1143.4192765906182 370.2401300932809 L 1128.2313225486098 408.80116311011665" stroke-opacity="1" stroke-linejoin="round" stroke-miterlimit="10"/><path fill="rgb(120,144,156)" stroke="none" paint-order="stroke fill markers" d=" M 1126.6392759927412 400.97314370774245 L 1127.4983886414284 410.66202524571503 L 1134.7340262825942 404.1614062039817 Z" fill-opacity="1"/><path fill="none" stroke="rgb(120,144,156)" paint-order="fill stroke markers" d=" M 754.359349747532 365.6303936044733 L 797.989716177685 412.8224226003531" stroke-opacity="1" stroke-linejoin="round" stroke-miterlimit="10"/><path fill="rgb(120,144,156)" stroke="none" paint-order="stroke fill markers" d=" M 790.2473021143691 410.85582033447196 L 799.3474267944962 414.290966736904 L 796.6354691083656 404.9497791513431 Z" fill-opacity="1"/><path fill="none" stroke="rgb(120,144,156)" paint-order="fill stroke markers" d=" M 1069.2439498771269 288.66642105134963 L 1113.609001171017 408.64737738073757" stroke-opacity="1" stroke-linejoin="round" stroke-miterlimit="10"/><path fill="rgb(120,144,156)" stroke="none" paint-order="stroke fill markers" d=" M 1107.2053194369691 403.87188156888476 L 1114.302635203113 410.523243002129 L 1115.365334890022 400.85457352926755 Z" fill-opacity="1"/><path fill="none" stroke="rgb(120,144,156)" paint-order="fill stroke markers" d=" M 651.5138449367089 201.875 L 625.4806438215309 407.5372888099063" stroke-opacity="1" stroke-linejoin="round" stroke-miterlimit="10"/><path fill="rgb(120,144,156)" stroke="none" paint-order="stroke fill markers" d=" M 622.0064679643284 400.34405573198984 L 625.2294834486986 409.5214557552813 L 630.6375941767096 401.43660335381026 Z" fill-opacity="1"/><path fill="none" stroke="rgb(120,144,156)" paint-order="fill stroke markers" d=" M 859.1707993510433 576.4738340096357 L 922.0625753800828 672.4521530800394" stroke-opacity="1" stroke-linejoin="round" stroke-miterlimit="10"/><path fill="rgb(120,144,156)" stroke="none" paint-order="stroke fill markers" d=" M 914.7519722128446 669.2322802050383 L 923.1587428774928 674.125 L 922.0288563146732 664.4639515913044 Z" fill-opacity="1"/><path fill="none" stroke="rgb(120,144,156)" paint-order="fill stroke markers" d=" M 1039.2940367637098 275.40124651063945 L 877.0480211210191 340.71912538433577" stroke-opacity="1" stroke-linejoin="round" stroke-miterlimit="10"/><path fill="rgb(120,144,156)" stroke="none" paint-order="stroke fill markers" d=" M 881.6387192640772 334.1816954184146 L 875.1927263775051 341.46603998098595 L 884.8877977595054 342.25222755270084 Z" fill-opacity="1"/><path fill="none" stroke="rgb(120,144,156)" paint-order="fill stroke markers" d=" M 852.6700114678899 279.625 L 856.4374648155712 327.93704881144157" stroke-opacity="1" stroke-linejoin="round" stroke-miterlimit="10"/><path fill="rgb(120,144,156)" stroke="none" paint-order="stroke fill markers" d=" M 851.5797356250393 321.5955216206574 L 856.5929560530764 329.9309952688619 L 860.2534027148178 320.9191347375096 Z" fill-opacity="1"/><path fill="none" stroke="rgb(55,71,79)" paint-order="fill stroke markers" d=" M 1113.685586734694 130.375 L 1089.2733226740925 169.27584354372266" stroke-opacity="1" stroke-linejoin="round" stroke-miterlimit="10" stroke-width="2"/><path fill="none" stroke="rgb(120,144,156)" paint-order="fill stroke markers" d=" M 971.46875 627.9847328244275 L 946.6150672395993 672.3798608086548" stroke-opacity="1" stroke-linejoin="round" stroke-miterlimit="10"/><path fill="rgb(120,144,156)" stroke="none" paint-order="stroke fill markers" d=" M 946.092271268175 664.4087138163919 L 945.6380876068376 674.125 L 953.6836267505265 668.658575218905 Z" fill-opacity="1"/><path fill="none" stroke="rgb(120,144,156)" paint-order="fill stroke markers" d=" M 1010.53125 357.2159286328461 L 643.0739163359171 424.19869280892993" stroke-opacity="1" stroke-linejoin="round" stroke-miterlimit="10"/><path fill="rgb(120,144,156)" stroke="none" paint-order="stroke fill markers" d=" M 648.8852055149167 418.71768760203196 L 641.106339132413 424.5573569251319 L 650.4453944203951 427.27664843727484 Z" fill-opacity="1"/><path fill="none" stroke="rgb(120,144,156)" paint-order="fill stroke markers" d=" M 1110.1053756833776 443.02776494951536 L 949.386503007815 672.4868632487011" stroke-opacity="1" stroke-linejoin="round" stroke-miterlimit="10"/><path fill="rgb(120,144,156)" stroke="none" paint-order="stroke fill markers" d=" M 949.667318164084 664.5035279276708 L 948.2391111898017 674.125 L 956.7932130322345 669.4946823360283 Z" fill-opacity="1"/><path fill="none" stroke="rgb(120,144,156)" paint-order="fill stroke markers" d=" M 333.9705105633803 440.875 L 272.87453056629323 541.7544088323996" stroke-opacity="1" stroke-linejoin="round" stroke-miterlimit="10"/><path fill="rgb(120,144,156)" stroke="none" paint-order="stroke fill markers" d=" M 272.6245487091867 533.7700485530086 L 271.8384611826227 543.4651280472974 L 280.0661772939922 538.2769503719752 Z" fill-opacity="1"/><path fill="none" stroke="rgb(120,144,156)" paint-order="fill stroke markers" d=" M 1134.96875 596.938566552901 L 962.7753942701788 679.4503315510815" stroke-opacity="1" stroke-linejoin="round" stroke-miterlimit="10"/><path fill="rgb(120,144,156)" stroke="none" paint-order="stroke fill markers" d=" M 966.9377600244659 672.6321784780318 L 960.9717722079969 680.3145927713216 L 970.6972963325102 680.477934448523 Z" fill-opacity="1"/><path fill="rgb(69,90,100)" stroke="rgb(158,158,158)" paint-order="fill stroke markers" d=" M 605.40625 180.875 L 605.40625 200.875 L 700.40625 200.875 L 700.40625 180.875 Z" fill-opacity="1" stroke-opacity="1" stroke-miterlimit="10" stroke-width="2"/><text fill="rgb(255,255,255)" stroke="none" font-family="times new roman" font-size="10px" font-style="normal" font-weight="normal" text-decoration="normal" x="652.90625" y="195.875" text-anchor="middle" dominant-baseline="text-after-edge" fill-opacity="1">42130692G&gt;A</text><path fill="rgb(69,90,100)" stroke="rgb(244,67,54)" paint-order="fill stroke markers" d=" M 760.90625 348.375 L 760.8368900089954 350.1403296538765 L 760.6292376633907 351.8947754634052 L 760.2845732089477 353.62752068675786 L 759.8050216166409 355.3278823734363 L 759.193539481504 356.98537722821453 L 758.4538967942383 358.5897862441398 L 757.5906536979671 360.1312177061088 L 756.6091323734363 361.60016817658067 L 755.5153842260007 362.98758108742913 L 754.3161525766973 364.28490257669733 L 753.0188310874291 365.4841342260007 L 751.6314181765806 366.5778823734363 L 750.1624677061088 367.55940369796707 L 748.6210362441398 368.4226467942383 L 747.0166272282145 369.16228948150393 L 745.3591323734363 369.77377161664094 L 743.6587706867579 370.25332320894773 L 741.9260254634052 370.5979876633906 L 740.1715796538765 370.8056400089954 L 738.40625 370.875 L 736.6409203461235 370.8056400089954 L 734.8864745365948 370.5979876633906 L 733.1537293132421 370.25332320894773 L 731.4533676265637 369.77377161664094 L 729.7958727717855 369.16228948150393 L 728.1914637558602 368.4226467942383 L 726.6500322938912 367.55940369796707 L 725.1810818234194 366.5778823734363 L 723.7936689125709 365.4841342260007 L 722.4963474233027 364.28490257669733 L 721.2971157739993 362.98758108742913 L 720.2033676265637 361.60016817658067 L 719.2218463020329 360.1312177061088 L 718.3586032057617 358.5897862441398 L 717.618960518496 356.98537722821453 L 717.0074783833591 355.3278823734363 L 716.5279267910523 353.62752068675786 L 716.1832623366095 351.8947754634052 L 715.9756099910046 350.1403296538765 L 715.90625 348.375 L 715.9756099910046 346.6096703461235 L 716.1832623366093 344.8552245365948 L 716.5279267910523 343.12247931324214 L 717.0074783833591 341.4221176265637 L 717.618960518496 339.76462277178547 L 718.3586032057617 338.1602137558602 L 719.2218463020329 336.6187822938912 L 720.2033676265637 335.14983182341933 L 721.2971157739993 333.76241891257087 L 722.4963474233027 332.46509742330267 L 723.7936689125709 331.26586577399934 L 725.1810818234194 330.1721176265637 L 726.6500322938912 329.19059630203293 L 728.1914637558602 328.3273532057617 L 729.7958727717855 327.587710518496 L 731.4533676265637 326.97622838335906 L 733.1537293132421 326.49667679105227 L 734.8864745365948 326.1520123366094 L 736.6409203461236 325.9443599910046 L 738.4062500000001 325.875 L 740.1715796538766 325.9443599910046 L 741.9260254634053 326.1520123366094 L 743.658770686758 326.4966767910523 L 745.3591323734364 326.97622838335906 L 747.0166272282146 327.5877105184961 L 748.6210362441399 328.32735320576177 L 750.1624677061089 329.190596302033 L 751.6314181765807 330.17211762656376 L 753.0188310874292 331.2658657739994 L 754.3161525766974 332.4650974233028 L 755.5153842260008 333.762418912571 L 756.6091323734364 335.1498318234195 L 757.5906536979671 336.61878229389134 L 758.4538967942384 338.1602137558604 L 759.193539481504 339.7646227717857 L 759.805021616641 341.42211762656393 L 760.2845732089478 343.12247931324237 L 760.6292376633907 344.8552245365951 L 760.8368900089954 346.6096703461238 Z" fill-opacity="1" stroke-opacity="1" stroke-miterlimit="10" stroke-width="2"/><text fill="rgb(255,255,255)" stroke="none" font-family="times new roman" font-size="15px" font-style="normal" font-weight="normal" text-decoration="normal" x="738.40625" y="355.875" text-anchor="middle" dominant-baseline="text-after-edge" fill-opacity="1">*4</text><path fill="rgb(3,169,244)" stroke="none" paint-order="stroke fill markers" d=" M 738.40625 315.875 L 762.90625 315.875 L 762.90625 315.875 A 8 8 0 0 1 770.90625 323.875 L 770.90625 372.875 L 770.90625 372.875 A 8 8 0 0 1 762.90625 380.875 L 713.90625 380.875 L 713.90625 380.875 A 8 8 0 0 1 705.90625 372.875 L 705.90625 323.875 L 705.90625 323.875 A 8 8 0 0 1 713.90625 315.875 L 738.40625 315.875 Z" fill-opacity="0.15"/><path fill="rgb(69,90,100)" stroke="rgb(76,175,80)" paint-order="fill stroke markers" d=" M 1098.21875 190.875 L 1098.1493900089954 192.6403296538765 L 1097.9417376633905 194.39477546340518 L 1097.5970732089477 196.12752068675786 L 1097.117521616641 197.82788237343632 L 1096.5060394815039 199.48537722821453 L 1095.7663967942383 201.08978624413982 L 1094.9031536979671 202.63121770610886 L 1093.9216323734363 204.10016817658064 L 1092.8278842260006 205.48758108742913 L 1091.6286525766973 206.7849025766973 L 1090.3313310874291 207.9841342260007 L 1088.9439181765806 209.07788237343632 L 1087.4749677061088 210.05940369796707 L 1085.9335362441398 210.9226467942383 L 1084.3291272282145 211.66228948150396 L 1082.6716323734363 212.27377161664094 L 1080.9712706867579 212.75332320894773 L 1079.2385254634053 213.0979876633906 L 1077.4840796538765 213.30564000899537 L 1075.71875 213.375 L 1073.9534203461235 213.30564000899537 L 1072.1989745365947 213.0979876633906 L 1070.4662293132421 212.75332320894773 L 1068.7658676265637 212.27377161664094 L 1067.1083727717855 211.66228948150396 L 1065.5039637558602 210.9226467942383 L 1063.9625322938912 210.05940369796707 L 1062.4935818234194 209.07788237343632 L 1061.1061689125709 207.9841342260007 L 1059.8088474233027 206.78490257669733 L 1058.6096157739994 205.48758108742913 L 1057.5158676265637 204.10016817658064 L 1056.5343463020329 202.63121770610886 L 1055.6711032057617 201.08978624413982 L 1054.9314605184961 199.48537722821453 L 1054.319978383359 197.82788237343632 L 1053.8404267910523 196.12752068675786 L 1053.4957623366095 194.3947754634052 L 1053.2881099910046 192.6403296538765 L 1053.21875 190.875 L 1053.2881099910046 189.1096703461235 L 1053.4957623366095 187.35522453659482 L 1053.8404267910523 185.62247931324214 L 1054.319978383359 183.92211762656368 L 1054.9314605184961 182.26462277178547 L 1055.6711032057617 180.6602137558602 L 1056.5343463020329 179.11878229389114 L 1057.5158676265637 177.64983182341936 L 1058.6096157739994 176.26241891257087 L 1059.8088474233027 174.9650974233027 L 1061.1061689125709 173.7658657739993 L 1062.4935818234194 172.67211762656368 L 1063.9625322938912 171.69059630203293 L 1065.5039637558602 170.8273532057617 L 1067.1083727717855 170.08771051849604 L 1068.7658676265637 169.47622838335903 L 1070.4662293132421 168.99667679105227 L 1072.198974536595 168.6520123366094 L 1073.9534203461235 168.4443599910046 L 1075.71875 168.375 L 1077.4840796538765 168.44435999100463 L 1079.2385254634053 168.6520123366094 L 1080.9712706867579 168.9966767910523 L 1082.6716323734365 169.47622838335909 L 1084.3291272282147 170.0877105184961 L 1085.93353624414 170.8273532057618 L 1087.474967706109 171.690596302033 L 1088.9439181765808 172.67211762656376 L 1090.3313310874294 173.76586577399942 L 1091.6286525766975 174.9650974233028 L 1092.8278842260008 176.262418912571 L 1093.9216323734365 177.6498318234195 L 1094.9031536979671 179.11878229389131 L 1095.7663967942383 180.66021375586038 L 1096.506039481504 182.2646227717857 L 1097.117521616641 183.9221176265639 L 1097.5970732089477 185.62247931324237 L 1097.9417376633905 187.35522453659505 L 1098.1493900089954 189.10967034612375 Z" fill-opacity="1" stroke-opacity="1" stroke-miterlimit="10" stroke-width="6"/><text fill="rgb(255,255,255)" stroke="none" font-family="times new roman" font-size="15px" font-style="normal" font-weight="normal" text-decoration="normal" x="1075.71875" y="198.375" text-anchor="middle" dominant-baseline="text-after-edge" fill-opacity="1">*39</text><path fill="rgb(69,90,100)" stroke="rgb(76,175,80)" paint-order="fill stroke markers" d=" M 409.09375 417.875 L 409.09375 437.875 L 504.09375 437.875 L 504.09375 417.875 Z" fill-opacity="1" stroke-opacity="1" stroke-miterlimit="10" stroke-width="6"/><text fill="rgb(255,255,255)" stroke="none" font-family="times new roman" font-size="10px" font-style="normal" font-weight="normal" text-decoration="normal" x="456.59375" y="432.875" text-anchor="middle" dominant-baseline="text-after-edge" fill-opacity="1">42130047G&gt;C</text><path fill="rgb(69,90,100)" stroke="rgb(158,158,158)" paint-order="fill stroke markers" d=" M 1011.53125 338.375 L 1011.53125 358.375 L 1106.53125 358.375 L 1106.53125 338.375 Z" fill-opacity="1" stroke-opacity="1" stroke-miterlimit="10" stroke-width="2"/><text fill="rgb(255,255,255)" stroke="none" font-family="times new roman" font-size="10px" font-style="normal" font-weight="normal" text-decoration="normal" x="1059.03125" y="353.375" text-anchor="middle" dominant-baseline="text-after-edge" fill-opacity="1">42129809T&gt;C</text><path fill="rgb(69,90,100)" stroke="rgb(76,175,80)" paint-order="fill stroke markers" d=" M 1209.96875 417.875 L 1252.46875 417.875 L 1252.46875 417.875 A 5 5 0 0 1 1257.46875 422.875 L 1257.46875 432.875 L 1257.46875 432.875 A 5 5 0 0 1 1252.46875 437.875 L 1167.46875 437.875 L 1167.46875 437.875 A 5 5 0 0 1 1162.46875 432.875 L 1162.46875 422.875 L 1162.46875 422.875 A 5 5 0 0 1 1167.46875 417.875 L 1209.96875 417.875 Z" fill-opacity="1" stroke-opacity="1" stroke-miterlimit="10" stroke-width="2"/><text fill="rgb(255,255,255)" stroke="none" font-family="times new roman" font-size="10px" font-style="normal" font-weight="normal" text-decoration="normal" x="1209.96875" y="432.875" text-anchor="middle" dominant-baseline="text-after-edge" fill-opacity="1">42132049dup</text><path fill="rgb(69,90,100)" stroke="rgb(76,175,80)" paint-order="fill stroke markers" d=" M 899.78125 338.375 L 899.78125 358.375 L 994.78125 358.375 L 994.78125 338.375 Z" fill-opacity="1" stroke-opacity="1" stroke-miterlimit="10" stroke-width="2"/><text fill="rgb(255,255,255)" stroke="none" font-family="times new roman" font-size="10px" font-style="normal" font-weight="normal" text-decoration="normal" x="947.28125" y="353.375" text-anchor="middle" dominant-baseline="text-after-edge" fill-opacity="1">42129796G&gt;C</text><path fill="rgb(69,90,100)" stroke="rgb(76,175,80)" paint-order="fill stroke markers" d=" M 294.34375 417.875 L 294.34375 437.875 L 389.34375 437.875 L 389.34375 417.875 Z" fill-opacity="1" stroke-opacity="1" stroke-miterlimit="10" stroke-width="6"/><text fill="rgb(255,255,255)" stroke="none" font-family="times new roman" font-size="10px" font-style="normal" font-weight="normal" text-decoration="normal" x="341.84375" y="432.875" text-anchor="middle" dominant-baseline="text-after-edge" fill-opacity="1">42129950A&gt;C</text><path fill="rgb(69,90,100)" stroke="rgb(244,67,54)" paint-order="fill stroke markers" d=" M 690.90625 256.625 L 690.90625 276.625 L 785.90625 276.625 L 785.90625 256.625 Z" fill-opacity="1" stroke-opacity="1" stroke-miterlimit="10" stroke-width="2"/><text fill="rgb(255,255,255)" stroke="none" font-family="times new roman" font-size="10px" font-style="normal" font-weight="normal" text-decoration="normal" x="738.40625" y="271.625" text-anchor="middle" dominant-baseline="text-after-edge" fill-opacity="1">42128945C&gt;T</text><path fill="rgb(69,90,100)" stroke="rgb(255,193,7)" paint-order="fill stroke markers" d=" M 875.53125 348.375 L 875.4773033403297 349.7480341752373 L 875.3157959604149 351.11260313820407 L 875.0477236069594 352.46029386747836 L 874.6747390351652 353.7827974015616 L 874.1991418189475 355.07196006638907 L 873.6238641732964 356.31983374544205 L 872.9524528761966 357.5187248825291 L 872.1890474015615 358.6612419151183 L 871.3383543980005 359.74034084577823 L 870.4056186707646 360.74936867076457 L 869.3965908457782 361.68210439800055 L 868.3174919151182 362.5327974015616 L 867.1749748825291 363.2962028761966 L 865.9760837454421 363.96761417329645 L 864.7282100663891 364.5428918189475 L 863.4390474015615 365.0184890351652 L 862.1165438674783 365.3914736069593 L 860.768853138204 365.6595459604149 L 859.4042841752373 365.82105334032974 L 858.03125 365.875 L 856.6582158247627 365.82105334032974 L 855.293646861796 365.6595459604149 L 853.9459561325217 365.3914736069593 L 852.6234525984385 365.0184890351652 L 851.3342899336109 364.5428918189475 L 850.0864162545579 363.96761417329645 L 848.8875251174709 363.2962028761966 L 847.7450080848818 362.5327974015616 L 846.6659091542218 361.68210439800055 L 845.6568813292354 360.74936867076457 L 844.7241456019995 359.74034084577823 L 843.8734525984385 358.6612419151183 L 843.1100471238034 357.5187248825291 L 842.4386358267036 356.31983374544205 L 841.8633581810525 355.07196006638907 L 841.3877609648348 353.7827974015616 L 841.0147763930406 352.46029386747836 L 840.7467040395851 351.11260313820407 L 840.5851966596703 349.7480341752373 L 840.53125 348.375 L 840.5851966596703 347.0019658247627 L 840.7467040395851 345.63739686179593 L 841.0147763930406 344.28970613252164 L 841.3877609648348 342.9672025984384 L 841.8633581810525 341.67803993361093 L 842.4386358267036 340.43016625455795 L 843.1100471238034 339.2312751174709 L 843.8734525984385 338.0887580848817 L 844.7241456019995 337.00965915422177 L 845.6568813292354 336.00063132923543 L 846.6659091542218 335.06789560199945 L 847.7450080848818 334.2172025984384 L 848.8875251174709 333.4537971238034 L 850.0864162545579 332.78238582670355 L 851.334289933611 332.2071081810525 L 852.6234525984385 331.7315109648348 L 853.9459561325217 331.3585263930407 L 855.293646861796 331.0904540395851 L 856.6582158247628 330.92894665967026 L 858.0312500000001 330.875 L 859.4042841752373 330.92894665967026 L 860.7688531382041 331.0904540395851 L 862.1165438674784 331.3585263930407 L 863.4390474015617 331.73151096483485 L 864.7282100663891 332.2071081810525 L 865.9760837454421 332.7823858267036 L 867.1749748825292 333.45379712380344 L 868.3174919151184 334.2172025984385 L 869.3965908457783 335.06789560199957 L 870.4056186707646 336.0006313292355 L 871.3383543980007 337.0096591542219 L 872.1890474015617 338.0887580848818 L 872.9524528761967 339.23127511747106 L 873.6238641732965 340.43016625455806 L 874.1991418189476 341.6780399336111 L 874.6747390351652 342.9672025984386 L 875.0477236069594 344.2897061325218 L 875.3157959604149 345.63739686179616 L 875.4773033403297 347.0019658247629 Z" fill-opacity="1" stroke-opacity="1" stroke-miterlimit="10" stroke-width="2"/><text fill="rgb(255,255,255)" stroke="none" font-family="times new roman" font-size="10px" font-style="normal" font-weight="normal" text-decoration="normal" x="858.03125" y="353.375" text-anchor="middle" dominant-baseline="text-after-edge" fill-opacity="1">*10.1</text><path fill="rgb(69,90,100)" stroke="rgb(76,175,80)" paint-order="fill stroke markers" d=" M 804.15625 256.625 L 804.15625 276.625 L 899.15625 276.625 L 899.15625 256.625 Z" fill-opacity="1" stroke-opacity="1" stroke-miterlimit="10" stroke-width="6"/><text fill="rgb(255,255,255)" stroke="none" font-family="times new roman" font-size="10px" font-style="normal" font-weight="normal" text-decoration="normal" x="851.65625" y="271.625" text-anchor="middle" dominant-baseline="text-after-edge" fill-opacity="1">42129130C&gt;G</text><path fill="rgb(69,90,100)" stroke="rgb(76,175,80)" paint-order="fill stroke markers" d=" M 501.34375 338.375 L 501.34375 358.375 L 596.34375 358.375 L 596.34375 338.375 Z" fill-opacity="1" stroke-opacity="1" stroke-miterlimit="10" stroke-width="6"/><text fill="rgb(255,255,255)" stroke="none" font-family="times new roman" font-size="10px" font-style="normal" font-weight="normal" text-decoration="normal" x="548.84375" y="353.375" text-anchor="middle" dominant-baseline="text-after-edge" fill-opacity="1">42127407T&gt;G</text><path fill="rgb(69,90,100)" stroke="rgb(76,175,80)" paint-order="fill stroke markers" d=" M 1047.09375 117.375 L 1047.0398033403299 118.74803417523728 L 1046.878295960415 120.11260313820404 L 1046.6102236069594 121.46029386747834 L 1046.2372390351652 122.78279740156158 L 1045.7616418189475 124.07196006638907 L 1045.1863641732964 125.31983374544207 L 1044.5149528761965 126.5187248825291 L 1043.7515474015615 127.66124191511828 L 1042.9008543980005 128.7403408457782 L 1041.9681186707646 129.74936867076457 L 1040.9590908457783 130.68210439800055 L 1039.8799919151184 131.5327974015616 L 1038.737474882529 132.29620287619662 L 1037.538583745442 132.96761417329643 L 1036.290710066389 133.5428918189475 L 1035.0015474015615 134.01848903516517 L 1033.6790438674784 134.39147360695935 L 1032.3313531382041 134.6595459604149 L 1030.9667841752373 134.82105334032974 L 1029.59375 134.875 L 1028.2207158247627 134.82105334032974 L 1026.8561468617959 134.6595459604149 L 1025.5084561325216 134.39147360695935 L 1024.1859525984385 134.0184890351652 L 1022.8967899336109 133.5428918189475 L 1021.6489162545579 132.96761417329643 L 1020.4500251174709 132.29620287619662 L 1019.3075080848818 131.5327974015616 L 1018.2284091542218 130.68210439800055 L 1017.2193813292354 129.74936867076457 L 1016.2866456019995 128.7403408457782 L 1015.4359525984385 127.66124191511828 L 1014.6725471238034 126.51872488252911 L 1014.0011358267036 125.31983374544207 L 1013.4258581810525 124.07196006638907 L 1012.9502609648348 122.78279740156158 L 1012.5772763930406 121.46029386747834 L 1012.3092040395851 120.11260313820404 L 1012.1476966596703 118.7480341752373 L 1012.09375 117.375 L 1012.1476966596703 116.00196582476272 L 1012.3092040395851 114.63739686179596 L 1012.5772763930406 113.28970613252166 L 1012.9502609648348 111.96720259843842 L 1013.4258581810525 110.67803993361093 L 1014.0011358267036 109.43016625455793 L 1014.6725471238034 108.2312751174709 L 1015.4359525984385 107.08875808488172 L 1016.2866456019995 106.0096591542218 L 1017.2193813292354 105.00063132923542 L 1018.2284091542218 104.06789560199947 L 1019.3075080848818 103.21720259843842 L 1020.4500251174709 102.45379712380338 L 1021.6489162545579 101.78238582670356 L 1022.896789933611 101.20710818105248 L 1024.1859525984385 100.7315109648348 L 1025.5084561325216 100.35852639304065 L 1026.856146861796 100.09045403958508 L 1028.2207158247627 99.92894665967026 L 1029.59375 99.875 L 1030.9667841752373 99.92894665967026 L 1032.3313531382041 100.0904540395851 L 1033.6790438674784 100.35852639304068 L 1035.0015474015618 100.73151096483484 L 1036.2907100663892 101.20710818105252 L 1037.538583745442 101.7823858267036 L 1038.737474882529 102.45379712380344 L 1039.8799919151184 103.21720259843849 L 1040.9590908457783 104.06789560199954 L 1041.9681186707646 105.00063132923552 L 1042.9008543980005 106.0096591542219 L 1043.7515474015618 107.08875808488185 L 1044.5149528761967 108.23127511747103 L 1045.1863641732966 109.43016625455807 L 1045.7616418189475 110.67803993361109 L 1046.2372390351652 111.96720259843859 L 1046.6102236069594 113.28970613252184 L 1046.878295960415 114.63739686179616 L 1047.0398033403299 116.00196582476292 Z" fill-opacity="1" stroke-opacity="1" stroke-miterlimit="10" stroke-width="6"/><text fill="rgb(255,255,255)" stroke="none" font-family="times new roman" font-size="10px" font-style="normal" font-weight="normal" text-decoration="normal" x="1029.59375" y="122.375" text-anchor="middle" dominant-baseline="text-after-edge" fill-opacity="1">*39.2</text><path fill="rgb(69,90,100)" stroke="rgb(158,158,158)" paint-order="fill stroke markers" d=" M 1174.53125 348.375 L 1174.4618900089954 350.1403296538765 L 1174.2542376633905 351.8947754634052 L 1173.9095732089477 353.62752068675786 L 1173.430021616641 355.3278823734363 L 1172.8185394815039 356.98537722821453 L 1172.0788967942383 358.5897862441398 L 1171.2156536979671 360.1312177061088 L 1170.2341323734363 361.60016817658067 L 1169.1403842260006 362.98758108742913 L 1167.9411525766973 364.28490257669733 L 1166.6438310874291 365.4841342260007 L 1165.2564181765806 366.5778823734363 L 1163.7874677061088 367.55940369796707 L 1162.2460362441398 368.4226467942383 L 1160.6416272282145 369.16228948150393 L 1158.9841323734363 369.77377161664094 L 1157.2837706867579 370.25332320894773 L 1155.5510254634053 370.5979876633906 L 1153.7965796538765 370.8056400089954 L 1152.03125 370.875 L 1150.2659203461235 370.8056400089954 L 1148.5114745365947 370.5979876633906 L 1146.7787293132421 370.25332320894773 L 1145.0783676265637 369.77377161664094 L 1143.4208727717855 369.16228948150393 L 1141.8164637558602 368.4226467942383 L 1140.2750322938912 367.55940369796707 L 1138.8060818234194 366.5778823734363 L 1137.4186689125709 365.4841342260007 L 1136.1213474233027 364.28490257669733 L 1134.9221157739994 362.98758108742913 L 1133.8283676265637 361.60016817658067 L 1132.8468463020329 360.1312177061088 L 1131.9836032057617 358.5897862441398 L 1131.2439605184961 356.98537722821453 L 1130.632478383359 355.3278823734363 L 1130.1529267910523 353.62752068675786 L 1129.8082623366095 351.8947754634052 L 1129.6006099910046 350.1403296538765 L 1129.53125 348.375 L 1129.6006099910046 346.6096703461235 L 1129.8082623366095 344.8552245365948 L 1130.1529267910523 343.12247931324214 L 1130.632478383359 341.4221176265637 L 1131.2439605184961 339.76462277178547 L 1131.9836032057617 338.1602137558602 L 1132.8468463020329 336.6187822938912 L 1133.8283676265637 335.14983182341933 L 1134.9221157739994 333.76241891257087 L 1136.1213474233027 332.46509742330267 L 1137.4186689125709 331.26586577399934 L 1138.8060818234194 330.1721176265637 L 1140.2750322938912 329.19059630203293 L 1141.8164637558602 328.3273532057617 L 1143.4208727717855 327.587710518496 L 1145.0783676265637 326.97622838335906 L 1146.7787293132421 326.49667679105227 L 1148.511474536595 326.1520123366094 L 1150.2659203461235 325.9443599910046 L 1152.03125 325.875 L 1153.7965796538765 325.9443599910046 L 1155.5510254634053 326.1520123366094 L 1157.2837706867579 326.4966767910523 L 1158.9841323734365 326.97622838335906 L 1160.6416272282147 327.5877105184961 L 1162.24603624414 328.32735320576177 L 1163.787467706109 329.190596302033 L 1165.2564181765808 330.17211762656376 L 1166.6438310874294 331.2658657739994 L 1167.9411525766975 332.4650974233028 L 1169.1403842260008 333.762418912571 L 1170.2341323734365 335.1498318234195 L 1171.2156536979671 336.61878229389134 L 1172.0788967942383 338.1602137558604 L 1172.818539481504 339.7646227717857 L 1173.430021616641 341.42211762656393 L 1173.9095732089477 343.12247931324237 L 1174.2542376633905 344.8552245365951 L 1174.4618900089954 346.6096703461238 Z" fill-opacity="1" stroke-opacity="1" stroke-miterlimit="10" stroke-width="2"/><text fill="rgb(255,255,255)" stroke="none" font-family="times new roman" font-size="15px" font-style="normal" font-weight="normal" text-decoration="normal" x="1152.03125" y="355.875" text-anchor="middle" dominant-baseline="text-after-edge" fill-opacity="1">*74</text><path fill="rgb(69,90,100)" stroke="rgb(158,158,158)" paint-order="fill stroke markers" d=" M 1074.34375 107.375 L 1074.34375 127.375 L 1169.34375 127.375 L 1169.34375 107.375 Z" fill-opacity="1" stroke-opacity="1" stroke-miterlimit="10" stroke-width="6"/><text fill="rgb(255,255,255)" stroke="none" font-family="times new roman" font-size="10px" font-style="normal" font-weight="normal" text-decoration="normal" x="1121.84375" y="122.375" text-anchor="middle" dominant-baseline="text-after-edge" fill-opacity="1">42126611C&gt;G</text><path fill="rgb(69,90,100)" stroke="rgb(158,158,158)" paint-order="fill stroke markers" d=" M 1233.15625 256.625 L 1233.15625 276.625 L 1328.15625 276.625 L 1328.15625 256.625 Z" fill-opacity="1" stroke-opacity="1" stroke-miterlimit="10" stroke-width="2"/><text fill="rgb(255,255,255)" stroke="none" font-family="times new roman" font-size="10px" font-style="normal" font-weight="normal" text-decoration="normal" x="1280.65625" y="271.625" text-anchor="middle" dominant-baseline="text-after-edge" fill-opacity="1">42129819G&gt;T</text><path fill="rgb(69,90,100)" stroke="rgb(69,90,100)" paint-order="fill stroke markers" d=" M 916.53125 675.125 L 897.78125 692.625 L 916.53125 710.125 L 954.03125 710.125 L 972.78125 692.625 L 954.03125 675.125 Z" fill-opacity="1" stroke-opacity="1" stroke-miterlimit="10" stroke-width="2"/><text fill="rgb(255,255,255)" stroke="none" font-family="times new roman" font-size="10px" font-style="normal" font-weight="normal" text-decoration="normal" x="935.28125" y="697.625" text-anchor="middle" dominant-baseline="text-after-edge" fill-opacity="1">NA20509-A</text><path fill="rgb(69,90,100)" stroke="rgb(76,175,80)" paint-order="fill stroke markers" d=" M 497.53125 561 L 497.47730334032974 562.3730341752373 L 497.3157959604149 563.737603138204 L 497.0477236069593 565.0852938674783 L 496.6747390351652 566.4077974015615 L 496.1991418189475 567.6969600663891 L 495.62386417329645 568.9448337454421 L 494.9524528761966 570.1437248825291 L 494.1890474015616 571.2862419151182 L 493.33835439800055 572.3653408457782 L 492.40561867076457 573.3743686707646 L 491.39659084577823 574.3071043980005 L 490.3174919151183 575.1577974015615 L 489.1749748825291 575.9212028761966 L 487.97608374544205 576.5926141732964 L 486.72821006638907 577.1678918189475 L 485.4390474015616 577.6434890351652 L 484.11654386747836 578.0164736069594 L 482.76885313820407 578.2845459604149 L 481.4042841752373 578.4460533403297 L 480.03125 578.5 L 478.6582158247627 578.4460533403297 L 477.29364686179593 578.2845459604149 L 475.94595613252164 578.0164736069594 L 474.6234525984384 577.6434890351652 L 473.33428993361093 577.1678918189475 L 472.08641625455795 576.5926141732964 L 470.8875251174709 575.9212028761966 L 469.7450080848817 575.1577974015615 L 468.66590915422177 574.3071043980005 L 467.65688132923543 573.3743686707646 L 466.72414560199945 572.3653408457782 L 465.8734525984384 571.2862419151182 L 465.1100471238034 570.1437248825291 L 464.43863582670355 568.9448337454421 L 463.8633581810525 567.6969600663891 L 463.3877609648348 566.4077974015615 L 463.0147763930407 565.0852938674783 L 462.7467040395851 563.737603138204 L 462.58519665967026 562.3730341752373 L 462.53125 561 L 462.58519665967026 559.6269658247627 L 462.7467040395851 558.262396861796 L 463.0147763930407 556.9147061325217 L 463.3877609648348 555.5922025984385 L 463.8633581810525 554.3030399336109 L 464.43863582670355 553.0551662545579 L 465.1100471238034 551.8562751174709 L 465.8734525984384 550.7137580848818 L 466.72414560199945 549.6346591542218 L 467.65688132923543 548.6256313292354 L 468.66590915422177 547.6928956019995 L 469.7450080848817 546.8422025984385 L 470.8875251174709 546.0787971238034 L 472.08641625455795 545.4073858267036 L 473.33428993361093 544.8321081810525 L 474.62345259843846 544.3565109648348 L 475.9459561325217 543.9835263930406 L 477.293646861796 543.7154540395851 L 478.65821582476275 543.5539466596703 L 480.03125000000006 543.5 L 481.40428417523736 543.5539466596703 L 482.7688531382041 543.7154540395851 L 484.1165438674784 543.9835263930406 L 485.43904740156165 544.3565109648348 L 486.7282100663892 544.8321081810525 L 487.97608374544217 545.4073858267036 L 489.1749748825292 546.0787971238035 L 490.31749191511835 546.8422025984385 L 491.3965908457783 547.6928956019996 L 492.4056186707647 548.6256313292355 L 493.33835439800066 549.6346591542219 L 494.18904740156165 550.7137580848819 L 494.9524528761967 551.856275117471 L 495.6238641732965 553.0551662545581 L 496.19914181894757 554.3030399336111 L 496.67473903516526 555.5922025984386 L 497.0477236069594 556.9147061325218 L 497.31579596041496 558.2623968617961 L 497.47730334032974 559.6269658247629 Z" fill-opacity="1" stroke-opacity="1" stroke-miterlimit="10" stroke-width="6"/><text fill="rgb(255,255,255)" stroke="none" font-family="times new roman" font-size="10px" font-style="normal" font-weight="normal" text-decoration="normal" x="480.03125" y="566" text-anchor="middle" dominant-baseline="text-after-edge" fill-opacity="1">*1.54</text><path fill="rgb(69,90,100)" stroke="rgb(244,67,54)" paint-order="fill stroke markers" d=" M 640.40625 427.875 L 640.3523033403297 429.2480341752373 L 640.1907959604149 430.61260313820407 L 639.9227236069594 431.96029386747836 L 639.5497390351652 433.2827974015616 L 639.0741418189475 434.57196006638907 L 638.4988641732964 435.81983374544205 L 637.8274528761966 437.0187248825291 L 637.0640474015615 438.1612419151183 L 636.2133543980005 439.24034084577823 L 635.2806186707646 440.24936867076457 L 634.2715908457782 441.18210439800055 L 633.1924919151182 442.0327974015616 L 632.0499748825291 442.7962028761966 L 630.8510837454421 443.46761417329645 L 629.6032100663891 444.0428918189475 L 628.3140474015615 444.5184890351652 L 626.9915438674783 444.8914736069593 L 625.643853138204 445.1595459604149 L 624.2792841752373 445.32105334032974 L 622.90625 445.375 L 621.5332158247627 445.32105334032974 L 620.168646861796 445.1595459604149 L 618.8209561325217 444.8914736069593 L 617.4984525984385 444.5184890351652 L 616.2092899336109 444.0428918189475 L 614.9614162545579 443.46761417329645 L 613.7625251174709 442.7962028761966 L 612.6200080848818 442.0327974015616 L 611.5409091542218 441.18210439800055 L 610.5318813292354 440.24936867076457 L 609.5991456019995 439.24034084577823 L 608.7484525984385 438.1612419151183 L 607.9850471238034 437.0187248825291 L 607.3136358267036 435.81983374544205 L 606.7383581810525 434.57196006638907 L 606.2627609648348 433.2827974015616 L 605.8897763930406 431.96029386747836 L 605.6217040395851 430.61260313820407 L 605.4601966596703 429.2480341752373 L 605.40625 427.875 L 605.4601966596703 426.5019658247627 L 605.6217040395851 425.13739686179593 L 605.8897763930406 423.78970613252164 L 606.2627609648348 422.4672025984384 L 606.7383581810525 421.17803993361093 L 607.3136358267036 419.93016625455795 L 607.9850471238034 418.7312751174709 L 608.7484525984385 417.5887580848817 L 609.5991456019995 416.50965915422177 L 610.5318813292354 415.50063132923543 L 611.5409091542218 414.56789560199945 L 612.6200080848818 413.7172025984384 L 613.7625251174709 412.9537971238034 L 614.9614162545579 412.28238582670355 L 616.209289933611 411.7071081810525 L 617.4984525984385 411.2315109648348 L 618.8209561325217 410.8585263930407 L 620.168646861796 410.5904540395851 L 621.5332158247628 410.42894665967026 L 622.9062500000001 410.375 L 624.2792841752373 410.42894665967026 L 625.6438531382041 410.5904540395851 L 626.9915438674784 410.8585263930407 L 628.3140474015617 411.23151096483485 L 629.6032100663891 411.7071081810525 L 630.8510837454421 412.2823858267036 L 632.0499748825292 412.95379712380344 L 633.1924919151184 413.7172025984385 L 634.2715908457783 414.56789560199957 L 635.2806186707646 415.5006313292355 L 636.2133543980007 416.5096591542219 L 637.0640474015617 417.5887580848818 L 637.8274528761967 418.73127511747106 L 638.4988641732965 419.93016625455806 L 639.0741418189476 421.1780399336111 L 639.5497390351652 422.4672025984386 L 639.9227236069594 423.7897061325218 L 640.1907959604149 425.13739686179616 L 640.3523033403297 426.5019658247629 Z" fill-opacity="1" stroke-opacity="1" stroke-miterlimit="10" stroke-width="2"/><text fill="rgb(255,255,255)" stroke="none" font-family="times new roman" font-size="10px" font-style="normal" font-weight="normal" text-decoration="normal" x="622.90625" y="432.875" text-anchor="middle" dominant-baseline="text-after-edge" fill-opacity="1">*4.9</text><path fill="rgb(69,90,100)" stroke="rgb(76,175,80)" paint-order="fill stroke markers" d=" M 566.34375 427.875 L 566.2898033403297 429.2480341752373 L 566.1282959604149 430.61260313820407 L 565.8602236069594 431.96029386747836 L 565.4872390351652 433.2827974015616 L 565.0116418189475 434.57196006638907 L 564.4363641732964 435.81983374544205 L 563.7649528761966 437.0187248825291 L 563.0015474015615 438.1612419151183 L 562.1508543980005 439.24034084577823 L 561.2181186707646 440.24936867076457 L 560.2090908457782 441.18210439800055 L 559.1299919151182 442.0327974015616 L 557.9874748825291 442.7962028761966 L 556.7885837454421 443.46761417329645 L 555.5407100663891 444.0428918189475 L 554.2515474015615 444.5184890351652 L 552.9290438674783 444.8914736069593 L 551.581353138204 445.1595459604149 L 550.2167841752373 445.32105334032974 L 548.84375 445.375 L 547.4707158247627 445.32105334032974 L 546.106146861796 445.1595459604149 L 544.7584561325217 444.8914736069593 L 543.4359525984385 444.5184890351652 L 542.1467899336109 444.0428918189475 L 540.8989162545579 443.46761417329645 L 539.7000251174709 442.7962028761966 L 538.5575080848818 442.0327974015616 L 537.4784091542218 441.18210439800055 L 536.4693813292354 440.24936867076457 L 535.5366456019995 439.24034084577823 L 534.6859525984385 438.1612419151183 L 533.9225471238034 437.0187248825291 L 533.2511358267036 435.81983374544205 L 532.6758581810525 434.57196006638907 L 532.2002609648348 433.2827974015616 L 531.8272763930406 431.96029386747836 L 531.5592040395851 430.61260313820407 L 531.3976966596703 429.2480341752373 L 531.34375 427.875 L 531.3976966596703 426.5019658247627 L 531.5592040395851 425.13739686179593 L 531.8272763930406 423.78970613252164 L 532.2002609648348 422.4672025984384 L 532.6758581810525 421.17803993361093 L 533.2511358267036 419.93016625455795 L 533.9225471238034 418.7312751174709 L 534.6859525984385 417.5887580848817 L 535.5366456019995 416.50965915422177 L 536.4693813292354 415.50063132923543 L 537.4784091542218 414.56789560199945 L 538.5575080848818 413.7172025984384 L 539.7000251174709 412.9537971238034 L 540.8989162545579 412.28238582670355 L 542.146789933611 411.7071081810525 L 543.4359525984385 411.2315109648348 L 544.7584561325217 410.8585263930407 L 546.106146861796 410.5904540395851 L 547.4707158247628 410.42894665967026 L 548.8437500000001 410.375 L 550.2167841752373 410.42894665967026 L 551.5813531382041 410.5904540395851 L 552.9290438674784 410.8585263930407 L 554.2515474015617 411.23151096483485 L 555.5407100663891 411.7071081810525 L 556.7885837454421 412.2823858267036 L 557.9874748825292 412.95379712380344 L 559.1299919151184 413.7172025984385 L 560.2090908457783 414.56789560199957 L 561.2181186707646 415.5006313292355 L 562.1508543980007 416.5096591542219 L 563.0015474015617 417.5887580848818 L 563.7649528761967 418.73127511747106 L 564.4363641732965 419.93016625455806 L 565.0116418189476 421.1780399336111 L 565.4872390351652 422.4672025984386 L 565.8602236069594 423.7897061325218 L 566.1282959604149 425.13739686179616 L 566.2898033403297 426.5019658247629 Z" fill-opacity="1" stroke-opacity="1" stroke-miterlimit="10" stroke-width="6"/><text fill="rgb(255,255,255)" stroke="none" font-family="times new roman" font-size="10px" font-style="normal" font-weight="normal" text-decoration="normal" x="548.84375" y="432.875" text-anchor="middle" dominant-baseline="text-after-edge" fill-opacity="1">*1.41</text><path fill="rgb(69,90,100)" stroke="rgb(76,175,80)" paint-order="fill stroke markers" d=" M 278.71875 561 L 278.66480334032974 562.3730341752373 L 278.5032959604149 563.737603138204 L 278.2352236069593 565.0852938674783 L 277.8622390351652 566.4077974015615 L 277.3866418189475 567.6969600663891 L 276.81136417329645 568.9448337454421 L 276.1399528761966 570.1437248825291 L 275.3765474015616 571.2862419151182 L 274.52585439800055 572.3653408457782 L 273.59311867076457 573.3743686707646 L 272.58409084577823 574.3071043980005 L 271.5049919151183 575.1577974015615 L 270.3624748825291 575.9212028761966 L 269.16358374544205 576.5926141732964 L 267.91571006638907 577.1678918189475 L 266.6265474015616 577.6434890351652 L 265.30404386747836 578.0164736069594 L 263.95635313820407 578.2845459604149 L 262.5917841752373 578.4460533403297 L 261.21875 578.5 L 259.8457158247627 578.4460533403297 L 258.48114686179593 578.2845459604149 L 257.13345613252164 578.0164736069594 L 255.81095259843843 577.6434890351652 L 254.52178993361093 577.1678918189475 L 253.27391625455795 576.5926141732964 L 252.0750251174709 575.9212028761966 L 250.93250808488173 575.1577974015615 L 249.8534091542218 574.3071043980005 L 248.84438132923543 573.3743686707646 L 247.91164560199945 572.3653408457782 L 247.06095259843843 571.2862419151182 L 246.29754712380338 570.1437248825291 L 245.62613582670357 568.9448337454421 L 245.0508581810525 567.6969600663891 L 244.57526096483483 566.4077974015615 L 244.20227639304065 565.0852938674783 L 243.9342040395851 563.737603138204 L 243.77269665967026 562.3730341752373 L 243.71875 561 L 243.77269665967026 559.6269658247627 L 243.9342040395851 558.262396861796 L 244.20227639304065 556.9147061325217 L 244.5752609648348 555.5922025984385 L 245.0508581810525 554.3030399336109 L 245.62613582670357 553.0551662545579 L 246.29754712380338 551.8562751174709 L 247.0609525984384 550.7137580848818 L 247.91164560199945 549.6346591542218 L 248.8443813292354 548.6256313292354 L 249.85340915422177 547.6928956019995 L 250.9325080848817 546.8422025984385 L 252.0750251174709 546.0787971238034 L 253.27391625455795 545.4073858267036 L 254.52178993361096 544.8321081810525 L 255.81095259843843 544.3565109648348 L 257.1334561325217 543.9835263930406 L 258.481146861796 543.7154540395851 L 259.84571582476275 543.5539466596703 L 261.21875000000006 543.5 L 262.59178417523736 543.5539466596703 L 263.9563531382041 543.7154540395851 L 265.3040438674784 543.9835263930406 L 266.62654740156165 544.3565109648348 L 267.9157100663892 544.8321081810525 L 269.16358374544217 545.4073858267036 L 270.3624748825292 546.0787971238035 L 271.50499191511835 546.8422025984385 L 272.5840908457783 547.6928956019996 L 273.5931186707647 548.6256313292355 L 274.52585439800066 549.6346591542219 L 275.37654740156165 550.7137580848819 L 276.1399528761967 551.856275117471 L 276.8113641732965 553.0551662545581 L 277.38664181894757 554.3030399336111 L 277.86223903516526 555.5922025984386 L 278.2352236069594 556.9147061325218 L 278.50329596041496 558.2623968617961 L 278.66480334032974 559.6269658247629 Z" fill-opacity="1" stroke-opacity="1" stroke-miterlimit="10" stroke-width="6"/><text fill="rgb(255,255,255)" stroke="none" font-family="times new roman" font-size="10px" font-style="normal" font-weight="normal" text-decoration="normal" x="261.21875" y="566" text-anchor="middle" dominant-baseline="text-after-edge" fill-opacity="1">*1.58</text><path fill="rgb(69,90,100)" stroke="rgb(76,175,80)" paint-order="fill stroke markers" d=" M 179.59375 417.875 L 179.59375 437.875 L 274.59375 437.875 L 274.59375 417.875 Z" fill-opacity="1" stroke-opacity="1" stroke-miterlimit="10" stroke-width="6"/><text fill="rgb(255,255,255)" stroke="none" font-family="times new roman" font-size="10px" font-style="normal" font-weight="normal" text-decoration="normal" x="227.09375" y="432.875" text-anchor="middle" dominant-baseline="text-after-edge" fill-opacity="1">42130482C&gt;A</text><path fill="rgb(69,90,100)" stroke="rgb(244,67,54)" paint-order="fill stroke markers" d=" M 1138.21875 427.875 L 1138.1648033403299 429.2480341752373 L 1138.003295960415 430.61260313820407 L 1137.7352236069594 431.96029386747836 L 1137.3622390351652 433.2827974015616 L 1136.8866418189475 434.57196006638907 L 1136.3113641732964 435.81983374544205 L 1135.6399528761965 437.0187248825291 L 1134.8765474015615 438.1612419151183 L 1134.0258543980005 439.24034084577823 L 1133.0931186707646 440.24936867076457 L 1132.0840908457783 441.18210439800055 L 1131.0049919151184 442.0327974015616 L 1129.862474882529 442.7962028761966 L 1128.663583745442 443.46761417329645 L 1127.415710066389 444.0428918189475 L 1126.1265474015615 444.5184890351652 L 1124.8040438674784 444.8914736069593 L 1123.4563531382041 445.1595459604149 L 1122.0917841752373 445.32105334032974 L 1120.71875 445.375 L 1119.3457158247627 445.32105334032974 L 1117.9811468617959 445.1595459604149 L 1116.6334561325216 444.8914736069593 L 1115.3109525984385 444.5184890351652 L 1114.021789933611 444.0428918189475 L 1112.773916254558 443.46761417329645 L 1111.575025117471 442.7962028761966 L 1110.4325080848816 442.0327974015616 L 1109.3534091542217 441.18210439800055 L 1108.3443813292354 440.24936867076457 L 1107.4116456019995 439.24034084577823 L 1106.5609525984385 438.1612419151183 L 1105.7975471238035 437.0187248825291 L 1105.1261358267036 435.81983374544205 L 1104.5508581810525 434.57196006638907 L 1104.0752609648348 433.2827974015616 L 1103.7022763930406 431.96029386747836 L 1103.434204039585 430.61260313820407 L 1103.2726966596701 429.2480341752373 L 1103.21875 427.875 L 1103.2726966596701 426.5019658247627 L 1103.434204039585 425.13739686179593 L 1103.7022763930406 423.78970613252164 L 1104.0752609648348 422.4672025984384 L 1104.5508581810525 421.17803993361093 L 1105.1261358267036 419.93016625455795 L 1105.7975471238035 418.7312751174709 L 1106.5609525984385 417.5887580848817 L 1107.4116456019995 416.50965915422177 L 1108.3443813292354 415.50063132923543 L 1109.3534091542217 414.56789560199945 L 1110.4325080848816 413.7172025984384 L 1111.575025117471 412.9537971238034 L 1112.773916254558 412.28238582670355 L 1114.021789933611 411.7071081810525 L 1115.3109525984385 411.2315109648348 L 1116.6334561325216 410.8585263930407 L 1117.981146861796 410.5904540395851 L 1119.3457158247627 410.42894665967026 L 1120.71875 410.375 L 1122.0917841752373 410.42894665967026 L 1123.4563531382041 410.5904540395851 L 1124.8040438674784 410.8585263930407 L 1126.1265474015618 411.23151096483485 L 1127.4157100663892 411.7071081810525 L 1128.663583745442 412.2823858267036 L 1129.862474882529 412.95379712380344 L 1131.0049919151184 413.7172025984385 L 1132.0840908457783 414.56789560199957 L 1133.0931186707646 415.5006313292355 L 1134.0258543980005 416.5096591542219 L 1134.8765474015618 417.5887580848818 L 1135.6399528761967 418.73127511747106 L 1136.3113641732966 419.93016625455806 L 1136.8866418189475 421.1780399336111 L 1137.3622390351652 422.4672025984386 L 1137.7352236069594 423.7897061325218 L 1138.003295960415 425.13739686179616 L 1138.1648033403299 426.5019658247629 Z" fill-opacity="1" stroke-opacity="1" stroke-miterlimit="10" stroke-width="2"/><text fill="rgb(255,255,255)" stroke="none" font-family="times new roman" font-size="10px" font-style="normal" font-weight="normal" text-decoration="normal" x="1120.71875" y="432.875" text-anchor="middle" dominant-baseline="text-after-edge" fill-opacity="1">*4.2</text><path fill="rgb(69,90,100)" stroke="rgb(244,67,54)" paint-order="fill stroke markers" d=" M 866.53125 561 L 866.4773033403297 562.3730341752373 L 866.3157959604149 563.737603138204 L 866.0477236069594 565.0852938674783 L 865.6747390351652 566.4077974015615 L 865.1991418189475 567.6969600663891 L 864.6238641732964 568.9448337454421 L 863.9524528761966 570.1437248825291 L 863.1890474015615 571.2862419151182 L 862.3383543980005 572.3653408457782 L 861.4056186707646 573.3743686707646 L 860.3965908457782 574.3071043980005 L 859.3174919151182 575.1577974015615 L 858.1749748825291 575.9212028761966 L 856.9760837454421 576.5926141732964 L 855.7282100663891 577.1678918189475 L 854.4390474015615 577.6434890351652 L 853.1165438674783 578.0164736069594 L 851.768853138204 578.2845459604149 L 850.4042841752373 578.4460533403297 L 849.03125 578.5 L 847.6582158247627 578.4460533403297 L 846.293646861796 578.2845459604149 L 844.9459561325217 578.0164736069594 L 843.6234525984385 577.6434890351652 L 842.3342899336109 577.1678918189475 L 841.0864162545579 576.5926141732964 L 839.8875251174709 575.9212028761966 L 838.7450080848818 575.1577974015615 L 837.6659091542218 574.3071043980005 L 836.6568813292354 573.3743686707646 L 835.7241456019995 572.3653408457782 L 834.8734525984385 571.2862419151182 L 834.1100471238034 570.1437248825291 L 833.4386358267036 568.9448337454421 L 832.8633581810525 567.6969600663891 L 832.3877609648348 566.4077974015615 L 832.0147763930406 565.0852938674783 L 831.7467040395851 563.737603138204 L 831.5851966596703 562.3730341752373 L 831.53125 561 L 831.5851966596703 559.6269658247627 L 831.7467040395851 558.262396861796 L 832.0147763930406 556.9147061325217 L 832.3877609648348 555.5922025984385 L 832.8633581810525 554.3030399336109 L 833.4386358267036 553.0551662545579 L 834.1100471238034 551.8562751174709 L 834.8734525984385 550.7137580848818 L 835.7241456019995 549.6346591542218 L 836.6568813292354 548.6256313292354 L 837.6659091542218 547.6928956019995 L 838.7450080848818 546.8422025984385 L 839.8875251174709 546.0787971238034 L 841.0864162545579 545.4073858267036 L 842.334289933611 544.8321081810525 L 843.6234525984385 544.3565109648348 L 844.9459561325217 543.9835263930406 L 846.293646861796 543.7154540395851 L 847.6582158247628 543.5539466596703 L 849.0312500000001 543.5 L 850.4042841752373 543.5539466596703 L 851.7688531382041 543.7154540395851 L 853.1165438674784 543.9835263930406 L 854.4390474015617 544.3565109648348 L 855.7282100663891 544.8321081810525 L 856.9760837454421 545.4073858267036 L 858.1749748825292 546.0787971238035 L 859.3174919151184 546.8422025984385 L 860.3965908457783 547.6928956019996 L 861.4056186707646 548.6256313292355 L 862.3383543980007 549.6346591542219 L 863.1890474015617 550.7137580848819 L 863.9524528761967 551.856275117471 L 864.6238641732965 553.0551662545581 L 865.1991418189476 554.3030399336111 L 865.6747390351652 555.5922025984386 L 866.0477236069594 556.9147061325218 L 866.3157959604149 558.2623968617961 L 866.4773033403297 559.6269658247629 Z" fill-opacity="1" stroke-opacity="1" stroke-miterlimit="10" stroke-width="2"/><text fill="rgb(255,255,255)" stroke="none" font-family="times new roman" font-size="10px" font-style="normal" font-weight="normal" text-decoration="normal" x="849.03125" y="566" text-anchor="middle" dominant-baseline="text-after-edge" fill-opacity="1">*4.11</text><path fill="rgb(69,90,100)" stroke="rgb(255,193,7)" paint-order="fill stroke markers" d=" M 1083.59375 266.625 L 1083.5243900089954 268.3903296538765 L 1083.3167376633905 270.1447754634052 L 1082.9720732089477 271.87752068675786 L 1082.492521616641 273.5778823734363 L 1081.8810394815039 275.23537722821453 L 1081.1413967942383 276.8397862441398 L 1080.2781536979671 278.3812177061088 L 1079.2966323734363 279.85016817658067 L 1078.2028842260006 281.23758108742913 L 1077.0036525766973 282.53490257669733 L 1075.7063310874291 283.7341342260007 L 1074.3189181765806 284.8278823734363 L 1072.8499677061088 285.80940369796707 L 1071.3085362441398 286.6726467942383 L 1069.7041272282145 287.41228948150393 L 1068.0466323734363 288.02377161664094 L 1066.3462706867579 288.50332320894773 L 1064.6135254634053 288.8479876633906 L 1062.8590796538765 289.0556400089954 L 1061.09375 289.125 L 1059.3284203461235 289.0556400089954 L 1057.5739745365947 288.8479876633906 L 1055.8412293132421 288.50332320894773 L 1054.1408676265637 288.02377161664094 L 1052.4833727717855 287.41228948150393 L 1050.8789637558602 286.6726467942383 L 1049.3375322938912 285.80940369796707 L 1047.8685818234194 284.8278823734363 L 1046.4811689125709 283.7341342260007 L 1045.1838474233027 282.53490257669733 L 1043.9846157739994 281.23758108742913 L 1042.8908676265637 279.85016817658067 L 1041.9093463020329 278.3812177061088 L 1041.0461032057617 276.8397862441398 L 1040.3064605184961 275.23537722821453 L 1039.694978383359 273.5778823734363 L 1039.2154267910523 271.87752068675786 L 1038.8707623366095 270.1447754634052 L 1038.6631099910046 268.3903296538765 L 1038.59375 266.625 L 1038.6631099910046 264.8596703461235 L 1038.8707623366095 263.1052245365948 L 1039.2154267910523 261.37247931324214 L 1039.694978383359 259.6721176265637 L 1040.3064605184961 258.01462277178547 L 1041.0461032057617 256.4102137558602 L 1041.9093463020329 254.86878229389114 L 1042.8908676265637 253.39983182341936 L 1043.9846157739994 252.01241891257087 L 1045.1838474233027 250.7150974233027 L 1046.4811689125709 249.5158657739993 L 1047.8685818234194 248.42211762656368 L 1049.3375322938912 247.44059630203293 L 1050.8789637558602 246.5773532057617 L 1052.4833727717855 245.83771051849604 L 1054.1408676265637 245.22622838335903 L 1055.8412293132421 244.74667679105227 L 1057.573974536595 244.4020123366094 L 1059.3284203461235 244.1943599910046 L 1061.09375 244.125 L 1062.8590796538765 244.19435999100463 L 1064.6135254634053 244.4020123366094 L 1066.3462706867579 244.7466767910523 L 1068.0466323734365 245.22622838335909 L 1069.7041272282147 245.8377105184961 L 1071.30853624414 246.5773532057618 L 1072.849967706109 247.440596302033 L 1074.3189181765808 248.42211762656376 L 1075.7063310874294 249.51586577399942 L 1077.0036525766975 250.7150974233028 L 1078.2028842260008 252.012418912571 L 1079.2966323734365 253.3998318234195 L 1080.2781536979671 254.86878229389131 L 1081.1413967942383 256.4102137558604 L 1081.881039481504 258.0146227717857 L 1082.492521616641 259.67211762656393 L 1082.9720732089477 261.37247931324237 L 1083.3167376633905 263.1052245365951 L 1083.5243900089954 264.8596703461238 Z" fill-opacity="1" stroke-opacity="1" stroke-miterlimit="10" stroke-width="2"/><text fill="rgb(255,255,255)" stroke="none" font-family="times new roman" font-size="15px" font-style="normal" font-weight="normal" text-decoration="normal" x="1061.09375" y="274.125" text-anchor="middle" dominant-baseline="text-after-edge" fill-opacity="1">*10</text><path fill="rgb(69,90,100)" stroke="rgb(244,67,54)" paint-order="fill stroke markers" d=" M 829.40625 427.875 L 829.3523033403297 429.2480341752373 L 829.1907959604149 430.61260313820407 L 828.9227236069594 431.96029386747836 L 828.5497390351652 433.2827974015616 L 828.0741418189475 434.57196006638907 L 827.4988641732964 435.81983374544205 L 826.8274528761966 437.0187248825291 L 826.0640474015615 438.1612419151183 L 825.2133543980005 439.24034084577823 L 824.2806186707646 440.24936867076457 L 823.2715908457782 441.18210439800055 L 822.1924919151182 442.0327974015616 L 821.0499748825291 442.7962028761966 L 819.8510837454421 443.46761417329645 L 818.6032100663891 444.0428918189475 L 817.3140474015615 444.5184890351652 L 815.9915438674783 444.8914736069593 L 814.643853138204 445.1595459604149 L 813.2792841752373 445.32105334032974 L 811.90625 445.375 L 810.5332158247627 445.32105334032974 L 809.168646861796 445.1595459604149 L 807.8209561325217 444.8914736069593 L 806.4984525984385 444.5184890351652 L 805.2092899336109 444.0428918189475 L 803.9614162545579 443.46761417329645 L 802.7625251174709 442.7962028761966 L 801.6200080848818 442.0327974015616 L 800.5409091542218 441.18210439800055 L 799.5318813292354 440.24936867076457 L 798.5991456019995 439.24034084577823 L 797.7484525984385 438.1612419151183 L 796.9850471238034 437.0187248825291 L 796.3136358267036 435.81983374544205 L 795.7383581810525 434.57196006638907 L 795.2627609648348 433.2827974015616 L 794.8897763930406 431.96029386747836 L 794.6217040395851 430.61260313820407 L 794.4601966596703 429.2480341752373 L 794.40625 427.875 L 794.4601966596703 426.5019658247627 L 794.6217040395851 425.13739686179593 L 794.8897763930406 423.78970613252164 L 795.2627609648348 422.4672025984384 L 795.7383581810525 421.17803993361093 L 796.3136358267036 419.93016625455795 L 796.9850471238034 418.7312751174709 L 797.7484525984385 417.5887580848817 L 798.5991456019995 416.50965915422177 L 799.5318813292354 415.50063132923543 L 800.5409091542218 414.56789560199945 L 801.6200080848818 413.7172025984384 L 802.7625251174709 412.9537971238034 L 803.9614162545579 412.28238582670355 L 805.209289933611 411.7071081810525 L 806.4984525984385 411.2315109648348 L 807.8209561325217 410.8585263930407 L 809.168646861796 410.5904540395851 L 810.5332158247628 410.42894665967026 L 811.9062500000001 410.375 L 813.2792841752373 410.42894665967026 L 814.6438531382041 410.5904540395851 L 815.9915438674784 410.8585263930407 L 817.3140474015617 411.23151096483485 L 818.6032100663891 411.7071081810525 L 819.8510837454421 412.2823858267036 L 821.0499748825292 412.95379712380344 L 822.1924919151184 413.7172025984385 L 823.2715908457783 414.56789560199957 L 824.2806186707646 415.5006313292355 L 825.2133543980007 416.5096591542219 L 826.0640474015617 417.5887580848818 L 826.8274528761967 418.73127511747106 L 827.4988641732965 419.93016625455806 L 828.0741418189476 421.1780399336111 L 828.5497390351652 422.4672025984386 L 828.9227236069594 423.7897061325218 L 829.1907959604149 425.13739686179616 L 829.3523033403297 426.5019658247629 Z" fill-opacity="1" stroke-opacity="1" stroke-miterlimit="10" stroke-width="2"/><text fill="rgb(255,255,255)" stroke="none" font-family="times new roman" font-size="10px" font-style="normal" font-weight="normal" text-decoration="normal" x="811.90625" y="432.875" text-anchor="middle" dominant-baseline="text-after-edge" fill-opacity="1">*4.5</text><path fill="rgb(176,190,197)" stroke="none" paint-order="stroke fill markers" d=" M 971.46875 456 L 971.46875 666 L 1046.46875 666 L 1046.46875 456.00000000000006 Z" fill-opacity="0.8"/><text fill="rgb(0,0,0)" stroke="none" font-family="times new roman" font-size="10px" font-style="normal" font-weight="normal" text-decoration="normal" x="976.46875" y="471" text-anchor="start" dominant-baseline="text-after-edge" fill-opacity="0.8">42126390G&gt;A </text><text fill="rgb(0,0,0)" stroke="none" font-family="times new roman" font-size="10px" font-style="normal" font-weight="normal" text-decoration="normal" x="976.46875" y="481" text-anchor="start" dominant-baseline="text-after-edge" fill-opacity="0.8">42126548G&gt;A </text><text fill="rgb(0,0,0)" stroke="none" font-family="times new roman" font-size="10px" font-style="normal" font-weight="normal" text-decoration="normal" x="976.46875" y="491" text-anchor="start" dominant-baseline="text-after-edge" fill-opacity="0.8">42127209T&gt;C </text><text fill="rgb(0,0,0)" stroke="none" font-family="times new roman" font-size="10px" font-style="normal" font-weight="normal" text-decoration="normal" x="976.46875" y="501" text-anchor="start" dominant-baseline="text-after-edge" fill-opacity="0.8">42128694T&gt;C </text><text fill="rgb(0,0,0)" stroke="none" font-family="times new roman" font-size="10px" font-style="normal" font-weight="normal" text-decoration="normal" x="976.46875" y="511" text-anchor="start" dominant-baseline="text-after-edge" fill-opacity="0.8">42131791C&gt;T </text><text fill="rgb(0,0,0)" stroke="none" font-family="times new roman" font-size="10px" font-style="normal" font-weight="normal" text-decoration="normal" x="976.46875" y="521" text-anchor="start" dominant-baseline="text-after-edge" fill-opacity="0.8">42132217G&gt;A </text><path fill="rgb(176,190,197)" stroke="none" paint-order="stroke fill markers" d=" M 1209.96875 456 L 1276.96875 456 L 1276.96875 456 A 8 8 0 0 1 1284.96875 464 L 1284.96875 658 L 1284.96875 658 A 8 8 0 0 1 1276.96875 666 L 1142.96875 666 L 1142.96875 666 A 8 8 0 0 1 1134.96875 658 L 1134.96875 464 L 1134.96875 464 A 8 8 0 0 1 1142.96875 456 L 1209.96875 456 Z" fill-opacity="0.8"/><text fill="rgb(0,0,0)" stroke="none" font-family="times new roman" font-size="10px" font-style="normal" font-weight="normal" text-decoration="normal" x="1139.96875" y="471" text-anchor="start" dominant-baseline="text-after-edge" fill-opacity="0.8">42125924A&gt;G </text><text fill="rgb(0,0,0)" stroke="none" font-family="times new roman" font-size="10px" font-style="normal" font-weight="normal" text-decoration="normal" x="1139.96875" y="481" text-anchor="start" dominant-baseline="text-after-edge" fill-opacity="0.8">42125980T&gt;C </text><text fill="rgb(0,0,0)" stroke="none" font-family="times new roman" font-size="10px" font-style="normal" font-weight="normal" text-decoration="normal" x="1139.96875" y="491" text-anchor="start" dominant-baseline="text-after-edge" fill-opacity="0.8">42126069A&gt;C </text><text fill="rgb(0,0,0)" stroke="none" font-family="times new roman" font-size="10px" font-style="normal" font-weight="normal" text-decoration="normal" x="1139.96875" y="501" text-anchor="start" dominant-baseline="text-after-edge" fill-opacity="0.8">42132027C&gt;T </text><text fill="rgb(0,0,0)" stroke="none" font-family="times new roman" font-size="10px" font-style="normal" font-weight="normal" text-decoration="normal" x="1139.96875" y="511" text-anchor="start" dominant-baseline="text-after-edge" fill-opacity="0.8">42132844C&gt;A </text><text fill="rgb(0,0,0)" stroke="none" font-family="times new roman" font-size="10px" font-style="normal" font-weight="normal" text-decoration="normal" x="1139.96875" y="521" text-anchor="start" dominant-baseline="text-after-edge" fill-opacity="0.8">42132851T&gt;C </text><text fill="rgb(0,0,0)" stroke="none" font-family="times new roman" font-size="10px" font-style="normal" font-weight="normal" text-decoration="normal" x="1139.96875" y="531" text-anchor="start" dominant-baseline="text-after-edge" fill-opacity="0.8">42132969C&gt;T </text><text fill="rgb(0,0,0)" stroke="none" font-family="times new roman" font-size="10px" font-style="normal" font-weight="normal" text-decoration="normal" x="1139.96875" y="541" text-anchor="start" dominant-baseline="text-after-edge" fill-opacity="0.8">42133212A&gt;G </text><text fill="rgb(0,0,0)" stroke="none" font-family="times new roman" font-size="10px" font-style="normal" font-weight="normal" text-decoration="normal" x="1139.96875" y="551" text-anchor="start" dominant-baseline="text-after-edge" fill-opacity="0.8">42133314C&gt;T </text><text fill="rgb(0,0,0)" stroke="none" font-family="times new roman" font-size="10px" font-style="normal" font-weight="normal" text-decoration="normal" x="1139.96875" y="561" text-anchor="start" dominant-baseline="text-after-edge" fill-opacity="0.8">42133400T&gt;G </text><text fill="rgb(0,0,0)" stroke="none" font-family="times new roman" font-size="10px" font-style="normal" font-weight="normal" text-decoration="normal" x="1139.96875" y="571" text-anchor="start" dominant-baseline="text-after-edge" fill-opacity="0.8">42134096del </text><text fill="rgb(0,0,0)" stroke="none" font-family="times new roman" font-size="10px" font-style="normal" font-weight="normal" text-decoration="normal" x="1139.96875" y="581" text-anchor="start" dominant-baseline="text-after-edge" fill-opacity="0.8">42134820T&gt;G </text><text fill="rgb(0,0,0)" stroke="none" font-family="times new roman" font-size="10px" font-style="normal" font-weight="normal" text-decoration="normal" x="1139.96875" y="591" text-anchor="start" dominant-baseline="text-after-edge" fill-opacity="0.8">42135064_42135066dup </text><text fill="rgb(0,0,0)" stroke="none" font-family="times new roman" font-size="10px" font-style="normal" font-weight="normal" text-decoration="normal" x="1139.96875" y="601" text-anchor="start" dominant-baseline="text-after-edge" fill-opacity="0.8">42135201T&gt;C </text><g transform="scale(1.206439393939394,1.206439393939394) translate(115.54709576138146,30.869701726844596)"/></g></svg>