<svg version="1.1" xmlns="http://www.w3.org/2000/svg" xmlns:xlink="http://www.w3.org/1999/xlink" width="1017" height="608"><defs/><g transform="translate(-89.25872627066747,-46.450704225352126) scale(2.3441518677281077,2.3441518677281077)"><path fill="none" stroke="rgb(120,144,156)" paint-order="fill stroke markers" d=" M 114.00657894736842 60.18750000000001 L 144.74711566192894 94.54457044568527" stroke-opacity="1" stroke-linejoin="round" stroke-miterlimit="10"/><path fill="rgb(120,144,156)" stroke="none" paint-order="stroke fill markers" d=" M 137.03779038964691 92.45201128376084 L 146.08070538086858 96.03505307273547 L 143.52138981731528 86.65089600637336 Z" fill-opacity="1"/><path fill="none" stroke="rgb(120,144,156)" paint-order="fill stroke markers" d=" M 219.9399260166042 190.64257071830065 L 271.12251467340946 228.92198576414657" stroke-opacity="1" stroke-linejoin="round" stroke-miterlimit="10"/><path fill="rgb(120,144,156)" stroke="none" paint-order="stroke fill markers" d=" M 263.1517951093091 228.3927130268284 L 272.7241282968261 230.1198312472061 L 268.36242296061806 221.42569376496587 Z" fill-opacity="1"/><path fill="none" stroke="rgb(120,144,156)" paint-order="fill stroke markers" d=" M 171.09969890508341 128.38394793987752 L 193.77530109491659 162.49105206012246" stroke-opacity="1" stroke-linejoin="round" stroke-miterlimit="10"/><path fill="rgb(120,144,156)" stroke="none" paint-order="stroke fill markers" d=" M 186.4434093289397 159.31995396450947 L 194.8825887929735 164.15655917620808 L 193.6883652839121 154.50325247796187 Z" fill-opacity="1"/><path fill="none" stroke="rgb(120,144,156)" paint-order="fill stroke markers" d=" M 294.375 190.5625 L 294.375 225.81250000000003" stroke-opacity="1" stroke-linejoin="round" stroke-miterlimit="10"/><path fill="rgb(120,144,156)" stroke="none" paint-order="stroke fill markers" d=" M 290.025 219.11250000000004 L 294.375 227.81250000000003 L 298.725 219.11250000000004 Z" fill-opacity="1"/><path fill="none" stroke="rgb(120,144,156)" paint-order="fill stroke markers" d=" M 243.1868131868132 122.3125 L 216.47469890508341 162.49105206012246" stroke-opacity="1" stroke-linejoin="round" stroke-miterlimit="10"/><path fill="rgb(120,144,156)" stroke="none" paint-order="stroke fill markers" d=" M 216.56163471608787 154.50325247796187 L 215.3674112070265 164.15655917620808 L 223.8065906710603 159.31995396450947 Z" fill-opacity="1"/><path fill="none" stroke="rgb(120,144,156)" paint-order="fill stroke markers" d=" M 205.4934210526316 60.1875 L 174.75288433807106 94.54457044568527" stroke-opacity="1" stroke-linejoin="round" stroke-miterlimit="10"/><path fill="rgb(120,144,156)" stroke="none" paint-order="stroke fill markers" d=" M 175.97861018268472 86.65089600637336 L 173.41929461913142 96.03505307273547 L 182.46220961035309 92.45201128376084 Z" fill-opacity="1"/><path fill="none" stroke="rgb(120,144,156)" paint-order="fill stroke markers" d=" M 385.5688202247191 192.5625 L 319.9621360150002 231.23134036201975" stroke-opacity="1" stroke-linejoin="round" stroke-miterlimit="10"/><path fill="rgb(120,144,156)" stroke="none" paint-order="stroke fill markers" d=" M 323.52535464430093 224.0817968101694 L 318.2391482221113 232.2468762134576 L 327.9429355980556 231.57679370923637 Z" fill-opacity="1"/><path fill="rgb(69,90,100)" stroke="rgb(189,189,189)" paint-order="fill stroke markers" d=" M 407.625 169.5625 L 450.125 169.5625 L 450.125 169.5625 A 5 5 0 0 1 455.125 174.5625 L 455.125 184.5625 L 455.125 184.5625 A 5 5 0 0 1 450.125 189.5625 L 365.125 189.5625 L 365.125 189.5625 A 5 5 0 0 1 360.125 184.5625 L 360.125 174.5625 L 360.125 174.5625 A 5 5 0 0 1 365.125 169.5625 L 407.625 169.5625 Z" fill-opacity="1" stroke-opacity="1" stroke-miterlimit="10" stroke-width="6"/><text fill="rgb(255,255,255)" stroke="none" font-family="times new roman" font-size="10px" font-style="normal" font-weight="normal" text-decoration="normal" x="407.625" y="184.5625" text-anchor="middle" dominant-baseline="text-after-edge" fill-opacity="1">42134820T&gt;G</text><path fill="rgb(69,90,100)" stroke="rgb(76,175,80)" paint-order="fill stroke markers" d=" M 54.875000000000014 37.1875 L 54.875 57.1875 L 149.87499999999997 57.1875 L 149.875 37.1875 Z" fill-opacity="1" stroke-opacity="1" stroke-miterlimit="10" stroke-width="6"/><text fill="rgb(255,255,255)" stroke="none" font-family="times new roman" font-size="10px" font-style="normal" font-weight="normal" text-decoration="normal" x="102.375" y="52.1875" text-anchor="middle" dominant-baseline="text-after-edge" fill-opacity="1">42130482C&gt;A</text><path fill="rgb(69,90,100)" stroke="rgb(76,175,80)" paint-order="fill stroke markers" d=" M 203 101.3125 L 203 121.3125 L 298 121.3125 L 298 101.3125 Z" fill-opacity="1" stroke-opacity="1" stroke-miterlimit="10" stroke-width="2"/><text fill="rgb(255,255,255)" stroke="none" font-family="times new roman" font-size="10px" font-style="normal" font-weight="normal" text-decoration="normal" x="250.5" y="116.3125" text-anchor="middle" dominant-baseline="text-after-edge" fill-opacity="1">42129726A&gt;C</text><path fill="rgb(69,90,100)" stroke="rgb(76,175,80)" paint-order="fill stroke markers" d=" M 294.375 169.5625 L 336.875 169.5625 L 336.875 169.5625 A 5 5 0 0 1 341.875 174.5625 L 341.875 184.5625 L 341.875 184.5625 A 5 5 0 0 1 336.875 189.5625 L 251.875 189.5625 L 251.875 189.5625 A 5 5 0 0 1 246.875 184.5625 L 246.875 174.5625 L 246.875 174.5625 A 5 5 0 0 1 251.875 169.5625 L 294.375 169.5625 Z" fill-opacity="1" stroke-opacity="1" stroke-miterlimit="10" stroke-width="2"/><text fill="rgb(255,255,255)" stroke="none" font-family="times new roman" font-size="10px" font-style="normal" font-weight="normal" text-decoration="normal" x="294.375" y="184.5625" text-anchor="middle" dominant-baseline="text-after-edge" fill-opacity="1">42132049dup</text><path fill="rgb(69,90,100)" stroke="rgb(76,175,80)" paint-order="fill stroke markers" d=" M 222.625 179.5625 L 222.57105334032974 180.93553417523728 L 222.4095459604149 182.30010313820404 L 222.14147360695935 183.64779386747836 L 221.76848903516517 184.97029740156157 L 221.2928918189475 186.25946006638907 L 220.71761417329643 187.50733374544205 L 220.04620287619662 188.7062248825291 L 219.2827974015616 189.84874191511827 L 218.43210439800055 190.9278408457782 L 217.49936867076457 191.93686867076457 L 216.4903408457782 192.86960439800055 L 215.41124191511827 193.7202974015616 L 214.2687248825291 194.48370287619662 L 213.06983374544208 195.15511417329643 L 211.82196006638907 195.7303918189475 L 210.5327974015616 196.20598903516517 L 209.21029386747836 196.57897360695935 L 207.86260313820404 196.8470459604149 L 206.49803417523728 197.00855334032974 L 205.125 197.0625 L 203.75196582476272 197.00855334032974 L 202.38739686179596 196.8470459604149 L 201.03970613252164 196.57897360695935 L 199.71720259843843 196.2059890351652 L 198.42803993361093 195.7303918189475 L 197.18016625455795 195.15511417329643 L 195.9812751174709 194.48370287619662 L 194.83875808488173 193.7202974015616 L 193.7596591542218 192.86960439800055 L 192.75063132923543 191.93686867076457 L 191.81789560199945 190.9278408457782 L 190.96720259843843 189.8487419151183 L 190.20379712380338 188.7062248825291 L 189.53238582670357 187.50733374544208 L 188.9571081810525 186.25946006638907 L 188.48151096483483 184.9702974015616 L 188.10852639304065 183.64779386747836 L 187.8404540395851 182.30010313820404 L 187.67894665967026 180.93553417523728 L 187.625 179.5625 L 187.67894665967026 178.18946582476272 L 187.8404540395851 176.82489686179596 L 188.10852639304065 175.47720613252164 L 188.4815109648348 174.15470259843843 L 188.9571081810525 172.86553993361093 L 189.53238582670357 171.61766625455795 L 190.20379712380338 170.4187751174709 L 190.9672025984384 169.27625808488173 L 191.81789560199945 168.1971591542218 L 192.7506313292354 167.18813132923543 L 193.75965915422177 166.25539560199945 L 194.8387580848817 165.40470259843843 L 195.9812751174709 164.64129712380338 L 197.18016625455795 163.96988582670355 L 198.42803993361096 163.3946081810525 L 199.71720259843843 162.9190109648348 L 201.0397061325217 162.54602639304065 L 202.387396861796 162.2779540395851 L 203.75196582476278 162.11644665967026 L 205.12500000000006 162.0625 L 206.49803417523736 162.11644665967026 L 207.86260313820412 162.2779540395851 L 209.2102938674784 162.54602639304068 L 210.53279740156165 162.91901096483485 L 211.82196006638915 163.39460818105252 L 213.06983374544217 163.9698858267036 L 214.2687248825292 164.64129712380344 L 215.41124191511838 165.4047025984385 L 216.49034084577832 166.25539560199954 L 217.49936867076468 167.18813132923552 L 218.43210439800063 168.1971591542219 L 219.28279740156168 169.27625808488185 L 220.0462028761967 170.41877511747103 L 220.7176141732965 171.6176662545581 L 221.2928918189476 172.8655399336111 L 221.76848903516523 174.1547025984386 L 222.14147360695938 175.47720613252184 L 222.40954596041493 176.82489686179616 L 222.57105334032974 178.18946582476292 Z" fill-opacity="1" stroke-opacity="1" stroke-miterlimit="10" stroke-width="2"/><text fill="rgb(255,255,255)" stroke="none" font-family="times new roman" font-size="10px" font-style="normal" font-weight="normal" text-decoration="normal" x="205.125" y="184.5625" text-anchor="middle" dominant-baseline="text-after-edge" fill-opacity="1">*1.6</text><path fill="rgb(69,90,100)" stroke="rgb(76,175,80)" paint-order="fill stroke markers" d=" M 169.625 37.1875 L 169.625 57.1875 L 264.625 57.1875 L 264.625 37.1875 Z" fill-opacity="1" stroke-opacity="1" stroke-miterlimit="10" stroke-width="6"/><text fill="rgb(255,255,255)" stroke="none" font-family="times new roman" font-size="10px" font-style="normal" font-weight="normal" text-decoration="normal" x="217.125" y="52.1875" text-anchor="middle" dominant-baseline="text-after-edge" fill-opacity="1">42129950A&gt;C</text><path fill="rgb(69,90,100)" stroke="rgb(69,90,100)" paint-order="fill stroke markers" d=" M 275.625 228.8125 L 256.875 246.3125 L 275.625 263.8125 L 313.125 263.8125 L 331.875 246.3125 L 313.12500000000006 228.81250000000003 Z" fill-opacity="1" stroke-opacity="1" stroke-miterlimit="10" stroke-width="2"/><text fill="rgb(255,255,255)" stroke="none" font-family="times new roman" font-size="10px" font-style="normal" font-weight="normal" text-decoration="normal" x="294.375" y="251.3125" text-anchor="middle" dominant-baseline="text-after-edge" fill-opacity="1">NA20296-B</text><path fill="rgb(69,90,100)" stroke="rgb(76,175,80)" paint-order="fill stroke markers" d=" M 177.25 111.3125 L 177.19605334032974 112.68553417523728 L 177.0345459604149 114.05010313820404 L 176.76647360695935 115.39779386747834 L 176.39348903516517 116.72029740156158 L 175.9178918189475 118.00946006638907 L 175.34261417329643 119.25733374544207 L 174.67120287619662 120.4562248825291 L 173.9077974015616 121.59874191511828 L 173.05710439800055 122.6778408457782 L 172.12436867076457 123.68686867076458 L 171.1153408457782 124.61960439800055 L 170.03624191511827 125.47029740156158 L 168.8937248825291 126.23370287619662 L 167.69483374544208 126.90511417329644 L 166.44696006638907 127.48039181894751 L 165.1577974015616 127.95598903516519 L 163.83529386747836 128.32897360695935 L 162.48760313820404 128.5970459604149 L 161.12303417523728 128.75855334032974 L 159.75 128.8125 L 158.37696582476272 128.75855334032974 L 157.01239686179596 128.5970459604149 L 155.66470613252164 128.32897360695935 L 154.34220259843843 127.95598903516519 L 153.05303993361093 127.48039181894751 L 151.80516625455795 126.90511417329644 L 150.6062751174709 126.23370287619662 L 149.46375808488173 125.47029740156158 L 148.3846591542218 124.61960439800055 L 147.37563132923543 123.68686867076458 L 146.44289560199945 122.67784084577822 L 145.59220259843843 121.59874191511828 L 144.82879712380338 120.45622488252911 L 144.15738582670357 119.25733374544207 L 143.5821081810525 118.00946006638907 L 143.10651096483483 116.72029740156158 L 142.73352639304065 115.39779386747834 L 142.4654540395851 114.05010313820404 L 142.30394665967026 112.6855341752373 L 142.25 111.3125 L 142.30394665967026 109.93946582476272 L 142.4654540395851 108.57489686179596 L 142.73352639304065 107.22720613252166 L 143.1065109648348 105.90470259843842 L 143.5821081810525 104.61553993361093 L 144.15738582670357 103.36766625455793 L 144.82879712380338 102.1687751174709 L 145.5922025984384 101.02625808488172 L 146.44289560199945 99.9471591542218 L 147.3756313292354 98.93813132923542 L 148.38465915422177 98.00539560199947 L 149.4637580848817 97.15470259843842 L 150.6062751174709 96.39129712380338 L 151.80516625455795 95.71988582670356 L 153.05303993361096 95.14460818105248 L 154.34220259843843 94.6690109648348 L 155.6647061325217 94.29602639304065 L 157.012396861796 94.02795403958508 L 158.37696582476278 93.86644665967026 L 159.75000000000006 93.8125 L 161.12303417523736 93.86644665967026 L 162.48760313820412 94.0279540395851 L 163.8352938674784 94.29602639304068 L 165.15779740156165 94.66901096483484 L 166.44696006638915 95.14460818105252 L 167.69483374544217 95.7198858267036 L 168.8937248825292 96.39129712380344 L 170.03624191511838 97.15470259843849 L 171.11534084577832 98.00539560199954 L 172.12436867076468 98.93813132923552 L 173.05710439800063 99.9471591542219 L 173.90779740156168 101.02625808488185 L 174.6712028761967 102.16877511747103 L 175.3426141732965 103.36766625455807 L 175.9178918189476 104.61553993361109 L 176.39348903516523 105.90470259843859 L 176.76647360695938 107.22720613252184 L 177.03454596041493 108.57489686179616 L 177.19605334032974 109.93946582476292 Z" fill-opacity="1" stroke-opacity="1" stroke-miterlimit="10" stroke-width="6"/><text fill="rgb(255,255,255)" stroke="none" font-family="times new roman" font-size="10px" font-style="normal" font-weight="normal" text-decoration="normal" x="159.75" y="116.3125" text-anchor="middle" dominant-baseline="text-after-edge" fill-opacity="1">*1.58</text><g transform="scale(0.4265935214211076,0.4265935214211076) translate(89.25872627066747,46.450704225352126)"/></g></svg>