<?xml version="1.0" encoding="utf-8"?>
<!-- Generator: Adobe Illustrator 26.5.0, SVG Export Plug-In . SVG Version: 6.00 Build 0)  -->
<svg version="1.1" id="Layer_1" xmlns="http://www.w3.org/2000/svg" xmlns:xlink="http://www.w3.org/1999/xlink" x="0px" y="0px"
	 viewBox="0 0 319.6 259.7" style="enable-background:new 0 0 319.6 259.7;" xml:space="preserve">
<style type="text/css">
	.st0{fill:none;stroke:#78909C;stroke-width:2.0449;stroke-linejoin:round;stroke-miterlimit:20.4492;}
	.st1{fill:#78909C;}
	
		.st2{fill:none;stroke:#90A4AE;stroke-width:2.0449;stroke-linejoin:round;stroke-miterlimit:20.4492;stroke-dasharray:12.2695,6.1348;}
	.st3{fill:#455A64;}
	.st4{fill:#FFFFFF;}
	.st5{font-family:'ArialMT';}
	.st6{font-size:30.6738px;}
</style>
<g transform="translate(483.65650348824215,19.084518366335022) scale(2.0449226257228386,2.0449226257228386)">
	<path class="st0" d="M-146,27.4l33.7,51.8"/>
	<path class="st1" d="M-119.5,76l8.4,4.9l-1.1-9.7L-119.5,76z"/>
	<path class="st0" d="M-168.4,27l-35.4,50.4"/>
	<path class="st1" d="M-203.6,69.4L-205,79l8.6-4.6L-203.6,69.4z"/>
	<path class="st2" d="M-196.5,95.8l76.3,1.5"/>
	<path class="st3" d="M-136.9,10.7l-0.1,1.6l-0.2,1.6l-0.3,1.5l-0.4,1.5l-0.5,1.5l-0.7,1.4l-0.8,1.4l-0.9,1.3l-1,1.2l-1.1,1.2
		l-1.2,1.1l-1.2,1l-1.3,0.9l-1.4,0.8l-1.4,0.7l-1.5,0.5l-1.5,0.4l-1.5,0.3l-1.6,0.2l-1.6,0.1l-1.6-0.1l-1.6-0.2l-1.5-0.3l-1.5-0.4
		l-1.5-0.5l-1.4-0.7l-1.4-0.8l-1.3-0.9l-1.2-1l-1.2-1.1l-1.1-1.2l-1-1.2l-0.9-1.3l-0.8-1.4l-0.7-1.4l-0.5-1.5l-0.4-1.5l-0.3-1.5
		l-0.2-1.6l-0.1-1.6l0.1-1.6l0.2-1.6l0.3-1.5l0.4-1.5l0.5-1.5l0.7-1.4l0.8-1.4l0.9-1.3l1-1.2l1.1-1.2l1.2-1.1l1.2-1l1.3-0.9l1.4-0.8
		l1.4-0.7l1.5-0.5l1.5-0.4l1.5-0.3l1.6-0.2l1.6-0.1l1.6,0.1l1.6,0.2l1.5,0.3l1.5,0.4l1.5,0.5l1.4,0.7l1.4,0.8l1.3,0.9l1.2,1l1.2,1.1
		l1.1,1.2l1,1.2l0.9,1.3l0.8,1.4l0.7,1.4l0.5,1.5l0.4,1.5l0.3,1.5l0.2,1.6L-136.9,10.7z"/>
	<text transform="matrix(0.489 0 0 0.489 -163.9801 18.1676)" class="st4 st5 st6">*9</text>
	<path class="st3" d="M-196.5,95.4l-0.1,1.6l-0.2,1.6l-0.3,1.5l-0.4,1.5l-0.5,1.5l-0.7,1.4l-0.8,1.4l-0.9,1.3l-1,1.2l-1.1,1.2
		l-1.2,1.1l-1.2,1l-1.3,0.9l-1.4,0.8l-1.4,0.7l-1.5,0.5l-1.5,0.4l-1.5,0.3l-1.6,0.2l-1.6,0.1l-1.6-0.1l-1.6-0.2l-1.5-0.3l-1.5-0.4
		l-1.5-0.5l-1.4-0.7l-1.4-0.8l-1.3-0.9l-1.2-1l-1.2-1.1l-1.1-1.2l-1-1.2l-0.9-1.3l-0.8-1.4l-0.7-1.4l-0.5-1.5l-0.4-1.5l-0.3-1.5
		l-0.2-1.6l-0.1-1.6l0.1-1.6l0.2-1.6l0.3-1.5l0.4-1.5l0.5-1.5l0.7-1.4l0.8-1.4l0.9-1.3l1-1.2l1.1-1.2l1.2-1.1l1.2-1l1.3-0.9l1.4-0.8
		l1.4-0.7l1.5-0.5l1.5-0.4l1.5-0.3l1.6-0.2l1.6-0.1l1.6,0.1l1.6,0.2l1.5,0.3l1.5,0.4l1.5,0.5l1.4,0.7l1.4,0.8l1.3,0.9l1.2,1l1.2,1.1
		l1.1,1.2l1,1.2l0.9,1.3l0.8,1.4l0.7,1.4l0.5,1.5l0.4,1.5l0.3,1.5l0.2,1.6L-196.5,95.4z"/>
	<text transform="matrix(0.489 0 0 0.489 -231.9476 102.8648)" class="st4 st5 st6">*109</text>
	<path class="st3" d="M-80.2,97.7l-0.1,1.6l-0.2,1.6l-0.3,1.5l-0.4,1.5l-0.5,1.5l-0.7,1.4l-0.8,1.4l-0.9,1.3l-1,1.2l-1.1,1.2
		l-1.2,1.1l-1.2,1l-1.3,0.9l-1.4,0.8l-1.4,0.7l-1.5,0.5l-1.5,0.4l-1.5,0.3l-1.6,0.2l-1.6,0.1l-1.6-0.1l-1.6-0.2l-1.5-0.3l-1.5-0.4
		l-1.5-0.5l-1.4-0.7l-1.4-0.8l-1.3-0.9l-1.2-1l-1.2-1.1l-1.1-1.2l-1-1.2l-0.9-1.3l-0.8-1.4l-0.7-1.4l-0.5-1.5l-0.4-1.5l-0.3-1.5
		l-0.2-1.6l-0.1-1.6l0.1-1.6l0.2-1.6l0.3-1.5l0.4-1.5l0.5-1.5l0.7-1.4l0.8-1.4l0.9-1.3l1-1.2l1.1-1.2l1.2-1.1l1.2-1l1.3-0.9l1.4-0.8
		l1.4-0.7l1.5-0.5l1.5-0.4l1.5-0.3l1.6-0.2l1.6-0.1l1.6,0.1l1.6,0.2l1.5,0.3l1.5,0.4l1.5,0.5l1.4,0.7l1.4,0.8l1.3,0.9l1.2,1l1.2,1.1
		l1.1,1.2l1,1.2l0.9,1.3l0.8,1.4l0.7,1.4l0.5,1.5l0.4,1.5l0.3,1.5l0.2,1.6L-80.2,97.7z"/>
	<text transform="matrix(0.489 0 0 0.489 -115.1177 105.157)" class="st4 st5 st6">*115</text>
	<g transform="scale(0.4890160573417883,0.4890160573417883) translate(-483.65650348824215,-19.084518366335022)">
	</g>
</g>
</svg>
