<svg version="1.1" xmlns="http://www.w3.org/2000/svg" xmlns:xlink="http://www.w3.org/1999/xlink" width="1904" height="660"><defs/><g transform="translate(-74.57031745663858,127.03123810406765) scale(5.638021163775899,5.638021163775899)"><path fill="none" stroke="rgb(144,164,174)" paint-order="fill stroke markers" d=" M 308.3446481742817 38.71291913230186 Q 182.0798978287487 56 55.815147483215725 38.71291913230186" stroke-opacity="1" stroke-linejoin="round" stroke-miterlimit="10" stroke-dasharray="6,3"/><path fill="none" stroke="rgb(144,164,174)" paint-order="fill stroke markers" d=" M 55.815147483215725 33.28708086769814 Q 182.0798978287487 16 308.3446481742817 33.28708086769814" stroke-opacity="1" stroke-linejoin="round" stroke-miterlimit="10" stroke-dasharray="6,3"/><path fill="rgb(69,90,100)" stroke="none" paint-order="stroke fill markers" d=" M 348.1597956574974 36 L 348.09814233215997 37.5691819145569 L 347.9135624694002 39.128689300804616 L 347.6071940654509 40.66890727711811 L 347.18092598340047 42.180339887498945 L 346.63738630772315 43.6536686473018 L 345.97992614126474 45.079809994790935 L 345.2125989445792 46.44997129431898 L 344.3401355449964 47.75570504584947 L 343.36791496949803 48.98896096660367 L 342.30193128122835 50.14213562373095 L 341.14875662410105 51.20811931200062 L 339.9155007033469 52.180339887498945 L 338.60976695181637 53.052803287081844 L 337.23960565228833 53.82013048376736 L 335.8134643047992 54.477590650225736 L 334.3401355449964 55.02113032590307 L 332.82870293461554 55.44739840795353 L 331.28848495830204 55.75376681190276 L 329.7289775720543 55.938346674662554 L 328.1597956574974 56 L 326.5906137429405 55.938346674662554 L 325.03110635669276 55.75376681190276 L 323.4908883803793 55.44739840795353 L 321.9794557699984 55.02113032590307 L 320.5061270101956 54.477590650225736 L 319.07998566270646 53.82013048376736 L 317.7098243631784 53.052803287081844 L 316.4040906116479 52.180339887498945 L 315.17083469089374 51.20811931200062 L 314.01766003376645 50.14213562373095 L 312.95167634549676 48.98896096660368 L 311.9794557699985 47.75570504584947 L 311.1069923704156 46.44997129431898 L 310.33966517373005 45.079809994790935 L 309.68220500727165 43.6536686473018 L 309.1386653315943 42.18033988749895 L 308.71239724954387 40.66890727711811 L 308.4060288455946 39.128689300804616 L 308.22144898283483 37.5691819145569 L 308.1597956574974 36 L 308.22144898283483 34.43081808544311 L 308.4060288455946 32.871310699195384 L 308.71239724954387 31.331092722881895 L 309.1386653315943 29.819660112501055 L 309.68220500727165 28.346331352698208 L 310.33966517373005 26.920190005209065 L 311.1069923704155 25.550028705681026 L 311.9794557699984 24.24429495415054 L 312.95167634549676 23.01103903339633 L 314.01766003376645 21.85786437626905 L 315.17083469089374 20.791880687999388 L 316.4040906116479 19.819660112501055 L 317.7098243631784 18.947196712918153 L 319.07998566270646 18.179869516232635 L 320.5061270101956 17.522409349774257 L 321.9794557699985 16.97886967409692 L 323.4908883803793 16.552601592046457 L 325.0311063566928 16.24623318809724 L 326.59061374294055 16.061653325337435 L 328.15979565749745 16 L 329.72897757205436 16.061653325337446 L 331.2884849583021 16.246233188097257 L 332.8287029346156 16.55260159204649 L 334.34013554499643 16.97886967409696 L 335.8134643047993 17.522409349774307 L 337.23960565228845 18.1798695162327 L 338.6097669518165 18.947196712918224 L 339.915500703347 19.819660112501133 L 341.14875662410117 20.791880687999477 L 342.30193128122846 21.85786437626916 L 343.36791496949814 23.01103903339645 L 344.34013554499643 24.244294954150675 L 345.2125989445793 25.55002870568118 L 345.97992614126485 26.920190005209236 L 346.6373863077232 28.34633135269839 L 347.1809259834005 29.81966011250125 L 347.607194065451 31.331092722882104 L 347.9135624694002 32.871310699195604 L 348.09814233215997 34.430818085443335 Z" fill-opacity="1"/><text fill="rgb(255,255,255)" stroke="none" font-family="Helvetica Neue, Helvetica, sans-serif" font-size="15px" font-style="normal" font-weight="normal" text-decoration="normal" x="328.1597956574974" y="43.5" text-anchor="middle" dominant-baseline="text-after-edge" fill-opacity="1">*109</text><path fill="rgb(69,90,100)" stroke="none" paint-order="stroke fill markers" d=" M 56 36 L 55.938346674662554 37.5691819145569 L 55.75376681190276 39.128689300804616 L 55.44739840795353 40.66890727711811 L 55.02113032590307 42.180339887498945 L 54.477590650225736 43.6536686473018 L 53.82013048376736 45.079809994790935 L 53.052803287081844 46.44997129431898 L 52.180339887498945 47.75570504584947 L 51.20811931200062 48.98896096660367 L 50.14213562373095 50.14213562373095 L 48.98896096660367 51.20811931200062 L 47.75570504584947 52.180339887498945 L 46.44997129431898 53.052803287081844 L 45.079809994790935 53.82013048376736 L 43.6536686473018 54.477590650225736 L 42.180339887498945 55.02113032590307 L 40.66890727711811 55.44739840795353 L 39.128689300804616 55.75376681190276 L 37.5691819145569 55.938346674662554 L 36 56 L 34.4308180854431 55.938346674662554 L 32.871310699195384 55.75376681190276 L 31.33109272288189 55.44739840795353 L 29.819660112501055 55.02113032590307 L 28.346331352698208 54.477590650225736 L 26.920190005209065 53.82013048376736 L 25.550028705681022 53.052803287081844 L 24.24429495415054 52.180339887498945 L 23.01103903339633 51.20811931200062 L 21.85786437626905 50.14213562373095 L 20.79188068799938 48.98896096660368 L 19.819660112501055 47.75570504584947 L 18.947196712918156 46.44997129431898 L 18.179869516232642 45.079809994790935 L 17.522409349774264 43.6536686473018 L 16.97886967409693 42.18033988749895 L 16.552601592046468 40.66890727711811 L 16.246233188097246 39.128689300804616 L 16.061653325337442 37.5691819145569 L 16 36 L 16.061653325337442 34.43081808544311 L 16.246233188097243 32.871310699195384 L 16.552601592046468 31.331092722881895 L 16.978869674096927 29.819660112501055 L 17.522409349774264 28.346331352698208 L 18.179869516232642 26.920190005209065 L 18.947196712918153 25.550028705681026 L 19.819660112501047 24.24429495415054 L 20.79188068799938 23.01103903339633 L 21.857864376269045 21.85786437626905 L 23.01103903339632 20.791880687999388 L 24.244294954150533 19.819660112501055 L 25.55002870568103 18.947196712918153 L 26.92019000520908 18.179869516232635 L 28.346331352698225 17.522409349774257 L 29.819660112501083 16.97886967409692 L 31.331092722881934 16.552601592046457 L 32.87131069919543 16.24623318809724 L 34.43081808544316 16.061653325337435 L 36.000000000000064 16 L 37.56918191455698 16.061653325337446 L 39.1286893008047 16.246233188097257 L 40.6689072771182 16.55260159204649 L 42.180339887499045 16.97886967409696 L 43.6536686473019 17.522409349774307 L 45.07980999479104 18.1798695162327 L 46.449971294319084 18.947196712918224 L 47.755705045849574 19.819660112501133 L 48.988960966603784 20.791880687999477 L 50.142135623731065 21.85786437626916 L 51.208119312000726 23.01103903339645 L 52.18033988749905 24.244294954150675 L 53.05280328708194 25.55002870568118 L 53.82013048376744 26.920190005209236 L 54.477590650225814 28.34633135269839 L 55.02113032590314 29.81966011250125 L 55.447398407953585 31.331092722882104 L 55.75376681190279 32.871310699195604 L 55.938346674662576 34.430818085443335 Z" fill-opacity="1"/><text fill="rgb(255,255,255)" stroke="none" font-family="Helvetica Neue, Helvetica, sans-serif" font-size="15px" font-style="normal" font-weight="normal" text-decoration="normal" x="36" y="43.5" text-anchor="middle" dominant-baseline="text-after-edge" fill-opacity="1">*115</text><g transform="scale(0.1773671951472916,0.1773671951472916) translate(74.57031745663858,-127.03123810406765)"/></g></svg>