<?xml version="1.0" encoding="utf-8"?>
<!-- Generator: Adobe Illustrator 26.5.0, SVG Export Plug-In . SVG Version: 6.00 Build 0)  -->
<svg version="1.1" id="Layer_1" xmlns="http://www.w3.org/2000/svg" xmlns:xlink="http://www.w3.org/1999/xlink" x="0px" y="0px"
	 viewBox="0 0 391.2 159.2" style="enable-background:new 0 0 391.2 159.2;" xml:space="preserve">
<style type="text/css">
	.st0{fill:none;stroke:#78909C;stroke-width:1.9175;stroke-linejoin:round;stroke-miterlimit:19.1752;}
	.st1{fill:#78909C;}
	.st2{fill:#455A64;}
	.st3{fill:#FFFFFF;}
	.st4{font-family:'ArialMT';}
	.st5{font-size:28.7628px;}
</style>
<g transform="translate(568.7329604028824,63.20876759511775) scale(1.9175226642123153,1.9175226642123153)">
	<path class="st0" d="M-177.6-3.7l45.5,23.6"/>
	<path class="st1" d="M-140.1,20.7l9.7,0.2l-5.7-7.9L-140.1,20.7z"/>
	<path class="st0" d="M-256.6,28l122,1.8"/>
	<path class="st1" d="M-141.3,34l8.8-4.2l-8.6-4.5L-141.3,34z"/>
	<path class="st0" d="M-258.7,18.7L-215-3.1"/>
	<path class="st1" d="M-219,3.8l5.8-7.8l-9.7,0L-219,3.8z"/>
	<path class="st2" d="M-175.3-13l-0.1,1.6l-0.2,1.6l-0.3,1.5l-0.4,1.5l-0.5,1.5l-0.7,1.4l-0.8,1.4l-0.9,1.3l-1,1.2l-1.1,1.2
		l-1.2,1.1l-1.2,1l-1.3,0.9l-1.4,0.8l-1.4,0.7l-1.5,0.5l-1.5,0.4l-1.5,0.3l-1.6,0.2l-1.6,0.1l-1.6-0.1l-1.6-0.2l-1.5-0.3l-1.5-0.4
		l-1.5-0.5l-1.4-0.7l-1.4-0.8l-1.3-0.9l-1.2-1l-1.2-1.1l-1.1-1.2l-1-1.2l-0.9-1.3l-0.8-1.4l-0.7-1.4l-0.5-1.5l-0.4-1.5l-0.3-1.5
		l-0.2-1.6l-0.1-1.6l0.1-1.6l0.2-1.6l0.3-1.5l0.4-1.5l0.5-1.5l0.7-1.4l0.8-1.4l0.9-1.3l1-1.2l1.1-1.2l1.2-1.1l1.2-1l1.3-0.9l1.4-0.8
		l1.4-0.7l1.5-0.5l1.5-0.4l1.5-0.3l1.6-0.2l1.6-0.1l1.6,0.1l1.6,0.2l1.5,0.3l1.5,0.4l1.5,0.5l1.4,0.7l1.4,0.8l1.3,0.9l1.2,1l1.2,1.1
		l1.1,1.2l1,1.2l0.9,1.3l0.8,1.4l0.7,1.4l0.5,1.5l0.4,1.5l0.3,1.5l0.2,1.6L-175.3-13z"/>
	<text transform="matrix(0.5215 0 0 0.5215 -206.5755 -5.4638)" class="st3 st4 st5">*10</text>
	<path class="st2" d="M-256.6,27.7l-0.1,1.6l-0.2,1.6l-0.3,1.5l-0.4,1.5l-0.5,1.5l-0.7,1.4l-0.8,1.4l-0.9,1.3l-1,1.2l-1.1,1.2
		l-1.2,1.1l-1.2,1l-1.3,0.9l-1.4,0.8l-1.4,0.7l-1.5,0.5l-1.5,0.4l-1.5,0.3l-1.6,0.2l-1.6,0.1l-1.6-0.1l-1.6-0.2l-1.5-0.3l-1.5-0.4
		l-1.5-0.5l-1.4-0.7l-1.4-0.8l-1.3-0.9l-1.2-1l-1.2-1.1l-1.1-1.2l-1-1.2l-0.9-1.3l-0.8-1.4l-0.7-1.4l-0.5-1.5l-0.4-1.5l-0.3-1.5
		l-0.2-1.6l-0.1-1.6l0.1-1.6l0.2-1.6l0.3-1.5l0.4-1.5l0.5-1.5l0.7-1.4l0.8-1.4l0.9-1.3l1-1.2l1.1-1.2l1.2-1.1l1.2-1l1.3-0.9l1.4-0.8
		l1.4-0.7l1.5-0.5l1.5-0.4l1.5-0.3l1.6-0.2l1.6-0.1l1.6,0.1l1.6,0.2l1.5,0.3l1.5,0.4l1.5,0.5l1.4,0.7l1.4,0.8l1.3,0.9l1.2,1l1.2,1.1
		l1.1,1.2l1,1.2l0.9,1.3l0.8,1.4l0.7,1.4l0.5,1.5l0.4,1.5l0.3,1.5l0.2,1.6L-256.6,27.7z"/>
	<text transform="matrix(0.5215 0 0 0.5215 -287.8586 35.179)" class="st3 st4 st5">*39</text>
	<path class="st2" d="M-92.6,30l-0.1,1.6l-0.2,1.6l-0.3,1.5l-0.4,1.5l-0.5,1.5l-0.7,1.4l-0.8,1.4l-0.9,1.3l-1,1.2l-1.1,1.2l-1.2,1.1
		l-1.2,1l-1.3,0.9l-1.4,0.8l-1.4,0.7l-1.5,0.5l-1.5,0.4l-1.5,0.3L-111,50l-1.6,0.1l-1.6-0.1l-1.6-0.2l-1.5-0.3l-1.5-0.4l-1.5-0.5
		l-1.4-0.7l-1.4-0.8l-1.3-0.9l-1.2-1l-1.2-1.1l-1.1-1.2l-1-1.2l-0.9-1.3l-0.8-1.4l-0.7-1.4l-0.5-1.5l-0.4-1.5l-0.3-1.5l-0.2-1.6
		l-0.1-1.6l0.1-1.6l0.2-1.6l0.3-1.5l0.4-1.5l0.5-1.5l0.7-1.4l0.8-1.4l0.9-1.3l1-1.2l1.1-1.2l1.2-1.1l1.2-1l1.3-0.9l1.4-0.8l1.4-0.7
		l1.5-0.5l1.5-0.4l1.5-0.3l1.6-0.2l1.6-0.1l1.6,0.1l1.6,0.2l1.5,0.3l1.5,0.4l1.5,0.5l1.4,0.7l1.4,0.8l1.3,0.9l1.2,1l1.2,1.1l1.1,1.2
		l1,1.2l0.9,1.3l0.8,1.4l0.7,1.4l0.5,1.5l0.4,1.5l0.3,1.5l0.2,1.6L-92.6,30z"/>
	<text transform="matrix(0.5215 0 0 0.5215 -128.0109 37.5446)" class="st3 st4 st5">*147</text>
	<g transform="scale(0.5215062218890552,0.5215062218890552) translate(-568.7329604028824,-63.20876759511775)">
	</g>
</g>
</svg>
